<?xml version="1.0" encoding="UTF-8" standalone="no"?><svg xmlns="http://www.w3.org/2000/svg" xmlns:xlink="http://www.w3.org/1999/xlink" contentStyleType="text/css" height="1396px" preserveAspectRatio="none" style="width:1307px;height:1396px;background:#FFFFFF;" version="1.1" viewBox="0 0 1307 1396" width="1307px" zoomAndPan="magnify"><defs/><g><text fill="#000000" font-family="sans-serif" font-size="14" font-weight="bold" lengthAdjust="spacing" textLength="231" x="539" y="28.5352">System Sequence Diagram (SSD)</text><rect fill="#FFFFFF" height="1163.0859" style="stroke:#181818;stroke-width:1.0;" width="10" x="104" y="136.043"/><rect fill="#FFFFFF" height="30" style="stroke:#181818;stroke-width:1.0;" width="10" x="1241" y="165.5977"/><rect fill="#FFFFFF" height="30" style="stroke:#181818;stroke-width:1.0;" width="10" x="1241" y="274.2617"/><rect fill="#FFFFFF" height="37.5547" style="stroke:#181818;stroke-width:1.0;" width="10" x="1241" y="341.8164"/><rect fill="#FFFFFF" height="37.5547" style="stroke:#181818;stroke-width:1.0;" width="10" x="1241" y="416.9258"/><rect fill="#FFFFFF" height="37.5547" style="stroke:#181818;stroke-width:1.0;" width="10" x="1241" y="492.0352"/><rect fill="#FFFFFF" height="37.5547" style="stroke:#181818;stroke-width:1.0;" width="10" x="1241" y="567.1445"/><rect fill="#FFFFFF" height="37.5547" style="stroke:#181818;stroke-width:1.0;" width="10" x="1241" y="642.2539"/><rect fill="#FFFFFF" height="30" style="stroke:#181818;stroke-width:1.0;" width="10" x="1241" y="742.918"/><rect fill="#FFFFFF" height="61.1094" style="stroke:#181818;stroke-width:1.0;" width="10" x="1241" y="810.4727"/><rect fill="#FFFFFF" height="30" style="stroke:#181818;stroke-width:1.0;" width="10" x="1241" y="934.6914"/><rect fill="#FFFFFF" height="37.5547" style="stroke:#181818;stroke-width:1.0;" width="10" x="1241" y="1002.2461"/><rect fill="#FFFFFF" height="30" style="stroke:#181818;stroke-width:1.0;" width="10" x="1241" y="1102.9102"/><rect fill="#FFFFFF" height="37.5547" style="stroke:#181818;stroke-width:1.0;" width="10" x="1241" y="1170.4648"/><rect fill="#FFFFFF" height="37.5547" style="stroke:#181818;stroke-width:1.0;" width="10" x="1241" y="1252.5742"/><rect fill="none" height="1005.4219" style="stroke:#000000;stroke-width:1.5;" width="1290" x="10" y="210.5977"/><line style="stroke:#181818;stroke-width:0.5;stroke-dasharray:5.0,5.0;" x1="109" x2="109" y1="126.043" y2="1308.1289"/><line style="stroke:#181818;stroke-width:0.5;stroke-dasharray:5.0,5.0;" x1="1246" x2="1246" y1="126.043" y2="1308.1289"/><text fill="#000000" font-family="sans-serif" font-size="20" lengthAdjust="spacing" textLength="172" x="20" y="121.8242">Unregistered User</text><ellipse cx="109" cy="50.9883" fill="#E3E3E3" rx="8" ry="8" style="stroke:#181818;stroke-width:0.5;"/><path d="M109,58.9883 L109,85.9883 M96,66.9883 L122,66.9883 M109,85.9883 L96,100.9883 M109,85.9883 L122,100.9883 " fill="none" style="stroke:#181818;stroke-width:0.5;"/><text fill="#000000" font-family="sans-serif" font-size="20" lengthAdjust="spacing" textLength="172" x="20" y="1326.4648">Unregistered User</text><ellipse cx="109" cy="1339.1836" fill="#E3E3E3" rx="8" ry="8" style="stroke:#181818;stroke-width:0.5;"/><path d="M109,1347.1836 L109,1374.1836 M96,1355.1836 L122,1355.1836 M109,1374.1836 L96,1389.1836 M109,1374.1836 L122,1389.1836 " fill="none" style="stroke:#181818;stroke-width:0.5;"/><rect fill="#E3E3E3" height="37.5547" rx="2.5" ry="2.5" style="stroke:#181818;stroke-width:0.5;" width="88" x="1202" y="87.4883"/><text fill="#000000" font-family="sans-serif" font-size="20" lengthAdjust="spacing" textLength="74" x="1209" y="113.8242">:System</text><rect fill="#E3E3E3" height="37.5547" rx="2.5" ry="2.5" style="stroke:#181818;stroke-width:0.5;" width="88" x="1202" y="1307.1289"/><text fill="#000000" font-family="sans-serif" font-size="20" lengthAdjust="spacing" textLength="74" x="1209" y="1333.4648">:System</text><rect fill="#FFFFFF" height="1163.0859" style="stroke:#181818;stroke-width:1.0;" width="10" x="104" y="136.043"/><rect fill="#FFFFFF" height="30" style="stroke:#181818;stroke-width:1.0;" width="10" x="1241" y="165.5977"/><rect fill="#FFFFFF" height="30" style="stroke:#181818;stroke-width:1.0;" width="10" x="1241" y="274.2617"/><rect fill="#FFFFFF" height="37.5547" style="stroke:#181818;stroke-width:1.0;" width="10" x="1241" y="341.8164"/><rect fill="#FFFFFF" height="37.5547" style="stroke:#181818;stroke-width:1.0;" width="10" x="1241" y="416.9258"/><rect fill="#FFFFFF" height="37.5547" style="stroke:#181818;stroke-width:1.0;" width="10" x="1241" y="492.0352"/><rect fill="#FFFFFF" height="37.5547" style="stroke:#181818;stroke-width:1.0;" width="10" x="1241" y="567.1445"/><rect fill="#FFFFFF" height="37.5547" style="stroke:#181818;stroke-width:1.0;" width="10" x="1241" y="642.2539"/><rect fill="#FFFFFF" height="30" style="stroke:#181818;stroke-width:1.0;" width="10" x="1241" y="742.918"/><rect fill="#FFFFFF" height="61.1094" style="stroke:#181818;stroke-width:1.0;" width="10" x="1241" y="810.4727"/><rect fill="#FFFFFF" height="30" style="stroke:#181818;stroke-width:1.0;" width="10" x="1241" y="934.6914"/><rect fill="#FFFFFF" height="37.5547" style="stroke:#181818;stroke-width:1.0;" width="10" x="1241" y="1002.2461"/><rect fill="#FFFFFF" height="30" style="stroke:#181818;stroke-width:1.0;" width="10" x="1241" y="1102.9102"/><rect fill="#FFFFFF" height="37.5547" style="stroke:#181818;stroke-width:1.0;" width="10" x="1241" y="1170.4648"/><rect fill="#FFFFFF" height="37.5547" style="stroke:#181818;stroke-width:1.0;" width="10" x="1241" y="1252.5742"/><polygon fill="#181818" points="1229,161.5977,1239,165.5977,1229,169.5977,1233,165.5977" style="stroke:#181818;stroke-width:1.0;"/><line style="stroke:#181818;stroke-width:1.0;" x1="114" x2="1235" y1="165.5977" y2="165.5977"/><text fill="#000000" font-family="sans-serif" font-size="20" font-weight="bold" lengthAdjust="spacing" textLength="13" x="121" y="159.3789">1</text><text fill="#000000" font-family="sans-serif" font-size="20" lengthAdjust="spacing" textLength="247" x="138" y="159.3789">requests to list properties</text><path d="M10,210.5977 L82,210.5977 L82,226.1523 L72,236.1523 L10,236.1523 L10,210.5977 " fill="#EEEEEE" style="stroke:#000000;stroke-width:1.5;"/><rect fill="none" height="1005.4219" style="stroke:#000000;stroke-width:1.5;" width="1290" x="10" y="210.5977"/><text fill="#000000" font-family="sans-serif" font-size="20" font-weight="bold" lengthAdjust="spacing" textLength="27" x="25" y="230.9336">alt</text><text fill="#000000" font-family="sans-serif" font-size="20" font-weight="bold" lengthAdjust="spacing" textLength="161" x="97" y="231.9336">[Filter and Sort]</text><polygon fill="#181818" points="125,270.2617,115,274.2617,125,278.2617,121,274.2617" style="stroke:#181818;stroke-width:1.0;"/><line style="stroke:#181818;stroke-width:1.0;stroke-dasharray:2.0,2.0;" x1="119" x2="1240" y1="274.2617" y2="274.2617"/><text fill="#000000" font-family="sans-serif" font-size="20" font-weight="bold" lengthAdjust="spacing" textLength="13" x="131" y="268.043">2</text><text fill="#000000" font-family="sans-serif" font-size="20" lengthAdjust="spacing" textLength="856" x="148" y="268.043">shows type of property options (House, Apartement or Land) and requests endUser to choose</text><polygon fill="#181818" points="1229,337.8164,1239,341.8164,1229,345.8164,1233,341.8164" style="stroke:#181818;stroke-width:1.0;"/><line style="stroke:#181818;stroke-width:1.0;" x1="114" x2="1235" y1="341.8164" y2="341.8164"/><text fill="#000000" font-family="sans-serif" font-size="20" font-weight="bold" lengthAdjust="spacing" textLength="13" x="121" y="335.5977">3</text><text fill="#000000" font-family="sans-serif" font-size="20" lengthAdjust="spacing" textLength="225" x="138" y="335.5977">selects type of property</text><polygon fill="#181818" points="125,375.3711,115,379.3711,125,383.3711,121,379.3711" style="stroke:#181818;stroke-width:1.0;"/><line style="stroke:#181818;stroke-width:1.0;stroke-dasharray:2.0,2.0;" x1="119" x2="1245" y1="379.3711" y2="379.3711"/><text fill="#000000" font-family="sans-serif" font-size="20" font-weight="bold" lengthAdjust="spacing" textLength="13" x="131" y="373.1523">4</text><text fill="#000000" font-family="sans-serif" font-size="20" lengthAdjust="spacing" textLength="708" x="148" y="373.1523">shows type of business options (Sale or Rent) and requests endUser to choose</text><polygon fill="#181818" points="1229,412.9258,1239,416.9258,1229,420.9258,1233,416.9258" style="stroke:#181818;stroke-width:1.0;"/><line style="stroke:#181818;stroke-width:1.0;" x1="114" x2="1235" y1="416.9258" y2="416.9258"/><text fill="#000000" font-family="sans-serif" font-size="20" font-weight="bold" lengthAdjust="spacing" textLength="13" x="121" y="410.707">5</text><text fill="#000000" font-family="sans-serif" font-size="20" lengthAdjust="spacing" textLength="227" x="138" y="410.707">selects type of business</text><polygon fill="#181818" points="125,450.4805,115,454.4805,125,458.4805,121,454.4805" style="stroke:#181818;stroke-width:1.0;"/><line style="stroke:#181818;stroke-width:1.0;stroke-dasharray:2.0,2.0;" x1="119" x2="1245" y1="454.4805" y2="454.4805"/><text fill="#000000" font-family="sans-serif" font-size="20" font-weight="bold" lengthAdjust="spacing" textLength="13" x="131" y="448.2617">6</text><text fill="#000000" font-family="sans-serif" font-size="20" lengthAdjust="spacing" textLength="789" x="148" y="448.2617">shows number of rooms options (1, 2, 3, 4 or 5) filter and requests endUser to choose</text><polygon fill="#181818" points="1229,488.0352,1239,492.0352,1229,496.0352,1233,492.0352" style="stroke:#181818;stroke-width:1.0;"/><line style="stroke:#181818;stroke-width:1.0;" x1="114" x2="1235" y1="492.0352" y2="492.0352"/><text fill="#000000" font-family="sans-serif" font-size="20" font-weight="bold" lengthAdjust="spacing" textLength="13" x="121" y="485.8164">7</text><text fill="#000000" font-family="sans-serif" font-size="20" lengthAdjust="spacing" textLength="238" x="138" y="485.8164">selects number of rooms</text><polygon fill="#181818" points="125,525.5898,115,529.5898,125,533.5898,121,529.5898" style="stroke:#181818;stroke-width:1.0;"/><line style="stroke:#181818;stroke-width:1.0;" x1="119" x2="1245" y1="529.5898" y2="529.5898"/><text fill="#000000" font-family="sans-serif" font-size="20" font-weight="bold" lengthAdjust="spacing" textLength="13" x="131" y="523.3711">8</text><text fill="#000000" font-family="sans-serif" font-size="20" lengthAdjust="spacing" textLength="654" x="148" y="523.3711">shows sort criterias (Price, City or State) and requests endUser to choose</text><polygon fill="#181818" points="1229,563.1445,1239,567.1445,1229,571.1445,1233,567.1445" style="stroke:#181818;stroke-width:1.0;"/><line style="stroke:#181818;stroke-width:1.0;" x1="114" x2="1235" y1="567.1445" y2="567.1445"/><text fill="#000000" font-family="sans-serif" font-size="20" font-weight="bold" lengthAdjust="spacing" textLength="13" x="121" y="560.9258">9</text><text fill="#000000" font-family="sans-serif" font-size="20" lengthAdjust="spacing" textLength="181" x="138" y="560.9258">selects sort criteria</text><polygon fill="#181818" points="125,600.6992,115,604.6992,125,608.6992,121,604.6992" style="stroke:#181818;stroke-width:1.0;"/><line style="stroke:#181818;stroke-width:1.0;stroke-dasharray:2.0,2.0;" x1="119" x2="1245" y1="604.6992" y2="604.6992"/><text fill="#000000" font-family="sans-serif" font-size="20" font-weight="bold" lengthAdjust="spacing" textLength="26" x="131" y="598.4805">10</text><text fill="#000000" font-family="sans-serif" font-size="20" lengthAdjust="spacing" textLength="734" x="161" y="598.4805">shows order options (Ascending or Descending) and requests endUser to choose</text><polygon fill="#181818" points="1229,638.2539,1239,642.2539,1229,646.2539,1233,642.2539" style="stroke:#181818;stroke-width:1.0;"/><line style="stroke:#181818;stroke-width:1.0;" x1="114" x2="1235" y1="642.2539" y2="642.2539"/><text fill="#000000" font-family="sans-serif" font-size="20" font-weight="bold" lengthAdjust="spacing" textLength="26" x="121" y="636.0352">11</text><text fill="#000000" font-family="sans-serif" font-size="20" lengthAdjust="spacing" textLength="123" x="151" y="636.0352">selects order</text><polygon fill="#181818" points="125,675.8086,115,679.8086,125,683.8086,121,679.8086" style="stroke:#181818;stroke-width:1.0;"/><line style="stroke:#181818;stroke-width:1.0;stroke-dasharray:2.0,2.0;" x1="119" x2="1245" y1="679.8086" y2="679.8086"/><text fill="#000000" font-family="sans-serif" font-size="20" font-weight="bold" lengthAdjust="spacing" textLength="26" x="131" y="673.5898">12</text><text fill="#000000" font-family="sans-serif" font-size="20" lengthAdjust="spacing" textLength="692" x="161" y="673.5898">shows filter and sort options selected by endUser and requests confirmation</text><line style="stroke:#000000;stroke-width:1.0;stroke-dasharray:2.0,2.0;" x1="10" x2="1300" y1="688.8086" y2="688.8086"/><text fill="#000000" font-family="sans-serif" font-size="20" font-weight="bold" lengthAdjust="spacing" textLength="120" x="15" y="708.1445">[Only filter]</text><polygon fill="#181818" points="125,738.918,115,742.918,125,746.918,121,742.918" style="stroke:#181818;stroke-width:1.0;"/><line style="stroke:#181818;stroke-width:1.0;stroke-dasharray:2.0,2.0;" x1="119" x2="1240" y1="742.918" y2="742.918"/><text fill="#000000" font-family="sans-serif" font-size="20" font-weight="bold" lengthAdjust="spacing" textLength="26" x="131" y="736.6992">13</text><text fill="#000000" font-family="sans-serif" font-size="20" lengthAdjust="spacing" textLength="273" x="161" y="736.6992">shows filter and sort options</text><polygon fill="#181818" points="1229,806.4727,1239,810.4727,1229,814.4727,1233,810.4727" style="stroke:#181818;stroke-width:1.0;"/><line style="stroke:#181818;stroke-width:1.0;" x1="114" x2="1235" y1="810.4727" y2="810.4727"/><text fill="#000000" font-family="sans-serif" font-size="20" font-weight="bold" lengthAdjust="spacing" textLength="26" x="121" y="804.2539">14</text><text fill="#000000" font-family="sans-serif" font-size="20" lengthAdjust="spacing" textLength="490" x="151" y="804.2539">selects filter options but doesn't select sort options</text><polygon fill="#181818" points="125,867.582,115,871.582,125,875.582,121,871.582" style="stroke:#181818;stroke-width:1.0;"/><line style="stroke:#181818;stroke-width:1.0;stroke-dasharray:2.0,2.0;" x1="119" x2="1245" y1="871.582" y2="871.582"/><text fill="#000000" font-family="sans-serif" font-size="20" font-weight="bold" lengthAdjust="spacing" textLength="26" x="131" y="853.5859">15</text><text fill="#000000" font-family="sans-serif" font-size="20" lengthAdjust="spacing" textLength="705" x="161" y="841.8086">shows that properties will be filtered using filter options selected by endUser,</text><text fill="#000000" font-family="sans-serif" font-size="20" lengthAdjust="spacing" textLength="753" x="167" y="865.3633">sorted by default sort criteria (most recently added) and requests confirmation</text><line style="stroke:#000000;stroke-width:1.0;stroke-dasharray:2.0,2.0;" x1="10" x2="1300" y1="880.582" y2="880.582"/><text fill="#000000" font-family="sans-serif" font-size="20" font-weight="bold" lengthAdjust="spacing" textLength="110" x="15" y="899.918">[Only sort]</text><polygon fill="#181818" points="125,930.6914,115,934.6914,125,938.6914,121,934.6914" style="stroke:#181818;stroke-width:1.0;"/><line style="stroke:#181818;stroke-width:1.0;stroke-dasharray:2.0,2.0;" x1="119" x2="1240" y1="934.6914" y2="934.6914"/><text fill="#000000" font-family="sans-serif" font-size="20" font-weight="bold" lengthAdjust="spacing" textLength="26" x="131" y="928.4727">16</text><text fill="#000000" font-family="sans-serif" font-size="20" lengthAdjust="spacing" textLength="273" x="161" y="928.4727">shows filter and sort options</text><polygon fill="#181818" points="1229,998.2461,1239,1002.2461,1229,1006.2461,1233,1002.2461" style="stroke:#181818;stroke-width:1.0;"/><line style="stroke:#181818;stroke-width:1.0;" x1="114" x2="1235" y1="1002.2461" y2="1002.2461"/><text fill="#000000" font-family="sans-serif" font-size="20" font-weight="bold" lengthAdjust="spacing" textLength="26" x="121" y="996.0273">17</text><text fill="#000000" font-family="sans-serif" font-size="20" lengthAdjust="spacing" textLength="490" x="151" y="996.0273">selects sort options but doesn't select filter options</text><polygon fill="#181818" points="125,1035.8008,115,1039.8008,125,1043.8008,121,1039.8008" style="stroke:#181818;stroke-width:1.0;"/><line style="stroke:#181818;stroke-width:1.0;stroke-dasharray:2.0,2.0;" x1="119" x2="1245" y1="1039.8008" y2="1039.8008"/><text fill="#000000" font-family="sans-serif" font-size="20" font-weight="bold" lengthAdjust="spacing" textLength="26" x="131" y="1033.582">18</text><text fill="#000000" font-family="sans-serif" font-size="20" lengthAdjust="spacing" textLength="687" x="161" y="1033.582">shows that all properties will be listed with sort criteria selected by endUser</text><line style="stroke:#000000;stroke-width:1.0;stroke-dasharray:2.0,2.0;" x1="10" x2="1300" y1="1048.8008" y2="1048.8008"/><text fill="#000000" font-family="sans-serif" font-size="20" font-weight="bold" lengthAdjust="spacing" textLength="241" x="15" y="1068.1367">[Neither Filter nor Sort]</text><polygon fill="#181818" points="125,1098.9102,115,1102.9102,125,1106.9102,121,1102.9102" style="stroke:#181818;stroke-width:1.0;"/><line style="stroke:#181818;stroke-width:1.0;stroke-dasharray:2.0,2.0;" x1="119" x2="1240" y1="1102.9102" y2="1102.9102"/><text fill="#000000" font-family="sans-serif" font-size="20" font-weight="bold" lengthAdjust="spacing" textLength="26" x="131" y="1096.6914">19</text><text fill="#000000" font-family="sans-serif" font-size="20" lengthAdjust="spacing" textLength="273" x="161" y="1096.6914">shows filter and sort options</text><polygon fill="#181818" points="1229,1166.4648,1239,1170.4648,1229,1174.4648,1233,1170.4648" style="stroke:#181818;stroke-width:1.0;"/><line style="stroke:#181818;stroke-width:1.0;" x1="114" x2="1235" y1="1170.4648" y2="1170.4648"/><text fill="#000000" font-family="sans-serif" font-size="20" font-weight="bold" lengthAdjust="spacing" textLength="26" x="121" y="1164.2461">20</text><text fill="#000000" font-family="sans-serif" font-size="20" lengthAdjust="spacing" textLength="426" x="151" y="1164.2461">neither selects filter options nor sort options</text><polygon fill="#181818" points="125,1204.0195,115,1208.0195,125,1212.0195,121,1208.0195" style="stroke:#181818;stroke-width:1.0;"/><line style="stroke:#181818;stroke-width:1.0;stroke-dasharray:2.0,2.0;" x1="119" x2="1245" y1="1208.0195" y2="1208.0195"/><text fill="#000000" font-family="sans-serif" font-size="20" font-weight="bold" lengthAdjust="spacing" textLength="26" x="131" y="1201.8008">21</text><text fill="#000000" font-family="sans-serif" font-size="20" lengthAdjust="spacing" textLength="1073" x="161" y="1201.8008">shows that all properties will be listed with default sort criteria (most recently added) and requests confirmation</text><polygon fill="#181818" points="1229,1248.5742,1239,1252.5742,1229,1256.5742,1233,1252.5742" style="stroke:#181818;stroke-width:1.0;"/><line style="stroke:#181818;stroke-width:1.0;" x1="114" x2="1235" y1="1252.5742" y2="1252.5742"/><text fill="#000000" font-family="sans-serif" font-size="20" font-weight="bold" lengthAdjust="spacing" textLength="26" x="121" y="1246.3555">22</text><text fill="#000000" font-family="sans-serif" font-size="20" lengthAdjust="spacing" textLength="175" x="151" y="1246.3555">confirms selection</text><polygon fill="#181818" points="125,1286.1289,115,1290.1289,125,1294.1289,121,1290.1289" style="stroke:#181818;stroke-width:1.0;"/><line style="stroke:#181818;stroke-width:1.0;stroke-dasharray:2.0,2.0;" x1="119" x2="1245" y1="1290.1289" y2="1290.1289"/><text fill="#000000" font-family="sans-serif" font-size="20" font-weight="bold" lengthAdjust="spacing" textLength="26" x="131" y="1283.9102">23</text><text fill="#000000" font-family="sans-serif" font-size="20" lengthAdjust="spacing" textLength="383" x="161" y="1283.9102">displays the respective list of properties</text><!--SRC=[pLOzRzim4DtrAmvUQWCEqARjaY50K2FeKBH5XMnTQF4i4wPuAad5K7zzZvAOIBBT2auDn9CiKU_Ztl4ejrEc55OKch8TIf2u4PNszsHygduZNBzDN5m21HdAjfOA16yhx3qfHROJEQQ-rWWMCozChliBt5P8sYkJmqPeXqdYbUUbQUqy5f3YhmfDXh1I8W_BvscwMYI9g3oPgbYZvUlCauNPWx6OAtxBije7XtO6mZKN2JDvbQbI60-pcnQwUTfUDX3gKNXiboV0lt05LxTHo0sBPodEE_04cdcWj5GY0wDhNdZ2w433FOdZkosuq1xkbMQj88o4bAnl7uHVntZ5v8s86wuHxPctBX5e4tbheD8hCWxcdwbok8Ixu1CBP9TSa2-Cl6ZWdvHN0OxbPriYBdKaFARyXFhuwA0w3ZM7UoZo9Cbak-lAAOFEFTjD1JS8E_p1JgSvV8cJo7- -axPH0vObAdf6tYtXUWdlb_0XsFcuWCrpJrp2qaZ8T4SZGuxx5JAhMAlYNJJ_RbN6_VT9XQQqa7h6kbmm0_RpKo4hGorY5dSkGoF37687Aup_BcUZuJzVVgzLce948oqyZy1rtQeTwC_8R9GjH5ZxD_KjF_90Xcz6rntRsQekCcewhcXyNNcGXCwyyTsIQHB-FOYseZ_iOQ-qXZLs_5pfC23oiPnn3aluQHf1xQtkE1qsCymBueE5ZqcUR5nr8IMEP_Z418Vn1PPNbTsWPOyaDopc2xCJdDUH_C8Xpc7ibT-EOXXdDt6dV4M6OlBkP3TX5BwMmfjEsudD4xJ-nzqoeUANtW1TBaQU-9phOE96ZM17_HvwbSgLMjJ1RlYiTMM0U6mTzZv_uhVXqRxv0m00]--></g></svg>