<?xml version="1.0" encoding="UTF-8" standalone="no"?><svg xmlns="http://www.w3.org/2000/svg" xmlns:xlink="http://www.w3.org/1999/xlink" contentStyleType="text/css" height="895px" preserveAspectRatio="none" style="width:1327px;height:895px;background:#FFFFFF;" version="1.1" viewBox="0 0 1327 895" width="1327px" zoomAndPan="magnify"><defs/><g><text fill="#000000" font-family="sans-serif" font-size="14" font-weight="bold" lengthAdjust="spacing" textLength="231" x="549" y="28.5352">System Sequence Diagram (SSD)</text><rect fill="#FFFFFF" height="662.0938" style="stroke:#181818;stroke-width:1.0;" width="10" x="114" y="136.043"/><rect fill="#FFFFFF" height="37.5547" style="stroke:#181818;stroke-width:1.0;" width="10" x="1251" y="165.5977"/><rect fill="#FFFFFF" height="75.1094" style="stroke:#181818;stroke-width:1.0;" width="10" x="1251" y="281.8164"/><rect fill="#FFFFFF" height="37.5547" style="stroke:#181818;stroke-width:1.0;" width="10" x="1251" y="461.1445"/><rect fill="#FFFFFF" height="37.5547" style="stroke:#181818;stroke-width:1.0;" width="10" x="1251" y="561.8086"/><rect fill="#FFFFFF" height="37.5547" style="stroke:#181818;stroke-width:1.0;" width="10" x="1251" y="669.4727"/><rect fill="#FFFFFF" height="37.5547" style="stroke:#181818;stroke-width:1.0;" width="10" x="1251" y="751.582"/><rect fill="none" height="496.875" style="stroke:#000000;stroke-width:1.5;" width="1310" x="10" y="218.1523"/><rect fill="none" height="209.8828" style="stroke:#000000;stroke-width:1.5;" width="1290" x="20" y="397.4805"/><line style="stroke:#181818;stroke-width:0.5;stroke-dasharray:5.0,5.0;" x1="119" x2="119" y1="126.043" y2="807.1367"/><line style="stroke:#181818;stroke-width:0.5;stroke-dasharray:5.0,5.0;" x1="1256" x2="1256" y1="126.043" y2="807.1367"/><text fill="#000000" font-family="sans-serif" font-size="20" lengthAdjust="spacing" textLength="172" x="30" y="121.8242">Unregistered User</text><ellipse cx="119" cy="50.9883" fill="#E3E3E3" rx="8" ry="8" style="stroke:#181818;stroke-width:0.5;"/><path d="M119,58.9883 L119,85.9883 M106,66.9883 L132,66.9883 M119,85.9883 L106,100.9883 M119,85.9883 L132,100.9883 " fill="none" style="stroke:#181818;stroke-width:0.5;"/><text fill="#000000" font-family="sans-serif" font-size="20" lengthAdjust="spacing" textLength="172" x="30" y="825.4727">Unregistered User</text><ellipse cx="119" cy="838.1914" fill="#E3E3E3" rx="8" ry="8" style="stroke:#181818;stroke-width:0.5;"/><path d="M119,846.1914 L119,873.1914 M106,854.1914 L132,854.1914 M119,873.1914 L106,888.1914 M119,873.1914 L132,888.1914 " fill="none" style="stroke:#181818;stroke-width:0.5;"/><rect fill="#E3E3E3" height="37.5547" rx="2.5" ry="2.5" style="stroke:#181818;stroke-width:0.5;" width="88" x="1212" y="87.4883"/><text fill="#000000" font-family="sans-serif" font-size="20" lengthAdjust="spacing" textLength="74" x="1219" y="113.8242">:System</text><rect fill="#E3E3E3" height="37.5547" rx="2.5" ry="2.5" style="stroke:#181818;stroke-width:0.5;" width="88" x="1212" y="806.1367"/><text fill="#000000" font-family="sans-serif" font-size="20" lengthAdjust="spacing" textLength="74" x="1219" y="832.4727">:System</text><rect fill="#FFFFFF" height="662.0938" style="stroke:#181818;stroke-width:1.0;" width="10" x="114" y="136.043"/><rect fill="#FFFFFF" height="37.5547" style="stroke:#181818;stroke-width:1.0;" width="10" x="1251" y="165.5977"/><rect fill="#FFFFFF" height="75.1094" style="stroke:#181818;stroke-width:1.0;" width="10" x="1251" y="281.8164"/><rect fill="#FFFFFF" height="37.5547" style="stroke:#181818;stroke-width:1.0;" width="10" x="1251" y="461.1445"/><rect fill="#FFFFFF" height="37.5547" style="stroke:#181818;stroke-width:1.0;" width="10" x="1251" y="561.8086"/><rect fill="#FFFFFF" height="37.5547" style="stroke:#181818;stroke-width:1.0;" width="10" x="1251" y="669.4727"/><rect fill="#FFFFFF" height="37.5547" style="stroke:#181818;stroke-width:1.0;" width="10" x="1251" y="751.582"/><polygon fill="#181818" points="1239,161.5977,1249,165.5977,1239,169.5977,1243,165.5977" style="stroke:#181818;stroke-width:1.0;"/><line style="stroke:#181818;stroke-width:1.0;" x1="124" x2="1245" y1="165.5977" y2="165.5977"/><text fill="#000000" font-family="sans-serif" font-size="20" font-weight="bold" lengthAdjust="spacing" textLength="13" x="131" y="159.3789">1</text><text fill="#000000" font-family="sans-serif" font-size="20" lengthAdjust="spacing" textLength="247" x="148" y="159.3789">requests to list properties</text><polygon fill="#181818" points="135,199.1523,125,203.1523,135,207.1523,131,203.1523" style="stroke:#181818;stroke-width:1.0;"/><line style="stroke:#181818;stroke-width:1.0;stroke-dasharray:2.0,2.0;" x1="129" x2="1255" y1="203.1523" y2="203.1523"/><text fill="#000000" font-family="sans-serif" font-size="20" font-weight="bold" lengthAdjust="spacing" textLength="13" x="141" y="196.9336">2</text><text fill="#000000" font-family="sans-serif" font-size="20" lengthAdjust="spacing" textLength="636" x="158" y="196.9336">shows property filter and sort options and requests user to choose</text><path d="M10,218.1523 L82,218.1523 L82,233.707 L72,243.707 L10,243.707 L10,218.1523 " fill="#EEEEEE" style="stroke:#000000;stroke-width:1.5;"/><rect fill="none" height="496.875" style="stroke:#000000;stroke-width:1.5;" width="1310" x="10" y="218.1523"/><text fill="#000000" font-family="sans-serif" font-size="20" font-weight="bold" lengthAdjust="spacing" textLength="27" x="25" y="238.4883">alt</text><text fill="#000000" font-family="sans-serif" font-size="20" font-weight="bold" lengthAdjust="spacing" textLength="161" x="97" y="239.4883">[Filter and Sort]</text><polygon fill="#181818" points="1239,277.8164,1249,281.8164,1239,285.8164,1243,281.8164" style="stroke:#181818;stroke-width:1.0;"/><line style="stroke:#181818;stroke-width:1.0;" x1="124" x2="1245" y1="281.8164" y2="281.8164"/><text fill="#000000" font-family="sans-serif" font-size="20" font-weight="bold" lengthAdjust="spacing" textLength="13" x="131" y="275.5977">3</text><text fill="#000000" font-family="sans-serif" font-size="20" lengthAdjust="spacing" textLength="715" x="148" y="275.5977">selects filter options (type of business, type of property, number of rooms)</text><polygon fill="#181818" points="1239,315.3711,1249,319.3711,1239,323.3711,1243,319.3711" style="stroke:#181818;stroke-width:1.0;"/><line style="stroke:#181818;stroke-width:1.0;" x1="124" x2="1245" y1="319.3711" y2="319.3711"/><text fill="#000000" font-family="sans-serif" font-size="20" font-weight="bold" lengthAdjust="spacing" textLength="13" x="131" y="313.1523">4</text><text fill="#000000" font-family="sans-serif" font-size="20" lengthAdjust="spacing" textLength="774" x="148" y="313.1523">selects criteria to sort (price, state) and chooses order (ascending or descending)</text><polygon fill="#181818" points="135,352.9258,125,356.9258,135,360.9258,131,356.9258" style="stroke:#181818;stroke-width:1.0;"/><line style="stroke:#181818;stroke-width:1.0;stroke-dasharray:2.0,2.0;" x1="129" x2="1255" y1="356.9258" y2="356.9258"/><text fill="#000000" font-family="sans-serif" font-size="20" font-weight="bold" lengthAdjust="spacing" textLength="13" x="141" y="350.707">5</text><text fill="#000000" font-family="sans-serif" font-size="20" lengthAdjust="spacing" textLength="692" x="158" y="350.707">shows filter and sort options selected by user and requests confirmation</text><line style="stroke:#000000;stroke-width:1.0;stroke-dasharray:2.0,2.0;" x1="10" x2="1320" y1="365.9258" y2="365.9258"/><text fill="#000000" font-family="sans-serif" font-size="20" font-weight="bold" lengthAdjust="spacing" textLength="145" x="15" y="385.2617">[Filter or Sort]</text><path d="M20,397.4805 L92,397.4805 L92,413.0352 L82,423.0352 L20,423.0352 L20,397.4805 " fill="#EEEEEE" style="stroke:#000000;stroke-width:1.5;"/><rect fill="none" height="209.8828" style="stroke:#000000;stroke-width:1.5;" width="1290" x="20" y="397.4805"/><text fill="#000000" font-family="sans-serif" font-size="20" font-weight="bold" lengthAdjust="spacing" textLength="27" x="35" y="417.8164">alt</text><text fill="#000000" font-family="sans-serif" font-size="20" font-weight="bold" lengthAdjust="spacing" textLength="68" x="107" y="418.8164">[Filter]</text><polygon fill="#181818" points="1239,457.1445,1249,461.1445,1239,465.1445,1243,461.1445" style="stroke:#181818;stroke-width:1.0;"/><line style="stroke:#181818;stroke-width:1.0;" x1="124" x2="1245" y1="461.1445" y2="461.1445"/><text fill="#000000" font-family="sans-serif" font-size="20" font-weight="bold" lengthAdjust="spacing" textLength="13" x="131" y="454.9258">6</text><text fill="#000000" font-family="sans-serif" font-size="20" lengthAdjust="spacing" textLength="715" x="148" y="454.9258">selects filter options (type of business, type of property, number of rooms)</text><polygon fill="#181818" points="135,494.6992,125,498.6992,135,502.6992,131,498.6992" style="stroke:#181818;stroke-width:1.0;"/><line style="stroke:#181818;stroke-width:1.0;stroke-dasharray:2.0,2.0;" x1="129" x2="1255" y1="498.6992" y2="498.6992"/><text fill="#000000" font-family="sans-serif" font-size="20" font-weight="bold" lengthAdjust="spacing" textLength="13" x="141" y="492.4805">7</text><text fill="#000000" font-family="sans-serif" font-size="20" lengthAdjust="spacing" textLength="1018" x="158" y="492.4805">shows filter options selected by user, default sort criteria (most recently added) and requests confirmation</text><line style="stroke:#000000;stroke-width:1.0;stroke-dasharray:2.0,2.0;" x1="20" x2="1310" y1="507.6992" y2="507.6992"/><text fill="#000000" font-family="sans-serif" font-size="20" font-weight="bold" lengthAdjust="spacing" textLength="55" x="25" y="527.0352">[Sort]</text><polygon fill="#181818" points="1239,557.8086,1249,561.8086,1239,565.8086,1243,561.8086" style="stroke:#181818;stroke-width:1.0;"/><line style="stroke:#181818;stroke-width:1.0;" x1="124" x2="1245" y1="561.8086" y2="561.8086"/><text fill="#000000" font-family="sans-serif" font-size="20" font-weight="bold" lengthAdjust="spacing" textLength="13" x="131" y="555.5898">8</text><text fill="#000000" font-family="sans-serif" font-size="20" lengthAdjust="spacing" textLength="774" x="148" y="555.5898">selects criteria to sort (price, state) and chooses order (ascending or descending)</text><polygon fill="#181818" points="135,595.3633,125,599.3633,135,603.3633,131,599.3633" style="stroke:#181818;stroke-width:1.0;"/><line style="stroke:#181818;stroke-width:1.0;stroke-dasharray:2.0,2.0;" x1="129" x2="1255" y1="599.3633" y2="599.3633"/><text fill="#000000" font-family="sans-serif" font-size="20" font-weight="bold" lengthAdjust="spacing" textLength="13" x="141" y="593.1445">9</text><text fill="#000000" font-family="sans-serif" font-size="20" lengthAdjust="spacing" textLength="945" x="158" y="593.1445">shows that all properties will be listed with sort criteria selected by user and requests confirmation</text><line style="stroke:#000000;stroke-width:1.0;stroke-dasharray:2.0,2.0;" x1="10" x2="1320" y1="615.3633" y2="615.3633"/><text fill="#000000" font-family="sans-serif" font-size="20" font-weight="bold" lengthAdjust="spacing" textLength="241" x="15" y="634.6992">[Neither Filter nor Sort]</text><polygon fill="#181818" points="1239,665.4727,1249,669.4727,1239,673.4727,1243,669.4727" style="stroke:#181818;stroke-width:1.0;"/><line style="stroke:#181818;stroke-width:1.0;" x1="124" x2="1245" y1="669.4727" y2="669.4727"/><text fill="#000000" font-family="sans-serif" font-size="20" font-weight="bold" lengthAdjust="spacing" textLength="26" x="131" y="663.2539">10</text><text fill="#000000" font-family="sans-serif" font-size="20" lengthAdjust="spacing" textLength="638" x="161" y="663.2539">requests to list properties (without selecting filter and sort criteria)</text><polygon fill="#181818" points="135,703.0273,125,707.0273,135,711.0273,131,707.0273" style="stroke:#181818;stroke-width:1.0;"/><line style="stroke:#181818;stroke-width:1.0;stroke-dasharray:2.0,2.0;" x1="129" x2="1255" y1="707.0273" y2="707.0273"/><text fill="#000000" font-family="sans-serif" font-size="20" font-weight="bold" lengthAdjust="spacing" textLength="26" x="141" y="700.8086">11</text><text fill="#000000" font-family="sans-serif" font-size="20" lengthAdjust="spacing" textLength="1073" x="171" y="700.8086">shows that all properties will be listed with default sort criteria (most recently added) and requests confirmation</text><polygon fill="#181818" points="1239,747.582,1249,751.582,1239,755.582,1243,751.582" style="stroke:#181818;stroke-width:1.0;"/><line style="stroke:#181818;stroke-width:1.0;" x1="124" x2="1245" y1="751.582" y2="751.582"/><text fill="#000000" font-family="sans-serif" font-size="20" font-weight="bold" lengthAdjust="spacing" textLength="26" x="131" y="745.3633">12</text><text fill="#000000" font-family="sans-serif" font-size="20" lengthAdjust="spacing" textLength="175" x="161" y="745.3633">confirms selection</text><polygon fill="#181818" points="135,785.1367,125,789.1367,135,793.1367,131,789.1367" style="stroke:#181818;stroke-width:1.0;"/><line style="stroke:#181818;stroke-width:1.0;stroke-dasharray:2.0,2.0;" x1="129" x2="1255" y1="789.1367" y2="789.1367"/><text fill="#000000" font-family="sans-serif" font-size="20" font-weight="bold" lengthAdjust="spacing" textLength="26" x="141" y="782.918">13</text><text fill="#000000" font-family="sans-serif" font-size="20" lengthAdjust="spacing" textLength="383" x="171" y="782.918">displays the respective list of properties</text><!--SRC=[lLLDRzim3BtxLn0vEK0A33lci5FHuov6Vu0YCOaGMN95ke7twqV9aPCMTX1qGtsIQUhnyV73TBA-Kr6rBkWJ6Z2uLxtZb-2viNyGVlwegBX06tpGnnXQ18uztdpfb3wf0pOyE8I8cfK_k5i7EYeJpjOVOAySOLMnPN5j1c9ieS6t7hr6UBRgaDphfdbULvNgEVY-tM6Ki-OGOVNg8nwit8h2zfKmha1HFbGIYQssdV8Cg-q8dR-EnmnXtnNZw5w1FEa4JxyAaQsG5oh411p0IHpeOkXGW97oXGcZW2RZvVQJ06N0hUGRpbJk3h2tJXY3yWOeH8RGiGsUic6AsAUh4bOVGn294h31sNZACRnS8Hk1pFRPZ0YT58GAXnAwvg5327lOzMGz4csWM0hj3OpY9riCeQNr56MMrjtmEbe9RrNAC6jGTz5gt02nuAnp8cFc124QGQaLQVGcDOrKtc1vkx9Oqdr9xf6BDCvk6DN-eByEVczZgvBl56AX0YXDN4eWv785hk9CvPbCtrUPkzLvGBGbhJPbDuoIJkMiso1J8ZEFdjq0oXWqwmU4lIFk9F27nlxsxlgoadnKB4tWRdO7dAsyxp3l517rRFduISWlDEUyXfE4tbGttVeR9QR0NhhMbxPTrFREAeGw9H1wlh3EY_tJq9N47bWQ_oha_-tCfP5FSiuATK4fCrEm7lnL64kTKqFADlqxgKiGxsE2DpDVVa0pxAhgBm00]--></g></svg>