<?xml version="1.0" encoding="UTF-8" standalone="no"?><svg xmlns="http://www.w3.org/2000/svg" xmlns:xlink="http://www.w3.org/1999/xlink" contentStyleType="text/css" height="925px" preserveAspectRatio="none" style="width:1138px;height:925px;background:#FFFFFF;" version="1.1" viewBox="0 0 1138 925" width="1138px" zoomAndPan="magnify"><defs/><g><text fill="#000000" font-family="sans-serif" font-size="14" font-weight="bold" lengthAdjust="spacing" textLength="363" x="389" y="28.5352">System Sequence Diagram (SSD) - Alternative One</text><rect fill="#FFFFFF" height="692.2031" style="stroke:#181818;stroke-width:1.0;" width="10" x="114" y="136.043"/><rect fill="#FFFFFF" height="37.5547" style="stroke:#181818;stroke-width:1.0;" width="10" x="1063" y="165.5977"/><rect fill="#FFFFFF" height="37.5547" style="stroke:#181818;stroke-width:1.0;" width="10" x="1063" y="281.8164"/><rect fill="#FFFFFF" height="37.5547" style="stroke:#181818;stroke-width:1.0;" width="10" x="1063" y="356.9258"/><rect fill="#FFFFFF" height="37.5547" style="stroke:#181818;stroke-width:1.0;" width="10" x="1063" y="521.2539"/><rect fill="#FFFFFF" height="37.5547" style="stroke:#181818;stroke-width:1.0;" width="10" x="1063" y="644.4727"/><rect fill="#FFFFFF" height="37.5547" style="stroke:#181818;stroke-width:1.0;" width="10" x="1063" y="774.6914"/><rect fill="none" height="184.3281" style="stroke:#000000;stroke-width:1.5;" width="1102" x="20" y="218.1523"/><rect fill="none" height="280.5469" style="stroke:#000000;stroke-width:1.5;" width="1122" x="10" y="416.4805"/><rect fill="none" height="109.2188" style="stroke:#000000;stroke-width:1.5;" width="1102" x="20" y="457.5898"/><rect fill="none" height="109.2188" style="stroke:#000000;stroke-width:1.5;" width="1102" x="20" y="580.8086"/><rect fill="none" height="109.2188" style="stroke:#000000;stroke-width:1.5;" width="1102" x="20" y="711.0273"/><line style="stroke:#181818;stroke-width:0.5;stroke-dasharray:5.0,5.0;" x1="119" x2="119" y1="126.043" y2="837.2461"/><line style="stroke:#181818;stroke-width:0.5;stroke-dasharray:5.0,5.0;" x1="1068" x2="1068" y1="126.043" y2="837.2461"/><text fill="#000000" font-family="sans-serif" font-size="20" lengthAdjust="spacing" textLength="172" x="30" y="121.8242">Unregistered User</text><ellipse cx="119" cy="50.9883" fill="#E3E3E3" rx="8" ry="8" style="stroke:#181818;stroke-width:0.5;"/><path d="M119,58.9883 L119,85.9883 M106,66.9883 L132,66.9883 M119,85.9883 L106,100.9883 M119,85.9883 L132,100.9883 " fill="none" style="stroke:#181818;stroke-width:0.5;"/><text fill="#000000" font-family="sans-serif" font-size="20" lengthAdjust="spacing" textLength="172" x="30" y="855.582">Unregistered User</text><ellipse cx="119" cy="868.3008" fill="#E3E3E3" rx="8" ry="8" style="stroke:#181818;stroke-width:0.5;"/><path d="M119,876.3008 L119,903.3008 M106,884.3008 L132,884.3008 M119,903.3008 L106,918.3008 M119,903.3008 L132,918.3008 " fill="none" style="stroke:#181818;stroke-width:0.5;"/><rect fill="#E3E3E3" height="37.5547" rx="2.5" ry="2.5" style="stroke:#181818;stroke-width:0.5;" width="88" x="1024" y="87.4883"/><text fill="#000000" font-family="sans-serif" font-size="20" lengthAdjust="spacing" textLength="74" x="1031" y="113.8242">:System</text><rect fill="#E3E3E3" height="37.5547" rx="2.5" ry="2.5" style="stroke:#181818;stroke-width:0.5;" width="88" x="1024" y="836.2461"/><text fill="#000000" font-family="sans-serif" font-size="20" lengthAdjust="spacing" textLength="74" x="1031" y="862.582">:System</text><rect fill="#FFFFFF" height="692.2031" style="stroke:#181818;stroke-width:1.0;" width="10" x="114" y="136.043"/><rect fill="#FFFFFF" height="37.5547" style="stroke:#181818;stroke-width:1.0;" width="10" x="1063" y="165.5977"/><rect fill="#FFFFFF" height="37.5547" style="stroke:#181818;stroke-width:1.0;" width="10" x="1063" y="281.8164"/><rect fill="#FFFFFF" height="37.5547" style="stroke:#181818;stroke-width:1.0;" width="10" x="1063" y="356.9258"/><rect fill="#FFFFFF" height="37.5547" style="stroke:#181818;stroke-width:1.0;" width="10" x="1063" y="521.2539"/><rect fill="#FFFFFF" height="37.5547" style="stroke:#181818;stroke-width:1.0;" width="10" x="1063" y="644.4727"/><rect fill="#FFFFFF" height="37.5547" style="stroke:#181818;stroke-width:1.0;" width="10" x="1063" y="774.6914"/><polygon fill="#181818" points="1051,161.5977,1061,165.5977,1051,169.5977,1055,165.5977" style="stroke:#181818;stroke-width:1.0;"/><line style="stroke:#181818;stroke-width:1.0;" x1="124" x2="1057" y1="165.5977" y2="165.5977"/><text fill="#000000" font-family="sans-serif" font-size="20" font-weight="bold" lengthAdjust="spacing" textLength="13" x="131" y="159.3789">1</text><text fill="#000000" font-family="sans-serif" font-size="20" lengthAdjust="spacing" textLength="211" x="148" y="159.3789">Asks to list properties</text><polygon fill="#181818" points="135,199.1523,125,203.1523,135,207.1523,131,203.1523" style="stroke:#181818;stroke-width:1.0;"/><line style="stroke:#181818;stroke-width:1.0;stroke-dasharray:2.0,2.0;" x1="129" x2="1067" y1="203.1523" y2="203.1523"/><text fill="#000000" font-family="sans-serif" font-size="20" font-weight="bold" lengthAdjust="spacing" textLength="13" x="141" y="196.9336">2</text><text fill="#000000" font-family="sans-serif" font-size="20" lengthAdjust="spacing" textLength="274" x="158" y="196.9336">Shows filter and sort options</text><path d="M20,218.1523 L92,218.1523 L92,233.707 L82,243.707 L20,243.707 L20,218.1523 " fill="#EEEEEE" style="stroke:#000000;stroke-width:1.5;"/><rect fill="none" height="184.3281" style="stroke:#000000;stroke-width:1.5;" width="1102" x="20" y="218.1523"/><text fill="#000000" font-family="sans-serif" font-size="20" font-weight="bold" lengthAdjust="spacing" textLength="27" x="35" y="238.4883">alt</text><text fill="#000000" font-family="sans-serif" font-size="20" font-weight="bold" lengthAdjust="spacing" textLength="161" x="107" y="239.4883">[Filter and Sort]</text><polygon fill="#181818" points="1051,277.8164,1061,281.8164,1051,285.8164,1055,281.8164" style="stroke:#181818;stroke-width:1.0;"/><line style="stroke:#181818;stroke-width:1.0;" x1="124" x2="1057" y1="281.8164" y2="281.8164"/><text fill="#000000" font-family="sans-serif" font-size="20" font-weight="bold" lengthAdjust="spacing" textLength="13" x="131" y="275.5977">3</text><text fill="#000000" font-family="sans-serif" font-size="20" lengthAdjust="spacing" textLength="903" x="148" y="275.5977">selects filters and asks to list properties (type of business, type of property, number of rooms)</text><polygon fill="#181818" points="135,315.3711,125,319.3711,135,323.3711,131,319.3711" style="stroke:#181818;stroke-width:1.0;"/><line style="stroke:#181818;stroke-width:1.0;stroke-dasharray:2.0,2.0;" x1="129" x2="1067" y1="319.3711" y2="319.3711"/><text fill="#000000" font-family="sans-serif" font-size="20" font-weight="bold" lengthAdjust="spacing" textLength="13" x="141" y="313.1523">4</text><text fill="#000000" font-family="sans-serif" font-size="20" lengthAdjust="spacing" textLength="239" x="158" y="313.1523">shows filtered properties</text><polygon fill="#181818" points="1051,352.9258,1061,356.9258,1051,360.9258,1055,356.9258" style="stroke:#181818;stroke-width:1.0;"/><line style="stroke:#181818;stroke-width:1.0;" x1="124" x2="1057" y1="356.9258" y2="356.9258"/><text fill="#000000" font-family="sans-serif" font-size="20" font-weight="bold" lengthAdjust="spacing" textLength="13" x="131" y="350.707">5</text><text fill="#000000" font-family="sans-serif" font-size="20" lengthAdjust="spacing" textLength="666" x="148" y="350.707">selects criteria to sort options and asks to list properties (price, state)</text><polygon fill="#181818" points="135,390.4805,125,394.4805,135,398.4805,131,394.4805" style="stroke:#181818;stroke-width:1.0;"/><line style="stroke:#181818;stroke-width:1.0;stroke-dasharray:2.0,2.0;" x1="129" x2="1067" y1="394.4805" y2="394.4805"/><text fill="#000000" font-family="sans-serif" font-size="20" font-weight="bold" lengthAdjust="spacing" textLength="13" x="141" y="388.2617">6</text><text fill="#000000" font-family="sans-serif" font-size="20" lengthAdjust="spacing" textLength="669" x="158" y="388.2617">shows the previously filtered properties sorted by the selected criteria</text><path d="M10,416.4805 L82,416.4805 L82,432.0352 L72,442.0352 L10,442.0352 L10,416.4805 " fill="#EEEEEE" style="stroke:#000000;stroke-width:1.5;"/><rect fill="none" height="280.5469" style="stroke:#000000;stroke-width:1.5;" width="1122" x="10" y="416.4805"/><text fill="#000000" font-family="sans-serif" font-size="20" font-weight="bold" lengthAdjust="spacing" textLength="27" x="25" y="436.8164">alt</text><text fill="#000000" font-family="sans-serif" font-size="20" font-weight="bold" lengthAdjust="spacing" textLength="145" x="97" y="437.8164">[Filter or Sort]</text><path d="M20,457.5898 L92,457.5898 L92,473.1445 L82,483.1445 L20,483.1445 L20,457.5898 " fill="#EEEEEE" style="stroke:#000000;stroke-width:1.5;"/><rect fill="none" height="109.2188" style="stroke:#000000;stroke-width:1.5;" width="1102" x="20" y="457.5898"/><text fill="#000000" font-family="sans-serif" font-size="20" font-weight="bold" lengthAdjust="spacing" textLength="27" x="35" y="477.9258">alt</text><text fill="#000000" font-family="sans-serif" font-size="20" font-weight="bold" lengthAdjust="spacing" textLength="68" x="107" y="478.9258">[Filter]</text><polygon fill="#181818" points="1051,517.2539,1061,521.2539,1051,525.2539,1055,521.2539" style="stroke:#181818;stroke-width:1.0;"/><line style="stroke:#181818;stroke-width:1.0;" x1="124" x2="1057" y1="521.2539" y2="521.2539"/><text fill="#000000" font-family="sans-serif" font-size="20" font-weight="bold" lengthAdjust="spacing" textLength="13" x="131" y="515.0352">7</text><text fill="#000000" font-family="sans-serif" font-size="20" lengthAdjust="spacing" textLength="903" x="148" y="515.0352">selects filters and asks to list properties (type of business, type of property, number of rooms)</text><polygon fill="#181818" points="135,554.8086,125,558.8086,135,562.8086,131,558.8086" style="stroke:#181818;stroke-width:1.0;"/><line style="stroke:#181818;stroke-width:1.0;stroke-dasharray:2.0,2.0;" x1="129" x2="1067" y1="558.8086" y2="558.8086"/><text fill="#000000" font-family="sans-serif" font-size="20" font-weight="bold" lengthAdjust="spacing" textLength="13" x="141" y="552.5898">8</text><text fill="#000000" font-family="sans-serif" font-size="20" lengthAdjust="spacing" textLength="712" x="158" y="552.5898">shows filtered properties ordered by default criteria (most recently added)</text><path d="M20,580.8086 L92,580.8086 L92,596.3633 L82,606.3633 L20,606.3633 L20,580.8086 " fill="#EEEEEE" style="stroke:#000000;stroke-width:1.5;"/><rect fill="none" height="109.2188" style="stroke:#000000;stroke-width:1.5;" width="1102" x="20" y="580.8086"/><text fill="#000000" font-family="sans-serif" font-size="20" font-weight="bold" lengthAdjust="spacing" textLength="27" x="35" y="601.1445">alt</text><text fill="#000000" font-family="sans-serif" font-size="20" font-weight="bold" lengthAdjust="spacing" textLength="55" x="107" y="602.1445">[Sort]</text><polygon fill="#181818" points="1051,640.4727,1061,644.4727,1051,648.4727,1055,644.4727" style="stroke:#181818;stroke-width:1.0;"/><line style="stroke:#181818;stroke-width:1.0;" x1="124" x2="1057" y1="644.4727" y2="644.4727"/><text fill="#000000" font-family="sans-serif" font-size="20" font-weight="bold" lengthAdjust="spacing" textLength="13" x="131" y="638.2539">9</text><text fill="#000000" font-family="sans-serif" font-size="20" lengthAdjust="spacing" textLength="656" x="148" y="638.2539">selects criteria to sort options and ask to list properties (price, state)</text><polygon fill="#181818" points="135,678.0273,125,682.0273,135,686.0273,131,682.0273" style="stroke:#181818;stroke-width:1.0;"/><line style="stroke:#181818;stroke-width:1.0;stroke-dasharray:2.0,2.0;" x1="129" x2="1067" y1="682.0273" y2="682.0273"/><text fill="#000000" font-family="sans-serif" font-size="20" font-weight="bold" lengthAdjust="spacing" textLength="26" x="141" y="675.8086">10</text><text fill="#000000" font-family="sans-serif" font-size="20" lengthAdjust="spacing" textLength="483" x="171" y="675.8086">shows all properties sorted by the selected criteria</text><path d="M20,711.0273 L92,711.0273 L92,726.582 L82,736.582 L20,736.582 L20,711.0273 " fill="#EEEEEE" style="stroke:#000000;stroke-width:1.5;"/><rect fill="none" height="109.2188" style="stroke:#000000;stroke-width:1.5;" width="1102" x="20" y="711.0273"/><text fill="#000000" font-family="sans-serif" font-size="20" font-weight="bold" lengthAdjust="spacing" textLength="27" x="35" y="731.3633">alt</text><text fill="#000000" font-family="sans-serif" font-size="20" font-weight="bold" lengthAdjust="spacing" textLength="241" x="107" y="732.3633">[Neither Filter nor Sort]</text><polygon fill="#181818" points="1051,770.6914,1061,774.6914,1051,778.6914,1055,774.6914" style="stroke:#181818;stroke-width:1.0;"/><line style="stroke:#181818;stroke-width:1.0;" x1="124" x2="1057" y1="774.6914" y2="774.6914"/><text fill="#000000" font-family="sans-serif" font-size="20" font-weight="bold" lengthAdjust="spacing" textLength="26" x="131" y="768.4727">11</text><text fill="#000000" font-family="sans-serif" font-size="20" lengthAdjust="spacing" textLength="445" x="161" y="768.4727">asks to list properties (without filters and sort)</text><polygon fill="#181818" points="135,808.2461,125,812.2461,135,816.2461,131,812.2461" style="stroke:#181818;stroke-width:1.0;"/><line style="stroke:#181818;stroke-width:1.0;stroke-dasharray:2.0,2.0;" x1="129" x2="1067" y1="812.2461" y2="812.2461"/><text fill="#000000" font-family="sans-serif" font-size="20" font-weight="bold" lengthAdjust="spacing" textLength="26" x="141" y="806.0273">12</text><text fill="#000000" font-family="sans-serif" font-size="20" lengthAdjust="spacing" textLength="651" x="171" y="806.0273">shows all properties sorted by default criteria (most recently added)</text><!--SRC=[nLJ1Zjf03BtdAonEh0HIrIE7IYkjzjWUels08MF2YCau7JkWzElhJ4Y0LOZASYWdux6Vdz-y2HzSg4qqbQVYW1OixapZvPs2vEuFmlTl6GybK56WOX-fGf3OuDL9ROg3AJ6NrYD4BCI4qbyNyDvOEhbGmivunYmJ9rgQjonOGOw_6mm5mfipPLU-pFEt5rZ3gnUCmOWx8lmAscOQeT1KMumQ5q8H5XyXOkaK9oh_3yQu0CCfo7IskCBL9WWiDlsmTDg72S8TZM1Vde7-kWZMFmPg6tZb0uCGU9q1TQGQ5HGv5O_z0s2NF7Uk5II1RI3VqubXvxfjm0GBJ560Qd4KUY2Bar362xnVsd9jI_b9eenUbH_cSEemq-HXAMsDG3lODkm2CgzWo9ohsXNqGdUvI5JnopXwaklqwdorkjxF9_rcLfzTiOXEyPpfLhlMSdxdEhe2Ly2YivvOHlQei7XqrB1lftPBd3IpRLDnprh_3xHdTk-o6EpdsrUZfyk_i1xFnjH_DiMibW-QG_UrAQKAdZz9bpjVLgIyzIk3GLH_OotQMnhJiWxItcXuywIUyjm3blkoLCRxhzZi7pKPWqwOd-WKD0u638C3x-fqrrKd1Q96RYpOCN_Y2TxLuK6pt7z_Vm40]--></g></svg>