<?xml version="1.0" encoding="UTF-8" standalone="no"?><svg xmlns="http://www.w3.org/2000/svg" xmlns:xlink="http://www.w3.org/1999/xlink" contentStyleType="text/css" height="984px" preserveAspectRatio="none" style="width:2914px;height:984px;background:#FFFFFF;" version="1.1" viewBox="0 0 2914 984" width="2914px" zoomAndPan="magnify"><defs/><g><rect fill="#FFFFFF" height="789.0938" style="stroke:#181818;stroke-width:1.0;" width="10" x="89" y="98.5547"/><rect fill="#FFFFFF" height="37.5547" style="stroke:#181818;stroke-width:1.0;" width="10" x="1250" y="128.1094"/><rect fill="#FFFFFF" height="675.4297" style="stroke:#181818;stroke-width:1.0;" width="10" x="1250" y="203.2188"/><rect fill="#FFFFFF" height="489.2109" style="stroke:#181818;stroke-width:1.0;" width="10" x="1584" y="250.7734"/><rect fill="#FFFFFF" height="37.5547" style="stroke:#181818;stroke-width:1.0;" width="10" x="1782" y="289.3281"/><rect fill="#FFFFFF" height="37.5547" style="stroke:#181818;stroke-width:1.0;" width="10" x="1782" y="514.6563"/><rect fill="#FFFFFF" height="37.5547" style="stroke:#181818;stroke-width:1.0;" width="10" x="1931" y="364.4375"/><rect fill="#FFFFFF" height="37.5547" style="stroke:#181818;stroke-width:1.0;" width="10" x="1931" y="589.7656"/><rect fill="#FFFFFF" height="37.5547" style="stroke:#181818;stroke-width:1.0;" width="10" x="2601" y="439.5469"/><rect fill="#FFFFFF" height="37.5547" style="stroke:#181818;stroke-width:1.0;" width="10" x="2821.5" y="664.875"/><line style="stroke:#181818;stroke-width:0.5;stroke-dasharray:5.0,5.0;" x1="94" x2="94" y1="88.5547" y2="896.6484"/><line style="stroke:#181818;stroke-width:0.5;stroke-dasharray:5.0,5.0;" x1="1254.5" x2="1254.5" y1="88.5547" y2="896.6484"/><line style="stroke:#181818;stroke-width:0.5;stroke-dasharray:5.0,5.0;" x1="1588.5" x2="1588.5" y1="245.4961" y2="896.6484"/><line style="stroke:#181818;stroke-width:0.5;stroke-dasharray:5.0,5.0;" x1="1786.5" x2="1786.5" y1="88.5547" y2="896.6484"/><line style="stroke:#181818;stroke-width:0.5;stroke-dasharray:5.0,5.0;" x1="1935.5" x2="1935.5" y1="88.5547" y2="896.6484"/><line style="stroke:#181818;stroke-width:0.5;stroke-dasharray:5.0,5.0;" x1="2606" x2="2606" y1="88.5547" y2="896.6484"/><line style="stroke:#181818;stroke-width:0.5;stroke-dasharray:5.0,5.0;" x1="2826" x2="2826" y1="88.5547" y2="896.6484"/><text fill="#000000" font-family="sans-serif" font-size="20" lengthAdjust="spacing" textLength="172" x="5" y="84.3359">Unregistered User</text><ellipse cx="94" cy="13.5" fill="#E3E3E3" rx="8" ry="8" style="stroke:#181818;stroke-width:0.5;"/><path d="M94,21.5 L94,48.5 M81,29.5 L107,29.5 M94,48.5 L81,63.5 M94,48.5 L107,63.5 " fill="none" style="stroke:#181818;stroke-width:0.5;"/><text fill="#000000" font-family="sans-serif" font-size="20" lengthAdjust="spacing" textLength="172" x="5" y="914.9844">Unregistered User</text><ellipse cx="94" cy="927.7031" fill="#E3E3E3" rx="8" ry="8" style="stroke:#181818;stroke-width:0.5;"/><path d="M94,935.7031 L94,962.7031 M81,943.7031 L107,943.7031 M94,962.7031 L81,977.7031 M94,962.7031 L107,977.7031 " fill="none" style="stroke:#181818;stroke-width:0.5;"/><rect fill="#E3E3E3" height="37.5547" rx="2.5" ry="2.5" style="stroke:#181818;stroke-width:0.5;" width="161" x="1174.5" y="50"/><text fill="#000000" font-family="sans-serif" font-size="20" lengthAdjust="spacing" textLength="147" x="1181.5" y="76.3359">:RegisterUserUI</text><rect fill="#E3E3E3" height="37.5547" rx="2.5" ry="2.5" style="stroke:#181818;stroke-width:0.5;" width="161" x="1174.5" y="895.6484"/><text fill="#000000" font-family="sans-serif" font-size="20" lengthAdjust="spacing" textLength="147" x="1181.5" y="921.9844">:RegisterUserUI</text><rect fill="#E3E3E3" height="37.5547" rx="2.5" ry="2.5" style="stroke:#181818;stroke-width:0.5;" width="237" x="1470.5" y="895.6484"/><text fill="#000000" font-family="sans-serif" font-size="20" lengthAdjust="spacing" textLength="223" x="1477.5" y="921.9844">:RegisterUserController</text><rect fill="#E3E3E3" height="37.5547" rx="2.5" ry="2.5" style="stroke:#181818;stroke-width:0.5;" width="139" x="1717.5" y="50"/><text fill="#000000" font-family="sans-serif" font-size="20" lengthAdjust="spacing" textLength="125" x="1724.5" y="76.3359">:Repositories</text><rect fill="#E3E3E3" height="37.5547" rx="2.5" ry="2.5" style="stroke:#181818;stroke-width:0.5;" width="139" x="1717.5" y="895.6484"/><text fill="#000000" font-family="sans-serif" font-size="20" lengthAdjust="spacing" textLength="125" x="1724.5" y="921.9844">:Repositories</text><rect fill="#E3E3E3" height="61.1094" rx="2.5" ry="2.5" style="stroke:#181818;stroke-width:0.5;" width="139" x="1866.5" y="26.4453"/><text fill="#000000" font-family="sans-serif" font-size="20" lengthAdjust="spacing" textLength="114" x="1879" y="52.7813">repositories</text><text fill="#000000" font-family="sans-serif" font-size="20" lengthAdjust="spacing" textLength="125" x="1873.5" y="76.3359">:Repositories</text><rect fill="#E3E3E3" height="61.1094" rx="2.5" ry="2.5" style="stroke:#181818;stroke-width:0.5;" width="139" x="1866.5" y="895.6484"/><text fill="#000000" font-family="sans-serif" font-size="20" lengthAdjust="spacing" textLength="114" x="1879" y="921.9844">repositories</text><text fill="#000000" font-family="sans-serif" font-size="20" lengthAdjust="spacing" textLength="125" x="1873.5" y="945.5391">:Repositories</text><rect fill="#E3E3E3" height="61.1094" rx="2.5" ry="2.5" style="stroke:#181818;stroke-width:0.5;" width="258" x="2477" y="26.4453"/><text fill="#000000" font-family="sans-serif" font-size="20" lengthAdjust="spacing" textLength="244" x="2484" y="52.7813">authenticationRepository:</text><text fill="#000000" font-family="sans-serif" font-size="20" lengthAdjust="spacing" textLength="241" x="2485.5" y="76.3359">AuthenticationRepository</text><rect fill="#E3E3E3" height="61.1094" rx="2.5" ry="2.5" style="stroke:#181818;stroke-width:0.5;" width="258" x="2477" y="895.6484"/><text fill="#000000" font-family="sans-serif" font-size="20" lengthAdjust="spacing" textLength="244" x="2484" y="921.9844">authenticationRepository:</text><text fill="#000000" font-family="sans-serif" font-size="20" lengthAdjust="spacing" textLength="241" x="2485.5" y="945.5391">AuthenticationRepository</text><rect fill="#E3E3E3" height="61.1094" rx="2.5" ry="2.5" style="stroke:#181818;stroke-width:0.5;" width="163" x="2745" y="26.4453"/><text fill="#000000" font-family="sans-serif" font-size="20" lengthAdjust="spacing" textLength="149" x="2752" y="52.7813">userRepository:</text><text fill="#000000" font-family="sans-serif" font-size="20" lengthAdjust="spacing" textLength="145" x="2754" y="76.3359">UserRepository</text><rect fill="#E3E3E3" height="61.1094" rx="2.5" ry="2.5" style="stroke:#181818;stroke-width:0.5;" width="163" x="2745" y="895.6484"/><text fill="#000000" font-family="sans-serif" font-size="20" lengthAdjust="spacing" textLength="149" x="2752" y="921.9844">userRepository:</text><text fill="#000000" font-family="sans-serif" font-size="20" lengthAdjust="spacing" textLength="145" x="2754" y="945.5391">UserRepository</text><rect fill="#FFFFFF" height="789.0938" style="stroke:#181818;stroke-width:1.0;" width="10" x="89" y="98.5547"/><rect fill="#FFFFFF" height="37.5547" style="stroke:#181818;stroke-width:1.0;" width="10" x="1250" y="128.1094"/><rect fill="#FFFFFF" height="675.4297" style="stroke:#181818;stroke-width:1.0;" width="10" x="1250" y="203.2188"/><rect fill="#FFFFFF" height="489.2109" style="stroke:#181818;stroke-width:1.0;" width="10" x="1584" y="250.7734"/><rect fill="#FFFFFF" height="37.5547" style="stroke:#181818;stroke-width:1.0;" width="10" x="1782" y="289.3281"/><rect fill="#FFFFFF" height="37.5547" style="stroke:#181818;stroke-width:1.0;" width="10" x="1782" y="514.6563"/><rect fill="#FFFFFF" height="37.5547" style="stroke:#181818;stroke-width:1.0;" width="10" x="1931" y="364.4375"/><rect fill="#FFFFFF" height="37.5547" style="stroke:#181818;stroke-width:1.0;" width="10" x="1931" y="589.7656"/><rect fill="#FFFFFF" height="37.5547" style="stroke:#181818;stroke-width:1.0;" width="10" x="2601" y="439.5469"/><rect fill="#FFFFFF" height="37.5547" style="stroke:#181818;stroke-width:1.0;" width="10" x="2821.5" y="664.875"/><polygon fill="#181818" points="1238,124.1094,1248,128.1094,1238,132.1094,1242,128.1094" style="stroke:#181818;stroke-width:1.0;"/><line style="stroke:#181818;stroke-width:1.0;" x1="99" x2="1244" y1="128.1094" y2="128.1094"/><text fill="#000000" font-family="sans-serif" font-size="20" font-weight="bold" lengthAdjust="spacing" textLength="13" x="106" y="121.8906">1</text><text fill="#000000" font-family="sans-serif" font-size="20" lengthAdjust="spacing" textLength="196" x="123" y="121.8906">requests to resgister</text><polygon fill="#181818" points="110,161.6641,100,165.6641,110,169.6641,106,165.6641" style="stroke:#181818;stroke-width:1.0;"/><line style="stroke:#181818;stroke-width:1.0;stroke-dasharray:2.0,2.0;" x1="104" x2="1254" y1="165.6641" y2="165.6641"/><text fill="#000000" font-family="sans-serif" font-size="20" font-weight="bold" lengthAdjust="spacing" textLength="13" x="116" y="159.4453">2</text><text fill="#000000" font-family="sans-serif" font-size="20" lengthAdjust="spacing" textLength="263" x="133" y="159.4453">shows the registration form</text><polygon fill="#181818" points="1238,199.2188,1248,203.2188,1238,207.2188,1242,203.2188" style="stroke:#181818;stroke-width:1.0;"/><line style="stroke:#181818;stroke-width:1.0;" x1="99" x2="1244" y1="203.2188" y2="203.2188"/><text fill="#000000" font-family="sans-serif" font-size="20" font-weight="bold" lengthAdjust="spacing" textLength="13" x="106" y="197">3</text><text fill="#000000" font-family="sans-serif" font-size="20" lengthAdjust="spacing" textLength="1115" x="123" y="197">fills the registration form (name, passportCardNumber, taxNumber, email, telephoneNumber, password, (address)))</text><polygon fill="#181818" points="1458.5,236.7734,1468.5,240.7734,1458.5,244.7734,1462.5,240.7734" style="stroke:#181818;stroke-width:1.0;"/><line style="stroke:#181818;stroke-width:1.0;" x1="1260" x2="1464.5" y1="240.7734" y2="240.7734"/><text fill="#000000" font-family="sans-serif" font-size="20" font-weight="bold" lengthAdjust="spacing" textLength="13" x="1267" y="234.5547">4</text><text fill="#000000" font-family="sans-serif" font-size="20" lengthAdjust="spacing" textLength="58" x="1284" y="234.5547">create</text><rect fill="#E3E3E3" height="37.5547" rx="2.5" ry="2.5" style="stroke:#181818;stroke-width:0.5;" width="237" x="1470.5" y="211.2188"/><text fill="#000000" font-family="sans-serif" font-size="20" lengthAdjust="spacing" textLength="223" x="1477.5" y="237.5547">:RegisterUserController</text><polygon fill="#181818" points="1770,285.3281,1780,289.3281,1770,293.3281,1774,289.3281" style="stroke:#181818;stroke-width:1.0;"/><line style="stroke:#181818;stroke-width:1.0;" x1="1594" x2="1776" y1="289.3281" y2="289.3281"/><text fill="#000000" font-family="sans-serif" font-size="20" font-weight="bold" lengthAdjust="spacing" textLength="13" x="1601" y="283.1094">5</text><text fill="#000000" font-family="sans-serif" font-size="20" lengthAdjust="spacing" textLength="123" x="1618" y="283.1094">getInstance()</text><polygon fill="#181818" points="1605,322.8828,1595,326.8828,1605,330.8828,1601,326.8828" style="stroke:#181818;stroke-width:1.0;"/><line style="stroke:#181818;stroke-width:1.0;stroke-dasharray:2.0,2.0;" x1="1599" x2="1786" y1="326.8828" y2="326.8828"/><text fill="#000000" font-family="sans-serif" font-size="20" font-weight="bold" lengthAdjust="spacing" textLength="13" x="1611" y="320.6641">6</text><text fill="#000000" font-family="sans-serif" font-size="20" lengthAdjust="spacing" textLength="114" x="1628" y="320.6641">repositories</text><polygon fill="#181818" points="1919,360.4375,1929,364.4375,1919,368.4375,1923,364.4375" style="stroke:#181818;stroke-width:1.0;"/><line style="stroke:#181818;stroke-width:1.0;" x1="1594" x2="1925" y1="364.4375" y2="364.4375"/><text fill="#000000" font-family="sans-serif" font-size="20" font-weight="bold" lengthAdjust="spacing" textLength="13" x="1601" y="358.2188">7</text><text fill="#000000" font-family="sans-serif" font-size="20" lengthAdjust="spacing" textLength="285" x="1618" y="358.2188">getAuthenticationRepository()</text><polygon fill="#181818" points="1605,397.9922,1595,401.9922,1605,405.9922,1601,401.9922" style="stroke:#181818;stroke-width:1.0;"/><line style="stroke:#181818;stroke-width:1.0;stroke-dasharray:2.0,2.0;" x1="1599" x2="1935" y1="401.9922" y2="401.9922"/><text fill="#000000" font-family="sans-serif" font-size="20" font-weight="bold" lengthAdjust="spacing" textLength="13" x="1611" y="395.7734">8</text><text fill="#000000" font-family="sans-serif" font-size="20" lengthAdjust="spacing" textLength="238" x="1628" y="395.7734">authenticationRepository</text><polygon fill="#181818" points="2589,435.5469,2599,439.5469,2589,443.5469,2593,439.5469" style="stroke:#181818;stroke-width:1.0;"/><line style="stroke:#181818;stroke-width:1.0;" x1="1594" x2="2595" y1="439.5469" y2="439.5469"/><text fill="#000000" font-family="sans-serif" font-size="20" font-weight="bold" lengthAdjust="spacing" textLength="13" x="1601" y="433.3281">9</text><text fill="#000000" font-family="sans-serif" font-size="20" lengthAdjust="spacing" textLength="971" x="1618" y="433.3281">createUser(name, passportCardNumber, taxNumber, email, telephoneNumber, password, (address)))</text><polygon fill="#181818" points="1605,473.1016,1595,477.1016,1605,481.1016,1601,477.1016" style="stroke:#181818;stroke-width:1.0;"/><line style="stroke:#181818;stroke-width:1.0;stroke-dasharray:2.0,2.0;" x1="1599" x2="2605" y1="477.1016" y2="477.1016"/><text fill="#000000" font-family="sans-serif" font-size="20" font-weight="bold" lengthAdjust="spacing" textLength="26" x="1611" y="470.8828">10</text><text fill="#000000" font-family="sans-serif" font-size="20" lengthAdjust="spacing" textLength="41" x="1641" y="470.8828">endUser</text><polygon fill="#181818" points="1770,510.6563,1780,514.6563,1770,518.6563,1774,514.6563" style="stroke:#181818;stroke-width:1.0;"/><line style="stroke:#181818;stroke-width:1.0;" x1="1594" x2="1776" y1="514.6563" y2="514.6563"/><text fill="#000000" font-family="sans-serif" font-size="20" font-weight="bold" lengthAdjust="spacing" textLength="26" x="1601" y="508.4375">11</text><text fill="#000000" font-family="sans-serif" font-size="20" lengthAdjust="spacing" textLength="123" x="1631" y="508.4375">getInstance()</text><polygon fill="#181818" points="1605,548.2109,1595,552.2109,1605,556.2109,1601,552.2109" style="stroke:#181818;stroke-width:1.0;"/><line style="stroke:#181818;stroke-width:1.0;stroke-dasharray:2.0,2.0;" x1="1599" x2="1786" y1="552.2109" y2="552.2109"/><text fill="#000000" font-family="sans-serif" font-size="20" font-weight="bold" lengthAdjust="spacing" textLength="26" x="1611" y="545.9922">12</text><text fill="#000000" font-family="sans-serif" font-size="20" lengthAdjust="spacing" textLength="114" x="1641" y="545.9922">repositories</text><polygon fill="#181818" points="1919,585.7656,1929,589.7656,1919,593.7656,1923,589.7656" style="stroke:#181818;stroke-width:1.0;"/><line style="stroke:#181818;stroke-width:1.0;" x1="1594" x2="1925" y1="589.7656" y2="589.7656"/><text fill="#000000" font-family="sans-serif" font-size="20" font-weight="bold" lengthAdjust="spacing" textLength="26" x="1601" y="583.5469">13</text><text fill="#000000" font-family="sans-serif" font-size="20" lengthAdjust="spacing" textLength="189" x="1631" y="583.5469">getUserRepository()</text><polygon fill="#181818" points="1605,623.3203,1595,627.3203,1605,631.3203,1601,627.3203" style="stroke:#181818;stroke-width:1.0;"/><line style="stroke:#181818;stroke-width:1.0;stroke-dasharray:2.0,2.0;" x1="1599" x2="1935" y1="627.3203" y2="627.3203"/><text fill="#000000" font-family="sans-serif" font-size="20" font-weight="bold" lengthAdjust="spacing" textLength="26" x="1611" y="621.1016">14</text><text fill="#000000" font-family="sans-serif" font-size="20" lengthAdjust="spacing" textLength="143" x="1641" y="621.1016">userRepository</text><polygon fill="#181818" points="2809.5,660.875,2819.5,664.875,2809.5,668.875,2813.5,664.875" style="stroke:#181818;stroke-width:1.0;"/><line style="stroke:#181818;stroke-width:1.0;" x1="1594" x2="2815.5" y1="664.875" y2="664.875"/><text fill="#000000" font-family="sans-serif" font-size="20" font-weight="bold" lengthAdjust="spacing" textLength="26" x="1601" y="658.6563">15</text><text fill="#000000" font-family="sans-serif" font-size="20" lengthAdjust="spacing" textLength="135" x="1631" y="658.6563">addUser(endUser)</text><polygon fill="#181818" points="1605,698.4297,1595,702.4297,1605,706.4297,1601,702.4297" style="stroke:#181818;stroke-width:1.0;"/><line style="stroke:#181818;stroke-width:1.0;stroke-dasharray:2.0,2.0;" x1="1599" x2="2825.5" y1="702.4297" y2="702.4297"/><text fill="#000000" font-family="sans-serif" font-size="20" font-weight="bold" lengthAdjust="spacing" textLength="26" x="1611" y="696.2109">16</text><text fill="#000000" font-family="sans-serif" font-size="20" lengthAdjust="spacing" textLength="41" x="1641" y="696.2109">endUser</text><polygon fill="#181818" points="1271,735.9844,1261,739.9844,1271,743.9844,1267,739.9844" style="stroke:#181818;stroke-width:1.0;"/><line style="stroke:#181818;stroke-width:1.0;" x1="1265" x2="1588" y1="739.9844" y2="739.9844"/><text fill="#000000" font-family="sans-serif" font-size="20" font-weight="bold" lengthAdjust="spacing" textLength="26" x="1277" y="733.7656">17</text><text fill="#000000" font-family="sans-serif" font-size="20" lengthAdjust="spacing" textLength="41" x="1307" y="733.7656">endUser</text><line style="stroke:#181818;stroke-width:1.0;" x1="1260" x2="1302" y1="777.5391" y2="777.5391"/><line style="stroke:#181818;stroke-width:1.0;" x1="1302" x2="1302" y1="777.5391" y2="790.5391"/><line style="stroke:#181818;stroke-width:1.0;" x1="1261" x2="1302" y1="790.5391" y2="790.5391"/><polygon fill="#181818" points="1271,786.5391,1261,790.5391,1271,794.5391,1267,790.5391" style="stroke:#181818;stroke-width:1.0;"/><text fill="#000000" font-family="sans-serif" font-size="20" font-weight="bold" lengthAdjust="spacing" textLength="26" x="1267" y="771.3203">18</text><text fill="#000000" font-family="sans-serif" font-size="20" lengthAdjust="spacing" textLength="280" x="1297" y="771.3203">sendEmailConfirmation(endUser)</text><line style="stroke:#181818;stroke-width:1.0;" x1="1260" x2="1302" y1="828.0938" y2="828.0938"/><line style="stroke:#181818;stroke-width:1.0;" x1="1302" x2="1302" y1="828.0938" y2="841.0938"/><line style="stroke:#181818;stroke-width:1.0;" x1="1261" x2="1302" y1="841.0938" y2="841.0938"/><polygon fill="#181818" points="1271,837.0938,1261,841.0938,1271,845.0938,1267,841.0938" style="stroke:#181818;stroke-width:1.0;"/><text fill="#000000" font-family="sans-serif" font-size="20" font-weight="bold" lengthAdjust="spacing" textLength="26" x="1267" y="821.875">19</text><text fill="#000000" font-family="sans-serif" font-size="20" lengthAdjust="spacing" textLength="213" x="1297" y="821.875">showUserDetails(endUser)</text><polygon fill="#181818" points="110,874.6484,100,878.6484,110,882.6484,106,878.6484" style="stroke:#181818;stroke-width:1.0;"/><line style="stroke:#181818;stroke-width:1.0;stroke-dasharray:2.0,2.0;" x1="104" x2="1254" y1="878.6484" y2="878.6484"/><text fill="#000000" font-family="sans-serif" font-size="20" font-weight="bold" lengthAdjust="spacing" textLength="26" x="116" y="872.4297">20</text><text fill="#000000" font-family="sans-serif" font-size="20" lengthAdjust="spacing" textLength="232" x="146" y="872.4297">displays the endUser details</text><!--SRC=[pLN1Zjem4BtxAomk2okGgXvpMAbYToMaggsWtFRYZIU9XMEdjbEMVdt7Dg6nm1IrKbLEmVFUuytaUR0xeJfcM2jrkGDEELIib-vPAxSHFu2-VqVi0A6jLhfiZ6w1EjF3gDAnSiTgsBY316gWT4pLSWom3UDwBrHDAoOj4C9wfrNVle8XvAuH76YbjNlLRuILJXiwsIe3jR0E3DhQMZ0JoYpj_HD1JITAqJ7bwAHO7t6-j5q5s7Pr1RF4veoMyYYv_Bh-U8Rkj1LeGu0DcFNJby-R56H6c1TrJWdrb88zDw3mEtD2gnFZKBoe3vbIaCeLK_KUMqiqjyb1d4jov4SjlZC7nx4IElg48xfum5dI0hlvreDrbZgDppOECy6Vj73sIG7v2vI9UWKcGUzHfl4vyJ8cD8LltxG9ZKDMCRLM2IapWdIgM0jpZAUrdJPkoGp_548tfuwz3O_GCY7n12HqZLOmd7lQNXi-frF6ERPjPxFPxKq_X6ZTtwF7qW2YBbD3_aXAzsTU8EGE-JMubR9ugqgOPXp4Y2Qro5uSZHHq7DdSh2_836O2FPh99J9dBbw6f1RLVfdBNOwSqGkIWz6SkzEByFdvPz78tju4dlKyJ0ZD-nkU6yTjl_A_vohTJt-HfdGP_a66KYVe3bzpY8rNpYs1z4VJXP3gtVXMhocUdAv-8n8NpFbs2aGBYZ_vaEE_OYLC6-9peSan1JUuD_O83das0nwjV2vi9zaXBccFHdU1UctXavy0]--></g></svg>