<?xml version="1.0" encoding="UTF-8" standalone="no"?><svg xmlns="http://www.w3.org/2000/svg" xmlns:xlink="http://www.w3.org/1999/xlink" contentStyleType="text/css" height="1481px" preserveAspectRatio="none" style="width:2126px;height:1481px;background:#FFFFFF;" version="1.1" viewBox="0 0 2126 1481" width="2126px" zoomAndPan="magnify"><defs/><g><text fill="#000000" font-family="sans-serif" font-size="14" font-weight="bold" lengthAdjust="spacing" textLength="160" x="976.25" y="23.5352">Class Diagram - US15</text><!--class UserSession--><g id="elem_UserSession"><rect codeLine="9" fill="#F1F1F1" height="73.5547" id="UserSession" rx="2.5" ry="2.5" style="stroke:#181818;stroke-width:0.5;" width="168" x="40.5" y="1077.4883"/><ellipse cx="65.05" cy="1094.4883" fill="#ADD1B2" rx="12" ry="12" style="stroke:#181818;stroke-width:1.0;"/><path d="M67.8566,1101.5684 Q67.173,1101.9199 66.4211,1102.0957 Q65.6691,1102.2715 64.8391,1102.2715 Q61.8898,1102.2715 60.3371,1100.3281 Q58.7844,1098.3848 58.7844,1094.7129 Q58.7844,1091.0313 60.3371,1089.0879 Q61.8898,1087.1445 64.8391,1087.1445 Q65.6691,1087.1445 66.4309,1087.3203 Q67.1926,1087.4961 67.8566,1087.8477 L67.8566,1091.0508 Q67.1145,1090.3672 66.4162,1090.0498 Q65.718,1089.7324 64.9758,1089.7324 Q63.3938,1089.7324 62.5881,1090.9873 Q61.7824,1092.2422 61.7824,1094.7129 Q61.7824,1097.1738 62.5881,1098.4287 Q63.3938,1099.6836 64.9758,1099.6836 Q65.718,1099.6836 66.4162,1099.3662 Q67.1145,1099.0488 67.8566,1098.3652 Z " fill="#000000"/><text fill="#000000" font-family="sans-serif" font-size="20" lengthAdjust="spacing" textLength="115" x="81.95" y="1102.0469">UserSession</text><line style="stroke:#181818;stroke-width:0.5;" x1="41.5" x2="207.5" y1="1111.4883" y2="1111.4883"/><line style="stroke:#181818;stroke-width:0.5;" x1="41.5" x2="207.5" y1="1119.4883" y2="1119.4883"/><text fill="#000000" font-family="sans-serif" font-size="20" lengthAdjust="spacing" textLength="156" x="46.5" y="1142.8242">+getUserEmail()</text></g><!--class Person--><g id="elem_Person"><rect codeLine="13" fill="#F1F1F1" height="97.1094" id="Person" rx="2.5" ry="2.5" style="stroke:#181818;stroke-width:0.5;" width="151" x="884" y="44.4883"/><ellipse cx="923.85" cy="61.4883" fill="#A9DCDF" rx="12" ry="12" style="stroke:#181818;stroke-width:1.0;"/><path d="M923.8656,56.2949 L922.5082,62.2617 L925.2328,62.2617 Z M922.1078,53.6582 L925.6332,53.6582 L929.5688,68.2383 L926.6879,68.2383 L925.7895,64.6348 L921.932,64.6348 L921.0531,68.2383 L918.1723,68.2383 Z " fill="#000000"/><text fill="#000000" font-family="sans-serif" font-size="20" font-style="italic" lengthAdjust="spacing" textLength="64" x="944.15" y="69.0469">Person</text><line style="stroke:#181818;stroke-width:0.5;" x1="885" x2="1034" y1="78.4883" y2="78.4883"/><text fill="#000000" font-family="sans-serif" font-size="20" lengthAdjust="spacing" textLength="139" x="890" y="101.8242">-name : String</text><text fill="#000000" font-family="sans-serif" font-size="20" lengthAdjust="spacing" textLength="139" x="890" y="125.3789">-email : String</text><line style="stroke:#181818;stroke-width:0.5;" x1="885" x2="1034" y1="133.5977" y2="133.5977"/></g><!--class Employee--><g id="elem_Employee"><rect codeLine="18" fill="#F1F1F1" height="50" id="Employee" rx="2.5" ry="2.5" style="stroke:#181818;stroke-width:0.5;" width="127" x="896" y="296.4883"/><ellipse cx="912" cy="313.4883" fill="#ADD1B2" rx="12" ry="12" style="stroke:#181818;stroke-width:1.0;"/><path d="M914.8066,320.5684 Q914.123,320.9199 913.3711,321.0957 Q912.6191,321.2715 911.7891,321.2715 Q908.8398,321.2715 907.2871,319.3281 Q905.7344,317.3848 905.7344,313.7129 Q905.7344,310.0313 907.2871,308.0879 Q908.8398,306.1445 911.7891,306.1445 Q912.6191,306.1445 913.3809,306.3203 Q914.1426,306.4961 914.8066,306.8477 L914.8066,310.0508 Q914.0645,309.3672 913.3662,309.0498 Q912.668,308.7324 911.9258,308.7324 Q910.3438,308.7324 909.5381,309.9873 Q908.7324,311.2422 908.7324,313.7129 Q908.7324,316.1738 909.5381,317.4287 Q910.3438,318.6836 911.9258,318.6836 Q912.668,318.6836 913.3662,318.3662 Q914.0645,318.0488 914.8066,317.3652 Z " fill="#000000"/><text fill="#000000" font-family="sans-serif" font-size="20" lengthAdjust="spacing" textLength="93" x="927" y="321.0469">Employee</text><line style="stroke:#181818;stroke-width:0.5;" x1="897" x2="1022" y1="330.4883" y2="330.4883"/><line style="stroke:#181818;stroke-width:0.5;" x1="897" x2="1022" y1="338.4883" y2="338.4883"/></g><!--class Announcement--><g id="elem_Announcement"><rect codeLine="21" fill="#F1F1F1" height="120.6641" id="Announcement" rx="2.5" ry="2.5" style="stroke:#181818;stroke-width:0.5;" width="204" x="464.5" y="260.9883"/><ellipse cx="492.2" cy="277.9883" fill="#ADD1B2" rx="12" ry="12" style="stroke:#181818;stroke-width:1.0;"/><path d="M495.0066,285.0684 Q494.323,285.4199 493.5711,285.5957 Q492.8191,285.7715 491.9891,285.7715 Q489.0398,285.7715 487.4871,283.8281 Q485.9344,281.8848 485.9344,278.2129 Q485.9344,274.5313 487.4871,272.5879 Q489.0398,270.6445 491.9891,270.6445 Q492.8191,270.6445 493.5809,270.8203 Q494.3426,270.9961 495.0066,271.3477 L495.0066,274.5508 Q494.2645,273.8672 493.5662,273.5498 Q492.868,273.2324 492.1258,273.2324 Q490.5438,273.2324 489.7381,274.4873 Q488.9324,275.7422 488.9324,278.2129 Q488.9324,280.6738 489.7381,281.9287 Q490.5438,283.1836 492.1258,283.1836 Q492.868,283.1836 493.5662,282.8662 Q494.2645,282.5488 495.0066,281.8652 Z " fill="#000000"/><text fill="#000000" font-family="sans-serif" font-size="20" lengthAdjust="spacing" textLength="144" x="509.8" y="285.5469">Announcement</text><line style="stroke:#181818;stroke-width:0.5;" x1="465.5" x2="667.5" y1="294.9883" y2="294.9883"/><text fill="#000000" font-family="sans-serif" font-size="20" lengthAdjust="spacing" textLength="74" x="470.5" y="318.3242">-id : int</text><text fill="#000000" font-family="sans-serif" font-size="20" lengthAdjust="spacing" textLength="192" x="470.5" y="341.8789">-Property : property</text><text fill="#000000" font-family="sans-serif" font-size="20" lengthAdjust="spacing" textLength="176" x="470.5" y="365.4336">-Employee : agent</text><line style="stroke:#181818;stroke-width:0.5;" x1="465.5" x2="667.5" y1="373.6523" y2="373.6523"/></g><!--class VisitSchedule--><g id="elem_VisitSchedule"><rect codeLine="27" fill="#F1F1F1" height="238.4375" id="VisitSchedule" rx="2.5" ry="2.5" style="stroke:#181818;stroke-width:0.5;" width="288" x="1176.5" y="202.4883"/><ellipse cx="1252" cy="219.4883" fill="#ADD1B2" rx="12" ry="12" style="stroke:#181818;stroke-width:1.0;"/><path d="M1254.8066,226.5684 Q1254.123,226.9199 1253.3711,227.0957 Q1252.6191,227.2715 1251.7891,227.2715 Q1248.8398,227.2715 1247.2871,225.3281 Q1245.7344,223.3848 1245.7344,219.7129 Q1245.7344,216.0313 1247.2871,214.0879 Q1248.8398,212.1445 1251.7891,212.1445 Q1252.6191,212.1445 1253.3809,212.3203 Q1254.1426,212.4961 1254.8066,212.8477 L1254.8066,216.0508 Q1254.0645,215.3672 1253.3662,215.0498 Q1252.668,214.7324 1251.9258,214.7324 Q1250.3438,214.7324 1249.5381,215.9873 Q1248.7324,217.2422 1248.7324,219.7129 Q1248.7324,222.1738 1249.5381,223.4287 Q1250.3438,224.6836 1251.9258,224.6836 Q1252.668,224.6836 1253.3662,224.3662 Q1254.0645,224.0488 1254.8066,223.3652 Z " fill="#000000"/><text fill="#000000" font-family="sans-serif" font-size="20" lengthAdjust="spacing" textLength="128" x="1274" y="227.0469">VisitSchedule</text><line style="stroke:#181818;stroke-width:0.5;" x1="1177.5" x2="1463.5" y1="236.4883" y2="236.4883"/><text fill="#000000" font-family="sans-serif" font-size="20" lengthAdjust="spacing" textLength="158" x="1182.5" y="259.8242">-propertyID : int</text><text fill="#000000" font-family="sans-serif" font-size="20" lengthAdjust="spacing" textLength="207" x="1182.5" y="283.3789">-visitDate : LocalDate</text><text fill="#000000" font-family="sans-serif" font-size="20" lengthAdjust="spacing" textLength="221" x="1182.5" y="306.9336">-startTime : LocalTime</text><text fill="#000000" font-family="sans-serif" font-size="20" lengthAdjust="spacing" textLength="214" x="1182.5" y="330.4883">-endTime : LocalTime</text><text fill="#000000" font-family="sans-serif" font-size="20" lengthAdjust="spacing" textLength="276" x="1182.5" y="354.043">-approvedByAgent : boolean</text><text fill="#000000" font-family="sans-serif" font-size="20" lengthAdjust="spacing" textLength="192" x="1182.5" y="377.5977">-agentEmail : String</text><text fill="#000000" font-family="sans-serif" font-size="20" lengthAdjust="spacing" textLength="252" x="1182.5" y="401.1523">-adressOfProperty : String</text><text fill="#000000" font-family="sans-serif" font-size="20" lengthAdjust="spacing" textLength="230" x="1182.5" y="424.707">-requesterEmail : String</text><line style="stroke:#181818;stroke-width:0.5;" x1="1177.5" x2="1463.5" y1="432.9258" y2="432.9258"/></g><!--class AuthenticationRepository--><g id="elem_AuthenticationRepository"><rect codeLine="38" fill="#F1F1F1" height="167.7734" id="AuthenticationRepository" rx="2.5" ry="2.5" style="stroke:#181818;stroke-width:0.5;" width="275" x="7" y="1306.4883"/><ellipse cx="23" cy="1323.4883" fill="#ADD1B2" rx="12" ry="12" style="stroke:#181818;stroke-width:1.0;"/><path d="M25.8066,1330.5684 Q25.123,1330.9199 24.3711,1331.0957 Q23.6191,1331.2715 22.7891,1331.2715 Q19.8398,1331.2715 18.2871,1329.3281 Q16.7344,1327.3848 16.7344,1323.7129 Q16.7344,1320.0313 18.2871,1318.0879 Q19.8398,1316.1445 22.7891,1316.1445 Q23.6191,1316.1445 24.3809,1316.3203 Q25.1426,1316.4961 25.8066,1316.8477 L25.8066,1320.0508 Q25.0645,1319.3672 24.3662,1319.0498 Q23.668,1318.7324 22.9258,1318.7324 Q21.3438,1318.7324 20.5381,1319.9873 Q19.7324,1321.2422 19.7324,1323.7129 Q19.7324,1326.1738 20.5381,1327.4287 Q21.3438,1328.6836 22.9258,1328.6836 Q23.668,1328.6836 24.3662,1328.3662 Q25.0645,1328.0488 25.8066,1327.3652 Z " fill="#000000"/><text fill="#000000" font-family="sans-serif" font-size="20" lengthAdjust="spacing" textLength="241" x="38" y="1331.0469">AuthenticationRepository</text><line style="stroke:#181818;stroke-width:0.5;" x1="8" x2="281" y1="1340.4883" y2="1340.4883"/><line style="stroke:#181818;stroke-width:0.5;" x1="8" x2="281" y1="1348.4883" y2="1348.4883"/><text fill="#000000" font-family="sans-serif" font-size="20" lengthAdjust="spacing" textLength="108" x="13" y="1371.8242">+doLogin()</text><text fill="#000000" font-family="sans-serif" font-size="20" lengthAdjust="spacing" textLength="121" x="13" y="1395.3789">+doLogout()</text><text fill="#000000" font-family="sans-serif" font-size="20" lengthAdjust="spacing" textLength="247" x="13" y="1418.9336">+getCurrentUserSession()</text><text fill="#000000" font-family="sans-serif" font-size="20" lengthAdjust="spacing" textLength="152" x="13" y="1442.4883">+addUserRole()</text><text fill="#000000" font-family="sans-serif" font-size="20" lengthAdjust="spacing" textLength="194" x="13" y="1466.043">+addUserWithRole()</text></g><!--class AuthenticationController--><g id="elem_AuthenticationController"><rect codeLine="46" fill="#F1F1F1" height="97.1094" id="AuthenticationController" rx="2.5" ry="2.5" style="stroke:#181818;stroke-width:0.5;" width="415" x="244" y="1065.9883"/><ellipse cx="329.5" cy="1082.9883" fill="#ADD1B2" rx="12" ry="12" style="stroke:#181818;stroke-width:1.0;"/><path d="M332.3066,1090.0684 Q331.623,1090.4199 330.8711,1090.5957 Q330.1191,1090.7715 329.2891,1090.7715 Q326.3398,1090.7715 324.7871,1088.8281 Q323.2344,1086.8848 323.2344,1083.2129 Q323.2344,1079.5313 324.7871,1077.5879 Q326.3398,1075.6445 329.2891,1075.6445 Q330.1191,1075.6445 330.8809,1075.8203 Q331.6426,1075.9961 332.3066,1076.3477 L332.3066,1079.5508 Q331.5645,1078.8672 330.8662,1078.5498 Q330.168,1078.2324 329.4258,1078.2324 Q327.8438,1078.2324 327.0381,1079.4873 Q326.2324,1080.7422 326.2324,1083.2129 Q326.2324,1085.6738 327.0381,1086.9287 Q327.8438,1088.1836 329.4258,1088.1836 Q330.168,1088.1836 330.8662,1087.8662 Q331.5645,1087.5488 332.3066,1086.8652 Z " fill="#000000"/><text fill="#000000" font-family="sans-serif" font-size="20" lengthAdjust="spacing" textLength="235" x="351.5" y="1090.5469">AuthenticationController</text><line style="stroke:#181818;stroke-width:0.5;" x1="245" x2="658" y1="1099.9883" y2="1099.9883"/><text fill="#000000" font-family="sans-serif" font-size="20" lengthAdjust="spacing" textLength="403" x="250" y="1123.3242">-authController : AuthenticationController</text><line style="stroke:#181818;stroke-width:0.5;" x1="245" x2="658" y1="1131.543" y2="1131.543"/><text fill="#000000" font-family="sans-serif" font-size="20" lengthAdjust="spacing" textLength="156" x="250" y="1154.8789">+getUserEmail()</text></g><!--class VisitScheduleRequestsWindow--><g id="elem_VisitScheduleRequestsWindow"><rect codeLine="51" fill="#F1F1F1" height="167.7734" id="VisitScheduleRequestsWindow" rx="2.5" ry="2.5" style="stroke:#181818;stroke-width:0.5;" width="324" x="403.5" y="754.4883"/><ellipse cx="419.5" cy="771.4883" fill="#ADD1B2" rx="12" ry="12" style="stroke:#181818;stroke-width:1.0;"/><path d="M422.3066,778.5684 Q421.623,778.9199 420.8711,779.0957 Q420.1191,779.2715 419.2891,779.2715 Q416.3398,779.2715 414.7871,777.3281 Q413.2344,775.3848 413.2344,771.7129 Q413.2344,768.0313 414.7871,766.0879 Q416.3398,764.1445 419.2891,764.1445 Q420.1191,764.1445 420.8809,764.3203 Q421.6426,764.4961 422.3066,764.8477 L422.3066,768.0508 Q421.5645,767.3672 420.8662,767.0498 Q420.168,766.7324 419.4258,766.7324 Q417.8438,766.7324 417.0381,767.9873 Q416.2324,769.2422 416.2324,771.7129 Q416.2324,774.1738 417.0381,775.4287 Q417.8438,776.6836 419.4258,776.6836 Q420.168,776.6836 420.8662,776.3662 Q421.5645,776.0488 422.3066,775.3652 Z " fill="#000000"/><text fill="#000000" font-family="sans-serif" font-size="20" lengthAdjust="spacing" textLength="290" x="434.5" y="779.0469">VisitScheduleRequestsWindow</text><line style="stroke:#181818;stroke-width:0.5;" x1="404.5" x2="726.5" y1="788.4883" y2="788.4883"/><line style="stroke:#181818;stroke-width:0.5;" x1="404.5" x2="726.5" y1="796.4883" y2="796.4883"/><text fill="#000000" font-family="sans-serif" font-size="20" lengthAdjust="spacing" textLength="188" x="409.5" y="819.8242">+listPendingVisits()</text><text fill="#000000" font-family="sans-serif" font-size="20" lengthAdjust="spacing" textLength="204" x="409.5" y="843.3789">+showFilteredVisits()</text><text fill="#000000" font-family="sans-serif" font-size="20" lengthAdjust="spacing" textLength="219" x="409.5" y="866.9336">+onbtFilterSchedules()</text><text fill="#000000" font-family="sans-serif" font-size="20" lengthAdjust="spacing" textLength="136" x="409.5" y="890.4883">+onBtReturn()</text><text fill="#000000" font-family="sans-serif" font-size="20" lengthAdjust="spacing" textLength="158" x="409.5" y="914.043">+getMainStage()</text></g><!--class VisitScheduleController--><g id="elem_VisitScheduleController"><rect codeLine="59" fill="#F1F1F1" height="261.9922" id="VisitScheduleController" rx="2.5" ry="2.5" style="stroke:#181818;stroke-width:0.5;" width="531" x="694" y="983.4883"/><ellipse cx="843" cy="1000.4883" fill="#ADD1B2" rx="12" ry="12" style="stroke:#181818;stroke-width:1.0;"/><path d="M845.8066,1007.5684 Q845.123,1007.9199 844.3711,1008.0957 Q843.6191,1008.2715 842.7891,1008.2715 Q839.8398,1008.2715 838.2871,1006.3281 Q836.7344,1004.3848 836.7344,1000.7129 Q836.7344,997.0313 838.2871,995.0879 Q839.8398,993.1445 842.7891,993.1445 Q843.6191,993.1445 844.3809,993.3203 Q845.1426,993.4961 845.8066,993.8477 L845.8066,997.0508 Q845.0645,996.3672 844.3662,996.0498 Q843.668,995.7324 842.9258,995.7324 Q841.3438,995.7324 840.5381,996.9873 Q839.7324,998.2422 839.7324,1000.7129 Q839.7324,1003.1738 840.5381,1004.4287 Q841.3438,1005.6836 842.9258,1005.6836 Q843.668,1005.6836 844.3662,1005.3662 Q845.0645,1005.0488 845.8066,1004.3652 Z " fill="#000000"/><text fill="#000000" font-family="sans-serif" font-size="20" lengthAdjust="spacing" textLength="224" x="865" y="1008.0469">VisitScheduleController</text><line style="stroke:#181818;stroke-width:0.5;" x1="695" x2="1224" y1="1017.4883" y2="1017.4883"/><text fill="#000000" font-family="sans-serif" font-size="20" lengthAdjust="spacing" textLength="487" x="700" y="1040.8242">-visitScheduleRepository : VisitScheduleRepository</text><text fill="#000000" font-family="sans-serif" font-size="20" lengthAdjust="spacing" textLength="519" x="700" y="1064.3789">-announcementRepository : AnnouncementRepository</text><text fill="#000000" font-family="sans-serif" font-size="20" lengthAdjust="spacing" textLength="342" x="700" y="1087.9336">-clientRepository : ClientRepository</text><text fill="#000000" font-family="sans-serif" font-size="20" lengthAdjust="spacing" textLength="403" x="700" y="1111.4883">-authController : AuthenticationController</text><text fill="#000000" font-family="sans-serif" font-size="20" lengthAdjust="spacing" textLength="420" x="700" y="1135.043">-employeeRepository : EmployeeRepository</text><text fill="#000000" font-family="sans-serif" font-size="20" lengthAdjust="spacing" textLength="268" x="700" y="1158.5977">-emailSender : EmailSender</text><line style="stroke:#181818;stroke-width:0.5;" x1="695" x2="1224" y1="1166.8164" y2="1166.8164"/><text fill="#000000" font-family="sans-serif" font-size="20" lengthAdjust="spacing" textLength="320" x="700" y="1190.1523">+getPendingVisitsByAgentEmail()</text><text fill="#000000" font-family="sans-serif" font-size="20" lengthAdjust="spacing" textLength="316" x="700" y="1213.707">+getFilteredVisitsByAgentEmail()</text><text fill="#000000" font-family="sans-serif" font-size="20" lengthAdjust="spacing" textLength="339" x="700" y="1237.2617">+getSortVisitScheduleFromConfig()</text></g><!--class Repositories--><g id="elem_Repositories"><rect codeLine="71" fill="#F1F1F1" height="120.6641" id="Repositories" rx="2.5" ry="2.5" style="stroke:#181818;stroke-width:0.5;" width="318" x="800.5" y="777.9883"/><ellipse cx="895.5" cy="794.9883" fill="#ADD1B2" rx="12" ry="12" style="stroke:#181818;stroke-width:1.0;"/><path d="M898.3066,802.0684 Q897.623,802.4199 896.8711,802.5957 Q896.1191,802.7715 895.2891,802.7715 Q892.3398,802.7715 890.7871,800.8281 Q889.2344,798.8848 889.2344,795.2129 Q889.2344,791.5313 890.7871,789.5879 Q892.3398,787.6445 895.2891,787.6445 Q896.1191,787.6445 896.8809,787.8203 Q897.6426,787.9961 898.3066,788.3477 L898.3066,791.5508 Q897.5645,790.8672 896.8662,790.5498 Q896.168,790.2324 895.4258,790.2324 Q893.8438,790.2324 893.0381,791.4873 Q892.2324,792.7422 892.2324,795.2129 Q892.2324,797.6738 893.0381,798.9287 Q893.8438,800.1836 895.4258,800.1836 Q896.168,800.1836 896.8662,799.8662 Q897.5645,799.5488 898.3066,798.8652 Z " fill="#000000"/><text fill="#000000" font-family="sans-serif" font-size="20" lengthAdjust="spacing" textLength="119" x="917.5" y="802.5469">Repositories</text><line style="stroke:#181818;stroke-width:0.5;" x1="801.5" x2="1117.5" y1="811.9883" y2="811.9883"/><line style="stroke:#181818;stroke-width:0.5;" x1="801.5" x2="1117.5" y1="819.9883" y2="819.9883"/><text fill="#000000" font-family="sans-serif" font-size="20" lengthAdjust="spacing" textLength="306" x="806.5" y="843.3242">+getAnnouncementRepository()</text><text fill="#000000" font-family="sans-serif" font-size="20" lengthAdjust="spacing" textLength="255" x="806.5" y="866.8789">+getEmployeeRepository()</text><text fill="#000000" font-family="sans-serif" font-size="20" lengthAdjust="spacing" textLength="290" x="806.5" y="890.4336">+getVisitScheduleRepository()</text></g><!--class AnnouncementRepository--><g id="elem_AnnouncementRepository"><rect codeLine="77" fill="#F1F1F1" height="120.6641" id="AnnouncementRepository" rx="2.5" ry="2.5" style="stroke:#181818;stroke-width:0.5;" width="476" x="328.5" y="536.9883"/><ellipse cx="439" cy="553.9883" fill="#ADD1B2" rx="12" ry="12" style="stroke:#181818;stroke-width:1.0;"/><path d="M441.8066,561.0684 Q441.123,561.4199 440.3711,561.5957 Q439.6191,561.7715 438.7891,561.7715 Q435.8398,561.7715 434.2871,559.8281 Q432.7344,557.8848 432.7344,554.2129 Q432.7344,550.5313 434.2871,548.5879 Q435.8398,546.6445 438.7891,546.6445 Q439.6191,546.6445 440.3809,546.8203 Q441.1426,546.9961 441.8066,547.3477 L441.8066,550.5508 Q441.0645,549.8672 440.3662,549.5498 Q439.668,549.2324 438.9258,549.2324 Q437.3438,549.2324 436.5381,550.4873 Q435.7324,551.7422 435.7324,554.2129 Q435.7324,556.6738 436.5381,557.9287 Q437.3438,559.1836 438.9258,559.1836 Q439.668,559.1836 440.3662,558.8662 Q441.0645,558.5488 441.8066,557.8652 Z " fill="#000000"/><text fill="#000000" font-family="sans-serif" font-size="20" lengthAdjust="spacing" textLength="246" x="461" y="561.5469">AnnouncementRepository</text><line style="stroke:#181818;stroke-width:0.5;" x1="329.5" x2="803.5" y1="570.9883" y2="570.9883"/><line style="stroke:#181818;stroke-width:0.5;" x1="329.5" x2="803.5" y1="578.9883" y2="578.9883"/><text fill="#000000" font-family="sans-serif" font-size="20" lengthAdjust="spacing" textLength="204" x="334.5" y="602.3242">+getAnnouncement()</text><text fill="#000000" font-family="sans-serif" font-size="20" lengthAdjust="spacing" textLength="363" x="334.5" y="625.8789">+getAgentEmailFromAnnouncement()</text><text fill="#000000" font-family="sans-serif" font-size="20" lengthAdjust="spacing" textLength="464" x="334.5" y="649.4336">+getAllAnnouncementsSortedByDefaultCriteria()</text></g><!--class EmployeeRepository--><g id="elem_EmployeeRepository"><rect codeLine="83" fill="#F1F1F1" height="73.5547" id="EmployeeRepository" rx="2.5" ry="2.5" style="stroke:#181818;stroke-width:0.5;" width="240" x="839.5" y="560.4883"/><ellipse cx="860.45" cy="577.4883" fill="#ADD1B2" rx="12" ry="12" style="stroke:#181818;stroke-width:1.0;"/><path d="M863.2566,584.5684 Q862.573,584.9199 861.8211,585.0957 Q861.0691,585.2715 860.2391,585.2715 Q857.2898,585.2715 855.7371,583.3281 Q854.1844,581.3848 854.1844,577.7129 Q854.1844,574.0313 855.7371,572.0879 Q857.2898,570.1445 860.2391,570.1445 Q861.0691,570.1445 861.8309,570.3203 Q862.5926,570.4961 863.2566,570.8477 L863.2566,574.0508 Q862.5145,573.3672 861.8162,573.0498 Q861.118,572.7324 860.3758,572.7324 Q858.7938,572.7324 857.9881,573.9873 Q857.1824,575.2422 857.1824,577.7129 Q857.1824,580.1738 857.9881,581.4287 Q858.7938,582.6836 860.3758,582.6836 Q861.118,582.6836 861.8162,582.3662 Q862.5145,582.0488 863.2566,581.3652 Z " fill="#000000"/><text fill="#000000" font-family="sans-serif" font-size="20" lengthAdjust="spacing" textLength="195" x="876.55" y="585.0469">EmployeeRepository</text><line style="stroke:#181818;stroke-width:0.5;" x1="840.5" x2="1078.5" y1="594.4883" y2="594.4883"/><line style="stroke:#181818;stroke-width:0.5;" x1="840.5" x2="1078.5" y1="602.4883" y2="602.4883"/><text fill="#000000" font-family="sans-serif" font-size="20" lengthAdjust="spacing" textLength="228" x="845.5" y="625.8242">+getEmployeeByEmail()</text></g><!--class VisitScheduleRepository--><g id="elem_VisitScheduleRepository"><rect codeLine="87" fill="#F1F1F1" height="144.2188" id="VisitScheduleRepository" rx="2.5" ry="2.5" style="stroke:#181818;stroke-width:0.5;" width="411" x="1115" y="525.4883"/><ellipse cx="1201" cy="542.4883" fill="#ADD1B2" rx="12" ry="12" style="stroke:#181818;stroke-width:1.0;"/><path d="M1203.8066,549.5684 Q1203.123,549.9199 1202.3711,550.0957 Q1201.6191,550.2715 1200.7891,550.2715 Q1197.8398,550.2715 1196.2871,548.3281 Q1194.7344,546.3848 1194.7344,542.7129 Q1194.7344,539.0313 1196.2871,537.0879 Q1197.8398,535.1445 1200.7891,535.1445 Q1201.6191,535.1445 1202.3809,535.3203 Q1203.1426,535.4961 1203.8066,535.8477 L1203.8066,539.0508 Q1203.0645,538.3672 1202.3662,538.0498 Q1201.668,537.7324 1200.9258,537.7324 Q1199.3438,537.7324 1198.5381,538.9873 Q1197.7324,540.2422 1197.7324,542.7129 Q1197.7324,545.1738 1198.5381,546.4287 Q1199.3438,547.6836 1200.9258,547.6836 Q1201.668,547.6836 1202.3662,547.3662 Q1203.0645,547.0488 1203.8066,546.3652 Z " fill="#000000"/><text fill="#000000" font-family="sans-serif" font-size="20" lengthAdjust="spacing" textLength="230" x="1223" y="550.0469">VisitScheduleRepository</text><line style="stroke:#181818;stroke-width:0.5;" x1="1116" x2="1525" y1="559.4883" y2="559.4883"/><line style="stroke:#181818;stroke-width:0.5;" x1="1116" x2="1525" y1="567.4883" y2="567.4883"/><text fill="#000000" font-family="sans-serif" font-size="20" lengthAdjust="spacing" textLength="399" x="1121" y="590.8242">+getVisitSchedulesByUserEmailAndDate()</text><text fill="#000000" font-family="sans-serif" font-size="20" lengthAdjust="spacing" textLength="376" x="1121" y="614.3789">+getVisitSchedulesByAgentAndPeriod()</text><text fill="#000000" font-family="sans-serif" font-size="20" lengthAdjust="spacing" textLength="195" x="1121" y="637.9336">+addVisitSchedule()</text><text fill="#000000" font-family="sans-serif" font-size="20" lengthAdjust="spacing" textLength="205" x="1121" y="661.4883">+sortVisitSchedules()</text></g><!--class SortVisitSchedule--><g id="elem_SortVisitSchedule"><rect codeLine="94" fill="#F1F1F1" height="73.5547" id="SortVisitSchedule" rx="2.5" ry="2.5" style="stroke:#181818;stroke-width:0.5;" width="200" x="1594.5" y="284.4883"/><ellipse cx="1610.5" cy="301.4883" fill="#B4A7E5" rx="12" ry="12" style="stroke:#181818;stroke-width:1.0;"/><path d="M1606.1797,296.9473 L1606.1797,294.4082 L1614.8613,294.4082 L1614.8613,296.9473 L1611.9609,296.9473 L1611.9609,306.4492 L1614.8613,306.4492 L1614.8613,308.9883 L1606.1797,308.9883 L1606.1797,306.4492 L1609.0801,306.4492 L1609.0801,296.9473 Z " fill="#000000"/><text fill="#000000" font-family="sans-serif" font-size="20" font-style="italic" lengthAdjust="spacing" textLength="166" x="1625.5" y="309.0469">SortVisitSchedule</text><line style="stroke:#181818;stroke-width:0.5;" x1="1595.5" x2="1793.5" y1="318.4883" y2="318.4883"/><line style="stroke:#181818;stroke-width:0.5;" x1="1595.5" x2="1793.5" y1="326.4883" y2="326.4883"/><text fill="#000000" font-family="sans-serif" font-size="20" lengthAdjust="spacing" textLength="67" x="1600.5" y="349.8242">+sort()</text></g><!--class BubbleSortVisitSchedule--><g id="elem_BubbleSortVisitSchedule"><rect codeLine="98" fill="#F1F1F1" height="73.5547" id="BubbleSortVisitSchedule" rx="2.5" ry="2.5" style="stroke:#181818;stroke-width:0.5;" width="267" x="1561" y="560.4883"/><ellipse cx="1577" cy="577.4883" fill="#ADD1B2" rx="12" ry="12" style="stroke:#181818;stroke-width:1.0;"/><path d="M1579.8066,584.5684 Q1579.123,584.9199 1578.3711,585.0957 Q1577.6191,585.2715 1576.7891,585.2715 Q1573.8398,585.2715 1572.2871,583.3281 Q1570.7344,581.3848 1570.7344,577.7129 Q1570.7344,574.0313 1572.2871,572.0879 Q1573.8398,570.1445 1576.7891,570.1445 Q1577.6191,570.1445 1578.3809,570.3203 Q1579.1426,570.4961 1579.8066,570.8477 L1579.8066,574.0508 Q1579.0645,573.3672 1578.3662,573.0498 Q1577.668,572.7324 1576.9258,572.7324 Q1575.3438,572.7324 1574.5381,573.9873 Q1573.7324,575.2422 1573.7324,577.7129 Q1573.7324,580.1738 1574.5381,581.4287 Q1575.3438,582.6836 1576.9258,582.6836 Q1577.668,582.6836 1578.3662,582.3662 Q1579.0645,582.0488 1579.8066,581.3652 Z " fill="#000000"/><text fill="#000000" font-family="sans-serif" font-size="20" lengthAdjust="spacing" textLength="233" x="1592" y="585.0469">BubbleSortVisitSchedule</text><line style="stroke:#181818;stroke-width:0.5;" x1="1562" x2="1827" y1="594.4883" y2="594.4883"/><line style="stroke:#181818;stroke-width:0.5;" x1="1562" x2="1827" y1="602.4883" y2="602.4883"/><text fill="#000000" font-family="sans-serif" font-size="20" lengthAdjust="spacing" textLength="67" x="1567" y="625.8242">+sort()</text></g><!--class QuickSortVisitSchedule--><g id="elem_QuickSortVisitSchedule"><rect codeLine="102" fill="#F1F1F1" height="73.5547" id="QuickSortVisitSchedule" rx="2.5" ry="2.5" style="stroke:#181818;stroke-width:0.5;" width="256" x="1863.5" y="560.4883"/><ellipse cx="1879.5" cy="577.4883" fill="#ADD1B2" rx="12" ry="12" style="stroke:#181818;stroke-width:1.0;"/><path d="M1882.3066,584.5684 Q1881.623,584.9199 1880.8711,585.0957 Q1880.1191,585.2715 1879.2891,585.2715 Q1876.3398,585.2715 1874.7871,583.3281 Q1873.2344,581.3848 1873.2344,577.7129 Q1873.2344,574.0313 1874.7871,572.0879 Q1876.3398,570.1445 1879.2891,570.1445 Q1880.1191,570.1445 1880.8809,570.3203 Q1881.6426,570.4961 1882.3066,570.8477 L1882.3066,574.0508 Q1881.5645,573.3672 1880.8662,573.0498 Q1880.168,572.7324 1879.4258,572.7324 Q1877.8438,572.7324 1877.0381,573.9873 Q1876.2324,575.2422 1876.2324,577.7129 Q1876.2324,580.1738 1877.0381,581.4287 Q1877.8438,582.6836 1879.4258,582.6836 Q1880.168,582.6836 1880.8662,582.3662 Q1881.5645,582.0488 1882.3066,581.3652 Z " fill="#000000"/><text fill="#000000" font-family="sans-serif" font-size="20" lengthAdjust="spacing" textLength="222" x="1894.5" y="585.0469">QuickSortVisitSchedule</text><line style="stroke:#181818;stroke-width:0.5;" x1="1864.5" x2="2118.5" y1="594.4883" y2="594.4883"/><line style="stroke:#181818;stroke-width:0.5;" x1="1864.5" x2="2118.5" y1="602.4883" y2="602.4883"/><text fill="#000000" font-family="sans-serif" font-size="20" lengthAdjust="spacing" textLength="67" x="1869.5" y="625.8242">+sort()</text></g><!--reverse link Person to Employee--><g id="link_Person_Employee"><path d="M959.5,163.1983 C959.5,208.3883 959.5,264.6383 959.5,296.1583 " fill="none" id="Person-backto-Employee" style="stroke:#181818;stroke-width:1.0;"/><polygon fill="none" points="952.5,163.2583,959.5,143.2583,966.5,163.2583,952.5,163.2583" style="stroke:#181818;stroke-width:1.0;"/></g><!--reverse link SortVisitSchedule to BubbleSortVisitSchedule--><g id="link_SortVisitSchedule_BubbleSortVisitSchedule"><path d="M1694.5,380.1083 C1694.5,434.5183 1694.5,514.4483 1694.5,560.3883 " fill="none" id="SortVisitSchedule-backto-BubbleSortVisitSchedule" style="stroke:#181818;stroke-width:1.0;stroke-dasharray:7.0,7.0;"/><polygon fill="none" points="1687.5,380.3883,1694.5,360.3883,1701.5,380.3883,1687.5,380.3883" style="stroke:#181818;stroke-width:1.0;"/></g><!--reverse link SortVisitSchedule to QuickSortVisitSchedule--><g id="link_SortVisitSchedule_QuickSortVisitSchedule"><path d="M1749.62,373.3383 C1808.54,427.6983 1900.46,512.4983 1952.37,560.3883 " fill="none" id="SortVisitSchedule-backto-QuickSortVisitSchedule" style="stroke:#181818;stroke-width:1.0;stroke-dasharray:7.0,7.0;"/><polygon fill="none" points="1745.01,378.6083,1735.05,359.8983,1754.5,368.3183,1745.01,378.6083" style="stroke:#181818;stroke-width:1.0;"/></g><!--reverse link UserSession to AuthenticationRepository--><g id="link_UserSession_AuthenticationRepository"><path codeLine="106" d="M127.6,1158.0283 C130.48,1197.4583 134.85,1257.2483 138.42,1306.1883 " fill="none" id="UserSession-backto-AuthenticationRepository" style="stroke:#181818;stroke-width:1.0;stroke-dasharray:7.0,7.0;"/><polygon fill="#181818" points="127.27,1153.3783,123.9477,1162.6499,127.6404,1158.3645,131.9257,1162.0572,127.27,1153.3783" style="stroke:#181818;stroke-width:1.0;"/></g><!--link AuthenticationController to AuthenticationRepository--><g id="link_AuthenticationController_AuthenticationRepository"><path codeLine="107" d="M398.02,1163.2183 C355.25,1201.3883 294.12,1255.9483 242.61,1301.9283 " fill="none" id="AuthenticationController-to-AuthenticationRepository" style="stroke:#181818;stroke-width:1.0;stroke-dasharray:7.0,7.0;"/><polygon fill="#181818" points="239.1,1305.0583,248.4777,1302.0486,242.8299,1301.7285,243.1501,1296.0807,239.1,1305.0583" style="stroke:#181818;stroke-width:1.0;"/></g><!--link VisitScheduleRequestsWindow to AuthenticationController--><g id="link_VisitScheduleRequestsWindow_AuthenticationController"><path codeLine="108" d="M530.83,922.8183 C512.29,967.3783 490,1020.9583 473.77,1059.9483 " fill="none" id="VisitScheduleRequestsWindow-to-AuthenticationController" style="stroke:#181818;stroke-width:1.0;stroke-dasharray:7.0,7.0;"/><polygon fill="#181818" points="472.01,1064.1983,479.1713,1057.4369,473.9381,1059.585,471.79,1054.3519,472.01,1064.1983" style="stroke:#181818;stroke-width:1.0;"/></g><!--link VisitScheduleRequestsWindow to VisitScheduleController--><g id="link_VisitScheduleRequestsWindow_VisitScheduleController"><path codeLine="109" d="M685.32,922.8183 C711.11,940.7483 738.99,960.1383 766.76,979.4583 " fill="none" id="VisitScheduleRequestsWindow-to-VisitScheduleController" style="stroke:#181818;stroke-width:1.0;stroke-dasharray:7.0,7.0;"/><polygon fill="#181818" points="770.71,982.1983,765.613,973.7709,766.6078,979.3396,761.0391,980.3344,770.71,982.1983" style="stroke:#181818;stroke-width:1.0;"/></g><!--reverse link Repositories to VisitScheduleController--><g id="link_Repositories_VisitScheduleController"><path codeLine="110" d="M959.5,905.7583 C959.5,929.1083 959.5,956.2183 959.5,983.0083 " fill="none" id="Repositories-backto-VisitScheduleController" style="stroke:#181818;stroke-width:1.0;stroke-dasharray:7.0,7.0;"/><polygon fill="#181818" points="959.5,900.7983,955.5,909.7983,959.5,905.7983,963.5,909.7983,959.5,900.7983" style="stroke:#181818;stroke-width:1.0;"/></g><!--reverse link AnnouncementRepository to Repositories--><g id="link_AnnouncementRepository_Repositories"><path codeLine="111" d="M670.22,661.5583 C729.27,697.4783 802.85,742.2183 861.01,777.5983 " fill="none" id="AnnouncementRepository-backto-Repositories" style="stroke:#181818;stroke-width:1.0;"/><polygon fill="#181818" points="666.2,659.1183,671.8278,667.2009,670.4773,661.7076,675.9706,660.3571,666.2,659.1183" style="stroke:#181818;stroke-width:1.0;"/><text fill="#000000" font-family="sans-serif" font-size="20" lengthAdjust="spacing" textLength="33" x="764.5" y="719.8242">has</text></g><!--reverse link EmployeeRepository to Repositories--><g id="link_EmployeeRepository_Repositories"><path codeLine="112" d="M959.5,641.1883 C959.5,679.1783 959.5,735.1083 959.5,777.5683 " fill="none" id="EmployeeRepository-backto-Repositories" style="stroke:#181818;stroke-width:1.0;"/><polygon fill="#181818" points="959.5,636.2983,955.5,645.2983,959.5,641.2983,963.5,645.2983,959.5,636.2983" style="stroke:#181818;stroke-width:1.0;"/><text fill="#000000" font-family="sans-serif" font-size="20" lengthAdjust="spacing" textLength="33" x="960.5" y="719.8242">has</text></g><!--reverse link VisitScheduleRepository to Repositories--><g id="link_VisitScheduleRepository_Repositories"><path codeLine="113" d="M1207.48,673.3083 C1156.77,706.8783 1097.76,745.9483 1050.03,777.5483 " fill="none" id="VisitScheduleRepository-backto-Repositories" style="stroke:#181818;stroke-width:1.0;"/><polygon fill="#181818" points="1211.42,670.7083,1201.7062,672.3339,1207.2488,673.4653,1206.1174,679.0078,1211.42,670.7083" style="stroke:#181818;stroke-width:1.0;"/><text fill="#000000" font-family="sans-serif" font-size="20" lengthAdjust="spacing" textLength="33" x="1163.5" y="719.8242">has</text></g><!--reverse link SortVisitSchedule to VisitScheduleRepository--><g id="link_SortVisitSchedule_VisitScheduleRepository"><path codeLine="114" d="M1639.67,362.6583 C1581.58,405.2083 1488.68,473.2783 1418.05,525.0183 " fill="none" id="SortVisitSchedule-backto-VisitScheduleRepository" style="stroke:#181818;stroke-width:1.0;stroke-dasharray:7.0,7.0;"/><polygon fill="#181818" points="1643.61,359.7683,1633.9843,361.8531,1639.5744,362.7202,1638.7073,368.3102,1643.61,359.7683" style="stroke:#181818;stroke-width:1.0;"/></g><!--reverse link Announcement to AnnouncementRepository--><g id="link_Announcement_AnnouncementRepository"><path codeLine="115" d="M566.5,388.5583 C566.5,433.7183 566.5,493.0883 566.5,536.8283 " fill="none" id="Announcement-backto-AnnouncementRepository" style="stroke:#181818;stroke-width:1.0;"/><polygon fill="#181818" points="566.5,383.7983,562.5,392.7983,566.5,388.7983,570.5,392.7983,566.5,383.7983" style="stroke:#181818;stroke-width:1.0;"/><text fill="#000000" font-family="sans-serif" font-size="20" lengthAdjust="spacing" textLength="33" x="567.5" y="490.8242">has</text></g><!--reverse link Employee to EmployeeRepository--><g id="link_Employee_EmployeeRepository"><path codeLine="116" d="M959.5,353.0483 C959.5,403.9383 959.5,505.8183 959.5,560.2483 " fill="none" id="Employee-backto-EmployeeRepository" style="stroke:#181818;stroke-width:1.0;"/><polygon fill="#181818" points="959.5,348.3183,955.5,357.3183,959.5,353.3183,963.5,357.3183,959.5,348.3183" style="stroke:#181818;stroke-width:1.0;"/><text fill="#000000" font-family="sans-serif" font-size="20" lengthAdjust="spacing" textLength="33" x="960.5" y="490.8242">has</text></g><!--reverse link VisitSchedule to VisitScheduleRepository--><g id="link_VisitSchedule_VisitScheduleRepository"><path codeLine="117" d="M1320.5,447.1083 C1320.5,473.9283 1320.5,501.3783 1320.5,525.3083 " fill="none" id="VisitSchedule-backto-VisitScheduleRepository" style="stroke:#181818;stroke-width:1.0;"/><polygon fill="#181818" points="1320.5,442.1883,1316.5,451.1883,1320.5,447.1883,1324.5,451.1883,1320.5,442.1883" style="stroke:#181818;stroke-width:1.0;"/><text fill="#000000" font-family="sans-serif" font-size="20" lengthAdjust="spacing" textLength="33" x="1321.5" y="490.8242">has</text></g><!--link Repositories to Repositories--><g id="link_Repositories_Repositories"><path codeLine="118" d="M1118.95,819.6183 C1139.74,822.8583 1153.5,829.1483 1153.5,838.4883 C1153.5,846.8783 1142.39,852.8083 1125.06,856.2783 " fill="none" id="Repositories-to-Repositories" style="stroke:#181818;stroke-width:1.0;"/><polygon fill="#181818" points="1120.44,857.0983,1129.999,859.4702,1125.3636,856.2277,1128.6061,851.5924,1120.44,857.0983" style="stroke:#181818;stroke-width:1.0;"/><text fill="#000000" font-family="sans-serif" font-size="20" lengthAdjust="spacing" textLength="89" x="1159.5" y="846.3242">Instances</text></g><!--SRC=[fLPDRzim3BtxL-YuOKZH3TWbA0hagq213klYTJqhDfC8KIHFejjbG__xgDXofDXQXoqdc- -H8lb4EdOdLCKDtqjTxA1a9QnvBV56Ayp5Js0VBZFhAQpYnOvl8CU316QWGAus4WA2tV9IFmkrOMikROX8eG0F5R1AouDxoGAmaDpQ2Q8HgnhXjj3gUFPbbg50EchcS3ONVEFO8_QGl_-OPKSlzc31v62jq8hzoXZztcq0dNMnvqA-UPkzP1bVMJIymEOaTW_6QjMmHqpnFR0no-bujMbju7nFnXT_sc9VINq0OF03GPMdK1rZefIkLG5xKCZy4QAaM49X-tflT0K63sIisiSMwUAF6JMQ7BgutuGLc1TRA6lgY0_itM_dqG5FZZpdwEBSwO9BzznY5hd1hsBVOUxPbwtA1C8hEke9okbXul8Ynafh2Lnvt5aNSTTQf3Gap-TrK7I46_XUWyLMhu6UJshSKd1HS2IHbr1fAawRWvUxr7Tw8nGfVNhLDVftkWspsXYA45mL3_AoTDObbN9cUXIuRSs9J6Oq8qPB2QQJWnCXC8-J7gcBEg3rikcFVHIAPiiNBON5UvABEdLaMv- -tUhd6o6fdr36Y5OhR10VEe2ck0IiZGgwzeaBbIC9cqnje0DFSUgTLkFpeZpYEnUCJUGs6GHQhqAAS_xipFHFohW5q0nY57lHCuRh8YSvZg4NfxUkcP5MxH1vtJqdbYr1ohN1g9KtHkyf_RNOX3frAGgmmLuSxcOGlbzY02OaZ4PaMCVX38BGfrfTFIcIb25YNI_SIfet7wsP4TG_mSDy-lK4kNXmUdXj10US8mQfrKtoH9LktQRwveKb6dqyX2w3nHCHkua-LzmsYTAw1xFc1R3UdV1fEjUmgcczMadeqmKrecdftyVwKejYzx-Xmg_trSL5SjTdoTLxSN6TzlhJ8kqx1alWDSV46ioYiNC5fOY9ERaQZQBH7RCjjzd09HucfcxjCBklJo_ZK87mZuqBE5n2dF6Hs4z_8DiZCt5sGuzwEnfTnpjkp6uL_RMXV6ps6m00]--></g></svg>