<?xml version="1.0" encoding="UTF-8" standalone="no"?><svg xmlns="http://www.w3.org/2000/svg" xmlns:xlink="http://www.w3.org/1999/xlink" contentStyleType="text/css" height="1428px" preserveAspectRatio="none" style="width:2093px;height:1428px;background:#FFFFFF;" version="1.1" viewBox="0 0 2093 1428" width="2093px" zoomAndPan="magnify"><defs/><g><text fill="#000000" font-family="sans-serif" font-size="14" font-weight="bold" lengthAdjust="spacing" textLength="160" x="959.5" y="23.5352">Class Diagram - US15</text><!--class UserSession--><g id="elem_UserSession"><rect codeLine="9" fill="#F1F1F1" height="73.5547" id="UserSession" rx="2.5" ry="2.5" style="stroke:#181818;stroke-width:0.5;" width="168" x="7" y="1025.4883"/><ellipse cx="31.55" cy="1042.4883" fill="#ADD1B2" rx="12" ry="12" style="stroke:#181818;stroke-width:1.0;"/><path d="M34.3566,1049.5684 Q33.673,1049.9199 32.9211,1050.0957 Q32.1691,1050.2715 31.3391,1050.2715 Q28.3898,1050.2715 26.8371,1048.3281 Q25.2844,1046.3848 25.2844,1042.7129 Q25.2844,1039.0313 26.8371,1037.0879 Q28.3898,1035.1445 31.3391,1035.1445 Q32.1691,1035.1445 32.9309,1035.3203 Q33.6926,1035.4961 34.3566,1035.8477 L34.3566,1039.0508 Q33.6145,1038.3672 32.9162,1038.0498 Q32.218,1037.7324 31.4758,1037.7324 Q29.8938,1037.7324 29.0881,1038.9873 Q28.2824,1040.2422 28.2824,1042.7129 Q28.2824,1045.1738 29.0881,1046.4287 Q29.8938,1047.6836 31.4758,1047.6836 Q32.218,1047.6836 32.9162,1047.3662 Q33.6145,1047.0488 34.3566,1046.3652 Z " fill="#000000"/><text fill="#000000" font-family="sans-serif" font-size="20" lengthAdjust="spacing" textLength="115" x="48.45" y="1050.0469">UserSession</text><line style="stroke:#181818;stroke-width:0.5;" x1="8" x2="174" y1="1059.4883" y2="1059.4883"/><line style="stroke:#181818;stroke-width:0.5;" x1="8" x2="174" y1="1067.4883" y2="1067.4883"/><text fill="#000000" font-family="sans-serif" font-size="20" lengthAdjust="spacing" textLength="156" x="13" y="1090.8242">+getUserEmail()</text></g><!--class Person--><g id="elem_Person"><rect codeLine="13" fill="#F1F1F1" height="97.1094" id="Person" rx="2.5" ry="2.5" style="stroke:#181818;stroke-width:0.5;" width="151" x="850.5" y="44.4883"/><ellipse cx="890.35" cy="61.4883" fill="#A9DCDF" rx="12" ry="12" style="stroke:#181818;stroke-width:1.0;"/><path d="M890.3656,56.2949 L889.0082,62.2617 L891.7328,62.2617 Z M888.6078,53.6582 L892.1332,53.6582 L896.0688,68.2383 L893.1879,68.2383 L892.2895,64.6348 L888.432,64.6348 L887.5531,68.2383 L884.6723,68.2383 Z " fill="#000000"/><text fill="#000000" font-family="sans-serif" font-size="20" font-style="italic" lengthAdjust="spacing" textLength="64" x="910.65" y="69.0469">Person</text><line style="stroke:#181818;stroke-width:0.5;" x1="851.5" x2="1000.5" y1="78.4883" y2="78.4883"/><text fill="#000000" font-family="sans-serif" font-size="20" lengthAdjust="spacing" textLength="139" x="856.5" y="101.8242">-name : String</text><text fill="#000000" font-family="sans-serif" font-size="20" lengthAdjust="spacing" textLength="139" x="856.5" y="125.3789">-email : String</text><line style="stroke:#181818;stroke-width:0.5;" x1="851.5" x2="1000.5" y1="133.5977" y2="133.5977"/></g><!--class Employee--><g id="elem_Employee"><rect codeLine="18" fill="#F1F1F1" height="50" id="Employee" rx="2.5" ry="2.5" style="stroke:#181818;stroke-width:0.5;" width="127" x="862.5" y="295.4883"/><ellipse cx="878.5" cy="312.4883" fill="#ADD1B2" rx="12" ry="12" style="stroke:#181818;stroke-width:1.0;"/><path d="M881.3066,319.5684 Q880.623,319.9199 879.8711,320.0957 Q879.1191,320.2715 878.2891,320.2715 Q875.3398,320.2715 873.7871,318.3281 Q872.2344,316.3848 872.2344,312.7129 Q872.2344,309.0313 873.7871,307.0879 Q875.3398,305.1445 878.2891,305.1445 Q879.1191,305.1445 879.8809,305.3203 Q880.6426,305.4961 881.3066,305.8477 L881.3066,309.0508 Q880.5645,308.3672 879.8662,308.0498 Q879.168,307.7324 878.4258,307.7324 Q876.8438,307.7324 876.0381,308.9873 Q875.2324,310.2422 875.2324,312.7129 Q875.2324,315.1738 876.0381,316.4287 Q876.8438,317.6836 878.4258,317.6836 Q879.168,317.6836 879.8662,317.3662 Q880.5645,317.0488 881.3066,316.3652 Z " fill="#000000"/><text fill="#000000" font-family="sans-serif" font-size="20" lengthAdjust="spacing" textLength="93" x="893.5" y="320.0469">Employee</text><line style="stroke:#181818;stroke-width:0.5;" x1="863.5" x2="988.5" y1="329.4883" y2="329.4883"/><line style="stroke:#181818;stroke-width:0.5;" x1="863.5" x2="988.5" y1="337.4883" y2="337.4883"/></g><!--class Announcement--><g id="elem_Announcement"><rect codeLine="21" fill="#F1F1F1" height="120.6641" id="Announcement" rx="2.5" ry="2.5" style="stroke:#181818;stroke-width:0.5;" width="204" x="431" y="259.9883"/><ellipse cx="458.7" cy="276.9883" fill="#ADD1B2" rx="12" ry="12" style="stroke:#181818;stroke-width:1.0;"/><path d="M461.5066,284.0684 Q460.823,284.4199 460.0711,284.5957 Q459.3191,284.7715 458.4891,284.7715 Q455.5398,284.7715 453.9871,282.8281 Q452.4344,280.8848 452.4344,277.2129 Q452.4344,273.5313 453.9871,271.5879 Q455.5398,269.6445 458.4891,269.6445 Q459.3191,269.6445 460.0809,269.8203 Q460.8426,269.9961 461.5066,270.3477 L461.5066,273.5508 Q460.7645,272.8672 460.0662,272.5498 Q459.368,272.2324 458.6258,272.2324 Q457.0438,272.2324 456.2381,273.4873 Q455.4324,274.7422 455.4324,277.2129 Q455.4324,279.6738 456.2381,280.9287 Q457.0438,282.1836 458.6258,282.1836 Q459.368,282.1836 460.0662,281.8662 Q460.7645,281.5488 461.5066,280.8652 Z " fill="#000000"/><text fill="#000000" font-family="sans-serif" font-size="20" lengthAdjust="spacing" textLength="144" x="476.3" y="284.5469">Announcement</text><line style="stroke:#181818;stroke-width:0.5;" x1="432" x2="634" y1="293.9883" y2="293.9883"/><text fill="#000000" font-family="sans-serif" font-size="20" lengthAdjust="spacing" textLength="74" x="437" y="317.3242">-id : int</text><text fill="#000000" font-family="sans-serif" font-size="20" lengthAdjust="spacing" textLength="192" x="437" y="340.8789">-Property : property</text><text fill="#000000" font-family="sans-serif" font-size="20" lengthAdjust="spacing" textLength="176" x="437" y="364.4336">-Employee : agent</text><line style="stroke:#181818;stroke-width:0.5;" x1="432" x2="634" y1="372.6523" y2="372.6523"/></g><!--class VisitSchedule--><g id="elem_VisitSchedule"><rect codeLine="27" fill="#F1F1F1" height="238.4375" id="VisitSchedule" rx="2.5" ry="2.5" style="stroke:#181818;stroke-width:0.5;" width="288" x="1143" y="201.4883"/><ellipse cx="1218.5" cy="218.4883" fill="#ADD1B2" rx="12" ry="12" style="stroke:#181818;stroke-width:1.0;"/><path d="M1221.3066,225.5684 Q1220.623,225.9199 1219.8711,226.0957 Q1219.1191,226.2715 1218.2891,226.2715 Q1215.3398,226.2715 1213.7871,224.3281 Q1212.2344,222.3848 1212.2344,218.7129 Q1212.2344,215.0313 1213.7871,213.0879 Q1215.3398,211.1445 1218.2891,211.1445 Q1219.1191,211.1445 1219.8809,211.3203 Q1220.6426,211.4961 1221.3066,211.8477 L1221.3066,215.0508 Q1220.5645,214.3672 1219.8662,214.0498 Q1219.168,213.7324 1218.4258,213.7324 Q1216.8438,213.7324 1216.0381,214.9873 Q1215.2324,216.2422 1215.2324,218.7129 Q1215.2324,221.1738 1216.0381,222.4287 Q1216.8438,223.6836 1218.4258,223.6836 Q1219.168,223.6836 1219.8662,223.3662 Q1220.5645,223.0488 1221.3066,222.3652 Z " fill="#000000"/><text fill="#000000" font-family="sans-serif" font-size="20" lengthAdjust="spacing" textLength="128" x="1240.5" y="226.0469">VisitSchedule</text><line style="stroke:#181818;stroke-width:0.5;" x1="1144" x2="1430" y1="235.4883" y2="235.4883"/><text fill="#000000" font-family="sans-serif" font-size="20" lengthAdjust="spacing" textLength="158" x="1149" y="258.8242">-propertyID : int</text><text fill="#000000" font-family="sans-serif" font-size="20" lengthAdjust="spacing" textLength="207" x="1149" y="282.3789">-visitDate : LocalDate</text><text fill="#000000" font-family="sans-serif" font-size="20" lengthAdjust="spacing" textLength="221" x="1149" y="305.9336">-startTime : LocalTime</text><text fill="#000000" font-family="sans-serif" font-size="20" lengthAdjust="spacing" textLength="214" x="1149" y="329.4883">-endTime : LocalTime</text><text fill="#000000" font-family="sans-serif" font-size="20" lengthAdjust="spacing" textLength="276" x="1149" y="353.043">-approvedByAgent : boolean</text><text fill="#000000" font-family="sans-serif" font-size="20" lengthAdjust="spacing" textLength="192" x="1149" y="376.5977">-agentEmail : String</text><text fill="#000000" font-family="sans-serif" font-size="20" lengthAdjust="spacing" textLength="252" x="1149" y="400.1523">-adressOfProperty : String</text><text fill="#000000" font-family="sans-serif" font-size="20" lengthAdjust="spacing" textLength="230" x="1149" y="423.707">-requesterEmail : String</text><line style="stroke:#181818;stroke-width:0.5;" x1="1144" x2="1430" y1="431.9258" y2="431.9258"/></g><!--class AuthenticationRepository--><g id="elem_AuthenticationRepository"><rect codeLine="38" fill="#F1F1F1" height="167.7734" id="AuthenticationRepository" rx="2.5" ry="2.5" style="stroke:#181818;stroke-width:0.5;" width="275" x="116.5" y="1253.4883"/><ellipse cx="132.5" cy="1270.4883" fill="#ADD1B2" rx="12" ry="12" style="stroke:#181818;stroke-width:1.0;"/><path d="M135.3066,1277.5684 Q134.623,1277.9199 133.8711,1278.0957 Q133.1191,1278.2715 132.2891,1278.2715 Q129.3398,1278.2715 127.7871,1276.3281 Q126.2344,1274.3848 126.2344,1270.7129 Q126.2344,1267.0313 127.7871,1265.0879 Q129.3398,1263.1445 132.2891,1263.1445 Q133.1191,1263.1445 133.8809,1263.3203 Q134.6426,1263.4961 135.3066,1263.8477 L135.3066,1267.0508 Q134.5645,1266.3672 133.8662,1266.0498 Q133.168,1265.7324 132.4258,1265.7324 Q130.8438,1265.7324 130.0381,1266.9873 Q129.2324,1268.2422 129.2324,1270.7129 Q129.2324,1273.1738 130.0381,1274.4287 Q130.8438,1275.6836 132.4258,1275.6836 Q133.168,1275.6836 133.8662,1275.3662 Q134.5645,1275.0488 135.3066,1274.3652 Z " fill="#000000"/><text fill="#000000" font-family="sans-serif" font-size="20" lengthAdjust="spacing" textLength="241" x="147.5" y="1278.0469">AuthenticationRepository</text><line style="stroke:#181818;stroke-width:0.5;" x1="117.5" x2="390.5" y1="1287.4883" y2="1287.4883"/><line style="stroke:#181818;stroke-width:0.5;" x1="117.5" x2="390.5" y1="1295.4883" y2="1295.4883"/><text fill="#000000" font-family="sans-serif" font-size="20" lengthAdjust="spacing" textLength="108" x="122.5" y="1318.8242">+doLogin()</text><text fill="#000000" font-family="sans-serif" font-size="20" lengthAdjust="spacing" textLength="121" x="122.5" y="1342.3789">+doLogout()</text><text fill="#000000" font-family="sans-serif" font-size="20" lengthAdjust="spacing" textLength="247" x="122.5" y="1365.9336">+getCurrentUserSession()</text><text fill="#000000" font-family="sans-serif" font-size="20" lengthAdjust="spacing" textLength="152" x="122.5" y="1389.4883">+addUserRole()</text><text fill="#000000" font-family="sans-serif" font-size="20" lengthAdjust="spacing" textLength="194" x="122.5" y="1413.043">+addUserWithRole()</text></g><!--class AuthenticationController--><g id="elem_AuthenticationController"><rect codeLine="46" fill="#F1F1F1" height="97.1094" id="AuthenticationController" rx="2.5" ry="2.5" style="stroke:#181818;stroke-width:0.5;" width="415" x="210.5" y="1013.9883"/><ellipse cx="296" cy="1030.9883" fill="#ADD1B2" rx="12" ry="12" style="stroke:#181818;stroke-width:1.0;"/><path d="M298.8066,1038.0684 Q298.123,1038.4199 297.3711,1038.5957 Q296.6191,1038.7715 295.7891,1038.7715 Q292.8398,1038.7715 291.2871,1036.8281 Q289.7344,1034.8848 289.7344,1031.2129 Q289.7344,1027.5313 291.2871,1025.5879 Q292.8398,1023.6445 295.7891,1023.6445 Q296.6191,1023.6445 297.3809,1023.8203 Q298.1426,1023.9961 298.8066,1024.3477 L298.8066,1027.5508 Q298.0645,1026.8672 297.3662,1026.5498 Q296.668,1026.2324 295.9258,1026.2324 Q294.3438,1026.2324 293.5381,1027.4873 Q292.7324,1028.7422 292.7324,1031.2129 Q292.7324,1033.6738 293.5381,1034.9287 Q294.3438,1036.1836 295.9258,1036.1836 Q296.668,1036.1836 297.3662,1035.8662 Q298.0645,1035.5488 298.8066,1034.8652 Z " fill="#000000"/><text fill="#000000" font-family="sans-serif" font-size="20" lengthAdjust="spacing" textLength="235" x="318" y="1038.5469">AuthenticationController</text><line style="stroke:#181818;stroke-width:0.5;" x1="211.5" x2="624.5" y1="1047.9883" y2="1047.9883"/><text fill="#000000" font-family="sans-serif" font-size="20" lengthAdjust="spacing" textLength="403" x="216.5" y="1071.3242">-authController : AuthenticationController</text><line style="stroke:#181818;stroke-width:0.5;" x1="211.5" x2="624.5" y1="1079.543" y2="1079.543"/><text fill="#000000" font-family="sans-serif" font-size="20" lengthAdjust="spacing" textLength="156" x="216.5" y="1102.8789">+getUserEmail()</text></g><!--class VisitScheduleRequestsWindow--><g id="elem_VisitScheduleRequestsWindow"><rect codeLine="51" fill="#F1F1F1" height="167.7734" id="VisitScheduleRequestsWindow" rx="2.5" ry="2.5" style="stroke:#181818;stroke-width:0.5;" width="324" x="332" y="703.4883"/><ellipse cx="348" cy="720.4883" fill="#ADD1B2" rx="12" ry="12" style="stroke:#181818;stroke-width:1.0;"/><path d="M350.8066,727.5684 Q350.123,727.9199 349.3711,728.0957 Q348.6191,728.2715 347.7891,728.2715 Q344.8398,728.2715 343.2871,726.3281 Q341.7344,724.3848 341.7344,720.7129 Q341.7344,717.0313 343.2871,715.0879 Q344.8398,713.1445 347.7891,713.1445 Q348.6191,713.1445 349.3809,713.3203 Q350.1426,713.4961 350.8066,713.8477 L350.8066,717.0508 Q350.0645,716.3672 349.3662,716.0498 Q348.668,715.7324 347.9258,715.7324 Q346.3438,715.7324 345.5381,716.9873 Q344.7324,718.2422 344.7324,720.7129 Q344.7324,723.1738 345.5381,724.4287 Q346.3438,725.6836 347.9258,725.6836 Q348.668,725.6836 349.3662,725.3662 Q350.0645,725.0488 350.8066,724.3652 Z " fill="#000000"/><text fill="#000000" font-family="sans-serif" font-size="20" lengthAdjust="spacing" textLength="290" x="363" y="728.0469">VisitScheduleRequestsWindow</text><line style="stroke:#181818;stroke-width:0.5;" x1="333" x2="655" y1="737.4883" y2="737.4883"/><line style="stroke:#181818;stroke-width:0.5;" x1="333" x2="655" y1="745.4883" y2="745.4883"/><text fill="#000000" font-family="sans-serif" font-size="20" lengthAdjust="spacing" textLength="188" x="338" y="768.8242">+listPendingVisits()</text><text fill="#000000" font-family="sans-serif" font-size="20" lengthAdjust="spacing" textLength="204" x="338" y="792.3789">+showFilteredVisits()</text><text fill="#000000" font-family="sans-serif" font-size="20" lengthAdjust="spacing" textLength="219" x="338" y="815.9336">+onbtFilterSchedules()</text><text fill="#000000" font-family="sans-serif" font-size="20" lengthAdjust="spacing" textLength="136" x="338" y="839.4883">+onBtReturn()</text><text fill="#000000" font-family="sans-serif" font-size="20" lengthAdjust="spacing" textLength="158" x="338" y="863.043">+getMainStage()</text></g><!--class VisitScheduleController--><g id="elem_VisitScheduleController"><rect codeLine="59" fill="#F1F1F1" height="261.9922" id="VisitScheduleController" rx="2.5" ry="2.5" style="stroke:#181818;stroke-width:0.5;" width="531" x="660.5" y="931.4883"/><ellipse cx="809.5" cy="948.4883" fill="#ADD1B2" rx="12" ry="12" style="stroke:#181818;stroke-width:1.0;"/><path d="M812.3066,955.5684 Q811.623,955.9199 810.8711,956.0957 Q810.1191,956.2715 809.2891,956.2715 Q806.3398,956.2715 804.7871,954.3281 Q803.2344,952.3848 803.2344,948.7129 Q803.2344,945.0313 804.7871,943.0879 Q806.3398,941.1445 809.2891,941.1445 Q810.1191,941.1445 810.8809,941.3203 Q811.6426,941.4961 812.3066,941.8477 L812.3066,945.0508 Q811.5645,944.3672 810.8662,944.0498 Q810.168,943.7324 809.4258,943.7324 Q807.8438,943.7324 807.0381,944.9873 Q806.2324,946.2422 806.2324,948.7129 Q806.2324,951.1738 807.0381,952.4287 Q807.8438,953.6836 809.4258,953.6836 Q810.168,953.6836 810.8662,953.3662 Q811.5645,953.0488 812.3066,952.3652 Z " fill="#000000"/><text fill="#000000" font-family="sans-serif" font-size="20" lengthAdjust="spacing" textLength="224" x="831.5" y="956.0469">VisitScheduleController</text><line style="stroke:#181818;stroke-width:0.5;" x1="661.5" x2="1190.5" y1="965.4883" y2="965.4883"/><text fill="#000000" font-family="sans-serif" font-size="20" lengthAdjust="spacing" textLength="487" x="666.5" y="988.8242">-visitScheduleRepository : VisitScheduleRepository</text><text fill="#000000" font-family="sans-serif" font-size="20" lengthAdjust="spacing" textLength="519" x="666.5" y="1012.3789">-announcementRepository : AnnouncementRepository</text><text fill="#000000" font-family="sans-serif" font-size="20" lengthAdjust="spacing" textLength="342" x="666.5" y="1035.9336">-clientRepository : ClientRepository</text><text fill="#000000" font-family="sans-serif" font-size="20" lengthAdjust="spacing" textLength="403" x="666.5" y="1059.4883">-authController : AuthenticationController</text><text fill="#000000" font-family="sans-serif" font-size="20" lengthAdjust="spacing" textLength="420" x="666.5" y="1083.043">-employeeRepository : EmployeeRepository</text><text fill="#000000" font-family="sans-serif" font-size="20" lengthAdjust="spacing" textLength="268" x="666.5" y="1106.5977">-emailSender : EmailSender</text><line style="stroke:#181818;stroke-width:0.5;" x1="661.5" x2="1190.5" y1="1114.8164" y2="1114.8164"/><text fill="#000000" font-family="sans-serif" font-size="20" lengthAdjust="spacing" textLength="320" x="666.5" y="1138.1523">+getPendingVisitsByAgentEmail()</text><text fill="#000000" font-family="sans-serif" font-size="20" lengthAdjust="spacing" textLength="316" x="666.5" y="1161.707">+getFilteredVisitsByAgentEmail()</text><text fill="#000000" font-family="sans-serif" font-size="20" lengthAdjust="spacing" textLength="339" x="666.5" y="1185.2617">+getSortVisitScheduleFromConfig()</text></g><!--class Repositories--><g id="elem_Repositories"><rect codeLine="71" fill="#F1F1F1" height="120.6641" id="Repositories" rx="2.5" ry="2.5" style="stroke:#181818;stroke-width:0.5;" width="318" x="767" y="726.9883"/><ellipse cx="862" cy="743.9883" fill="#ADD1B2" rx="12" ry="12" style="stroke:#181818;stroke-width:1.0;"/><path d="M864.8066,751.0684 Q864.123,751.4199 863.3711,751.5957 Q862.6191,751.7715 861.7891,751.7715 Q858.8398,751.7715 857.2871,749.8281 Q855.7344,747.8848 855.7344,744.2129 Q855.7344,740.5313 857.2871,738.5879 Q858.8398,736.6445 861.7891,736.6445 Q862.6191,736.6445 863.3809,736.8203 Q864.1426,736.9961 864.8066,737.3477 L864.8066,740.5508 Q864.0645,739.8672 863.3662,739.5498 Q862.668,739.2324 861.9258,739.2324 Q860.3438,739.2324 859.5381,740.4873 Q858.7324,741.7422 858.7324,744.2129 Q858.7324,746.6738 859.5381,747.9287 Q860.3438,749.1836 861.9258,749.1836 Q862.668,749.1836 863.3662,748.8662 Q864.0645,748.5488 864.8066,747.8652 Z " fill="#000000"/><text fill="#000000" font-family="sans-serif" font-size="20" lengthAdjust="spacing" textLength="119" x="884" y="751.5469">Repositories</text><line style="stroke:#181818;stroke-width:0.5;" x1="768" x2="1084" y1="760.9883" y2="760.9883"/><line style="stroke:#181818;stroke-width:0.5;" x1="768" x2="1084" y1="768.9883" y2="768.9883"/><text fill="#000000" font-family="sans-serif" font-size="20" lengthAdjust="spacing" textLength="306" x="773" y="792.3242">+getAnnouncementRepository()</text><text fill="#000000" font-family="sans-serif" font-size="20" lengthAdjust="spacing" textLength="255" x="773" y="815.8789">+getEmployeeRepository()</text><text fill="#000000" font-family="sans-serif" font-size="20" lengthAdjust="spacing" textLength="290" x="773" y="839.4336">+getVisitScheduleRepository()</text></g><!--class AnnouncementRepository--><g id="elem_AnnouncementRepository"><rect codeLine="77" fill="#F1F1F1" height="120.6641" id="AnnouncementRepository" rx="2.5" ry="2.5" style="stroke:#181818;stroke-width:0.5;" width="476" x="295" y="510.9883"/><ellipse cx="405.5" cy="527.9883" fill="#ADD1B2" rx="12" ry="12" style="stroke:#181818;stroke-width:1.0;"/><path d="M408.3066,535.0684 Q407.623,535.4199 406.8711,535.5957 Q406.1191,535.7715 405.2891,535.7715 Q402.3398,535.7715 400.7871,533.8281 Q399.2344,531.8848 399.2344,528.2129 Q399.2344,524.5313 400.7871,522.5879 Q402.3398,520.6445 405.2891,520.6445 Q406.1191,520.6445 406.8809,520.8203 Q407.6426,520.9961 408.3066,521.3477 L408.3066,524.5508 Q407.5645,523.8672 406.8662,523.5498 Q406.168,523.2324 405.4258,523.2324 Q403.8438,523.2324 403.0381,524.4873 Q402.2324,525.7422 402.2324,528.2129 Q402.2324,530.6738 403.0381,531.9287 Q403.8438,533.1836 405.4258,533.1836 Q406.168,533.1836 406.8662,532.8662 Q407.5645,532.5488 408.3066,531.8652 Z " fill="#000000"/><text fill="#000000" font-family="sans-serif" font-size="20" lengthAdjust="spacing" textLength="246" x="427.5" y="535.5469">AnnouncementRepository</text><line style="stroke:#181818;stroke-width:0.5;" x1="296" x2="770" y1="544.9883" y2="544.9883"/><line style="stroke:#181818;stroke-width:0.5;" x1="296" x2="770" y1="552.9883" y2="552.9883"/><text fill="#000000" font-family="sans-serif" font-size="20" lengthAdjust="spacing" textLength="204" x="301" y="576.3242">+getAnnouncement()</text><text fill="#000000" font-family="sans-serif" font-size="20" lengthAdjust="spacing" textLength="363" x="301" y="599.8789">+getAgentEmailFromAnnouncement()</text><text fill="#000000" font-family="sans-serif" font-size="20" lengthAdjust="spacing" textLength="464" x="301" y="623.4336">+getAllAnnouncementsSortedByDefaultCriteria()</text></g><!--class EmployeeRepository--><g id="elem_EmployeeRepository"><rect codeLine="83" fill="#F1F1F1" height="73.5547" id="EmployeeRepository" rx="2.5" ry="2.5" style="stroke:#181818;stroke-width:0.5;" width="240" x="806" y="534.4883"/><ellipse cx="826.95" cy="551.4883" fill="#ADD1B2" rx="12" ry="12" style="stroke:#181818;stroke-width:1.0;"/><path d="M829.7566,558.5684 Q829.073,558.9199 828.3211,559.0957 Q827.5691,559.2715 826.7391,559.2715 Q823.7898,559.2715 822.2371,557.3281 Q820.6844,555.3848 820.6844,551.7129 Q820.6844,548.0313 822.2371,546.0879 Q823.7898,544.1445 826.7391,544.1445 Q827.5691,544.1445 828.3309,544.3203 Q829.0926,544.4961 829.7566,544.8477 L829.7566,548.0508 Q829.0145,547.3672 828.3162,547.0498 Q827.618,546.7324 826.8758,546.7324 Q825.2938,546.7324 824.4881,547.9873 Q823.6824,549.2422 823.6824,551.7129 Q823.6824,554.1738 824.4881,555.4287 Q825.2938,556.6836 826.8758,556.6836 Q827.618,556.6836 828.3162,556.3662 Q829.0145,556.0488 829.7566,555.3652 Z " fill="#000000"/><text fill="#000000" font-family="sans-serif" font-size="20" lengthAdjust="spacing" textLength="195" x="843.05" y="559.0469">EmployeeRepository</text><line style="stroke:#181818;stroke-width:0.5;" x1="807" x2="1045" y1="568.4883" y2="568.4883"/><line style="stroke:#181818;stroke-width:0.5;" x1="807" x2="1045" y1="576.4883" y2="576.4883"/><text fill="#000000" font-family="sans-serif" font-size="20" lengthAdjust="spacing" textLength="228" x="812" y="599.8242">+getEmployeeByEmail()</text></g><!--class VisitScheduleRepository--><g id="elem_VisitScheduleRepository"><rect codeLine="87" fill="#F1F1F1" height="144.2188" id="VisitScheduleRepository" rx="2.5" ry="2.5" style="stroke:#181818;stroke-width:0.5;" width="411" x="1081.5" y="499.4883"/><ellipse cx="1167.5" cy="516.4883" fill="#ADD1B2" rx="12" ry="12" style="stroke:#181818;stroke-width:1.0;"/><path d="M1170.3066,523.5684 Q1169.623,523.9199 1168.8711,524.0957 Q1168.1191,524.2715 1167.2891,524.2715 Q1164.3398,524.2715 1162.7871,522.3281 Q1161.2344,520.3848 1161.2344,516.7129 Q1161.2344,513.0313 1162.7871,511.0879 Q1164.3398,509.1445 1167.2891,509.1445 Q1168.1191,509.1445 1168.8809,509.3203 Q1169.6426,509.4961 1170.3066,509.8477 L1170.3066,513.0508 Q1169.5645,512.3672 1168.8662,512.0498 Q1168.168,511.7324 1167.4258,511.7324 Q1165.8438,511.7324 1165.0381,512.9873 Q1164.2324,514.2422 1164.2324,516.7129 Q1164.2324,519.1738 1165.0381,520.4287 Q1165.8438,521.6836 1167.4258,521.6836 Q1168.168,521.6836 1168.8662,521.3662 Q1169.5645,521.0488 1170.3066,520.3652 Z " fill="#000000"/><text fill="#000000" font-family="sans-serif" font-size="20" lengthAdjust="spacing" textLength="230" x="1189.5" y="524.0469">VisitScheduleRepository</text><line style="stroke:#181818;stroke-width:0.5;" x1="1082.5" x2="1491.5" y1="533.4883" y2="533.4883"/><line style="stroke:#181818;stroke-width:0.5;" x1="1082.5" x2="1491.5" y1="541.4883" y2="541.4883"/><text fill="#000000" font-family="sans-serif" font-size="20" lengthAdjust="spacing" textLength="399" x="1087.5" y="564.8242">+getVisitSchedulesByUserEmailAndDate()</text><text fill="#000000" font-family="sans-serif" font-size="20" lengthAdjust="spacing" textLength="376" x="1087.5" y="588.3789">+getVisitSchedulesByAgentAndPeriod()</text><text fill="#000000" font-family="sans-serif" font-size="20" lengthAdjust="spacing" textLength="195" x="1087.5" y="611.9336">+addVisitSchedule()</text><text fill="#000000" font-family="sans-serif" font-size="20" lengthAdjust="spacing" textLength="205" x="1087.5" y="635.4883">+sortVisitSchedules()</text></g><!--class SortVisitSchedule--><g id="elem_SortVisitSchedule"><rect codeLine="94" fill="#F1F1F1" height="73.5547" id="SortVisitSchedule" rx="2.5" ry="2.5" style="stroke:#181818;stroke-width:0.5;" width="200" x="1561" y="283.4883"/><ellipse cx="1577" cy="300.4883" fill="#B4A7E5" rx="12" ry="12" style="stroke:#181818;stroke-width:1.0;"/><path d="M1572.6797,295.9473 L1572.6797,293.4082 L1581.3613,293.4082 L1581.3613,295.9473 L1578.4609,295.9473 L1578.4609,305.4492 L1581.3613,305.4492 L1581.3613,307.9883 L1572.6797,307.9883 L1572.6797,305.4492 L1575.5801,305.4492 L1575.5801,295.9473 Z " fill="#000000"/><text fill="#000000" font-family="sans-serif" font-size="20" font-style="italic" lengthAdjust="spacing" textLength="166" x="1592" y="308.0469">SortVisitSchedule</text><line style="stroke:#181818;stroke-width:0.5;" x1="1562" x2="1760" y1="317.4883" y2="317.4883"/><line style="stroke:#181818;stroke-width:0.5;" x1="1562" x2="1760" y1="325.4883" y2="325.4883"/><text fill="#000000" font-family="sans-serif" font-size="20" lengthAdjust="spacing" textLength="67" x="1567" y="348.8242">+sort()</text></g><!--class BubbleSortVisitSchedule--><g id="elem_BubbleSortVisitSchedule"><rect codeLine="98" fill="#F1F1F1" height="73.5547" id="BubbleSortVisitSchedule" rx="2.5" ry="2.5" style="stroke:#181818;stroke-width:0.5;" width="267" x="1527.5" y="534.4883"/><ellipse cx="1543.5" cy="551.4883" fill="#ADD1B2" rx="12" ry="12" style="stroke:#181818;stroke-width:1.0;"/><path d="M1546.3066,558.5684 Q1545.623,558.9199 1544.8711,559.0957 Q1544.1191,559.2715 1543.2891,559.2715 Q1540.3398,559.2715 1538.7871,557.3281 Q1537.2344,555.3848 1537.2344,551.7129 Q1537.2344,548.0313 1538.7871,546.0879 Q1540.3398,544.1445 1543.2891,544.1445 Q1544.1191,544.1445 1544.8809,544.3203 Q1545.6426,544.4961 1546.3066,544.8477 L1546.3066,548.0508 Q1545.5645,547.3672 1544.8662,547.0498 Q1544.168,546.7324 1543.4258,546.7324 Q1541.8438,546.7324 1541.0381,547.9873 Q1540.2324,549.2422 1540.2324,551.7129 Q1540.2324,554.1738 1541.0381,555.4287 Q1541.8438,556.6836 1543.4258,556.6836 Q1544.168,556.6836 1544.8662,556.3662 Q1545.5645,556.0488 1546.3066,555.3652 Z " fill="#000000"/><text fill="#000000" font-family="sans-serif" font-size="20" lengthAdjust="spacing" textLength="233" x="1558.5" y="559.0469">BubbleSortVisitSchedule</text><line style="stroke:#181818;stroke-width:0.5;" x1="1528.5" x2="1793.5" y1="568.4883" y2="568.4883"/><line style="stroke:#181818;stroke-width:0.5;" x1="1528.5" x2="1793.5" y1="576.4883" y2="576.4883"/><text fill="#000000" font-family="sans-serif" font-size="20" lengthAdjust="spacing" textLength="67" x="1533.5" y="599.8242">+sort()</text></g><!--class QuickSortVisitSchedule--><g id="elem_QuickSortVisitSchedule"><rect codeLine="102" fill="#F1F1F1" height="73.5547" id="QuickSortVisitSchedule" rx="2.5" ry="2.5" style="stroke:#181818;stroke-width:0.5;" width="256" x="1830" y="534.4883"/><ellipse cx="1846" cy="551.4883" fill="#ADD1B2" rx="12" ry="12" style="stroke:#181818;stroke-width:1.0;"/><path d="M1848.8066,558.5684 Q1848.123,558.9199 1847.3711,559.0957 Q1846.6191,559.2715 1845.7891,559.2715 Q1842.8398,559.2715 1841.2871,557.3281 Q1839.7344,555.3848 1839.7344,551.7129 Q1839.7344,548.0313 1841.2871,546.0879 Q1842.8398,544.1445 1845.7891,544.1445 Q1846.6191,544.1445 1847.3809,544.3203 Q1848.1426,544.4961 1848.8066,544.8477 L1848.8066,548.0508 Q1848.0645,547.3672 1847.3662,547.0498 Q1846.668,546.7324 1845.9258,546.7324 Q1844.3438,546.7324 1843.5381,547.9873 Q1842.7324,549.2422 1842.7324,551.7129 Q1842.7324,554.1738 1843.5381,555.4287 Q1844.3438,556.6836 1845.9258,556.6836 Q1846.668,556.6836 1847.3662,556.3662 Q1848.0645,556.0488 1848.8066,555.3652 Z " fill="#000000"/><text fill="#000000" font-family="sans-serif" font-size="20" lengthAdjust="spacing" textLength="222" x="1861" y="559.0469">QuickSortVisitSchedule</text><line style="stroke:#181818;stroke-width:0.5;" x1="1831" x2="2085" y1="568.4883" y2="568.4883"/><line style="stroke:#181818;stroke-width:0.5;" x1="1831" x2="2085" y1="576.4883" y2="576.4883"/><text fill="#000000" font-family="sans-serif" font-size="20" lengthAdjust="spacing" textLength="67" x="1836" y="599.8242">+sort()</text></g><!--reverse link Person to Employee--><g id="link_Person_Employee"><path d="M926,163.1083 C926,207.9383 926,263.6583 926,295.0283 " fill="none" id="Person-backto-Employee" style="stroke:#181818;stroke-width:1.0;"/><polygon fill="none" points="919,163.3283,926,143.3283,933,163.3283,919,163.3283" style="stroke:#181818;stroke-width:1.0;"/></g><!--reverse link SortVisitSchedule to BubbleSortVisitSchedule--><g id="link_SortVisitSchedule_BubbleSortVisitSchedule"><path d="M1661,379.4483 C1661,427.2983 1661,493.7283 1661,534.3183 " fill="none" id="SortVisitSchedule-backto-BubbleSortVisitSchedule" style="stroke:#181818;stroke-width:1.0;stroke-dasharray:7.0,7.0;"/><polygon fill="none" points="1654,379.4783,1661,359.4783,1668,379.4783,1654,379.4783" style="stroke:#181818;stroke-width:1.0;"/></g><!--reverse link SortVisitSchedule to QuickSortVisitSchedule--><g id="link_SortVisitSchedule_QuickSortVisitSchedule"><path d="M1720.65,371.4983 C1778.13,419.6883 1863.7,491.4283 1914.86,534.3183 " fill="none" id="SortVisitSchedule-backto-QuickSortVisitSchedule" style="stroke:#181818;stroke-width:1.0;stroke-dasharray:7.0,7.0;"/><polygon fill="none" points="1716.49,377.1483,1705.66,358.9383,1725.49,366.4183,1716.49,377.1483" style="stroke:#181818;stroke-width:1.0;"/></g><!--reverse link UserSession to AuthenticationRepository--><g id="link_UserSession_AuthenticationRepository"><path codeLine="106" d="M115.72,1104.8883 C139.13,1144.0983 174.95,1204.0983 204.27,1253.1983 " fill="none" id="UserSession-backto-AuthenticationRepository" style="stroke:#181818;stroke-width:1.0;"/><polygon fill="#181818" points="113.42,1101.0383,114.5822,1110.8183,115.9757,1105.3358,121.4582,1106.7293,113.42,1101.0383" style="stroke:#181818;stroke-width:1.0;"/></g><!--link AuthenticationController to AuthenticationRepository--><g id="link_AuthenticationController_AuthenticationRepository"><path codeLine="107" d="M389.25,1111.3583 C366.69,1148.8983 334.67,1202.2083 307.44,1247.5283 " fill="none" id="AuthenticationController-to-AuthenticationRepository" style="stroke:#181818;stroke-width:1.0;stroke-dasharray:7.0,7.0;"/><polygon fill="#181818" points="304.93,1251.7083,312.9904,1246.0488,307.5025,1247.4208,306.1305,1241.9329,304.93,1251.7083" style="stroke:#181818;stroke-width:1.0;"/></g><!--link VisitScheduleRequestsWindow to AuthenticationController--><g id="link_VisitScheduleRequestsWindow_AuthenticationController"><path codeLine="108" d="M470.78,871.8783 C458.52,915.9383 443.82,968.7383 433.05,1007.4183 " fill="none" id="VisitScheduleRequestsWindow-to-AuthenticationController" style="stroke:#181818;stroke-width:1.0;stroke-dasharray:7.0,7.0;"/><polygon fill="#181818" points="431.76,1012.0483,438.031,1004.4539,433.1034,1007.2321,430.3252,1002.3045,431.76,1012.0483" style="stroke:#181818;stroke-width:1.0;"/></g><!--link VisitScheduleRequestsWindow to VisitScheduleController--><g id="link_VisitScheduleRequestsWindow_VisitScheduleController"><path codeLine="109" d="M625.96,871.8783 C653.99,889.5983 684.26,908.7183 714.41,927.7783 " fill="none" id="VisitScheduleRequestsWindow-to-VisitScheduleController" style="stroke:#181818;stroke-width:1.0;"/><polygon fill="#181818" points="718.36,930.2783,712.8876,922.0897,714.1329,927.6078,708.6148,928.8531,718.36,930.2783" style="stroke:#181818;stroke-width:1.0;"/></g><!--reverse link Repositories to VisitScheduleController--><g id="link_Repositories_VisitScheduleController"><path codeLine="110" d="M926,854.8183 C926,877.9283 926,904.7183 926,931.2083 " fill="none" id="Repositories-backto-VisitScheduleController" style="stroke:#181818;stroke-width:1.0;"/><polygon fill="#181818" points="926,849.9083,922,858.9083,926,854.9083,930,858.9083,926,849.9083" style="stroke:#181818;stroke-width:1.0;"/></g><!--reverse link AnnouncementRepository to Repositories--><g id="link_AnnouncementRepository_Repositories"><path codeLine="111" d="M648.41,635.3383 C701.34,664.1583 763.79,698.1583 816.03,726.6083 " fill="none" id="AnnouncementRepository-backto-Repositories" style="stroke:#181818;stroke-width:1.0;"/><polygon fill="#181818" points="644.32,633.1083,650.3252,640.9145,648.7155,635.4915,654.1384,633.8818,644.32,633.1083" style="stroke:#181818;stroke-width:1.0;"/></g><!--reverse link EmployeeRepository to Repositories--><g id="link_EmployeeRepository_Repositories"><path codeLine="112" d="M926,614.9983 C926,646.9083 926,691.0083 926,726.4983 " fill="none" id="EmployeeRepository-backto-Repositories" style="stroke:#181818;stroke-width:1.0;"/><polygon fill="#181818" points="926,610.3083,922,619.3083,926,615.3083,930,619.3083,926,610.3083" style="stroke:#181818;stroke-width:1.0;"/></g><!--reverse link VisitScheduleRepository to Repositories--><g id="link_VisitScheduleRepository_Repositories"><path codeLine="113" d="M1160.95,647.2083 C1117.17,673.1683 1068.67,701.9083 1027.16,726.5183 " fill="none" id="VisitScheduleRepository-backto-Repositories" style="stroke:#181818;stroke-width:1.0;"/><polygon fill="#181818" points="1165.24,644.6683,1155.4571,645.8064,1160.9362,647.2134,1159.5293,652.6925,1165.24,644.6683" style="stroke:#181818;stroke-width:1.0;"/></g><!--reverse link SortVisitSchedule to VisitScheduleRepository--><g id="link_SortVisitSchedule_VisitScheduleRepository"><path codeLine="114" d="M1600.92,361.4883 C1545.29,398.5283 1461.27,454.4683 1394.14,499.1583 " fill="none" id="SortVisitSchedule-backto-VisitScheduleRepository" style="stroke:#181818;stroke-width:1.0;stroke-dasharray:7.0,7.0;"/><polygon fill="#181818" points="1604.96,358.7983,1595.2527,360.4624,1600.7997,361.5718,1599.6903,367.1188,1604.96,358.7983" style="stroke:#181818;stroke-width:1.0;"/></g><!--reverse link Announcement to AnnouncementRepository--><g id="link_Announcement_AnnouncementRepository"><path codeLine="115" d="M533,387.4983 C533,425.7283 533,473.4783 533,510.6183 " fill="none" id="Announcement-backto-AnnouncementRepository" style="stroke:#181818;stroke-width:1.0;"/><polygon fill="#181818" points="533,382.9583,529,391.9583,533,387.9583,537,391.9583,533,382.9583" style="stroke:#181818;stroke-width:1.0;"/></g><!--reverse link Employee to EmployeeRepository--><g id="link_Employee_EmployeeRepository"><path codeLine="116" d="M926,352.3083 C926,398.3583 926,484.9483 926,534.0583 " fill="none" id="Employee-backto-EmployeeRepository" style="stroke:#181818;stroke-width:1.0;"/><polygon fill="#181818" points="926,347.3283,922,356.3283,926,352.3283,930,356.3283,926,347.3283" style="stroke:#181818;stroke-width:1.0;"/></g><!--reverse link VisitSchedule to VisitScheduleRepository--><g id="link_VisitSchedule_VisitScheduleRepository"><path codeLine="117" d="M1287,445.9883 C1287,464.2683 1287,482.5583 1287,499.2583 " fill="none" id="VisitSchedule-backto-VisitScheduleRepository" style="stroke:#181818;stroke-width:1.0;"/><polygon fill="#181818" points="1287,441.3083,1283,450.3083,1287,446.3083,1291,450.3083,1287,441.3083" style="stroke:#181818;stroke-width:1.0;"/></g><!--SRC=[fLPDRzim3BtxL-YuOKZH3TWbA0hagq213klYTJqhDkC8KIHFejjvG__xgDXovDZgXYqdc- -H8lb4EdOlLCaDFqYTxI5dEMnv9V56Aqp5Js0VBXFhAQpasPuNa68jWHd8aAj2Ga2mEvxhPw4AjkNIXeWK2h0kWPLQrkub2S1CScjdY4PiAeJRJAlZsPT9WWBfg8N3sLBmmh4dx25z_p59ZbximO99mLgX5VkLCFgzAm2TTNNWGhvvcxma2TzOD3p3vYHs3yPgrR0dJF43i2bBwNXLj3PmlYVZYpzjTIYbhW4O_41G-IbKnvWffIkLmG4KCd-4o2cMKDY-tXjTWi6QZ6Nxs29T_2cZHfD35_URi0BJR0TvHHtnWRtxxR9tm9CZBpcwE7Swuz8zjvX5Rl2hE7IOU_Pbgpo2y9AEUe9yNizSNiJOQ2s1AuyxwwhVjHR93SdpUHiKtSCDVA_0OglNICzd5UuekCWuaiXhA3KLfqtjvSxrdIw48gLFhxf2_qwtOL4PGn62g-91dkVEkgPIpaoF0dUjEPB9WcR4Q2d1T79m8WJcQTGZTb57j5ut_R6FGj5i-QAbi7XFSb6dZcphqxSx_NmZ9FKJyZwYrGORn8SEe3ck0IkZWgvzuaAbIC96Knlfm5C_zKwhwNbH7l6T2yQcvpOR1LglJ8fp_kBCz4_Ak0NG368lzcfW3DT5Id8SGwzERrqpUrgrG-Hrzvo-R15IgWtsMdbZz87ItueYrAbBKO0Dzk9uDuFmmn83C29XRqJ6THpF80XzgjNL4oD96IBMzSAjf6NpqLeOGVqJFCndM4-GYmVdzPz6SCIvno2rkacUgTojsrZVlB14eu-7q7cmU7h4RgBF5RTDehJkmMnv1cnm9toQpZMiQbvjDXA6T46DQ5hwzx6-L2BR_s-eyEjzDPb4TtqINRqN5zTnhzSMwT0nM0AlEKucrx4rcFJ6pXKK8qRcnBc4CPAH-plWnExgW3WKvEhY8hgOU_zaZkACh-BkFulZZAp8inFFcn8mVmC0]--></g></svg>