<?xml version="1.0" encoding="UTF-8" standalone="no"?><svg xmlns="http://www.w3.org/2000/svg" xmlns:xlink="http://www.w3.org/1999/xlink" contentStyleType="text/css" height="910px" preserveAspectRatio="none" style="width:2065px;height:910px;background:#FFFFFF;" version="1.1" viewBox="0 0 2065 910" width="2065px" zoomAndPan="magnify"><defs/><g><text fill="#000000" font-family="sans-serif" font-size="14" font-weight="bold" lengthAdjust="spacing" textLength="187" x="938.25" y="28.5352">Sequence Diagram - US15</text><rect fill="#FFFFFF" height="676.9844" style="stroke:#181818;stroke-width:1.0;" width="10" x="49.5" y="136.043"/><rect fill="#FFFFFF" height="337.9922" style="stroke:#181818;stroke-width:1.0;" width="10" x="535.5" y="165.5977"/><rect fill="#FFFFFF" height="262.8828" style="stroke:#181818;stroke-width:1.0;" width="10" x="535.5" y="541.1445"/><rect fill="#FFFFFF" height="37.5547" style="stroke:#181818;stroke-width:1.0;" width="10" x="886" y="203.1523"/><rect fill="#FFFFFF" height="187.7734" style="stroke:#181818;stroke-width:1.0;" width="10" x="1225.5" y="278.2617"/><rect fill="#FFFFFF" height="187.7734" style="stroke:#181818;stroke-width:1.0;" width="10" x="1225.5" y="578.6992"/><rect fill="#FFFFFF" height="37.5547" style="stroke:#181818;stroke-width:1.0;" width="10" x="1558.5" y="315.8164"/><rect fill="#FFFFFF" height="37.5547" style="stroke:#181818;stroke-width:1.0;" width="10" x="1558.5" y="616.2539"/><rect fill="#FFFFFF" height="37.5547" style="stroke:#181818;stroke-width:1.0;" width="10" x="1929.5" y="390.9258"/><rect fill="#FFFFFF" height="37.5547" style="stroke:#181818;stroke-width:1.0;" width="10" x="1929.5" y="691.3633"/><line style="stroke:#181818;stroke-width:0.5;stroke-dasharray:5.0,5.0;" x1="54" x2="54" y1="126.043" y2="822.0273"/><line style="stroke:#181818;stroke-width:0.5;stroke-dasharray:5.0,5.0;" x1="540.5" x2="540.5" y1="126.043" y2="822.0273"/><line style="stroke:#181818;stroke-width:0.5;stroke-dasharray:5.0,5.0;" x1="890.5" x2="890.5" y1="126.043" y2="822.0273"/><line style="stroke:#181818;stroke-width:0.5;stroke-dasharray:5.0,5.0;" x1="1230.5" x2="1230.5" y1="126.043" y2="822.0273"/><line style="stroke:#181818;stroke-width:0.5;stroke-dasharray:5.0,5.0;" x1="1563" x2="1563" y1="126.043" y2="822.0273"/><line style="stroke:#181818;stroke-width:0.5;stroke-dasharray:5.0,5.0;" x1="1934.5" x2="1934.5" y1="126.043" y2="822.0273"/><text fill="#000000" font-family="sans-serif" font-size="20" lengthAdjust="spacing" textLength="93" x="5" y="121.8242">Employee</text><ellipse cx="54.5" cy="50.9883" fill="#E3E3E3" rx="8" ry="8" style="stroke:#181818;stroke-width:0.5;"/><path d="M54.5,58.9883 L54.5,85.9883 M41.5,66.9883 L67.5,66.9883 M54.5,85.9883 L41.5,100.9883 M54.5,85.9883 L67.5,100.9883 " fill="none" style="stroke:#181818;stroke-width:0.5;"/><text fill="#000000" font-family="sans-serif" font-size="20" lengthAdjust="spacing" textLength="93" x="5" y="840.3633">Employee</text><ellipse cx="54.5" cy="853.082" fill="#E3E3E3" rx="8" ry="8" style="stroke:#181818;stroke-width:0.5;"/><path d="M54.5,861.082 L54.5,888.082 M41.5,869.082 L67.5,869.082 M54.5,888.082 L41.5,903.082 M54.5,888.082 L67.5,903.082 " fill="none" style="stroke:#181818;stroke-width:0.5;"/><rect fill="#E3E3E3" height="37.5547" rx="2.5" ry="2.5" style="stroke:#181818;stroke-width:0.5;" width="330" x="375.5" y="87.4883"/><text fill="#000000" font-family="sans-serif" font-size="20" lengthAdjust="spacing" textLength="316" x="382.5" y="113.8242">VisitScheduleRequestsWindow:UI</text><rect fill="#E3E3E3" height="37.5547" rx="2.5" ry="2.5" style="stroke:#181818;stroke-width:0.5;" width="330" x="375.5" y="821.0273"/><text fill="#000000" font-family="sans-serif" font-size="20" lengthAdjust="spacing" textLength="316" x="382.5" y="847.3633">VisitScheduleRequestsWindow:UI</text><rect fill="#E3E3E3" height="37.5547" rx="2.5" ry="2.5" style="stroke:#181818;stroke-width:0.5;" width="351" x="715.5" y="87.4883"/><text fill="#000000" font-family="sans-serif" font-size="20" lengthAdjust="spacing" textLength="337" x="722.5" y="113.8242">AuthenticationController:AuthCTRL</text><rect fill="#E3E3E3" height="37.5547" rx="2.5" ry="2.5" style="stroke:#181818;stroke-width:0.5;" width="351" x="715.5" y="821.0273"/><text fill="#000000" font-family="sans-serif" font-size="20" lengthAdjust="spacing" textLength="337" x="722.5" y="847.3633">AuthenticationController:AuthCTRL</text><rect fill="#E3E3E3" height="37.5547" rx="2.5" ry="2.5" style="stroke:#181818;stroke-width:0.5;" width="308" x="1076.5" y="87.4883"/><text fill="#000000" font-family="sans-serif" font-size="20" lengthAdjust="spacing" textLength="294" x="1083.5" y="113.8242">VisitScheduleController:VCTRL</text><rect fill="#E3E3E3" height="37.5547" rx="2.5" ry="2.5" style="stroke:#181818;stroke-width:0.5;" width="308" x="1076.5" y="821.0273"/><text fill="#000000" font-family="sans-serif" font-size="20" lengthAdjust="spacing" textLength="294" x="1083.5" y="847.3633">VisitScheduleController:VCTRL</text><rect fill="#E3E3E3" height="61.1094" rx="2.5" ry="2.5" style="stroke:#181818;stroke-width:0.5;" width="139" x="1494" y="63.9336"/><text fill="#000000" font-family="sans-serif" font-size="20" lengthAdjust="spacing" textLength="114" x="1506.5" y="90.2695">repositories</text><text fill="#000000" font-family="sans-serif" font-size="20" lengthAdjust="spacing" textLength="125" x="1501" y="113.8242">:Repositories</text><rect fill="#E3E3E3" height="61.1094" rx="2.5" ry="2.5" style="stroke:#181818;stroke-width:0.5;" width="139" x="1494" y="821.0273"/><text fill="#000000" font-family="sans-serif" font-size="20" lengthAdjust="spacing" textLength="114" x="1506.5" y="847.3633">repositories</text><text fill="#000000" font-family="sans-serif" font-size="20" lengthAdjust="spacing" textLength="125" x="1501" y="870.918">:Repositories</text><rect fill="#E3E3E3" height="37.5547" rx="2.5" ry="2.5" style="stroke:#181818;stroke-width:0.5;" width="250" x="1809.5" y="87.4883"/><text fill="#000000" font-family="sans-serif" font-size="20" lengthAdjust="spacing" textLength="236" x="1816.5" y="113.8242">:VisitScheduleRepository</text><rect fill="#E3E3E3" height="37.5547" rx="2.5" ry="2.5" style="stroke:#181818;stroke-width:0.5;" width="250" x="1809.5" y="821.0273"/><text fill="#000000" font-family="sans-serif" font-size="20" lengthAdjust="spacing" textLength="236" x="1816.5" y="847.3633">:VisitScheduleRepository</text><rect fill="#FFFFFF" height="676.9844" style="stroke:#181818;stroke-width:1.0;" width="10" x="49.5" y="136.043"/><rect fill="#FFFFFF" height="337.9922" style="stroke:#181818;stroke-width:1.0;" width="10" x="535.5" y="165.5977"/><rect fill="#FFFFFF" height="262.8828" style="stroke:#181818;stroke-width:1.0;" width="10" x="535.5" y="541.1445"/><rect fill="#FFFFFF" height="37.5547" style="stroke:#181818;stroke-width:1.0;" width="10" x="886" y="203.1523"/><rect fill="#FFFFFF" height="187.7734" style="stroke:#181818;stroke-width:1.0;" width="10" x="1225.5" y="278.2617"/><rect fill="#FFFFFF" height="187.7734" style="stroke:#181818;stroke-width:1.0;" width="10" x="1225.5" y="578.6992"/><rect fill="#FFFFFF" height="37.5547" style="stroke:#181818;stroke-width:1.0;" width="10" x="1558.5" y="315.8164"/><rect fill="#FFFFFF" height="37.5547" style="stroke:#181818;stroke-width:1.0;" width="10" x="1558.5" y="616.2539"/><rect fill="#FFFFFF" height="37.5547" style="stroke:#181818;stroke-width:1.0;" width="10" x="1929.5" y="390.9258"/><rect fill="#FFFFFF" height="37.5547" style="stroke:#181818;stroke-width:1.0;" width="10" x="1929.5" y="691.3633"/><polygon fill="#181818" points="523.5,161.5977,533.5,165.5977,523.5,169.5977,527.5,165.5977" style="stroke:#181818;stroke-width:1.0;"/><line style="stroke:#181818;stroke-width:1.0;" x1="59.5" x2="529.5" y1="165.5977" y2="165.5977"/><text fill="#000000" font-family="sans-serif" font-size="20" font-weight="bold" lengthAdjust="spacing" textLength="13" x="66.5" y="159.3789">1</text><text fill="#000000" font-family="sans-serif" font-size="20" lengthAdjust="spacing" textLength="275" x="83.5" y="159.3789">asks to view scheduled visits</text><polygon fill="#181818" points="874,199.1523,884,203.1523,874,207.1523,878,203.1523" style="stroke:#181818;stroke-width:1.0;"/><line style="stroke:#181818;stroke-width:1.0;" x1="545.5" x2="880" y1="203.1523" y2="203.1523"/><text fill="#000000" font-family="sans-serif" font-size="20" font-weight="bold" lengthAdjust="spacing" textLength="13" x="552.5" y="196.9336">2</text><text fill="#000000" font-family="sans-serif" font-size="20" lengthAdjust="spacing" textLength="140" x="569.5" y="196.9336">getUserEmail()</text><polygon fill="#181818" points="556.5,236.707,546.5,240.707,556.5,244.707,552.5,240.707" style="stroke:#181818;stroke-width:1.0;"/><line style="stroke:#181818;stroke-width:1.0;stroke-dasharray:2.0,2.0;" x1="550.5" x2="890" y1="240.707" y2="240.707"/><text fill="#000000" font-family="sans-serif" font-size="20" font-weight="bold" lengthAdjust="spacing" textLength="13" x="562.5" y="234.4883">3</text><text fill="#000000" font-family="sans-serif" font-size="20" lengthAdjust="spacing" textLength="94" x="579.5" y="234.4883">userEmail</text><polygon fill="#181818" points="1213.5,274.2617,1223.5,278.2617,1213.5,282.2617,1217.5,278.2617" style="stroke:#181818;stroke-width:1.0;"/><line style="stroke:#181818;stroke-width:1.0;" x1="545.5" x2="1219.5" y1="278.2617" y2="278.2617"/><text fill="#000000" font-family="sans-serif" font-size="20" font-weight="bold" lengthAdjust="spacing" textLength="13" x="552.5" y="272.043">4</text><text fill="#000000" font-family="sans-serif" font-size="20" lengthAdjust="spacing" textLength="398" x="569.5" y="272.043">getPendingVisitsByAgentEmail(userEmail)</text><polygon fill="#181818" points="1546.5,311.8164,1556.5,315.8164,1546.5,319.8164,1550.5,315.8164" style="stroke:#181818;stroke-width:1.0;"/><line style="stroke:#181818;stroke-width:1.0;" x1="1235.5" x2="1552.5" y1="315.8164" y2="315.8164"/><text fill="#000000" font-family="sans-serif" font-size="20" font-weight="bold" lengthAdjust="spacing" textLength="13" x="1242.5" y="309.5977">5</text><text fill="#000000" font-family="sans-serif" font-size="20" lengthAdjust="spacing" textLength="274" x="1259.5" y="309.5977">getVisitScheduleRepository()</text><polygon fill="#181818" points="1246.5,349.3711,1236.5,353.3711,1246.5,357.3711,1242.5,353.3711" style="stroke:#181818;stroke-width:1.0;"/><line style="stroke:#181818;stroke-width:1.0;stroke-dasharray:2.0,2.0;" x1="1240.5" x2="1562.5" y1="353.3711" y2="353.3711"/><text fill="#000000" font-family="sans-serif" font-size="20" font-weight="bold" lengthAdjust="spacing" textLength="13" x="1252.5" y="347.1523">6</text><text fill="#000000" font-family="sans-serif" font-size="20" lengthAdjust="spacing" textLength="227" x="1269.5" y="347.1523">visitScheduleRepository</text><polygon fill="#181818" points="1917.5,386.9258,1927.5,390.9258,1917.5,394.9258,1921.5,390.9258" style="stroke:#181818;stroke-width:1.0;"/><line style="stroke:#181818;stroke-width:1.0;" x1="1235.5" x2="1923.5" y1="390.9258" y2="390.9258"/><text fill="#000000" font-family="sans-serif" font-size="20" font-weight="bold" lengthAdjust="spacing" textLength="13" x="1242.5" y="384.707">7</text><text fill="#000000" font-family="sans-serif" font-size="20" lengthAdjust="spacing" textLength="645" x="1259.5" y="384.707">getVisitSchedulesByAgentAndPeriod(userEmail, startDate, endDate)</text><polygon fill="#181818" points="1246.5,424.4805,1236.5,428.4805,1246.5,432.4805,1242.5,428.4805" style="stroke:#181818;stroke-width:1.0;"/><line style="stroke:#181818;stroke-width:1.0;stroke-dasharray:2.0,2.0;" x1="1240.5" x2="1933.5" y1="428.4805" y2="428.4805"/><text fill="#000000" font-family="sans-serif" font-size="20" font-weight="bold" lengthAdjust="spacing" textLength="13" x="1252.5" y="422.2617">8</text><text fill="#000000" font-family="sans-serif" font-size="20" lengthAdjust="spacing" textLength="135" x="1269.5" y="422.2617">visitSchedules</text><polygon fill="#181818" points="556.5,462.0352,546.5,466.0352,556.5,470.0352,552.5,466.0352" style="stroke:#181818;stroke-width:1.0;"/><line style="stroke:#181818;stroke-width:1.0;stroke-dasharray:2.0,2.0;" x1="550.5" x2="1229.5" y1="466.0352" y2="466.0352"/><text fill="#000000" font-family="sans-serif" font-size="20" font-weight="bold" lengthAdjust="spacing" textLength="13" x="562.5" y="459.8164">9</text><text fill="#000000" font-family="sans-serif" font-size="20" lengthAdjust="spacing" textLength="199" x="579.5" y="459.8164">return visitSchedules</text><polygon fill="#181818" points="70.5,499.5898,60.5,503.5898,70.5,507.5898,66.5,503.5898" style="stroke:#181818;stroke-width:1.0;"/><line style="stroke:#181818;stroke-width:1.0;stroke-dasharray:2.0,2.0;" x1="64.5" x2="539.5" y1="503.5898" y2="503.5898"/><text fill="#000000" font-family="sans-serif" font-size="20" font-weight="bold" lengthAdjust="spacing" textLength="26" x="76.5" y="497.3711">10</text><text fill="#000000" font-family="sans-serif" font-size="20" lengthAdjust="spacing" textLength="238" x="106.5" y="497.3711">displays scheduled visits</text><polygon fill="#181818" points="523.5,537.1445,533.5,541.1445,523.5,545.1445,527.5,541.1445" style="stroke:#181818;stroke-width:1.0;"/><line style="stroke:#181818;stroke-width:1.0;" x1="59.5" x2="529.5" y1="541.1445" y2="541.1445"/><text fill="#000000" font-family="sans-serif" font-size="20" font-weight="bold" lengthAdjust="spacing" textLength="26" x="66.5" y="534.9258">11</text><text fill="#000000" font-family="sans-serif" font-size="20" lengthAdjust="spacing" textLength="363" x="96.5" y="534.9258">asks to filter and sort scheduled visits</text><polygon fill="#181818" points="1213.5,574.6992,1223.5,578.6992,1213.5,582.6992,1217.5,578.6992" style="stroke:#181818;stroke-width:1.0;"/><line style="stroke:#181818;stroke-width:1.0;" x1="545.5" x2="1219.5" y1="578.6992" y2="578.6992"/><text fill="#000000" font-family="sans-serif" font-size="20" font-weight="bold" lengthAdjust="spacing" textLength="26" x="552.5" y="572.4805">12</text><text fill="#000000" font-family="sans-serif" font-size="20" lengthAdjust="spacing" textLength="461" x="582.5" y="572.4805">getFilteredVisitsByAgentEmail(userEmail, filters)</text><polygon fill="#181818" points="1546.5,612.2539,1556.5,616.2539,1546.5,620.2539,1550.5,616.2539" style="stroke:#181818;stroke-width:1.0;"/><line style="stroke:#181818;stroke-width:1.0;" x1="1235.5" x2="1552.5" y1="616.2539" y2="616.2539"/><text fill="#000000" font-family="sans-serif" font-size="20" font-weight="bold" lengthAdjust="spacing" textLength="26" x="1242.5" y="610.0352">13</text><text fill="#000000" font-family="sans-serif" font-size="20" lengthAdjust="spacing" textLength="274" x="1272.5" y="610.0352">getVisitScheduleRepository()</text><polygon fill="#181818" points="1246.5,649.8086,1236.5,653.8086,1246.5,657.8086,1242.5,653.8086" style="stroke:#181818;stroke-width:1.0;"/><line style="stroke:#181818;stroke-width:1.0;stroke-dasharray:2.0,2.0;" x1="1240.5" x2="1562.5" y1="653.8086" y2="653.8086"/><text fill="#000000" font-family="sans-serif" font-size="20" font-weight="bold" lengthAdjust="spacing" textLength="26" x="1252.5" y="647.5898">14</text><text fill="#000000" font-family="sans-serif" font-size="20" lengthAdjust="spacing" textLength="227" x="1282.5" y="647.5898">visitScheduleRepository</text><polygon fill="#181818" points="1917.5,687.3633,1927.5,691.3633,1917.5,695.3633,1921.5,691.3633" style="stroke:#181818;stroke-width:1.0;"/><line style="stroke:#181818;stroke-width:1.0;" x1="1235.5" x2="1923.5" y1="691.3633" y2="691.3633"/><text fill="#000000" font-family="sans-serif" font-size="20" font-weight="bold" lengthAdjust="spacing" textLength="26" x="1242.5" y="685.1445">15</text><text fill="#000000" font-family="sans-serif" font-size="20" lengthAdjust="spacing" textLength="645" x="1272.5" y="685.1445">getVisitSchedulesByAgentAndPeriod(userEmail, startDate, endDate)</text><polygon fill="#181818" points="1246.5,724.918,1236.5,728.918,1246.5,732.918,1242.5,728.918" style="stroke:#181818;stroke-width:1.0;"/><line style="stroke:#181818;stroke-width:1.0;stroke-dasharray:2.0,2.0;" x1="1240.5" x2="1933.5" y1="728.918" y2="728.918"/><text fill="#000000" font-family="sans-serif" font-size="20" font-weight="bold" lengthAdjust="spacing" textLength="26" x="1252.5" y="722.6992">16</text><text fill="#000000" font-family="sans-serif" font-size="20" lengthAdjust="spacing" textLength="207" x="1282.5" y="722.6992">filteredVisitSchedules</text><polygon fill="#181818" points="556.5,762.4727,546.5,766.4727,556.5,770.4727,552.5,766.4727" style="stroke:#181818;stroke-width:1.0;"/><line style="stroke:#181818;stroke-width:1.0;stroke-dasharray:2.0,2.0;" x1="550.5" x2="1229.5" y1="766.4727" y2="766.4727"/><text fill="#000000" font-family="sans-serif" font-size="20" font-weight="bold" lengthAdjust="spacing" textLength="26" x="562.5" y="760.2539">17</text><text fill="#000000" font-family="sans-serif" font-size="20" lengthAdjust="spacing" textLength="271" x="592.5" y="760.2539">return filteredVisitSchedules</text><polygon fill="#181818" points="70.5,800.0273,60.5,804.0273,70.5,808.0273,66.5,804.0273" style="stroke:#181818;stroke-width:1.0;"/><line style="stroke:#181818;stroke-width:1.0;stroke-dasharray:2.0,2.0;" x1="64.5" x2="539.5" y1="804.0273" y2="804.0273"/><text fill="#000000" font-family="sans-serif" font-size="20" font-weight="bold" lengthAdjust="spacing" textLength="26" x="76.5" y="797.8086">18</text><text fill="#000000" font-family="sans-serif" font-size="20" lengthAdjust="spacing" textLength="422" x="106.5" y="797.8086">displays filtered and sorted scheduled visits</text><!--SRC=[vP91Rzim38Nl-XL4JXsG0Ek0NNmeaBKfK630WdZ9Bhke5kC8aILFebDultwq7TlAcgJ5hhj94Bz7ykc5lRQbzB8mBjkZ0eLRMHbwT9PI_HlXqqSH-X8ed7NPphi2WNo5qKifixtCCQNQ87ZCIDhSn0LX9vLxqJQ7hJG1XP0LELiLp-Y584sCfVYhGfiXF6YPDymCrkdjPy6r6JaFaqLH6bSZJa06w2-2zKbdkfIMOBBHGLEQxL1L1bUDOA3mGrlkdQoVMd3zT8hCAzgXvRiaxUmzB-wTCUYJvk7- - -fhI_MNA-qYT3DmczUGnz8nvhp6yDCcg-ZQ8gl5yjifaVorrX6ekmvf2pGcwOCa79qH_GbcTxms95o-3q0E3XfV81pr55zPBumAR97WUgRwjHF8aTO1_QAGsjny66i7OqH_WbdVhke1eV0CqBNO3FfBj8eJqYuRljJpdB-bwpS8HOqxPyMcQtdNsWQjpWMtugaxorfaDivmE0_6qtVWqBGp_qpRVlwvLKlqsgbnXoa4ujzzOBafyChD8Txh-9z7wKlZXNYgWJdrtoDLtbxZnezWPeXB0ag7qiWwl0v9H3SnkHYnhJQ47gHL49odTwLjZC9ZIwEwbeNfiKVuhqEnZPtwXt2yWtyp9Bt6yDjyV2CuVm00]--></g></svg>