<?xml version="1.0" encoding="UTF-8" standalone="no"?><svg xmlns="http://www.w3.org/2000/svg" xmlns:xlink="http://www.w3.org/1999/xlink" contentStyleType="text/css" height="692px" preserveAspectRatio="none" style="width:1086px;height:692px;background:#FFFFFF;" version="1.1" viewBox="0 0 1086 692" width="1086px" zoomAndPan="magnify"><defs/><g><text fill="#000000" font-family="sans-serif" font-size="14" font-weight="bold" lengthAdjust="spacing" textLength="231" x="428.75" y="28.5352">System Sequence Diagram (SSD)</text><rect fill="#FFFFFF" height="459.7656" style="stroke:#181818;stroke-width:1.0;" width="10" x="86.5" y="136.043"/><rect fill="#FFFFFF" height="37.5547" style="stroke:#181818;stroke-width:1.0;" width="10" x="1020.5" y="165.5977"/><rect fill="#FFFFFF" height="131.2188" style="stroke:#181818;stroke-width:1.0;" width="10" x="1020.5" y="281.8164"/><rect fill="#FFFFFF" height="61.1094" style="stroke:#181818;stroke-width:1.0;" width="10" x="1020.5" y="450.5898"/><rect fill="#FFFFFF" height="37.5547" style="stroke:#181818;stroke-width:1.0;" width="10" x="1020.5" y="549.2539"/><rect fill="none" height="134.7734" style="stroke:#000000;stroke-width:1.5;" width="1069.5" x="10" y="218.1523"/><line style="stroke:#181818;stroke-width:0.5;stroke-dasharray:5.0,5.0;" x1="91" x2="91" y1="126.043" y2="604.8086"/><line style="stroke:#181818;stroke-width:0.5;stroke-dasharray:5.0,5.0;" x1="1025.5" x2="1025.5" y1="126.043" y2="604.8086"/><text fill="#000000" font-family="sans-serif" font-size="20" lengthAdjust="spacing" textLength="137" x="20" y="121.8242">Store Manager</text><ellipse cx="91.5" cy="50.9883" fill="#E3E3E3" rx="8" ry="8" style="stroke:#181818;stroke-width:0.5;"/><path d="M91.5,58.9883 L91.5,85.9883 M78.5,66.9883 L104.5,66.9883 M91.5,85.9883 L78.5,100.9883 M91.5,85.9883 L104.5,100.9883 " fill="none" style="stroke:#181818;stroke-width:0.5;"/><text fill="#000000" font-family="sans-serif" font-size="20" lengthAdjust="spacing" textLength="137" x="20" y="623.1445">Store Manager</text><ellipse cx="91.5" cy="635.8633" fill="#E3E3E3" rx="8" ry="8" style="stroke:#181818;stroke-width:0.5;"/><path d="M91.5,643.8633 L91.5,670.8633 M78.5,651.8633 L104.5,651.8633 M91.5,670.8633 L78.5,685.8633 M91.5,670.8633 L104.5,685.8633 " fill="none" style="stroke:#181818;stroke-width:0.5;"/><rect fill="#E3E3E3" height="37.5547" rx="2.5" ry="2.5" style="stroke:#181818;stroke-width:0.5;" width="88" x="981.5" y="87.4883"/><text fill="#000000" font-family="sans-serif" font-size="20" lengthAdjust="spacing" textLength="74" x="988.5" y="113.8242">:System</text><rect fill="#E3E3E3" height="37.5547" rx="2.5" ry="2.5" style="stroke:#181818;stroke-width:0.5;" width="88" x="981.5" y="603.8086"/><text fill="#000000" font-family="sans-serif" font-size="20" lengthAdjust="spacing" textLength="74" x="988.5" y="630.1445">:System</text><rect fill="#FFFFFF" height="459.7656" style="stroke:#181818;stroke-width:1.0;" width="10" x="86.5" y="136.043"/><rect fill="#FFFFFF" height="37.5547" style="stroke:#181818;stroke-width:1.0;" width="10" x="1020.5" y="165.5977"/><rect fill="#FFFFFF" height="131.2188" style="stroke:#181818;stroke-width:1.0;" width="10" x="1020.5" y="281.8164"/><rect fill="#FFFFFF" height="61.1094" style="stroke:#181818;stroke-width:1.0;" width="10" x="1020.5" y="450.5898"/><rect fill="#FFFFFF" height="37.5547" style="stroke:#181818;stroke-width:1.0;" width="10" x="1020.5" y="549.2539"/><polygon fill="#181818" points="1008.5,161.5977,1018.5,165.5977,1008.5,169.5977,1012.5,165.5977" style="stroke:#181818;stroke-width:1.0;"/><line style="stroke:#181818;stroke-width:1.0;" x1="96.5" x2="1014.5" y1="165.5977" y2="165.5977"/><text fill="#000000" font-family="sans-serif" font-size="20" font-weight="bold" lengthAdjust="spacing" textLength="13" x="103.5" y="159.3789">1</text><text fill="#000000" font-family="sans-serif" font-size="20" lengthAdjust="spacing" textLength="246" x="120.5" y="159.3789">Requests to analyse deals</text><polygon fill="#181818" points="107.5,199.1523,97.5,203.1523,107.5,207.1523,103.5,203.1523" style="stroke:#181818;stroke-width:1.0;"/><line style="stroke:#181818;stroke-width:1.0;" x1="101.5" x2="1024.5" y1="203.1523" y2="203.1523"/><text fill="#000000" font-family="sans-serif" font-size="20" font-weight="bold" lengthAdjust="spacing" textLength="13" x="113.5" y="196.9336">2</text><text fill="#000000" font-family="sans-serif" font-size="20" lengthAdjust="spacing" textLength="563" x="130.5" y="196.9336">Shows option to either import file or analyse existing deals</text><path d="M10,218.1523 L82,218.1523 L82,233.707 L72,243.707 L10,243.707 L10,218.1523 " fill="#EEEEEE" style="stroke:#000000;stroke-width:1.5;"/><rect fill="none" height="134.7734" style="stroke:#000000;stroke-width:1.5;" width="1069.5" x="10" y="218.1523"/><text fill="#000000" font-family="sans-serif" font-size="20" font-weight="bold" lengthAdjust="spacing" textLength="27" x="25" y="238.4883">alt</text><text fill="#000000" font-family="sans-serif" font-size="20" font-weight="bold" lengthAdjust="spacing" textLength="356" x="97" y="239.4883">[Analyse deals from imported file]</text><polygon fill="#181818" points="1008.5,277.8164,1018.5,281.8164,1008.5,285.8164,1012.5,281.8164" style="stroke:#181818;stroke-width:1.0;"/><line style="stroke:#181818;stroke-width:1.0;" x1="96.5" x2="1014.5" y1="281.8164" y2="281.8164"/><text fill="#000000" font-family="sans-serif" font-size="20" font-weight="bold" lengthAdjust="spacing" textLength="13" x="103.5" y="275.5977">3</text><text fill="#000000" font-family="sans-serif" font-size="20" lengthAdjust="spacing" textLength="219" x="120.5" y="275.5977">Requests to import file</text><line style="stroke:#000000;stroke-width:1.0;stroke-dasharray:2.0,2.0;" x1="10" x2="1079.5" y1="290.8164" y2="290.8164"/><text fill="#000000" font-family="sans-serif" font-size="20" font-weight="bold" lengthAdjust="spacing" textLength="248" x="15" y="310.1523">[Analyse existing deals]</text><polygon fill="#181818" points="1008.5,340.9258,1018.5,344.9258,1008.5,348.9258,1012.5,344.9258" style="stroke:#181818;stroke-width:1.0;"/><line style="stroke:#181818;stroke-width:1.0;" x1="96.5" x2="1014.5" y1="344.9258" y2="344.9258"/><text fill="#000000" font-family="sans-serif" font-size="20" font-weight="bold" lengthAdjust="spacing" textLength="13" x="103.5" y="338.707">4</text><text fill="#000000" font-family="sans-serif" font-size="20" lengthAdjust="spacing" textLength="246" x="120.5" y="338.707">Requests to analyse deals</text><polygon fill="#181818" points="107.5,409.0352,97.5,413.0352,107.5,417.0352,103.5,413.0352" style="stroke:#181818;stroke-width:1.0;"/><line style="stroke:#181818;stroke-width:1.0;" x1="101.5" x2="1024.5" y1="413.0352" y2="413.0352"/><text fill="#000000" font-family="sans-serif" font-size="20" font-weight="bold" lengthAdjust="spacing" textLength="13" x="113.5" y="395.0391">5</text><text fill="#000000" font-family="sans-serif" font-size="20" lengthAdjust="spacing" textLength="883" x="130.5" y="383.2617">Shows option to choose simple regression model (area or distance from center or bedrooms</text><text fill="#000000" font-family="sans-serif" font-size="20" lengthAdjust="spacing" textLength="599" x="136.5" y="406.8164">or bathrooms or parking spaces) or multiple regression model</text><polygon fill="#181818" points="1008.5,446.5898,1018.5,450.5898,1008.5,454.5898,1012.5,450.5898" style="stroke:#181818;stroke-width:1.0;"/><line style="stroke:#181818;stroke-width:1.0;" x1="96.5" x2="1014.5" y1="450.5898" y2="450.5898"/><text fill="#000000" font-family="sans-serif" font-size="20" font-weight="bold" lengthAdjust="spacing" textLength="13" x="103.5" y="444.3711">6</text><text fill="#000000" font-family="sans-serif" font-size="20" lengthAdjust="spacing" textLength="239" x="120.5" y="444.3711">Selects regression model</text><polygon fill="#181818" points="107.5,507.6992,97.5,511.6992,107.5,515.6992,103.5,511.6992" style="stroke:#181818;stroke-width:1.0;"/><line style="stroke:#181818;stroke-width:1.0;" x1="101.5" x2="1024.5" y1="511.6992" y2="511.6992"/><text fill="#000000" font-family="sans-serif" font-size="20" font-weight="bold" lengthAdjust="spacing" textLength="13" x="113.5" y="493.7031">7</text><text fill="#000000" font-family="sans-serif" font-size="20" lengthAdjust="spacing" textLength="696" x="130.5" y="481.9258">Shows type of analysis options (calculate coefficients, hypothesis testing,</text><text fill="#000000" font-family="sans-serif" font-size="20" lengthAdjust="spacing" textLength="420" x="136.5" y="505.4805">confidence intervals, forecasted prices, etc.)</text><polygon fill="#181818" points="1008.5,545.2539,1018.5,549.2539,1008.5,553.2539,1012.5,549.2539" style="stroke:#181818;stroke-width:1.0;"/><line style="stroke:#181818;stroke-width:1.0;" x1="96.5" x2="1014.5" y1="549.2539" y2="549.2539"/><text fill="#000000" font-family="sans-serif" font-size="20" font-weight="bold" lengthAdjust="spacing" textLength="13" x="103.5" y="543.0352">8</text><text fill="#000000" font-family="sans-serif" font-size="20" lengthAdjust="spacing" textLength="220" x="120.5" y="543.0352">Selects type of analysis</text><polygon fill="#181818" points="107.5,582.8086,97.5,586.8086,107.5,590.8086,103.5,586.8086" style="stroke:#181818;stroke-width:1.0;"/><line style="stroke:#181818;stroke-width:1.0;" x1="101.5" x2="1024.5" y1="586.8086" y2="586.8086"/><text fill="#000000" font-family="sans-serif" font-size="20" font-weight="bold" lengthAdjust="spacing" textLength="13" x="113.5" y="580.5898">9</text><text fill="#000000" font-family="sans-serif" font-size="20" lengthAdjust="spacing" textLength="237" x="130.5" y="580.5898">Shows results of analysis</text><!--SRC=[dLEnZjim3Dtr5KIc14YBGySC1GeSkjrIhrruCcqBaKLNfE_E_VfIZbCukHJ8rODXITHxV8_FSWnfm8nzP7-a6cfgS8pwdPDMuJV1bmSdvnBeER7lClS4caTQdGpeZzXIfLCaoEGLKnlN1T9XpQyXjT1W579EWrffDObI3nNz6YbvWiU0RIdVLjNZpZaSbTFOFrEsRw-SOLFPc-09az7b3Q30lBDiE6FJuCE0IM5pEC6VgkRFWX9UKEdobbkluDFNfVe0FqfZeWBAOATn4ZABJC4Aw0Ji5YdbyWhi05N7hm8yQE1KO2XePoIX7pWhDC5SC5rdS7eBeiMc4ukzhtaSHeLlwrwWiP4iW3R20kd0ddj4hTgOxxod8nlNNxwhzkvbkRIEKds_NRvZjfjYZSxHQZE9bBEUQugmnKnO3AojCImHcitmbDJQiVrdgZDpBp_Jl4BjvcLPM5QEHOjOUabsPQktx8TRHBScyI_b5KNx0-GznWSpezDWsMWMzyBP5O6jn-Z7M90yKzDOu4slxA6R1hPqbLgbUL1xq-qvDQ6U_wzGR7cn8UoXCKAFKX8pv606x87KVzxzZzBhJZ-gr6mou-K2ubRq_m00]--></g></svg>