<?xml version="1.0" encoding="UTF-8" standalone="no"?><svg xmlns="http://www.w3.org/2000/svg" xmlns:xlink="http://www.w3.org/1999/xlink" contentStyleType="text/css" height="998px" preserveAspectRatio="none" style="width:1956px;height:998px;background:#FFFFFF;" version="1.1" viewBox="0 0 1956 998" width="1956px" zoomAndPan="magnify"><defs/><g><!--class UserSession--><g id="elem_UserSession"><rect codeLine="8" fill="#F1F1F1" height="73.5547" id="UserSession" rx="2.5" ry="2.5" style="stroke:#181818;stroke-width:0.5;" width="168" x="18.5" y="643"/><ellipse cx="43.05" cy="660" fill="#ADD1B2" rx="12" ry="12" style="stroke:#181818;stroke-width:1.0;"/><path d="M45.8566,667.0801 Q45.173,667.4316 44.4211,667.6074 Q43.6691,667.7832 42.8391,667.7832 Q39.8898,667.7832 38.3371,665.8398 Q36.7844,663.8965 36.7844,660.2246 Q36.7844,656.543 38.3371,654.5996 Q39.8898,652.6563 42.8391,652.6563 Q43.6691,652.6563 44.4309,652.832 Q45.1926,653.0078 45.8566,653.3594 L45.8566,656.5625 Q45.1145,655.8789 44.4162,655.5615 Q43.718,655.2441 42.9758,655.2441 Q41.3938,655.2441 40.5881,656.499 Q39.7824,657.7539 39.7824,660.2246 Q39.7824,662.6855 40.5881,663.9404 Q41.3938,665.1953 42.9758,665.1953 Q43.718,665.1953 44.4162,664.8779 Q45.1145,664.5605 45.8566,663.877 Z " fill="#000000"/><text fill="#000000" font-family="sans-serif" font-size="20" lengthAdjust="spacing" textLength="115" x="59.95" y="667.5586">UserSession</text><line style="stroke:#181818;stroke-width:0.5;" x1="19.5" x2="185.5" y1="677" y2="677"/><line style="stroke:#181818;stroke-width:0.5;" x1="19.5" x2="185.5" y1="685" y2="685"/><text fill="#000000" font-family="sans-serif" font-size="20" lengthAdjust="spacing" textLength="156" x="24.5" y="708.3359">+getUserEmail()</text></g><!--class Employee--><g id="elem_Employee"><rect codeLine="12" fill="#F1F1F1" height="97.1094" id="Employee" rx="2.5" ry="2.5" style="stroke:#181818;stroke-width:0.5;" width="127" x="1066" y="30.5"/><ellipse cx="1082" cy="47.5" fill="#ADD1B2" rx="12" ry="12" style="stroke:#181818;stroke-width:1.0;"/><path d="M1084.8066,54.5801 Q1084.123,54.9316 1083.3711,55.1074 Q1082.6191,55.2832 1081.7891,55.2832 Q1078.8398,55.2832 1077.2871,53.3398 Q1075.7344,51.3965 1075.7344,47.7246 Q1075.7344,44.043 1077.2871,42.0996 Q1078.8398,40.1563 1081.7891,40.1563 Q1082.6191,40.1563 1083.3809,40.332 Q1084.1426,40.5078 1084.8066,40.8594 L1084.8066,44.0625 Q1084.0645,43.3789 1083.3662,43.0615 Q1082.668,42.7441 1081.9258,42.7441 Q1080.3438,42.7441 1079.5381,43.999 Q1078.7324,45.2539 1078.7324,47.7246 Q1078.7324,50.1855 1079.5381,51.4404 Q1080.3438,52.6953 1081.9258,52.6953 Q1082.668,52.6953 1083.3662,52.3779 Q1084.0645,52.0605 1084.8066,51.377 Z " fill="#000000"/><text fill="#000000" font-family="sans-serif" font-size="20" lengthAdjust="spacing" textLength="93" x="1097" y="55.0586">Employee</text><line style="stroke:#181818;stroke-width:0.5;" x1="1067" x2="1192" y1="64.5" y2="64.5"/><text fill="#000000" font-family="sans-serif" font-size="20" lengthAdjust="spacing" textLength="65" x="1072" y="87.8359">-name</text><text fill="#000000" font-family="sans-serif" font-size="20" lengthAdjust="spacing" textLength="65" x="1072" y="111.3906">-email</text><line style="stroke:#181818;stroke-width:0.5;" x1="1067" x2="1192" y1="119.6094" y2="119.6094"/></g><!--class Client--><g id="elem_Client"><rect codeLine="17" fill="#F1F1F1" height="97.1094" id="Client" rx="2.5" ry="2.5" style="stroke:#181818;stroke-width:0.5;" width="90" x="722.5" y="30.5"/><ellipse cx="738.5" cy="47.5" fill="#ADD1B2" rx="12" ry="12" style="stroke:#181818;stroke-width:1.0;"/><path d="M741.3066,54.5801 Q740.623,54.9316 739.8711,55.1074 Q739.1191,55.2832 738.2891,55.2832 Q735.3398,55.2832 733.7871,53.3398 Q732.2344,51.3965 732.2344,47.7246 Q732.2344,44.043 733.7871,42.0996 Q735.3398,40.1563 738.2891,40.1563 Q739.1191,40.1563 739.8809,40.332 Q740.6426,40.5078 741.3066,40.8594 L741.3066,44.0625 Q740.5645,43.3789 739.8662,43.0615 Q739.168,42.7441 738.4258,42.7441 Q736.8438,42.7441 736.0381,43.999 Q735.2324,45.2539 735.2324,47.7246 Q735.2324,50.1855 736.0381,51.4404 Q736.8438,52.6953 738.4258,52.6953 Q739.168,52.6953 739.8662,52.3779 Q740.5645,52.0605 741.3066,51.377 Z " fill="#000000"/><text fill="#000000" font-family="sans-serif" font-size="20" lengthAdjust="spacing" textLength="56" x="753.5" y="55.0586">Client</text><line style="stroke:#181818;stroke-width:0.5;" x1="723.5" x2="811.5" y1="64.5" y2="64.5"/><text fill="#000000" font-family="sans-serif" font-size="20" lengthAdjust="spacing" textLength="65" x="728.5" y="87.8359">-name</text><text fill="#000000" font-family="sans-serif" font-size="20" lengthAdjust="spacing" textLength="65" x="728.5" y="111.3906">-email</text><line style="stroke:#181818;stroke-width:0.5;" x1="723.5" x2="811.5" y1="119.6094" y2="119.6094"/></g><!--class Announcement--><g id="elem_Announcement"><rect codeLine="22" fill="#F1F1F1" height="97.1094" id="Announcement" rx="2.5" ry="2.5" style="stroke:#181818;stroke-width:0.5;" width="186" x="227.5" y="30.5"/><ellipse cx="247.1" cy="47.5" fill="#ADD1B2" rx="12" ry="12" style="stroke:#181818;stroke-width:1.0;"/><path d="M249.9066,54.5801 Q249.223,54.9316 248.4711,55.1074 Q247.7191,55.2832 246.8891,55.2832 Q243.9398,55.2832 242.3871,53.3398 Q240.8344,51.3965 240.8344,47.7246 Q240.8344,44.043 242.3871,42.0996 Q243.9398,40.1563 246.8891,40.1563 Q247.7191,40.1563 248.4809,40.332 Q249.2426,40.5078 249.9066,40.8594 L249.9066,44.0625 Q249.1645,43.3789 248.4662,43.0615 Q247.768,42.7441 247.0258,42.7441 Q245.4438,42.7441 244.6381,43.999 Q243.8324,45.2539 243.8324,47.7246 Q243.8324,50.1855 244.6381,51.4404 Q245.4438,52.6953 247.0258,52.6953 Q247.768,52.6953 248.4662,52.3779 Q249.1645,52.0605 249.9066,51.377 Z " fill="#000000"/><text fill="#000000" font-family="sans-serif" font-size="20" lengthAdjust="spacing" textLength="144" x="262.9" y="55.0586">Announcement</text><line style="stroke:#181818;stroke-width:0.5;" x1="228.5" x2="412.5" y1="64.5" y2="64.5"/><text fill="#000000" font-family="sans-serif" font-size="20" lengthAdjust="spacing" textLength="174" x="233.5" y="87.8359">-announcementID</text><text fill="#000000" font-family="sans-serif" font-size="20" lengthAdjust="spacing" textLength="118" x="233.5" y="111.3906">-agentEmail</text><line style="stroke:#181818;stroke-width:0.5;" x1="228.5" x2="412.5" y1="119.6094" y2="119.6094"/></g><!--class VisitSchedule--><g id="elem_VisitSchedule"><rect codeLine="27" fill="#F1F1F1" height="144.2188" id="VisitSchedule" rx="2.5" ry="2.5" style="stroke:#181818;stroke-width:0.5;" width="365" x="1461" y="7"/><ellipse cx="1575" cy="24" fill="#ADD1B2" rx="12" ry="12" style="stroke:#181818;stroke-width:1.0;"/><path d="M1577.8066,31.0801 Q1577.123,31.4316 1576.3711,31.6074 Q1575.6191,31.7832 1574.7891,31.7832 Q1571.8398,31.7832 1570.2871,29.8398 Q1568.7344,27.8965 1568.7344,24.2246 Q1568.7344,20.543 1570.2871,18.5996 Q1571.8398,16.6563 1574.7891,16.6563 Q1575.6191,16.6563 1576.3809,16.832 Q1577.1426,17.0078 1577.8066,17.3594 L1577.8066,20.5625 Q1577.0645,19.8789 1576.3662,19.5615 Q1575.668,19.2441 1574.9258,19.2441 Q1573.3438,19.2441 1572.5381,20.499 Q1571.7324,21.7539 1571.7324,24.2246 Q1571.7324,26.6855 1572.5381,27.9404 Q1573.3438,29.1953 1574.9258,29.1953 Q1575.668,29.1953 1576.3662,28.8779 Q1577.0645,28.5605 1577.8066,27.877 Z " fill="#000000"/><text fill="#000000" font-family="sans-serif" font-size="20" lengthAdjust="spacing" textLength="128" x="1597" y="31.5586">VisitSchedule</text><line style="stroke:#181818;stroke-width:0.5;" x1="1462" x2="1825" y1="41" y2="41"/><text fill="#000000" font-family="sans-serif" font-size="20" lengthAdjust="spacing" textLength="95" x="1467" y="64.3359">-visitDate</text><text fill="#000000" font-family="sans-serif" font-size="20" lengthAdjust="spacing" textLength="104" x="1467" y="87.8906">-startTime</text><text fill="#000000" font-family="sans-serif" font-size="20" lengthAdjust="spacing" textLength="97" x="1467" y="111.4453">-endTime</text><line style="stroke:#181818;stroke-width:0.5;" x1="1462" x2="1825" y1="119.6641" y2="119.6641"/><text fill="#000000" font-family="sans-serif" font-size="20" lengthAdjust="spacing" textLength="353" x="1467" y="143">+isOverlapping(startTime, endTime)</text></g><!--class AuthenticationRepository--><g id="elem_AuthenticationRepository"><rect codeLine="34" fill="#F1F1F1" height="167.7734" id="AuthenticationRepository" rx="2.5" ry="2.5" style="stroke:#181818;stroke-width:0.5;" width="445" x="7" y="824"/><ellipse cx="104.5" cy="841" fill="#ADD1B2" rx="12" ry="12" style="stroke:#181818;stroke-width:1.0;"/><path d="M107.3066,848.0801 Q106.623,848.4316 105.8711,848.6074 Q105.1191,848.7832 104.2891,848.7832 Q101.3398,848.7832 99.7871,846.8398 Q98.2344,844.8965 98.2344,841.2246 Q98.2344,837.543 99.7871,835.5996 Q101.3398,833.6563 104.2891,833.6563 Q105.1191,833.6563 105.8809,833.832 Q106.6426,834.0078 107.3066,834.3594 L107.3066,837.5625 Q106.5645,836.8789 105.8662,836.5615 Q105.168,836.2441 104.4258,836.2441 Q102.8438,836.2441 102.0381,837.499 Q101.2324,838.7539 101.2324,841.2246 Q101.2324,843.6855 102.0381,844.9404 Q102.8438,846.1953 104.4258,846.1953 Q105.168,846.1953 105.8662,845.8779 Q106.5645,845.5605 107.3066,844.877 Z " fill="#000000"/><text fill="#000000" font-family="sans-serif" font-size="20" lengthAdjust="spacing" textLength="241" x="126.5" y="848.5586">AuthenticationRepository</text><line style="stroke:#181818;stroke-width:0.5;" x1="8" x2="451" y1="858" y2="858"/><line style="stroke:#181818;stroke-width:0.5;" x1="8" x2="451" y1="866" y2="866"/><text fill="#000000" font-family="sans-serif" font-size="20" lengthAdjust="spacing" textLength="214" x="13" y="889.3359">+doLogin(email, pwd)</text><text fill="#000000" font-family="sans-serif" font-size="20" lengthAdjust="spacing" textLength="121" x="13" y="912.8906">+doLogout()</text><text fill="#000000" font-family="sans-serif" font-size="20" lengthAdjust="spacing" textLength="247" x="13" y="936.4453">+getCurrentUserSession()</text><text fill="#000000" font-family="sans-serif" font-size="20" lengthAdjust="spacing" textLength="291" x="13" y="960">+addUserRole(id, description)</text><text fill="#000000" font-family="sans-serif" font-size="20" lengthAdjust="spacing" textLength="433" x="13" y="983.5547">+addUserWithRole(name, email, pwd, roleId)</text></g><!--class AuthenticationController--><g id="elem_AuthenticationController"><rect codeLine="42" fill="#F1F1F1" height="73.5547" id="AuthenticationController" rx="2.5" ry="2.5" style="stroke:#181818;stroke-width:0.5;" width="269" x="222" y="643"/><ellipse cx="238" cy="660" fill="#ADD1B2" rx="12" ry="12" style="stroke:#181818;stroke-width:1.0;"/><path d="M240.8066,667.0801 Q240.123,667.4316 239.3711,667.6074 Q238.6191,667.7832 237.7891,667.7832 Q234.8398,667.7832 233.2871,665.8398 Q231.7344,663.8965 231.7344,660.2246 Q231.7344,656.543 233.2871,654.5996 Q234.8398,652.6563 237.7891,652.6563 Q238.6191,652.6563 239.3809,652.832 Q240.1426,653.0078 240.8066,653.3594 L240.8066,656.5625 Q240.0645,655.8789 239.3662,655.5615 Q238.668,655.2441 237.9258,655.2441 Q236.3438,655.2441 235.5381,656.499 Q234.7324,657.7539 234.7324,660.2246 Q234.7324,662.6855 235.5381,663.9404 Q236.3438,665.1953 237.9258,665.1953 Q238.668,665.1953 239.3662,664.8779 Q240.0645,664.5605 240.8066,663.877 Z " fill="#000000"/><text fill="#000000" font-family="sans-serif" font-size="20" lengthAdjust="spacing" textLength="235" x="253" y="667.5586">AuthenticationController</text><line style="stroke:#181818;stroke-width:0.5;" x1="223" x2="490" y1="677" y2="677"/><line style="stroke:#181818;stroke-width:0.5;" x1="223" x2="490" y1="685" y2="685"/><text fill="#000000" font-family="sans-serif" font-size="20" lengthAdjust="spacing" textLength="156" x="228" y="708.3359">+getUserEmail()</text></g><!--class VisitScheduleUI--><g id="elem_VisitScheduleUI"><rect codeLine="46" fill="#F1F1F1" height="120.6641" id="VisitScheduleUI" rx="2.5" ry="2.5" style="stroke:#181818;stroke-width:0.5;" width="442" x="224.5" y="403.5"/><ellipse cx="367" cy="420.5" fill="#ADD1B2" rx="12" ry="12" style="stroke:#181818;stroke-width:1.0;"/><path d="M369.8066,427.5801 Q369.123,427.9316 368.3711,428.1074 Q367.6191,428.2832 366.7891,428.2832 Q363.8398,428.2832 362.2871,426.3398 Q360.7344,424.3965 360.7344,420.7246 Q360.7344,417.043 362.2871,415.0996 Q363.8398,413.1563 366.7891,413.1563 Q367.6191,413.1563 368.3809,413.332 Q369.1426,413.5078 369.8066,413.8594 L369.8066,417.0625 Q369.0645,416.3789 368.3662,416.0615 Q367.668,415.7441 366.9258,415.7441 Q365.3438,415.7441 364.5381,416.999 Q363.7324,418.2539 363.7324,420.7246 Q363.7324,423.1855 364.5381,424.4404 Q365.3438,425.6953 366.9258,425.6953 Q367.668,425.6953 368.3662,425.3779 Q369.0645,425.0605 369.8066,424.377 Z " fill="#000000"/><text fill="#000000" font-family="sans-serif" font-size="20" lengthAdjust="spacing" textLength="148" x="389" y="428.0586">VisitScheduleUI</text><line style="stroke:#181818;stroke-width:0.5;" x1="225.5" x2="665.5" y1="437.5" y2="437.5"/><line style="stroke:#181818;stroke-width:0.5;" x1="225.5" x2="665.5" y1="445.5" y2="445.5"/><text fill="#000000" font-family="sans-serif" font-size="20" lengthAdjust="spacing" textLength="216" x="230.5" y="468.8359">+askToScheduleVisit()</text><text fill="#000000" font-family="sans-serif" font-size="20" lengthAdjust="spacing" textLength="430" x="230.5" y="492.3906">+requestData(visitDate, startTime, endTime)</text><text fill="#000000" font-family="sans-serif" font-size="20" lengthAdjust="spacing" textLength="287" x="230.5" y="515.9453">+showConfirmationMessage()</text></g><!--class VisitScheduleController--><g id="elem_VisitScheduleController"><rect codeLine="52" fill="#F1F1F1" height="167.7734" id="VisitScheduleController" rx="2.5" ry="2.5" style="stroke:#181818;stroke-width:0.5;" width="844" x="526.5" y="596"/><ellipse cx="832" cy="613" fill="#ADD1B2" rx="12" ry="12" style="stroke:#181818;stroke-width:1.0;"/><path d="M834.8066,620.0801 Q834.123,620.4316 833.3711,620.6074 Q832.6191,620.7832 831.7891,620.7832 Q828.8398,620.7832 827.2871,618.8398 Q825.7344,616.8965 825.7344,613.2246 Q825.7344,609.543 827.2871,607.5996 Q828.8398,605.6563 831.7891,605.6563 Q832.6191,605.6563 833.3809,605.832 Q834.1426,606.0078 834.8066,606.3594 L834.8066,609.5625 Q834.0645,608.8789 833.3662,608.5615 Q832.668,608.2441 831.9258,608.2441 Q830.3438,608.2441 829.5381,609.499 Q828.7324,610.7539 828.7324,613.2246 Q828.7324,615.6855 829.5381,616.9404 Q830.3438,618.1953 831.9258,618.1953 Q832.668,618.1953 833.3662,617.8779 Q834.0645,617.5605 834.8066,616.877 Z " fill="#000000"/><text fill="#000000" font-family="sans-serif" font-size="20" lengthAdjust="spacing" textLength="224" x="854" y="620.5586">VisitScheduleController</text><line style="stroke:#181818;stroke-width:0.5;" x1="527.5" x2="1369.5" y1="630" y2="630"/><line style="stroke:#181818;stroke-width:0.5;" x1="527.5" x2="1369.5" y1="638" y2="638"/><text fill="#000000" font-family="sans-serif" font-size="20" lengthAdjust="spacing" textLength="231" x="532.5" y="661.3359">+getCurrentUserName()</text><text fill="#000000" font-family="sans-serif" font-size="20" lengthAdjust="spacing" textLength="391" x="532.5" y="684.8906">+selectAnnouncement(announcementID)</text><text fill="#000000" font-family="sans-serif" font-size="20" lengthAdjust="spacing" textLength="779" x="532.5" y="708.4453">+isOverlappingWithExistingSchedules(clientEmail, visitDate, startTime, endTime)</text><text fill="#000000" font-family="sans-serif" font-size="20" lengthAdjust="spacing" textLength="832" x="532.5" y="732">+saveVisitSchedule(announcementID, clientEmail, visitDate, startTime, endTime, false)</text><text fill="#000000" font-family="sans-serif" font-size="20" lengthAdjust="spacing" textLength="464" x="532.5" y="755.5547">+getAllAnnouncementsSortedByDefaultCriteria()</text></g><!--class Repositories--><g id="elem_Repositories"><rect codeLine="60" fill="#F1F1F1" height="144.2188" id="Repositories" rx="2.5" ry="2.5" style="stroke:#181818;stroke-width:0.5;" width="318" x="789.5" y="392"/><ellipse cx="884.5" cy="409" fill="#ADD1B2" rx="12" ry="12" style="stroke:#181818;stroke-width:1.0;"/><path d="M887.3066,416.0801 Q886.623,416.4316 885.8711,416.6074 Q885.1191,416.7832 884.2891,416.7832 Q881.3398,416.7832 879.7871,414.8398 Q878.2344,412.8965 878.2344,409.2246 Q878.2344,405.543 879.7871,403.5996 Q881.3398,401.6563 884.2891,401.6563 Q885.1191,401.6563 885.8809,401.832 Q886.6426,402.0078 887.3066,402.3594 L887.3066,405.5625 Q886.5645,404.8789 885.8662,404.5615 Q885.168,404.2441 884.4258,404.2441 Q882.8438,404.2441 882.0381,405.499 Q881.2324,406.7539 881.2324,409.2246 Q881.2324,411.6855 882.0381,412.9404 Q882.8438,414.1953 884.4258,414.1953 Q885.168,414.1953 885.8662,413.8779 Q886.5645,413.5605 887.3066,412.877 Z " fill="#000000"/><text fill="#000000" font-family="sans-serif" font-size="20" lengthAdjust="spacing" textLength="119" x="906.5" y="416.5586">Repositories</text><line style="stroke:#181818;stroke-width:0.5;" x1="790.5" x2="1106.5" y1="426" y2="426"/><line style="stroke:#181818;stroke-width:0.5;" x1="790.5" x2="1106.5" y1="434" y2="434"/><text fill="#000000" font-family="sans-serif" font-size="20" lengthAdjust="spacing" textLength="218" x="795.5" y="457.3359">+getClientRepository()</text><text fill="#000000" font-family="sans-serif" font-size="20" lengthAdjust="spacing" textLength="306" x="795.5" y="480.8906">+getAnnouncementRepository()</text><text fill="#000000" font-family="sans-serif" font-size="20" lengthAdjust="spacing" textLength="255" x="795.5" y="504.4453">+getEmployeeRepository()</text><text fill="#000000" font-family="sans-serif" font-size="20" lengthAdjust="spacing" textLength="290" x="795.5" y="528">+getVisitScheduleRepository()</text></g><!--class AnnouncementRepository--><g id="elem_AnnouncementRepository"><rect codeLine="67" fill="#F1F1F1" height="120.6641" id="AnnouncementRepository" rx="2.5" ry="2.5" style="stroke:#181818;stroke-width:0.5;" width="516" x="62.5" y="211"/><ellipse cx="193" cy="228" fill="#ADD1B2" rx="12" ry="12" style="stroke:#181818;stroke-width:1.0;"/><path d="M195.8066,235.0801 Q195.123,235.4316 194.3711,235.6074 Q193.6191,235.7832 192.7891,235.7832 Q189.8398,235.7832 188.2871,233.8398 Q186.7344,231.8965 186.7344,228.2246 Q186.7344,224.543 188.2871,222.5996 Q189.8398,220.6563 192.7891,220.6563 Q193.6191,220.6563 194.3809,220.832 Q195.1426,221.0078 195.8066,221.3594 L195.8066,224.5625 Q195.0645,223.8789 194.3662,223.5615 Q193.668,223.2441 192.9258,223.2441 Q191.3438,223.2441 190.5381,224.499 Q189.7324,225.7539 189.7324,228.2246 Q189.7324,230.6855 190.5381,231.9404 Q191.3438,233.1953 192.9258,233.1953 Q193.668,233.1953 194.3662,232.8779 Q195.0645,232.5605 195.8066,231.877 Z " fill="#000000"/><text fill="#000000" font-family="sans-serif" font-size="20" lengthAdjust="spacing" textLength="246" x="215" y="235.5586">AnnouncementRepository</text><line style="stroke:#181818;stroke-width:0.5;" x1="63.5" x2="577.5" y1="245" y2="245"/><line style="stroke:#181818;stroke-width:0.5;" x1="63.5" x2="577.5" y1="253" y2="253"/><text fill="#000000" font-family="sans-serif" font-size="20" lengthAdjust="spacing" textLength="366" x="68.5" y="276.3359">+getAnnouncement(announcementID)</text><text fill="#000000" font-family="sans-serif" font-size="20" lengthAdjust="spacing" textLength="504" x="68.5" y="299.8906">+getAgentEmailFromAnnouncement(announcement)</text><text fill="#000000" font-family="sans-serif" font-size="20" lengthAdjust="spacing" textLength="464" x="68.5" y="323.4453">+getAllAnnouncementsSortedByDefaultCriteria()</text></g><!--class ClientRepository--><g id="elem_ClientRepository"><rect codeLine="73" fill="#F1F1F1" height="73.5547" id="ClientRepository" rx="2.5" ry="2.5" style="stroke:#181818;stroke-width:0.5;" width="308" x="613.5" y="234.5"/><ellipse cx="684" cy="251.5" fill="#ADD1B2" rx="12" ry="12" style="stroke:#181818;stroke-width:1.0;"/><path d="M686.8066,258.5801 Q686.123,258.9316 685.3711,259.1074 Q684.6191,259.2832 683.7891,259.2832 Q680.8398,259.2832 679.2871,257.3398 Q677.7344,255.3965 677.7344,251.7246 Q677.7344,248.043 679.2871,246.0996 Q680.8398,244.1563 683.7891,244.1563 Q684.6191,244.1563 685.3809,244.332 Q686.1426,244.5078 686.8066,244.8594 L686.8066,248.0625 Q686.0645,247.3789 685.3662,247.0615 Q684.668,246.7441 683.9258,246.7441 Q682.3438,246.7441 681.5381,247.999 Q680.7324,249.2539 680.7324,251.7246 Q680.7324,254.1855 681.5381,255.4404 Q682.3438,256.6953 683.9258,256.6953 Q684.668,256.6953 685.3662,256.3779 Q686.0645,256.0605 686.8066,255.377 Z " fill="#000000"/><text fill="#000000" font-family="sans-serif" font-size="20" lengthAdjust="spacing" textLength="158" x="706" y="259.0586">ClientRepository</text><line style="stroke:#181818;stroke-width:0.5;" x1="614.5" x2="920.5" y1="268.5" y2="268.5"/><line style="stroke:#181818;stroke-width:0.5;" x1="614.5" x2="920.5" y1="276.5" y2="276.5"/><text fill="#000000" font-family="sans-serif" font-size="20" lengthAdjust="spacing" textLength="296" x="619.5" y="299.8359">+getClientByEmail(clientEmail)</text></g><!--class EmployeeRepository--><g id="elem_EmployeeRepository"><rect codeLine="77" fill="#F1F1F1" height="73.5547" id="EmployeeRepository" rx="2.5" ry="2.5" style="stroke:#181818;stroke-width:0.5;" width="346" x="956.5" y="234.5"/><ellipse cx="1027.5" cy="251.5" fill="#ADD1B2" rx="12" ry="12" style="stroke:#181818;stroke-width:1.0;"/><path d="M1030.3066,258.5801 Q1029.623,258.9316 1028.8711,259.1074 Q1028.1191,259.2832 1027.2891,259.2832 Q1024.3398,259.2832 1022.7871,257.3398 Q1021.2344,255.3965 1021.2344,251.7246 Q1021.2344,248.043 1022.7871,246.0996 Q1024.3398,244.1563 1027.2891,244.1563 Q1028.1191,244.1563 1028.8809,244.332 Q1029.6426,244.5078 1030.3066,244.8594 L1030.3066,248.0625 Q1029.5645,247.3789 1028.8662,247.0615 Q1028.168,246.7441 1027.4258,246.7441 Q1025.8438,246.7441 1025.0381,247.999 Q1024.2324,249.2539 1024.2324,251.7246 Q1024.2324,254.1855 1025.0381,255.4404 Q1025.8438,256.6953 1027.4258,256.6953 Q1028.168,256.6953 1028.8662,256.3779 Q1029.5645,256.0605 1030.3066,255.377 Z " fill="#000000"/><text fill="#000000" font-family="sans-serif" font-size="20" lengthAdjust="spacing" textLength="195" x="1049.5" y="259.0586">EmployeeRepository</text><line style="stroke:#181818;stroke-width:0.5;" x1="957.5" x2="1301.5" y1="268.5" y2="268.5"/><line style="stroke:#181818;stroke-width:0.5;" x1="957.5" x2="1301.5" y1="276.5" y2="276.5"/><text fill="#000000" font-family="sans-serif" font-size="20" lengthAdjust="spacing" textLength="334" x="962.5" y="299.8359">+getEmployeeByEmail(agentEmail)</text></g><!--class VisitScheduleRepository--><g id="elem_VisitScheduleRepository"><rect codeLine="81" fill="#F1F1F1" height="97.1094" id="VisitScheduleRepository" rx="2.5" ry="2.5" style="stroke:#181818;stroke-width:0.5;" width="611" x="1338" y="223"/><ellipse cx="1524" cy="240" fill="#ADD1B2" rx="12" ry="12" style="stroke:#181818;stroke-width:1.0;"/><path d="M1526.8066,247.0801 Q1526.123,247.4316 1525.3711,247.6074 Q1524.6191,247.7832 1523.7891,247.7832 Q1520.8398,247.7832 1519.2871,245.8398 Q1517.7344,243.8965 1517.7344,240.2246 Q1517.7344,236.543 1519.2871,234.5996 Q1520.8398,232.6563 1523.7891,232.6563 Q1524.6191,232.6563 1525.3809,232.832 Q1526.1426,233.0078 1526.8066,233.3594 L1526.8066,236.5625 Q1526.0645,235.8789 1525.3662,235.5615 Q1524.668,235.2441 1523.9258,235.2441 Q1522.3438,235.2441 1521.5381,236.499 Q1520.7324,237.7539 1520.7324,240.2246 Q1520.7324,242.6855 1521.5381,243.9404 Q1522.3438,245.1953 1523.9258,245.1953 Q1524.668,245.1953 1525.3662,244.8779 Q1526.0645,244.5605 1526.8066,243.877 Z " fill="#000000"/><text fill="#000000" font-family="sans-serif" font-size="20" lengthAdjust="spacing" textLength="230" x="1546" y="247.5586">VisitScheduleRepository</text><line style="stroke:#181818;stroke-width:0.5;" x1="1339" x2="1948" y1="257" y2="257"/><line style="stroke:#181818;stroke-width:0.5;" x1="1339" x2="1948" y1="265" y2="265"/><text fill="#000000" font-family="sans-serif" font-size="20" lengthAdjust="spacing" textLength="599" x="1344" y="288.3359">+getVisitSchedulesByUserEmailAndDate(clientEmail, visitDate)</text><text fill="#000000" font-family="sans-serif" font-size="20" lengthAdjust="spacing" textLength="320" x="1344" y="311.8906">+addVisitSchedule(visitSchedule)</text></g><!--reverse link UserSession to AuthenticationRepository--><g id="link_UserSession_AuthenticationRepository"><path codeLine="86" d="M126.01,722.83 C141.92,751.14 163.47,789.49 182.79,823.87 " fill="none" id="UserSession-backto-AuthenticationRepository" style="stroke:#181818;stroke-width:1.0;"/><polygon fill="#181818" points="123.65,718.63,124.5867,728.4342,126.1061,722.9852,131.5551,724.5045,123.65,718.63" style="stroke:#181818;stroke-width:1.0;"/></g><!--link AuthenticationController to AuthenticationRepository--><g id="link_AuthenticationController_AuthenticationRepository"><path codeLine="87" d="M336.1,717.31 C320.79,744.55 299.15,783.05 279.37,818.25 " fill="none" id="AuthenticationController-to-AuthenticationRepository" style="stroke:#181818;stroke-width:1.0;stroke-dasharray:7.0,7.0;"/><polygon fill="#181818" points="276.95,822.55,284.8404,816.6558,279.3952,818.1887,277.8623,812.7435,276.95,822.55" style="stroke:#181818;stroke-width:1.0;"/></g><!--link VisitScheduleUI to AuthenticationController--><g id="link_VisitScheduleUI_AuthenticationController"><path codeLine="88" d="M420.59,524.9 C405.78,560.52 387.34,604.84 374.05,636.79 " fill="none" id="VisitScheduleUI-to-AuthenticationController" style="stroke:#181818;stroke-width:1.0;stroke-dasharray:7.0,7.0;"/><polygon fill="#181818" points="372.22,641.21,379.3813,634.4486,374.1481,636.5967,372,631.3636,372.22,641.21" style="stroke:#181818;stroke-width:1.0;"/></g><!--link VisitScheduleUI to VisitScheduleController--><g id="link_VisitScheduleUI_VisitScheduleController"><path codeLine="89" d="M586.28,524.9 C635.92,546.01 692.74,570.19 746.43,593.03 " fill="none" id="VisitScheduleUI-to-VisitScheduleController" style="stroke:#181818;stroke-width:1.0;stroke-dasharray:7.0,7.0;"/><polygon fill="#181818" points="750.89,594.93,744.1744,587.7258,746.2891,592.9725,741.0424,595.0872,750.89,594.93" style="stroke:#181818;stroke-width:1.0;"/></g><!--reverse link Repositories to VisitScheduleController--><g id="link_Repositories_VisitScheduleController"><path codeLine="90" d="M948.5,542.58 C948.5,559.89 948.5,578.3 948.5,595.82 " fill="none" id="Repositories-backto-VisitScheduleController" style="stroke:#181818;stroke-width:1.0;"/><polygon fill="#181818" points="948.5,537.77,944.5,546.77,948.5,542.77,952.5,546.77,948.5,537.77" style="stroke:#181818;stroke-width:1.0;"/></g><!--reverse link ClientRepository to Repositories--><g id="link_ClientRepository_Repositories"><path codeLine="91" d="M806.23,313.26 C827.93,336.1 855.62,365.24 880.79,391.74 " fill="none" id="ClientRepository-backto-Repositories" style="stroke:#181818;stroke-width:1.0;"/><polygon fill="#181818" points="803.01,309.88,806.303,319.162,806.4515,313.5071,812.1064,313.6556,803.01,309.88" style="stroke:#181818;stroke-width:1.0;"/></g><!--reverse link AnnouncementRepository to Repositories--><g id="link_AnnouncementRepository_Repositories"><path codeLine="92" d="M524.08,334.25 C610.04,360.33 708.66,390.25 789.19,414.67 " fill="none" id="AnnouncementRepository-backto-Repositories" style="stroke:#181818;stroke-width:1.0;"/><polygon fill="#181818" points="519.36,332.82,526.8223,339.2477,524.1472,334.2633,529.1315,331.5882,519.36,332.82" style="stroke:#181818;stroke-width:1.0;"/></g><!--reverse link EmployeeRepository to Repositories--><g id="link_EmployeeRepository_Repositories"><path codeLine="93" d="M1090.77,313.26 C1069.07,336.1 1041.38,365.24 1016.21,391.74 " fill="none" id="EmployeeRepository-backto-Repositories" style="stroke:#181818;stroke-width:1.0;"/><polygon fill="#181818" points="1093.99,309.88,1084.8936,313.6556,1090.5485,313.5071,1090.697,319.162,1093.99,309.88" style="stroke:#181818;stroke-width:1.0;"/></g><!--reverse link VisitScheduleRepository to Repositories--><g id="link_VisitScheduleRepository_Repositories"><path codeLine="94" d="M1462.37,322.15 C1352.53,352.26 1213.65,390.32 1107.97,419.29 " fill="none" id="VisitScheduleRepository-backto-Repositories" style="stroke:#181818;stroke-width:1.0;"/><polygon fill="#181818" points="1467.11,320.85,1457.3754,319.3541,1462.2855,322.1632,1459.4765,327.0733,1467.11,320.85" style="stroke:#181818;stroke-width:1.0;"/></g><!--reverse link Client to ClientRepository--><g id="link_Client_ClientRepository"><path codeLine="95" d="M767.5,133.89 C767.5,166.01 767.5,205.92 767.5,234.29 " fill="none" id="Client-backto-ClientRepository" style="stroke:#181818;stroke-width:1.0;"/><polygon fill="#181818" points="767.5,129.09,763.5,138.09,767.5,134.09,771.5,138.09,767.5,129.09" style="stroke:#181818;stroke-width:1.0;"/></g><!--reverse link Announcement to AnnouncementRepository--><g id="link_Announcement_AnnouncementRepository"><path codeLine="96" d="M320.5,133.88 C320.5,157.78 320.5,185.99 320.5,210.56 " fill="none" id="Announcement-backto-AnnouncementRepository" style="stroke:#181818;stroke-width:1.0;"/><polygon fill="#181818" points="320.5,129.09,316.5,138.09,320.5,134.09,324.5,138.09,320.5,129.09" style="stroke:#181818;stroke-width:1.0;"/></g><!--reverse link Employee to EmployeeRepository--><g id="link_Employee_EmployeeRepository"><path codeLine="97" d="M1129.5,133.89 C1129.5,166.01 1129.5,205.92 1129.5,234.29 " fill="none" id="Employee-backto-EmployeeRepository" style="stroke:#181818;stroke-width:1.0;"/><polygon fill="#181818" points="1129.5,129.09,1125.5,138.09,1129.5,134.09,1133.5,138.09,1129.5,129.09" style="stroke:#181818;stroke-width:1.0;"/></g><!--reverse link VisitSchedule to VisitScheduleRepository--><g id="link_VisitSchedule_VisitScheduleRepository"><path codeLine="98" d="M1643.5,157.93 C1643.5,179.84 1643.5,203.03 1643.5,222.62 " fill="none" id="VisitSchedule-backto-VisitScheduleRepository" style="stroke:#181818;stroke-width:1.0;"/><polygon fill="#181818" points="1643.5,152.99,1639.5,161.99,1643.5,157.99,1647.5,161.99,1643.5,152.99" style="stroke:#181818;stroke-width:1.0;"/></g><!--SRC=[fLLDZziW4BtxLt1qjCwgwhcgbA-L8lL3skosPsec3We65t1Ij-f_BpZ1XXYqaPfJ61upZpUFiJfItc29QoRA8n14O8zRffy4rplw6z3xTrcc70Ork3pY2dQwOu0ab1hpYe47K0TCn9do2kqnK_uEennqrm1g1ElimizRCgpKGcj9VxGQjgNWVN5Jkzz1hmha3fIYWgC_6JA_XmgqZMvgJ5a-o_uwwAPkcEW0hhWvuhY6wr-mu16wOXIulWEuu5oql8JQXsClk5sxO6LMc_3qDwgetfK782qRQPriT8srAwaqblg5ZXGu6LOFL7qzWMIuQOoq-G0j7Cgx_wBL1yE1bbWRjPwX4QQEa9tJZOXFeg8yxwzOeEPCPjw6Q7K-6mHUjLAQN9xwRXCJOgFFWa5EIM5ieqf96rioH7od-j2ZhBe56giMI9hmbYIfhum53OI1VAlbWS2lMmV7wlWYNBZ7EFOIVhQWhFeu7_fGe9YkFLuTnDdGsLDPzzG-6p5CfvCSejGzCRyOBHmN1Soy8zzXUUYiMSG2LjNDBwgq-U-Aghpi_RovI7pNlV090k8tfGjqVyhYyk97yomOys-bTa9g8CjkVPamAqarI8fz4GUtKb2-SZs9qSgUG_qAKO0R1z7DuEu18lhqfu_fXa6ySnOqZ8KdAUhaaVyIxrQbYO3Bxl9ol9v6vcOqWTjqASOnbte2qJG1GYsxuJKlEB6-IZXud2YXMK_-gYVYVoS-pEV9OPWbHytZuyVqgTj1CmMFcQBWn9J80kDRuYdWfCaMx9_E4eQTu2Bzdc1I7Pq0hrzI6xzb612wD2NAS23KOwRiGZ9JaJpaFm00]--></g></svg>