<?xml version="1.0" encoding="UTF-8" standalone="no"?><svg xmlns="http://www.w3.org/2000/svg" xmlns:xlink="http://www.w3.org/1999/xlink" contentStyleType="text/css" height="1036px" preserveAspectRatio="none" style="width:1956px;height:1036px;background:#FFFFFF;" version="1.1" viewBox="0 0 1956 1036" width="1956px" zoomAndPan="magnify"><defs/><g><text fill="#000000" font-family="sans-serif" font-size="14" font-weight="bold" lengthAdjust="spacing" textLength="155" x="893.5" y="23.5352">US009 Domain Model</text><!--class UserSession--><g id="elem_UserSession"><rect codeLine="10" fill="#F1F1F1" height="73.5547" id="UserSession" rx="2.5" ry="2.5" style="stroke:#181818;stroke-width:0.5;" width="168" x="18.5" y="680.4883"/><ellipse cx="43.05" cy="697.4883" fill="#ADD1B2" rx="12" ry="12" style="stroke:#181818;stroke-width:1.0;"/><path d="M45.8566,704.5684 Q45.173,704.9199 44.4211,705.0957 Q43.6691,705.2715 42.8391,705.2715 Q39.8898,705.2715 38.3371,703.3281 Q36.7844,701.3848 36.7844,697.7129 Q36.7844,694.0313 38.3371,692.0879 Q39.8898,690.1445 42.8391,690.1445 Q43.6691,690.1445 44.4309,690.3203 Q45.1926,690.4961 45.8566,690.8477 L45.8566,694.0508 Q45.1145,693.3672 44.4162,693.0498 Q43.718,692.7324 42.9758,692.7324 Q41.3938,692.7324 40.5881,693.9873 Q39.7824,695.2422 39.7824,697.7129 Q39.7824,700.1738 40.5881,701.4287 Q41.3938,702.6836 42.9758,702.6836 Q43.718,702.6836 44.4162,702.3662 Q45.1145,702.0488 45.8566,701.3652 Z " fill="#000000"/><text fill="#000000" font-family="sans-serif" font-size="20" lengthAdjust="spacing" textLength="115" x="59.95" y="705.0469">UserSession</text><line style="stroke:#181818;stroke-width:0.5;" x1="19.5" x2="185.5" y1="714.4883" y2="714.4883"/><line style="stroke:#181818;stroke-width:0.5;" x1="19.5" x2="185.5" y1="722.4883" y2="722.4883"/><text fill="#000000" font-family="sans-serif" font-size="20" lengthAdjust="spacing" textLength="156" x="24.5" y="745.8242">+getUserEmail()</text></g><!--class Employee--><g id="elem_Employee"><rect codeLine="14" fill="#F1F1F1" height="97.1094" id="Employee" rx="2.5" ry="2.5" style="stroke:#181818;stroke-width:0.5;" width="127" x="1066" y="67.9883"/><ellipse cx="1082" cy="84.9883" fill="#ADD1B2" rx="12" ry="12" style="stroke:#181818;stroke-width:1.0;"/><path d="M1084.8066,92.0684 Q1084.123,92.4199 1083.3711,92.5957 Q1082.6191,92.7715 1081.7891,92.7715 Q1078.8398,92.7715 1077.2871,90.8281 Q1075.7344,88.8848 1075.7344,85.2129 Q1075.7344,81.5313 1077.2871,79.5879 Q1078.8398,77.6445 1081.7891,77.6445 Q1082.6191,77.6445 1083.3809,77.8203 Q1084.1426,77.9961 1084.8066,78.3477 L1084.8066,81.5508 Q1084.0645,80.8672 1083.3662,80.5498 Q1082.668,80.2324 1081.9258,80.2324 Q1080.3438,80.2324 1079.5381,81.4873 Q1078.7324,82.7422 1078.7324,85.2129 Q1078.7324,87.6738 1079.5381,88.9287 Q1080.3438,90.1836 1081.9258,90.1836 Q1082.668,90.1836 1083.3662,89.8662 Q1084.0645,89.5488 1084.8066,88.8652 Z " fill="#000000"/><text fill="#000000" font-family="sans-serif" font-size="20" lengthAdjust="spacing" textLength="93" x="1097" y="92.5469">Employee</text><line style="stroke:#181818;stroke-width:0.5;" x1="1067" x2="1192" y1="101.9883" y2="101.9883"/><text fill="#000000" font-family="sans-serif" font-size="20" lengthAdjust="spacing" textLength="65" x="1072" y="125.3242">-name</text><text fill="#000000" font-family="sans-serif" font-size="20" lengthAdjust="spacing" textLength="65" x="1072" y="148.8789">-email</text><line style="stroke:#181818;stroke-width:0.5;" x1="1067" x2="1192" y1="157.0977" y2="157.0977"/></g><!--class Client--><g id="elem_Client"><rect codeLine="19" fill="#F1F1F1" height="97.1094" id="Client" rx="2.5" ry="2.5" style="stroke:#181818;stroke-width:0.5;" width="90" x="722.5" y="67.9883"/><ellipse cx="738.5" cy="84.9883" fill="#ADD1B2" rx="12" ry="12" style="stroke:#181818;stroke-width:1.0;"/><path d="M741.3066,92.0684 Q740.623,92.4199 739.8711,92.5957 Q739.1191,92.7715 738.2891,92.7715 Q735.3398,92.7715 733.7871,90.8281 Q732.2344,88.8848 732.2344,85.2129 Q732.2344,81.5313 733.7871,79.5879 Q735.3398,77.6445 738.2891,77.6445 Q739.1191,77.6445 739.8809,77.8203 Q740.6426,77.9961 741.3066,78.3477 L741.3066,81.5508 Q740.5645,80.8672 739.8662,80.5498 Q739.168,80.2324 738.4258,80.2324 Q736.8438,80.2324 736.0381,81.4873 Q735.2324,82.7422 735.2324,85.2129 Q735.2324,87.6738 736.0381,88.9287 Q736.8438,90.1836 738.4258,90.1836 Q739.168,90.1836 739.8662,89.8662 Q740.5645,89.5488 741.3066,88.8652 Z " fill="#000000"/><text fill="#000000" font-family="sans-serif" font-size="20" lengthAdjust="spacing" textLength="56" x="753.5" y="92.5469">Client</text><line style="stroke:#181818;stroke-width:0.5;" x1="723.5" x2="811.5" y1="101.9883" y2="101.9883"/><text fill="#000000" font-family="sans-serif" font-size="20" lengthAdjust="spacing" textLength="65" x="728.5" y="125.3242">-name</text><text fill="#000000" font-family="sans-serif" font-size="20" lengthAdjust="spacing" textLength="65" x="728.5" y="148.8789">-email</text><line style="stroke:#181818;stroke-width:0.5;" x1="723.5" x2="811.5" y1="157.0977" y2="157.0977"/></g><!--class Announcement--><g id="elem_Announcement"><rect codeLine="24" fill="#F1F1F1" height="97.1094" id="Announcement" rx="2.5" ry="2.5" style="stroke:#181818;stroke-width:0.5;" width="186" x="227.5" y="67.9883"/><ellipse cx="247.1" cy="84.9883" fill="#ADD1B2" rx="12" ry="12" style="stroke:#181818;stroke-width:1.0;"/><path d="M249.9066,92.0684 Q249.223,92.4199 248.4711,92.5957 Q247.7191,92.7715 246.8891,92.7715 Q243.9398,92.7715 242.3871,90.8281 Q240.8344,88.8848 240.8344,85.2129 Q240.8344,81.5313 242.3871,79.5879 Q243.9398,77.6445 246.8891,77.6445 Q247.7191,77.6445 248.4809,77.8203 Q249.2426,77.9961 249.9066,78.3477 L249.9066,81.5508 Q249.1645,80.8672 248.4662,80.5498 Q247.768,80.2324 247.0258,80.2324 Q245.4438,80.2324 244.6381,81.4873 Q243.8324,82.7422 243.8324,85.2129 Q243.8324,87.6738 244.6381,88.9287 Q245.4438,90.1836 247.0258,90.1836 Q247.768,90.1836 248.4662,89.8662 Q249.1645,89.5488 249.9066,88.8652 Z " fill="#000000"/><text fill="#000000" font-family="sans-serif" font-size="20" lengthAdjust="spacing" textLength="144" x="262.9" y="92.5469">Announcement</text><line style="stroke:#181818;stroke-width:0.5;" x1="228.5" x2="412.5" y1="101.9883" y2="101.9883"/><text fill="#000000" font-family="sans-serif" font-size="20" lengthAdjust="spacing" textLength="174" x="233.5" y="125.3242">-announcementID</text><text fill="#000000" font-family="sans-serif" font-size="20" lengthAdjust="spacing" textLength="118" x="233.5" y="148.8789">-agentEmail</text><line style="stroke:#181818;stroke-width:0.5;" x1="228.5" x2="412.5" y1="157.0977" y2="157.0977"/></g><!--class VisitSchedule--><g id="elem_VisitSchedule"><rect codeLine="29" fill="#F1F1F1" height="144.2188" id="VisitSchedule" rx="2.5" ry="2.5" style="stroke:#181818;stroke-width:0.5;" width="365" x="1461" y="44.4883"/><ellipse cx="1575" cy="61.4883" fill="#ADD1B2" rx="12" ry="12" style="stroke:#181818;stroke-width:1.0;"/><path d="M1577.8066,68.5684 Q1577.123,68.9199 1576.3711,69.0957 Q1575.6191,69.2715 1574.7891,69.2715 Q1571.8398,69.2715 1570.2871,67.3281 Q1568.7344,65.3848 1568.7344,61.7129 Q1568.7344,58.0313 1570.2871,56.0879 Q1571.8398,54.1445 1574.7891,54.1445 Q1575.6191,54.1445 1576.3809,54.3203 Q1577.1426,54.4961 1577.8066,54.8477 L1577.8066,58.0508 Q1577.0645,57.3672 1576.3662,57.0498 Q1575.668,56.7324 1574.9258,56.7324 Q1573.3438,56.7324 1572.5381,57.9873 Q1571.7324,59.2422 1571.7324,61.7129 Q1571.7324,64.1738 1572.5381,65.4287 Q1573.3438,66.6836 1574.9258,66.6836 Q1575.668,66.6836 1576.3662,66.3662 Q1577.0645,66.0488 1577.8066,65.3652 Z " fill="#000000"/><text fill="#000000" font-family="sans-serif" font-size="20" lengthAdjust="spacing" textLength="128" x="1597" y="69.0469">VisitSchedule</text><line style="stroke:#181818;stroke-width:0.5;" x1="1462" x2="1825" y1="78.4883" y2="78.4883"/><text fill="#000000" font-family="sans-serif" font-size="20" lengthAdjust="spacing" textLength="95" x="1467" y="101.8242">-visitDate</text><text fill="#000000" font-family="sans-serif" font-size="20" lengthAdjust="spacing" textLength="104" x="1467" y="125.3789">-startTime</text><text fill="#000000" font-family="sans-serif" font-size="20" lengthAdjust="spacing" textLength="97" x="1467" y="148.9336">-endTime</text><line style="stroke:#181818;stroke-width:0.5;" x1="1462" x2="1825" y1="157.1523" y2="157.1523"/><text fill="#000000" font-family="sans-serif" font-size="20" lengthAdjust="spacing" textLength="353" x="1467" y="180.4883">+isOverlapping(startTime, endTime)</text></g><!--class AuthenticationRepository--><g id="elem_AuthenticationRepository"><rect codeLine="36" fill="#F1F1F1" height="167.7734" id="AuthenticationRepository" rx="2.5" ry="2.5" style="stroke:#181818;stroke-width:0.5;" width="445" x="7" y="861.4883"/><ellipse cx="104.5" cy="878.4883" fill="#ADD1B2" rx="12" ry="12" style="stroke:#181818;stroke-width:1.0;"/><path d="M107.3066,885.5684 Q106.623,885.9199 105.8711,886.0957 Q105.1191,886.2715 104.2891,886.2715 Q101.3398,886.2715 99.7871,884.3281 Q98.2344,882.3848 98.2344,878.7129 Q98.2344,875.0313 99.7871,873.0879 Q101.3398,871.1445 104.2891,871.1445 Q105.1191,871.1445 105.8809,871.3203 Q106.6426,871.4961 107.3066,871.8477 L107.3066,875.0508 Q106.5645,874.3672 105.8662,874.0498 Q105.168,873.7324 104.4258,873.7324 Q102.8438,873.7324 102.0381,874.9873 Q101.2324,876.2422 101.2324,878.7129 Q101.2324,881.1738 102.0381,882.4287 Q102.8438,883.6836 104.4258,883.6836 Q105.168,883.6836 105.8662,883.3662 Q106.5645,883.0488 107.3066,882.3652 Z " fill="#000000"/><text fill="#000000" font-family="sans-serif" font-size="20" lengthAdjust="spacing" textLength="241" x="126.5" y="886.0469">AuthenticationRepository</text><line style="stroke:#181818;stroke-width:0.5;" x1="8" x2="451" y1="895.4883" y2="895.4883"/><line style="stroke:#181818;stroke-width:0.5;" x1="8" x2="451" y1="903.4883" y2="903.4883"/><text fill="#000000" font-family="sans-serif" font-size="20" lengthAdjust="spacing" textLength="214" x="13" y="926.8242">+doLogin(email, pwd)</text><text fill="#000000" font-family="sans-serif" font-size="20" lengthAdjust="spacing" textLength="121" x="13" y="950.3789">+doLogout()</text><text fill="#000000" font-family="sans-serif" font-size="20" lengthAdjust="spacing" textLength="247" x="13" y="973.9336">+getCurrentUserSession()</text><text fill="#000000" font-family="sans-serif" font-size="20" lengthAdjust="spacing" textLength="291" x="13" y="997.4883">+addUserRole(id, description)</text><text fill="#000000" font-family="sans-serif" font-size="20" lengthAdjust="spacing" textLength="433" x="13" y="1021.043">+addUserWithRole(name, email, pwd, roleId)</text></g><!--class AuthenticationController--><g id="elem_AuthenticationController"><rect codeLine="44" fill="#F1F1F1" height="73.5547" id="AuthenticationController" rx="2.5" ry="2.5" style="stroke:#181818;stroke-width:0.5;" width="269" x="222" y="680.4883"/><ellipse cx="238" cy="697.4883" fill="#ADD1B2" rx="12" ry="12" style="stroke:#181818;stroke-width:1.0;"/><path d="M240.8066,704.5684 Q240.123,704.9199 239.3711,705.0957 Q238.6191,705.2715 237.7891,705.2715 Q234.8398,705.2715 233.2871,703.3281 Q231.7344,701.3848 231.7344,697.7129 Q231.7344,694.0313 233.2871,692.0879 Q234.8398,690.1445 237.7891,690.1445 Q238.6191,690.1445 239.3809,690.3203 Q240.1426,690.4961 240.8066,690.8477 L240.8066,694.0508 Q240.0645,693.3672 239.3662,693.0498 Q238.668,692.7324 237.9258,692.7324 Q236.3438,692.7324 235.5381,693.9873 Q234.7324,695.2422 234.7324,697.7129 Q234.7324,700.1738 235.5381,701.4287 Q236.3438,702.6836 237.9258,702.6836 Q238.668,702.6836 239.3662,702.3662 Q240.0645,702.0488 240.8066,701.3652 Z " fill="#000000"/><text fill="#000000" font-family="sans-serif" font-size="20" lengthAdjust="spacing" textLength="235" x="253" y="705.0469">AuthenticationController</text><line style="stroke:#181818;stroke-width:0.5;" x1="223" x2="490" y1="714.4883" y2="714.4883"/><line style="stroke:#181818;stroke-width:0.5;" x1="223" x2="490" y1="722.4883" y2="722.4883"/><text fill="#000000" font-family="sans-serif" font-size="20" lengthAdjust="spacing" textLength="156" x="228" y="745.8242">+getUserEmail()</text></g><!--class VisitScheduleUI--><g id="elem_VisitScheduleUI"><rect codeLine="48" fill="#F1F1F1" height="120.6641" id="VisitScheduleUI" rx="2.5" ry="2.5" style="stroke:#181818;stroke-width:0.5;" width="442" x="224.5" y="440.9883"/><ellipse cx="367" cy="457.9883" fill="#ADD1B2" rx="12" ry="12" style="stroke:#181818;stroke-width:1.0;"/><path d="M369.8066,465.0684 Q369.123,465.4199 368.3711,465.5957 Q367.6191,465.7715 366.7891,465.7715 Q363.8398,465.7715 362.2871,463.8281 Q360.7344,461.8848 360.7344,458.2129 Q360.7344,454.5313 362.2871,452.5879 Q363.8398,450.6445 366.7891,450.6445 Q367.6191,450.6445 368.3809,450.8203 Q369.1426,450.9961 369.8066,451.3477 L369.8066,454.5508 Q369.0645,453.8672 368.3662,453.5498 Q367.668,453.2324 366.9258,453.2324 Q365.3438,453.2324 364.5381,454.4873 Q363.7324,455.7422 363.7324,458.2129 Q363.7324,460.6738 364.5381,461.9287 Q365.3438,463.1836 366.9258,463.1836 Q367.668,463.1836 368.3662,462.8662 Q369.0645,462.5488 369.8066,461.8652 Z " fill="#000000"/><text fill="#000000" font-family="sans-serif" font-size="20" lengthAdjust="spacing" textLength="148" x="389" y="465.5469">VisitScheduleUI</text><line style="stroke:#181818;stroke-width:0.5;" x1="225.5" x2="665.5" y1="474.9883" y2="474.9883"/><line style="stroke:#181818;stroke-width:0.5;" x1="225.5" x2="665.5" y1="482.9883" y2="482.9883"/><text fill="#000000" font-family="sans-serif" font-size="20" lengthAdjust="spacing" textLength="216" x="230.5" y="506.3242">+askToScheduleVisit()</text><text fill="#000000" font-family="sans-serif" font-size="20" lengthAdjust="spacing" textLength="430" x="230.5" y="529.8789">+requestData(visitDate, startTime, endTime)</text><text fill="#000000" font-family="sans-serif" font-size="20" lengthAdjust="spacing" textLength="287" x="230.5" y="553.4336">+showConfirmationMessage()</text></g><!--class VisitScheduleController--><g id="elem_VisitScheduleController"><rect codeLine="54" fill="#F1F1F1" height="167.7734" id="VisitScheduleController" rx="2.5" ry="2.5" style="stroke:#181818;stroke-width:0.5;" width="844" x="526.5" y="633.4883"/><ellipse cx="832" cy="650.4883" fill="#ADD1B2" rx="12" ry="12" style="stroke:#181818;stroke-width:1.0;"/><path d="M834.8066,657.5684 Q834.123,657.9199 833.3711,658.0957 Q832.6191,658.2715 831.7891,658.2715 Q828.8398,658.2715 827.2871,656.3281 Q825.7344,654.3848 825.7344,650.7129 Q825.7344,647.0313 827.2871,645.0879 Q828.8398,643.1445 831.7891,643.1445 Q832.6191,643.1445 833.3809,643.3203 Q834.1426,643.4961 834.8066,643.8477 L834.8066,647.0508 Q834.0645,646.3672 833.3662,646.0498 Q832.668,645.7324 831.9258,645.7324 Q830.3438,645.7324 829.5381,646.9873 Q828.7324,648.2422 828.7324,650.7129 Q828.7324,653.1738 829.5381,654.4287 Q830.3438,655.6836 831.9258,655.6836 Q832.668,655.6836 833.3662,655.3662 Q834.0645,655.0488 834.8066,654.3652 Z " fill="#000000"/><text fill="#000000" font-family="sans-serif" font-size="20" lengthAdjust="spacing" textLength="224" x="854" y="658.0469">VisitScheduleController</text><line style="stroke:#181818;stroke-width:0.5;" x1="527.5" x2="1369.5" y1="667.4883" y2="667.4883"/><line style="stroke:#181818;stroke-width:0.5;" x1="527.5" x2="1369.5" y1="675.4883" y2="675.4883"/><text fill="#000000" font-family="sans-serif" font-size="20" lengthAdjust="spacing" textLength="231" x="532.5" y="698.8242">+getCurrentUserName()</text><text fill="#000000" font-family="sans-serif" font-size="20" lengthAdjust="spacing" textLength="391" x="532.5" y="722.3789">+selectAnnouncement(announcementID)</text><text fill="#000000" font-family="sans-serif" font-size="20" lengthAdjust="spacing" textLength="779" x="532.5" y="745.9336">+isOverlappingWithExistingSchedules(clientEmail, visitDate, startTime, endTime)</text><text fill="#000000" font-family="sans-serif" font-size="20" lengthAdjust="spacing" textLength="832" x="532.5" y="769.4883">+saveVisitSchedule(announcementID, clientEmail, visitDate, startTime, endTime, false)</text><text fill="#000000" font-family="sans-serif" font-size="20" lengthAdjust="spacing" textLength="464" x="532.5" y="793.043">+getAllAnnouncementsSortedByDefaultCriteria()</text></g><!--class Repositories--><g id="elem_Repositories"><rect codeLine="62" fill="#F1F1F1" height="144.2188" id="Repositories" rx="2.5" ry="2.5" style="stroke:#181818;stroke-width:0.5;" width="318" x="789.5" y="429.4883"/><ellipse cx="884.5" cy="446.4883" fill="#ADD1B2" rx="12" ry="12" style="stroke:#181818;stroke-width:1.0;"/><path d="M887.3066,453.5684 Q886.623,453.9199 885.8711,454.0957 Q885.1191,454.2715 884.2891,454.2715 Q881.3398,454.2715 879.7871,452.3281 Q878.2344,450.3848 878.2344,446.7129 Q878.2344,443.0313 879.7871,441.0879 Q881.3398,439.1445 884.2891,439.1445 Q885.1191,439.1445 885.8809,439.3203 Q886.6426,439.4961 887.3066,439.8477 L887.3066,443.0508 Q886.5645,442.3672 885.8662,442.0498 Q885.168,441.7324 884.4258,441.7324 Q882.8438,441.7324 882.0381,442.9873 Q881.2324,444.2422 881.2324,446.7129 Q881.2324,449.1738 882.0381,450.4287 Q882.8438,451.6836 884.4258,451.6836 Q885.168,451.6836 885.8662,451.3662 Q886.5645,451.0488 887.3066,450.3652 Z " fill="#000000"/><text fill="#000000" font-family="sans-serif" font-size="20" lengthAdjust="spacing" textLength="119" x="906.5" y="454.0469">Repositories</text><line style="stroke:#181818;stroke-width:0.5;" x1="790.5" x2="1106.5" y1="463.4883" y2="463.4883"/><line style="stroke:#181818;stroke-width:0.5;" x1="790.5" x2="1106.5" y1="471.4883" y2="471.4883"/><text fill="#000000" font-family="sans-serif" font-size="20" lengthAdjust="spacing" textLength="218" x="795.5" y="494.8242">+getClientRepository()</text><text fill="#000000" font-family="sans-serif" font-size="20" lengthAdjust="spacing" textLength="306" x="795.5" y="518.3789">+getAnnouncementRepository()</text><text fill="#000000" font-family="sans-serif" font-size="20" lengthAdjust="spacing" textLength="255" x="795.5" y="541.9336">+getEmployeeRepository()</text><text fill="#000000" font-family="sans-serif" font-size="20" lengthAdjust="spacing" textLength="290" x="795.5" y="565.4883">+getVisitScheduleRepository()</text></g><!--class AnnouncementRepository--><g id="elem_AnnouncementRepository"><rect codeLine="69" fill="#F1F1F1" height="120.6641" id="AnnouncementRepository" rx="2.5" ry="2.5" style="stroke:#181818;stroke-width:0.5;" width="516" x="62.5" y="248.4883"/><ellipse cx="193" cy="265.4883" fill="#ADD1B2" rx="12" ry="12" style="stroke:#181818;stroke-width:1.0;"/><path d="M195.8066,272.5684 Q195.123,272.9199 194.3711,273.0957 Q193.6191,273.2715 192.7891,273.2715 Q189.8398,273.2715 188.2871,271.3281 Q186.7344,269.3848 186.7344,265.7129 Q186.7344,262.0313 188.2871,260.0879 Q189.8398,258.1445 192.7891,258.1445 Q193.6191,258.1445 194.3809,258.3203 Q195.1426,258.4961 195.8066,258.8477 L195.8066,262.0508 Q195.0645,261.3672 194.3662,261.0498 Q193.668,260.7324 192.9258,260.7324 Q191.3438,260.7324 190.5381,261.9873 Q189.7324,263.2422 189.7324,265.7129 Q189.7324,268.1738 190.5381,269.4287 Q191.3438,270.6836 192.9258,270.6836 Q193.668,270.6836 194.3662,270.3662 Q195.0645,270.0488 195.8066,269.3652 Z " fill="#000000"/><text fill="#000000" font-family="sans-serif" font-size="20" lengthAdjust="spacing" textLength="246" x="215" y="273.0469">AnnouncementRepository</text><line style="stroke:#181818;stroke-width:0.5;" x1="63.5" x2="577.5" y1="282.4883" y2="282.4883"/><line style="stroke:#181818;stroke-width:0.5;" x1="63.5" x2="577.5" y1="290.4883" y2="290.4883"/><text fill="#000000" font-family="sans-serif" font-size="20" lengthAdjust="spacing" textLength="366" x="68.5" y="313.8242">+getAnnouncement(announcementID)</text><text fill="#000000" font-family="sans-serif" font-size="20" lengthAdjust="spacing" textLength="504" x="68.5" y="337.3789">+getAgentEmailFromAnnouncement(announcement)</text><text fill="#000000" font-family="sans-serif" font-size="20" lengthAdjust="spacing" textLength="464" x="68.5" y="360.9336">+getAllAnnouncementsSortedByDefaultCriteria()</text></g><!--class ClientRepository--><g id="elem_ClientRepository"><rect codeLine="75" fill="#F1F1F1" height="73.5547" id="ClientRepository" rx="2.5" ry="2.5" style="stroke:#181818;stroke-width:0.5;" width="308" x="613.5" y="271.9883"/><ellipse cx="684" cy="288.9883" fill="#ADD1B2" rx="12" ry="12" style="stroke:#181818;stroke-width:1.0;"/><path d="M686.8066,296.0684 Q686.123,296.4199 685.3711,296.5957 Q684.6191,296.7715 683.7891,296.7715 Q680.8398,296.7715 679.2871,294.8281 Q677.7344,292.8848 677.7344,289.2129 Q677.7344,285.5313 679.2871,283.5879 Q680.8398,281.6445 683.7891,281.6445 Q684.6191,281.6445 685.3809,281.8203 Q686.1426,281.9961 686.8066,282.3477 L686.8066,285.5508 Q686.0645,284.8672 685.3662,284.5498 Q684.668,284.2324 683.9258,284.2324 Q682.3438,284.2324 681.5381,285.4873 Q680.7324,286.7422 680.7324,289.2129 Q680.7324,291.6738 681.5381,292.9287 Q682.3438,294.1836 683.9258,294.1836 Q684.668,294.1836 685.3662,293.8662 Q686.0645,293.5488 686.8066,292.8652 Z " fill="#000000"/><text fill="#000000" font-family="sans-serif" font-size="20" lengthAdjust="spacing" textLength="158" x="706" y="296.5469">ClientRepository</text><line style="stroke:#181818;stroke-width:0.5;" x1="614.5" x2="920.5" y1="305.9883" y2="305.9883"/><line style="stroke:#181818;stroke-width:0.5;" x1="614.5" x2="920.5" y1="313.9883" y2="313.9883"/><text fill="#000000" font-family="sans-serif" font-size="20" lengthAdjust="spacing" textLength="296" x="619.5" y="337.3242">+getClientByEmail(clientEmail)</text></g><!--class EmployeeRepository--><g id="elem_EmployeeRepository"><rect codeLine="79" fill="#F1F1F1" height="73.5547" id="EmployeeRepository" rx="2.5" ry="2.5" style="stroke:#181818;stroke-width:0.5;" width="346" x="956.5" y="271.9883"/><ellipse cx="1027.5" cy="288.9883" fill="#ADD1B2" rx="12" ry="12" style="stroke:#181818;stroke-width:1.0;"/><path d="M1030.3066,296.0684 Q1029.623,296.4199 1028.8711,296.5957 Q1028.1191,296.7715 1027.2891,296.7715 Q1024.3398,296.7715 1022.7871,294.8281 Q1021.2344,292.8848 1021.2344,289.2129 Q1021.2344,285.5313 1022.7871,283.5879 Q1024.3398,281.6445 1027.2891,281.6445 Q1028.1191,281.6445 1028.8809,281.8203 Q1029.6426,281.9961 1030.3066,282.3477 L1030.3066,285.5508 Q1029.5645,284.8672 1028.8662,284.5498 Q1028.168,284.2324 1027.4258,284.2324 Q1025.8438,284.2324 1025.0381,285.4873 Q1024.2324,286.7422 1024.2324,289.2129 Q1024.2324,291.6738 1025.0381,292.9287 Q1025.8438,294.1836 1027.4258,294.1836 Q1028.168,294.1836 1028.8662,293.8662 Q1029.5645,293.5488 1030.3066,292.8652 Z " fill="#000000"/><text fill="#000000" font-family="sans-serif" font-size="20" lengthAdjust="spacing" textLength="195" x="1049.5" y="296.5469">EmployeeRepository</text><line style="stroke:#181818;stroke-width:0.5;" x1="957.5" x2="1301.5" y1="305.9883" y2="305.9883"/><line style="stroke:#181818;stroke-width:0.5;" x1="957.5" x2="1301.5" y1="313.9883" y2="313.9883"/><text fill="#000000" font-family="sans-serif" font-size="20" lengthAdjust="spacing" textLength="334" x="962.5" y="337.3242">+getEmployeeByEmail(agentEmail)</text></g><!--class VisitScheduleRepository--><g id="elem_VisitScheduleRepository"><rect codeLine="83" fill="#F1F1F1" height="97.1094" id="VisitScheduleRepository" rx="2.5" ry="2.5" style="stroke:#181818;stroke-width:0.5;" width="611" x="1338" y="260.4883"/><ellipse cx="1524" cy="277.4883" fill="#ADD1B2" rx="12" ry="12" style="stroke:#181818;stroke-width:1.0;"/><path d="M1526.8066,284.5684 Q1526.123,284.9199 1525.3711,285.0957 Q1524.6191,285.2715 1523.7891,285.2715 Q1520.8398,285.2715 1519.2871,283.3281 Q1517.7344,281.3848 1517.7344,277.7129 Q1517.7344,274.0313 1519.2871,272.0879 Q1520.8398,270.1445 1523.7891,270.1445 Q1524.6191,270.1445 1525.3809,270.3203 Q1526.1426,270.4961 1526.8066,270.8477 L1526.8066,274.0508 Q1526.0645,273.3672 1525.3662,273.0498 Q1524.668,272.7324 1523.9258,272.7324 Q1522.3438,272.7324 1521.5381,273.9873 Q1520.7324,275.2422 1520.7324,277.7129 Q1520.7324,280.1738 1521.5381,281.4287 Q1522.3438,282.6836 1523.9258,282.6836 Q1524.668,282.6836 1525.3662,282.3662 Q1526.0645,282.0488 1526.8066,281.3652 Z " fill="#000000"/><text fill="#000000" font-family="sans-serif" font-size="20" lengthAdjust="spacing" textLength="230" x="1546" y="285.0469">VisitScheduleRepository</text><line style="stroke:#181818;stroke-width:0.5;" x1="1339" x2="1948" y1="294.4883" y2="294.4883"/><line style="stroke:#181818;stroke-width:0.5;" x1="1339" x2="1948" y1="302.4883" y2="302.4883"/><text fill="#000000" font-family="sans-serif" font-size="20" lengthAdjust="spacing" textLength="599" x="1344" y="325.8242">+getVisitSchedulesByUserEmailAndDate(clientEmail, visitDate)</text><text fill="#000000" font-family="sans-serif" font-size="20" lengthAdjust="spacing" textLength="320" x="1344" y="349.3789">+addVisitSchedule(visitSchedule)</text></g><!--reverse link UserSession to AuthenticationRepository--><g id="link_UserSession_AuthenticationRepository"><path codeLine="88" d="M126.01,760.3183 C141.92,788.6283 163.47,826.9783 182.79,861.3583 " fill="none" id="UserSession-backto-AuthenticationRepository" style="stroke:#181818;stroke-width:1.0;"/><polygon fill="#181818" points="123.65,756.1183,124.5867,765.9225,126.1061,760.4735,131.5551,761.9928,123.65,756.1183" style="stroke:#181818;stroke-width:1.0;"/></g><!--link AuthenticationController to AuthenticationRepository--><g id="link_AuthenticationController_AuthenticationRepository"><path codeLine="89" d="M336.1,754.7983 C320.79,782.0383 299.15,820.5383 279.37,855.7383 " fill="none" id="AuthenticationController-to-AuthenticationRepository" style="stroke:#181818;stroke-width:1.0;stroke-dasharray:7.0,7.0;"/><polygon fill="#181818" points="276.95,860.0383,284.8404,854.1441,279.3952,855.677,277.8623,850.2318,276.95,860.0383" style="stroke:#181818;stroke-width:1.0;"/></g><!--link VisitScheduleUI to AuthenticationController--><g id="link_VisitScheduleUI_AuthenticationController"><path codeLine="90" d="M420.59,562.3883 C405.78,598.0083 387.34,642.3283 374.05,674.2783 " fill="none" id="VisitScheduleUI-to-AuthenticationController" style="stroke:#181818;stroke-width:1.0;stroke-dasharray:7.0,7.0;"/><polygon fill="#181818" points="372.22,678.6983,379.3813,671.9369,374.1481,674.085,372,668.8519,372.22,678.6983" style="stroke:#181818;stroke-width:1.0;"/></g><!--link VisitScheduleUI to VisitScheduleController--><g id="link_VisitScheduleUI_VisitScheduleController"><path codeLine="91" d="M586.28,562.3883 C635.92,583.4983 692.74,607.6783 746.43,630.5183 " fill="none" id="VisitScheduleUI-to-VisitScheduleController" style="stroke:#181818;stroke-width:1.0;stroke-dasharray:7.0,7.0;"/><polygon fill="#181818" points="750.89,632.4183,744.1744,625.214,746.2891,630.4608,741.0424,632.5755,750.89,632.4183" style="stroke:#181818;stroke-width:1.0;"/></g><!--reverse link Repositories to VisitScheduleController--><g id="link_Repositories_VisitScheduleController"><path codeLine="92" d="M948.5,580.0683 C948.5,597.3783 948.5,615.7883 948.5,633.3083 " fill="none" id="Repositories-backto-VisitScheduleController" style="stroke:#181818;stroke-width:1.0;"/><polygon fill="#181818" points="948.5,575.2583,944.5,584.2583,948.5,580.2583,952.5,584.2583,948.5,575.2583" style="stroke:#181818;stroke-width:1.0;"/></g><!--reverse link ClientRepository to Repositories--><g id="link_ClientRepository_Repositories"><path codeLine="93" d="M806.23,350.7483 C827.93,373.5883 855.62,402.7283 880.79,429.2283 " fill="none" id="ClientRepository-backto-Repositories" style="stroke:#181818;stroke-width:1.0;"/><polygon fill="#181818" points="803.01,347.3683,806.303,356.6503,806.4515,350.9954,812.1064,351.1439,803.01,347.3683" style="stroke:#181818;stroke-width:1.0;"/></g><!--reverse link AnnouncementRepository to Repositories--><g id="link_AnnouncementRepository_Repositories"><path codeLine="94" d="M524.08,371.7383 C610.04,397.8183 708.66,427.7383 789.19,452.1583 " fill="none" id="AnnouncementRepository-backto-Repositories" style="stroke:#181818;stroke-width:1.0;"/><polygon fill="#181818" points="519.36,370.3083,526.8223,376.7359,524.1472,371.7516,529.1315,369.0765,519.36,370.3083" style="stroke:#181818;stroke-width:1.0;"/></g><!--reverse link EmployeeRepository to Repositories--><g id="link_EmployeeRepository_Repositories"><path codeLine="95" d="M1090.77,350.7483 C1069.07,373.5883 1041.38,402.7283 1016.21,429.2283 " fill="none" id="EmployeeRepository-backto-Repositories" style="stroke:#181818;stroke-width:1.0;"/><polygon fill="#181818" points="1093.99,347.3683,1084.8936,351.1439,1090.5485,350.9954,1090.697,356.6503,1093.99,347.3683" style="stroke:#181818;stroke-width:1.0;"/></g><!--reverse link VisitScheduleRepository to Repositories--><g id="link_VisitScheduleRepository_Repositories"><path codeLine="96" d="M1462.37,359.6383 C1352.53,389.7483 1213.65,427.8083 1107.97,456.7783 " fill="none" id="VisitScheduleRepository-backto-Repositories" style="stroke:#181818;stroke-width:1.0;"/><polygon fill="#181818" points="1467.11,358.3383,1457.3754,356.8424,1462.2855,359.6515,1459.4765,364.5616,1467.11,358.3383" style="stroke:#181818;stroke-width:1.0;"/></g><!--reverse link Client to ClientRepository--><g id="link_Client_ClientRepository"><path codeLine="97" d="M767.5,171.3783 C767.5,203.4983 767.5,243.4083 767.5,271.7783 " fill="none" id="Client-backto-ClientRepository" style="stroke:#181818;stroke-width:1.0;"/><polygon fill="#181818" points="767.5,166.5783,763.5,175.5783,767.5,171.5783,771.5,175.5783,767.5,166.5783" style="stroke:#181818;stroke-width:1.0;"/></g><!--reverse link Announcement to AnnouncementRepository--><g id="link_Announcement_AnnouncementRepository"><path codeLine="98" d="M320.5,171.3683 C320.5,195.2683 320.5,223.4783 320.5,248.0483 " fill="none" id="Announcement-backto-AnnouncementRepository" style="stroke:#181818;stroke-width:1.0;"/><polygon fill="#181818" points="320.5,166.5783,316.5,175.5783,320.5,171.5783,324.5,175.5783,320.5,166.5783" style="stroke:#181818;stroke-width:1.0;"/></g><!--reverse link Employee to EmployeeRepository--><g id="link_Employee_EmployeeRepository"><path codeLine="99" d="M1129.5,171.3783 C1129.5,203.4983 1129.5,243.4083 1129.5,271.7783 " fill="none" id="Employee-backto-EmployeeRepository" style="stroke:#181818;stroke-width:1.0;"/><polygon fill="#181818" points="1129.5,166.5783,1125.5,175.5783,1129.5,171.5783,1133.5,175.5783,1129.5,166.5783" style="stroke:#181818;stroke-width:1.0;"/></g><!--reverse link VisitSchedule to VisitScheduleRepository--><g id="link_VisitSchedule_VisitScheduleRepository"><path codeLine="100" d="M1643.5,195.4183 C1643.5,217.3283 1643.5,240.5183 1643.5,260.1083 " fill="none" id="VisitSchedule-backto-VisitScheduleRepository" style="stroke:#181818;stroke-width:1.0;"/><polygon fill="#181818" points="1643.5,190.4783,1639.5,199.4783,1643.5,195.4783,1647.5,199.4783,1643.5,190.4783" style="stroke:#181818;stroke-width:1.0;"/></g><!--SRC=[fLLDZziW4BtxLt1qjDvLr5kbgbA-LehKRQNrfZrJCt5GCBY0axfL_tl12JR4M8tKdCBmc7cyUOpLaV8QIrmnKHo1809xt33zBBZEwIz0x-P9eXm6rRWuuX9otJ904WgDUSd00wW39k9CUOdsc2b_Xr4Ekgq1rOArTk7dBHXMQg6rfDyR3Tj2yAwugQsfDgLs-Np-7gr5XIb7Bu80IvBk3Defa3aeHGL7lnDaVWybQ1lT631BPyaV1zrKDHCjm1NtY3YkuFeNB7Y0hXW5hky0BZWN3I-Wyk7O2sxNBbYQrIOy_PKgglFY0AHX0wsJZQwnTYMLnbA_qO429_tgWQel9v0CrxKHFUsXcKDvzryq-c0uq09hezOhrCBK4R9rkX7nIPIKfzqLCrIVoSpR48rEPxt0gqPAayjJtsrYGcpqLJ18AScCeLGXQMrBXeXlL1ywb5KtGqFL34aJtf99wYjZJWDX8F_Lya3WtTR1iJg-2HVkC8wzX1yDAAi-Jli-P2YcQuTN1t4sTFPKLXsr5oE6wVGaXoXrJypFHWl7HG4pByntM1ewQnQnW5LryvCgRVwxeYejEZzlBXBVTIzyWe3uJUaCtPyokyo2mJmBnlnRgLn83MJPhY-pPoMf1acnBsBlLWhALwuZCLZPSwXV8Gfmuo2w6TmzG4IV_lWntJ28Tyw2-h7mB4KrUUI_nBjLQIJWihsy7A-daRaPJU0sNOfXp4qzWMYQ0A6MRV-Q5vnONqquU9WeeLbF_geZudydFZm-JWx3P7BKF3rzd3vrEsZ6u25J53mn9PB0-9Ru573KP0lsJoSJXXtX8lqUOQOwEW9UlwGsViim87HfIfHXJwZ3ZDc5PCOYUSY_]--></g></svg>