<?xml version="1.0" encoding="UTF-8" standalone="no"?><svg xmlns="http://www.w3.org/2000/svg" xmlns:xlink="http://www.w3.org/1999/xlink" contentStyleType="text/css" height="711px" preserveAspectRatio="none" style="width:970px;height:711px;background:#FFFFFF;" version="1.1" viewBox="0 0 970 711" width="970px" zoomAndPan="magnify"><defs><filter height="300%" id="f1tebm4fgpgftr" width="300%" x="-1" y="-1"><feGaussianBlur result="blurOut" stdDeviation="2.0"/><feColorMatrix in="blurOut" result="blurOut2" type="matrix" values="0 0 0 0 0 0 0 0 0 0 0 0 0 0 0 0 0 0 .4 0"/><feOffset dx="4.0" dy="4.0" in="blurOut2" result="blurOut3"/><feBlend in="SourceGraphic" in2="blurOut3" mode="normal"/></filter></defs><g><text fill="#000000" font-family="sans-serif" font-size="14" font-weight="bold" lengthAdjust="spacing" textLength="131" x="412.98" y="23.5352">Use Case Diagram</text><!--cluster actors--><g id="cluster_actors"><rect fill="none" filter="url(#f1tebm4fgpgftr)" height="510" rx="2.5" ry="2.5" style="stroke:#FFFF00;stroke-width:1.0;" width="239" x="7" y="189.4883"/><text fill="#000000" font-family="sans-serif" font-size="20" font-weight="bold" lengthAdjust="spacing" textLength="147" x="53" y="210.8242">System Actors</text></g><!--cluster usecases--><g id="cluster_usecases"><rect fill="none" filter="url(#f1tebm4fgpgftr)" height="644" rx="2.5" ry="2.5" style="stroke:#FFFF00;stroke-width:1.0;" width="623.96" x="335" y="44.4883"/><text fill="#000000" font-family="sans-serif" font-size="20" font-weight="bold" lengthAdjust="spacing" textLength="105" x="594.48" y="65.8242">Use Cases</text></g><!--entity Unregistered User--><g id="elem_Unregistered User"><ellipse cx="126.5" cy="239.7083" fill="#F1F1F1" filter="url(#f1tebm4fgpgftr)" rx="8" ry="8" style="stroke:#181818;stroke-width:0.5;"/><path d="M126.5,247.7083 L126.5,274.7083 M113.5,255.7083 L139.5,255.7083 M126.5,274.7083 L113.5,289.7083 M126.5,274.7083 L139.5,289.7083 " fill="none" filter="url(#f1tebm4fgpgftr)" style="stroke:#181818;stroke-width:0.5;"/><text fill="#000000" font-family="sans-serif" font-size="20" lengthAdjust="spacing" textLength="172" x="40.5" y="313.5442">Unregistered User</text></g><!--entity Organization Agent--><g id="elem_Organization Agent"><ellipse cx="126.5" cy="361.7083" fill="#F1F1F1" filter="url(#f1tebm4fgpgftr)" rx="8" ry="8" style="stroke:#181818;stroke-width:0.5;"/><path d="M126.5,369.7083 L126.5,396.7083 M113.5,377.7083 L139.5,377.7083 M126.5,396.7083 L113.5,411.7083 M126.5,396.7083 L139.5,411.7083 " fill="none" filter="url(#f1tebm4fgpgftr)" style="stroke:#181818;stroke-width:0.5;"/><text fill="#000000" font-family="sans-serif" font-size="20" lengthAdjust="spacing" textLength="186" x="33.5" y="435.5442">Organization Agent</text></g><!--entity System Administrator--><g id="elem_System Administrator"><ellipse cx="126.5" cy="483.7083" fill="#F1F1F1" filter="url(#f1tebm4fgpgftr)" rx="8" ry="8" style="stroke:#181818;stroke-width:0.5;"/><path d="M126.5,491.7083 L126.5,518.7083 M113.5,499.7083 L139.5,499.7083 M126.5,518.7083 L113.5,533.7083 M126.5,518.7083 L139.5,533.7083 " fill="none" filter="url(#f1tebm4fgpgftr)" style="stroke:#181818;stroke-width:0.5;"/><text fill="#000000" font-family="sans-serif" font-size="20" lengthAdjust="spacing" textLength="207" x="23" y="557.5442">System Administrator</text></g><!--entity Owner--><g id="elem_Owner"><ellipse cx="126.5" cy="605.7083" fill="#F1F1F1" filter="url(#f1tebm4fgpgftr)" rx="8" ry="8" style="stroke:#181818;stroke-width:0.5;"/><path d="M126.5,613.7083 L126.5,640.7083 M113.5,621.7083 L139.5,621.7083 M126.5,640.7083 L113.5,655.7083 M126.5,640.7083 L139.5,655.7083 " fill="none" filter="url(#f1tebm4fgpgftr)" style="stroke:#181818;stroke-width:0.5;"/><text fill="#000000" font-family="sans-serif" font-size="20" lengthAdjust="spacing" textLength="62" x="95.5" y="679.5442">Owner</text></g><g id="elem_UC1"><ellipse cx="646.9843" cy="122.4871" fill="#F1F1F1" filter="url(#f1tebm4fgpgftr)" rx="169.7443" ry="36.3489" style="stroke:#181818;stroke-width:0.5;"/><text fill="#000000" font-family="sans-serif" font-size="20" lengthAdjust="spacing" textLength="300" x="496.9843" y="128.0457">UC1 - Display listed properties</text></g><g id="elem_UC2"><ellipse cx="646.9849" cy="408.4853" fill="#F1F1F1" filter="url(#f1tebm4fgpgftr)" rx="267.6349" ry="55.927" style="stroke:#181818;stroke-width:0.5;"/><text fill="#000000" font-family="sans-serif" font-size="20" lengthAdjust="spacing" textLength="504" x="394.9849" y="414.0439">UC2 - Publish any sale announcement on the system</text></g><g id="elem_UC3"><ellipse cx="646.9784" cy="536.488" fill="#F1F1F1" filter="url(#f1tebm4fgpgftr)" rx="171.1484" ry="36.6297" style="stroke:#181818;stroke-width:0.5;"/><text fill="#000000" font-family="sans-serif" font-size="20" lengthAdjust="spacing" textLength="303" x="495.4784" y="542.0466">UC3 - Register a new employee</text></g><g id="elem_UC4"><ellipse cx="646.9753" cy="640.4893" fill="#F1F1F1" filter="url(#f1tebm4fgpgftr)" rx="148.2053" ry="32.0411" style="stroke:#181818;stroke-width:0.5;"/><text fill="#000000" font-family="sans-serif" font-size="20" lengthAdjust="spacing" textLength="253" x="517.4753" y="647.4073">UC4 - Submit Sale or Rent</text></g><g id="elem_UC7"><ellipse cx="646.9789" cy="255.4841" fill="#F1F1F1" filter="url(#f1tebm4fgpgftr)" rx="295.9789" ry="61.5958" style="stroke:#181818;stroke-width:0.5;"/><text fill="#000000" font-family="sans-serif" font-size="20" lengthAdjust="spacing" textLength="562" x="365.9789" y="261.0427">UC7 - Register in the system to buy, sell or rent properties</text></g><!--link Unregistered User to UC1--><g id="link_Unregistered User_UC1"><path d="M203.02,230.9483 C239.44,211.6483 284.4,190.2383 327,176.4883 C378.7,159.8083 436.87,148.0183 489.24,139.8083 " fill="none" id="Unregistered User-to-UC1" style="stroke:#181818;stroke-width:1.0;"/><polygon fill="#181818" points="493.94,138.9283,484.4308,136.3639,488.9998,139.6993,485.6645,144.2683,493.94,138.9283" style="stroke:#181818;stroke-width:1.0;"/></g><!--link Organization Agent to UC2--><g id="link_Organization Agent_UC2"><path d="M219.89,398.6283 C263.87,399.6483 318.99,400.9183 374.85,402.2083 " fill="none" id="Organization Agent-to-UC2" style="stroke:#181818;stroke-width:1.0;"/><polygon fill="#181818" points="379.61,402.3483,370.7038,398.1437,374.6113,402.234,370.5209,406.1416,379.61,402.3483" style="stroke:#181818;stroke-width:1.0;"/></g><!--link System Administrator to UC3--><g id="link_System Administrator_UC3"><path d="M230.24,522.0583 C299.15,524.4483 391.62,527.6583 471.86,530.4483 " fill="none" id="System Administrator-to-UC3" style="stroke:#181818;stroke-width:1.0;"/><polygon fill="#181818" points="476.62,530.6383,467.7623,526.3322,471.6229,530.467,467.4882,534.3275,476.62,530.6383" style="stroke:#181818;stroke-width:1.0;"/></g><!--link Owner to UC4--><g id="link_Owner_UC4"><path d="M158,640.4883 C222.14,640.4883 374.8,640.4883 492.43,640.4883 " fill="none" id="Owner-to-UC4" style="stroke:#181818;stroke-width:1.0;"/><polygon fill="#181818" points="497.36,640.4883,488.36,636.4883,492.36,640.4883,488.36,644.4883,497.36,640.4883" style="stroke:#181818;stroke-width:1.0;"/></g><!--link Unregistered User to UC7--><g id="link_Unregistered User_UC7"><path d="M212.83,271.3583 C251.37,269.9483 299.43,268.1883 349.38,266.3583 " fill="none" id="Unregistered User-to-UC7" style="stroke:#181818;stroke-width:1.0;"/><polygon fill="#181818" points="354.17,266.1483,345.0277,262.4851,349.1734,266.3339,345.3247,270.4796,354.17,266.1483" style="stroke:#181818;stroke-width:1.0;"/></g><!--SRC=[ZPB1Ri8m38RlUGgBoov3sW296n9ZsdKJ5GzWMjD6f4dbf49bujtdj8MrZCDwg9h6_lx_T-AFsbR8M1gN7Yc3Z0vOc_3XR4ZqcM3sefxyjGPAPrrQi2i90jUaVdSgJ8-OKn8QGy2K1hIv6HRu0ZDtqZRlEWSxj-fl1VAyESw8DyuuXeQCSITrKIhe8E2T9zYWlDurvjAhbA53WE20TLu4o7I4QMULkb5XaZG-K0dhD3Zs4q0Fs7v29zWkOBApJBcMIfOnY11FXhkVdAFLPunmMETamsZxAf6LsWg3KVwE-qys4YN9qDarJ-UgzfJ6HMUhNqdHvXMcajXN1XimqM865RkAEEY-LMhQfklp80rCfzFLhN10dmdzgzuBk02q3NWKQsYjgsrAfIG5YHmA0j-6xFLcOxq7yu5ERtQlDnUzRMyE42oTWChAk8QePy_7x8V3xUdpU_f2w4czBtM090QHuMzRDorvSUUwFPKUjRX7BOT6zN06ySRjw-OPl5pGAC5nJ7_EPFcFCrcrTHVr0m00]--></g></svg>