<?xml version="1.0" encoding="UTF-8" standalone="no"?><svg xmlns="http://www.w3.org/2000/svg" xmlns:xlink="http://www.w3.org/1999/xlink" contentStyleType="text/css" height="713px" preserveAspectRatio="none" style="width:971px;height:713px;background:#FFFFFF;" version="1.1" viewBox="0 0 971 713" width="971px" zoomAndPan="magnify"><defs><filter height="300%" id="f1tebm4fgpgftr" width="300%" x="-1" y="-1"><feGaussianBlur result="blurOut" stdDeviation="2.0"/><feColorMatrix in="blurOut" result="blurOut2" type="matrix" values="0 0 0 0 0 0 0 0 0 0 0 0 0 0 0 0 0 0 .4 0"/><feOffset dx="4.0" dy="4.0" in="blurOut2" result="blurOut3"/><feBlend in="SourceGraphic" in2="blurOut3" mode="normal"/></filter></defs><g><text fill="#000000" font-family="sans-serif" font-size="14" font-weight="bold" lengthAdjust="spacing" textLength="131" x="413" y="23.5352">Use Case Diagram</text><!--cluster actors--><g id="cluster_actors"><rect fill="none" filter="url(#f1tebm4fgpgftr)" height="512" rx="2.5" ry="2.5" style="stroke:#FFFF00;stroke-width:1.0;" width="239" x="7" y="189.4883"/><text fill="#000000" font-family="sans-serif" font-size="20" font-weight="bold" lengthAdjust="spacing" textLength="147" x="53" y="210.8242">System Actors</text></g><!--cluster usecases--><g id="cluster_usecases"><rect fill="none" filter="url(#f1tebm4fgpgftr)" height="645" rx="2.5" ry="2.5" style="stroke:#FFFF00;stroke-width:1.0;" width="624" x="335" y="44.4883"/><text fill="#000000" font-family="sans-serif" font-size="20" font-weight="bold" lengthAdjust="spacing" textLength="105" x="594.5" y="65.8242">Use Cases</text></g><!--entity Unregistered User--><g id="elem_Unregistered User"><ellipse cx="126.5" cy="240.4883" fill="#F1F1F1" filter="url(#f1tebm4fgpgftr)" rx="8" ry="8" style="stroke:#181818;stroke-width:0.5;"/><path d="M126.5,248.4883 L126.5,275.4883 M113.5,256.4883 L139.5,256.4883 M126.5,275.4883 L113.5,290.4883 M126.5,275.4883 L139.5,290.4883 " fill="none" filter="url(#f1tebm4fgpgftr)" style="stroke:#181818;stroke-width:0.5;"/><text fill="#000000" font-family="sans-serif" font-size="20" lengthAdjust="spacing" textLength="172" x="40.5" y="314.3242">Unregistered User</text></g><!--entity Organization Agent--><g id="elem_Organization Agent"><ellipse cx="126.5" cy="362.4883" fill="#F1F1F1" filter="url(#f1tebm4fgpgftr)" rx="8" ry="8" style="stroke:#181818;stroke-width:0.5;"/><path d="M126.5,370.4883 L126.5,397.4883 M113.5,378.4883 L139.5,378.4883 M126.5,397.4883 L113.5,412.4883 M126.5,397.4883 L139.5,412.4883 " fill="none" filter="url(#f1tebm4fgpgftr)" style="stroke:#181818;stroke-width:0.5;"/><text fill="#000000" font-family="sans-serif" font-size="20" lengthAdjust="spacing" textLength="186" x="33.5" y="436.3242">Organization Agent</text></g><!--entity System Administrator--><g id="elem_System Administrator"><ellipse cx="126.5" cy="484.4883" fill="#F1F1F1" filter="url(#f1tebm4fgpgftr)" rx="8" ry="8" style="stroke:#181818;stroke-width:0.5;"/><path d="M126.5,492.4883 L126.5,519.4883 M113.5,500.4883 L139.5,500.4883 M126.5,519.4883 L113.5,534.4883 M126.5,519.4883 L139.5,534.4883 " fill="none" filter="url(#f1tebm4fgpgftr)" style="stroke:#181818;stroke-width:0.5;"/><text fill="#000000" font-family="sans-serif" font-size="20" lengthAdjust="spacing" textLength="207" x="23" y="558.3242">System Administrator</text></g><!--entity Owner--><g id="elem_Owner"><ellipse cx="126.5" cy="606.4883" fill="#F1F1F1" filter="url(#f1tebm4fgpgftr)" rx="8" ry="8" style="stroke:#181818;stroke-width:0.5;"/><path d="M126.5,614.4883 L126.5,641.4883 M113.5,622.4883 L139.5,622.4883 M126.5,641.4883 L113.5,656.4883 M126.5,641.4883 L139.5,656.4883 " fill="none" filter="url(#f1tebm4fgpgftr)" style="stroke:#181818;stroke-width:0.5;"/><text fill="#000000" font-family="sans-serif" font-size="20" lengthAdjust="spacing" textLength="62" x="95.5" y="680.3242">Owner</text></g><g id="elem_UC1"><ellipse cx="647.2443" cy="123.3371" fill="#F1F1F1" filter="url(#f1tebm4fgpgftr)" rx="169.7443" ry="36.3489" style="stroke:#181818;stroke-width:0.5;"/><text fill="#000000" font-family="sans-serif" font-size="20" lengthAdjust="spacing" textLength="300" x="497.2443" y="128.8957">UC1 - Display listed properties</text></g><g id="elem_UC2"><ellipse cx="647.1349" cy="409.4153" fill="#F1F1F1" filter="url(#f1tebm4fgpgftr)" rx="267.6349" ry="55.927" style="stroke:#181818;stroke-width:0.5;"/><text fill="#000000" font-family="sans-serif" font-size="20" lengthAdjust="spacing" textLength="504" x="395.1349" y="414.9739">UC2 - Publish any sale announcement on the system</text></g><g id="elem_UC3"><ellipse cx="647.1484" cy="537.618" fill="#F1F1F1" filter="url(#f1tebm4fgpgftr)" rx="171.1484" ry="36.6297" style="stroke:#181818;stroke-width:0.5;"/><text fill="#000000" font-family="sans-serif" font-size="20" lengthAdjust="spacing" textLength="303" x="495.6484" y="543.1766">UC3 - Register a new employee</text></g><g id="elem_UC4"><ellipse cx="647.2053" cy="641.5293" fill="#F1F1F1" filter="url(#f1tebm4fgpgftr)" rx="148.2053" ry="32.0411" style="stroke:#181818;stroke-width:0.5;"/><text fill="#000000" font-family="sans-serif" font-size="20" lengthAdjust="spacing" textLength="253" x="517.7053" y="648.4473">UC4 - Submit Sale or Rent</text></g><g id="elem_UC7"><ellipse cx="646.9789" cy="256.5841" fill="#F1F1F1" filter="url(#f1tebm4fgpgftr)" rx="295.9789" ry="61.5958" style="stroke:#181818;stroke-width:0.5;"/><text fill="#000000" font-family="sans-serif" font-size="20" lengthAdjust="spacing" textLength="562" x="365.9789" y="262.1427">UC7 - Register in the system to buy, sell or rent properties</text></g><!--link Unregistered User to UC1--><g id="link_Unregistered User_UC1"><path d="M203.49,231.6983 C239.83,212.4583 284.58,191.1783 327,177.4883 C378.5,160.8683 436.41,149.1083 488.61,140.9083 " fill="none" id="Unregistered User-to-UC1" style="stroke:#181818;stroke-width:1.0;"/><polygon fill="#181818" points="493.46,140.1583,483.9581,137.5671,488.5176,140.9153,485.1694,145.4749,493.46,140.1583" style="stroke:#181818;stroke-width:1.0;"/></g><!--link Organization Agent to UC2--><g id="link_Organization Agent_UC2"><path d="M219.9,399.6283 C263.7,400.6383 318.56,401.9083 374.18,403.1983 " fill="none" id="Organization Agent-to-UC2" style="stroke:#181818;stroke-width:1.0;"/><polygon fill="#181818" points="379.1,403.3083,370.2058,399.0783,374.1017,403.1798,370.0002,407.0756,379.1,403.3083" style="stroke:#181818;stroke-width:1.0;"/></g><!--link System Administrator to UC3--><g id="link_System Administrator_UC3"><path d="M230.25,523.0583 C299.09,525.4483 391.46,528.6483 471.64,531.4383 " fill="none" id="System Administrator-to-UC3" style="stroke:#181818;stroke-width:1.0;"/><polygon fill="#181818" points="476.37,531.5983,467.5123,527.2922,471.3729,531.427,467.2382,535.2875,476.37,531.5983" style="stroke:#181818;stroke-width:1.0;"/></g><!--link Owner to UC4--><g id="link_Owner_UC4"><path d="M158,641.4883 C222.14,641.4883 374.76,641.4883 492.39,641.4883 " fill="none" id="Owner-to-UC4" style="stroke:#181818;stroke-width:1.0;"/><polygon fill="#181818" points="497.16,641.4883,488.16,637.4883,492.16,641.4883,488.16,645.4883,497.16,641.4883" style="stroke:#181818;stroke-width:1.0;"/></g><!--link Unregistered User to UC7--><g id="link_Unregistered User_UC7"><path d="M212.83,272.3583 C251.22,270.9583 299.05,269.1983 348.78,267.3783 " fill="none" id="Unregistered User-to-UC7" style="stroke:#181818;stroke-width:1.0;"/><polygon fill="#181818" points="353.66,267.1983,344.5173,263.5361,348.6635,267.3844,344.8151,271.5305,353.66,267.1983" style="stroke:#181818;stroke-width:1.0;"/></g><!--SRC=[ZPB1Ri8m38RlUGgBoov3sW296n9ZsdKJ5GzWMjD6f4dbf49bujtdj8MrZCDwg9h6_lx_T-AFsbR8M1gN7Yc3Z0vOc_3XR4ZqcM3sefxyjGPAPrrQi2i90jUaVdSgJ8-OKn8QGy2K1hIv6HRu0ZDtqZRlEWSxj-fl1VAyESw8DyuuXeQCSITrKIhe8E2T9zYWlDurvjAhbA53WE20TLu4o7I4QMULkb5XaZG-K0dhD3Zs4q0Fs7v29zWkOBApJBcMIfOnY11FXhkVdAFLPunmMETamsZxAf6LsWg3KVwE-qys4YN9qDarJ-UgzfJ6HMUhNqdHvXMcajXN1XimqM865RkAEEY-LMhQfklp80rCfzFLhN10dmdzgzuBk02q3NWKQsYjgsrAfIG5YHmA0j-6xFLcOxq7yu5ERtQlDnUzRMyE42oTWChAk8QePy_7x8V3xUdpU_f2w4czBtM090QHuMzRDorvSUUwFPKUjRX7BOT6zN06ySRjw-OPl5pGAC5nJ7_EPFcFCrcrTHVr0m00]--></g></svg>