<?xml version="1.0" encoding="UTF-8" standalone="no"?><svg xmlns="http://www.w3.org/2000/svg" xmlns:xlink="http://www.w3.org/1999/xlink" contentStyleType="text/css" height="941px" preserveAspectRatio="none" style="width:966px;height:941px;background:#FFFFFF;" version="1.1" viewBox="0 0 966 941" width="966px" zoomAndPan="magnify"><defs><filter height="300%" id="f12frhs8ad9p3e" width="300%" x="-1" y="-1"><feGaussianBlur result="blurOut" stdDeviation="2.0"/><feColorMatrix in="blurOut" result="blurOut2" type="matrix" values="0 0 0 0 0 0 0 0 0 0 0 0 0 0 0 0 0 0 .4 0"/><feOffset dx="4.0" dy="4.0" in="blurOut2" result="blurOut3"/><feBlend in="SourceGraphic" in2="blurOut3" mode="normal"/></filter></defs><g><text fill="#000000" font-family="sans-serif" font-size="14" font-weight="bold" lengthAdjust="spacing" textLength="131" x="410.5" y="23.5352">Use Case Diagram</text><!--cluster actors--><g id="cluster_actors"><rect fill="none" filter="url(#f12frhs8ad9p3e)" height="512" rx="2.5" ry="2.5" style="stroke:#FFFF00;stroke-width:1.0;" width="239" x="7" y="206.4883"/><text fill="#000000" font-family="sans-serif" font-size="20" font-weight="bold" lengthAdjust="spacing" textLength="147" x="53" y="227.8242">System Actors</text></g><!--cluster usecases--><g id="cluster_usecases"><rect fill="none" filter="url(#f12frhs8ad9p3e)" height="885" rx="2.5" ry="2.5" style="stroke:#FFFF00;stroke-width:1.0;" width="619" x="335" y="44.4883"/><text fill="#000000" font-family="sans-serif" font-size="20" font-weight="bold" lengthAdjust="spacing" textLength="105" x="592" y="65.8242">Use Cases</text></g><!--entity Unregistered User--><g id="elem_Unregistered User"><ellipse cx="126.5" cy="257.4883" fill="#F1F1F1" filter="url(#f12frhs8ad9p3e)" rx="8" ry="8" style="stroke:#181818;stroke-width:0.5;"/><path d="M126.5,265.4883 L126.5,292.4883 M113.5,273.4883 L139.5,273.4883 M126.5,292.4883 L113.5,307.4883 M126.5,292.4883 L139.5,307.4883 " fill="none" filter="url(#f12frhs8ad9p3e)" style="stroke:#181818;stroke-width:0.5;"/><text fill="#000000" font-family="sans-serif" font-size="20" lengthAdjust="spacing" textLength="172" x="40.5" y="331.3242">Unregistered User</text></g><!--entity Organization Agent--><g id="elem_Organization Agent"><ellipse cx="126.5" cy="379.4883" fill="#F1F1F1" filter="url(#f12frhs8ad9p3e)" rx="8" ry="8" style="stroke:#181818;stroke-width:0.5;"/><path d="M126.5,387.4883 L126.5,414.4883 M113.5,395.4883 L139.5,395.4883 M126.5,414.4883 L113.5,429.4883 M126.5,414.4883 L139.5,429.4883 " fill="none" filter="url(#f12frhs8ad9p3e)" style="stroke:#181818;stroke-width:0.5;"/><text fill="#000000" font-family="sans-serif" font-size="20" lengthAdjust="spacing" textLength="186" x="33.5" y="453.3242">Organization Agent</text></g><!--entity System Administrator--><g id="elem_System Administrator"><ellipse cx="126.5" cy="501.4883" fill="#F1F1F1" filter="url(#f12frhs8ad9p3e)" rx="8" ry="8" style="stroke:#181818;stroke-width:0.5;"/><path d="M126.5,509.4883 L126.5,536.4883 M113.5,517.4883 L139.5,517.4883 M126.5,536.4883 L113.5,551.4883 M126.5,536.4883 L139.5,551.4883 " fill="none" filter="url(#f12frhs8ad9p3e)" style="stroke:#181818;stroke-width:0.5;"/><text fill="#000000" font-family="sans-serif" font-size="20" lengthAdjust="spacing" textLength="207" x="23" y="575.3242">System Administrator</text></g><!--entity Owner--><g id="elem_Owner"><ellipse cx="126.5" cy="623.4883" fill="#F1F1F1" filter="url(#f12frhs8ad9p3e)" rx="8" ry="8" style="stroke:#181818;stroke-width:0.5;"/><path d="M126.5,631.4883 L126.5,658.4883 M113.5,639.4883 L139.5,639.4883 M126.5,658.4883 L113.5,673.4883 M126.5,658.4883 L139.5,673.4883 " fill="none" filter="url(#f12frhs8ad9p3e)" style="stroke:#181818;stroke-width:0.5;"/><text fill="#000000" font-family="sans-serif" font-size="20" lengthAdjust="spacing" textLength="62" x="95.5" y="697.3242">Owner</text></g><g id="elem_UC1"><ellipse cx="644.7443" cy="123.3371" fill="#F1F1F1" filter="url(#f12frhs8ad9p3e)" rx="169.7443" ry="36.3489" style="stroke:#181818;stroke-width:0.5;"/><text fill="#000000" font-family="sans-serif" font-size="20" lengthAdjust="spacing" textLength="300" x="494.7443" y="128.8957">UC1 - Display listed properties</text></g><g id="elem_UC2"><ellipse cx="644.6349" cy="408.4153" fill="#F1F1F1" filter="url(#f12frhs8ad9p3e)" rx="267.6349" ry="55.927" style="stroke:#181818;stroke-width:0.5;"/><text fill="#000000" font-family="sans-serif" font-size="20" lengthAdjust="spacing" textLength="504" x="392.6349" y="413.9739">UC2 - Publish any sale announcement on the system</text></g><g id="elem_UC3"><ellipse cx="644.6484" cy="536.618" fill="#F1F1F1" filter="url(#f12frhs8ad9p3e)" rx="171.1484" ry="36.6297" style="stroke:#181818;stroke-width:0.5;"/><text fill="#000000" font-family="sans-serif" font-size="20" lengthAdjust="spacing" textLength="303" x="493.1484" y="542.1766">UC3 - Register a new employee</text></g><g id="elem_UC4"><ellipse cx="644.7053" cy="881.5293" fill="#F1F1F1" filter="url(#f12frhs8ad9p3e)" rx="148.2053" ry="32.0411" style="stroke:#181818;stroke-width:0.5;"/><text fill="#000000" font-family="sans-serif" font-size="20" lengthAdjust="spacing" textLength="253" x="515.2053" y="888.4473">UC4 - Submit Sale or Rent</text></g><g id="elem_UC5"><ellipse cx="644.548" cy="636.6979" fill="#F1F1F1" filter="url(#f12frhs8ad9p3e)" rx="131.548" ry="28.7096" style="stroke:#181818;stroke-width:0.5;"/><text fill="#000000" font-family="sans-serif" font-size="20" lengthAdjust="spacing" textLength="215" x="534.048" y="643.6158">UC5 - Register a Store</text></g><g id="elem_UC6"><ellipse cx="644.4998" cy="757.4882" fill="#F1F1F1" filter="url(#f12frhs8ad9p3e)" rx="272.9998" ry="57" style="stroke:#181818;stroke-width:0.5;"/><text fill="#000000" font-family="sans-serif" font-size="20" lengthAdjust="spacing" textLength="515" x="386.9998" y="763.0468">UC6 - Specify states, districts and cities in the system</text></g><g id="elem_UC7"><ellipse cx="644.5304" cy="256.5944" fill="#F1F1F1" filter="url(#f12frhs8ad9p3e)" rx="293.5304" ry="61.1061" style="stroke:#181818;stroke-width:0.5;"/><text fill="#000000" font-family="sans-serif" font-size="20" lengthAdjust="spacing" textLength="557" x="366.0304" y="262.1529">UC7 - register in the system to buy, sell or rent properties</text></g><!--link Unregistered User to UC1--><g id="link_Unregistered User_UC1"><path d="M190.26,248.5783 C228.21,224.0383 278.48,194.9783 327,177.4883 C376.61,159.6083 432.78,147.5683 483.88,139.4883 " fill="none" id="Unregistered User-to-UC1" style="stroke:#181818;stroke-width:1.0;"/><polygon fill="#181818" points="488.76,138.5783,479.2508,136.0139,483.8198,139.3493,480.4845,143.9183,488.76,138.5783" style="stroke:#181818;stroke-width:1.0;"/></g><!--link Organization Agent to UC2--><g id="link_Organization Agent_UC2"><path d="M219.75,413.4183 C262.82,412.9183 316.58,412.2883 371.2,411.6583 " fill="none" id="Organization Agent-to-UC2" style="stroke:#181818;stroke-width:1.0;"/><polygon fill="#181818" points="376.18,411.5883,367.1236,407.7176,371.1805,411.6599,367.2382,415.7168,376.18,411.5883" style="stroke:#181818;stroke-width:1.0;"/></g><!--link System Administrator to UC3--><g id="link_System Administrator_UC3"><path d="M230.37,536.4883 C298.06,536.4883 388.41,536.4883 467.35,536.4883 " fill="none" id="System Administrator-to-UC3" style="stroke:#181818;stroke-width:1.0;"/><polygon fill="#181818" points="472.01,536.4883,463.01,532.4883,467.01,536.4883,463.01,540.4883,472.01,536.4883" style="stroke:#181818;stroke-width:1.0;"/></g><!--link Owner to UC4--><g id="link_Owner_UC4"><path d="M157.9,694.9683 C193.84,735.4083 257.59,799.1883 327,831.4883 C378.22,855.3183 438.6,868.1183 492.83,874.8783 " fill="none" id="Owner-to-UC4" style="stroke:#181818;stroke-width:1.0;"/><polygon fill="#181818" points="497.73,875.5883,489.2741,870.5387,492.766,874.9892,488.3156,878.4811,497.73,875.5883" style="stroke:#181818;stroke-width:1.0;"/></g><!--link System Administrator to UC5--><g id="link_System Administrator_UC5"><path d="M230.48,566.8883 C261.33,575.3183 295.38,583.9383 327,590.4883 C391,603.7483 463.05,614.5383 522.22,622.3283 " fill="none" id="System Administrator-to-UC5" style="stroke:#181818;stroke-width:1.0;"/><polygon fill="#181818" points="526.91,623.0783,518.4992,617.954,521.9515,622.4353,517.4703,625.8876,526.91,623.0783" style="stroke:#181818;stroke-width:1.0;"/></g><!--link System Administrator to UC6--><g id="link_System Administrator_UC6"><path d="M228.53,580.4083 C237.44,585.6883 246.07,591.3983 254,597.4883 C293.48,627.8283 284.47,656.5883 327,682.4883 C354.47,699.2183 385.38,712.2083 416.85,722.3083 " fill="none" id="System Administrator-to-UC6" style="stroke:#181818;stroke-width:1.0;"/><polygon fill="#181818" points="421.31,724.0283,413.9239,717.5133,416.5401,722.5288,411.5247,725.1451,421.31,724.0283" style="stroke:#181818;stroke-width:1.0;"/></g><!--link Unregistered User to UC7--><g id="link_Unregistered User_UC7"><path d="M213,286.5283 C254.17,283.6483 306.16,280.0283 359.65,276.2883 " fill="none" id="Unregistered User-to-UC7" style="stroke:#181818;stroke-width:1.0;"/><polygon fill="#181818" points="364.51,275.8783,355.2568,272.5052,359.5218,276.2213,355.8056,280.4863,364.51,275.8783" style="stroke:#181818;stroke-width:1.0;"/></g><!--SRC=[ZPFBZjim34Nt-WeYcsucG9lNx0QOfkYsnHZp0OpCs49aoP1e19vY_hsK7wdjPX4l3CiYpxsag7WnhiQ0bVNwGZdaTCR6ya_lE3CV19klwaiSOw3opkio-8g0GqFgtqwD-e85PTnQWa2QqHLs6X1BpFtLkABFdEpSelyeaEUx3pc5exS-G4lM-glwL8eD2_Wz4XnHNZyC5fAhbAKp0ti8fYWPSfDWnZkbRbHOPMragk1Limzn1HW1kq_e1Ri5hDvTeC98P90sY51OJNT_XGAT-S04XzU27C-sHucyCauO0UNlFF_g4b4gcJeRw-bTDP5qMlIsXfK47R_1MYgEjSKMRBAOGnryJO7Da2enNTButAa6rklroormGjy8_NTp4d09w5g8ADRGETyuJPLK2b8obmInAtBGsyprxlG7UhtDKcyhUc-3EK1mT0MgQkjRee6zdRFlDdUWRvVqdT2pvbGPXYmL8ir_wznqvDt2TNSg0sgtHEtdHZEH7Htk7tUuNs8FoM5DsfobrunCyKa6LxACPXbDbuCswM31t6dxuN7XmrBuMOJ7gPZ3qmqwDUqJHBbmgMKX7Vj_C_Rym8ozT76VwYy0]--></g></svg>