<?xml version="1.0" encoding="UTF-8" standalone="no"?><svg xmlns="http://www.w3.org/2000/svg" xmlns:xlink="http://www.w3.org/1999/xlink" contentStyleType="text/css" height="784px" preserveAspectRatio="none" style="width:864px;height:784px;background:#FFFFFF;" version="1.1" viewBox="0 0 864 784" width="864px" zoomAndPan="magnify"><defs><filter height="300%" id="faad7mbye0gfd" width="300%" x="-1" y="-1"><feGaussianBlur result="blurOut" stdDeviation="2.0"/><feColorMatrix in="blurOut" result="blurOut2" type="matrix" values="0 0 0 0 0 0 0 0 0 0 0 0 0 0 0 0 0 0 .4 0"/><feOffset dx="4.0" dy="4.0" in="blurOut2" result="blurOut3"/><feBlend in="SourceGraphic" in2="blurOut3" mode="normal"/></filter></defs><g><text fill="#000000" font-family="sans-serif" font-size="14" font-weight="bold" lengthAdjust="spacing" textLength="131" x="359.5" y="23.5352">Use Case Diagram</text><!--cluster actors--><g id="cluster_actors"><rect fill="none" filter="url(#faad7mbye0gfd)" height="512" rx="2.5" ry="2.5" style="stroke:#FFFF00;stroke-width:1.0;" width="239" x="7" y="99.4883"/><text fill="#000000" font-family="sans-serif" font-size="20" font-weight="bold" lengthAdjust="spacing" textLength="147" x="53" y="120.8242">System Actors</text></g><!--cluster usecases--><g id="cluster_usecases"><rect fill="none" filter="url(#faad7mbye0gfd)" height="728" rx="2.5" ry="2.5" style="stroke:#FFFF00;stroke-width:1.0;" width="578" x="274" y="44.4883"/><text fill="#000000" font-family="sans-serif" font-size="20" font-weight="bold" lengthAdjust="spacing" textLength="105" x="510.5" y="65.8242">Use Cases</text></g><!--entity Unregistered User--><g id="elem_Unregistered User"><ellipse cx="126.5" cy="150.4883" fill="#F1F1F1" filter="url(#faad7mbye0gfd)" rx="8" ry="8" style="stroke:#181818;stroke-width:0.5;"/><path d="M126.5,158.4883 L126.5,185.4883 M113.5,166.4883 L139.5,166.4883 M126.5,185.4883 L113.5,200.4883 M126.5,185.4883 L139.5,200.4883 " fill="none" filter="url(#faad7mbye0gfd)" style="stroke:#181818;stroke-width:0.5;"/><text fill="#000000" font-family="sans-serif" font-size="20" lengthAdjust="spacing" textLength="172" x="40.5" y="224.3242">Unregistered User</text></g><!--entity Organization Agent--><g id="elem_Organization Agent"><ellipse cx="126.5" cy="272.4883" fill="#F1F1F1" filter="url(#faad7mbye0gfd)" rx="8" ry="8" style="stroke:#181818;stroke-width:0.5;"/><path d="M126.5,280.4883 L126.5,307.4883 M113.5,288.4883 L139.5,288.4883 M126.5,307.4883 L113.5,322.4883 M126.5,307.4883 L139.5,322.4883 " fill="none" filter="url(#faad7mbye0gfd)" style="stroke:#181818;stroke-width:0.5;"/><text fill="#000000" font-family="sans-serif" font-size="20" lengthAdjust="spacing" textLength="186" x="33.5" y="346.3242">Organization Agent</text></g><!--entity System Administrator--><g id="elem_System Administrator"><ellipse cx="126.5" cy="394.4883" fill="#F1F1F1" filter="url(#faad7mbye0gfd)" rx="8" ry="8" style="stroke:#181818;stroke-width:0.5;"/><path d="M126.5,402.4883 L126.5,429.4883 M113.5,410.4883 L139.5,410.4883 M126.5,429.4883 L113.5,444.4883 M126.5,429.4883 L139.5,444.4883 " fill="none" filter="url(#faad7mbye0gfd)" style="stroke:#181818;stroke-width:0.5;"/><text fill="#000000" font-family="sans-serif" font-size="20" lengthAdjust="spacing" textLength="207" x="23" y="468.3242">System Administrator</text></g><!--entity Owner--><g id="elem_Owner"><ellipse cx="126.5" cy="516.4883" fill="#F1F1F1" filter="url(#faad7mbye0gfd)" rx="8" ry="8" style="stroke:#181818;stroke-width:0.5;"/><path d="M126.5,524.4883 L126.5,551.4883 M113.5,532.4883 L139.5,532.4883 M126.5,551.4883 L113.5,566.4883 M126.5,551.4883 L139.5,566.4883 " fill="none" filter="url(#faad7mbye0gfd)" style="stroke:#181818;stroke-width:0.5;"/><text fill="#000000" font-family="sans-serif" font-size="20" lengthAdjust="spacing" textLength="62" x="95.5" y="590.3242">Owner</text></g><g id="elem_UC1"><ellipse cx="563.2443" cy="123.3371" fill="#F1F1F1" filter="url(#faad7mbye0gfd)" rx="169.7443" ry="36.3489" style="stroke:#181818;stroke-width:0.5;"/><text fill="#000000" font-family="sans-serif" font-size="20" lengthAdjust="spacing" textLength="300" x="413.2443" y="128.8957">UC1 - Display listed properties</text></g><g id="elem_UC2"><ellipse cx="563.1349" cy="251.4153" fill="#F1F1F1" filter="url(#faad7mbye0gfd)" rx="267.6349" ry="55.927" style="stroke:#181818;stroke-width:0.5;"/><text fill="#000000" font-family="sans-serif" font-size="20" lengthAdjust="spacing" textLength="504" x="311.1349" y="256.9739">UC2 - Publish any sale announcement on the system</text></g><g id="elem_UC3"><ellipse cx="563.1484" cy="379.618" fill="#F1F1F1" filter="url(#faad7mbye0gfd)" rx="171.1484" ry="36.6297" style="stroke:#181818;stroke-width:0.5;"/><text fill="#000000" font-family="sans-serif" font-size="20" lengthAdjust="spacing" textLength="303" x="411.6484" y="385.1766">UC3 - Register a new employee</text></g><g id="elem_UC4"><ellipse cx="563.2053" cy="724.5293" fill="#F1F1F1" filter="url(#faad7mbye0gfd)" rx="148.2053" ry="32.0411" style="stroke:#181818;stroke-width:0.5;"/><text fill="#000000" font-family="sans-serif" font-size="20" lengthAdjust="spacing" textLength="253" x="433.7053" y="731.4473">UC4 - Submit Sale or Rent</text></g><g id="elem_UC5"><ellipse cx="563.048" cy="479.6979" fill="#F1F1F1" filter="url(#faad7mbye0gfd)" rx="131.548" ry="28.7096" style="stroke:#181818;stroke-width:0.5;"/><text fill="#000000" font-family="sans-serif" font-size="20" lengthAdjust="spacing" textLength="215" x="452.548" y="486.6158">UC5 - Register a Store</text></g><g id="elem_UC6"><ellipse cx="562.9998" cy="600.4882" fill="#F1F1F1" filter="url(#faad7mbye0gfd)" rx="272.9998" ry="57" style="stroke:#181818;stroke-width:0.5;"/><text fill="#000000" font-family="sans-serif" font-size="20" lengthAdjust="spacing" textLength="515" x="305.4998" y="606.0468">UC6 - Specify states, districts and cities in the system</text></g><!--link Unregistered User to UC1--><g id="link_Unregistered User_UC1"><path d="M212.82,173.3083 C270.28,165.1183 347.55,154.0883 414.8,144.4883 " fill="none" id="Unregistered User-to-UC1" style="stroke:#181818;stroke-width:1.0;"/><polygon fill="#181818" points="419.36,143.8383,409.8804,141.1666,414.4114,144.5534,411.0246,149.0844,419.36,143.8383" style="stroke:#181818;stroke-width:1.0;"/></g><!--link Organization Agent to UC2--><g id="link_Organization Agent_UC2"><path d="M219.91,295.5783 C252.08,291.4283 289.77,286.5783 328.16,281.6283 " fill="none" id="Organization Agent-to-UC2" style="stroke:#181818;stroke-width:1.0;"/><polygon fill="#181818" points="332.83,281.0283,323.3903,278.219,327.8715,281.6713,324.4192,286.1525,332.83,281.0283" style="stroke:#181818;stroke-width:1.0;"/></g><!--link System Administrator to UC3--><g id="link_System Administrator_UC3"><path d="M230.47,417.6383 C282.65,411.6383 347.12,404.2183 405.3,397.5183 " fill="none" id="System Administrator-to-UC3" style="stroke:#181818;stroke-width:1.0;"/><polygon fill="#181818" points="410.13,396.9683,400.7321,394.0222,405.1627,397.5392,401.6456,401.9698,410.13,396.9683" style="stroke:#181818;stroke-width:1.0;"/></g><!--link Owner to UC4--><g id="link_Owner_UC4"><path d="M157.99,587.9983 C183.76,616.2883 223.22,653.9983 266,674.4883 C311.3,696.1883 364.44,708.6383 413.11,715.7283 " fill="none" id="Owner-to-UC4" style="stroke:#181818;stroke-width:1.0;"/><polygon fill="#181818" points="417.83,716.3883,409.4777,711.1692,412.8791,715.6892,408.3591,719.0906,417.83,716.3883" style="stroke:#181818;stroke-width:1.0;"/></g><!--link System Administrator to UC5--><g id="link_System Administrator_UC5"><path d="M230.47,441.3383 C293.19,448.5583 373.68,457.8183 439.64,465.4083 " fill="none" id="System Administrator-to-UC5" style="stroke:#181818;stroke-width:1.0;"/><polygon fill="#181818" points="444.48,465.9683,435.9973,460.964,439.5129,465.3957,435.0811,468.9113,444.48,465.9683" style="stroke:#181818;stroke-width:1.0;"/></g><!--link System Administrator to UC6--><g id="link_System Administrator_UC6"><path d="M230.35,469.8283 C239.04,475.8783 247.12,482.7383 254,490.4883 C264.92,502.7883 253.9,514.3483 266,525.4883 C284.51,542.5383 306.34,555.8483 329.61,566.2083 " fill="none" id="System Administrator-to-UC6" style="stroke:#181818;stroke-width:1.0;"/><polygon fill="#181818" points="334.17,568.1783,327.5005,560.9313,329.5817,566.1914,324.3216,568.2726,334.17,568.1783" style="stroke:#181818;stroke-width:1.0;"/></g><!--SRC=[ZP9DRkCm38NtEWMHJJSDqCdVia0dWzbsKAC7O6N69Y9BXaGZS0Uz-z2oat62BEf5O8NazzwZbOxiMupOk62FL4991-oS_0vU2luaM3sPXtJkWIRuOEiO6WA97Pd_bHRj4Iigf7S4aQoWhzoy8TLOXXFxQfoSLIxTVmteypF4ak8-k12X9-V2oNmP8omAVay4UzIVNuoLpXhZw20W0I9NjK390uo3D-P2XKNH9w46Ngo4c1Q02J2_mYYO3x1uzv4griweQr2Xk9XNNsE5dZznWCDBHLwkocU9ic6lZ8Zwx_NyoGz4JJ9tTiupkkeIsU4msffEshJ_0KjDd5g7FRZ1OWbj32r5uMbKU_BGdHImN3vVwZFeIg5_kW_brO2-XuJg2BqFdRVKQ43Gf58Jf9njabbbJ9Qwiv99QtMhjLQjjyaN87Ww0JMj2ptHn5rVk9bzTvyJVNrBtoYzw3uQ5YY64Bhlj-mcapTNvD5v_XWJRdEBsrwRBLJwx7BxVPVRM-nkSDcIvOFkMb0eFUfzrIcseZVIbs1v-9x0TzQ- -xxmBbyoymy0]--></g></svg>