<?xml version="1.0" encoding="UTF-8" standalone="no"?><svg xmlns="http://www.w3.org/2000/svg" xmlns:xlink="http://www.w3.org/1999/xlink" contentStyleType="text/css" height="936px" preserveAspectRatio="none" style="width:1853px;height:936px;background:#FFFFFF;" version="1.1" viewBox="0 0 1853 936" width="1853px" zoomAndPan="magnify"><defs/><g><rect fill="#FFFFFF" height="732.2031" style="stroke:#181818;stroke-width:1.0;" width="10" x="89" y="98.5547"/><rect fill="#FFFFFF" height="732.2031" style="stroke:#181818;stroke-width:1.0;" width="10" x="802" y="98.5547"/><rect fill="#FFFFFF" height="466.3203" style="stroke:#181818;stroke-width:1.0;" width="10" x="1093" y="326.8828"/><rect fill="#FFFFFF" height="37.5547" style="stroke:#181818;stroke-width:1.0;" width="10" x="1296" y="364.4375"/><rect fill="#FFFFFF" height="61.1094" style="stroke:#181818;stroke-width:1.0;" width="10" x="1445" y="463.1016"/><rect fill="#FFFFFF" height="123.2188" style="stroke:#181818;stroke-width:1.0;" width="10" x="1682" y="632.4297"/><line style="stroke:#181818;stroke-width:0.5;stroke-dasharray:5.0,5.0;" x1="94" x2="94" y1="88.5547" y2="848.7578"/><line style="stroke:#181818;stroke-width:0.5;stroke-dasharray:5.0,5.0;" x1="806.5" x2="806.5" y1="88.5547" y2="848.7578"/><line style="stroke:#181818;stroke-width:0.5;stroke-dasharray:5.0,5.0;" x1="1097.5" x2="1097.5" y1="283.0508" y2="848.7578"/><line style="stroke:#181818;stroke-width:0.5;stroke-dasharray:5.0,5.0;" x1="1300.5" x2="1300.5" y1="88.5547" y2="848.7578"/><line style="stroke:#181818;stroke-width:0.5;stroke-dasharray:5.0,5.0;" x1="1449.5" x2="1449.5" y1="88.5547" y2="848.7578"/><line style="stroke:#181818;stroke-width:0.5;stroke-dasharray:5.0,5.0;" x1="1686.5" x2="1686.5" y1="88.5547" y2="848.7578"/><text fill="#000000" font-family="sans-serif" font-size="20" lengthAdjust="spacing" textLength="172" x="5" y="84.3359">Unregistered User</text><ellipse cx="94" cy="13.5" fill="#E3E3E3" rx="8" ry="8" style="stroke:#181818;stroke-width:0.5;"/><path d="M94,21.5 L94,48.5 M81,29.5 L107,29.5 M94,48.5 L81,63.5 M94,48.5 L107,63.5 " fill="none" style="stroke:#181818;stroke-width:0.5;"/><text fill="#000000" font-family="sans-serif" font-size="20" lengthAdjust="spacing" textLength="172" x="5" y="867.0938">Unregistered User</text><ellipse cx="94" cy="879.8125" fill="#E3E3E3" rx="8" ry="8" style="stroke:#181818;stroke-width:0.5;"/><path d="M94,887.8125 L94,914.8125 M81,895.8125 L107,895.8125 M94,914.8125 L81,929.8125 M94,914.8125 L107,929.8125 " fill="none" style="stroke:#181818;stroke-width:0.5;"/><rect fill="#E3E3E3" height="37.5547" rx="2.5" ry="2.5" style="stroke:#181818;stroke-width:0.5;" width="171" x="721.5" y="50"/><text fill="#000000" font-family="sans-serif" font-size="20" lengthAdjust="spacing" textLength="157" x="728.5" y="76.3359">:ListPropertiesUI</text><rect fill="#E3E3E3" height="37.5547" rx="2.5" ry="2.5" style="stroke:#181818;stroke-width:0.5;" width="171" x="721.5" y="847.7578"/><text fill="#000000" font-family="sans-serif" font-size="20" lengthAdjust="spacing" textLength="157" x="728.5" y="874.0938">:ListPropertiesUI</text><rect fill="#E3E3E3" height="37.5547" rx="2.5" ry="2.5" style="stroke:#181818;stroke-width:0.5;" width="247" x="974.5" y="847.7578"/><text fill="#000000" font-family="sans-serif" font-size="20" lengthAdjust="spacing" textLength="233" x="981.5" y="874.0938">:ListPropertiesController</text><rect fill="#E3E3E3" height="37.5547" rx="2.5" ry="2.5" style="stroke:#181818;stroke-width:0.5;" width="139" x="1231.5" y="50"/><text fill="#000000" font-family="sans-serif" font-size="20" lengthAdjust="spacing" textLength="125" x="1238.5" y="76.3359">:Repositories</text><rect fill="#E3E3E3" height="37.5547" rx="2.5" ry="2.5" style="stroke:#181818;stroke-width:0.5;" width="139" x="1231.5" y="847.7578"/><text fill="#000000" font-family="sans-serif" font-size="20" lengthAdjust="spacing" textLength="125" x="1238.5" y="874.0938">:Repositories</text><rect fill="#E3E3E3" height="61.1094" rx="2.5" ry="2.5" style="stroke:#181818;stroke-width:0.5;" width="139" x="1380.5" y="26.4453"/><text fill="#000000" font-family="sans-serif" font-size="20" lengthAdjust="spacing" textLength="114" x="1393" y="52.7813">repositories</text><text fill="#000000" font-family="sans-serif" font-size="20" lengthAdjust="spacing" textLength="125" x="1387.5" y="76.3359">:Repositories</text><rect fill="#E3E3E3" height="61.1094" rx="2.5" ry="2.5" style="stroke:#181818;stroke-width:0.5;" width="139" x="1380.5" y="847.7578"/><text fill="#000000" font-family="sans-serif" font-size="20" lengthAdjust="spacing" textLength="114" x="1393" y="874.0938">repositories</text><text fill="#000000" font-family="sans-serif" font-size="20" lengthAdjust="spacing" textLength="125" x="1387.5" y="897.6484">:Repositories</text><rect fill="#E3E3E3" height="61.1094" rx="2.5" ry="2.5" style="stroke:#181818;stroke-width:0.5;" width="315" x="1529.5" y="26.4453"/><text fill="#000000" font-family="sans-serif" font-size="20" lengthAdjust="spacing" textLength="301" x="1536.5" y="52.7813">publishedPropertiesRepository:</text><text fill="#000000" font-family="sans-serif" font-size="20" lengthAdjust="spacing" textLength="293" x="1540.5" y="76.3359">PublishedPropertiesRepository</text><rect fill="#E3E3E3" height="61.1094" rx="2.5" ry="2.5" style="stroke:#181818;stroke-width:0.5;" width="315" x="1529.5" y="847.7578"/><text fill="#000000" font-family="sans-serif" font-size="20" lengthAdjust="spacing" textLength="301" x="1536.5" y="874.0938">publishedPropertiesRepository:</text><text fill="#000000" font-family="sans-serif" font-size="20" lengthAdjust="spacing" textLength="293" x="1540.5" y="897.6484">PublishedPropertiesRepository</text><rect fill="#FFFFFF" height="732.2031" style="stroke:#181818;stroke-width:1.0;" width="10" x="89" y="98.5547"/><rect fill="#FFFFFF" height="732.2031" style="stroke:#181818;stroke-width:1.0;" width="10" x="802" y="98.5547"/><rect fill="#FFFFFF" height="466.3203" style="stroke:#181818;stroke-width:1.0;" width="10" x="1093" y="326.8828"/><rect fill="#FFFFFF" height="37.5547" style="stroke:#181818;stroke-width:1.0;" width="10" x="1296" y="364.4375"/><rect fill="#FFFFFF" height="61.1094" style="stroke:#181818;stroke-width:1.0;" width="10" x="1445" y="463.1016"/><rect fill="#FFFFFF" height="123.2188" style="stroke:#181818;stroke-width:1.0;" width="10" x="1682" y="632.4297"/><polygon fill="#181818" points="110,124.1094,100,128.1094,110,132.1094,106,128.1094" style="stroke:#181818;stroke-width:1.0;"/><line style="stroke:#181818;stroke-width:1.0;stroke-dasharray:2.0,2.0;" x1="104" x2="801" y1="128.1094" y2="128.1094"/><text fill="#000000" font-family="sans-serif" font-size="20" font-weight="bold" lengthAdjust="spacing" textLength="13" x="116" y="121.8906">1</text><text fill="#000000" font-family="sans-serif" font-size="20" lengthAdjust="spacing" textLength="361" x="133" y="121.8906">shows property filter and sort options</text><polygon fill="#181818" points="790,161.6641,800,165.6641,790,169.6641,794,165.6641" style="stroke:#181818;stroke-width:1.0;"/><line style="stroke:#181818;stroke-width:1.0;" x1="99" x2="796" y1="165.6641" y2="165.6641"/><text fill="#000000" font-family="sans-serif" font-size="20" font-weight="bold" lengthAdjust="spacing" textLength="13" x="106" y="159.4453">2</text><text fill="#000000" font-family="sans-serif" font-size="20" lengthAdjust="spacing" textLength="662" x="123" y="159.4453">selects filter options (propertyType, buisnessType, numberOfRooms)</text><polygon fill="#181818" points="790,199.2188,800,203.2188,790,207.2188,794,203.2188" style="stroke:#181818;stroke-width:1.0;"/><line style="stroke:#181818;stroke-width:1.0;" x1="99" x2="796" y1="203.2188" y2="203.2188"/><text fill="#000000" font-family="sans-serif" font-size="20" font-weight="bold" lengthAdjust="spacing" textLength="13" x="106" y="197">3</text><text fill="#000000" font-family="sans-serif" font-size="20" lengthAdjust="spacing" textLength="326" x="123" y="197">selects sort options (price, parish)</text><polygon fill="#181818" points="790,236.7734,800,240.7734,790,244.7734,794,240.7734" style="stroke:#181818;stroke-width:1.0;"/><line style="stroke:#181818;stroke-width:1.0;" x1="99" x2="796" y1="240.7734" y2="240.7734"/><text fill="#000000" font-family="sans-serif" font-size="20" font-weight="bold" lengthAdjust="spacing" textLength="13" x="106" y="234.5547">4</text><text fill="#000000" font-family="sans-serif" font-size="20" lengthAdjust="spacing" textLength="208" x="123" y="234.5547">asks to list properties</text><polygon fill="#181818" points="962.5,274.3281,972.5,278.3281,962.5,282.3281,966.5,278.3281" style="stroke:#181818;stroke-width:1.0;"/><line style="stroke:#181818;stroke-width:1.0;" x1="812" x2="968.5" y1="278.3281" y2="278.3281"/><text fill="#000000" font-family="sans-serif" font-size="20" font-weight="bold" lengthAdjust="spacing" textLength="13" x="819" y="272.1094">5</text><text fill="#000000" font-family="sans-serif" font-size="20" lengthAdjust="spacing" textLength="58" x="836" y="272.1094">create</text><rect fill="#E3E3E3" height="37.5547" rx="2.5" ry="2.5" style="stroke:#181818;stroke-width:0.5;" width="247" x="974.5" y="248.7734"/><text fill="#000000" font-family="sans-serif" font-size="20" lengthAdjust="spacing" textLength="233" x="981.5" y="275.1094">:ListPropertiesController</text><polygon fill="#181818" points="1081,322.8828,1091,326.8828,1081,330.8828,1085,326.8828" style="stroke:#181818;stroke-width:1.0;"/><line style="stroke:#181818;stroke-width:1.0;" x1="812" x2="1087" y1="326.8828" y2="326.8828"/><text fill="#000000" font-family="sans-serif" font-size="20" font-weight="bold" lengthAdjust="spacing" textLength="13" x="819" y="320.6641">6</text><text fill="#000000" font-family="sans-serif" font-size="20" lengthAdjust="spacing" textLength="235" x="836" y="320.6641">getPublishedProperties()</text><polygon fill="#181818" points="1284,360.4375,1294,364.4375,1284,368.4375,1288,364.4375" style="stroke:#181818;stroke-width:1.0;"/><line style="stroke:#181818;stroke-width:1.0;" x1="1103" x2="1290" y1="364.4375" y2="364.4375"/><text fill="#000000" font-family="sans-serif" font-size="20" font-weight="bold" lengthAdjust="spacing" textLength="13" x="1110" y="358.2188">7</text><text fill="#000000" font-family="sans-serif" font-size="20" lengthAdjust="spacing" textLength="123" x="1127" y="358.2188">getInstance()</text><polygon fill="#181818" points="1114,397.9922,1104,401.9922,1114,405.9922,1110,401.9922" style="stroke:#181818;stroke-width:1.0;"/><line style="stroke:#181818;stroke-width:1.0;stroke-dasharray:2.0,2.0;" x1="1108" x2="1300" y1="401.9922" y2="401.9922"/><text fill="#000000" font-family="sans-serif" font-size="20" font-weight="bold" lengthAdjust="spacing" textLength="13" x="1120" y="395.7734">8</text><text fill="#000000" font-family="sans-serif" font-size="20" lengthAdjust="spacing" textLength="114" x="1137" y="395.7734">repositories</text><polygon fill="#181818" points="1433,459.1016,1443,463.1016,1433,467.1016,1437,463.1016" style="stroke:#181818;stroke-width:1.0;"/><line style="stroke:#181818;stroke-width:1.0;" x1="1103" x2="1439" y1="463.1016" y2="463.1016"/><text fill="#000000" font-family="sans-serif" font-size="20" font-weight="bold" lengthAdjust="spacing" textLength="13" x="1110" y="445.1055">9</text><text fill="#000000" font-family="sans-serif" font-size="20" lengthAdjust="spacing" textLength="124" x="1127" y="433.3281">getPublished</text><text fill="#000000" font-family="sans-serif" font-size="20" lengthAdjust="spacing" textLength="213" x="1127" y="456.8828">PropertiesRepository()</text><polygon fill="#181818" points="1114,520.2109,1104,524.2109,1114,528.2109,1110,524.2109" style="stroke:#181818;stroke-width:1.0;"/><line style="stroke:#181818;stroke-width:1.0;stroke-dasharray:2.0,2.0;" x1="1108" x2="1449" y1="524.2109" y2="524.2109"/><text fill="#000000" font-family="sans-serif" font-size="20" font-weight="bold" lengthAdjust="spacing" textLength="26" x="1120" y="506.2148">10</text><text fill="#000000" font-family="sans-serif" font-size="20" lengthAdjust="spacing" textLength="96" x="1150" y="494.4375">published</text><text fill="#000000" font-family="sans-serif" font-size="20" lengthAdjust="spacing" textLength="199" x="1150" y="517.9922">PropertiesRepository</text><polygon fill="#181818" points="1670,628.4297,1680,632.4297,1670,636.4297,1674,632.4297" style="stroke:#181818;stroke-width:1.0;"/><line style="stroke:#181818;stroke-width:1.0;" x1="1103" x2="1676" y1="632.4297" y2="632.4297"/><text fill="#000000" font-family="sans-serif" font-size="20" font-weight="bold" lengthAdjust="spacing" textLength="26" x="1110" y="590.8789">11</text><text fill="#000000" font-family="sans-serif" font-size="20" lengthAdjust="spacing" textLength="124" x="1140" y="555.5469">getPublished</text><text fill="#000000" font-family="sans-serif" font-size="20" lengthAdjust="spacing" textLength="229" x="1140" y="579.1016">Properties(propertType,</text><text fill="#000000" font-family="sans-serif" font-size="20" lengthAdjust="spacing" textLength="137" x="1146" y="602.6563">buisnessType,</text><text fill="#000000" font-family="sans-serif" font-size="20" lengthAdjust="spacing" textLength="303" x="1146" y="626.2109">numberOfRooms, price, parish)</text><rect fill="none" height="80.6641" style="stroke:#000000;stroke-width:1.5;" width="321" x="1526.5" y="640.4297"/><path d="M1526.5,640.4297 L1600.5,640.4297 L1600.5,655.4297 L1590.5,665.4297 L1526.5,665.4297 L1526.5,640.4297 " fill="#EEEEEE" style="stroke:#000000;stroke-width:2.0;"/><text fill="#000000" font-family="sans-serif" font-size="20" font-weight="bold" lengthAdjust="spacing" textLength="29" x="1539.5" y="661.7656">ref</text><text fill="#000000" font-family="sans-serif" font-size="20" lengthAdjust="spacing" textLength="235" x="1569.5" y="688.7656">Get Published Properties</text><text fill="#000000" font-family="sans-serif" font-size="20" lengthAdjust="spacing" textLength="6" x="1684" y="712.3203"> </text><polygon fill="#181818" points="1114,751.6484,1104,755.6484,1114,759.6484,1110,755.6484" style="stroke:#181818;stroke-width:1.0;"/><line style="stroke:#181818;stroke-width:1.0;stroke-dasharray:2.0,2.0;" x1="1108" x2="1686" y1="755.6484" y2="755.6484"/><text fill="#000000" font-family="sans-serif" font-size="20" font-weight="bold" lengthAdjust="spacing" textLength="26" x="1120" y="749.4297">12</text><text fill="#000000" font-family="sans-serif" font-size="20" lengthAdjust="spacing" textLength="227" x="1150" y="749.4297">publishedPropertiesList</text><polygon fill="#181818" points="823,789.2031,813,793.2031,823,797.2031,819,793.2031" style="stroke:#181818;stroke-width:1.0;"/><line style="stroke:#181818;stroke-width:1.0;stroke-dasharray:2.0,2.0;" x1="817" x2="1097" y1="793.2031" y2="793.2031"/><text fill="#000000" font-family="sans-serif" font-size="20" font-weight="bold" lengthAdjust="spacing" textLength="26" x="829" y="786.9844">13</text><text fill="#000000" font-family="sans-serif" font-size="20" lengthAdjust="spacing" textLength="227" x="859" y="786.9844">publishedPropertiesList</text><polygon fill="#181818" points="105,826.7578,95,830.7578,105,834.7578,101,830.7578" style="stroke:#181818;stroke-width:1.0;"/><line style="stroke:#181818;stroke-width:1.0;stroke-dasharray:2.0,2.0;" x1="99" x2="806" y1="830.7578" y2="830.7578"/><text fill="#000000" font-family="sans-serif" font-size="20" font-weight="bold" lengthAdjust="spacing" textLength="26" x="111" y="824.5391">14</text><text fill="#000000" font-family="sans-serif" font-size="20" lengthAdjust="spacing" textLength="589" x="141" y="824.5391">shows a list of properties filtered and sorted by users options</text><!--SRC=[bLJ1Rjim3BtxAuXSsXKBCEoOGo_5EWGeq21fRhd8Dfq8SKH3bDjbNp_QicCxTjHE9ylaUwIUdiX7RGfbrIcdv8Wff9YfCdVFPDn6_qNu-IFYDWLEP2WvM3eXE5jYBrAevAZsk77d7C5YufJPv_q4FgYKFhJPGwPonYXIfIDJdcAqKNHtq2b2HkHY-XEfn965sTPOt6jsQAMjBQETWM8egwz8E9rETA6CWzdYHR9MbWgKdyZRPPsuNGQpdkI0blAyeNrwMxzSvQ-n8DRIYcJNEUjVgzVDCCdsSdPc3AdZGqXHnhdc0wPTBnVOUR4pgr2y9WrcH9Ly-bqvRAII1SswH4IRwExokrhR9SpdZnu22xaj-c0eFFyPCftBDO0oAJ1P1rGuJOO731ug748b19YB2RX5DW2uRodVpWL-XxZKR93PxxmRNhCrqOc_VO6ytqj5hHDX4R55d11SyP714OY8hZsZQ3ZIux5snSE3G1ABebjq8qKIzkWchkL-sCP5_zfjWr2rQYgXh7tcEPU6vIKbU4Kq8FEs7CMhvPdcJPiBwDjr14ZnCygsmPhcwj1Yt0atXlhsRsEoRr-Wwxi8LmaTvKQLzYZ1jnGuOclashaxCtIox0TU5bFUzkP0a_3JdfOg0teNT_y_j5g_qNL8wA3Jzu8o0AJWP2oivBnxAXC3i1hDeKlyPEBrPzpmWjid_vMQlNhZzpav7vKV8PJrfaWpyKJCTbhAPto6Ke0y6fozcjLCxctzyFu7]--></g></svg>