<?xml version="1.0" encoding="UTF-8" standalone="no"?><svg xmlns="http://www.w3.org/2000/svg" xmlns:xlink="http://www.w3.org/1999/xlink" contentStyleType="text/css" height="1097px" preserveAspectRatio="none" style="width:1146px;height:1097px;background:#FFFFFF;" version="1.1" viewBox="0 0 1146 1097" width="1146px" zoomAndPan="magnify"><defs/><g><!--class Property--><g id="elem_Property"><rect codeLine="10" fill="#F1F1F1" height="167.7734" id="Property" rx="2.5" ry="2.5" style="stroke:#181818;stroke-width:0.5;" width="290" x="575.5" y="923"/><ellipse cx="676" cy="940" fill="#ADD1B2" rx="12" ry="12" style="stroke:#181818;stroke-width:1.0;"/><path d="M678.8066,947.0801 Q678.123,947.4316 677.3711,947.6074 Q676.6191,947.7832 675.7891,947.7832 Q672.8398,947.7832 671.2871,945.8398 Q669.7344,943.8965 669.7344,940.2246 Q669.7344,936.543 671.2871,934.5996 Q672.8398,932.6563 675.7891,932.6563 Q676.6191,932.6563 677.3809,932.832 Q678.1426,933.0078 678.8066,933.3594 L678.8066,936.5625 Q678.0645,935.8789 677.3662,935.5615 Q676.668,935.2441 675.9258,935.2441 Q674.3438,935.2441 673.5381,936.499 Q672.7324,937.7539 672.7324,940.2246 Q672.7324,942.6855 673.5381,943.9404 Q674.3438,945.1953 675.9258,945.1953 Q676.668,945.1953 677.3662,944.8779 Q678.0645,944.5605 678.8066,943.877 Z " fill="#000000"/><text fill="#000000" font-family="sans-serif" font-size="20" lengthAdjust="spacing" textLength="80" x="698" y="947.5586">Property</text><line style="stroke:#181818;stroke-width:0.5;" x1="576.5" x2="864.5" y1="957" y2="957"/><text fill="#000000" font-family="sans-serif" font-size="20" lengthAdjust="spacing" textLength="150" x="581.5" y="980.3359">-String location</text><text fill="#000000" font-family="sans-serif" font-size="20" lengthAdjust="spacing" textLength="126" x="581.5" y="1003.8906">-double area</text><text fill="#000000" font-family="sans-serif" font-size="20" lengthAdjust="spacing" textLength="133" x="581.5" y="1027.4453">-double price</text><text fill="#000000" font-family="sans-serif" font-size="20" lengthAdjust="spacing" textLength="278" x="581.5" y="1051">-double distanceFromCenter</text><text fill="#000000" font-family="sans-serif" font-size="20" lengthAdjust="spacing" textLength="118" x="581.5" y="1074.5547">-PHOTOS???</text><line style="stroke:#181818;stroke-width:0.5;" x1="576.5" x2="864.5" y1="1082.7734" y2="1082.7734"/></g><!--class PublishedProperty--><g id="elem_PublishedProperty"><rect codeLine="18" fill="#F1F1F1" height="167.7734" id="PublishedProperty" rx="2.5" ry="2.5" style="stroke:#181818;stroke-width:0.5;" width="254" x="593.5" y="670"/><ellipse cx="630.2" cy="687" fill="#ADD1B2" rx="12" ry="12" style="stroke:#181818;stroke-width:1.0;"/><path d="M633.0066,694.0801 Q632.323,694.4316 631.5711,694.6074 Q630.8191,694.7832 629.9891,694.7832 Q627.0398,694.7832 625.4871,692.8398 Q623.9344,690.8965 623.9344,687.2246 Q623.9344,683.543 625.4871,681.5996 Q627.0398,679.6563 629.9891,679.6563 Q630.8191,679.6563 631.5809,679.832 Q632.3426,680.0078 633.0066,680.3594 L633.0066,683.5625 Q632.2645,682.8789 631.5662,682.5615 Q630.868,682.2441 630.1258,682.2441 Q628.5438,682.2441 627.7381,683.499 Q626.9324,684.7539 626.9324,687.2246 Q626.9324,689.6855 627.7381,690.9404 Q628.5438,692.1953 630.1258,692.1953 Q630.868,692.1953 631.5662,691.8779 Q632.2645,691.5605 633.0066,690.877 Z " fill="#000000"/><text fill="#000000" font-family="sans-serif" font-size="20" lengthAdjust="spacing" textLength="174" x="649.8" y="694.5586">PublishedProperty</text><line style="stroke:#181818;stroke-width:0.5;" x1="594.5" x2="846.5" y1="704" y2="704"/><text fill="#000000" font-family="sans-serif" font-size="20" lengthAdjust="spacing" textLength="242" x="599.5" y="727.3359">-Property typeOfProperty</text><text fill="#000000" font-family="sans-serif" font-size="20" lengthAdjust="spacing" textLength="221" x="599.5" y="750.8906">-String typeOfBusiness</text><text fill="#000000" font-family="sans-serif" font-size="20" lengthAdjust="spacing" textLength="214" x="599.5" y="774.4453">-String publishedDate</text><text fill="#000000" font-family="sans-serif" font-size="20" lengthAdjust="spacing" textLength="192" x="599.5" y="798">-Agent publishedBy</text><text fill="#000000" font-family="sans-serif" font-size="20" lengthAdjust="spacing" textLength="182" x="599.5" y="821.5547">-double comission</text><line style="stroke:#181818;stroke-width:0.5;" x1="594.5" x2="846.5" y1="829.7734" y2="829.7734"/></g><!--class PublishedPropertiesRepository--><g id="elem_PublishedPropertiesRepository"><rect codeLine="26" fill="#F1F1F1" height="144.2188" id="PublishedPropertiesRepository" rx="2.5" ry="2.5" style="stroke:#181818;stroke-width:0.5;" width="463" x="489" y="441"/><ellipse cx="569.5" cy="458" fill="#ADD1B2" rx="12" ry="12" style="stroke:#181818;stroke-width:1.0;"/><path d="M572.3066,465.0801 Q571.623,465.4316 570.8711,465.6074 Q570.1191,465.7832 569.2891,465.7832 Q566.3398,465.7832 564.7871,463.8398 Q563.2344,461.8965 563.2344,458.2246 Q563.2344,454.543 564.7871,452.5996 Q566.3398,450.6563 569.2891,450.6563 Q570.1191,450.6563 570.8809,450.832 Q571.6426,451.0078 572.3066,451.3594 L572.3066,454.5625 Q571.5645,453.8789 570.8662,453.5615 Q570.168,453.2441 569.4258,453.2441 Q567.8438,453.2441 567.0381,454.499 Q566.2324,455.7539 566.2324,458.2246 Q566.2324,460.6855 567.0381,461.9404 Q567.8438,463.1953 569.4258,463.1953 Q570.168,463.1953 570.8662,462.8779 Q571.5645,462.5605 572.3066,461.877 Z " fill="#000000"/><text fill="#000000" font-family="sans-serif" font-size="20" lengthAdjust="spacing" textLength="293" x="591.5" y="465.5586">PublishedPropertiesRepository</text><line style="stroke:#181818;stroke-width:0.5;" x1="490" x2="951" y1="475" y2="475"/><text fill="#000000" font-family="sans-serif" font-size="20" lengthAdjust="spacing" textLength="451" x="495" y="498.3359">-List&lt;PublishedProperty&gt; publishedProperties</text><line style="stroke:#181818;stroke-width:0.5;" x1="490" x2="951" y1="506.5547" y2="506.5547"/><text fill="#000000" font-family="sans-serif" font-size="20" lengthAdjust="spacing" textLength="322" x="495" y="529.8906">+getPublishedPropertiesByFilter()</text><text fill="#000000" font-family="sans-serif" font-size="20" lengthAdjust="spacing" textLength="251" x="495" y="553.4453">+getPublishedProperties()</text><text fill="#000000" font-family="sans-serif" font-size="20" lengthAdjust="spacing" textLength="164" x="495" y="577">+sortProperties()</text></g><!--class Repositories--><g id="elem_Repositories"><rect codeLine="34" fill="#F1F1F1" height="144.2188" id="Repositories" rx="2.5" ry="2.5" style="stroke:#181818;stroke-width:0.5;" width="618" x="170.5" y="212"/><ellipse cx="415.5" cy="229" fill="#ADD1B2" rx="12" ry="12" style="stroke:#181818;stroke-width:1.0;"/><path d="M418.3066,236.0801 Q417.623,236.4316 416.8711,236.6074 Q416.1191,236.7832 415.2891,236.7832 Q412.3398,236.7832 410.7871,234.8398 Q409.2344,232.8965 409.2344,229.2246 Q409.2344,225.543 410.7871,223.5996 Q412.3398,221.6563 415.2891,221.6563 Q416.1191,221.6563 416.8809,221.832 Q417.6426,222.0078 418.3066,222.3594 L418.3066,225.5625 Q417.5645,224.8789 416.8662,224.5615 Q416.168,224.2441 415.4258,224.2441 Q413.8438,224.2441 413.0381,225.499 Q412.2324,226.7539 412.2324,229.2246 Q412.2324,231.6855 413.0381,232.9404 Q413.8438,234.1953 415.4258,234.1953 Q416.168,234.1953 416.8662,233.8779 Q417.5645,233.5605 418.3066,232.877 Z " fill="#000000"/><text fill="#000000" font-family="sans-serif" font-size="20" lengthAdjust="spacing" textLength="119" x="437.5" y="236.5586">Repositories</text><line style="stroke:#181818;stroke-width:0.5;" x1="171.5" x2="787.5" y1="246" y2="246"/><text fill="#000000" font-family="sans-serif" font-size="20" lengthAdjust="spacing" textLength="606" x="176.5" y="269.3359">-PublishedPropertiesRepository publishedPropertiesRepository</text><line style="stroke:#181818;stroke-width:0.5;" x1="171.5" x2="787.5" y1="277.5547" y2="277.5547"/><text fill="#000000" font-family="sans-serif" font-size="20" lengthAdjust="spacing" textLength="149" x="176.5" y="300.8906">+Repositories()</text><text fill="#000000" font-family="sans-serif" font-size="20" lengthAdjust="spacing" textLength="276" x="176.5" y="324.4453">+getInstance() : Repositories</text><text fill="#000000" font-family="sans-serif" font-size="20" lengthAdjust="spacing" textLength="353" x="176.5" y="348">+getPublishedPropertiesRepository()</text></g><!--class ListPropertiesController--><g id="elem_ListPropertiesController"><rect codeLine="41" fill="#F1F1F1" height="144.2188" id="ListPropertiesController" rx="2.5" ry="2.5" style="stroke:#181818;stroke-width:0.5;" width="618" x="521.5" y="7"/><ellipse cx="712.5" cy="24" fill="#ADD1B2" rx="12" ry="12" style="stroke:#181818;stroke-width:1.0;"/><path d="M715.3066,31.0801 Q714.623,31.4316 713.8711,31.6074 Q713.1191,31.7832 712.2891,31.7832 Q709.3398,31.7832 707.7871,29.8398 Q706.2344,27.8965 706.2344,24.2246 Q706.2344,20.543 707.7871,18.5996 Q709.3398,16.6563 712.2891,16.6563 Q713.1191,16.6563 713.8809,16.832 Q714.6426,17.0078 715.3066,17.3594 L715.3066,20.5625 Q714.5645,19.8789 713.8662,19.5615 Q713.168,19.2441 712.4258,19.2441 Q710.8438,19.2441 710.0381,20.499 Q709.2324,21.7539 709.2324,24.2246 Q709.2324,26.6855 710.0381,27.9404 Q710.8438,29.1953 712.4258,29.1953 Q713.168,29.1953 713.8662,28.8779 Q714.5645,28.5605 715.3066,27.877 Z " fill="#000000"/><text fill="#000000" font-family="sans-serif" font-size="20" lengthAdjust="spacing" textLength="227" x="734.5" y="31.5586">ListPropertiesController</text><line style="stroke:#181818;stroke-width:0.5;" x1="522.5" x2="1138.5" y1="41" y2="41"/><text fill="#000000" font-family="sans-serif" font-size="20" lengthAdjust="spacing" textLength="606" x="527.5" y="64.3359">-PublishedPropertiesRepository publishedPropertiesRepository</text><line style="stroke:#181818;stroke-width:0.5;" x1="522.5" x2="1138.5" y1="72.5547" y2="72.5547"/><text fill="#000000" font-family="sans-serif" font-size="20" lengthAdjust="spacing" textLength="257" x="527.5" y="95.8906">+ListPropertiesController()</text><text fill="#000000" font-family="sans-serif" font-size="20" lengthAdjust="spacing" textLength="552" x="527.5" y="119.4453">+ListPropertiesController(publishedPropertiesRepository)</text><text fill="#000000" font-family="sans-serif" font-size="20" lengthAdjust="spacing" textLength="353" x="527.5" y="143">+getPublishedPropertiesRepository()</text></g><!--class ListPropertiesUI--><g id="elem_ListPropertiesUI"><rect codeLine="48" fill="#F1F1F1" height="144.2188" id="ListPropertiesUI" rx="2.5" ry="2.5" style="stroke:#181818;stroke-width:0.5;" width="479" x="7" y="7"/><ellipse cx="166.5" cy="24" fill="#ADD1B2" rx="12" ry="12" style="stroke:#181818;stroke-width:1.0;"/><path d="M169.3066,31.0801 Q168.623,31.4316 167.8711,31.6074 Q167.1191,31.7832 166.2891,31.7832 Q163.3398,31.7832 161.7871,29.8398 Q160.2344,27.8965 160.2344,24.2246 Q160.2344,20.543 161.7871,18.5996 Q163.3398,16.6563 166.2891,16.6563 Q167.1191,16.6563 167.8809,16.832 Q168.6426,17.0078 169.3066,17.3594 L169.3066,20.5625 Q168.5645,19.8789 167.8662,19.5615 Q167.168,19.2441 166.4258,19.2441 Q164.8438,19.2441 164.0381,20.499 Q163.2324,21.7539 163.2324,24.2246 Q163.2324,26.6855 164.0381,27.9404 Q164.8438,29.1953 166.4258,29.1953 Q167.168,29.1953 167.8662,28.8779 Q168.5645,28.5605 169.3066,27.877 Z " fill="#000000"/><text fill="#000000" font-family="sans-serif" font-size="20" lengthAdjust="spacing" textLength="151" x="188.5" y="31.5586">ListPropertiesUI</text><line style="stroke:#181818;stroke-width:0.5;" x1="8" x2="485" y1="41" y2="41"/><text fill="#000000" font-family="sans-serif" font-size="20" lengthAdjust="spacing" textLength="467" x="13" y="64.3359">-ListPropertiesController listPropertiesController</text><line style="stroke:#181818;stroke-width:0.5;" x1="8" x2="485" y1="72.5547" y2="72.5547"/><text fill="#000000" font-family="sans-serif" font-size="20" lengthAdjust="spacing" textLength="217" x="13" y="95.8906">+requestFilterOption()</text><text fill="#000000" font-family="sans-serif" font-size="20" lengthAdjust="spacing" textLength="211" x="13" y="119.4453">+requestSortCriteria()</text><text fill="#000000" font-family="sans-serif" font-size="20" lengthAdjust="spacing" textLength="156" x="13" y="143">+getController()</text></g><!--link Repositories to Repositories--><g id="link_Repositories_Repositories"><path codeLine="56" d="M788.83,270.01 C810.37,273.2 823.5,277.87 823.5,284 C823.5,289.51 812.9,293.83 795.13,296.97 " fill="none" id="Repositories-to-Repositories" style="stroke:#181818;stroke-width:1.0;"/><polygon fill="#181818" points="790.32,297.75,799.8435,300.2607,795.2558,296.9511,798.5653,292.3634,790.32,297.75" style="stroke:#181818;stroke-width:1.0;"/><text fill="#000000" font-family="sans-serif" font-size="20" lengthAdjust="spacing" textLength="89" x="829.5" y="291.8359">instances</text></g><!--link ListPropertiesUI to ListPropertiesController--><g id="link_ListPropertiesUI_ListPropertiesController"><path codeLine="58" d="M486.32,79 C495.15,79 504.8,79 514.81,79 " fill="none" id="ListPropertiesUI-to-ListPropertiesController" style="stroke:#181818;stroke-width:1.0;stroke-dasharray:7.0,7.0;"/><polygon fill="#181818" points="519.57,79,510.57,75,514.57,79,510.57,83,519.57,79" style="stroke:#181818;stroke-width:1.0;"/></g><!--link ListPropertiesController to Repositories--><g id="link_ListPropertiesController_Repositories"><path codeLine="60" d="M707.24,151.28 C675.31,169.75 640.84,189.69 608.62,208.32 " fill="none" id="ListPropertiesController-to-Repositories" style="stroke:#181818;stroke-width:1.0;stroke-dasharray:7.0,7.0;"/><polygon fill="#181818" points="604.36,210.79,614.1515,209.7284,608.6835,208.2786,610.1333,202.8107,604.36,210.79" style="stroke:#181818;stroke-width:1.0;"/></g><!--link Repositories to PublishedPropertiesRepository--><g id="link_Repositories_PublishedPropertiesRepository"><path codeLine="62" d="M555.09,356.2 C582.1,381.64 612.63,410.4 640.04,436.21 " fill="none" id="Repositories-to-PublishedPropertiesRepository" style="stroke:#181818;stroke-width:1.0;"/><polygon fill="#181818" points="643.66,439.62,639.8477,430.5389,640.019,436.1932,634.3647,436.3645,643.66,439.62" style="stroke:#181818;stroke-width:1.0;"/><text fill="#000000" font-family="sans-serif" font-size="20" lengthAdjust="spacing" textLength="33" x="607.5" y="406.3359">has</text><text fill="#000000" font-family="sans-serif" font-size="20" lengthAdjust="spacing" textLength="13" x="548.6751" y="383.5296">1</text><text fill="#000000" font-family="sans-serif" font-size="20" lengthAdjust="spacing" textLength="13" x="623.6645" y="428.7595">1</text></g><!--link ListPropertiesController to PublishedPropertiesRepository--><g id="link_ListPropertiesController_PublishedPropertiesRepository"><path codeLine="64" d="M881.89,151.41 C904.28,182.51 925.5,212 925.5,212 C925.5,212 925.5,356 925.5,356 C925.5,356 871.8,396.86 819.37,436.76 " fill="none" id="ListPropertiesController-to-PublishedPropertiesRepository" style="stroke:#181818;stroke-width:1.0;stroke-dasharray:7.0,7.0;"/><polygon fill="#181818" points="815.51,439.7,825.096,437.4398,819.4911,436.6749,820.2559,431.07,815.51,439.7" style="stroke:#181818;stroke-width:1.0;"/></g><!--link PublishedPropertiesRepository to PublishedProperty--><g id="link_PublishedPropertiesRepository_PublishedProperty"><path codeLine="66" d="M720.5,585.38 C720.5,609.86 720.5,637.56 720.5,663.3 " fill="none" id="PublishedPropertiesRepository-to-PublishedProperty" style="stroke:#181818;stroke-width:1.0;"/><polygon fill="#181818" points="720.5,668.28,724.5,659.28,720.5,663.28,716.5,659.28,720.5,668.28" style="stroke:#181818;stroke-width:1.0;"/><text fill="#000000" font-family="sans-serif" font-size="20" lengthAdjust="spacing" textLength="33" x="721.5" y="635.3359">has</text><text fill="#000000" font-family="sans-serif" font-size="20" lengthAdjust="spacing" textLength="13" x="706.9008" y="612.4641">1</text><text fill="#000000" font-family="sans-serif" font-size="20" lengthAdjust="spacing" textLength="10" x="710.0547" y="657.6474">*</text></g><!--link PublishedProperty to Property--><g id="link_PublishedProperty_Property"><path codeLine="68" d="M720.5,838.23 C720.5,863.23 720.5,890.75 720.5,916.16 " fill="none" id="PublishedProperty-to-Property" style="stroke:#181818;stroke-width:1.0;"/><polygon fill="#181818" points="720.5,921.05,724.5,912.05,720.5,916.05,716.5,912.05,720.5,921.05" style="stroke:#181818;stroke-width:1.0;"/><text fill="#000000" font-family="sans-serif" font-size="20" lengthAdjust="spacing" textLength="33" x="721.5" y="888.3359">has</text><text fill="#000000" font-family="sans-serif" font-size="20" lengthAdjust="spacing" textLength="13" x="706.982" y="865.2255">1</text><text fill="#000000" font-family="sans-serif" font-size="20" lengthAdjust="spacing" textLength="13" x="706.9414" y="910.6955">1</text></g><!--SRC=[hPJFRjim3CRlUWeXbpOh4dGx1aE29aEm00DIpDi3g3PZ2r4aJPGnkCNUVNJyLqdj7jfS0lEZoDz7qSQZr5OuSL8cFaB24pY8NFcjqJwIpy2_tBCRR7BuoMWJPywSW7kN0-iKA-AZI27oXGBk8FP2fwgVW9b8p5-fKtuG2lkAaXfyOO5ReuhoeT-n5OtpXlLEnKeWFdZlv5FkOHSRVUQzP-n6mS5pRxYJQUPv8aiSQTZv17zqneBpnGlZz9lnY2eG5DaNbAJhQ6Bo9p8Y78WmOfsC8Gmb4ibj35kQomQq1rVhZz_tl_RHQhLY_rZJdKv8p21fC7Z3qGPAj_j3ynXILjewHveAOgZPflGtuHl2XvHuEcLTXEInEKd4qlKWe0Jy2TQWzCPri3_8yjShBykkKtVwVEAEf-1VARqkjbBHm6wdescjZBG5GPYuQ_2MaeHkgADkx9XQT-oNxLFkT7NfjrE-2996ZNJbA_OAlPncbxEXLyyPfS1ze8sX5gsbmOJHwjDtk_sz8vUpmGce0O7TEVYJ0_fgV_QsV7UfInEEQ54sJf8aHHacmC1qYHDip6mPRj22o_g6aR4hvFboS62NsJqpytdOv09Xydd2PyHH_e_V-89d0jzeD5g1iV46BSgdoIkVhBhzjH0ukCZ-3m00]--></g></svg>