<?xml version="1.0" encoding="UTF-8" standalone="no"?><svg xmlns="http://www.w3.org/2000/svg" xmlns:xlink="http://www.w3.org/1999/xlink" contentStyleType="text/css" height="1610px" preserveAspectRatio="none" style="width:2559px;height:1610px;background:#FFFFFF;" version="1.1" viewBox="0 0 2559 1610" width="2559px" zoomAndPan="magnify"><defs/><g><!--class Property--><g id="elem_Property"><rect codeLine="10" fill="#F1F1F1" height="261.9922" id="Property" rx="2.5" ry="2.5" style="stroke:#181818;stroke-width:0.5;" width="310" x="1591" y="1089"/><ellipse cx="1701.5" cy="1106" fill="#ADD1B2" rx="12" ry="12" style="stroke:#181818;stroke-width:1.0;"/><path d="M1704.3066,1113.0801 Q1703.623,1113.4316 1702.8711,1113.6074 Q1702.1191,1113.7832 1701.2891,1113.7832 Q1698.3398,1113.7832 1696.7871,1111.8398 Q1695.2344,1109.8965 1695.2344,1106.2246 Q1695.2344,1102.543 1696.7871,1100.5996 Q1698.3398,1098.6563 1701.2891,1098.6563 Q1702.1191,1098.6563 1702.8809,1098.832 Q1703.6426,1099.0078 1704.3066,1099.3594 L1704.3066,1102.5625 Q1703.5645,1101.8789 1702.8662,1101.5615 Q1702.168,1101.2441 1701.4258,1101.2441 Q1699.8438,1101.2441 1699.0381,1102.499 Q1698.2324,1103.7539 1698.2324,1106.2246 Q1698.2324,1108.6855 1699.0381,1109.9404 Q1699.8438,1111.1953 1701.4258,1111.1953 Q1702.168,1111.1953 1702.8662,1110.8779 Q1703.5645,1110.5605 1704.3066,1109.877 Z " fill="#000000"/><text fill="#000000" font-family="sans-serif" font-size="20" lengthAdjust="spacing" textLength="80" x="1723.5" y="1113.5586">Property</text><line style="stroke:#181818;stroke-width:0.5;" x1="1592" x2="1900" y1="1123" y2="1123"/><text fill="#000000" font-family="sans-serif" font-size="20" lengthAdjust="spacing" textLength="138" x="1597" y="1146.3359">-area : double</text><text fill="#000000" font-family="sans-serif" font-size="20" lengthAdjust="spacing" textLength="290" x="1597" y="1169.8906">-distanceFromCenter : double</text><text fill="#000000" font-family="sans-serif" font-size="20" lengthAdjust="spacing" textLength="145" x="1597" y="1193.4453">-price : double</text><text fill="#000000" font-family="sans-serif" font-size="20" lengthAdjust="spacing" textLength="185" x="1597" y="1217">-address : Address</text><line style="stroke:#181818;stroke-width:0.5;" x1="1592" x2="1900" y1="1225.2188" y2="1225.2188"/><text fill="#000000" font-family="sans-serif" font-size="20" lengthAdjust="spacing" textLength="236" x="1597" y="1248.5547">+getAddress() : Address</text><text fill="#000000" font-family="sans-serif" font-size="20" lengthAdjust="spacing" textLength="189" x="1597" y="1272.1094">+getArea() : double</text><text fill="#000000" font-family="sans-serif" font-size="20" lengthAdjust="spacing" textLength="298" x="1597" y="1295.6641">+getDistanceFromCenter() : int</text><text fill="#000000" font-family="sans-serif" font-size="20" lengthAdjust="spacing" textLength="191" x="1597" y="1319.2188">+getPrice() : double</text><text fill="#000000" font-family="sans-serif" font-size="20" lengthAdjust="spacing" textLength="179" x="1597" y="1342.7734">+toString() : String</text></g><!--class Announcement--><g id="elem_Announcement"><rect codeLine="22" fill="#F1F1F1" height="285.5469" id="Announcement" rx="2.5" ry="2.5" style="stroke:#181818;stroke-width:0.5;" width="354" x="1569" y="718"/><ellipse cx="1669.5" cy="735" fill="#ADD1B2" rx="12" ry="12" style="stroke:#181818;stroke-width:1.0;"/><path d="M1672.3066,742.0801 Q1671.623,742.4316 1670.8711,742.6074 Q1670.1191,742.7832 1669.2891,742.7832 Q1666.3398,742.7832 1664.7871,740.8398 Q1663.2344,738.8965 1663.2344,735.2246 Q1663.2344,731.543 1664.7871,729.5996 Q1666.3398,727.6563 1669.2891,727.6563 Q1670.1191,727.6563 1670.8809,727.832 Q1671.6426,728.0078 1672.3066,728.3594 L1672.3066,731.5625 Q1671.5645,730.8789 1670.8662,730.5615 Q1670.168,730.2441 1669.4258,730.2441 Q1667.8438,730.2441 1667.0381,731.499 Q1666.2324,732.7539 1666.2324,735.2246 Q1666.2324,737.6855 1667.0381,738.9404 Q1667.8438,740.1953 1669.4258,740.1953 Q1670.168,740.1953 1670.8662,739.8779 Q1671.5645,739.5605 1672.3066,738.877 Z " fill="#000000"/><text fill="#000000" font-family="sans-serif" font-size="20" lengthAdjust="spacing" textLength="144" x="1691.5" y="742.5586">Announcement</text><line style="stroke:#181818;stroke-width:0.5;" x1="1570" x2="1922" y1="752" y2="752"/><text fill="#000000" font-family="sans-serif" font-size="20" lengthAdjust="spacing" textLength="324" x="1575" y="775.3359">-typeOfProperty : TypeOfProperty</text><text fill="#000000" font-family="sans-serif" font-size="20" lengthAdjust="spacing" textLength="342" x="1575" y="798.8906">-transactionType : TransactionType</text><text fill="#000000" font-family="sans-serif" font-size="20" lengthAdjust="spacing" textLength="190" x="1575" y="822.4453">-publishDate : Date</text><text fill="#000000" font-family="sans-serif" font-size="20" lengthAdjust="spacing" textLength="247" x="1575" y="846">-comission : Commission</text><text fill="#000000" font-family="sans-serif" font-size="20" lengthAdjust="spacing" textLength="255" x="1575" y="869.5547">-photos ArrayList&lt;Photo&gt;</text><text fill="#000000" font-family="sans-serif" font-size="20" lengthAdjust="spacing" textLength="217" x="1575" y="893.1094">-isPublished : boolean</text><text fill="#000000" font-family="sans-serif" font-size="20" lengthAdjust="spacing" textLength="74" x="1575" y="916.6641">-id : int</text><text fill="#000000" font-family="sans-serif" font-size="20" lengthAdjust="spacing" textLength="150" x="1575" y="940.2188">-idCounter : int</text><line style="stroke:#181818;stroke-width:0.5;" x1="1570" x2="1922" y1="948.4375" y2="948.4375"/><text fill="#000000" font-family="sans-serif" font-size="20" lengthAdjust="spacing" textLength="238" x="1575" y="971.7734">+getProperty() : Property</text><text fill="#000000" font-family="sans-serif" font-size="20" lengthAdjust="spacing" textLength="179" x="1575" y="995.3281">+toString() : String</text></g><!--class AnnouncementRepository--><g id="elem_AnnouncementRepository"><rect codeLine="35" fill="#F1F1F1" height="167.7734" id="AnnouncementRepository" rx="2.5" ry="2.5" style="stroke:#181818;stroke-width:0.5;" width="1415" x="1038.5" y="465"/><ellipse cx="1618.5" cy="482" fill="#ADD1B2" rx="12" ry="12" style="stroke:#181818;stroke-width:1.0;"/><path d="M1621.3066,489.0801 Q1620.623,489.4316 1619.8711,489.6074 Q1619.1191,489.7832 1618.2891,489.7832 Q1615.3398,489.7832 1613.7871,487.8398 Q1612.2344,485.8965 1612.2344,482.2246 Q1612.2344,478.543 1613.7871,476.5996 Q1615.3398,474.6563 1618.2891,474.6563 Q1619.1191,474.6563 1619.8809,474.832 Q1620.6426,475.0078 1621.3066,475.3594 L1621.3066,478.5625 Q1620.5645,477.8789 1619.8662,477.5615 Q1619.168,477.2441 1618.4258,477.2441 Q1616.8438,477.2441 1616.0381,478.499 Q1615.2324,479.7539 1615.2324,482.2246 Q1615.2324,484.6855 1616.0381,485.9404 Q1616.8438,487.1953 1618.4258,487.1953 Q1619.168,487.1953 1619.8662,486.8779 Q1620.5645,486.5605 1621.3066,485.877 Z " fill="#000000"/><text fill="#000000" font-family="sans-serif" font-size="20" lengthAdjust="spacing" textLength="246" x="1640.5" y="489.5586">AnnouncementRepository</text><line style="stroke:#181818;stroke-width:0.5;" x1="1039.5" x2="2452.5" y1="499" y2="499"/><line style="stroke:#181818;stroke-width:0.5;" x1="1039.5" x2="2452.5" y1="507" y2="507"/><text fill="#000000" font-family="sans-serif" font-size="20" lengthAdjust="spacing" textLength="743" x="1044.5" y="530.3359">+getAllAnnouncementsSortedByDefualtCriteria() : ArrayList&lt;Announcement&gt;</text><text fill="#000000" font-family="sans-serif" font-size="20" lengthAdjust="spacing" textLength="1008" x="1044.5" y="553.8906">+getAllAnnouncementsSortedBySortCriteria(String sortCriteria, String order) : ArrayList&lt;Announcement&gt;</text><text fill="#000000" font-family="sans-serif" font-size="20" lengthAdjust="spacing" textLength="1403" x="1044.5" y="577.4453">+getFilteredAnnouncements(TypeOfProperty typeOfProperty, TransactionType transactionType, int numberOfRooms) : ArrayList&lt;Announcement&gt;</text><text fill="#000000" font-family="sans-serif" font-size="20" lengthAdjust="spacing" textLength="1017" x="1044.5" y="601">+getFilteredAndSortedAnnouncements(TypeOfProperty typeOfProperty, TransactionType transactionType,</text><text fill="#000000" font-family="sans-serif" font-size="20" lengthAdjust="spacing" textLength="789" x="1050.5" y="624.5547">int numberOfRooms, String sortCriteria, String order) : ArrayList&lt;Announcement&gt;</text></g><!--class Repositories--><g id="elem_Repositories"><rect codeLine="42" fill="#F1F1F1" height="120.6641" id="Repositories" rx="2.5" ry="2.5" style="stroke:#181818;stroke-width:0.5;" width="582" x="1223" y="259"/><ellipse cx="1450" cy="276" fill="#ADD1B2" rx="12" ry="12" style="stroke:#181818;stroke-width:1.0;"/><path d="M1452.8066,283.0801 Q1452.123,283.4316 1451.3711,283.6074 Q1450.6191,283.7832 1449.7891,283.7832 Q1446.8398,283.7832 1445.2871,281.8398 Q1443.7344,279.8965 1443.7344,276.2246 Q1443.7344,272.543 1445.2871,270.5996 Q1446.8398,268.6563 1449.7891,268.6563 Q1450.6191,268.6563 1451.3809,268.832 Q1452.1426,269.0078 1452.8066,269.3594 L1452.8066,272.5625 Q1452.0645,271.8789 1451.3662,271.5615 Q1450.668,271.2441 1449.9258,271.2441 Q1448.3438,271.2441 1447.5381,272.499 Q1446.7324,273.7539 1446.7324,276.2246 Q1446.7324,278.6855 1447.5381,279.9404 Q1448.3438,281.1953 1449.9258,281.1953 Q1450.668,281.1953 1451.3662,280.8779 Q1452.0645,280.5605 1452.8066,279.877 Z " fill="#000000"/><text fill="#000000" font-family="sans-serif" font-size="20" lengthAdjust="spacing" textLength="119" x="1472" y="283.5586">Repositories</text><line style="stroke:#181818;stroke-width:0.5;" x1="1224" x2="1804" y1="293" y2="293"/><line style="stroke:#181818;stroke-width:0.5;" x1="1224" x2="1804" y1="301" y2="301"/><text fill="#000000" font-family="sans-serif" font-size="20" lengthAdjust="spacing" textLength="149" x="1229" y="324.3359">+Repositories()</text><text fill="#000000" font-family="sans-serif" font-size="20" lengthAdjust="spacing" textLength="276" x="1229" y="347.8906">+getInstance() : Repositories</text><text fill="#000000" font-family="sans-serif" font-size="20" lengthAdjust="spacing" textLength="570" x="1229" y="371.4453">+getAnnouncementRepository() : AnnouncementRepository</text></g><!--class ListAnnouncementsController--><g id="elem_ListAnnouncementsController"><rect codeLine="48" fill="#F1F1F1" height="191.3281" id="ListAnnouncementsController" rx="2.5" ry="2.5" style="stroke:#181818;stroke-width:0.5;" width="1402" x="1150" y="7"/><ellipse cx="1704.5" cy="24" fill="#ADD1B2" rx="12" ry="12" style="stroke:#181818;stroke-width:1.0;"/><path d="M1707.3066,31.0801 Q1706.623,31.4316 1705.8711,31.6074 Q1705.1191,31.7832 1704.2891,31.7832 Q1701.3398,31.7832 1699.7871,29.8398 Q1698.2344,27.8965 1698.2344,24.2246 Q1698.2344,20.543 1699.7871,18.5996 Q1701.3398,16.6563 1704.2891,16.6563 Q1705.1191,16.6563 1705.8809,16.832 Q1706.6426,17.0078 1707.3066,17.3594 L1707.3066,20.5625 Q1706.5645,19.8789 1705.8662,19.5615 Q1705.168,19.2441 1704.4258,19.2441 Q1702.8438,19.2441 1702.0381,20.499 Q1701.2324,21.7539 1701.2324,24.2246 Q1701.2324,26.6855 1702.0381,27.9404 Q1702.8438,29.1953 1704.4258,29.1953 Q1705.168,29.1953 1705.8662,28.8779 Q1706.5645,28.5605 1707.3066,27.877 Z " fill="#000000"/><text fill="#000000" font-family="sans-serif" font-size="20" lengthAdjust="spacing" textLength="284" x="1726.5" y="31.5586">ListAnnouncementsController</text><line style="stroke:#181818;stroke-width:0.5;" x1="1151" x2="2551" y1="41" y2="41"/><line style="stroke:#181818;stroke-width:0.5;" x1="1151" x2="2551" y1="49" y2="49"/><text fill="#000000" font-family="sans-serif" font-size="20" lengthAdjust="spacing" textLength="414" x="1156" y="72.3359">+getAnnoucementRepository() : Repository</text><text fill="#000000" font-family="sans-serif" font-size="20" lengthAdjust="spacing" textLength="743" x="1156" y="95.8906">+getAllAnnouncementsSortedByDefualtCriteria() : ArrayList&lt;Announcement&gt;</text><text fill="#000000" font-family="sans-serif" font-size="20" lengthAdjust="spacing" textLength="1008" x="1156" y="119.4453">+getAllAnnouncementsSortedBySortCriteria(String sortCriteria, String order) : ArrayList&lt;Announcement&gt;</text><text fill="#000000" font-family="sans-serif" font-size="20" lengthAdjust="spacing" textLength="1390" x="1156" y="143">+getFilteredAnnouncements(ypeOfProperty typeOfProperty, TransactionType transactionType, int numberOfRooms) : ArrayList&lt;Announcement&gt;</text><text fill="#000000" font-family="sans-serif" font-size="20" lengthAdjust="spacing" textLength="1017" x="1156" y="166.5547">+getFilteredAndSortedAnnouncements(TypeOfProperty typeOfProperty, TransactionType transactionType,</text><text fill="#000000" font-family="sans-serif" font-size="20" lengthAdjust="spacing" textLength="789" x="1162" y="190.1094">int numberOfRooms, String sortCriteria, String order) : ArrayList&lt;Announcement&gt;</text></g><!--class ListAnouncementsUI--><g id="elem_ListAnouncementsUI"><rect codeLine="56" fill="#F1F1F1" height="144.2188" id="ListAnouncementsUI" rx="2.5" ry="2.5" style="stroke:#181818;stroke-width:0.5;" width="1108" x="7" y="30.5"/><ellipse cx="458.5" cy="47.5" fill="#ADD1B2" rx="12" ry="12" style="stroke:#181818;stroke-width:1.0;"/><path d="M461.3066,54.5801 Q460.623,54.9316 459.8711,55.1074 Q459.1191,55.2832 458.2891,55.2832 Q455.3398,55.2832 453.7871,53.3398 Q452.2344,51.3965 452.2344,47.7246 Q452.2344,44.043 453.7871,42.0996 Q455.3398,40.1563 458.2891,40.1563 Q459.1191,40.1563 459.8809,40.332 Q460.6426,40.5078 461.3066,40.8594 L461.3066,44.0625 Q460.5645,43.3789 459.8662,43.0615 Q459.168,42.7441 458.4258,42.7441 Q456.8438,42.7441 456.0381,43.999 Q455.2324,45.2539 455.2324,47.7246 Q455.2324,50.1855 456.0381,51.4404 Q456.8438,52.6953 458.4258,52.6953 Q459.168,52.6953 459.8662,52.3779 Q460.5645,52.0605 461.3066,51.377 Z " fill="#000000"/><text fill="#000000" font-family="sans-serif" font-size="20" lengthAdjust="spacing" textLength="196" x="480.5" y="55.0586">ListAnouncementsUI</text><line style="stroke:#181818;stroke-width:0.5;" x1="8" x2="1114" y1="64.5" y2="64.5"/><line style="stroke:#181818;stroke-width:0.5;" x1="8" x2="1114" y1="72.5" y2="72.5"/><text fill="#000000" font-family="sans-serif" font-size="20" lengthAdjust="spacing" textLength="1096" x="13" y="95.8359">+checkInputType(typeOfProperty, transactionType, numberOfRooms, sortCriteria) : AnnouncementListOptionType</text><text fill="#000000" font-family="sans-serif" font-size="20" lengthAdjust="spacing" textLength="843" x="13" y="119.3906">+getAnnouncements(TypeOfProperty typeOfProperty, TransactionType transactionType,</text><text fill="#000000" font-family="sans-serif" font-size="20" lengthAdjust="spacing" textLength="789" x="19" y="142.9453">int numberOfRooms, String sortCriteria, String order) : ArrayList&lt;Announcement&gt;</text><text fill="#000000" font-family="sans-serif" font-size="20" lengthAdjust="spacing" textLength="458" x="13" y="166.5">+getController() : ListAnnouncementsController</text></g><!--class Address--><g id="elem_Address"><rect codeLine="62" fill="#F1F1F1" height="167.7734" id="Address" rx="2.5" ry="2.5" style="stroke:#181818;stroke-width:0.5;" width="165" x="1663.5" y="1436"/><ellipse cx="1702.9" cy="1453" fill="#ADD1B2" rx="12" ry="12" style="stroke:#181818;stroke-width:1.0;"/><path d="M1705.7066,1460.0801 Q1705.023,1460.4316 1704.2711,1460.6074 Q1703.5191,1460.7832 1702.6891,1460.7832 Q1699.7398,1460.7832 1698.1871,1458.8398 Q1696.6344,1456.8965 1696.6344,1453.2246 Q1696.6344,1449.543 1698.1871,1447.5996 Q1699.7398,1445.6563 1702.6891,1445.6563 Q1703.5191,1445.6563 1704.2809,1445.832 Q1705.0426,1446.0078 1705.7066,1446.3594 L1705.7066,1449.5625 Q1704.9645,1448.8789 1704.2662,1448.5615 Q1703.568,1448.2441 1702.8258,1448.2441 Q1701.2438,1448.2441 1700.4381,1449.499 Q1699.6324,1450.7539 1699.6324,1453.2246 Q1699.6324,1455.6855 1700.4381,1456.9404 Q1701.2438,1458.1953 1702.8258,1458.1953 Q1703.568,1458.1953 1704.2662,1457.8779 Q1704.9645,1457.5605 1705.7066,1456.877 Z " fill="#000000"/><text fill="#000000" font-family="sans-serif" font-size="20" lengthAdjust="spacing" textLength="79" x="1723.1" y="1460.5586">Address</text><line style="stroke:#181818;stroke-width:0.5;" x1="1664.5" x2="1827.5" y1="1470" y2="1470"/><text fill="#000000" font-family="sans-serif" font-size="20" lengthAdjust="spacing" textLength="140" x="1669.5" y="1493.3359">-street : String</text><text fill="#000000" font-family="sans-serif" font-size="20" lengthAdjust="spacing" textLength="119" x="1669.5" y="1516.8906">-city : String</text><text fill="#000000" font-family="sans-serif" font-size="20" lengthAdjust="spacing" textLength="153" x="1669.5" y="1540.4453">-district : String</text><text fill="#000000" font-family="sans-serif" font-size="20" lengthAdjust="spacing" textLength="132" x="1669.5" y="1564">-state : String</text><text fill="#000000" font-family="sans-serif" font-size="20" lengthAdjust="spacing" textLength="135" x="1669.5" y="1587.5547">-zipCode : int</text><line style="stroke:#181818;stroke-width:0.5;" x1="1664.5" x2="1827.5" y1="1595.7734" y2="1595.7734"/></g><!--link Repositories to Repositories--><g id="link_Repositories_Repositories"><path codeLine="70" d="M1805.37,306.84 C1826.84,309.68 1840,313.9 1840,319.5 C1840,324.53 1829.38,328.45 1811.65,331.25 " fill="none" id="Repositories-to-Repositories" style="stroke:#181818;stroke-width:1.0;"/><polygon fill="#181818" points="1806.87,331.95,1816.3496,334.6217,1811.8186,331.2349,1815.2054,326.7039,1806.87,331.95" style="stroke:#181818;stroke-width:1.0;"/><text fill="#000000" font-family="sans-serif" font-size="20" lengthAdjust="spacing" textLength="89" x="1846" y="327.3359">instances</text></g><!--link ListAnouncementsUI to ListAnnouncementsController--><g id="link_ListAnouncementsUI_ListAnnouncementsController"><path codeLine="72" d="M1115.37,102.5 C1124.43,102.5 1133.74,102.5 1143.24,102.5 " fill="none" id="ListAnouncementsUI-to-ListAnnouncementsController" style="stroke:#181818;stroke-width:1.0;stroke-dasharray:7.0,7.0;"/><polygon fill="#181818" points="1147.99,102.5,1138.99,98.5,1142.99,102.5,1138.99,106.5,1147.99,102.5" style="stroke:#181818;stroke-width:1.0;"/></g><!--link ListAnnouncementsController to Repositories--><g id="link_ListAnnouncementsController_Repositories"><path codeLine="74" d="M1702.21,198.43 C1672,217.7 1640.93,237.52 1612.96,255.36 " fill="none" id="ListAnnouncementsController-to-Repositories" style="stroke:#181818;stroke-width:1.0;stroke-dasharray:7.0,7.0;"/><polygon fill="#181818" points="1609.05,257.86,1618.7917,256.4113,1613.2707,255.1793,1614.5026,249.6582,1609.05,257.86" style="stroke:#181818;stroke-width:1.0;"/></g><!--link Repositories to AnnouncementRepository--><g id="link_Repositories_AnnouncementRepository"><path codeLine="76" d="M1574.96,380.27 C1599.93,404.77 1629.34,433.61 1656.67,460.4 " fill="none" id="Repositories-to-AnnouncementRepository" style="stroke:#181818;stroke-width:1.0;"/><polygon fill="#181818" points="1659.95,463.62,1656.3218,454.4638,1656.3789,460.1204,1650.7224,460.1775,1659.95,463.62" style="stroke:#181818;stroke-width:1.0;"/><text fill="#000000" font-family="sans-serif" font-size="20" lengthAdjust="spacing" textLength="33" x="1631" y="430.3359">has</text><text fill="#000000" font-family="sans-serif" font-size="20" lengthAdjust="spacing" textLength="13" x="1567.5762" y="407.1047">1</text><text fill="#000000" font-family="sans-serif" font-size="20" lengthAdjust="spacing" textLength="13" x="1640.1693" y="452.815">1</text></g><!--link ListAnnouncementsController to AnnouncementRepository--><g id="link_ListAnnouncementsController_AnnouncementRepository"><path codeLine="78" d="M1906.56,198.43 C1925.5,230.81 1942,259 1942,259 C1942,259 1942,380 1942,380 C1942,380 1895.66,419.72 1848.05,460.53 " fill="none" id="ListAnnouncementsController-to-AnnouncementRepository" style="stroke:#181818;stroke-width:1.0;stroke-dasharray:7.0,7.0;"/><polygon fill="#181818" points="1844.29,463.75,1853.7326,460.9504,1848.0933,460.5043,1848.5394,454.8651,1844.29,463.75" style="stroke:#181818;stroke-width:1.0;"/></g><!--link AnnouncementRepository to Announcement--><g id="link_AnnouncementRepository_Announcement"><path codeLine="80" d="M1746,633.48 C1746,657.56 1746,684.58 1746,711.34 " fill="none" id="AnnouncementRepository-to-Announcement" style="stroke:#181818;stroke-width:1.0;"/><polygon fill="#181818" points="1746,716.26,1750,707.26,1746,711.26,1742,707.26,1746,716.26" style="stroke:#181818;stroke-width:1.0;"/><text fill="#000000" font-family="sans-serif" font-size="20" lengthAdjust="spacing" textLength="33" x="1747" y="683.3359">has</text><text fill="#000000" font-family="sans-serif" font-size="20" lengthAdjust="spacing" textLength="13" x="1732.5023" y="660.1943">1</text><text fill="#000000" font-family="sans-serif" font-size="20" lengthAdjust="spacing" textLength="10" x="1735.7266" y="705.6822">*</text></g><!--link Announcement to Property--><g id="link_Announcement_Property"><path codeLine="82" d="M1746,1004.38 C1746,1030 1746,1056.65 1746,1082.11 " fill="none" id="Announcement-to-Property" style="stroke:#181818;stroke-width:1.0;"/><polygon fill="#181818" points="1746,1087.04,1750,1078.04,1746,1082.04,1742,1078.04,1746,1087.04" style="stroke:#181818;stroke-width:1.0;"/><text fill="#000000" font-family="sans-serif" font-size="20" lengthAdjust="spacing" textLength="33" x="1747" y="1054.3359">has</text><text fill="#000000" font-family="sans-serif" font-size="20" lengthAdjust="spacing" textLength="13" x="1732.7055" y="1030.7568">1</text><text fill="#000000" font-family="sans-serif" font-size="20" lengthAdjust="spacing" textLength="13" x="1732.6242" y="1076.6379">1</text></g><!--link Property to Address--><g id="link_Property_Address"><path codeLine="84" d="M1746,1351.27 C1746,1377.7 1746,1404.91 1746,1429.54 " fill="none" id="Property-to-Address" style="stroke:#181818;stroke-width:1.0;"/><polygon fill="#181818" points="1746,1434.23,1750,1425.23,1746,1429.23,1742,1425.23,1746,1434.23" style="stroke:#181818;stroke-width:1.0;"/><text fill="#000000" font-family="sans-serif" font-size="20" lengthAdjust="spacing" textLength="33" x="1747" y="1401.3359">has</text><text fill="#000000" font-family="sans-serif" font-size="20" lengthAdjust="spacing" textLength="13" x="1732.6445" y="1378.4291">1</text><text fill="#000000" font-family="sans-serif" font-size="20" lengthAdjust="spacing" textLength="13" x="1732.4414" y="1423.8801">1</text></g><!--SRC=[rLPBQnin4Bxlhn2vn6dYaFPeWY5r21WACN5xwqNU7Nk5jPf5qb8sfV-zUkn3shMTfeJG-hBMp6Zccq-V7chFH4abBJYcUyX81bjQSVs0Gg_PCv1FDycvQcD8WGBJN681HCiAajvJqdHFTx3MDGSY8TLKx7WOe7AQuGycTcHBkGezd0dGTGcaH5xRGLYnSwBKc0IpKawLkjDQiasbOPcYS7XlakISmrOJZKIoNQv9nYmSXecRGLOIIv2w_faGzviIAe6I6ScmsXZ4hJLZolIGmeFfTW52Wnp7b9AbC3RJB9DWIit8dV_NU2x93dHZcbmSSHimpXVbTAxx4I8No8GEerOMqw4C6jU6BB5pFlyt-PKqhDm9WPN9NPYyn54p9PRsnstBbvdqDJ8qGP8AHIs_mhfjL6pnOQM1mbH-JxKDiHzlJx5WIfbGOrrWqGoQEJbgDD2afFKNq_ljoXhctidKogSqcfsH3I87sinZMS-A7IrCPtxv6cF3as_3qH7sz0gcdg14nJJAsdD6BkqASXx6gBLHBcIVwtlOLfJhXMG63FEBtFSMJfc_cCj-kqGU8L61xQg1RNPD1l9FAZqmRcP25fMRn2i-KCJLSAc7OhYoX1DH5HkGZzidn4Az3ahc-trJJD_565L7rzzns6cZqmC3rIeYj4qkkYQNmczc9uCmfb_xWqBpiZdewd5OZ15f2tESI-JSx8BctEig72mG92LlhUjt5FO9PR-tiFzpPNj5zLY_BLjzfpca-wKeAsr1J8QWHymDu8MuXjAsHH_By28PROn_aRGMPx_ft9uuiIc3syM_23otKwAq1D3zBUIjANFNSMIppnLpyuzYpIdZhjp8-CpA1MRGt8YcU7HmJUVnGMQZ_66bakI04Axd9tjBJfr6rzTniG6KiuzdP6hmsE-HYtT6SgfUBdBao4oEPEqAVuWBj-KYMuWoU2wvm6uSjT8z45tCRm00]--></g></svg>