<?xml version="1.0" encoding="UTF-8" standalone="no"?><svg xmlns="http://www.w3.org/2000/svg" xmlns:xlink="http://www.w3.org/1999/xlink" contentStyleType="text/css" height="972px" preserveAspectRatio="none" style="width:2118px;height:972px;background:#FFFFFF;" version="1.1" viewBox="0 0 2118 972" width="2118px" zoomAndPan="magnify"><defs/><g><!--class Task--><g id="elem_Task"><rect codeLine="12" fill="#F1F1F1" height="261.9922" id="Task" rx="2.5" ry="2.5" style="stroke:#181818;stroke-width:0.5;" width="416" x="7" y="521.7188"/><ellipse cx="187.5" cy="538.7188" fill="#ADD1B2" rx="12" ry="12" style="stroke:#181818;stroke-width:1.0;"/><path d="M190.3066,545.7988 Q189.623,546.1504 188.8711,546.3262 Q188.1191,546.502 187.2891,546.502 Q184.3398,546.502 182.7871,544.5586 Q181.2344,542.6152 181.2344,538.9434 Q181.2344,535.2617 182.7871,533.3184 Q184.3398,531.375 187.2891,531.375 Q188.1191,531.375 188.8809,531.5508 Q189.6426,531.7266 190.3066,532.0781 L190.3066,535.2813 Q189.5645,534.5977 188.8662,534.2803 Q188.168,533.9629 187.4258,533.9629 Q185.8438,533.9629 185.0381,535.2178 Q184.2324,536.4727 184.2324,538.9434 Q184.2324,541.4043 185.0381,542.6592 Q185.8438,543.9141 187.4258,543.9141 Q188.168,543.9141 188.8662,543.5967 Q189.5645,543.2793 190.3066,542.5957 Z " fill="#000000"/><text fill="#000000" font-family="sans-serif" font-size="20" lengthAdjust="spacing" textLength="46" x="209.5" y="546.2773">Task</text><line style="stroke:#181818;stroke-width:0.5;" x1="8" x2="422" y1="555.7188" y2="555.7188"/><text fill="#000000" font-family="sans-serif" font-size="20" lengthAdjust="spacing" textLength="163" x="13" y="579.0547">-String reference</text><text fill="#000000" font-family="sans-serif" font-size="20" lengthAdjust="spacing" textLength="182" x="13" y="602.6094">-String description</text><text fill="#000000" font-family="sans-serif" font-size="20" lengthAdjust="spacing" textLength="265" x="13" y="626.1641">-String informalDescription</text><text fill="#000000" font-family="sans-serif" font-size="20" lengthAdjust="spacing" textLength="269" x="13" y="649.7188">-String technicalDescription</text><text fill="#000000" font-family="sans-serif" font-size="20" lengthAdjust="spacing" textLength="166" x="13" y="673.2734">-Integer duration</text><text fill="#000000" font-family="sans-serif" font-size="20" lengthAdjust="spacing" textLength="126" x="13" y="696.8281">-Double cost</text><line style="stroke:#181818;stroke-width:0.5;" x1="8" x2="422" y1="705.0469" y2="705.0469"/><text fill="#000000" font-family="sans-serif" font-size="20" lengthAdjust="spacing" textLength="284" x="13" y="728.3828">+Task(reference, description,</text><text fill="#000000" font-family="sans-serif" font-size="20" lengthAdjust="spacing" textLength="404" x="13" y="751.9375">informalDescription, technicalDescription,</text><text fill="#000000" font-family="sans-serif" font-size="20" lengthAdjust="spacing" textLength="381" x="13" y="775.4922">duration, cost, createdBy, taskCategory)</text></g><!--class TaskCategory--><g id="elem_TaskCategory"><rect codeLine="23" fill="#F1F1F1" height="97.1094" id="TaskCategory" rx="2.5" ry="2.5" style="stroke:#181818;stroke-width:0.5;" width="281" x="335.5" y="868.7188"/><ellipse cx="406" cy="885.7188" fill="#ADD1B2" rx="12" ry="12" style="stroke:#181818;stroke-width:1.0;"/><path d="M408.8066,892.7988 Q408.123,893.1504 407.3711,893.3262 Q406.6191,893.502 405.7891,893.502 Q402.8398,893.502 401.2871,891.5586 Q399.7344,889.6152 399.7344,885.9434 Q399.7344,882.2617 401.2871,880.3184 Q402.8398,878.375 405.7891,878.375 Q406.6191,878.375 407.3809,878.5508 Q408.1426,878.7266 408.8066,879.0781 L408.8066,882.2813 Q408.0645,881.5977 407.3662,881.2803 Q406.668,880.9629 405.9258,880.9629 Q404.3438,880.9629 403.5381,882.2178 Q402.7324,883.4727 402.7324,885.9434 Q402.7324,888.4043 403.5381,889.6592 Q404.3438,890.9141 405.9258,890.9141 Q406.668,890.9141 407.3662,890.5967 Q408.0645,890.2793 408.8066,889.5957 Z " fill="#000000"/><text fill="#000000" font-family="sans-serif" font-size="20" lengthAdjust="spacing" textLength="131" x="428" y="893.2773">TaskCategory</text><line style="stroke:#181818;stroke-width:0.5;" x1="336.5" x2="615.5" y1="902.7188" y2="902.7188"/><text fill="#000000" font-family="sans-serif" font-size="20" lengthAdjust="spacing" textLength="182" x="341.5" y="926.0547">-String description</text><line style="stroke:#181818;stroke-width:0.5;" x1="336.5" x2="615.5" y1="934.2734" y2="934.2734"/><text fill="#000000" font-family="sans-serif" font-size="20" lengthAdjust="spacing" textLength="269" x="341.5" y="957.6094">+TaskCategory(description)</text></g><!--class TaskCategoryRepository--><g id="elem_TaskCategoryRepository"><rect codeLine="29" fill="#F1F1F1" height="73.5547" id="TaskCategoryRepository" rx="2.5" ry="2.5" style="stroke:#181818;stroke-width:0.5;" width="443" x="529.5" y="362.7188"/><ellipse cx="630" cy="379.7188" fill="#ADD1B2" rx="12" ry="12" style="stroke:#181818;stroke-width:1.0;"/><path d="M632.8066,386.7988 Q632.123,387.1504 631.3711,387.3262 Q630.6191,387.502 629.7891,387.502 Q626.8398,387.502 625.2871,385.5586 Q623.7344,383.6152 623.7344,379.9434 Q623.7344,376.2617 625.2871,374.3184 Q626.8398,372.375 629.7891,372.375 Q630.6191,372.375 631.3809,372.5508 Q632.1426,372.7266 632.8066,373.0781 L632.8066,376.2813 Q632.0645,375.5977 631.3662,375.2803 Q630.668,374.9629 629.9258,374.9629 Q628.3438,374.9629 627.5381,376.2178 Q626.7324,377.4727 626.7324,379.9434 Q626.7324,382.4043 627.5381,383.6592 Q628.3438,384.9141 629.9258,384.9141 Q630.668,384.9141 631.3662,384.5967 Q632.0645,384.2793 632.8066,383.5957 Z " fill="#000000"/><text fill="#000000" font-family="sans-serif" font-size="20" lengthAdjust="spacing" textLength="233" x="652" y="387.2773">TaskCategoryRepository</text><line style="stroke:#181818;stroke-width:0.5;" x1="530.5" x2="971.5" y1="396.7188" y2="396.7188"/><line style="stroke:#181818;stroke-width:0.5;" x1="530.5" x2="971.5" y1="404.7188" y2="404.7188"/><text fill="#000000" font-family="sans-serif" font-size="20" lengthAdjust="spacing" textLength="431" x="535.5" y="428.0547">+getTaskCategoryByDescription(description)</text></g><!--class OrganizationRepository--><g id="elem_OrganizationRepository"><rect codeLine="33" fill="#F1F1F1" height="73.5547" id="OrganizationRepository" rx="2.5" ry="2.5" style="stroke:#181818;stroke-width:0.5;" width="417" x="1007.5" y="362.7188"/><ellipse cx="1098.5" cy="379.7188" fill="#ADD1B2" rx="12" ry="12" style="stroke:#181818;stroke-width:1.0;"/><path d="M1101.3066,386.7988 Q1100.623,387.1504 1099.8711,387.3262 Q1099.1191,387.502 1098.2891,387.502 Q1095.3398,387.502 1093.7871,385.5586 Q1092.2344,383.6152 1092.2344,379.9434 Q1092.2344,376.2617 1093.7871,374.3184 Q1095.3398,372.375 1098.2891,372.375 Q1099.1191,372.375 1099.8809,372.5508 Q1100.6426,372.7266 1101.3066,373.0781 L1101.3066,376.2813 Q1100.5645,375.5977 1099.8662,375.2803 Q1099.168,374.9629 1098.4258,374.9629 Q1096.8438,374.9629 1096.0381,376.2178 Q1095.2324,377.4727 1095.2324,379.9434 Q1095.2324,382.4043 1096.0381,383.6592 Q1096.8438,384.9141 1098.4258,384.9141 Q1099.168,384.9141 1099.8662,384.5967 Q1100.5645,384.2793 1101.3066,383.5957 Z " fill="#000000"/><text fill="#000000" font-family="sans-serif" font-size="20" lengthAdjust="spacing" textLength="226" x="1120.5" y="387.2773">OrganizationRepository</text><line style="stroke:#181818;stroke-width:0.5;" x1="1008.5" x2="1423.5" y1="396.7188" y2="396.7188"/><line style="stroke:#181818;stroke-width:0.5;" x1="1008.5" x2="1423.5" y1="404.7188" y2="404.7188"/><text fill="#000000" font-family="sans-serif" font-size="20" lengthAdjust="spacing" textLength="405" x="1013.5" y="428.0547">+getOrganizationByEmployeeEmail(email)</text></g><!--class Repositories--><g id="elem_Repositories"><rect codeLine="37" fill="#F1F1F1" height="144.2188" id="Repositories" rx="2.5" ry="2.5" style="stroke:#181818;stroke-width:0.5;" width="305" x="955.5" y="98.2188"/><ellipse cx="1044" cy="115.2188" fill="#ADD1B2" rx="12" ry="12" style="stroke:#181818;stroke-width:1.0;"/><path d="M1046.8066,122.2988 Q1046.123,122.6504 1045.3711,122.8262 Q1044.6191,123.002 1043.7891,123.002 Q1040.8398,123.002 1039.2871,121.0586 Q1037.7344,119.1152 1037.7344,115.4434 Q1037.7344,111.7617 1039.2871,109.8184 Q1040.8398,107.875 1043.7891,107.875 Q1044.6191,107.875 1045.3809,108.0508 Q1046.1426,108.2266 1046.8066,108.5781 L1046.8066,111.7813 Q1046.0645,111.0977 1045.3662,110.7803 Q1044.668,110.4629 1043.9258,110.4629 Q1042.3438,110.4629 1041.5381,111.7178 Q1040.7324,112.9727 1040.7324,115.4434 Q1040.7324,117.9043 1041.5381,119.1592 Q1042.3438,120.4141 1043.9258,120.4141 Q1044.668,120.4141 1045.3662,120.0967 Q1046.0645,119.7793 1046.8066,119.0957 Z " fill="#000000"/><text fill="#000000" font-family="sans-serif" font-size="20" lengthAdjust="spacing" textLength="119" x="1066" y="122.7773">Repositories</text><line style="stroke:#181818;stroke-width:0.5;" x1="956.5" x2="1259.5" y1="132.2188" y2="132.2188"/><line style="stroke:#181818;stroke-width:0.5;" x1="956.5" x2="1259.5" y1="140.2188" y2="140.2188"/><text fill="#000000" font-family="sans-serif" font-size="20" lengthAdjust="spacing" textLength="145" x="961.5" y="163.5547">-Repositories()</text><text fill="#000000" font-family="sans-serif" font-size="20" lengthAdjust="spacing" textLength="276" x="961.5" y="187.1094">+getInstance() : Repositories</text><text fill="#000000" font-family="sans-serif" font-size="20" lengthAdjust="spacing" textLength="293" x="961.5" y="210.6641">+getTaskCategoryRepository()</text><text fill="#000000" font-family="sans-serif" font-size="20" lengthAdjust="spacing" textLength="286" x="961.5" y="234.2188">+getOrganizationRepository()</text></g><!--class getController--><g id="elem_getController"><rect codeLine="44" fill="#F1F1F1" height="214.8828" id="getController" rx="2.5" ry="2.5" style="stroke:#181818;stroke-width:0.5;" width="707" x="1404.5" y="62.7188"/><ellipse cx="1690.5" cy="79.7188" fill="#ADD1B2" rx="12" ry="12" style="stroke:#181818;stroke-width:1.0;"/><path d="M1693.3066,86.7988 Q1692.623,87.1504 1691.8711,87.3262 Q1691.1191,87.502 1690.2891,87.502 Q1687.3398,87.502 1685.7871,85.5586 Q1684.2344,83.6152 1684.2344,79.9434 Q1684.2344,76.2617 1685.7871,74.3184 Q1687.3398,72.375 1690.2891,72.375 Q1691.1191,72.375 1691.8809,72.5508 Q1692.6426,72.7266 1693.3066,73.0781 L1693.3066,76.2813 Q1692.5645,75.5977 1691.8662,75.2803 Q1691.168,74.9629 1690.4258,74.9629 Q1688.8438,74.9629 1688.0381,76.2178 Q1687.2324,77.4727 1687.2324,79.9434 Q1687.2324,82.4043 1688.0381,83.6592 Q1688.8438,84.9141 1690.4258,84.9141 Q1691.168,84.9141 1691.8662,84.5967 Q1692.5645,84.2793 1693.3066,83.5957 Z " fill="#000000"/><text fill="#000000" font-family="sans-serif" font-size="20" lengthAdjust="spacing" textLength="126" x="1712.5" y="87.2773">getController</text><line style="stroke:#181818;stroke-width:0.5;" x1="1405.5" x2="2110.5" y1="96.7188" y2="96.7188"/><line style="stroke:#181818;stroke-width:0.5;" x1="1405.5" x2="2110.5" y1="104.7188" y2="104.7188"/><text fill="#000000" font-family="sans-serif" font-size="20" lengthAdjust="spacing" textLength="695" x="1410.5" y="128.0547">+CreateTaskController(organizationRepository, taskCategoryRepository)</text><text fill="#000000" font-family="sans-serif" font-size="20" lengthAdjust="spacing" textLength="208" x="1410.5" y="151.6094">+getTaskCategories()</text><text fill="#000000" font-family="sans-serif" font-size="20" lengthAdjust="spacing" textLength="448" x="1410.5" y="175.1641">+createTask(userEmail, reference, description,</text><text fill="#000000" font-family="sans-serif" font-size="20" lengthAdjust="spacing" textLength="404" x="1410.5" y="198.7188">informalDescription, technicalDescription,</text><text fill="#000000" font-family="sans-serif" font-size="20" lengthAdjust="spacing" textLength="342" x="1410.5" y="222.2734">duration, cost, categoryDescription)</text><text fill="#000000" font-family="sans-serif" font-size="20" lengthAdjust="spacing" textLength="554" x="1410.5" y="245.8281">-getTaskCategoryByDescription(taskCategoryDescription)</text><text fill="#000000" font-family="sans-serif" font-size="20" lengthAdjust="spacing" textLength="271" x="1410.5" y="269.3828">-getEmployeeFromSession()</text></g><!--class CreateTaskController--><g id="elem_CreateTaskController"><rect fill="#F1F1F1" height="50" id="CreateTaskController" rx="2.5" ry="2.5" style="stroke:#181818;stroke-width:0.5;" width="238" x="480" y="145.2188"/><ellipse cx="496" cy="162.2188" fill="#ADD1B2" rx="12" ry="12" style="stroke:#181818;stroke-width:1.0;"/><path d="M498.8066,169.2988 Q498.123,169.6504 497.3711,169.8262 Q496.6191,170.002 495.7891,170.002 Q492.8398,170.002 491.2871,168.0586 Q489.7344,166.1152 489.7344,162.4434 Q489.7344,158.7617 491.2871,156.8184 Q492.8398,154.875 495.7891,154.875 Q496.6191,154.875 497.3809,155.0508 Q498.1426,155.2266 498.8066,155.5781 L498.8066,158.7813 Q498.0645,158.0977 497.3662,157.7803 Q496.668,157.4629 495.9258,157.4629 Q494.3438,157.4629 493.5381,158.7178 Q492.7324,159.9727 492.7324,162.4434 Q492.7324,164.9043 493.5381,166.1592 Q494.3438,167.4141 495.9258,167.4141 Q496.668,167.4141 497.3662,167.0967 Q498.0645,166.7793 498.8066,166.0957 Z " fill="#000000"/><text fill="#000000" font-family="sans-serif" font-size="20" lengthAdjust="spacing" textLength="204" x="511" y="169.7773">CreateTaskController</text><line style="stroke:#181818;stroke-width:0.5;" x1="481" x2="717" y1="179.2188" y2="179.2188"/><line style="stroke:#181818;stroke-width:0.5;" x1="481" x2="717" y1="187.2188" y2="187.2188"/></g><g id="elem_GMN9"><path d="M753,153.2188 L753,166.2188 L718.1,170.2188 L753,174.2188 L753,186.7734 A0,0 0 0 0 753,186.7734 L907,186.7734 A0,0 0 0 0 907,186.7734 L907,163.2188 L897,153.2188 L753,153.2188 A0,0 0 0 0 753,153.2188 " fill="#FEFFDD" style="stroke:#181818;stroke-width:0.5;"/><path d="M897,153.2188 L897,163.2188 L907,163.2188 L897,153.2188 " fill="#FEFFDD" style="stroke:#181818;stroke-width:0.5;"/><text fill="#000000" font-family="sans-serif" font-size="20" lengthAdjust="spacing" textLength="133" x="759" y="177.5547">kswjqhbvaedf</text></g><g id="elem_GMN12"><path d="M555,635.7188 L555,669.2734 A0,0 0 0 0 555,669.2734 L681,669.2734 A0,0 0 0 0 681,669.2734 L681,645.7188 L671,635.7188 L630.68,635.7188 L731.66,437.2188 L622.68,635.7188 L555,635.7188 A0,0 0 0 0 555,635.7188 " fill="#FEFFDD" style="stroke:#181818;stroke-width:0.5;"/><path d="M671,635.7188 L671,645.7188 L681,645.7188 L671,635.7188 " fill="#FEFFDD" style="stroke:#181818;stroke-width:0.5;"/><text fill="#000000" font-family="sans-serif" font-size="20" lengthAdjust="spacing" textLength="105" x="561" y="660.0547">çlqwdkjefn</text></g><!--class CreateTaskUI--><g id="elem_CreateTaskUI"><rect codeLine="60" fill="#F1F1F1" height="50" id="CreateTaskUI" rx="2.5" ry="2.5" style="stroke:#181818;stroke-width:0.5;" width="162" x="283" y="145.2188"/><ellipse cx="299" cy="162.2188" fill="#ADD1B2" rx="12" ry="12" style="stroke:#181818;stroke-width:1.0;"/><path d="M301.8066,169.2988 Q301.123,169.6504 300.3711,169.8262 Q299.6191,170.002 298.7891,170.002 Q295.8398,170.002 294.2871,168.0586 Q292.7344,166.1152 292.7344,162.4434 Q292.7344,158.7617 294.2871,156.8184 Q295.8398,154.875 298.7891,154.875 Q299.6191,154.875 300.3809,155.0508 Q301.1426,155.2266 301.8066,155.5781 L301.8066,158.7813 Q301.0645,158.0977 300.3662,157.7803 Q299.668,157.4629 298.9258,157.4629 Q297.3438,157.4629 296.5381,158.7178 Q295.7324,159.9727 295.7324,162.4434 Q295.7324,164.9043 296.5381,166.1592 Q297.3438,167.4141 298.9258,167.4141 Q299.668,167.4141 300.3662,167.0967 Q301.0645,166.7793 301.8066,166.0957 Z " fill="#000000"/><text fill="#000000" font-family="sans-serif" font-size="20" lengthAdjust="spacing" textLength="128" x="314" y="169.7773">CreateTaskUI</text><line style="stroke:#181818;stroke-width:0.5;" x1="284" x2="444" y1="179.2188" y2="179.2188"/><line style="stroke:#181818;stroke-width:0.5;" x1="284" x2="444" y1="187.2188" y2="187.2188"/></g><!--class Organization--><g id="elem_Organization"><rect fill="#F1F1F1" height="50" id="Organization" rx="2.5" ry="2.5" style="stroke:#181818;stroke-width:0.5;" width="158" x="179" y="374.7188"/><ellipse cx="195" cy="391.7188" fill="#ADD1B2" rx="12" ry="12" style="stroke:#181818;stroke-width:1.0;"/><path d="M197.8066,398.7988 Q197.123,399.1504 196.3711,399.3262 Q195.6191,399.502 194.7891,399.502 Q191.8398,399.502 190.2871,397.5586 Q188.7344,395.6152 188.7344,391.9434 Q188.7344,388.2617 190.2871,386.3184 Q191.8398,384.375 194.7891,384.375 Q195.6191,384.375 196.3809,384.5508 Q197.1426,384.7266 197.8066,385.0781 L197.8066,388.2813 Q197.0645,387.5977 196.3662,387.2803 Q195.668,386.9629 194.9258,386.9629 Q193.3438,386.9629 192.5381,388.2178 Q191.7324,389.4727 191.7324,391.9434 Q191.7324,394.4043 192.5381,395.6592 Q193.3438,396.9141 194.9258,396.9141 Q195.668,396.9141 196.3662,396.5967 Q197.0645,396.2793 197.8066,395.5957 Z " fill="#000000"/><text fill="#000000" font-family="sans-serif" font-size="20" lengthAdjust="spacing" textLength="124" x="210" y="399.2773">Organization</text><line style="stroke:#181818;stroke-width:0.5;" x1="180" x2="336" y1="408.7188" y2="408.7188"/><line style="stroke:#181818;stroke-width:0.5;" x1="180" x2="336" y1="416.7188" y2="416.7188"/></g><!--class Employee--><g id="elem_Employee"><rect fill="#F1F1F1" height="50" id="Employee" rx="2.5" ry="2.5" style="stroke:#181818;stroke-width:0.5;" width="127" x="127.5" y="892.2188"/><ellipse cx="143.5" cy="909.2188" fill="#ADD1B2" rx="12" ry="12" style="stroke:#181818;stroke-width:1.0;"/><path d="M146.3066,916.2988 Q145.623,916.6504 144.8711,916.8262 Q144.1191,917.002 143.2891,917.002 Q140.3398,917.002 138.7871,915.0586 Q137.2344,913.1152 137.2344,909.4434 Q137.2344,905.7617 138.7871,903.8184 Q140.3398,901.875 143.2891,901.875 Q144.1191,901.875 144.8809,902.0508 Q145.6426,902.2266 146.3066,902.5781 L146.3066,905.7813 Q145.5645,905.0977 144.8662,904.7803 Q144.168,904.4629 143.4258,904.4629 Q141.8438,904.4629 141.0381,905.7178 Q140.2324,906.9727 140.2324,909.4434 Q140.2324,911.9043 141.0381,913.1592 Q141.8438,914.4141 143.4258,914.4141 Q144.168,914.4141 144.8662,914.0967 Q145.5645,913.7793 146.3066,913.0957 Z " fill="#000000"/><text fill="#000000" font-family="sans-serif" font-size="20" lengthAdjust="spacing" textLength="93" x="158.5" y="916.7773">Employee</text><line style="stroke:#181818;stroke-width:0.5;" x1="128.5" x2="253.5" y1="926.2188" y2="926.2188"/><line style="stroke:#181818;stroke-width:0.5;" x1="128.5" x2="253.5" y1="934.2188" y2="934.2188"/></g><!--link Repositories to Repositories--><g id="link_Repositories_Repositories"><path codeLine="63" d="M1260.66,145.1988 C1281.56,149.3488 1295.5,157.6988 1295.5,170.2188 C1295.5,181.5688 1284.05,189.4887 1266.34,193.9588 " fill="none" id="Repositories-to-Repositories" style="stroke:#181818;stroke-width:1.0;"/><polygon fill="#181818" points="1261.66,195.2387,1271.32,197.1582,1266.5372,194.1374,1269.5579,189.3546,1261.66,195.2387" style="stroke:#181818;stroke-width:1.0;"/><text fill="#000000" font-family="sans-serif" font-size="20" lengthAdjust="spacing" textLength="79" x="1301.5" y="178.0547">instance</text></g><!--link CreateTaskUI to CreateTaskController--><g id="link_CreateTaskUI_CreateTaskController"><path codeLine="66" d="M445.31,170.2188 C450.49,170.2188 461.82,170.2188 474.16,170.2188 " fill="none" id="CreateTaskUI-to-CreateTaskController" style="stroke:#181818;stroke-width:1.0;stroke-dasharray:7.0,7.0;"/><polygon fill="#181818" points="478.88,170.2188,469.88,166.2188,473.88,170.2188,469.88,174.2188,478.88,170.2188" style="stroke:#181818;stroke-width:1.0;"/></g><!--link CreateTaskController to Repositories--><g id="link_CreateTaskController_Repositories"><path codeLine="68" d="M630.73,144.9987 C680.67,105.3088 772,32.7188 772,32.7188 C772,32.7188 888,32.7188 888,32.7188 C888,32.7188 936.05,62.7487 987.24,94.7387 " fill="none" id="CreateTaskController-to-Repositories" style="stroke:#181818;stroke-width:1.0;stroke-dasharray:7.0,7.0;"/><polygon fill="#181818" points="991.2,97.8488,985.6954,89.6818,986.9624,95.1949,981.4493,96.4619,991.2,97.8488" style="stroke:#181818;stroke-width:1.0;"/><text fill="#000000" font-family="sans-serif" font-size="20" lengthAdjust="spacing" textLength="114" x="773" y="28.0547">repositories</text></g><!--link Repositories to TaskCategoryRepository--><g id="link_Repositories_TaskCategoryRepository"><path codeLine="70" d="M1101.38,242.5287 C1097.36,285.7888 1093,332.7188 1093,332.7188 C1093,332.7188 1022.52,346.3188 945.56,361.1688 " fill="none" id="Repositories-to-TaskCategoryRepository" style="stroke:#181818;stroke-width:1.0;"/><polygon fill="#181818" points="941.01,362.2488,950.6087,364.4544,945.9178,361.2929,949.0793,356.6019,941.01,362.2488" style="stroke:#181818;stroke-width:1.0;"/><text fill="#000000" font-family="sans-serif" font-size="20" lengthAdjust="spacing" textLength="13" x="957.2382" y="350.5568">1</text></g><!--link CreateTaskController to TaskCategory--><g id="link_CreateTaskController_TaskCategory"><path codeLine="72" d="M587.98,195.4688 C564.57,246.9987 512,362.7188 512,362.7188 C512,362.7188 488.49,724.1988 479.47,862.9088 " fill="none" id="CreateTaskController-to-TaskCategory" style="stroke:#181818;stroke-width:1.0;stroke-dasharray:7.0,7.0;"/><polygon fill="#181818" points="479.1,867.5488,483.6583,858.8182,479.4146,862.5587,475.6741,858.3149,479.1,867.5488" style="stroke:#181818;stroke-width:1.0;"/></g><!--link CreateTaskController to OrganizationRepository--><g id="link_CreateTaskController_OrganizationRepository"><path codeLine="73" d="M630.2,195.6487 C670.35,227.0988 735,277.7188 735,277.7188 C735,277.7188 942,332.7188 942,332.7188 C942,332.7188 997.79,346.1588 1059.02,360.9088 " fill="none" id="CreateTaskController-to-OrganizationRepository" style="stroke:#181818;stroke-width:1.0;stroke-dasharray:7.0,7.0;"/><polygon fill="#181818" points="1063.57,362.2488,1055.7547,356.2554,1058.7086,361.0797,1053.8842,364.0336,1063.57,362.2488" style="stroke:#181818;stroke-width:1.0;"/><text fill="#000000" font-family="sans-serif" font-size="20" lengthAdjust="spacing" textLength="222" x="943" y="328.0547">organizationRepository</text></g><!--link CreateTaskController to TaskCategoryRepository--><g id="link_CreateTaskController_TaskCategoryRepository"><path codeLine="74" d="M597.39,195.6187 C594.8,234.8887 590,307.7188 590,307.7188 C590,307.7188 590,332.7188 590,332.7188 C590,332.7188 621.6,345.6788 656.81,360.1088 " fill="none" id="CreateTaskController-to-TaskCategoryRepository" style="stroke:#181818;stroke-width:1.0;stroke-dasharray:7.0,7.0;"/><polygon fill="#181818" points="661.02,362.2488,654.2132,355.1307,656.3945,360.35,651.1752,362.5314,661.02,362.2488" style="stroke:#181818;stroke-width:1.0;"/><text fill="#000000" font-family="sans-serif" font-size="20" lengthAdjust="spacing" textLength="233" x="591" y="328.0547">TaskCategoryRepository</text></g><!--link Repositories to OrganizationRepository--><g id="link_Repositories_OrganizationRepository"><path codeLine="76" d="M1141.88,242.5788 C1159.71,280.1487 1180.97,324.9188 1196.13,356.8688 " fill="none" id="Repositories-to-OrganizationRepository" style="stroke:#181818;stroke-width:1.0;"/><polygon fill="#181818" points="1198.7,361.2787,1198.4541,351.433,1196.5559,356.7618,1191.227,354.8635,1198.7,361.2787" style="stroke:#181818;stroke-width:1.0;"/><text fill="#000000" font-family="sans-serif" font-size="20" lengthAdjust="spacing" textLength="13" x="1181.7581" y="350.5918">1</text></g><!--link CreateTaskController to Organization--><g id="link_CreateTaskController_Organization"><path codeLine="78" d="M567.57,195.6487 C527.12,227.0988 462,277.7188 462,277.7188 C462,277.7188 328,307.7188 328,307.7188 C328,307.7188 300.74,343.1588 280.24,369.8088 " fill="none" id="CreateTaskController-to-Organization" style="stroke:#181818;stroke-width:1.0;stroke-dasharray:7.0,7.0;"/><polygon fill="#181818" points="276.76,373.3288,285.4277,368.6521,279.8168,369.372,279.0969,363.7612,276.76,373.3288" style="stroke:#181818;stroke-width:1.0;"/><text fill="#000000" font-family="sans-serif" font-size="20" lengthAdjust="spacing" textLength="120" x="329" y="328.0547">organization</text><text fill="#000000" font-family="sans-serif" font-size="20" lengthAdjust="spacing" textLength="13" x="266.4419" y="362.6557">1</text></g><!--link Task to TaskCategory--><g id="link_Task_TaskCategory"><path codeLine="79" d="M291.18,784.2088 C309.05,814.8288 323,838.7188 323,838.7188 C323,838.7188 347.11,850.9288 376.19,865.6588 " fill="none" id="Task-to-TaskCategory" style="stroke:#181818;stroke-width:1.0;"/><polygon fill="#181818" points="380.28,868.2388,374.058,860.6042,375.8194,865.9798,370.4437,867.7412,380.28,868.2388" style="stroke:#181818;stroke-width:1.0;"/><text fill="#000000" font-family="sans-serif" font-size="20" lengthAdjust="spacing" textLength="125" x="324" y="834.0547">taskCategory</text><text fill="#000000" font-family="sans-serif" font-size="20" lengthAdjust="spacing" textLength="10" x="284.8502" y="810.9321">*</text><text fill="#000000" font-family="sans-serif" font-size="20" lengthAdjust="spacing" textLength="13" x="354.6786" y="856.4776">1</text></g><!--link TaskCategoryRepository to TaskCategory--><g id="link_TaskCategoryRepository_TaskCategory"><path codeLine="80" d="M745.97,437.0988 C732.74,532.6988 698,783.7188 698,783.7188 C698,783.7188 623.66,828.0888 561.02,865.4788 " fill="none" id="TaskCategoryRepository-to-TaskCategory" style="stroke:#181818;stroke-width:1.0;"/><polygon fill="#181818" points="557.15,868.3788,566.9254,867.1783,561.4375,865.8063,562.8095,860.3183,557.15,868.3788" style="stroke:#181818;stroke-width:1.0;"/><text fill="#000000" font-family="sans-serif" font-size="20" lengthAdjust="spacing" textLength="125" x="736" y="660.5547">taskCategory</text><text fill="#000000" font-family="sans-serif" font-size="20" lengthAdjust="spacing" textLength="13" x="731.2765" y="463.6874">1</text><text fill="#000000" font-family="sans-serif" font-size="20" lengthAdjust="spacing" textLength="10" x="556.2483" y="856.6364">*</text></g><!--link Organization to Task--><g id="link_Organization_Task"><path codeLine="81" d="M253.88,424.7888 C250.15,446.5688 244.33,480.5187 238.32,515.5888 " fill="none" id="Organization-to-Task" style="stroke:#181818;stroke-width:1.0;"/><polygon fill="#181818" points="237.36,520.2288,242.8238,512.0344,238.2052,515.3007,234.939,510.6821,237.36,520.2288" style="stroke:#181818;stroke-width:1.0;"/><text fill="#000000" font-family="sans-serif" font-size="20" lengthAdjust="spacing" textLength="50" x="248" y="487.0547">tasks</text><text fill="#000000" font-family="sans-serif" font-size="20" lengthAdjust="spacing" textLength="13" x="238.5569" y="452.185">1</text><text fill="#000000" font-family="sans-serif" font-size="20" lengthAdjust="spacing" textLength="10" x="228.3636" y="509.3143">*</text></g><!--link Task to Employee--><g id="link_Task_Employee"><path codeLine="82" d="M193.02,783.9988 C190.05,801.5888 188,813.7188 188,813.7188 C188,813.7188 188,838.7188 188,838.7188 C188,838.7188 189,864.5488 189.85,886.3888 " fill="none" id="Task-to-Employee" style="stroke:#181818;stroke-width:1.0;"/><polygon fill="#181818" points="190.07,891.1188,193.7322,881.9761,189.8839,886.1222,185.7378,882.2739,190.07,891.1188" style="stroke:#181818;stroke-width:1.0;"/><text fill="#000000" font-family="sans-serif" font-size="20" lengthAdjust="spacing" textLength="93" x="189" y="834.0547">createdBy</text></g><!--SRC=[jLMzRjim4Dxv58INo8bJf1qz1AZj1F1Ke6wtBZHraXbHF8MaQYX5dwSFqXShHLiIvL96bseGeBlxlllkXvGfXAgOPgL4Na1AKyXOBUqpAhiJRq0_F90RqyNG4XNoWyOIgDKraC5JCLwm77QsaK0rSCjKBiC0Ss0f7eNAQSQa2JrIAB1D1RH2sRGVOSRUYTeY2L1SCcC-Mgl5lhQmvQYytWT2RYHabbgaMkG7IrFHoX6e224UHBymKz0VXBhddkuSWnEb8GCDYiFOd8BXMbGUFd88bQ4kcTnC1LZW1oLuB6AhBEIWQLfh5fWtMEzTypWQIxpfpYjDUccBKCxYcufeM4JpkjWkryBpkxS6PY5TDGxXagpTHuwwcPEVOPSwysMtmhO4Khlm9F1FC7w62esm0_STpS664Qicg622yPFEcH9llh8uOnYnQfxAIc83y5Go8HDetm5Rpo30z1M7ncG-46-LSJlE8PdJvIWeNisWBYI9wqy2JIvexSwYHYdTndI5hVtqF7_lJ31ADfxlO9z7TOP5yZv9KXlGlcSB-d-syInl4qxvrF-hMn6M5iTs4tzsbzOEZ6bHlhqABPnl2CoY3IM5ERwy7lRV6QGP0PNI5dD6xj5QB5jeVChazo_vUaoB5yXKW3qDTSZsTUjcwjICLk_-SRoAItVRd9RDNM4ZxBl7k78IixRH5xmwtDk_HCpUpwQgcqZWCeI0wQY9WxkayIN-jtGZeYdXuoBFLSRbNAdo4dIXdFXVpEnsrcSOtQRBqPaa4pMqC0-_lGuVwRW4dOFDIL7hwKw4y_G_0KB-0000]--></g></svg>