<?xml version="1.0" encoding="UTF-8" standalone="no"?><svg xmlns="http://www.w3.org/2000/svg" xmlns:xlink="http://www.w3.org/1999/xlink" contentStyleType="text/css" height="1610px" preserveAspectRatio="none" style="width:2027px;height:1610px;background:#FFFFFF;" version="1.1" viewBox="0 0 2027 1610" width="2027px" zoomAndPan="magnify"><defs/><g><!--class Property--><g id="elem_Property"><rect codeLine="10" fill="#F1F1F1" height="261.9922" id="Property" rx="2.5" ry="2.5" style="stroke:#181818;stroke-width:0.5;" width="290" x="1241.5" y="1089"/><ellipse cx="1342" cy="1106" fill="#ADD1B2" rx="12" ry="12" style="stroke:#181818;stroke-width:1.0;"/><path d="M1344.8066,1113.0801 Q1344.123,1113.4316 1343.3711,1113.6074 Q1342.6191,1113.7832 1341.7891,1113.7832 Q1338.8398,1113.7832 1337.2871,1111.8398 Q1335.7344,1109.8965 1335.7344,1106.2246 Q1335.7344,1102.543 1337.2871,1100.5996 Q1338.8398,1098.6563 1341.7891,1098.6563 Q1342.6191,1098.6563 1343.3809,1098.832 Q1344.1426,1099.0078 1344.8066,1099.3594 L1344.8066,1102.5625 Q1344.0645,1101.8789 1343.3662,1101.5615 Q1342.668,1101.2441 1341.9258,1101.2441 Q1340.3438,1101.2441 1339.5381,1102.499 Q1338.7324,1103.7539 1338.7324,1106.2246 Q1338.7324,1108.6855 1339.5381,1109.9404 Q1340.3438,1111.1953 1341.9258,1111.1953 Q1342.668,1111.1953 1343.3662,1110.8779 Q1344.0645,1110.5605 1344.8066,1109.877 Z " fill="#000000"/><text fill="#000000" font-family="sans-serif" font-size="20" lengthAdjust="spacing" textLength="80" x="1364" y="1113.5586">Property</text><line style="stroke:#181818;stroke-width:0.5;" x1="1242.5" x2="1530.5" y1="1123" y2="1123"/><text fill="#000000" font-family="sans-serif" font-size="20" lengthAdjust="spacing" textLength="126" x="1247.5" y="1146.3359">-double area</text><text fill="#000000" font-family="sans-serif" font-size="20" lengthAdjust="spacing" textLength="278" x="1247.5" y="1169.8906">-double distanceFromCenter</text><text fill="#000000" font-family="sans-serif" font-size="20" lengthAdjust="spacing" textLength="133" x="1247.5" y="1193.4453">-double price</text><text fill="#000000" font-family="sans-serif" font-size="20" lengthAdjust="spacing" textLength="173" x="1247.5" y="1217">-Address address</text><line style="stroke:#181818;stroke-width:0.5;" x1="1242.5" x2="1530.5" y1="1225.2188" y2="1225.2188"/><text fill="#000000" font-family="sans-serif" font-size="20" lengthAdjust="spacing" textLength="139" x="1247.5" y="1248.5547">+getAddress()</text><text fill="#000000" font-family="sans-serif" font-size="20" lengthAdjust="spacing" textLength="104" x="1247.5" y="1272.1094">+getArea()</text><text fill="#000000" font-family="sans-serif" font-size="20" lengthAdjust="spacing" textLength="255" x="1247.5" y="1295.6641">+getDistanceFromCenter()</text><text fill="#000000" font-family="sans-serif" font-size="20" lengthAdjust="spacing" textLength="106" x="1247.5" y="1319.2188">+getPrice()</text><text fill="#000000" font-family="sans-serif" font-size="20" lengthAdjust="spacing" textLength="105" x="1247.5" y="1342.7734">+toString()</text></g><!--class Announcement--><g id="elem_Announcement"><rect codeLine="22" fill="#F1F1F1" height="285.5469" id="Announcement" rx="2.5" ry="2.5" style="stroke:#181818;stroke-width:0.5;" width="342" x="1215.5" y="718"/><ellipse cx="1310" cy="735" fill="#ADD1B2" rx="12" ry="12" style="stroke:#181818;stroke-width:1.0;"/><path d="M1312.8066,742.0801 Q1312.123,742.4316 1311.3711,742.6074 Q1310.6191,742.7832 1309.7891,742.7832 Q1306.8398,742.7832 1305.2871,740.8398 Q1303.7344,738.8965 1303.7344,735.2246 Q1303.7344,731.543 1305.2871,729.5996 Q1306.8398,727.6563 1309.7891,727.6563 Q1310.6191,727.6563 1311.3809,727.832 Q1312.1426,728.0078 1312.8066,728.3594 L1312.8066,731.5625 Q1312.0645,730.8789 1311.3662,730.5615 Q1310.668,730.2441 1309.9258,730.2441 Q1308.3438,730.2441 1307.5381,731.499 Q1306.7324,732.7539 1306.7324,735.2246 Q1306.7324,737.6855 1307.5381,738.9404 Q1308.3438,740.1953 1309.9258,740.1953 Q1310.668,740.1953 1311.3662,739.8779 Q1312.0645,739.5605 1312.8066,738.877 Z " fill="#000000"/><text fill="#000000" font-family="sans-serif" font-size="20" lengthAdjust="spacing" textLength="144" x="1332" y="742.5586">Announcement</text><line style="stroke:#181818;stroke-width:0.5;" x1="1216.5" x2="1556.5" y1="752" y2="752"/><text fill="#000000" font-family="sans-serif" font-size="20" lengthAdjust="spacing" textLength="312" x="1221.5" y="775.3359">-TypeOfProperty typeOfProperty</text><text fill="#000000" font-family="sans-serif" font-size="20" lengthAdjust="spacing" textLength="330" x="1221.5" y="798.8906">-TransactionType transactionType</text><text fill="#000000" font-family="sans-serif" font-size="20" lengthAdjust="spacing" textLength="178" x="1221.5" y="822.4453">-Date publishDate</text><text fill="#000000" font-family="sans-serif" font-size="20" lengthAdjust="spacing" textLength="216" x="1221.5" y="846">-Comission comission</text><text fill="#000000" font-family="sans-serif" font-size="20" lengthAdjust="spacing" textLength="255" x="1221.5" y="869.5547">-ArrayList&lt;Photo&gt; photos</text><text fill="#000000" font-family="sans-serif" font-size="20" lengthAdjust="spacing" textLength="205" x="1221.5" y="893.1094">-boolean isPublished</text><text fill="#000000" font-family="sans-serif" font-size="20" lengthAdjust="spacing" textLength="62" x="1221.5" y="916.6641">-int id</text><text fill="#000000" font-family="sans-serif" font-size="20" lengthAdjust="spacing" textLength="138" x="1221.5" y="940.2188">-int idCounter</text><line style="stroke:#181818;stroke-width:0.5;" x1="1216.5" x2="1556.5" y1="948.4375" y2="948.4375"/><text fill="#000000" font-family="sans-serif" font-size="20" lengthAdjust="spacing" textLength="140" x="1221.5" y="971.7734">+getProperty()</text><text fill="#000000" font-family="sans-serif" font-size="20" lengthAdjust="spacing" textLength="105" x="1221.5" y="995.3281">+toString()</text></g><!--class AnnouncementRepository--><g id="elem_AnnouncementRepository"><rect codeLine="35" fill="#F1F1F1" height="167.7734" id="AnnouncementRepository" rx="2.5" ry="2.5" style="stroke:#181818;stroke-width:0.5;" width="1136" x="818.5" y="465"/><ellipse cx="1259" cy="482" fill="#ADD1B2" rx="12" ry="12" style="stroke:#181818;stroke-width:1.0;"/><path d="M1261.8066,489.0801 Q1261.123,489.4316 1260.3711,489.6074 Q1259.6191,489.7832 1258.7891,489.7832 Q1255.8398,489.7832 1254.2871,487.8398 Q1252.7344,485.8965 1252.7344,482.2246 Q1252.7344,478.543 1254.2871,476.5996 Q1255.8398,474.6563 1258.7891,474.6563 Q1259.6191,474.6563 1260.3809,474.832 Q1261.1426,475.0078 1261.8066,475.3594 L1261.8066,478.5625 Q1261.0645,477.8789 1260.3662,477.5615 Q1259.668,477.2441 1258.9258,477.2441 Q1257.3438,477.2441 1256.5381,478.499 Q1255.7324,479.7539 1255.7324,482.2246 Q1255.7324,484.6855 1256.5381,485.9404 Q1257.3438,487.1953 1258.9258,487.1953 Q1259.668,487.1953 1260.3662,486.8779 Q1261.0645,486.5605 1261.8066,485.877 Z " fill="#000000"/><text fill="#000000" font-family="sans-serif" font-size="20" lengthAdjust="spacing" textLength="246" x="1281" y="489.5586">AnnouncementRepository</text><line style="stroke:#181818;stroke-width:0.5;" x1="819.5" x2="1953.5" y1="499" y2="499"/><line style="stroke:#181818;stroke-width:0.5;" x1="819.5" x2="1953.5" y1="507" y2="507"/><text fill="#000000" font-family="sans-serif" font-size="20" lengthAdjust="spacing" textLength="464" x="824.5" y="530.3359">+getAllAnnouncementsSortedByDefualtCriteria()</text><text fill="#000000" font-family="sans-serif" font-size="20" lengthAdjust="spacing" textLength="729" x="824.5" y="553.8906">+getAllAnnouncementsSortedBySortCriteria(String sortCriteria, String order)</text><text fill="#000000" font-family="sans-serif" font-size="20" lengthAdjust="spacing" textLength="1124" x="824.5" y="577.4453">+getFilteredAnnouncements(TypeOfProperty typeOfProperty, TransactionType transactionType, int numberOfRooms)</text><text fill="#000000" font-family="sans-serif" font-size="20" lengthAdjust="spacing" textLength="1017" x="824.5" y="601">+getFilteredAndSortedAnnouncements(TypeOfProperty typeOfProperty, TransactionType transactionType,</text><text fill="#000000" font-family="sans-serif" font-size="20" lengthAdjust="spacing" textLength="510" x="830.5" y="624.5547">int numberOfRooms, String sortCriteria, String order)</text></g><!--class Repositories--><g id="elem_Repositories"><rect codeLine="42" fill="#F1F1F1" height="120.6641" id="Repositories" rx="2.5" ry="2.5" style="stroke:#181818;stroke-width:0.5;" width="318" x="1061.5" y="259"/><ellipse cx="1156.5" cy="276" fill="#ADD1B2" rx="12" ry="12" style="stroke:#181818;stroke-width:1.0;"/><path d="M1159.3066,283.0801 Q1158.623,283.4316 1157.8711,283.6074 Q1157.1191,283.7832 1156.2891,283.7832 Q1153.3398,283.7832 1151.7871,281.8398 Q1150.2344,279.8965 1150.2344,276.2246 Q1150.2344,272.543 1151.7871,270.5996 Q1153.3398,268.6563 1156.2891,268.6563 Q1157.1191,268.6563 1157.8809,268.832 Q1158.6426,269.0078 1159.3066,269.3594 L1159.3066,272.5625 Q1158.5645,271.8789 1157.8662,271.5615 Q1157.168,271.2441 1156.4258,271.2441 Q1154.8438,271.2441 1154.0381,272.499 Q1153.2324,273.7539 1153.2324,276.2246 Q1153.2324,278.6855 1154.0381,279.9404 Q1154.8438,281.1953 1156.4258,281.1953 Q1157.168,281.1953 1157.8662,280.8779 Q1158.5645,280.5605 1159.3066,279.877 Z " fill="#000000"/><text fill="#000000" font-family="sans-serif" font-size="20" lengthAdjust="spacing" textLength="119" x="1178.5" y="283.5586">Repositories</text><line style="stroke:#181818;stroke-width:0.5;" x1="1062.5" x2="1378.5" y1="293" y2="293"/><line style="stroke:#181818;stroke-width:0.5;" x1="1062.5" x2="1378.5" y1="301" y2="301"/><text fill="#000000" font-family="sans-serif" font-size="20" lengthAdjust="spacing" textLength="149" x="1067.5" y="324.3359">+Repositories()</text><text fill="#000000" font-family="sans-serif" font-size="20" lengthAdjust="spacing" textLength="139" x="1067.5" y="347.8906">+getInstance()</text><text fill="#000000" font-family="sans-serif" font-size="20" lengthAdjust="spacing" textLength="306" x="1067.5" y="371.4453">+getAnnouncementRepository()</text></g><!--class ListAnnouncementsController--><g id="elem_ListAnnouncementsController"><rect codeLine="48" fill="#F1F1F1" height="191.3281" id="ListAnnouncementsController" rx="2.5" ry="2.5" style="stroke:#181818;stroke-width:0.5;" width="1123" x="897" y="7"/><ellipse cx="1312" cy="24" fill="#ADD1B2" rx="12" ry="12" style="stroke:#181818;stroke-width:1.0;"/><path d="M1314.8066,31.0801 Q1314.123,31.4316 1313.3711,31.6074 Q1312.6191,31.7832 1311.7891,31.7832 Q1308.8398,31.7832 1307.2871,29.8398 Q1305.7344,27.8965 1305.7344,24.2246 Q1305.7344,20.543 1307.2871,18.5996 Q1308.8398,16.6563 1311.7891,16.6563 Q1312.6191,16.6563 1313.3809,16.832 Q1314.1426,17.0078 1314.8066,17.3594 L1314.8066,20.5625 Q1314.0645,19.8789 1313.3662,19.5615 Q1312.668,19.2441 1311.9258,19.2441 Q1310.3438,19.2441 1309.5381,20.499 Q1308.7324,21.7539 1308.7324,24.2246 Q1308.7324,26.6855 1309.5381,27.9404 Q1310.3438,29.1953 1311.9258,29.1953 Q1312.668,29.1953 1313.3662,28.8779 Q1314.0645,28.5605 1314.8066,27.877 Z " fill="#000000"/><text fill="#000000" font-family="sans-serif" font-size="20" lengthAdjust="spacing" textLength="284" x="1334" y="31.5586">ListAnnouncementsController</text><line style="stroke:#181818;stroke-width:0.5;" x1="898" x2="2019" y1="41" y2="41"/><line style="stroke:#181818;stroke-width:0.5;" x1="898" x2="2019" y1="49" y2="49"/><text fill="#000000" font-family="sans-serif" font-size="20" lengthAdjust="spacing" textLength="294" x="903" y="72.3359">+getAnnoucementRepository()</text><text fill="#000000" font-family="sans-serif" font-size="20" lengthAdjust="spacing" textLength="464" x="903" y="95.8906">+getAllAnnouncementsSortedByDefualtCriteria()</text><text fill="#000000" font-family="sans-serif" font-size="20" lengthAdjust="spacing" textLength="729" x="903" y="119.4453">+getAllAnnouncementsSortedBySortCriteria(String sortCriteria, String order)</text><text fill="#000000" font-family="sans-serif" font-size="20" lengthAdjust="spacing" textLength="1111" x="903" y="143">+getFilteredAnnouncements(ypeOfProperty typeOfProperty, TransactionType transactionType, int numberOfRooms)</text><text fill="#000000" font-family="sans-serif" font-size="20" lengthAdjust="spacing" textLength="1017" x="903" y="166.5547">+getFilteredAndSortedAnnouncements(TypeOfProperty typeOfProperty, TransactionType transactionType,</text><text fill="#000000" font-family="sans-serif" font-size="20" lengthAdjust="spacing" textLength="510" x="909" y="190.1094">int numberOfRooms, String sortCriteria, String order)</text></g><!--class ListAnouncementsUI--><g id="elem_ListAnouncementsUI"><rect codeLine="56" fill="#F1F1F1" height="144.2188" id="ListAnouncementsUI" rx="2.5" ry="2.5" style="stroke:#181818;stroke-width:0.5;" width="855" x="7" y="30.5"/><ellipse cx="332" cy="47.5" fill="#ADD1B2" rx="12" ry="12" style="stroke:#181818;stroke-width:1.0;"/><path d="M334.8066,54.5801 Q334.123,54.9316 333.3711,55.1074 Q332.6191,55.2832 331.7891,55.2832 Q328.8398,55.2832 327.2871,53.3398 Q325.7344,51.3965 325.7344,47.7246 Q325.7344,44.043 327.2871,42.0996 Q328.8398,40.1563 331.7891,40.1563 Q332.6191,40.1563 333.3809,40.332 Q334.1426,40.5078 334.8066,40.8594 L334.8066,44.0625 Q334.0645,43.3789 333.3662,43.0615 Q332.668,42.7441 331.9258,42.7441 Q330.3438,42.7441 329.5381,43.999 Q328.7324,45.2539 328.7324,47.7246 Q328.7324,50.1855 329.5381,51.4404 Q330.3438,52.6953 331.9258,52.6953 Q332.668,52.6953 333.3662,52.3779 Q334.0645,52.0605 334.8066,51.377 Z " fill="#000000"/><text fill="#000000" font-family="sans-serif" font-size="20" lengthAdjust="spacing" textLength="196" x="354" y="55.0586">ListAnouncementsUI</text><line style="stroke:#181818;stroke-width:0.5;" x1="8" x2="861" y1="64.5" y2="64.5"/><line style="stroke:#181818;stroke-width:0.5;" x1="8" x2="861" y1="72.5" y2="72.5"/><text fill="#000000" font-family="sans-serif" font-size="20" lengthAdjust="spacing" textLength="787" x="13" y="95.8359">+checkInputType(typeOfProperty, transactionType, numberOfRooms, sortCriteria)</text><text fill="#000000" font-family="sans-serif" font-size="20" lengthAdjust="spacing" textLength="843" x="13" y="119.3906">+getAnnouncements(TypeOfProperty typeOfProperty, TransactionType transactionType,</text><text fill="#000000" font-family="sans-serif" font-size="20" lengthAdjust="spacing" textLength="510" x="19" y="142.9453">int numberOfRooms, String sortCriteria, String order)</text><text fill="#000000" font-family="sans-serif" font-size="20" lengthAdjust="spacing" textLength="156" x="13" y="166.5">+getController()</text></g><!--class Address--><g id="elem_Address"><rect codeLine="62" fill="#F1F1F1" height="167.7734" id="Address" rx="2.5" ry="2.5" style="stroke:#181818;stroke-width:0.5;" width="153" x="1310" y="1436"/><ellipse cx="1344" cy="1453" fill="#ADD1B2" rx="12" ry="12" style="stroke:#181818;stroke-width:1.0;"/><path d="M1346.8066,1460.0801 Q1346.123,1460.4316 1345.3711,1460.6074 Q1344.6191,1460.7832 1343.7891,1460.7832 Q1340.8398,1460.7832 1339.2871,1458.8398 Q1337.7344,1456.8965 1337.7344,1453.2246 Q1337.7344,1449.543 1339.2871,1447.5996 Q1340.8398,1445.6563 1343.7891,1445.6563 Q1344.6191,1445.6563 1345.3809,1445.832 Q1346.1426,1446.0078 1346.8066,1446.3594 L1346.8066,1449.5625 Q1346.0645,1448.8789 1345.3662,1448.5615 Q1344.668,1448.2441 1343.9258,1448.2441 Q1342.3438,1448.2441 1341.5381,1449.499 Q1340.7324,1450.7539 1340.7324,1453.2246 Q1340.7324,1455.6855 1341.5381,1456.9404 Q1342.3438,1458.1953 1343.9258,1458.1953 Q1344.668,1458.1953 1345.3662,1457.8779 Q1346.0645,1457.5605 1346.8066,1456.877 Z " fill="#000000"/><text fill="#000000" font-family="sans-serif" font-size="20" lengthAdjust="spacing" textLength="79" x="1363" y="1460.5586">Address</text><line style="stroke:#181818;stroke-width:0.5;" x1="1311" x2="1462" y1="1470" y2="1470"/><text fill="#000000" font-family="sans-serif" font-size="20" lengthAdjust="spacing" textLength="128" x="1316" y="1493.3359">-String street</text><text fill="#000000" font-family="sans-serif" font-size="20" lengthAdjust="spacing" textLength="107" x="1316" y="1516.8906">-String city</text><text fill="#000000" font-family="sans-serif" font-size="20" lengthAdjust="spacing" textLength="141" x="1316" y="1540.4453">-String district</text><text fill="#000000" font-family="sans-serif" font-size="20" lengthAdjust="spacing" textLength="120" x="1316" y="1564">-String state</text><text fill="#000000" font-family="sans-serif" font-size="20" lengthAdjust="spacing" textLength="123" x="1316" y="1587.5547">-int zipCode</text><line style="stroke:#181818;stroke-width:0.5;" x1="1311" x2="1462" y1="1595.7734" y2="1595.7734"/></g><!--link Repositories to Repositories--><g id="link_Repositories_Repositories"><path codeLine="70" d="M1379.95,304.5 C1400.74,307.08 1414.5,312.08 1414.5,319.5 C1414.5,326.17 1403.39,330.88 1386.06,333.64 " fill="none" id="Repositories-to-Repositories" style="stroke:#181818;stroke-width:1.0;"/><polygon fill="#181818" points="1381.45,334.29,1390.922,336.9885,1386.4006,333.5889,1389.8002,329.0675,1381.45,334.29" style="stroke:#181818;stroke-width:1.0;"/><text fill="#000000" font-family="sans-serif" font-size="20" lengthAdjust="spacing" textLength="89" x="1420.5" y="327.3359">instances</text></g><!--link ListAnouncementsUI to ListAnnouncementsController--><g id="link_ListAnouncementsUI_ListAnnouncementsController"><path codeLine="72" d="M862.41,102.5 C871.32,102.5 880.64,102.5 890.22,102.5 " fill="none" id="ListAnouncementsUI-to-ListAnnouncementsController" style="stroke:#181818;stroke-width:1.0;stroke-dasharray:7.0,7.0;"/><polygon fill="#181818" points="895.04,102.5,886.04,98.5,890.04,102.5,886.04,106.5,895.04,102.5" style="stroke:#181818;stroke-width:1.0;"/></g><!--link ListAnnouncementsController to Repositories--><g id="link_ListAnnouncementsController_Repositories"><path codeLine="74" d="M1353.42,198.43 C1332.35,217.46 1310.69,237.03 1291.13,254.7 " fill="none" id="ListAnnouncementsController-to-Repositories" style="stroke:#181818;stroke-width:1.0;stroke-dasharray:7.0,7.0;"/><polygon fill="#181818" points="1287.85,257.66,1297.2155,254.6125,1291.5665,254.3152,1291.8638,248.6661,1287.85,257.66" style="stroke:#181818;stroke-width:1.0;"/></g><!--link Repositories to AnnouncementRepository--><g id="link_Repositories_AnnouncementRepository"><path codeLine="76" d="M1264.11,380.27 C1281.84,404.56 1302.68,433.13 1322.1,459.74 " fill="none" id="Repositories-to-AnnouncementRepository" style="stroke:#181818;stroke-width:1.0;"/><polygon fill="#181818" points="1324.81,463.46,1322.7474,453.8296,1321.8674,459.4176,1316.2794,458.5376,1324.81,463.46" style="stroke:#181818;stroke-width:1.0;"/><text fill="#000000" font-family="sans-serif" font-size="20" lengthAdjust="spacing" textLength="33" x="1304.5" y="430.3359">has</text><text fill="#000000" font-family="sans-serif" font-size="20" lengthAdjust="spacing" textLength="13" x="1254.937" y="407.1047">1</text><text fill="#000000" font-family="sans-serif" font-size="20" lengthAdjust="spacing" textLength="13" x="1306.9164" y="452.815">1</text></g><!--link ListAnnouncementsController to AnnouncementRepository--><g id="link_ListAnnouncementsController_AnnouncementRepository"><path codeLine="78" d="M1493.91,198.43 C1505.99,230.81 1516.5,259 1516.5,259 C1516.5,259 1516.5,380 1516.5,380 C1516.5,380 1486.02,419.39 1454.58,460.03 " fill="none" id="ListAnnouncementsController-to-AnnouncementRepository" style="stroke:#181818;stroke-width:1.0;stroke-dasharray:7.0,7.0;"/><polygon fill="#181818" points="1451.66,463.79,1460.3277,459.1133,1454.7168,459.8333,1453.9969,454.2224,1451.66,463.79" style="stroke:#181818;stroke-width:1.0;"/></g><!--link AnnouncementRepository to Announcement--><g id="link_AnnouncementRepository_Announcement"><path codeLine="80" d="M1386.5,633.48 C1386.5,657.56 1386.5,684.58 1386.5,711.34 " fill="none" id="AnnouncementRepository-to-Announcement" style="stroke:#181818;stroke-width:1.0;"/><polygon fill="#181818" points="1386.5,716.26,1390.5,707.26,1386.5,711.26,1382.5,707.26,1386.5,716.26" style="stroke:#181818;stroke-width:1.0;"/><text fill="#000000" font-family="sans-serif" font-size="20" lengthAdjust="spacing" textLength="33" x="1387.5" y="683.3359">has</text><text fill="#000000" font-family="sans-serif" font-size="20" lengthAdjust="spacing" textLength="13" x="1373.0023" y="660.1943">1</text><text fill="#000000" font-family="sans-serif" font-size="20" lengthAdjust="spacing" textLength="10" x="1376.2266" y="705.6822">*</text></g><!--link Announcement to Property--><g id="link_Announcement_Property"><path codeLine="82" d="M1386.5,1004.38 C1386.5,1030 1386.5,1056.65 1386.5,1082.11 " fill="none" id="Announcement-to-Property" style="stroke:#181818;stroke-width:1.0;"/><polygon fill="#181818" points="1386.5,1087.04,1390.5,1078.04,1386.5,1082.04,1382.5,1078.04,1386.5,1087.04" style="stroke:#181818;stroke-width:1.0;"/><text fill="#000000" font-family="sans-serif" font-size="20" lengthAdjust="spacing" textLength="33" x="1387.5" y="1054.3359">has</text><text fill="#000000" font-family="sans-serif" font-size="20" lengthAdjust="spacing" textLength="13" x="1373.2055" y="1030.7568">1</text><text fill="#000000" font-family="sans-serif" font-size="20" lengthAdjust="spacing" textLength="13" x="1373.1242" y="1076.6379">1</text></g><!--link Property to Address--><g id="link_Property_Address"><path codeLine="84" d="M1386.5,1351.27 C1386.5,1377.7 1386.5,1404.91 1386.5,1429.54 " fill="none" id="Property-to-Address" style="stroke:#181818;stroke-width:1.0;"/><polygon fill="#181818" points="1386.5,1434.23,1390.5,1425.23,1386.5,1429.23,1382.5,1425.23,1386.5,1434.23" style="stroke:#181818;stroke-width:1.0;"/><text fill="#000000" font-family="sans-serif" font-size="20" lengthAdjust="spacing" textLength="33" x="1387.5" y="1401.3359">has</text><text fill="#000000" font-family="sans-serif" font-size="20" lengthAdjust="spacing" textLength="13" x="1373.1445" y="1378.4291">1</text><text fill="#000000" font-family="sans-serif" font-size="20" lengthAdjust="spacing" textLength="13" x="1372.9414" y="1423.8801">1</text></g><!--SRC=[vLPDQnin4Btlhn2v9AcJaFOOIY1r21WACN5xwqLUZRt2MiqYpL8sfV-z8wzsBJcEqqEXXVgYrNozUJCZoNwZRIETh0sM6r12mKgsXXxGqa8_W_XmNPpwmKRKQB6i7DOWoBLGx3IDB3To3Glg30W79KcxDgc1hwJ2xzgknKeQdsgCja1T0w91quLDYZWgqH4MYLTffFTtH4ulMu9PYNQRxtLHd1fOaI0KJgyh4ag7T3GMMmynTzY0e-v78VXtAHIsIqvPEf2vH6dF94fuOBfJi0GkrpTEbn15TqevuE2oNxVIYLW3HSNPUI9Yf7H__m8drSu3oYWWN31XksR1po8IkhCMM_QlsLSChBvmoHvN0rT1sNQmST9w6KfZWpbtDDj7gtj9p9KPQr-5xoYUOgszPrDH3bz3BPoJtMSczN5U8U6jQCBYetQ9Q41QeVsyZmagQZIdh_FDb8aDTO_Lw1dyTa6Ue46l2LqNIpC97J0cjV4BdYrGdxfxMBNIqDHf1jLZauvuX7KqxpCHFf5TY2X4fy3juZremtfGMT2peqsxUAjV5zkYsRPUWdjSFI7M_X2WwdF_eyZVx4liaVgnUemz6_kamG-TIcL9BsQsFozfUmvsF9s9C8yPvIbVS0wD0PSEHh0u4EPV7vp_Tsxwlkuo-ZhZTaxA2ihDp3Oj1PYp_RHU560lWHJvlDWViB_7EcIoczliokkVcU7s7sAH0w1SLkhn_e-IyCxn8qFxlhkxFcJxh9ifAWYGsLczlCtFxWrRz-VJ5yM1xbpT7ZkBWylXWtfrbOFjfNBo_aHSSZvXVUKDk16Lz6-37FOkYbUYZi3lSk01BfEbMOuZ50t7VKOb_hU8Dhy0]--></g></svg>