<?xml version="1.0" encoding="UTF-8" standalone="no"?><svg xmlns="http://www.w3.org/2000/svg" xmlns:xlink="http://www.w3.org/1999/xlink" contentStyleType="text/css" height="2842px" preserveAspectRatio="none" style="width:1161px;height:2842px;background:#FFFFFF;" version="1.1" viewBox="0 0 1161 2842" width="1161px" zoomAndPan="magnify"><defs/><g><!--class Property--><g id="elem_Property"><rect codeLine="10" fill="#F1F1F1" height="356.2109" id="Property" rx="2.5" ry="2.5" style="stroke:#181818;stroke-width:0.5;" width="290" x="651.5" y="2479"/><ellipse cx="752" cy="2496" fill="#ADD1B2" rx="12" ry="12" style="stroke:#181818;stroke-width:1.0;"/><path d="M754.8066,2503.0801 Q754.123,2503.4316 753.3711,2503.6074 Q752.6191,2503.7832 751.7891,2503.7832 Q748.8398,2503.7832 747.2871,2501.8398 Q745.7344,2499.8965 745.7344,2496.2246 Q745.7344,2492.543 747.2871,2490.5996 Q748.8398,2488.6563 751.7891,2488.6563 Q752.6191,2488.6563 753.3809,2488.832 Q754.1426,2489.0078 754.8066,2489.3594 L754.8066,2492.5625 Q754.0645,2491.8789 753.3662,2491.5615 Q752.668,2491.2441 751.9258,2491.2441 Q750.3438,2491.2441 749.5381,2492.499 Q748.7324,2493.7539 748.7324,2496.2246 Q748.7324,2498.6855 749.5381,2499.9404 Q750.3438,2501.1953 751.9258,2501.1953 Q752.668,2501.1953 753.3662,2500.8779 Q754.0645,2500.5605 754.8066,2499.877 Z " fill="#000000"/><text fill="#000000" font-family="sans-serif" font-size="20" lengthAdjust="spacing" textLength="80" x="774" y="2503.5586">Property</text><line style="stroke:#181818;stroke-width:0.5;" x1="652.5" x2="940.5" y1="2513" y2="2513"/><text fill="#000000" font-family="sans-serif" font-size="20" lengthAdjust="spacing" textLength="126" x="657.5" y="2536.3359">-double area</text><text fill="#000000" font-family="sans-serif" font-size="20" lengthAdjust="spacing" textLength="278" x="657.5" y="2559.8906">-double distanceFromCenter</text><text fill="#000000" font-family="sans-serif" font-size="20" lengthAdjust="spacing" textLength="133" x="657.5" y="2583.4453">-double price</text><text fill="#000000" font-family="sans-serif" font-size="20" lengthAdjust="spacing" textLength="173" x="657.5" y="2607">-Address address</text><line style="stroke:#181818;stroke-width:0.5;" x1="652.5" x2="940.5" y1="2615.2188" y2="2615.2188"/><text fill="#000000" font-family="sans-serif" font-size="20" lengthAdjust="spacing" textLength="139" x="657.5" y="2638.5547">+getAddress()</text><text fill="#000000" font-family="sans-serif" font-size="20" lengthAdjust="spacing" textLength="104" x="657.5" y="2662.1094">+getArea()</text><text fill="#000000" font-family="sans-serif" font-size="20" lengthAdjust="spacing" textLength="255" x="657.5" y="2685.6641">+getDistanceFromCenter()</text><text fill="#000000" font-family="sans-serif" font-size="20" lengthAdjust="spacing" textLength="106" x="657.5" y="2709.2188">+getPrice()</text><text fill="#000000" font-family="sans-serif" font-size="20" lengthAdjust="spacing" textLength="137" x="657.5" y="2732.7734">+setAddress()</text><text fill="#000000" font-family="sans-serif" font-size="20" lengthAdjust="spacing" textLength="102" x="657.5" y="2756.3281">+setArea()</text><text fill="#000000" font-family="sans-serif" font-size="20" lengthAdjust="spacing" textLength="253" x="657.5" y="2779.8828">+setDistanceFromCenter()</text><text fill="#000000" font-family="sans-serif" font-size="20" lengthAdjust="spacing" textLength="104" x="657.5" y="2803.4375">+setPrice()</text><text fill="#000000" font-family="sans-serif" font-size="20" lengthAdjust="spacing" textLength="105" x="657.5" y="2826.9922">+toString()</text></g><!--class Announcement--><g id="elem_Announcement"><rect codeLine="26" fill="#F1F1F1" height="756.6406" id="Announcement" rx="2.5" ry="2.5" style="stroke:#181818;stroke-width:0.5;" width="406" x="593.5" y="1637"/><ellipse cx="720" cy="1654" fill="#ADD1B2" rx="12" ry="12" style="stroke:#181818;stroke-width:1.0;"/><path d="M722.8066,1661.0801 Q722.123,1661.4316 721.3711,1661.6074 Q720.6191,1661.7832 719.7891,1661.7832 Q716.8398,1661.7832 715.2871,1659.8398 Q713.7344,1657.8965 713.7344,1654.2246 Q713.7344,1650.543 715.2871,1648.5996 Q716.8398,1646.6563 719.7891,1646.6563 Q720.6191,1646.6563 721.3809,1646.832 Q722.1426,1647.0078 722.8066,1647.3594 L722.8066,1650.5625 Q722.0645,1649.8789 721.3662,1649.5615 Q720.668,1649.2441 719.9258,1649.2441 Q718.3438,1649.2441 717.5381,1650.499 Q716.7324,1651.7539 716.7324,1654.2246 Q716.7324,1656.6855 717.5381,1657.9404 Q718.3438,1659.1953 719.9258,1659.1953 Q720.668,1659.1953 721.3662,1658.8779 Q722.0645,1658.5605 722.8066,1657.877 Z " fill="#000000"/><text fill="#000000" font-family="sans-serif" font-size="20" lengthAdjust="spacing" textLength="144" x="742" y="1661.5586">Announcement</text><line style="stroke:#181818;stroke-width:0.5;" x1="594.5" x2="998.5" y1="1671" y2="1671"/><text fill="#000000" font-family="sans-serif" font-size="20" lengthAdjust="spacing" textLength="180" x="599.5" y="1694.3359">-Property property</text><text fill="#000000" font-family="sans-serif" font-size="20" lengthAdjust="spacing" textLength="312" x="599.5" y="1717.8906">-TypeOfProperty typeOfProperty</text><text fill="#000000" font-family="sans-serif" font-size="20" lengthAdjust="spacing" textLength="330" x="599.5" y="1741.4453">-TransactionType transactionType</text><text fill="#000000" font-family="sans-serif" font-size="20" lengthAdjust="spacing" textLength="178" x="599.5" y="1765">-Date publishDate</text><text fill="#000000" font-family="sans-serif" font-size="20" lengthAdjust="spacing" textLength="216" x="599.5" y="1788.5547">-Comission comission</text><text fill="#000000" font-family="sans-serif" font-size="20" lengthAdjust="spacing" textLength="255" x="599.5" y="1812.1094">-ArrayList&lt;Photo&gt; photos</text><text fill="#000000" font-family="sans-serif" font-size="20" lengthAdjust="spacing" textLength="205" x="599.5" y="1835.6641">-boolean isPublished</text><text fill="#000000" font-family="sans-serif" font-size="20" lengthAdjust="spacing" textLength="62" x="599.5" y="1859.2188">-int id</text><text fill="#000000" font-family="sans-serif" font-size="20" lengthAdjust="spacing" textLength="138" x="599.5" y="1882.7734">-int idCounter</text><line style="stroke:#181818;stroke-width:0.5;" x1="594.5" x2="998.5" y1="1890.9922" y2="1890.9922"/><text fill="#000000" font-family="sans-serif" font-size="20" lengthAdjust="spacing" textLength="174" x="599.5" y="1914.3281">+Announcement()</text><text fill="#000000" font-family="sans-serif" font-size="20" lengthAdjust="spacing" textLength="394" x="599.5" y="1937.8828">+Announcement() construtor diferente???</text><text fill="#000000" font-family="sans-serif" font-size="20" lengthAdjust="spacing" textLength="219" x="599.5" y="1961.4375">+getTransactionType()</text><text fill="#000000" font-family="sans-serif" font-size="20" lengthAdjust="spacing" textLength="140" x="599.5" y="1984.9922">+getProperty()</text><text fill="#000000" font-family="sans-serif" font-size="20" lengthAdjust="spacing" textLength="210" x="599.5" y="2008.5469">+getTypeOfProperty()</text><text fill="#000000" font-family="sans-serif" font-size="20" lengthAdjust="spacing" textLength="174" x="599.5" y="2032.1016">+getPublishDate()</text><text fill="#000000" font-family="sans-serif" font-size="20" lengthAdjust="spacing" textLength="161" x="599.5" y="2055.6563">+getComission()</text><text fill="#000000" font-family="sans-serif" font-size="20" lengthAdjust="spacing" textLength="79" x="599.5" y="2079.2109">+getId()</text><text fill="#000000" font-family="sans-serif" font-size="20" lengthAdjust="spacing" textLength="155" x="599.5" y="2102.7656">+getIdCounter()</text><text fill="#000000" font-family="sans-serif" font-size="20" lengthAdjust="spacing" textLength="140" x="599.5" y="2126.3203">+isPublished()</text><text fill="#000000" font-family="sans-serif" font-size="20" lengthAdjust="spacing" textLength="217" x="599.5" y="2149.875">+setTransactionType()</text><text fill="#000000" font-family="sans-serif" font-size="20" lengthAdjust="spacing" textLength="138" x="599.5" y="2173.4297">+setProperty()</text><text fill="#000000" font-family="sans-serif" font-size="20" lengthAdjust="spacing" textLength="208" x="599.5" y="2196.9844">+setTypeOfProperty()</text><text fill="#000000" font-family="sans-serif" font-size="20" lengthAdjust="spacing" textLength="152" x="599.5" y="2220.5391">+setPublished()</text><text fill="#000000" font-family="sans-serif" font-size="20" lengthAdjust="spacing" textLength="159" x="599.5" y="2244.0938">+setComission()</text><text fill="#000000" font-family="sans-serif" font-size="20" lengthAdjust="spacing" textLength="172" x="599.5" y="2267.6484">+setPublishDate()</text><text fill="#000000" font-family="sans-serif" font-size="20" lengthAdjust="spacing" textLength="143" x="599.5" y="2291.2031">+hasProperty()</text><text fill="#000000" font-family="sans-serif" font-size="20" lengthAdjust="spacing" textLength="213" x="599.5" y="2314.7578">+hasTypeOfProperty()</text><text fill="#000000" font-family="sans-serif" font-size="20" lengthAdjust="spacing" textLength="177" x="599.5" y="2338.3125">+hasPublishDate()</text><text fill="#000000" font-family="sans-serif" font-size="20" lengthAdjust="spacing" textLength="183" x="599.5" y="2361.8672">+hasCommission()</text><text fill="#000000" font-family="sans-serif" font-size="20" lengthAdjust="spacing" textLength="105" x="599.5" y="2385.4219">+toString()</text></g><!--class AnnouncementRepository--><g id="elem_AnnouncementRepository"><rect codeLine="61" fill="#F1F1F1" height="285.5469" id="AnnouncementRepository" rx="2.5" ry="2.5" style="stroke:#181818;stroke-width:0.5;" width="476" x="558.5" y="1266"/><ellipse cx="669" cy="1283" fill="#ADD1B2" rx="12" ry="12" style="stroke:#181818;stroke-width:1.0;"/><path d="M671.8066,1290.0801 Q671.123,1290.4316 670.3711,1290.6074 Q669.6191,1290.7832 668.7891,1290.7832 Q665.8398,1290.7832 664.2871,1288.8398 Q662.7344,1286.8965 662.7344,1283.2246 Q662.7344,1279.543 664.2871,1277.5996 Q665.8398,1275.6563 668.7891,1275.6563 Q669.6191,1275.6563 670.3809,1275.832 Q671.1426,1276.0078 671.8066,1276.3594 L671.8066,1279.5625 Q671.0645,1278.8789 670.3662,1278.5615 Q669.668,1278.2441 668.9258,1278.2441 Q667.3438,1278.2441 666.5381,1279.499 Q665.7324,1280.7539 665.7324,1283.2246 Q665.7324,1285.6855 666.5381,1286.9404 Q667.3438,1288.1953 668.9258,1288.1953 Q669.668,1288.1953 670.3662,1287.8779 Q671.0645,1287.5605 671.8066,1286.877 Z " fill="#000000"/><text fill="#000000" font-family="sans-serif" font-size="20" lengthAdjust="spacing" textLength="246" x="691" y="1290.5586">AnnouncementRepository</text><line style="stroke:#181818;stroke-width:0.5;" x1="559.5" x2="1033.5" y1="1300" y2="1300"/><text fill="#000000" font-family="sans-serif" font-size="20" lengthAdjust="spacing" textLength="430" x="564.5" y="1323.3359">-ArrayList&lt;Announcement&gt; announcements</text><line style="stroke:#181818;stroke-width:0.5;" x1="559.5" x2="1033.5" y1="1331.5547" y2="1331.5547"/><text fill="#000000" font-family="sans-serif" font-size="20" lengthAdjust="spacing" textLength="464" x="564.5" y="1354.8906">+getAllAnnouncementsSortedByDefualtCriteria()</text><text fill="#000000" font-family="sans-serif" font-size="20" lengthAdjust="spacing" textLength="433" x="564.5" y="1378.4453">+getAllAnnouncementsSortedBySortCriteria()</text><text fill="#000000" font-family="sans-serif" font-size="20" lengthAdjust="spacing" textLength="287" x="564.5" y="1402">+getFilteredAnnouncements()</text><text fill="#000000" font-family="sans-serif" font-size="20" lengthAdjust="spacing" textLength="388" x="564.5" y="1425.5547">+getFilteredAndSortedAnnouncements()</text><text fill="#000000" font-family="sans-serif" font-size="20" lengthAdjust="spacing" textLength="221" x="564.5" y="1449.1094">+sortAnnouncements()</text><text fill="#000000" font-family="sans-serif" font-size="20" lengthAdjust="spacing" textLength="211" x="564.5" y="1472.6641">+addAnnouncement()</text><text fill="#000000" font-family="sans-serif" font-size="20" lengthAdjust="spacing" textLength="310" x="564.5" y="1496.2188">+addAnnouncementByRequest()</text><text fill="#000000" font-family="sans-serif" font-size="20" lengthAdjust="spacing" textLength="388" x="564.5" y="1519.7734">+removeNonPublishedAnnouncements()</text><text fill="#000000" font-family="sans-serif" font-size="20" lengthAdjust="spacing" textLength="229" x="564.5" y="1543.3281">+copyAnnouncements()</text></g><!--class Repositories--><g id="elem_Repositories"><rect codeLine="74" fill="#F1F1F1" height="426.875" id="Repositories" rx="2.5" ry="2.5" style="stroke:#181818;stroke-width:0.5;" width="519" x="321" y="754"/><ellipse cx="516.5" cy="771" fill="#ADD1B2" rx="12" ry="12" style="stroke:#181818;stroke-width:1.0;"/><path d="M519.3066,778.0801 Q518.623,778.4316 517.8711,778.6074 Q517.1191,778.7832 516.2891,778.7832 Q513.3398,778.7832 511.7871,776.8398 Q510.2344,774.8965 510.2344,771.2246 Q510.2344,767.543 511.7871,765.5996 Q513.3398,763.6563 516.2891,763.6563 Q517.1191,763.6563 517.8809,763.832 Q518.6426,764.0078 519.3066,764.3594 L519.3066,767.5625 Q518.5645,766.8789 517.8662,766.5615 Q517.168,766.2441 516.4258,766.2441 Q514.8438,766.2441 514.0381,767.499 Q513.2324,768.7539 513.2324,771.2246 Q513.2324,773.6855 514.0381,774.9404 Q514.8438,776.1953 516.4258,776.1953 Q517.168,776.1953 517.8662,775.8779 Q518.5645,775.5605 519.3066,774.877 Z " fill="#000000"/><text fill="#000000" font-family="sans-serif" font-size="20" lengthAdjust="spacing" textLength="119" x="538.5" y="778.5586">Repositories</text><line style="stroke:#181818;stroke-width:0.5;" x1="322" x2="839" y1="788" y2="788"/><text fill="#000000" font-family="sans-serif" font-size="20" lengthAdjust="spacing" textLength="216" x="327" y="811.3359">-Repositories instance</text><text fill="#000000" font-family="sans-serif" font-size="20" lengthAdjust="spacing" textLength="497" x="327" y="834.8906">-AuthenticationRepository authenticationRepository</text><text fill="#000000" font-family="sans-serif" font-size="20" lengthAdjust="spacing" textLength="507" x="327" y="858.4453">-AnnouncementRepository announcementRepository</text><text fill="#000000" font-family="sans-serif" font-size="20" lengthAdjust="spacing" textLength="425" x="327" y="882">-AgencyListRepository agencyListRepository</text><text fill="#000000" font-family="sans-serif" font-size="20" lengthAdjust="spacing" textLength="399" x="327" y="905.5547">-AgentListRepository agentListRepository</text><text fill="#000000" font-family="sans-serif" font-size="20" lengthAdjust="spacing" textLength="408" x="327" y="929.1094">-EmployeeRepository employeeRepository</text><text fill="#000000" font-family="sans-serif" font-size="20" lengthAdjust="spacing" textLength="301" x="327" y="952.6641">-RoleRepository roleRepository</text><line style="stroke:#181818;stroke-width:0.5;" x1="322" x2="839" y1="960.8828" y2="960.8828"/><text fill="#000000" font-family="sans-serif" font-size="20" lengthAdjust="spacing" textLength="149" x="327" y="984.2188">+Repositories()</text><text fill="#000000" font-family="sans-serif" font-size="20" lengthAdjust="spacing" textLength="286" x="327" y="1007.7734">+getOrganizationRepository()</text><text fill="#000000" font-family="sans-serif" font-size="20" lengthAdjust="spacing" textLength="293" x="327" y="1031.3281">+getTaskCategoryRepository()</text><text fill="#000000" font-family="sans-serif" font-size="20" lengthAdjust="spacing" textLength="306" x="327" y="1054.8828">+getAnnouncementRepository()</text><text fill="#000000" font-family="sans-serif" font-size="20" lengthAdjust="spacing" textLength="301" x="327" y="1078.4375">+getAuthenticationRepository()</text><text fill="#000000" font-family="sans-serif" font-size="20" lengthAdjust="spacing" textLength="265" x="327" y="1101.9922">+getAgencyListRepository()</text><text fill="#000000" font-family="sans-serif" font-size="20" lengthAdjust="spacing" textLength="252" x="327" y="1125.5469">+getAgentListRepository()</text><text fill="#000000" font-family="sans-serif" font-size="20" lengthAdjust="spacing" textLength="255" x="327" y="1149.1016">+getEmployeeRepository()</text><text fill="#000000" font-family="sans-serif" font-size="20" lengthAdjust="spacing" textLength="204" x="327" y="1172.6563">+getRoleRepository()</text></g><!--class ListAnnouncementsController--><g id="elem_ListAnnouncementsController"><rect codeLine="93" fill="#F1F1F1" height="214.8828" id="ListAnnouncementsController" rx="2.5" ry="2.5" style="stroke:#181818;stroke-width:0.5;" width="519" x="635" y="242.5"/><ellipse cx="748" cy="259.5" fill="#ADD1B2" rx="12" ry="12" style="stroke:#181818;stroke-width:1.0;"/><path d="M750.8066,266.5801 Q750.123,266.9316 749.3711,267.1074 Q748.6191,267.2832 747.7891,267.2832 Q744.8398,267.2832 743.2871,265.3398 Q741.7344,263.3965 741.7344,259.7246 Q741.7344,256.043 743.2871,254.0996 Q744.8398,252.1563 747.7891,252.1563 Q748.6191,252.1563 749.3809,252.332 Q750.1426,252.5078 750.8066,252.8594 L750.8066,256.0625 Q750.0645,255.3789 749.3662,255.0615 Q748.668,254.7441 747.9258,254.7441 Q746.3438,254.7441 745.5381,255.999 Q744.7324,257.2539 744.7324,259.7246 Q744.7324,262.1855 745.5381,263.4404 Q746.3438,264.6953 747.9258,264.6953 Q748.668,264.6953 749.3662,264.3779 Q750.0645,264.0605 750.8066,263.377 Z " fill="#000000"/><text fill="#000000" font-family="sans-serif" font-size="20" lengthAdjust="spacing" textLength="284" x="770" y="267.0586">ListAnnouncementsController</text><line style="stroke:#181818;stroke-width:0.5;" x1="636" x2="1153" y1="276.5" y2="276.5"/><text fill="#000000" font-family="sans-serif" font-size="20" lengthAdjust="spacing" textLength="507" x="641" y="299.8359">-AnnouncementRepository announcementRepository</text><line style="stroke:#181818;stroke-width:0.5;" x1="636" x2="1153" y1="308.0547" y2="308.0547"/><text fill="#000000" font-family="sans-serif" font-size="20" lengthAdjust="spacing" textLength="314" x="641" y="331.3906">+ListAnnouncementsController()</text><text fill="#000000" font-family="sans-serif" font-size="20" lengthAdjust="spacing" textLength="294" x="641" y="354.9453">+getAnnoucementRepository()</text><text fill="#000000" font-family="sans-serif" font-size="20" lengthAdjust="spacing" textLength="464" x="641" y="378.5">+getAllAnnouncementsSortedByDefualtCriteria()</text><text fill="#000000" font-family="sans-serif" font-size="20" lengthAdjust="spacing" textLength="433" x="641" y="402.0547">+getAllAnnouncementsSortedBySortCriteria()</text><text fill="#000000" font-family="sans-serif" font-size="20" lengthAdjust="spacing" textLength="287" x="641" y="425.6094">+getFilteredAnnouncements()</text><text fill="#000000" font-family="sans-serif" font-size="20" lengthAdjust="spacing" textLength="388" x="641" y="449.1641">+getFilteredAndSortedAnnouncements()</text></g><!--class ListAnouncementsUI--><g id="elem_ListAnouncementsUI"><rect codeLine="103" fill="#F1F1F1" height="685.9766" id="ListAnouncementsUI" rx="2.5" ry="2.5" style="stroke:#181818;stroke-width:0.5;" width="593" x="7" y="7"/><ellipse cx="201" cy="24" fill="#ADD1B2" rx="12" ry="12" style="stroke:#181818;stroke-width:1.0;"/><path d="M203.8066,31.0801 Q203.123,31.4316 202.3711,31.6074 Q201.6191,31.7832 200.7891,31.7832 Q197.8398,31.7832 196.2871,29.8398 Q194.7344,27.8965 194.7344,24.2246 Q194.7344,20.543 196.2871,18.5996 Q197.8398,16.6563 200.7891,16.6563 Q201.6191,16.6563 202.3809,16.832 Q203.1426,17.0078 203.8066,17.3594 L203.8066,20.5625 Q203.0645,19.8789 202.3662,19.5615 Q201.668,19.2441 200.9258,19.2441 Q199.3438,19.2441 198.5381,20.499 Q197.7324,21.7539 197.7324,24.2246 Q197.7324,26.6855 198.5381,27.9404 Q199.3438,29.1953 200.9258,29.1953 Q201.668,29.1953 202.3662,28.8779 Q203.0645,28.5605 203.8066,27.877 Z " fill="#000000"/><text fill="#000000" font-family="sans-serif" font-size="20" lengthAdjust="spacing" textLength="196" x="223" y="31.5586">ListAnouncementsUI</text><line style="stroke:#181818;stroke-width:0.5;" x1="8" x2="599" y1="41" y2="41"/><text fill="#000000" font-family="sans-serif" font-size="20" lengthAdjust="spacing" textLength="581" x="13" y="64.3359">-ListAnnouncementsController listAnnouncementsController</text><line style="stroke:#181818;stroke-width:0.5;" x1="8" x2="599" y1="72.5547" y2="72.5547"/><text fill="#000000" font-family="sans-serif" font-size="20" lengthAdjust="spacing" textLength="238" x="13" y="95.8906">+ListAnnouncementsUI()</text><text fill="#000000" font-family="sans-serif" font-size="20" lengthAdjust="spacing" textLength="156" x="13" y="119.4453">+getController()</text><text fill="#000000" font-family="sans-serif" font-size="20" lengthAdjust="spacing" textLength="62" x="13" y="143">+run()</text><text fill="#000000" font-family="sans-serif" font-size="20" lengthAdjust="spacing" textLength="214" x="13" y="166.5547">+getAnnouncements()</text><text fill="#000000" font-family="sans-serif" font-size="20" lengthAdjust="spacing" textLength="182" x="13" y="190.1094">+checkInputType()</text><text fill="#000000" font-family="sans-serif" font-size="20" lengthAdjust="spacing" textLength="155" x="13" y="213.6641">+showOptions()</text><text fill="#000000" font-family="sans-serif" font-size="20" lengthAdjust="spacing" textLength="161" x="13" y="237.2188">+requestFilters()</text><text fill="#000000" font-family="sans-serif" font-size="20" lengthAdjust="spacing" textLength="211" x="13" y="260.7734">+requestSortCriteria()</text><text fill="#000000" font-family="sans-serif" font-size="20" lengthAdjust="spacing" textLength="325" x="13" y="284.3281">+getTypeOfPropertyFilterOption()</text><text fill="#000000" font-family="sans-serif" font-size="20" lengthAdjust="spacing" textLength="357" x="13" y="307.8828">+getTypeOfTransactionFilterOption()</text><text fill="#000000" font-family="sans-serif" font-size="20" lengthAdjust="spacing" textLength="342" x="13" y="331.4375">+getNumberOfRoomsFilterOption()</text><text fill="#000000" font-family="sans-serif" font-size="20" lengthAdjust="spacing" textLength="153" x="13" y="354.9922">+writeToArray()</text><text fill="#000000" font-family="sans-serif" font-size="20" lengthAdjust="spacing" textLength="305" x="13" y="378.5469">+showTypeOfPropertyOptions()</text><text fill="#000000" font-family="sans-serif" font-size="20" lengthAdjust="spacing" textLength="308" x="13" y="402.1016">+showTypeOfBusinessOptions()</text><text fill="#000000" font-family="sans-serif" font-size="20" lengthAdjust="spacing" textLength="322" x="13" y="425.6563">+showNumberOfRoomsOptions()</text><text fill="#000000" font-family="sans-serif" font-size="20" lengthAdjust="spacing" textLength="193" x="13" y="449.2109">+showSortOptions()</text><text fill="#000000" font-family="sans-serif" font-size="20" lengthAdjust="spacing" textLength="211" x="13" y="472.7656">+showOrderOptions()</text><text fill="#000000" font-family="sans-serif" font-size="20" lengthAdjust="spacing" textLength="235" x="13" y="496.3203">+checkTypeOfProperty()</text><text fill="#000000" font-family="sans-serif" font-size="20" lengthAdjust="spacing" textLength="244" x="13" y="519.875">+checkTransactionType()</text><text fill="#000000" font-family="sans-serif" font-size="20" lengthAdjust="spacing" textLength="194" x="13" y="543.4297">+checkSortCriteria()</text><text fill="#000000" font-family="sans-serif" font-size="20" lengthAdjust="spacing" textLength="252" x="13" y="566.9844">+checkNumberOfRooms()</text><text fill="#000000" font-family="sans-serif" font-size="20" lengthAdjust="spacing" textLength="141" x="13" y="590.5391">+checkOrder()</text><text fill="#000000" font-family="sans-serif" font-size="20" lengthAdjust="spacing" textLength="233" x="13" y="614.0938">+showAnnouncements()</text><text fill="#000000" font-family="sans-serif" font-size="20" lengthAdjust="spacing" textLength="141" x="13" y="637.6484">+verifyFilters()</text><text fill="#000000" font-family="sans-serif" font-size="20" lengthAdjust="spacing" textLength="138" x="13" y="661.2031">+verifyOrder()</text><text fill="#000000" font-family="sans-serif" font-size="20" lengthAdjust="spacing" textLength="139" x="13" y="684.7578">+clearScreen()</text></g><!--link Repositories to Repositories--><g id="link_Repositories_Repositories"><path codeLine="136" d="M840.42,932.31 C861.75,939.92 875,951.65 875,967.5 C875,981.98 863.93,993.03 845.74,1000.63 " fill="none" id="Repositories-to-Repositories" style="stroke:#181818;stroke-width:1.0;"/><polygon fill="#181818" points="841.42,1002.69,851.2563,1003.1865,846.0856,1000.8922,848.3799,995.7215,841.42,1002.69" style="stroke:#181818;stroke-width:1.0;"/><text fill="#000000" font-family="sans-serif" font-size="20" lengthAdjust="spacing" textLength="89" x="881" y="975.3359">instances</text></g><!--link ListAnouncementsUI to ListAnnouncementsController--><g id="link_ListAnouncementsUI_ListAnnouncementsController"><path codeLine="138" d="M600.44,350 C609.97,350 619.49,350 628.63,350 " fill="none" id="ListAnouncementsUI-to-ListAnnouncementsController" style="stroke:#181818;stroke-width:1.0;stroke-dasharray:7.0,7.0;"/><polygon fill="#181818" points="633.57,350,624.57,346,628.57,350,624.57,354,633.57,350" style="stroke:#181818;stroke-width:1.0;"/></g><!--link ListAnnouncementsController to Repositories--><g id="link_ListAnnouncementsController_Repositories"><path codeLine="140" d="M839.98,457.86 C799.22,537.76 742.1,649.74 691.81,748.3 " fill="none" id="ListAnnouncementsController-to-Repositories" style="stroke:#181818;stroke-width:1.0;stroke-dasharray:7.0,7.0;"/><polygon fill="#181818" points="689.12,752.58,696.7784,746.3874,691.3961,748.1281,689.6554,742.7457,689.12,752.58" style="stroke:#181818;stroke-width:1.0;"/></g><!--link Repositories to AnnouncementRepository--><g id="link_Repositories_AnnouncementRepository"><path codeLine="142" d="M685.18,1181.49 C698.34,1208.27 711.57,1235.19 724.08,1260.65 " fill="none" id="Repositories-to-AnnouncementRepository" style="stroke:#181818;stroke-width:1.0;"/><polygon fill="#181818" points="726.57,1264.72,726.1983,1254.8782,724.3683,1260.2308,719.0156,1258.4009,726.57,1264.72" style="stroke:#181818;stroke-width:1.0;"/><text fill="#000000" font-family="sans-serif" font-size="20" lengthAdjust="spacing" textLength="33" x="708.5" y="1231.3359">has</text><text fill="#000000" font-family="sans-serif" font-size="20" lengthAdjust="spacing" textLength="13" x="675.4015" y="1208.236">1</text><text fill="#000000" font-family="sans-serif" font-size="20" lengthAdjust="spacing" textLength="13" x="709.3902" y="1253.619">1</text></g><!--link ListAnnouncementsController to AnnouncementRepository--><g id="link_ListAnnouncementsController_AnnouncementRepository"><path codeLine="144" d="M916.26,457.94 C940.55,577.33 976.5,754 976.5,754 C976.5,754 976.5,1181 976.5,1181 C976.5,1181 947.65,1217.38 913.06,1261.01 " fill="none" id="ListAnnouncementsController-to-AnnouncementRepository" style="stroke:#181818;stroke-width:1.0;stroke-dasharray:7.0,7.0;"/><polygon fill="#181818" points="909.47,1264.53,918.2036,1259.9776,912.583,1260.6173,911.9433,1254.9967,909.47,1264.53" style="stroke:#181818;stroke-width:1.0;"/></g><!--link AnnouncementRepository to Announcement--><g id="link_AnnouncementRepository_Announcement"><path codeLine="146" d="M796.5,1552.49 C796.5,1576.93 796.5,1603.33 796.5,1630.69 " fill="none" id="AnnouncementRepository-to-Announcement" style="stroke:#181818;stroke-width:1.0;"/><polygon fill="#181818" points="796.5,1635.54,800.5,1626.54,796.5,1630.54,792.5,1626.54,796.5,1635.54" style="stroke:#181818;stroke-width:1.0;"/><text fill="#000000" font-family="sans-serif" font-size="20" lengthAdjust="spacing" textLength="33" x="797.5" y="1602.3359">has</text><text fill="#000000" font-family="sans-serif" font-size="20" lengthAdjust="spacing" textLength="13" x="783.2055" y="1578.8718">1</text><text fill="#000000" font-family="sans-serif" font-size="20" lengthAdjust="spacing" textLength="10" x="786.3984" y="1624.954">*</text></g><!--link Announcement to Property--><g id="link_Announcement_Property"><path codeLine="148" d="M796.5,2394.05 C796.5,2421.2 796.5,2447.77 796.5,2472.96 " fill="none" id="Announcement-to-Property" style="stroke:#181818;stroke-width:1.0;"/><polygon fill="#181818" points="796.5,2477.65,800.5,2468.65,796.5,2472.65,792.5,2468.65,796.5,2477.65" style="stroke:#181818;stroke-width:1.0;"/><text fill="#000000" font-family="sans-serif" font-size="20" lengthAdjust="spacing" textLength="33" x="797.5" y="2444.3359">has</text><text fill="#000000" font-family="sans-serif" font-size="20" lengthAdjust="spacing" textLength="13" x="783.368" y="2421.3181">1</text><text fill="#000000" font-family="sans-serif" font-size="20" lengthAdjust="spacing" textLength="13" x="783.2258" y="2466.9839">1</text></g><!--SRC=[pLRRRjiu47tNLn1zwRP6Wku-5aM2nDa01XPD42SVm4XZYR14QZbK0xNOVz-XBZH9KIxwLh_8F7FcmZCZKdWKikMQDxNAZr2m0WwygyszacOllWFxwrFs7cSEQvHKUQLL0ype3hAJfUNvaPUmDtqDJ4Dkk2nhdu0LBzIRa2Kxy1fzIoqacBu5rggwjmi_epCgRLJcUUKrHxmnHelNpi0kLtAezrEMlQ_XO9XHJ8koCgmGjXoXii63FMhLWZRzZupHxu8Lgdkbaha67YA5GDf43lUqtIr80pgqjrhaC44tHQ61WlFnEQ0RLeAP37zyy23AvA_l5dbywwFDuW1SHiGe8fwDY754e_OaeIm9-2-R9BgHKdNatv0lctMQTQDzZtyc_9cQyt1mLXCiPuxc4hbjWhHqcfrWFR7kk25LILk1bVq_mLlL24IYidp-DwkkDU__eSr-UQoKKLUijG-ShAzArS0b4_WuneHYiWZQbWWNMzhmtE5D881JAWIf68dq3XYbQL8EeAtErzVNfyv5cmwREihZOw6E0ViaYGyxNNnmLuIhQLyEzCJmPsAjLapKYgkregirZBwi5DExgZWkWXAsaiwoqq4eOPJH6_CiFUXFq2eKrCxUZVnfldpY5UFUQdhNxNjTrpuDztHYGN7Rty6XuxNPQa6D4Ev5FUDXdmdwlQW9WYBmITgBCLAIY6HA6kZiIirz1D_sJ_1l1-Zi6Xhr3RugwLgVZ9whjeyDhWzEUm7er0z08SSZRUvCPoeA8d9kHzPh7Lynp7xfXlCaFFkK8FDX37oF1EZnJO9kako_cxPMFO17XWKqAq87ciVJmNAKsHVD6uq7NN8flaUYU8HdZiSjlKKbmKb2MZcViAAyJqc85fdDgdKfb6SCbV57oyOBvcvBNpQaN0twz9x_ybHipeIDHJkdsMz_P4GwdcmlEvBlufowzRejM-htigDic-5QyuJSw4vEU5pP9gyWF-vasvdfojfWfTuUMZj-0q6F1zMuHn-9nDeiRj_HPGmL4BnxCi7vsZMl11sUb6emjh_PXCzgk5FcOiEiNkaduss7z0MC61c3L97DRY-27dGnrtBIRd6jJl3YMs34OzK6CAZ3eKEwEVUYSTyemg7tsZ82pYcdppQzppM07AvhEuJ1PN1n5LuEdztrW5cM6DJBgtF7mEoIdkBBop1PLCgxFz-n2wh7FbUEaS_sY-JdITBUMROIrIN-62QUqmMONwNxKf-8_mC0]--></g></svg>