<?xml version="1.0" encoding="UTF-8" standalone="no"?><svg xmlns="http://www.w3.org/2000/svg" xmlns:xlink="http://www.w3.org/1999/xlink" contentStyleType="text/css" height="858px" preserveAspectRatio="none" style="width:2371px;height:858px;background:#FFFFFF;" version="1.1" viewBox="0 0 2371 858" width="2371px" zoomAndPan="magnify"><defs/><g><rect fill="#FFFFFF" height="653.4297" style="stroke:#181818;stroke-width:1.0;" width="10" x="89" y="98.5547"/><rect fill="#FFFFFF" height="653.4297" style="stroke:#181818;stroke-width:1.0;" width="10" x="802" y="98.5547"/><rect fill="#FFFFFF" height="387.5469" style="stroke:#181818;stroke-width:1.0;" width="10" x="1093" y="326.8828"/><rect fill="#FFFFFF" height="37.5547" style="stroke:#181818;stroke-width:1.0;" width="10" x="1296" y="364.4375"/><rect fill="#FFFFFF" height="37.5547" style="stroke:#181818;stroke-width:1.0;" width="10" x="1476" y="439.5469"/><rect fill="#FFFFFF" height="138.6641" style="stroke:#181818;stroke-width:1.0;" width="10" x="1713" y="538.2109"/><line style="stroke:#181818;stroke-width:0.5;stroke-dasharray:5.0,5.0;" x1="94" x2="94" y1="88.5547" y2="769.9844"/><line style="stroke:#181818;stroke-width:0.5;stroke-dasharray:5.0,5.0;" x1="806.5" x2="806.5" y1="88.5547" y2="769.9844"/><line style="stroke:#181818;stroke-width:0.5;stroke-dasharray:5.0,5.0;" x1="1097.5" x2="1097.5" y1="283.0508" y2="769.9844"/><line style="stroke:#181818;stroke-width:0.5;stroke-dasharray:5.0,5.0;" x1="1300.5" x2="1300.5" y1="88.5547" y2="769.9844"/><line style="stroke:#181818;stroke-width:0.5;stroke-dasharray:5.0,5.0;" x1="1480.5" x2="1480.5" y1="88.5547" y2="769.9844"/><line style="stroke:#181818;stroke-width:0.5;stroke-dasharray:5.0,5.0;" x1="1717.5" x2="1717.5" y1="88.5547" y2="769.9844"/><text fill="#000000" font-family="sans-serif" font-size="20" lengthAdjust="spacing" textLength="172" x="5" y="84.3359">Unregistered User</text><ellipse cx="94" cy="13.5" fill="#E3E3E3" rx="8" ry="8" style="stroke:#181818;stroke-width:0.5;"/><path d="M94,21.5 L94,48.5 M81,29.5 L107,29.5 M94,48.5 L81,63.5 M94,48.5 L107,63.5 " fill="none" style="stroke:#181818;stroke-width:0.5;"/><text fill="#000000" font-family="sans-serif" font-size="20" lengthAdjust="spacing" textLength="172" x="5" y="788.3203">Unregistered User</text><ellipse cx="94" cy="801.0391" fill="#E3E3E3" rx="8" ry="8" style="stroke:#181818;stroke-width:0.5;"/><path d="M94,809.0391 L94,836.0391 M81,817.0391 L107,817.0391 M94,836.0391 L81,851.0391 M94,836.0391 L107,851.0391 " fill="none" style="stroke:#181818;stroke-width:0.5;"/><rect fill="#E3E3E3" height="37.5547" rx="2.5" ry="2.5" style="stroke:#181818;stroke-width:0.5;" width="171" x="721.5" y="50"/><text fill="#000000" font-family="sans-serif" font-size="20" lengthAdjust="spacing" textLength="157" x="728.5" y="76.3359">:ListPropertiesUI</text><rect fill="#E3E3E3" height="37.5547" rx="2.5" ry="2.5" style="stroke:#181818;stroke-width:0.5;" width="171" x="721.5" y="768.9844"/><text fill="#000000" font-family="sans-serif" font-size="20" lengthAdjust="spacing" textLength="157" x="728.5" y="795.3203">:ListPropertiesUI</text><rect fill="#E3E3E3" height="37.5547" rx="2.5" ry="2.5" style="stroke:#181818;stroke-width:0.5;" width="247" x="974.5" y="768.9844"/><text fill="#000000" font-family="sans-serif" font-size="20" lengthAdjust="spacing" textLength="233" x="981.5" y="795.3203">:ListPropertiesController</text><rect fill="#E3E3E3" height="37.5547" rx="2.5" ry="2.5" style="stroke:#181818;stroke-width:0.5;" width="139" x="1231.5" y="50"/><text fill="#000000" font-family="sans-serif" font-size="20" lengthAdjust="spacing" textLength="125" x="1238.5" y="76.3359">:Repositories</text><rect fill="#E3E3E3" height="37.5547" rx="2.5" ry="2.5" style="stroke:#181818;stroke-width:0.5;" width="139" x="1231.5" y="768.9844"/><text fill="#000000" font-family="sans-serif" font-size="20" lengthAdjust="spacing" textLength="125" x="1238.5" y="795.3203">:Repositories</text><rect fill="#E3E3E3" height="61.1094" rx="2.5" ry="2.5" style="stroke:#181818;stroke-width:0.5;" width="139" x="1411.5" y="26.4453"/><text fill="#000000" font-family="sans-serif" font-size="20" lengthAdjust="spacing" textLength="114" x="1424" y="52.7813">repositories</text><text fill="#000000" font-family="sans-serif" font-size="20" lengthAdjust="spacing" textLength="125" x="1418.5" y="76.3359">:Repositories</text><rect fill="#E3E3E3" height="61.1094" rx="2.5" ry="2.5" style="stroke:#181818;stroke-width:0.5;" width="139" x="1411.5" y="768.9844"/><text fill="#000000" font-family="sans-serif" font-size="20" lengthAdjust="spacing" textLength="114" x="1424" y="795.3203">repositories</text><text fill="#000000" font-family="sans-serif" font-size="20" lengthAdjust="spacing" textLength="125" x="1418.5" y="818.875">:Repositories</text><rect fill="#E3E3E3" height="61.1094" rx="2.5" ry="2.5" style="stroke:#181818;stroke-width:0.5;" width="315" x="1560.5" y="26.4453"/><text fill="#000000" font-family="sans-serif" font-size="20" lengthAdjust="spacing" textLength="301" x="1567.5" y="52.7813">publishedPropertiesRepository:</text><text fill="#000000" font-family="sans-serif" font-size="20" lengthAdjust="spacing" textLength="293" x="1571.5" y="76.3359">PublishedPropertiesRepository</text><rect fill="#E3E3E3" height="61.1094" rx="2.5" ry="2.5" style="stroke:#181818;stroke-width:0.5;" width="315" x="1560.5" y="768.9844"/><text fill="#000000" font-family="sans-serif" font-size="20" lengthAdjust="spacing" textLength="301" x="1567.5" y="795.3203">publishedPropertiesRepository:</text><text fill="#000000" font-family="sans-serif" font-size="20" lengthAdjust="spacing" textLength="293" x="1571.5" y="818.875">PublishedPropertiesRepository</text><rect fill="#FFFFFF" height="653.4297" style="stroke:#181818;stroke-width:1.0;" width="10" x="89" y="98.5547"/><rect fill="#FFFFFF" height="653.4297" style="stroke:#181818;stroke-width:1.0;" width="10" x="802" y="98.5547"/><rect fill="#FFFFFF" height="387.5469" style="stroke:#181818;stroke-width:1.0;" width="10" x="1093" y="326.8828"/><rect fill="#FFFFFF" height="37.5547" style="stroke:#181818;stroke-width:1.0;" width="10" x="1296" y="364.4375"/><rect fill="#FFFFFF" height="37.5547" style="stroke:#181818;stroke-width:1.0;" width="10" x="1476" y="439.5469"/><rect fill="#FFFFFF" height="138.6641" style="stroke:#181818;stroke-width:1.0;" width="10" x="1713" y="538.2109"/><polygon fill="#181818" points="110,124.1094,100,128.1094,110,132.1094,106,128.1094" style="stroke:#181818;stroke-width:1.0;"/><line style="stroke:#181818;stroke-width:1.0;stroke-dasharray:2.0,2.0;" x1="104" x2="801" y1="128.1094" y2="128.1094"/><text fill="#000000" font-family="sans-serif" font-size="20" font-weight="bold" lengthAdjust="spacing" textLength="13" x="116" y="121.8906">1</text><text fill="#000000" font-family="sans-serif" font-size="20" lengthAdjust="spacing" textLength="361" x="133" y="121.8906">shows property filter and sort options</text><polygon fill="#181818" points="790,161.6641,800,165.6641,790,169.6641,794,165.6641" style="stroke:#181818;stroke-width:1.0;"/><line style="stroke:#181818;stroke-width:1.0;stroke-dasharray:2.0,2.0;" x1="99" x2="796" y1="165.6641" y2="165.6641"/><text fill="#000000" font-family="sans-serif" font-size="20" font-weight="bold" lengthAdjust="spacing" textLength="13" x="106" y="159.4453">2</text><text fill="#000000" font-family="sans-serif" font-size="20" lengthAdjust="spacing" textLength="662" x="123" y="159.4453">selects filter options (propertyType, buisnessType, numberOfRooms)</text><polygon fill="#181818" points="790,199.2188,800,203.2188,790,207.2188,794,203.2188" style="stroke:#181818;stroke-width:1.0;"/><line style="stroke:#181818;stroke-width:1.0;stroke-dasharray:2.0,2.0;" x1="99" x2="796" y1="203.2188" y2="203.2188"/><text fill="#000000" font-family="sans-serif" font-size="20" font-weight="bold" lengthAdjust="spacing" textLength="13" x="106" y="197">3</text><text fill="#000000" font-family="sans-serif" font-size="20" lengthAdjust="spacing" textLength="326" x="123" y="197">selects sort options (price, parish)</text><polygon fill="#181818" points="790,236.7734,800,240.7734,790,244.7734,794,240.7734" style="stroke:#181818;stroke-width:1.0;"/><line style="stroke:#181818;stroke-width:1.0;" x1="99" x2="796" y1="240.7734" y2="240.7734"/><text fill="#000000" font-family="sans-serif" font-size="20" font-weight="bold" lengthAdjust="spacing" textLength="13" x="106" y="234.5547">4</text><text fill="#000000" font-family="sans-serif" font-size="20" lengthAdjust="spacing" textLength="208" x="123" y="234.5547">asks to list properties</text><polygon fill="#181818" points="962.5,274.3281,972.5,278.3281,962.5,282.3281,966.5,278.3281" style="stroke:#181818;stroke-width:1.0;"/><line style="stroke:#181818;stroke-width:1.0;" x1="812" x2="968.5" y1="278.3281" y2="278.3281"/><text fill="#000000" font-family="sans-serif" font-size="20" font-weight="bold" lengthAdjust="spacing" textLength="13" x="819" y="272.1094">5</text><text fill="#000000" font-family="sans-serif" font-size="20" lengthAdjust="spacing" textLength="58" x="836" y="272.1094">create</text><rect fill="#E3E3E3" height="37.5547" rx="2.5" ry="2.5" style="stroke:#181818;stroke-width:0.5;" width="247" x="974.5" y="248.7734"/><text fill="#000000" font-family="sans-serif" font-size="20" lengthAdjust="spacing" textLength="233" x="981.5" y="275.1094">:ListPropertiesController</text><polygon fill="#181818" points="1081,322.8828,1091,326.8828,1081,330.8828,1085,326.8828" style="stroke:#181818;stroke-width:1.0;"/><line style="stroke:#181818;stroke-width:1.0;" x1="812" x2="1087" y1="326.8828" y2="326.8828"/><text fill="#000000" font-family="sans-serif" font-size="20" font-weight="bold" lengthAdjust="spacing" textLength="13" x="819" y="320.6641">6</text><text fill="#000000" font-family="sans-serif" font-size="20" lengthAdjust="spacing" textLength="235" x="836" y="320.6641">getPublishedProperties()</text><polygon fill="#181818" points="1284,360.4375,1294,364.4375,1284,368.4375,1288,364.4375" style="stroke:#181818;stroke-width:1.0;"/><line style="stroke:#181818;stroke-width:1.0;" x1="1103" x2="1290" y1="364.4375" y2="364.4375"/><text fill="#000000" font-family="sans-serif" font-size="20" font-weight="bold" lengthAdjust="spacing" textLength="13" x="1110" y="358.2188">7</text><text fill="#000000" font-family="sans-serif" font-size="20" lengthAdjust="spacing" textLength="123" x="1127" y="358.2188">getInstance()</text><polygon fill="#181818" points="1114,397.9922,1104,401.9922,1114,405.9922,1110,401.9922" style="stroke:#181818;stroke-width:1.0;"/><line style="stroke:#181818;stroke-width:1.0;stroke-dasharray:2.0,2.0;" x1="1108" x2="1300" y1="401.9922" y2="401.9922"/><text fill="#000000" font-family="sans-serif" font-size="20" font-weight="bold" lengthAdjust="spacing" textLength="13" x="1120" y="395.7734">8</text><text fill="#000000" font-family="sans-serif" font-size="20" lengthAdjust="spacing" textLength="114" x="1137" y="395.7734">repositories</text><polygon fill="#181818" points="1464,435.5469,1474,439.5469,1464,443.5469,1468,439.5469" style="stroke:#181818;stroke-width:1.0;"/><line style="stroke:#181818;stroke-width:1.0;" x1="1103" x2="1470" y1="439.5469" y2="439.5469"/><text fill="#000000" font-family="sans-serif" font-size="20" font-weight="bold" lengthAdjust="spacing" textLength="13" x="1110" y="433.3281">9</text><text fill="#000000" font-family="sans-serif" font-size="20" lengthAdjust="spacing" textLength="337" x="1127" y="433.3281">getPublishedPropertiesRepository()</text><polygon fill="#181818" points="1114,473.1016,1104,477.1016,1114,481.1016,1110,477.1016" style="stroke:#181818;stroke-width:1.0;"/><line style="stroke:#181818;stroke-width:1.0;stroke-dasharray:2.0,2.0;" x1="1108" x2="1480" y1="477.1016" y2="477.1016"/><text fill="#000000" font-family="sans-serif" font-size="20" font-weight="bold" lengthAdjust="spacing" textLength="26" x="1120" y="470.8828">10</text><text fill="#000000" font-family="sans-serif" font-size="20" lengthAdjust="spacing" textLength="295" x="1150" y="470.8828">publishedPropertiesRepository</text><polygon fill="#181818" points="1701,534.2109,1711,538.2109,1701,542.2109,1705,538.2109" style="stroke:#181818;stroke-width:1.0;"/><line style="stroke:#181818;stroke-width:1.0;" x1="1103" x2="1707" y1="538.2109" y2="538.2109"/><text fill="#000000" font-family="sans-serif" font-size="20" font-weight="bold" lengthAdjust="spacing" textLength="26" x="1110" y="520.2148">11</text><text fill="#000000" font-family="sans-serif" font-size="20" lengthAdjust="spacing" textLength="496" x="1140" y="508.4375">getPublishedProperties(propertType, buisnessType,</text><text fill="#000000" font-family="sans-serif" font-size="20" lengthAdjust="spacing" textLength="303" x="1146" y="531.9922">numberOfRooms, price, parish)</text><line style="stroke:#181818;stroke-width:1.0;stroke-dasharray:2.0,2.0;" x1="1723" x2="1765" y1="575.7656" y2="575.7656"/><line style="stroke:#181818;stroke-width:1.0;stroke-dasharray:2.0,2.0;" x1="1765" x2="1765" y1="575.7656" y2="588.7656"/><line style="stroke:#181818;stroke-width:1.0;stroke-dasharray:2.0,2.0;" x1="1724" x2="1765" y1="588.7656" y2="588.7656"/><polygon fill="#181818" points="1734,584.7656,1724,588.7656,1734,592.7656,1730,588.7656" style="stroke:#181818;stroke-width:1.0;"/><text fill="#000000" font-family="sans-serif" font-size="20" font-weight="bold" lengthAdjust="spacing" textLength="26" x="1730" y="569.5469">12</text><text fill="#000000" font-family="sans-serif" font-size="20" lengthAdjust="spacing" textLength="604" x="1760" y="569.5469">filterProperties(propertyType, buisnessType, numberOfRooms)</text><line style="stroke:#181818;stroke-width:1.0;stroke-dasharray:2.0,2.0;" x1="1723" x2="1765" y1="626.3203" y2="626.3203"/><line style="stroke:#181818;stroke-width:1.0;stroke-dasharray:2.0,2.0;" x1="1765" x2="1765" y1="626.3203" y2="639.3203"/><line style="stroke:#181818;stroke-width:1.0;stroke-dasharray:2.0,2.0;" x1="1724" x2="1765" y1="639.3203" y2="639.3203"/><polygon fill="#181818" points="1734,635.3203,1724,639.3203,1734,643.3203,1730,639.3203" style="stroke:#181818;stroke-width:1.0;"/><text fill="#000000" font-family="sans-serif" font-size="20" font-weight="bold" lengthAdjust="spacing" textLength="26" x="1730" y="620.1016">13</text><text fill="#000000" font-family="sans-serif" font-size="20" lengthAdjust="spacing" textLength="268" x="1760" y="620.1016">sortProperties(price, parish)</text><polygon fill="#181818" points="1114,672.875,1104,676.875,1114,680.875,1110,676.875" style="stroke:#181818;stroke-width:1.0;"/><line style="stroke:#181818;stroke-width:1.0;stroke-dasharray:2.0,2.0;" x1="1108" x2="1717" y1="676.875" y2="676.875"/><text fill="#000000" font-family="sans-serif" font-size="20" font-weight="bold" lengthAdjust="spacing" textLength="26" x="1120" y="670.6563">14</text><text fill="#000000" font-family="sans-serif" font-size="20" lengthAdjust="spacing" textLength="227" x="1150" y="670.6563">publishedPropertiesList</text><polygon fill="#181818" points="823,710.4297,813,714.4297,823,718.4297,819,714.4297" style="stroke:#181818;stroke-width:1.0;"/><line style="stroke:#181818;stroke-width:1.0;stroke-dasharray:2.0,2.0;" x1="817" x2="1097" y1="714.4297" y2="714.4297"/><text fill="#000000" font-family="sans-serif" font-size="20" font-weight="bold" lengthAdjust="spacing" textLength="26" x="829" y="708.2109">15</text><text fill="#000000" font-family="sans-serif" font-size="20" lengthAdjust="spacing" textLength="227" x="859" y="708.2109">publishedPropertiesList</text><polygon fill="#181818" points="105,747.9844,95,751.9844,105,755.9844,101,751.9844" style="stroke:#181818;stroke-width:1.0;"/><line style="stroke:#181818;stroke-width:1.0;stroke-dasharray:2.0,2.0;" x1="99" x2="806" y1="751.9844" y2="751.9844"/><text fill="#000000" font-family="sans-serif" font-size="20" font-weight="bold" lengthAdjust="spacing" textLength="26" x="111" y="745.7656">16</text><text fill="#000000" font-family="sans-serif" font-size="20" lengthAdjust="spacing" textLength="589" x="141" y="745.7656">shows a list of properties filtered and sorted by users options</text><!--SRC=[hLLDRzim3BthLn2z92qQODWnXm93km41EZH8cbikYamdGcp94-LrsQyVRTc9NNyq1QQJRP9FZ-GZJKTjCkbacbXrn0WYZ6MU-1_M-BN-Y_3rYw3Q1L9hh3euco9ubsF3aabrb7jS-rE2u51vQVP9qu4ECh9lskmXbWcX43BtrkJf3fqGauEE469h_Sx-4L9vw-1cOnpkDNbqJ6j3w6v04kJ5as1ChvNEfF5mCtzchwMp6V97fCsYTDmiHhqUEK5dawI2VNnTFR_pNs5cIJCLzYvzLj-NB-ksasluR4qtfBItGx9ybsWwO7JXSWuxpRTcEMOlGKSzH54-_Ljwh4h51wfpjd1jn0GQPxE0sUm1lZtzX3cJ_fKZUO98UWbJXp6tm2YyPt6GSZhpsffx06rYwrAPmDQqBHxLmMZ5bjRdA7SoF2bB_bOq2KoKmu9PsOSUPcKkp8qEzeqW2ucV8DO9wmEaYO2iys3BgwY5448B4CPY14nOdbI7LX4mhJ5VJnbdkiir6IGARq6dB_7AsfHkhq5liYcmTL4-rW7thJU-2fTq9F0MkB- -pfBRswd8GrcekpiE2OKJ0oxii4VVevXfcyPP6cK3MgRYb50CMOv0m5mOuY5N-0we1HOcfcClJa2QLJJdq9oaJa247q7M14kOmQGlOpB6EWnjB-i0Vs4zEinZQGpSKQSnodsufvLYUYJC8zeICOjnM9EjQdomRVggDCv-TaL-OJYxcNrsElyVesAWMtn6gtVTdTM0zeYe-5U9CVryiYj1L_MM6RfmuAxkIkXToZ9iBHit5bVLIFw1rokQ7tSdo3cGEjkwSMVnXsgyXb_PFm00]--></g></svg>