<?xml version="1.0" encoding="UTF-8" standalone="no"?><svg xmlns="http://www.w3.org/2000/svg" xmlns:xlink="http://www.w3.org/1999/xlink" contentStyleType="text/css" height="868px" preserveAspectRatio="none" style="width:1308px;height:868px;background:#FFFFFF;" version="1.1" viewBox="0 0 1308 868" width="1308px" zoomAndPan="magnify"><defs/><g><!--class Property--><g id="elem_Property"><rect codeLine="10" fill="#F1F1F1" height="167.7734" id="Property" rx="2.5" ry="2.5" style="stroke:#181818;stroke-width:0.5;" width="290" x="1011" y="7"/><ellipse cx="1111.5" cy="24" fill="#ADD1B2" rx="12" ry="12" style="stroke:#181818;stroke-width:1.0;"/><path d="M1114.3066,31.0801 Q1113.623,31.4316 1112.8711,31.6074 Q1112.1191,31.7832 1111.2891,31.7832 Q1108.3398,31.7832 1106.7871,29.8398 Q1105.2344,27.8965 1105.2344,24.2246 Q1105.2344,20.543 1106.7871,18.5996 Q1108.3398,16.6563 1111.2891,16.6563 Q1112.1191,16.6563 1112.8809,16.832 Q1113.6426,17.0078 1114.3066,17.3594 L1114.3066,20.5625 Q1113.5645,19.8789 1112.8662,19.5615 Q1112.168,19.2441 1111.4258,19.2441 Q1109.8438,19.2441 1109.0381,20.499 Q1108.2324,21.7539 1108.2324,24.2246 Q1108.2324,26.6855 1109.0381,27.9404 Q1109.8438,29.1953 1111.4258,29.1953 Q1112.168,29.1953 1112.8662,28.8779 Q1113.5645,28.5605 1114.3066,27.877 Z " fill="#000000"/><text fill="#000000" font-family="sans-serif" font-size="20" lengthAdjust="spacing" textLength="80" x="1133.5" y="31.5586">Property</text><line style="stroke:#181818;stroke-width:0.5;" x1="1012" x2="1300" y1="41" y2="41"/><text fill="#000000" font-family="sans-serif" font-size="20" lengthAdjust="spacing" textLength="150" x="1017" y="64.3359">-String location</text><text fill="#000000" font-family="sans-serif" font-size="20" lengthAdjust="spacing" textLength="126" x="1017" y="87.8906">-double area</text><text fill="#000000" font-family="sans-serif" font-size="20" lengthAdjust="spacing" textLength="133" x="1017" y="111.4453">-double price</text><text fill="#000000" font-family="sans-serif" font-size="20" lengthAdjust="spacing" textLength="278" x="1017" y="135">-double distanceFromCenter</text><text fill="#000000" font-family="sans-serif" font-size="20" lengthAdjust="spacing" textLength="118" x="1017" y="158.5547">-PHOTOS???</text><line style="stroke:#181818;stroke-width:0.5;" x1="1012" x2="1300" y1="166.7734" y2="166.7734"/></g><!--class PublishedProperty--><g id="elem_PublishedProperty"><rect codeLine="18" fill="#F1F1F1" height="167.7734" id="PublishedProperty" rx="2.5" ry="2.5" style="stroke:#181818;stroke-width:0.5;" width="254" x="430" y="694"/><ellipse cx="466.7" cy="711" fill="#ADD1B2" rx="12" ry="12" style="stroke:#181818;stroke-width:1.0;"/><path d="M469.5066,718.0801 Q468.823,718.4316 468.0711,718.6074 Q467.3191,718.7832 466.4891,718.7832 Q463.5398,718.7832 461.9871,716.8398 Q460.4344,714.8965 460.4344,711.2246 Q460.4344,707.543 461.9871,705.5996 Q463.5398,703.6563 466.4891,703.6563 Q467.3191,703.6563 468.0809,703.832 Q468.8426,704.0078 469.5066,704.3594 L469.5066,707.5625 Q468.7645,706.8789 468.0662,706.5615 Q467.368,706.2441 466.6258,706.2441 Q465.0438,706.2441 464.2381,707.499 Q463.4324,708.7539 463.4324,711.2246 Q463.4324,713.6855 464.2381,714.9404 Q465.0438,716.1953 466.6258,716.1953 Q467.368,716.1953 468.0662,715.8779 Q468.7645,715.5605 469.5066,714.877 Z " fill="#000000"/><text fill="#000000" font-family="sans-serif" font-size="20" lengthAdjust="spacing" textLength="174" x="486.3" y="718.5586">PublishedProperty</text><line style="stroke:#181818;stroke-width:0.5;" x1="431" x2="683" y1="728" y2="728"/><text fill="#000000" font-family="sans-serif" font-size="20" lengthAdjust="spacing" textLength="242" x="436" y="751.3359">-Property typeOfProperty</text><text fill="#000000" font-family="sans-serif" font-size="20" lengthAdjust="spacing" textLength="221" x="436" y="774.8906">-String typeOfBusiness</text><text fill="#000000" font-family="sans-serif" font-size="20" lengthAdjust="spacing" textLength="214" x="436" y="798.4453">-String publishedDate</text><text fill="#000000" font-family="sans-serif" font-size="20" lengthAdjust="spacing" textLength="192" x="436" y="822">-Agent publishedBy</text><text fill="#000000" font-family="sans-serif" font-size="20" lengthAdjust="spacing" textLength="182" x="436" y="845.5547">-double comission</text><line style="stroke:#181818;stroke-width:0.5;" x1="431" x2="683" y1="853.7734" y2="853.7734"/></g><!--class PublishedPropertiesRepository--><g id="elem_PublishedPropertiesRepository"><rect codeLine="26" fill="#F1F1F1" height="144.2188" id="PublishedPropertiesRepository" rx="2.5" ry="2.5" style="stroke:#181818;stroke-width:0.5;" width="463" x="325.5" y="465"/><ellipse cx="406" cy="482" fill="#ADD1B2" rx="12" ry="12" style="stroke:#181818;stroke-width:1.0;"/><path d="M408.8066,489.0801 Q408.123,489.4316 407.3711,489.6074 Q406.6191,489.7832 405.7891,489.7832 Q402.8398,489.7832 401.2871,487.8398 Q399.7344,485.8965 399.7344,482.2246 Q399.7344,478.543 401.2871,476.5996 Q402.8398,474.6563 405.7891,474.6563 Q406.6191,474.6563 407.3809,474.832 Q408.1426,475.0078 408.8066,475.3594 L408.8066,478.5625 Q408.0645,477.8789 407.3662,477.5615 Q406.668,477.2441 405.9258,477.2441 Q404.3438,477.2441 403.5381,478.499 Q402.7324,479.7539 402.7324,482.2246 Q402.7324,484.6855 403.5381,485.9404 Q404.3438,487.1953 405.9258,487.1953 Q406.668,487.1953 407.3662,486.8779 Q408.0645,486.5605 408.8066,485.877 Z " fill="#000000"/><text fill="#000000" font-family="sans-serif" font-size="20" lengthAdjust="spacing" textLength="293" x="428" y="489.5586">PublishedPropertiesRepository</text><line style="stroke:#181818;stroke-width:0.5;" x1="326.5" x2="787.5" y1="499" y2="499"/><text fill="#000000" font-family="sans-serif" font-size="20" lengthAdjust="spacing" textLength="451" x="331.5" y="522.3359">-List&lt;PublishedProperty&gt; publishedProperties</text><line style="stroke:#181818;stroke-width:0.5;" x1="326.5" x2="787.5" y1="530.5547" y2="530.5547"/><text fill="#000000" font-family="sans-serif" font-size="20" lengthAdjust="spacing" textLength="322" x="331.5" y="553.8906">+getPublishedPropertiesByFilter()</text><text fill="#000000" font-family="sans-serif" font-size="20" lengthAdjust="spacing" textLength="251" x="331.5" y="577.4453">+getPublishedProperties()</text><text fill="#000000" font-family="sans-serif" font-size="20" lengthAdjust="spacing" textLength="164" x="331.5" y="601">+sortProperties()</text></g><!--class Repositories--><g id="elem_Repositories"><rect codeLine="34" fill="#F1F1F1" height="144.2188" id="Repositories" rx="2.5" ry="2.5" style="stroke:#181818;stroke-width:0.5;" width="618" x="7" y="236"/><ellipse cx="252" cy="253" fill="#ADD1B2" rx="12" ry="12" style="stroke:#181818;stroke-width:1.0;"/><path d="M254.8066,260.0801 Q254.123,260.4316 253.3711,260.6074 Q252.6191,260.7832 251.7891,260.7832 Q248.8398,260.7832 247.2871,258.8398 Q245.7344,256.8965 245.7344,253.2246 Q245.7344,249.543 247.2871,247.5996 Q248.8398,245.6563 251.7891,245.6563 Q252.6191,245.6563 253.3809,245.832 Q254.1426,246.0078 254.8066,246.3594 L254.8066,249.5625 Q254.0645,248.8789 253.3662,248.5615 Q252.668,248.2441 251.9258,248.2441 Q250.3438,248.2441 249.5381,249.499 Q248.7324,250.7539 248.7324,253.2246 Q248.7324,255.6855 249.5381,256.9404 Q250.3438,258.1953 251.9258,258.1953 Q252.668,258.1953 253.3662,257.8779 Q254.0645,257.5605 254.8066,256.877 Z " fill="#000000"/><text fill="#000000" font-family="sans-serif" font-size="20" lengthAdjust="spacing" textLength="119" x="274" y="260.5586">Repositories</text><line style="stroke:#181818;stroke-width:0.5;" x1="8" x2="624" y1="270" y2="270"/><text fill="#000000" font-family="sans-serif" font-size="20" lengthAdjust="spacing" textLength="606" x="13" y="293.3359">-PublishedPropertiesRepository publishedPropertiesRepository</text><line style="stroke:#181818;stroke-width:0.5;" x1="8" x2="624" y1="301.5547" y2="301.5547"/><text fill="#000000" font-family="sans-serif" font-size="20" lengthAdjust="spacing" textLength="149" x="13" y="324.8906">+Repositories()</text><text fill="#000000" font-family="sans-serif" font-size="20" lengthAdjust="spacing" textLength="276" x="13" y="348.4453">+getInstance() : Repositories</text><text fill="#000000" font-family="sans-serif" font-size="20" lengthAdjust="spacing" textLength="353" x="13" y="372">+getPublishedPropertiesRepository()</text></g><!--class ListPropertiesController--><g id="elem_ListPropertiesController"><rect codeLine="41" fill="#F1F1F1" height="144.2188" id="ListPropertiesController" rx="2.5" ry="2.5" style="stroke:#181818;stroke-width:0.5;" width="618" x="358" y="19"/><ellipse cx="549" cy="36" fill="#ADD1B2" rx="12" ry="12" style="stroke:#181818;stroke-width:1.0;"/><path d="M551.8066,43.0801 Q551.123,43.4316 550.3711,43.6074 Q549.6191,43.7832 548.7891,43.7832 Q545.8398,43.7832 544.2871,41.8398 Q542.7344,39.8965 542.7344,36.2246 Q542.7344,32.543 544.2871,30.5996 Q545.8398,28.6563 548.7891,28.6563 Q549.6191,28.6563 550.3809,28.832 Q551.1426,29.0078 551.8066,29.3594 L551.8066,32.5625 Q551.0645,31.8789 550.3662,31.5615 Q549.668,31.2441 548.9258,31.2441 Q547.3438,31.2441 546.5381,32.499 Q545.7324,33.7539 545.7324,36.2246 Q545.7324,38.6855 546.5381,39.9404 Q547.3438,41.1953 548.9258,41.1953 Q549.668,41.1953 550.3662,40.8779 Q551.0645,40.5605 551.8066,39.877 Z " fill="#000000"/><text fill="#000000" font-family="sans-serif" font-size="20" lengthAdjust="spacing" textLength="227" x="571" y="43.5586">ListPropertiesController</text><line style="stroke:#181818;stroke-width:0.5;" x1="359" x2="975" y1="53" y2="53"/><text fill="#000000" font-family="sans-serif" font-size="20" lengthAdjust="spacing" textLength="606" x="364" y="76.3359">-PublishedPropertiesRepository publishedPropertiesRepository</text><line style="stroke:#181818;stroke-width:0.5;" x1="359" x2="975" y1="84.5547" y2="84.5547"/><text fill="#000000" font-family="sans-serif" font-size="20" lengthAdjust="spacing" textLength="257" x="364" y="107.8906">+ListPropertiesController()</text><text fill="#000000" font-family="sans-serif" font-size="20" lengthAdjust="spacing" textLength="552" x="364" y="131.4453">+ListPropertiesController(publishedPropertiesRepository)</text><text fill="#000000" font-family="sans-serif" font-size="20" lengthAdjust="spacing" textLength="353" x="364" y="155">+getPublishedPropertiesRepository()</text></g><!--class ListPropertiesUI--><g id="elem_ListPropertiesUI"><rect codeLine="48" fill="#F1F1F1" height="50" id="ListPropertiesUI" rx="2.5" ry="2.5" style="stroke:#181818;stroke-width:0.5;" width="185" x="137.5" y="66"/><ellipse cx="153.5" cy="83" fill="#ADD1B2" rx="12" ry="12" style="stroke:#181818;stroke-width:1.0;"/><path d="M156.3066,90.0801 Q155.623,90.4316 154.8711,90.6074 Q154.1191,90.7832 153.2891,90.7832 Q150.3398,90.7832 148.7871,88.8398 Q147.2344,86.8965 147.2344,83.2246 Q147.2344,79.543 148.7871,77.5996 Q150.3398,75.6563 153.2891,75.6563 Q154.1191,75.6563 154.8809,75.832 Q155.6426,76.0078 156.3066,76.3594 L156.3066,79.5625 Q155.5645,78.8789 154.8662,78.5615 Q154.168,78.2441 153.4258,78.2441 Q151.8438,78.2441 151.0381,79.499 Q150.2324,80.7539 150.2324,83.2246 Q150.2324,85.6855 151.0381,86.9404 Q151.8438,88.1953 153.4258,88.1953 Q154.168,88.1953 154.8662,87.8779 Q155.5645,87.5605 156.3066,86.877 Z " fill="#000000"/><text fill="#000000" font-family="sans-serif" font-size="20" lengthAdjust="spacing" textLength="151" x="168.5" y="90.5586">ListPropertiesUI</text><line style="stroke:#181818;stroke-width:0.5;" x1="138.5" x2="321.5" y1="100" y2="100"/><line style="stroke:#181818;stroke-width:0.5;" x1="138.5" x2="321.5" y1="108" y2="108"/></g><!--link Repositories to Repositories--><g id="link_Repositories_Repositories"><path codeLine="51" d="M625.33,294.01 C646.87,297.2 660,301.87 660,308 C660,313.51 649.4,317.83 631.63,320.97 " fill="none" id="Repositories-to-Repositories" style="stroke:#181818;stroke-width:1.0;"/><polygon fill="#181818" points="626.82,321.75,636.3435,324.2607,631.7558,320.9511,635.0653,316.3634,626.82,321.75" style="stroke:#181818;stroke-width:1.0;"/><text fill="#000000" font-family="sans-serif" font-size="20" lengthAdjust="spacing" textLength="89" x="666" y="315.8359">instances</text></g><!--link ListPropertiesUI to ListPropertiesController--><g id="link_ListPropertiesUI_ListPropertiesController"><path codeLine="53" d="M322.67,91 C333.22,91 343.17,91 351.54,91 " fill="none" id="ListPropertiesUI-to-ListPropertiesController" style="stroke:#181818;stroke-width:1.0;stroke-dasharray:7.0,7.0;"/><polygon fill="#181818" points="356.1,91,347.1,87,351.1,91,347.1,95,356.1,91" style="stroke:#181818;stroke-width:1.0;"/></g><!--link ListPropertiesController to Repositories--><g id="link_ListPropertiesController_Repositories"><path codeLine="55" d="M550.61,163.29 C514.47,185.43 474.55,209.88 438.04,232.25 " fill="none" id="ListPropertiesController-to-Repositories" style="stroke:#181818;stroke-width:1.0;stroke-dasharray:7.0,7.0;"/><polygon fill="#181818" points="433.96,234.74,443.7225,233.4389,438.2207,232.1235,439.5361,226.6217,433.96,234.74" style="stroke:#181818;stroke-width:1.0;"/></g><!--link Repositories to PublishedPropertiesRepository--><g id="link_Repositories_PublishedPropertiesRepository"><path codeLine="57" d="M391.59,380.2 C418.6,405.64 449.13,434.4 476.54,460.21 " fill="none" id="Repositories-to-PublishedPropertiesRepository" style="stroke:#181818;stroke-width:1.0;"/><polygon fill="#181818" points="480.16,463.62,476.3477,454.5389,476.519,460.1932,470.8647,460.3645,480.16,463.62" style="stroke:#181818;stroke-width:1.0;"/><text fill="#000000" font-family="sans-serif" font-size="20" lengthAdjust="spacing" textLength="33" x="444" y="430.3359">has</text><text fill="#000000" font-family="sans-serif" font-size="20" lengthAdjust="spacing" textLength="13" x="385.1751" y="407.5296">1</text><text fill="#000000" font-family="sans-serif" font-size="20" lengthAdjust="spacing" textLength="13" x="460.1645" y="452.7595">1</text></g><!--link ListPropertiesController to PublishedPropertiesRepository--><g id="link_ListPropertiesController_PublishedPropertiesRepository"><path codeLine="59" d="M713.94,163.16 C737.88,199.44 762,236 762,236 C762,236 762,380 762,380 C762,380 708.3,420.86 655.87,460.76 " fill="none" id="ListPropertiesController-to-PublishedPropertiesRepository" style="stroke:#181818;stroke-width:1.0;stroke-dasharray:7.0,7.0;"/><polygon fill="#181818" points="652.01,463.7,661.596,461.4398,655.9911,460.6749,656.7559,455.07,652.01,463.7" style="stroke:#181818;stroke-width:1.0;"/></g><!--link PublishedPropertiesRepository to PublishedProperty--><g id="link_PublishedPropertiesRepository_PublishedProperty"><path codeLine="61" d="M557,609.38 C557,633.86 557,661.56 557,687.3 " fill="none" id="PublishedPropertiesRepository-to-PublishedProperty" style="stroke:#181818;stroke-width:1.0;"/><polygon fill="#181818" points="557,692.28,561,683.28,557,687.28,553,683.28,557,692.28" style="stroke:#181818;stroke-width:1.0;"/><text fill="#000000" font-family="sans-serif" font-size="20" lengthAdjust="spacing" textLength="33" x="558" y="659.3359">has</text><text fill="#000000" font-family="sans-serif" font-size="20" lengthAdjust="spacing" textLength="13" x="543.4008" y="636.4641">1</text><text fill="#000000" font-family="sans-serif" font-size="20" lengthAdjust="spacing" textLength="10" x="546.5547" y="681.6474">*</text></g><!--SRC=[hPJBRjim44Nt_8g1DuaRs4YxD0eRSGgZ1WeugDiFOAYnH9Wc2NA4GYtwxntPUZ69rKMhZQ2vypXtA2aUjVKoo9DnweWPP7YGfQ6DixJNFn4-t8kRsER0oLcdYk1E21HA5BtYfJhA7FTK6OI0YgJDpJ0X5Z9pFxJDuI1D72f6MwJA8tXdglfXEB4JNI0d1bNAo1WVY89-BWctojapxxqGDmOF1EGWwBmWo7IDevquLy1JS1u3LRy4y3M3FNTWABOlESasqSoLpsn41fHfn0UjC0rbEh9RXHlUooDQmj3eJvztttRxrMebVejsEbVeM63MOa3BqGLgjxj3-vXINhHr6NahCQQQRrj_ajGIFkJCqolhAYLNxgHZh5rV1TGOlw9tKPCBFUmNjlpnbPTbFwclFbVSGOxqHkjrjT665tOx7KthvCXlGH9cxWQyesIXN-ge6p-cDXE7ROUKMtivzDifB9AaKIDz-mlx1RtUPf_po9zUSCPW-8ysheteB5rD6Eq-_MUttxViahNa-6RBz3WNe9jrHo5UrS-NL-bVPWzsEv-dGruWJDvFOCOSzNry_GiePFpBeD4EGemFw53UJTxuVpJZ_m00]--></g></svg>