<?xml version="1.0" encoding="UTF-8" standalone="no"?><svg xmlns="http://www.w3.org/2000/svg" xmlns:xlink="http://www.w3.org/1999/xlink" contentStyleType="text/css" height="1257px" preserveAspectRatio="none" style="width:4078px;height:1257px;background:#FFFFFF;" version="1.1" viewBox="0 0 4078 1257" width="4078px" zoomAndPan="magnify"><defs/><g><rect fill="#FFFFFF" height="1061.6406" style="stroke:#181818;stroke-width:1.0;" width="10" x="114" y="98.5547"/><rect fill="#FFFFFF" height="37.5547" style="stroke:#181818;stroke-width:1.0;" width="10" x="1251" y="128.1094"/><rect fill="#FFFFFF" height="75.1094" style="stroke:#181818;stroke-width:1.0;" width="10" x="1251" y="244.3281"/><rect fill="#FFFFFF" height="37.5547" style="stroke:#181818;stroke-width:1.0;" width="10" x="1251" y="423.6563"/><rect fill="#FFFFFF" height="37.5547" style="stroke:#181818;stroke-width:1.0;" width="10" x="1251" y="524.3203"/><rect fill="#FFFFFF" height="37.5547" style="stroke:#181818;stroke-width:1.0;" width="10" x="1251" y="631.9844"/><rect fill="#FFFFFF" height="437.1016" style="stroke:#181818;stroke-width:1.0;" width="10" x="1251" y="714.0938"/><rect fill="#FFFFFF" height="313.4375" style="stroke:#181818;stroke-width:1.0;" width="10" x="2177" y="800.2031"/><rect fill="#FFFFFF" height="37.5547" style="stroke:#181818;stroke-width:1.0;" width="10" x="2380" y="837.7578"/><rect fill="#FFFFFF" height="37.5547" style="stroke:#181818;stroke-width:1.0;" width="10" x="2573" y="912.8672"/><rect fill="#FFFFFF" height="88.1094" style="stroke:#181818;stroke-width:1.0;" width="10" x="3103" y="987.9766"/><rect fill="none" height="496.875" style="stroke:#000000;stroke-width:1.5;" width="1351.5" x="10" y="180.6641"/><rect fill="none" height="209.8828" style="stroke:#000000;stroke-width:1.5;" width="1331.5" x="20" y="359.9922"/><line style="stroke:#181818;stroke-width:0.5;stroke-dasharray:5.0,5.0;" x1="119" x2="119" y1="88.5547" y2="1169.1953"/><line style="stroke:#181818;stroke-width:0.5;stroke-dasharray:5.0,5.0;" x1="1255.5" x2="1255.5" y1="88.5547" y2="1169.1953"/><line style="stroke:#181818;stroke-width:0.5;stroke-dasharray:5.0,5.0;" x1="2181.5" x2="2181.5" y1="756.3711" y2="1169.1953"/><line style="stroke:#181818;stroke-width:0.5;stroke-dasharray:5.0,5.0;" x1="2384.5" x2="2384.5" y1="88.5547" y2="1169.1953"/><line style="stroke:#181818;stroke-width:0.5;stroke-dasharray:5.0,5.0;" x1="2577.5" x2="2577.5" y1="88.5547" y2="1169.1953"/><line style="stroke:#181818;stroke-width:0.5;stroke-dasharray:5.0,5.0;" x1="3107.5" x2="3107.5" y1="88.5547" y2="1169.1953"/><text fill="#000000" font-family="sans-serif" font-size="20" lengthAdjust="spacing" textLength="172" x="30" y="84.3359">Unregistered User</text><ellipse cx="119" cy="13.5" fill="#E3E3E3" rx="8" ry="8" style="stroke:#181818;stroke-width:0.5;"/><path d="M119,21.5 L119,48.5 M106,29.5 L132,29.5 M119,48.5 L106,63.5 M119,48.5 L132,63.5 " fill="none" style="stroke:#181818;stroke-width:0.5;"/><text fill="#000000" font-family="sans-serif" font-size="20" lengthAdjust="spacing" textLength="172" x="30" y="1187.5313">Unregistered User</text><ellipse cx="119" cy="1200.25" fill="#E3E3E3" rx="8" ry="8" style="stroke:#181818;stroke-width:0.5;"/><path d="M119,1208.25 L119,1235.25 M106,1216.25 L132,1216.25 M119,1235.25 L106,1250.25 M119,1235.25 L132,1250.25 " fill="none" style="stroke:#181818;stroke-width:0.5;"/><rect fill="#E3E3E3" height="37.5547" rx="2.5" ry="2.5" style="stroke:#181818;stroke-width:0.5;" width="171" x="1170.5" y="50"/><text fill="#000000" font-family="sans-serif" font-size="20" lengthAdjust="spacing" textLength="157" x="1177.5" y="76.3359">:ListPropertiesUI</text><rect fill="#E3E3E3" height="37.5547" rx="2.5" ry="2.5" style="stroke:#181818;stroke-width:0.5;" width="171" x="1170.5" y="1168.1953"/><text fill="#000000" font-family="sans-serif" font-size="20" lengthAdjust="spacing" textLength="157" x="1177.5" y="1194.5313">:ListPropertiesUI</text><rect fill="#E3E3E3" height="37.5547" rx="2.5" ry="2.5" style="stroke:#181818;stroke-width:0.5;" width="247" x="2058.5" y="1168.1953"/><text fill="#000000" font-family="sans-serif" font-size="20" lengthAdjust="spacing" textLength="233" x="2065.5" y="1194.5313">:ListPropertiesController</text><rect fill="#E3E3E3" height="37.5547" rx="2.5" ry="2.5" style="stroke:#181818;stroke-width:0.5;" width="139" x="2315.5" y="50"/><text fill="#000000" font-family="sans-serif" font-size="20" lengthAdjust="spacing" textLength="125" x="2322.5" y="76.3359">:Repositories</text><rect fill="#E3E3E3" height="37.5547" rx="2.5" ry="2.5" style="stroke:#181818;stroke-width:0.5;" width="139" x="2315.5" y="1168.1953"/><text fill="#000000" font-family="sans-serif" font-size="20" lengthAdjust="spacing" textLength="125" x="2322.5" y="1194.5313">:Repositories</text><rect fill="#E3E3E3" height="61.1094" rx="2.5" ry="2.5" style="stroke:#181818;stroke-width:0.5;" width="139" x="2508.5" y="26.4453"/><text fill="#000000" font-family="sans-serif" font-size="20" lengthAdjust="spacing" textLength="114" x="2521" y="52.7813">repositories</text><text fill="#000000" font-family="sans-serif" font-size="20" lengthAdjust="spacing" textLength="125" x="2515.5" y="76.3359">:Repositories</text><rect fill="#E3E3E3" height="61.1094" rx="2.5" ry="2.5" style="stroke:#181818;stroke-width:0.5;" width="139" x="2508.5" y="1168.1953"/><text fill="#000000" font-family="sans-serif" font-size="20" lengthAdjust="spacing" textLength="114" x="2521" y="1194.5313">repositories</text><text fill="#000000" font-family="sans-serif" font-size="20" lengthAdjust="spacing" textLength="125" x="2515.5" y="1218.0859">:Repositories</text><rect fill="#E3E3E3" height="61.1094" rx="2.5" ry="2.5" style="stroke:#181818;stroke-width:0.5;" width="315" x="2950.5" y="26.4453"/><text fill="#000000" font-family="sans-serif" font-size="20" lengthAdjust="spacing" textLength="301" x="2957.5" y="52.7813">publishedPropertiesRepository:</text><text fill="#000000" font-family="sans-serif" font-size="20" lengthAdjust="spacing" textLength="293" x="2961.5" y="76.3359">PublishedPropertiesRepository</text><rect fill="#E3E3E3" height="61.1094" rx="2.5" ry="2.5" style="stroke:#181818;stroke-width:0.5;" width="315" x="2950.5" y="1168.1953"/><text fill="#000000" font-family="sans-serif" font-size="20" lengthAdjust="spacing" textLength="301" x="2957.5" y="1194.5313">publishedPropertiesRepository:</text><text fill="#000000" font-family="sans-serif" font-size="20" lengthAdjust="spacing" textLength="293" x="2961.5" y="1218.0859">PublishedPropertiesRepository</text><rect fill="#FFFFFF" height="1061.6406" style="stroke:#181818;stroke-width:1.0;" width="10" x="114" y="98.5547"/><rect fill="#FFFFFF" height="37.5547" style="stroke:#181818;stroke-width:1.0;" width="10" x="1251" y="128.1094"/><rect fill="#FFFFFF" height="75.1094" style="stroke:#181818;stroke-width:1.0;" width="10" x="1251" y="244.3281"/><rect fill="#FFFFFF" height="37.5547" style="stroke:#181818;stroke-width:1.0;" width="10" x="1251" y="423.6563"/><rect fill="#FFFFFF" height="37.5547" style="stroke:#181818;stroke-width:1.0;" width="10" x="1251" y="524.3203"/><rect fill="#FFFFFF" height="37.5547" style="stroke:#181818;stroke-width:1.0;" width="10" x="1251" y="631.9844"/><rect fill="#FFFFFF" height="437.1016" style="stroke:#181818;stroke-width:1.0;" width="10" x="1251" y="714.0938"/><rect fill="#FFFFFF" height="313.4375" style="stroke:#181818;stroke-width:1.0;" width="10" x="2177" y="800.2031"/><rect fill="#FFFFFF" height="37.5547" style="stroke:#181818;stroke-width:1.0;" width="10" x="2380" y="837.7578"/><rect fill="#FFFFFF" height="37.5547" style="stroke:#181818;stroke-width:1.0;" width="10" x="2573" y="912.8672"/><rect fill="#FFFFFF" height="88.1094" style="stroke:#181818;stroke-width:1.0;" width="10" x="3103" y="987.9766"/><polygon fill="#181818" points="1239,124.1094,1249,128.1094,1239,132.1094,1243,128.1094" style="stroke:#181818;stroke-width:1.0;"/><line style="stroke:#181818;stroke-width:1.0;" x1="124" x2="1245" y1="128.1094" y2="128.1094"/><text fill="#000000" font-family="sans-serif" font-size="20" font-weight="bold" lengthAdjust="spacing" textLength="13" x="131" y="121.8906">1</text><text fill="#000000" font-family="sans-serif" font-size="20" lengthAdjust="spacing" textLength="247" x="148" y="121.8906">requests to list properties</text><polygon fill="#181818" points="135,161.6641,125,165.6641,135,169.6641,131,165.6641" style="stroke:#181818;stroke-width:1.0;"/><line style="stroke:#181818;stroke-width:1.0;stroke-dasharray:2.0,2.0;" x1="129" x2="1255" y1="165.6641" y2="165.6641"/><text fill="#000000" font-family="sans-serif" font-size="20" font-weight="bold" lengthAdjust="spacing" textLength="13" x="141" y="159.4453">2</text><text fill="#000000" font-family="sans-serif" font-size="20" lengthAdjust="spacing" textLength="636" x="158" y="159.4453">shows property filter and sort options and requests user to choose</text><path d="M10,180.6641 L82,180.6641 L82,196.2188 L72,206.2188 L10,206.2188 L10,180.6641 " fill="#EEEEEE" style="stroke:#000000;stroke-width:1.5;"/><rect fill="none" height="496.875" style="stroke:#000000;stroke-width:1.5;" width="1351.5" x="10" y="180.6641"/><text fill="#000000" font-family="sans-serif" font-size="20" font-weight="bold" lengthAdjust="spacing" textLength="27" x="25" y="201">alt</text><text fill="#000000" font-family="sans-serif" font-size="20" font-weight="bold" lengthAdjust="spacing" textLength="161" x="97" y="202">[Filter and Sort]</text><polygon fill="#181818" points="1239,240.3281,1249,244.3281,1239,248.3281,1243,244.3281" style="stroke:#181818;stroke-width:1.0;"/><line style="stroke:#181818;stroke-width:1.0;" x1="124" x2="1245" y1="244.3281" y2="244.3281"/><text fill="#000000" font-family="sans-serif" font-size="20" font-weight="bold" lengthAdjust="spacing" textLength="13" x="131" y="238.1094">3</text><text fill="#000000" font-family="sans-serif" font-size="20" lengthAdjust="spacing" textLength="715" x="148" y="238.1094">selects filter options (type of business, type of property, number of rooms)</text><polygon fill="#181818" points="1239,277.8828,1249,281.8828,1239,285.8828,1243,281.8828" style="stroke:#181818;stroke-width:1.0;"/><line style="stroke:#181818;stroke-width:1.0;" x1="124" x2="1245" y1="281.8828" y2="281.8828"/><text fill="#000000" font-family="sans-serif" font-size="20" font-weight="bold" lengthAdjust="spacing" textLength="13" x="131" y="275.6641">4</text><text fill="#000000" font-family="sans-serif" font-size="20" lengthAdjust="spacing" textLength="774" x="148" y="275.6641">selects criteria to sort (price, state) and chooses order (ascending or descending)</text><polygon fill="#181818" points="135,315.4375,125,319.4375,135,323.4375,131,319.4375" style="stroke:#181818;stroke-width:1.0;"/><line style="stroke:#181818;stroke-width:1.0;stroke-dasharray:2.0,2.0;" x1="129" x2="1255" y1="319.4375" y2="319.4375"/><text fill="#000000" font-family="sans-serif" font-size="20" font-weight="bold" lengthAdjust="spacing" textLength="13" x="141" y="313.2188">5</text><text fill="#000000" font-family="sans-serif" font-size="20" lengthAdjust="spacing" textLength="692" x="158" y="313.2188">shows filter and sort options selected by user and requests confirmation</text><line style="stroke:#000000;stroke-width:1.0;stroke-dasharray:2.0,2.0;" x1="10" x2="1361.5" y1="328.4375" y2="328.4375"/><text fill="#000000" font-family="sans-serif" font-size="20" font-weight="bold" lengthAdjust="spacing" textLength="145" x="15" y="347.7734">[Filter or Sort]</text><path d="M20,359.9922 L92,359.9922 L92,375.5469 L82,385.5469 L20,385.5469 L20,359.9922 " fill="#EEEEEE" style="stroke:#000000;stroke-width:1.5;"/><rect fill="none" height="209.8828" style="stroke:#000000;stroke-width:1.5;" width="1331.5" x="20" y="359.9922"/><text fill="#000000" font-family="sans-serif" font-size="20" font-weight="bold" lengthAdjust="spacing" textLength="27" x="35" y="380.3281">alt</text><text fill="#000000" font-family="sans-serif" font-size="20" font-weight="bold" lengthAdjust="spacing" textLength="68" x="107" y="381.3281">[Filter]</text><polygon fill="#181818" points="1239,419.6563,1249,423.6563,1239,427.6563,1243,423.6563" style="stroke:#181818;stroke-width:1.0;"/><line style="stroke:#181818;stroke-width:1.0;" x1="124" x2="1245" y1="423.6563" y2="423.6563"/><text fill="#000000" font-family="sans-serif" font-size="20" font-weight="bold" lengthAdjust="spacing" textLength="13" x="131" y="417.4375">6</text><text fill="#000000" font-family="sans-serif" font-size="20" lengthAdjust="spacing" textLength="715" x="148" y="417.4375">selects filter options (type of business, type of property, number of rooms)</text><polygon fill="#181818" points="135,457.2109,125,461.2109,135,465.2109,131,461.2109" style="stroke:#181818;stroke-width:1.0;"/><line style="stroke:#181818;stroke-width:1.0;stroke-dasharray:2.0,2.0;" x1="129" x2="1255" y1="461.2109" y2="461.2109"/><text fill="#000000" font-family="sans-serif" font-size="20" font-weight="bold" lengthAdjust="spacing" textLength="13" x="141" y="454.9922">7</text><text fill="#000000" font-family="sans-serif" font-size="20" lengthAdjust="spacing" textLength="1008" x="158" y="454.9922">shows filter option selected by user, default sort criteria (most recently added) and requests confirmation</text><line style="stroke:#000000;stroke-width:1.0;stroke-dasharray:2.0,2.0;" x1="20" x2="1351.5" y1="470.2109" y2="470.2109"/><text fill="#000000" font-family="sans-serif" font-size="20" font-weight="bold" lengthAdjust="spacing" textLength="55" x="25" y="489.5469">[Sort]</text><polygon fill="#181818" points="1239,520.3203,1249,524.3203,1239,528.3203,1243,524.3203" style="stroke:#181818;stroke-width:1.0;"/><line style="stroke:#181818;stroke-width:1.0;" x1="124" x2="1245" y1="524.3203" y2="524.3203"/><text fill="#000000" font-family="sans-serif" font-size="20" font-weight="bold" lengthAdjust="spacing" textLength="13" x="131" y="518.1016">8</text><text fill="#000000" font-family="sans-serif" font-size="20" lengthAdjust="spacing" textLength="774" x="148" y="518.1016">selects criteria to sort (price, state) and chooses order (ascending or descending)</text><polygon fill="#181818" points="135,557.875,125,561.875,135,565.875,131,561.875" style="stroke:#181818;stroke-width:1.0;"/><line style="stroke:#181818;stroke-width:1.0;stroke-dasharray:2.0,2.0;" x1="129" x2="1255" y1="561.875" y2="561.875"/><text fill="#000000" font-family="sans-serif" font-size="20" font-weight="bold" lengthAdjust="spacing" textLength="13" x="141" y="555.6563">9</text><text fill="#000000" font-family="sans-serif" font-size="20" lengthAdjust="spacing" textLength="945" x="158" y="555.6563">shows that all properties will be listed with sort criteria selected by user and requests confirmation</text><line style="stroke:#000000;stroke-width:1.0;stroke-dasharray:2.0,2.0;" x1="10" x2="1361.5" y1="577.875" y2="577.875"/><text fill="#000000" font-family="sans-serif" font-size="20" font-weight="bold" lengthAdjust="spacing" textLength="241" x="15" y="597.2109">[Neither Filter nor Sort]</text><polygon fill="#181818" points="1239,627.9844,1249,631.9844,1239,635.9844,1243,631.9844" style="stroke:#181818;stroke-width:1.0;"/><line style="stroke:#181818;stroke-width:1.0;" x1="124" x2="1245" y1="631.9844" y2="631.9844"/><text fill="#000000" font-family="sans-serif" font-size="20" font-weight="bold" lengthAdjust="spacing" textLength="26" x="131" y="625.7656">10</text><text fill="#000000" font-family="sans-serif" font-size="20" lengthAdjust="spacing" textLength="638" x="161" y="625.7656">requests to list properties (without selecting filter and sort criteria)</text><polygon fill="#181818" points="135,665.5391,125,669.5391,135,673.5391,131,669.5391" style="stroke:#181818;stroke-width:1.0;"/><line style="stroke:#181818;stroke-width:1.0;stroke-dasharray:2.0,2.0;" x1="129" x2="1255" y1="669.5391" y2="669.5391"/><text fill="#000000" font-family="sans-serif" font-size="20" font-weight="bold" lengthAdjust="spacing" textLength="26" x="141" y="663.3203">11</text><text fill="#000000" font-family="sans-serif" font-size="20" lengthAdjust="spacing" textLength="1073" x="171" y="663.3203">shows that all properties will be listed with default sort criteria (most recently added) and requests confirmation</text><polygon fill="#181818" points="1239,710.0938,1249,714.0938,1239,718.0938,1243,714.0938" style="stroke:#181818;stroke-width:1.0;"/><line style="stroke:#181818;stroke-width:1.0;" x1="124" x2="1245" y1="714.0938" y2="714.0938"/><text fill="#000000" font-family="sans-serif" font-size="20" font-weight="bold" lengthAdjust="spacing" textLength="26" x="131" y="707.875">12</text><text fill="#000000" font-family="sans-serif" font-size="20" lengthAdjust="spacing" textLength="175" x="161" y="707.875">confirms selection</text><polygon fill="#181818" points="2046.5,747.6484,2056.5,751.6484,2046.5,755.6484,2050.5,751.6484" style="stroke:#181818;stroke-width:1.0;"/><line style="stroke:#181818;stroke-width:1.0;" x1="1261" x2="2052.5" y1="751.6484" y2="751.6484"/><text fill="#000000" font-family="sans-serif" font-size="20" font-weight="bold" lengthAdjust="spacing" textLength="26" x="1268" y="745.4297">13</text><text fill="#000000" font-family="sans-serif" font-size="20" lengthAdjust="spacing" textLength="58" x="1298" y="745.4297">create</text><rect fill="#E3E3E3" height="37.5547" rx="2.5" ry="2.5" style="stroke:#181818;stroke-width:0.5;" width="247" x="2058.5" y="722.0938"/><text fill="#000000" font-family="sans-serif" font-size="20" lengthAdjust="spacing" textLength="233" x="2065.5" y="748.4297">:ListPropertiesController</text><polygon fill="#181818" points="2165,796.2031,2175,800.2031,2165,804.2031,2169,800.2031" style="stroke:#181818;stroke-width:1.0;"/><line style="stroke:#181818;stroke-width:1.0;" x1="1261" x2="2171" y1="800.2031" y2="800.2031"/><text fill="#000000" font-family="sans-serif" font-size="20" font-weight="bold" lengthAdjust="spacing" textLength="26" x="1268" y="793.9844">14</text><text fill="#000000" font-family="sans-serif" font-size="20" lengthAdjust="spacing" textLength="867" x="1298" y="793.9844">getPublishedProperties(propertyType, buisnessType, numberOfRooms, sortCriteria, order)</text><polygon fill="#181818" points="2368,833.7578,2378,837.7578,2368,841.7578,2372,837.7578" style="stroke:#181818;stroke-width:1.0;"/><line style="stroke:#181818;stroke-width:1.0;" x1="2187" x2="2374" y1="837.7578" y2="837.7578"/><text fill="#000000" font-family="sans-serif" font-size="20" font-weight="bold" lengthAdjust="spacing" textLength="26" x="2194" y="831.5391">15</text><text fill="#000000" font-family="sans-serif" font-size="20" lengthAdjust="spacing" textLength="123" x="2224" y="831.5391">getInstance()</text><polygon fill="#181818" points="2198,871.3125,2188,875.3125,2198,879.3125,2194,875.3125" style="stroke:#181818;stroke-width:1.0;"/><line style="stroke:#181818;stroke-width:1.0;stroke-dasharray:2.0,2.0;" x1="2192" x2="2384" y1="875.3125" y2="875.3125"/><text fill="#000000" font-family="sans-serif" font-size="20" font-weight="bold" lengthAdjust="spacing" textLength="26" x="2204" y="869.0938">16</text><text fill="#000000" font-family="sans-serif" font-size="20" lengthAdjust="spacing" textLength="114" x="2234" y="869.0938">repositories</text><polygon fill="#181818" points="2561,908.8672,2571,912.8672,2561,916.8672,2565,912.8672" style="stroke:#181818;stroke-width:1.0;"/><line style="stroke:#181818;stroke-width:1.0;" x1="2187" x2="2567" y1="912.8672" y2="912.8672"/><text fill="#000000" font-family="sans-serif" font-size="20" font-weight="bold" lengthAdjust="spacing" textLength="26" x="2194" y="906.6484">17</text><text fill="#000000" font-family="sans-serif" font-size="20" lengthAdjust="spacing" textLength="337" x="2224" y="906.6484">getPublishedPropertiesRepository()</text><polygon fill="#181818" points="2198,946.4219,2188,950.4219,2198,954.4219,2194,950.4219" style="stroke:#181818;stroke-width:1.0;"/><line style="stroke:#181818;stroke-width:1.0;stroke-dasharray:2.0,2.0;" x1="2192" x2="2577" y1="950.4219" y2="950.4219"/><text fill="#000000" font-family="sans-serif" font-size="20" font-weight="bold" lengthAdjust="spacing" textLength="26" x="2204" y="944.2031">18</text><text fill="#000000" font-family="sans-serif" font-size="20" lengthAdjust="spacing" textLength="295" x="2234" y="944.2031">publishedPropertiesRepository</text><polygon fill="#181818" points="3091,983.9766,3101,987.9766,3091,991.9766,3095,987.9766" style="stroke:#181818;stroke-width:1.0;"/><line style="stroke:#181818;stroke-width:1.0;" x1="2187" x2="3097" y1="987.9766" y2="987.9766"/><text fill="#000000" font-family="sans-serif" font-size="20" font-weight="bold" lengthAdjust="spacing" textLength="26" x="2194" y="981.7578">19</text><text fill="#000000" font-family="sans-serif" font-size="20" lengthAdjust="spacing" textLength="867" x="2224" y="981.7578">getPublishedProperties(propertyType, buisnessType, numberOfRooms, sortCriteria, order)</text><line style="stroke:#181818;stroke-width:1.0;" x1="3113" x2="3155" y1="1025.5313" y2="1025.5313"/><line style="stroke:#181818;stroke-width:1.0;" x1="3155" x2="3155" y1="1025.5313" y2="1038.5313"/><line style="stroke:#181818;stroke-width:1.0;" x1="3114" x2="3155" y1="1038.5313" y2="1038.5313"/><polygon fill="#181818" points="3124,1034.5313,3114,1038.5313,3124,1042.5313,3120,1038.5313" style="stroke:#181818;stroke-width:1.0;"/><text fill="#000000" font-family="sans-serif" font-size="20" font-weight="bold" lengthAdjust="spacing" textLength="26" x="3120" y="1019.3125">20</text><text fill="#000000" font-family="sans-serif" font-size="20" lengthAdjust="spacing" textLength="921" x="3150" y="1019.3125">getPropertiesByFilterAndSort(propertyType, businessType, numberOfRooms, sortCriteria, order)</text><polygon fill="#181818" points="2198,1072.0859,2188,1076.0859,2198,1080.0859,2194,1076.0859" style="stroke:#181818;stroke-width:1.0;"/><line style="stroke:#181818;stroke-width:1.0;stroke-dasharray:2.0,2.0;" x1="2192" x2="3107" y1="1076.0859" y2="1076.0859"/><text fill="#000000" font-family="sans-serif" font-size="20" font-weight="bold" lengthAdjust="spacing" textLength="26" x="2204" y="1069.8672">21</text><text fill="#000000" font-family="sans-serif" font-size="20" lengthAdjust="spacing" textLength="321" x="2234" y="1069.8672">requestedPublishedPropertiesList</text><polygon fill="#181818" points="1272,1109.6406,1262,1113.6406,1272,1117.6406,1268,1113.6406" style="stroke:#181818;stroke-width:1.0;"/><line style="stroke:#181818;stroke-width:1.0;stroke-dasharray:2.0,2.0;" x1="1266" x2="2181" y1="1113.6406" y2="1113.6406"/><text fill="#000000" font-family="sans-serif" font-size="20" font-weight="bold" lengthAdjust="spacing" textLength="26" x="1278" y="1107.4219">22</text><text fill="#000000" font-family="sans-serif" font-size="20" lengthAdjust="spacing" textLength="321" x="1308" y="1107.4219">requestedPublishedPropertiesList</text><polygon fill="#181818" points="135,1147.1953,125,1151.1953,135,1155.1953,131,1151.1953" style="stroke:#181818;stroke-width:1.0;"/><line style="stroke:#181818;stroke-width:1.0;stroke-dasharray:2.0,2.0;" x1="129" x2="1255" y1="1151.1953" y2="1151.1953"/><text fill="#000000" font-family="sans-serif" font-size="20" font-weight="bold" lengthAdjust="spacing" textLength="26" x="141" y="1144.9766">23</text><text fill="#000000" font-family="sans-serif" font-size="20" lengthAdjust="spacing" textLength="383" x="171" y="1144.9766">displays the respective list of properties</text><!--SRC=[lLPDRzim3BtxLn2zB2bIODWnXm9RiG85YhL8cbilYiKaGXt9a-HctgyV9TcElxEqQ7EAHOfwVAIUQ5w4J9bc-qJ5ByY1uuPbYRrLqYx5NuHlNoDJki1UIHNljDeZM9rXpPAo-8LjSMdp145ZR9dS9dK7isDS7OJSmeOb1gE8PLR9RBz67KLVTe8ZR9IoQ_KdOh5L6YvMKkDM68kQOAqCwWjW1ZBtBwAOLiGYPTB2nVoUl1wrIf4MqQpklEFgRjJhXXBKAacAi3TFY_kM_m9JPGH18M_li_Zv-B1iEkcQpxFiRl7svfOqMoV2x90ViLJRylcpV1op-w2Z7f6ZJxmoYmLL4TH-VWckheaTc1EwtnaQQy0ge8WMqYfWOrSLaJXj62ZA5GKBKUTKOtKmPP0SDYAXuW6J78pI5bHgXPB6BrH7PsuhdH_lb79jKG_FiN5o4rDYuVPum98EQ3fqqpMOK6EQ4bS9PsBp545jO9qP8T6O6PGhPIep29tgrhHIUpFj73N8qJ2EM0l28PXBtnCqIRM8SGR6Kg2fpolGOa1fJX4cpCGekRj5T4CubbzTE3NgJhHBPsjlKOTg6NAX2xhEGoaRnOsLt0YzPyvt36ARCoI5AAjBYVONzzW17TCdr_va_TkqjbWDQ3fSpaen3fHNxJBPAxgh9B8eRP83unpvz0pYJv1V5S3JVeBQp-dcimck-jRkcALEIMhI1WT1tslqaaTi7uJTjHX-HrTtoUrmAtbFj_z2Wa4d5LqloxOVR-iH1OU9IqnbjiZ6FxsjMrmcVAQSlOlfZ-dfCJ5fyzsai0XRIbax-EZRT-tdXijB5qOZUGrua7sBjaU89wNAF97gp4Y5X74g5Bw2xZni5avrPfwmcuAlMRX2qwWVgvzc6YQFWj3u6IR0kPDqCsMCasb_a33kD6nXzrMHrHpguy_GozqJfWJZjmzoStoaXX26wQfX2o6F24UdhI78FN5BoACuFwxClUcVUDZhUyPX_sTUbUL77bJgk-HEephPXQVqZKry0khnHXN2G8xT7MxMZzus3tMhtXBRim_itiQMW79XqeJbJaDTyvdKwT1haCtQA39ooVnu7Fq3]--></g></svg>