<?xml version="1.0" encoding="UTF-8" standalone="no"?><svg xmlns="http://www.w3.org/2000/svg" xmlns:xlink="http://www.w3.org/1999/xlink" contentStyleType="text/css" height="745px" preserveAspectRatio="none" style="width:984px;height:745px;background:#FFFFFF;" version="1.1" viewBox="0 0 984 745" width="984px" zoomAndPan="magnify"><defs/><g><text fill="#000000" font-family="sans-serif" font-size="14" font-weight="bold" lengthAdjust="spacing" textLength="160" x="405" y="23.5352">Class Diagram - US19</text><!--class StoreDivisionController--><g id="elem_StoreDivisionController"><rect codeLine="9" fill="#F1F1F1" height="191.3281" id="StoreDivisionController" rx="2.5" ry="2.5" style="stroke:#181818;stroke-width:0.5;" width="970" x="7" y="390.4883"/><ellipse cx="376.5" cy="407.4883" fill="#C2C2C2" rx="12" ry="12" style="stroke:#181818;stroke-width:1.0;"/><path d="M379.3066,414.5684 Q378.623,414.9199 377.8711,415.0957 Q377.1191,415.2715 376.2891,415.2715 Q373.3398,415.2715 371.7871,413.3281 Q370.2344,411.3848 370.2344,407.7129 Q370.2344,404.0313 371.7871,402.0879 Q373.3398,400.1445 376.2891,400.1445 Q377.1191,400.1445 377.8809,400.3203 Q378.6426,400.4961 379.3066,400.8477 L379.3066,404.0508 Q378.5645,403.3672 377.8662,403.0498 Q377.168,402.7324 376.4258,402.7324 Q374.8438,402.7324 374.0381,403.9873 Q373.2324,405.2422 373.2324,407.7129 Q373.2324,410.1738 374.0381,411.4287 Q374.8438,412.6836 376.4258,412.6836 Q377.168,412.6836 377.8662,412.3662 Q378.5645,412.0488 379.3066,411.3652 Z " fill="#000000"/><text fill="#000000" font-family="sans-serif" font-size="20" lengthAdjust="spacing" textLength="222" x="398.5" y="415.0469">StoreDivisionController</text><line style="stroke:#181818;stroke-width:0.5;" x1="8" x2="976" y1="424.4883" y2="424.4883"/><line style="stroke:#181818;stroke-width:0.5;" x1="8" x2="976" y1="432.4883" y2="432.4883"/><text fill="#000000" font-family="sans-serif" font-size="20" lengthAdjust="spacing" textLength="252" x="13" y="455.8242">+StoreDivisionController()</text><text fill="#000000" font-family="sans-serif" font-size="20" lengthAdjust="spacing" textLength="897" x="13" y="479.3789">+prepareStoreList(inputStores: List&lt;Tuple&lt;String, Integer&gt;&gt;): List&lt;Tuple&lt;String, Integer&gt;&gt;</text><text fill="#000000" font-family="sans-serif" font-size="20" lengthAdjust="spacing" textLength="791" x="13" y="502.9336">+partitionTest2(inputStores: List&lt;Tuple&lt;String, Integer&gt;&gt;): Map&lt;String, Object&gt;</text><text fill="#000000" font-family="sans-serif" font-size="20" lengthAdjust="spacing" textLength="958" x="13" y="526.4883">+findBalancedPartition(stores: List&lt;Tuple&lt;String, Integer&gt;&gt;): List&lt;List&lt;Tuple&lt;String, Integer&gt;&gt;&gt;</text><text fill="#000000" font-family="sans-serif" font-size="20" lengthAdjust="spacing" textLength="857" x="13" y="550.043">+calculateDifferenceOfSums(balancedPartition: List&lt;List&lt;Tuple&lt;String, Integer&gt;&gt;&gt;): int</text><text fill="#000000" font-family="sans-serif" font-size="20" lengthAdjust="spacing" textLength="366" x="13" y="573.5977">+getProperties(): ArrayList&lt;Property&gt;</text></g><!--class Property--><g id="elem_Property"><rect codeLine="18" fill="#F1F1F1" height="73.5547" id="Property" rx="2.5" ry="2.5" style="stroke:#181818;stroke-width:0.5;" width="148" x="309" y="652.9883"/><ellipse cx="340.3" cy="669.9883" fill="#C2C2C2" rx="12" ry="12" style="stroke:#181818;stroke-width:1.0;"/><path d="M343.1066,677.0684 Q342.423,677.4199 341.6711,677.5957 Q340.9191,677.7715 340.0891,677.7715 Q337.1398,677.7715 335.5871,675.8281 Q334.0344,673.8848 334.0344,670.2129 Q334.0344,666.5313 335.5871,664.5879 Q337.1398,662.6445 340.0891,662.6445 Q340.9191,662.6445 341.6809,662.8203 Q342.4426,662.9961 343.1066,663.3477 L343.1066,666.5508 Q342.3645,665.8672 341.6662,665.5498 Q340.968,665.2324 340.2258,665.2324 Q338.6438,665.2324 337.8381,666.4873 Q337.0324,667.7422 337.0324,670.2129 Q337.0324,672.6738 337.8381,673.9287 Q338.6438,675.1836 340.2258,675.1836 Q340.968,675.1836 341.6662,674.8662 Q342.3645,674.5488 343.1066,673.8652 Z " fill="#000000"/><text fill="#000000" font-family="sans-serif" font-size="20" lengthAdjust="spacing" textLength="80" x="358.7" y="677.5469">Property</text><line style="stroke:#181818;stroke-width:0.5;" x1="310" x2="456" y1="686.9883" y2="686.9883"/><text fill="#000000" font-family="sans-serif" font-size="20" lengthAdjust="spacing" textLength="136" x="315" y="710.3242">-agencyID: int</text><line style="stroke:#181818;stroke-width:0.5;" x1="310" x2="456" y1="718.543" y2="718.543"/></g><!--class Tuple--><g id="elem_Tuple"><rect codeLine="23" fill="#F1F1F1" height="97.1094" id="Tuple" rx="2.5" ry="2.5" style="stroke:#181818;stroke-width:0.5;" width="220" x="492" y="641.4883"/><ellipse cx="570" cy="658.4883" fill="#C2C2C2" rx="12" ry="12" style="stroke:#181818;stroke-width:1.0;"/><path d="M572.8066,665.5684 Q572.123,665.9199 571.3711,666.0957 Q570.6191,666.2715 569.7891,666.2715 Q566.8398,666.2715 565.2871,664.3281 Q563.7344,662.3848 563.7344,658.7129 Q563.7344,655.0313 565.2871,653.0879 Q566.8398,651.1445 569.7891,651.1445 Q570.6191,651.1445 571.3809,651.3203 Q572.1426,651.4961 572.8066,651.8477 L572.8066,655.0508 Q572.0645,654.3672 571.3662,654.0498 Q570.668,653.7324 569.9258,653.7324 Q568.3438,653.7324 567.5381,654.9873 Q566.7324,656.2422 566.7324,658.7129 Q566.7324,661.1738 567.5381,662.4287 Q568.3438,663.6836 569.9258,663.6836 Q570.668,663.6836 571.3662,663.3662 Q572.0645,663.0488 572.8066,662.3652 Z " fill="#000000"/><text fill="#000000" font-family="sans-serif" font-size="20" lengthAdjust="spacing" textLength="55" x="592" y="666.0469">Tuple</text><line style="stroke:#181818;stroke-width:0.5;" x1="493" x2="711" y1="675.4883" y2="675.4883"/><line style="stroke:#181818;stroke-width:0.5;" x1="493" x2="711" y1="683.4883" y2="683.4883"/><text fill="#000000" font-family="sans-serif" font-size="20" lengthAdjust="spacing" textLength="170" x="498" y="706.8242">+getFirst(): String</text><text fill="#000000" font-family="sans-serif" font-size="20" lengthAdjust="spacing" textLength="208" x="498" y="730.3789">+getSecond(): Integer</text></g><!--class NetworkManagerDivideStoresWindow--><g id="elem_NetworkManagerDivideStoresWindow"><rect codeLine="28" fill="#F1F1F1" height="285.5469" id="NetworkManagerDivideStoresWindow" rx="2.5" ry="2.5" style="stroke:#181818;stroke-width:0.5;" width="480" x="252" y="44.4883"/><ellipse cx="309" cy="61.4883" fill="#C2C2C2" rx="12" ry="12" style="stroke:#181818;stroke-width:1.0;"/><path d="M311.8066,68.5684 Q311.123,68.9199 310.3711,69.0957 Q309.6191,69.2715 308.7891,69.2715 Q305.8398,69.2715 304.2871,67.3281 Q302.7344,65.3848 302.7344,61.7129 Q302.7344,58.0313 304.2871,56.0879 Q305.8398,54.1445 308.7891,54.1445 Q309.6191,54.1445 310.3809,54.3203 Q311.1426,54.4961 311.8066,54.8477 L311.8066,58.0508 Q311.0645,57.3672 310.3662,57.0498 Q309.668,56.7324 308.9258,56.7324 Q307.3438,56.7324 306.5381,57.9873 Q305.7324,59.2422 305.7324,61.7129 Q305.7324,64.1738 306.5381,65.4287 Q307.3438,66.6836 308.9258,66.6836 Q309.668,66.6836 310.3662,66.3662 Q311.0645,66.0488 311.8066,65.3652 Z " fill="#000000"/><text fill="#000000" font-family="sans-serif" font-size="20" lengthAdjust="spacing" textLength="357" x="331" y="69.0469">NetworkManagerDivideStoresWindow</text><line style="stroke:#181818;stroke-width:0.5;" x1="253" x2="731" y1="78.4883" y2="78.4883"/><text fill="#000000" font-family="sans-serif" font-size="20" lengthAdjust="spacing" textLength="468" x="258" y="101.8242">-StoreDivisionController: StoreDivisionController</text><text fill="#000000" font-family="sans-serif" font-size="20" lengthAdjust="spacing" textLength="183" x="258" y="125.3789">-btnImport: Button</text><text fill="#000000" font-family="sans-serif" font-size="20" lengthAdjust="spacing" textLength="255" x="258" y="148.9336">-btnRunTimeTests: Button</text><text fill="#000000" font-family="sans-serif" font-size="20" lengthAdjust="spacing" textLength="238" x="258" y="172.4883">-btnDivideStores: Button</text><text fill="#000000" font-family="sans-serif" font-size="20" lengthAdjust="spacing" textLength="169" x="258" y="196.043">-btReturn: Button</text><line style="stroke:#181818;stroke-width:0.5;" x1="253" x2="731" y1="204.2617" y2="204.2617"/><text fill="#000000" font-family="sans-serif" font-size="20" lengthAdjust="spacing" textLength="210" x="258" y="227.5977">+getProperties(): void</text><text fill="#000000" font-family="sans-serif" font-size="20" lengthAdjust="spacing" textLength="189" x="258" y="251.1523">+onBtReturn(): void</text><text fill="#000000" font-family="sans-serif" font-size="20" lengthAdjust="spacing" textLength="191" x="258" y="274.707">+onBtImport(): void</text><text fill="#000000" font-family="sans-serif" font-size="20" lengthAdjust="spacing" textLength="276" x="258" y="298.2617">+onbtnRunTimeTests(): void</text><text fill="#000000" font-family="sans-serif" font-size="20" lengthAdjust="spacing" textLength="258" x="258" y="321.8164">+onBtnDivideStores(): void</text></g><!--link StoreDivisionController to Property--><g id="link_StoreDivisionController_Property"><path codeLine="41" d="M440.85,581.7783 C428.41,604.8283 415.74,628.3083 405.44,647.3983 " fill="none" id="StoreDivisionController-to-Property" style="stroke:#181818;stroke-width:1.0;stroke-dasharray:7.0,7.0;"/><polygon fill="#181818" points="403.32,651.3283,411.1111,645.3035,405.6922,646.9268,404.0688,641.5079,403.32,651.3283" style="stroke:#181818;stroke-width:1.0;"/></g><!--link StoreDivisionController to Tuple--><g id="link_StoreDivisionController_Tuple"><path codeLine="42" d="M543.62,581.7783 C553.7,600.2883 563.93,619.0783 572.95,635.6483 " fill="none" id="StoreDivisionController-to-Tuple" style="stroke:#181818;stroke-width:1.0;stroke-dasharray:7.0,7.0;"/><polygon fill="#181818" points="575.24,639.8483,574.4419,630.0318,572.8457,635.4588,567.4187,633.8626,575.24,639.8483" style="stroke:#181818;stroke-width:1.0;"/></g><!--link NetworkManagerDivideStoresWindow to StoreDivisionController--><g id="link_NetworkManagerDivideStoresWindow_StoreDivisionController"><path codeLine="43" d="M492,330.6583 C492,348.6583 492,366.7783 492,383.9583 " fill="none" id="NetworkManagerDivideStoresWindow-to-StoreDivisionController" style="stroke:#181818;stroke-width:1.0;stroke-dasharray:7.0,7.0;"/><polygon fill="#181818" points="492,388.7283,496,379.7283,492,383.7283,488,379.7283,492,388.7283" style="stroke:#181818;stroke-width:1.0;"/></g><!--SRC=[bPDDRzim38Rl_XMwpSNMekjjGH6WQL0WmBeMTOQT5PbsjSYK8L4Dl67_VVHdt2RELj_4X-JxIgJzLcCfdIoCLLj8HGgP38RkB5AYVu6ukenydo8AYrOzErk081TWH4gfjZA7X2e3me4YYRaP9_XdcTgTnbnaqlWnCHg1gX94QKrL7qPC6Udz3P7Jcq2mKXORKvTHH9fOwRRcOgbbNcUVY-_9vozHr5I9XAo3fNxHNbkyvViuQmmuyJiI_7sSul5Pnqi7R0AQjA_QKyoc0ZL7FnDrv7eTIWFN2Tl3_9DO8K4ERZu_Eutx_jBn9LXx3PwktjNzNfP3_67pav-xRvffJ1VII5IGFlO2iN-7wLCvlOgIHWKZYPyloy01gpraIIXyl7ch_JzTMLeZTRrpe4TdI-1wy36Z6-TarTHtyMeU_Uc7t8UwgPuBNa9KrMhPjkIy3stYSMqk6-5XDTZ3dNOySfPlI_OW0Tx2j2PTaxsPRq0xwxRt4jc5grShRTV7_-2nsDrWScBrPbEWAziGhehIEfg9HI2ok8y_1Lph0kfLyeTqREM0FW45Xw_2HwRmOdNQCOkBhkW8Q0qUW3SMZnI-CZbmVjkf__ZYOZwC_sHICzledyEfKwVU_oy0]--></g></svg>