<?xml version="1.0" encoding="UTF-8" standalone="no"?><svg xmlns="http://www.w3.org/2000/svg" xmlns:xlink="http://www.w3.org/1999/xlink" contentStyleType="text/css" height="864px" preserveAspectRatio="none" style="width:582px;height:864px;background:#FFFFFF;" version="1.1" viewBox="0 0 582 864" width="582px" zoomAndPan="magnify"><defs/><g><text fill="#000000" font-family="sans-serif" font-size="14" font-weight="bold" lengthAdjust="spacing" textLength="160" x="204.25" y="23.5352">Class Diagram - US19</text><!--class StoreDivisionController--><g id="elem_StoreDivisionController"><rect codeLine="9" fill="#F1F1F1" height="285.5469" id="StoreDivisionController" rx="2.5" ry="2.5" style="stroke:#181818;stroke-width:0.5;" width="393" x="98.5" y="390.4883"/><ellipse cx="179.5" cy="407.4883" fill="#C2C2C2" rx="12" ry="12" style="stroke:#181818;stroke-width:1.0;"/><path d="M182.3066,414.5684 Q181.623,414.9199 180.8711,415.0957 Q180.1191,415.2715 179.2891,415.2715 Q176.3398,415.2715 174.7871,413.3281 Q173.2344,411.3848 173.2344,407.7129 Q173.2344,404.0313 174.7871,402.0879 Q176.3398,400.1445 179.2891,400.1445 Q180.1191,400.1445 180.8809,400.3203 Q181.6426,400.4961 182.3066,400.8477 L182.3066,404.0508 Q181.5645,403.3672 180.8662,403.0498 Q180.168,402.7324 179.4258,402.7324 Q177.8438,402.7324 177.0381,403.9873 Q176.2324,405.2422 176.2324,407.7129 Q176.2324,410.1738 177.0381,411.4287 Q177.8438,412.6836 179.4258,412.6836 Q180.168,412.6836 180.8662,412.3662 Q181.5645,412.0488 182.3066,411.3652 Z " fill="#000000"/><text fill="#000000" font-family="sans-serif" font-size="20" lengthAdjust="spacing" textLength="222" x="201.5" y="415.0469">StoreDivisionController</text><line style="stroke:#181818;stroke-width:0.5;" x1="99.5" x2="490.5" y1="424.4883" y2="424.4883"/><text fill="#000000" font-family="sans-serif" font-size="20" lengthAdjust="spacing" textLength="131" x="104.5" y="447.8242">-Repositories</text><text fill="#000000" font-family="sans-serif" font-size="20" lengthAdjust="spacing" textLength="221" x="104.5" y="471.3789">-storeList: List&lt;Store&gt;</text><text fill="#000000" font-family="sans-serif" font-size="20" lengthAdjust="spacing" textLength="259" x="104.5" y="494.9336">-agencyList: List&lt;Agency&gt;</text><text fill="#000000" font-family="sans-serif" font-size="20" lengthAdjust="spacing" textLength="240" x="104.5" y="518.4883">-sumOfAllStores: double</text><text fill="#000000" font-family="sans-serif" font-size="20" lengthAdjust="spacing" textLength="336" x="104.5" y="542.043">-sumOfEachAgency: List&lt;Double&gt;</text><line style="stroke:#181818;stroke-width:0.5;" x1="99.5" x2="490.5" y1="550.2617" y2="550.2617"/><text fill="#000000" font-family="sans-serif" font-size="20" lengthAdjust="spacing" textLength="315" x="104.5" y="573.5977">+prepareStoreList(): List&lt;Store&gt;</text><text fill="#000000" font-family="sans-serif" font-size="20" lengthAdjust="spacing" textLength="219" x="104.5" y="597.1523">+partitionTest2(): void</text><text fill="#000000" font-family="sans-serif" font-size="20" lengthAdjust="spacing" textLength="381" x="104.5" y="620.707">+findBalancedPartition(): List&lt;Agency&gt;</text><text fill="#000000" font-family="sans-serif" font-size="20" lengthAdjust="spacing" textLength="366" x="104.5" y="644.2617">+calculateDifferenceOfSums(): double</text><text fill="#000000" font-family="sans-serif" font-size="20" lengthAdjust="spacing" textLength="210" x="104.5" y="667.8164">+getProperties(): void</text></g><!--class Property--><g id="elem_Property"><rect codeLine="22" fill="#F1F1F1" height="73.5547" id="Property" rx="2.5" ry="2.5" style="stroke:#181818;stroke-width:0.5;" width="148" x="7" y="759.9883"/><ellipse cx="38.3" cy="776.9883" fill="#C2C2C2" rx="12" ry="12" style="stroke:#181818;stroke-width:1.0;"/><path d="M41.1066,784.0684 Q40.423,784.4199 39.6711,784.5957 Q38.9191,784.7715 38.0891,784.7715 Q35.1398,784.7715 33.5871,782.8281 Q32.0344,780.8848 32.0344,777.2129 Q32.0344,773.5313 33.5871,771.5879 Q35.1398,769.6445 38.0891,769.6445 Q38.9191,769.6445 39.6809,769.8203 Q40.4426,769.9961 41.1066,770.3477 L41.1066,773.5508 Q40.3645,772.8672 39.6662,772.5498 Q38.968,772.2324 38.2258,772.2324 Q36.6438,772.2324 35.8381,773.4873 Q35.0324,774.7422 35.0324,777.2129 Q35.0324,779.6738 35.8381,780.9287 Q36.6438,782.1836 38.2258,782.1836 Q38.968,782.1836 39.6662,781.8662 Q40.3645,781.5488 41.1066,780.8652 Z " fill="#000000"/><text fill="#000000" font-family="sans-serif" font-size="20" lengthAdjust="spacing" textLength="80" x="56.7" y="784.5469">Property</text><line style="stroke:#181818;stroke-width:0.5;" x1="8" x2="154" y1="793.9883" y2="793.9883"/><text fill="#000000" font-family="sans-serif" font-size="20" lengthAdjust="spacing" textLength="136" x="13" y="817.3242">-agencyID: int</text><line style="stroke:#181818;stroke-width:0.5;" x1="8" x2="154" y1="825.543" y2="825.543"/></g><!--class Agency--><g id="elem_Agency"><rect codeLine="26" fill="#F1F1F1" height="120.6641" id="Agency" rx="2.5" ry="2.5" style="stroke:#181818;stroke-width:0.5;" width="209" x="190.5" y="736.4883"/><ellipse cx="256" cy="753.4883" fill="#C2C2C2" rx="12" ry="12" style="stroke:#181818;stroke-width:1.0;"/><path d="M258.8066,760.5684 Q258.123,760.9199 257.3711,761.0957 Q256.6191,761.2715 255.7891,761.2715 Q252.8398,761.2715 251.2871,759.3281 Q249.7344,757.3848 249.7344,753.7129 Q249.7344,750.0313 251.2871,748.0879 Q252.8398,746.1445 255.7891,746.1445 Q256.6191,746.1445 257.3809,746.3203 Q258.1426,746.4961 258.8066,746.8477 L258.8066,750.0508 Q258.0645,749.3672 257.3662,749.0498 Q256.668,748.7324 255.9258,748.7324 Q254.3438,748.7324 253.5381,749.9873 Q252.7324,751.2422 252.7324,753.7129 Q252.7324,756.1738 253.5381,757.4287 Q254.3438,758.6836 255.9258,758.6836 Q256.668,758.6836 257.3662,758.3662 Q258.0645,758.0488 258.8066,757.3652 Z " fill="#000000"/><text fill="#000000" font-family="sans-serif" font-size="20" lengthAdjust="spacing" textLength="69" x="278" y="761.0469">Agency</text><line style="stroke:#181818;stroke-width:0.5;" x1="191.5" x2="398.5" y1="770.4883" y2="770.4883"/><text fill="#000000" font-family="sans-serif" font-size="20" lengthAdjust="spacing" textLength="68" x="196.5" y="793.8242">-id: int</text><text fill="#000000" font-family="sans-serif" font-size="20" lengthAdjust="spacing" textLength="193" x="196.5" y="817.3789">-noOfProperties: int</text><text fill="#000000" font-family="sans-serif" font-size="20" lengthAdjust="spacing" textLength="197" x="196.5" y="840.9336">-stores: List&lt;Store&gt;</text><line style="stroke:#181818;stroke-width:0.5;" x1="191.5" x2="398.5" y1="849.1523" y2="849.1523"/></g><!--class NetworkManagerDivideStoresWindow--><g id="elem_NetworkManagerDivideStoresWindow"><rect codeLine="32" fill="#F1F1F1" height="285.5469" id="NetworkManagerDivideStoresWindow" rx="2.5" ry="2.5" style="stroke:#181818;stroke-width:0.5;" width="480" x="55" y="44.4883"/><ellipse cx="112" cy="61.4883" fill="#C2C2C2" rx="12" ry="12" style="stroke:#181818;stroke-width:1.0;"/><path d="M114.8066,68.5684 Q114.123,68.9199 113.3711,69.0957 Q112.6191,69.2715 111.7891,69.2715 Q108.8398,69.2715 107.2871,67.3281 Q105.7344,65.3848 105.7344,61.7129 Q105.7344,58.0313 107.2871,56.0879 Q108.8398,54.1445 111.7891,54.1445 Q112.6191,54.1445 113.3809,54.3203 Q114.1426,54.4961 114.8066,54.8477 L114.8066,58.0508 Q114.0645,57.3672 113.3662,57.0498 Q112.668,56.7324 111.9258,56.7324 Q110.3438,56.7324 109.5381,57.9873 Q108.7324,59.2422 108.7324,61.7129 Q108.7324,64.1738 109.5381,65.4287 Q110.3438,66.6836 111.9258,66.6836 Q112.668,66.6836 113.3662,66.3662 Q114.0645,66.0488 114.8066,65.3652 Z " fill="#000000"/><text fill="#000000" font-family="sans-serif" font-size="20" lengthAdjust="spacing" textLength="357" x="134" y="69.0469">NetworkManagerDivideStoresWindow</text><line style="stroke:#181818;stroke-width:0.5;" x1="56" x2="534" y1="78.4883" y2="78.4883"/><text fill="#000000" font-family="sans-serif" font-size="20" lengthAdjust="spacing" textLength="468" x="61" y="101.8242">-StoreDivisionController: StoreDivisionController</text><text fill="#000000" font-family="sans-serif" font-size="20" lengthAdjust="spacing" textLength="183" x="61" y="125.3789">-btnImport: Button</text><text fill="#000000" font-family="sans-serif" font-size="20" lengthAdjust="spacing" textLength="255" x="61" y="148.9336">-btnRunTimeTests: Button</text><text fill="#000000" font-family="sans-serif" font-size="20" lengthAdjust="spacing" textLength="238" x="61" y="172.4883">-btnDivideStores: Button</text><text fill="#000000" font-family="sans-serif" font-size="20" lengthAdjust="spacing" textLength="169" x="61" y="196.043">-btReturn: Button</text><line style="stroke:#181818;stroke-width:0.5;" x1="56" x2="534" y1="204.2617" y2="204.2617"/><text fill="#000000" font-family="sans-serif" font-size="20" lengthAdjust="spacing" textLength="210" x="61" y="227.5977">+getProperties(): void</text><text fill="#000000" font-family="sans-serif" font-size="20" lengthAdjust="spacing" textLength="189" x="61" y="251.1523">+onBtReturn(): void</text><text fill="#000000" font-family="sans-serif" font-size="20" lengthAdjust="spacing" textLength="191" x="61" y="274.707">+onBtImport(): void</text><text fill="#000000" font-family="sans-serif" font-size="20" lengthAdjust="spacing" textLength="276" x="61" y="298.2617">+onbtnRunTimeTests(): void</text><text fill="#000000" font-family="sans-serif" font-size="20" lengthAdjust="spacing" textLength="258" x="61" y="321.8164">+onBtnDivideStores(): void</text></g><!--class Store--><g id="elem_Store"><rect codeLine="45" fill="#F1F1F1" height="97.1094" id="Store" rx="2.5" ry="2.5" style="stroke:#181818;stroke-width:0.5;" width="141" x="434.5" y="748.4883"/><ellipse cx="476.6" cy="765.4883" fill="#C2C2C2" rx="12" ry="12" style="stroke:#181818;stroke-width:1.0;"/><path d="M479.4066,772.5684 Q478.723,772.9199 477.9711,773.0957 Q477.2191,773.2715 476.3891,773.2715 Q473.4398,773.2715 471.8871,771.3281 Q470.3344,769.3848 470.3344,765.7129 Q470.3344,762.0313 471.8871,760.0879 Q473.4398,758.1445 476.3891,758.1445 Q477.2191,758.1445 477.9809,758.3203 Q478.7426,758.4961 479.4066,758.8477 L479.4066,762.0508 Q478.6645,761.3672 477.9662,761.0498 Q477.268,760.7324 476.5258,760.7324 Q474.9438,760.7324 474.1381,761.9873 Q473.3324,763.2422 473.3324,765.7129 Q473.3324,768.1738 474.1381,769.4287 Q474.9438,770.6836 476.5258,770.6836 Q477.268,770.6836 477.9662,770.3662 Q478.6645,770.0488 479.4066,769.3652 Z " fill="#000000"/><text fill="#000000" font-family="sans-serif" font-size="20" lengthAdjust="spacing" textLength="49" x="497.4" y="773.0469">Store</text><line style="stroke:#181818;stroke-width:0.5;" x1="435.5" x2="574.5" y1="782.4883" y2="782.4883"/><text fill="#000000" font-family="sans-serif" font-size="20" lengthAdjust="spacing" textLength="68" x="440.5" y="805.8242">-id: int</text><text fill="#000000" font-family="sans-serif" font-size="20" lengthAdjust="spacing" textLength="129" x="440.5" y="829.3789">-size: double</text><line style="stroke:#181818;stroke-width:0.5;" x1="435.5" x2="574.5" y1="837.5977" y2="837.5977"/></g><!--link StoreDivisionController to Property--><g id="link_StoreDivisionController_Property"><path codeLine="50" d="M178.61,676.7183 C155.18,705.3383 132.37,733.2183 114.69,754.8183 " fill="none" id="StoreDivisionController-to-Property" style="stroke:#181818;stroke-width:1.0;stroke-dasharray:7.0,7.0;"/><polygon fill="#181818" points="111.73,758.4383,120.5276,754.0109,114.8985,754.5704,114.339,748.9413,111.73,758.4383" style="stroke:#181818;stroke-width:1.0;"/></g><!--link StoreDivisionController to Agency--><g id="link_StoreDivisionController_Agency"><path codeLine="51" d="M295,676.7183 C295,695.2283 295,713.4183 295,729.8083 " fill="none" id="StoreDivisionController-to-Agency" style="stroke:#181818;stroke-width:1.0;stroke-dasharray:7.0,7.0;"/><polygon fill="#181818" points="295,734.7283,299,725.7283,295,729.7283,291,725.7283,295,734.7283" style="stroke:#181818;stroke-width:1.0;"/></g><!--link StoreDivisionController to Store--><g id="link_StoreDivisionController_Store"><path codeLine="52" d="M409.22,676.7183 C428.28,700.4583 446.94,723.6983 462.65,743.2583 " fill="none" id="StoreDivisionController-to-Store" style="stroke:#181818;stroke-width:1.0;stroke-dasharray:7.0,7.0;"/><polygon fill="#181818" points="465.63,746.9683,463.0973,737.4506,462.4926,743.0751,456.8682,742.4704,465.63,746.9683" style="stroke:#181818;stroke-width:1.0;"/></g><!--link NetworkManagerDivideStoresWindow to StoreDivisionController--><g id="link_NetworkManagerDivideStoresWindow_StoreDivisionController"><path codeLine="53" d="M295,330.8883 C295,348.3383 295,366.2083 295,383.7483 " fill="none" id="NetworkManagerDivideStoresWindow-to-StoreDivisionController" style="stroke:#181818;stroke-width:1.0;stroke-dasharray:7.0,7.0;"/><polygon fill="#181818" points="295,388.6783,299,379.6783,295,383.6783,291,379.6783,295,388.6783" style="stroke:#181818;stroke-width:1.0;"/></g><!--SRC=[XPDDZvim48Rl_0eVMqMxskwjKRLIiccbI6sp2blrx9Y1M34Uv1asebN_Umq6uYrXom69UTxvy3k6JjfMqidIe3f19ZB8PMtu2rfEzIyGztS93H9HeaLrT5Y2O5T3H2gfJhA0b1i3me5YQGiJ2-WeCpnhMuXS6eg9qHQugK1KQ9hs8sBAIA8LizE7cc6hq7P3tIK9Q_QT7bikDbeMhVf6_4W_V4oIBakaZ0us-aMJHllep-FG673YToBySoFsK25fBz90VOZQbA-QU2dQzwUkn4CF_V6iQYAwwW83fhhSvIjZkXnQYWphWtSWWf-bEeQSli2cauG22r4vy8U6T9ZXtVlf55ubdJ-wFz4p4D-tcXVKMGzpRRErDD8go9u6uLWdddSXb3IgDfAzHNaEpYFOvMbTKgkFXb-80lZ9OGM-7j3OyS_WSy-QqTXWr7Qp5DhoHHVQZogT1Hw-BExoIvEOKEzdRCLOyplm6TtfcxI-gMkNdGK3wQUt0izZjvdBi9m3VTg1xRQiqFcLhsjcj9VulhRFkeHs3JIbyIWJkWUkdNqLddCvCBJhFkaA20DEm3yZNabyDUHqhrryPbta_yBnblYCkN_jzlPXl1zlYiBbU5FIiUI_6n-bLvRw5m00]--></g></svg>