<?xml version="1.0" encoding="UTF-8" standalone="no"?><svg xmlns="http://www.w3.org/2000/svg" xmlns:xlink="http://www.w3.org/1999/xlink" contentStyleType="text/css" height="1325px" preserveAspectRatio="none" style="width:1567px;height:1325px;background:#FFFFFF;" version="1.1" viewBox="0 0 1567 1325" width="1567px" zoomAndPan="magnify"><defs/><g><text fill="#000000" font-family="sans-serif" font-size="14" font-weight="bold" lengthAdjust="spacing" textLength="187" x="691.75" y="28.5352">Sequence Diagram - US19</text><rect fill="#FFFFFF" height="1091.9766" style="stroke:#181818;stroke-width:1.0;" width="10" x="84" y="136.043"/><rect fill="#FFFFFF" height="1062.4219" style="stroke:#181818;stroke-width:1.0;" width="10" x="379.5" y="165.5977"/><rect fill="#FFFFFF" height="790.5391" style="stroke:#181818;stroke-width:1.0;" width="10" x="384.5" y="428.4805"/><rect fill="#FFFFFF" height="37.5547" style="stroke:#181818;stroke-width:1.0;" width="10" x="802.5" y="203.1523"/><rect fill="#FFFFFF" height="112.6641" style="stroke:#181818;stroke-width:1.0;" width="10" x="802.5" y="278.2617"/><rect fill="#FFFFFF" height="715.4297" style="stroke:#181818;stroke-width:1.0;" width="10" x="802.5" y="466.0352"/><rect fill="#FFFFFF" height="123.6641" style="stroke:#181818;stroke-width:1.0;" width="10" x="807.5" y="511.5898"/><rect fill="#FFFFFF" height="272.8828" style="stroke:#181818;stroke-width:1.0;" width="10" x="807.5" y="687.8086"/><rect fill="#FFFFFF" height="123.6641" style="stroke:#181818;stroke-width:1.0;" width="10" x="812.5" y="779.4727"/><rect fill="#FFFFFF" height="123.6641" style="stroke:#181818;stroke-width:1.0;" width="10" x="807.5" y="1013.2461"/><rect fill="#FFFFFF" height="37.5547" style="stroke:#181818;stroke-width:1.0;" width="10" x="1461.5" y="315.8164"/><rect fill="#FFFFFF" height="37.5547" style="stroke:#181818;stroke-width:1.0;" width="10" x="1461.5" y="554.1445"/><rect fill="#FFFFFF" height="37.5547" style="stroke:#181818;stroke-width:1.0;" width="10" x="1461.5" y="822.0273"/><rect fill="#FFFFFF" height="37.5547" style="stroke:#181818;stroke-width:1.0;" width="10" x="1461.5" y="1055.8008"/><rect fill="none" height="210.3281" style="stroke:#000000;stroke-width:1.5;" width="936" x="625.5" y="707.8086"/><line style="stroke:#181818;stroke-width:0.5;stroke-dasharray:5.0,5.0;" x1="89" x2="89" y1="126.043" y2="1237.0195"/><line style="stroke:#181818;stroke-width:0.5;stroke-dasharray:5.0,5.0;" x1="384" x2="384" y1="126.043" y2="1237.0195"/><line style="stroke:#181818;stroke-width:0.5;stroke-dasharray:5.0,5.0;" x1="807.5" x2="807.5" y1="126.043" y2="1237.0195"/><line style="stroke:#181818;stroke-width:0.5;stroke-dasharray:5.0,5.0;" x1="1466.5" x2="1466.5" y1="126.043" y2="1237.0195"/><text fill="#000000" font-family="sans-serif" font-size="20" lengthAdjust="spacing" textLength="162" x="5" y="121.8242">NetworkManager</text><ellipse cx="89" cy="50.9883" fill="#E3E3E3" rx="8" ry="8" style="stroke:#181818;stroke-width:0.5;"/><path d="M89,58.9883 L89,85.9883 M76,66.9883 L102,66.9883 M89,85.9883 L76,100.9883 M89,85.9883 L102,100.9883 " fill="none" style="stroke:#181818;stroke-width:0.5;"/><text fill="#000000" font-family="sans-serif" font-size="20" lengthAdjust="spacing" textLength="162" x="5" y="1255.3555">NetworkManager</text><ellipse cx="89" cy="1268.0742" fill="#E3E3E3" rx="8" ry="8" style="stroke:#181818;stroke-width:0.5;"/><path d="M89,1276.0742 L89,1303.0742 M76,1284.0742 L102,1284.0742 M89,1303.0742 L76,1318.0742 M89,1303.0742 L102,1318.0742 " fill="none" style="stroke:#181818;stroke-width:0.5;"/><rect fill="#E3E3E3" height="37.5547" rx="2.5" ry="2.5" style="stroke:#181818;stroke-width:0.5;" width="403" x="183" y="87.4883"/><text fill="#000000" font-family="sans-serif" font-size="20" lengthAdjust="spacing" textLength="389" x="190" y="113.8242">NetworkManagerDivideStoresWindow: UI</text><rect fill="#E3E3E3" height="37.5547" rx="2.5" ry="2.5" style="stroke:#181818;stroke-width:0.5;" width="403" x="183" y="1236.0195"/><text fill="#000000" font-family="sans-serif" font-size="20" lengthAdjust="spacing" textLength="389" x="190" y="1262.3555">NetworkManagerDivideStoresWindow: UI</text><rect fill="#E3E3E3" height="37.5547" rx="2.5" ry="2.5" style="stroke:#181818;stroke-width:0.5;" width="344" x="635.5" y="87.4883"/><text fill="#000000" font-family="sans-serif" font-size="20" lengthAdjust="spacing" textLength="330" x="642.5" y="113.8242">StoreDivisionController: Controller</text><rect fill="#E3E3E3" height="37.5547" rx="2.5" ry="2.5" style="stroke:#181818;stroke-width:0.5;" width="344" x="635.5" y="1236.0195"/><text fill="#000000" font-family="sans-serif" font-size="20" lengthAdjust="spacing" textLength="330" x="642.5" y="1262.3555">StoreDivisionController: Controller</text><rect fill="#E3E3E3" height="37.5547" rx="2.5" ry="2.5" style="stroke:#181818;stroke-width:0.5;" width="170" x="1381.5" y="87.4883"/><text fill="#000000" font-family="sans-serif" font-size="20" lengthAdjust="spacing" textLength="156" x="1388.5" y="113.8242">Agency: Domain</text><rect fill="#E3E3E3" height="37.5547" rx="2.5" ry="2.5" style="stroke:#181818;stroke-width:0.5;" width="170" x="1381.5" y="1236.0195"/><text fill="#000000" font-family="sans-serif" font-size="20" lengthAdjust="spacing" textLength="156" x="1388.5" y="1262.3555">Agency: Domain</text><rect fill="#FFFFFF" height="1091.9766" style="stroke:#181818;stroke-width:1.0;" width="10" x="84" y="136.043"/><rect fill="#FFFFFF" height="1062.4219" style="stroke:#181818;stroke-width:1.0;" width="10" x="379.5" y="165.5977"/><rect fill="#FFFFFF" height="790.5391" style="stroke:#181818;stroke-width:1.0;" width="10" x="384.5" y="428.4805"/><rect fill="#FFFFFF" height="37.5547" style="stroke:#181818;stroke-width:1.0;" width="10" x="802.5" y="203.1523"/><rect fill="#FFFFFF" height="112.6641" style="stroke:#181818;stroke-width:1.0;" width="10" x="802.5" y="278.2617"/><rect fill="#FFFFFF" height="715.4297" style="stroke:#181818;stroke-width:1.0;" width="10" x="802.5" y="466.0352"/><rect fill="#FFFFFF" height="123.6641" style="stroke:#181818;stroke-width:1.0;" width="10" x="807.5" y="511.5898"/><rect fill="#FFFFFF" height="272.8828" style="stroke:#181818;stroke-width:1.0;" width="10" x="807.5" y="687.8086"/><rect fill="#FFFFFF" height="123.6641" style="stroke:#181818;stroke-width:1.0;" width="10" x="812.5" y="779.4727"/><rect fill="#FFFFFF" height="123.6641" style="stroke:#181818;stroke-width:1.0;" width="10" x="807.5" y="1013.2461"/><rect fill="#FFFFFF" height="37.5547" style="stroke:#181818;stroke-width:1.0;" width="10" x="1461.5" y="315.8164"/><rect fill="#FFFFFF" height="37.5547" style="stroke:#181818;stroke-width:1.0;" width="10" x="1461.5" y="554.1445"/><rect fill="#FFFFFF" height="37.5547" style="stroke:#181818;stroke-width:1.0;" width="10" x="1461.5" y="822.0273"/><rect fill="#FFFFFF" height="37.5547" style="stroke:#181818;stroke-width:1.0;" width="10" x="1461.5" y="1055.8008"/><polygon fill="#181818" points="367.5,161.5977,377.5,165.5977,367.5,169.5977,371.5,165.5977" style="stroke:#181818;stroke-width:1.0;"/><line style="stroke:#181818;stroke-width:1.0;" x1="94" x2="373.5" y1="165.5977" y2="165.5977"/><text fill="#000000" font-family="sans-serif" font-size="20" font-weight="bold" lengthAdjust="spacing" textLength="13" x="101" y="159.3789">1</text><text fill="#000000" font-family="sans-serif" font-size="20" lengthAdjust="spacing" textLength="197" x="118" y="159.3789">asks to divide stores</text><polygon fill="#181818" points="790.5,199.1523,800.5,203.1523,790.5,207.1523,794.5,203.1523" style="stroke:#181818;stroke-width:1.0;"/><line style="stroke:#181818;stroke-width:1.0;" x1="389.5" x2="796.5" y1="203.1523" y2="203.1523"/><text fill="#000000" font-family="sans-serif" font-size="20" font-weight="bold" lengthAdjust="spacing" textLength="13" x="396.5" y="196.9336">2</text><text fill="#000000" font-family="sans-serif" font-size="20" lengthAdjust="spacing" textLength="123" x="413.5" y="196.9336">getInstance()</text><polygon fill="#181818" points="400.5,236.707,390.5,240.707,400.5,244.707,396.5,240.707" style="stroke:#181818;stroke-width:1.0;"/><line style="stroke:#181818;stroke-width:1.0;stroke-dasharray:2.0,2.0;" x1="394.5" x2="806.5" y1="240.707" y2="240.707"/><text fill="#000000" font-family="sans-serif" font-size="20" font-weight="bold" lengthAdjust="spacing" textLength="13" x="406.5" y="234.4883">3</text><text fill="#000000" font-family="sans-serif" font-size="20" lengthAdjust="spacing" textLength="221" x="423.5" y="234.4883">storeDivisionController</text><polygon fill="#181818" points="790.5,274.2617,800.5,278.2617,790.5,282.2617,794.5,278.2617" style="stroke:#181818;stroke-width:1.0;"/><line style="stroke:#181818;stroke-width:1.0;" x1="389.5" x2="796.5" y1="278.2617" y2="278.2617"/><text fill="#000000" font-family="sans-serif" font-size="20" font-weight="bold" lengthAdjust="spacing" textLength="13" x="396.5" y="272.043">4</text><text fill="#000000" font-family="sans-serif" font-size="20" lengthAdjust="spacing" textLength="377" x="413.5" y="272.043">prepareStoreList(stores: List&lt;Agency&gt;)</text><polygon fill="#181818" points="1449.5,311.8164,1459.5,315.8164,1449.5,319.8164,1453.5,315.8164" style="stroke:#181818;stroke-width:1.0;"/><line style="stroke:#181818;stroke-width:1.0;" x1="812.5" x2="1455.5" y1="315.8164" y2="315.8164"/><text fill="#000000" font-family="sans-serif" font-size="20" font-weight="bold" lengthAdjust="spacing" textLength="13" x="819.5" y="309.5977">5</text><text fill="#000000" font-family="sans-serif" font-size="20" lengthAdjust="spacing" textLength="537" x="836.5" y="309.5977">new Agency(agency.getId(), agency.getNoOfProperties())</text><polygon fill="#181818" points="823.5,349.3711,813.5,353.3711,823.5,357.3711,819.5,353.3711" style="stroke:#181818;stroke-width:1.0;"/><line style="stroke:#181818;stroke-width:1.0;stroke-dasharray:2.0,2.0;" x1="817.5" x2="1465.5" y1="353.3711" y2="353.3711"/><text fill="#000000" font-family="sans-serif" font-size="20" font-weight="bold" lengthAdjust="spacing" textLength="13" x="829.5" y="347.1523">6</text><text fill="#000000" font-family="sans-serif" font-size="20" lengthAdjust="spacing" textLength="69" x="846.5" y="347.1523">Agency</text><polygon fill="#181818" points="400.5,386.9258,390.5,390.9258,400.5,394.9258,396.5,390.9258" style="stroke:#181818;stroke-width:1.0;"/><line style="stroke:#181818;stroke-width:1.0;stroke-dasharray:2.0,2.0;" x1="394.5" x2="806.5" y1="390.9258" y2="390.9258"/><text fill="#000000" font-family="sans-serif" font-size="20" font-weight="bold" lengthAdjust="spacing" textLength="13" x="406.5" y="384.707">7</text><text fill="#000000" font-family="sans-serif" font-size="20" lengthAdjust="spacing" textLength="205" x="423.5" y="384.707">stores: List&lt;Agency&gt;</text><polygon fill="#181818" points="372.5,424.4805,382.5,428.4805,372.5,432.4805,376.5,428.4805" style="stroke:#181818;stroke-width:1.0;"/><line style="stroke:#181818;stroke-width:1.0;" x1="94" x2="378.5" y1="428.4805" y2="428.4805"/><text fill="#000000" font-family="sans-serif" font-size="20" font-weight="bold" lengthAdjust="spacing" textLength="13" x="101" y="422.2617">8</text><text fill="#000000" font-family="sans-serif" font-size="20" lengthAdjust="spacing" textLength="119" x="118" y="422.2617">confirms list</text><polygon fill="#181818" points="790.5,462.0352,800.5,466.0352,790.5,470.0352,794.5,466.0352" style="stroke:#181818;stroke-width:1.0;"/><line style="stroke:#181818;stroke-width:1.0;" x1="394.5" x2="796.5" y1="466.0352" y2="466.0352"/><text fill="#000000" font-family="sans-serif" font-size="20" font-weight="bold" lengthAdjust="spacing" textLength="13" x="401.5" y="459.8164">9</text><text fill="#000000" font-family="sans-serif" font-size="20" lengthAdjust="spacing" textLength="355" x="418.5" y="459.8164">partitionTest2(stores: List&lt;Agency&gt;)</text><line style="stroke:#181818;stroke-width:1.0;" x1="812.5" x2="859.5" y1="498.5898" y2="498.5898"/><line style="stroke:#181818;stroke-width:1.0;" x1="859.5" x2="859.5" y1="498.5898" y2="511.5898"/><line style="stroke:#181818;stroke-width:1.0;" x1="818.5" x2="859.5" y1="511.5898" y2="511.5898"/><polygon fill="#181818" points="828.5,507.5898,818.5,511.5898,828.5,515.5898,824.5,511.5898" style="stroke:#181818;stroke-width:1.0;"/><text fill="#000000" font-family="sans-serif" font-size="20" font-weight="bold" lengthAdjust="spacing" textLength="26" x="824.5" y="492.3711">10</text><text fill="#000000" font-family="sans-serif" font-size="20" lengthAdjust="spacing" textLength="377" x="854.5" y="492.3711">prepareStoreList(stores: List&lt;Agency&gt;)</text><polygon fill="#181818" points="1449.5,550.1445,1459.5,554.1445,1449.5,558.1445,1453.5,554.1445" style="stroke:#181818;stroke-width:1.0;"/><line style="stroke:#181818;stroke-width:1.0;" x1="817.5" x2="1455.5" y1="554.1445" y2="554.1445"/><text fill="#000000" font-family="sans-serif" font-size="20" font-weight="bold" lengthAdjust="spacing" textLength="26" x="824.5" y="547.9258">11</text><text fill="#000000" font-family="sans-serif" font-size="20" lengthAdjust="spacing" textLength="537" x="854.5" y="547.9258">new Agency(agency.getId(), agency.getNoOfProperties())</text><polygon fill="#181818" points="828.5,587.6992,818.5,591.6992,828.5,595.6992,824.5,591.6992" style="stroke:#181818;stroke-width:1.0;"/><line style="stroke:#181818;stroke-width:1.0;stroke-dasharray:2.0,2.0;" x1="822.5" x2="1465.5" y1="591.6992" y2="591.6992"/><text fill="#000000" font-family="sans-serif" font-size="20" font-weight="bold" lengthAdjust="spacing" textLength="26" x="834.5" y="585.4805">12</text><text fill="#000000" font-family="sans-serif" font-size="20" lengthAdjust="spacing" textLength="69" x="864.5" y="585.4805">Agency</text><line style="stroke:#181818;stroke-width:1.0;stroke-dasharray:2.0,2.0;" x1="817.5" x2="859.5" y1="634.2539" y2="634.2539"/><line style="stroke:#181818;stroke-width:1.0;stroke-dasharray:2.0,2.0;" x1="859.5" x2="859.5" y1="634.2539" y2="647.2539"/><line style="stroke:#181818;stroke-width:1.0;stroke-dasharray:2.0,2.0;" x1="812.5" x2="859.5" y1="647.2539" y2="647.2539"/><polygon fill="#181818" points="822.5,643.2539,812.5,647.2539,822.5,651.2539,818.5,647.2539" style="stroke:#181818;stroke-width:1.0;"/><text fill="#000000" font-family="sans-serif" font-size="20" font-weight="bold" lengthAdjust="spacing" textLength="26" x="824.5" y="628.0352">13</text><text fill="#000000" font-family="sans-serif" font-size="20" lengthAdjust="spacing" textLength="205" x="854.5" y="628.0352">stores: List&lt;Agency&gt;</text><line style="stroke:#181818;stroke-width:1.0;" x1="812.5" x2="859.5" y1="674.8086" y2="674.8086"/><line style="stroke:#181818;stroke-width:1.0;" x1="859.5" x2="859.5" y1="674.8086" y2="687.8086"/><line style="stroke:#181818;stroke-width:1.0;" x1="818.5" x2="859.5" y1="687.8086" y2="687.8086"/><polygon fill="#181818" points="828.5,683.8086,818.5,687.8086,828.5,691.8086,824.5,687.8086" style="stroke:#181818;stroke-width:1.0;"/><text fill="#000000" font-family="sans-serif" font-size="20" font-weight="bold" lengthAdjust="spacing" textLength="26" x="824.5" y="668.5898">14</text><text fill="#000000" font-family="sans-serif" font-size="20" lengthAdjust="spacing" textLength="423" x="854.5" y="668.5898">findBalancedPartition(stores: List&lt;Agency&gt;)</text><path d="M625.5,707.8086 L716.5,707.8086 L716.5,723.3633 L706.5,733.3633 L625.5,733.3633 L625.5,707.8086 " fill="#EEEEEE" style="stroke:#000000;stroke-width:1.5;"/><rect fill="none" height="210.3281" style="stroke:#000000;stroke-width:1.5;" width="936" x="625.5" y="707.8086"/><text fill="#000000" font-family="sans-serif" font-size="20" font-weight="bold" lengthAdjust="spacing" textLength="46" x="640.5" y="728.1445">loop</text><text fill="#000000" font-family="sans-serif" font-size="20" font-weight="bold" lengthAdjust="spacing" textLength="271" x="731.5" y="729.1445">["for each partition" as l1]</text><line style="stroke:#181818;stroke-width:1.0;" x1="817.5" x2="864.5" y1="766.4727" y2="766.4727"/><line style="stroke:#181818;stroke-width:1.0;" x1="864.5" x2="864.5" y1="766.4727" y2="779.4727"/><line style="stroke:#181818;stroke-width:1.0;" x1="823.5" x2="864.5" y1="779.4727" y2="779.4727"/><polygon fill="#181818" points="833.5,775.4727,823.5,779.4727,833.5,783.4727,829.5,779.4727" style="stroke:#181818;stroke-width:1.0;"/><text fill="#000000" font-family="sans-serif" font-size="20" font-weight="bold" lengthAdjust="spacing" textLength="26" x="829.5" y="760.2539">15</text><text fill="#000000" font-family="sans-serif" font-size="20" lengthAdjust="spacing" textLength="566" x="859.5" y="760.2539">calculateDifferenceOfSums(partition: List&lt;List&lt;Agency&gt;&gt;)</text><polygon fill="#181818" points="1449.5,818.0273,1459.5,822.0273,1449.5,826.0273,1453.5,822.0273" style="stroke:#181818;stroke-width:1.0;"/><line style="stroke:#181818;stroke-width:1.0;" x1="822.5" x2="1455.5" y1="822.0273" y2="822.0273"/><text fill="#000000" font-family="sans-serif" font-size="20" font-weight="bold" lengthAdjust="spacing" textLength="26" x="829.5" y="815.8086">16</text><text fill="#000000" font-family="sans-serif" font-size="20" lengthAdjust="spacing" textLength="191" x="859.5" y="815.8086">getNoOfProperties()</text><polygon fill="#181818" points="833.5,855.582,823.5,859.582,833.5,863.582,829.5,859.582" style="stroke:#181818;stroke-width:1.0;"/><line style="stroke:#181818;stroke-width:1.0;stroke-dasharray:2.0,2.0;" x1="827.5" x2="1465.5" y1="859.582" y2="859.582"/><text fill="#000000" font-family="sans-serif" font-size="20" font-weight="bold" lengthAdjust="spacing" textLength="26" x="839.5" y="853.3633">17</text><text fill="#000000" font-family="sans-serif" font-size="20" lengthAdjust="spacing" textLength="181" x="869.5" y="853.3633">noOfProperties: int</text><line style="stroke:#181818;stroke-width:1.0;stroke-dasharray:2.0,2.0;" x1="822.5" x2="864.5" y1="902.1367" y2="902.1367"/><line style="stroke:#181818;stroke-width:1.0;stroke-dasharray:2.0,2.0;" x1="864.5" x2="864.5" y1="902.1367" y2="915.1367"/><line style="stroke:#181818;stroke-width:1.0;stroke-dasharray:2.0,2.0;" x1="817.5" x2="864.5" y1="915.1367" y2="915.1367"/><polygon fill="#181818" points="827.5,911.1367,817.5,915.1367,827.5,919.1367,823.5,915.1367" style="stroke:#181818;stroke-width:1.0;"/><text fill="#000000" font-family="sans-serif" font-size="20" font-weight="bold" lengthAdjust="spacing" textLength="26" x="829.5" y="895.918">18</text><text fill="#000000" font-family="sans-serif" font-size="20" lengthAdjust="spacing" textLength="208" x="859.5" y="895.918">differenceOfSums: int</text><line style="stroke:#181818;stroke-width:1.0;stroke-dasharray:2.0,2.0;" x1="817.5" x2="859.5" y1="959.6914" y2="959.6914"/><line style="stroke:#181818;stroke-width:1.0;stroke-dasharray:2.0,2.0;" x1="859.5" x2="859.5" y1="959.6914" y2="972.6914"/><line style="stroke:#181818;stroke-width:1.0;stroke-dasharray:2.0,2.0;" x1="812.5" x2="859.5" y1="972.6914" y2="972.6914"/><polygon fill="#181818" points="822.5,968.6914,812.5,972.6914,822.5,976.6914,818.5,972.6914" style="stroke:#181818;stroke-width:1.0;"/><text fill="#000000" font-family="sans-serif" font-size="20" font-weight="bold" lengthAdjust="spacing" textLength="26" x="824.5" y="953.4727">19</text><text fill="#000000" font-family="sans-serif" font-size="20" lengthAdjust="spacing" textLength="334" x="854.5" y="953.4727">bestPartition: List&lt;List&lt;Agency&gt;&gt;</text><line style="stroke:#181818;stroke-width:1.0;" x1="812.5" x2="859.5" y1="1000.2461" y2="1000.2461"/><line style="stroke:#181818;stroke-width:1.0;" x1="859.5" x2="859.5" y1="1000.2461" y2="1013.2461"/><line style="stroke:#181818;stroke-width:1.0;" x1="818.5" x2="859.5" y1="1013.2461" y2="1013.2461"/><polygon fill="#181818" points="828.5,1009.2461,818.5,1013.2461,828.5,1017.2461,824.5,1013.2461" style="stroke:#181818;stroke-width:1.0;"/><text fill="#000000" font-family="sans-serif" font-size="20" font-weight="bold" lengthAdjust="spacing" textLength="26" x="824.5" y="994.0273">20</text><text fill="#000000" font-family="sans-serif" font-size="20" lengthAdjust="spacing" textLength="605" x="854.5" y="994.0273">calculateDifferenceOfSums(bestPartition: List&lt;List&lt;Agency&gt;&gt;)</text><polygon fill="#181818" points="1449.5,1051.8008,1459.5,1055.8008,1449.5,1059.8008,1453.5,1055.8008" style="stroke:#181818;stroke-width:1.0;"/><line style="stroke:#181818;stroke-width:1.0;" x1="817.5" x2="1455.5" y1="1055.8008" y2="1055.8008"/><text fill="#000000" font-family="sans-serif" font-size="20" font-weight="bold" lengthAdjust="spacing" textLength="26" x="824.5" y="1049.582">21</text><text fill="#000000" font-family="sans-serif" font-size="20" lengthAdjust="spacing" textLength="191" x="854.5" y="1049.582">getNoOfProperties()</text><polygon fill="#181818" points="828.5,1089.3555,818.5,1093.3555,828.5,1097.3555,824.5,1093.3555" style="stroke:#181818;stroke-width:1.0;"/><line style="stroke:#181818;stroke-width:1.0;stroke-dasharray:2.0,2.0;" x1="822.5" x2="1465.5" y1="1093.3555" y2="1093.3555"/><text fill="#000000" font-family="sans-serif" font-size="20" font-weight="bold" lengthAdjust="spacing" textLength="26" x="834.5" y="1087.1367">22</text><text fill="#000000" font-family="sans-serif" font-size="20" lengthAdjust="spacing" textLength="181" x="864.5" y="1087.1367">noOfProperties: int</text><line style="stroke:#181818;stroke-width:1.0;stroke-dasharray:2.0,2.0;" x1="817.5" x2="859.5" y1="1135.9102" y2="1135.9102"/><line style="stroke:#181818;stroke-width:1.0;stroke-dasharray:2.0,2.0;" x1="859.5" x2="859.5" y1="1135.9102" y2="1148.9102"/><line style="stroke:#181818;stroke-width:1.0;stroke-dasharray:2.0,2.0;" x1="812.5" x2="859.5" y1="1148.9102" y2="1148.9102"/><polygon fill="#181818" points="822.5,1144.9102,812.5,1148.9102,822.5,1152.9102,818.5,1148.9102" style="stroke:#181818;stroke-width:1.0;"/><text fill="#000000" font-family="sans-serif" font-size="20" font-weight="bold" lengthAdjust="spacing" textLength="26" x="824.5" y="1129.6914">23</text><text fill="#000000" font-family="sans-serif" font-size="20" lengthAdjust="spacing" textLength="208" x="854.5" y="1129.6914">differenceOfSums: int</text><polygon fill="#181818" points="405.5,1177.4648,395.5,1181.4648,405.5,1185.4648,401.5,1181.4648" style="stroke:#181818;stroke-width:1.0;"/><line style="stroke:#181818;stroke-width:1.0;stroke-dasharray:2.0,2.0;" x1="399.5" x2="806.5" y1="1181.4648" y2="1181.4648"/><text fill="#000000" font-family="sans-serif" font-size="20" font-weight="bold" lengthAdjust="spacing" textLength="26" x="411.5" y="1175.2461">24</text><text fill="#000000" font-family="sans-serif" font-size="20" lengthAdjust="spacing" textLength="270" x="441.5" y="1175.2461">result: Map&lt;String, Object&gt;</text><polygon fill="#181818" points="105,1215.0195,95,1219.0195,105,1223.0195,101,1219.0195" style="stroke:#181818;stroke-width:1.0;"/><line style="stroke:#181818;stroke-width:1.0;stroke-dasharray:2.0,2.0;" x1="99" x2="378.5" y1="1219.0195" y2="1219.0195"/><text fill="#000000" font-family="sans-serif" font-size="20" font-weight="bold" lengthAdjust="spacing" textLength="26" x="111" y="1212.8008">25</text><text fill="#000000" font-family="sans-serif" font-size="20" lengthAdjust="spacing" textLength="139" x="141" y="1212.8008">displays result</text><!--SRC=[tLR1Zjem4BtxAqQSWhHKtRqrMY6rYoeXTHUa5FLid4bmSUpKTXRHh-yaXCR90bssbwgdsCcRcJVluJ5kAtN9BI-K4LjC8SMCLyf_DjedyYV2tNlcZX0eZ3PYOqs1u6s5mPUIYotFCV5xXM1HUAvp5GBSXgTc9tKE6LSE6VFI4pJ17nLgWJ2JFAzn4rWbjnyOOxpoHbV56YsjXJSMHa_eTyPk7xccKdO4t47_5QDQNWfPSks7y9bybYaHD1RTDwc9J0ohUPDaDUy7Dg0QxwJH3wI4DKgXZQ5RDt7TjX__CQUMzZ7CJC6bRg27Lqqdyfbx719d_JrCfiGAOWhTEl06qeOzk8P-buMOCy8HEgIPevzhHnO8ZCOTEA3BkZLCZhNSwRPPYYTJ3EjIXj8Y2N4G-OjqFZhmZQ7Ut1yqcBw2qHIE4chSjUk8DuztTNDfDBw1Rlza5jdIcXB90tJHEAZGwdvuDAs6GhLVWmQFFhtGfvLdqCivRSwuAOpEf2qSACfnsSLQpVetvScBh-ZytTkr33l-2uV-AOC6_eGnr_XqNgYCHiGdhkepb2wFHboXbZAcX556OuigRpelcscWRYzK5bo9Ib6wcSmojFLqN6H9LRZeTvAMGCZYAjDEMF9QHtGlBWQf_NNsf8EkNgG8sADEBwLQqxbONjBaUjlFY__7Ol-Z0QVc81q0-eCGmoClxnDlwKg_WSNwEztvqqjN1KKFfc9DnPMAxrsRCmodcVWB]--></g></svg>