<?xml version="1.0" encoding="UTF-8" standalone="no"?><svg xmlns="http://www.w3.org/2000/svg" xmlns:xlink="http://www.w3.org/1999/xlink" contentStyleType="text/css" height="1212px" preserveAspectRatio="none" style="width:1929px;height:1212px;background:#FFFFFF;" version="1.1" viewBox="0 0 1929 1212" width="1929px" zoomAndPan="magnify"><defs/><g><text fill="#000000" font-family="sans-serif" font-size="14" font-weight="bold" lengthAdjust="spacing" textLength="187" x="870" y="28.5352">Sequence Diagram - US19</text><rect fill="#FFFFFF" height="979.3125" style="stroke:#181818;stroke-width:1.0;" width="10" x="84" y="136.043"/><rect fill="#FFFFFF" height="940.7578" style="stroke:#181818;stroke-width:1.0;" width="10" x="379.5" y="165.5977"/><rect fill="#FFFFFF" height="715.4297" style="stroke:#181818;stroke-width:1.0;" width="10" x="832.5" y="353.3711"/><rect fill="#FFFFFF" height="123.6641" style="stroke:#181818;stroke-width:1.0;" width="10" x="837.5" y="398.9258"/><rect fill="#FFFFFF" height="272.8828" style="stroke:#181818;stroke-width:1.0;" width="10" x="837.5" y="575.1445"/><rect fill="#FFFFFF" height="123.6641" style="stroke:#181818;stroke-width:1.0;" width="10" x="842.5" y="666.8086"/><rect fill="#FFFFFF" height="123.6641" style="stroke:#181818;stroke-width:1.0;" width="10" x="837.5" y="900.582"/><rect fill="#FFFFFF" height="37.5547" style="stroke:#181818;stroke-width:1.0;" width="10" x="1534.5" y="441.4805"/><rect fill="#FFFFFF" height="37.5547" style="stroke:#181818;stroke-width:1.0;" width="10" x="1534.5" y="709.3633"/><rect fill="#FFFFFF" height="37.5547" style="stroke:#181818;stroke-width:1.0;" width="10" x="1534.5" y="943.1367"/><rect fill="#FFFFFF" height="37.5547" style="stroke:#181818;stroke-width:1.0;" width="10" x="1776.5" y="203.1523"/><rect fill="#FFFFFF" height="37.5547" style="stroke:#181818;stroke-width:1.0;" width="10" x="1776.5" y="278.2617"/><rect fill="none" height="210.3281" style="stroke:#000000;stroke-width:1.5;" width="984.5" x="655.5" y="595.1445"/><line style="stroke:#181818;stroke-width:0.5;stroke-dasharray:5.0,5.0;" x1="89" x2="89" y1="126.043" y2="1124.3555"/><line style="stroke:#181818;stroke-width:0.5;stroke-dasharray:5.0,5.0;" x1="384" x2="384" y1="126.043" y2="1124.3555"/><line style="stroke:#181818;stroke-width:0.5;stroke-dasharray:5.0,5.0;" x1="837.5" x2="837.5" y1="126.043" y2="1124.3555"/><line style="stroke:#181818;stroke-width:0.5;stroke-dasharray:5.0,5.0;" x1="1539" x2="1539" y1="126.043" y2="1124.3555"/><line style="stroke:#181818;stroke-width:0.5;stroke-dasharray:5.0,5.0;" x1="1781" x2="1781" y1="126.043" y2="1124.3555"/><text fill="#000000" font-family="sans-serif" font-size="20" lengthAdjust="spacing" textLength="162" x="5" y="121.8242">NetworkManager</text><ellipse cx="89" cy="50.9883" fill="#E3E3E3" rx="8" ry="8" style="stroke:#181818;stroke-width:0.5;"/><path d="M89,58.9883 L89,85.9883 M76,66.9883 L102,66.9883 M89,85.9883 L76,100.9883 M89,85.9883 L102,100.9883 " fill="none" style="stroke:#181818;stroke-width:0.5;"/><text fill="#000000" font-family="sans-serif" font-size="20" lengthAdjust="spacing" textLength="162" x="5" y="1142.6914">NetworkManager</text><ellipse cx="89" cy="1155.4102" fill="#E3E3E3" rx="8" ry="8" style="stroke:#181818;stroke-width:0.5;"/><path d="M89,1163.4102 L89,1190.4102 M76,1171.4102 L102,1171.4102 M89,1190.4102 L76,1205.4102 M89,1190.4102 L102,1205.4102 " fill="none" style="stroke:#181818;stroke-width:0.5;"/><rect fill="#E3E3E3" height="37.5547" rx="2.5" ry="2.5" style="stroke:#181818;stroke-width:0.5;" width="403" x="183" y="87.4883"/><text fill="#000000" font-family="sans-serif" font-size="20" lengthAdjust="spacing" textLength="389" x="190" y="113.8242">NetworkManagerDivideStoresWindow: UI</text><rect fill="#E3E3E3" height="37.5547" rx="2.5" ry="2.5" style="stroke:#181818;stroke-width:0.5;" width="403" x="183" y="1123.3555"/><text fill="#000000" font-family="sans-serif" font-size="20" lengthAdjust="spacing" textLength="389" x="190" y="1149.6914">NetworkManagerDivideStoresWindow: UI</text><rect fill="#E3E3E3" height="37.5547" rx="2.5" ry="2.5" style="stroke:#181818;stroke-width:0.5;" width="344" x="665.5" y="87.4883"/><text fill="#000000" font-family="sans-serif" font-size="20" lengthAdjust="spacing" textLength="330" x="672.5" y="113.8242">StoreDivisionController: Controller</text><rect fill="#E3E3E3" height="37.5547" rx="2.5" ry="2.5" style="stroke:#181818;stroke-width:0.5;" width="344" x="665.5" y="1123.3555"/><text fill="#000000" font-family="sans-serif" font-size="20" lengthAdjust="spacing" textLength="330" x="672.5" y="1149.6914">StoreDivisionController: Controller</text><rect fill="#E3E3E3" height="37.5547" rx="2.5" ry="2.5" style="stroke:#181818;stroke-width:0.5;" width="181" x="1449" y="87.4883"/><text fill="#000000" font-family="sans-serif" font-size="20" lengthAdjust="spacing" textLength="167" x="1456" y="113.8242">Property: Domain</text><rect fill="#E3E3E3" height="37.5547" rx="2.5" ry="2.5" style="stroke:#181818;stroke-width:0.5;" width="181" x="1449" y="1123.3555"/><text fill="#000000" font-family="sans-serif" font-size="20" lengthAdjust="spacing" textLength="167" x="1456" y="1149.6914">Property: Domain</text><rect fill="#E3E3E3" height="37.5547" rx="2.5" ry="2.5" style="stroke:#181818;stroke-width:0.5;" width="283" x="1640" y="87.4883"/><text fill="#000000" font-family="sans-serif" font-size="20" lengthAdjust="spacing" textLength="269" x="1647" y="113.8242">ImportController: Controller</text><rect fill="#E3E3E3" height="37.5547" rx="2.5" ry="2.5" style="stroke:#181818;stroke-width:0.5;" width="283" x="1640" y="1123.3555"/><text fill="#000000" font-family="sans-serif" font-size="20" lengthAdjust="spacing" textLength="269" x="1647" y="1149.6914">ImportController: Controller</text><rect fill="#FFFFFF" height="979.3125" style="stroke:#181818;stroke-width:1.0;" width="10" x="84" y="136.043"/><rect fill="#FFFFFF" height="940.7578" style="stroke:#181818;stroke-width:1.0;" width="10" x="379.5" y="165.5977"/><rect fill="#FFFFFF" height="715.4297" style="stroke:#181818;stroke-width:1.0;" width="10" x="832.5" y="353.3711"/><rect fill="#FFFFFF" height="123.6641" style="stroke:#181818;stroke-width:1.0;" width="10" x="837.5" y="398.9258"/><rect fill="#FFFFFF" height="272.8828" style="stroke:#181818;stroke-width:1.0;" width="10" x="837.5" y="575.1445"/><rect fill="#FFFFFF" height="123.6641" style="stroke:#181818;stroke-width:1.0;" width="10" x="842.5" y="666.8086"/><rect fill="#FFFFFF" height="123.6641" style="stroke:#181818;stroke-width:1.0;" width="10" x="837.5" y="900.582"/><rect fill="#FFFFFF" height="37.5547" style="stroke:#181818;stroke-width:1.0;" width="10" x="1534.5" y="441.4805"/><rect fill="#FFFFFF" height="37.5547" style="stroke:#181818;stroke-width:1.0;" width="10" x="1534.5" y="709.3633"/><rect fill="#FFFFFF" height="37.5547" style="stroke:#181818;stroke-width:1.0;" width="10" x="1534.5" y="943.1367"/><rect fill="#FFFFFF" height="37.5547" style="stroke:#181818;stroke-width:1.0;" width="10" x="1776.5" y="203.1523"/><rect fill="#FFFFFF" height="37.5547" style="stroke:#181818;stroke-width:1.0;" width="10" x="1776.5" y="278.2617"/><polygon fill="#181818" points="367.5,161.5977,377.5,165.5977,367.5,169.5977,371.5,165.5977" style="stroke:#181818;stroke-width:1.0;"/><line style="stroke:#181818;stroke-width:1.0;" x1="94" x2="373.5" y1="165.5977" y2="165.5977"/><text fill="#000000" font-family="sans-serif" font-size="20" font-weight="bold" lengthAdjust="spacing" textLength="13" x="101" y="159.3789">1</text><text fill="#000000" font-family="sans-serif" font-size="20" lengthAdjust="spacing" textLength="197" x="118" y="159.3789">asks to divide stores</text><polygon fill="#181818" points="1764.5,199.1523,1774.5,203.1523,1764.5,207.1523,1768.5,203.1523" style="stroke:#181818;stroke-width:1.0;"/><line style="stroke:#181818;stroke-width:1.0;" x1="389.5" x2="1770.5" y1="203.1523" y2="203.1523"/><text fill="#000000" font-family="sans-serif" font-size="20" font-weight="bold" lengthAdjust="spacing" textLength="13" x="396.5" y="196.9336">2</text><text fill="#000000" font-family="sans-serif" font-size="20" lengthAdjust="spacing" textLength="397" x="413.5" y="196.9336">readFile(filePath: String, delimiter: String)</text><polygon fill="#181818" points="400.5,236.707,390.5,240.707,400.5,244.707,396.5,240.707" style="stroke:#181818;stroke-width:1.0;"/><line style="stroke:#181818;stroke-width:1.0;stroke-dasharray:2.0,2.0;" x1="394.5" x2="1780.5" y1="240.707" y2="240.707"/><text fill="#000000" font-family="sans-serif" font-size="20" font-weight="bold" lengthAdjust="spacing" textLength="13" x="406.5" y="234.4883">3</text><text fill="#000000" font-family="sans-serif" font-size="20" lengthAdjust="spacing" textLength="331" x="423.5" y="234.4883">dataToImport: ArrayList&lt;String[]&gt;</text><polygon fill="#181818" points="1764.5,274.2617,1774.5,278.2617,1764.5,282.2617,1768.5,278.2617" style="stroke:#181818;stroke-width:1.0;"/><line style="stroke:#181818;stroke-width:1.0;" x1="389.5" x2="1770.5" y1="278.2617" y2="278.2617"/><text fill="#000000" font-family="sans-serif" font-size="20" font-weight="bold" lengthAdjust="spacing" textLength="13" x="396.5" y="272.043">4</text><text fill="#000000" font-family="sans-serif" font-size="20" lengthAdjust="spacing" textLength="454" x="413.5" y="272.043">importData(dataToImport: ArrayList&lt;String[]&gt;)</text><polygon fill="#181818" points="400.5,311.8164,390.5,315.8164,400.5,319.8164,396.5,315.8164" style="stroke:#181818;stroke-width:1.0;"/><line style="stroke:#181818;stroke-width:1.0;stroke-dasharray:2.0,2.0;" x1="394.5" x2="1780.5" y1="315.8164" y2="315.8164"/><text fill="#000000" font-family="sans-serif" font-size="20" font-weight="bold" lengthAdjust="spacing" textLength="13" x="406.5" y="309.5977">5</text><text fill="#000000" font-family="sans-serif" font-size="20" lengthAdjust="spacing" textLength="192" x="423.5" y="309.5977">importResult: String</text><polygon fill="#181818" points="820.5,349.3711,830.5,353.3711,820.5,357.3711,824.5,353.3711" style="stroke:#181818;stroke-width:1.0;"/><line style="stroke:#181818;stroke-width:1.0;" x1="389.5" x2="826.5" y1="353.3711" y2="353.3711"/><text fill="#000000" font-family="sans-serif" font-size="20" font-weight="bold" lengthAdjust="spacing" textLength="13" x="396.5" y="347.1523">6</text><text fill="#000000" font-family="sans-serif" font-size="20" lengthAdjust="spacing" textLength="407" x="413.5" y="347.1523">partitionTest2(properties: List&lt;Property&gt;)</text><line style="stroke:#181818;stroke-width:1.0;" x1="842.5" x2="889.5" y1="385.9258" y2="385.9258"/><line style="stroke:#181818;stroke-width:1.0;" x1="889.5" x2="889.5" y1="385.9258" y2="398.9258"/><line style="stroke:#181818;stroke-width:1.0;" x1="848.5" x2="889.5" y1="398.9258" y2="398.9258"/><polygon fill="#181818" points="858.5,394.9258,848.5,398.9258,858.5,402.9258,854.5,398.9258" style="stroke:#181818;stroke-width:1.0;"/><text fill="#000000" font-family="sans-serif" font-size="20" font-weight="bold" lengthAdjust="spacing" textLength="13" x="854.5" y="379.707">7</text><text fill="#000000" font-family="sans-serif" font-size="20" lengthAdjust="spacing" textLength="460" x="871.5" y="379.707">preparePropertyList(properties: List&lt;Property&gt;)</text><polygon fill="#181818" points="1522.5,437.4805,1532.5,441.4805,1522.5,445.4805,1526.5,441.4805" style="stroke:#181818;stroke-width:1.0;"/><line style="stroke:#181818;stroke-width:1.0;" x1="847.5" x2="1528.5" y1="441.4805" y2="441.4805"/><text fill="#000000" font-family="sans-serif" font-size="20" font-weight="bold" lengthAdjust="spacing" textLength="13" x="854.5" y="435.2617">8</text><text fill="#000000" font-family="sans-serif" font-size="20" lengthAdjust="spacing" textLength="651" x="871.5" y="435.2617">new Property(property.getAgencyID(), property.getNoOfProperties())</text><polygon fill="#181818" points="858.5,475.0352,848.5,479.0352,858.5,483.0352,854.5,479.0352" style="stroke:#181818;stroke-width:1.0;"/><line style="stroke:#181818;stroke-width:1.0;stroke-dasharray:2.0,2.0;" x1="852.5" x2="1538.5" y1="479.0352" y2="479.0352"/><text fill="#000000" font-family="sans-serif" font-size="20" font-weight="bold" lengthAdjust="spacing" textLength="13" x="864.5" y="472.8164">9</text><text fill="#000000" font-family="sans-serif" font-size="20" lengthAdjust="spacing" textLength="80" x="881.5" y="472.8164">Property</text><line style="stroke:#181818;stroke-width:1.0;stroke-dasharray:2.0,2.0;" x1="847.5" x2="889.5" y1="521.5898" y2="521.5898"/><line style="stroke:#181818;stroke-width:1.0;stroke-dasharray:2.0,2.0;" x1="889.5" x2="889.5" y1="521.5898" y2="534.5898"/><line style="stroke:#181818;stroke-width:1.0;stroke-dasharray:2.0,2.0;" x1="842.5" x2="889.5" y1="534.5898" y2="534.5898"/><polygon fill="#181818" points="852.5,530.5898,842.5,534.5898,852.5,538.5898,848.5,534.5898" style="stroke:#181818;stroke-width:1.0;"/><text fill="#000000" font-family="sans-serif" font-size="20" font-weight="bold" lengthAdjust="spacing" textLength="26" x="854.5" y="515.3711">10</text><text fill="#000000" font-family="sans-serif" font-size="20" lengthAdjust="spacing" textLength="257" x="884.5" y="515.3711">properties: List&lt;Property&gt;</text><line style="stroke:#181818;stroke-width:1.0;" x1="842.5" x2="889.5" y1="562.1445" y2="562.1445"/><line style="stroke:#181818;stroke-width:1.0;" x1="889.5" x2="889.5" y1="562.1445" y2="575.1445"/><line style="stroke:#181818;stroke-width:1.0;" x1="848.5" x2="889.5" y1="575.1445" y2="575.1445"/><polygon fill="#181818" points="858.5,571.1445,848.5,575.1445,858.5,579.1445,854.5,575.1445" style="stroke:#181818;stroke-width:1.0;"/><text fill="#000000" font-family="sans-serif" font-size="20" font-weight="bold" lengthAdjust="spacing" textLength="26" x="854.5" y="555.9258">11</text><text fill="#000000" font-family="sans-serif" font-size="20" lengthAdjust="spacing" textLength="475" x="884.5" y="555.9258">findBalancedPartition(properties: List&lt;Property&gt;)</text><path d="M655.5,595.1445 L746.5,595.1445 L746.5,610.6992 L736.5,620.6992 L655.5,620.6992 L655.5,595.1445 " fill="#EEEEEE" style="stroke:#000000;stroke-width:1.5;"/><rect fill="none" height="210.3281" style="stroke:#000000;stroke-width:1.5;" width="984.5" x="655.5" y="595.1445"/><text fill="#000000" font-family="sans-serif" font-size="20" font-weight="bold" lengthAdjust="spacing" textLength="46" x="670.5" y="615.4805">loop</text><text fill="#000000" font-family="sans-serif" font-size="20" font-weight="bold" lengthAdjust="spacing" textLength="271" x="761.5" y="616.4805">["for each partition" as l1]</text><line style="stroke:#181818;stroke-width:1.0;" x1="847.5" x2="894.5" y1="653.8086" y2="653.8086"/><line style="stroke:#181818;stroke-width:1.0;" x1="894.5" x2="894.5" y1="653.8086" y2="666.8086"/><line style="stroke:#181818;stroke-width:1.0;" x1="853.5" x2="894.5" y1="666.8086" y2="666.8086"/><polygon fill="#181818" points="863.5,662.8086,853.5,666.8086,863.5,670.8086,859.5,666.8086" style="stroke:#181818;stroke-width:1.0;"/><text fill="#000000" font-family="sans-serif" font-size="20" font-weight="bold" lengthAdjust="spacing" textLength="26" x="859.5" y="647.5898">12</text><text fill="#000000" font-family="sans-serif" font-size="20" lengthAdjust="spacing" textLength="577" x="889.5" y="647.5898">calculateDifferenceOfSums(partition: List&lt;List&lt;Property&gt;&gt;)</text><polygon fill="#181818" points="1522.5,705.3633,1532.5,709.3633,1522.5,713.3633,1526.5,709.3633" style="stroke:#181818;stroke-width:1.0;"/><line style="stroke:#181818;stroke-width:1.0;" x1="852.5" x2="1528.5" y1="709.3633" y2="709.3633"/><text fill="#000000" font-family="sans-serif" font-size="20" font-weight="bold" lengthAdjust="spacing" textLength="26" x="859.5" y="703.1445">13</text><text fill="#000000" font-family="sans-serif" font-size="20" lengthAdjust="spacing" textLength="191" x="889.5" y="703.1445">getNoOfProperties()</text><polygon fill="#181818" points="863.5,742.918,853.5,746.918,863.5,750.918,859.5,746.918" style="stroke:#181818;stroke-width:1.0;"/><line style="stroke:#181818;stroke-width:1.0;stroke-dasharray:2.0,2.0;" x1="857.5" x2="1538.5" y1="746.918" y2="746.918"/><text fill="#000000" font-family="sans-serif" font-size="20" font-weight="bold" lengthAdjust="spacing" textLength="26" x="869.5" y="740.6992">14</text><text fill="#000000" font-family="sans-serif" font-size="20" lengthAdjust="spacing" textLength="181" x="899.5" y="740.6992">noOfProperties: int</text><line style="stroke:#181818;stroke-width:1.0;stroke-dasharray:2.0,2.0;" x1="852.5" x2="894.5" y1="789.4727" y2="789.4727"/><line style="stroke:#181818;stroke-width:1.0;stroke-dasharray:2.0,2.0;" x1="894.5" x2="894.5" y1="789.4727" y2="802.4727"/><line style="stroke:#181818;stroke-width:1.0;stroke-dasharray:2.0,2.0;" x1="847.5" x2="894.5" y1="802.4727" y2="802.4727"/><polygon fill="#181818" points="857.5,798.4727,847.5,802.4727,857.5,806.4727,853.5,802.4727" style="stroke:#181818;stroke-width:1.0;"/><text fill="#000000" font-family="sans-serif" font-size="20" font-weight="bold" lengthAdjust="spacing" textLength="26" x="859.5" y="783.2539">15</text><text fill="#000000" font-family="sans-serif" font-size="20" lengthAdjust="spacing" textLength="208" x="889.5" y="783.2539">differenceOfSums: int</text><line style="stroke:#181818;stroke-width:1.0;stroke-dasharray:2.0,2.0;" x1="847.5" x2="889.5" y1="847.0273" y2="847.0273"/><line style="stroke:#181818;stroke-width:1.0;stroke-dasharray:2.0,2.0;" x1="889.5" x2="889.5" y1="847.0273" y2="860.0273"/><line style="stroke:#181818;stroke-width:1.0;stroke-dasharray:2.0,2.0;" x1="842.5" x2="889.5" y1="860.0273" y2="860.0273"/><polygon fill="#181818" points="852.5,856.0273,842.5,860.0273,852.5,864.0273,848.5,860.0273" style="stroke:#181818;stroke-width:1.0;"/><text fill="#000000" font-family="sans-serif" font-size="20" font-weight="bold" lengthAdjust="spacing" textLength="26" x="854.5" y="840.8086">16</text><text fill="#000000" font-family="sans-serif" font-size="20" lengthAdjust="spacing" textLength="345" x="884.5" y="840.8086">bestPartition: List&lt;List&lt;Property&gt;&gt;</text><line style="stroke:#181818;stroke-width:1.0;" x1="842.5" x2="889.5" y1="887.582" y2="887.582"/><line style="stroke:#181818;stroke-width:1.0;" x1="889.5" x2="889.5" y1="887.582" y2="900.582"/><line style="stroke:#181818;stroke-width:1.0;" x1="848.5" x2="889.5" y1="900.582" y2="900.582"/><polygon fill="#181818" points="858.5,896.582,848.5,900.582,858.5,904.582,854.5,900.582" style="stroke:#181818;stroke-width:1.0;"/><text fill="#000000" font-family="sans-serif" font-size="20" font-weight="bold" lengthAdjust="spacing" textLength="26" x="854.5" y="881.3633">17</text><text fill="#000000" font-family="sans-serif" font-size="20" lengthAdjust="spacing" textLength="616" x="884.5" y="881.3633">calculateDifferenceOfSums(bestPartition: List&lt;List&lt;Property&gt;&gt;)</text><polygon fill="#181818" points="1522.5,939.1367,1532.5,943.1367,1522.5,947.1367,1526.5,943.1367" style="stroke:#181818;stroke-width:1.0;"/><line style="stroke:#181818;stroke-width:1.0;" x1="847.5" x2="1528.5" y1="943.1367" y2="943.1367"/><text fill="#000000" font-family="sans-serif" font-size="20" font-weight="bold" lengthAdjust="spacing" textLength="26" x="854.5" y="936.918">18</text><text fill="#000000" font-family="sans-serif" font-size="20" lengthAdjust="spacing" textLength="191" x="884.5" y="936.918">getNoOfProperties()</text><polygon fill="#181818" points="858.5,976.6914,848.5,980.6914,858.5,984.6914,854.5,980.6914" style="stroke:#181818;stroke-width:1.0;"/><line style="stroke:#181818;stroke-width:1.0;stroke-dasharray:2.0,2.0;" x1="852.5" x2="1538.5" y1="980.6914" y2="980.6914"/><text fill="#000000" font-family="sans-serif" font-size="20" font-weight="bold" lengthAdjust="spacing" textLength="26" x="864.5" y="974.4727">19</text><text fill="#000000" font-family="sans-serif" font-size="20" lengthAdjust="spacing" textLength="181" x="894.5" y="974.4727">noOfProperties: int</text><line style="stroke:#181818;stroke-width:1.0;stroke-dasharray:2.0,2.0;" x1="847.5" x2="889.5" y1="1023.2461" y2="1023.2461"/><line style="stroke:#181818;stroke-width:1.0;stroke-dasharray:2.0,2.0;" x1="889.5" x2="889.5" y1="1023.2461" y2="1036.2461"/><line style="stroke:#181818;stroke-width:1.0;stroke-dasharray:2.0,2.0;" x1="842.5" x2="889.5" y1="1036.2461" y2="1036.2461"/><polygon fill="#181818" points="852.5,1032.2461,842.5,1036.2461,852.5,1040.2461,848.5,1036.2461" style="stroke:#181818;stroke-width:1.0;"/><text fill="#000000" font-family="sans-serif" font-size="20" font-weight="bold" lengthAdjust="spacing" textLength="26" x="854.5" y="1017.0273">20</text><text fill="#000000" font-family="sans-serif" font-size="20" lengthAdjust="spacing" textLength="208" x="884.5" y="1017.0273">differenceOfSums: int</text><polygon fill="#181818" points="400.5,1064.8008,390.5,1068.8008,400.5,1072.8008,396.5,1068.8008" style="stroke:#181818;stroke-width:1.0;"/><line style="stroke:#181818;stroke-width:1.0;stroke-dasharray:2.0,2.0;" x1="394.5" x2="836.5" y1="1068.8008" y2="1068.8008"/><text fill="#000000" font-family="sans-serif" font-size="20" font-weight="bold" lengthAdjust="spacing" textLength="26" x="406.5" y="1062.582">21</text><text fill="#000000" font-family="sans-serif" font-size="20" lengthAdjust="spacing" textLength="270" x="436.5" y="1062.582">result: Map&lt;String, Object&gt;</text><polygon fill="#181818" points="105,1102.3555,95,1106.3555,105,1110.3555,101,1106.3555" style="stroke:#181818;stroke-width:1.0;"/><line style="stroke:#181818;stroke-width:1.0;stroke-dasharray:2.0,2.0;" x1="99" x2="383.5" y1="1106.3555" y2="1106.3555"/><text fill="#000000" font-family="sans-serif" font-size="20" font-weight="bold" lengthAdjust="spacing" textLength="26" x="111" y="1100.1367">22</text><text fill="#000000" font-family="sans-serif" font-size="20" lengthAdjust="spacing" textLength="139" x="141" y="1100.1367">displays result</text><!--SRC=[tLPDRzim3BtxLmWv9K0xhBtDA0fq2me4M9jWRh13iGDZquaMMV8ake7twqVRTI8xInPVTmaa-V7nyKDKt5Rg72naoiHRJ4I2AHIA7escIFv6SVinS2r4P4QRU6DDXe9iWTwN7E8jh36YKg6m61FejV81RWE9sKcz5YaeXq50aXWQuQy2TOnYAc5TuQx5Chhv50HGaD55jaBBwvYC5QDdf9snsoVGxCcE13ZHFGhO5SbOvg2f3v_ADvcmFcFHVPUQjOHYEQj9bhEkOGsgy4uQ_OKJOOrIQ4DnMDTsXstNVc5DZfRAK4nD1bBNuFQm2vrbkR5qnaSVK2T3lW5XF_QWknVNznoO29bawmGPaTG94AxEm865WmyOn-Y-AxQr2CcZL3XE-MS1j0b5H9QBUCLzecGcgPBS74qEdCUYZxYlMta94BoOvdie7go5ygjqTDUGllwu3n8yGtnIkgoFfim-_gUBSz9FAsyyV4F7rwLDmYLYEpBhRY3kinTqT3lEcowHw49HQspRnjVeK_h2V6fcjiZas19KR8Ffk-o7ljQus-zQqlB36kbXpPUvd4t7aolXdp-RURhOEnzFF7VxYz4kwWpxaUmHNdBtPxtAT3DmAbgVwR9ifZmoFeC27bN9egtPu7mgOt8nIdcOiV_DeVZrLLStP_p7eE92CTrKfYdQQcJEqwZ8t7XFyYwXgsDWOVzIgY6LqXrRlYAQXXOjwSLtHE95WJevHxNYAxKudvtXZN2w41Uu-v-B4HpDoEhzQ8RZ4-HtxSCnN_talmSdCr_DIBRkFMQL59ShADqxfs_EJzWV]--></g></svg>