<?xml version="1.0" encoding="UTF-8" standalone="no"?><svg xmlns="http://www.w3.org/2000/svg" xmlns:xlink="http://www.w3.org/1999/xlink" contentStyleType="text/css" height="745px" preserveAspectRatio="none" style="width:984px;height:745px;background:#FFFFFF;" version="1.1" viewBox="0 0 984 745" width="984px" zoomAndPan="magnify"><defs/><g><text fill="#000000" font-family="sans-serif" font-size="14" font-weight="bold" lengthAdjust="spacing" textLength="160" x="405" y="23.5352">Class Diagram - US19</text><!--class StoreDivisionController--><g id="elem_StoreDivisionController"><rect codeLine="9" fill="#F1F1F1" height="191.3281" id="StoreDivisionController" rx="2.5" ry="2.5" style="stroke:#181818;stroke-width:0.5;" width="970" x="7" y="390.4883"/><ellipse cx="376.5" cy="407.4883" fill="#C2C2C2" rx="12" ry="12" style="stroke:#181818;stroke-width:1.0;"/><path d="M379.3066,414.5684 Q378.623,414.9199 377.8711,415.0957 Q377.1191,415.2715 376.2891,415.2715 Q373.3398,415.2715 371.7871,413.3281 Q370.2344,411.3848 370.2344,407.7129 Q370.2344,404.0313 371.7871,402.0879 Q373.3398,400.1445 376.2891,400.1445 Q377.1191,400.1445 377.8809,400.3203 Q378.6426,400.4961 379.3066,400.8477 L379.3066,404.0508 Q378.5645,403.3672 377.8662,403.0498 Q377.168,402.7324 376.4258,402.7324 Q374.8438,402.7324 374.0381,403.9873 Q373.2324,405.2422 373.2324,407.7129 Q373.2324,410.1738 374.0381,411.4287 Q374.8438,412.6836 376.4258,412.6836 Q377.168,412.6836 377.8662,412.3662 Q378.5645,412.0488 379.3066,411.3652 Z " fill="#000000"/><text fill="#000000" font-family="sans-serif" font-size="20" lengthAdjust="spacing" textLength="222" x="398.5" y="415.0469">StoreDivisionController</text><line style="stroke:#181818;stroke-width:0.5;" x1="8" x2="976" y1="424.4883" y2="424.4883"/><line style="stroke:#181818;stroke-width:0.5;" x1="8" x2="976" y1="432.4883" y2="432.4883"/><text fill="#000000" font-family="sans-serif" font-size="20" lengthAdjust="spacing" textLength="252" x="13" y="455.8242">+StoreDivisionController()</text><text fill="#000000" font-family="sans-serif" font-size="20" lengthAdjust="spacing" textLength="897" x="13" y="479.3789">+prepareStoreList(inputStores: List&lt;Tuple&lt;String, Integer&gt;&gt;): List&lt;Tuple&lt;String, Integer&gt;&gt;</text><text fill="#000000" font-family="sans-serif" font-size="20" lengthAdjust="spacing" textLength="791" x="13" y="502.9336">+partitionTest2(inputStores: List&lt;Tuple&lt;String, Integer&gt;&gt;): Map&lt;String, Object&gt;</text><text fill="#000000" font-family="sans-serif" font-size="20" lengthAdjust="spacing" text-decoration="underline" textLength="958" x="13" y="526.4883">+findBalancedPartition(stores: List&lt;Tuple&lt;String, Integer&gt;&gt;): List&lt;List&lt;Tuple&lt;String, Integer&gt;&gt;&gt;</text><text fill="#000000" font-family="sans-serif" font-size="20" lengthAdjust="spacing" text-decoration="underline" textLength="857" x="13" y="550.043">+calculateDifferenceOfSums(balancedPartition: List&lt;List&lt;Tuple&lt;String, Integer&gt;&gt;&gt;): int</text><text fill="#000000" font-family="sans-serif" font-size="20" lengthAdjust="spacing" textLength="366" x="13" y="573.5977">+getProperties(): ArrayList&lt;Property&gt;</text></g><!--class Property--><g id="elem_Property"><rect codeLine="18" fill="#F1F1F1" height="73.5547" id="Property" rx="2.5" ry="2.5" style="stroke:#181818;stroke-width:0.5;" width="148" x="307" y="652.9883"/><ellipse cx="338.3" cy="669.9883" fill="#C2C2C2" rx="12" ry="12" style="stroke:#181818;stroke-width:1.0;"/><path d="M341.1066,677.0684 Q340.423,677.4199 339.6711,677.5957 Q338.9191,677.7715 338.0891,677.7715 Q335.1398,677.7715 333.5871,675.8281 Q332.0344,673.8848 332.0344,670.2129 Q332.0344,666.5313 333.5871,664.5879 Q335.1398,662.6445 338.0891,662.6445 Q338.9191,662.6445 339.6809,662.8203 Q340.4426,662.9961 341.1066,663.3477 L341.1066,666.5508 Q340.3645,665.8672 339.6662,665.5498 Q338.968,665.2324 338.2258,665.2324 Q336.6438,665.2324 335.8381,666.4873 Q335.0324,667.7422 335.0324,670.2129 Q335.0324,672.6738 335.8381,673.9287 Q336.6438,675.1836 338.2258,675.1836 Q338.968,675.1836 339.6662,674.8662 Q340.3645,674.5488 341.1066,673.8652 Z " fill="#000000"/><text fill="#000000" font-family="sans-serif" font-size="20" lengthAdjust="spacing" textLength="80" x="356.7" y="677.5469">Property</text><line style="stroke:#181818;stroke-width:0.5;" x1="308" x2="454" y1="686.9883" y2="686.9883"/><text fill="#000000" font-family="sans-serif" font-size="20" lengthAdjust="spacing" textLength="136" x="313" y="710.3242">-agencyID: int</text><line style="stroke:#181818;stroke-width:0.5;" x1="308" x2="454" y1="718.543" y2="718.543"/></g><!--class Tuple--><g id="elem_Tuple"><rect codeLine="22" fill="#F1F1F1" height="97.1094" id="Tuple" rx="2.5" ry="2.5" style="stroke:#181818;stroke-width:0.5;" width="228" x="490" y="641.4883"/><ellipse cx="506" cy="658.4883" fill="#C2C2C2" rx="12" ry="12" style="stroke:#181818;stroke-width:1.0;"/><path d="M508.8066,665.5684 Q508.123,665.9199 507.3711,666.0957 Q506.6191,666.2715 505.7891,666.2715 Q502.8398,666.2715 501.2871,664.3281 Q499.7344,662.3848 499.7344,658.7129 Q499.7344,655.0313 501.2871,653.0879 Q502.8398,651.1445 505.7891,651.1445 Q506.6191,651.1445 507.3809,651.3203 Q508.1426,651.4961 508.8066,651.8477 L508.8066,655.0508 Q508.0645,654.3672 507.3662,654.0498 Q506.668,653.7324 505.9258,653.7324 Q504.3438,653.7324 503.5381,654.9873 Q502.7324,656.2422 502.7324,658.7129 Q502.7324,661.1738 503.5381,662.4287 Q504.3438,663.6836 505.9258,663.6836 Q506.668,663.6836 507.3662,663.3662 Q508.0645,663.0488 508.8066,662.3652 Z " fill="#000000"/><text fill="#000000" font-family="sans-serif" font-size="20" lengthAdjust="spacing" textLength="55" x="521" y="666.0469">Tuple</text><rect fill="#FFFFFF" height="25.5547" style="stroke:#181818;stroke-width:1.0;stroke-dasharray:2.0,2.0;" width="137" x="584" y="638.4883"/><text fill="#000000" font-family="sans-serif" font-size="20" font-style="italic" lengthAdjust="spacing" textLength="135" x="585" y="658.8242">String, Integer</text><line style="stroke:#181818;stroke-width:0.5;" x1="491" x2="717" y1="675.4883" y2="675.4883"/><line style="stroke:#181818;stroke-width:0.5;" x1="491" x2="717" y1="683.4883" y2="683.4883"/><text fill="#000000" font-family="sans-serif" font-size="20" lengthAdjust="spacing" textLength="170" x="496" y="706.8242">+getFirst(): String</text><text fill="#000000" font-family="sans-serif" font-size="20" lengthAdjust="spacing" textLength="208" x="496" y="730.3789">+getSecond(): Integer</text></g><!--class NetworkManagerDivideStoresWindow--><g id="elem_NetworkManagerDivideStoresWindow"><rect codeLine="27" fill="#F1F1F1" height="285.5469" id="NetworkManagerDivideStoresWindow" rx="2.5" ry="2.5" style="stroke:#181818;stroke-width:0.5;" width="480" x="252" y="44.4883"/><ellipse cx="309" cy="61.4883" fill="#C2C2C2" rx="12" ry="12" style="stroke:#181818;stroke-width:1.0;"/><path d="M311.8066,68.5684 Q311.123,68.9199 310.3711,69.0957 Q309.6191,69.2715 308.7891,69.2715 Q305.8398,69.2715 304.2871,67.3281 Q302.7344,65.3848 302.7344,61.7129 Q302.7344,58.0313 304.2871,56.0879 Q305.8398,54.1445 308.7891,54.1445 Q309.6191,54.1445 310.3809,54.3203 Q311.1426,54.4961 311.8066,54.8477 L311.8066,58.0508 Q311.0645,57.3672 310.3662,57.0498 Q309.668,56.7324 308.9258,56.7324 Q307.3438,56.7324 306.5381,57.9873 Q305.7324,59.2422 305.7324,61.7129 Q305.7324,64.1738 306.5381,65.4287 Q307.3438,66.6836 308.9258,66.6836 Q309.668,66.6836 310.3662,66.3662 Q311.0645,66.0488 311.8066,65.3652 Z " fill="#000000"/><text fill="#000000" font-family="sans-serif" font-size="20" lengthAdjust="spacing" textLength="357" x="331" y="69.0469">NetworkManagerDivideStoresWindow</text><line style="stroke:#181818;stroke-width:0.5;" x1="253" x2="731" y1="78.4883" y2="78.4883"/><text fill="#000000" font-family="sans-serif" font-size="20" lengthAdjust="spacing" textLength="468" x="258" y="101.8242">-StoreDivisionController: StoreDivisionController</text><text fill="#000000" font-family="sans-serif" font-size="20" lengthAdjust="spacing" textLength="183" x="258" y="125.3789">-btnImport: Button</text><text fill="#000000" font-family="sans-serif" font-size="20" lengthAdjust="spacing" textLength="255" x="258" y="148.9336">-btnRunTimeTests: Button</text><text fill="#000000" font-family="sans-serif" font-size="20" lengthAdjust="spacing" textLength="238" x="258" y="172.4883">-btnDivideStores: Button</text><text fill="#000000" font-family="sans-serif" font-size="20" lengthAdjust="spacing" textLength="169" x="258" y="196.043">-btReturn: Button</text><line style="stroke:#181818;stroke-width:0.5;" x1="253" x2="731" y1="204.2617" y2="204.2617"/><text fill="#000000" font-family="sans-serif" font-size="20" lengthAdjust="spacing" textLength="210" x="258" y="227.5977">+getProperties(): void</text><text fill="#000000" font-family="sans-serif" font-size="20" lengthAdjust="spacing" textLength="189" x="258" y="251.1523">+onBtReturn(): void</text><text fill="#000000" font-family="sans-serif" font-size="20" lengthAdjust="spacing" textLength="191" x="258" y="274.707">+onBtImport(): void</text><text fill="#000000" font-family="sans-serif" font-size="20" lengthAdjust="spacing" textLength="276" x="258" y="298.2617">+onbtnRunTimeTests(): void</text><text fill="#000000" font-family="sans-serif" font-size="20" lengthAdjust="spacing" textLength="258" x="258" y="321.8164">+onBtnDivideStores(): void</text></g><!--link StoreDivisionController to Property--><g id="link_StoreDivisionController_Property"><path codeLine="40" d="M439.91,581.7783 C427.25,604.8283 414.34,628.3083 403.85,647.3983 " fill="none" id="StoreDivisionController-to-Property" style="stroke:#181818;stroke-width:1.0;stroke-dasharray:7.0,7.0;"/><polygon fill="#181818" points="401.69,651.3383,409.5344,645.383,404.1012,646.9581,402.5261,641.525,401.69,651.3383" style="stroke:#181818;stroke-width:1.0;"/></g><!--link StoreDivisionController to Tuple--><g id="link_StoreDivisionController_Tuple"><path codeLine="41" d="M544.56,581.7783 C554.82,600.2883 565.24,619.0783 574.43,635.6483 " fill="none" id="StoreDivisionController-to-Tuple" style="stroke:#181818;stroke-width:1.0;stroke-dasharray:7.0,7.0;"/><polygon fill="#181818" points="576.76,639.8583,575.9104,630.0461,574.3427,635.4814,568.9074,633.9138,576.76,639.8583" style="stroke:#181818;stroke-width:1.0;"/></g><!--link NetworkManagerDivideStoresWindow to StoreDivisionController--><g id="link_NetworkManagerDivideStoresWindow_StoreDivisionController"><path codeLine="42" d="M492,330.6583 C492,348.6583 492,366.7783 492,383.9583 " fill="none" id="NetworkManagerDivideStoresWindow-to-StoreDivisionController" style="stroke:#181818;stroke-width:1.0;stroke-dasharray:7.0,7.0;"/><polygon fill="#181818" points="492,388.7283,496,379.7283,492,383.7283,488,379.7283,492,388.7283" style="stroke:#181818;stroke-width:1.0;"/></g><!--SRC=[bPF1JkD038RlUOev1ks2WDjMg1AbGge42o9TxNawSS9i9vvenaELHRpxEccI1jgK9RVui_t_iHs_rbXA9mjZrHfIaK8cWw5RYvJelo0kpoFVfOZ2ebNFpXOWo0KOa5AgjSmXeSg0SA18Ocw62VvPfdQZCHUPD7v8Z4QWgWHHMbFLBmEcZFJ-ciZfLI1OA8kDgVCe8asiT5DpCTSohxDFnQ_auaSKDLKY8UjWhb-qrnPl-7kSDGQSU8q4Fz_6U7pIyj81cu0cxKvxYjbKeERLJqGTkLg6qi1LmlOm_ouMI923cqvFZkEkltJy4Qoz14-NN-f-Byi-_h3wm-FkchvwagJLcyWqfZDf92f87pkbs7_1_R6SFJabZGf64Wyqoy01opvaIIXylFfeud_QimUDr8haG8_Ebi3ru6D6ryx9ggbluzKqUklMteNQFPyAFajKrMA-RTdd7PRkhuD5RxNZhRFUDca74k13J6lIbksw_WJQMBU-byYohhwkT7j1_ZSln6vwLoFNDna3RTcAS56Krj54p0AHnLtyAU1I5r1Vaz-dGojxz0aeE7mNFZ3s5wlJbbcSjKK7mDRW7lXWyK3XEvCzvzcE_SfdPzD-tqUJccL7dowdJXsR_py0]--></g></svg>