<?xml version="1.0" encoding="UTF-8" standalone="no"?><svg xmlns="http://www.w3.org/2000/svg" xmlns:xlink="http://www.w3.org/1999/xlink" contentStyleType="text/css" height="558px" preserveAspectRatio="none" style="width:1045px;height:558px;background:#FFFFFF;" version="1.1" viewBox="0 0 1045 558" width="1045px" zoomAndPan="magnify"><defs/><g><text fill="#000000" font-family="sans-serif" font-size="14" font-weight="bold" lengthAdjust="spacing" textLength="433" x="305" y="28.5352">System Sequence Diagram (SSD) of US009 - Schedule a visit</text><rect fill="#FFFFFF" height="324.9922" style="stroke:#181818;stroke-width:1.0;" width="10" x="31" y="136.043"/><rect fill="#FFFFFF" height="37.5547" style="stroke:#181818;stroke-width:1.0;" width="10" x="990" y="165.5977"/><rect fill="#FFFFFF" height="37.5547" style="stroke:#181818;stroke-width:1.0;" width="10" x="990" y="240.707"/><rect fill="#FFFFFF" height="61.1094" style="stroke:#181818;stroke-width:1.0;" width="10" x="990" y="315.8164"/><rect fill="#FFFFFF" height="37.5547" style="stroke:#181818;stroke-width:1.0;" width="10" x="990" y="414.4805"/><line style="stroke:#181818;stroke-width:0.5;stroke-dasharray:5.0,5.0;" x1="36" x2="36" y1="126.043" y2="470.0352"/><line style="stroke:#181818;stroke-width:0.5;stroke-dasharray:5.0,5.0;" x1="995" x2="995" y1="126.043" y2="470.0352"/><text fill="#000000" font-family="sans-serif" font-size="20" lengthAdjust="spacing" textLength="56" x="5" y="121.8242">Client</text><ellipse cx="36" cy="50.9883" fill="#E3E3E3" rx="8" ry="8" style="stroke:#181818;stroke-width:0.5;"/><path d="M36,58.9883 L36,85.9883 M23,66.9883 L49,66.9883 M36,85.9883 L23,100.9883 M36,85.9883 L49,100.9883 " fill="none" style="stroke:#181818;stroke-width:0.5;"/><text fill="#000000" font-family="sans-serif" font-size="20" lengthAdjust="spacing" textLength="56" x="5" y="488.3711">Client</text><ellipse cx="36" cy="501.0898" fill="#E3E3E3" rx="8" ry="8" style="stroke:#181818;stroke-width:0.5;"/><path d="M36,509.0898 L36,536.0898 M23,517.0898 L49,517.0898 M36,536.0898 L23,551.0898 M36,536.0898 L49,551.0898 " fill="none" style="stroke:#181818;stroke-width:0.5;"/><rect fill="#E3E3E3" height="37.5547" rx="2.5" ry="2.5" style="stroke:#181818;stroke-width:0.5;" width="88" x="951" y="87.4883"/><text fill="#000000" font-family="sans-serif" font-size="20" lengthAdjust="spacing" textLength="74" x="958" y="113.8242">:System</text><rect fill="#E3E3E3" height="37.5547" rx="2.5" ry="2.5" style="stroke:#181818;stroke-width:0.5;" width="88" x="951" y="469.0352"/><text fill="#000000" font-family="sans-serif" font-size="20" lengthAdjust="spacing" textLength="74" x="958" y="495.3711">:System</text><rect fill="#FFFFFF" height="324.9922" style="stroke:#181818;stroke-width:1.0;" width="10" x="31" y="136.043"/><rect fill="#FFFFFF" height="37.5547" style="stroke:#181818;stroke-width:1.0;" width="10" x="990" y="165.5977"/><rect fill="#FFFFFF" height="37.5547" style="stroke:#181818;stroke-width:1.0;" width="10" x="990" y="240.707"/><rect fill="#FFFFFF" height="61.1094" style="stroke:#181818;stroke-width:1.0;" width="10" x="990" y="315.8164"/><rect fill="#FFFFFF" height="37.5547" style="stroke:#181818;stroke-width:1.0;" width="10" x="990" y="414.4805"/><polygon fill="#181818" points="978,161.5977,988,165.5977,978,169.5977,982,165.5977" style="stroke:#181818;stroke-width:1.0;"/><line style="stroke:#181818;stroke-width:1.0;" x1="41" x2="984" y1="165.5977" y2="165.5977"/><text fill="#000000" font-family="sans-serif" font-size="20" font-weight="bold" lengthAdjust="spacing" textLength="13" x="48" y="159.3789">1</text><text fill="#000000" font-family="sans-serif" font-size="20" lengthAdjust="spacing" textLength="214" x="65" y="159.3789">Ask to schedule a visit</text><polygon fill="#181818" points="52,199.1523,42,203.1523,52,207.1523,48,203.1523" style="stroke:#181818;stroke-width:1.0;"/><line style="stroke:#181818;stroke-width:1.0;stroke-dasharray:2.0,2.0;" x1="46" x2="994" y1="203.1523" y2="203.1523"/><text fill="#000000" font-family="sans-serif" font-size="20" font-weight="bold" lengthAdjust="spacing" textLength="13" x="58" y="196.9336">2</text><text fill="#000000" font-family="sans-serif" font-size="20" lengthAdjust="spacing" textLength="561" x="75" y="196.9336">Requests to select the announcement ID to schedule a visit</text><polygon fill="#181818" points="978,236.707,988,240.707,978,244.707,982,240.707" style="stroke:#181818;stroke-width:1.0;"/><line style="stroke:#181818;stroke-width:1.0;" x1="41" x2="984" y1="240.707" y2="240.707"/><text fill="#000000" font-family="sans-serif" font-size="20" font-weight="bold" lengthAdjust="spacing" textLength="13" x="48" y="234.4883">3</text><text fill="#000000" font-family="sans-serif" font-size="20" lengthAdjust="spacing" textLength="267" x="65" y="234.4883">Types the announcement ID</text><polygon fill="#181818" points="52,274.2617,42,278.2617,52,282.2617,48,278.2617" style="stroke:#181818;stroke-width:1.0;"/><line style="stroke:#181818;stroke-width:1.0;stroke-dasharray:2.0,2.0;" x1="46" x2="994" y1="278.2617" y2="278.2617"/><text fill="#000000" font-family="sans-serif" font-size="20" font-weight="bold" lengthAdjust="spacing" textLength="13" x="58" y="272.043">4</text><text fill="#000000" font-family="sans-serif" font-size="20" lengthAdjust="spacing" textLength="651" x="75" y="272.043">Requests data (date of visit, time of visit start and time of visit end))</text><polygon fill="#181818" points="978,311.8164,988,315.8164,978,319.8164,982,315.8164" style="stroke:#181818;stroke-width:1.0;"/><line style="stroke:#181818;stroke-width:1.0;" x1="41" x2="984" y1="315.8164" y2="315.8164"/><text fill="#000000" font-family="sans-serif" font-size="20" font-weight="bold" lengthAdjust="spacing" textLength="13" x="48" y="309.5977">5</text><text fill="#000000" font-family="sans-serif" font-size="20" lengthAdjust="spacing" textLength="716" x="65" y="309.5977">Types requested data (date of visit, time of visit start and time of visit end)</text><polygon fill="#181818" points="52,372.9258,42,376.9258,52,380.9258,48,376.9258" style="stroke:#181818;stroke-width:1.0;"/><line style="stroke:#181818;stroke-width:1.0;stroke-dasharray:2.0,2.0;" x1="46" x2="994" y1="376.9258" y2="376.9258"/><text fill="#000000" font-family="sans-serif" font-size="20" font-weight="bold" lengthAdjust="spacing" textLength="13" x="58" y="358.9297">6</text><text fill="#000000" font-family="sans-serif" font-size="20" lengthAdjust="spacing" textLength="902" x="75" y="347.1523">Confirm there is not a visit request from the same client at the same time and display the data</text><text fill="#000000" font-family="sans-serif" font-size="20" lengthAdjust="spacing" textLength="338" x="75" y="370.707">typed by the client for confirmation</text><polygon fill="#181818" points="978,410.4805,988,414.4805,978,418.4805,982,414.4805" style="stroke:#181818;stroke-width:1.0;"/><line style="stroke:#181818;stroke-width:1.0;" x1="41" x2="984" y1="414.4805" y2="414.4805"/><text fill="#000000" font-family="sans-serif" font-size="20" font-weight="bold" lengthAdjust="spacing" textLength="13" x="48" y="408.2617">7</text><text fill="#000000" font-family="sans-serif" font-size="20" lengthAdjust="spacing" textLength="793" x="65" y="408.2617">Confirms that the information is correct and asks to send the message to the agent</text><polygon fill="#181818" points="52,448.0352,42,452.0352,52,456.0352,48,452.0352" style="stroke:#181818;stroke-width:1.0;"/><line style="stroke:#181818;stroke-width:1.0;stroke-dasharray:2.0,2.0;" x1="46" x2="994" y1="452.0352" y2="452.0352"/><text fill="#000000" font-family="sans-serif" font-size="20" font-weight="bold" lengthAdjust="spacing" textLength="13" x="58" y="445.8164">8</text><text fill="#000000" font-family="sans-serif" font-size="20" lengthAdjust="spacing" textLength="725" x="75" y="445.8164">Send a message to the agent and show a confirmation message to the client</text><!--SRC=[fLF1Rjim3BtxAuYS6c01WjsMGu6XmO1Tw-ss2olHjc1RSaMwHVRrfIHx3OBqi5GdIIJVUtoYk7T-meZZ44nF5YmrE0_o8tYftL-2h_kArnGOWm-cYs4aa3ZJMMH2qsDBjPm6WaX6qBV3UG9tQCEhyoqqE31LbJZHrFh4GYFKz3oJDmH7XsrAlwlhunP20x_h_VuRxA0s7TbPAn1U73kfAfmb-7byegXx8o72vc5mv6K3o52sbPABCsv2Bx0v5BOSBzjSwLvGQ2seAj1L3h2xNmKUu3lt807uKWSiwn_GYhm65eITWYsm1tXC_R9mHgH1_GBf5DFxCAiDOyhwUVoGpz9LjYkgVvqcuclOdzHjKH3kRAhJHyhAle2uyVq8BEgzqjgBU_9skxsfZLZOqvH-ZlwsvX-2RrmSavkHm37u8EkphDgWqT-H_MPKLbDgKTwlifeaopgU1ZpbIExdZnTjqy9JkLjg6nriKvXHNF3_wTmYEit0ei9vXInOgGaJOlglMH9olunaiarpHsBMRvtkyWorwOlSP5wT8F4gOARcBhng_BpJo-HYo4Vzlm40]--></g></svg>