<?xml version="1.0" encoding="UTF-8" standalone="no"?><svg xmlns="http://www.w3.org/2000/svg" xmlns:xlink="http://www.w3.org/1999/xlink" contentStyleType="text/css" height="601px" preserveAspectRatio="none" style="width:1325px;height:601px;background:#FFFFFF;" version="1.1" viewBox="0 0 1325 601" width="1325px" zoomAndPan="magnify"><defs/><g><rect fill="#FFFFFF" height="376.4375" style="stroke:#181818;stroke-width:1.0;" width="10" x="430.5" y="128.1094"/><rect fill="#FFFFFF" height="330.8828" style="stroke:#181818;stroke-width:1.0;" width="10" x="435.5" y="173.6641"/><rect fill="#FFFFFF" height="100.1094" style="stroke:#181818;stroke-width:1.0;" width="10" x="440.5" y="374.4375"/><rect fill="#FFFFFF" height="37.5547" style="stroke:#181818;stroke-width:1.0;" width="10" x="1152.5" y="216.2188"/><rect fill="#FFFFFF" height="37.5547" style="stroke:#181818;stroke-width:1.0;" width="10" x="1152.5" y="291.3281"/><rect fill="#FFFFFF" height="14" style="stroke:#181818;stroke-width:1.0;" width="10" x="1256" y="416.9922"/><line style="stroke:#181818;stroke-width:0.5;stroke-dasharray:5.0,5.0;" x1="29" x2="29" y1="88.5547" y2="513.5469"/><line style="stroke:#181818;stroke-width:0.5;stroke-dasharray:5.0,5.0;" x1="435.5" x2="435.5" y1="88.5547" y2="513.5469"/><line style="stroke:#181818;stroke-width:0.5;stroke-dasharray:5.0,5.0;" x1="1157.5" x2="1157.5" y1="88.5547" y2="513.5469"/><line style="stroke:#181818;stroke-width:0.5;stroke-dasharray:5.0,5.0;" x1="1260.5" x2="1260.5" y1="88.5547" y2="513.5469"/><text fill="#000000" font-family="sans-serif" font-size="20" lengthAdjust="spacing" textLength="43" x="5" y="84.3359">User</text><ellipse cx="29.5" cy="13.5" fill="#E2E2F0" rx="8" ry="8" style="stroke:#181818;stroke-width:0.5;"/><path d="M29.5,21.5 L29.5,48.5 M16.5,29.5 L42.5,29.5 M29.5,48.5 L16.5,63.5 M29.5,48.5 L42.5,63.5 " fill="none" style="stroke:#181818;stroke-width:0.5;"/><text fill="#000000" font-family="sans-serif" font-size="20" lengthAdjust="spacing" textLength="43" x="5" y="531.8828">User</text><ellipse cx="29.5" cy="544.6016" fill="#E2E2F0" rx="8" ry="8" style="stroke:#181818;stroke-width:0.5;"/><path d="M29.5,552.6016 L29.5,579.6016 M16.5,560.6016 L42.5,560.6016 M29.5,579.6016 L16.5,594.6016 M29.5,579.6016 L42.5,594.6016 " fill="none" style="stroke:#181818;stroke-width:0.5;"/><rect fill="#E2E2F0" height="37.5547" rx="2.5" ry="2.5" style="stroke:#181818;stroke-width:0.5;" width="118" x="376.5" y="50"/><text fill="#000000" font-family="sans-serif" font-size="20" lengthAdjust="spacing" textLength="104" x="383.5" y="76.3359">SomeClass</text><rect fill="#E2E2F0" height="37.5547" rx="2.5" ry="2.5" style="stroke:#181818;stroke-width:0.5;" width="118" x="376.5" y="512.5469"/><text fill="#000000" font-family="sans-serif" font-size="20" lengthAdjust="spacing" textLength="104" x="383.5" y="538.8828">SomeClass</text><rect fill="#E2E2F0" height="37.5547" rx="2.5" ry="2.5" style="stroke:#181818;stroke-width:0.5;" width="70" x="1122.5" y="50"/><text fill="#000000" font-family="sans-serif" font-size="20" lengthAdjust="spacing" textLength="56" x="1129.5" y="76.3359">Order</text><rect fill="#E2E2F0" height="37.5547" rx="2.5" ry="2.5" style="stroke:#181818;stroke-width:0.5;" width="70" x="1122.5" y="512.5469"/><text fill="#000000" font-family="sans-serif" font-size="20" lengthAdjust="spacing" textLength="56" x="1129.5" y="538.8828">Order</text><rect fill="#E2E2F0" height="37.5547" rx="2.5" ry="2.5" style="stroke:#181818;stroke-width:0.5;" width="117" x="1202.5" y="50"/><text fill="#000000" font-family="sans-serif" font-size="20" lengthAdjust="spacing" textLength="103" x="1209.5" y="76.3359">OrderState</text><rect fill="#E2E2F0" height="37.5547" rx="2.5" ry="2.5" style="stroke:#181818;stroke-width:0.5;" width="117" x="1202.5" y="512.5469"/><text fill="#000000" font-family="sans-serif" font-size="20" lengthAdjust="spacing" textLength="103" x="1209.5" y="538.8828">OrderState</text><rect fill="#FFFFFF" height="376.4375" style="stroke:#181818;stroke-width:1.0;" width="10" x="430.5" y="128.1094"/><rect fill="#FFFFFF" height="330.8828" style="stroke:#181818;stroke-width:1.0;" width="10" x="435.5" y="173.6641"/><rect fill="#FFFFFF" height="100.1094" style="stroke:#181818;stroke-width:1.0;" width="10" x="440.5" y="374.4375"/><rect fill="#FFFFFF" height="37.5547" style="stroke:#181818;stroke-width:1.0;" width="10" x="1152.5" y="216.2188"/><rect fill="#FFFFFF" height="37.5547" style="stroke:#181818;stroke-width:1.0;" width="10" x="1152.5" y="291.3281"/><rect fill="#FFFFFF" height="14" style="stroke:#181818;stroke-width:1.0;" width="10" x="1256" y="416.9922"/><polygon fill="#181818" points="418.5,124.1094,428.5,128.1094,418.5,132.1094,422.5,128.1094" style="stroke:#181818;stroke-width:1.0;"/><line style="stroke:#181818;stroke-width:1.0;" x1="29.5" x2="424.5" y1="128.1094" y2="128.1094"/><text fill="#000000" font-family="sans-serif" font-size="20" lengthAdjust="spacing" textLength="382" x="36.5" y="121.8906">acceptOrder(idOrder, idAnnouncement)</text><line style="stroke:#181818;stroke-width:1.0;" x1="440.5" x2="487.5" y1="160.6641" y2="160.6641"/><line style="stroke:#181818;stroke-width:1.0;" x1="487.5" x2="487.5" y1="160.6641" y2="173.6641"/><line style="stroke:#181818;stroke-width:1.0;" x1="446.5" x2="487.5" y1="173.6641" y2="173.6641"/><polygon fill="#181818" points="456.5,169.6641,446.5,173.6641,456.5,177.6641,452.5,173.6641" style="stroke:#181818;stroke-width:1.0;"/><text fill="#000000" font-family="sans-serif" font-size="20" lengthAdjust="spacing" textLength="163" x="452.5" y="154.4453">Loop over orders</text><polygon fill="#181818" points="1140.5,212.2188,1150.5,216.2188,1140.5,220.2188,1144.5,216.2188" style="stroke:#181818;stroke-width:1.0;"/><line style="stroke:#181818;stroke-width:1.0;" x1="445.5" x2="1146.5" y1="216.2188" y2="216.2188"/><text fill="#000000" font-family="sans-serif" font-size="20" lengthAdjust="spacing" textLength="63" x="452.5" y="210">getId()</text><polygon fill="#181818" points="456.5,249.7734,446.5,253.7734,456.5,257.7734,452.5,253.7734" style="stroke:#181818;stroke-width:1.0;"/><line style="stroke:#181818;stroke-width:1.0;stroke-dasharray:2.0,2.0;" x1="450.5" x2="1156.5" y1="253.7734" y2="253.7734"/><text fill="#000000" font-family="sans-serif" font-size="20" lengthAdjust="spacing" textLength="73" x="462.5" y="247.5547">orderID</text><polygon fill="#181818" points="1140.5,287.3281,1150.5,291.3281,1140.5,295.3281,1144.5,291.3281" style="stroke:#181818;stroke-width:1.0;"/><line style="stroke:#181818;stroke-width:1.0;" x1="445.5" x2="1146.5" y1="291.3281" y2="291.3281"/><text fill="#000000" font-family="sans-serif" font-size="20" lengthAdjust="spacing" textLength="207" x="452.5" y="285.1094">getAnnouncementId()</text><polygon fill="#181818" points="456.5,324.8828,446.5,328.8828,456.5,332.8828,452.5,328.8828" style="stroke:#181818;stroke-width:1.0;"/><line style="stroke:#181818;stroke-width:1.0;stroke-dasharray:2.0,2.0;" x1="450.5" x2="1156.5" y1="328.8828" y2="328.8828"/><text fill="#000000" font-family="sans-serif" font-size="20" lengthAdjust="spacing" textLength="162" x="462.5" y="322.6641">announcementID</text><line style="stroke:#181818;stroke-width:1.0;" x1="445.5" x2="492.5" y1="361.4375" y2="361.4375"/><line style="stroke:#181818;stroke-width:1.0;" x1="492.5" x2="492.5" y1="361.4375" y2="374.4375"/><line style="stroke:#181818;stroke-width:1.0;" x1="451.5" x2="492.5" y1="374.4375" y2="374.4375"/><polygon fill="#181818" points="461.5,370.4375,451.5,374.4375,461.5,378.4375,457.5,374.4375" style="stroke:#181818;stroke-width:1.0;"/><text fill="#000000" font-family="sans-serif" font-size="20" lengthAdjust="spacing" textLength="693" x="457.5" y="355.2188">Check if orderID == idOrder and announcementID == idAnnouncement</text><polygon fill="#181818" points="1244,412.9922,1254,416.9922,1244,420.9922,1248,416.9922" style="stroke:#181818;stroke-width:1.0;"/><line style="stroke:#181818;stroke-width:1.0;" x1="450.5" x2="1250" y1="416.9922" y2="416.9922"/><text fill="#000000" font-family="sans-serif" font-size="20" lengthAdjust="spacing" textLength="103" x="457.5" y="410.7734">ACCEPTED</text><polygon fill="#181818" points="461.5,426.9922,451.5,430.9922,461.5,434.9922,457.5,430.9922" style="stroke:#181818;stroke-width:1.0;"/><line style="stroke:#181818;stroke-width:1.0;stroke-dasharray:2.0,2.0;" x1="455.5" x2="1260" y1="430.9922" y2="430.9922"/><line style="stroke:#181818;stroke-width:1.0;stroke-dasharray:2.0,2.0;" x1="450.5" x2="492.5" y1="473.5469" y2="473.5469"/><line style="stroke:#181818;stroke-width:1.0;stroke-dasharray:2.0,2.0;" x1="492.5" x2="492.5" y1="473.5469" y2="486.5469"/><line style="stroke:#181818;stroke-width:1.0;stroke-dasharray:2.0,2.0;" x1="445.5" x2="492.5" y1="486.5469" y2="486.5469"/><polygon fill="#181818" points="455.5,482.5469,445.5,486.5469,455.5,490.5469,451.5,486.5469" style="stroke:#181818;stroke-width:1.0;"/><text fill="#000000" font-family="sans-serif" font-size="20" lengthAdjust="spacing" textLength="135" x="457.5" y="467.3281">Continue loop</text><polygon fill="#181818" points="40.5,491.5469,30.5,495.5469,40.5,499.5469,36.5,495.5469" style="stroke:#181818;stroke-width:1.0;"/><line style="stroke:#181818;stroke-width:1.0;stroke-dasharray:2.0,2.0;" x1="34.5" x2="434.5" y1="495.5469" y2="495.5469"/><!--SRC=[TP71QiCm44Jl-nLBJYdKK78qJI4eAGG2AgZz025j6c5RCfASGx- -iXo3NDoJ3ZFpTbOR6cDxwMNNEjMGHarNERJntTaep0_XxWL0gkWyVWNoaApHADDB6t4ZN4UibI5iK0OKRAbohybdXQy88if8aoe0HZPMRubHerIA-fXDMwFp-un67wnrWrNKaOrFOoLpJuHnAWWsPo_EzUZk2UR6N5ZpyHg_APxrjg1mu5Wz63bvFeAcGbvaooh_SsJfMiUDDdOZrQ2vpdDnlyV7sWcX_s0cjIomkgAeyS3OwUFpT2pA2U1YhhVe8wRWt2ZTtjY1i4s_2QKnJSYNUgsgp03u1G00]--></g></svg>