<?xml version="1.0" encoding="UTF-8" standalone="no"?><svg xmlns="http://www.w3.org/2000/svg" xmlns:xlink="http://www.w3.org/1999/xlink" contentStyleType="text/css" height="1889px" preserveAspectRatio="none" style="width:2449px;height:1889px;background:#FFFFFF;" version="1.1" viewBox="0 0 2449 1889" width="2449px" zoomAndPan="magnify"><defs/><g><rect fill="#FFFFFF" height="1693.9609" style="stroke:#181818;stroke-width:1.0;" width="10" x="46" y="98.5547"/><rect fill="#FFFFFF" height="410.1016" style="stroke:#181818;stroke-width:1.0;" width="10" x="666" y="128.1094"/><rect fill="#FFFFFF" height="262.8828" style="stroke:#181818;stroke-width:1.0;" width="10" x="666" y="575.7656"/><rect fill="#FFFFFF" height="37.5547" style="stroke:#181818;stroke-width:1.0;" width="10" x="666" y="876.2031"/><rect fill="#FFFFFF" height="443.1016" style="stroke:#181818;stroke-width:1.0;" width="10" x="666" y="992.4219"/><rect fill="#FFFFFF" height="277.8828" style="stroke:#181818;stroke-width:1.0;" width="10" x="666" y="1498.6328"/><rect fill="#FFFFFF" height="262.8828" style="stroke:#181818;stroke-width:1.0;" width="10" x="1217" y="214.2188"/><rect fill="#FFFFFF" height="187.7734" style="stroke:#181818;stroke-width:1.0;" width="10" x="1217" y="613.3203"/><rect fill="#FFFFFF" height="367.9922" style="stroke:#181818;stroke-width:1.0;" width="10" x="1217" y="1029.9766"/><rect fill="#FFFFFF" height="202.7734" style="stroke:#181818;stroke-width:1.0;" width="10" x="1217" y="1536.1875"/><rect fill="#FFFFFF" height="37.5547" style="stroke:#181818;stroke-width:1.0;" width="10" x="1484" y="251.7734"/><rect fill="#FFFFFF" height="37.5547" style="stroke:#181818;stroke-width:1.0;" width="10" x="1633" y="326.8828"/><rect fill="#FFFFFF" height="37.5547" style="stroke:#181818;stroke-width:1.0;" width="10" x="1633" y="650.875"/><rect fill="#FFFFFF" height="37.5547" style="stroke:#181818;stroke-width:1.0;" width="10" x="1845.5" y="401.9922"/><rect fill="#FFFFFF" height="37.5547" style="stroke:#181818;stroke-width:1.0;" width="10" x="2077.5" y="725.9844"/><rect fill="#FFFFFF" height="127.6641" style="stroke:#181818;stroke-width:1.0;" width="10" x="2077.5" y="1067.5313"/><rect fill="#FFFFFF" height="127.6641" style="stroke:#181818;stroke-width:1.0;" width="10" x="2077.5" y="1232.75"/><rect fill="#FFFFFF" height="127.6641" style="stroke:#181818;stroke-width:1.0;" width="10" x="2077.5" y="1573.7422"/><rect fill="none" height="855.7578" style="stroke:#000000;stroke-width:1.5;" width="2432.5" x="10" y="928.7578"/><rect fill="none" height="76.1094" style="stroke:#000000;stroke-width:1.5;" width="449" x="1983.5" y="1082.5313"/><rect fill="none" height="76.1094" style="stroke:#000000;stroke-width:1.5;" width="440" x="1983.5" y="1247.75"/><rect fill="none" height="76.1094" style="stroke:#000000;stroke-width:1.5;" width="440" x="1983.5" y="1588.7422"/><line style="stroke:#181818;stroke-width:0.5;stroke-dasharray:5.0,5.0;" x1="51" x2="51" y1="88.5547" y2="1801.5156"/><line style="stroke:#181818;stroke-width:0.5;stroke-dasharray:5.0,5.0;" x1="670.5" x2="670.5" y1="88.5547" y2="1801.5156"/><line style="stroke:#181818;stroke-width:0.5;stroke-dasharray:5.0,5.0;" x1="1221.5" x2="1221.5" y1="170.3867" y2="1801.5156"/><line style="stroke:#181818;stroke-width:0.5;stroke-dasharray:5.0,5.0;" x1="1488.5" x2="1488.5" y1="88.5547" y2="1801.5156"/><line style="stroke:#181818;stroke-width:0.5;stroke-dasharray:5.0,5.0;" x1="1637.5" x2="1637.5" y1="88.5547" y2="1801.5156"/><line style="stroke:#181818;stroke-width:0.5;stroke-dasharray:5.0,5.0;" x1="1850.5" x2="1850.5" y1="88.5547" y2="1801.5156"/><line style="stroke:#181818;stroke-width:0.5;stroke-dasharray:5.0,5.0;" x1="2082.5" x2="2082.5" y1="88.5547" y2="1801.5156"/><text fill="#000000" font-family="sans-serif" font-size="20" lengthAdjust="spacing" textLength="56" x="20" y="84.3359">Agent</text><ellipse cx="51" cy="13.5" fill="#E3E3E3" rx="8" ry="8" style="stroke:#181818;stroke-width:0.5;"/><path d="M51,21.5 L51,48.5 M38,29.5 L64,29.5 M51,48.5 L38,63.5 M51,48.5 L64,63.5 " fill="none" style="stroke:#181818;stroke-width:0.5;"/><text fill="#000000" font-family="sans-serif" font-size="20" lengthAdjust="spacing" textLength="56" x="20" y="1819.8516">Agent</text><ellipse cx="51" cy="1832.5703" fill="#E3E3E3" rx="8" ry="8" style="stroke:#181818;stroke-width:0.5;"/><path d="M51,1840.5703 L51,1867.5703 M38,1848.5703 L64,1848.5703 M51,1867.5703 L38,1882.5703 M51,1867.5703 L64,1882.5703 " fill="none" style="stroke:#181818;stroke-width:0.5;"/><rect fill="#E3E3E3" height="37.5547" rx="2.5" ry="2.5" style="stroke:#181818;stroke-width:0.5;" width="299" x="521.5" y="50"/><text fill="#000000" font-family="sans-serif" font-size="20" lengthAdjust="spacing" textLength="285" x="528.5" y="76.3359">:PropertyOrderManagementUI</text><rect fill="#E3E3E3" height="37.5547" rx="2.5" ry="2.5" style="stroke:#181818;stroke-width:0.5;" width="299" x="521.5" y="1800.5156"/><text fill="#000000" font-family="sans-serif" font-size="20" lengthAdjust="spacing" textLength="285" x="528.5" y="1826.8516">:PropertyOrderManagementUI</text><rect fill="#E3E3E3" height="37.5547" rx="2.5" ry="2.5" style="stroke:#181818;stroke-width:0.5;" width="375" x="1034.5" y="1800.5156"/><text fill="#000000" font-family="sans-serif" font-size="20" lengthAdjust="spacing" textLength="361" x="1041.5" y="1826.8516">:PropertyOrderManagementController</text><rect fill="#E3E3E3" height="37.5547" rx="2.5" ry="2.5" style="stroke:#181818;stroke-width:0.5;" width="139" x="1419.5" y="50"/><text fill="#000000" font-family="sans-serif" font-size="20" lengthAdjust="spacing" textLength="125" x="1426.5" y="76.3359">:Repositories</text><rect fill="#E3E3E3" height="37.5547" rx="2.5" ry="2.5" style="stroke:#181818;stroke-width:0.5;" width="139" x="1419.5" y="1800.5156"/><text fill="#000000" font-family="sans-serif" font-size="20" lengthAdjust="spacing" textLength="125" x="1426.5" y="1826.8516">:Repositories</text><rect fill="#E3E3E3" height="61.1094" rx="2.5" ry="2.5" style="stroke:#181818;stroke-width:0.5;" width="139" x="1568.5" y="26.4453"/><text fill="#000000" font-family="sans-serif" font-size="20" lengthAdjust="spacing" textLength="114" x="1581" y="52.7813">repositories</text><text fill="#000000" font-family="sans-serif" font-size="20" lengthAdjust="spacing" textLength="125" x="1575.5" y="76.3359">:Repositories</text><rect fill="#E3E3E3" height="61.1094" rx="2.5" ry="2.5" style="stroke:#181818;stroke-width:0.5;" width="139" x="1568.5" y="1800.5156"/><text fill="#000000" font-family="sans-serif" font-size="20" lengthAdjust="spacing" textLength="114" x="1581" y="1826.8516">repositories</text><text fill="#000000" font-family="sans-serif" font-size="20" lengthAdjust="spacing" textLength="125" x="1575.5" y="1850.4063">:Repositories</text><rect fill="#E3E3E3" height="61.1094" rx="2.5" ry="2.5" style="stroke:#181818;stroke-width:0.5;" width="266" x="1717.5" y="26.4453"/><text fill="#000000" font-family="sans-serif" font-size="20" lengthAdjust="spacing" textLength="252" x="1724.5" y="52.7813">AnnouncementRepository:</text><text fill="#000000" font-family="sans-serif" font-size="20" lengthAdjust="spacing" textLength="246" x="1727.5" y="76.3359">AnnouncementRepository</text><rect fill="#E3E3E3" height="61.1094" rx="2.5" ry="2.5" style="stroke:#181818;stroke-width:0.5;" width="266" x="1717.5" y="1800.5156"/><text fill="#000000" font-family="sans-serif" font-size="20" lengthAdjust="spacing" textLength="252" x="1724.5" y="1826.8516">AnnouncementRepository:</text><text fill="#000000" font-family="sans-serif" font-size="20" lengthAdjust="spacing" textLength="246" x="1727.5" y="1850.4063">AnnouncementRepository</text><rect fill="#E3E3E3" height="61.1094" rx="2.5" ry="2.5" style="stroke:#181818;stroke-width:0.5;" width="178" x="1993.5" y="26.4453"/><text fill="#000000" font-family="sans-serif" font-size="20" lengthAdjust="spacing" textLength="164" x="2000.5" y="52.7813">OrderRepository:</text><text fill="#000000" font-family="sans-serif" font-size="20" lengthAdjust="spacing" textLength="158" x="2003.5" y="76.3359">OrderRepository</text><rect fill="#E3E3E3" height="61.1094" rx="2.5" ry="2.5" style="stroke:#181818;stroke-width:0.5;" width="178" x="1993.5" y="1800.5156"/><text fill="#000000" font-family="sans-serif" font-size="20" lengthAdjust="spacing" textLength="164" x="2000.5" y="1826.8516">OrderRepository:</text><text fill="#000000" font-family="sans-serif" font-size="20" lengthAdjust="spacing" textLength="158" x="2003.5" y="1850.4063">OrderRepository</text><rect fill="#FFFFFF" height="1693.9609" style="stroke:#181818;stroke-width:1.0;" width="10" x="46" y="98.5547"/><rect fill="#FFFFFF" height="410.1016" style="stroke:#181818;stroke-width:1.0;" width="10" x="666" y="128.1094"/><rect fill="#FFFFFF" height="262.8828" style="stroke:#181818;stroke-width:1.0;" width="10" x="666" y="575.7656"/><rect fill="#FFFFFF" height="37.5547" style="stroke:#181818;stroke-width:1.0;" width="10" x="666" y="876.2031"/><rect fill="#FFFFFF" height="443.1016" style="stroke:#181818;stroke-width:1.0;" width="10" x="666" y="992.4219"/><rect fill="#FFFFFF" height="277.8828" style="stroke:#181818;stroke-width:1.0;" width="10" x="666" y="1498.6328"/><rect fill="#FFFFFF" height="262.8828" style="stroke:#181818;stroke-width:1.0;" width="10" x="1217" y="214.2188"/><rect fill="#FFFFFF" height="187.7734" style="stroke:#181818;stroke-width:1.0;" width="10" x="1217" y="613.3203"/><rect fill="#FFFFFF" height="367.9922" style="stroke:#181818;stroke-width:1.0;" width="10" x="1217" y="1029.9766"/><rect fill="#FFFFFF" height="202.7734" style="stroke:#181818;stroke-width:1.0;" width="10" x="1217" y="1536.1875"/><rect fill="#FFFFFF" height="37.5547" style="stroke:#181818;stroke-width:1.0;" width="10" x="1484" y="251.7734"/><rect fill="#FFFFFF" height="37.5547" style="stroke:#181818;stroke-width:1.0;" width="10" x="1633" y="326.8828"/><rect fill="#FFFFFF" height="37.5547" style="stroke:#181818;stroke-width:1.0;" width="10" x="1633" y="650.875"/><rect fill="#FFFFFF" height="37.5547" style="stroke:#181818;stroke-width:1.0;" width="10" x="1845.5" y="401.9922"/><rect fill="#FFFFFF" height="37.5547" style="stroke:#181818;stroke-width:1.0;" width="10" x="2077.5" y="725.9844"/><rect fill="#FFFFFF" height="127.6641" style="stroke:#181818;stroke-width:1.0;" width="10" x="2077.5" y="1067.5313"/><rect fill="#FFFFFF" height="127.6641" style="stroke:#181818;stroke-width:1.0;" width="10" x="2077.5" y="1232.75"/><rect fill="#FFFFFF" height="127.6641" style="stroke:#181818;stroke-width:1.0;" width="10" x="2077.5" y="1573.7422"/><polygon fill="#181818" points="654,124.1094,664,128.1094,654,132.1094,658,128.1094" style="stroke:#181818;stroke-width:1.0;"/><line style="stroke:#181818;stroke-width:1.0;" x1="56" x2="660" y1="128.1094" y2="128.1094"/><text fill="#000000" font-family="sans-serif" font-size="20" font-weight="bold" lengthAdjust="spacing" textLength="13" x="63" y="121.8906">1</text><text fill="#000000" font-family="sans-serif" font-size="20" lengthAdjust="spacing" textLength="574" x="80" y="121.8906">ask to list announcements and the orders to accept or reject</text><polygon fill="#181818" points="1022.5,161.6641,1032.5,165.6641,1022.5,169.6641,1026.5,165.6641" style="stroke:#181818;stroke-width:1.0;"/><line style="stroke:#181818;stroke-width:1.0;" x1="676" x2="1028.5" y1="165.6641" y2="165.6641"/><text fill="#000000" font-family="sans-serif" font-size="20" font-weight="bold" lengthAdjust="spacing" textLength="13" x="683" y="159.4453">2</text><text fill="#000000" font-family="sans-serif" font-size="20" lengthAdjust="spacing" textLength="58" x="700" y="159.4453">create</text><rect fill="#E3E3E3" height="37.5547" rx="2.5" ry="2.5" style="stroke:#181818;stroke-width:0.5;" width="375" x="1034.5" y="136.1094"/><text fill="#000000" font-family="sans-serif" font-size="20" lengthAdjust="spacing" textLength="361" x="1041.5" y="162.4453">:PropertyOrderManagementController</text><polygon fill="#181818" points="1205,210.2188,1215,214.2188,1205,218.2188,1209,214.2188" style="stroke:#181818;stroke-width:1.0;"/><line style="stroke:#181818;stroke-width:1.0;" x1="676" x2="1211" y1="214.2188" y2="214.2188"/><text fill="#000000" font-family="sans-serif" font-size="20" font-weight="bold" lengthAdjust="spacing" textLength="13" x="683" y="208">3</text><text fill="#000000" font-family="sans-serif" font-size="20" lengthAdjust="spacing" textLength="390" x="700" y="208">getAllAnnouncementsSortedByproperty()</text><polygon fill="#181818" points="1472,247.7734,1482,251.7734,1472,255.7734,1476,251.7734" style="stroke:#181818;stroke-width:1.0;"/><line style="stroke:#181818;stroke-width:1.0;" x1="1227" x2="1478" y1="251.7734" y2="251.7734"/><text fill="#000000" font-family="sans-serif" font-size="20" font-weight="bold" lengthAdjust="spacing" textLength="13" x="1234" y="245.5547">4</text><text fill="#000000" font-family="sans-serif" font-size="20" lengthAdjust="spacing" textLength="123" x="1251" y="245.5547">getInstance()</text><polygon fill="#181818" points="1238,285.3281,1228,289.3281,1238,293.3281,1234,289.3281" style="stroke:#181818;stroke-width:1.0;"/><line style="stroke:#181818;stroke-width:1.0;stroke-dasharray:2.0,2.0;" x1="1232" x2="1488" y1="289.3281" y2="289.3281"/><text fill="#000000" font-family="sans-serif" font-size="20" font-weight="bold" lengthAdjust="spacing" textLength="13" x="1244" y="283.1094">5</text><text fill="#000000" font-family="sans-serif" font-size="20" lengthAdjust="spacing" textLength="114" x="1261" y="283.1094">repositories</text><polygon fill="#181818" points="1621,322.8828,1631,326.8828,1621,330.8828,1625,326.8828" style="stroke:#181818;stroke-width:1.0;"/><line style="stroke:#181818;stroke-width:1.0;" x1="1227" x2="1627" y1="326.8828" y2="326.8828"/><text fill="#000000" font-family="sans-serif" font-size="20" font-weight="bold" lengthAdjust="spacing" textLength="13" x="1234" y="320.6641">6</text><text fill="#000000" font-family="sans-serif" font-size="20" lengthAdjust="spacing" textLength="290" x="1251" y="320.6641">getAnnouncementRepository()</text><polygon fill="#181818" points="1238,360.4375,1228,364.4375,1238,368.4375,1234,364.4375" style="stroke:#181818;stroke-width:1.0;"/><line style="stroke:#181818;stroke-width:1.0;stroke-dasharray:2.0,2.0;" x1="1232" x2="1637" y1="364.4375" y2="364.4375"/><text fill="#000000" font-family="sans-serif" font-size="20" font-weight="bold" lengthAdjust="spacing" textLength="13" x="1244" y="358.2188">7</text><text fill="#000000" font-family="sans-serif" font-size="20" lengthAdjust="spacing" textLength="276" x="1261" y="358.2188">getAnnouncementRepository</text><polygon fill="#181818" points="1833.5,397.9922,1843.5,401.9922,1833.5,405.9922,1837.5,401.9922" style="stroke:#181818;stroke-width:1.0;"/><line style="stroke:#181818;stroke-width:1.0;stroke-dasharray:2.0,2.0;" x1="1227" x2="1839.5" y1="401.9922" y2="401.9922"/><text fill="#000000" font-family="sans-serif" font-size="20" font-weight="bold" lengthAdjust="spacing" textLength="13" x="1234" y="395.7734">8</text><text fill="#000000" font-family="sans-serif" font-size="20" lengthAdjust="spacing" textLength="390" x="1251" y="395.7734">getAllAnnouncementsSortedByproperty()</text><polygon fill="#181818" points="1238,435.5469,1228,439.5469,1238,443.5469,1234,439.5469" style="stroke:#181818;stroke-width:1.0;"/><line style="stroke:#181818;stroke-width:1.0;stroke-dasharray:2.0,2.0;" x1="1232" x2="1849.5" y1="439.5469" y2="439.5469"/><text fill="#000000" font-family="sans-serif" font-size="20" font-weight="bold" lengthAdjust="spacing" textLength="13" x="1244" y="433.3281">9</text><text fill="#000000" font-family="sans-serif" font-size="20" lengthAdjust="spacing" textLength="376" x="1261" y="433.3281">getAllAnnouncementsSortedByproperty</text><polygon fill="#181818" points="687,473.1016,677,477.1016,687,481.1016,683,477.1016" style="stroke:#181818;stroke-width:1.0;"/><line style="stroke:#181818;stroke-width:1.0;stroke-dasharray:2.0,2.0;" x1="681" x2="1221" y1="477.1016" y2="477.1016"/><text fill="#000000" font-family="sans-serif" font-size="20" font-weight="bold" lengthAdjust="spacing" textLength="26" x="693" y="470.8828">10</text><text fill="#000000" font-family="sans-serif" font-size="20" lengthAdjust="spacing" textLength="376" x="723" y="470.8828">getAllAnnouncementsSortedByproperty</text><polygon fill="#181818" points="67,534.2109,57,538.2109,67,542.2109,63,538.2109" style="stroke:#181818;stroke-width:1.0;"/><line style="stroke:#181818;stroke-width:1.0;" x1="61" x2="670" y1="538.2109" y2="538.2109"/><text fill="#000000" font-family="sans-serif" font-size="20" font-weight="bold" lengthAdjust="spacing" textLength="26" x="73" y="520.2148">11</text><text fill="#000000" font-family="sans-serif" font-size="20" lengthAdjust="spacing" textLength="501" x="103" y="508.4375">Display list of all announcements sorted by property</text><text fill="#000000" font-family="sans-serif" font-size="20" lengthAdjust="spacing" textLength="202" x="103" y="531.9922">and ask to select one</text><polygon fill="#181818" points="654,571.7656,664,575.7656,654,579.7656,658,575.7656" style="stroke:#181818;stroke-width:1.0;"/><line style="stroke:#181818;stroke-width:1.0;" x1="56" x2="660" y1="575.7656" y2="575.7656"/><text fill="#000000" font-family="sans-serif" font-size="20" font-weight="bold" lengthAdjust="spacing" textLength="26" x="63" y="569.5469">12</text><text fill="#000000" font-family="sans-serif" font-size="20" lengthAdjust="spacing" textLength="232" x="93" y="569.5469">Select an announcement</text><polygon fill="#181818" points="1205,609.3203,1215,613.3203,1205,617.3203,1209,613.3203" style="stroke:#181818;stroke-width:1.0;"/><line style="stroke:#181818;stroke-width:1.0;" x1="676" x2="1211" y1="613.3203" y2="613.3203"/><text fill="#000000" font-family="sans-serif" font-size="20" font-weight="bold" lengthAdjust="spacing" textLength="26" x="683" y="607.1016">13</text><text fill="#000000" font-family="sans-serif" font-size="20" lengthAdjust="spacing" textLength="492" x="713" y="607.1016">getOrdersListByAnnouncementId(Announcementid)</text><polygon fill="#181818" points="1621,646.875,1631,650.875,1621,654.875,1625,650.875" style="stroke:#181818;stroke-width:1.0;"/><line style="stroke:#181818;stroke-width:1.0;" x1="1227" x2="1627" y1="650.875" y2="650.875"/><text fill="#000000" font-family="sans-serif" font-size="20" font-weight="bold" lengthAdjust="spacing" textLength="26" x="1234" y="644.6563">14</text><text fill="#000000" font-family="sans-serif" font-size="20" lengthAdjust="spacing" textLength="212" x="1264" y="644.6563">getOrdersRepository()</text><polygon fill="#181818" points="1238,684.4297,1228,688.4297,1238,692.4297,1234,688.4297" style="stroke:#181818;stroke-width:1.0;"/><line style="stroke:#181818;stroke-width:1.0;stroke-dasharray:2.0,2.0;" x1="1232" x2="1637" y1="688.4297" y2="688.4297"/><text fill="#000000" font-family="sans-serif" font-size="20" font-weight="bold" lengthAdjust="spacing" textLength="26" x="1244" y="682.2109">15</text><text fill="#000000" font-family="sans-serif" font-size="20" lengthAdjust="spacing" textLength="188" x="1274" y="682.2109">getOrderRepository</text><polygon fill="#181818" points="2065.5,721.9844,2075.5,725.9844,2065.5,729.9844,2069.5,725.9844" style="stroke:#181818;stroke-width:1.0;"/><line style="stroke:#181818;stroke-width:1.0;" x1="1227" x2="2071.5" y1="725.9844" y2="725.9844"/><text fill="#000000" font-family="sans-serif" font-size="20" font-weight="bold" lengthAdjust="spacing" textLength="26" x="1234" y="719.7656">16</text><text fill="#000000" font-family="sans-serif" font-size="20" lengthAdjust="spacing" textLength="492" x="1264" y="719.7656">getOrdersListByAnnouncementId(Announcementid)</text><polygon fill="#181818" points="1238,759.5391,1228,763.5391,1238,767.5391,1234,763.5391" style="stroke:#181818;stroke-width:1.0;"/><line style="stroke:#181818;stroke-width:1.0;stroke-dasharray:2.0,2.0;" x1="1232" x2="2081.5" y1="763.5391" y2="763.5391"/><text fill="#000000" font-family="sans-serif" font-size="20" font-weight="bold" lengthAdjust="spacing" textLength="26" x="1244" y="757.3203">17</text><text fill="#000000" font-family="sans-serif" font-size="20" lengthAdjust="spacing" textLength="100" x="1274" y="757.3203">OrdersList</text><polygon fill="#181818" points="687,797.0938,677,801.0938,687,805.0938,683,801.0938" style="stroke:#181818;stroke-width:1.0;"/><line style="stroke:#181818;stroke-width:1.0;stroke-dasharray:2.0,2.0;" x1="681" x2="1221" y1="801.0938" y2="801.0938"/><text fill="#000000" font-family="sans-serif" font-size="20" font-weight="bold" lengthAdjust="spacing" textLength="26" x="693" y="794.875">18</text><text fill="#000000" font-family="sans-serif" font-size="20" lengthAdjust="spacing" textLength="100" x="723" y="794.875">OrdersList</text><polygon fill="#181818" points="67,834.6484,57,838.6484,67,842.6484,63,838.6484" style="stroke:#181818;stroke-width:1.0;"/><line style="stroke:#181818;stroke-width:1.0;" x1="61" x2="670" y1="838.6484" y2="838.6484"/><text fill="#000000" font-family="sans-serif" font-size="20" font-weight="bold" lengthAdjust="spacing" textLength="26" x="73" y="832.4297">19</text><text fill="#000000" font-family="sans-serif" font-size="20" lengthAdjust="spacing" textLength="386" x="103" y="832.4297">Show list of orders and ask to select one</text><polygon fill="#181818" points="654,872.2031,664,876.2031,654,880.2031,658,876.2031" style="stroke:#181818;stroke-width:1.0;"/><line style="stroke:#181818;stroke-width:1.0;" x1="56" x2="660" y1="876.2031" y2="876.2031"/><text fill="#000000" font-family="sans-serif" font-size="20" font-weight="bold" lengthAdjust="spacing" textLength="26" x="63" y="869.9844">20</text><text fill="#000000" font-family="sans-serif" font-size="20" lengthAdjust="spacing" textLength="143" x="93" y="869.9844">Select an order</text><polygon fill="#181818" points="67,909.7578,57,913.7578,67,917.7578,63,913.7578" style="stroke:#181818;stroke-width:1.0;"/><line style="stroke:#181818;stroke-width:1.0;" x1="61" x2="670" y1="913.7578" y2="913.7578"/><text fill="#000000" font-family="sans-serif" font-size="20" font-weight="bold" lengthAdjust="spacing" textLength="26" x="73" y="907.5391">21</text><text fill="#000000" font-family="sans-serif" font-size="20" lengthAdjust="spacing" textLength="305" x="103" y="907.5391">ask to accept or reject the order</text><path d="M10,928.7578 L82,928.7578 L82,944.3125 L72,954.3125 L10,954.3125 L10,928.7578 " fill="#EEEEEE" style="stroke:#000000;stroke-width:1.5;"/><rect fill="none" height="855.7578" style="stroke:#000000;stroke-width:1.5;" width="2432.5" x="10" y="928.7578"/><text fill="#000000" font-family="sans-serif" font-size="20" font-weight="bold" lengthAdjust="spacing" textLength="27" x="25" y="949.0938">alt</text><text fill="#000000" font-family="sans-serif" font-size="20" font-weight="bold" lengthAdjust="spacing" textLength="184" x="97" y="950.0938">[accept the order]</text><polygon fill="#181818" points="654,988.4219,664,992.4219,654,996.4219,658,992.4219" style="stroke:#181818;stroke-width:1.0;"/><line style="stroke:#181818;stroke-width:1.0;" x1="56" x2="660" y1="992.4219" y2="992.4219"/><text fill="#000000" font-family="sans-serif" font-size="20" font-weight="bold" lengthAdjust="spacing" textLength="26" x="63" y="986.2031">22</text><text fill="#000000" font-family="sans-serif" font-size="20" lengthAdjust="spacing" textLength="124" x="93" y="986.2031">Select accept</text><polygon fill="#181818" points="1205,1025.9766,1215,1029.9766,1205,1033.9766,1209,1029.9766" style="stroke:#181818;stroke-width:1.0;"/><line style="stroke:#181818;stroke-width:1.0;" x1="676" x2="1211" y1="1029.9766" y2="1029.9766"/><text fill="#000000" font-family="sans-serif" font-size="20" font-weight="bold" lengthAdjust="spacing" textLength="26" x="683" y="1023.7578">23</text><text fill="#000000" font-family="sans-serif" font-size="20" lengthAdjust="spacing" textLength="376" x="713" y="1023.7578">acceptOrder(Orderid,Announcementid)</text><polygon fill="#181818" points="2065.5,1063.5313,2075.5,1067.5313,2065.5,1071.5313,2069.5,1067.5313" style="stroke:#181818;stroke-width:1.0;"/><line style="stroke:#181818;stroke-width:1.0;" x1="1227" x2="2071.5" y1="1067.5313" y2="1067.5313"/><text fill="#000000" font-family="sans-serif" font-size="20" font-weight="bold" lengthAdjust="spacing" textLength="26" x="1234" y="1061.3125">24</text><text fill="#000000" font-family="sans-serif" font-size="20" lengthAdjust="spacing" textLength="376" x="1264" y="1061.3125">acceptOrder(Orderid,Announcementid)</text><path d="M1983.5,1082.5313 L2074.5,1082.5313 L2074.5,1098.0859 L2064.5,1108.0859 L1983.5,1108.0859 L1983.5,1082.5313 " fill="#EEEEEE" style="stroke:#000000;stroke-width:1.5;"/><rect fill="none" height="76.1094" style="stroke:#000000;stroke-width:1.5;" width="449" x="1983.5" y="1082.5313"/><text fill="#000000" font-family="sans-serif" font-size="20" font-weight="bold" lengthAdjust="spacing" textLength="46" x="1998.5" y="1102.8672">loop</text><line style="stroke:#181818;stroke-width:1.0;stroke-dasharray:2.0,2.0;" x1="2087.5" x2="2129.5" y1="1137.6406" y2="1137.6406"/><line style="stroke:#181818;stroke-width:1.0;stroke-dasharray:2.0,2.0;" x1="2129.5" x2="2129.5" y1="1137.6406" y2="1150.6406"/><line style="stroke:#181818;stroke-width:1.0;stroke-dasharray:2.0,2.0;" x1="2088.5" x2="2129.5" y1="1150.6406" y2="1150.6406"/><polygon fill="#181818" points="2098.5,1146.6406,2088.5,1150.6406,2098.5,1154.6406,2094.5,1150.6406" style="stroke:#181818;stroke-width:1.0;"/><text fill="#000000" font-family="sans-serif" font-size="20" font-weight="bold" lengthAdjust="spacing" textLength="26" x="2094.5" y="1131.4219">25</text><text fill="#000000" font-family="sans-serif" font-size="20" lengthAdjust="spacing" textLength="296" x="2124.5" y="1131.4219">change orderState (ACCEPTED)</text><polygon fill="#181818" points="1238,1191.1953,1228,1195.1953,1238,1199.1953,1234,1195.1953" style="stroke:#181818;stroke-width:1.0;"/><line style="stroke:#181818;stroke-width:1.0;stroke-dasharray:2.0,2.0;" x1="1232" x2="2081.5" y1="1195.1953" y2="1195.1953"/><text fill="#000000" font-family="sans-serif" font-size="20" font-weight="bold" lengthAdjust="spacing" textLength="26" x="1244" y="1188.9766">26</text><text fill="#000000" font-family="sans-serif" font-size="20" lengthAdjust="spacing" textLength="145" x="1274" y="1188.9766">OrderAccepted</text><polygon fill="#181818" points="2065.5,1228.75,2075.5,1232.75,2065.5,1236.75,2069.5,1232.75" style="stroke:#181818;stroke-width:1.0;"/><line style="stroke:#181818;stroke-width:1.0;" x1="1227" x2="2071.5" y1="1232.75" y2="1232.75"/><text fill="#000000" font-family="sans-serif" font-size="20" font-weight="bold" lengthAdjust="spacing" textLength="26" x="1234" y="1226.5313">27</text><text fill="#000000" font-family="sans-serif" font-size="20" lengthAdjust="spacing" textLength="312" x="1264" y="1226.5313">rejectAllOrder(Announcementid)</text><path d="M1983.5,1247.75 L2074.5,1247.75 L2074.5,1263.3047 L2064.5,1273.3047 L1983.5,1273.3047 L1983.5,1247.75 " fill="#EEEEEE" style="stroke:#000000;stroke-width:1.5;"/><rect fill="none" height="76.1094" style="stroke:#000000;stroke-width:1.5;" width="440" x="1983.5" y="1247.75"/><text fill="#000000" font-family="sans-serif" font-size="20" font-weight="bold" lengthAdjust="spacing" textLength="46" x="1998.5" y="1268.0859">loop</text><line style="stroke:#181818;stroke-width:1.0;stroke-dasharray:2.0,2.0;" x1="2087.5" x2="2129.5" y1="1302.8594" y2="1302.8594"/><line style="stroke:#181818;stroke-width:1.0;stroke-dasharray:2.0,2.0;" x1="2129.5" x2="2129.5" y1="1302.8594" y2="1315.8594"/><line style="stroke:#181818;stroke-width:1.0;stroke-dasharray:2.0,2.0;" x1="2088.5" x2="2129.5" y1="1315.8594" y2="1315.8594"/><polygon fill="#181818" points="2098.5,1311.8594,2088.5,1315.8594,2098.5,1319.8594,2094.5,1315.8594" style="stroke:#181818;stroke-width:1.0;"/><text fill="#000000" font-family="sans-serif" font-size="20" font-weight="bold" lengthAdjust="spacing" textLength="26" x="2094.5" y="1296.6406">28</text><text fill="#000000" font-family="sans-serif" font-size="20" lengthAdjust="spacing" textLength="287" x="2124.5" y="1296.6406">change orderState (REJECTED)</text><polygon fill="#181818" points="1238,1356.4141,1228,1360.4141,1238,1364.4141,1234,1360.4141" style="stroke:#181818;stroke-width:1.0;"/><line style="stroke:#181818;stroke-width:1.0;stroke-dasharray:2.0,2.0;" x1="1232" x2="2081.5" y1="1360.4141" y2="1360.4141"/><text fill="#000000" font-family="sans-serif" font-size="20" font-weight="bold" lengthAdjust="spacing" textLength="26" x="1244" y="1354.1953">29</text><text fill="#000000" font-family="sans-serif" font-size="20" lengthAdjust="spacing" textLength="164" x="1274" y="1354.1953">AllOrderRejected</text><polygon fill="#181818" points="687,1393.9688,677,1397.9688,687,1401.9688,683,1397.9688" style="stroke:#181818;stroke-width:1.0;"/><line style="stroke:#181818;stroke-width:1.0;" x1="681" x2="1221" y1="1397.9688" y2="1397.9688"/><text fill="#000000" font-family="sans-serif" font-size="20" font-weight="bold" lengthAdjust="spacing" textLength="26" x="693" y="1391.75">30</text><text fill="#000000" font-family="sans-serif" font-size="20" lengthAdjust="spacing" textLength="427" x="723" y="1391.75">OrderAccepted and All OtherOrdersRejected</text><polygon fill="#181818" points="67,1431.5234,57,1435.5234,67,1439.5234,63,1435.5234" style="stroke:#181818;stroke-width:1.0;"/><line style="stroke:#181818;stroke-width:1.0;stroke-dasharray:2.0,2.0;" x1="61" x2="670" y1="1435.5234" y2="1435.5234"/><text fill="#000000" font-family="sans-serif" font-size="20" font-weight="bold" lengthAdjust="spacing" textLength="26" x="73" y="1429.3047">31</text><text fill="#000000" font-family="sans-serif" font-size="20" lengthAdjust="spacing" textLength="256" x="103" y="1429.3047">displays operation success</text><line style="stroke:#000000;stroke-width:1.0;stroke-dasharray:2.0,2.0;" x1="10" x2="2442.5" y1="1444.5234" y2="1444.5234"/><text fill="#000000" font-family="sans-serif" font-size="20" font-weight="bold" lengthAdjust="spacing" textLength="176" x="15" y="1463.8594">[reject the order]</text><polygon fill="#181818" points="654,1494.6328,664,1498.6328,654,1502.6328,658,1498.6328" style="stroke:#181818;stroke-width:1.0;"/><line style="stroke:#181818;stroke-width:1.0;" x1="56" x2="660" y1="1498.6328" y2="1498.6328"/><text fill="#000000" font-family="sans-serif" font-size="20" font-weight="bold" lengthAdjust="spacing" textLength="26" x="63" y="1492.4141">32</text><text fill="#000000" font-family="sans-serif" font-size="20" lengthAdjust="spacing" textLength="115" x="93" y="1492.4141">Select reject</text><polygon fill="#181818" points="1205,1532.1875,1215,1536.1875,1205,1540.1875,1209,1536.1875" style="stroke:#181818;stroke-width:1.0;"/><line style="stroke:#181818;stroke-width:1.0;" x1="676" x2="1211" y1="1536.1875" y2="1536.1875"/><text fill="#000000" font-family="sans-serif" font-size="20" font-weight="bold" lengthAdjust="spacing" textLength="26" x="683" y="1529.9688">33</text><text fill="#000000" font-family="sans-serif" font-size="20" lengthAdjust="spacing" textLength="367" x="713" y="1529.9688">rejectOrder(Orderid,Announcementid)</text><polygon fill="#181818" points="2065.5,1569.7422,2075.5,1573.7422,2065.5,1577.7422,2069.5,1573.7422" style="stroke:#181818;stroke-width:1.0;"/><line style="stroke:#181818;stroke-width:1.0;" x1="1227" x2="2071.5" y1="1573.7422" y2="1573.7422"/><text fill="#000000" font-family="sans-serif" font-size="20" font-weight="bold" lengthAdjust="spacing" textLength="26" x="1234" y="1567.5234">34</text><text fill="#000000" font-family="sans-serif" font-size="20" lengthAdjust="spacing" textLength="367" x="1264" y="1567.5234">rejectOrder(Orderid,Announcementid)</text><path d="M1983.5,1588.7422 L2074.5,1588.7422 L2074.5,1604.2969 L2064.5,1614.2969 L1983.5,1614.2969 L1983.5,1588.7422 " fill="#EEEEEE" style="stroke:#000000;stroke-width:1.5;"/><rect fill="none" height="76.1094" style="stroke:#000000;stroke-width:1.5;" width="440" x="1983.5" y="1588.7422"/><text fill="#000000" font-family="sans-serif" font-size="20" font-weight="bold" lengthAdjust="spacing" textLength="46" x="1998.5" y="1609.0781">loop</text><line style="stroke:#181818;stroke-width:1.0;stroke-dasharray:2.0,2.0;" x1="2087.5" x2="2129.5" y1="1643.8516" y2="1643.8516"/><line style="stroke:#181818;stroke-width:1.0;stroke-dasharray:2.0,2.0;" x1="2129.5" x2="2129.5" y1="1643.8516" y2="1656.8516"/><line style="stroke:#181818;stroke-width:1.0;stroke-dasharray:2.0,2.0;" x1="2088.5" x2="2129.5" y1="1656.8516" y2="1656.8516"/><polygon fill="#181818" points="2098.5,1652.8516,2088.5,1656.8516,2098.5,1660.8516,2094.5,1656.8516" style="stroke:#181818;stroke-width:1.0;"/><text fill="#000000" font-family="sans-serif" font-size="20" font-weight="bold" lengthAdjust="spacing" textLength="26" x="2094.5" y="1637.6328">35</text><text fill="#000000" font-family="sans-serif" font-size="20" lengthAdjust="spacing" textLength="287" x="2124.5" y="1637.6328">change orderState (REJECTED)</text><polygon fill="#181818" points="1238,1697.4063,1228,1701.4063,1238,1705.4063,1234,1701.4063" style="stroke:#181818;stroke-width:1.0;"/><line style="stroke:#181818;stroke-width:1.0;stroke-dasharray:2.0,2.0;" x1="1232" x2="2081.5" y1="1701.4063" y2="1701.4063"/><text fill="#000000" font-family="sans-serif" font-size="20" font-weight="bold" lengthAdjust="spacing" textLength="26" x="1244" y="1695.1875">36</text><text fill="#000000" font-family="sans-serif" font-size="20" lengthAdjust="spacing" textLength="134" x="1274" y="1695.1875">orderRejected</text><polygon fill="#181818" points="687,1734.9609,677,1738.9609,687,1742.9609,683,1738.9609" style="stroke:#181818;stroke-width:1.0;"/><line style="stroke:#181818;stroke-width:1.0;" x1="681" x2="1221" y1="1738.9609" y2="1738.9609"/><text fill="#000000" font-family="sans-serif" font-size="20" font-weight="bold" lengthAdjust="spacing" textLength="26" x="693" y="1732.7422">37</text><text fill="#000000" font-family="sans-serif" font-size="20" lengthAdjust="spacing" textLength="138" x="723" y="1732.7422">OrderRejected</text><polygon fill="#181818" points="67,1772.5156,57,1776.5156,67,1780.5156,63,1776.5156" style="stroke:#181818;stroke-width:1.0;"/><line style="stroke:#181818;stroke-width:1.0;stroke-dasharray:2.0,2.0;" x1="61" x2="670" y1="1776.5156" y2="1776.5156"/><text fill="#000000" font-family="sans-serif" font-size="20" font-weight="bold" lengthAdjust="spacing" textLength="26" x="73" y="1770.2969">38</text><text fill="#000000" font-family="sans-serif" font-size="20" lengthAdjust="spacing" textLength="256" x="103" y="1770.2969">displays operation success</text><!--SRC=[xLTBRziu4BxpLmnoMQTO5utxG5U7eexZ5l4wMyDskfTS68cnsT2aG5BfUd_zZYWfebvfLGJOYtJmWvpvE8zlHXnppsLCDJq85Twp229sHnDXFobfD_nV1fDNn1GYS51IXNkj3WoiJfYt4zFmdkxOnXu50yr2I-LE-09cJoFrdSiTt55X624qiKecXrkc2VbjpoC6TqhPM_KFeQ5L6awcEoRj2L03qy_plxO4SImFUKobXPDWfLNCj3r-qH7JLrJYuGUKlxvq6jUNFoS-GpUr4e9ffpRRhfSrnJMBbU5e46V6oJmk73SyzH6zgAfeJ-D6DW5MosdDcQcKAf6XiwY43sva-qOMazQjAgvpjW9OMt58jJL2qWJm1sfP7dZYlc3y0SCA0QhSWrKWkB50FIiC_el0xXce5D6aGZGCMMnn0Jdn3LbHGcE640qnqvY_U86ueMQuuQtYsexPgH2-hsQZj6NH-J7ECpewBK5T_eZJHOoMJ6MGbz8WFqFcgxQbbRGXZ7Fh0l0JJIBsD1GKLgNfpprhJQ5lbACASHhbiPsQlWsPPdOcQhOhz0zmny6awu1nhrJw3dITbAAD2ohsmqGpCt8vFWTmmKqiw35Zihe3AaIDqCQ1mUqH2ZYuaIdBynemJ22fGKb6e79EjM8scHYL5NW2VZ4qUE_AqYpHjlEZx-5bDFB_ygZ1_nQgPM3zI5Rl2nti-b1l8BzkVgCJrP4zEfNulc4DX0fTMdMAoEUasEpLzqT6v8siFUC-H5U-7G1foNEcyDXCwtsoRAELOwYmXMWfG02VTWESgDklc90kLEYM2RhmZDmdZtwlPwc2aXCDdsuIz0Pj92_T5Kh5xaTj5vDQVxr1kCTRHnwMZKqXHzFPRBxQpY-oevYCsh0Ql9ewqrac_1Izdev0baliK5aGUZd_3BwlvulvhEBxZvmlJ5qxmtlwNvPO4JvNE8W9Nv2jkkX1hT0bARtYYB86RI3jlTHoVFkQ1B6DQMWpl5CsQwUxDFBho8zB8nDyvjBe3TeM-88Tpq2Ed-66UWPYT2M_N-uzHMVuumFUyn6taeCWvGZoVmuumqWpZ3J3I3ECDCD8CumqmqWpZ3J3I3ECDCD8CumqlpRIh0JUXQ-lbl20x4jXpbvENarUlpmRRH892spIap_WR1AyVH-yVGT_pxUGRf-IqUVL4Yy0YGvPQepL_3P9pJWb2_f0OPrWcWuC7OkPN5pyMIp0N3vmhQHxmo- -NfK2xzwCpxb50cgq1BvUaOjik4ADK4LuKmpWUljf_9uiCLa93YW1OFEU8IbiciFLzZy0]--></g></svg>