<?xml version="1.0" encoding="UTF-8" standalone="no"?><svg xmlns="http://www.w3.org/2000/svg" xmlns:xlink="http://www.w3.org/1999/xlink" contentStyleType="text/css" height="2027px" preserveAspectRatio="none" style="width:2454px;height:2027px;background:#FFFFFF;" version="1.1" viewBox="0 0 2454 2027" width="2454px" zoomAndPan="magnify"><defs/><g><rect fill="#FFFFFF" height="1832.2891" style="stroke:#181818;stroke-width:1.0;" width="10" x="46" y="98.5547"/><rect fill="#FFFFFF" height="410.1016" style="stroke:#181818;stroke-width:1.0;" width="10" x="666" y="128.1094"/><rect fill="#FFFFFF" height="262.8828" style="stroke:#181818;stroke-width:1.0;" width="10" x="666" y="575.7656"/><rect fill="#FFFFFF" height="37.5547" style="stroke:#181818;stroke-width:1.0;" width="10" x="666" y="876.2031"/><rect fill="#FFFFFF" height="535.3203" style="stroke:#181818;stroke-width:1.0;" width="10" x="666" y="992.4219"/><rect fill="#FFFFFF" height="323.9922" style="stroke:#181818;stroke-width:1.0;" width="10" x="666" y="1590.8516"/><rect fill="#FFFFFF" height="262.8828" style="stroke:#181818;stroke-width:1.0;" width="10" x="1217" y="214.2188"/><rect fill="#FFFFFF" height="187.7734" style="stroke:#181818;stroke-width:1.0;" width="10" x="1217" y="613.3203"/><rect fill="#FFFFFF" height="460.2109" style="stroke:#181818;stroke-width:1.0;" width="10" x="1217" y="1029.9766"/><rect fill="#FFFFFF" height="248.8828" style="stroke:#181818;stroke-width:1.0;" width="10" x="1217" y="1628.4063"/><rect fill="#FFFFFF" height="37.5547" style="stroke:#181818;stroke-width:1.0;" width="10" x="1484" y="251.7734"/><rect fill="#FFFFFF" height="37.5547" style="stroke:#181818;stroke-width:1.0;" width="10" x="1633" y="326.8828"/><rect fill="#FFFFFF" height="37.5547" style="stroke:#181818;stroke-width:1.0;" width="10" x="1633" y="650.875"/><rect fill="#FFFFFF" height="37.5547" style="stroke:#181818;stroke-width:1.0;" width="10" x="1845.5" y="401.9922"/><rect fill="#FFFFFF" height="37.5547" style="stroke:#181818;stroke-width:1.0;" width="10" x="2077.5" y="725.9844"/><rect fill="#FFFFFF" height="173.7734" style="stroke:#181818;stroke-width:1.0;" width="10" x="2077.5" y="1067.5313"/><rect fill="#FFFFFF" height="43.5547" style="stroke:#181818;stroke-width:1.0;" width="10" x="2082.5" y="1146.1953"/><rect fill="#FFFFFF" height="173.7734" style="stroke:#181818;stroke-width:1.0;" width="10" x="2077.5" y="1278.8594"/><rect fill="#FFFFFF" height="43.5547" style="stroke:#181818;stroke-width:1.0;" width="10" x="2082.5" y="1357.5234"/><rect fill="#FFFFFF" height="173.7734" style="stroke:#181818;stroke-width:1.0;" width="10" x="2077.5" y="1665.9609"/><rect fill="#FFFFFF" height="43.5547" style="stroke:#181818;stroke-width:1.0;" width="10" x="2082.5" y="1744.625"/><rect fill="none" height="994.0859" style="stroke:#000000;stroke-width:1.5;" width="2437.5" x="10" y="928.7578"/><rect fill="none" height="122.2188" style="stroke:#000000;stroke-width:1.5;" width="1413" x="1024.5" y="1082.5313"/><rect fill="none" height="122.2188" style="stroke:#000000;stroke-width:1.5;" width="1404" x="1024.5" y="1293.8594"/><rect fill="none" height="122.2188" style="stroke:#000000;stroke-width:1.5;" width="1404" x="1024.5" y="1680.9609"/><line style="stroke:#181818;stroke-width:0.5;stroke-dasharray:5.0,5.0;" x1="51" x2="51" y1="88.5547" y2="1939.8438"/><line style="stroke:#181818;stroke-width:0.5;stroke-dasharray:5.0,5.0;" x1="670.5" x2="670.5" y1="88.5547" y2="1939.8438"/><line style="stroke:#181818;stroke-width:0.5;stroke-dasharray:5.0,5.0;" x1="1221.5" x2="1221.5" y1="170.3867" y2="1939.8438"/><line style="stroke:#181818;stroke-width:0.5;stroke-dasharray:5.0,5.0;" x1="1488.5" x2="1488.5" y1="88.5547" y2="1939.8438"/><line style="stroke:#181818;stroke-width:0.5;stroke-dasharray:5.0,5.0;" x1="1637.5" x2="1637.5" y1="88.5547" y2="1939.8438"/><line style="stroke:#181818;stroke-width:0.5;stroke-dasharray:5.0,5.0;" x1="1850.5" x2="1850.5" y1="88.5547" y2="1939.8438"/><line style="stroke:#181818;stroke-width:0.5;stroke-dasharray:5.0,5.0;" x1="2082.5" x2="2082.5" y1="88.5547" y2="1939.8438"/><text fill="#000000" font-family="sans-serif" font-size="20" lengthAdjust="spacing" textLength="56" x="20" y="84.3359">Agent</text><ellipse cx="51" cy="13.5" fill="#E3E3E3" rx="8" ry="8" style="stroke:#181818;stroke-width:0.5;"/><path d="M51,21.5 L51,48.5 M38,29.5 L64,29.5 M51,48.5 L38,63.5 M51,48.5 L64,63.5 " fill="none" style="stroke:#181818;stroke-width:0.5;"/><text fill="#000000" font-family="sans-serif" font-size="20" lengthAdjust="spacing" textLength="56" x="20" y="1958.1797">Agent</text><ellipse cx="51" cy="1970.8984" fill="#E3E3E3" rx="8" ry="8" style="stroke:#181818;stroke-width:0.5;"/><path d="M51,1978.8984 L51,2005.8984 M38,1986.8984 L64,1986.8984 M51,2005.8984 L38,2020.8984 M51,2005.8984 L64,2020.8984 " fill="none" style="stroke:#181818;stroke-width:0.5;"/><rect fill="#E3E3E3" height="37.5547" rx="2.5" ry="2.5" style="stroke:#181818;stroke-width:0.5;" width="299" x="521.5" y="50"/><text fill="#000000" font-family="sans-serif" font-size="20" lengthAdjust="spacing" textLength="285" x="528.5" y="76.3359">:PropertyOrderManagementUI</text><rect fill="#E3E3E3" height="37.5547" rx="2.5" ry="2.5" style="stroke:#181818;stroke-width:0.5;" width="299" x="521.5" y="1938.8438"/><text fill="#000000" font-family="sans-serif" font-size="20" lengthAdjust="spacing" textLength="285" x="528.5" y="1965.1797">:PropertyOrderManagementUI</text><rect fill="#E3E3E3" height="37.5547" rx="2.5" ry="2.5" style="stroke:#181818;stroke-width:0.5;" width="375" x="1034.5" y="1938.8438"/><text fill="#000000" font-family="sans-serif" font-size="20" lengthAdjust="spacing" textLength="361" x="1041.5" y="1965.1797">:PropertyOrderManagementController</text><rect fill="#E3E3E3" height="37.5547" rx="2.5" ry="2.5" style="stroke:#181818;stroke-width:0.5;" width="139" x="1419.5" y="50"/><text fill="#000000" font-family="sans-serif" font-size="20" lengthAdjust="spacing" textLength="125" x="1426.5" y="76.3359">:Repositories</text><rect fill="#E3E3E3" height="37.5547" rx="2.5" ry="2.5" style="stroke:#181818;stroke-width:0.5;" width="139" x="1419.5" y="1938.8438"/><text fill="#000000" font-family="sans-serif" font-size="20" lengthAdjust="spacing" textLength="125" x="1426.5" y="1965.1797">:Repositories</text><rect fill="#E3E3E3" height="61.1094" rx="2.5" ry="2.5" style="stroke:#181818;stroke-width:0.5;" width="139" x="1568.5" y="26.4453"/><text fill="#000000" font-family="sans-serif" font-size="20" lengthAdjust="spacing" textLength="114" x="1581" y="52.7813">repositories</text><text fill="#000000" font-family="sans-serif" font-size="20" lengthAdjust="spacing" textLength="125" x="1575.5" y="76.3359">:Repositories</text><rect fill="#E3E3E3" height="61.1094" rx="2.5" ry="2.5" style="stroke:#181818;stroke-width:0.5;" width="139" x="1568.5" y="1938.8438"/><text fill="#000000" font-family="sans-serif" font-size="20" lengthAdjust="spacing" textLength="114" x="1581" y="1965.1797">repositories</text><text fill="#000000" font-family="sans-serif" font-size="20" lengthAdjust="spacing" textLength="125" x="1575.5" y="1988.7344">:Repositories</text><rect fill="#E3E3E3" height="61.1094" rx="2.5" ry="2.5" style="stroke:#181818;stroke-width:0.5;" width="266" x="1717.5" y="26.4453"/><text fill="#000000" font-family="sans-serif" font-size="20" lengthAdjust="spacing" textLength="252" x="1724.5" y="52.7813">AnnouncementRepository:</text><text fill="#000000" font-family="sans-serif" font-size="20" lengthAdjust="spacing" textLength="246" x="1727.5" y="76.3359">AnnouncementRepository</text><rect fill="#E3E3E3" height="61.1094" rx="2.5" ry="2.5" style="stroke:#181818;stroke-width:0.5;" width="266" x="1717.5" y="1938.8438"/><text fill="#000000" font-family="sans-serif" font-size="20" lengthAdjust="spacing" textLength="252" x="1724.5" y="1965.1797">AnnouncementRepository:</text><text fill="#000000" font-family="sans-serif" font-size="20" lengthAdjust="spacing" textLength="246" x="1727.5" y="1988.7344">AnnouncementRepository</text><rect fill="#E3E3E3" height="61.1094" rx="2.5" ry="2.5" style="stroke:#181818;stroke-width:0.5;" width="178" x="1993.5" y="26.4453"/><text fill="#000000" font-family="sans-serif" font-size="20" lengthAdjust="spacing" textLength="164" x="2000.5" y="52.7813">OrderRepository:</text><text fill="#000000" font-family="sans-serif" font-size="20" lengthAdjust="spacing" textLength="158" x="2003.5" y="76.3359">OrderRepository</text><rect fill="#E3E3E3" height="61.1094" rx="2.5" ry="2.5" style="stroke:#181818;stroke-width:0.5;" width="178" x="1993.5" y="1938.8438"/><text fill="#000000" font-family="sans-serif" font-size="20" lengthAdjust="spacing" textLength="164" x="2000.5" y="1965.1797">OrderRepository:</text><text fill="#000000" font-family="sans-serif" font-size="20" lengthAdjust="spacing" textLength="158" x="2003.5" y="1988.7344">OrderRepository</text><rect fill="#FFFFFF" height="1832.2891" style="stroke:#181818;stroke-width:1.0;" width="10" x="46" y="98.5547"/><rect fill="#FFFFFF" height="410.1016" style="stroke:#181818;stroke-width:1.0;" width="10" x="666" y="128.1094"/><rect fill="#FFFFFF" height="262.8828" style="stroke:#181818;stroke-width:1.0;" width="10" x="666" y="575.7656"/><rect fill="#FFFFFF" height="37.5547" style="stroke:#181818;stroke-width:1.0;" width="10" x="666" y="876.2031"/><rect fill="#FFFFFF" height="535.3203" style="stroke:#181818;stroke-width:1.0;" width="10" x="666" y="992.4219"/><rect fill="#FFFFFF" height="323.9922" style="stroke:#181818;stroke-width:1.0;" width="10" x="666" y="1590.8516"/><rect fill="#FFFFFF" height="262.8828" style="stroke:#181818;stroke-width:1.0;" width="10" x="1217" y="214.2188"/><rect fill="#FFFFFF" height="187.7734" style="stroke:#181818;stroke-width:1.0;" width="10" x="1217" y="613.3203"/><rect fill="#FFFFFF" height="460.2109" style="stroke:#181818;stroke-width:1.0;" width="10" x="1217" y="1029.9766"/><rect fill="#FFFFFF" height="248.8828" style="stroke:#181818;stroke-width:1.0;" width="10" x="1217" y="1628.4063"/><rect fill="#FFFFFF" height="37.5547" style="stroke:#181818;stroke-width:1.0;" width="10" x="1484" y="251.7734"/><rect fill="#FFFFFF" height="37.5547" style="stroke:#181818;stroke-width:1.0;" width="10" x="1633" y="326.8828"/><rect fill="#FFFFFF" height="37.5547" style="stroke:#181818;stroke-width:1.0;" width="10" x="1633" y="650.875"/><rect fill="#FFFFFF" height="37.5547" style="stroke:#181818;stroke-width:1.0;" width="10" x="1845.5" y="401.9922"/><rect fill="#FFFFFF" height="37.5547" style="stroke:#181818;stroke-width:1.0;" width="10" x="2077.5" y="725.9844"/><rect fill="#FFFFFF" height="173.7734" style="stroke:#181818;stroke-width:1.0;" width="10" x="2077.5" y="1067.5313"/><rect fill="#FFFFFF" height="43.5547" style="stroke:#181818;stroke-width:1.0;" width="10" x="2082.5" y="1146.1953"/><rect fill="#FFFFFF" height="173.7734" style="stroke:#181818;stroke-width:1.0;" width="10" x="2077.5" y="1278.8594"/><rect fill="#FFFFFF" height="43.5547" style="stroke:#181818;stroke-width:1.0;" width="10" x="2082.5" y="1357.5234"/><rect fill="#FFFFFF" height="173.7734" style="stroke:#181818;stroke-width:1.0;" width="10" x="2077.5" y="1665.9609"/><rect fill="#FFFFFF" height="43.5547" style="stroke:#181818;stroke-width:1.0;" width="10" x="2082.5" y="1744.625"/><polygon fill="#181818" points="654,124.1094,664,128.1094,654,132.1094,658,128.1094" style="stroke:#181818;stroke-width:1.0;"/><line style="stroke:#181818;stroke-width:1.0;" x1="56" x2="660" y1="128.1094" y2="128.1094"/><text fill="#000000" font-family="sans-serif" font-size="20" font-weight="bold" lengthAdjust="spacing" textLength="13" x="63" y="121.8906">1</text><text fill="#000000" font-family="sans-serif" font-size="20" lengthAdjust="spacing" textLength="574" x="80" y="121.8906">ask to list announcements and the orders to accept or reject</text><polygon fill="#181818" points="1022.5,161.6641,1032.5,165.6641,1022.5,169.6641,1026.5,165.6641" style="stroke:#181818;stroke-width:1.0;"/><line style="stroke:#181818;stroke-width:1.0;" x1="676" x2="1028.5" y1="165.6641" y2="165.6641"/><text fill="#000000" font-family="sans-serif" font-size="20" font-weight="bold" lengthAdjust="spacing" textLength="13" x="683" y="159.4453">2</text><text fill="#000000" font-family="sans-serif" font-size="20" lengthAdjust="spacing" textLength="58" x="700" y="159.4453">create</text><rect fill="#E3E3E3" height="37.5547" rx="2.5" ry="2.5" style="stroke:#181818;stroke-width:0.5;" width="375" x="1034.5" y="136.1094"/><text fill="#000000" font-family="sans-serif" font-size="20" lengthAdjust="spacing" textLength="361" x="1041.5" y="162.4453">:PropertyOrderManagementController</text><polygon fill="#181818" points="1205,210.2188,1215,214.2188,1205,218.2188,1209,214.2188" style="stroke:#181818;stroke-width:1.0;"/><line style="stroke:#181818;stroke-width:1.0;" x1="676" x2="1211" y1="214.2188" y2="214.2188"/><text fill="#000000" font-family="sans-serif" font-size="20" font-weight="bold" lengthAdjust="spacing" textLength="13" x="683" y="208">3</text><text fill="#000000" font-family="sans-serif" font-size="20" lengthAdjust="spacing" textLength="390" x="700" y="208">getAllAnnouncementsSortedByproperty()</text><polygon fill="#181818" points="1472,247.7734,1482,251.7734,1472,255.7734,1476,251.7734" style="stroke:#181818;stroke-width:1.0;"/><line style="stroke:#181818;stroke-width:1.0;" x1="1227" x2="1478" y1="251.7734" y2="251.7734"/><text fill="#000000" font-family="sans-serif" font-size="20" font-weight="bold" lengthAdjust="spacing" textLength="13" x="1234" y="245.5547">4</text><text fill="#000000" font-family="sans-serif" font-size="20" lengthAdjust="spacing" textLength="123" x="1251" y="245.5547">getInstance()</text><polygon fill="#181818" points="1238,285.3281,1228,289.3281,1238,293.3281,1234,289.3281" style="stroke:#181818;stroke-width:1.0;"/><line style="stroke:#181818;stroke-width:1.0;stroke-dasharray:2.0,2.0;" x1="1232" x2="1488" y1="289.3281" y2="289.3281"/><text fill="#000000" font-family="sans-serif" font-size="20" font-weight="bold" lengthAdjust="spacing" textLength="13" x="1244" y="283.1094">5</text><text fill="#000000" font-family="sans-serif" font-size="20" lengthAdjust="spacing" textLength="114" x="1261" y="283.1094">repositories</text><polygon fill="#181818" points="1621,322.8828,1631,326.8828,1621,330.8828,1625,326.8828" style="stroke:#181818;stroke-width:1.0;"/><line style="stroke:#181818;stroke-width:1.0;" x1="1227" x2="1627" y1="326.8828" y2="326.8828"/><text fill="#000000" font-family="sans-serif" font-size="20" font-weight="bold" lengthAdjust="spacing" textLength="13" x="1234" y="320.6641">6</text><text fill="#000000" font-family="sans-serif" font-size="20" lengthAdjust="spacing" textLength="290" x="1251" y="320.6641">getAnnouncementRepository()</text><polygon fill="#181818" points="1238,360.4375,1228,364.4375,1238,368.4375,1234,364.4375" style="stroke:#181818;stroke-width:1.0;"/><line style="stroke:#181818;stroke-width:1.0;stroke-dasharray:2.0,2.0;" x1="1232" x2="1637" y1="364.4375" y2="364.4375"/><text fill="#000000" font-family="sans-serif" font-size="20" font-weight="bold" lengthAdjust="spacing" textLength="13" x="1244" y="358.2188">7</text><text fill="#000000" font-family="sans-serif" font-size="20" lengthAdjust="spacing" textLength="276" x="1261" y="358.2188">getAnnouncementRepository</text><polygon fill="#181818" points="1833.5,397.9922,1843.5,401.9922,1833.5,405.9922,1837.5,401.9922" style="stroke:#181818;stroke-width:1.0;"/><line style="stroke:#181818;stroke-width:1.0;stroke-dasharray:2.0,2.0;" x1="1227" x2="1839.5" y1="401.9922" y2="401.9922"/><text fill="#000000" font-family="sans-serif" font-size="20" font-weight="bold" lengthAdjust="spacing" textLength="13" x="1234" y="395.7734">8</text><text fill="#000000" font-family="sans-serif" font-size="20" lengthAdjust="spacing" textLength="390" x="1251" y="395.7734">getAllAnnouncementsSortedByproperty()</text><polygon fill="#181818" points="1238,435.5469,1228,439.5469,1238,443.5469,1234,439.5469" style="stroke:#181818;stroke-width:1.0;"/><line style="stroke:#181818;stroke-width:1.0;stroke-dasharray:2.0,2.0;" x1="1232" x2="1849.5" y1="439.5469" y2="439.5469"/><text fill="#000000" font-family="sans-serif" font-size="20" font-weight="bold" lengthAdjust="spacing" textLength="13" x="1244" y="433.3281">9</text><text fill="#000000" font-family="sans-serif" font-size="20" lengthAdjust="spacing" textLength="376" x="1261" y="433.3281">getAllAnnouncementsSortedByproperty</text><polygon fill="#181818" points="687,473.1016,677,477.1016,687,481.1016,683,477.1016" style="stroke:#181818;stroke-width:1.0;"/><line style="stroke:#181818;stroke-width:1.0;stroke-dasharray:2.0,2.0;" x1="681" x2="1221" y1="477.1016" y2="477.1016"/><text fill="#000000" font-family="sans-serif" font-size="20" font-weight="bold" lengthAdjust="spacing" textLength="26" x="693" y="470.8828">10</text><text fill="#000000" font-family="sans-serif" font-size="20" lengthAdjust="spacing" textLength="376" x="723" y="470.8828">getAllAnnouncementsSortedByproperty</text><polygon fill="#181818" points="67,534.2109,57,538.2109,67,542.2109,63,538.2109" style="stroke:#181818;stroke-width:1.0;"/><line style="stroke:#181818;stroke-width:1.0;" x1="61" x2="670" y1="538.2109" y2="538.2109"/><text fill="#000000" font-family="sans-serif" font-size="20" font-weight="bold" lengthAdjust="spacing" textLength="26" x="73" y="520.2148">11</text><text fill="#000000" font-family="sans-serif" font-size="20" lengthAdjust="spacing" textLength="501" x="103" y="508.4375">Display list of all announcements sorted by property</text><text fill="#000000" font-family="sans-serif" font-size="20" lengthAdjust="spacing" textLength="202" x="103" y="531.9922">and ask to select one</text><polygon fill="#181818" points="654,571.7656,664,575.7656,654,579.7656,658,575.7656" style="stroke:#181818;stroke-width:1.0;"/><line style="stroke:#181818;stroke-width:1.0;" x1="56" x2="660" y1="575.7656" y2="575.7656"/><text fill="#000000" font-family="sans-serif" font-size="20" font-weight="bold" lengthAdjust="spacing" textLength="26" x="63" y="569.5469">12</text><text fill="#000000" font-family="sans-serif" font-size="20" lengthAdjust="spacing" textLength="232" x="93" y="569.5469">Select an announcement</text><polygon fill="#181818" points="1205,609.3203,1215,613.3203,1205,617.3203,1209,613.3203" style="stroke:#181818;stroke-width:1.0;"/><line style="stroke:#181818;stroke-width:1.0;" x1="676" x2="1211" y1="613.3203" y2="613.3203"/><text fill="#000000" font-family="sans-serif" font-size="20" font-weight="bold" lengthAdjust="spacing" textLength="26" x="683" y="607.1016">13</text><text fill="#000000" font-family="sans-serif" font-size="20" lengthAdjust="spacing" textLength="492" x="713" y="607.1016">getOrdersListByAnnouncementId(Announcementid)</text><polygon fill="#181818" points="1621,646.875,1631,650.875,1621,654.875,1625,650.875" style="stroke:#181818;stroke-width:1.0;"/><line style="stroke:#181818;stroke-width:1.0;" x1="1227" x2="1627" y1="650.875" y2="650.875"/><text fill="#000000" font-family="sans-serif" font-size="20" font-weight="bold" lengthAdjust="spacing" textLength="26" x="1234" y="644.6563">14</text><text fill="#000000" font-family="sans-serif" font-size="20" lengthAdjust="spacing" textLength="212" x="1264" y="644.6563">getOrdersRepository()</text><polygon fill="#181818" points="1238,684.4297,1228,688.4297,1238,692.4297,1234,688.4297" style="stroke:#181818;stroke-width:1.0;"/><line style="stroke:#181818;stroke-width:1.0;stroke-dasharray:2.0,2.0;" x1="1232" x2="1637" y1="688.4297" y2="688.4297"/><text fill="#000000" font-family="sans-serif" font-size="20" font-weight="bold" lengthAdjust="spacing" textLength="26" x="1244" y="682.2109">15</text><text fill="#000000" font-family="sans-serif" font-size="20" lengthAdjust="spacing" textLength="188" x="1274" y="682.2109">getOrderRepository</text><polygon fill="#181818" points="2065.5,721.9844,2075.5,725.9844,2065.5,729.9844,2069.5,725.9844" style="stroke:#181818;stroke-width:1.0;"/><line style="stroke:#181818;stroke-width:1.0;" x1="1227" x2="2071.5" y1="725.9844" y2="725.9844"/><text fill="#000000" font-family="sans-serif" font-size="20" font-weight="bold" lengthAdjust="spacing" textLength="26" x="1234" y="719.7656">16</text><text fill="#000000" font-family="sans-serif" font-size="20" lengthAdjust="spacing" textLength="492" x="1264" y="719.7656">getOrdersListByAnnouncementId(Announcementid)</text><polygon fill="#181818" points="1238,759.5391,1228,763.5391,1238,767.5391,1234,763.5391" style="stroke:#181818;stroke-width:1.0;"/><line style="stroke:#181818;stroke-width:1.0;stroke-dasharray:2.0,2.0;" x1="1232" x2="2081.5" y1="763.5391" y2="763.5391"/><text fill="#000000" font-family="sans-serif" font-size="20" font-weight="bold" lengthAdjust="spacing" textLength="26" x="1244" y="757.3203">17</text><text fill="#000000" font-family="sans-serif" font-size="20" lengthAdjust="spacing" textLength="100" x="1274" y="757.3203">OrdersList</text><polygon fill="#181818" points="687,797.0938,677,801.0938,687,805.0938,683,801.0938" style="stroke:#181818;stroke-width:1.0;"/><line style="stroke:#181818;stroke-width:1.0;stroke-dasharray:2.0,2.0;" x1="681" x2="1221" y1="801.0938" y2="801.0938"/><text fill="#000000" font-family="sans-serif" font-size="20" font-weight="bold" lengthAdjust="spacing" textLength="26" x="693" y="794.875">18</text><text fill="#000000" font-family="sans-serif" font-size="20" lengthAdjust="spacing" textLength="100" x="723" y="794.875">OrdersList</text><polygon fill="#181818" points="67,834.6484,57,838.6484,67,842.6484,63,838.6484" style="stroke:#181818;stroke-width:1.0;"/><line style="stroke:#181818;stroke-width:1.0;" x1="61" x2="670" y1="838.6484" y2="838.6484"/><text fill="#000000" font-family="sans-serif" font-size="20" font-weight="bold" lengthAdjust="spacing" textLength="26" x="73" y="832.4297">19</text><text fill="#000000" font-family="sans-serif" font-size="20" lengthAdjust="spacing" textLength="386" x="103" y="832.4297">Show list of orders and ask to select one</text><polygon fill="#181818" points="654,872.2031,664,876.2031,654,880.2031,658,876.2031" style="stroke:#181818;stroke-width:1.0;"/><line style="stroke:#181818;stroke-width:1.0;" x1="56" x2="660" y1="876.2031" y2="876.2031"/><text fill="#000000" font-family="sans-serif" font-size="20" font-weight="bold" lengthAdjust="spacing" textLength="26" x="63" y="869.9844">20</text><text fill="#000000" font-family="sans-serif" font-size="20" lengthAdjust="spacing" textLength="143" x="93" y="869.9844">Select an order</text><polygon fill="#181818" points="67,909.7578,57,913.7578,67,917.7578,63,913.7578" style="stroke:#181818;stroke-width:1.0;"/><line style="stroke:#181818;stroke-width:1.0;" x1="61" x2="670" y1="913.7578" y2="913.7578"/><text fill="#000000" font-family="sans-serif" font-size="20" font-weight="bold" lengthAdjust="spacing" textLength="26" x="73" y="907.5391">21</text><text fill="#000000" font-family="sans-serif" font-size="20" lengthAdjust="spacing" textLength="305" x="103" y="907.5391">ask to accept or reject the order</text><path d="M10,928.7578 L82,928.7578 L82,944.3125 L72,954.3125 L10,954.3125 L10,928.7578 " fill="#EEEEEE" style="stroke:#000000;stroke-width:1.5;"/><rect fill="none" height="994.0859" style="stroke:#000000;stroke-width:1.5;" width="2437.5" x="10" y="928.7578"/><text fill="#000000" font-family="sans-serif" font-size="20" font-weight="bold" lengthAdjust="spacing" textLength="27" x="25" y="949.0938">alt</text><text fill="#000000" font-family="sans-serif" font-size="20" font-weight="bold" lengthAdjust="spacing" textLength="184" x="97" y="950.0938">[accept the order]</text><polygon fill="#181818" points="654,988.4219,664,992.4219,654,996.4219,658,992.4219" style="stroke:#181818;stroke-width:1.0;"/><line style="stroke:#181818;stroke-width:1.0;" x1="56" x2="660" y1="992.4219" y2="992.4219"/><text fill="#000000" font-family="sans-serif" font-size="20" font-weight="bold" lengthAdjust="spacing" textLength="26" x="63" y="986.2031">22</text><text fill="#000000" font-family="sans-serif" font-size="20" lengthAdjust="spacing" textLength="124" x="93" y="986.2031">Select accept</text><polygon fill="#181818" points="1205,1025.9766,1215,1029.9766,1205,1033.9766,1209,1029.9766" style="stroke:#181818;stroke-width:1.0;"/><line style="stroke:#181818;stroke-width:1.0;" x1="676" x2="1211" y1="1029.9766" y2="1029.9766"/><text fill="#000000" font-family="sans-serif" font-size="20" font-weight="bold" lengthAdjust="spacing" textLength="26" x="683" y="1023.7578">23</text><text fill="#000000" font-family="sans-serif" font-size="20" lengthAdjust="spacing" textLength="376" x="713" y="1023.7578">acceptOrder(Orderid,Announcementid)</text><polygon fill="#181818" points="2065.5,1063.5313,2075.5,1067.5313,2065.5,1071.5313,2069.5,1067.5313" style="stroke:#181818;stroke-width:1.0;"/><line style="stroke:#181818;stroke-width:1.0;" x1="1227" x2="2071.5" y1="1067.5313" y2="1067.5313"/><text fill="#000000" font-family="sans-serif" font-size="20" font-weight="bold" lengthAdjust="spacing" textLength="26" x="1234" y="1061.3125">24</text><text fill="#000000" font-family="sans-serif" font-size="20" lengthAdjust="spacing" textLength="376" x="1264" y="1061.3125">acceptOrder(Orderid,Announcementid)</text><path d="M1024.5,1082.5313 L1115.5,1082.5313 L1115.5,1098.0859 L1105.5,1108.0859 L1024.5,1108.0859 L1024.5,1082.5313 " fill="#EEEEEE" style="stroke:#000000;stroke-width:1.5;"/><rect fill="none" height="122.2188" style="stroke:#000000;stroke-width:1.5;" width="1413" x="1024.5" y="1082.5313"/><text fill="#000000" font-family="sans-serif" font-size="20" font-weight="bold" lengthAdjust="spacing" textLength="46" x="1039.5" y="1102.8672">loop</text><text fill="#000000" font-family="sans-serif" font-size="20" font-weight="bold" lengthAdjust="spacing" textLength="263" x="1130.5" y="1103.8672">[for each order in orders]</text><polygon fill="#181818" points="2070.5,1142.1953,2080.5,1146.1953,2070.5,1150.1953,2074.5,1146.1953" style="stroke:#181818;stroke-width:1.0;"/><line style="stroke:#181818;stroke-width:1.0;" x1="1227" x2="2076.5" y1="1146.1953" y2="1146.1953"/><text fill="#000000" font-family="sans-serif" font-size="20" font-weight="bold" lengthAdjust="spacing" textLength="26" x="1234" y="1139.9766">25</text><text fill="#000000" font-family="sans-serif" font-size="20" lengthAdjust="spacing" textLength="530" x="1264" y="1139.9766">acceptOrder(order.getId(), order.getAnnouncementId())</text><line style="stroke:#181818;stroke-width:1.0;stroke-dasharray:2.0,2.0;" x1="2092.5" x2="2134.5" y1="1188.75" y2="1188.75"/><line style="stroke:#181818;stroke-width:1.0;stroke-dasharray:2.0,2.0;" x1="2134.5" x2="2134.5" y1="1188.75" y2="1201.75"/><line style="stroke:#181818;stroke-width:1.0;stroke-dasharray:2.0,2.0;" x1="2087.5" x2="2134.5" y1="1201.75" y2="1201.75"/><polygon fill="#181818" points="2097.5,1197.75,2087.5,1201.75,2097.5,1205.75,2093.5,1201.75" style="stroke:#181818;stroke-width:1.0;"/><text fill="#000000" font-family="sans-serif" font-size="20" font-weight="bold" lengthAdjust="spacing" textLength="26" x="2099.5" y="1182.5313">26</text><text fill="#000000" font-family="sans-serif" font-size="20" lengthAdjust="spacing" textLength="296" x="2129.5" y="1182.5313">change orderState (ACCEPTED)</text><polygon fill="#181818" points="1238,1237.3047,1228,1241.3047,1238,1245.3047,1234,1241.3047" style="stroke:#181818;stroke-width:1.0;"/><line style="stroke:#181818;stroke-width:1.0;stroke-dasharray:2.0,2.0;" x1="1232" x2="2081.5" y1="1241.3047" y2="1241.3047"/><text fill="#000000" font-family="sans-serif" font-size="20" font-weight="bold" lengthAdjust="spacing" textLength="26" x="1244" y="1235.0859">27</text><text fill="#000000" font-family="sans-serif" font-size="20" lengthAdjust="spacing" textLength="145" x="1274" y="1235.0859">OrderAccepted</text><polygon fill="#181818" points="2065.5,1274.8594,2075.5,1278.8594,2065.5,1282.8594,2069.5,1278.8594" style="stroke:#181818;stroke-width:1.0;"/><line style="stroke:#181818;stroke-width:1.0;" x1="1227" x2="2071.5" y1="1278.8594" y2="1278.8594"/><text fill="#000000" font-family="sans-serif" font-size="20" font-weight="bold" lengthAdjust="spacing" textLength="26" x="1234" y="1272.6406">28</text><text fill="#000000" font-family="sans-serif" font-size="20" lengthAdjust="spacing" textLength="312" x="1264" y="1272.6406">rejectAllOrder(Announcementid)</text><path d="M1024.5,1293.8594 L1115.5,1293.8594 L1115.5,1309.4141 L1105.5,1319.4141 L1024.5,1319.4141 L1024.5,1293.8594 " fill="#EEEEEE" style="stroke:#000000;stroke-width:1.5;"/><rect fill="none" height="122.2188" style="stroke:#000000;stroke-width:1.5;" width="1404" x="1024.5" y="1293.8594"/><text fill="#000000" font-family="sans-serif" font-size="20" font-weight="bold" lengthAdjust="spacing" textLength="46" x="1039.5" y="1314.1953">loop</text><text fill="#000000" font-family="sans-serif" font-size="20" font-weight="bold" lengthAdjust="spacing" textLength="263" x="1130.5" y="1315.1953">[for each order in orders]</text><polygon fill="#181818" points="2070.5,1353.5234,2080.5,1357.5234,2070.5,1361.5234,2074.5,1357.5234" style="stroke:#181818;stroke-width:1.0;"/><line style="stroke:#181818;stroke-width:1.0;" x1="1227" x2="2076.5" y1="1357.5234" y2="1357.5234"/><text fill="#000000" font-family="sans-serif" font-size="20" font-weight="bold" lengthAdjust="spacing" textLength="26" x="1234" y="1351.3047">29</text><text fill="#000000" font-family="sans-serif" font-size="20" lengthAdjust="spacing" textLength="521" x="1264" y="1351.3047">rejectOrder(order.getId(), order.getAnnouncementId())</text><line style="stroke:#181818;stroke-width:1.0;stroke-dasharray:2.0,2.0;" x1="2092.5" x2="2134.5" y1="1400.0781" y2="1400.0781"/><line style="stroke:#181818;stroke-width:1.0;stroke-dasharray:2.0,2.0;" x1="2134.5" x2="2134.5" y1="1400.0781" y2="1413.0781"/><line style="stroke:#181818;stroke-width:1.0;stroke-dasharray:2.0,2.0;" x1="2087.5" x2="2134.5" y1="1413.0781" y2="1413.0781"/><polygon fill="#181818" points="2097.5,1409.0781,2087.5,1413.0781,2097.5,1417.0781,2093.5,1413.0781" style="stroke:#181818;stroke-width:1.0;"/><text fill="#000000" font-family="sans-serif" font-size="20" font-weight="bold" lengthAdjust="spacing" textLength="26" x="2099.5" y="1393.8594">30</text><text fill="#000000" font-family="sans-serif" font-size="20" lengthAdjust="spacing" textLength="287" x="2129.5" y="1393.8594">change orderState (REJECTED)</text><polygon fill="#181818" points="1238,1448.6328,1228,1452.6328,1238,1456.6328,1234,1452.6328" style="stroke:#181818;stroke-width:1.0;"/><line style="stroke:#181818;stroke-width:1.0;stroke-dasharray:2.0,2.0;" x1="1232" x2="2081.5" y1="1452.6328" y2="1452.6328"/><text fill="#000000" font-family="sans-serif" font-size="20" font-weight="bold" lengthAdjust="spacing" textLength="26" x="1244" y="1446.4141">31</text><text fill="#000000" font-family="sans-serif" font-size="20" lengthAdjust="spacing" textLength="164" x="1274" y="1446.4141">AllOrderRejected</text><polygon fill="#181818" points="687,1486.1875,677,1490.1875,687,1494.1875,683,1490.1875" style="stroke:#181818;stroke-width:1.0;"/><line style="stroke:#181818;stroke-width:1.0;" x1="681" x2="1221" y1="1490.1875" y2="1490.1875"/><text fill="#000000" font-family="sans-serif" font-size="20" font-weight="bold" lengthAdjust="spacing" textLength="26" x="693" y="1483.9688">32</text><text fill="#000000" font-family="sans-serif" font-size="20" lengthAdjust="spacing" textLength="427" x="723" y="1483.9688">OrderAccepted and All OtherOrdersRejected</text><polygon fill="#181818" points="67,1523.7422,57,1527.7422,67,1531.7422,63,1527.7422" style="stroke:#181818;stroke-width:1.0;"/><line style="stroke:#181818;stroke-width:1.0;stroke-dasharray:2.0,2.0;" x1="61" x2="670" y1="1527.7422" y2="1527.7422"/><text fill="#000000" font-family="sans-serif" font-size="20" font-weight="bold" lengthAdjust="spacing" textLength="26" x="73" y="1521.5234">33</text><text fill="#000000" font-family="sans-serif" font-size="20" lengthAdjust="spacing" textLength="256" x="103" y="1521.5234">displays operation success</text><line style="stroke:#000000;stroke-width:1.0;stroke-dasharray:2.0,2.0;" x1="10" x2="2447.5" y1="1536.7422" y2="1536.7422"/><text fill="#000000" font-family="sans-serif" font-size="20" font-weight="bold" lengthAdjust="spacing" textLength="176" x="15" y="1556.0781">[reject the order]</text><polygon fill="#181818" points="654,1586.8516,664,1590.8516,654,1594.8516,658,1590.8516" style="stroke:#181818;stroke-width:1.0;"/><line style="stroke:#181818;stroke-width:1.0;" x1="56" x2="660" y1="1590.8516" y2="1590.8516"/><text fill="#000000" font-family="sans-serif" font-size="20" font-weight="bold" lengthAdjust="spacing" textLength="26" x="63" y="1584.6328">34</text><text fill="#000000" font-family="sans-serif" font-size="20" lengthAdjust="spacing" textLength="115" x="93" y="1584.6328">Select reject</text><polygon fill="#181818" points="1205,1624.4063,1215,1628.4063,1205,1632.4063,1209,1628.4063" style="stroke:#181818;stroke-width:1.0;"/><line style="stroke:#181818;stroke-width:1.0;" x1="676" x2="1211" y1="1628.4063" y2="1628.4063"/><text fill="#000000" font-family="sans-serif" font-size="20" font-weight="bold" lengthAdjust="spacing" textLength="26" x="683" y="1622.1875">35</text><text fill="#000000" font-family="sans-serif" font-size="20" lengthAdjust="spacing" textLength="367" x="713" y="1622.1875">rejectOrder(Orderid,Announcementid)</text><polygon fill="#181818" points="2065.5,1661.9609,2075.5,1665.9609,2065.5,1669.9609,2069.5,1665.9609" style="stroke:#181818;stroke-width:1.0;"/><line style="stroke:#181818;stroke-width:1.0;" x1="1227" x2="2071.5" y1="1665.9609" y2="1665.9609"/><text fill="#000000" font-family="sans-serif" font-size="20" font-weight="bold" lengthAdjust="spacing" textLength="26" x="1234" y="1659.7422">36</text><text fill="#000000" font-family="sans-serif" font-size="20" lengthAdjust="spacing" textLength="367" x="1264" y="1659.7422">rejectOrder(Orderid,Announcementid)</text><path d="M1024.5,1680.9609 L1115.5,1680.9609 L1115.5,1696.5156 L1105.5,1706.5156 L1024.5,1706.5156 L1024.5,1680.9609 " fill="#EEEEEE" style="stroke:#000000;stroke-width:1.5;"/><rect fill="none" height="122.2188" style="stroke:#000000;stroke-width:1.5;" width="1404" x="1024.5" y="1680.9609"/><text fill="#000000" font-family="sans-serif" font-size="20" font-weight="bold" lengthAdjust="spacing" textLength="46" x="1039.5" y="1701.2969">loop</text><text fill="#000000" font-family="sans-serif" font-size="20" font-weight="bold" lengthAdjust="spacing" textLength="263" x="1130.5" y="1702.2969">[for each order in orders]</text><polygon fill="#181818" points="2070.5,1740.625,2080.5,1744.625,2070.5,1748.625,2074.5,1744.625" style="stroke:#181818;stroke-width:1.0;"/><line style="stroke:#181818;stroke-width:1.0;" x1="1227" x2="2076.5" y1="1744.625" y2="1744.625"/><text fill="#000000" font-family="sans-serif" font-size="20" font-weight="bold" lengthAdjust="spacing" textLength="26" x="1234" y="1738.4063">37</text><text fill="#000000" font-family="sans-serif" font-size="20" lengthAdjust="spacing" textLength="521" x="1264" y="1738.4063">rejectOrder(order.getId(), order.getAnnouncementId())</text><line style="stroke:#181818;stroke-width:1.0;stroke-dasharray:2.0,2.0;" x1="2092.5" x2="2134.5" y1="1787.1797" y2="1787.1797"/><line style="stroke:#181818;stroke-width:1.0;stroke-dasharray:2.0,2.0;" x1="2134.5" x2="2134.5" y1="1787.1797" y2="1800.1797"/><line style="stroke:#181818;stroke-width:1.0;stroke-dasharray:2.0,2.0;" x1="2087.5" x2="2134.5" y1="1800.1797" y2="1800.1797"/><polygon fill="#181818" points="2097.5,1796.1797,2087.5,1800.1797,2097.5,1804.1797,2093.5,1800.1797" style="stroke:#181818;stroke-width:1.0;"/><text fill="#000000" font-family="sans-serif" font-size="20" font-weight="bold" lengthAdjust="spacing" textLength="26" x="2099.5" y="1780.9609">38</text><text fill="#000000" font-family="sans-serif" font-size="20" lengthAdjust="spacing" textLength="287" x="2129.5" y="1780.9609">change orderState (REJECTED)</text><polygon fill="#181818" points="1238,1835.7344,1228,1839.7344,1238,1843.7344,1234,1839.7344" style="stroke:#181818;stroke-width:1.0;"/><line style="stroke:#181818;stroke-width:1.0;stroke-dasharray:2.0,2.0;" x1="1232" x2="2081.5" y1="1839.7344" y2="1839.7344"/><text fill="#000000" font-family="sans-serif" font-size="20" font-weight="bold" lengthAdjust="spacing" textLength="26" x="1244" y="1833.5156">39</text><text fill="#000000" font-family="sans-serif" font-size="20" lengthAdjust="spacing" textLength="134" x="1274" y="1833.5156">orderRejected</text><polygon fill="#181818" points="687,1873.2891,677,1877.2891,687,1881.2891,683,1877.2891" style="stroke:#181818;stroke-width:1.0;"/><line style="stroke:#181818;stroke-width:1.0;" x1="681" x2="1221" y1="1877.2891" y2="1877.2891"/><text fill="#000000" font-family="sans-serif" font-size="20" font-weight="bold" lengthAdjust="spacing" textLength="26" x="693" y="1871.0703">40</text><text fill="#000000" font-family="sans-serif" font-size="20" lengthAdjust="spacing" textLength="138" x="723" y="1871.0703">OrderRejected</text><polygon fill="#181818" points="67,1910.8438,57,1914.8438,67,1918.8438,63,1914.8438" style="stroke:#181818;stroke-width:1.0;"/><line style="stroke:#181818;stroke-width:1.0;stroke-dasharray:2.0,2.0;" x1="61" x2="670" y1="1914.8438" y2="1914.8438"/><text fill="#000000" font-family="sans-serif" font-size="20" font-weight="bold" lengthAdjust="spacing" textLength="26" x="73" y="1908.625">41</text><text fill="#000000" font-family="sans-serif" font-size="20" lengthAdjust="spacing" textLength="256" x="103" y="1908.625">displays operation success</text><!--SRC=[xLTDSzis4BtZL-puKYaJUMAroIGwP2hBIiQgd6WaERtu0fEmX9e2E03eLFtrNOAa27vPOkfEUo0EzWZ0FkpkUrXYzICN8LLq5qZlaVdWimSQ1UQJ56R5_s8mV4DqjWLsKaXlg-IEWL4HSrP2wZtI3LkPVS10CSzGiGdS3NfBVVcTYmqyq40pGcXaf8XszqmHyjEM-mmUf3Jtyaz2FICLd8qtJ9Wpe1h6dwTVrWHn3FTuI8M1iz52oP0fi_-gVAPkgC33TxZ_zjfQt5wVjds2OIeP14nPiybwEIyPBbaeDKU7EDDsps5Yl-9nZ1X5qKGv5dUY2h2OZql1Z8MGaV2iHpdyw4xKBoGvgLqgujfW2u2b6OjKcYCa9e0_KSFIn1Fx3mOVCQqmGfD7C182hWrGnmkDltmmMmOoHjJn9kfvB3GuWPhu0rMHGoD3Y8QOSSvVlK9SJp5SS6PnRiFCE0ZSMFLAAiFyotsOCjhhvw2MFs9j4QE6gGJoMcZKfyTSqpfQIHt28FLk12xHn6VFGq7cLKn_6bajXQvJLYh4MkJ7DbgwFYIMoPbeMM_GFi4D1vEc0mQjg7G3Q3efHXjaKco7YMucuh9w7i4Lrs50zucIvGFG82W9MbimkDz31WTt8bPvUWSq2r3K80KZK3YdU6DMoJOg2l04tCjGqRszbdgElbtktGYl_Pxxa_iL_TT8BG5h9x9oNMXGryTo0VbnzokLg8pio2d7Tnsh81JaKckJPJuLnMehlnyKaHQoUiPTY2Q-BG2fuJanE1JJSftCosZX61gOR6k-WG2EUWViLhjUS26UACWjsMZJqxD_kV-wp5819HKQZcOHj0Qja1T86UAhG06cO9j42pnDgcvnkZKuZmk_t-k_XiFFaYxxn_o9L-iaMJtTs-Bx9oLePMAmtdWocIxMqwj-WlECQ9dm6uzorJ-s8JB_6DwHJ2MAmpgQ9AiTHP2EurHbuvWZFq9PDexx-OyeN4vdqqbEOJQUINss9QRq6ASP0qkRXfQqvlKjKuMjMeW9Nx5KgEm3K0kTLmIdCld9rr53_E6ZXkFJHqU8hNN5ck63lbguckjI-XOyNfTSHRnONMeDsYocqrN_hyh-HDs_kF1FKJwSKCta2yY-IThjbEqOsYjx66xKl-9Ij0j8tjt-bxrprorttNBNBNVTSjSjTzrororttNBNBNVTSjSjTzrororttVB_gbjU1DXctTxCuGdfZc4kpeTlXZ-VN_HMaO0PVl-77-1YE7hxVlJs7Vm-NKEyt2UzpuivlYqZvR7O6QFuVHIxqISp-aHX6Q48Tmm32vcONVsMJS1KF74bXNqyphxTv1lU_JAuv0Qlbq9FuDiDkKhwThJmf8zDo0Xkrvy6xyaSgOsmznq1lWicA2c3RI4irdy3]--></g></svg>