<?xml version="1.0" encoding="UTF-8" standalone="no"?><svg xmlns="http://www.w3.org/2000/svg" xmlns:xlink="http://www.w3.org/1999/xlink" contentStyleType="text/css" height="2557px" preserveAspectRatio="none" style="width:2458px;height:2557px;background:#FFFFFF;" version="1.1" viewBox="0 0 2458 2557" width="2458px" zoomAndPan="magnify"><defs/><g><rect fill="#FFFFFF" height="2361.6094" style="stroke:#181818;stroke-width:1.0;" width="10" x="49" y="98.5547"/><rect fill="#FFFFFF" height="386.5469" style="stroke:#181818;stroke-width:1.0;" width="10" x="856" y="128.1094"/><rect fill="#FFFFFF" height="388.5469" style="stroke:#181818;stroke-width:1.0;" width="10" x="856" y="552.2109"/><rect fill="#FFFFFF" height="88.1094" style="stroke:#181818;stroke-width:1.0;" width="10" x="856" y="978.3125"/><rect fill="#FFFFFF" height="129.2188" style="stroke:#181818;stroke-width:1.0;" width="10" x="856" y="1103.9766"/><rect fill="#FFFFFF" height="95.1094" style="stroke:#181818;stroke-width:1.0;" width="10" x="856" y="1270.75"/><rect fill="#FFFFFF" height="88.1094" style="stroke:#181818;stroke-width:1.0;" width="10" x="856" y="1403.4141"/><rect fill="#FFFFFF" height="386.2109" style="stroke:#181818;stroke-width:1.0;" width="10" x="856" y="1617.2969"/><rect fill="#FFFFFF" height="410.1016" style="stroke:#181818;stroke-width:1.0;" width="10" x="856" y="2041.0625"/><rect fill="#FFFFFF" height="262.8828" style="stroke:#181818;stroke-width:1.0;" width="10" x="1179" y="214.2188"/><rect fill="#FFFFFF" height="262.8828" style="stroke:#181818;stroke-width:1.0;" width="10" x="1179" y="640.3203"/><rect fill="#FFFFFF" height="334.9922" style="stroke:#181818;stroke-width:1.0;" width="10" x="1179" y="2078.6172"/><rect fill="#FFFFFF" height="37.5547" style="stroke:#181818;stroke-width:1.0;" width="10" x="1386" y="251.7734"/><rect fill="#FFFFFF" height="37.5547" style="stroke:#181818;stroke-width:1.0;" width="10" x="1386" y="677.875"/><rect fill="#FFFFFF" height="37.5547" style="stroke:#181818;stroke-width:1.0;" width="10" x="1386" y="2116.1719"/><rect fill="#FFFFFF" height="37.5547" style="stroke:#181818;stroke-width:1.0;" width="10" x="1535" y="326.8828"/><rect fill="#FFFFFF" height="37.5547" style="stroke:#181818;stroke-width:1.0;" width="10" x="1535" y="752.9844"/><rect fill="#FFFFFF" height="268.8828" style="stroke:#181818;stroke-width:1.0;" width="10" x="1747.5" y="2191.2813"/><rect fill="#FFFFFF" height="37.5547" style="stroke:#181818;stroke-width:1.0;" width="10" x="2003" y="401.9922"/><rect fill="#FFFFFF" height="37.5547" style="stroke:#181818;stroke-width:1.0;" width="10" x="2233" y="828.0938"/><rect fill="none" height="159.7734" style="stroke:#000000;stroke-width:1.5;" width="1084" x="10" y="1169.5313"/><rect fill="none" height="409.875" style="stroke:#000000;stroke-width:1.5;" width="950.5" x="10" y="1506.5234"/><line style="stroke:#181818;stroke-width:0.5;stroke-dasharray:5.0,5.0;" x1="54" x2="54" y1="88.5547" y2="2469.1641"/><line style="stroke:#181818;stroke-width:0.5;stroke-dasharray:5.0,5.0;" x1="860.5" x2="860.5" y1="88.5547" y2="2469.1641"/><line style="stroke:#181818;stroke-width:0.5;stroke-dasharray:5.0,5.0;" x1="1183.5" x2="1183.5" y1="170.3867" y2="2469.1641"/><line style="stroke:#181818;stroke-width:0.5;stroke-dasharray:5.0,5.0;" x1="1390.5" x2="1390.5" y1="88.5547" y2="2469.1641"/><line style="stroke:#181818;stroke-width:0.5;stroke-dasharray:5.0,5.0;" x1="1539.5" x2="1539.5" y1="88.5547" y2="2469.1641"/><line style="stroke:#181818;stroke-width:0.5;stroke-dasharray:5.0,5.0;" x1="1752.5" x2="1752.5" y1="88.5547" y2="2469.1641"/><line style="stroke:#181818;stroke-width:0.5;stroke-dasharray:5.0,5.0;" x1="2007.5" x2="2007.5" y1="88.5547" y2="2469.1641"/><line style="stroke:#181818;stroke-width:0.5;stroke-dasharray:5.0,5.0;" x1="2237.5" x2="2237.5" y1="88.5547" y2="2469.1641"/><line style="stroke:#181818;stroke-width:0.5;stroke-dasharray:5.0,5.0;" x1="2403.5" x2="2403.5" y1="2320.4453" y2="2469.1641"/><text fill="#000000" font-family="sans-serif" font-size="20" lengthAdjust="spacing" textLength="62" x="20" y="84.3359">Owner</text><ellipse cx="54" cy="13.5" fill="#E3E3E3" rx="8" ry="8" style="stroke:#181818;stroke-width:0.5;"/><path d="M54,21.5 L54,48.5 M41,29.5 L67,29.5 M54,48.5 L41,63.5 M54,48.5 L67,63.5 " fill="none" style="stroke:#181818;stroke-width:0.5;"/><text fill="#000000" font-family="sans-serif" font-size="20" lengthAdjust="spacing" textLength="62" x="20" y="2487.5">Owner</text><ellipse cx="54" cy="2500.2188" fill="#E3E3E3" rx="8" ry="8" style="stroke:#181818;stroke-width:0.5;"/><path d="M54,2508.2188 L54,2535.2188 M41,2516.2188 L67,2516.2188 M54,2535.2188 L41,2550.2188 M54,2535.2188 L67,2550.2188 " fill="none" style="stroke:#181818;stroke-width:0.5;"/><rect fill="#E3E3E3" height="37.5547" rx="2.5" ry="2.5" style="stroke:#181818;stroke-width:0.5;" width="179" x="771.5" y="50"/><text fill="#000000" font-family="sans-serif" font-size="20" lengthAdjust="spacing" textLength="165" x="778.5" y="76.3359">:CreateRequestUI</text><rect fill="#E3E3E3" height="37.5547" rx="2.5" ry="2.5" style="stroke:#181818;stroke-width:0.5;" width="179" x="771.5" y="2468.1641"/><text fill="#000000" font-family="sans-serif" font-size="20" lengthAdjust="spacing" textLength="165" x="778.5" y="2494.5">:CreateRequestUI</text><rect fill="#E3E3E3" height="37.5547" rx="2.5" ry="2.5" style="stroke:#181818;stroke-width:0.5;" width="255" x="1056.5" y="2468.1641"/><text fill="#000000" font-family="sans-serif" font-size="20" lengthAdjust="spacing" textLength="241" x="1063.5" y="2494.5">:CreateRequestController</text><rect fill="#E3E3E3" height="37.5547" rx="2.5" ry="2.5" style="stroke:#181818;stroke-width:0.5;" width="139" x="1321.5" y="50"/><text fill="#000000" font-family="sans-serif" font-size="20" lengthAdjust="spacing" textLength="125" x="1328.5" y="76.3359">:Repositories</text><rect fill="#E3E3E3" height="37.5547" rx="2.5" ry="2.5" style="stroke:#181818;stroke-width:0.5;" width="139" x="1321.5" y="2468.1641"/><text fill="#000000" font-family="sans-serif" font-size="20" lengthAdjust="spacing" textLength="125" x="1328.5" y="2494.5">:Repositories</text><rect fill="#E3E3E3" height="61.1094" rx="2.5" ry="2.5" style="stroke:#181818;stroke-width:0.5;" width="139" x="1470.5" y="26.4453"/><text fill="#000000" font-family="sans-serif" font-size="20" lengthAdjust="spacing" textLength="114" x="1483" y="52.7813">repositories</text><text fill="#000000" font-family="sans-serif" font-size="20" lengthAdjust="spacing" textLength="125" x="1477.5" y="76.3359">:Repositories</text><rect fill="#E3E3E3" height="61.1094" rx="2.5" ry="2.5" style="stroke:#181818;stroke-width:0.5;" width="139" x="1470.5" y="2468.1641"/><text fill="#000000" font-family="sans-serif" font-size="20" lengthAdjust="spacing" textLength="114" x="1483" y="2494.5">repositories</text><text fill="#000000" font-family="sans-serif" font-size="20" lengthAdjust="spacing" textLength="125" x="1477.5" y="2518.0547">:Repositories</text><rect fill="#E3E3E3" height="61.1094" rx="2.5" ry="2.5" style="stroke:#181818;stroke-width:0.5;" width="266" x="1619.5" y="26.4453"/><text fill="#000000" font-family="sans-serif" font-size="20" lengthAdjust="spacing" textLength="252" x="1626.5" y="52.7813">AnnouncementRepository:</text><text fill="#000000" font-family="sans-serif" font-size="20" lengthAdjust="spacing" textLength="246" x="1629.5" y="76.3359">AnnouncementRepository</text><rect fill="#E3E3E3" height="61.1094" rx="2.5" ry="2.5" style="stroke:#181818;stroke-width:0.5;" width="266" x="1619.5" y="2468.1641"/><text fill="#000000" font-family="sans-serif" font-size="20" lengthAdjust="spacing" textLength="252" x="1626.5" y="2494.5">AnnouncementRepository:</text><text fill="#000000" font-family="sans-serif" font-size="20" lengthAdjust="spacing" textLength="246" x="1629.5" y="2518.0547">AnnouncementRepository</text><rect fill="#E3E3E3" height="61.1094" rx="2.5" ry="2.5" style="stroke:#181818;stroke-width:0.5;" width="225" x="1895.5" y="26.4453"/><text fill="#000000" font-family="sans-serif" font-size="20" lengthAdjust="spacing" textLength="211" x="1902.5" y="52.7813">AgencyListRepository:</text><text fill="#000000" font-family="sans-serif" font-size="20" lengthAdjust="spacing" textLength="205" x="1905.5" y="76.3359">AgencyListRepository</text><rect fill="#E3E3E3" height="61.1094" rx="2.5" ry="2.5" style="stroke:#181818;stroke-width:0.5;" width="225" x="1895.5" y="2468.1641"/><text fill="#000000" font-family="sans-serif" font-size="20" lengthAdjust="spacing" textLength="211" x="1902.5" y="2494.5">AgencyListRepository:</text><text fill="#000000" font-family="sans-serif" font-size="20" lengthAdjust="spacing" textLength="205" x="1905.5" y="2518.0547">AgencyListRepository</text><rect fill="#E3E3E3" height="61.1094" rx="2.5" ry="2.5" style="stroke:#181818;stroke-width:0.5;" width="215" x="2130.5" y="26.4453"/><text fill="#000000" font-family="sans-serif" font-size="20" lengthAdjust="spacing" textLength="201" x="2137.5" y="52.7813">EmployeeRepository:</text><text fill="#000000" font-family="sans-serif" font-size="20" lengthAdjust="spacing" textLength="195" x="2140.5" y="76.3359">EmployeeRepository</text><rect fill="#E3E3E3" height="61.1094" rx="2.5" ry="2.5" style="stroke:#181818;stroke-width:0.5;" width="215" x="2130.5" y="2468.1641"/><text fill="#000000" font-family="sans-serif" font-size="20" lengthAdjust="spacing" textLength="201" x="2137.5" y="2494.5">EmployeeRepository:</text><text fill="#000000" font-family="sans-serif" font-size="20" lengthAdjust="spacing" textLength="195" x="2140.5" y="2518.0547">EmployeeRepository</text><rect fill="#E3E3E3" height="61.1094" rx="2.5" ry="2.5" style="stroke:#181818;stroke-width:0.5;" width="97" x="2355.5" y="2468.1641"/><text fill="#000000" font-family="sans-serif" font-size="20" lengthAdjust="spacing" textLength="72" x="2368" y="2494.5">request</text><text fill="#000000" font-family="sans-serif" font-size="20" lengthAdjust="spacing" textLength="83" x="2362.5" y="2518.0547">:Request</text><rect fill="#FFFFFF" height="2361.6094" style="stroke:#181818;stroke-width:1.0;" width="10" x="49" y="98.5547"/><rect fill="#FFFFFF" height="386.5469" style="stroke:#181818;stroke-width:1.0;" width="10" x="856" y="128.1094"/><rect fill="#FFFFFF" height="388.5469" style="stroke:#181818;stroke-width:1.0;" width="10" x="856" y="552.2109"/><rect fill="#FFFFFF" height="88.1094" style="stroke:#181818;stroke-width:1.0;" width="10" x="856" y="978.3125"/><rect fill="#FFFFFF" height="129.2188" style="stroke:#181818;stroke-width:1.0;" width="10" x="856" y="1103.9766"/><rect fill="#FFFFFF" height="95.1094" style="stroke:#181818;stroke-width:1.0;" width="10" x="856" y="1270.75"/><rect fill="#FFFFFF" height="88.1094" style="stroke:#181818;stroke-width:1.0;" width="10" x="856" y="1403.4141"/><rect fill="#FFFFFF" height="386.2109" style="stroke:#181818;stroke-width:1.0;" width="10" x="856" y="1617.2969"/><rect fill="#FFFFFF" height="410.1016" style="stroke:#181818;stroke-width:1.0;" width="10" x="856" y="2041.0625"/><rect fill="#FFFFFF" height="262.8828" style="stroke:#181818;stroke-width:1.0;" width="10" x="1179" y="214.2188"/><rect fill="#FFFFFF" height="262.8828" style="stroke:#181818;stroke-width:1.0;" width="10" x="1179" y="640.3203"/><rect fill="#FFFFFF" height="334.9922" style="stroke:#181818;stroke-width:1.0;" width="10" x="1179" y="2078.6172"/><rect fill="#FFFFFF" height="37.5547" style="stroke:#181818;stroke-width:1.0;" width="10" x="1386" y="251.7734"/><rect fill="#FFFFFF" height="37.5547" style="stroke:#181818;stroke-width:1.0;" width="10" x="1386" y="677.875"/><rect fill="#FFFFFF" height="37.5547" style="stroke:#181818;stroke-width:1.0;" width="10" x="1386" y="2116.1719"/><rect fill="#FFFFFF" height="37.5547" style="stroke:#181818;stroke-width:1.0;" width="10" x="1535" y="326.8828"/><rect fill="#FFFFFF" height="37.5547" style="stroke:#181818;stroke-width:1.0;" width="10" x="1535" y="752.9844"/><rect fill="#FFFFFF" height="268.8828" style="stroke:#181818;stroke-width:1.0;" width="10" x="1747.5" y="2191.2813"/><rect fill="#FFFFFF" height="37.5547" style="stroke:#181818;stroke-width:1.0;" width="10" x="2003" y="401.9922"/><rect fill="#FFFFFF" height="37.5547" style="stroke:#181818;stroke-width:1.0;" width="10" x="2233" y="828.0938"/><polygon fill="#181818" points="844,124.1094,854,128.1094,844,132.1094,848,128.1094" style="stroke:#181818;stroke-width:1.0;"/><line style="stroke:#181818;stroke-width:1.0;" x1="59" x2="850" y1="128.1094" y2="128.1094"/><text fill="#000000" font-family="sans-serif" font-size="20" font-weight="bold" lengthAdjust="spacing" textLength="13" x="66" y="121.8906">1</text><text fill="#000000" font-family="sans-serif" font-size="20" lengthAdjust="spacing" textLength="242" x="83" y="121.8906">ask to create Sale or Rent</text><polygon fill="#181818" points="1044.5,161.6641,1054.5,165.6641,1044.5,169.6641,1048.5,165.6641" style="stroke:#181818;stroke-width:1.0;"/><line style="stroke:#181818;stroke-width:1.0;" x1="866" x2="1050.5" y1="165.6641" y2="165.6641"/><text fill="#000000" font-family="sans-serif" font-size="20" font-weight="bold" lengthAdjust="spacing" textLength="13" x="873" y="159.4453">2</text><text fill="#000000" font-family="sans-serif" font-size="20" lengthAdjust="spacing" textLength="141" x="890" y="159.4453">create Request</text><rect fill="#E3E3E3" height="37.5547" rx="2.5" ry="2.5" style="stroke:#181818;stroke-width:0.5;" width="255" x="1056.5" y="136.1094"/><text fill="#000000" font-family="sans-serif" font-size="20" lengthAdjust="spacing" textLength="241" x="1063.5" y="162.4453">:CreateRequestController</text><polygon fill="#181818" points="1167,210.2188,1177,214.2188,1167,218.2188,1171,214.2188" style="stroke:#181818;stroke-width:1.0;"/><line style="stroke:#181818;stroke-width:1.0;stroke-dasharray:2.0,2.0;" x1="866" x2="1173" y1="214.2188" y2="214.2188"/><text fill="#000000" font-family="sans-serif" font-size="20" font-weight="bold" lengthAdjust="spacing" textLength="13" x="873" y="208">3</text><text fill="#000000" font-family="sans-serif" font-size="20" lengthAdjust="spacing" textLength="147" x="890" y="208">getAgencyList()</text><polygon fill="#181818" points="1374,247.7734,1384,251.7734,1374,255.7734,1378,251.7734" style="stroke:#181818;stroke-width:1.0;"/><line style="stroke:#181818;stroke-width:1.0;" x1="1189" x2="1380" y1="251.7734" y2="251.7734"/><text fill="#000000" font-family="sans-serif" font-size="20" font-weight="bold" lengthAdjust="spacing" textLength="13" x="1196" y="245.5547">4</text><text fill="#000000" font-family="sans-serif" font-size="20" lengthAdjust="spacing" textLength="123" x="1213" y="245.5547">getInstance()</text><polygon fill="#181818" points="1200,285.3281,1190,289.3281,1200,293.3281,1196,289.3281" style="stroke:#181818;stroke-width:1.0;"/><line style="stroke:#181818;stroke-width:1.0;stroke-dasharray:2.0,2.0;" x1="1194" x2="1390" y1="289.3281" y2="289.3281"/><text fill="#000000" font-family="sans-serif" font-size="20" font-weight="bold" lengthAdjust="spacing" textLength="13" x="1206" y="283.1094">5</text><text fill="#000000" font-family="sans-serif" font-size="20" lengthAdjust="spacing" textLength="114" x="1223" y="283.1094">repositories</text><polygon fill="#181818" points="1523,322.8828,1533,326.8828,1523,330.8828,1527,326.8828" style="stroke:#181818;stroke-width:1.0;"/><line style="stroke:#181818;stroke-width:1.0;" x1="1189" x2="1529" y1="326.8828" y2="326.8828"/><text fill="#000000" font-family="sans-serif" font-size="20" font-weight="bold" lengthAdjust="spacing" textLength="13" x="1196" y="320.6641">6</text><text fill="#000000" font-family="sans-serif" font-size="20" lengthAdjust="spacing" textLength="249" x="1213" y="320.6641">getAgencyListRepository()</text><polygon fill="#181818" points="1200,360.4375,1190,364.4375,1200,368.4375,1196,364.4375" style="stroke:#181818;stroke-width:1.0;"/><line style="stroke:#181818;stroke-width:1.0;stroke-dasharray:2.0,2.0;" x1="1194" x2="1539" y1="364.4375" y2="364.4375"/><text fill="#000000" font-family="sans-serif" font-size="20" font-weight="bold" lengthAdjust="spacing" textLength="13" x="1206" y="358.2188">7</text><text fill="#000000" font-family="sans-serif" font-size="20" lengthAdjust="spacing" textLength="205" x="1223" y="358.2188">AgencyListRepository</text><polygon fill="#181818" points="1991,397.9922,2001,401.9922,1991,405.9922,1995,401.9922" style="stroke:#181818;stroke-width:1.0;"/><line style="stroke:#181818;stroke-width:1.0;stroke-dasharray:2.0,2.0;" x1="1189" x2="1997" y1="401.9922" y2="401.9922"/><text fill="#000000" font-family="sans-serif" font-size="20" font-weight="bold" lengthAdjust="spacing" textLength="13" x="1196" y="395.7734">8</text><text fill="#000000" font-family="sans-serif" font-size="20" lengthAdjust="spacing" textLength="147" x="1213" y="395.7734">getAgencyList()</text><polygon fill="#181818" points="1200,435.5469,1190,439.5469,1200,443.5469,1196,439.5469" style="stroke:#181818;stroke-width:1.0;"/><line style="stroke:#181818;stroke-width:1.0;stroke-dasharray:2.0,2.0;" x1="1194" x2="2007" y1="439.5469" y2="439.5469"/><text fill="#000000" font-family="sans-serif" font-size="20" font-weight="bold" lengthAdjust="spacing" textLength="13" x="1206" y="433.3281">9</text><text fill="#000000" font-family="sans-serif" font-size="20" lengthAdjust="spacing" textLength="103" x="1223" y="433.3281">AgencyList</text><polygon fill="#181818" points="877,473.1016,867,477.1016,877,481.1016,873,477.1016" style="stroke:#181818;stroke-width:1.0;"/><line style="stroke:#181818;stroke-width:1.0;stroke-dasharray:2.0,2.0;" x1="871" x2="1183" y1="477.1016" y2="477.1016"/><text fill="#000000" font-family="sans-serif" font-size="20" font-weight="bold" lengthAdjust="spacing" textLength="26" x="883" y="470.8828">10</text><text fill="#000000" font-family="sans-serif" font-size="20" lengthAdjust="spacing" textLength="103" x="913" y="470.8828">AgencyList</text><polygon fill="#181818" points="70,510.6563,60,514.6563,70,518.6563,66,514.6563" style="stroke:#181818;stroke-width:1.0;"/><line style="stroke:#181818;stroke-width:1.0;stroke-dasharray:2.0,2.0;" x1="64" x2="860" y1="514.6563" y2="514.6563"/><text fill="#000000" font-family="sans-serif" font-size="20" font-weight="bold" lengthAdjust="spacing" textLength="26" x="76" y="508.4375">11</text><text fill="#000000" font-family="sans-serif" font-size="20" lengthAdjust="spacing" textLength="231" x="106" y="508.4375">displays list of Agencies</text><polygon fill="#181818" points="844,548.2109,854,552.2109,844,556.2109,848,552.2109" style="stroke:#181818;stroke-width:1.0;"/><line style="stroke:#181818;stroke-width:1.0;" x1="59" x2="850" y1="552.2109" y2="552.2109"/><text fill="#000000" font-family="sans-serif" font-size="20" font-weight="bold" lengthAdjust="spacing" textLength="26" x="66" y="545.9922">12</text><text fill="#000000" font-family="sans-serif" font-size="20" lengthAdjust="spacing" textLength="237" x="96" y="545.9922">submits selected Agency</text><line style="stroke:#181818;stroke-width:1.0;stroke-dasharray:2.0,2.0;" x1="866" x2="908" y1="589.7656" y2="589.7656"/><line style="stroke:#181818;stroke-width:1.0;stroke-dasharray:2.0,2.0;" x1="908" x2="908" y1="589.7656" y2="602.7656"/><line style="stroke:#181818;stroke-width:1.0;stroke-dasharray:2.0,2.0;" x1="867" x2="908" y1="602.7656" y2="602.7656"/><polygon fill="#181818" points="877,598.7656,867,602.7656,877,606.7656,873,602.7656" style="stroke:#181818;stroke-width:1.0;"/><text fill="#000000" font-family="sans-serif" font-size="20" font-weight="bold" lengthAdjust="spacing" textLength="26" x="873" y="583.5469">13</text><text fill="#000000" font-family="sans-serif" font-size="20" lengthAdjust="spacing" textLength="171" x="903" y="583.5469">Keep data Agency</text><polygon fill="#181818" points="1167,636.3203,1177,640.3203,1167,644.3203,1171,640.3203" style="stroke:#181818;stroke-width:1.0;"/><line style="stroke:#181818;stroke-width:1.0;stroke-dasharray:2.0,2.0;" x1="866" x2="1173" y1="640.3203" y2="640.3203"/><text fill="#000000" font-family="sans-serif" font-size="20" font-weight="bold" lengthAdjust="spacing" textLength="26" x="873" y="634.1016">14</text><text fill="#000000" font-family="sans-serif" font-size="20" lengthAdjust="spacing" textLength="171" x="903" y="634.1016">getEmployeeList()</text><polygon fill="#181818" points="1374,673.875,1384,677.875,1374,681.875,1378,677.875" style="stroke:#181818;stroke-width:1.0;"/><line style="stroke:#181818;stroke-width:1.0;" x1="1189" x2="1380" y1="677.875" y2="677.875"/><text fill="#000000" font-family="sans-serif" font-size="20" font-weight="bold" lengthAdjust="spacing" textLength="26" x="1196" y="671.6563">15</text><text fill="#000000" font-family="sans-serif" font-size="20" lengthAdjust="spacing" textLength="123" x="1226" y="671.6563">getInstance()</text><polygon fill="#181818" points="1200,711.4297,1190,715.4297,1200,719.4297,1196,715.4297" style="stroke:#181818;stroke-width:1.0;"/><line style="stroke:#181818;stroke-width:1.0;stroke-dasharray:2.0,2.0;" x1="1194" x2="1390" y1="715.4297" y2="715.4297"/><text fill="#000000" font-family="sans-serif" font-size="20" font-weight="bold" lengthAdjust="spacing" textLength="26" x="1206" y="709.2109">16</text><text fill="#000000" font-family="sans-serif" font-size="20" lengthAdjust="spacing" textLength="114" x="1236" y="709.2109">repositories</text><polygon fill="#181818" points="1523,748.9844,1533,752.9844,1523,756.9844,1527,752.9844" style="stroke:#181818;stroke-width:1.0;"/><line style="stroke:#181818;stroke-width:1.0;" x1="1189" x2="1529" y1="752.9844" y2="752.9844"/><text fill="#000000" font-family="sans-serif" font-size="20" font-weight="bold" lengthAdjust="spacing" textLength="26" x="1196" y="746.7656">17</text><text fill="#000000" font-family="sans-serif" font-size="20" lengthAdjust="spacing" textLength="273" x="1226" y="746.7656">getEmployeeListRepository()</text><polygon fill="#181818" points="1200,786.5391,1190,790.5391,1200,794.5391,1196,790.5391" style="stroke:#181818;stroke-width:1.0;"/><line style="stroke:#181818;stroke-width:1.0;stroke-dasharray:2.0,2.0;" x1="1194" x2="1539" y1="790.5391" y2="790.5391"/><text fill="#000000" font-family="sans-serif" font-size="20" font-weight="bold" lengthAdjust="spacing" textLength="26" x="1206" y="784.3203">18</text><text fill="#000000" font-family="sans-serif" font-size="20" lengthAdjust="spacing" textLength="195" x="1236" y="784.3203">EmployeeRepository</text><polygon fill="#181818" points="2221,824.0938,2231,828.0938,2221,832.0938,2225,828.0938" style="stroke:#181818;stroke-width:1.0;"/><line style="stroke:#181818;stroke-width:1.0;stroke-dasharray:2.0,2.0;" x1="1189" x2="2227" y1="828.0938" y2="828.0938"/><text fill="#000000" font-family="sans-serif" font-size="20" font-weight="bold" lengthAdjust="spacing" textLength="26" x="1196" y="821.875">19</text><text fill="#000000" font-family="sans-serif" font-size="20" lengthAdjust="spacing" textLength="171" x="1226" y="821.875">getEmployeeList()</text><polygon fill="#181818" points="1200,861.6484,1190,865.6484,1200,869.6484,1196,865.6484" style="stroke:#181818;stroke-width:1.0;"/><line style="stroke:#181818;stroke-width:1.0;stroke-dasharray:2.0,2.0;" x1="1194" x2="2237" y1="865.6484" y2="865.6484"/><text fill="#000000" font-family="sans-serif" font-size="20" font-weight="bold" lengthAdjust="spacing" textLength="26" x="1206" y="859.4297">20</text><text fill="#000000" font-family="sans-serif" font-size="20" lengthAdjust="spacing" textLength="127" x="1236" y="859.4297">EmployeeList</text><polygon fill="#181818" points="877,899.2031,867,903.2031,877,907.2031,873,903.2031" style="stroke:#181818;stroke-width:1.0;"/><line style="stroke:#181818;stroke-width:1.0;stroke-dasharray:2.0,2.0;" x1="871" x2="1183" y1="903.2031" y2="903.2031"/><text fill="#000000" font-family="sans-serif" font-size="20" font-weight="bold" lengthAdjust="spacing" textLength="26" x="883" y="896.9844">21</text><text fill="#000000" font-family="sans-serif" font-size="20" lengthAdjust="spacing" textLength="127" x="913" y="896.9844">EmployeeList</text><polygon fill="#181818" points="70,936.7578,60,940.7578,70,944.7578,66,940.7578" style="stroke:#181818;stroke-width:1.0;"/><line style="stroke:#181818;stroke-width:1.0;stroke-dasharray:2.0,2.0;" x1="64" x2="860" y1="940.7578" y2="940.7578"/><text fill="#000000" font-family="sans-serif" font-size="20" font-weight="bold" lengthAdjust="spacing" textLength="26" x="76" y="934.5391">22</text><text fill="#000000" font-family="sans-serif" font-size="20" lengthAdjust="spacing" textLength="347" x="106" y="934.5391">displays list of Employees as Agents</text><polygon fill="#181818" points="844,974.3125,854,978.3125,844,982.3125,848,978.3125" style="stroke:#181818;stroke-width:1.0;"/><line style="stroke:#181818;stroke-width:1.0;" x1="59" x2="850" y1="978.3125" y2="978.3125"/><text fill="#000000" font-family="sans-serif" font-size="20" font-weight="bold" lengthAdjust="spacing" textLength="26" x="66" y="972.0938">23</text><text fill="#000000" font-family="sans-serif" font-size="20" lengthAdjust="spacing" textLength="224" x="96" y="972.0938">submits selected Agent</text><line style="stroke:#181818;stroke-width:1.0;stroke-dasharray:2.0,2.0;" x1="866" x2="908" y1="1015.8672" y2="1015.8672"/><line style="stroke:#181818;stroke-width:1.0;stroke-dasharray:2.0,2.0;" x1="908" x2="908" y1="1015.8672" y2="1028.8672"/><line style="stroke:#181818;stroke-width:1.0;stroke-dasharray:2.0,2.0;" x1="867" x2="908" y1="1028.8672" y2="1028.8672"/><polygon fill="#181818" points="877,1024.8672,867,1028.8672,877,1032.8672,873,1028.8672" style="stroke:#181818;stroke-width:1.0;"/><text fill="#000000" font-family="sans-serif" font-size="20" font-weight="bold" lengthAdjust="spacing" textLength="26" x="873" y="1009.6484">24</text><text fill="#000000" font-family="sans-serif" font-size="20" lengthAdjust="spacing" textLength="158" x="903" y="1009.6484">Keep data Agent</text><polygon fill="#181818" points="70,1062.4219,60,1066.4219,70,1070.4219,66,1066.4219" style="stroke:#181818;stroke-width:1.0;"/><line style="stroke:#181818;stroke-width:1.0;stroke-dasharray:2.0,2.0;" x1="64" x2="860" y1="1066.4219" y2="1066.4219"/><text fill="#000000" font-family="sans-serif" font-size="20" font-weight="bold" lengthAdjust="spacing" textLength="26" x="76" y="1060.2031">25</text><text fill="#000000" font-family="sans-serif" font-size="20" lengthAdjust="spacing" textLength="266" x="106" y="1060.2031">requests type of transaction</text><polygon fill="#181818" points="844,1099.9766,854,1103.9766,844,1107.9766,848,1103.9766" style="stroke:#181818;stroke-width:1.0;"/><line style="stroke:#181818;stroke-width:1.0;" x1="59" x2="850" y1="1103.9766" y2="1103.9766"/><text fill="#000000" font-family="sans-serif" font-size="20" font-weight="bold" lengthAdjust="spacing" textLength="26" x="66" y="1097.7578">26</text><text fill="#000000" font-family="sans-serif" font-size="20" lengthAdjust="spacing" textLength="335" x="96" y="1097.7578">types requested data (Sale or Rent)</text><line style="stroke:#181818;stroke-width:1.0;stroke-dasharray:2.0,2.0;" x1="866" x2="908" y1="1141.5313" y2="1141.5313"/><line style="stroke:#181818;stroke-width:1.0;stroke-dasharray:2.0,2.0;" x1="908" x2="908" y1="1141.5313" y2="1154.5313"/><line style="stroke:#181818;stroke-width:1.0;stroke-dasharray:2.0,2.0;" x1="867" x2="908" y1="1154.5313" y2="1154.5313"/><polygon fill="#181818" points="877,1150.5313,867,1154.5313,877,1158.5313,873,1154.5313" style="stroke:#181818;stroke-width:1.0;"/><text fill="#000000" font-family="sans-serif" font-size="20" font-weight="bold" lengthAdjust="spacing" textLength="26" x="873" y="1135.3125">27</text><text fill="#000000" font-family="sans-serif" font-size="20" lengthAdjust="spacing" textLength="261" x="903" y="1135.3125">Keep data TransactionType</text><path d="M10,1169.5313 L89,1169.5313 L89,1185.0859 L79,1195.0859 L10,1195.0859 L10,1169.5313 " fill="#EEEEEE" style="stroke:#000000;stroke-width:1.5;"/><rect fill="none" height="159.7734" style="stroke:#000000;stroke-width:1.5;" width="1084" x="10" y="1169.5313"/><text fill="#000000" font-family="sans-serif" font-size="20" font-weight="bold" lengthAdjust="spacing" textLength="34" x="25" y="1189.8672">opt</text><text fill="#000000" font-family="sans-serif" font-size="20" font-weight="bold" lengthAdjust="spacing" textLength="61" x="104" y="1190.8672">[Rent]</text><polygon fill="#181818" points="70,1229.1953,60,1233.1953,70,1237.1953,66,1233.1953" style="stroke:#181818;stroke-width:1.0;"/><line style="stroke:#181818;stroke-width:1.0;stroke-dasharray:2.0,2.0;" x1="64" x2="860" y1="1233.1953" y2="1233.1953"/><text fill="#000000" font-family="sans-serif" font-size="20" font-weight="bold" lengthAdjust="spacing" textLength="26" x="76" y="1226.9766">28</text><text fill="#000000" font-family="sans-serif" font-size="20" lengthAdjust="spacing" textLength="242" x="106" y="1226.9766">request contract duration</text><polygon fill="#181818" points="844,1266.75,854,1270.75,844,1274.75,848,1270.75" style="stroke:#181818;stroke-width:1.0;"/><line style="stroke:#181818;stroke-width:1.0;" x1="59" x2="850" y1="1270.75" y2="1270.75"/><text fill="#000000" font-family="sans-serif" font-size="20" font-weight="bold" lengthAdjust="spacing" textLength="26" x="66" y="1264.5313">29</text><text fill="#000000" font-family="sans-serif" font-size="20" lengthAdjust="spacing" textLength="201" x="96" y="1264.5313">types requested data</text><line style="stroke:#181818;stroke-width:1.0;stroke-dasharray:2.0,2.0;" x1="866" x2="908" y1="1308.3047" y2="1308.3047"/><line style="stroke:#181818;stroke-width:1.0;stroke-dasharray:2.0,2.0;" x1="908" x2="908" y1="1308.3047" y2="1321.3047"/><line style="stroke:#181818;stroke-width:1.0;stroke-dasharray:2.0,2.0;" x1="867" x2="908" y1="1321.3047" y2="1321.3047"/><polygon fill="#181818" points="877,1317.3047,867,1321.3047,877,1325.3047,873,1321.3047" style="stroke:#181818;stroke-width:1.0;"/><text fill="#000000" font-family="sans-serif" font-size="20" font-weight="bold" lengthAdjust="spacing" textLength="26" x="873" y="1302.0859">30</text><text fill="#000000" font-family="sans-serif" font-size="20" lengthAdjust="spacing" textLength="179" x="903" y="1302.0859">Keep data contract</text><polygon fill="#181818" points="70,1361.8594,60,1365.8594,70,1369.8594,66,1365.8594" style="stroke:#181818;stroke-width:1.0;"/><line style="stroke:#181818;stroke-width:1.0;stroke-dasharray:2.0,2.0;" x1="64" x2="860" y1="1365.8594" y2="1365.8594"/><text fill="#000000" font-family="sans-serif" font-size="20" font-weight="bold" lengthAdjust="spacing" textLength="26" x="76" y="1359.6406">31</text><text fill="#000000" font-family="sans-serif" font-size="20" lengthAdjust="spacing" textLength="242" x="106" y="1359.6406">requests type of property</text><polygon fill="#181818" points="844,1399.4141,854,1403.4141,844,1407.4141,848,1403.4141" style="stroke:#181818;stroke-width:1.0;"/><line style="stroke:#181818;stroke-width:1.0;" x1="59" x2="850" y1="1403.4141" y2="1403.4141"/><text fill="#000000" font-family="sans-serif" font-size="20" font-weight="bold" lengthAdjust="spacing" textLength="26" x="66" y="1397.1953">32</text><text fill="#000000" font-family="sans-serif" font-size="20" lengthAdjust="spacing" textLength="465" x="96" y="1397.1953">types requested data (Apartement, House, Land)</text><line style="stroke:#181818;stroke-width:1.0;stroke-dasharray:2.0,2.0;" x1="866" x2="908" y1="1440.9688" y2="1440.9688"/><line style="stroke:#181818;stroke-width:1.0;stroke-dasharray:2.0,2.0;" x1="908" x2="908" y1="1440.9688" y2="1453.9688"/><line style="stroke:#181818;stroke-width:1.0;stroke-dasharray:2.0,2.0;" x1="867" x2="908" y1="1453.9688" y2="1453.9688"/><polygon fill="#181818" points="877,1449.9688,867,1453.9688,877,1457.9688,873,1453.9688" style="stroke:#181818;stroke-width:1.0;"/><text fill="#000000" font-family="sans-serif" font-size="20" font-weight="bold" lengthAdjust="spacing" textLength="26" x="873" y="1434.75">33</text><text fill="#000000" font-family="sans-serif" font-size="20" lengthAdjust="spacing" textLength="256" x="903" y="1434.75">Keep data type of property</text><polygon fill="#181818" points="70,1487.5234,60,1491.5234,70,1495.5234,66,1491.5234" style="stroke:#181818;stroke-width:1.0;"/><line style="stroke:#181818;stroke-width:1.0;stroke-dasharray:2.0,2.0;" x1="64" x2="860" y1="1491.5234" y2="1491.5234"/><text fill="#000000" font-family="sans-serif" font-size="20" font-weight="bold" lengthAdjust="spacing" textLength="26" x="76" y="1485.3047">34</text><text fill="#000000" font-family="sans-serif" font-size="20" lengthAdjust="spacing" textLength="243" x="106" y="1485.3047">requests data of property</text><path d="M10,1506.5234 L82,1506.5234 L82,1522.0781 L72,1532.0781 L10,1532.0781 L10,1506.5234 " fill="#EEEEEE" style="stroke:#000000;stroke-width:1.5;"/><rect fill="none" height="409.875" style="stroke:#000000;stroke-width:1.5;" width="950.5" x="10" y="1506.5234"/><text fill="#000000" font-family="sans-serif" font-size="20" font-weight="bold" lengthAdjust="spacing" textLength="27" x="25" y="1526.8594">alt</text><text fill="#000000" font-family="sans-serif" font-size="20" font-weight="bold" lengthAdjust="spacing" textLength="64" x="97" y="1527.8594">[Land]</text><polygon fill="#181818" points="844,1613.2969,854,1617.2969,844,1621.2969,848,1617.2969" style="stroke:#181818;stroke-width:1.0;"/><line style="stroke:#181818;stroke-width:1.0;" x1="59" x2="850" y1="1617.2969" y2="1617.2969"/><text fill="#000000" font-family="sans-serif" font-size="20" font-weight="bold" lengthAdjust="spacing" textLength="26" x="66" y="1587.5234">35</text><text fill="#000000" font-family="sans-serif" font-size="20" lengthAdjust="spacing" textLength="430" x="96" y="1563.9688">Select requested data (area (in m2), location,</text><text fill="#000000" font-family="sans-serif" font-size="20" lengthAdjust="spacing" textLength="500" x="96" y="1587.5234">distance from the city centre, requested price (USD),</text><text fill="#000000" font-family="sans-serif" font-size="20" lengthAdjust="spacing" textLength="129" x="96" y="1611.0781">photographs)</text><line style="stroke:#000000;stroke-width:1.0;stroke-dasharray:2.0,2.0;" x1="10" x2="960.5" y1="1626.2969" y2="1626.2969"/><text fill="#000000" font-family="sans-serif" font-size="20" font-weight="bold" lengthAdjust="spacing" textLength="135" x="15" y="1645.6328">[Apartement]</text><polygon fill="#181818" points="844,1747.0703,854,1751.0703,844,1755.0703,848,1751.0703" style="stroke:#181818;stroke-width:1.0;"/><line style="stroke:#181818;stroke-width:1.0;" x1="59" x2="850" y1="1751.0703" y2="1751.0703"/><text fill="#000000" font-family="sans-serif" font-size="20" font-weight="bold" lengthAdjust="spacing" textLength="26" x="66" y="1709.5195">36</text><text fill="#000000" font-family="sans-serif" font-size="20" lengthAdjust="spacing" textLength="714" x="96" y="1674.1875">Select requested data (area (in m2), location, distance from the city centre,</text><text fill="#000000" font-family="sans-serif" font-size="20" lengthAdjust="spacing" textLength="566" x="96" y="1697.7422">requested price (USD), photographs, number of bedrooms,</text><text fill="#000000" font-family="sans-serif" font-size="20" lengthAdjust="spacing" textLength="479" x="96" y="1721.2969">number of bathrooms, number of parking spaces,</text><text fill="#000000" font-family="sans-serif" font-size="20" lengthAdjust="spacing" textLength="708" x="96" y="1744.8516">any available equipment (such as central heating and/or air conditioning).</text><line style="stroke:#000000;stroke-width:1.0;stroke-dasharray:2.0,2.0;" x1="10" x2="960.5" y1="1760.0703" y2="1760.0703"/><text fill="#000000" font-family="sans-serif" font-size="20" font-weight="bold" lengthAdjust="spacing" textLength="79" x="15" y="1779.4063">[House]</text><polygon fill="#181818" points="844,1904.3984,854,1908.3984,844,1912.3984,848,1908.3984" style="stroke:#181818;stroke-width:1.0;"/><line style="stroke:#181818;stroke-width:1.0;" x1="59" x2="850" y1="1908.3984" y2="1908.3984"/><text fill="#000000" font-family="sans-serif" font-size="20" font-weight="bold" lengthAdjust="spacing" textLength="26" x="66" y="1855.0703">37</text><text fill="#000000" font-family="sans-serif" font-size="20" lengthAdjust="spacing" textLength="714" x="96" y="1807.9609">Select requested data (area (in m2), location, distance from the city centre,</text><text fill="#000000" font-family="sans-serif" font-size="20" lengthAdjust="spacing" textLength="566" x="96" y="1831.5156">requested price (USD), photographs, number of bedrooms,</text><text fill="#000000" font-family="sans-serif" font-size="20" lengthAdjust="spacing" textLength="479" x="96" y="1855.0703">number of bathrooms, number of parking spaces,</text><text fill="#000000" font-family="sans-serif" font-size="20" lengthAdjust="spacing" textLength="701" x="96" y="1878.625">any available equipment (such as central heating and/or air conditioning,</text><text fill="#000000" font-family="sans-serif" font-size="20" lengthAdjust="spacing" textLength="743" x="96" y="1902.1797">existence of a basement, existence of an inhabitable loft, sun exposure value.</text><line style="stroke:#181818;stroke-width:1.0;stroke-dasharray:2.0,2.0;" x1="866" x2="908" y1="1952.9531" y2="1952.9531"/><line style="stroke:#181818;stroke-width:1.0;stroke-dasharray:2.0,2.0;" x1="908" x2="908" y1="1952.9531" y2="1965.9531"/><line style="stroke:#181818;stroke-width:1.0;stroke-dasharray:2.0,2.0;" x1="867" x2="908" y1="1965.9531" y2="1965.9531"/><polygon fill="#181818" points="877,1961.9531,867,1965.9531,877,1969.9531,873,1965.9531" style="stroke:#181818;stroke-width:1.0;"/><text fill="#000000" font-family="sans-serif" font-size="20" font-weight="bold" lengthAdjust="spacing" textLength="26" x="873" y="1946.7344">38</text><text fill="#000000" font-family="sans-serif" font-size="20" lengthAdjust="spacing" textLength="209" x="903" y="1946.7344">Keep data of property</text><polygon fill="#181818" points="70,1999.5078,60,2003.5078,70,2007.5078,66,2003.5078" style="stroke:#181818;stroke-width:1.0;"/><line style="stroke:#181818;stroke-width:1.0;stroke-dasharray:2.0,2.0;" x1="64" x2="860" y1="2003.5078" y2="2003.5078"/><text fill="#000000" font-family="sans-serif" font-size="20" font-weight="bold" lengthAdjust="spacing" textLength="26" x="76" y="1997.2891">39</text><text fill="#000000" font-family="sans-serif" font-size="20" lengthAdjust="spacing" textLength="186" x="106" y="1997.2891">ask to confirm data</text><polygon fill="#181818" points="844,2037.0625,854,2041.0625,844,2045.0625,848,2041.0625" style="stroke:#181818;stroke-width:1.0;"/><line style="stroke:#181818;stroke-width:1.0;" x1="59" x2="850" y1="2041.0625" y2="2041.0625"/><text fill="#000000" font-family="sans-serif" font-size="20" font-weight="bold" lengthAdjust="spacing" textLength="26" x="66" y="2034.8438">40</text><text fill="#000000" font-family="sans-serif" font-size="20" lengthAdjust="spacing" textLength="201" x="96" y="2034.8438">confirm entered data</text><polygon fill="#181818" points="1167,2074.6172,1177,2078.6172,1167,2082.6172,1171,2078.6172" style="stroke:#181818;stroke-width:1.0;"/><line style="stroke:#181818;stroke-width:1.0;" x1="866" x2="1173" y1="2078.6172" y2="2078.6172"/><text fill="#000000" font-family="sans-serif" font-size="20" font-weight="bold" lengthAdjust="spacing" textLength="26" x="873" y="2072.3984">41</text><text fill="#000000" font-family="sans-serif" font-size="20" lengthAdjust="spacing" textLength="264" x="903" y="2072.3984">create Request with all data</text><polygon fill="#181818" points="1374,2112.1719,1384,2116.1719,1374,2120.1719,1378,2116.1719" style="stroke:#181818;stroke-width:1.0;"/><line style="stroke:#181818;stroke-width:1.0;" x1="1189" x2="1380" y1="2116.1719" y2="2116.1719"/><text fill="#000000" font-family="sans-serif" font-size="20" font-weight="bold" lengthAdjust="spacing" textLength="26" x="1196" y="2109.9531">42</text><text fill="#000000" font-family="sans-serif" font-size="20" lengthAdjust="spacing" textLength="123" x="1226" y="2109.9531">getInstance()</text><polygon fill="#181818" points="1200,2149.7266,1190,2153.7266,1200,2157.7266,1196,2153.7266" style="stroke:#181818;stroke-width:1.0;"/><line style="stroke:#181818;stroke-width:1.0;stroke-dasharray:2.0,2.0;" x1="1194" x2="1390" y1="2153.7266" y2="2153.7266"/><text fill="#000000" font-family="sans-serif" font-size="20" font-weight="bold" lengthAdjust="spacing" textLength="26" x="1206" y="2147.5078">43</text><text fill="#000000" font-family="sans-serif" font-size="20" lengthAdjust="spacing" textLength="114" x="1236" y="2147.5078">repositories</text><polygon fill="#181818" points="1735.5,2187.2813,1745.5,2191.2813,1735.5,2195.2813,1739.5,2191.2813" style="stroke:#181818;stroke-width:1.0;"/><line style="stroke:#181818;stroke-width:1.0;" x1="1189" x2="1741.5" y1="2191.2813" y2="2191.2813"/><text fill="#000000" font-family="sans-serif" font-size="20" font-weight="bold" lengthAdjust="spacing" textLength="26" x="1196" y="2185.0625">44</text><text fill="#000000" font-family="sans-serif" font-size="20" lengthAdjust="spacing" textLength="290" x="1226" y="2185.0625">getAnnouncementRepository()</text><polygon fill="#181818" points="1200,2224.8359,1190,2228.8359,1200,2232.8359,1196,2228.8359" style="stroke:#181818;stroke-width:1.0;"/><line style="stroke:#181818;stroke-width:1.0;stroke-dasharray:2.0,2.0;" x1="1194" x2="1746.5" y1="2228.8359" y2="2228.8359"/><text fill="#000000" font-family="sans-serif" font-size="20" font-weight="bold" lengthAdjust="spacing" textLength="26" x="1206" y="2222.6172">45</text><text fill="#000000" font-family="sans-serif" font-size="20" lengthAdjust="spacing" textLength="246" x="1236" y="2222.6172">AnnouncementRepository</text><polygon fill="#181818" points="1735.5,2262.3906,1745.5,2266.3906,1735.5,2270.3906,1739.5,2266.3906" style="stroke:#181818;stroke-width:1.0;"/><line style="stroke:#181818;stroke-width:1.0;" x1="1189" x2="1741.5" y1="2266.3906" y2="2266.3906"/><text fill="#000000" font-family="sans-serif" font-size="20" font-weight="bold" lengthAdjust="spacing" textLength="26" x="1196" y="2260.1719">46</text><text fill="#000000" font-family="sans-serif" font-size="20" lengthAdjust="spacing" textLength="264" x="1226" y="2260.1719">create Request with all data</text><polygon fill="#181818" points="2343.5,2299.9453,2353.5,2303.9453,2343.5,2307.9453,2347.5,2303.9453" style="stroke:#181818;stroke-width:1.0;"/><line style="stroke:#181818;stroke-width:1.0;" x1="1757.5" x2="2349.5" y1="2303.9453" y2="2303.9453"/><text fill="#000000" font-family="sans-serif" font-size="20" font-weight="bold" lengthAdjust="spacing" textLength="26" x="1764.5" y="2297.7266">47</text><text fill="#000000" font-family="sans-serif" font-size="20" lengthAdjust="spacing" textLength="408" x="1794.5" y="2297.7266">create AnnouncementRequest with all data</text><rect fill="#E3E3E3" height="61.1094" rx="2.5" ry="2.5" style="stroke:#181818;stroke-width:0.5;" width="97" x="2355.5" y="2274.3906"/><text fill="#000000" font-family="sans-serif" font-size="20" lengthAdjust="spacing" textLength="72" x="2368" y="2300.7266">request</text><text fill="#000000" font-family="sans-serif" font-size="20" lengthAdjust="spacing" textLength="83" x="2362.5" y="2324.2813">:Request</text><polygon fill="#181818" points="1200,2372.0547,1190,2376.0547,1200,2380.0547,1196,2376.0547" style="stroke:#181818;stroke-width:1.0;"/><line style="stroke:#181818;stroke-width:1.0;stroke-dasharray:2.0,2.0;" x1="1194" x2="1746.5" y1="2376.0547" y2="2376.0547"/><text fill="#000000" font-family="sans-serif" font-size="20" font-weight="bold" lengthAdjust="spacing" textLength="26" x="1206" y="2369.8359">48</text><text fill="#000000" font-family="sans-serif" font-size="20" lengthAdjust="spacing" textLength="72" x="1236" y="2369.8359">request</text><polygon fill="#181818" points="877,2409.6094,867,2413.6094,877,2417.6094,873,2413.6094" style="stroke:#181818;stroke-width:1.0;"/><line style="stroke:#181818;stroke-width:1.0;stroke-dasharray:2.0,2.0;" x1="871" x2="1183" y1="2413.6094" y2="2413.6094"/><text fill="#000000" font-family="sans-serif" font-size="20" font-weight="bold" lengthAdjust="spacing" textLength="26" x="883" y="2407.3906">49</text><text fill="#000000" font-family="sans-serif" font-size="20" lengthAdjust="spacing" textLength="72" x="913" y="2407.3906">request</text><polygon fill="#181818" points="70,2447.1641,60,2451.1641,70,2455.1641,66,2451.1641" style="stroke:#181818;stroke-width:1.0;"/><line style="stroke:#181818;stroke-width:1.0;stroke-dasharray:2.0,2.0;" x1="64" x2="860" y1="2451.1641" y2="2451.1641"/><text fill="#000000" font-family="sans-serif" font-size="20" font-weight="bold" lengthAdjust="spacing" textLength="26" x="76" y="2444.9453">50</text><text fill="#000000" font-family="sans-serif" font-size="20" lengthAdjust="spacing" textLength="256" x="106" y="2444.9453">displays operation success</text><!--SRC=[xLXBSzis4BxpL-puOiaZkx7RP58TCdLjfRKZrwuUoSKNY8GaZ4c01K0xwg_l0YGbIWH5gl5C3g5EDhZuzhq0FlN4U4maYKBXFz400ZedIQW_2gx7x5yA5syybOj09BZmbr945BHCQE5BJFmdig1ZlGefIEfhmXTXKK0jII1U65_0d8IAUXv9jE19DAFIyuwNBA0m5qBFn5UF-5f8EBf_uLGU0L5m_-MlmSX37Cry5XEkuQX_9IdHT4J_IQZIqnihDxtP9tI5BaaHXXderMGqt14VqLWeXiePLLPclR0QC-CFMhozHHPsFF8omCFmShAzuv9paN2VHfJh3Np_aRi_M1JtfntS1UN-QiZK3gfZESLqVDX674HnA5QKRk6L5orQUNatJZO5DaJshpIyWx-dW_74yqpAsJEcAakr1zdF_Wkd7p2rqCSjJw05-3QhC2POQbWe8upAPiSQ2OjXlMX-Y80u9kid9uYLWMJcR4dcqfau2Y-etiIhqor9hvNQeYfzJc4Gpb5FAVeDLzWnFaNiykurkgiSo-8k9RalVIXMh6DpG0_KjlRDbFfkg3OGZg0L7BDjuX2mc1lRdJKB-tnm0wSc8wmBq97kwdmxBIg9EzKKoclplRotu4mZzmtaQTum1U1gNA-g-DFcwqF0L1oIbO8GWK3CKrXd_HIiBJMWiwTLCekOLg1eY8S6dZ-foNj2Zh0LzbgNFr4QGq0qoP5gEpkVNMrlrxTsCLRxcxkkjtTQst60rFVrdiukunsMR8Sz9M67Za9b5JNjwvC6dc_rT5DSTxbkjtQfitDmbLyHjDgdmxIujxU_mTdW-fNQMtlk4RCpmBBRXmAzYgbnKql2bL7fFj9sVQoTOXPOvNhCBTfOs2dUKBg7ZRHgloSRsoUejGmhOftUYKg0nnjGsmpsHenGruaa1izvI6z7SnrCyBFD46Ix6mIoBfBkG3ft_R_WvKQNjb0UE66EY_5wa2AcKgzCt2i6I9FgYpCOxzk2LLbsb-RgRHyBFVXJ98hsO4XuqDrRW4vjbN6iTQKk5XRb6s91GWtMgmOrDRQZfnGcWYy0w30EqKMt1_ZyjLNSWqUEOz6Us337foxe9GMVwHNu6569mTm0nPAXL6SwlkwQVV5IQB6G95wgxa7TJl55ZDV4TTvUtQSQZnvvXKy5ZtgGljPDrcOqa494glV82uj4BzFLWYIwz6GU_IecFZNoXA-0F1CMaXaEHzJAOkCnT5JYBysfOsqY8IpnVMPsOev_mXbAc3JT6p3Z4AvtpogYQ2k-3M1j08tHz2kwHOrRg8cW0IeR6ziVE32-93EchSfGp5529HobyCgII0hF94peMQEXwfudnKdGT9RaR83WSoOZzqdHOAAMAYC7n41GMNK4rTrNrjV0RPu1NfZ698LX3QgzlFs0BmqtqvKzoPtVzhuzAeYpyeuAlSKtkXlgG4zgwg6vOHzoykpaP8svBTkatXhudSsrofnblImhUBJw5ya-mi5C13k0STpuEFuEUupyXlCdYK9lmq9_JuwxPRLRLhjbjLjMksMrMrQxPRLRLhjbjLjMksMrNu7L_i4PwfPjRjdcbcrksUQMRMxPvfPjRjdcbct-pcppGqYudjuDuPbAPT3EpoxUNFnyTjuPunIxnVbsyIkSN_JVlk-_VGTV1XCmdxjUvu-78IYHI9o3vW2GR9OOQxhUBKvW62LSiuZsuJwc_FRwKxu00_xCfE3s9B_zVBSHUFVBwUzCuzaZqHBuVETTfxmtxl15WFtHX-dau-bx3sysYuGi43lMtXMcI9lQUPZy1m00]--></g></svg>