<?xml version="1.0" encoding="UTF-8" standalone="no"?><svg xmlns="http://www.w3.org/2000/svg" xmlns:xlink="http://www.w3.org/1999/xlink" contentStyleType="text/css" height="2570px" preserveAspectRatio="none" style="width:3514px;height:2570px;background:#FFFFFF;" version="1.1" viewBox="0 0 3514 2570" width="3514px" zoomAndPan="magnify"><defs/><g><rect fill="#FFFFFF" height="2365.5" style="stroke:#181818;stroke-width:1.0;" width="10" x="34" y="98.5547"/><rect fill="#FFFFFF" height="410.1016" style="stroke:#181818;stroke-width:1.0;" width="10" x="528" y="128.1094"/><rect fill="#FFFFFF" height="37.5547" style="stroke:#181818;stroke-width:1.0;" width="10" x="528" y="575.7656"/><rect fill="#FFFFFF" height="37.5547" style="stroke:#181818;stroke-width:1.0;" width="10" x="528" y="697.9844"/><rect fill="#FFFFFF" height="1690.9609" style="stroke:#181818;stroke-width:1.0;" width="10" x="528" y="773.0938"/><rect fill="#FFFFFF" height="262.8828" style="stroke:#181818;stroke-width:1.0;" width="10" x="842.5" y="214.2188"/><rect fill="#FFFFFF" height="1498.0781" style="stroke:#181818;stroke-width:1.0;" width="10" x="842.5" y="928.4219"/><rect fill="#FFFFFF" height="273.8828" style="stroke:#181818;stroke-width:1.0;" width="10" x="847.5" y="973.9766"/><rect fill="#FFFFFF" height="622.4297" style="stroke:#181818;stroke-width:1.0;" width="10" x="847.5" y="1325.4141"/><rect fill="#FFFFFF" height="37.5547" style="stroke:#181818;stroke-width:1.0;" width="10" x="1438.5" y="251.7734"/><rect fill="#FFFFFF" height="37.5547" style="stroke:#181818;stroke-width:1.0;" width="10" x="1438.5" y="1016.5313"/><rect fill="#FFFFFF" height="37.5547" style="stroke:#181818;stroke-width:1.0;" width="10" x="1587.5" y="326.8828"/><rect fill="#FFFFFF" height="37.5547" style="stroke:#181818;stroke-width:1.0;" width="10" x="1587.5" y="1091.6406"/><rect fill="#FFFFFF" height="37.5547" style="stroke:#181818;stroke-width:1.0;" width="10" x="1587.5" y="1593.2969"/><rect fill="#FFFFFF" height="37.5547" style="stroke:#181818;stroke-width:1.0;" width="10" x="1790.5" y="401.9922"/><rect fill="#FFFFFF" height="37.5547" style="stroke:#181818;stroke-width:1.0;" width="10" x="1790.5" y="1166.75"/><rect fill="#FFFFFF" height="37.5547" style="stroke:#181818;stroke-width:1.0;" width="10" x="2025" y="1367.9688"/><rect fill="#FFFFFF" height="37.5547" style="stroke:#181818;stroke-width:1.0;" width="10" x="2237" y="1443.0781"/><rect fill="#FFFFFF" height="37.5547" style="stroke:#181818;stroke-width:1.0;" width="10" x="2425" y="1518.1875"/><rect fill="#FFFFFF" height="160.7734" style="stroke:#181818;stroke-width:1.0;" width="10" x="2633" y="1668.4063"/><rect fill="#FFFFFF" height="37.5547" style="stroke:#181818;stroke-width:1.0;" width="10" x="2974" y="1747.0703"/><rect fill="#FFFFFF" height="37.5547" style="stroke:#181818;stroke-width:1.0;" width="10" x="2974" y="1866.7344"/><rect fill="#FFFFFF" height="324.4375" style="stroke:#181818;stroke-width:1.0;" width="10" x="2974" y="2064.5078"/><rect fill="#FFFFFF" height="149.6641" style="stroke:#181818;stroke-width:1.0;" width="10" x="2979" y="2194.7266"/><rect fill="#FFFFFF" height="48.5547" style="stroke:#181818;stroke-width:1.0;" width="10" x="2984" y="2245.2813"/><rect fill="none" height="109.2188" style="stroke:#000000;stroke-width:1.5;" width="554" x="2507" y="1683.4063"/><line style="stroke:#181818;stroke-width:0.5;stroke-dasharray:5.0,5.0;" x1="39" x2="39" y1="88.5547" y2="2482.0547"/><line style="stroke:#181818;stroke-width:0.5;stroke-dasharray:5.0,5.0;" x1="533" x2="533" y1="88.5547" y2="2482.0547"/><line style="stroke:#181818;stroke-width:0.5;stroke-dasharray:5.0,5.0;" x1="847" x2="847" y1="170.3867" y2="2482.0547"/><line style="stroke:#181818;stroke-width:0.5;stroke-dasharray:5.0,5.0;" x1="1443" x2="1443" y1="88.5547" y2="2482.0547"/><line style="stroke:#181818;stroke-width:0.5;stroke-dasharray:5.0,5.0;" x1="1592" x2="1592" y1="88.5547" y2="2482.0547"/><line style="stroke:#181818;stroke-width:0.5;stroke-dasharray:5.0,5.0;" x1="1795" x2="1795" y1="88.5547" y2="2482.0547"/><line style="stroke:#181818;stroke-width:0.5;stroke-dasharray:5.0,5.0;" x1="2030" x2="2030" y1="88.5547" y2="2482.0547"/><line style="stroke:#181818;stroke-width:0.5;stroke-dasharray:5.0,5.0;" x1="2242" x2="2242" y1="88.5547" y2="2482.0547"/><line style="stroke:#181818;stroke-width:0.5;stroke-dasharray:5.0,5.0;" x1="2430" x2="2430" y1="88.5547" y2="2482.0547"/><line style="stroke:#181818;stroke-width:0.5;stroke-dasharray:5.0,5.0;" x1="2638" x2="2638" y1="88.5547" y2="2482.0547"/><line style="stroke:#181818;stroke-width:0.5;stroke-dasharray:5.0,5.0;" x1="2979" x2="2979" y1="88.5547" y2="2482.0547"/><line style="stroke:#181818;stroke-width:0.5;stroke-dasharray:5.0,5.0;" x1="3475" x2="3475" y1="2124.8398" y2="2482.0547"/><text fill="#000000" font-family="sans-serif" font-size="20" lengthAdjust="spacing" textLength="62" x="5" y="84.3359">Owner</text><ellipse cx="39" cy="13.5" fill="#E3E3E3" rx="8" ry="8" style="stroke:#181818;stroke-width:0.5;"/><path d="M39,21.5 L39,48.5 M26,29.5 L52,29.5 M39,48.5 L26,63.5 M39,48.5 L52,63.5 " fill="none" style="stroke:#181818;stroke-width:0.5;"/><text fill="#000000" font-family="sans-serif" font-size="20" lengthAdjust="spacing" textLength="62" x="5" y="2500.3906">Owner</text><ellipse cx="39" cy="2513.1094" fill="#E3E3E3" rx="8" ry="8" style="stroke:#181818;stroke-width:0.5;"/><path d="M39,2521.1094 L39,2548.1094 M26,2529.1094 L52,2529.1094 M39,2548.1094 L26,2563.1094 M39,2548.1094 L52,2563.1094 " fill="none" style="stroke:#181818;stroke-width:0.5;"/><rect fill="#E3E3E3" height="37.5547" rx="2.5" ry="2.5" style="stroke:#181818;stroke-width:0.5;" width="148" x="459" y="50"/><text fill="#000000" font-family="sans-serif" font-size="20" lengthAdjust="spacing" textLength="134" x="466" y="76.3359">:CreateTaskUI</text><rect fill="#E3E3E3" height="37.5547" rx="2.5" ry="2.5" style="stroke:#181818;stroke-width:0.5;" width="148" x="459" y="2481.0547"/><text fill="#000000" font-family="sans-serif" font-size="20" lengthAdjust="spacing" textLength="134" x="466" y="2507.3906">:CreateTaskUI</text><rect fill="#E3E3E3" height="37.5547" rx="2.5" ry="2.5" style="stroke:#181818;stroke-width:0.5;" width="255" x="720" y="2481.0547"/><text fill="#000000" font-family="sans-serif" font-size="20" lengthAdjust="spacing" textLength="241" x="727" y="2507.3906">:CreateRequestController</text><rect fill="#E3E3E3" height="37.5547" rx="2.5" ry="2.5" style="stroke:#181818;stroke-width:0.5;" width="139" x="1374" y="50"/><text fill="#000000" font-family="sans-serif" font-size="20" lengthAdjust="spacing" textLength="125" x="1381" y="76.3359">:Repositories</text><rect fill="#E3E3E3" height="37.5547" rx="2.5" ry="2.5" style="stroke:#181818;stroke-width:0.5;" width="139" x="1374" y="2481.0547"/><text fill="#000000" font-family="sans-serif" font-size="20" lengthAdjust="spacing" textLength="125" x="1381" y="2507.3906">:Repositories</text><rect fill="#E3E3E3" height="61.1094" rx="2.5" ry="2.5" style="stroke:#181818;stroke-width:0.5;" width="139" x="1523" y="26.4453"/><text fill="#000000" font-family="sans-serif" font-size="20" lengthAdjust="spacing" textLength="114" x="1535.5" y="52.7813">repositories</text><text fill="#000000" font-family="sans-serif" font-size="20" lengthAdjust="spacing" textLength="125" x="1530" y="76.3359">:Repositories</text><rect fill="#E3E3E3" height="61.1094" rx="2.5" ry="2.5" style="stroke:#181818;stroke-width:0.5;" width="139" x="1523" y="2481.0547"/><text fill="#000000" font-family="sans-serif" font-size="20" lengthAdjust="spacing" textLength="114" x="1535.5" y="2507.3906">repositories</text><text fill="#000000" font-family="sans-serif" font-size="20" lengthAdjust="spacing" textLength="125" x="1530" y="2530.9453">:Repositories</text><rect fill="#E3E3E3" height="61.1094" rx="2.5" ry="2.5" style="stroke:#181818;stroke-width:0.5;" width="247" x="1672" y="26.4453"/><text fill="#000000" font-family="sans-serif" font-size="20" lengthAdjust="spacing" textLength="233" x="1679" y="52.7813">taskCategoryRepository:</text><text fill="#000000" font-family="sans-serif" font-size="20" lengthAdjust="spacing" textLength="233" x="1679" y="76.3359">TaskCategoryRepository</text><rect fill="#E3E3E3" height="61.1094" rx="2.5" ry="2.5" style="stroke:#181818;stroke-width:0.5;" width="247" x="1672" y="2481.0547"/><text fill="#000000" font-family="sans-serif" font-size="20" lengthAdjust="spacing" textLength="233" x="1679" y="2507.3906">taskCategoryRepository:</text><text fill="#000000" font-family="sans-serif" font-size="20" lengthAdjust="spacing" textLength="233" x="1679" y="2530.9453">TaskCategoryRepository</text><rect fill="#E3E3E3" height="37.5547" rx="2.5" ry="2.5" style="stroke:#181818;stroke-width:0.5;" width="202" x="1929" y="50"/><text fill="#000000" font-family="sans-serif" font-size="20" lengthAdjust="spacing" textLength="188" x="1936" y="76.3359">:ApplicationSession</text><rect fill="#E3E3E3" height="37.5547" rx="2.5" ry="2.5" style="stroke:#181818;stroke-width:0.5;" width="202" x="1929" y="2481.0547"/><text fill="#000000" font-family="sans-serif" font-size="20" lengthAdjust="spacing" textLength="188" x="1936" y="2507.3906">:ApplicationSession</text><rect fill="#E3E3E3" height="61.1094" rx="2.5" ry="2.5" style="stroke:#181818;stroke-width:0.5;" width="202" x="2141" y="26.4453"/><text fill="#000000" font-family="sans-serif" font-size="20" lengthAdjust="spacing" textLength="109" x="2187.5" y="52.7813">appSession</text><text fill="#000000" font-family="sans-serif" font-size="20" lengthAdjust="spacing" textLength="188" x="2148" y="76.3359">:ApplicationSession</text><rect fill="#E3E3E3" height="61.1094" rx="2.5" ry="2.5" style="stroke:#181818;stroke-width:0.5;" width="202" x="2141" y="2481.0547"/><text fill="#000000" font-family="sans-serif" font-size="20" lengthAdjust="spacing" textLength="109" x="2187.5" y="2507.3906">appSession</text><text fill="#000000" font-family="sans-serif" font-size="20" lengthAdjust="spacing" textLength="188" x="2148" y="2530.9453">:ApplicationSession</text><rect fill="#E3E3E3" height="61.1094" rx="2.5" ry="2.5" style="stroke:#181818;stroke-width:0.5;" width="154" x="2353" y="26.4453"/><text fill="#000000" font-family="sans-serif" font-size="20" lengthAdjust="spacing" textLength="140" x="2360" y="52.7813">currentSession</text><text fill="#000000" font-family="sans-serif" font-size="20" lengthAdjust="spacing" textLength="121" x="2369.5" y="76.3359">:UserSession</text><rect fill="#E3E3E3" height="61.1094" rx="2.5" ry="2.5" style="stroke:#181818;stroke-width:0.5;" width="154" x="2353" y="2481.0547"/><text fill="#000000" font-family="sans-serif" font-size="20" lengthAdjust="spacing" textLength="140" x="2360" y="2507.3906">currentSession</text><text fill="#000000" font-family="sans-serif" font-size="20" lengthAdjust="spacing" textLength="121" x="2369.5" y="2530.9453">:UserSession</text><rect fill="#E3E3E3" height="61.1094" rx="2.5" ry="2.5" style="stroke:#181818;stroke-width:0.5;" width="242" x="2517" y="26.4453"/><text fill="#000000" font-family="sans-serif" font-size="20" lengthAdjust="spacing" textLength="228" x="2524" y="52.7813">organizationRepository:</text><text fill="#000000" font-family="sans-serif" font-size="20" lengthAdjust="spacing" textLength="226" x="2525" y="76.3359">OrganizationRepository</text><rect fill="#E3E3E3" height="61.1094" rx="2.5" ry="2.5" style="stroke:#181818;stroke-width:0.5;" width="242" x="2517" y="2481.0547"/><text fill="#000000" font-family="sans-serif" font-size="20" lengthAdjust="spacing" textLength="228" x="2524" y="2507.3906">organizationRepository:</text><text fill="#000000" font-family="sans-serif" font-size="20" lengthAdjust="spacing" textLength="226" x="2525" y="2530.9453">OrganizationRepository</text><rect fill="#E3E3E3" height="61.1094" rx="2.5" ry="2.5" style="stroke:#181818;stroke-width:0.5;" width="144" x="2907" y="26.4453"/><text fill="#000000" font-family="sans-serif" font-size="20" lengthAdjust="spacing" textLength="120" x="2919" y="52.7813">organization</text><text fill="#000000" font-family="sans-serif" font-size="20" lengthAdjust="spacing" textLength="130" x="2914" y="76.3359">:Organization</text><rect fill="#E3E3E3" height="61.1094" rx="2.5" ry="2.5" style="stroke:#181818;stroke-width:0.5;" width="144" x="2907" y="2481.0547"/><text fill="#000000" font-family="sans-serif" font-size="20" lengthAdjust="spacing" textLength="120" x="2919" y="2507.3906">organization</text><text fill="#000000" font-family="sans-serif" font-size="20" lengthAdjust="spacing" textLength="130" x="2914" y="2530.9453">:Organization</text><rect fill="#E3E3E3" height="61.1094" rx="2.5" ry="2.5" style="stroke:#181818;stroke-width:0.5;" width="66" x="3442" y="2481.0547"/><text fill="#000000" font-family="sans-serif" font-size="20" lengthAdjust="spacing" textLength="40" x="3455" y="2507.3906">task</text><text fill="#000000" font-family="sans-serif" font-size="20" lengthAdjust="spacing" textLength="52" x="3449" y="2530.9453">:Task</text><rect fill="#FFFFFF" height="2365.5" style="stroke:#181818;stroke-width:1.0;" width="10" x="34" y="98.5547"/><rect fill="#FFFFFF" height="410.1016" style="stroke:#181818;stroke-width:1.0;" width="10" x="528" y="128.1094"/><rect fill="#FFFFFF" height="37.5547" style="stroke:#181818;stroke-width:1.0;" width="10" x="528" y="575.7656"/><rect fill="#FFFFFF" height="37.5547" style="stroke:#181818;stroke-width:1.0;" width="10" x="528" y="697.9844"/><rect fill="#FFFFFF" height="1690.9609" style="stroke:#181818;stroke-width:1.0;" width="10" x="528" y="773.0938"/><rect fill="#FFFFFF" height="262.8828" style="stroke:#181818;stroke-width:1.0;" width="10" x="842.5" y="214.2188"/><rect fill="#FFFFFF" height="1498.0781" style="stroke:#181818;stroke-width:1.0;" width="10" x="842.5" y="928.4219"/><rect fill="#FFFFFF" height="273.8828" style="stroke:#181818;stroke-width:1.0;" width="10" x="847.5" y="973.9766"/><rect fill="#FFFFFF" height="622.4297" style="stroke:#181818;stroke-width:1.0;" width="10" x="847.5" y="1325.4141"/><rect fill="#FFFFFF" height="37.5547" style="stroke:#181818;stroke-width:1.0;" width="10" x="1438.5" y="251.7734"/><rect fill="#FFFFFF" height="37.5547" style="stroke:#181818;stroke-width:1.0;" width="10" x="1438.5" y="1016.5313"/><rect fill="#FFFFFF" height="37.5547" style="stroke:#181818;stroke-width:1.0;" width="10" x="1587.5" y="326.8828"/><rect fill="#FFFFFF" height="37.5547" style="stroke:#181818;stroke-width:1.0;" width="10" x="1587.5" y="1091.6406"/><rect fill="#FFFFFF" height="37.5547" style="stroke:#181818;stroke-width:1.0;" width="10" x="1587.5" y="1593.2969"/><rect fill="#FFFFFF" height="37.5547" style="stroke:#181818;stroke-width:1.0;" width="10" x="1790.5" y="401.9922"/><rect fill="#FFFFFF" height="37.5547" style="stroke:#181818;stroke-width:1.0;" width="10" x="1790.5" y="1166.75"/><rect fill="#FFFFFF" height="37.5547" style="stroke:#181818;stroke-width:1.0;" width="10" x="2025" y="1367.9688"/><rect fill="#FFFFFF" height="37.5547" style="stroke:#181818;stroke-width:1.0;" width="10" x="2237" y="1443.0781"/><rect fill="#FFFFFF" height="37.5547" style="stroke:#181818;stroke-width:1.0;" width="10" x="2425" y="1518.1875"/><rect fill="#FFFFFF" height="160.7734" style="stroke:#181818;stroke-width:1.0;" width="10" x="2633" y="1668.4063"/><rect fill="#FFFFFF" height="37.5547" style="stroke:#181818;stroke-width:1.0;" width="10" x="2974" y="1747.0703"/><rect fill="#FFFFFF" height="37.5547" style="stroke:#181818;stroke-width:1.0;" width="10" x="2974" y="1866.7344"/><rect fill="#FFFFFF" height="324.4375" style="stroke:#181818;stroke-width:1.0;" width="10" x="2974" y="2064.5078"/><rect fill="#FFFFFF" height="149.6641" style="stroke:#181818;stroke-width:1.0;" width="10" x="2979" y="2194.7266"/><rect fill="#FFFFFF" height="48.5547" style="stroke:#181818;stroke-width:1.0;" width="10" x="2984" y="2245.2813"/><polygon fill="#181818" points="516,124.1094,526,128.1094,516,132.1094,520,128.1094" style="stroke:#181818;stroke-width:1.0;"/><line style="stroke:#181818;stroke-width:1.0;" x1="44" x2="522" y1="128.1094" y2="128.1094"/><text fill="#000000" font-family="sans-serif" font-size="20" font-weight="bold" lengthAdjust="spacing" textLength="13" x="51" y="121.8906">1</text><text fill="#000000" font-family="sans-serif" font-size="20" lengthAdjust="spacing" textLength="242" x="68" y="121.8906">ask to create Sale or Rent</text><polygon fill="#181818" points="708,161.6641,718,165.6641,708,169.6641,712,165.6641" style="stroke:#181818;stroke-width:1.0;"/><line style="stroke:#181818;stroke-width:1.0;" x1="538" x2="714" y1="165.6641" y2="165.6641"/><text fill="#000000" font-family="sans-serif" font-size="20" font-weight="bold" lengthAdjust="spacing" textLength="13" x="545" y="159.4453">2</text><text fill="#000000" font-family="sans-serif" font-size="20" lengthAdjust="spacing" textLength="141" x="562" y="159.4453">create Request</text><rect fill="#E3E3E3" height="37.5547" rx="2.5" ry="2.5" style="stroke:#181818;stroke-width:0.5;" width="255" x="720" y="136.1094"/><text fill="#000000" font-family="sans-serif" font-size="20" lengthAdjust="spacing" textLength="241" x="727" y="162.4453">:CreateRequestController</text><polygon fill="#181818" points="830.5,210.2188,840.5,214.2188,830.5,218.2188,834.5,214.2188" style="stroke:#181818;stroke-width:1.0;"/><line style="stroke:#181818;stroke-width:1.0;" x1="538" x2="836.5" y1="214.2188" y2="214.2188"/><text fill="#000000" font-family="sans-serif" font-size="20" font-weight="bold" lengthAdjust="spacing" textLength="13" x="545" y="208">3</text><text fill="#000000" font-family="sans-serif" font-size="20" lengthAdjust="spacing" textLength="192" x="562" y="208">getTaskCategories()</text><polygon fill="#181818" points="1426.5,247.7734,1436.5,251.7734,1426.5,255.7734,1430.5,251.7734" style="stroke:#181818;stroke-width:1.0;"/><line style="stroke:#181818;stroke-width:1.0;" x1="852.5" x2="1432.5" y1="251.7734" y2="251.7734"/><text fill="#000000" font-family="sans-serif" font-size="20" font-weight="bold" lengthAdjust="spacing" textLength="13" x="859.5" y="245.5547">4</text><text fill="#000000" font-family="sans-serif" font-size="20" lengthAdjust="spacing" textLength="123" x="876.5" y="245.5547">getInstance()</text><polygon fill="#181818" points="863.5,285.3281,853.5,289.3281,863.5,293.3281,859.5,289.3281" style="stroke:#181818;stroke-width:1.0;"/><line style="stroke:#181818;stroke-width:1.0;stroke-dasharray:2.0,2.0;" x1="857.5" x2="1442.5" y1="289.3281" y2="289.3281"/><text fill="#000000" font-family="sans-serif" font-size="20" font-weight="bold" lengthAdjust="spacing" textLength="13" x="869.5" y="283.1094">5</text><text fill="#000000" font-family="sans-serif" font-size="20" lengthAdjust="spacing" textLength="114" x="886.5" y="283.1094">repositories</text><polygon fill="#181818" points="1575.5,322.8828,1585.5,326.8828,1575.5,330.8828,1579.5,326.8828" style="stroke:#181818;stroke-width:1.0;"/><line style="stroke:#181818;stroke-width:1.0;" x1="852.5" x2="1581.5" y1="326.8828" y2="326.8828"/><text fill="#000000" font-family="sans-serif" font-size="20" font-weight="bold" lengthAdjust="spacing" textLength="13" x="859.5" y="320.6641">6</text><text fill="#000000" font-family="sans-serif" font-size="20" lengthAdjust="spacing" textLength="277" x="876.5" y="320.6641">getTaskCategoryRepository()</text><polygon fill="#181818" points="863.5,360.4375,853.5,364.4375,863.5,368.4375,859.5,364.4375" style="stroke:#181818;stroke-width:1.0;"/><line style="stroke:#181818;stroke-width:1.0;stroke-dasharray:2.0,2.0;" x1="857.5" x2="1591.5" y1="364.4375" y2="364.4375"/><text fill="#000000" font-family="sans-serif" font-size="20" font-weight="bold" lengthAdjust="spacing" textLength="13" x="869.5" y="358.2188">7</text><text fill="#000000" font-family="sans-serif" font-size="20" lengthAdjust="spacing" textLength="227" x="886.5" y="358.2188">taskCategoryRepository</text><polygon fill="#181818" points="1778.5,397.9922,1788.5,401.9922,1778.5,405.9922,1782.5,401.9922" style="stroke:#181818;stroke-width:1.0;"/><line style="stroke:#181818;stroke-width:1.0;" x1="852.5" x2="1784.5" y1="401.9922" y2="401.9922"/><text fill="#000000" font-family="sans-serif" font-size="20" font-weight="bold" lengthAdjust="spacing" textLength="13" x="859.5" y="395.7734">8</text><text fill="#000000" font-family="sans-serif" font-size="20" lengthAdjust="spacing" textLength="192" x="876.5" y="395.7734">getTaskCategories()</text><polygon fill="#181818" points="863.5,435.5469,853.5,439.5469,863.5,443.5469,859.5,439.5469" style="stroke:#181818;stroke-width:1.0;"/><line style="stroke:#181818;stroke-width:1.0;stroke-dasharray:2.0,2.0;" x1="857.5" x2="1794.5" y1="439.5469" y2="439.5469"/><text fill="#000000" font-family="sans-serif" font-size="20" font-weight="bold" lengthAdjust="spacing" textLength="13" x="869.5" y="433.3281">9</text><text fill="#000000" font-family="sans-serif" font-size="20" lengthAdjust="spacing" textLength="159" x="886.5" y="433.3281">taskCategoryList</text><polygon fill="#181818" points="549,473.1016,539,477.1016,549,481.1016,545,477.1016" style="stroke:#181818;stroke-width:1.0;"/><line style="stroke:#181818;stroke-width:1.0;stroke-dasharray:2.0,2.0;" x1="543" x2="846.5" y1="477.1016" y2="477.1016"/><text fill="#000000" font-family="sans-serif" font-size="20" font-weight="bold" lengthAdjust="spacing" textLength="26" x="555" y="470.8828">10</text><text fill="#000000" font-family="sans-serif" font-size="20" lengthAdjust="spacing" textLength="159" x="585" y="470.8828">taskCategoryList</text><polygon fill="#181818" points="55,534.2109,45,538.2109,55,542.2109,51,538.2109" style="stroke:#181818;stroke-width:1.0;"/><line style="stroke:#181818;stroke-width:1.0;stroke-dasharray:2.0,2.0;" x1="49" x2="532" y1="538.2109" y2="538.2109"/><text fill="#000000" font-family="sans-serif" font-size="20" font-weight="bold" lengthAdjust="spacing" textLength="26" x="61" y="520.2148">11</text><text fill="#000000" font-family="sans-serif" font-size="20" lengthAdjust="spacing" textLength="227" x="91" y="508.4375">shows task category list</text><text fill="#000000" font-family="sans-serif" font-size="20" lengthAdjust="spacing" textLength="212" x="97" y="531.9922">and asks to sleect one</text><polygon fill="#181818" points="516,571.7656,526,575.7656,516,579.7656,520,575.7656" style="stroke:#181818;stroke-width:1.0;"/><line style="stroke:#181818;stroke-width:1.0;" x1="44" x2="522" y1="575.7656" y2="575.7656"/><text fill="#000000" font-family="sans-serif" font-size="20" font-weight="bold" lengthAdjust="spacing" textLength="26" x="51" y="569.5469">12</text><text fill="#000000" font-family="sans-serif" font-size="20" lengthAdjust="spacing" textLength="215" x="81" y="569.5469">selects a task category</text><polygon fill="#181818" points="55,609.3203,45,613.3203,55,617.3203,51,613.3203" style="stroke:#181818;stroke-width:1.0;"/><line style="stroke:#181818;stroke-width:1.0;stroke-dasharray:2.0,2.0;" x1="49" x2="532" y1="613.3203" y2="613.3203"/><text fill="#000000" font-family="sans-serif" font-size="20" font-weight="bold" lengthAdjust="spacing" textLength="26" x="61" y="607.1016">13</text><text fill="#000000" font-family="sans-serif" font-size="20" lengthAdjust="spacing" textLength="130" x="91" y="607.1016">requests data</text><polygon fill="#181818" points="516,693.9844,526,697.9844,516,701.9844,520,697.9844" style="stroke:#181818;stroke-width:1.0;"/><line style="stroke:#181818;stroke-width:1.0;" x1="44" x2="522" y1="697.9844" y2="697.9844"/><text fill="#000000" font-family="sans-serif" font-size="20" font-weight="bold" lengthAdjust="spacing" textLength="26" x="51" y="668.2109">14</text><text fill="#000000" font-family="sans-serif" font-size="20" lengthAdjust="spacing" textLength="429" x="81" y="644.6563">types requested data (reference, description,</text><text fill="#000000" font-family="sans-serif" font-size="20" lengthAdjust="spacing" textLength="412" x="81" y="668.2109">informal description, technical description,</text><text fill="#000000" font-family="sans-serif" font-size="20" lengthAdjust="spacing" textLength="139" x="81" y="691.7656">duration, cost)</text><polygon fill="#181818" points="55,731.5391,45,735.5391,55,739.5391,51,735.5391" style="stroke:#181818;stroke-width:1.0;"/><line style="stroke:#181818;stroke-width:1.0;stroke-dasharray:2.0,2.0;" x1="49" x2="532" y1="735.5391" y2="735.5391"/><text fill="#000000" font-family="sans-serif" font-size="20" font-weight="bold" lengthAdjust="spacing" textLength="26" x="61" y="729.3203">15</text><text fill="#000000" font-family="sans-serif" font-size="20" lengthAdjust="spacing" textLength="423" x="91" y="729.3203">shows selected category and requested data</text><polygon fill="#181818" points="516,769.0938,526,773.0938,516,777.0938,520,773.0938" style="stroke:#181818;stroke-width:1.0;"/><line style="stroke:#181818;stroke-width:1.0;" x1="44" x2="522" y1="773.0938" y2="773.0938"/><text fill="#000000" font-family="sans-serif" font-size="20" font-weight="bold" lengthAdjust="spacing" textLength="26" x="51" y="766.875">16</text><text fill="#000000" font-family="sans-serif" font-size="20" lengthAdjust="spacing" textLength="125" x="81" y="766.875">submits data</text><polygon fill="#181818" points="830.5,924.4219,840.5,928.4219,830.5,932.4219,834.5,928.4219" style="stroke:#181818;stroke-width:1.0;"/><line style="stroke:#181818;stroke-width:1.0;" x1="538" x2="836.5" y1="928.4219" y2="928.4219"/><text fill="#000000" font-family="sans-serif" font-size="20" font-weight="bold" lengthAdjust="spacing" textLength="26" x="545" y="863.3164">17</text><text fill="#000000" font-family="sans-serif" font-size="20" lengthAdjust="spacing" textLength="206" x="575" y="804.4297">createTask(reference,</text><text fill="#000000" font-family="sans-serif" font-size="20" lengthAdjust="spacing" textLength="114" x="575" y="827.9844">description,</text><text fill="#000000" font-family="sans-serif" font-size="20" lengthAdjust="spacing" textLength="197" x="575" y="851.5391">informalDescription,</text><text fill="#000000" font-family="sans-serif" font-size="20" lengthAdjust="spacing" textLength="201" x="575" y="875.0938">technicalDescription,</text><text fill="#000000" font-family="sans-serif" font-size="20" lengthAdjust="spacing" textLength="138" x="575" y="898.6484">duration, cost,</text><text fill="#000000" font-family="sans-serif" font-size="20" lengthAdjust="spacing" textLength="242" x="575" y="922.2031">taskCategoryDescription)</text><line style="stroke:#181818;stroke-width:1.0;" x1="852.5" x2="899.5" y1="960.9766" y2="960.9766"/><line style="stroke:#181818;stroke-width:1.0;" x1="899.5" x2="899.5" y1="960.9766" y2="973.9766"/><line style="stroke:#181818;stroke-width:1.0;" x1="858.5" x2="899.5" y1="973.9766" y2="973.9766"/><polygon fill="#181818" points="868.5,969.9766,858.5,973.9766,868.5,977.9766,864.5,973.9766" style="stroke:#181818;stroke-width:1.0;"/><text fill="#000000" font-family="sans-serif" font-size="20" font-weight="bold" lengthAdjust="spacing" textLength="26" x="864.5" y="954.7578">18</text><text fill="#000000" font-family="sans-serif" font-size="20" lengthAdjust="spacing" textLength="542" x="894.5" y="954.7578">getTaskCategoryByDescription(taskCategoryDescription)</text><polygon fill="#181818" points="1426.5,1012.5313,1436.5,1016.5313,1426.5,1020.5313,1430.5,1016.5313" style="stroke:#181818;stroke-width:1.0;"/><line style="stroke:#181818;stroke-width:1.0;" x1="857.5" x2="1432.5" y1="1016.5313" y2="1016.5313"/><text fill="#000000" font-family="sans-serif" font-size="20" font-weight="bold" lengthAdjust="spacing" textLength="26" x="864.5" y="1010.3125">19</text><text fill="#000000" font-family="sans-serif" font-size="20" lengthAdjust="spacing" textLength="123" x="894.5" y="1010.3125">getInstance()</text><polygon fill="#181818" points="868.5,1050.0859,858.5,1054.0859,868.5,1058.0859,864.5,1054.0859" style="stroke:#181818;stroke-width:1.0;"/><line style="stroke:#181818;stroke-width:1.0;stroke-dasharray:2.0,2.0;" x1="862.5" x2="1442.5" y1="1054.0859" y2="1054.0859"/><text fill="#000000" font-family="sans-serif" font-size="20" font-weight="bold" lengthAdjust="spacing" textLength="26" x="874.5" y="1047.8672">20</text><text fill="#000000" font-family="sans-serif" font-size="20" lengthAdjust="spacing" textLength="114" x="904.5" y="1047.8672">repositories</text><polygon fill="#181818" points="1575.5,1087.6406,1585.5,1091.6406,1575.5,1095.6406,1579.5,1091.6406" style="stroke:#181818;stroke-width:1.0;"/><line style="stroke:#181818;stroke-width:1.0;" x1="857.5" x2="1581.5" y1="1091.6406" y2="1091.6406"/><text fill="#000000" font-family="sans-serif" font-size="20" font-weight="bold" lengthAdjust="spacing" textLength="26" x="864.5" y="1085.4219">21</text><text fill="#000000" font-family="sans-serif" font-size="20" lengthAdjust="spacing" textLength="277" x="894.5" y="1085.4219">getTaskCategoryRepository()</text><polygon fill="#181818" points="868.5,1125.1953,858.5,1129.1953,868.5,1133.1953,864.5,1129.1953" style="stroke:#181818;stroke-width:1.0;"/><line style="stroke:#181818;stroke-width:1.0;" x1="862.5" x2="1591.5" y1="1129.1953" y2="1129.1953"/><text fill="#000000" font-family="sans-serif" font-size="20" font-weight="bold" lengthAdjust="spacing" textLength="26" x="874.5" y="1122.9766">22</text><text fill="#000000" font-family="sans-serif" font-size="20" lengthAdjust="spacing" textLength="227" x="904.5" y="1122.9766">taskCategoryRepository</text><polygon fill="#181818" points="1778.5,1162.75,1788.5,1166.75,1778.5,1170.75,1782.5,1166.75" style="stroke:#181818;stroke-width:1.0;"/><line style="stroke:#181818;stroke-width:1.0;" x1="857.5" x2="1784.5" y1="1166.75" y2="1166.75"/><text fill="#000000" font-family="sans-serif" font-size="20" font-weight="bold" lengthAdjust="spacing" textLength="26" x="864.5" y="1160.5313">23</text><text fill="#000000" font-family="sans-serif" font-size="20" lengthAdjust="spacing" textLength="542" x="894.5" y="1160.5313">getTaskCategoryByDescription(taskCategoryDescription)</text><polygon fill="#181818" points="868.5,1200.3047,858.5,1204.3047,868.5,1208.3047,864.5,1204.3047" style="stroke:#181818;stroke-width:1.0;"/><line style="stroke:#181818;stroke-width:1.0;stroke-dasharray:2.0,2.0;" x1="862.5" x2="1794.5" y1="1204.3047" y2="1204.3047"/><text fill="#000000" font-family="sans-serif" font-size="20" font-weight="bold" lengthAdjust="spacing" textLength="26" x="874.5" y="1198.0859">24</text><text fill="#000000" font-family="sans-serif" font-size="20" lengthAdjust="spacing" textLength="125" x="904.5" y="1198.0859">taskCategory</text><line style="stroke:#181818;stroke-width:1.0;stroke-dasharray:2.0,2.0;" x1="857.5" x2="899.5" y1="1246.8594" y2="1246.8594"/><line style="stroke:#181818;stroke-width:1.0;stroke-dasharray:2.0,2.0;" x1="899.5" x2="899.5" y1="1246.8594" y2="1259.8594"/><line style="stroke:#181818;stroke-width:1.0;stroke-dasharray:2.0,2.0;" x1="852.5" x2="899.5" y1="1259.8594" y2="1259.8594"/><polygon fill="#181818" points="862.5,1255.8594,852.5,1259.8594,862.5,1263.8594,858.5,1259.8594" style="stroke:#181818;stroke-width:1.0;"/><text fill="#000000" font-family="sans-serif" font-size="20" font-weight="bold" lengthAdjust="spacing" textLength="26" x="864.5" y="1240.6406">25</text><text fill="#000000" font-family="sans-serif" font-size="20" lengthAdjust="spacing" textLength="125" x="894.5" y="1240.6406">taskCategory</text><line style="stroke:#181818;stroke-width:1.0;" x1="852.5" x2="899.5" y1="1312.4141" y2="1312.4141"/><line style="stroke:#181818;stroke-width:1.0;" x1="899.5" x2="899.5" y1="1312.4141" y2="1325.4141"/><line style="stroke:#181818;stroke-width:1.0;" x1="858.5" x2="899.5" y1="1325.4141" y2="1325.4141"/><polygon fill="#181818" points="868.5,1321.4141,858.5,1325.4141,868.5,1329.4141,864.5,1325.4141" style="stroke:#181818;stroke-width:1.0;"/><text fill="#000000" font-family="sans-serif" font-size="20" font-weight="bold" lengthAdjust="spacing" textLength="26" x="864.5" y="1306.1953">26</text><text fill="#000000" font-family="sans-serif" font-size="20" lengthAdjust="spacing" textLength="259" x="894.5" y="1306.1953">getEmployeeFromSession()</text><polygon fill="#181818" points="2013,1363.9688,2023,1367.9688,2013,1371.9688,2017,1367.9688" style="stroke:#181818;stroke-width:1.0;"/><line style="stroke:#181818;stroke-width:1.0;" x1="857.5" x2="2019" y1="1367.9688" y2="1367.9688"/><text fill="#000000" font-family="sans-serif" font-size="20" font-weight="bold" lengthAdjust="spacing" textLength="26" x="864.5" y="1361.75">27</text><text fill="#000000" font-family="sans-serif" font-size="20" lengthAdjust="spacing" textLength="123" x="894.5" y="1361.75">getInstance()</text><polygon fill="#181818" points="868.5,1401.5234,858.5,1405.5234,868.5,1409.5234,864.5,1405.5234" style="stroke:#181818;stroke-width:1.0;"/><line style="stroke:#181818;stroke-width:1.0;" x1="862.5" x2="2029" y1="1405.5234" y2="1405.5234"/><text fill="#000000" font-family="sans-serif" font-size="20" font-weight="bold" lengthAdjust="spacing" textLength="26" x="874.5" y="1399.3047">28</text><text fill="#000000" font-family="sans-serif" font-size="20" lengthAdjust="spacing" textLength="109" x="904.5" y="1399.3047">appSession</text><polygon fill="#181818" points="2225,1439.0781,2235,1443.0781,2225,1447.0781,2229,1443.0781" style="stroke:#181818;stroke-width:1.0;"/><line style="stroke:#181818;stroke-width:1.0;" x1="857.5" x2="2231" y1="1443.0781" y2="1443.0781"/><text fill="#000000" font-family="sans-serif" font-size="20" font-weight="bold" lengthAdjust="spacing" textLength="26" x="864.5" y="1436.8594">29</text><text fill="#000000" font-family="sans-serif" font-size="20" lengthAdjust="spacing" textLength="188" x="894.5" y="1436.8594">getCurrentSession()</text><polygon fill="#181818" points="868.5,1476.6328,858.5,1480.6328,868.5,1484.6328,864.5,1480.6328" style="stroke:#181818;stroke-width:1.0;"/><line style="stroke:#181818;stroke-width:1.0;stroke-dasharray:2.0,2.0;" x1="862.5" x2="2241" y1="1480.6328" y2="1480.6328"/><text fill="#000000" font-family="sans-serif" font-size="20" font-weight="bold" lengthAdjust="spacing" textLength="26" x="874.5" y="1474.4141">30</text><text fill="#000000" font-family="sans-serif" font-size="20" lengthAdjust="spacing" textLength="140" x="904.5" y="1474.4141">currentSession</text><polygon fill="#181818" points="2413,1514.1875,2423,1518.1875,2413,1522.1875,2417,1518.1875" style="stroke:#181818;stroke-width:1.0;"/><line style="stroke:#181818;stroke-width:1.0;" x1="857.5" x2="2419" y1="1518.1875" y2="1518.1875"/><text fill="#000000" font-family="sans-serif" font-size="20" font-weight="bold" lengthAdjust="spacing" textLength="26" x="864.5" y="1511.9688">31</text><text fill="#000000" font-family="sans-serif" font-size="20" lengthAdjust="spacing" textLength="221" x="894.5" y="1511.9688">email = getUserEmail()</text><polygon fill="#181818" points="868.5,1551.7422,858.5,1555.7422,868.5,1559.7422,864.5,1555.7422" style="stroke:#181818;stroke-width:1.0;"/><line style="stroke:#181818;stroke-width:1.0;stroke-dasharray:2.0,2.0;" x1="862.5" x2="2429" y1="1555.7422" y2="1555.7422"/><text fill="#000000" font-family="sans-serif" font-size="20" font-weight="bold" lengthAdjust="spacing" textLength="26" x="874.5" y="1549.5234">32</text><text fill="#000000" font-family="sans-serif" font-size="20" lengthAdjust="spacing" textLength="53" x="904.5" y="1549.5234">email</text><polygon fill="#181818" points="1575.5,1589.2969,1585.5,1593.2969,1575.5,1597.2969,1579.5,1593.2969" style="stroke:#181818;stroke-width:1.0;"/><line style="stroke:#181818;stroke-width:1.0;" x1="857.5" x2="1581.5" y1="1593.2969" y2="1593.2969"/><text fill="#000000" font-family="sans-serif" font-size="20" font-weight="bold" lengthAdjust="spacing" textLength="26" x="864.5" y="1587.0781">33</text><text fill="#000000" font-family="sans-serif" font-size="20" lengthAdjust="spacing" textLength="323" x="894.5" y="1587.0781">getOrganizationRepository(email)</text><polygon fill="#181818" points="868.5,1626.8516,858.5,1630.8516,868.5,1634.8516,864.5,1630.8516" style="stroke:#181818;stroke-width:1.0;"/><line style="stroke:#181818;stroke-width:1.0;stroke-dasharray:2.0,2.0;" x1="862.5" x2="1591.5" y1="1630.8516" y2="1630.8516"/><text fill="#000000" font-family="sans-serif" font-size="20" font-weight="bold" lengthAdjust="spacing" textLength="26" x="874.5" y="1624.6328">34</text><text fill="#000000" font-family="sans-serif" font-size="20" lengthAdjust="spacing" textLength="222" x="904.5" y="1624.6328">organizationRepository</text><polygon fill="#181818" points="2621,1664.4063,2631,1668.4063,2621,1672.4063,2625,1668.4063" style="stroke:#181818;stroke-width:1.0;"/><line style="stroke:#181818;stroke-width:1.0;" x1="857.5" x2="2627" y1="1668.4063" y2="1668.4063"/><text fill="#000000" font-family="sans-serif" font-size="20" font-weight="bold" lengthAdjust="spacing" textLength="26" x="864.5" y="1662.1875">35</text><text fill="#000000" font-family="sans-serif" font-size="20" lengthAdjust="spacing" textLength="389" x="894.5" y="1662.1875">getOrganizationByEmployeeEmail(email)</text><path d="M2507,1683.4063 L2598,1683.4063 L2598,1698.9609 L2588,1708.9609 L2507,1708.9609 L2507,1683.4063 " fill="#EEEEEE" style="stroke:#000000;stroke-width:1.5;"/><rect fill="none" height="109.2188" style="stroke:#000000;stroke-width:1.5;" width="554" x="2507" y="1683.4063"/><text fill="#000000" font-family="sans-serif" font-size="20" font-weight="bold" lengthAdjust="spacing" textLength="46" x="2522" y="1703.7422">loop</text><text fill="#000000" font-family="sans-serif" font-size="20" font-weight="bold" lengthAdjust="spacing" textLength="245" x="2613" y="1704.7422">[[for each organization]</text><polygon fill="#181818" points="2962,1743.0703,2972,1747.0703,2962,1751.0703,2966,1747.0703" style="stroke:#181818;stroke-width:1.0;"/><line style="stroke:#181818;stroke-width:1.0;" x1="2643" x2="2968" y1="1747.0703" y2="1747.0703"/><text fill="#000000" font-family="sans-serif" font-size="20" font-weight="bold" lengthAdjust="spacing" textLength="26" x="2650" y="1740.8516">36</text><text fill="#000000" font-family="sans-serif" font-size="20" lengthAdjust="spacing" textLength="282" x="2680" y="1740.8516">anyEmployeeHasEmail(email)</text><polygon fill="#181818" points="2654,1780.625,2644,1784.625,2654,1788.625,2650,1784.625" style="stroke:#181818;stroke-width:1.0;"/><line style="stroke:#181818;stroke-width:1.0;stroke-dasharray:2.0,2.0;" x1="2648" x2="2978" y1="1784.625" y2="1784.625"/><text fill="#000000" font-family="sans-serif" font-size="20" font-weight="bold" lengthAdjust="spacing" textLength="26" x="2660" y="1778.4063">37</text><text fill="#000000" font-family="sans-serif" font-size="20" lengthAdjust="spacing" textLength="93" x="2690" y="1778.4063">true/false</text><polygon fill="#181818" points="868.5,1825.1797,858.5,1829.1797,868.5,1833.1797,864.5,1829.1797" style="stroke:#181818;stroke-width:1.0;"/><line style="stroke:#181818;stroke-width:1.0;stroke-dasharray:2.0,2.0;" x1="862.5" x2="2637" y1="1829.1797" y2="1829.1797"/><text fill="#000000" font-family="sans-serif" font-size="20" font-weight="bold" lengthAdjust="spacing" textLength="26" x="874.5" y="1822.9609">38</text><text fill="#000000" font-family="sans-serif" font-size="20" lengthAdjust="spacing" textLength="120" x="904.5" y="1822.9609">organization</text><polygon fill="#181818" points="2962,1862.7344,2972,1866.7344,2962,1870.7344,2966,1866.7344" style="stroke:#181818;stroke-width:1.0;"/><line style="stroke:#181818;stroke-width:1.0;" x1="857.5" x2="2968" y1="1866.7344" y2="1866.7344"/><text fill="#000000" font-family="sans-serif" font-size="20" font-weight="bold" lengthAdjust="spacing" textLength="26" x="864.5" y="1860.5156">39</text><text fill="#000000" font-family="sans-serif" font-size="20" lengthAdjust="spacing" textLength="265" x="894.5" y="1860.5156">getEmployeeByEmail(email)</text><polygon fill="#181818" points="868.5,1900.2891,858.5,1904.2891,868.5,1908.2891,864.5,1904.2891" style="stroke:#181818;stroke-width:1.0;"/><line style="stroke:#181818;stroke-width:1.0;stroke-dasharray:2.0,2.0;" x1="862.5" x2="2978" y1="1904.2891" y2="1904.2891"/><text fill="#000000" font-family="sans-serif" font-size="20" font-weight="bold" lengthAdjust="spacing" textLength="26" x="874.5" y="1898.0703">40</text><text fill="#000000" font-family="sans-serif" font-size="20" lengthAdjust="spacing" textLength="93" x="904.5" y="1898.0703">employee</text><line style="stroke:#181818;stroke-width:1.0;stroke-dasharray:2.0,2.0;" x1="857.5" x2="899.5" y1="1946.8438" y2="1946.8438"/><line style="stroke:#181818;stroke-width:1.0;stroke-dasharray:2.0,2.0;" x1="899.5" x2="899.5" y1="1946.8438" y2="1959.8438"/><line style="stroke:#181818;stroke-width:1.0;stroke-dasharray:2.0,2.0;" x1="852.5" x2="899.5" y1="1959.8438" y2="1959.8438"/><polygon fill="#181818" points="862.5,1955.8438,852.5,1959.8438,862.5,1963.8438,858.5,1959.8438" style="stroke:#181818;stroke-width:1.0;"/><text fill="#000000" font-family="sans-serif" font-size="20" font-weight="bold" lengthAdjust="spacing" textLength="26" x="864.5" y="1940.625">41</text><text fill="#000000" font-family="sans-serif" font-size="20" lengthAdjust="spacing" textLength="93" x="894.5" y="1940.625">employee</text><polygon fill="#181818" points="2962,2060.5078,2972,2064.5078,2962,2068.5078,2966,2064.5078" style="stroke:#181818;stroke-width:1.0;"/><line style="stroke:#181818;stroke-width:1.0;" x1="852.5" x2="2968" y1="2064.5078" y2="2064.5078"/><text fill="#000000" font-family="sans-serif" font-size="20" font-weight="bold" lengthAdjust="spacing" textLength="26" x="859.5" y="2034.7344">42</text><text fill="#000000" font-family="sans-serif" font-size="20" lengthAdjust="spacing" textLength="431" x="889.5" y="2011.1797">createTask(employee, reference, description,</text><text fill="#000000" font-family="sans-serif" font-size="20" lengthAdjust="spacing" textLength="404" x="889.5" y="2034.7344">informalDescription, technicalDescription,</text><text fill="#000000" font-family="sans-serif" font-size="20" lengthAdjust="spacing" textLength="393" x="889.5" y="2058.2891">duration, cost, , taskCategory, employee)</text><polygon fill="#181818" points="3430,2145.1719,3440,2149.1719,3430,2153.1719,3434,2149.1719" style="stroke:#181818;stroke-width:1.0;"/><line style="stroke:#181818;stroke-width:1.0;" x1="2984" x2="3436" y1="2149.1719" y2="2149.1719"/><text fill="#000000" font-family="sans-serif" font-size="20" font-weight="bold" lengthAdjust="spacing" textLength="26" x="2991" y="2119.3984">43</text><text fill="#000000" font-family="sans-serif" font-size="20" lengthAdjust="spacing" textLength="385" x="3021" y="2095.8438">create(employee, reference, description,</text><text fill="#000000" font-family="sans-serif" font-size="20" lengthAdjust="spacing" textLength="404" x="3021" y="2119.3984">informalDescription, technicalDescription,</text><text fill="#000000" font-family="sans-serif" font-size="20" lengthAdjust="spacing" textLength="381" x="3021" y="2142.9531">duration, cost, taskCategory, employee)</text><rect fill="#E3E3E3" height="61.1094" rx="2.5" ry="2.5" style="stroke:#181818;stroke-width:0.5;" width="66" x="3442" y="2085.0625"/><text fill="#000000" font-family="sans-serif" font-size="20" lengthAdjust="spacing" textLength="40" x="3455" y="2111.3984">task</text><text fill="#000000" font-family="sans-serif" font-size="20" lengthAdjust="spacing" textLength="52" x="3449" y="2134.9531">:Task</text><line style="stroke:#181818;stroke-width:1.0;" x1="2984" x2="3031" y1="2181.7266" y2="2181.7266"/><line style="stroke:#181818;stroke-width:1.0;" x1="3031" x2="3031" y1="2181.7266" y2="2194.7266"/><line style="stroke:#181818;stroke-width:1.0;" x1="2990" x2="3031" y1="2194.7266" y2="2194.7266"/><polygon fill="#181818" points="3000,2190.7266,2990,2194.7266,3000,2198.7266,2996,2194.7266" style="stroke:#181818;stroke-width:1.0;"/><text fill="#000000" font-family="sans-serif" font-size="20" font-weight="bold" lengthAdjust="spacing" textLength="26" x="2996" y="2175.5078">44</text><text fill="#000000" font-family="sans-serif" font-size="20" lengthAdjust="spacing" textLength="143" x="3026" y="2175.5078">addTask (task)</text><line style="stroke:#181818;stroke-width:1.0;" x1="2989" x2="3036" y1="2232.2813" y2="2232.2813"/><line style="stroke:#181818;stroke-width:1.0;" x1="3036" x2="3036" y1="2232.2813" y2="2245.2813"/><line style="stroke:#181818;stroke-width:1.0;" x1="2995" x2="3036" y1="2245.2813" y2="2245.2813"/><polygon fill="#181818" points="3005,2241.2813,2995,2245.2813,3005,2249.2813,3001,2245.2813" style="stroke:#181818;stroke-width:1.0;"/><text fill="#000000" font-family="sans-serif" font-size="20" font-weight="bold" lengthAdjust="spacing" textLength="26" x="3001" y="2226.0625">45</text><text fill="#000000" font-family="sans-serif" font-size="20" lengthAdjust="spacing" textLength="175" x="3031" y="2226.0625">validateTask(task)</text><line style="stroke:#181818;stroke-width:1.0;stroke-dasharray:2.0,2.0;" x1="2994" x2="3036" y1="2292.8359" y2="2292.8359"/><line style="stroke:#181818;stroke-width:1.0;stroke-dasharray:2.0,2.0;" x1="3036" x2="3036" y1="2292.8359" y2="2305.8359"/><line style="stroke:#181818;stroke-width:1.0;stroke-dasharray:2.0,2.0;" x1="2989" x2="3036" y1="2305.8359" y2="2305.8359"/><polygon fill="#181818" points="2999,2301.8359,2989,2305.8359,2999,2309.8359,2995,2305.8359" style="stroke:#181818;stroke-width:1.0;"/><text fill="#000000" font-family="sans-serif" font-size="20" font-weight="bold" lengthAdjust="spacing" textLength="26" x="3001" y="2286.6172">46</text><text fill="#000000" font-family="sans-serif" font-size="20" lengthAdjust="spacing" textLength="6" x="3031" y="2286.6172"> </text><line style="stroke:#181818;stroke-width:1.0;stroke-dasharray:2.0,2.0;" x1="2989" x2="3031" y1="2343.3906" y2="2343.3906"/><line style="stroke:#181818;stroke-width:1.0;stroke-dasharray:2.0,2.0;" x1="3031" x2="3031" y1="2343.3906" y2="2356.3906"/><line style="stroke:#181818;stroke-width:1.0;stroke-dasharray:2.0,2.0;" x1="2984" x2="3031" y1="2356.3906" y2="2356.3906"/><polygon fill="#181818" points="2994,2352.3906,2984,2356.3906,2994,2360.3906,2990,2356.3906" style="stroke:#181818;stroke-width:1.0;"/><text fill="#000000" font-family="sans-serif" font-size="20" font-weight="bold" lengthAdjust="spacing" textLength="26" x="2996" y="2337.1719">47</text><text fill="#000000" font-family="sans-serif" font-size="20" lengthAdjust="spacing" textLength="6" x="3026" y="2337.1719"> </text><polygon fill="#181818" points="863.5,2384.9453,853.5,2388.9453,863.5,2392.9453,859.5,2388.9453" style="stroke:#181818;stroke-width:1.0;"/><line style="stroke:#181818;stroke-width:1.0;stroke-dasharray:2.0,2.0;" x1="857.5" x2="2978" y1="2388.9453" y2="2388.9453"/><text fill="#000000" font-family="sans-serif" font-size="20" font-weight="bold" lengthAdjust="spacing" textLength="26" x="869.5" y="2382.7266">48</text><text fill="#000000" font-family="sans-serif" font-size="20" lengthAdjust="spacing" textLength="40" x="899.5" y="2382.7266">task</text><polygon fill="#181818" points="549,2422.5,539,2426.5,549,2430.5,545,2426.5" style="stroke:#181818;stroke-width:1.0;"/><line style="stroke:#181818;stroke-width:1.0;stroke-dasharray:2.0,2.0;" x1="543" x2="846.5" y1="2426.5" y2="2426.5"/><text fill="#000000" font-family="sans-serif" font-size="20" font-weight="bold" lengthAdjust="spacing" textLength="26" x="555" y="2420.2813">49</text><text fill="#000000" font-family="sans-serif" font-size="20" lengthAdjust="spacing" textLength="40" x="585" y="2420.2813">task</text><polygon fill="#181818" points="50,2460.0547,40,2464.0547,50,2468.0547,46,2464.0547" style="stroke:#181818;stroke-width:1.0;"/><line style="stroke:#181818;stroke-width:1.0;stroke-dasharray:2.0,2.0;" x1="44" x2="532" y1="2464.0547" y2="2464.0547"/><text fill="#000000" font-family="sans-serif" font-size="20" font-weight="bold" lengthAdjust="spacing" textLength="26" x="56" y="2457.8359">50</text><text fill="#000000" font-family="sans-serif" font-size="20" lengthAdjust="spacing" textLength="256" x="86" y="2457.8359">displays operation success</text><!--SRC=[xLXBRziu4BxpLn2vD0aSx6AF1bh0THuR84K2EpdLGC58OvkmJ6f9kbaN-V4TKW-J5lLeqFPKNOA8CzzyysbcI5flkCYPOjjC9Xj8QGfBjilCjHHcphy1_UTleYiJkfL29cibjq2Dse6tahDamrOmD_iCg8B4CB7AV0EzPgbyuM95bopJG0ZR6IbsssTGXBnRynJeKahpBFydB35IqPFx5m7gX39D9vUV2A8Odl2S2KDFnbC5pC0ZqvkdMsVoT1krcC5_Ez1cYjaecMKbtlHnTdTaFeDSQevnEMXdKx_OpxbD1Sc6BihpM8WcmCFTv37qC4XtYgHM27g07o_4OtJ1eSINZiXFyZpZ2JDSYZbeZN-SxvV9mqDeoVAyD436BLuDfsId560rr8vF6fJlCR-QpoVtePDKAoRuDuSUv7eVNN0uyQLsNAJYknGOivkcw6XeTIm4dSokhYV45Xd_YiAwuYAqVF0VUl41gucEqNX3ZQI9AoGwPrZOM9OpbE9WNwDW_HtUsWSX4CXMslavWfKePJsscQBX2eptpR6OJiy2upgYA-9WoJuE1T4YvLk0tmgDlPd04Mm07QlzXhLzOb4kobp6rE-GXdiAFnQkIiosLKCchpMwyd8j6Kt4eHwOnpkrAuSuT4KwJdN0rmxejyo2Q48j4IyEXURdUCUn9Zko6ngvoBTgeCu87dgpacr788hjnZ7k7F95Ep2Qb6WqGxY5e4oajasrxLET0MuxL0eWaHYsFuyRN4E67fgo49mq6ZjAInMjh6dA32C3mfbz3hfoipij-j5J1Kl0yPh02FrredXkPzc8BWGNIwcsB0lV6qZM0iTs-7eXqfrYXKKYjJaRc4IXRI44KghrjSA6J8Tag7VFM-uhqagWhiAatiWz9J2R8BTAYSlWRQt4POSGriuhGy_qZ0mOgLK3HuVp_gEFTzeRvy_u_hNZEphQVkFuVaiz_AO1_uRX7WjQp_U-49tJ_VNrjQV9hhPv9lS0rtZLA4-QRpi6sIFmuBvnv-LOsdQ1rdrnE4HtgUh0sebLlAR1uRgBdSEBiNFaQdRXQRsBOHImubUSwSSKjendzBsbQe_zL_RVBfRbNI1Aj5Zpk3hmBeeLMkSuSJh6xmwdBiBFE176xpFz8wMLUPnm8vUF-weN2kdx4cgvGqLJpAJCwMVSMYcoNWSfHktj4yTt2SrkxAL9r8J_PRgJSvCxtjrQhOhe6EEYLJmxaDGE_Yf-O6Z3y3wH3HWp0P6I7qd-CBiwDVGZ3_nCTRNCReB1QCjYK3cqILefMVA64fVqg4NwTeGeq9js0vUoTpoia4UqvSWSFoVIOST4EWesir6TICks4nN3YVgX_8dX_BoY_wkf3o7kqNF2iZIrgb9tIZcBpAdU9l7HlhACfzM7AX1xExstnrji-Ygo3wFF_wWpR3Q430NmBi2bQrSVnA-yOvfodMTihwdCeVZKUBLA4jpIOxSmVqk__4I-0m00]--></g></svg>