<?xml version="1.0" encoding="UTF-8" standalone="no"?><svg xmlns="http://www.w3.org/2000/svg" xmlns:xlink="http://www.w3.org/1999/xlink" contentStyleType="text/css" height="1399px" preserveAspectRatio="none" style="width:1102px;height:1399px;background:#FFFFFF;" version="1.1" viewBox="0 0 1102 1399" width="1102px" zoomAndPan="magnify"><defs/><g><!--class Announcement--><g id="elem_Announcement"><rect codeLine="74" fill="#F1F1F1" height="332.6563" id="Announcement" rx="2.5" ry="2.5" style="stroke:#181818;stroke-width:0.5;" width="342" x="110.5" y="577"/><ellipse cx="205" cy="594" fill="#ADD1B2" rx="12" ry="12" style="stroke:#181818;stroke-width:1.0;"/><path d="M207.8066,601.0801 Q207.123,601.4316 206.3711,601.6074 Q205.6191,601.7832 204.7891,601.7832 Q201.8398,601.7832 200.2871,599.8398 Q198.7344,597.8965 198.7344,594.2246 Q198.7344,590.543 200.2871,588.5996 Q201.8398,586.6563 204.7891,586.6563 Q205.6191,586.6563 206.3809,586.832 Q207.1426,587.0078 207.8066,587.3594 L207.8066,590.5625 Q207.0645,589.8789 206.3662,589.5615 Q205.668,589.2441 204.9258,589.2441 Q203.3438,589.2441 202.5381,590.499 Q201.7324,591.7539 201.7324,594.2246 Q201.7324,596.6855 202.5381,597.9404 Q203.3438,599.1953 204.9258,599.1953 Q205.668,599.1953 206.3662,598.8779 Q207.0645,598.5605 207.8066,597.877 Z " fill="#000000"/><text fill="#000000" font-family="sans-serif" font-size="20" lengthAdjust="spacing" textLength="144" x="227" y="601.5586">Announcement</text><line style="stroke:#181818;stroke-width:0.5;" x1="111.5" x2="451.5" y1="611" y2="611"/><text fill="#000000" font-family="sans-serif" font-size="20" lengthAdjust="spacing" textLength="312" x="116.5" y="634.3359">-TypeOfProperty typeOfProperty</text><text fill="#000000" font-family="sans-serif" font-size="20" lengthAdjust="spacing" textLength="330" x="116.5" y="657.8906">-TransactionType transactionType</text><text fill="#000000" font-family="sans-serif" font-size="20" lengthAdjust="spacing" textLength="178" x="116.5" y="681.4453">-Date publishDate</text><text fill="#000000" font-family="sans-serif" font-size="20" lengthAdjust="spacing" textLength="216" x="116.5" y="705">-Comission comission</text><text fill="#000000" font-family="sans-serif" font-size="20" lengthAdjust="spacing" textLength="255" x="116.5" y="728.5547">-ArrayList&lt;Photo&gt; photos</text><text fill="#000000" font-family="sans-serif" font-size="20" lengthAdjust="spacing" textLength="205" x="116.5" y="752.1094">-boolean isPublished</text><text fill="#000000" font-family="sans-serif" font-size="20" lengthAdjust="spacing" textLength="62" x="116.5" y="775.6641">-int id</text><text fill="#000000" font-family="sans-serif" font-size="20" lengthAdjust="spacing" textLength="138" x="116.5" y="799.2188">-int idCounter</text><line style="stroke:#181818;stroke-width:0.5;" x1="111.5" x2="451.5" y1="807.4375" y2="807.4375"/><text fill="#000000" font-family="sans-serif" font-size="20" lengthAdjust="spacing" textLength="221" x="116.5" y="830.7734">+setIsPublished(): void</text><text fill="#000000" font-family="sans-serif" font-size="20" lengthAdjust="spacing" textLength="173" x="116.5" y="854.3281">+toString(): String</text><text fill="#000000" font-family="sans-serif" font-size="20" lengthAdjust="spacing" textLength="140" x="116.5" y="877.8828">+getProperty()</text><text fill="#000000" font-family="sans-serif" font-size="20" lengthAdjust="spacing" textLength="105" x="116.5" y="901.4375">+toString()</text></g><!--class AnnouncementRepository--><g id="elem_AnnouncementRepository"><rect codeLine="24" fill="#F1F1F1" height="50" id="AnnouncementRepository" rx="2.5" ry="2.5" style="stroke:#181818;stroke-width:0.5;" width="280" x="141.5" y="442"/><ellipse cx="157.5" cy="459" fill="#ADD1B2" rx="12" ry="12" style="stroke:#181818;stroke-width:1.0;"/><path d="M160.3066,466.0801 Q159.623,466.4316 158.8711,466.6074 Q158.1191,466.7832 157.2891,466.7832 Q154.3398,466.7832 152.7871,464.8398 Q151.2344,462.8965 151.2344,459.2246 Q151.2344,455.543 152.7871,453.5996 Q154.3398,451.6563 157.2891,451.6563 Q158.1191,451.6563 158.8809,451.832 Q159.6426,452.0078 160.3066,452.3594 L160.3066,455.5625 Q159.5645,454.8789 158.8662,454.5615 Q158.168,454.2441 157.4258,454.2441 Q155.8438,454.2441 155.0381,455.499 Q154.2324,456.7539 154.2324,459.2246 Q154.2324,461.6855 155.0381,462.9404 Q155.8438,464.1953 157.4258,464.1953 Q158.168,464.1953 158.8662,463.8779 Q159.5645,463.5605 160.3066,462.877 Z " fill="#000000"/><text fill="#000000" font-family="sans-serif" font-size="20" lengthAdjust="spacing" textLength="246" x="172.5" y="466.5586">AnnouncementRepository</text><line style="stroke:#181818;stroke-width:0.5;" x1="142.5" x2="420.5" y1="476" y2="476"/><line style="stroke:#181818;stroke-width:0.5;" x1="142.5" x2="420.5" y1="484" y2="484"/></g><!--class AgencyListRepository--><g id="elem_AgencyListRepository"><rect codeLine="28" fill="#F1F1F1" height="50" id="AgencyListRepository" rx="2.5" ry="2.5" style="stroke:#181818;stroke-width:0.5;" width="239" x="856" y="442"/><ellipse cx="872" cy="459" fill="#ADD1B2" rx="12" ry="12" style="stroke:#181818;stroke-width:1.0;"/><path d="M874.8066,466.0801 Q874.123,466.4316 873.3711,466.6074 Q872.6191,466.7832 871.7891,466.7832 Q868.8398,466.7832 867.2871,464.8398 Q865.7344,462.8965 865.7344,459.2246 Q865.7344,455.543 867.2871,453.5996 Q868.8398,451.6563 871.7891,451.6563 Q872.6191,451.6563 873.3809,451.832 Q874.1426,452.0078 874.8066,452.3594 L874.8066,455.5625 Q874.0645,454.8789 873.3662,454.5615 Q872.668,454.2441 871.9258,454.2441 Q870.3438,454.2441 869.5381,455.499 Q868.7324,456.7539 868.7324,459.2246 Q868.7324,461.6855 869.5381,462.9404 Q870.3438,464.1953 871.9258,464.1953 Q872.668,464.1953 873.3662,463.8779 Q874.0645,463.5605 874.8066,462.877 Z " fill="#000000"/><text fill="#000000" font-family="sans-serif" font-size="20" lengthAdjust="spacing" textLength="205" x="887" y="466.5586">AgencyListRepository</text><line style="stroke:#181818;stroke-width:0.5;" x1="857" x2="1094" y1="476" y2="476"/><line style="stroke:#181818;stroke-width:0.5;" x1="857" x2="1094" y1="484" y2="484"/></g><!--class EmployeeRepository--><g id="elem_EmployeeRepository"><rect codeLine="32" fill="#F1F1F1" height="50" id="EmployeeRepository" rx="2.5" ry="2.5" style="stroke:#181818;stroke-width:0.5;" width="229" x="469" y="442"/><ellipse cx="485" cy="459" fill="#ADD1B2" rx="12" ry="12" style="stroke:#181818;stroke-width:1.0;"/><path d="M487.8066,466.0801 Q487.123,466.4316 486.3711,466.6074 Q485.6191,466.7832 484.7891,466.7832 Q481.8398,466.7832 480.2871,464.8398 Q478.7344,462.8965 478.7344,459.2246 Q478.7344,455.543 480.2871,453.5996 Q481.8398,451.6563 484.7891,451.6563 Q485.6191,451.6563 486.3809,451.832 Q487.1426,452.0078 487.8066,452.3594 L487.8066,455.5625 Q487.0645,454.8789 486.3662,454.5615 Q485.668,454.2441 484.9258,454.2441 Q483.3438,454.2441 482.5381,455.499 Q481.7324,456.7539 481.7324,459.2246 Q481.7324,461.6855 482.5381,462.9404 Q483.3438,464.1953 484.9258,464.1953 Q485.668,464.1953 486.3662,463.8779 Q487.0645,463.5605 487.8066,462.877 Z " fill="#000000"/><text fill="#000000" font-family="sans-serif" font-size="20" lengthAdjust="spacing" textLength="195" x="500" y="466.5586">EmployeeRepository</text><line style="stroke:#181818;stroke-width:0.5;" x1="470" x2="697" y1="476" y2="476"/><line style="stroke:#181818;stroke-width:0.5;" x1="470" x2="697" y1="484" y2="484"/></g><!--class Repositories--><g id="elem_Repositories"><rect codeLine="38" fill="#F1F1F1" height="120.6641" id="Repositories" rx="2.5" ry="2.5" style="stroke:#181818;stroke-width:0.5;" width="576" x="350.5" y="236"/><ellipse cx="574.5" cy="253" fill="#ADD1B2" rx="12" ry="12" style="stroke:#181818;stroke-width:1.0;"/><path d="M577.3066,260.0801 Q576.623,260.4316 575.8711,260.6074 Q575.1191,260.7832 574.2891,260.7832 Q571.3398,260.7832 569.7871,258.8398 Q568.2344,256.8965 568.2344,253.2246 Q568.2344,249.543 569.7871,247.5996 Q571.3398,245.6563 574.2891,245.6563 Q575.1191,245.6563 575.8809,245.832 Q576.6426,246.0078 577.3066,246.3594 L577.3066,249.5625 Q576.5645,248.8789 575.8662,248.5615 Q575.168,248.2441 574.4258,248.2441 Q572.8438,248.2441 572.0381,249.499 Q571.2324,250.7539 571.2324,253.2246 Q571.2324,255.6855 572.0381,256.9404 Q572.8438,258.1953 574.4258,258.1953 Q575.168,258.1953 575.8662,257.8779 Q576.5645,257.5605 577.3066,256.877 Z " fill="#000000"/><text fill="#000000" font-family="sans-serif" font-size="20" lengthAdjust="spacing" textLength="119" x="596.5" y="260.5586">Repositories</text><line style="stroke:#181818;stroke-width:0.5;" x1="351.5" x2="925.5" y1="270" y2="270"/><line style="stroke:#181818;stroke-width:0.5;" x1="351.5" x2="925.5" y1="278" y2="278"/><text fill="#000000" font-family="sans-serif" font-size="20" lengthAdjust="spacing" textLength="270" x="356.5" y="301.3359">+getInstance(): Repositories</text><text fill="#000000" font-family="sans-serif" font-size="20" lengthAdjust="spacing" textLength="452" x="356.5" y="324.8906">+AgencyListRepository(): AgencyListRepository</text><text fill="#000000" font-family="sans-serif" font-size="20" lengthAdjust="spacing" textLength="564" x="356.5" y="348.4453">+getAnnouncementRepository(): AnnouncementRepository</text></g><!--class CreateRequestController--><g id="elem_CreateRequestController"><rect codeLine="47" fill="#F1F1F1" height="167.7734" id="CreateRequestController" rx="2.5" ry="2.5" style="stroke:#181818;stroke-width:0.5;" width="314" x="235.5" y="7"/><ellipse cx="271.75" cy="24" fill="#ADD1B2" rx="12" ry="12" style="stroke:#181818;stroke-width:1.0;"/><path d="M274.5566,31.0801 Q273.873,31.4316 273.1211,31.6074 Q272.3691,31.7832 271.5391,31.7832 Q268.5898,31.7832 267.0371,29.8398 Q265.4844,27.8965 265.4844,24.2246 Q265.4844,20.543 267.0371,18.5996 Q268.5898,16.6563 271.5391,16.6563 Q272.3691,16.6563 273.1309,16.832 Q273.8926,17.0078 274.5566,17.3594 L274.5566,20.5625 Q273.8145,19.8789 273.1162,19.5615 Q272.418,19.2441 271.6758,19.2441 Q270.0938,19.2441 269.2881,20.499 Q268.4824,21.7539 268.4824,24.2246 Q268.4824,26.6855 269.2881,27.9404 Q270.0938,29.1953 271.6758,29.1953 Q272.418,29.1953 273.1162,28.8779 Q273.8145,28.5605 274.5566,27.877 Z " fill="#000000"/><text fill="#000000" font-family="sans-serif" font-size="20" lengthAdjust="spacing" textLength="235" x="291.25" y="31.5586">CreateRequestController</text><line style="stroke:#181818;stroke-width:0.5;" x1="236.5" x2="548.5" y1="41" y2="41"/><line style="stroke:#181818;stroke-width:0.5;" x1="236.5" x2="548.5" y1="49" y2="49"/><text fill="#000000" font-family="sans-serif" font-size="20" lengthAdjust="spacing" textLength="163" x="241.5" y="72.3359">+getAgencyList()</text><text fill="#000000" font-family="sans-serif" font-size="20" lengthAdjust="spacing" textLength="187" x="241.5" y="95.8906">+getEmployeeList()</text><text fill="#000000" font-family="sans-serif" font-size="20" lengthAdjust="spacing" textLength="285" x="241.5" y="119.4453">-getEmployeeListRepository()</text><text fill="#000000" font-family="sans-serif" font-size="20" lengthAdjust="spacing" textLength="261" x="241.5" y="143">-getAgencyListRepository()</text><text fill="#000000" font-family="sans-serif" font-size="20" lengthAdjust="spacing" textLength="302" x="241.5" y="166.5547">-getAnnouncementRepository()</text></g><!--class CreateRequestUI--><g id="elem_CreateRequestUI"><rect codeLine="58" fill="#F1F1F1" height="73.5547" id="CreateRequestUI" rx="2.5" ry="2.5" style="stroke:#181818;stroke-width:0.5;" width="193" x="7" y="54"/><ellipse cx="23" cy="71" fill="#ADD1B2" rx="12" ry="12" style="stroke:#181818;stroke-width:1.0;"/><path d="M25.8066,78.0801 Q25.123,78.4316 24.3711,78.6074 Q23.6191,78.7832 22.7891,78.7832 Q19.8398,78.7832 18.2871,76.8398 Q16.7344,74.8965 16.7344,71.2246 Q16.7344,67.543 18.2871,65.5996 Q19.8398,63.6563 22.7891,63.6563 Q23.6191,63.6563 24.3809,63.832 Q25.1426,64.0078 25.8066,64.3594 L25.8066,67.5625 Q25.0645,66.8789 24.3662,66.5615 Q23.668,66.2441 22.9258,66.2441 Q21.3438,66.2441 20.5381,67.499 Q19.7324,68.7539 19.7324,71.2246 Q19.7324,73.6855 20.5381,74.9404 Q21.3438,76.1953 22.9258,76.1953 Q23.668,76.1953 24.3662,75.8779 Q25.0645,75.5605 25.8066,74.877 Z " fill="#000000"/><text fill="#000000" font-family="sans-serif" font-size="20" lengthAdjust="spacing" textLength="159" x="38" y="78.5586">CreateRequestUI</text><line style="stroke:#181818;stroke-width:0.5;" x1="8" x2="199" y1="88" y2="88"/><line style="stroke:#181818;stroke-width:0.5;" x1="8" x2="199" y1="96" y2="96"/><text fill="#000000" font-family="sans-serif" font-size="20" lengthAdjust="spacing" textLength="163" x="13" y="119.3359">+getAgencyList()</text></g><!--class Property--><g id="elem_Property"><rect codeLine="63" fill="#F1F1F1" height="261.9922" id="Property" rx="2.5" ry="2.5" style="stroke:#181818;stroke-width:0.5;" width="290" x="136.5" y="995"/><ellipse cx="237" cy="1012" fill="#ADD1B2" rx="12" ry="12" style="stroke:#181818;stroke-width:1.0;"/><path d="M239.8066,1019.0801 Q239.123,1019.4316 238.3711,1019.6074 Q237.6191,1019.7832 236.7891,1019.7832 Q233.8398,1019.7832 232.2871,1017.8398 Q230.7344,1015.8965 230.7344,1012.2246 Q230.7344,1008.543 232.2871,1006.5996 Q233.8398,1004.6563 236.7891,1004.6563 Q237.6191,1004.6563 238.3809,1004.832 Q239.1426,1005.0078 239.8066,1005.3594 L239.8066,1008.5625 Q239.0645,1007.8789 238.3662,1007.5615 Q237.668,1007.2441 236.9258,1007.2441 Q235.3438,1007.2441 234.5381,1008.499 Q233.7324,1009.7539 233.7324,1012.2246 Q233.7324,1014.6855 234.5381,1015.9404 Q235.3438,1017.1953 236.9258,1017.1953 Q237.668,1017.1953 238.3662,1016.8779 Q239.0645,1016.5605 239.8066,1015.877 Z " fill="#000000"/><text fill="#000000" font-family="sans-serif" font-size="20" lengthAdjust="spacing" textLength="80" x="259" y="1019.5586">Property</text><line style="stroke:#181818;stroke-width:0.5;" x1="137.5" x2="425.5" y1="1029" y2="1029"/><text fill="#000000" font-family="sans-serif" font-size="20" lengthAdjust="spacing" textLength="126" x="142.5" y="1052.3359">-double area</text><text fill="#000000" font-family="sans-serif" font-size="20" lengthAdjust="spacing" textLength="278" x="142.5" y="1075.8906">-double distanceFromCenter</text><text fill="#000000" font-family="sans-serif" font-size="20" lengthAdjust="spacing" textLength="133" x="142.5" y="1099.4453">-double price</text><text fill="#000000" font-family="sans-serif" font-size="20" lengthAdjust="spacing" textLength="173" x="142.5" y="1123">-Address address</text><line style="stroke:#181818;stroke-width:0.5;" x1="137.5" x2="425.5" y1="1131.2188" y2="1131.2188"/><text fill="#000000" font-family="sans-serif" font-size="20" lengthAdjust="spacing" textLength="139" x="142.5" y="1154.5547">+getAddress()</text><text fill="#000000" font-family="sans-serif" font-size="20" lengthAdjust="spacing" textLength="104" x="142.5" y="1178.1094">+getArea()</text><text fill="#000000" font-family="sans-serif" font-size="20" lengthAdjust="spacing" textLength="255" x="142.5" y="1201.6641">+getDistanceFromCenter()</text><text fill="#000000" font-family="sans-serif" font-size="20" lengthAdjust="spacing" textLength="106" x="142.5" y="1225.2188">+getPrice()</text><text fill="#000000" font-family="sans-serif" font-size="20" lengthAdjust="spacing" textLength="105" x="142.5" y="1248.7734">+toString()</text></g><!--class House--><g id="elem_House"><rect codeLine="86" fill="#F1F1F1" height="50" id="House" rx="2.5" ry="2.5" style="stroke:#181818;stroke-width:0.5;" width="94" x="111.5" y="1342"/><ellipse cx="127.5" cy="1359" fill="#ADD1B2" rx="12" ry="12" style="stroke:#181818;stroke-width:1.0;"/><path d="M130.3066,1366.0801 Q129.623,1366.4316 128.8711,1366.6074 Q128.1191,1366.7832 127.2891,1366.7832 Q124.3398,1366.7832 122.7871,1364.8398 Q121.2344,1362.8965 121.2344,1359.2246 Q121.2344,1355.543 122.7871,1353.5996 Q124.3398,1351.6563 127.2891,1351.6563 Q128.1191,1351.6563 128.8809,1351.832 Q129.6426,1352.0078 130.3066,1352.3594 L130.3066,1355.5625 Q129.5645,1354.8789 128.8662,1354.5615 Q128.168,1354.2441 127.4258,1354.2441 Q125.8438,1354.2441 125.0381,1355.499 Q124.2324,1356.7539 124.2324,1359.2246 Q124.2324,1361.6855 125.0381,1362.9404 Q125.8438,1364.1953 127.4258,1364.1953 Q128.168,1364.1953 128.8662,1363.8779 Q129.5645,1363.5605 130.3066,1362.877 Z " fill="#000000"/><text fill="#000000" font-family="sans-serif" font-size="20" lengthAdjust="spacing" textLength="60" x="142.5" y="1366.5586">House</text><line style="stroke:#181818;stroke-width:0.5;" x1="112.5" x2="204.5" y1="1376" y2="1376"/><line style="stroke:#181818;stroke-width:0.5;" x1="112.5" x2="204.5" y1="1384" y2="1384"/></g><!--class Land--><g id="elem_Land"><rect codeLine="88" fill="#F1F1F1" height="50" id="Land" rx="2.5" ry="2.5" style="stroke:#181818;stroke-width:0.5;" width="81" x="241" y="1342"/><ellipse cx="257" cy="1359" fill="#ADD1B2" rx="12" ry="12" style="stroke:#181818;stroke-width:1.0;"/><path d="M259.8066,1366.0801 Q259.123,1366.4316 258.3711,1366.6074 Q257.6191,1366.7832 256.7891,1366.7832 Q253.8398,1366.7832 252.2871,1364.8398 Q250.7344,1362.8965 250.7344,1359.2246 Q250.7344,1355.543 252.2871,1353.5996 Q253.8398,1351.6563 256.7891,1351.6563 Q257.6191,1351.6563 258.3809,1351.832 Q259.1426,1352.0078 259.8066,1352.3594 L259.8066,1355.5625 Q259.0645,1354.8789 258.3662,1354.5615 Q257.668,1354.2441 256.9258,1354.2441 Q255.3438,1354.2441 254.5381,1355.499 Q253.7324,1356.7539 253.7324,1359.2246 Q253.7324,1361.6855 254.5381,1362.9404 Q255.3438,1364.1953 256.9258,1364.1953 Q257.668,1364.1953 258.3662,1363.8779 Q259.0645,1363.5605 259.8066,1362.877 Z " fill="#000000"/><text fill="#000000" font-family="sans-serif" font-size="20" lengthAdjust="spacing" textLength="47" x="272" y="1366.5586">Land</text><line style="stroke:#181818;stroke-width:0.5;" x1="242" x2="321" y1="1376" y2="1376"/><line style="stroke:#181818;stroke-width:0.5;" x1="242" x2="321" y1="1384" y2="1384"/></g><!--class Apartment--><g id="elem_Apartment"><rect codeLine="90" fill="#F1F1F1" height="50" id="Apartment" rx="2.5" ry="2.5" style="stroke:#181818;stroke-width:0.5;" width="136" x="357.5" y="1342"/><ellipse cx="373.5" cy="1359" fill="#ADD1B2" rx="12" ry="12" style="stroke:#181818;stroke-width:1.0;"/><path d="M376.3066,1366.0801 Q375.623,1366.4316 374.8711,1366.6074 Q374.1191,1366.7832 373.2891,1366.7832 Q370.3398,1366.7832 368.7871,1364.8398 Q367.2344,1362.8965 367.2344,1359.2246 Q367.2344,1355.543 368.7871,1353.5996 Q370.3398,1351.6563 373.2891,1351.6563 Q374.1191,1351.6563 374.8809,1351.832 Q375.6426,1352.0078 376.3066,1352.3594 L376.3066,1355.5625 Q375.5645,1354.8789 374.8662,1354.5615 Q374.168,1354.2441 373.4258,1354.2441 Q371.8438,1354.2441 371.0381,1355.499 Q370.2324,1356.7539 370.2324,1359.2246 Q370.2324,1361.6855 371.0381,1362.9404 Q371.8438,1364.1953 373.4258,1364.1953 Q374.168,1364.1953 374.8662,1363.8779 Q375.5645,1363.5605 376.3066,1362.877 Z " fill="#000000"/><text fill="#000000" font-family="sans-serif" font-size="20" lengthAdjust="spacing" textLength="102" x="388.5" y="1366.5586">Apartment</text><line style="stroke:#181818;stroke-width:0.5;" x1="358.5" x2="492.5" y1="1376" y2="1376"/><line style="stroke:#181818;stroke-width:0.5;" x1="358.5" x2="492.5" y1="1384" y2="1384"/></g><!--link Repositories to Repositories--><g id="link_Repositories_Repositories"><path codeLine="96" d="M926.94,283.8 C948.36,286.65 961.5,290.88 961.5,296.5 C961.5,301.55 950.89,305.48 933.2,308.29 " fill="none" id="Repositories-to-Repositories" style="stroke:#181818;stroke-width:1.0;"/><polygon fill="#181818" points="928.44,308.98,937.9196,311.6517,933.3886,308.2649,936.7754,303.7339,928.44,308.98" style="stroke:#181818;stroke-width:1.0;"/><text fill="#000000" font-family="sans-serif" font-size="20" lengthAdjust="spacing" textLength="89" x="967.5" y="304.3359">instances</text></g><!--link CreateRequestUI to CreateRequestController--><g id="link_CreateRequestUI_CreateRequestController"><path codeLine="98" d="M200.45,91 C203.18,91 214.72,91 228.9,91 " fill="none" id="CreateRequestUI-to-CreateRequestController" style="stroke:#181818;stroke-width:1.0;stroke-dasharray:7.0,7.0;"/><polygon fill="#181818" points="233.61,91,224.61,87,228.61,91,224.61,95,233.61,91" style="stroke:#181818;stroke-width:1.0;"/></g><!--link CreateRequestController to Repositories--><g id="link_CreateRequestController_Repositories"><path codeLine="100" d="M493.27,175.36 C515.97,194.13 539.71,213.78 561.26,231.61 " fill="none" id="CreateRequestController-to-Repositories" style="stroke:#181818;stroke-width:1.0;stroke-dasharray:7.0,7.0;"/><polygon fill="#181818" points="564.95,234.66,560.558,225.8446,561.0949,231.476,555.4636,232.0128,564.95,234.66" style="stroke:#181818;stroke-width:1.0;"/></g><!--link Repositories to AgencyListRepository--><g id="link_Repositories_AgencyListRepository"><path codeLine="102" d="M758.26,357.38 C813.85,385.17 877.17,416.84 921.05,438.78 " fill="none" id="Repositories-to-AgencyListRepository" style="stroke:#181818;stroke-width:1.0;"/><polygon fill="#181818" points="925.49,440.99,919.2387,433.3794,921.0207,438.7482,915.6519,440.5302,925.49,440.99" style="stroke:#181818;stroke-width:1.0;"/><text fill="#000000" font-family="sans-serif" font-size="20" lengthAdjust="spacing" textLength="33" x="866.5" y="407.3359">has</text><text fill="#000000" font-family="sans-serif" font-size="20" lengthAdjust="spacing" textLength="13" x="756.9399" y="384.226">1</text><text fill="#000000" font-family="sans-serif" font-size="20" lengthAdjust="spacing" textLength="13" x="901.0843" y="429.5531">1</text></g><!--link Repositories to AnnouncementRepository--><g id="link_Repositories_AnnouncementRepository"><path codeLine="103" d="M511.38,357.5 C452.4,385.34 385.24,417.04 338.81,438.95 " fill="none" id="Repositories-to-AnnouncementRepository" style="stroke:#181818;stroke-width:1.0;"/><polygon fill="#181818" points="334.34,441.06,344.1861,440.8262,338.8596,438.9214,340.7643,433.5949,334.34,441.06" style="stroke:#181818;stroke-width:1.0;"/><text fill="#000000" font-family="sans-serif" font-size="20" lengthAdjust="spacing" textLength="33" x="440.5" y="407.3359">has</text><text fill="#000000" font-family="sans-serif" font-size="20" lengthAdjust="spacing" textLength="13" x="485.2268" y="384.0165">1</text><text fill="#000000" font-family="sans-serif" font-size="20" lengthAdjust="spacing" textLength="13" x="330.3693" y="429.6024">1</text></g><!--link Repositories to EmployeeRepository--><g id="link_Repositories_EmployeeRepository"><path codeLine="104" d="M618.95,357.38 C610.3,383.9 600.49,413.94 593.39,435.7 " fill="none" id="Repositories-to-EmployeeRepository" style="stroke:#181818;stroke-width:1.0;"/><polygon fill="#181818" points="591.84,440.45,598.4413,433.1409,593.3954,435.6981,590.8382,430.6522,591.84,440.45" style="stroke:#181818;stroke-width:1.0;"/><text fill="#000000" font-family="sans-serif" font-size="20" lengthAdjust="spacing" textLength="33" x="608.5" y="407.3359">has</text><text fill="#000000" font-family="sans-serif" font-size="20" lengthAdjust="spacing" textLength="13" x="603.2636" y="384.226">1</text><text fill="#000000" font-family="sans-serif" font-size="20" lengthAdjust="spacing" textLength="13" x="578.6868" y="429.824">1</text></g><!--link CreateRequestController to AnnouncementRepository--><g id="link_CreateRequestController_AnnouncementRepository"><path codeLine="106" d="M303.29,175.31 C285.16,192.25 271.5,205 271.5,205 C271.5,205 271.5,412 271.5,412 C271.5,412 273.55,423.05 275.79,435.16 " fill="none" id="CreateRequestController-to-AnnouncementRepository" style="stroke:#181818;stroke-width:1.0;stroke-dasharray:7.0,7.0;"/><polygon fill="#181818" points="276.69,440.04,278.9763,430.4602,275.7755,435.1243,271.1113,431.9235,276.69,440.04" style="stroke:#181818;stroke-width:1.0;"/></g><!--link CreateRequestController to AgencyListRepository--><g id="link_CreateRequestController_AgencyListRepository"><path codeLine="107" d="M549.82,125.76 C748.15,168.32 1063.5,236 1063.5,236 C1063.5,236 1063.5,357 1063.5,357 C1063.5,357 1025.38,404.21 999.32,436.5 " fill="none" id="CreateRequestController-to-AgencyListRepository" style="stroke:#181818;stroke-width:1.0;stroke-dasharray:7.0,7.0;"/><polygon fill="#181818" points="996.2,440.36,1004.9699,435.8779,999.3443,436.4724,998.7498,430.8469,996.2,440.36" style="stroke:#181818;stroke-width:1.0;"/></g><!--link CreateRequestController to EmployeeRepository--><g id="link_CreateRequestController_EmployeeRepository"><path codeLine="108" d="M357.77,175.35 C344.5,207.19 332.5,236 332.5,236 C332.5,236 332.5,357 332.5,357 C332.5,357 389.5,412 389.5,412 C389.5,412 440.06,426.07 489.55,439.85 " fill="none" id="CreateRequestController-to-EmployeeRepository" style="stroke:#181818;stroke-width:1.0;stroke-dasharray:7.0,7.0;"/><polygon fill="#181818" points="494.12,441.12,486.5256,434.849,489.3038,439.7766,484.3762,442.5548,494.12,441.12" style="stroke:#181818;stroke-width:1.0;"/></g><!--link AnnouncementRepository to Announcement--><g id="link_AnnouncementRepository_Announcement"><path codeLine="110" d="M281.5,492.36 C281.5,511.37 281.5,539.64 281.5,570.41 " fill="none" id="AnnouncementRepository-to-Announcement" style="stroke:#181818;stroke-width:1.0;"/><polygon fill="#181818" points="281.5,575.08,285.5,566.08,281.5,570.08,277.5,566.08,281.5,575.08" style="stroke:#181818;stroke-width:1.0;"/><text fill="#000000" font-family="sans-serif" font-size="20" lengthAdjust="spacing" textLength="33" x="282.5" y="542.3359">has</text><text fill="#000000" font-family="sans-serif" font-size="20" lengthAdjust="spacing" textLength="13" x="267.1594" y="519.3555">1</text><text fill="#000000" font-family="sans-serif" font-size="20" lengthAdjust="spacing" textLength="10" x="271.2734" y="564.8725">*</text></g><!--link Announcement to Property--><g id="link_Announcement_Property"><path codeLine="112" d="M281.5,910.29 C281.5,936.32 281.5,962.97 281.5,988.25 " fill="none" id="Announcement-to-Property" style="stroke:#181818;stroke-width:1.0;"/><polygon fill="#181818" points="281.5,993.13,285.5,984.13,281.5,988.13,277.5,984.13,281.5,993.13" style="stroke:#181818;stroke-width:1.0;"/><text fill="#000000" font-family="sans-serif" font-size="20" lengthAdjust="spacing" textLength="33" x="282.5" y="960.3359">has</text><text fill="#000000" font-family="sans-serif" font-size="20" lengthAdjust="spacing" textLength="13" x="268.2258" y="937.1665">1</text><text fill="#000000" font-family="sans-serif" font-size="20" lengthAdjust="spacing" textLength="13" x="268.1242" y="982.7437">1</text></g><!--link Property to House--><g id="link_Property_House"><path codeLine="114" d="M214.42,1257.34 C199.21,1286.89 184.46,1315.56 173.93,1336.02 " fill="none" id="Property-to-House" style="stroke:#181818;stroke-width:1.0;"/><polygon fill="#181818" points="171.77,1340.22,179.4442,1334.0469,174.0574,1335.7739,172.3304,1330.3871,171.77,1340.22" style="stroke:#181818;stroke-width:1.0;"/><text fill="#000000" font-family="sans-serif" font-size="20" lengthAdjust="spacing" textLength="33" x="199.5" y="1307.3359">has</text><text fill="#000000" font-family="sans-serif" font-size="20" lengthAdjust="spacing" textLength="13" x="197.3961" y="1284.5029">1</text><text fill="#000000" font-family="sans-serif" font-size="20" lengthAdjust="spacing" textLength="13" x="159.41" y="1329.876">1</text></g><!--link Property to Land--><g id="link_Property_Land"><path codeLine="115" d="M281.5,1257.34 C281.5,1286.51 281.5,1314.82 281.5,1335.23 " fill="none" id="Property-to-Land" style="stroke:#181818;stroke-width:1.0;"/><polygon fill="#181818" points="281.5,1340.05,285.5,1331.05,281.5,1335.05,277.5,1331.05,281.5,1340.05" style="stroke:#181818;stroke-width:1.0;"/><text fill="#000000" font-family="sans-serif" font-size="20" lengthAdjust="spacing" textLength="33" x="282.5" y="1307.3359">has</text><text fill="#000000" font-family="sans-serif" font-size="20" lengthAdjust="spacing" textLength="13" x="268.1445" y="1284.5029">1</text><text fill="#000000" font-family="sans-serif" font-size="20" lengthAdjust="spacing" textLength="13" x="267.0781" y="1329.876">1</text></g><!--link Property to Apartment--><g id="link_Property_Apartment"><path codeLine="116" d="M360.03,1257.34 C377.84,1286.89 395.11,1315.56 407.43,1336.02 " fill="none" id="Property-to-Apartment" style="stroke:#181818;stroke-width:1.0;"/><polygon fill="#181818" points="410,1340.27,408.7611,1330.4994,407.4107,1335.9927,401.9174,1334.6422,410,1340.27" style="stroke:#181818;stroke-width:1.0;"/><text fill="#000000" font-family="sans-serif" font-size="20" lengthAdjust="spacing" textLength="33" x="392.5" y="1307.3359">has</text><text fill="#000000" font-family="sans-serif" font-size="20" lengthAdjust="spacing" textLength="13" x="350.9691" y="1284.5029">1</text><text fill="#000000" font-family="sans-serif" font-size="20" lengthAdjust="spacing" textLength="13" x="393.1381" y="1329.876">1</text></g><!--SRC=[XLJRRjim37tNLmXzMRiWmRR7OWWGf2iMeC22PVi0nMOS8RBeIV86h-Y_ZxPyaH8byuj4dYFna2PbJr9NmeXIONQ2dETm4BLopwZTJlu5_ka3O-_iGE8bQioE1alWpjJ0s0HL8Zk90dQkKS0DP4xeGaKCUnGv_f6wu0UXR0GfgS4r5V0ALTCQKTGHHUEGjT-4PKfOktBEo7tjO9EXxdIJRDP1VAKrrZg34hJZhsncmMtijjuhQO-GtpyyyjyeSpPpkADBTD5w_8wzfUxu3XLQwT0qT5j0AK1dpOkq0I74lvILmWOWHD-wN3m- -YNOLcP1ChMb8cRGAWfXDai5QrafVtTLEe7kI1A9fAqD24V2VzLWtPewmw1IO7gLKypxXyunPDgxvcUkC7m7ffFnq1NPr-NztAHaJRzXQx02uwZudBuvpv4w0RYWEs9FBdtndwdPrnGUJ8nNHcRGkrPvRe0k5txjl3FUYl0EKZ2vA59eFrt42T5j6sLqJ2rA2IMxs-lvGRFoxJ2aobra3XmZj1MPawXREerpPFUi9weih_omjFlUlSPIMajKdWsxeHJ6YAxgdxT7TBZaLRlO7jqZAX2Qosa0UqIIV1aRQqfiA7jV39_1hNfynTe2Vntj5w7pm5pHe-7wMlacYkPklepdy96a-DzZ6JlliyNoscISSOEHMIpY26VnxpxUyJc9QDVKM92Wex0tpgJVgV-SkdoQ-XCtqxZoSDmyadgURXsuLCRObHp7XDx7PHXIYNnXzkEOzCJH3ac-hJmZIUZwx0O-DPud_GC0]--></g></svg>