<?xml version="1.0" encoding="UTF-8" standalone="no"?><svg xmlns="http://www.w3.org/2000/svg" xmlns:xlink="http://www.w3.org/1999/xlink" contentStyleType="text/css" height="1813px" preserveAspectRatio="none" style="width:1590px;height:1813px;background:#FFFFFF;" version="1.1" viewBox="0 0 1590 1813" width="1590px" zoomAndPan="magnify"><defs/><g><rect fill="#FFFFFF" height="1618.1797" style="stroke:#181818;stroke-width:1.0;" width="10" x="49" y="98.5547"/><rect fill="#FFFFFF" height="174.2188" style="stroke:#181818;stroke-width:1.0;" width="10" x="856" y="128.1094"/><rect fill="#FFFFFF" height="75.1094" style="stroke:#181818;stroke-width:1.0;" width="10" x="856" y="339.8828"/><rect fill="#FFFFFF" height="75.1094" style="stroke:#181818;stroke-width:1.0;" width="10" x="856" y="452.5469"/><rect fill="#FFFFFF" height="172.7734" style="stroke:#181818;stroke-width:1.0;" width="10" x="856" y="612.3203"/><rect fill="#FFFFFF" height="116.2188" style="stroke:#181818;stroke-width:1.0;" width="10" x="856" y="822.6484"/><rect fill="#FFFFFF" height="82.1094" style="stroke:#181818;stroke-width:1.0;" width="10" x="856" y="976.4219"/><rect fill="#FFFFFF" height="75.1094" style="stroke:#181818;stroke-width:1.0;" width="10" x="856" y="1096.0859"/><rect fill="#FFFFFF" height="335.6563" style="stroke:#181818;stroke-width:1.0;" width="10" x="856" y="1296.9688"/><rect fill="#FFFFFF" height="37.5547" style="stroke:#181818;stroke-width:1.0;" width="10" x="856" y="1670.1797"/><rect fill="none" height="146.7734" style="stroke:#000000;stroke-width:1.5;" width="1115" x="10" y="837.6484"/><rect fill="none" height="409.875" style="stroke:#000000;stroke-width:1.5;" width="950.5" x="10" y="1186.1953"/><line style="stroke:#181818;stroke-width:0.5;stroke-dasharray:5.0,5.0;" x1="54" x2="54" y1="88.5547" y2="1725.7344"/><line style="stroke:#181818;stroke-width:0.5;stroke-dasharray:5.0,5.0;" x1="860.5" x2="860.5" y1="88.5547" y2="1725.7344"/><line style="stroke:#181818;stroke-width:0.5;stroke-dasharray:5.0,5.0;" x1="1307.5" x2="1307.5" y1="170.3867" y2="1725.7344"/><line style="stroke:#181818;stroke-width:0.5;stroke-dasharray:5.0,5.0;" x1="1514.5" x2="1514.5" y1="88.5547" y2="1725.7344"/><text fill="#000000" font-family="sans-serif" font-size="20" lengthAdjust="spacing" textLength="62" x="20" y="84.3359">Owner</text><ellipse cx="54" cy="13.5" fill="#E3E3E3" rx="8" ry="8" style="stroke:#181818;stroke-width:0.5;"/><path d="M54,21.5 L54,48.5 M41,29.5 L67,29.5 M54,48.5 L41,63.5 M54,48.5 L67,63.5 " fill="none" style="stroke:#181818;stroke-width:0.5;"/><text fill="#000000" font-family="sans-serif" font-size="20" lengthAdjust="spacing" textLength="62" x="20" y="1744.0703">Owner</text><ellipse cx="54" cy="1756.7891" fill="#E3E3E3" rx="8" ry="8" style="stroke:#181818;stroke-width:0.5;"/><path d="M54,1764.7891 L54,1791.7891 M41,1772.7891 L67,1772.7891 M54,1791.7891 L41,1806.7891 M54,1791.7891 L67,1806.7891 " fill="none" style="stroke:#181818;stroke-width:0.5;"/><rect fill="#E3E3E3" height="37.5547" rx="2.5" ry="2.5" style="stroke:#181818;stroke-width:0.5;" width="179" x="771.5" y="50"/><text fill="#000000" font-family="sans-serif" font-size="20" lengthAdjust="spacing" textLength="165" x="778.5" y="76.3359">:CreateRequestUI</text><rect fill="#E3E3E3" height="37.5547" rx="2.5" ry="2.5" style="stroke:#181818;stroke-width:0.5;" width="179" x="771.5" y="1724.7344"/><text fill="#000000" font-family="sans-serif" font-size="20" lengthAdjust="spacing" textLength="165" x="778.5" y="1751.0703">:CreateRequestUI</text><rect fill="#E3E3E3" height="37.5547" rx="2.5" ry="2.5" style="stroke:#181818;stroke-width:0.5;" width="255" x="1180.5" y="1724.7344"/><text fill="#000000" font-family="sans-serif" font-size="20" lengthAdjust="spacing" textLength="241" x="1187.5" y="1751.0703">:CreateRequestController</text><rect fill="#E3E3E3" height="37.5547" rx="2.5" ry="2.5" style="stroke:#181818;stroke-width:0.5;" width="139" x="1445.5" y="50"/><text fill="#000000" font-family="sans-serif" font-size="20" lengthAdjust="spacing" textLength="125" x="1452.5" y="76.3359">:Repositories</text><rect fill="#E3E3E3" height="37.5547" rx="2.5" ry="2.5" style="stroke:#181818;stroke-width:0.5;" width="139" x="1445.5" y="1724.7344"/><text fill="#000000" font-family="sans-serif" font-size="20" lengthAdjust="spacing" textLength="125" x="1452.5" y="1751.0703">:Repositories</text><rect fill="#FFFFFF" height="1618.1797" style="stroke:#181818;stroke-width:1.0;" width="10" x="49" y="98.5547"/><rect fill="#FFFFFF" height="174.2188" style="stroke:#181818;stroke-width:1.0;" width="10" x="856" y="128.1094"/><rect fill="#FFFFFF" height="75.1094" style="stroke:#181818;stroke-width:1.0;" width="10" x="856" y="339.8828"/><rect fill="#FFFFFF" height="75.1094" style="stroke:#181818;stroke-width:1.0;" width="10" x="856" y="452.5469"/><rect fill="#FFFFFF" height="172.7734" style="stroke:#181818;stroke-width:1.0;" width="10" x="856" y="612.3203"/><rect fill="#FFFFFF" height="116.2188" style="stroke:#181818;stroke-width:1.0;" width="10" x="856" y="822.6484"/><rect fill="#FFFFFF" height="82.1094" style="stroke:#181818;stroke-width:1.0;" width="10" x="856" y="976.4219"/><rect fill="#FFFFFF" height="75.1094" style="stroke:#181818;stroke-width:1.0;" width="10" x="856" y="1096.0859"/><rect fill="#FFFFFF" height="335.6563" style="stroke:#181818;stroke-width:1.0;" width="10" x="856" y="1296.9688"/><rect fill="#FFFFFF" height="37.5547" style="stroke:#181818;stroke-width:1.0;" width="10" x="856" y="1670.1797"/><polygon fill="#181818" points="844,124.1094,854,128.1094,844,132.1094,848,128.1094" style="stroke:#181818;stroke-width:1.0;"/><line style="stroke:#181818;stroke-width:1.0;" x1="59" x2="850" y1="128.1094" y2="128.1094"/><text fill="#000000" font-family="sans-serif" font-size="20" font-weight="bold" lengthAdjust="spacing" textLength="13" x="66" y="121.8906">1</text><text fill="#000000" font-family="sans-serif" font-size="20" lengthAdjust="spacing" textLength="242" x="83" y="121.8906">ask to create Sale or Rent</text><polygon fill="#181818" points="1168.5,161.6641,1178.5,165.6641,1168.5,169.6641,1172.5,165.6641" style="stroke:#181818;stroke-width:1.0;"/><line style="stroke:#181818;stroke-width:1.0;" x1="866" x2="1174.5" y1="165.6641" y2="165.6641"/><text fill="#000000" font-family="sans-serif" font-size="20" font-weight="bold" lengthAdjust="spacing" textLength="13" x="873" y="159.4453">2</text><text fill="#000000" font-family="sans-serif" font-size="20" lengthAdjust="spacing" textLength="141" x="890" y="159.4453">create Request</text><rect fill="#E3E3E3" height="37.5547" rx="2.5" ry="2.5" style="stroke:#181818;stroke-width:0.5;" width="255" x="1180.5" y="136.1094"/><text fill="#000000" font-family="sans-serif" font-size="20" lengthAdjust="spacing" textLength="241" x="1187.5" y="162.4453">:CreateRequestController</text><polygon fill="#181818" points="1577.5,210.2188,1587.5,214.2188,1577.5,218.2188,1581.5,214.2188" style="stroke:#181818;stroke-width:1.0;"/><line style="stroke:#181818;stroke-width:1.0;stroke-dasharray:2.0,2.0;" x1="866" x2="1583.5" y1="214.2188" y2="214.2188"/><text fill="#000000" font-family="sans-serif" font-size="20" font-weight="bold" lengthAdjust="spacing" textLength="13" x="873" y="208">3</text><text fill="#000000" font-family="sans-serif" font-size="20" lengthAdjust="spacing" textLength="147" x="890" y="208">getAgencyList()</text><line style="stroke:#181818;stroke-width:1.0;stroke-dasharray:2.0,2.0;" x1="866" x2="908" y1="251.7734" y2="251.7734"/><line style="stroke:#181818;stroke-width:1.0;stroke-dasharray:2.0,2.0;" x1="908" x2="908" y1="251.7734" y2="264.7734"/><line style="stroke:#181818;stroke-width:1.0;stroke-dasharray:2.0,2.0;" x1="867" x2="908" y1="264.7734" y2="264.7734"/><polygon fill="#181818" points="877,260.7734,867,264.7734,877,268.7734,873,264.7734" style="stroke:#181818;stroke-width:1.0;"/><text fill="#000000" font-family="sans-serif" font-size="20" font-weight="bold" lengthAdjust="spacing" textLength="13" x="873" y="245.5547">4</text><text fill="#000000" font-family="sans-serif" font-size="20" lengthAdjust="spacing" textLength="6" x="890" y="245.5547"> </text><polygon fill="#181818" points="70,298.3281,60,302.3281,70,306.3281,66,302.3281" style="stroke:#181818;stroke-width:1.0;"/><line style="stroke:#181818;stroke-width:1.0;stroke-dasharray:2.0,2.0;" x1="64" x2="860" y1="302.3281" y2="302.3281"/><text fill="#000000" font-family="sans-serif" font-size="20" font-weight="bold" lengthAdjust="spacing" textLength="13" x="76" y="296.1094">5</text><text fill="#000000" font-family="sans-serif" font-size="20" lengthAdjust="spacing" textLength="231" x="93" y="296.1094">displays list of Agencies</text><polygon fill="#181818" points="844,335.8828,854,339.8828,844,343.8828,848,339.8828" style="stroke:#181818;stroke-width:1.0;"/><line style="stroke:#181818;stroke-width:1.0;" x1="59" x2="850" y1="339.8828" y2="339.8828"/><text fill="#000000" font-family="sans-serif" font-size="20" font-weight="bold" lengthAdjust="spacing" textLength="13" x="66" y="333.6641">6</text><text fill="#000000" font-family="sans-serif" font-size="20" lengthAdjust="spacing" textLength="237" x="83" y="333.6641">submits selected Agency</text><polygon fill="#181818" points="1577.5,373.4375,1587.5,377.4375,1577.5,381.4375,1581.5,377.4375" style="stroke:#181818;stroke-width:1.0;"/><line style="stroke:#181818;stroke-width:1.0;stroke-dasharray:2.0,2.0;" x1="866" x2="1583.5" y1="377.4375" y2="377.4375"/><text fill="#000000" font-family="sans-serif" font-size="20" font-weight="bold" lengthAdjust="spacing" textLength="13" x="873" y="371.2188">7</text><text fill="#000000" font-family="sans-serif" font-size="20" lengthAdjust="spacing" textLength="134" x="890" y="371.2188">getAgentList()</text><polygon fill="#181818" points="70,410.9922,60,414.9922,70,418.9922,66,414.9922" style="stroke:#181818;stroke-width:1.0;"/><line style="stroke:#181818;stroke-width:1.0;stroke-dasharray:2.0,2.0;" x1="64" x2="860" y1="414.9922" y2="414.9922"/><text fill="#000000" font-family="sans-serif" font-size="20" font-weight="bold" lengthAdjust="spacing" textLength="13" x="76" y="408.7734">8</text><text fill="#000000" font-family="sans-serif" font-size="20" lengthAdjust="spacing" textLength="201" x="93" y="408.7734">displays list of Agent</text><polygon fill="#181818" points="844,448.5469,854,452.5469,844,456.5469,848,452.5469" style="stroke:#181818;stroke-width:1.0;"/><line style="stroke:#181818;stroke-width:1.0;" x1="59" x2="850" y1="452.5469" y2="452.5469"/><text fill="#000000" font-family="sans-serif" font-size="20" font-weight="bold" lengthAdjust="spacing" textLength="13" x="66" y="446.3281">9</text><text fill="#000000" font-family="sans-serif" font-size="20" lengthAdjust="spacing" textLength="224" x="83" y="446.3281">submits selected Agent</text><polygon fill="#181818" points="1577.5,486.1016,1587.5,490.1016,1577.5,494.1016,1581.5,490.1016" style="stroke:#181818;stroke-width:1.0;"/><line style="stroke:#181818;stroke-width:1.0;stroke-dasharray:2.0,2.0;" x1="866" x2="1583.5" y1="490.1016" y2="490.1016"/><text fill="#000000" font-family="sans-serif" font-size="20" font-weight="bold" lengthAdjust="spacing" textLength="26" x="873" y="483.8828">10</text><text fill="#000000" font-family="sans-serif" font-size="20" lengthAdjust="spacing" textLength="270" x="903" y="483.8828">getOwnerListCharactristics()</text><polygon fill="#181818" points="70,523.6563,60,527.6563,70,531.6563,66,527.6563" style="stroke:#181818;stroke-width:1.0;"/><line style="stroke:#181818;stroke-width:1.0;stroke-dasharray:2.0,2.0;" x1="64" x2="860" y1="527.6563" y2="527.6563"/><text fill="#000000" font-family="sans-serif" font-size="20" font-weight="bold" lengthAdjust="spacing" textLength="26" x="76" y="521.4375">11</text><text fill="#000000" font-family="sans-serif" font-size="20" lengthAdjust="spacing" textLength="182" x="106" y="521.4375">requests ADM data</text><polygon fill="#181818" points="844,608.3203,854,612.3203,844,616.3203,848,612.3203" style="stroke:#181818;stroke-width:1.0;"/><line style="stroke:#181818;stroke-width:1.0;" x1="59" x2="850" y1="612.3203" y2="612.3203"/><text fill="#000000" font-family="sans-serif" font-size="20" font-weight="bold" lengthAdjust="spacing" textLength="26" x="66" y="582.5469">12</text><text fill="#000000" font-family="sans-serif" font-size="20" lengthAdjust="spacing" textLength="492" x="96" y="558.9922">types requested data (name, citizen's card number,</text><text fill="#000000" font-family="sans-serif" font-size="20" lengthAdjust="spacing" textLength="352" x="96" y="582.5469">tax number, address, email address,</text><text fill="#000000" font-family="sans-serif" font-size="20" lengthAdjust="spacing" textLength="264" x="96" y="606.1016">contact telephone number).</text><line style="stroke:#181818;stroke-width:1.0;stroke-dasharray:2.0,2.0;" x1="866" x2="908" y1="696.9844" y2="696.9844"/><line style="stroke:#181818;stroke-width:1.0;stroke-dasharray:2.0,2.0;" x1="908" x2="908" y1="696.9844" y2="709.9844"/><line style="stroke:#181818;stroke-width:1.0;stroke-dasharray:2.0,2.0;" x1="867" x2="908" y1="709.9844" y2="709.9844"/><polygon fill="#181818" points="877,705.9844,867,709.9844,877,713.9844,873,709.9844" style="stroke:#181818;stroke-width:1.0;"/><text fill="#000000" font-family="sans-serif" font-size="20" font-weight="bold" lengthAdjust="spacing" textLength="26" x="873" y="667.2109">13</text><text fill="#000000" font-family="sans-serif" font-size="20" lengthAdjust="spacing" textLength="387" x="903" y="643.6563">Keep data (name, citizen's card number,</text><text fill="#000000" font-family="sans-serif" font-size="20" lengthAdjust="spacing" textLength="352" x="903" y="667.2109">tax number, address, email address,</text><text fill="#000000" font-family="sans-serif" font-size="20" lengthAdjust="spacing" textLength="258" x="903" y="690.7656">contact telephone number)</text><polygon fill="#181818" points="1577.5,743.5391,1587.5,747.5391,1577.5,751.5391,1581.5,747.5391" style="stroke:#181818;stroke-width:1.0;"/><line style="stroke:#181818;stroke-width:1.0;stroke-dasharray:2.0,2.0;" x1="866" x2="1583.5" y1="747.5391" y2="747.5391"/><text fill="#000000" font-family="sans-serif" font-size="20" font-weight="bold" lengthAdjust="spacing" textLength="26" x="873" y="741.3203">14</text><text fill="#000000" font-family="sans-serif" font-size="20" lengthAdjust="spacing" textLength="203" x="903" y="741.3203">getTransactionType()</text><polygon fill="#181818" points="70,781.0938,60,785.0938,70,789.0938,66,785.0938" style="stroke:#181818;stroke-width:1.0;"/><line style="stroke:#181818;stroke-width:1.0;stroke-dasharray:2.0,2.0;" x1="64" x2="860" y1="785.0938" y2="785.0938"/><text fill="#000000" font-family="sans-serif" font-size="20" font-weight="bold" lengthAdjust="spacing" textLength="26" x="76" y="778.875">15</text><text fill="#000000" font-family="sans-serif" font-size="20" lengthAdjust="spacing" textLength="266" x="106" y="778.875">requests type of transaction</text><polygon fill="#181818" points="844,818.6484,854,822.6484,844,826.6484,848,822.6484" style="stroke:#181818;stroke-width:1.0;"/><line style="stroke:#181818;stroke-width:1.0;" x1="59" x2="850" y1="822.6484" y2="822.6484"/><text fill="#000000" font-family="sans-serif" font-size="20" font-weight="bold" lengthAdjust="spacing" textLength="26" x="66" y="816.4297">16</text><text fill="#000000" font-family="sans-serif" font-size="20" lengthAdjust="spacing" textLength="335" x="96" y="816.4297">types requested data (Sale or Rent)</text><path d="M10,837.6484 L89,837.6484 L89,853.2031 L79,863.2031 L10,863.2031 L10,837.6484 " fill="#EEEEEE" style="stroke:#000000;stroke-width:1.5;"/><rect fill="none" height="146.7734" style="stroke:#000000;stroke-width:1.5;" width="1115" x="10" y="837.6484"/><text fill="#000000" font-family="sans-serif" font-size="20" font-weight="bold" lengthAdjust="spacing" textLength="34" x="25" y="857.9844">opt</text><text fill="#000000" font-family="sans-serif" font-size="20" font-weight="bold" lengthAdjust="spacing" textLength="61" x="104" y="858.9844">[Rent]</text><polygon fill="#181818" points="1577.5,897.3125,1587.5,901.3125,1577.5,905.3125,1581.5,901.3125" style="stroke:#181818;stroke-width:1.0;"/><line style="stroke:#181818;stroke-width:1.0;stroke-dasharray:2.0,2.0;" x1="866" x2="1583.5" y1="901.3125" y2="901.3125"/><text fill="#000000" font-family="sans-serif" font-size="20" font-weight="bold" lengthAdjust="spacing" textLength="26" x="873" y="895.0938">17</text><text fill="#000000" font-family="sans-serif" font-size="20" lengthAdjust="spacing" textLength="208" x="903" y="895.0938">getContractDuration()</text><polygon fill="#181818" points="70,934.8672,60,938.8672,70,942.8672,66,938.8672" style="stroke:#181818;stroke-width:1.0;"/><line style="stroke:#181818;stroke-width:1.0;stroke-dasharray:2.0,2.0;" x1="64" x2="860" y1="938.8672" y2="938.8672"/><text fill="#000000" font-family="sans-serif" font-size="20" font-weight="bold" lengthAdjust="spacing" textLength="26" x="76" y="932.6484">18</text><text fill="#000000" font-family="sans-serif" font-size="20" lengthAdjust="spacing" textLength="242" x="106" y="932.6484">request contract duration</text><polygon fill="#181818" points="844,972.4219,854,976.4219,844,980.4219,848,976.4219" style="stroke:#181818;stroke-width:1.0;"/><line style="stroke:#181818;stroke-width:1.0;" x1="59" x2="850" y1="976.4219" y2="976.4219"/><text fill="#000000" font-family="sans-serif" font-size="20" font-weight="bold" lengthAdjust="spacing" textLength="26" x="66" y="970.2031">19</text><text fill="#000000" font-family="sans-serif" font-size="20" lengthAdjust="spacing" textLength="201" x="96" y="970.2031">types requested data</text><polygon fill="#181818" points="1577.5,1016.9766,1587.5,1020.9766,1577.5,1024.9766,1581.5,1020.9766" style="stroke:#181818;stroke-width:1.0;"/><line style="stroke:#181818;stroke-width:1.0;stroke-dasharray:2.0,2.0;" x1="866" x2="1583.5" y1="1020.9766" y2="1020.9766"/><text fill="#000000" font-family="sans-serif" font-size="20" font-weight="bold" lengthAdjust="spacing" textLength="26" x="873" y="1014.7578">20</text><text fill="#000000" font-family="sans-serif" font-size="20" lengthAdjust="spacing" textLength="205" x="903" y="1014.7578">getPropertyTypeList()</text><polygon fill="#181818" points="70,1054.5313,60,1058.5313,70,1062.5313,66,1058.5313" style="stroke:#181818;stroke-width:1.0;"/><line style="stroke:#181818;stroke-width:1.0;stroke-dasharray:2.0,2.0;" x1="64" x2="860" y1="1058.5313" y2="1058.5313"/><text fill="#000000" font-family="sans-serif" font-size="20" font-weight="bold" lengthAdjust="spacing" textLength="26" x="76" y="1052.3125">21</text><text fill="#000000" font-family="sans-serif" font-size="20" lengthAdjust="spacing" textLength="242" x="106" y="1052.3125">requests type of property</text><polygon fill="#181818" points="844,1092.0859,854,1096.0859,844,1100.0859,848,1096.0859" style="stroke:#181818;stroke-width:1.0;"/><line style="stroke:#181818;stroke-width:1.0;" x1="59" x2="850" y1="1096.0859" y2="1096.0859"/><text fill="#000000" font-family="sans-serif" font-size="20" font-weight="bold" lengthAdjust="spacing" textLength="26" x="66" y="1089.8672">22</text><text fill="#000000" font-family="sans-serif" font-size="20" lengthAdjust="spacing" textLength="465" x="96" y="1089.8672">types requested data (Apartement, House, Land)</text><polygon fill="#181818" points="1577.5,1129.6406,1587.5,1133.6406,1577.5,1137.6406,1581.5,1133.6406" style="stroke:#181818;stroke-width:1.0;"/><line style="stroke:#181818;stroke-width:1.0;stroke-dasharray:2.0,2.0;" x1="866" x2="1583.5" y1="1133.6406" y2="1133.6406"/><text fill="#000000" font-family="sans-serif" font-size="20" font-weight="bold" lengthAdjust="spacing" textLength="26" x="873" y="1127.4219">23</text><text fill="#000000" font-family="sans-serif" font-size="20" lengthAdjust="spacing" textLength="288" x="903" y="1127.4219">getPropertyListCharactristics()</text><polygon fill="#181818" points="70,1167.1953,60,1171.1953,70,1175.1953,66,1171.1953" style="stroke:#181818;stroke-width:1.0;"/><line style="stroke:#181818;stroke-width:1.0;stroke-dasharray:2.0,2.0;" x1="64" x2="860" y1="1171.1953" y2="1171.1953"/><text fill="#000000" font-family="sans-serif" font-size="20" font-weight="bold" lengthAdjust="spacing" textLength="26" x="76" y="1164.9766">24</text><text fill="#000000" font-family="sans-serif" font-size="20" lengthAdjust="spacing" textLength="243" x="106" y="1164.9766">requests data of property</text><path d="M10,1186.1953 L82,1186.1953 L82,1201.75 L72,1211.75 L10,1211.75 L10,1186.1953 " fill="#EEEEEE" style="stroke:#000000;stroke-width:1.5;"/><rect fill="none" height="409.875" style="stroke:#000000;stroke-width:1.5;" width="950.5" x="10" y="1186.1953"/><text fill="#000000" font-family="sans-serif" font-size="20" font-weight="bold" lengthAdjust="spacing" textLength="27" x="25" y="1206.5313">alt</text><text fill="#000000" font-family="sans-serif" font-size="20" font-weight="bold" lengthAdjust="spacing" textLength="64" x="97" y="1207.5313">[Land]</text><polygon fill="#181818" points="844,1292.9688,854,1296.9688,844,1300.9688,848,1296.9688" style="stroke:#181818;stroke-width:1.0;"/><line style="stroke:#181818;stroke-width:1.0;" x1="59" x2="850" y1="1296.9688" y2="1296.9688"/><text fill="#000000" font-family="sans-serif" font-size="20" font-weight="bold" lengthAdjust="spacing" textLength="26" x="66" y="1267.1953">25</text><text fill="#000000" font-family="sans-serif" font-size="20" lengthAdjust="spacing" textLength="430" x="96" y="1243.6406">Select requested data (area (in m2), location,</text><text fill="#000000" font-family="sans-serif" font-size="20" lengthAdjust="spacing" textLength="500" x="96" y="1267.1953">distance from the city centre, requested price (USD),</text><text fill="#000000" font-family="sans-serif" font-size="20" lengthAdjust="spacing" textLength="129" x="96" y="1290.75">photographs)</text><line style="stroke:#000000;stroke-width:1.0;stroke-dasharray:2.0,2.0;" x1="10" x2="960.5" y1="1305.9688" y2="1305.9688"/><text fill="#000000" font-family="sans-serif" font-size="20" font-weight="bold" lengthAdjust="spacing" textLength="135" x="15" y="1325.3047">[Apartement]</text><polygon fill="#181818" points="844,1426.7422,854,1430.7422,844,1434.7422,848,1430.7422" style="stroke:#181818;stroke-width:1.0;"/><line style="stroke:#181818;stroke-width:1.0;" x1="59" x2="850" y1="1430.7422" y2="1430.7422"/><text fill="#000000" font-family="sans-serif" font-size="20" font-weight="bold" lengthAdjust="spacing" textLength="26" x="66" y="1389.1914">26</text><text fill="#000000" font-family="sans-serif" font-size="20" lengthAdjust="spacing" textLength="714" x="96" y="1353.8594">Select requested data (area (in m2), location, distance from the city centre,</text><text fill="#000000" font-family="sans-serif" font-size="20" lengthAdjust="spacing" textLength="566" x="96" y="1377.4141">requested price (USD), photographs, number of bedrooms,</text><text fill="#000000" font-family="sans-serif" font-size="20" lengthAdjust="spacing" textLength="479" x="96" y="1400.9688">number of bathrooms, number of parking spaces,</text><text fill="#000000" font-family="sans-serif" font-size="20" lengthAdjust="spacing" textLength="708" x="96" y="1424.5234">any available equipment (such as central heating and/or air conditioning).</text><line style="stroke:#000000;stroke-width:1.0;stroke-dasharray:2.0,2.0;" x1="10" x2="960.5" y1="1439.7422" y2="1439.7422"/><text fill="#000000" font-family="sans-serif" font-size="20" font-weight="bold" lengthAdjust="spacing" textLength="79" x="15" y="1459.0781">[House]</text><polygon fill="#181818" points="844,1584.0703,854,1588.0703,844,1592.0703,848,1588.0703" style="stroke:#181818;stroke-width:1.0;"/><line style="stroke:#181818;stroke-width:1.0;" x1="59" x2="850" y1="1588.0703" y2="1588.0703"/><text fill="#000000" font-family="sans-serif" font-size="20" font-weight="bold" lengthAdjust="spacing" textLength="26" x="66" y="1534.7422">27</text><text fill="#000000" font-family="sans-serif" font-size="20" lengthAdjust="spacing" textLength="714" x="96" y="1487.6328">Select requested data (area (in m2), location, distance from the city centre,</text><text fill="#000000" font-family="sans-serif" font-size="20" lengthAdjust="spacing" textLength="566" x="96" y="1511.1875">requested price (USD), photographs, number of bedrooms,</text><text fill="#000000" font-family="sans-serif" font-size="20" lengthAdjust="spacing" textLength="479" x="96" y="1534.7422">number of bathrooms, number of parking spaces,</text><text fill="#000000" font-family="sans-serif" font-size="20" lengthAdjust="spacing" textLength="701" x="96" y="1558.2969">any available equipment (such as central heating and/or air conditioning,</text><text fill="#000000" font-family="sans-serif" font-size="20" lengthAdjust="spacing" textLength="743" x="96" y="1581.8516">existence of a basement, existence of an inhabitable loft, sun exposure value.</text><polygon fill="#181818" points="70,1628.625,60,1632.625,70,1636.625,66,1632.625" style="stroke:#181818;stroke-width:1.0;"/><line style="stroke:#181818;stroke-width:1.0;stroke-dasharray:2.0,2.0;" x1="64" x2="860" y1="1632.625" y2="1632.625"/><text fill="#000000" font-family="sans-serif" font-size="20" font-weight="bold" lengthAdjust="spacing" textLength="26" x="76" y="1626.4063">28</text><text fill="#000000" font-family="sans-serif" font-size="20" lengthAdjust="spacing" textLength="186" x="106" y="1626.4063">ask to confirm data</text><polygon fill="#181818" points="844,1666.1797,854,1670.1797,844,1674.1797,848,1670.1797" style="stroke:#181818;stroke-width:1.0;"/><line style="stroke:#181818;stroke-width:1.0;" x1="59" x2="850" y1="1670.1797" y2="1670.1797"/><text fill="#000000" font-family="sans-serif" font-size="20" font-weight="bold" lengthAdjust="spacing" textLength="26" x="66" y="1663.9609">29</text><text fill="#000000" font-family="sans-serif" font-size="20" lengthAdjust="spacing" textLength="201" x="96" y="1663.9609">confirm entered data</text><polygon fill="#181818" points="70,1703.7344,60,1707.7344,70,1711.7344,66,1707.7344" style="stroke:#181818;stroke-width:1.0;"/><line style="stroke:#181818;stroke-width:1.0;stroke-dasharray:2.0,2.0;" x1="64" x2="860" y1="1707.7344" y2="1707.7344"/><text fill="#000000" font-family="sans-serif" font-size="20" font-weight="bold" lengthAdjust="spacing" textLength="26" x="76" y="1701.5156">30</text><text fill="#000000" font-family="sans-serif" font-size="20" lengthAdjust="spacing" textLength="256" x="106" y="1701.5156">displays operation success</text><!--SRC=[xLbHSzf647xNhzZnYo63tPWscLGFdL9ift7mc46GlZ3JEQG5Rf3krBkJO_BhktS8422GdRHf7yIBpTtkQhzlLz_T3dh1HSeKIs8PBZ222ASiYysj52RWNn3QhpszDe542XdEbKmGZCgmi9EoSC5c69XbZA0mD4pCugA1dhD8VkPY1bCMQ_GybXaficI2olFEvpn2c4ff9lB9Ow6H2iuUFWjKPy0qTAxlFOfYUCXJ9WoS-Ls5pE00_yfGcz47PpNwSCgeIu2KZECyP7SuwEsP3p2LcjEZEMfdirbO1joYeNozynqVLN0PYyC8_LvdkETYc5vqAQqPXTq-m1-BOUc62rE-jHVOxwHfp4Dck1G1Qar_dFEVdNv_pvIbQMv1IHznE_GACwMGkcBZETAeYYx1JH1q7lQyf9enmR-u-3ju7qetNA3ohHE1APcYpoh8u7q9zMHfsLpHsXdSt7Oyss_yaUXrVUP1_g4lSF4BTHNuPBm08o5q3GK1enwd3XqG6rlxJHJgmysY_L04YcCRxjKhYfK7oTjont9jJUO-pD1qPYZ2POzhqsWUCxJvUGUR1GEBmuU8wpHcImqnHGCv1HUR-lJGDy8Db0Ci9UJeR99meq5ZJAyzASWgwqE_emGTWsvov9NeIi4TKbj4zWnWK8hCbFWLerO1SwfcWNNdf8kXKVGl3tL9WGzgg5Oju_GG8cQOzuq0pJ95lGvhjPzYGaEm15iGSaFoByurX4n5i5Bg5eo5OK-RRooA50b02p1XFDv-7OkGv9Po0KFSfNCfCFTfNfvkZ1Cak9G_8gRV9S_AGWuL4zgcBiMGU7nH0Itnja_DDaPvjNOB-dNrBCfLy_HRUR0hKxEIkIestF5AiQupvIIuaeuD6n3chX3blizWuZGLvKoK-foY5qLKYRklP8hAB6qB717gwZP8yo3_pllSiOSW9bJ55lmkCqqlJO-9gFboWJu6_jboTfmAb-etKC5Y0mvMPMi4JiqFM69qB4E32qZQpHRGPTYrefK8EbteDXlI_PGklc3cQ3Ld2I4HgeZBRQ1KSR9gZ8BhflKZEJ5ofbWwryqNQHxI_PXItfJj7qPKWMSiZY0gu6dbAcahDi58IPderbWK5fcPhrOBbWHeOGS0JSC2Mdicbi0UIP7PX2IAdifJYnSQEWldzeRcSc8npEdAP3sflZ-GaZ6kh6f4t0AYTJfKoZbqxLxJLq6VJHgV21PQMFGaHWdeN35sDmHmCMSJRjmZOpab2vq9ig9RUgOG7bcSuMMfb3vF4TPNRIccN2LVVStPg_4w7452TUmyUEu5TUz6RGNBzGOn4L9bT5M-E_k_4ZLP4dlRKVc_7CJ_pwDtFQVLSrezfzLpMZsdrNDQFQVLSrezfzLpMZsdrNFQTvxJ-Z7DBAFx7ZoYiZzzmTLb-tNxnykhHa04tn7rxP_Xgks_UUU_UGj_t0p1RZUznlj-3xJC59N8zgRYayncq_Jkg3bWa0d34_JX8KLnT_rnlG0tuf4hAPp0t7swtngy_UdYDsxejL2K2NowzwvN4oDvX3AYVl5XDBozUEUHtCuocWbzI8tNbHHNBNte3_y6]--></g></svg>