<?xml version="1.0" encoding="UTF-8" standalone="no"?><svg xmlns="http://www.w3.org/2000/svg" xmlns:xlink="http://www.w3.org/1999/xlink" contentStyleType="text/css" height="1126px" preserveAspectRatio="none" style="width:771px;height:1126px;background:#FFFFFF;" version="1.1" viewBox="0 0 771 1126" width="771px" zoomAndPan="magnify"><defs/><g><text fill="#000000" font-family="sans-serif" font-size="14" font-weight="bold" lengthAdjust="spacing" textLength="105" x="326" y="23.5352">Domain Model</text><!--class UnregisteredUser--><g id="elem_UnregisteredUser"><rect codeLine="16" fill="#F1F1F1" height="41.5547" id="UnregisteredUser" rx="2.5" ry="2.5" style="stroke:#181818;stroke-width:0.5;" width="172" x="459" y="44.4883"/><text fill="#000000" font-family="sans-serif" font-size="20" lengthAdjust="spacing" textLength="166" x="462" y="68.8242">UnregisteredUser</text><line style="stroke:#181818;stroke-width:0.5;" x1="460" x2="630" y1="78.043" y2="78.043"/></g><!--class SunExposure--><g id="elem_SunExposure"><rect codeLine="20" fill="#F1F1F1" height="135.7734" id="SunExposure" rx="2.5" ry="2.5" style="stroke:#181818;stroke-width:0.5;" width="130" x="166" y="983.4883"/><text fill="#000000" font-family="sans-serif" font-size="20" lengthAdjust="spacing" textLength="124" x="169" y="1007.8242">SunExposure</text><line style="stroke:#181818;stroke-width:0.5;" x1="167" x2="295" y1="1017.043" y2="1017.043"/><text fill="#000000" font-family="sans-serif" font-size="20" lengthAdjust="spacing" textLength="72" x="172" y="1040.3789">NORTH</text><text fill="#000000" font-family="sans-serif" font-size="20" lengthAdjust="spacing" textLength="69" x="172" y="1063.9336">SOUTH</text><text fill="#000000" font-family="sans-serif" font-size="20" lengthAdjust="spacing" textLength="49" x="172" y="1087.4883">EAST</text><text fill="#000000" font-family="sans-serif" font-size="20" lengthAdjust="spacing" textLength="52" x="172" y="1111.043">WEST</text></g><!--class Equipment--><g id="elem_Equipment"><rect codeLine="27" fill="#F1F1F1" height="41.5547" id="Equipment" rx="2.5" ry="2.5" style="stroke:#181818;stroke-width:0.5;" width="110" x="7" y="832.9883"/><text fill="#000000" font-family="sans-serif" font-size="20" lengthAdjust="spacing" textLength="104" x="10" y="857.3242">Equipment</text><line style="stroke:#181818;stroke-width:0.5;" x1="8" x2="116" y1="866.543" y2="866.543"/></g><!--class Residency--><g id="elem_Residency"><rect codeLine="30" fill="#F1F1F1" height="112.2188" id="Residency" rx="2.5" ry="2.5" style="stroke:#181818;stroke-width:0.5;" width="248" x="107" y="612.4883"/><text fill="#000000" font-family="sans-serif" font-size="20" lengthAdjust="spacing" textLength="96" x="183" y="636.8242">Residency</text><line style="stroke:#181818;stroke-width:0.5;" x1="108" x2="354" y1="646.043" y2="646.043"/><text fill="#000000" font-family="sans-serif" font-size="20" lengthAdjust="spacing" textLength="195" x="113" y="669.3789">numberOfBedrooms</text><text fill="#000000" font-family="sans-serif" font-size="20" lengthAdjust="spacing" textLength="201" x="113" y="692.9336">numberOfBathrooms</text><text fill="#000000" font-family="sans-serif" font-size="20" lengthAdjust="spacing" textLength="236" x="113" y="716.4883">numberOfParkingSpaces</text></g><!--class Property--><g id="elem_Property"><rect codeLine="36" fill="#F1F1F1" height="112.2188" id="Property" rx="2.5" ry="2.5" style="stroke:#181818;stroke-width:0.5;" width="205" x="340.5" y="415.4883"/><text fill="#000000" font-family="sans-serif" font-size="20" lengthAdjust="spacing" textLength="80" x="403" y="439.8242">Property</text><line style="stroke:#181818;stroke-width:0.5;" x1="341.5" x2="544.5" y1="449.043" y2="449.043"/><text fill="#000000" font-family="sans-serif" font-size="20" lengthAdjust="spacing" textLength="41" x="346.5" y="472.3789">area</text><text fill="#000000" font-family="sans-serif" font-size="20" lengthAdjust="spacing" textLength="193" x="346.5" y="495.9336">distanceFromCenter</text><text fill="#000000" font-family="sans-serif" font-size="20" lengthAdjust="spacing" textLength="48" x="346.5" y="519.4883">price</text></g><!--class Announcement--><g id="elem_Announcement"><rect codeLine="42" fill="#F1F1F1" height="159.3281" id="Announcement" rx="2.5" ry="2.5" style="stroke:#181818;stroke-width:0.5;" width="159" x="465.5" y="171.4883"/><text fill="#000000" font-family="sans-serif" font-size="20" lengthAdjust="spacing" textLength="144" x="473" y="195.8242">Announcement</text><line style="stroke:#181818;stroke-width:0.5;" x1="466.5" x2="623.5" y1="205.043" y2="205.043"/><text fill="#000000" font-family="sans-serif" font-size="20" lengthAdjust="spacing" textLength="147" x="471.5" y="228.3789">typeOfBuisness</text><text fill="#000000" font-family="sans-serif" font-size="20" lengthAdjust="spacing" textLength="144" x="471.5" y="251.9336">typeOfProperty</text><text fill="#000000" font-family="sans-serif" font-size="20" lengthAdjust="spacing" textLength="140" x="471.5" y="275.4883">publishedDate</text><text fill="#000000" font-family="sans-serif" font-size="20" lengthAdjust="spacing" textLength="118" x="471.5" y="299.043">publishedBy</text><text fill="#000000" font-family="sans-serif" font-size="20" lengthAdjust="spacing" textLength="97" x="471.5" y="322.5977">comission</text></g><!--class House--><g id="elem_House"><rect codeLine="50" fill="#F1F1F1" height="88.6641" id="House" rx="2.5" ry="2.5" style="stroke:#181818;stroke-width:0.5;" width="157" x="152.5" y="809.4883"/><text fill="#000000" font-family="sans-serif" font-size="20" lengthAdjust="spacing" textLength="60" x="201" y="833.8242">House</text><line style="stroke:#181818;stroke-width:0.5;" x1="153.5" x2="308.5" y1="843.043" y2="843.043"/><text fill="#000000" font-family="sans-serif" font-size="20" lengthAdjust="spacing" textLength="94" x="158.5" y="866.3789">basement</text><text fill="#000000" font-family="sans-serif" font-size="20" lengthAdjust="spacing" textLength="145" x="158.5" y="889.9336">inhabitableLoft</text></g><!--class Address--><g id="elem_Address"><rect codeLine="55" fill="#F1F1F1" height="88.6641" id="Address" rx="2.5" ry="2.5" style="stroke:#181818;stroke-width:0.5;" width="135" x="390.5" y="623.9883"/><text fill="#000000" font-family="sans-serif" font-size="20" lengthAdjust="spacing" textLength="79" x="418.5" y="648.3242">Address</text><line style="stroke:#181818;stroke-width:0.5;" x1="391.5" x2="524.5" y1="657.543" y2="657.543"/><text fill="#000000" font-family="sans-serif" font-size="20" lengthAdjust="spacing" textLength="123" x="396.5" y="680.8789">doorNumber</text><text fill="#000000" font-family="sans-serif" font-size="20" lengthAdjust="spacing" textLength="80" x="396.5" y="704.4336">zipCode</text></g><!--class Apartment--><g id="elem_Apartment"><rect codeLine="60" fill="#F1F1F1" height="41.5547" id="Apartment" rx="2.5" ry="2.5" style="stroke:#181818;stroke-width:0.5;" width="108" x="345" y="832.9883"/><text fill="#000000" font-family="sans-serif" font-size="20" lengthAdjust="spacing" textLength="102" x="348" y="857.3242">Apartment</text><line style="stroke:#181818;stroke-width:0.5;" x1="346" x2="452" y1="866.543" y2="866.543"/></g><!--class Land--><g id="elem_Land"><rect codeLine="64" fill="#F1F1F1" height="41.5547" id="Land" rx="2.5" ry="2.5" style="stroke:#181818;stroke-width:0.5;" width="53" x="560.5" y="647.4883"/><text fill="#000000" font-family="sans-serif" font-size="20" lengthAdjust="spacing" textLength="47" x="563.5" y="671.8242">Land</text><line style="stroke:#181818;stroke-width:0.5;" x1="561.5" x2="612.5" y1="681.043" y2="681.043"/></g><!--class State--><g id="elem_State"><rect codeLine="68" fill="#F1F1F1" height="41.5547" id="State" rx="2.5" ry="2.5" style="stroke:#181818;stroke-width:0.5;" width="53" x="556.5" y="832.9883"/><text fill="#000000" font-family="sans-serif" font-size="20" lengthAdjust="spacing" textLength="47" x="559.5" y="857.3242">State</text><line style="stroke:#181818;stroke-width:0.5;" x1="557.5" x2="608.5" y1="866.543" y2="866.543"/></g><!--class District--><g id="elem_District"><rect codeLine="71" fill="#F1F1F1" height="41.5547" id="District" rx="2.5" ry="2.5" style="stroke:#181818;stroke-width:0.5;" width="75" x="651.5" y="647.4883"/><text fill="#000000" font-family="sans-serif" font-size="20" lengthAdjust="spacing" textLength="69" x="654.5" y="671.8242">District</text><line style="stroke:#181818;stroke-width:0.5;" x1="652.5" x2="725.5" y1="681.043" y2="681.043"/></g><!--class City--><g id="elem_City"><rect codeLine="74" fill="#F1F1F1" height="41.5547" id="City" rx="2.5" ry="2.5" style="stroke:#181818;stroke-width:0.5;" width="43" x="676.5" y="450.4883"/><text fill="#000000" font-family="sans-serif" font-size="20" lengthAdjust="spacing" textLength="37" x="679.5" y="474.8242">City</text><line style="stroke:#181818;stroke-width:0.5;" x1="677.5" x2="718.5" y1="484.043" y2="484.043"/></g><!--class Street--><g id="elem_Street"><rect codeLine="77" fill="#F1F1F1" height="41.5547" id="Street" rx="2.5" ry="2.5" style="stroke:#181818;stroke-width:0.5;" width="61" x="667.5" y="229.9883"/><text fill="#000000" font-family="sans-serif" font-size="20" lengthAdjust="spacing" textLength="55" x="670.5" y="254.3242">Street</text><line style="stroke:#181818;stroke-width:0.5;" x1="668.5" x2="727.5" y1="263.543" y2="263.543"/></g><!--class Photo--><g id="elem_Photo"><rect codeLine="80" fill="#F1F1F1" height="41.5547" id="Photo" rx="2.5" ry="2.5" style="stroke:#181818;stroke-width:0.5;" width="60" x="581" y="450.4883"/><text fill="#000000" font-family="sans-serif" font-size="20" lengthAdjust="spacing" textLength="54" x="584" y="474.8242">Photo</text><line style="stroke:#181818;stroke-width:0.5;" x1="582" x2="640" y1="484.043" y2="484.043"/></g><!--reverse link Property to Residency--><g id="link_Property_Residency"><path d="M367.26,542.1583 C342.33,565.0883 314.96,590.2583 291.33,611.9883 " fill="none" id="Property-backto-Residency" style="stroke:#181818;stroke-width:1.0;"/><polygon fill="none" points="362.24,537.2583,381.7,528.8683,371.72,547.5583,362.24,537.2583" style="stroke:#181818;stroke-width:1.0;"/></g><!--reverse link Residency to House--><g id="link_Residency_House"><path d="M231,745.9183 C231,767.4383 231,790.1183 231,809.0383 " fill="none" id="Residency-backto-House" style="stroke:#181818;stroke-width:1.0;"/><polygon fill="none" points="224,746.0583,231,726.0583,238,746.0583,224,746.0583" style="stroke:#181818;stroke-width:1.0;"/></g><!--reverse link Residency to Apartment--><g id="link_Residency_Apartment"><path d="M295.53,739.9683 C325.98,773.2283 360.03,810.4283 380.48,832.7583 " fill="none" id="Residency-backto-Apartment" style="stroke:#181818;stroke-width:1.0;"/><polygon fill="none" points="290.77,745.1383,282.43,725.6583,301.1,735.6883,290.77,745.1383" style="stroke:#181818;stroke-width:1.0;"/></g><!--reverse link Property to Land--><g id="link_Property_Land"><path d="M496.37,544.7583 C523.39,581.3483 554.17,623.0283 572.01,647.1883 " fill="none" id="Property-backto-Land" style="stroke:#181818;stroke-width:1.0;"/><polygon fill="none" points="491.03,549.3083,484.78,529.0683,502.29,540.9983,491.03,549.3083" style="stroke:#181818;stroke-width:1.0;"/></g><!--link UnregisteredUser to Announcement--><g id="link_UnregisteredUser_Announcement"><path codeLine="83" d="M545,86.8283 C545,105.9883 545,136.0383 545,165.1483 " fill="none" id="UnregisteredUser-to-Announcement" style="stroke:#181818;stroke-width:1.0;"/><polygon fill="#181818" points="545,169.8283,549,160.8283,545,164.8283,541,160.8283,545,169.8283" style="stroke:#181818;stroke-width:1.0;"/><text fill="#000000" font-family="sans-serif" font-size="20" lengthAdjust="spacing" textLength="52" x="546" y="136.8242">views</text><text fill="#000000" font-family="sans-serif" font-size="20" lengthAdjust="spacing" textLength="13" x="530.5781" y="113.4573">1</text><text fill="#000000" font-family="sans-serif" font-size="20" lengthAdjust="spacing" textLength="10" x="534.5391" y="159.2927">*</text></g><!--link Announcement to Property--><g id="link_Announcement_Property"><path codeLine="84" d="M508.18,330.8683 C496.13,356.6783 482.94,384.9283 471.6,409.2283 " fill="none" id="Announcement-to-Property" style="stroke:#181818;stroke-width:1.0;"/><polygon fill="#181818" points="469.54,413.6283,476.9718,407.1655,471.6552,409.0977,469.7229,403.7811,469.54,413.6283" style="stroke:#181818;stroke-width:1.0;"/><text fill="#000000" font-family="sans-serif" font-size="20" lengthAdjust="spacing" textLength="33" x="495" y="380.8242">has</text><text fill="#000000" font-family="sans-serif" font-size="20" lengthAdjust="spacing" textLength="13" x="491.4572" y="358.0669">1</text><text fill="#000000" font-family="sans-serif" font-size="20" lengthAdjust="spacing" textLength="13" x="458.2644" y="403.0684">1</text></g><!--link Residency to Equipment--><g id="link_Residency_Equipment"><path codeLine="85" d="M180.29,724.5483 C148.63,758.9283 109.37,801.5483 85,828.0083 " fill="none" id="Residency-to-Equipment" style="stroke:#181818;stroke-width:1.0;"/><polygon fill="#181818" points="81.66,831.6483,90.7018,827.7438,85.0496,827.9726,84.8208,822.3204,81.66,831.6483" style="stroke:#181818;stroke-width:1.0;"/><text fill="#000000" font-family="sans-serif" font-size="20" lengthAdjust="spacing" textLength="33" x="153" y="774.8242">has</text><text fill="#000000" font-family="sans-serif" font-size="20" lengthAdjust="spacing" textLength="13" x="160.3175" y="752.1386">1</text><text fill="#000000" font-family="sans-serif" font-size="20" lengthAdjust="spacing" textLength="10" x="74.1227" y="820.8353">*</text></g><!--link House to SunExposure--><g id="link_House_SunExposure"><path codeLine="86" d="M231,898.8583 C231,921.8983 231,950.7283 231,977.0583 " fill="none" id="House-to-SunExposure" style="stroke:#181818;stroke-width:1.0;"/><polygon fill="#181818" points="231,981.8183,235,972.8183,231,976.8183,227,972.8183,231,981.8183" style="stroke:#181818;stroke-width:1.0;"/><text fill="#000000" font-family="sans-serif" font-size="20" lengthAdjust="spacing" textLength="33" x="232" y="948.8242">has</text><text fill="#000000" font-family="sans-serif" font-size="20" lengthAdjust="spacing" textLength="13" x="217.1672" y="925.4737">1</text><text fill="#000000" font-family="sans-serif" font-size="20" lengthAdjust="spacing" textLength="13" x="217.3297" y="971.5006">1</text></g><!--link Property to Address--><g id="link_Property_Address"><path codeLine="87" d="M447.26,527.8483 C449.42,555.9883 452.03,589.9383 454.14,617.3183 " fill="none" id="Property-to-Address" style="stroke:#181818;stroke-width:1.0;"/><polygon fill="#181818" points="454.52,622.2583,457.8139,612.9766,454.1343,617.2732,449.8377,613.5936,454.52,622.2583" style="stroke:#181818;stroke-width:1.0;"/><text fill="#000000" font-family="sans-serif" font-size="20" lengthAdjust="spacing" textLength="33" x="453" y="577.8242">has</text><text fill="#000000" font-family="sans-serif" font-size="20" lengthAdjust="spacing" textLength="13" x="434.001" y="555.05">1</text><text fill="#000000" font-family="sans-serif" font-size="20" lengthAdjust="spacing" textLength="13" x="440.1918" y="611.9123">1</text></g><!--link Address to State--><g id="link_Address_State"><path codeLine="88" d="M487.94,713.4383 C512.15,748.9783 545.39,797.7783 565.47,827.2583 " fill="none" id="Address-to-State" style="stroke:#181818;stroke-width:1.0;"/><polygon fill="#181818" points="568.21,831.2783,566.4459,821.5887,565.3938,827.1468,559.8356,826.0947,568.21,831.2783" style="stroke:#181818;stroke-width:1.0;"/><text fill="#000000" font-family="sans-serif" font-size="20" lengthAdjust="spacing" textLength="33" x="533" y="774.8242">has</text><text fill="#000000" font-family="sans-serif" font-size="20" lengthAdjust="spacing" textLength="13" x="477.9433" y="740.0639">1</text><text fill="#000000" font-family="sans-serif" font-size="20" lengthAdjust="spacing" textLength="13" x="551.0777" y="820.9521">1</text></g><!--link District to State--><g id="link_District_State"><path codeLine="89" d="M677.25,689.8283 C657.83,723.4483 619.07,790.5383 597.81,827.3583 " fill="none" id="District-to-State" style="stroke:#181818;stroke-width:1.0;"/><polygon fill="#181818" points="595.56,831.2483,603.5393,825.475,598.0714,826.9247,596.6216,821.4568,595.56,831.2483" style="stroke:#181818;stroke-width:1.0;"/><text fill="#000000" font-family="sans-serif" font-size="20" lengthAdjust="spacing" textLength="64" x="641" y="774.8242">part of</text><text fill="#000000" font-family="sans-serif" font-size="20" lengthAdjust="spacing" textLength="10" x="663.5859" y="716.4573">*</text><text fill="#000000" font-family="sans-serif" font-size="20" lengthAdjust="spacing" textLength="13" x="583.1581" y="820.584">1</text></g><!--link City to District--><g id="link_City_District"><path codeLine="90" d="M697.05,492.9883 C695.42,528.4883 692.05,601.3583 690.23,640.7683 " fill="none" id="City-to-District" style="stroke:#181818;stroke-width:1.0;"/><polygon fill="#181818" points="690,645.7483,694.408,636.9409,690.229,640.7535,686.4164,636.5745,690,645.7483" style="stroke:#181818;stroke-width:1.0;"/><text fill="#000000" font-family="sans-serif" font-size="20" lengthAdjust="spacing" textLength="64" x="695" y="577.8242">part of</text><text fill="#000000" font-family="sans-serif" font-size="20" lengthAdjust="spacing" textLength="10" x="685.8228" y="519.2336">*</text><text fill="#000000" font-family="sans-serif" font-size="20" lengthAdjust="spacing" textLength="13" x="675.5027" y="635.3353">1</text></g><!--link Street to City--><g id="link_Street_City"><path codeLine="91" d="M698,272.1483 C698,311.6483 698,399.1883 698,443.5783 " fill="none" id="Street-to-City" style="stroke:#181818;stroke-width:1.0;"/><polygon fill="#181818" points="698,448.5383,702,439.5383,698,443.5383,694,439.5383,698,448.5383" style="stroke:#181818;stroke-width:1.0;"/><text fill="#000000" font-family="sans-serif" font-size="20" lengthAdjust="spacing" textLength="64" x="699" y="380.8242">part of</text><text fill="#000000" font-family="sans-serif" font-size="20" lengthAdjust="spacing" textLength="10" x="686.9063" y="298.738">*</text><text fill="#000000" font-family="sans-serif" font-size="20" lengthAdjust="spacing" textLength="13" x="683.3344" y="438.084">1</text></g><!--link Announcement to Photo--><g id="link_Announcement_Photo"><path codeLine="92" d="M568.83,330.8683 C580.84,370.6483 594.62,416.2583 603.07,444.2183 " fill="none" id="Announcement-to-Photo" style="stroke:#181818;stroke-width:1.0;"/><polygon fill="#181818" points="604.45,448.7983,605.6818,439.0268,603.0067,444.0111,598.0223,441.336,604.45,448.7983" style="stroke:#181818;stroke-width:1.0;"/><text fill="#000000" font-family="sans-serif" font-size="20" lengthAdjust="spacing" textLength="33" x="585" y="380.8242">has</text><text fill="#000000" font-family="sans-serif" font-size="20" lengthAdjust="spacing" textLength="13" x="557.3193" y="358.0669">1</text><text fill="#000000" font-family="sans-serif" font-size="20" lengthAdjust="spacing" textLength="10" x="592.0431" y="438.3227">*</text></g><!--SRC=[RLF1Rjim3BthAuHS2WmeqEsumu0qJT42NHCq3NPMBCOMOeiUHQzDW_txQDcnvIw-X28VoQVtb71mlZPagXAp0rXjOM-Qak_HyyPzWFvsey8PeYlqc1M45MYc1f9ARRA3oM73nn8qGSR6vsKA28Mn-EPyhlUc3A2knbBfFF2n1et41Qgh4lQi6JMvl61jNJlEeLV9jAmq8SoPoUqQXiSCVIHxauxD2PlwqHT0JjXaSXMb2cT1PuuouHRZ2cIb3KgnOs5-XvLnNlz42wLIAgxHMq-Gky10OBS1wAJKttDjq_ZbUusX8JWfBT_pwkNr8KQRrRQFblFDQmn-BIKOUfU_6rTNuFaqvbuW22sV7JMyCtWRz9gm1k9ZDzutrGvejRy5IuXLc2OD5_zdruP4atmZ5a4ODqtd6W8J0oiNRTMw5vSNmWqefcjo6OpDS- -n4LJ7lWMq1Wg3nWKF8IIfyvvkJBChNIZ0tXc6QUQsGsHOkH1QkuTb3zW46FGO5Ehsjj_EXCXaI3XVc9sulYlX2VUSyBQMX5xNQX7fEOeKZn-kNeZl2LZU4RTpB-qUOK_6smjk9M-4vRA9ntSYiSYPshvmRKlIGG1fVLqWOpn_VenwzdMchwz_wDcNsSGM_Lt_SV0Mr2GveENtp5MGXGbgV7hfoE6HzgZEZ7HCyXVeCSFW5DPBtqFEfycWLgU-VjOeSlWCQ7tHk5UjQXF0q3LYEYadgDWs8Yxh8_WeUiz7_GC0]--></g></svg>