<?xml version="1.0" encoding="UTF-8" standalone="no"?><svg xmlns="http://www.w3.org/2000/svg" xmlns:xlink="http://www.w3.org/1999/xlink" contentStyleType="text/css" height="1126px" preserveAspectRatio="none" style="width:769px;height:1126px;background:#FFFFFF;" version="1.1" viewBox="0 0 769 1126" width="769px" zoomAndPan="magnify"><defs/><g><text fill="#000000" font-family="sans-serif" font-size="14" font-weight="bold" lengthAdjust="spacing" textLength="105" x="325" y="23.5352">Domain Model</text><!--class UnregisteredUser--><g id="elem_UnregisteredUser"><rect codeLine="16" fill="#F1F1F1" height="41.5547" id="UnregisteredUser" rx="2.5" ry="2.5" style="stroke:#181818;stroke-width:0.5;" width="172" x="457" y="44.4883"/><text fill="#000000" font-family="sans-serif" font-size="20" lengthAdjust="spacing" textLength="166" x="460" y="68.8242">UnregisteredUser</text><line style="stroke:#181818;stroke-width:0.5;" x1="458" x2="628" y1="78.043" y2="78.043"/></g><!--class SunExposure--><g id="elem_SunExposure"><rect codeLine="20" fill="#F1F1F1" height="135.7734" id="SunExposure" rx="2.5" ry="2.5" style="stroke:#181818;stroke-width:0.5;" width="130" x="166" y="983.4783"/><text fill="#000000" font-family="sans-serif" font-size="20" lengthAdjust="spacing" textLength="124" x="169" y="1007.8142">SunExposure</text><line style="stroke:#181818;stroke-width:0.5;" x1="167" x2="295" y1="1017.033" y2="1017.033"/><text fill="#000000" font-family="sans-serif" font-size="20" lengthAdjust="spacing" textLength="72" x="172" y="1040.3689">NORTH</text><text fill="#000000" font-family="sans-serif" font-size="20" lengthAdjust="spacing" textLength="69" x="172" y="1063.9236">SOUTH</text><text fill="#000000" font-family="sans-serif" font-size="20" lengthAdjust="spacing" textLength="49" x="172" y="1087.4783">EAST</text><text fill="#000000" font-family="sans-serif" font-size="20" lengthAdjust="spacing" textLength="52" x="172" y="1111.033">WEST</text></g><!--class Equipment--><g id="elem_Equipment"><rect codeLine="27" fill="#F1F1F1" height="41.5547" id="Equipment" rx="2.5" ry="2.5" style="stroke:#181818;stroke-width:0.5;" width="110" x="7" y="833.3683"/><text fill="#000000" font-family="sans-serif" font-size="20" lengthAdjust="spacing" textLength="104" x="10" y="857.7042">Equipment</text><line style="stroke:#181818;stroke-width:0.5;" x1="8" x2="116" y1="866.923" y2="866.923"/></g><!--class Residency--><g id="elem_Residency"><rect codeLine="30" fill="#F1F1F1" height="112.2188" id="Residency" rx="2.5" ry="2.5" style="stroke:#181818;stroke-width:0.5;" width="248" x="107" y="612.5883"/><text fill="#000000" font-family="sans-serif" font-size="20" lengthAdjust="spacing" textLength="96" x="183" y="636.9242">Residency</text><line style="stroke:#181818;stroke-width:0.5;" x1="108" x2="354" y1="646.143" y2="646.143"/><text fill="#000000" font-family="sans-serif" font-size="20" lengthAdjust="spacing" textLength="195" x="113" y="669.4789">numberOfBedrooms</text><text fill="#000000" font-family="sans-serif" font-size="20" lengthAdjust="spacing" textLength="201" x="113" y="693.0336">numberOfBathrooms</text><text fill="#000000" font-family="sans-serif" font-size="20" lengthAdjust="spacing" textLength="236" x="113" y="716.5883">numberOfParkingSpaces</text></g><!--class Property--><g id="elem_Property"><rect codeLine="36" fill="#F1F1F1" height="112.2188" id="Property" rx="2.5" ry="2.5" style="stroke:#181818;stroke-width:0.5;" width="205" x="340.5" y="415.3683"/><text fill="#000000" font-family="sans-serif" font-size="20" lengthAdjust="spacing" textLength="80" x="403" y="439.7042">Property</text><line style="stroke:#181818;stroke-width:0.5;" x1="341.5" x2="544.5" y1="448.923" y2="448.923"/><text fill="#000000" font-family="sans-serif" font-size="20" lengthAdjust="spacing" textLength="41" x="346.5" y="472.2589">area</text><text fill="#000000" font-family="sans-serif" font-size="20" lengthAdjust="spacing" textLength="193" x="346.5" y="495.8136">distanceFromCenter</text><text fill="#000000" font-family="sans-serif" font-size="20" lengthAdjust="spacing" textLength="48" x="346.5" y="519.3683">price</text></g><!--class Announcement--><g id="elem_Announcement"><rect codeLine="42" fill="#F1F1F1" height="159.3281" id="Announcement" rx="2.5" ry="2.5" style="stroke:#181818;stroke-width:0.5;" width="159" x="463.5" y="171.0483"/><text fill="#000000" font-family="sans-serif" font-size="20" lengthAdjust="spacing" textLength="144" x="471" y="195.3842">Announcement</text><line style="stroke:#181818;stroke-width:0.5;" x1="464.5" x2="621.5" y1="204.603" y2="204.603"/><text fill="#000000" font-family="sans-serif" font-size="20" lengthAdjust="spacing" textLength="147" x="469.5" y="227.9389">typeOfBuisness</text><text fill="#000000" font-family="sans-serif" font-size="20" lengthAdjust="spacing" textLength="144" x="469.5" y="251.4936">typeOfProperty</text><text fill="#000000" font-family="sans-serif" font-size="20" lengthAdjust="spacing" textLength="140" x="469.5" y="275.0483">publishedDate</text><text fill="#000000" font-family="sans-serif" font-size="20" lengthAdjust="spacing" textLength="118" x="469.5" y="298.603">publishedBy</text><text fill="#000000" font-family="sans-serif" font-size="20" lengthAdjust="spacing" textLength="97" x="469.5" y="322.1577">comission</text></g><!--class House--><g id="elem_House"><rect codeLine="50" fill="#F1F1F1" height="88.6641" id="House" rx="2.5" ry="2.5" style="stroke:#181818;stroke-width:0.5;" width="157" x="152.5" y="809.8083"/><text fill="#000000" font-family="sans-serif" font-size="20" lengthAdjust="spacing" textLength="60" x="201" y="834.1442">House</text><line style="stroke:#181818;stroke-width:0.5;" x1="153.5" x2="308.5" y1="843.363" y2="843.363"/><text fill="#000000" font-family="sans-serif" font-size="20" lengthAdjust="spacing" textLength="94" x="158.5" y="866.6989">basement</text><text fill="#000000" font-family="sans-serif" font-size="20" lengthAdjust="spacing" textLength="145" x="158.5" y="890.2536">inhabitableLoft</text></g><!--class Address--><g id="elem_Address"><rect codeLine="55" fill="#F1F1F1" height="88.6641" id="Address" rx="2.5" ry="2.5" style="stroke:#181818;stroke-width:0.5;" width="135" x="389.5" y="624.3683"/><text fill="#000000" font-family="sans-serif" font-size="20" lengthAdjust="spacing" textLength="79" x="417.5" y="648.7042">Address</text><line style="stroke:#181818;stroke-width:0.5;" x1="390.5" x2="523.5" y1="657.923" y2="657.923"/><text fill="#000000" font-family="sans-serif" font-size="20" lengthAdjust="spacing" textLength="123" x="395.5" y="681.2589">doorNumber</text><text fill="#000000" font-family="sans-serif" font-size="20" lengthAdjust="spacing" textLength="80" x="395.5" y="704.8136">zipCode</text></g><!--class Apartment--><g id="elem_Apartment"><rect codeLine="60" fill="#F1F1F1" height="41.5547" id="Apartment" rx="2.5" ry="2.5" style="stroke:#181818;stroke-width:0.5;" width="108" x="345" y="833.3683"/><text fill="#000000" font-family="sans-serif" font-size="20" lengthAdjust="spacing" textLength="102" x="348" y="857.7042">Apartment</text><line style="stroke:#181818;stroke-width:0.5;" x1="346" x2="452" y1="866.923" y2="866.923"/></g><!--class Land--><g id="elem_Land"><rect codeLine="64" fill="#F1F1F1" height="41.5547" id="Land" rx="2.5" ry="2.5" style="stroke:#181818;stroke-width:0.5;" width="53" x="559.5" y="647.9283"/><text fill="#000000" font-family="sans-serif" font-size="20" lengthAdjust="spacing" textLength="47" x="562.5" y="672.2642">Land</text><line style="stroke:#181818;stroke-width:0.5;" x1="560.5" x2="611.5" y1="681.483" y2="681.483"/></g><!--class State--><g id="elem_State"><rect codeLine="68" fill="#F1F1F1" height="41.5547" id="State" rx="2.5" ry="2.5" style="stroke:#181818;stroke-width:0.5;" width="53" x="565.5" y="833.3683"/><text fill="#000000" font-family="sans-serif" font-size="20" lengthAdjust="spacing" textLength="47" x="568.5" y="857.7042">State</text><line style="stroke:#181818;stroke-width:0.5;" x1="566.5" x2="617.5" y1="866.923" y2="866.923"/></g><!--class District--><g id="elem_District"><rect codeLine="71" fill="#F1F1F1" height="41.5547" id="District" rx="2.5" ry="2.5" style="stroke:#181818;stroke-width:0.5;" width="75" x="650.5" y="647.9283"/><text fill="#000000" font-family="sans-serif" font-size="20" lengthAdjust="spacing" textLength="69" x="653.5" y="672.2642">District</text><line style="stroke:#181818;stroke-width:0.5;" x1="651.5" x2="724.5" y1="681.483" y2="681.483"/></g><!--class City--><g id="elem_City"><rect codeLine="74" fill="#F1F1F1" height="41.5547" id="City" rx="2.5" ry="2.5" style="stroke:#181818;stroke-width:0.5;" width="43" x="674.5" y="450.7083"/><text fill="#000000" font-family="sans-serif" font-size="20" lengthAdjust="spacing" textLength="37" x="677.5" y="475.0442">City</text><line style="stroke:#181818;stroke-width:0.5;" x1="675.5" x2="716.5" y1="484.263" y2="484.263"/></g><!--class Street--><g id="elem_Street"><rect codeLine="77" fill="#F1F1F1" height="41.5547" id="Street" rx="2.5" ry="2.5" style="stroke:#181818;stroke-width:0.5;" width="61" x="665.5" y="229.9283"/><text fill="#000000" font-family="sans-serif" font-size="20" lengthAdjust="spacing" textLength="55" x="668.5" y="254.2642">Street</text><line style="stroke:#181818;stroke-width:0.5;" x1="666.5" x2="725.5" y1="263.483" y2="263.483"/></g><!--class Photo--><g id="elem_Photo"><rect codeLine="80" fill="#F1F1F1" height="41.5547" id="Photo" rx="2.5" ry="2.5" style="stroke:#181818;stroke-width:0.5;" width="60" x="580" y="450.7083"/><text fill="#000000" font-family="sans-serif" font-size="20" lengthAdjust="spacing" textLength="54" x="583" y="475.0442">Photo</text><line style="stroke:#181818;stroke-width:0.5;" x1="581" x2="639" y1="484.263" y2="484.263"/></g><!--reverse link Property to Residency--><g id="link_Property_Residency"><path d="M367.61,541.8983 C342.59,564.9483 315.07,590.2883 291.33,612.1383 " fill="none" id="Property-backto-Residency" style="stroke:#181818;stroke-width:1.0;"/><polygon fill="none" points="362.36,537.2983,381.82,528.8983,371.85,547.5983,362.36,537.2983" style="stroke:#181818;stroke-width:1.0;"/></g><!--reverse link Residency to House--><g id="link_Residency_House"><path d="M231,746.2383 C231,767.7983 231,790.5183 231,809.4383 " fill="none" id="Residency-backto-House" style="stroke:#181818;stroke-width:1.0;"/><polygon fill="none" points="224,746.2383,231,726.2383,238,746.2383,224,746.2383" style="stroke:#181818;stroke-width:1.0;"/></g><!--reverse link Residency to Apartment--><g id="link_Residency_Apartment"><path d="M295.97,740.6383 C326.35,773.8183 360.24,810.8283 380.58,833.0283 " fill="none" id="Residency-backto-Apartment" style="stroke:#181818;stroke-width:1.0;"/><polygon fill="none" points="291.21,745.7183,282.86,726.2383,301.53,736.2583,291.21,745.7183" style="stroke:#181818;stroke-width:1.0;"/></g><!--reverse link Property to Land--><g id="link_Property_Land"><path d="M495.7,544.4283 C522.78,581.3983 553.73,623.6483 571.46,647.8483 " fill="none" id="Property-backto-Land" style="stroke:#181818;stroke-width:1.0;"/><polygon fill="none" points="489.77,549.1783,483.6,528.8983,501.06,540.8983,489.77,549.1783" style="stroke:#181818;stroke-width:1.0;"/></g><!--link UnregisteredUser to Announcement--><g id="link_UnregisteredUser_Announcement"><path codeLine="83" d="M543,86.2483 C543,105.3983 543,135.6483 543,164.9483 " fill="none" id="UnregisteredUser-to-Announcement" style="stroke:#181818;stroke-width:1.0;"/><polygon fill="#181818" points="543,169.7883,547,160.7883,543,164.7883,539,160.7883,543,169.7883" style="stroke:#181818;stroke-width:1.0;"/><text fill="#000000" font-family="sans-serif" font-size="20" lengthAdjust="spacing" textLength="52" x="544" y="136.3842">views</text><text fill="#000000" font-family="sans-serif" font-size="20" lengthAdjust="spacing" textLength="13" x="528.4156" y="113.5695">1</text><text fill="#000000" font-family="sans-serif" font-size="20" lengthAdjust="spacing" textLength="10" x="532.5391" y="158.7216">*</text></g><!--link Announcement to Property--><g id="link_Announcement_Property"><path codeLine="84" d="M506.9,330.6883 C494.99,356.7483 481.94,385.2983 470.75,409.7683 " fill="none" id="Announcement-to-Property" style="stroke:#181818;stroke-width:1.0;"/><polygon fill="#181818" points="468.4,413.9283,475.7826,407.4093,470.4808,409.3818,468.5083,404.08,468.4,413.9283" style="stroke:#181818;stroke-width:1.0;"/><text fill="#000000" font-family="sans-serif" font-size="20" lengthAdjust="spacing" textLength="33" x="494" y="380.7042">has</text><text fill="#000000" font-family="sans-serif" font-size="20" lengthAdjust="spacing" textLength="13" x="490.3722" y="357.6225">1</text><text fill="#000000" font-family="sans-serif" font-size="20" lengthAdjust="spacing" textLength="13" x="457.7034" y="403.0045">1</text></g><!--link Residency to Equipment--><g id="link_Residency_Equipment"><path codeLine="85" d="M179.84,725.2383 C148.06,759.7283 108.79,802.3483 84.58,828.6383 " fill="none" id="Residency-to-Equipment" style="stroke:#181818;stroke-width:1.0;"/><polygon fill="#181818" points="81.53,832.0283,90.5718,828.1238,84.9196,828.3526,84.6908,822.7004,81.53,832.0283" style="stroke:#181818;stroke-width:1.0;"/><text fill="#000000" font-family="sans-serif" font-size="20" lengthAdjust="spacing" textLength="33" x="153" y="775.1442">has</text><text fill="#000000" font-family="sans-serif" font-size="20" lengthAdjust="spacing" textLength="13" x="160.5334" y="752.0465">1</text><text fill="#000000" font-family="sans-serif" font-size="20" lengthAdjust="spacing" textLength="10" x="73.9971" y="821.0771">*</text></g><!--link House to SunExposure--><g id="link_House_SunExposure"><path codeLine="86" d="M231,898.9583 C231,922.0483 231,950.9883 231,977.3683 " fill="none" id="House-to-SunExposure" style="stroke:#181818;stroke-width:1.0;"/><polygon fill="#181818" points="231,982.3083,235,973.3083,231,977.3083,227,973.3083,231,982.3083" style="stroke:#181818;stroke-width:1.0;"/><text fill="#000000" font-family="sans-serif" font-size="20" lengthAdjust="spacing" textLength="33" x="232" y="948.8142">has</text><text fill="#000000" font-family="sans-serif" font-size="20" lengthAdjust="spacing" textLength="13" x="217.1266" y="925.8992">1</text><text fill="#000000" font-family="sans-serif" font-size="20" lengthAdjust="spacing" textLength="13" x="217.3297" y="971.4685">1</text></g><!--link Property to Address--><g id="link_Property_Address"><path codeLine="87" d="M446.97,527.8983 C449.01,556.3183 451.47,590.6383 453.45,618.1583 " fill="none" id="Property-to-Address" style="stroke:#181818;stroke-width:1.0;"/><polygon fill="#181818" points="453.86,622.9283,457.2067,613.6655,453.5027,617.9411,449.2272,614.2371,453.86,622.9283" style="stroke:#181818;stroke-width:1.0;"/><text fill="#000000" font-family="sans-serif" font-size="20" lengthAdjust="spacing" textLength="33" x="452" y="577.9242">has</text><text fill="#000000" font-family="sans-serif" font-size="20" lengthAdjust="spacing" textLength="13" x="433.6775" y="555.1196">1</text><text fill="#000000" font-family="sans-serif" font-size="20" lengthAdjust="spacing" textLength="13" x="439.4441" y="612.04">1</text></g><!--link Address to State--><g id="link_Address_State"><path codeLine="88" d="M488.99,713.1783 C515.49,749.1783 552.19,799.0483 573.88,828.5183 " fill="none" id="Address-to-State" style="stroke:#181818;stroke-width:1.0;"/><polygon fill="#181818" points="577.23,832.0683,575.1068,822.451,574.2621,828.0444,568.6686,827.1997,577.23,832.0683" style="stroke:#181818;stroke-width:1.0;"/><text fill="#000000" font-family="sans-serif" font-size="20" lengthAdjust="spacing" textLength="33" x="538" y="775.1442">has</text><text fill="#000000" font-family="sans-serif" font-size="20" lengthAdjust="spacing" textLength="13" x="479.5745" y="740.4251">1</text><text fill="#000000" font-family="sans-serif" font-size="20" lengthAdjust="spacing" textLength="13" x="558.7796" y="821.1273">1</text></g><!--link District to State--><g id="link_District_State"><path codeLine="89" d="M677.54,689.6783 C659.99,723.2283 624.62,790.8083 605.32,827.6983 " fill="none" id="District-to-State" style="stroke:#181818;stroke-width:1.0;"/><polygon fill="#181818" points="602.59,831.9083,610.3035,825.7844,604.9058,827.4769,603.2133,822.0792,602.59,831.9083" style="stroke:#181818;stroke-width:1.0;"/><text fill="#000000" font-family="sans-serif" font-size="20" lengthAdjust="spacing" textLength="64" x="644" y="775.1442">part of</text><text fill="#000000" font-family="sans-serif" font-size="20" lengthAdjust="spacing" textLength="10" x="663.7716" y="716.997">*</text><text fill="#000000" font-family="sans-serif" font-size="20" lengthAdjust="spacing" textLength="13" x="590.5869" y="821.3321">1</text></g><!--link City to District--><g id="link_City_District"><path codeLine="90" d="M695.17,492.6383 C693.71,528.3883 690.66,602.8183 689.05,642.1183 " fill="none" id="City-to-District" style="stroke:#181818;stroke-width:1.0;"/><polygon fill="#181818" points="688.82,646.6583,693.1775,637.8258,689.0204,641.6623,685.184,637.5052,688.82,646.6583" style="stroke:#181818;stroke-width:1.0;"/><text fill="#000000" font-family="sans-serif" font-size="20" lengthAdjust="spacing" textLength="64" x="693" y="577.9242">part of</text><text fill="#000000" font-family="sans-serif" font-size="20" lengthAdjust="spacing" textLength="10" x="683.8218" y="519.5893">*</text><text fill="#000000" font-family="sans-serif" font-size="20" lengthAdjust="spacing" textLength="13" x="674.3645" y="635.725">1</text></g><!--link Street to City--><g id="link_Street_City"><path codeLine="91" d="M696,271.8983 C696,311.7083 696,400.2683 696,444.4183 " fill="none" id="Street-to-City" style="stroke:#181818;stroke-width:1.0;"/><polygon fill="#181818" points="696,449.3383,700,440.3383,696,444.3383,692,440.3383,696,449.3383" style="stroke:#181818;stroke-width:1.0;"/><text fill="#000000" font-family="sans-serif" font-size="20" lengthAdjust="spacing" textLength="64" x="697" y="380.7042">part of</text><text fill="#000000" font-family="sans-serif" font-size="20" lengthAdjust="spacing" textLength="10" x="684.8438" y="298.8585">*</text><text fill="#000000" font-family="sans-serif" font-size="20" lengthAdjust="spacing" textLength="13" x="681.3344" y="438.3794">1</text></g><!--link Announcement to Photo--><g id="link_Announcement_Photo"><path codeLine="92" d="M567.19,330.6883 C579.44,370.6883 593.49,416.5683 602.05,444.5283 " fill="none" id="Announcement-to-Photo" style="stroke:#181818;stroke-width:1.0;"/><polygon fill="#181818" points="603.79,449.2183,604.9869,439.4424,602.3296,444.4363,597.3358,441.779,603.79,449.2183" style="stroke:#181818;stroke-width:1.0;"/><text fill="#000000" font-family="sans-serif" font-size="20" lengthAdjust="spacing" textLength="33" x="584" y="380.7042">has</text><text fill="#000000" font-family="sans-serif" font-size="20" lengthAdjust="spacing" textLength="13" x="555.655" y="357.6225">1</text><text fill="#000000" font-family="sans-serif" font-size="20" lengthAdjust="spacing" textLength="10" x="591.0576" y="438.6348">*</text></g><!--SRC=[RLF1Rjim3BthAuHS2WmeqEsumu0qJT42NHCq3NPMBCOMOeiUHQzDW_txQDcnvIw-X28VoQVtb71mlZPagXAp0rXjOM-Qak_HyyPzWFvsey8PeYlqc1M45MYc1f9ARRA3oM73nn8qGSR6vsKA28Mn-EPyhlUc3A2knbBfFF2n1et41Qgh4lQi6JMvl61jNJlEeLV9jAmq8SoPoUqQXiSCVIHxauxD2PlwqHT0JjXaSXMb2cT1PuuouHRZ2cIb3KgnOs5-XvLnNlz42wLIAgxHMq-Gky10OBS1wAJKttDjq_ZbUusX8JWfBT_pwkNr8KQRrRQFblFDQmn-BIKOUfU_6rTNuFaqvbuW22sV7JMyCtWRz9gm1k9ZDzutrGvejRy5IuXLc2OD5_zdruP4atmZ5a4ODqtd6W8J0oiNRTMw5vSNmWqefcjo6OpDS- -n4LJ7lWMq1Wg3nWKF8IIfyvvkJBChNIZ0tXc6QUQsGsHOkH1QkuTb3zW46FGO5Ehsjj_EXCXaI3XVc9sulYlX2VUSyBQMX5xNQX7fEOeKZn-kNeZl2LZU4RTpB-qUOK_6smjk9M-4vRA9ntSYiSYPshvmRKlIGG1fVLqWOpn_VenwzdMchwz_wDcNsSGM_Lt_SV0Mr2GveENtp5MGXGbgV7hfoE6HzgZEZ7HCyXVeCSFW5DPBtqFEfycWLgU-VjOeSlWCQ7tHk5UjQXF0q3LYEYadgDWs8Yxh8_WeUiz7_GC0]--></g></svg>