<?xml version="1.0" encoding="UTF-8" standalone="no"?><svg xmlns="http://www.w3.org/2000/svg" xmlns:xlink="http://www.w3.org/1999/xlink" contentStyleType="text/css" height="1404px" preserveAspectRatio="none" style="width:1458px;height:1404px;background:#FFFFFF;" version="1.1" viewBox="0 0 1458 1404" width="1458px" zoomAndPan="magnify"><defs/><g><!--class Announcement--><g id="elem_Announcement"><rect codeLine="11" fill="#F1F1F1" height="450.4297" id="Announcement" rx="2.5" ry="2.5" style="stroke:#181818;stroke-width:0.5;" width="354" x="333.5" y="717.76"/><ellipse cx="434" cy="734.76" fill="#ADD1B2" rx="12" ry="12" style="stroke:#181818;stroke-width:1.0;"/><path d="M436.8066,741.8401 Q436.123,742.1916 435.3711,742.3674 Q434.6191,742.5432 433.7891,742.5432 Q430.8398,742.5432 429.2871,740.5998 Q427.7344,738.6565 427.7344,734.9846 Q427.7344,731.303 429.2871,729.3596 Q430.8398,727.4163 433.7891,727.4163 Q434.6191,727.4163 435.3809,727.592 Q436.1426,727.7678 436.8066,728.1194 L436.8066,731.3225 Q436.0645,730.6389 435.3662,730.3215 Q434.668,730.0041 433.9258,730.0041 Q432.3438,730.0041 431.5381,731.259 Q430.7324,732.5139 430.7324,734.9846 Q430.7324,737.4455 431.5381,738.7004 Q432.3438,739.9553 433.9258,739.9553 Q434.668,739.9553 435.3662,739.6379 Q436.0645,739.3205 436.8066,738.637 Z " fill="#000000"/><text fill="#000000" font-family="sans-serif" font-size="20" lengthAdjust="spacing" textLength="144" x="456" y="742.3186">Announcement</text><line style="stroke:#181818;stroke-width:0.5;" x1="334.5" x2="686.5" y1="751.76" y2="751.76"/><text fill="#000000" font-family="sans-serif" font-size="20" lengthAdjust="spacing" textLength="192" x="339.5" y="775.0959">-property : Property</text><text fill="#000000" font-family="sans-serif" font-size="20" lengthAdjust="spacing" textLength="324" x="339.5" y="798.6506">-typeOfProperty : TypeOfProperty</text><text fill="#000000" font-family="sans-serif" font-size="20" lengthAdjust="spacing" textLength="342" x="339.5" y="822.2053">-transactionType : TransactionType</text><text fill="#000000" font-family="sans-serif" font-size="20" lengthAdjust="spacing" textLength="190" x="339.5" y="845.76">-publishDate : Date</text><text fill="#000000" font-family="sans-serif" font-size="20" lengthAdjust="spacing" textLength="266" x="339.5" y="869.3147">-commission : Commission</text><text fill="#000000" font-family="sans-serif" font-size="20" lengthAdjust="spacing" textLength="267" x="339.5" y="892.8694">-photos : ArrayList&lt;Photo&gt;</text><text fill="#000000" font-family="sans-serif" font-size="20" lengthAdjust="spacing" textLength="147" x="339.5" y="916.4241">-house : House</text><text fill="#000000" font-family="sans-serif" font-size="20" lengthAdjust="spacing" textLength="119" x="339.5" y="939.9788">-land : Land</text><text fill="#000000" font-family="sans-serif" font-size="20" lengthAdjust="spacing" textLength="231" x="339.5" y="963.5334">-apartment : Apartment</text><text fill="#000000" font-family="sans-serif" font-size="20" lengthAdjust="spacing" textLength="176" x="339.5" y="987.0881">-agent : Employee</text><text fill="#000000" font-family="sans-serif" font-size="20" lengthAdjust="spacing" textLength="74" x="339.5" y="1010.6428">-id : int</text><text fill="#000000" font-family="sans-serif" font-size="20" lengthAdjust="spacing" textLength="217" x="339.5" y="1034.1975">-isPublished : boolean</text><text fill="#000000" font-family="sans-serif" font-size="20" lengthAdjust="spacing" textLength="150" x="339.5" y="1057.7522">-idCounter : int</text><line style="stroke:#181818;stroke-width:0.5;" x1="334.5" x2="686.5" y1="1065.9709" y2="1065.9709"/><text fill="#000000" font-family="sans-serif" font-size="20" lengthAdjust="spacing" textLength="221" x="339.5" y="1089.3069">+setIsPublished(): void</text><text fill="#000000" font-family="sans-serif" font-size="20" lengthAdjust="spacing" textLength="173" x="339.5" y="1112.8616">+toString(): String</text><text fill="#000000" font-family="sans-serif" font-size="20" lengthAdjust="spacing" textLength="116" x="339.5" y="1136.4163">+getId(): int</text><text fill="#000000" font-family="sans-serif" font-size="20" lengthAdjust="spacing" textLength="237" x="339.5" y="1159.9709">+getAgentEmail(): String</text></g><!--class Commission--><g id="elem_Commission"><rect codeLine="31" fill="#F1F1F1" height="144.2188" id="Commission" rx="2.5" ry="2.5" style="stroke:#181818;stroke-width:0.5;" width="255" x="383" y="1253.19"/><ellipse cx="446" cy="1270.19" fill="#ADD1B2" rx="12" ry="12" style="stroke:#181818;stroke-width:1.0;"/><path d="M448.8066,1277.2701 Q448.123,1277.6216 447.3711,1277.7974 Q446.6191,1277.9732 445.7891,1277.9732 Q442.8398,1277.9732 441.2871,1276.0298 Q439.7344,1274.0865 439.7344,1270.4146 Q439.7344,1266.733 441.2871,1264.7896 Q442.8398,1262.8463 445.7891,1262.8463 Q446.6191,1262.8463 447.3809,1263.022 Q448.1426,1263.1978 448.8066,1263.5494 L448.8066,1266.7525 Q448.0645,1266.0689 447.3662,1265.7515 Q446.668,1265.4341 445.9258,1265.4341 Q444.3438,1265.4341 443.5381,1266.689 Q442.7324,1267.9439 442.7324,1270.4146 Q442.7324,1272.8755 443.5381,1274.1304 Q444.3438,1275.3853 445.9258,1275.3853 Q446.668,1275.3853 447.3662,1275.0679 Q448.0645,1274.7505 448.8066,1274.067 Z " fill="#000000"/><text fill="#000000" font-family="sans-serif" font-size="20" lengthAdjust="spacing" textLength="120" x="468" y="1277.7486">Commission</text><line style="stroke:#181818;stroke-width:0.5;" x1="384" x2="637" y1="1287.19" y2="1287.19"/><text fill="#000000" font-family="sans-serif" font-size="20" lengthAdjust="spacing" textLength="117" x="389" y="1310.5259">-value: float</text><text fill="#000000" font-family="sans-serif" font-size="20" lengthAdjust="spacing" textLength="197" x="389" y="1334.0806">-percentage: double</text><line style="stroke:#181818;stroke-width:0.5;" x1="384" x2="637" y1="1342.2994" y2="1342.2994"/><text fill="#000000" font-family="sans-serif" font-size="20" lengthAdjust="spacing" textLength="168" x="389" y="1365.6353">+getValue(): float</text><text fill="#000000" font-family="sans-serif" font-size="20" lengthAdjust="spacing" textLength="243" x="389" y="1389.19">+getPercentage(): double</text></g><!--class AnnouncementRepository--><g id="elem_AnnouncementRepository"><rect codeLine="39" fill="#F1F1F1" height="167.7734" id="AnnouncementRepository" rx="2.5" ry="2.5" style="stroke:#181818;stroke-width:0.5;" width="934" x="43.5" y="464.99"/><ellipse cx="383" cy="481.99" fill="#ADD1B2" rx="12" ry="12" style="stroke:#181818;stroke-width:1.0;"/><path d="M385.8066,489.0701 Q385.123,489.4216 384.3711,489.5974 Q383.6191,489.7732 382.7891,489.7732 Q379.8398,489.7732 378.2871,487.8298 Q376.7344,485.8865 376.7344,482.2146 Q376.7344,478.533 378.2871,476.5896 Q379.8398,474.6463 382.7891,474.6463 Q383.6191,474.6463 384.3809,474.822 Q385.1426,474.9978 385.8066,475.3494 L385.8066,478.5525 Q385.0645,477.8689 384.3662,477.5515 Q383.668,477.2341 382.9258,477.2341 Q381.3438,477.2341 380.5381,478.489 Q379.7324,479.7439 379.7324,482.2146 Q379.7324,484.6755 380.5381,485.9304 Q381.3438,487.1853 382.9258,487.1853 Q383.668,487.1853 384.3662,486.8679 Q385.0645,486.5505 385.8066,485.867 Z " fill="#000000"/><text fill="#000000" font-family="sans-serif" font-size="20" lengthAdjust="spacing" textLength="246" x="405" y="489.5486">AnnouncementRepository</text><line style="stroke:#181818;stroke-width:0.5;" x1="44.5" x2="976.5" y1="498.99" y2="498.99"/><text fill="#000000" font-family="sans-serif" font-size="20" lengthAdjust="spacing" textLength="508" x="49.5" y="522.3259">-ArrayList&lt;&gt; announcements: List&lt;Announcement&gt;</text><line style="stroke:#181818;stroke-width:0.5;" x1="44.5" x2="976.5" y1="530.5447" y2="530.5447"/><text fill="#000000" font-family="sans-serif" font-size="20" lengthAdjust="spacing" textLength="922" x="49.5" y="553.8806">+removeNonPublishedAnnouncements(ArrayList&lt;Announcement&gt;: resultAnnouncements): void</text><text fill="#000000" font-family="sans-serif" font-size="20" lengthAdjust="spacing" textLength="739" x="49.5" y="577.4353">+getAnnouncementsByAgent(String: agentEmail): ArrayList&lt;Announcement&gt;</text><text fill="#000000" font-family="sans-serif" font-size="20" lengthAdjust="spacing" textLength="883" x="49.5" y="600.99">+removePublishedAnnouncements(ArrayList&lt;Announcement&gt;: resultAnnouncements): void</text><text fill="#000000" font-family="sans-serif" font-size="20" lengthAdjust="spacing" textLength="457" x="49.5" y="624.5447">+getAnnouncementById(int: id): Announcement</text></g><!--class AuthenticationRepository--><g id="elem_AuthenticationRepository"><rect codeLine="49" fill="#F1F1F1" height="97.1094" id="AuthenticationRepository" rx="2.5" ry="2.5" style="stroke:#181818;stroke-width:0.5;" width="386" x="1065.5" y="500.32"/><ellipse cx="1133.5" cy="517.32" fill="#ADD1B2" rx="12" ry="12" style="stroke:#181818;stroke-width:1.0;"/><path d="M1136.3066,524.4001 Q1135.623,524.7516 1134.8711,524.9274 Q1134.1191,525.1032 1133.2891,525.1032 Q1130.3398,525.1032 1128.7871,523.1598 Q1127.2344,521.2165 1127.2344,517.5446 Q1127.2344,513.863 1128.7871,511.9196 Q1130.3398,509.9763 1133.2891,509.9763 Q1134.1191,509.9763 1134.8809,510.152 Q1135.6426,510.3278 1136.3066,510.6794 L1136.3066,513.8825 Q1135.5645,513.1989 1134.8662,512.8815 Q1134.168,512.5641 1133.4258,512.5641 Q1131.8438,512.5641 1131.0381,513.819 Q1130.2324,515.0739 1130.2324,517.5446 Q1130.2324,520.0055 1131.0381,521.2604 Q1131.8438,522.5153 1133.4258,522.5153 Q1134.168,522.5153 1134.8662,522.1979 Q1135.5645,521.8805 1136.3066,521.197 Z " fill="#000000"/><text fill="#000000" font-family="sans-serif" font-size="20" lengthAdjust="spacing" textLength="241" x="1155.5" y="524.8786">AuthenticationRepository</text><line style="stroke:#181818;stroke-width:0.5;" x1="1066.5" x2="1450.5" y1="534.32" y2="534.32"/><text fill="#000000" font-family="sans-serif" font-size="20" lengthAdjust="spacing" textLength="345" x="1071.5" y="557.6559">-authenticationFacade : AuthFacade</text><line style="stroke:#181818;stroke-width:0.5;" x1="1066.5" x2="1450.5" y1="565.8747" y2="565.8747"/><text fill="#000000" font-family="sans-serif" font-size="20" lengthAdjust="spacing" textLength="374" x="1071.5" y="589.2106">+getCurrentUserSession(): UserSession</text></g><!--class Repositories--><g id="elem_Repositories"><rect codeLine="56" fill="#F1F1F1" height="120.6641" id="Repositories" rx="2.5" ry="2.5" style="stroke:#181818;stroke-width:0.5;" width="576" x="536.5" y="259.32"/><ellipse cx="760.5" cy="276.32" fill="#ADD1B2" rx="12" ry="12" style="stroke:#181818;stroke-width:1.0;"/><path d="M763.3066,283.4001 Q762.623,283.7516 761.8711,283.9274 Q761.1191,284.1032 760.2891,284.1032 Q757.3398,284.1032 755.7871,282.1598 Q754.2344,280.2165 754.2344,276.5446 Q754.2344,272.863 755.7871,270.9196 Q757.3398,268.9763 760.2891,268.9763 Q761.1191,268.9763 761.8809,269.152 Q762.6426,269.3278 763.3066,269.6794 L763.3066,272.8825 Q762.5645,272.1989 761.8662,271.8815 Q761.168,271.5641 760.4258,271.5641 Q758.8438,271.5641 758.0381,272.819 Q757.2324,274.0739 757.2324,276.5446 Q757.2324,279.0055 758.0381,280.2604 Q758.8438,281.5153 760.4258,281.5153 Q761.168,281.5153 761.8662,281.1979 Q762.5645,280.8805 763.3066,280.197 Z " fill="#000000"/><text fill="#000000" font-family="sans-serif" font-size="20" lengthAdjust="spacing" textLength="119" x="782.5" y="283.8786">Repositories</text><line style="stroke:#181818;stroke-width:0.5;" x1="537.5" x2="1111.5" y1="293.32" y2="293.32"/><line style="stroke:#181818;stroke-width:0.5;" x1="537.5" x2="1111.5" y1="301.32" y2="301.32"/><text fill="#000000" font-family="sans-serif" font-size="20" lengthAdjust="spacing" textLength="270" x="542.5" y="324.6559">+getInstance(): Repositories</text><text fill="#000000" font-family="sans-serif" font-size="20" lengthAdjust="spacing" textLength="554" x="542.5" y="348.2106">+getAuthenticationRepository(): AuthenticationRepository</text><text fill="#000000" font-family="sans-serif" font-size="20" lengthAdjust="spacing" textLength="564" x="542.5" y="371.7653">+getAnnouncementRepository(): AnnouncementRepository</text></g><!--class PublishAnnouncementController--><g id="elem_PublishAnnouncementController"><rect codeLine="64" fill="#F1F1F1" height="191.3281" id="PublishAnnouncementController" rx="2.5" ry="2.5" style="stroke:#181818;stroke-width:0.5;" width="559" x="545" y="7"/><ellipse cx="665" cy="24" fill="#ADD1B2" rx="12" ry="12" style="stroke:#181818;stroke-width:1.0;"/><path d="M667.8066,31.0801 Q667.123,31.4316 666.3711,31.6074 Q665.6191,31.7832 664.7891,31.7832 Q661.8398,31.7832 660.2871,29.8398 Q658.7344,27.8965 658.7344,24.2246 Q658.7344,20.543 660.2871,18.5996 Q661.8398,16.6563 664.7891,16.6563 Q665.6191,16.6563 666.3809,16.832 Q667.1426,17.0078 667.8066,17.3594 L667.8066,20.5625 Q667.0645,19.8789 666.3662,19.5615 Q665.668,19.2441 664.9258,19.2441 Q663.3438,19.2441 662.5381,20.499 Q661.7324,21.7539 661.7324,24.2246 Q661.7324,26.6855 662.5381,27.9404 Q663.3438,29.1953 664.9258,29.1953 Q665.668,29.1953 666.3662,28.8779 Q667.0645,28.5605 667.8066,27.877 Z " fill="#000000"/><text fill="#000000" font-family="sans-serif" font-size="20" lengthAdjust="spacing" textLength="310" x="687" y="31.5586">PublishAnnouncementController</text><line style="stroke:#181818;stroke-width:0.5;" x1="546" x2="1103" y1="41" y2="41"/><text fill="#000000" font-family="sans-serif" font-size="20" lengthAdjust="spacing" textLength="513" x="551" y="64.3359">-announcementRepository: AnnouncementRepository</text><text fill="#000000" font-family="sans-serif" font-size="20" lengthAdjust="spacing" textLength="503" x="551" y="87.8906">-authenticationRepository: AuthenticationRepository</text><line style="stroke:#181818;stroke-width:0.5;" x1="546" x2="1103" y1="96.1094" y2="96.1094"/><text fill="#000000" font-family="sans-serif" font-size="20" lengthAdjust="spacing" textLength="355" x="551" y="119.4453">+publishAnnouncement(int: id): void</text><text fill="#000000" font-family="sans-serif" font-size="20" lengthAdjust="spacing" textLength="457" x="551" y="143">+getAnnouncementById(int: id): Announcement</text><text fill="#000000" font-family="sans-serif" font-size="20" lengthAdjust="spacing" textLength="501" x="551" y="166.5547">+getAnnouncementsByUser(): List&lt;Announcement&gt;</text><text fill="#000000" font-family="sans-serif" font-size="20" lengthAdjust="spacing" textLength="547" x="551" y="190.1094">+setCommission(int: id, Commission: commission): void</text></g><!--class PublishAnnouncementUI--><g id="elem_PublishAnnouncementUI"><rect codeLine="75" fill="#F1F1F1" height="167.7734" id="PublishAnnouncementUI" rx="2.5" ry="2.5" style="stroke:#181818;stroke-width:0.5;" width="503" x="7" y="18.77"/><ellipse cx="137" cy="35.77" fill="#ADD1B2" rx="12" ry="12" style="stroke:#181818;stroke-width:1.0;"/><path d="M139.8066,42.8501 Q139.123,43.2016 138.3711,43.3774 Q137.6191,43.5532 136.7891,43.5532 Q133.8398,43.5532 132.2871,41.6098 Q130.7344,39.6665 130.7344,35.9946 Q130.7344,32.313 132.2871,30.3696 Q133.8398,28.4262 136.7891,28.4262 Q137.6191,28.4262 138.3809,28.602 Q139.1426,28.7778 139.8066,29.1294 L139.8066,32.3325 Q139.0645,31.6489 138.3662,31.3315 Q137.668,31.0141 136.9258,31.0141 Q135.3438,31.0141 134.5381,32.269 Q133.7324,33.5239 133.7324,35.9946 Q133.7324,38.4555 134.5381,39.7104 Q135.3438,40.9653 136.9258,40.9653 Q137.668,40.9653 138.3662,40.6479 Q139.0645,40.3305 139.8066,39.647 Z " fill="#000000"/><text fill="#000000" font-family="sans-serif" font-size="20" lengthAdjust="spacing" textLength="234" x="159" y="43.3286">PublishAnnouncementUI</text><line style="stroke:#181818;stroke-width:0.5;" x1="8" x2="509" y1="52.77" y2="52.77"/><text fill="#000000" font-family="sans-serif" font-size="20" lengthAdjust="spacing" textLength="426" x="13" y="76.1059">-controller: PublishAnnouncementController</text><line style="stroke:#181818;stroke-width:0.5;" x1="8" x2="509" y1="84.3247" y2="84.3247"/><text fill="#000000" font-family="sans-serif" font-size="20" lengthAdjust="spacing" textLength="317" x="13" y="107.6606">+PublishAnnouncementUI(): void</text><text fill="#000000" font-family="sans-serif" font-size="20" lengthAdjust="spacing" textLength="115" x="13" y="131.2153">+run(): void</text><text fill="#000000" font-family="sans-serif" font-size="20" lengthAdjust="spacing" textLength="491" x="13" y="154.77">+getAnnouncementByUser(): List&lt;Announcement&gt;</text><text fill="#000000" font-family="sans-serif" font-size="20" lengthAdjust="spacing" textLength="403" x="13" y="178.3247">+chooseCommissionOrValue(int: id): void</text></g><!--link Repositories to Repositories--><g id="link_Repositories_Repositories"><path codeLine="83" d="M1112.94,306.98 C1134.36,309.82 1147.5,314.05 1147.5,319.66 C1147.5,324.74 1136.7,328.69 1118.74,331.49 " fill="none" id="Repositories-to-Repositories" style="stroke:#181818;stroke-width:1.0;"/><polygon fill="#181818" points="1113.94,332.33,1123.4185,335.0055,1118.8889,331.6169,1122.2775,327.0873,1113.94,332.33" style="stroke:#181818;stroke-width:1.0;"/><text fill="#000000" font-family="sans-serif" font-size="20" lengthAdjust="spacing" textLength="89" x="1153.5" y="327.4959">instances</text></g><!--link PublishAnnouncementUI to PublishAnnouncementController--><g id="link_PublishAnnouncementUI_PublishAnnouncementController"><path codeLine="84" d="M510.25,102.66 C519.39,102.66 528.97,102.66 538.59,102.66 " fill="none" id="PublishAnnouncementUI-to-PublishAnnouncementController" style="stroke:#181818;stroke-width:1.0;stroke-dasharray:7.0,7.0;"/><polygon fill="#181818" points="543.58,102.66,534.58,98.66,538.58,102.66,534.58,106.66,543.58,102.66" style="stroke:#181818;stroke-width:1.0;"/></g><!--link PublishAnnouncementController to Repositories--><g id="link_PublishAnnouncementController_Repositories"><path codeLine="85" d="M824.5,198.59 C824.5,216.98 824.5,235.87 824.5,253.07 " fill="none" id="PublishAnnouncementController-to-Repositories" style="stroke:#181818;stroke-width:1.0;stroke-dasharray:7.0,7.0;"/><polygon fill="#181818" points="824.5,257.83,828.5,248.83,824.5,252.83,820.5,248.83,824.5,257.83" style="stroke:#181818;stroke-width:1.0;"/></g><!--link Repositories to AuthenticationRepository--><g id="link_Repositories_AuthenticationRepository"><path codeLine="86" d="M938.53,380.36 C1007.92,416.69 1095.6,462.59 1161.62,497.15 " fill="none" id="Repositories-to-AuthenticationRepository" style="stroke:#181818;stroke-width:1.0;"/><polygon fill="#181818" points="1165.74,499.83,1159.6161,492.1165,1161.3086,497.5142,1155.9109,499.2067,1165.74,499.83" style="stroke:#181818;stroke-width:1.0;"/><text fill="#000000" font-family="sans-serif" font-size="20" lengthAdjust="spacing" textLength="33" x="1042.5" y="430.3259">has</text><text fill="#000000" font-family="sans-serif" font-size="20" lengthAdjust="spacing" textLength="13" x="936.619" y="407.171">1</text><text fill="#000000" font-family="sans-serif" font-size="20" lengthAdjust="spacing" textLength="13" x="1140.5363" y="488.0675">1</text></g><!--link Repositories to AnnouncementRepository--><g id="link_Repositories_AnnouncementRepository"><path codeLine="87" d="M742,380.36 C707.78,405.12 667.41,434.33 630.04,461.37 " fill="none" id="Repositories-to-AnnouncementRepository" style="stroke:#181818;stroke-width:1.0;"/><polygon fill="#181818" points="626.5,464.66,636.1304,462.5974,630.5424,461.7174,631.4224,456.1294,626.5,464.66" style="stroke:#181818;stroke-width:1.0;"/><text fill="#000000" font-family="sans-serif" font-size="20" lengthAdjust="spacing" textLength="33" x="697.5" y="430.3259">has</text><text fill="#000000" font-family="sans-serif" font-size="20" lengthAdjust="spacing" textLength="13" x="719.8219" y="407.171">1</text><text fill="#000000" font-family="sans-serif" font-size="20" lengthAdjust="spacing" textLength="13" x="621.8242" y="452.7941">1</text></g><!--link PublishAnnouncementController to AnnouncementRepository--><g id="link_PublishAnnouncementController_AnnouncementRepository"><path codeLine="88" d="M637.68,198.69 C573.97,231.1 518.5,259.32 518.5,259.32 C518.5,259.32 515.31,374.22 512.96,459.01 " fill="none" id="PublishAnnouncementController-to-AnnouncementRepository" style="stroke:#181818;stroke-width:1.0;stroke-dasharray:7.0,7.0;"/><polygon fill="#181818" points="512.8,463.8,517.0554,454.9179,512.9428,458.802,509.0587,454.6894,512.8,463.8" style="stroke:#181818;stroke-width:1.0;"/></g><!--link PublishAnnouncementController to AuthenticationRepository--><g id="link_PublishAnnouncementController_AuthenticationRepository"><path codeLine="89" d="M1084.27,198.81 C1172.63,231.17 1249.5,259.32 1249.5,259.32 C1249.5,259.32 1254.22,410.51 1256.82,494.01 " fill="none" id="PublishAnnouncementController-to-AuthenticationRepository" style="stroke:#181818;stroke-width:1.0;stroke-dasharray:7.0,7.0;"/><polygon fill="#181818" points="1257,498.9,1260.7153,489.7788,1256.8429,493.9025,1252.7193,490.0301,1257,498.9" style="stroke:#181818;stroke-width:1.0;"/></g><!--link AnnouncementRepository to Announcement--><g id="link_AnnouncementRepository_Announcement"><path codeLine="90" d="M510.5,633.03 C510.5,656.64 510.5,683.56 510.5,711.45 " fill="none" id="AnnouncementRepository-to-Announcement" style="stroke:#181818;stroke-width:1.0;"/><polygon fill="#181818" points="510.5,716.41,514.5,707.41,510.5,711.41,506.5,707.41,510.5,716.41" style="stroke:#181818;stroke-width:1.0;"/><text fill="#000000" font-family="sans-serif" font-size="20" lengthAdjust="spacing" textLength="33" x="511.5" y="683.0959">has</text><text fill="#000000" font-family="sans-serif" font-size="20" lengthAdjust="spacing" textLength="13" x="496.982" y="660.0104">1</text><text fill="#000000" font-family="sans-serif" font-size="20" lengthAdjust="spacing" textLength="10" x="500.3203" y="705.2364">*</text></g><!--link Announcement to Commission--><g id="link_Announcement_Commission"><path codeLine="91" d="M510.5,1168.51 C510.5,1196.53 510.5,1223.52 510.5,1246.94 " fill="none" id="Announcement-to-Commission" style="stroke:#181818;stroke-width:1.0;"/><polygon fill="#181818" points="510.5,1251.82,514.5,1242.82,510.5,1246.82,506.5,1242.82,510.5,1251.82" style="stroke:#181818;stroke-width:1.0;"/><text fill="#000000" font-family="sans-serif" font-size="20" lengthAdjust="spacing" textLength="33" x="511.5" y="1218.5259">has</text><text fill="#000000" font-family="sans-serif" font-size="20" lengthAdjust="spacing" textLength="13" x="497.2867" y="1195.6328">1</text><text fill="#000000" font-family="sans-serif" font-size="20" lengthAdjust="spacing" textLength="13" x="496.8602" y="1240.9165">1</text></g><!--SRC=[jLN1Rjim3BtdAuHUbgvhqUre307IhCKA56kmhBkh2XCBbKL3aZjum_vzf9pOScgdss6vo28VgST7Il5FsfRIoSAWUeArMCD6LYRSe0qh_HF4Xyl96x_7Y08jgjnX0IAu2YQTfvJgIMvX5Me3me4AqcvD2l2vNECFRRTY8urFFKPR27K9eaHJyoOziNMY2pYXN-TIHde_3y7fnoh0hK8R6LzE9j4ZvjPYPHKKO8FuDH7dfSCINAX59fQxJx9ozllDilDzwnaOuQJrKWMDbdqCwLiuT_LejCy_oS1-NiYei2YqzuGYswBTC3p7W9wiS-TaVQTz-BXaqunyELQUatpcbVP6sZLjxsYXdQJYGoo9WlVVRDysjkkYD5W31seEqz6h_R8X26nxH3GWROGiIAC0Reyyyn1kE_3qD1FFgEdWiu0hajfksTHyaN5Bw0XgWcaxPnxNXTGc0VxUzwGJ8NRaMPeACh4nA9ab2Quecah9n1g90pGvlpECq-s0R5ksM7Riq7JEGFE_GebU1tHrFBIJV2Pa0lEaCLlJKEh7cOC2d-4BsbQL5E6dNRvUP4RNmDDLwe4xELcgr7DLH-McZMAPaAsEf-cK39FxdyokQkemjPTwl6OgYIlglHUy2ZcPj99yAph9MN7Pyzr89TSyu1pIR9fJ5vLp17lmu5OGXuHRcspJyzeJD7XkQnn5w-dTKN4YKl-kg166Z1xplPJZ86xGa_BSjIO5BkXnTMWCtRgepc2EqTo7SlP2niieN_98klhlhH-QO6uLgp8ugVImTBT_d_LTyY9aedilzvIE2_bm6mLKhPxPSRc9nM2Mv9LpbPqUqUDeXIf7zD0LTE-QX-j0PggfDxpdi_umysFQpB6V31TzCNkbpkD3Tt7HFx5Fv-JzYJWdJhoEpHDnpEMnkE7NjubwdTp8vFz5uDZyZn1gER_jSzunxPdI-XRf7piZ_m00]--></g></svg>