<?xml version="1.0" encoding="UTF-8" standalone="no"?><svg xmlns="http://www.w3.org/2000/svg" xmlns:xlink="http://www.w3.org/1999/xlink" contentStyleType="text/css" height="1537px" preserveAspectRatio="none" style="width:2414px;height:1537px;background:#FFFFFF;" version="1.1" viewBox="0 0 2414 1537" width="2414px" zoomAndPan="magnify"><defs/><g><rect fill="#FFFFFF" height="1332.4141" style="stroke:#181818;stroke-width:1.0;" width="10" x="31" y="98.5547"/><rect fill="#FFFFFF" height="613.875" style="stroke:#181818;stroke-width:1.0;" width="10" x="399" y="128.1094"/><rect fill="#FFFFFF" height="613.875" style="stroke:#181818;stroke-width:1.0;" width="10" x="399" y="779.5391"/><rect fill="#FFFFFF" height="1274.3047" style="stroke:#181818;stroke-width:1.0;" width="10" x="834" y="165.6641"/><rect fill="#FFFFFF" height="267.8828" style="stroke:#181818;stroke-width:1.0;" width="10" x="839" y="436.5469"/><rect fill="#FFFFFF" height="622.875" style="stroke:#181818;stroke-width:1.0;" width="10" x="839" y="817.0938"/><rect fill="#FFFFFF" height="267.8828" style="stroke:#181818;stroke-width:1.0;" width="10" x="844" y="1087.9766"/><rect fill="#FFFFFF" height="37.5547" style="stroke:#181818;stroke-width:1.0;" width="10" x="1115" y="203.2188"/><rect fill="#FFFFFF" height="37.5547" style="stroke:#181818;stroke-width:1.0;" width="10" x="1115" y="854.6484"/><rect fill="#FFFFFF" height="37.5547" style="stroke:#181818;stroke-width:1.0;" width="10" x="1264" y="278.3281"/><rect fill="#FFFFFF" height="37.5547" style="stroke:#181818;stroke-width:1.0;" width="10" x="1264" y="929.7578"/><rect fill="#FFFFFF" height="37.5547" style="stroke:#181818;stroke-width:1.0;" width="10" x="1495.5" y="353.4375"/><rect fill="#FFFFFF" height="37.5547" style="stroke:#181818;stroke-width:1.0;" width="10" x="1495.5" y="1004.8672"/><rect fill="#FFFFFF" height="37.5547" style="stroke:#181818;stroke-width:1.0;" width="10" x="1758.5" y="479.1016"/><rect fill="#FFFFFF" height="37.5547" style="stroke:#181818;stroke-width:1.0;" width="10" x="1758.5" y="1130.5313"/><rect fill="#FFFFFF" height="37.5547" style="stroke:#181818;stroke-width:1.0;" width="10" x="1970.5" y="554.2109"/><rect fill="#FFFFFF" height="37.5547" style="stroke:#181818;stroke-width:1.0;" width="10" x="1970.5" y="1205.6406"/><rect fill="#FFFFFF" height="37.5547" style="stroke:#181818;stroke-width:1.0;" width="10" x="2158.5" y="629.3203"/><rect fill="#FFFFFF" height="37.5547" style="stroke:#181818;stroke-width:1.0;" width="10" x="2158.5" y="1280.75"/><line style="stroke:#181818;stroke-width:0.5;stroke-dasharray:5.0,5.0;" x1="36" x2="36" y1="88.5547" y2="1448.9688"/><line style="stroke:#181818;stroke-width:0.5;stroke-dasharray:5.0,5.0;" x1="403.5" x2="403.5" y1="88.5547" y2="1448.9688"/><line style="stroke:#181818;stroke-width:0.5;stroke-dasharray:5.0,5.0;" x1="839" x2="839" y1="88.5547" y2="1448.9688"/><line style="stroke:#181818;stroke-width:0.5;stroke-dasharray:5.0,5.0;" x1="1119.5" x2="1119.5" y1="88.5547" y2="1448.9688"/><line style="stroke:#181818;stroke-width:0.5;stroke-dasharray:5.0,5.0;" x1="1268.5" x2="1268.5" y1="88.5547" y2="1448.9688"/><line style="stroke:#181818;stroke-width:0.5;stroke-dasharray:5.0,5.0;" x1="1500.5" x2="1500.5" y1="88.5547" y2="1448.9688"/><line style="stroke:#181818;stroke-width:0.5;stroke-dasharray:5.0,5.0;" x1="1763.5" x2="1763.5" y1="88.5547" y2="1448.9688"/><line style="stroke:#181818;stroke-width:0.5;stroke-dasharray:5.0,5.0;" x1="1975.5" x2="1975.5" y1="88.5547" y2="1448.9688"/><line style="stroke:#181818;stroke-width:0.5;stroke-dasharray:5.0,5.0;" x1="2163.5" x2="2163.5" y1="88.5547" y2="1448.9688"/><line style="stroke:#181818;stroke-width:0.5;stroke-dasharray:5.0,5.0;" x1="2329.5" x2="2329.5" y1="88.5547" y2="1448.9688"/><text fill="#000000" font-family="sans-serif" font-size="20" lengthAdjust="spacing" textLength="56" x="5" y="84.3359">Agent</text><ellipse cx="36" cy="13.5" fill="#E3E3E3" rx="8" ry="8" style="stroke:#181818;stroke-width:0.5;"/><path d="M36,21.5 L36,48.5 M23,29.5 L49,29.5 M36,48.5 L23,63.5 M36,48.5 L49,63.5 " fill="none" style="stroke:#181818;stroke-width:0.5;"/><text fill="#000000" font-family="sans-serif" font-size="20" lengthAdjust="spacing" textLength="56" x="5" y="1467.3047">Agent</text><ellipse cx="36" cy="1480.0234" fill="#E3E3E3" rx="8" ry="8" style="stroke:#181818;stroke-width:0.5;"/><path d="M36,1488.0234 L36,1515.0234 M23,1496.0234 L49,1496.0234 M36,1515.0234 L23,1530.0234 M36,1515.0234 L49,1530.0234 " fill="none" style="stroke:#181818;stroke-width:0.5;"/><rect fill="#E3E3E3" height="37.5547" rx="2.5" ry="2.5" style="stroke:#181818;stroke-width:0.5;" width="293" x="257.5" y="50"/><text fill="#000000" font-family="sans-serif" font-size="20" lengthAdjust="spacing" textLength="279" x="264.5" y="76.3359">:PublishSaleAnnouncementUI</text><rect fill="#E3E3E3" height="37.5547" rx="2.5" ry="2.5" style="stroke:#181818;stroke-width:0.5;" width="293" x="257.5" y="1447.9688"/><text fill="#000000" font-family="sans-serif" font-size="20" lengthAdjust="spacing" textLength="279" x="264.5" y="1474.3047">:PublishSaleAnnouncementUI</text><rect fill="#E3E3E3" height="37.5547" rx="2.5" ry="2.5" style="stroke:#181818;stroke-width:0.5;" width="330" x="674" y="50"/><text fill="#000000" font-family="sans-serif" font-size="20" lengthAdjust="spacing" textLength="316" x="681" y="76.3359">:PublishAnnouncementController</text><rect fill="#E3E3E3" height="37.5547" rx="2.5" ry="2.5" style="stroke:#181818;stroke-width:0.5;" width="330" x="674" y="1447.9688"/><text fill="#000000" font-family="sans-serif" font-size="20" lengthAdjust="spacing" textLength="316" x="681" y="1474.3047">:PublishAnnouncementController</text><rect fill="#E3E3E3" height="37.5547" rx="2.5" ry="2.5" style="stroke:#181818;stroke-width:0.5;" width="139" x="1050.5" y="50"/><text fill="#000000" font-family="sans-serif" font-size="20" lengthAdjust="spacing" textLength="125" x="1057.5" y="76.3359">:Repositories</text><rect fill="#E3E3E3" height="37.5547" rx="2.5" ry="2.5" style="stroke:#181818;stroke-width:0.5;" width="139" x="1050.5" y="1447.9688"/><text fill="#000000" font-family="sans-serif" font-size="20" lengthAdjust="spacing" textLength="125" x="1057.5" y="1474.3047">:Repositories</text><rect fill="#E3E3E3" height="61.1094" rx="2.5" ry="2.5" style="stroke:#181818;stroke-width:0.5;" width="139" x="1199.5" y="26.4453"/><text fill="#000000" font-family="sans-serif" font-size="20" lengthAdjust="spacing" textLength="114" x="1212" y="52.7813">repositories</text><text fill="#000000" font-family="sans-serif" font-size="20" lengthAdjust="spacing" textLength="125" x="1206.5" y="76.3359">:Repositories</text><rect fill="#E3E3E3" height="61.1094" rx="2.5" ry="2.5" style="stroke:#181818;stroke-width:0.5;" width="139" x="1199.5" y="1447.9688"/><text fill="#000000" font-family="sans-serif" font-size="20" lengthAdjust="spacing" textLength="114" x="1212" y="1474.3047">repositories</text><text fill="#000000" font-family="sans-serif" font-size="20" lengthAdjust="spacing" textLength="125" x="1206.5" y="1497.8594">:Repositories</text><rect fill="#E3E3E3" height="61.1094" rx="2.5" ry="2.5" style="stroke:#181818;stroke-width:0.5;" width="304" x="1348.5" y="26.4453"/><text fill="#000000" font-family="sans-serif" font-size="20" lengthAdjust="spacing" textLength="290" x="1355.5" y="52.7813">saleAnnouncementRepository:</text><text fill="#000000" font-family="sans-serif" font-size="20" lengthAdjust="spacing" textLength="285" x="1358" y="76.3359">SaleAnnouncementRepository</text><rect fill="#E3E3E3" height="61.1094" rx="2.5" ry="2.5" style="stroke:#181818;stroke-width:0.5;" width="304" x="1348.5" y="1447.9688"/><text fill="#000000" font-family="sans-serif" font-size="20" lengthAdjust="spacing" textLength="290" x="1355.5" y="1474.3047">saleAnnouncementRepository:</text><text fill="#000000" font-family="sans-serif" font-size="20" lengthAdjust="spacing" textLength="285" x="1358" y="1497.8594">SaleAnnouncementRepository</text><rect fill="#E3E3E3" height="37.5547" rx="2.5" ry="2.5" style="stroke:#181818;stroke-width:0.5;" width="202" x="1662.5" y="50"/><text fill="#000000" font-family="sans-serif" font-size="20" lengthAdjust="spacing" textLength="188" x="1669.5" y="76.3359">:ApplicationSession</text><rect fill="#E3E3E3" height="37.5547" rx="2.5" ry="2.5" style="stroke:#181818;stroke-width:0.5;" width="202" x="1662.5" y="1447.9688"/><text fill="#000000" font-family="sans-serif" font-size="20" lengthAdjust="spacing" textLength="188" x="1669.5" y="1474.3047">:ApplicationSession</text><rect fill="#E3E3E3" height="61.1094" rx="2.5" ry="2.5" style="stroke:#181818;stroke-width:0.5;" width="202" x="1874.5" y="26.4453"/><text fill="#000000" font-family="sans-serif" font-size="20" lengthAdjust="spacing" textLength="109" x="1921" y="52.7813">appSession</text><text fill="#000000" font-family="sans-serif" font-size="20" lengthAdjust="spacing" textLength="188" x="1881.5" y="76.3359">:ApplicationSession</text><rect fill="#E3E3E3" height="61.1094" rx="2.5" ry="2.5" style="stroke:#181818;stroke-width:0.5;" width="202" x="1874.5" y="1447.9688"/><text fill="#000000" font-family="sans-serif" font-size="20" lengthAdjust="spacing" textLength="109" x="1921" y="1474.3047">appSession</text><text fill="#000000" font-family="sans-serif" font-size="20" lengthAdjust="spacing" textLength="188" x="1881.5" y="1497.8594">:ApplicationSession</text><rect fill="#E3E3E3" height="61.1094" rx="2.5" ry="2.5" style="stroke:#181818;stroke-width:0.5;" width="154" x="2086.5" y="26.4453"/><text fill="#000000" font-family="sans-serif" font-size="20" lengthAdjust="spacing" textLength="140" x="2093.5" y="52.7813">currentSession</text><text fill="#000000" font-family="sans-serif" font-size="20" lengthAdjust="spacing" textLength="121" x="2103" y="76.3359">:UserSession</text><rect fill="#E3E3E3" height="61.1094" rx="2.5" ry="2.5" style="stroke:#181818;stroke-width:0.5;" width="154" x="2086.5" y="1447.9688"/><text fill="#000000" font-family="sans-serif" font-size="20" lengthAdjust="spacing" textLength="140" x="2093.5" y="1474.3047">currentSession</text><text fill="#000000" font-family="sans-serif" font-size="20" lengthAdjust="spacing" textLength="121" x="2103" y="1497.8594">:UserSession</text><rect fill="#E3E3E3" height="37.5547" rx="2.5" ry="2.5" style="stroke:#181818;stroke-width:0.5;" width="158" x="2250.5" y="50"/><text fill="#000000" font-family="sans-serif" font-size="20" lengthAdjust="spacing" textLength="144" x="2257.5" y="76.3359">Announcement</text><rect fill="#E3E3E3" height="37.5547" rx="2.5" ry="2.5" style="stroke:#181818;stroke-width:0.5;" width="158" x="2250.5" y="1447.9688"/><text fill="#000000" font-family="sans-serif" font-size="20" lengthAdjust="spacing" textLength="144" x="2257.5" y="1474.3047">Announcement</text><rect fill="#FFFFFF" height="1332.4141" style="stroke:#181818;stroke-width:1.0;" width="10" x="31" y="98.5547"/><rect fill="#FFFFFF" height="613.875" style="stroke:#181818;stroke-width:1.0;" width="10" x="399" y="128.1094"/><rect fill="#FFFFFF" height="613.875" style="stroke:#181818;stroke-width:1.0;" width="10" x="399" y="779.5391"/><rect fill="#FFFFFF" height="1274.3047" style="stroke:#181818;stroke-width:1.0;" width="10" x="834" y="165.6641"/><rect fill="#FFFFFF" height="267.8828" style="stroke:#181818;stroke-width:1.0;" width="10" x="839" y="436.5469"/><rect fill="#FFFFFF" height="622.875" style="stroke:#181818;stroke-width:1.0;" width="10" x="839" y="817.0938"/><rect fill="#FFFFFF" height="267.8828" style="stroke:#181818;stroke-width:1.0;" width="10" x="844" y="1087.9766"/><rect fill="#FFFFFF" height="37.5547" style="stroke:#181818;stroke-width:1.0;" width="10" x="1115" y="203.2188"/><rect fill="#FFFFFF" height="37.5547" style="stroke:#181818;stroke-width:1.0;" width="10" x="1115" y="854.6484"/><rect fill="#FFFFFF" height="37.5547" style="stroke:#181818;stroke-width:1.0;" width="10" x="1264" y="278.3281"/><rect fill="#FFFFFF" height="37.5547" style="stroke:#181818;stroke-width:1.0;" width="10" x="1264" y="929.7578"/><rect fill="#FFFFFF" height="37.5547" style="stroke:#181818;stroke-width:1.0;" width="10" x="1495.5" y="353.4375"/><rect fill="#FFFFFF" height="37.5547" style="stroke:#181818;stroke-width:1.0;" width="10" x="1495.5" y="1004.8672"/><rect fill="#FFFFFF" height="37.5547" style="stroke:#181818;stroke-width:1.0;" width="10" x="1758.5" y="479.1016"/><rect fill="#FFFFFF" height="37.5547" style="stroke:#181818;stroke-width:1.0;" width="10" x="1758.5" y="1130.5313"/><rect fill="#FFFFFF" height="37.5547" style="stroke:#181818;stroke-width:1.0;" width="10" x="1970.5" y="554.2109"/><rect fill="#FFFFFF" height="37.5547" style="stroke:#181818;stroke-width:1.0;" width="10" x="1970.5" y="1205.6406"/><rect fill="#FFFFFF" height="37.5547" style="stroke:#181818;stroke-width:1.0;" width="10" x="2158.5" y="629.3203"/><rect fill="#FFFFFF" height="37.5547" style="stroke:#181818;stroke-width:1.0;" width="10" x="2158.5" y="1280.75"/><polygon fill="#181818" points="387,124.1094,397,128.1094,387,132.1094,391,128.1094" style="stroke:#181818;stroke-width:1.0;"/><line style="stroke:#181818;stroke-width:1.0;" x1="41" x2="393" y1="128.1094" y2="128.1094"/><text fill="#000000" font-family="sans-serif" font-size="20" font-weight="bold" lengthAdjust="spacing" textLength="13" x="48" y="121.8906">1</text><text fill="#000000" font-family="sans-serif" font-size="20" lengthAdjust="spacing" textLength="322" x="65" y="121.8906">asks to publish an announcement</text><polygon fill="#181818" points="822,161.6641,832,165.6641,822,169.6641,826,165.6641" style="stroke:#181818;stroke-width:1.0;"/><line style="stroke:#181818;stroke-width:1.0;" x1="409" x2="828" y1="165.6641" y2="165.6641"/><text fill="#000000" font-family="sans-serif" font-size="20" font-weight="bold" lengthAdjust="spacing" textLength="13" x="416" y="159.4453">2</text><text fill="#000000" font-family="sans-serif" font-size="20" lengthAdjust="spacing" textLength="371" x="433" y="159.4453">publishAnnouncement(announcement)</text><polygon fill="#181818" points="1103,199.2188,1113,203.2188,1103,207.2188,1107,203.2188" style="stroke:#181818;stroke-width:1.0;"/><line style="stroke:#181818;stroke-width:1.0;" x1="844" x2="1109" y1="203.2188" y2="203.2188"/><text fill="#000000" font-family="sans-serif" font-size="20" font-weight="bold" lengthAdjust="spacing" textLength="13" x="851" y="197">3</text><text fill="#000000" font-family="sans-serif" font-size="20" lengthAdjust="spacing" textLength="123" x="868" y="197">getInstance()</text><polygon fill="#181818" points="855,236.7734,845,240.7734,855,244.7734,851,240.7734" style="stroke:#181818;stroke-width:1.0;"/><line style="stroke:#181818;stroke-width:1.0;stroke-dasharray:2.0,2.0;" x1="849" x2="1119" y1="240.7734" y2="240.7734"/><text fill="#000000" font-family="sans-serif" font-size="20" font-weight="bold" lengthAdjust="spacing" textLength="13" x="861" y="234.5547">4</text><text fill="#000000" font-family="sans-serif" font-size="20" lengthAdjust="spacing" textLength="114" x="878" y="234.5547">repositories</text><polygon fill="#181818" points="1252,274.3281,1262,278.3281,1252,282.3281,1256,278.3281" style="stroke:#181818;stroke-width:1.0;"/><line style="stroke:#181818;stroke-width:1.0;" x1="844" x2="1258" y1="278.3281" y2="278.3281"/><text fill="#000000" font-family="sans-serif" font-size="20" font-weight="bold" lengthAdjust="spacing" textLength="13" x="851" y="272.1094">5</text><text fill="#000000" font-family="sans-serif" font-size="20" lengthAdjust="spacing" textLength="329" x="868" y="272.1094">getSaleAnnouncementRepository()</text><polygon fill="#181818" points="855,311.8828,845,315.8828,855,319.8828,851,315.8828" style="stroke:#181818;stroke-width:1.0;"/><line style="stroke:#181818;stroke-width:1.0;stroke-dasharray:2.0,2.0;" x1="849" x2="1268" y1="315.8828" y2="315.8828"/><text fill="#000000" font-family="sans-serif" font-size="20" font-weight="bold" lengthAdjust="spacing" textLength="13" x="861" y="309.6641">6</text><text fill="#000000" font-family="sans-serif" font-size="20" lengthAdjust="spacing" textLength="284" x="878" y="309.6641">saleAnnouncementRepository</text><polygon fill="#181818" points="1483.5,349.4375,1493.5,353.4375,1483.5,357.4375,1487.5,353.4375" style="stroke:#181818;stroke-width:1.0;"/><line style="stroke:#181818;stroke-width:1.0;" x1="844" x2="1489.5" y1="353.4375" y2="353.4375"/><text fill="#000000" font-family="sans-serif" font-size="20" font-weight="bold" lengthAdjust="spacing" textLength="13" x="851" y="347.2188">7</text><text fill="#000000" font-family="sans-serif" font-size="20" lengthAdjust="spacing" textLength="366" x="868" y="347.2188">updateAnnouncement(announcement)</text><polygon fill="#181818" points="855,386.9922,845,390.9922,855,394.9922,851,390.9922" style="stroke:#181818;stroke-width:1.0;"/><line style="stroke:#181818;stroke-width:1.0;stroke-dasharray:2.0,2.0;" x1="849" x2="1499.5" y1="390.9922" y2="390.9922"/><text fill="#000000" font-family="sans-serif" font-size="20" font-weight="bold" lengthAdjust="spacing" textLength="13" x="861" y="384.7734">8</text><text fill="#000000" font-family="sans-serif" font-size="20" lengthAdjust="spacing" textLength="224" x="878" y="384.7734">updatedAnnouncement</text><line style="stroke:#181818;stroke-width:1.0;" x1="844" x2="891" y1="423.5469" y2="423.5469"/><line style="stroke:#181818;stroke-width:1.0;" x1="891" x2="891" y1="423.5469" y2="436.5469"/><line style="stroke:#181818;stroke-width:1.0;" x1="850" x2="891" y1="436.5469" y2="436.5469"/><polygon fill="#181818" points="860,432.5469,850,436.5469,860,440.5469,856,436.5469" style="stroke:#181818;stroke-width:1.0;"/><text fill="#000000" font-family="sans-serif" font-size="20" font-weight="bold" lengthAdjust="spacing" textLength="13" x="856" y="417.3281">9</text><text fill="#000000" font-family="sans-serif" font-size="20" lengthAdjust="spacing" textLength="222" x="873" y="417.3281">getAgentFromSession()</text><polygon fill="#181818" points="1746.5,475.1016,1756.5,479.1016,1746.5,483.1016,1750.5,479.1016" style="stroke:#181818;stroke-width:1.0;"/><line style="stroke:#181818;stroke-width:1.0;" x1="849" x2="1752.5" y1="479.1016" y2="479.1016"/><text fill="#000000" font-family="sans-serif" font-size="20" font-weight="bold" lengthAdjust="spacing" textLength="26" x="856" y="472.8828">10</text><text fill="#000000" font-family="sans-serif" font-size="20" lengthAdjust="spacing" textLength="123" x="886" y="472.8828">getInstance()</text><polygon fill="#181818" points="860,512.6563,850,516.6563,860,520.6563,856,516.6563" style="stroke:#181818;stroke-width:1.0;"/><line style="stroke:#181818;stroke-width:1.0;" x1="854" x2="1762.5" y1="516.6563" y2="516.6563"/><text fill="#000000" font-family="sans-serif" font-size="20" font-weight="bold" lengthAdjust="spacing" textLength="26" x="866" y="510.4375">11</text><text fill="#000000" font-family="sans-serif" font-size="20" lengthAdjust="spacing" textLength="109" x="896" y="510.4375">appSession</text><polygon fill="#181818" points="1958.5,550.2109,1968.5,554.2109,1958.5,558.2109,1962.5,554.2109" style="stroke:#181818;stroke-width:1.0;"/><line style="stroke:#181818;stroke-width:1.0;" x1="849" x2="1964.5" y1="554.2109" y2="554.2109"/><text fill="#000000" font-family="sans-serif" font-size="20" font-weight="bold" lengthAdjust="spacing" textLength="26" x="856" y="547.9922">12</text><text fill="#000000" font-family="sans-serif" font-size="20" lengthAdjust="spacing" textLength="188" x="886" y="547.9922">getCurrentSession()</text><polygon fill="#181818" points="860,587.7656,850,591.7656,860,595.7656,856,591.7656" style="stroke:#181818;stroke-width:1.0;"/><line style="stroke:#181818;stroke-width:1.0;stroke-dasharray:2.0,2.0;" x1="854" x2="1974.5" y1="591.7656" y2="591.7656"/><text fill="#000000" font-family="sans-serif" font-size="20" font-weight="bold" lengthAdjust="spacing" textLength="26" x="866" y="585.5469">13</text><text fill="#000000" font-family="sans-serif" font-size="20" lengthAdjust="spacing" textLength="140" x="896" y="585.5469">currentSession</text><polygon fill="#181818" points="2146.5,625.3203,2156.5,629.3203,2146.5,633.3203,2150.5,629.3203" style="stroke:#181818;stroke-width:1.0;"/><line style="stroke:#181818;stroke-width:1.0;" x1="849" x2="2152.5" y1="629.3203" y2="629.3203"/><text fill="#000000" font-family="sans-serif" font-size="20" font-weight="bold" lengthAdjust="spacing" textLength="26" x="856" y="623.1016">14</text><text fill="#000000" font-family="sans-serif" font-size="20" lengthAdjust="spacing" textLength="221" x="886" y="623.1016">email = getUserEmail()</text><polygon fill="#181818" points="860,662.875,850,666.875,860,670.875,856,666.875" style="stroke:#181818;stroke-width:1.0;"/><line style="stroke:#181818;stroke-width:1.0;stroke-dasharray:2.0,2.0;" x1="854" x2="2162.5" y1="666.875" y2="666.875"/><text fill="#000000" font-family="sans-serif" font-size="20" font-weight="bold" lengthAdjust="spacing" textLength="26" x="866" y="660.6563">15</text><text fill="#000000" font-family="sans-serif" font-size="20" lengthAdjust="spacing" textLength="53" x="896" y="660.6563">email</text><polygon fill="#181818" points="420,700.4297,410,704.4297,420,708.4297,416,704.4297" style="stroke:#181818;stroke-width:1.0;"/><line style="stroke:#181818;stroke-width:1.0;stroke-dasharray:2.0,2.0;" x1="414" x2="833" y1="704.4297" y2="704.4297"/><text fill="#000000" font-family="sans-serif" font-size="20" font-weight="bold" lengthAdjust="spacing" textLength="26" x="426" y="698.2109">16</text><text fill="#000000" font-family="sans-serif" font-size="20" lengthAdjust="spacing" textLength="224" x="456" y="698.2109">updatedAnnouncement</text><polygon fill="#181818" points="52,737.9844,42,741.9844,52,745.9844,48,741.9844" style="stroke:#181818;stroke-width:1.0;"/><line style="stroke:#181818;stroke-width:1.0;stroke-dasharray:2.0,2.0;" x1="46" x2="403" y1="741.9844" y2="741.9844"/><text fill="#000000" font-family="sans-serif" font-size="20" font-weight="bold" lengthAdjust="spacing" textLength="26" x="58" y="735.7656">17</text><text fill="#000000" font-family="sans-serif" font-size="20" lengthAdjust="spacing" textLength="292" x="88" y="735.7656">shows updated announcement</text><polygon fill="#181818" points="387,775.5391,397,779.5391,387,783.5391,391,779.5391" style="stroke:#181818;stroke-width:1.0;"/><line style="stroke:#181818;stroke-width:1.0;" x1="41" x2="393" y1="779.5391" y2="779.5391"/><text fill="#000000" font-family="sans-serif" font-size="20" font-weight="bold" lengthAdjust="spacing" textLength="26" x="48" y="773.3203">18</text><text fill="#000000" font-family="sans-serif" font-size="20" lengthAdjust="spacing" textLength="198" x="78" y="773.3203">confirms publication</text><polygon fill="#181818" points="827,813.0938,837,817.0938,827,821.0938,831,817.0938" style="stroke:#181818;stroke-width:1.0;"/><line style="stroke:#181818;stroke-width:1.0;" x1="409" x2="833" y1="817.0938" y2="817.0938"/><text fill="#000000" font-family="sans-serif" font-size="20" font-weight="bold" lengthAdjust="spacing" textLength="26" x="416" y="810.875">19</text><text fill="#000000" font-family="sans-serif" font-size="20" lengthAdjust="spacing" textLength="371" x="446" y="810.875">publishAnnouncement(announcement)</text><polygon fill="#181818" points="1103,850.6484,1113,854.6484,1103,858.6484,1107,854.6484" style="stroke:#181818;stroke-width:1.0;"/><line style="stroke:#181818;stroke-width:1.0;" x1="849" x2="1109" y1="854.6484" y2="854.6484"/><text fill="#000000" font-family="sans-serif" font-size="20" font-weight="bold" lengthAdjust="spacing" textLength="26" x="856" y="848.4297">20</text><text fill="#000000" font-family="sans-serif" font-size="20" lengthAdjust="spacing" textLength="123" x="886" y="848.4297">getInstance()</text><polygon fill="#181818" points="860,888.2031,850,892.2031,860,896.2031,856,892.2031" style="stroke:#181818;stroke-width:1.0;"/><line style="stroke:#181818;stroke-width:1.0;stroke-dasharray:2.0,2.0;" x1="854" x2="1119" y1="892.2031" y2="892.2031"/><text fill="#000000" font-family="sans-serif" font-size="20" font-weight="bold" lengthAdjust="spacing" textLength="26" x="866" y="885.9844">21</text><text fill="#000000" font-family="sans-serif" font-size="20" lengthAdjust="spacing" textLength="114" x="896" y="885.9844">repositories</text><polygon fill="#181818" points="1252,925.7578,1262,929.7578,1252,933.7578,1256,929.7578" style="stroke:#181818;stroke-width:1.0;"/><line style="stroke:#181818;stroke-width:1.0;" x1="849" x2="1258" y1="929.7578" y2="929.7578"/><text fill="#000000" font-family="sans-serif" font-size="20" font-weight="bold" lengthAdjust="spacing" textLength="26" x="856" y="923.5391">22</text><text fill="#000000" font-family="sans-serif" font-size="20" lengthAdjust="spacing" textLength="329" x="886" y="923.5391">getSaleAnnouncementRepository()</text><polygon fill="#181818" points="860,963.3125,850,967.3125,860,971.3125,856,967.3125" style="stroke:#181818;stroke-width:1.0;"/><line style="stroke:#181818;stroke-width:1.0;stroke-dasharray:2.0,2.0;" x1="854" x2="1268" y1="967.3125" y2="967.3125"/><text fill="#000000" font-family="sans-serif" font-size="20" font-weight="bold" lengthAdjust="spacing" textLength="26" x="866" y="961.0938">23</text><text fill="#000000" font-family="sans-serif" font-size="20" lengthAdjust="spacing" textLength="284" x="896" y="961.0938">saleAnnouncementRepository</text><polygon fill="#181818" points="1483.5,1000.8672,1493.5,1004.8672,1483.5,1008.8672,1487.5,1004.8672" style="stroke:#181818;stroke-width:1.0;"/><line style="stroke:#181818;stroke-width:1.0;" x1="849" x2="1489.5" y1="1004.8672" y2="1004.8672"/><text fill="#000000" font-family="sans-serif" font-size="20" font-weight="bold" lengthAdjust="spacing" textLength="26" x="856" y="998.6484">24</text><text fill="#000000" font-family="sans-serif" font-size="20" lengthAdjust="spacing" textLength="366" x="886" y="998.6484">updateAnnouncement(announcement)</text><polygon fill="#181818" points="860,1038.4219,850,1042.4219,860,1046.4219,856,1042.4219" style="stroke:#181818;stroke-width:1.0;"/><line style="stroke:#181818;stroke-width:1.0;stroke-dasharray:2.0,2.0;" x1="854" x2="1499.5" y1="1042.4219" y2="1042.4219"/><text fill="#000000" font-family="sans-serif" font-size="20" font-weight="bold" lengthAdjust="spacing" textLength="26" x="866" y="1036.2031">25</text><text fill="#000000" font-family="sans-serif" font-size="20" lengthAdjust="spacing" textLength="224" x="896" y="1036.2031">updatedAnnouncement</text><line style="stroke:#181818;stroke-width:1.0;" x1="849" x2="896" y1="1074.9766" y2="1074.9766"/><line style="stroke:#181818;stroke-width:1.0;" x1="896" x2="896" y1="1074.9766" y2="1087.9766"/><line style="stroke:#181818;stroke-width:1.0;" x1="855" x2="896" y1="1087.9766" y2="1087.9766"/><polygon fill="#181818" points="865,1083.9766,855,1087.9766,865,1091.9766,861,1087.9766" style="stroke:#181818;stroke-width:1.0;"/><text fill="#000000" font-family="sans-serif" font-size="20" font-weight="bold" lengthAdjust="spacing" textLength="26" x="861" y="1068.7578">26</text><text fill="#000000" font-family="sans-serif" font-size="20" lengthAdjust="spacing" textLength="222" x="891" y="1068.7578">getAgentFromSession()</text><polygon fill="#181818" points="1746.5,1126.5313,1756.5,1130.5313,1746.5,1134.5313,1750.5,1130.5313" style="stroke:#181818;stroke-width:1.0;"/><line style="stroke:#181818;stroke-width:1.0;" x1="854" x2="1752.5" y1="1130.5313" y2="1130.5313"/><text fill="#000000" font-family="sans-serif" font-size="20" font-weight="bold" lengthAdjust="spacing" textLength="26" x="861" y="1124.3125">27</text><text fill="#000000" font-family="sans-serif" font-size="20" lengthAdjust="spacing" textLength="123" x="891" y="1124.3125">getInstance()</text><polygon fill="#181818" points="865,1164.0859,855,1168.0859,865,1172.0859,861,1168.0859" style="stroke:#181818;stroke-width:1.0;"/><line style="stroke:#181818;stroke-width:1.0;" x1="859" x2="1762.5" y1="1168.0859" y2="1168.0859"/><text fill="#000000" font-family="sans-serif" font-size="20" font-weight="bold" lengthAdjust="spacing" textLength="26" x="871" y="1161.8672">28</text><text fill="#000000" font-family="sans-serif" font-size="20" lengthAdjust="spacing" textLength="109" x="901" y="1161.8672">appSession</text><polygon fill="#181818" points="1958.5,1201.6406,1968.5,1205.6406,1958.5,1209.6406,1962.5,1205.6406" style="stroke:#181818;stroke-width:1.0;"/><line style="stroke:#181818;stroke-width:1.0;" x1="854" x2="1964.5" y1="1205.6406" y2="1205.6406"/><text fill="#000000" font-family="sans-serif" font-size="20" font-weight="bold" lengthAdjust="spacing" textLength="26" x="861" y="1199.4219">29</text><text fill="#000000" font-family="sans-serif" font-size="20" lengthAdjust="spacing" textLength="188" x="891" y="1199.4219">getCurrentSession()</text><polygon fill="#181818" points="865,1239.1953,855,1243.1953,865,1247.1953,861,1243.1953" style="stroke:#181818;stroke-width:1.0;"/><line style="stroke:#181818;stroke-width:1.0;stroke-dasharray:2.0,2.0;" x1="859" x2="1974.5" y1="1243.1953" y2="1243.1953"/><text fill="#000000" font-family="sans-serif" font-size="20" font-weight="bold" lengthAdjust="spacing" textLength="26" x="871" y="1236.9766">30</text><text fill="#000000" font-family="sans-serif" font-size="20" lengthAdjust="spacing" textLength="140" x="901" y="1236.9766">currentSession</text><polygon fill="#181818" points="2146.5,1276.75,2156.5,1280.75,2146.5,1284.75,2150.5,1280.75" style="stroke:#181818;stroke-width:1.0;"/><line style="stroke:#181818;stroke-width:1.0;" x1="854" x2="2152.5" y1="1280.75" y2="1280.75"/><text fill="#000000" font-family="sans-serif" font-size="20" font-weight="bold" lengthAdjust="spacing" textLength="26" x="861" y="1274.5313">31</text><text fill="#000000" font-family="sans-serif" font-size="20" lengthAdjust="spacing" textLength="221" x="891" y="1274.5313">email = getUserEmail()</text><polygon fill="#181818" points="865,1314.3047,855,1318.3047,865,1322.3047,861,1318.3047" style="stroke:#181818;stroke-width:1.0;"/><line style="stroke:#181818;stroke-width:1.0;stroke-dasharray:2.0,2.0;" x1="859" x2="2162.5" y1="1318.3047" y2="1318.3047"/><text fill="#000000" font-family="sans-serif" font-size="20" font-weight="bold" lengthAdjust="spacing" textLength="26" x="871" y="1312.0859">32</text><text fill="#000000" font-family="sans-serif" font-size="20" lengthAdjust="spacing" textLength="53" x="901" y="1312.0859">email</text><polygon fill="#181818" points="420,1351.8594,410,1355.8594,420,1359.8594,416,1355.8594" style="stroke:#181818;stroke-width:1.0;"/><line style="stroke:#181818;stroke-width:1.0;stroke-dasharray:2.0,2.0;" x1="414" x2="838" y1="1355.8594" y2="1355.8594"/><text fill="#000000" font-family="sans-serif" font-size="20" font-weight="bold" lengthAdjust="spacing" textLength="26" x="426" y="1349.6406">33</text><text fill="#000000" font-family="sans-serif" font-size="20" lengthAdjust="spacing" textLength="224" x="456" y="1349.6406">updatedAnnouncement</text><polygon fill="#181818" points="52,1389.4141,42,1393.4141,52,1397.4141,48,1393.4141" style="stroke:#181818;stroke-width:1.0;"/><line style="stroke:#181818;stroke-width:1.0;stroke-dasharray:2.0,2.0;" x1="46" x2="403" y1="1393.4141" y2="1393.4141"/><text fill="#000000" font-family="sans-serif" font-size="20" font-weight="bold" lengthAdjust="spacing" textLength="26" x="58" y="1387.1953">34</text><text fill="#000000" font-family="sans-serif" font-size="20" lengthAdjust="spacing" textLength="292" x="88" y="1387.1953">shows updated announcement</text><polygon fill="#181818" points="392,1426.9688,402,1430.9688,392,1434.9688,396,1430.9688" style="stroke:#181818;stroke-width:1.0;"/><line style="stroke:#181818;stroke-width:1.0;" x1="36" x2="398" y1="1430.9688" y2="1430.9688"/><text fill="#000000" font-family="sans-serif" font-size="20" font-weight="bold" lengthAdjust="spacing" textLength="26" x="43" y="1424.75">35</text><text fill="#000000" font-family="sans-serif" font-size="20" lengthAdjust="spacing" textLength="85" x="73" y="1424.75">closes UI</text><!--SRC=[xLTTQzim57tthn1vMViG67iCR112EW8Z3NNpLXYAVPE8o9AHv7NThz-L_2N5KjiV414miUyvEjVtw93e2nCrLRJYihX0IKeuqeQR1obCplu1-VOrqtq9gQIGnLd92eXH3NXFQbfSw0boyyQ1A2WC5IVk5-WpBUKh4oTof5n3bj76ID5K1r1PzkNCIY17ASr1_ireOQGYi-K9X9aHgidovthxd26FOGMhgJ1ajjWr1yxqEQSSbaB8HXHGOVr-un3xJRpSBrrXYqfo3if1LizFlwv0Jr1BpL0C0-rgXXjlERFzOGSXH7c85n4XMEyUGuI-Qc3SOl4YykH3nvP-VDN8iguvAwXXKkIWDLuS_lTojmihQLrt1QW-WPg0YaOft7q4xZKe7v6lytppk0rHll2MTxlDxEpP7sgWctdcBcJ-0oTA5bXrqSH8KhVJ95JWPwJnu6Y0ZE1268BjR15UJqrmv-Fl7MJWS8vmj-no7CWLyG1Idy1iX4RN5t1tFs06gfXnXYgxOgppJlc2-BOQO2LyZduGZjvhbQPz4zLkFHkAjKoZkhI5ere3kbvSMX9ARkeIaH-CBT3ypia8Edbds_dectR_qY-CTVQPJVj-EsOSXekv1ypKxiJ4HX0wqUUnHpZble32dNLojUnDCinnFFn1eTUX8udgw6MiWYn8YPdGsEMq36B2K4a9Ikhf8cT1eAACa-zMcusbjVsQajNdr4HQzy2JvsXJgYOyhQe-nM9soguenedR1BCls0KX7hQpVDKzHPX-7jp6NnYTXHH7fYhTXc2RwhUulCNbBIvlSNcBosbSSgd1_O_mNv_xJHhW_WC0]--></g></svg>