<?xml version="1.0" encoding="UTF-8" standalone="no"?><svg xmlns="http://www.w3.org/2000/svg" xmlns:xlink="http://www.w3.org/1999/xlink" contentStyleType="text/css" height="1051px" preserveAspectRatio="none" style="width:1458px;height:1051px;background:#FFFFFF;" version="1.1" viewBox="0 0 1458 1051" width="1458px" zoomAndPan="magnify"><defs/><g><!--class Announcement--><g id="elem_Announcement"><rect codeLine="11" fill="#F1F1F1" height="97.1094" id="Announcement" rx="2.5" ry="2.5" style="stroke:#181818;stroke-width:0.5;" width="233" x="394" y="718"/><ellipse cx="434.75" cy="735" fill="#ADD1B2" rx="12" ry="12" style="stroke:#181818;stroke-width:1.0;"/><path d="M437.5566,742.0801 Q436.873,742.4316 436.1211,742.6074 Q435.3691,742.7832 434.5391,742.7832 Q431.5898,742.7832 430.0371,740.8398 Q428.4844,738.8965 428.4844,735.2246 Q428.4844,731.543 430.0371,729.5996 Q431.5898,727.6563 434.5391,727.6563 Q435.3691,727.6563 436.1309,727.832 Q436.8926,728.0078 437.5566,728.3594 L437.5566,731.5625 Q436.8145,730.8789 436.1162,730.5615 Q435.418,730.2441 434.6758,730.2441 Q433.0938,730.2441 432.2881,731.499 Q431.4824,732.7539 431.4824,735.2246 Q431.4824,737.6855 432.2881,738.9404 Q433.0938,740.1953 434.6758,740.1953 Q435.418,740.1953 436.1162,739.8779 Q436.8145,739.5605 437.5566,738.877 Z " fill="#000000"/><text fill="#000000" font-family="sans-serif" font-size="20" lengthAdjust="spacing" textLength="144" x="455.25" y="742.5586">Announcement</text><line style="stroke:#181818;stroke-width:0.5;" x1="395" x2="626" y1="752" y2="752"/><line style="stroke:#181818;stroke-width:0.5;" x1="395" x2="626" y1="760" y2="760"/><text fill="#000000" font-family="sans-serif" font-size="20" lengthAdjust="spacing" textLength="221" x="400" y="783.3359">+setIsPublished(): void</text><text fill="#000000" font-family="sans-serif" font-size="20" lengthAdjust="spacing" textLength="173" x="400" y="806.8906">+toString(): String</text></g><!--class Commission--><g id="elem_Commission"><rect codeLine="16" fill="#F1F1F1" height="144.2188" id="Commission" rx="2.5" ry="2.5" style="stroke:#181818;stroke-width:0.5;" width="255" x="383" y="900"/><ellipse cx="446" cy="917" fill="#ADD1B2" rx="12" ry="12" style="stroke:#181818;stroke-width:1.0;"/><path d="M448.8066,924.0801 Q448.123,924.4316 447.3711,924.6074 Q446.6191,924.7832 445.7891,924.7832 Q442.8398,924.7832 441.2871,922.8398 Q439.7344,920.8965 439.7344,917.2246 Q439.7344,913.543 441.2871,911.5996 Q442.8398,909.6563 445.7891,909.6563 Q446.6191,909.6563 447.3809,909.832 Q448.1426,910.0078 448.8066,910.3594 L448.8066,913.5625 Q448.0645,912.8789 447.3662,912.5615 Q446.668,912.2441 445.9258,912.2441 Q444.3438,912.2441 443.5381,913.499 Q442.7324,914.7539 442.7324,917.2246 Q442.7324,919.6855 443.5381,920.9404 Q444.3438,922.1953 445.9258,922.1953 Q446.668,922.1953 447.3662,921.8779 Q448.0645,921.5605 448.8066,920.877 Z " fill="#000000"/><text fill="#000000" font-family="sans-serif" font-size="20" lengthAdjust="spacing" textLength="120" x="468" y="924.5586">Commission</text><line style="stroke:#181818;stroke-width:0.5;" x1="384" x2="637" y1="934" y2="934"/><text fill="#000000" font-family="sans-serif" font-size="20" lengthAdjust="spacing" textLength="117" x="389" y="957.3359">-value: float</text><text fill="#000000" font-family="sans-serif" font-size="20" lengthAdjust="spacing" textLength="197" x="389" y="980.8906">-percentage: double</text><line style="stroke:#181818;stroke-width:0.5;" x1="384" x2="637" y1="989.1094" y2="989.1094"/><text fill="#000000" font-family="sans-serif" font-size="20" lengthAdjust="spacing" textLength="168" x="389" y="1012.4453">+getValue(): float</text><text fill="#000000" font-family="sans-serif" font-size="20" lengthAdjust="spacing" textLength="243" x="389" y="1036">+getPercentage(): double</text></g><!--class AnnouncementRepository--><g id="elem_AnnouncementRepository"><rect codeLine="24" fill="#F1F1F1" height="167.7734" id="AnnouncementRepository" rx="2.5" ry="2.5" style="stroke:#181818;stroke-width:0.5;" width="934" x="43.5" y="465"/><ellipse cx="383" cy="482" fill="#ADD1B2" rx="12" ry="12" style="stroke:#181818;stroke-width:1.0;"/><path d="M385.8066,489.0801 Q385.123,489.4316 384.3711,489.6074 Q383.6191,489.7832 382.7891,489.7832 Q379.8398,489.7832 378.2871,487.8398 Q376.7344,485.8965 376.7344,482.2246 Q376.7344,478.543 378.2871,476.5996 Q379.8398,474.6563 382.7891,474.6563 Q383.6191,474.6563 384.3809,474.832 Q385.1426,475.0078 385.8066,475.3594 L385.8066,478.5625 Q385.0645,477.8789 384.3662,477.5615 Q383.668,477.2441 382.9258,477.2441 Q381.3438,477.2441 380.5381,478.499 Q379.7324,479.7539 379.7324,482.2246 Q379.7324,484.6855 380.5381,485.9404 Q381.3438,487.1953 382.9258,487.1953 Q383.668,487.1953 384.3662,486.8779 Q385.0645,486.5605 385.8066,485.877 Z " fill="#000000"/><text fill="#000000" font-family="sans-serif" font-size="20" lengthAdjust="spacing" textLength="246" x="405" y="489.5586">AnnouncementRepository</text><line style="stroke:#181818;stroke-width:0.5;" x1="44.5" x2="976.5" y1="499" y2="499"/><text fill="#000000" font-family="sans-serif" font-size="20" lengthAdjust="spacing" textLength="508" x="49.5" y="522.3359">-ArrayList&lt;&gt; announcements: List&lt;Announcement&gt;</text><line style="stroke:#181818;stroke-width:0.5;" x1="44.5" x2="976.5" y1="530.5547" y2="530.5547"/><text fill="#000000" font-family="sans-serif" font-size="20" lengthAdjust="spacing" textLength="922" x="49.5" y="553.8906">+removeNonPublishedAnnouncements(ArrayList&lt;Announcement&gt;: resultAnnouncements): void</text><text fill="#000000" font-family="sans-serif" font-size="20" lengthAdjust="spacing" textLength="739" x="49.5" y="577.4453">+getAnnouncementsByAgent(String: agentEmail): ArrayList&lt;Announcement&gt;</text><text fill="#000000" font-family="sans-serif" font-size="20" lengthAdjust="spacing" textLength="883" x="49.5" y="601">+removePublishedAnnouncements(ArrayList&lt;Announcement&gt;: resultAnnouncements): void</text><text fill="#000000" font-family="sans-serif" font-size="20" lengthAdjust="spacing" textLength="457" x="49.5" y="624.5547">+getAnnouncementById(int: id): Announcement</text></g><!--class AuthenticationRepository--><g id="elem_AuthenticationRepository"><rect codeLine="34" fill="#F1F1F1" height="73.5547" id="AuthenticationRepository" rx="2.5" ry="2.5" style="stroke:#181818;stroke-width:0.5;" width="386" x="1065.5" y="512"/><ellipse cx="1133.5" cy="529" fill="#ADD1B2" rx="12" ry="12" style="stroke:#181818;stroke-width:1.0;"/><path d="M1136.3066,536.0801 Q1135.623,536.4316 1134.8711,536.6074 Q1134.1191,536.7832 1133.2891,536.7832 Q1130.3398,536.7832 1128.7871,534.8398 Q1127.2344,532.8965 1127.2344,529.2246 Q1127.2344,525.543 1128.7871,523.5996 Q1130.3398,521.6563 1133.2891,521.6563 Q1134.1191,521.6563 1134.8809,521.832 Q1135.6426,522.0078 1136.3066,522.3594 L1136.3066,525.5625 Q1135.5645,524.8789 1134.8662,524.5615 Q1134.168,524.2441 1133.4258,524.2441 Q1131.8438,524.2441 1131.0381,525.499 Q1130.2324,526.7539 1130.2324,529.2246 Q1130.2324,531.6855 1131.0381,532.9404 Q1131.8438,534.1953 1133.4258,534.1953 Q1134.168,534.1953 1134.8662,533.8779 Q1135.5645,533.5605 1136.3066,532.877 Z " fill="#000000"/><text fill="#000000" font-family="sans-serif" font-size="20" lengthAdjust="spacing" textLength="241" x="1155.5" y="536.5586">AuthenticationRepository</text><line style="stroke:#181818;stroke-width:0.5;" x1="1066.5" x2="1450.5" y1="546" y2="546"/><line style="stroke:#181818;stroke-width:0.5;" x1="1066.5" x2="1450.5" y1="554" y2="554"/><text fill="#000000" font-family="sans-serif" font-size="20" lengthAdjust="spacing" textLength="374" x="1071.5" y="577.3359">+getCurrentUserSession(): UserSession</text></g><!--class Repositories--><g id="elem_Repositories"><rect codeLine="40" fill="#F1F1F1" height="120.6641" id="Repositories" rx="2.5" ry="2.5" style="stroke:#181818;stroke-width:0.5;" width="576" x="536.5" y="259"/><ellipse cx="760.5" cy="276" fill="#ADD1B2" rx="12" ry="12" style="stroke:#181818;stroke-width:1.0;"/><path d="M763.3066,283.0801 Q762.623,283.4316 761.8711,283.6074 Q761.1191,283.7832 760.2891,283.7832 Q757.3398,283.7832 755.7871,281.8398 Q754.2344,279.8965 754.2344,276.2246 Q754.2344,272.543 755.7871,270.5996 Q757.3398,268.6563 760.2891,268.6563 Q761.1191,268.6563 761.8809,268.832 Q762.6426,269.0078 763.3066,269.3594 L763.3066,272.5625 Q762.5645,271.8789 761.8662,271.5615 Q761.168,271.2441 760.4258,271.2441 Q758.8438,271.2441 758.0381,272.499 Q757.2324,273.7539 757.2324,276.2246 Q757.2324,278.6855 758.0381,279.9404 Q758.8438,281.1953 760.4258,281.1953 Q761.168,281.1953 761.8662,280.8779 Q762.5645,280.5605 763.3066,279.877 Z " fill="#000000"/><text fill="#000000" font-family="sans-serif" font-size="20" lengthAdjust="spacing" textLength="119" x="782.5" y="283.5586">Repositories</text><line style="stroke:#181818;stroke-width:0.5;" x1="537.5" x2="1111.5" y1="293" y2="293"/><line style="stroke:#181818;stroke-width:0.5;" x1="537.5" x2="1111.5" y1="301" y2="301"/><text fill="#000000" font-family="sans-serif" font-size="20" lengthAdjust="spacing" textLength="270" x="542.5" y="324.3359">+getInstance(): Repositories</text><text fill="#000000" font-family="sans-serif" font-size="20" lengthAdjust="spacing" textLength="554" x="542.5" y="347.8906">+getAuthenticationRepository(): AuthenticationRepository</text><text fill="#000000" font-family="sans-serif" font-size="20" lengthAdjust="spacing" textLength="564" x="542.5" y="371.4453">+getAnnouncementRepository(): AnnouncementRepository</text></g><!--class PublishAnnouncementController--><g id="elem_PublishAnnouncementController"><rect codeLine="48" fill="#F1F1F1" height="191.3281" id="PublishAnnouncementController" rx="2.5" ry="2.5" style="stroke:#181818;stroke-width:0.5;" width="559" x="545" y="7"/><ellipse cx="665" cy="24" fill="#ADD1B2" rx="12" ry="12" style="stroke:#181818;stroke-width:1.0;"/><path d="M667.8066,31.0801 Q667.123,31.4316 666.3711,31.6074 Q665.6191,31.7832 664.7891,31.7832 Q661.8398,31.7832 660.2871,29.8398 Q658.7344,27.8965 658.7344,24.2246 Q658.7344,20.543 660.2871,18.5996 Q661.8398,16.6563 664.7891,16.6563 Q665.6191,16.6563 666.3809,16.832 Q667.1426,17.0078 667.8066,17.3594 L667.8066,20.5625 Q667.0645,19.8789 666.3662,19.5615 Q665.668,19.2441 664.9258,19.2441 Q663.3438,19.2441 662.5381,20.499 Q661.7324,21.7539 661.7324,24.2246 Q661.7324,26.6855 662.5381,27.9404 Q663.3438,29.1953 664.9258,29.1953 Q665.668,29.1953 666.3662,28.8779 Q667.0645,28.5605 667.8066,27.877 Z " fill="#000000"/><text fill="#000000" font-family="sans-serif" font-size="20" lengthAdjust="spacing" textLength="310" x="687" y="31.5586">PublishAnnouncementController</text><line style="stroke:#181818;stroke-width:0.5;" x1="546" x2="1103" y1="41" y2="41"/><text fill="#000000" font-family="sans-serif" font-size="20" lengthAdjust="spacing" textLength="513" x="551" y="64.3359">-announcementRepository: AnnouncementRepository</text><text fill="#000000" font-family="sans-serif" font-size="20" lengthAdjust="spacing" textLength="503" x="551" y="87.8906">-authenticationRepository: AuthenticationRepository</text><line style="stroke:#181818;stroke-width:0.5;" x1="546" x2="1103" y1="96.1094" y2="96.1094"/><text fill="#000000" font-family="sans-serif" font-size="20" lengthAdjust="spacing" textLength="355" x="551" y="119.4453">+publishAnnouncement(int: id): void</text><text fill="#000000" font-family="sans-serif" font-size="20" lengthAdjust="spacing" textLength="457" x="551" y="143">+getAnnouncementById(int: id): Announcement</text><text fill="#000000" font-family="sans-serif" font-size="20" lengthAdjust="spacing" textLength="501" x="551" y="166.5547">+getAnnouncementsByUser(): List&lt;Announcement&gt;</text><text fill="#000000" font-family="sans-serif" font-size="20" lengthAdjust="spacing" textLength="547" x="551" y="190.1094">+setCommission(int: id, Commission: commission): void</text></g><!--class PublishAnnouncementUI--><g id="elem_PublishAnnouncementUI"><rect codeLine="59" fill="#F1F1F1" height="167.7734" id="PublishAnnouncementUI" rx="2.5" ry="2.5" style="stroke:#181818;stroke-width:0.5;" width="503" x="7" y="18.5"/><ellipse cx="137" cy="35.5" fill="#ADD1B2" rx="12" ry="12" style="stroke:#181818;stroke-width:1.0;"/><path d="M139.8066,42.5801 Q139.123,42.9316 138.3711,43.1074 Q137.6191,43.2832 136.7891,43.2832 Q133.8398,43.2832 132.2871,41.3398 Q130.7344,39.3965 130.7344,35.7246 Q130.7344,32.043 132.2871,30.0996 Q133.8398,28.1563 136.7891,28.1563 Q137.6191,28.1563 138.3809,28.332 Q139.1426,28.5078 139.8066,28.8594 L139.8066,32.0625 Q139.0645,31.3789 138.3662,31.0615 Q137.668,30.7441 136.9258,30.7441 Q135.3438,30.7441 134.5381,31.999 Q133.7324,33.2539 133.7324,35.7246 Q133.7324,38.1855 134.5381,39.4404 Q135.3438,40.6953 136.9258,40.6953 Q137.668,40.6953 138.3662,40.3779 Q139.0645,40.0605 139.8066,39.377 Z " fill="#000000"/><text fill="#000000" font-family="sans-serif" font-size="20" lengthAdjust="spacing" textLength="234" x="159" y="43.0586">PublishAnnouncementUI</text><line style="stroke:#181818;stroke-width:0.5;" x1="8" x2="509" y1="52.5" y2="52.5"/><text fill="#000000" font-family="sans-serif" font-size="20" lengthAdjust="spacing" textLength="426" x="13" y="75.8359">-controller: PublishAnnouncementController</text><line style="stroke:#181818;stroke-width:0.5;" x1="8" x2="509" y1="84.0547" y2="84.0547"/><text fill="#000000" font-family="sans-serif" font-size="20" lengthAdjust="spacing" textLength="317" x="13" y="107.3906">+PublishAnnouncementUI(): void</text><text fill="#000000" font-family="sans-serif" font-size="20" lengthAdjust="spacing" textLength="115" x="13" y="130.9453">+run(): void</text><text fill="#000000" font-family="sans-serif" font-size="20" lengthAdjust="spacing" textLength="491" x="13" y="154.5">+getAnnouncementByUser(): List&lt;Announcement&gt;</text><text fill="#000000" font-family="sans-serif" font-size="20" lengthAdjust="spacing" textLength="403" x="13" y="178.0547">+chooseCommissionOrValue(int: id): void</text></g><!--link Repositories to Repositories--><g id="link_Repositories_Repositories"><path codeLine="67" d="M1112.94,306.8 C1134.36,309.65 1147.5,313.88 1147.5,319.5 C1147.5,324.55 1136.89,328.48 1119.2,331.29 " fill="none" id="Repositories-to-Repositories" style="stroke:#181818;stroke-width:1.0;"/><polygon fill="#181818" points="1114.44,331.98,1123.9196,334.6517,1119.3886,331.2649,1122.7754,326.7339,1114.44,331.98" style="stroke:#181818;stroke-width:1.0;"/><text fill="#000000" font-family="sans-serif" font-size="20" lengthAdjust="spacing" textLength="89" x="1153.5" y="327.3359">instances</text></g><!--link PublishAnnouncementUI to PublishAnnouncementController--><g id="link_PublishAnnouncementUI_PublishAnnouncementController"><path codeLine="68" d="M510.25,102.5 C519.3,102.5 528.79,102.5 538.31,102.5 " fill="none" id="PublishAnnouncementUI-to-PublishAnnouncementController" style="stroke:#181818;stroke-width:1.0;stroke-dasharray:7.0,7.0;"/><polygon fill="#181818" points="543.06,102.5,534.06,98.5,538.06,102.5,534.06,106.5,543.06,102.5" style="stroke:#181818;stroke-width:1.0;"/></g><!--link PublishAnnouncementController to Repositories--><g id="link_PublishAnnouncementController_Repositories"><path codeLine="69" d="M824.5,198.43 C824.5,216.66 824.5,235.39 824.5,252.46 " fill="none" id="PublishAnnouncementController-to-Repositories" style="stroke:#181818;stroke-width:1.0;stroke-dasharray:7.0,7.0;"/><polygon fill="#181818" points="824.5,257.16,828.5,248.16,824.5,252.16,820.5,248.16,824.5,257.16" style="stroke:#181818;stroke-width:1.0;"/></g><!--link Repositories to AuthenticationRepository--><g id="link_Repositories_AuthenticationRepository"><path codeLine="70" d="M938.81,380.42 C1016.12,420.95 1116.04,473.32 1183.43,508.65 " fill="none" id="Repositories-to-AuthenticationRepository" style="stroke:#181818;stroke-width:1.0;"/><polygon fill="#181818" points="1187.69,510.88,1181.5856,503.151,1183.2645,508.553,1177.8625,510.2319,1187.69,510.88" style="stroke:#181818;stroke-width:1.0;"/><text fill="#000000" font-family="sans-serif" font-size="20" lengthAdjust="spacing" textLength="33" x="1042.5" y="430.3359">has</text><text fill="#000000" font-family="sans-serif" font-size="20" lengthAdjust="spacing" textLength="13" x="936.4225" y="406.9286">1</text><text fill="#000000" font-family="sans-serif" font-size="20" lengthAdjust="spacing" textLength="13" x="1163.4475" y="499.908">1</text></g><!--link Repositories to AnnouncementRepository--><g id="link_Repositories_AnnouncementRepository"><path codeLine="71" d="M742,380.27 C707.92,404.97 667.73,434.08 630.5,461.06 " fill="none" id="Repositories-to-AnnouncementRepository" style="stroke:#181818;stroke-width:1.0;"/><polygon fill="#181818" points="626.73,463.79,636.3686,461.7658,630.7841,460.8636,631.6863,455.2791,626.73,463.79" style="stroke:#181818;stroke-width:1.0;"/><text fill="#000000" font-family="sans-serif" font-size="20" lengthAdjust="spacing" textLength="33" x="696.5" y="430.3359">has</text><text fill="#000000" font-family="sans-serif" font-size="20" lengthAdjust="spacing" textLength="13" x="719.8219" y="407.1047">1</text><text fill="#000000" font-family="sans-serif" font-size="20" lengthAdjust="spacing" textLength="13" x="621.8242" y="452.815">1</text></g><!--link PublishAnnouncementController to AnnouncementRepository--><g id="link_PublishAnnouncementController_AnnouncementRepository"><path codeLine="72" d="M638.29,198.43 C574.79,230.81 519.5,259 519.5,259 C519.5,259 515.93,373.61 513.29,458.48 " fill="none" id="PublishAnnouncementController-to-AnnouncementRepository" style="stroke:#181818;stroke-width:1.0;stroke-dasharray:7.0,7.0;"/><polygon fill="#181818" points="513.14,463.28,517.4207,454.4101,513.2971,458.2825,509.4247,454.1588,513.14,463.28" style="stroke:#181818;stroke-width:1.0;"/></g><!--link PublishAnnouncementController to AuthenticationRepository--><g id="link_PublishAnnouncementController_AuthenticationRepository"><path codeLine="73" d="M1083.97,198.43 C1172.45,230.81 1249.5,259 1249.5,259 C1249.5,259 1254.68,425.29 1257.18,505.59 " fill="none" id="PublishAnnouncementController-to-AuthenticationRepository" style="stroke:#181818;stroke-width:1.0;stroke-dasharray:7.0,7.0;"/><polygon fill="#181818" points="1257.32,510.18,1261.0613,501.0694,1257.1772,505.182,1253.0646,501.2979,1257.32,510.18" style="stroke:#181818;stroke-width:1.0;"/></g><!--link AnnouncementRepository to Announcement--><g id="link_AnnouncementRepository_Announcement"><path codeLine="74" d="M510.5,633.32 C510.5,659.52 510.5,687.76 510.5,711.38 " fill="none" id="AnnouncementRepository-to-Announcement" style="stroke:#181818;stroke-width:1.0;"/><polygon fill="#181818" points="510.5,716.08,514.5,707.08,510.5,711.08,506.5,707.08,510.5,716.08" style="stroke:#181818;stroke-width:1.0;"/><text fill="#000000" font-family="sans-serif" font-size="20" lengthAdjust="spacing" textLength="33" x="511.5" y="683.3359">has</text><text fill="#000000" font-family="sans-serif" font-size="20" lengthAdjust="spacing" textLength="13" x="497.0023" y="660.0221">1</text><text fill="#000000" font-family="sans-serif" font-size="20" lengthAdjust="spacing" textLength="10" x="499.8281" y="705.8496">*</text></g><!--link Announcement to Commission--><g id="link_Announcement_Commission"><path codeLine="75" d="M510.5,815.47 C510.5,838.75 510.5,867.3 510.5,893.56 " fill="none" id="Announcement-to-Commission" style="stroke:#181818;stroke-width:1.0;"/><polygon fill="#181818" points="510.5,898.31,514.5,889.31,510.5,893.31,506.5,889.31,510.5,898.31" style="stroke:#181818;stroke-width:1.0;"/><text fill="#000000" font-family="sans-serif" font-size="20" lengthAdjust="spacing" textLength="33" x="511.5" y="865.3359">has</text><text fill="#000000" font-family="sans-serif" font-size="20" lengthAdjust="spacing" textLength="13" x="496.6672" y="842.5822">1</text><text fill="#000000" font-family="sans-serif" font-size="20" lengthAdjust="spacing" textLength="13" x="496.8297" y="887.5438">1</text></g><!--SRC=[jLNVRvim47xdhx3wicnfecwFg8gKHfiKQTggHTsxQovWnVYGRJAnQl_xpa30j42tX_82zdtttNS_REn9we8RdYiK9qXO0aTUAlS5jJl8ty0-tKJlx0N3SjGeCeCvC6TAY7fBmSM9ft1mbG9cG3YkKnK2RCOJ_2LroevSsT2Yf0PN5S0AL9LVX14x8ng74JszIIXkxTOv8nzB1tk1kbPy4qMrXMsrnb8Bo44xzXGnUfOMtDxUbuzAsWoInVkOdL4cZStXWRXqwdURh-ZFXMk7UIwjbQWzq-hCLGanEohaZfO56451AF-O9KZi4B5b2kwdXtcw5kZtxZkiDxHeYZCY-WSKQAL3KzL1jyRmwgkqxdR3U02pCQjtGzSD1JEGunc-eUxo3H5sqVCDF6DgdwKH682xGlaK1fQxQflIUz5KB6RShpxdN2hocGZHYNjBPNVLFbb8xM8c4oybCDNrlXIyT1bjIS4TTRSl-LF3k2kD8VE31NE0UW1ysu9boDLvIx2i9TXhIsT1rDqExQtWYUWUFMLxcUeplr5BgBCjUmZSqO4tg1IOUjRuACSaDpbCY9rDetYf8-ZO_xTrR3fzgtnLHgUGheF-P5zOhuFJ7ZFHVLyapHVoOLyNK7JrZEVBJIf6MVgxQMbAlPYfnso68aEqq2VqtJINqhCoKqw3uLrjXiDCs7QERJIUz7hpIfxpGxTU3oCEvLnzl68hqkJVK_D46ZC-vpT-ipPUhukRcFn_S9oQ_mb1dUOFGysjqi5Mc5_mYsgGVm40]--></g></svg>