<?xml version="1.0" encoding="UTF-8" standalone="no"?><svg xmlns="http://www.w3.org/2000/svg" xmlns:xlink="http://www.w3.org/1999/xlink" contentStyleType="text/css" height="1203px" preserveAspectRatio="none" style="width:1853px;height:1203px;background:#FFFFFF;" version="1.1" viewBox="0 0 1853 1203" width="1853px" zoomAndPan="magnify"><defs/><g><!--class Address--><g id="elem_Address"><rect codeLine="13" fill="#F1F1F1" height="73.5547" id="Address" rx="2.5" ry="2.5" style="stroke:#181818;stroke-width:0.5;" width="254" x="753.5" y="1123"/><ellipse cx="836.5" cy="1140" fill="#ADD1B2" rx="12" ry="12" style="stroke:#181818;stroke-width:1.0;"/><path d="M839.3066,1147.0801 Q838.623,1147.4316 837.8711,1147.6074 Q837.1191,1147.7832 836.2891,1147.7832 Q833.3398,1147.7832 831.7871,1145.8398 Q830.2344,1143.8965 830.2344,1140.2246 Q830.2344,1136.543 831.7871,1134.5996 Q833.3398,1132.6563 836.2891,1132.6563 Q837.1191,1132.6563 837.8809,1132.832 Q838.6426,1133.0078 839.3066,1133.3594 L839.3066,1136.5625 Q838.5645,1135.8789 837.8662,1135.5615 Q837.168,1135.2441 836.4258,1135.2441 Q834.8438,1135.2441 834.0381,1136.499 Q833.2324,1137.7539 833.2324,1140.2246 Q833.2324,1142.6855 834.0381,1143.9404 Q834.8438,1145.1953 836.4258,1145.1953 Q837.168,1145.1953 837.8662,1144.8779 Q838.5645,1144.5605 839.3066,1143.877 Z " fill="#000000"/><text fill="#000000" font-family="sans-serif" font-size="20" lengthAdjust="spacing" textLength="79" x="858.5" y="1147.5586">Address</text><line style="stroke:#181818;stroke-width:0.5;" x1="754.5" x2="1006.5" y1="1157" y2="1157"/><line style="stroke:#181818;stroke-width:0.5;" x1="754.5" x2="1006.5" y1="1165" y2="1165"/><text fill="#000000" font-family="sans-serif" font-size="20" lengthAdjust="spacing" textLength="242" x="759.5" y="1188.3359">+getFullAddress(): String</text></g><!--class Property--><g id="elem_Property"><rect codeLine="19" fill="#F1F1F1" height="120.6641" id="Property" rx="2.5" ry="2.5" style="stroke:#181818;stroke-width:0.5;" width="402" x="361.5" y="735"/><ellipse cx="518" cy="752" fill="#ADD1B2" rx="12" ry="12" style="stroke:#181818;stroke-width:1.0;"/><path d="M520.8066,759.0801 Q520.123,759.4316 519.3711,759.6074 Q518.6191,759.7832 517.7891,759.7832 Q514.8398,759.7832 513.2871,757.8398 Q511.7344,755.8965 511.7344,752.2246 Q511.7344,748.543 513.2871,746.5996 Q514.8398,744.6563 517.7891,744.6563 Q518.6191,744.6563 519.3809,744.832 Q520.1426,745.0078 520.8066,745.3594 L520.8066,748.5625 Q520.0645,747.8789 519.3662,747.5615 Q518.668,747.2441 517.9258,747.2441 Q516.3438,747.2441 515.5381,748.499 Q514.7324,749.7539 514.7324,752.2246 Q514.7324,754.6855 515.5381,755.9404 Q516.3438,757.1953 517.9258,757.1953 Q518.668,757.1953 519.3662,756.8779 Q520.0645,756.5605 520.8066,755.877 Z " fill="#000000"/><text fill="#000000" font-family="sans-serif" font-size="20" lengthAdjust="spacing" textLength="80" x="540" y="759.5586">Property</text><line style="stroke:#181818;stroke-width:0.5;" x1="362.5" x2="762.5" y1="769" y2="769"/><line style="stroke:#181818;stroke-width:0.5;" x1="362.5" x2="762.5" y1="777" y2="777"/><text fill="#000000" font-family="sans-serif" font-size="20" lengthAdjust="spacing" textLength="185" x="367.5" y="800.3359">+getPrice(): double</text><text fill="#000000" font-family="sans-serif" font-size="20" lengthAdjust="spacing" textLength="372" x="367.5" y="823.8906">+getTypeOfProperty(): TypeOfProperty</text><text fill="#000000" font-family="sans-serif" font-size="20" lengthAdjust="spacing" textLength="390" x="367.5" y="847.4453">+getTransactionType(): TransactionType</text></g><!--class Agent--><g id="elem_Agent"><rect codeLine="27" fill="#F1F1F1" height="97.1094" id="Agent" rx="2.5" ry="2.5" style="stroke:#181818;stroke-width:0.5;" width="270" x="1001.5" y="747"/><ellipse cx="1104" cy="764" fill="#ADD1B2" rx="12" ry="12" style="stroke:#181818;stroke-width:1.0;"/><path d="M1106.8066,771.0801 Q1106.123,771.4316 1105.3711,771.6074 Q1104.6191,771.7832 1103.7891,771.7832 Q1100.8398,771.7832 1099.2871,769.8398 Q1097.7344,767.8965 1097.7344,764.2246 Q1097.7344,760.543 1099.2871,758.5996 Q1100.8398,756.6563 1103.7891,756.6563 Q1104.6191,756.6563 1105.3809,756.832 Q1106.1426,757.0078 1106.8066,757.3594 L1106.8066,760.5625 Q1106.0645,759.8789 1105.3662,759.5615 Q1104.668,759.2441 1103.9258,759.2441 Q1102.3438,759.2441 1101.5381,760.499 Q1100.7324,761.7539 1100.7324,764.2246 Q1100.7324,766.6855 1101.5381,767.9404 Q1102.3438,769.1953 1103.9258,769.1953 Q1104.668,769.1953 1105.3662,768.8779 Q1106.0645,768.5605 1106.8066,767.877 Z " fill="#000000"/><text fill="#000000" font-family="sans-serif" font-size="20" lengthAdjust="spacing" textLength="56" x="1126" y="771.5586">Agent</text><line style="stroke:#181818;stroke-width:0.5;" x1="1002.5" x2="1270.5" y1="781" y2="781"/><line style="stroke:#181818;stroke-width:0.5;" x1="1002.5" x2="1270.5" y1="789" y2="789"/><text fill="#000000" font-family="sans-serif" font-size="20" lengthAdjust="spacing" textLength="184" x="1007.5" y="812.3359">+getName(): String</text><text fill="#000000" font-family="sans-serif" font-size="20" lengthAdjust="spacing" textLength="258" x="1007.5" y="835.8906">+getEmployee(): Employee</text></g><!--class Employee--><g id="elem_Employee"><rect codeLine="34" fill="#F1F1F1" height="97.1094" id="Employee" rx="2.5" ry="2.5" style="stroke:#181818;stroke-width:0.5;" width="242" x="975.5" y="941"/><ellipse cx="1045.5" cy="958" fill="#ADD1B2" rx="12" ry="12" style="stroke:#181818;stroke-width:1.0;"/><path d="M1048.3066,965.0801 Q1047.623,965.4316 1046.8711,965.6074 Q1046.1191,965.7832 1045.2891,965.7832 Q1042.3398,965.7832 1040.7871,963.8398 Q1039.2344,961.8965 1039.2344,958.2246 Q1039.2344,954.543 1040.7871,952.5996 Q1042.3398,950.6563 1045.2891,950.6563 Q1046.1191,950.6563 1046.8809,950.832 Q1047.6426,951.0078 1048.3066,951.3594 L1048.3066,954.5625 Q1047.5645,953.8789 1046.8662,953.5615 Q1046.168,953.2441 1045.4258,953.2441 Q1043.8438,953.2441 1043.0381,954.499 Q1042.2324,955.7539 1042.2324,958.2246 Q1042.2324,960.6855 1043.0381,961.9404 Q1043.8438,963.1953 1045.4258,963.1953 Q1046.168,963.1953 1046.8662,962.8779 Q1047.5645,962.5605 1048.3066,961.877 Z " fill="#000000"/><text fill="#000000" font-family="sans-serif" font-size="20" lengthAdjust="spacing" textLength="93" x="1067.5" y="965.5586">Employee</text><line style="stroke:#181818;stroke-width:0.5;" x1="976.5" x2="1216.5" y1="975" y2="975"/><line style="stroke:#181818;stroke-width:0.5;" x1="976.5" x2="1216.5" y1="983" y2="983"/><text fill="#000000" font-family="sans-serif" font-size="20" lengthAdjust="spacing" textLength="184" x="981.5" y="1006.3359">+getName(): String</text><text fill="#000000" font-family="sans-serif" font-size="20" lengthAdjust="spacing" textLength="230" x="981.5" y="1029.8906">+getAddress(): Address</text></g><!--class House--><g id="elem_House"><rect codeLine="41" fill="#F1F1F1" height="97.1094" id="House" rx="2.5" ry="2.5" style="stroke:#181818;stroke-width:0.5;" width="313" x="7" y="529.5"/><ellipse cx="129" cy="546.5" fill="#ADD1B2" rx="12" ry="12" style="stroke:#181818;stroke-width:1.0;"/><path d="M131.8066,553.5801 Q131.123,553.9316 130.3711,554.1074 Q129.6191,554.2832 128.7891,554.2832 Q125.8398,554.2832 124.2871,552.3398 Q122.7344,550.3965 122.7344,546.7246 Q122.7344,543.043 124.2871,541.0996 Q125.8398,539.1563 128.7891,539.1563 Q129.6191,539.1563 130.3809,539.332 Q131.1426,539.5078 131.8066,539.8594 L131.8066,543.0625 Q131.0645,542.3789 130.3662,542.0615 Q129.668,541.7441 128.9258,541.7441 Q127.3438,541.7441 126.5381,542.999 Q125.7324,544.2539 125.7324,546.7246 Q125.7324,549.1855 126.5381,550.4404 Q127.3438,551.6953 128.9258,551.6953 Q129.668,551.6953 130.3662,551.3779 Q131.0645,551.0605 131.8066,550.377 Z " fill="#000000"/><text fill="#000000" font-family="sans-serif" font-size="20" lengthAdjust="spacing" textLength="60" x="151" y="554.0586">House</text><line style="stroke:#181818;stroke-width:0.5;" x1="8" x2="319" y1="563.5" y2="563.5"/><line style="stroke:#181818;stroke-width:0.5;" x1="8" x2="319" y1="571.5" y2="571.5"/><text fill="#000000" font-family="sans-serif" font-size="20" lengthAdjust="spacing" textLength="264" x="13" y="594.8359">+getNumberOfRooms(): int</text><text fill="#000000" font-family="sans-serif" font-size="20" lengthAdjust="spacing" textLength="301" x="13" y="618.3906">+getNumberOfBathrooms(): int</text></g><!--class Land--><g id="elem_Land"><rect codeLine="48" fill="#F1F1F1" height="73.5547" id="Land" rx="2.5" ry="2.5" style="stroke:#181818;stroke-width:0.5;" width="195" x="355" y="541"/><ellipse cx="424.5" cy="558" fill="#ADD1B2" rx="12" ry="12" style="stroke:#181818;stroke-width:1.0;"/><path d="M427.3066,565.0801 Q426.623,565.4316 425.8711,565.6074 Q425.1191,565.7832 424.2891,565.7832 Q421.3398,565.7832 419.7871,563.8398 Q418.2344,561.8965 418.2344,558.2246 Q418.2344,554.543 419.7871,552.5996 Q421.3398,550.6563 424.2891,550.6563 Q425.1191,550.6563 425.8809,550.832 Q426.6426,551.0078 427.3066,551.3594 L427.3066,554.5625 Q426.5645,553.8789 425.8662,553.5615 Q425.168,553.2441 424.4258,553.2441 Q422.8438,553.2441 422.0381,554.499 Q421.2324,555.7539 421.2324,558.2246 Q421.2324,560.6855 422.0381,561.9404 Q422.8438,563.1953 424.4258,563.1953 Q425.168,563.1953 425.8662,562.8779 Q426.5645,562.5605 427.3066,561.877 Z " fill="#000000"/><text fill="#000000" font-family="sans-serif" font-size="20" lengthAdjust="spacing" textLength="47" x="446.5" y="565.5586">Land</text><line style="stroke:#181818;stroke-width:0.5;" x1="356" x2="549" y1="575" y2="575"/><line style="stroke:#181818;stroke-width:0.5;" x1="356" x2="549" y1="583" y2="583"/><text fill="#000000" font-family="sans-serif" font-size="20" lengthAdjust="spacing" textLength="183" x="361" y="606.3359">+getArea(): double</text></g><!--class Apartment--><g id="elem_Apartment"><rect codeLine="54" fill="#F1F1F1" height="120.6641" id="Apartment" rx="2.5" ry="2.5" style="stroke:#181818;stroke-width:0.5;" width="313" x="585" y="517.5"/><ellipse cx="686" cy="534.5" fill="#ADD1B2" rx="12" ry="12" style="stroke:#181818;stroke-width:1.0;"/><path d="M688.8066,541.5801 Q688.123,541.9316 687.3711,542.1074 Q686.6191,542.2832 685.7891,542.2832 Q682.8398,542.2832 681.2871,540.3398 Q679.7344,538.3965 679.7344,534.7246 Q679.7344,531.043 681.2871,529.0996 Q682.8398,527.1563 685.7891,527.1563 Q686.6191,527.1563 687.3809,527.332 Q688.1426,527.5078 688.8066,527.8594 L688.8066,531.0625 Q688.0645,530.3789 687.3662,530.0615 Q686.668,529.7441 685.9258,529.7441 Q684.3438,529.7441 683.5381,530.999 Q682.7324,532.2539 682.7324,534.7246 Q682.7324,537.1855 683.5381,538.4404 Q684.3438,539.6953 685.9258,539.6953 Q686.668,539.6953 687.3662,539.3779 Q688.0645,539.0605 688.8066,538.377 Z " fill="#000000"/><text fill="#000000" font-family="sans-serif" font-size="20" lengthAdjust="spacing" textLength="102" x="708" y="542.0586">Apartment</text><line style="stroke:#181818;stroke-width:0.5;" x1="586" x2="897" y1="551.5" y2="551.5"/><line style="stroke:#181818;stroke-width:0.5;" x1="586" x2="897" y1="559.5" y2="559.5"/><text fill="#000000" font-family="sans-serif" font-size="20" lengthAdjust="spacing" textLength="264" x="591" y="582.8359">+getNumberOfRooms(): int</text><text fill="#000000" font-family="sans-serif" font-size="20" lengthAdjust="spacing" textLength="301" x="591" y="606.3906">+getNumberOfBathrooms(): int</text><text fill="#000000" font-family="sans-serif" font-size="20" lengthAdjust="spacing" textLength="146" x="591" y="629.9453">+getFloor(): int</text></g><!--class Comission--><g id="elem_Comission"><rect codeLine="62" fill="#F1F1F1" height="73.5547" id="Comission" rx="2.5" ry="2.5" style="stroke:#181818;stroke-width:0.5;" width="205" x="1307" y="758.5"/><ellipse cx="1354.5" cy="775.5" fill="#ADD1B2" rx="12" ry="12" style="stroke:#181818;stroke-width:1.0;"/><path d="M1357.3066,782.5801 Q1356.623,782.9316 1355.8711,783.1074 Q1355.1191,783.2832 1354.2891,783.2832 Q1351.3398,783.2832 1349.7871,781.3398 Q1348.2344,779.3965 1348.2344,775.7246 Q1348.2344,772.043 1349.7871,770.0996 Q1351.3398,768.1563 1354.2891,768.1563 Q1355.1191,768.1563 1355.8809,768.332 Q1356.6426,768.5078 1357.3066,768.8594 L1357.3066,772.0625 Q1356.5645,771.3789 1355.8662,771.0615 Q1355.168,770.7441 1354.4258,770.7441 Q1352.8438,770.7441 1352.0381,771.999 Q1351.2324,773.2539 1351.2324,775.7246 Q1351.2324,778.1855 1352.0381,779.4404 Q1352.8438,780.6953 1354.4258,780.6953 Q1355.168,780.6953 1355.8662,780.3779 Q1356.5645,780.0605 1357.3066,779.377 Z " fill="#000000"/><text fill="#000000" font-family="sans-serif" font-size="20" lengthAdjust="spacing" textLength="101" x="1376.5" y="783.0586">Comission</text><line style="stroke:#181818;stroke-width:0.5;" x1="1308" x2="1511" y1="792.5" y2="792.5"/><line style="stroke:#181818;stroke-width:0.5;" x1="1308" x2="1511" y1="800.5" y2="800.5"/><text fill="#000000" font-family="sans-serif" font-size="20" lengthAdjust="spacing" textLength="193" x="1313" y="823.8359">+calculate(): double</text></g><!--class TransactionType--><g id="elem_TransactionType"><rect codeLine="68" fill="#F1F1F1" height="73.5547" id="TransactionType" rx="2.5" ry="2.5" style="stroke:#181818;stroke-width:0.5;" width="196" x="247.5" y="952.5"/><ellipse cx="264.85" cy="969.5" fill="#ADD1B2" rx="12" ry="12" style="stroke:#181818;stroke-width:1.0;"/><path d="M267.6566,976.5801 Q266.973,976.9316 266.2211,977.1074 Q265.4691,977.2832 264.6391,977.2832 Q261.6898,977.2832 260.1371,975.3398 Q258.5844,973.3965 258.5844,969.7246 Q258.5844,966.043 260.1371,964.0996 Q261.6898,962.1563 264.6391,962.1563 Q265.4691,962.1563 266.2309,962.332 Q266.9926,962.5078 267.6566,962.8594 L267.6566,966.0625 Q266.9145,965.3789 266.2162,965.0615 Q265.518,964.7441 264.7758,964.7441 Q263.1938,964.7441 262.3881,965.999 Q261.5824,967.2539 261.5824,969.7246 Q261.5824,972.1855 262.3881,973.4404 Q263.1938,974.6953 264.7758,974.6953 Q265.518,974.6953 266.2162,974.3779 Q266.9145,974.0605 267.6566,973.377 Z " fill="#000000"/><text fill="#000000" font-family="sans-serif" font-size="20" lengthAdjust="spacing" textLength="159" x="280.15" y="977.0586">TransactionType</text><line style="stroke:#181818;stroke-width:0.5;" x1="248.5" x2="442.5" y1="986.5" y2="986.5"/><line style="stroke:#181818;stroke-width:0.5;" x1="248.5" x2="442.5" y1="994.5" y2="994.5"/><text fill="#000000" font-family="sans-serif" font-size="20" lengthAdjust="spacing" textLength="184" x="253.5" y="1017.8359">+getName(): String</text></g><!--class TypeOfProperty--><g id="elem_TypeOfProperty"><rect codeLine="74" fill="#F1F1F1" height="73.5547" id="TypeOfProperty" rx="2.5" ry="2.5" style="stroke:#181818;stroke-width:0.5;" width="196" x="478.5" y="952.5"/><ellipse cx="499.9" cy="969.5" fill="#ADD1B2" rx="12" ry="12" style="stroke:#181818;stroke-width:1.0;"/><path d="M502.7066,976.5801 Q502.023,976.9316 501.2711,977.1074 Q500.5191,977.2832 499.6891,977.2832 Q496.7398,977.2832 495.1871,975.3398 Q493.6344,973.3965 493.6344,969.7246 Q493.6344,966.043 495.1871,964.0996 Q496.7398,962.1563 499.6891,962.1563 Q500.5191,962.1563 501.2809,962.332 Q502.0426,962.5078 502.7066,962.8594 L502.7066,966.0625 Q501.9645,965.3789 501.2662,965.0615 Q500.568,964.7441 499.8258,964.7441 Q498.2438,964.7441 497.4381,965.999 Q496.6324,967.2539 496.6324,969.7246 Q496.6324,972.1855 497.4381,973.4404 Q498.2438,974.6953 499.8258,974.6953 Q500.568,974.6953 501.2662,974.3779 Q501.9645,974.0605 502.7066,973.377 Z " fill="#000000"/><text fill="#000000" font-family="sans-serif" font-size="20" lengthAdjust="spacing" textLength="150" x="516.1" y="977.0586">TypeOfProperty</text><line style="stroke:#181818;stroke-width:0.5;" x1="479.5" x2="673.5" y1="986.5" y2="986.5"/><line style="stroke:#181818;stroke-width:0.5;" x1="479.5" x2="673.5" y1="994.5" y2="994.5"/><text fill="#000000" font-family="sans-serif" font-size="20" lengthAdjust="spacing" textLength="184" x="484.5" y="1017.8359">+getName(): String</text></g><!--class Photo--><g id="elem_Photo"><rect codeLine="80" fill="#F1F1F1" height="73.5547" id="Photo" rx="2.5" ry="2.5" style="stroke:#181818;stroke-width:0.5;" width="168" x="798.5" y="758.5"/><ellipse cx="851" cy="775.5" fill="#ADD1B2" rx="12" ry="12" style="stroke:#181818;stroke-width:1.0;"/><path d="M853.8066,782.5801 Q853.123,782.9316 852.3711,783.1074 Q851.6191,783.2832 850.7891,783.2832 Q847.8398,783.2832 846.2871,781.3398 Q844.7344,779.3965 844.7344,775.7246 Q844.7344,772.043 846.2871,770.0996 Q847.8398,768.1563 850.7891,768.1563 Q851.6191,768.1563 852.3809,768.332 Q853.1426,768.5078 853.8066,768.8594 L853.8066,772.0625 Q853.0645,771.3789 852.3662,771.0615 Q851.668,770.7441 850.9258,770.7441 Q849.3438,770.7441 848.5381,771.999 Q847.7324,773.2539 847.7324,775.7246 Q847.7324,778.1855 848.5381,779.4404 Q849.3438,780.6953 850.9258,780.6953 Q851.668,780.6953 852.3662,780.3779 Q853.0645,780.0605 853.8066,779.377 Z " fill="#000000"/><text fill="#000000" font-family="sans-serif" font-size="20" lengthAdjust="spacing" textLength="54" x="873" y="783.0586">Photo</text><line style="stroke:#181818;stroke-width:0.5;" x1="799.5" x2="965.5" y1="792.5" y2="792.5"/><line style="stroke:#181818;stroke-width:0.5;" x1="799.5" x2="965.5" y1="800.5" y2="800.5"/><text fill="#000000" font-family="sans-serif" font-size="20" lengthAdjust="spacing" textLength="156" x="804.5" y="823.8359">+getUrl(): String</text></g><!--class Announcement--><g id="elem_Announcement"><rect codeLine="86" fill="#F1F1F1" height="144.2188" id="Announcement" rx="2.5" ry="2.5" style="stroke:#181818;stroke-width:0.5;" width="286" x="967.5" y="506"/><ellipse cx="1034" cy="523" fill="#ADD1B2" rx="12" ry="12" style="stroke:#181818;stroke-width:1.0;"/><path d="M1036.8066,530.0801 Q1036.123,530.4316 1035.3711,530.6074 Q1034.6191,530.7832 1033.7891,530.7832 Q1030.8398,530.7832 1029.2871,528.8398 Q1027.7344,526.8965 1027.7344,523.2246 Q1027.7344,519.543 1029.2871,517.5996 Q1030.8398,515.6563 1033.7891,515.6563 Q1034.6191,515.6563 1035.3809,515.832 Q1036.1426,516.0078 1036.8066,516.3594 L1036.8066,519.5625 Q1036.0645,518.8789 1035.3662,518.5615 Q1034.668,518.2441 1033.9258,518.2441 Q1032.3438,518.2441 1031.5381,519.499 Q1030.7324,520.7539 1030.7324,523.2246 Q1030.7324,525.6855 1031.5381,526.9404 Q1032.3438,528.1953 1033.9258,528.1953 Q1034.668,528.1953 1035.3662,527.8779 Q1036.0645,527.5605 1036.8066,526.877 Z " fill="#000000"/><text fill="#000000" font-family="sans-serif" font-size="20" lengthAdjust="spacing" textLength="144" x="1056" y="530.5586">Announcement</text><line style="stroke:#181818;stroke-width:0.5;" x1="968.5" x2="1252.5" y1="540" y2="540"/><line style="stroke:#181818;stroke-width:0.5;" x1="968.5" x2="1252.5" y1="548" y2="548"/><text fill="#000000" font-family="sans-serif" font-size="20" lengthAdjust="spacing" textLength="232" x="973.5" y="571.3359">+getProperty(): Property</text><text fill="#000000" font-family="sans-serif" font-size="20" lengthAdjust="spacing" textLength="184" x="973.5" y="594.8906">+getAgent(): Agent</text><text fill="#000000" font-family="sans-serif" font-size="20" lengthAdjust="spacing" textLength="256" x="973.5" y="618.4453">+getPhotos(): List&lt;Photo&gt;</text><text fill="#000000" font-family="sans-serif" font-size="20" lengthAdjust="spacing" textLength="274" x="973.5" y="642">+getComission(): Comission</text></g><!--class AnnouncementRepository--><g id="elem_AnnouncementRepository"><rect codeLine="95" fill="#F1F1F1" height="97.1094" id="AnnouncementRepository" rx="2.5" ry="2.5" style="stroke:#181818;stroke-width:0.5;" width="434" x="893.5" y="324"/><ellipse cx="983" cy="341" fill="#ADD1B2" rx="12" ry="12" style="stroke:#181818;stroke-width:1.0;"/><path d="M985.8066,348.0801 Q985.123,348.4316 984.3711,348.6074 Q983.6191,348.7832 982.7891,348.7832 Q979.8398,348.7832 978.2871,346.8398 Q976.7344,344.8965 976.7344,341.2246 Q976.7344,337.543 978.2871,335.5996 Q979.8398,333.6563 982.7891,333.6563 Q983.6191,333.6563 984.3809,333.832 Q985.1426,334.0078 985.8066,334.3594 L985.8066,337.5625 Q985.0645,336.8789 984.3662,336.5615 Q983.668,336.2441 982.9258,336.2441 Q981.3438,336.2441 980.5381,337.499 Q979.7324,338.7539 979.7324,341.2246 Q979.7324,343.6855 980.5381,344.9404 Q981.3438,346.1953 982.9258,346.1953 Q983.668,346.1953 984.3662,345.8779 Q985.0645,345.5605 985.8066,344.877 Z " fill="#000000"/><text fill="#000000" font-family="sans-serif" font-size="20" lengthAdjust="spacing" textLength="246" x="1005" y="348.5586">AnnouncementRepository</text><line style="stroke:#181818;stroke-width:0.5;" x1="894.5" x2="1326.5" y1="358" y2="358"/><line style="stroke:#181818;stroke-width:0.5;" x1="894.5" x2="1326.5" y1="366" y2="366"/><text fill="#000000" font-family="sans-serif" font-size="20" lengthAdjust="spacing" textLength="422" x="899.5" y="389.3359">+save(announcement: Announcement): void</text><text fill="#000000" font-family="sans-serif" font-size="20" lengthAdjust="spacing" textLength="316" x="899.5" y="412.8906">+findAll(): List&lt;Announcement&gt;</text></g><!--class AuthenticationRepository--><g id="elem_AuthenticationRepository"><rect codeLine="102" fill="#F1F1F1" height="73.5547" id="AuthenticationRepository" rx="2.5" ry="2.5" style="stroke:#181818;stroke-width:0.5;" width="369" x="1477" y="335.5"/><ellipse cx="1536.5" cy="352.5" fill="#ADD1B2" rx="12" ry="12" style="stroke:#181818;stroke-width:1.0;"/><path d="M1539.3066,359.5801 Q1538.623,359.9316 1537.8711,360.1074 Q1537.1191,360.2832 1536.2891,360.2832 Q1533.3398,360.2832 1531.7871,358.3398 Q1530.2344,356.3965 1530.2344,352.7246 Q1530.2344,349.043 1531.7871,347.0996 Q1533.3398,345.1563 1536.2891,345.1563 Q1537.1191,345.1563 1537.8809,345.332 Q1538.6426,345.5078 1539.3066,345.8594 L1539.3066,349.0625 Q1538.5645,348.3789 1537.8662,348.0615 Q1537.168,347.7441 1536.4258,347.7441 Q1534.8438,347.7441 1534.0381,348.999 Q1533.2324,350.2539 1533.2324,352.7246 Q1533.2324,355.1855 1534.0381,356.4404 Q1534.8438,357.6953 1536.4258,357.6953 Q1537.168,357.6953 1537.8662,357.3779 Q1538.5645,357.0605 1539.3066,356.377 Z " fill="#000000"/><text fill="#000000" font-family="sans-serif" font-size="20" lengthAdjust="spacing" textLength="241" x="1558.5" y="360.0586">AuthenticationRepository</text><line style="stroke:#181818;stroke-width:0.5;" x1="1478" x2="1845" y1="369.5" y2="369.5"/><line style="stroke:#181818;stroke-width:0.5;" x1="1478" x2="1845" y1="377.5" y2="377.5"/><text fill="#000000" font-family="sans-serif" font-size="20" lengthAdjust="spacing" textLength="357" x="1483" y="400.8359">+authenticate(agent: Agent): boolean</text></g><!--class Repositories--><g id="elem_Repositories"><rect codeLine="108" fill="#F1F1F1" height="97.1094" id="Repositories" rx="2.5" ry="2.5" style="stroke:#181818;stroke-width:0.5;" width="576" x="1026.5" y="142"/><ellipse cx="1250.5" cy="159" fill="#ADD1B2" rx="12" ry="12" style="stroke:#181818;stroke-width:1.0;"/><path d="M1253.3066,166.0801 Q1252.623,166.4316 1251.8711,166.6074 Q1251.1191,166.7832 1250.2891,166.7832 Q1247.3398,166.7832 1245.7871,164.8398 Q1244.2344,162.8965 1244.2344,159.2246 Q1244.2344,155.543 1245.7871,153.5996 Q1247.3398,151.6563 1250.2891,151.6563 Q1251.1191,151.6563 1251.8809,151.832 Q1252.6426,152.0078 1253.3066,152.3594 L1253.3066,155.5625 Q1252.5645,154.8789 1251.8662,154.5615 Q1251.168,154.2441 1250.4258,154.2441 Q1248.8438,154.2441 1248.0381,155.499 Q1247.2324,156.7539 1247.2324,159.2246 Q1247.2324,161.6855 1248.0381,162.9404 Q1248.8438,164.1953 1250.4258,164.1953 Q1251.168,164.1953 1251.8662,163.8779 Q1252.5645,163.5605 1253.3066,162.877 Z " fill="#000000"/><text fill="#000000" font-family="sans-serif" font-size="20" lengthAdjust="spacing" textLength="119" x="1272.5" y="166.5586">Repositories</text><line style="stroke:#181818;stroke-width:0.5;" x1="1027.5" x2="1601.5" y1="176" y2="176"/><line style="stroke:#181818;stroke-width:0.5;" x1="1027.5" x2="1601.5" y1="184" y2="184"/><text fill="#000000" font-family="sans-serif" font-size="20" lengthAdjust="spacing" textLength="554" x="1032.5" y="207.3359">+getAuthenticationRepository(): AuthenticationRepository</text><text fill="#000000" font-family="sans-serif" font-size="20" lengthAdjust="spacing" textLength="564" x="1032.5" y="230.8906">+getAnnouncementRepository(): AnnouncementRepository</text></g><!--class PublishAnnouncementController--><g id="elem_PublishAnnouncementController"><rect codeLine="115" fill="#F1F1F1" height="73.5547" id="PublishAnnouncementController" rx="2.5" ry="2.5" style="stroke:#181818;stroke-width:0.5;" width="644" x="992.5" y="7"/><ellipse cx="1155" cy="24" fill="#ADD1B2" rx="12" ry="12" style="stroke:#181818;stroke-width:1.0;"/><path d="M1157.8066,31.0801 Q1157.123,31.4316 1156.3711,31.6074 Q1155.6191,31.7832 1154.7891,31.7832 Q1151.8398,31.7832 1150.2871,29.8398 Q1148.7344,27.8965 1148.7344,24.2246 Q1148.7344,20.543 1150.2871,18.5996 Q1151.8398,16.6563 1154.7891,16.6563 Q1155.6191,16.6563 1156.3809,16.832 Q1157.1426,17.0078 1157.8066,17.3594 L1157.8066,20.5625 Q1157.0645,19.8789 1156.3662,19.5615 Q1155.668,19.2441 1154.9258,19.2441 Q1153.3438,19.2441 1152.5381,20.499 Q1151.7324,21.7539 1151.7324,24.2246 Q1151.7324,26.6855 1152.5381,27.9404 Q1153.3438,29.1953 1154.9258,29.1953 Q1155.668,29.1953 1156.3662,28.8779 Q1157.0645,28.5605 1157.8066,27.877 Z " fill="#000000"/><text fill="#000000" font-family="sans-serif" font-size="20" lengthAdjust="spacing" textLength="310" x="1177" y="31.5586">PublishAnnouncementController</text><line style="stroke:#181818;stroke-width:0.5;" x1="993.5" x2="1635.5" y1="41" y2="41"/><line style="stroke:#181818;stroke-width:0.5;" x1="993.5" x2="1635.5" y1="49" y2="49"/><text fill="#000000" font-family="sans-serif" font-size="20" lengthAdjust="spacing" textLength="632" x="998.5" y="72.3359">+publishAnnouncement(announcement: Announcement): boolean</text></g><!--class PublishAnnouncementUI--><g id="elem_PublishAnnouncementUI"><rect codeLine="121" fill="#F1F1F1" height="73.5547" id="PublishAnnouncementUI" rx="2.5" ry="2.5" style="stroke:#181818;stroke-width:0.5;" width="268" x="689.5" y="7"/><ellipse cx="705.5" cy="24" fill="#ADD1B2" rx="12" ry="12" style="stroke:#181818;stroke-width:1.0;"/><path d="M708.3066,31.0801 Q707.623,31.4316 706.8711,31.6074 Q706.1191,31.7832 705.2891,31.7832 Q702.3398,31.7832 700.7871,29.8398 Q699.2344,27.8965 699.2344,24.2246 Q699.2344,20.543 700.7871,18.5996 Q702.3398,16.6563 705.2891,16.6563 Q706.1191,16.6563 706.8809,16.832 Q707.6426,17.0078 708.3066,17.3594 L708.3066,20.5625 Q707.5645,19.8789 706.8662,19.5615 Q706.168,19.2441 705.4258,19.2441 Q703.8438,19.2441 703.0381,20.499 Q702.2324,21.7539 702.2324,24.2246 Q702.2324,26.6855 703.0381,27.9404 Q703.8438,29.1953 705.4258,29.1953 Q706.168,29.1953 706.8662,28.8779 Q707.5645,28.5605 708.3066,27.877 Z " fill="#000000"/><text fill="#000000" font-family="sans-serif" font-size="20" lengthAdjust="spacing" textLength="234" x="720.5" y="31.5586">PublishAnnouncementUI</text><line style="stroke:#181818;stroke-width:0.5;" x1="690.5" x2="956.5" y1="41" y2="41"/><line style="stroke:#181818;stroke-width:0.5;" x1="690.5" x2="956.5" y1="49" y2="49"/><text fill="#000000" font-family="sans-serif" font-size="20" lengthAdjust="spacing" textLength="155" x="695.5" y="72.3359">+interact(): void</text></g><!--link Repositories to Repositories--><g id="link_Repositories_Repositories"><path codeLine="127" d="M1602.94,179.48 C1624.36,181.95 1637.5,185.62 1637.5,190.5 C1637.5,194.92 1626.7,198.35 1608.74,200.8 " fill="none" id="Repositories-to-Repositories" style="stroke:#181818;stroke-width:1.0;"/><polygon fill="#181818" points="1603.94,201.52,1613.3707,204.3595,1608.9005,200.8928,1612.3672,196.4227,1603.94,201.52" style="stroke:#181818;stroke-width:1.0;"/><text fill="#000000" font-family="sans-serif" font-size="20" lengthAdjust="spacing" textLength="89" x="1643.5" y="198.3359">instances</text></g><!--link PublishAnnouncementUI to PublishAnnouncementController--><g id="link_PublishAnnouncementUI_PublishAnnouncementController"><path codeLine="131" d="M957.91,44 C970.39,44 980.05,44 986.37,44 " fill="none" id="PublishAnnouncementUI-to-PublishAnnouncementController" style="stroke:#181818;stroke-width:1.0;stroke-dasharray:7.0,7.0;"/><polygon fill="#181818" points="991.24,44,982.24,40,986.24,44,982.24,48,991.24,44" style="stroke:#181818;stroke-width:1.0;"/></g><!--link PublishAnnouncementController to Repositories--><g id="link_PublishAnnouncementController_Repositories"><path codeLine="135" d="M1314.5,81.46 C1314.5,97.98 1314.5,117.84 1314.5,136 " fill="none" id="PublishAnnouncementController-to-Repositories" style="stroke:#181818;stroke-width:1.0;stroke-dasharray:7.0,7.0;"/><polygon fill="#181818" points="1314.5,140.57,1318.5,131.57,1314.5,135.57,1310.5,131.57,1314.5,140.57" style="stroke:#181818;stroke-width:1.0;"/></g><!--link Repositories to AuthenticationRepository--><g id="link_Repositories_AuthenticationRepository"><path codeLine="139" d="M1406.58,239.26 C1462.69,268.37 1533.51,305.11 1586.25,332.46 " fill="none" id="Repositories-to-AuthenticationRepository" style="stroke:#181818;stroke-width:1.0;"/><polygon fill="#181818" points="1590.29,335.08,1584.1465,327.3821,1585.8527,332.7755,1580.4593,334.4817,1590.29,335.08" style="stroke:#181818;stroke-width:1.0;"/><text fill="#000000" font-family="sans-serif" font-size="20" lengthAdjust="spacing" textLength="33" x="1509.5" y="289.3359">has</text><text fill="#000000" font-family="sans-serif" font-size="20" lengthAdjust="spacing" textLength="13" x="1404.5449" y="266.3453">1</text><text fill="#000000" font-family="sans-serif" font-size="20" lengthAdjust="spacing" textLength="13" x="1565.5849" y="323.3964">1</text></g><!--link Repositories to AnnouncementRepository--><g id="link_Repositories_AnnouncementRepository"><path codeLine="140" d="M1260.37,239.26 C1232.24,264.08 1197.83,294.44 1169.08,319.81 " fill="none" id="Repositories-to-AnnouncementRepository" style="stroke:#181818;stroke-width:1.0;"/><polygon fill="#181818" points="1165.89,322.51,1175.2917,319.5761,1169.6467,319.2104,1170.0124,313.5654,1165.89,322.51" style="stroke:#181818;stroke-width:1.0;"/><text fill="#000000" font-family="sans-serif" font-size="20" lengthAdjust="spacing" textLength="33" x="1226.5" y="289.3359">has</text><text fill="#000000" font-family="sans-serif" font-size="20" lengthAdjust="spacing" textLength="13" x="1239.6018" y="266.3453">1</text><text fill="#000000" font-family="sans-serif" font-size="20" lengthAdjust="spacing" textLength="13" x="1158.3252" y="311.7475">1</text></g><!--link PublishAnnouncementController to AnnouncementRepository--><g id="link_PublishAnnouncementController_AnnouncementRepository"><path codeLine="144" d="M1199.69,81.4 C1112.86,108.92 1008.5,142 1008.5,142 C1008.5,142 1008.5,239 1008.5,239 C1008.5,239 1041.7,282.13 1070.22,319.18 " fill="none" id="PublishAnnouncementController-to-AnnouncementRepository" style="stroke:#181818;stroke-width:1.0;stroke-dasharray:7.0,7.0;"/><polygon fill="#181818" points="1073.68,322.66,1071.3431,313.0924,1070.6232,318.7033,1065.0123,317.9833,1073.68,322.66" style="stroke:#181818;stroke-width:1.0;"/></g><!--link PublishAnnouncementController to AuthenticationRepository--><g id="link_PublishAnnouncementController_AuthenticationRepository"><path codeLine="145" d="M1474.27,81.46 C1594.8,108.97 1739.5,142 1739.5,142 C1739.5,142 1739.5,239 1739.5,239 C1739.5,239 1708.73,291.26 1685.85,330.14 " fill="none" id="PublishAnnouncementController-to-AuthenticationRepository" style="stroke:#181818;stroke-width:1.0;stroke-dasharray:7.0,7.0;"/><polygon fill="#181818" points="1682.81,334.29,1690.8118,328.5479,1685.3382,329.9763,1683.9099,324.5027,1682.81,334.29" style="stroke:#181818;stroke-width:1.0;"/></g><!--link AnnouncementRepository to Announcement--><g id="link_AnnouncementRepository_Announcement"><path codeLine="149" d="M1110.5,421.47 C1110.5,444.85 1110.5,473.54 1110.5,499.89 " fill="none" id="AnnouncementRepository-to-Announcement" style="stroke:#181818;stroke-width:1.0;"/><polygon fill="#181818" points="1110.5,504.82,1114.5,495.82,1110.5,499.82,1106.5,495.82,1110.5,504.82" style="stroke:#181818;stroke-width:1.0;"/><text fill="#000000" font-family="sans-serif" font-size="20" lengthAdjust="spacing" textLength="33" x="1111.5" y="471.3359">has</text><text fill="#000000" font-family="sans-serif" font-size="20" lengthAdjust="spacing" textLength="13" x="1096.6672" y="448.5822">1</text><text fill="#000000" font-family="sans-serif" font-size="20" lengthAdjust="spacing" textLength="10" x="1099.9844" y="493.5438">*</text></g><!--link Announcement to Property--><g id="link_Announcement_Property"><path codeLine="153" d="M967.24,635.34 C891.52,665.12 798.4,701.73 720.58,732.34 " fill="none" id="Announcement-to-Property" style="stroke:#181818;stroke-width:1.0;"/><polygon fill="#181818" points="716,734.53,725.8393,734.964,720.6541,732.7026,722.9155,727.5174,716,734.53" style="stroke:#181818;stroke-width:1.0;"/><text fill="#000000" font-family="sans-serif" font-size="20" lengthAdjust="spacing" textLength="33" x="854.5" y="700.3359">has</text><text fill="#000000" font-family="sans-serif" font-size="20" lengthAdjust="spacing" textLength="13" x="946.518" y="634.0482">1</text><text fill="#000000" font-family="sans-serif" font-size="20" lengthAdjust="spacing" textLength="13" x="717.9688" y="722.9882">1</text></g><!--link Announcement to Comission--><g id="link_Announcement_Comission"><path codeLine="154" d="M1209.65,650.46 C1257.84,685.19 1313.93,725.62 1354.4,754.79 " fill="none" id="Announcement-to-Comission" style="stroke:#181818;stroke-width:1.0;"/><polygon fill="#181818" points="1358.26,758.29,1353.2839,749.7907,1354.1991,755.373,1348.6167,756.2881,1358.26,758.29" style="stroke:#181818;stroke-width:1.0;"/><text fill="#000000" font-family="sans-serif" font-size="20" lengthAdjust="spacing" textLength="33" x="1279.5" y="700.3359">has</text><text fill="#000000" font-family="sans-serif" font-size="20" lengthAdjust="spacing" textLength="13" x="1205.1912" y="677.5515">1</text><text fill="#000000" font-family="sans-serif" font-size="20" lengthAdjust="spacing" textLength="13" x="1336.5078" y="746.3398">1</text></g><!--link Announcement to Agent--><g id="link_Announcement_Agent"><path codeLine="155" d="M1119.12,650.46 C1122.68,679.97 1126.74,713.59 1130.04,740.93 " fill="none" id="Announcement-to-Agent" style="stroke:#181818;stroke-width:1.0;"/><polygon fill="#181818" points="1130.73,745.66,1133.6228,736.2456,1130.1309,740.696,1125.6804,737.2041,1130.73,745.66" style="stroke:#181818;stroke-width:1.0;"/><text fill="#000000" font-family="sans-serif" font-size="20" lengthAdjust="spacing" textLength="33" x="1126.5" y="700.3359">has</text><text fill="#000000" font-family="sans-serif" font-size="20" lengthAdjust="spacing" textLength="13" x="1106.3154" y="677.5515">1</text><text fill="#000000" font-family="sans-serif" font-size="20" lengthAdjust="spacing" textLength="13" x="1116.0812" y="734.9177">1</text></g><!--link Announcement to Photo--><g id="link_Announcement_Photo"><path codeLine="156" d="M1034.9,650.46 C998.3,685.05 955.73,725.29 924.89,754.43 " fill="none" id="Announcement-to-Photo" style="stroke:#181818;stroke-width:1.0;"/><polygon fill="#181818" points="921.81,757.29,931.092,753.997,925.4371,753.8485,925.5856,748.1936,921.81,757.29" style="stroke:#181818;stroke-width:1.0;"/><text fill="#000000" font-family="sans-serif" font-size="20" lengthAdjust="spacing" textLength="33" x="1004.5" y="700.3359">has</text><text fill="#000000" font-family="sans-serif" font-size="20" lengthAdjust="spacing" textLength="13" x="1014.3314" y="677.5515">1</text><text fill="#000000" font-family="sans-serif" font-size="20" lengthAdjust="spacing" textLength="10" x="916.5352" y="746.3398">*</text></g><!--link Property to Address--><g id="link_Property_Address"><path codeLine="160" d="M615.71,856.11 C651.25,895.91 691.5,941 691.5,941 C691.5,941 790.26,1054.92 845,1118.06 " fill="none" id="Property-to-Address" style="stroke:#181818;stroke-width:1.0;"/><polygon fill="#181818" points="848.87,1121.51,845.9943,1112.0903,845.5937,1117.733,839.9511,1117.3324,848.87,1121.51" style="stroke:#181818;stroke-width:1.0;"/><text fill="#000000" font-family="sans-serif" font-size="20" lengthAdjust="spacing" textLength="33" x="774.5" y="997.3359">has</text><text fill="#000000" font-family="sans-serif" font-size="20" lengthAdjust="spacing" textLength="13" x="607.527" y="882.9282">1</text><text fill="#000000" font-family="sans-serif" font-size="20" lengthAdjust="spacing" textLength="13" x="829.5547" y="1110.8148">1</text></g><!--link Property to TransactionType--><g id="link_Property_TransactionType"><path codeLine="161" d="M494.73,856.46 C460.95,886.35 421.01,921.69 390.95,948.28 " fill="none" id="Property-to-TransactionType" style="stroke:#181818;stroke-width:1.0;"/><polygon fill="#181818" points="387.59,951.14,396.9798,948.1682,391.3333,947.8253,391.6762,942.1788,387.59,951.14" style="stroke:#181818;stroke-width:1.0;"/><text fill="#000000" font-family="sans-serif" font-size="20" lengthAdjust="spacing" textLength="33" x="462.5" y="906.3359">has</text><text fill="#000000" font-family="sans-serif" font-size="20" lengthAdjust="spacing" textLength="13" x="474.419" y="882.9726">1</text><text fill="#000000" font-family="sans-serif" font-size="20" lengthAdjust="spacing" textLength="13" x="379.5352" y="940.1641">1</text></g><!--link Property to TypeOfProperty--><g id="link_Property_TypeOfProperty"><path codeLine="162" d="M566.87,856.46 C569,885.61 571.5,919.95 573.42,946.31 " fill="none" id="Property-to-TypeOfProperty" style="stroke:#181818;stroke-width:1.0;"/><polygon fill="#181818" points="573.85,951.14,577.1967,941.8772,573.4927,946.1528,569.2172,942.4488,573.85,951.14" style="stroke:#181818;stroke-width:1.0;"/><text fill="#000000" font-family="sans-serif" font-size="20" lengthAdjust="spacing" textLength="33" x="572.5" y="906.3359">has</text><text fill="#000000" font-family="sans-serif" font-size="20" lengthAdjust="spacing" textLength="13" x="553.6603" y="882.9726">1</text><text fill="#000000" font-family="sans-serif" font-size="20" lengthAdjust="spacing" textLength="13" x="559.2773" y="940.1641">1</text></g><!--link Employee to Address--><g id="link_Employee_Address"><path codeLine="166" d="M1035.18,1038.33 C1002.49,1063.84 962.73,1094.85 931.71,1119.05 " fill="none" id="Employee-to-Address" style="stroke:#181818;stroke-width:1.0;"/><polygon fill="#181818" points="928.2,1122.57,937.7528,1120.1732,932.1375,1119.4885,932.8223,1113.8732,928.2,1122.57" style="stroke:#181818;stroke-width:1.0;"/><text fill="#000000" font-family="sans-serif" font-size="20" lengthAdjust="spacing" textLength="33" x="996.5" y="1088.3359">has</text><text fill="#000000" font-family="sans-serif" font-size="20" lengthAdjust="spacing" textLength="13" x="1013.4906" y="1065.4242">1</text><text fill="#000000" font-family="sans-serif" font-size="20" lengthAdjust="spacing" textLength="13" x="920.8581" y="1110.8847">1</text></g><!--link Agent to Employee--><g id="link_Agent_Employee"><path codeLine="170" d="M1126.51,844.45 C1120.76,872.05 1113.53,906.78 1107.6,935.22 " fill="none" id="Agent-to-Employee" style="stroke:#181818;stroke-width:1.0;"/><polygon fill="#181818" points="1106.43,939.82,1112.1936,931.8337,1107.4572,934.9266,1104.3642,930.1902,1106.43,939.82" style="stroke:#181818;stroke-width:1.0;"/><text fill="#000000" font-family="sans-serif" font-size="20" lengthAdjust="spacing" textLength="33" x="1119.5" y="906.3359">has</text><text fill="#000000" font-family="sans-serif" font-size="20" lengthAdjust="spacing" textLength="13" x="1111.3972" y="871.5596">1</text><text fill="#000000" font-family="sans-serif" font-size="20" lengthAdjust="spacing" textLength="13" x="1093.9123" y="928.7244">1</text></g><!--link House to Property--><g id="link_House_Property"><path codeLine="174" d="M252.05,626.83 C305.3,655.59 374.02,692.7 433.26,724.7 " fill="none" id="House-to-Property" style="stroke:#181818;stroke-width:1.0;"/><polygon fill="none" points="436.45,719.01,450.72,734.67,429.8,731.32,436.45,719.01" style="stroke:#181818;stroke-width:1.0;"/><text fill="#000000" font-family="sans-serif" font-size="20" lengthAdjust="spacing" textLength="33" x="388.5" y="700.3359">has</text><text fill="#000000" font-family="sans-serif" font-size="20" lengthAdjust="spacing" textLength="13" x="249.5627" y="653.9242">1</text></g><!--link Land to Property--><g id="link_Land_Property"><path codeLine="178" d="M470.91,615.07 C484.95,642.57 504.8,681.47 522.44,716.02 " fill="none" id="Land-to-Property" style="stroke:#181818;stroke-width:1.0;"/><polygon fill="none" points="529.1,712.67,531.96,733.67,516.63,719.04,529.1,712.67" style="stroke:#181818;stroke-width:1.0;"/><text fill="#000000" font-family="sans-serif" font-size="20" lengthAdjust="spacing" textLength="33" x="515.5" y="700.3359">has</text><text fill="#000000" font-family="sans-serif" font-size="20" lengthAdjust="spacing" textLength="13" x="459.7337" y="641.9198">1</text></g><!--link Apartment to Property--><g id="link_Apartment_Property"><path codeLine="182" d="M691.88,638.74 C671.31,663.5 647.22,692.51 625.43,718.73 " fill="none" id="Apartment-to-Property" style="stroke:#181818;stroke-width:1.0;"/><polygon fill="none" points="630.38,722.73,612.22,733.64,619.61,713.78,630.38,722.73" style="stroke:#181818;stroke-width:1.0;"/><text fill="#000000" font-family="sans-serif" font-size="20" lengthAdjust="spacing" textLength="33" x="658.5" y="700.3359">has</text><text fill="#000000" font-family="sans-serif" font-size="20" lengthAdjust="spacing" textLength="13" x="673.0926" y="665.5716">1</text></g><!--SRC=[bLNBRjim4BpxAuHSwZQ8aVOO50RKe44318qHDnz0Ksk9CCKLI2g5-_ZtafH4aRQefBvOsftTcNs8L0Sc6Y99pP4UeCWAs9EMwpiKUij-GVRfUl5E3PYiHe6qabX3fcKBYz7J47eW9MpraKCcWMeYIXu2L4KA_Cb4cUq9Lw67Cm7ws43M83_Qbv3HEr5gN9ZVwAASA9LhBTckrN1FKJZ5rnRbV5bU51BC_-z5Tbc2lcivxqtBzpVPraIASl5tn6yaDY3rSGZOI4R1GWjiTwOQP_nXr3pk1wZrnfOU9ObGX6g6mheTB3Q5n7a9GW-itqaDWJvd-ret78_WxCDpc62mpUK8IkyVmmpVi5LZU5llG3xkdn1h5y24ZZrVY3Px47Y3L0z454EcN089EXZMRAQewx3k_oVjnieHvOICMwoPKgRRZe0IJbjED4ohEHbEeezXG3Jqr_6R2ZKEi6V9fr6v4DWA2c5VmbMBbyojZPkdVUZHbiSrw84f_TczhZkNRuZr-fSK_HCqg9X6sHMdo0iiIU2_YT0cumkomW3tJ1Gvvrv1Y5f7PAskZ8rHOhi-qbasCleCQzdHbHtF3f43YNJxO0R-Qq-bT_rA-Fh8oIwuk4bFD6QpM4nL8V3MdAKIEGVff3NdYFc-JjGxmV9yxxARRm2asUFbC10N5VNdQXttotuuofpN59J5JkTUhUTBIqG6jQzMCU-PhekF5zcL4MV_KmCoOYkYPkAc5xYBUfF4n8ZV49ZQAVDBoFBAFyJAHxsHDIpK7pmTD8aR3y5NWDqLD0So8hj3REpc829Ar5-w7MeISdhOpa7ZOzPJ-milJMtRLvwMwUCyfhluEioVTNPEvQwp6VzuaQL1_m00]--></g></svg>