<?xml version="1.0" encoding="UTF-8" standalone="no"?><svg xmlns="http://www.w3.org/2000/svg" xmlns:xlink="http://www.w3.org/1999/xlink" contentStyleType="text/css" height="1586px" preserveAspectRatio="none" style="width:2500px;height:1586px;background:#FFFFFF;" version="1.1" viewBox="0 0 2500 1586" width="2500px" zoomAndPan="magnify"><defs/><g><rect fill="#FFFFFF" height="1381.5234" style="stroke:#181818;stroke-width:1.0;" width="10" x="31" y="98.5547"/><rect fill="#FFFFFF" height="863.7578" style="stroke:#181818;stroke-width:1.0;" width="10" x="496" y="128.1094"/><rect fill="#FFFFFF" height="413.1016" style="stroke:#181818;stroke-width:1.0;" width="10" x="496" y="1029.4219"/><rect fill="#FFFFFF" height="337.9922" style="stroke:#181818;stroke-width:1.0;" width="10" x="1054" y="165.6641"/><rect fill="#FFFFFF" height="413.1016" style="stroke:#181818;stroke-width:1.0;" width="10" x="1054" y="541.2109"/><rect fill="#FFFFFF" height="337.9922" style="stroke:#181818;stroke-width:1.0;" width="10" x="1054" y="1066.9766"/><rect fill="#FFFFFF" height="37.5547" style="stroke:#181818;stroke-width:1.0;" width="10" x="1362" y="203.2188"/><rect fill="#FFFFFF" height="37.5547" style="stroke:#181818;stroke-width:1.0;" width="10" x="1362" y="578.7656"/><rect fill="#FFFFFF" height="37.5547" style="stroke:#181818;stroke-width:1.0;" width="10" x="1362" y="1104.5313"/><rect fill="#FFFFFF" height="37.5547" style="stroke:#181818;stroke-width:1.0;" width="10" x="1822" y="428.5469"/><rect fill="#FFFFFF" height="37.5547" style="stroke:#181818;stroke-width:1.0;" width="10" x="1822" y="804.0938"/><rect fill="#FFFFFF" height="37.5547" style="stroke:#181818;stroke-width:1.0;" width="10" x="1822" y="879.2031"/><rect fill="#FFFFFF" height="37.5547" style="stroke:#181818;stroke-width:1.0;" width="10" x="1822" y="1329.8594"/><rect fill="#FFFFFF" height="37.5547" style="stroke:#181818;stroke-width:1.0;" width="10" x="2094" y="278.3281"/><rect fill="#FFFFFF" height="37.5547" style="stroke:#181818;stroke-width:1.0;" width="10" x="2094" y="653.875"/><rect fill="#FFFFFF" height="37.5547" style="stroke:#181818;stroke-width:1.0;" width="10" x="2094" y="1179.6406"/><rect fill="#FFFFFF" height="37.5547" style="stroke:#181818;stroke-width:1.0;" width="10" x="2362" y="353.4375"/><rect fill="#FFFFFF" height="37.5547" style="stroke:#181818;stroke-width:1.0;" width="10" x="2362" y="728.9844"/><rect fill="#FFFFFF" height="37.5547" style="stroke:#181818;stroke-width:1.0;" width="10" x="2362" y="1254.75"/><line style="stroke:#181818;stroke-width:0.5;stroke-dasharray:5.0,5.0;" x1="36" x2="36" y1="88.5547" y2="1498.0781"/><line style="stroke:#181818;stroke-width:0.5;stroke-dasharray:5.0,5.0;" x1="500.5" x2="500.5" y1="88.5547" y2="1498.0781"/><line style="stroke:#181818;stroke-width:0.5;stroke-dasharray:5.0,5.0;" x1="1059" x2="1059" y1="88.5547" y2="1498.0781"/><line style="stroke:#181818;stroke-width:0.5;stroke-dasharray:5.0,5.0;" x1="1367" x2="1367" y1="88.5547" y2="1498.0781"/><line style="stroke:#181818;stroke-width:0.5;stroke-dasharray:5.0,5.0;" x1="1826.5" x2="1826.5" y1="88.5547" y2="1498.0781"/><line style="stroke:#181818;stroke-width:0.5;stroke-dasharray:5.0,5.0;" x1="2098.5" x2="2098.5" y1="88.5547" y2="1498.0781"/><line style="stroke:#181818;stroke-width:0.5;stroke-dasharray:5.0,5.0;" x1="2366.5" x2="2366.5" y1="88.5547" y2="1498.0781"/><text fill="#000000" font-family="sans-serif" font-size="20" lengthAdjust="spacing" textLength="56" x="5" y="84.3359">Agent</text><ellipse cx="36" cy="13.5" fill="#E3E3E3" rx="8" ry="8" style="stroke:#181818;stroke-width:0.5;"/><path d="M36,21.5 L36,48.5 M23,29.5 L49,29.5 M36,48.5 L23,63.5 M36,48.5 L49,63.5 " fill="none" style="stroke:#181818;stroke-width:0.5;"/><text fill="#000000" font-family="sans-serif" font-size="20" lengthAdjust="spacing" textLength="56" x="5" y="1516.4141">Agent</text><ellipse cx="36" cy="1529.1328" fill="#E3E3E3" rx="8" ry="8" style="stroke:#181818;stroke-width:0.5;"/><path d="M36,1537.1328 L36,1564.1328 M23,1545.1328 L49,1545.1328 M36,1564.1328 L23,1579.1328 M36,1564.1328 L49,1579.1328 " fill="none" style="stroke:#181818;stroke-width:0.5;"/><rect fill="#E3E3E3" height="37.5547" rx="2.5" ry="2.5" style="stroke:#181818;stroke-width:0.5;" width="293" x="354.5" y="50"/><text fill="#000000" font-family="sans-serif" font-size="20" lengthAdjust="spacing" textLength="279" x="361.5" y="76.3359">:PublishSaleAnnouncementUI</text><rect fill="#E3E3E3" height="37.5547" rx="2.5" ry="2.5" style="stroke:#181818;stroke-width:0.5;" width="293" x="354.5" y="1497.0781"/><text fill="#000000" font-family="sans-serif" font-size="20" lengthAdjust="spacing" textLength="279" x="361.5" y="1523.4141">:PublishSaleAnnouncementUI</text><rect fill="#E3E3E3" height="37.5547" rx="2.5" ry="2.5" style="stroke:#181818;stroke-width:0.5;" width="330" x="894" y="50"/><text fill="#000000" font-family="sans-serif" font-size="20" lengthAdjust="spacing" textLength="316" x="901" y="76.3359">:PublishAnnouncementController</text><rect fill="#E3E3E3" height="37.5547" rx="2.5" ry="2.5" style="stroke:#181818;stroke-width:0.5;" width="330" x="894" y="1497.0781"/><text fill="#000000" font-family="sans-serif" font-size="20" lengthAdjust="spacing" textLength="316" x="901" y="1523.4141">:PublishAnnouncementController</text><rect fill="#E3E3E3" height="37.5547" rx="2.5" ry="2.5" style="stroke:#181818;stroke-width:0.5;" width="266" x="1234" y="50"/><text fill="#000000" font-family="sans-serif" font-size="20" lengthAdjust="spacing" textLength="252" x="1241" y="76.3359">:AnnouncementRepository</text><rect fill="#E3E3E3" height="37.5547" rx="2.5" ry="2.5" style="stroke:#181818;stroke-width:0.5;" width="266" x="1234" y="1497.0781"/><text fill="#000000" font-family="sans-serif" font-size="20" lengthAdjust="spacing" textLength="252" x="1241" y="1523.4141">:AnnouncementRepository</text><rect fill="#E3E3E3" height="61.1094" rx="2.5" ry="2.5" style="stroke:#181818;stroke-width:0.5;" width="263" x="1695.5" y="26.4453"/><text fill="#000000" font-family="sans-serif" font-size="20" lengthAdjust="spacing" textLength="249" x="1702.5" y="52.7813">announcementRepository:</text><text fill="#000000" font-family="sans-serif" font-size="20" lengthAdjust="spacing" textLength="246" x="1704" y="76.3359">AnnouncementRepository</text><rect fill="#E3E3E3" height="61.1094" rx="2.5" ry="2.5" style="stroke:#181818;stroke-width:0.5;" width="263" x="1695.5" y="1497.0781"/><text fill="#000000" font-family="sans-serif" font-size="20" lengthAdjust="spacing" textLength="249" x="1702.5" y="1523.4141">announcementRepository:</text><text fill="#000000" font-family="sans-serif" font-size="20" lengthAdjust="spacing" textLength="246" x="1704" y="1546.9688">AnnouncementRepository</text><rect fill="#E3E3E3" height="37.5547" rx="2.5" ry="2.5" style="stroke:#181818;stroke-width:0.5;" width="261" x="1968.5" y="50"/><text fill="#000000" font-family="sans-serif" font-size="20" lengthAdjust="spacing" textLength="247" x="1975.5" y="76.3359">:AuthenticationRepository</text><rect fill="#E3E3E3" height="37.5547" rx="2.5" ry="2.5" style="stroke:#181818;stroke-width:0.5;" width="261" x="1968.5" y="1497.0781"/><text fill="#000000" font-family="sans-serif" font-size="20" lengthAdjust="spacing" textLength="247" x="1975.5" y="1523.4141">:AuthenticationRepository</text><rect fill="#E3E3E3" height="61.1094" rx="2.5" ry="2.5" style="stroke:#181818;stroke-width:0.5;" width="255" x="2239.5" y="26.4453"/><text fill="#000000" font-family="sans-serif" font-size="20" lengthAdjust="spacing" textLength="150" x="2292" y="52.7813">authRepository:</text><text fill="#000000" font-family="sans-serif" font-size="20" lengthAdjust="spacing" textLength="241" x="2246.5" y="76.3359">AuthenticationRepository</text><rect fill="#E3E3E3" height="61.1094" rx="2.5" ry="2.5" style="stroke:#181818;stroke-width:0.5;" width="255" x="2239.5" y="1497.0781"/><text fill="#000000" font-family="sans-serif" font-size="20" lengthAdjust="spacing" textLength="150" x="2292" y="1523.4141">authRepository:</text><text fill="#000000" font-family="sans-serif" font-size="20" lengthAdjust="spacing" textLength="241" x="2246.5" y="1546.9688">AuthenticationRepository</text><rect fill="#FFFFFF" height="1381.5234" style="stroke:#181818;stroke-width:1.0;" width="10" x="31" y="98.5547"/><rect fill="#FFFFFF" height="863.7578" style="stroke:#181818;stroke-width:1.0;" width="10" x="496" y="128.1094"/><rect fill="#FFFFFF" height="413.1016" style="stroke:#181818;stroke-width:1.0;" width="10" x="496" y="1029.4219"/><rect fill="#FFFFFF" height="337.9922" style="stroke:#181818;stroke-width:1.0;" width="10" x="1054" y="165.6641"/><rect fill="#FFFFFF" height="413.1016" style="stroke:#181818;stroke-width:1.0;" width="10" x="1054" y="541.2109"/><rect fill="#FFFFFF" height="337.9922" style="stroke:#181818;stroke-width:1.0;" width="10" x="1054" y="1066.9766"/><rect fill="#FFFFFF" height="37.5547" style="stroke:#181818;stroke-width:1.0;" width="10" x="1362" y="203.2188"/><rect fill="#FFFFFF" height="37.5547" style="stroke:#181818;stroke-width:1.0;" width="10" x="1362" y="578.7656"/><rect fill="#FFFFFF" height="37.5547" style="stroke:#181818;stroke-width:1.0;" width="10" x="1362" y="1104.5313"/><rect fill="#FFFFFF" height="37.5547" style="stroke:#181818;stroke-width:1.0;" width="10" x="1822" y="428.5469"/><rect fill="#FFFFFF" height="37.5547" style="stroke:#181818;stroke-width:1.0;" width="10" x="1822" y="804.0938"/><rect fill="#FFFFFF" height="37.5547" style="stroke:#181818;stroke-width:1.0;" width="10" x="1822" y="879.2031"/><rect fill="#FFFFFF" height="37.5547" style="stroke:#181818;stroke-width:1.0;" width="10" x="1822" y="1329.8594"/><rect fill="#FFFFFF" height="37.5547" style="stroke:#181818;stroke-width:1.0;" width="10" x="2094" y="278.3281"/><rect fill="#FFFFFF" height="37.5547" style="stroke:#181818;stroke-width:1.0;" width="10" x="2094" y="653.875"/><rect fill="#FFFFFF" height="37.5547" style="stroke:#181818;stroke-width:1.0;" width="10" x="2094" y="1179.6406"/><rect fill="#FFFFFF" height="37.5547" style="stroke:#181818;stroke-width:1.0;" width="10" x="2362" y="353.4375"/><rect fill="#FFFFFF" height="37.5547" style="stroke:#181818;stroke-width:1.0;" width="10" x="2362" y="728.9844"/><rect fill="#FFFFFF" height="37.5547" style="stroke:#181818;stroke-width:1.0;" width="10" x="2362" y="1254.75"/><polygon fill="#181818" points="484,124.1094,494,128.1094,484,132.1094,488,128.1094" style="stroke:#181818;stroke-width:1.0;"/><line style="stroke:#181818;stroke-width:1.0;" x1="41" x2="490" y1="128.1094" y2="128.1094"/><text fill="#000000" font-family="sans-serif" font-size="20" font-weight="bold" lengthAdjust="spacing" textLength="13" x="48" y="121.8906">1</text><text fill="#000000" font-family="sans-serif" font-size="20" lengthAdjust="spacing" textLength="322" x="65" y="121.8906">asks to publish an announcement</text><polygon fill="#181818" points="1042,161.6641,1052,165.6641,1042,169.6641,1046,165.6641" style="stroke:#181818;stroke-width:1.0;"/><line style="stroke:#181818;stroke-width:1.0;" x1="506" x2="1048" y1="165.6641" y2="165.6641"/><text fill="#000000" font-family="sans-serif" font-size="20" font-weight="bold" lengthAdjust="spacing" textLength="13" x="513" y="159.4453">2</text><text fill="#000000" font-family="sans-serif" font-size="20" lengthAdjust="spacing" textLength="263" x="530" y="159.4453">getAnnouncementsByUser()</text><polygon fill="#181818" points="1350,199.2188,1360,203.2188,1350,207.2188,1354,203.2188" style="stroke:#181818;stroke-width:1.0;"/><line style="stroke:#181818;stroke-width:1.0;" x1="1064" x2="1356" y1="203.2188" y2="203.2188"/><text fill="#000000" font-family="sans-serif" font-size="20" font-weight="bold" lengthAdjust="spacing" textLength="13" x="1071" y="197">3</text><text fill="#000000" font-family="sans-serif" font-size="20" lengthAdjust="spacing" textLength="123" x="1088" y="197">getInstance()</text><polygon fill="#181818" points="1075,236.7734,1065,240.7734,1075,244.7734,1071,240.7734" style="stroke:#181818;stroke-width:1.0;"/><line style="stroke:#181818;stroke-width:1.0;stroke-dasharray:2.0,2.0;" x1="1069" x2="1366" y1="240.7734" y2="240.7734"/><text fill="#000000" font-family="sans-serif" font-size="20" font-weight="bold" lengthAdjust="spacing" textLength="13" x="1081" y="234.5547">4</text><text fill="#000000" font-family="sans-serif" font-size="20" lengthAdjust="spacing" textLength="243" x="1098" y="234.5547">announcementRepository</text><polygon fill="#181818" points="2082,274.3281,2092,278.3281,2082,282.3281,2086,278.3281" style="stroke:#181818;stroke-width:1.0;"/><line style="stroke:#181818;stroke-width:1.0;" x1="1064" x2="2088" y1="278.3281" y2="278.3281"/><text fill="#000000" font-family="sans-serif" font-size="20" font-weight="bold" lengthAdjust="spacing" textLength="13" x="1071" y="272.1094">5</text><text fill="#000000" font-family="sans-serif" font-size="20" lengthAdjust="spacing" textLength="123" x="1088" y="272.1094">getInstance()</text><polygon fill="#181818" points="1075,311.8828,1065,315.8828,1075,319.8828,1071,315.8828" style="stroke:#181818;stroke-width:1.0;"/><line style="stroke:#181818;stroke-width:1.0;stroke-dasharray:2.0,2.0;" x1="1069" x2="2098" y1="315.8828" y2="315.8828"/><text fill="#000000" font-family="sans-serif" font-size="20" font-weight="bold" lengthAdjust="spacing" textLength="13" x="1081" y="309.6641">6</text><text fill="#000000" font-family="sans-serif" font-size="20" lengthAdjust="spacing" textLength="238" x="1098" y="309.6641">authenticationRepository</text><polygon fill="#181818" points="2350,349.4375,2360,353.4375,2350,357.4375,2354,353.4375" style="stroke:#181818;stroke-width:1.0;"/><line style="stroke:#181818;stroke-width:1.0;" x1="1064" x2="2356" y1="353.4375" y2="353.4375"/><text fill="#000000" font-family="sans-serif" font-size="20" font-weight="bold" lengthAdjust="spacing" textLength="13" x="1071" y="347.2188">7</text><text fill="#000000" font-family="sans-serif" font-size="20" lengthAdjust="spacing" textLength="231" x="1088" y="347.2188">getCurrentUserSession()</text><polygon fill="#181818" points="1075,386.9922,1065,390.9922,1075,394.9922,1071,390.9922" style="stroke:#181818;stroke-width:1.0;"/><line style="stroke:#181818;stroke-width:1.0;stroke-dasharray:2.0,2.0;" x1="1069" x2="2366" y1="390.9922" y2="390.9922"/><text fill="#000000" font-family="sans-serif" font-size="20" font-weight="bold" lengthAdjust="spacing" textLength="13" x="1081" y="384.7734">8</text><text fill="#000000" font-family="sans-serif" font-size="20" lengthAdjust="spacing" textLength="115" x="1098" y="384.7734">UserSession</text><polygon fill="#181818" points="1810,424.5469,1820,428.5469,1810,432.5469,1814,428.5469" style="stroke:#181818;stroke-width:1.0;"/><line style="stroke:#181818;stroke-width:1.0;" x1="1064" x2="1816" y1="428.5469" y2="428.5469"/><text fill="#000000" font-family="sans-serif" font-size="20" font-weight="bold" lengthAdjust="spacing" textLength="13" x="1071" y="422.3281">9</text><text fill="#000000" font-family="sans-serif" font-size="20" lengthAdjust="spacing" textLength="722" x="1088" y="422.3281">getAnnouncementsByAgent(getCurrentUserSession().getUserId().getEmail())</text><polygon fill="#181818" points="1075,462.1016,1065,466.1016,1075,470.1016,1071,466.1016" style="stroke:#181818;stroke-width:1.0;"/><line style="stroke:#181818;stroke-width:1.0;stroke-dasharray:2.0,2.0;" x1="1069" x2="1826" y1="466.1016" y2="466.1016"/><text fill="#000000" font-family="sans-serif" font-size="20" font-weight="bold" lengthAdjust="spacing" textLength="26" x="1081" y="459.8828">10</text><text fill="#000000" font-family="sans-serif" font-size="20" lengthAdjust="spacing" textLength="151" x="1111" y="459.8828">announcements</text><polygon fill="#181818" points="517,499.6563,507,503.6563,517,507.6563,513,503.6563" style="stroke:#181818;stroke-width:1.0;"/><line style="stroke:#181818;stroke-width:1.0;stroke-dasharray:2.0,2.0;" x1="511" x2="1058" y1="503.6563" y2="503.6563"/><text fill="#000000" font-family="sans-serif" font-size="20" font-weight="bold" lengthAdjust="spacing" textLength="26" x="523" y="497.4375">11</text><text fill="#000000" font-family="sans-serif" font-size="20" lengthAdjust="spacing" textLength="360" x="553" y="497.4375">shows non published announcements</text><polygon fill="#181818" points="1042,537.2109,1052,541.2109,1042,545.2109,1046,541.2109" style="stroke:#181818;stroke-width:1.0;"/><line style="stroke:#181818;stroke-width:1.0;" x1="506" x2="1048" y1="541.2109" y2="541.2109"/><text fill="#000000" font-family="sans-serif" font-size="20" font-weight="bold" lengthAdjust="spacing" textLength="26" x="513" y="534.9922">12</text><text fill="#000000" font-family="sans-serif" font-size="20" lengthAdjust="spacing" textLength="499" x="543" y="534.9922">publishAnnouncement(announcement, commission)</text><polygon fill="#181818" points="1350,574.7656,1360,578.7656,1350,582.7656,1354,578.7656" style="stroke:#181818;stroke-width:1.0;"/><line style="stroke:#181818;stroke-width:1.0;" x1="1064" x2="1356" y1="578.7656" y2="578.7656"/><text fill="#000000" font-family="sans-serif" font-size="20" font-weight="bold" lengthAdjust="spacing" textLength="26" x="1071" y="572.5469">13</text><text fill="#000000" font-family="sans-serif" font-size="20" lengthAdjust="spacing" textLength="123" x="1101" y="572.5469">getInstance()</text><polygon fill="#181818" points="1075,612.3203,1065,616.3203,1075,620.3203,1071,616.3203" style="stroke:#181818;stroke-width:1.0;"/><line style="stroke:#181818;stroke-width:1.0;stroke-dasharray:2.0,2.0;" x1="1069" x2="1366" y1="616.3203" y2="616.3203"/><text fill="#000000" font-family="sans-serif" font-size="20" font-weight="bold" lengthAdjust="spacing" textLength="26" x="1081" y="610.1016">14</text><text fill="#000000" font-family="sans-serif" font-size="20" lengthAdjust="spacing" textLength="243" x="1111" y="610.1016">announcementRepository</text><polygon fill="#181818" points="2082,649.875,2092,653.875,2082,657.875,2086,653.875" style="stroke:#181818;stroke-width:1.0;"/><line style="stroke:#181818;stroke-width:1.0;" x1="1064" x2="2088" y1="653.875" y2="653.875"/><text fill="#000000" font-family="sans-serif" font-size="20" font-weight="bold" lengthAdjust="spacing" textLength="26" x="1071" y="647.6563">15</text><text fill="#000000" font-family="sans-serif" font-size="20" lengthAdjust="spacing" textLength="123" x="1101" y="647.6563">getInstance()</text><polygon fill="#181818" points="1075,687.4297,1065,691.4297,1075,695.4297,1071,691.4297" style="stroke:#181818;stroke-width:1.0;"/><line style="stroke:#181818;stroke-width:1.0;stroke-dasharray:2.0,2.0;" x1="1069" x2="2098" y1="691.4297" y2="691.4297"/><text fill="#000000" font-family="sans-serif" font-size="20" font-weight="bold" lengthAdjust="spacing" textLength="26" x="1081" y="685.2109">16</text><text fill="#000000" font-family="sans-serif" font-size="20" lengthAdjust="spacing" textLength="238" x="1111" y="685.2109">authenticationRepository</text><polygon fill="#181818" points="2350,724.9844,2360,728.9844,2350,732.9844,2354,728.9844" style="stroke:#181818;stroke-width:1.0;"/><line style="stroke:#181818;stroke-width:1.0;" x1="1064" x2="2356" y1="728.9844" y2="728.9844"/><text fill="#000000" font-family="sans-serif" font-size="20" font-weight="bold" lengthAdjust="spacing" textLength="26" x="1071" y="722.7656">17</text><text fill="#000000" font-family="sans-serif" font-size="20" lengthAdjust="spacing" textLength="188" x="1101" y="722.7656">getCurrentSession()</text><polygon fill="#181818" points="1075,762.5391,1065,766.5391,1075,770.5391,1071,766.5391" style="stroke:#181818;stroke-width:1.0;"/><line style="stroke:#181818;stroke-width:1.0;stroke-dasharray:2.0,2.0;" x1="1069" x2="2366" y1="766.5391" y2="766.5391"/><text fill="#000000" font-family="sans-serif" font-size="20" font-weight="bold" lengthAdjust="spacing" textLength="26" x="1081" y="760.3203">18</text><text fill="#000000" font-family="sans-serif" font-size="20" lengthAdjust="spacing" textLength="71" x="1111" y="760.3203">session</text><polygon fill="#181818" points="1810,800.0938,1820,804.0938,1810,808.0938,1814,804.0938" style="stroke:#181818;stroke-width:1.0;"/><line style="stroke:#181818;stroke-width:1.0;" x1="1064" x2="1816" y1="804.0938" y2="804.0938"/><text fill="#000000" font-family="sans-serif" font-size="20" font-weight="bold" lengthAdjust="spacing" textLength="26" x="1071" y="797.875">19</text><text fill="#000000" font-family="sans-serif" font-size="20" lengthAdjust="spacing" textLength="440" x="1101" y="797.875">publishAnnouncement(announcement.getId())</text><polygon fill="#181818" points="1075,837.6484,1065,841.6484,1075,845.6484,1071,841.6484" style="stroke:#181818;stroke-width:1.0;"/><line style="stroke:#181818;stroke-width:1.0;stroke-dasharray:2.0,2.0;" x1="1069" x2="1826" y1="841.6484" y2="841.6484"/><text fill="#000000" font-family="sans-serif" font-size="20" font-weight="bold" lengthAdjust="spacing" textLength="26" x="1081" y="835.4297">20</text><text fill="#000000" font-family="sans-serif" font-size="20" lengthAdjust="spacing" textLength="73" x="1111" y="835.4297">success</text><polygon fill="#181818" points="1810,875.2031,1820,879.2031,1810,883.2031,1814,879.2031" style="stroke:#181818;stroke-width:1.0;"/><line style="stroke:#181818;stroke-width:1.0;" x1="1064" x2="1816" y1="879.2031" y2="879.2031"/><text fill="#000000" font-family="sans-serif" font-size="20" font-weight="bold" lengthAdjust="spacing" textLength="26" x="1071" y="872.9844">21</text><text fill="#000000" font-family="sans-serif" font-size="20" lengthAdjust="spacing" textLength="427" x="1101" y="872.9844">getAnnouncementsByUser(session.getUser())</text><polygon fill="#181818" points="1075,912.7578,1065,916.7578,1075,920.7578,1071,916.7578" style="stroke:#181818;stroke-width:1.0;"/><line style="stroke:#181818;stroke-width:1.0;stroke-dasharray:2.0,2.0;" x1="1069" x2="1826" y1="916.7578" y2="916.7578"/><text fill="#000000" font-family="sans-serif" font-size="20" font-weight="bold" lengthAdjust="spacing" textLength="26" x="1081" y="910.5391">22</text><text fill="#000000" font-family="sans-serif" font-size="20" lengthAdjust="spacing" textLength="151" x="1111" y="910.5391">announcements</text><polygon fill="#181818" points="517,950.3125,507,954.3125,517,958.3125,513,954.3125" style="stroke:#181818;stroke-width:1.0;"/><line style="stroke:#181818;stroke-width:1.0;stroke-dasharray:2.0,2.0;" x1="511" x2="1058" y1="954.3125" y2="954.3125"/><text fill="#000000" font-family="sans-serif" font-size="20" font-weight="bold" lengthAdjust="spacing" textLength="26" x="523" y="948.0938">23</text><text fill="#000000" font-family="sans-serif" font-size="20" lengthAdjust="spacing" textLength="360" x="553" y="948.0938">shows non published announcements</text><polygon fill="#181818" points="52,987.8672,42,991.8672,52,995.8672,48,991.8672" style="stroke:#181818;stroke-width:1.0;"/><line style="stroke:#181818;stroke-width:1.0;" x1="46" x2="500" y1="991.8672" y2="991.8672"/><text fill="#000000" font-family="sans-serif" font-size="20" font-weight="bold" lengthAdjust="spacing" textLength="26" x="58" y="985.6484">24</text><text fill="#000000" font-family="sans-serif" font-size="20" lengthAdjust="spacing" textLength="360" x="88" y="985.6484">shows non published announcements</text><polygon fill="#181818" points="484,1025.4219,494,1029.4219,484,1033.4219,488,1029.4219" style="stroke:#181818;stroke-width:1.0;"/><line style="stroke:#181818;stroke-width:1.0;" x1="41" x2="490" y1="1029.4219" y2="1029.4219"/><text fill="#000000" font-family="sans-serif" font-size="20" font-weight="bold" lengthAdjust="spacing" textLength="26" x="48" y="1023.2031">25</text><text fill="#000000" font-family="sans-serif" font-size="20" lengthAdjust="spacing" textLength="406" x="78" y="1023.2031">selects ID of the Announcement to publish</text><polygon fill="#181818" points="1042,1062.9766,1052,1066.9766,1042,1070.9766,1046,1066.9766" style="stroke:#181818;stroke-width:1.0;"/><line style="stroke:#181818;stroke-width:1.0;" x1="506" x2="1048" y1="1066.9766" y2="1066.9766"/><text fill="#000000" font-family="sans-serif" font-size="20" font-weight="bold" lengthAdjust="spacing" textLength="26" x="513" y="1060.7578">26</text><text fill="#000000" font-family="sans-serif" font-size="20" lengthAdjust="spacing" textLength="248" x="543" y="1060.7578">getAnnouncementById(id)</text><polygon fill="#181818" points="1350,1100.5313,1360,1104.5313,1350,1108.5313,1354,1104.5313" style="stroke:#181818;stroke-width:1.0;"/><line style="stroke:#181818;stroke-width:1.0;" x1="1064" x2="1356" y1="1104.5313" y2="1104.5313"/><text fill="#000000" font-family="sans-serif" font-size="20" font-weight="bold" lengthAdjust="spacing" textLength="26" x="1071" y="1098.3125">27</text><text fill="#000000" font-family="sans-serif" font-size="20" lengthAdjust="spacing" textLength="123" x="1101" y="1098.3125">getInstance()</text><polygon fill="#181818" points="1075,1138.0859,1065,1142.0859,1075,1146.0859,1071,1142.0859" style="stroke:#181818;stroke-width:1.0;"/><line style="stroke:#181818;stroke-width:1.0;stroke-dasharray:2.0,2.0;" x1="1069" x2="1366" y1="1142.0859" y2="1142.0859"/><text fill="#000000" font-family="sans-serif" font-size="20" font-weight="bold" lengthAdjust="spacing" textLength="26" x="1081" y="1135.8672">28</text><text fill="#000000" font-family="sans-serif" font-size="20" lengthAdjust="spacing" textLength="243" x="1111" y="1135.8672">announcementRepository</text><polygon fill="#181818" points="2082,1175.6406,2092,1179.6406,2082,1183.6406,2086,1179.6406" style="stroke:#181818;stroke-width:1.0;"/><line style="stroke:#181818;stroke-width:1.0;" x1="1064" x2="2088" y1="1179.6406" y2="1179.6406"/><text fill="#000000" font-family="sans-serif" font-size="20" font-weight="bold" lengthAdjust="spacing" textLength="26" x="1071" y="1173.4219">29</text><text fill="#000000" font-family="sans-serif" font-size="20" lengthAdjust="spacing" textLength="123" x="1101" y="1173.4219">getInstance()</text><polygon fill="#181818" points="1075,1213.1953,1065,1217.1953,1075,1221.1953,1071,1217.1953" style="stroke:#181818;stroke-width:1.0;"/><line style="stroke:#181818;stroke-width:1.0;stroke-dasharray:2.0,2.0;" x1="1069" x2="2098" y1="1217.1953" y2="1217.1953"/><text fill="#000000" font-family="sans-serif" font-size="20" font-weight="bold" lengthAdjust="spacing" textLength="26" x="1081" y="1210.9766">30</text><text fill="#000000" font-family="sans-serif" font-size="20" lengthAdjust="spacing" textLength="238" x="1111" y="1210.9766">authenticationRepository</text><polygon fill="#181818" points="2350,1250.75,2360,1254.75,2350,1258.75,2354,1254.75" style="stroke:#181818;stroke-width:1.0;"/><line style="stroke:#181818;stroke-width:1.0;" x1="1064" x2="2356" y1="1254.75" y2="1254.75"/><text fill="#000000" font-family="sans-serif" font-size="20" font-weight="bold" lengthAdjust="spacing" textLength="26" x="1071" y="1248.5313">31</text><text fill="#000000" font-family="sans-serif" font-size="20" lengthAdjust="spacing" textLength="188" x="1101" y="1248.5313">getCurrentSession()</text><polygon fill="#181818" points="1075,1288.3047,1065,1292.3047,1075,1296.3047,1071,1292.3047" style="stroke:#181818;stroke-width:1.0;"/><line style="stroke:#181818;stroke-width:1.0;stroke-dasharray:2.0,2.0;" x1="1069" x2="2366" y1="1292.3047" y2="1292.3047"/><text fill="#000000" font-family="sans-serif" font-size="20" font-weight="bold" lengthAdjust="spacing" textLength="26" x="1081" y="1286.0859">32</text><text fill="#000000" font-family="sans-serif" font-size="20" lengthAdjust="spacing" textLength="71" x="1111" y="1286.0859">session</text><polygon fill="#181818" points="1810,1325.8594,1820,1329.8594,1810,1333.8594,1814,1329.8594" style="stroke:#181818;stroke-width:1.0;"/><line style="stroke:#181818;stroke-width:1.0;" x1="1064" x2="1816" y1="1329.8594" y2="1329.8594"/><text fill="#000000" font-family="sans-serif" font-size="20" font-weight="bold" lengthAdjust="spacing" textLength="26" x="1071" y="1323.6406">33</text><text fill="#000000" font-family="sans-serif" font-size="20" lengthAdjust="spacing" textLength="427" x="1101" y="1323.6406">getAnnouncementsByUser(session.getUser())</text><polygon fill="#181818" points="1075,1363.4141,1065,1367.4141,1075,1371.4141,1071,1367.4141" style="stroke:#181818;stroke-width:1.0;"/><line style="stroke:#181818;stroke-width:1.0;stroke-dasharray:2.0,2.0;" x1="1069" x2="1826" y1="1367.4141" y2="1367.4141"/><text fill="#000000" font-family="sans-serif" font-size="20" font-weight="bold" lengthAdjust="spacing" textLength="26" x="1081" y="1361.1953">34</text><text fill="#000000" font-family="sans-serif" font-size="20" lengthAdjust="spacing" textLength="151" x="1111" y="1361.1953">announcements</text><polygon fill="#181818" points="517,1400.9688,507,1404.9688,517,1408.9688,513,1404.9688" style="stroke:#181818;stroke-width:1.0;"/><line style="stroke:#181818;stroke-width:1.0;stroke-dasharray:2.0,2.0;" x1="511" x2="1058" y1="1404.9688" y2="1404.9688"/><text fill="#000000" font-family="sans-serif" font-size="20" font-weight="bold" lengthAdjust="spacing" textLength="26" x="523" y="1398.75">35</text><text fill="#000000" font-family="sans-serif" font-size="20" lengthAdjust="spacing" textLength="360" x="553" y="1398.75">shows non published announcements</text><polygon fill="#181818" points="52,1438.5234,42,1442.5234,52,1446.5234,48,1442.5234" style="stroke:#181818;stroke-width:1.0;"/><line style="stroke:#181818;stroke-width:1.0;stroke-dasharray:2.0,2.0;" x1="46" x2="500" y1="1442.5234" y2="1442.5234"/><text fill="#000000" font-family="sans-serif" font-size="20" font-weight="bold" lengthAdjust="spacing" textLength="26" x="58" y="1436.3047">36</text><text fill="#000000" font-family="sans-serif" font-size="20" lengthAdjust="spacing" textLength="360" x="88" y="1436.3047">shows non published announcements</text><polygon fill="#181818" points="489,1476.0781,499,1480.0781,489,1484.0781,493,1480.0781" style="stroke:#181818;stroke-width:1.0;"/><line style="stroke:#181818;stroke-width:1.0;" x1="36" x2="495" y1="1480.0781" y2="1480.0781"/><text fill="#000000" font-family="sans-serif" font-size="20" font-weight="bold" lengthAdjust="spacing" textLength="26" x="43" y="1473.8594">37</text><text fill="#000000" font-family="sans-serif" font-size="20" lengthAdjust="spacing" textLength="85" x="73" y="1473.8594">closes UI</text><!--SRC=[xLTDZzem4BtxLuouB2jrgwf73fLOTbj5whBLPhdrOXoJM3Xs53lTqb_VYSE7dJLG95QgMd81udalRpBpniOiXQfeJKkfsP9daF45RQJzh9LDnIyE7pyGimc1KYlDYbgN76pTS6-becn9SvxQbUHGSsQfogKVO0gQwHUXSbXGQJWXjB5QDUMSruHS5IBZiD3QplLFGfdLDGp6ELTs0DJ0-Clzz9aWZnLCL5HP68o-DNCfJ95IoSTAwKOnNcByB768MH8FzqCdc6AjfUIrWqoUdxxsG7xq4w-q4IXivQ9tFrFHPegvX60QnOw-gmEayQM-gCOMk2uOjKAhFWCkxXE4Iw6GOqInHN8La4vqMGfZCAHxXuyF3qcQ9e_JNfoVMSS_dPAsqE87jNnTOE8-uEOJbWz66BKqO3LKNUc0Al1VgWV7QXE48B0j8a9pRlqdcjlLpF1wUBs3k6eJmCj141gfQCUKA8FTp3Z2s_WjHQm5N4HxnTXkrW9746yE1yxuyGTi90VLFYmsR8ojp9314xYl_3s94LfVN8oYqpbfwhgrAvObvQw1OegZ4WBnqIViyl3uOzBtys-pY5Ogsc9kNWttvFOUxxStagpxVbzI8OVN_PpZVR7BEAuctbZcLSO7sBjyDzOpXNuneB0brkR3ZI6azcWxAmN-grvFsw6FVmTiEpWkflpRJFcMXZHlOiPZ_TOwhdNUkUrc6iOmeTEDTj9WSNlN-iLjviY_DpgwpVz4WdRd3qyDXaiyVHf8xa0l0BigqEwT9_xy-72xmjuHsMLGNGRL-KyD_uEvp-Tk9ZM-gtR1r-_-FGIutm00]--></g></svg>