<?xml version="1.0" encoding="UTF-8" standalone="no"?><svg xmlns="http://www.w3.org/2000/svg" xmlns:xlink="http://www.w3.org/1999/xlink" contentStyleType="text/css" height="581px" preserveAspectRatio="none" style="width:880px;height:581px;background:#FFFFFF;" version="1.1" viewBox="0 0 880 581" width="880px" zoomAndPan="magnify"><defs/><g><text fill="#000000" font-family="sans-serif" font-size="14" font-weight="bold" lengthAdjust="spacing" textLength="433" x="222.5" y="28.5352">System Sequence Diagram (SSD) of US009 - Schedule a visit</text><rect fill="#FFFFFF" height="348.5469" style="stroke:#181818;stroke-width:1.0;" width="10" x="31" y="136.043"/><rect fill="#FFFFFF" height="61.1094" style="stroke:#181818;stroke-width:1.0;" width="10" x="825" y="165.5977"/><rect fill="#FFFFFF" height="37.5547" style="stroke:#181818;stroke-width:1.0;" width="10" x="825" y="264.2617"/><rect fill="#FFFFFF" height="61.1094" style="stroke:#181818;stroke-width:1.0;" width="10" x="825" y="339.3711"/><rect fill="#FFFFFF" height="37.5547" style="stroke:#181818;stroke-width:1.0;" width="10" x="825" y="438.0352"/><line style="stroke:#181818;stroke-width:0.5;stroke-dasharray:5.0,5.0;" x1="36" x2="36" y1="126.043" y2="493.5898"/><line style="stroke:#181818;stroke-width:0.5;stroke-dasharray:5.0,5.0;" x1="830" x2="830" y1="126.043" y2="493.5898"/><text fill="#000000" font-family="sans-serif" font-size="20" lengthAdjust="spacing" textLength="56" x="5" y="121.8242">Client</text><ellipse cx="36" cy="50.9883" fill="#E3E3E3" rx="8" ry="8" style="stroke:#181818;stroke-width:0.5;"/><path d="M36,58.9883 L36,85.9883 M23,66.9883 L49,66.9883 M36,85.9883 L23,100.9883 M36,85.9883 L49,100.9883 " fill="none" style="stroke:#181818;stroke-width:0.5;"/><text fill="#000000" font-family="sans-serif" font-size="20" lengthAdjust="spacing" textLength="56" x="5" y="511.9258">Client</text><ellipse cx="36" cy="524.6445" fill="#E3E3E3" rx="8" ry="8" style="stroke:#181818;stroke-width:0.5;"/><path d="M36,532.6445 L36,559.6445 M23,540.6445 L49,540.6445 M36,559.6445 L23,574.6445 M36,559.6445 L49,574.6445 " fill="none" style="stroke:#181818;stroke-width:0.5;"/><rect fill="#E3E3E3" height="37.5547" rx="2.5" ry="2.5" style="stroke:#181818;stroke-width:0.5;" width="88" x="786" y="87.4883"/><text fill="#000000" font-family="sans-serif" font-size="20" lengthAdjust="spacing" textLength="74" x="793" y="113.8242">:System</text><rect fill="#E3E3E3" height="37.5547" rx="2.5" ry="2.5" style="stroke:#181818;stroke-width:0.5;" width="88" x="786" y="492.5898"/><text fill="#000000" font-family="sans-serif" font-size="20" lengthAdjust="spacing" textLength="74" x="793" y="518.9258">:System</text><rect fill="#FFFFFF" height="348.5469" style="stroke:#181818;stroke-width:1.0;" width="10" x="31" y="136.043"/><rect fill="#FFFFFF" height="61.1094" style="stroke:#181818;stroke-width:1.0;" width="10" x="825" y="165.5977"/><rect fill="#FFFFFF" height="37.5547" style="stroke:#181818;stroke-width:1.0;" width="10" x="825" y="264.2617"/><rect fill="#FFFFFF" height="61.1094" style="stroke:#181818;stroke-width:1.0;" width="10" x="825" y="339.3711"/><rect fill="#FFFFFF" height="37.5547" style="stroke:#181818;stroke-width:1.0;" width="10" x="825" y="438.0352"/><polygon fill="#181818" points="813,161.5977,823,165.5977,813,169.5977,817,165.5977" style="stroke:#181818;stroke-width:1.0;"/><line style="stroke:#181818;stroke-width:1.0;" x1="41" x2="819" y1="165.5977" y2="165.5977"/><text fill="#000000" font-family="sans-serif" font-size="20" font-weight="bold" lengthAdjust="spacing" textLength="13" x="48" y="159.3789">1</text><text fill="#000000" font-family="sans-serif" font-size="20" lengthAdjust="spacing" textLength="214" x="65" y="159.3789">Ask to schedule a visit</text><polygon fill="#181818" points="52,222.707,42,226.707,52,230.707,48,226.707" style="stroke:#181818;stroke-width:1.0;"/><line style="stroke:#181818;stroke-width:1.0;stroke-dasharray:2.0,2.0;" x1="46" x2="829" y1="226.707" y2="226.707"/><text fill="#000000" font-family="sans-serif" font-size="20" font-weight="bold" lengthAdjust="spacing" textLength="13" x="58" y="208.7109">2</text><text fill="#000000" font-family="sans-serif" font-size="20" lengthAdjust="spacing" textLength="536" x="75" y="196.9336">Show all announcements sorted by newest to oldest and</text><text fill="#000000" font-family="sans-serif" font-size="20" lengthAdjust="spacing" textLength="556" x="75" y="220.4883">requests to select the announcement ID to schedule a visit</text><polygon fill="#181818" points="813,260.2617,823,264.2617,813,268.2617,817,264.2617" style="stroke:#181818;stroke-width:1.0;"/><line style="stroke:#181818;stroke-width:1.0;" x1="41" x2="819" y1="264.2617" y2="264.2617"/><text fill="#000000" font-family="sans-serif" font-size="20" font-weight="bold" lengthAdjust="spacing" textLength="13" x="48" y="258.043">3</text><text fill="#000000" font-family="sans-serif" font-size="20" lengthAdjust="spacing" textLength="591" x="65" y="258.043">Select the announcement through the ID of the announcement</text><polygon fill="#181818" points="52,297.8164,42,301.8164,52,305.8164,48,301.8164" style="stroke:#181818;stroke-width:1.0;"/><line style="stroke:#181818;stroke-width:1.0;stroke-dasharray:2.0,2.0;" x1="46" x2="829" y1="301.8164" y2="301.8164"/><text fill="#000000" font-family="sans-serif" font-size="20" font-weight="bold" lengthAdjust="spacing" textLength="13" x="58" y="295.5977">4</text><text fill="#000000" font-family="sans-serif" font-size="20" lengthAdjust="spacing" textLength="651" x="75" y="295.5977">Requests data (date of visit, time of visit start and time of visit end))</text><polygon fill="#181818" points="813,335.3711,823,339.3711,813,343.3711,817,339.3711" style="stroke:#181818;stroke-width:1.0;"/><line style="stroke:#181818;stroke-width:1.0;" x1="41" x2="819" y1="339.3711" y2="339.3711"/><text fill="#000000" font-family="sans-serif" font-size="20" font-weight="bold" lengthAdjust="spacing" textLength="13" x="48" y="333.1523">5</text><text fill="#000000" font-family="sans-serif" font-size="20" lengthAdjust="spacing" textLength="716" x="65" y="333.1523">Types requested data (date of visit, time of visit start and time of visit end)</text><polygon fill="#181818" points="52,396.4805,42,400.4805,52,404.4805,48,400.4805" style="stroke:#181818;stroke-width:1.0;"/><line style="stroke:#181818;stroke-width:1.0;stroke-dasharray:2.0,2.0;" x1="46" x2="829" y1="400.4805" y2="400.4805"/><text fill="#000000" font-family="sans-serif" font-size="20" font-weight="bold" lengthAdjust="spacing" textLength="13" x="58" y="382.4844">6</text><text fill="#000000" font-family="sans-serif" font-size="20" lengthAdjust="spacing" textLength="743" x="75" y="370.707">Confirm there is not a visit request from the same client at the same time and</text><text fill="#000000" font-family="sans-serif" font-size="20" lengthAdjust="spacing" textLength="497" x="81" y="394.2617">display the data typed by the client for confirmation</text><polygon fill="#181818" points="813,434.0352,823,438.0352,813,442.0352,817,438.0352" style="stroke:#181818;stroke-width:1.0;"/><line style="stroke:#181818;stroke-width:1.0;" x1="41" x2="819" y1="438.0352" y2="438.0352"/><text fill="#000000" font-family="sans-serif" font-size="20" font-weight="bold" lengthAdjust="spacing" textLength="13" x="48" y="431.8164">7</text><text fill="#000000" font-family="sans-serif" font-size="20" lengthAdjust="spacing" textLength="379" x="65" y="431.8164">Confirms that the information is correct</text><polygon fill="#181818" points="52,471.5898,42,475.5898,52,479.5898,48,475.5898" style="stroke:#181818;stroke-width:1.0;"/><line style="stroke:#181818;stroke-width:1.0;stroke-dasharray:2.0,2.0;" x1="46" x2="829" y1="475.5898" y2="475.5898"/><text fill="#000000" font-family="sans-serif" font-size="20" font-weight="bold" lengthAdjust="spacing" textLength="13" x="58" y="469.3711">8</text><text fill="#000000" font-family="sans-serif" font-size="20" lengthAdjust="spacing" textLength="725" x="75" y="469.3711">Send a message to the agent and show a confirmation message to the client</text><!--SRC=[fLJ1Rjim3BtxAuYS6c01WjwMmu2XGO5Tv-tM2olHjX1PSaMwGVRresHxROBcqCmdMIGVttkKn0SN1apO-sWEPC5IWwENnnYaTdy8xhSLBodGnn1Dbs9F86caTv41pG5RgkNa2H8PmT3wzmdSeOr75rfeq3DLbJZHrFh4GZtKz39IC0HxXsrElwlh_HfY0x_hxVOhRA0s7TbHAn1U7JkfAXmbXh5_fgHh8p71wi4x2h82P9YMbJONPzo0GM2rcxgL-BGibUuLXPQ2gWBzfX_OV5i8xk0x7q0Yy2KFcBz_G0lo4fWHDWesm-wWxk8Hq7l04EAemdlTP-2OH6VmV890HsB93QEtUON1mbD8sIVMpCo4lFeCqj4P2lpON-LfwKEM7wYjhu2BJdziknBGHZgWovJR3Fcv2BCe27SsrobueVu5nFLlly2YGos6dEzJiElr9tN-EWt4CDkQZ___jRzD_4CCZKjzjZ8HE8OGPPdRmWqQlNR5R4RjQgPQbBUjmaPfFGMmZWUFfn8hYaHbbdELT-RQHc-CcJgZk1W-wTnCMezYDxDmGI4dh2p2n9GVWXilYBgf5lJ4hCzAFj3bdBL5j8QuNA0p_fV9aynhglu2]--></g></svg>