<?xml version="1.0" encoding="UTF-8" standalone="no"?><svg xmlns="http://www.w3.org/2000/svg" xmlns:xlink="http://www.w3.org/1999/xlink" contentStyleType="text/css" height="1243px" preserveAspectRatio="none" style="width:1115px;height:1243px;background:#FFFFFF;" version="1.1" viewBox="0 0 1115 1243" width="1115px" zoomAndPan="magnify"><defs/><g><text fill="#000000" font-family="sans-serif" font-size="14" font-weight="bold" lengthAdjust="spacing" textLength="363" x="375" y="28.5352">System Sequence Diagram (SSD) - Alternative One</text><rect fill="#FFFFFF" height="1010.3047" style="stroke:#181818;stroke-width:1.0;" width="10" x="49" y="136.043"/><rect fill="#FFFFFF" height="37.5547" style="stroke:#181818;stroke-width:1.0;" width="10" x="856" y="165.5977"/><rect fill="#FFFFFF" height="37.5547" style="stroke:#181818;stroke-width:1.0;" width="10" x="856" y="287.8164"/><rect fill="#FFFFFF" height="162.7734" style="stroke:#181818;stroke-width:1.0;" width="10" x="856" y="362.9258"/><rect fill="#FFFFFF" height="461.4297" style="stroke:#181818;stroke-width:1.0;" width="10" x="856" y="563.2539"/><rect fill="#FFFFFF" height="37.5547" style="stroke:#181818;stroke-width:1.0;" width="10" x="856" y="1062.2383"/><rect fill="none" height="111.2188" style="stroke:#000000;stroke-width:1.5;" width="905" x="10" y="377.9258"/><rect fill="none" height="409.875" style="stroke:#000000;stroke-width:1.5;" width="905" x="10" y="578.2539"/><line style="stroke:#181818;stroke-width:0.5;stroke-dasharray:5.0,5.0;" x1="54" x2="54" y1="126.043" y2="1155.3477"/><line style="stroke:#181818;stroke-width:0.5;stroke-dasharray:5.0,5.0;" x1="861" x2="861" y1="126.043" y2="1155.3477"/><line style="stroke:#181818;stroke-width:0.5;stroke-dasharray:5.0,5.0;" x1="1071" x2="1071" y1="126.043" y2="1155.3477"/><text fill="#000000" font-family="sans-serif" font-size="20" lengthAdjust="spacing" textLength="62" x="20" y="121.8242">Owner</text><ellipse cx="54" cy="50.9883" fill="#E3E3E3" rx="8" ry="8" style="stroke:#181818;stroke-width:0.5;"/><path d="M54,58.9883 L54,85.9883 M41,66.9883 L67,66.9883 M54,85.9883 L41,100.9883 M54,85.9883 L67,100.9883 " fill="none" style="stroke:#181818;stroke-width:0.5;"/><text fill="#000000" font-family="sans-serif" font-size="20" lengthAdjust="spacing" textLength="62" x="20" y="1173.6836">Owner</text><ellipse cx="54" cy="1186.4023" fill="#E3E3E3" rx="8" ry="8" style="stroke:#181818;stroke-width:0.5;"/><path d="M54,1194.4023 L54,1221.4023 M41,1202.4023 L67,1202.4023 M54,1221.4023 L41,1236.4023 M54,1221.4023 L67,1236.4023 " fill="none" style="stroke:#181818;stroke-width:0.5;"/><rect fill="#E3E3E3" height="37.5547" rx="2.5" ry="2.5" style="stroke:#181818;stroke-width:0.5;" width="88" x="817" y="87.4883"/><text fill="#000000" font-family="sans-serif" font-size="20" lengthAdjust="spacing" textLength="74" x="824" y="113.8242">:System</text><rect fill="#E3E3E3" height="37.5547" rx="2.5" ry="2.5" style="stroke:#181818;stroke-width:0.5;" width="88" x="817" y="1154.3477"/><text fill="#000000" font-family="sans-serif" font-size="20" lengthAdjust="spacing" textLength="74" x="824" y="1180.6836">:System</text><rect fill="#E3E3E3" height="37.5547" rx="2.5" ry="2.5" style="stroke:#181818;stroke-width:0.5;" width="76" x="1033" y="87.4883"/><text fill="#000000" font-family="sans-serif" font-size="20" lengthAdjust="spacing" textLength="62" x="1040" y="113.8242">:Agent</text><rect fill="#E3E3E3" height="37.5547" rx="2.5" ry="2.5" style="stroke:#181818;stroke-width:0.5;" width="76" x="1033" y="1154.3477"/><text fill="#000000" font-family="sans-serif" font-size="20" lengthAdjust="spacing" textLength="62" x="1040" y="1180.6836">:Agent</text><rect fill="#FFFFFF" height="1010.3047" style="stroke:#181818;stroke-width:1.0;" width="10" x="49" y="136.043"/><rect fill="#FFFFFF" height="37.5547" style="stroke:#181818;stroke-width:1.0;" width="10" x="856" y="165.5977"/><rect fill="#FFFFFF" height="37.5547" style="stroke:#181818;stroke-width:1.0;" width="10" x="856" y="287.8164"/><rect fill="#FFFFFF" height="162.7734" style="stroke:#181818;stroke-width:1.0;" width="10" x="856" y="362.9258"/><rect fill="#FFFFFF" height="461.4297" style="stroke:#181818;stroke-width:1.0;" width="10" x="856" y="563.2539"/><rect fill="#FFFFFF" height="37.5547" style="stroke:#181818;stroke-width:1.0;" width="10" x="856" y="1062.2383"/><polygon fill="#181818" points="844,161.5977,854,165.5977,844,169.5977,848,165.5977" style="stroke:#181818;stroke-width:1.0;"/><line style="stroke:#181818;stroke-width:1.0;" x1="59" x2="850" y1="165.5977" y2="165.5977"/><text fill="#000000" font-family="sans-serif" font-size="20" font-weight="bold" lengthAdjust="spacing" textLength="13" x="66" y="159.3789">1</text><text fill="#000000" font-family="sans-serif" font-size="20" lengthAdjust="spacing" textLength="513" x="83" y="159.3789">Submit a request for listing a property for sale or rent</text><polygon fill="#181818" points="70,199.1523,60,203.1523,70,207.1523,66,203.1523" style="stroke:#181818;stroke-width:1.0;"/><line style="stroke:#181818;stroke-width:1.0;stroke-dasharray:2.0,2.0;" x1="64" x2="860" y1="203.1523" y2="203.1523"/><text fill="#000000" font-family="sans-serif" font-size="20" font-weight="bold" lengthAdjust="spacing" textLength="13" x="76" y="196.9336">2</text><text fill="#000000" font-family="sans-serif" font-size="20" lengthAdjust="spacing" textLength="198" x="93" y="196.9336">requests Owner data</text><polygon fill="#181818" points="844,283.8164,854,287.8164,844,291.8164,848,287.8164" style="stroke:#181818;stroke-width:1.0;"/><line style="stroke:#181818;stroke-width:1.0;" x1="59" x2="850" y1="287.8164" y2="287.8164"/><text fill="#000000" font-family="sans-serif" font-size="20" font-weight="bold" lengthAdjust="spacing" textLength="13" x="66" y="258.043">3</text><text fill="#000000" font-family="sans-serif" font-size="20" lengthAdjust="spacing" textLength="492" x="83" y="234.4883">types requested data (name, citizen's card number,</text><text fill="#000000" font-family="sans-serif" font-size="20" lengthAdjust="spacing" textLength="352" x="83" y="258.043">tax number, address, email address,</text><text fill="#000000" font-family="sans-serif" font-size="20" lengthAdjust="spacing" textLength="264" x="83" y="281.5977">contact telephone number).</text><polygon fill="#181818" points="70,321.3711,60,325.3711,70,329.3711,66,325.3711" style="stroke:#181818;stroke-width:1.0;"/><line style="stroke:#181818;stroke-width:1.0;stroke-dasharray:2.0,2.0;" x1="64" x2="860" y1="325.3711" y2="325.3711"/><text fill="#000000" font-family="sans-serif" font-size="20" font-weight="bold" lengthAdjust="spacing" textLength="13" x="76" y="319.1523">4</text><text fill="#000000" font-family="sans-serif" font-size="20" lengthAdjust="spacing" textLength="232" x="93" y="319.1523">requests type of request</text><polygon fill="#181818" points="844,358.9258,854,362.9258,844,366.9258,848,362.9258" style="stroke:#181818;stroke-width:1.0;"/><line style="stroke:#181818;stroke-width:1.0;" x1="59" x2="850" y1="362.9258" y2="362.9258"/><text fill="#000000" font-family="sans-serif" font-size="20" font-weight="bold" lengthAdjust="spacing" textLength="13" x="66" y="356.707">5</text><text fill="#000000" font-family="sans-serif" font-size="20" lengthAdjust="spacing" textLength="335" x="83" y="356.707">types requested data (Sale or Rent)</text><path d="M10,377.9258 L82,377.9258 L82,393.4805 L72,403.4805 L10,403.4805 L10,377.9258 " fill="#EEEEEE" style="stroke:#000000;stroke-width:1.5;"/><rect fill="none" height="111.2188" style="stroke:#000000;stroke-width:1.5;" width="905" x="10" y="377.9258"/><text fill="#000000" font-family="sans-serif" font-size="20" font-weight="bold" lengthAdjust="spacing" textLength="27" x="25" y="398.2617">alt</text><text fill="#000000" font-family="sans-serif" font-size="20" font-weight="bold" lengthAdjust="spacing" textLength="83" x="97" y="399.2617">[if Rent]</text><polygon fill="#181818" points="70,437.5898,60,441.5898,70,445.5898,66,441.5898" style="stroke:#181818;stroke-width:1.0;"/><line style="stroke:#181818;stroke-width:1.0;" x1="64" x2="855" y1="441.5898" y2="441.5898"/><text fill="#000000" font-family="sans-serif" font-size="20" font-weight="bold" lengthAdjust="spacing" textLength="13" x="76" y="435.3711">6</text><text fill="#000000" font-family="sans-serif" font-size="20" lengthAdjust="spacing" textLength="242" x="93" y="435.3711">request contract duration</text><line style="stroke:#000000;stroke-width:1.0;stroke-dasharray:2.0,2.0;" x1="10" x2="915" y1="450.5898" y2="450.5898"/><polygon fill="#181818" points="844,477.1445,854,481.1445,844,485.1445,848,481.1445" style="stroke:#181818;stroke-width:1.0;"/><line style="stroke:#181818;stroke-width:1.0;" x1="59" x2="850" y1="481.1445" y2="481.1445"/><text fill="#000000" font-family="sans-serif" font-size="20" font-weight="bold" lengthAdjust="spacing" textLength="13" x="66" y="474.9258">7</text><text fill="#000000" font-family="sans-serif" font-size="20" lengthAdjust="spacing" textLength="201" x="83" y="474.9258">types requested data</text><polygon fill="#181818" points="70,521.6992,60,525.6992,70,529.6992,66,525.6992" style="stroke:#181818;stroke-width:1.0;"/><line style="stroke:#181818;stroke-width:1.0;stroke-dasharray:2.0,2.0;" x1="64" x2="860" y1="525.6992" y2="525.6992"/><text fill="#000000" font-family="sans-serif" font-size="20" font-weight="bold" lengthAdjust="spacing" textLength="13" x="76" y="519.4805">8</text><text fill="#000000" font-family="sans-serif" font-size="20" lengthAdjust="spacing" textLength="242" x="93" y="519.4805">requests type of property</text><polygon fill="#181818" points="844,559.2539,854,563.2539,844,567.2539,848,563.2539" style="stroke:#181818;stroke-width:1.0;"/><line style="stroke:#181818;stroke-width:1.0;" x1="59" x2="850" y1="563.2539" y2="563.2539"/><text fill="#000000" font-family="sans-serif" font-size="20" font-weight="bold" lengthAdjust="spacing" textLength="13" x="66" y="557.0352">9</text><text fill="#000000" font-family="sans-serif" font-size="20" lengthAdjust="spacing" textLength="465" x="83" y="557.0352">types requested data (Apartement, House, Land)</text><path d="M10,578.2539 L82,578.2539 L82,593.8086 L72,603.8086 L10,603.8086 L10,578.2539 " fill="#EEEEEE" style="stroke:#000000;stroke-width:1.5;"/><rect fill="none" height="409.875" style="stroke:#000000;stroke-width:1.5;" width="905" x="10" y="578.2539"/><text fill="#000000" font-family="sans-serif" font-size="20" font-weight="bold" lengthAdjust="spacing" textLength="27" x="25" y="598.5898">alt</text><text fill="#000000" font-family="sans-serif" font-size="20" font-weight="bold" lengthAdjust="spacing" textLength="86" x="97" y="599.5898">[if Land]</text><polygon fill="#181818" points="70,685.0273,60,689.0273,70,693.0273,66,689.0273" style="stroke:#181818;stroke-width:1.0;"/><line style="stroke:#181818;stroke-width:1.0;" x1="64" x2="855" y1="689.0273" y2="689.0273"/><text fill="#000000" font-family="sans-serif" font-size="20" font-weight="bold" lengthAdjust="spacing" textLength="26" x="76" y="659.2539">10</text><text fill="#000000" font-family="sans-serif" font-size="20" lengthAdjust="spacing" textLength="425" x="106" y="635.6992">types requested data (area (in m2), location,</text><text fill="#000000" font-family="sans-serif" font-size="20" lengthAdjust="spacing" textLength="500" x="106" y="659.2539">distance from the city centre, requested price (USD),</text><text fill="#000000" font-family="sans-serif" font-size="20" lengthAdjust="spacing" textLength="129" x="106" y="682.8086">photographs)</text><line style="stroke:#000000;stroke-width:1.0;stroke-dasharray:2.0,2.0;" x1="10" x2="915" y1="698.0273" y2="698.0273"/><text fill="#000000" font-family="sans-serif" font-size="20" font-weight="bold" lengthAdjust="spacing" textLength="157" x="15" y="717.3633">[if Apartement]</text><polygon fill="#181818" points="70,818.8008,60,822.8008,70,826.8008,66,822.8008" style="stroke:#181818;stroke-width:1.0;"/><line style="stroke:#181818;stroke-width:1.0;" x1="64" x2="855" y1="822.8008" y2="822.8008"/><text fill="#000000" font-family="sans-serif" font-size="20" font-weight="bold" lengthAdjust="spacing" textLength="26" x="76" y="781.25">11</text><text fill="#000000" font-family="sans-serif" font-size="20" lengthAdjust="spacing" textLength="709" x="106" y="745.918">types requested data (area (in m2), location, distance from the city centre,</text><text fill="#000000" font-family="sans-serif" font-size="20" lengthAdjust="spacing" textLength="566" x="106" y="769.4727">requested price (USD), photographs, number of bedrooms,</text><text fill="#000000" font-family="sans-serif" font-size="20" lengthAdjust="spacing" textLength="479" x="106" y="793.0273">number of bathrooms, number of parking spaces,</text><text fill="#000000" font-family="sans-serif" font-size="20" lengthAdjust="spacing" textLength="708" x="106" y="816.582">any available equipment (such as central heating and/or air conditioning).</text><line style="stroke:#000000;stroke-width:1.0;stroke-dasharray:2.0,2.0;" x1="10" x2="915" y1="831.8008" y2="831.8008"/><text fill="#000000" font-family="sans-serif" font-size="20" font-weight="bold" lengthAdjust="spacing" textLength="101" x="15" y="851.1367">[if House]</text><polygon fill="#181818" points="70,976.1289,60,980.1289,70,984.1289,66,980.1289" style="stroke:#181818;stroke-width:1.0;"/><line style="stroke:#181818;stroke-width:1.0;" x1="64" x2="855" y1="980.1289" y2="980.1289"/><text fill="#000000" font-family="sans-serif" font-size="20" font-weight="bold" lengthAdjust="spacing" textLength="26" x="76" y="926.8008">12</text><text fill="#000000" font-family="sans-serif" font-size="20" lengthAdjust="spacing" textLength="709" x="106" y="879.6914">types requested data (area (in m2), location, distance from the city centre,</text><text fill="#000000" font-family="sans-serif" font-size="20" lengthAdjust="spacing" textLength="566" x="106" y="903.2461">requested price (USD), photographs, number of bedrooms,</text><text fill="#000000" font-family="sans-serif" font-size="20" lengthAdjust="spacing" textLength="479" x="106" y="926.8008">number of bathrooms, number of parking spaces,</text><text fill="#000000" font-family="sans-serif" font-size="20" lengthAdjust="spacing" textLength="701" x="106" y="950.3555">any available equipment (such as central heating and/or air conditioning,</text><text fill="#000000" font-family="sans-serif" font-size="20" lengthAdjust="spacing" textLength="743" x="106" y="973.9102">existence of a basement, existence of an inhabitable loft, sun exposure value.</text><polygon fill="#181818" points="70,1020.6836,60,1024.6836,70,1028.6836,66,1024.6836" style="stroke:#181818;stroke-width:1.0;"/><line style="stroke:#181818;stroke-width:1.0;stroke-dasharray:2.0,2.0;" x1="64" x2="860" y1="1024.6836" y2="1024.6836"/><text fill="#000000" font-family="sans-serif" font-size="20" font-weight="bold" lengthAdjust="spacing" textLength="26" x="76" y="1018.4648">13</text><text fill="#000000" font-family="sans-serif" font-size="20" lengthAdjust="spacing" textLength="201" x="106" y="1018.4648">displays list of Agent</text><polygon fill="#181818" points="844,1058.2383,854,1062.2383,844,1066.2383,848,1062.2383" style="stroke:#181818;stroke-width:1.0;"/><line style="stroke:#181818;stroke-width:1.0;" x1="59" x2="850" y1="1062.2383" y2="1062.2383"/><text fill="#000000" font-family="sans-serif" font-size="20" font-weight="bold" lengthAdjust="spacing" textLength="26" x="66" y="1056.0195">14</text><text fill="#000000" font-family="sans-serif" font-size="20" lengthAdjust="spacing" textLength="224" x="96" y="1056.0195">submits selected Agent</text><polygon fill="#181818" points="70,1095.793,60,1099.793,70,1103.793,66,1099.793" style="stroke:#181818;stroke-width:1.0;"/><line style="stroke:#181818;stroke-width:1.0;stroke-dasharray:2.0,2.0;" x1="64" x2="860" y1="1099.793" y2="1099.793"/><text fill="#000000" font-family="sans-serif" font-size="20" font-weight="bold" lengthAdjust="spacing" textLength="26" x="76" y="1093.5742">15</text><text fill="#000000" font-family="sans-serif" font-size="20" lengthAdjust="spacing" textLength="256" x="106" y="1093.5742">displays operation success</text><polygon fill="#181818" points="1059,1133.3477,1069,1137.3477,1059,1141.3477,1063,1137.3477" style="stroke:#181818;stroke-width:1.0;"/><line style="stroke:#181818;stroke-width:1.0;stroke-dasharray:2.0,2.0;" x1="861" x2="1065" y1="1137.3477" y2="1137.3477"/><text fill="#000000" font-family="sans-serif" font-size="20" font-weight="bold" lengthAdjust="spacing" textLength="26" x="868" y="1131.1289">16</text><text fill="#000000" font-family="sans-serif" font-size="20" lengthAdjust="spacing" textLength="156" x="898" y="1131.1289">Submit property</text><!--SRC=[xLN1Rjim3BtdAuXUbW1kD_JOmu02nR33W08pTik5iUXOY4nv4fqs-_fHifraQxCiGu_h8PKbYdny99_YndA70LldgmqPC5HZx-IJPodj3uBR3xCucK3hsLTDy2s1X9wEJZgiDhYcKdQE850bo6jtR10RDFx9yXfgT95cCx6YfkKk2hLGqlUUk29uiBXEvlEoV5Z0DTmxeS0eTalmo7eDU_7SjoiAkgx41xXwV68ALu0Hycgc0SLMjaCMkBeR8kJZOVdR-VsQMF9nNcMlTej2exSPZ7_v4wu_JfZleEnNhHL0JLZXHu5QuJWR9QM9q0NVKP1TtewesUh_a68aT_im8wfzdD7zjKOQGjvD_iS4mQ1WDZTqqijBjBBhA4wkKgNL2ymPMogWigB5vdSHAWm61e8BMBBWy_uBZGaKOm7KedM7poLNsYsA18GSTOrd6kyiRluzrGGNV3rjdChtueJBiH1VjH2Br-4Dkqx0rjdi9U0Hxnuk90P2ei3qGRlLSxv2gTDF07mTtt2DpMKSJPtsLarndqQ4MaszWC- -ZzeXNv3DudGrHxQIrH_OUZqQ1j9Voz3UBWfG7Se4fhuoEakOPA5MpG5fA3Ng3Ye55XJJmL4Nh5hDlwbef7lQW-9LHxecBlQ5IFWEYRqLo3CGbtm2v174OfoMLCaLcU1z6uib7ssYDCFkaQLciaaw4rLwATaZxm2tEfcuqWxNgBPBYS8yzbMJz2rZGWSDuQ1GRDxh8A0DgNsDJGdf_ZYq4sMv_l_PEiLM0atFcbP-lZGIAe0upiwl1moM6rnPoI6ThzKYzgnMdOzz8DYYw-dcRoH0UUmSxc9-RPBpuUswUFnZVi4YH1NkAh5-y7E9QE_X91dAfLRFbH8Tpq4wSfP37rxLCvhs4m00]--></g></svg>