<?xml version="1.0" encoding="UTF-8" standalone="no"?><svg xmlns="http://www.w3.org/2000/svg" xmlns:xlink="http://www.w3.org/1999/xlink" contentStyleType="text/css" height="1356px" preserveAspectRatio="none" style="width:1115px;height:1356px;background:#FFFFFF;" version="1.1" viewBox="0 0 1115 1356" width="1115px" zoomAndPan="magnify"><defs/><g><text fill="#000000" font-family="sans-serif" font-size="14" font-weight="bold" lengthAdjust="spacing" textLength="363" x="375" y="28.5352">System Sequence Diagram (SSD) - Alternative One</text><rect fill="#FFFFFF" height="1122.9688" style="stroke:#181818;stroke-width:1.0;" width="10" x="49" y="136.043"/><rect fill="#FFFFFF" height="37.5547" style="stroke:#181818;stroke-width:1.0;" width="10" x="856" y="165.5977"/><rect fill="#FFFFFF" height="37.5547" style="stroke:#181818;stroke-width:1.0;" width="10" x="856" y="240.707"/><rect fill="#FFFFFF" height="37.5547" style="stroke:#181818;stroke-width:1.0;" width="10" x="856" y="315.8164"/><rect fill="#FFFFFF" height="37.5547" style="stroke:#181818;stroke-width:1.0;" width="10" x="856" y="438.0352"/><rect fill="#FFFFFF" height="78.6641" style="stroke:#181818;stroke-width:1.0;" width="10" x="856" y="513.1445"/><rect fill="#FFFFFF" height="44.5547" style="stroke:#181818;stroke-width:1.0;" width="10" x="856" y="631.3633"/><rect fill="#FFFFFF" height="37.5547" style="stroke:#181818;stroke-width:1.0;" width="10" x="856" y="713.4727"/><rect fill="#FFFFFF" height="335.6563" style="stroke:#181818;stroke-width:1.0;" width="10" x="856" y="876.8008"/><rect fill="none" height="111.2188" style="stroke:#000000;stroke-width:1.5;" width="905" x="10" y="528.1445"/><rect fill="none" height="409.875" style="stroke:#000000;stroke-width:1.5;" width="905" x="10" y="766.0273"/><line style="stroke:#181818;stroke-width:0.5;stroke-dasharray:5.0,5.0;" x1="54" x2="54" y1="126.043" y2="1268.0117"/><line style="stroke:#181818;stroke-width:0.5;stroke-dasharray:5.0,5.0;" x1="861" x2="861" y1="126.043" y2="1268.0117"/><line style="stroke:#181818;stroke-width:0.5;stroke-dasharray:5.0,5.0;" x1="1071" x2="1071" y1="126.043" y2="1268.0117"/><text fill="#000000" font-family="sans-serif" font-size="20" lengthAdjust="spacing" textLength="62" x="20" y="121.8242">Owner</text><ellipse cx="54" cy="50.9883" fill="#E3E3E3" rx="8" ry="8" style="stroke:#181818;stroke-width:0.5;"/><path d="M54,58.9883 L54,85.9883 M41,66.9883 L67,66.9883 M54,85.9883 L41,100.9883 M54,85.9883 L67,100.9883 " fill="none" style="stroke:#181818;stroke-width:0.5;"/><text fill="#000000" font-family="sans-serif" font-size="20" lengthAdjust="spacing" textLength="62" x="20" y="1286.3477">Owner</text><ellipse cx="54" cy="1299.0664" fill="#E3E3E3" rx="8" ry="8" style="stroke:#181818;stroke-width:0.5;"/><path d="M54,1307.0664 L54,1334.0664 M41,1315.0664 L67,1315.0664 M54,1334.0664 L41,1349.0664 M54,1334.0664 L67,1349.0664 " fill="none" style="stroke:#181818;stroke-width:0.5;"/><rect fill="#E3E3E3" height="37.5547" rx="2.5" ry="2.5" style="stroke:#181818;stroke-width:0.5;" width="88" x="817" y="87.4883"/><text fill="#000000" font-family="sans-serif" font-size="20" lengthAdjust="spacing" textLength="74" x="824" y="113.8242">:System</text><rect fill="#E3E3E3" height="37.5547" rx="2.5" ry="2.5" style="stroke:#181818;stroke-width:0.5;" width="88" x="817" y="1267.0117"/><text fill="#000000" font-family="sans-serif" font-size="20" lengthAdjust="spacing" textLength="74" x="824" y="1293.3477">:System</text><rect fill="#E3E3E3" height="37.5547" rx="2.5" ry="2.5" style="stroke:#181818;stroke-width:0.5;" width="76" x="1033" y="87.4883"/><text fill="#000000" font-family="sans-serif" font-size="20" lengthAdjust="spacing" textLength="62" x="1040" y="113.8242">:Agent</text><rect fill="#E3E3E3" height="37.5547" rx="2.5" ry="2.5" style="stroke:#181818;stroke-width:0.5;" width="76" x="1033" y="1267.0117"/><text fill="#000000" font-family="sans-serif" font-size="20" lengthAdjust="spacing" textLength="62" x="1040" y="1293.3477">:Agent</text><rect fill="#FFFFFF" height="1122.9688" style="stroke:#181818;stroke-width:1.0;" width="10" x="49" y="136.043"/><rect fill="#FFFFFF" height="37.5547" style="stroke:#181818;stroke-width:1.0;" width="10" x="856" y="165.5977"/><rect fill="#FFFFFF" height="37.5547" style="stroke:#181818;stroke-width:1.0;" width="10" x="856" y="240.707"/><rect fill="#FFFFFF" height="37.5547" style="stroke:#181818;stroke-width:1.0;" width="10" x="856" y="315.8164"/><rect fill="#FFFFFF" height="37.5547" style="stroke:#181818;stroke-width:1.0;" width="10" x="856" y="438.0352"/><rect fill="#FFFFFF" height="78.6641" style="stroke:#181818;stroke-width:1.0;" width="10" x="856" y="513.1445"/><rect fill="#FFFFFF" height="44.5547" style="stroke:#181818;stroke-width:1.0;" width="10" x="856" y="631.3633"/><rect fill="#FFFFFF" height="37.5547" style="stroke:#181818;stroke-width:1.0;" width="10" x="856" y="713.4727"/><rect fill="#FFFFFF" height="335.6563" style="stroke:#181818;stroke-width:1.0;" width="10" x="856" y="876.8008"/><polygon fill="#181818" points="844,161.5977,854,165.5977,844,169.5977,848,165.5977" style="stroke:#181818;stroke-width:1.0;"/><line style="stroke:#181818;stroke-width:1.0;" x1="59" x2="850" y1="165.5977" y2="165.5977"/><text fill="#000000" font-family="sans-serif" font-size="20" font-weight="bold" lengthAdjust="spacing" textLength="13" x="66" y="159.3789">1</text><text fill="#000000" font-family="sans-serif" font-size="20" lengthAdjust="spacing" textLength="224" x="83" y="159.3789">displays list of Agencys</text><polygon fill="#181818" points="70,199.1523,60,203.1523,70,207.1523,66,203.1523" style="stroke:#181818;stroke-width:1.0;"/><line style="stroke:#181818;stroke-width:1.0;stroke-dasharray:2.0,2.0;" x1="64" x2="860" y1="203.1523" y2="203.1523"/><text fill="#000000" font-family="sans-serif" font-size="20" font-weight="bold" lengthAdjust="spacing" textLength="13" x="76" y="196.9336">2</text><text fill="#000000" font-family="sans-serif" font-size="20" lengthAdjust="spacing" textLength="237" x="93" y="196.9336">submits selected Agency</text><polygon fill="#181818" points="844,236.707,854,240.707,844,244.707,848,240.707" style="stroke:#181818;stroke-width:1.0;"/><line style="stroke:#181818;stroke-width:1.0;" x1="59" x2="850" y1="240.707" y2="240.707"/><text fill="#000000" font-family="sans-serif" font-size="20" font-weight="bold" lengthAdjust="spacing" textLength="13" x="66" y="234.4883">3</text><text fill="#000000" font-family="sans-serif" font-size="20" lengthAdjust="spacing" textLength="201" x="83" y="234.4883">displays list of Agent</text><polygon fill="#181818" points="70,274.2617,60,278.2617,70,282.2617,66,278.2617" style="stroke:#181818;stroke-width:1.0;"/><line style="stroke:#181818;stroke-width:1.0;stroke-dasharray:2.0,2.0;" x1="64" x2="860" y1="278.2617" y2="278.2617"/><text fill="#000000" font-family="sans-serif" font-size="20" font-weight="bold" lengthAdjust="spacing" textLength="13" x="76" y="272.043">4</text><text fill="#000000" font-family="sans-serif" font-size="20" lengthAdjust="spacing" textLength="224" x="93" y="272.043">submits selected Agent</text><polygon fill="#181818" points="844,311.8164,854,315.8164,844,319.8164,848,315.8164" style="stroke:#181818;stroke-width:1.0;"/><line style="stroke:#181818;stroke-width:1.0;" x1="59" x2="850" y1="315.8164" y2="315.8164"/><text fill="#000000" font-family="sans-serif" font-size="20" font-weight="bold" lengthAdjust="spacing" textLength="13" x="66" y="309.5977">5</text><text fill="#000000" font-family="sans-serif" font-size="20" lengthAdjust="spacing" textLength="513" x="83" y="309.5977">Submit a request for listing a property for sale or rent</text><polygon fill="#181818" points="70,349.3711,60,353.3711,70,357.3711,66,353.3711" style="stroke:#181818;stroke-width:1.0;"/><line style="stroke:#181818;stroke-width:1.0;stroke-dasharray:2.0,2.0;" x1="64" x2="860" y1="353.3711" y2="353.3711"/><text fill="#000000" font-family="sans-serif" font-size="20" font-weight="bold" lengthAdjust="spacing" textLength="13" x="76" y="347.1523">6</text><text fill="#000000" font-family="sans-serif" font-size="20" lengthAdjust="spacing" textLength="198" x="93" y="347.1523">requests Owner data</text><polygon fill="#181818" points="844,434.0352,854,438.0352,844,442.0352,848,438.0352" style="stroke:#181818;stroke-width:1.0;"/><line style="stroke:#181818;stroke-width:1.0;" x1="59" x2="850" y1="438.0352" y2="438.0352"/><text fill="#000000" font-family="sans-serif" font-size="20" font-weight="bold" lengthAdjust="spacing" textLength="13" x="66" y="408.2617">7</text><text fill="#000000" font-family="sans-serif" font-size="20" lengthAdjust="spacing" textLength="492" x="83" y="384.707">types requested data (name, citizen's card number,</text><text fill="#000000" font-family="sans-serif" font-size="20" lengthAdjust="spacing" textLength="352" x="83" y="408.2617">tax number, address, email address,</text><text fill="#000000" font-family="sans-serif" font-size="20" lengthAdjust="spacing" textLength="264" x="83" y="431.8164">contact telephone number).</text><polygon fill="#181818" points="70,471.5898,60,475.5898,70,479.5898,66,475.5898" style="stroke:#181818;stroke-width:1.0;"/><line style="stroke:#181818;stroke-width:1.0;stroke-dasharray:2.0,2.0;" x1="64" x2="860" y1="475.5898" y2="475.5898"/><text fill="#000000" font-family="sans-serif" font-size="20" font-weight="bold" lengthAdjust="spacing" textLength="13" x="76" y="469.3711">8</text><text fill="#000000" font-family="sans-serif" font-size="20" lengthAdjust="spacing" textLength="232" x="93" y="469.3711">requests type of request</text><polygon fill="#181818" points="844,509.1445,854,513.1445,844,517.1445,848,513.1445" style="stroke:#181818;stroke-width:1.0;"/><line style="stroke:#181818;stroke-width:1.0;" x1="59" x2="850" y1="513.1445" y2="513.1445"/><text fill="#000000" font-family="sans-serif" font-size="20" font-weight="bold" lengthAdjust="spacing" textLength="13" x="66" y="506.9258">9</text><text fill="#000000" font-family="sans-serif" font-size="20" lengthAdjust="spacing" textLength="335" x="83" y="506.9258">types requested data (Sale or Rent)</text><path d="M10,528.1445 L82,528.1445 L82,543.6992 L72,553.6992 L10,553.6992 L10,528.1445 " fill="#EEEEEE" style="stroke:#000000;stroke-width:1.5;"/><rect fill="none" height="111.2188" style="stroke:#000000;stroke-width:1.5;" width="905" x="10" y="528.1445"/><text fill="#000000" font-family="sans-serif" font-size="20" font-weight="bold" lengthAdjust="spacing" textLength="27" x="25" y="548.4805">alt</text><text fill="#000000" font-family="sans-serif" font-size="20" font-weight="bold" lengthAdjust="spacing" textLength="83" x="97" y="549.4805">[if Rent]</text><polygon fill="#181818" points="70,587.8086,60,591.8086,70,595.8086,66,591.8086" style="stroke:#181818;stroke-width:1.0;"/><line style="stroke:#181818;stroke-width:1.0;" x1="64" x2="860" y1="591.8086" y2="591.8086"/><text fill="#000000" font-family="sans-serif" font-size="20" font-weight="bold" lengthAdjust="spacing" textLength="26" x="76" y="585.5898">10</text><text fill="#000000" font-family="sans-serif" font-size="20" lengthAdjust="spacing" textLength="242" x="106" y="585.5898">request contract duration</text><line style="stroke:#000000;stroke-width:1.0;stroke-dasharray:2.0,2.0;" x1="10" x2="915" y1="600.8086" y2="600.8086"/><polygon fill="#181818" points="844,627.3633,854,631.3633,844,635.3633,848,631.3633" style="stroke:#181818;stroke-width:1.0;"/><line style="stroke:#181818;stroke-width:1.0;" x1="59" x2="850" y1="631.3633" y2="631.3633"/><text fill="#000000" font-family="sans-serif" font-size="20" font-weight="bold" lengthAdjust="spacing" textLength="26" x="66" y="625.1445">11</text><text fill="#000000" font-family="sans-serif" font-size="20" lengthAdjust="spacing" textLength="201" x="96" y="625.1445">types requested data</text><polygon fill="#181818" points="70,671.918,60,675.918,70,679.918,66,675.918" style="stroke:#181818;stroke-width:1.0;"/><line style="stroke:#181818;stroke-width:1.0;stroke-dasharray:2.0,2.0;" x1="64" x2="860" y1="675.918" y2="675.918"/><text fill="#000000" font-family="sans-serif" font-size="20" font-weight="bold" lengthAdjust="spacing" textLength="26" x="76" y="669.6992">12</text><text fill="#000000" font-family="sans-serif" font-size="20" lengthAdjust="spacing" textLength="242" x="106" y="669.6992">requests type of property</text><polygon fill="#181818" points="844,709.4727,854,713.4727,844,717.4727,848,713.4727" style="stroke:#181818;stroke-width:1.0;"/><line style="stroke:#181818;stroke-width:1.0;" x1="59" x2="850" y1="713.4727" y2="713.4727"/><text fill="#000000" font-family="sans-serif" font-size="20" font-weight="bold" lengthAdjust="spacing" textLength="26" x="66" y="707.2539">13</text><text fill="#000000" font-family="sans-serif" font-size="20" lengthAdjust="spacing" textLength="465" x="96" y="707.2539">types requested data (Apartement, House, Land)</text><polygon fill="#181818" points="70,747.0273,60,751.0273,70,755.0273,66,751.0273" style="stroke:#181818;stroke-width:1.0;"/><line style="stroke:#181818;stroke-width:1.0;stroke-dasharray:2.0,2.0;" x1="64" x2="860" y1="751.0273" y2="751.0273"/><text fill="#000000" font-family="sans-serif" font-size="20" font-weight="bold" lengthAdjust="spacing" textLength="26" x="76" y="744.8086">14</text><text fill="#000000" font-family="sans-serif" font-size="20" lengthAdjust="spacing" textLength="243" x="106" y="744.8086">requests data of property</text><path d="M10,766.0273 L82,766.0273 L82,781.582 L72,791.582 L10,791.582 L10,766.0273 " fill="#EEEEEE" style="stroke:#000000;stroke-width:1.5;"/><rect fill="none" height="409.875" style="stroke:#000000;stroke-width:1.5;" width="905" x="10" y="766.0273"/><text fill="#000000" font-family="sans-serif" font-size="20" font-weight="bold" lengthAdjust="spacing" textLength="27" x="25" y="786.3633">alt</text><text fill="#000000" font-family="sans-serif" font-size="20" font-weight="bold" lengthAdjust="spacing" textLength="86" x="97" y="787.3633">[if Land]</text><polygon fill="#181818" points="844,872.8008,854,876.8008,844,880.8008,848,876.8008" style="stroke:#181818;stroke-width:1.0;"/><line style="stroke:#181818;stroke-width:1.0;" x1="59" x2="850" y1="876.8008" y2="876.8008"/><text fill="#000000" font-family="sans-serif" font-size="20" font-weight="bold" lengthAdjust="spacing" textLength="26" x="66" y="847.0273">15</text><text fill="#000000" font-family="sans-serif" font-size="20" lengthAdjust="spacing" textLength="430" x="96" y="823.4727">Select requested data (area (in m2), location,</text><text fill="#000000" font-family="sans-serif" font-size="20" lengthAdjust="spacing" textLength="500" x="96" y="847.0273">distance from the city centre, requested price (USD),</text><text fill="#000000" font-family="sans-serif" font-size="20" lengthAdjust="spacing" textLength="129" x="96" y="870.582">photographs)</text><line style="stroke:#000000;stroke-width:1.0;stroke-dasharray:2.0,2.0;" x1="10" x2="915" y1="885.8008" y2="885.8008"/><text fill="#000000" font-family="sans-serif" font-size="20" font-weight="bold" lengthAdjust="spacing" textLength="157" x="15" y="905.1367">[if Apartement]</text><polygon fill="#181818" points="844,1006.5742,854,1010.5742,844,1014.5742,848,1010.5742" style="stroke:#181818;stroke-width:1.0;"/><line style="stroke:#181818;stroke-width:1.0;" x1="59" x2="850" y1="1010.5742" y2="1010.5742"/><text fill="#000000" font-family="sans-serif" font-size="20" font-weight="bold" lengthAdjust="spacing" textLength="26" x="66" y="969.0234">16</text><text fill="#000000" font-family="sans-serif" font-size="20" lengthAdjust="spacing" textLength="714" x="96" y="933.6914">Select requested data (area (in m2), location, distance from the city centre,</text><text fill="#000000" font-family="sans-serif" font-size="20" lengthAdjust="spacing" textLength="566" x="96" y="957.2461">requested price (USD), photographs, number of bedrooms,</text><text fill="#000000" font-family="sans-serif" font-size="20" lengthAdjust="spacing" textLength="479" x="96" y="980.8008">number of bathrooms, number of parking spaces,</text><text fill="#000000" font-family="sans-serif" font-size="20" lengthAdjust="spacing" textLength="708" x="96" y="1004.3555">any available equipment (such as central heating and/or air conditioning).</text><line style="stroke:#000000;stroke-width:1.0;stroke-dasharray:2.0,2.0;" x1="10" x2="915" y1="1019.5742" y2="1019.5742"/><text fill="#000000" font-family="sans-serif" font-size="20" font-weight="bold" lengthAdjust="spacing" textLength="101" x="15" y="1038.9102">[if House]</text><polygon fill="#181818" points="844,1163.9023,854,1167.9023,844,1171.9023,848,1167.9023" style="stroke:#181818;stroke-width:1.0;"/><line style="stroke:#181818;stroke-width:1.0;" x1="59" x2="850" y1="1167.9023" y2="1167.9023"/><text fill="#000000" font-family="sans-serif" font-size="20" font-weight="bold" lengthAdjust="spacing" textLength="26" x="66" y="1114.5742">17</text><text fill="#000000" font-family="sans-serif" font-size="20" lengthAdjust="spacing" textLength="714" x="96" y="1067.4648">Select requested data (area (in m2), location, distance from the city centre,</text><text fill="#000000" font-family="sans-serif" font-size="20" lengthAdjust="spacing" textLength="566" x="96" y="1091.0195">requested price (USD), photographs, number of bedrooms,</text><text fill="#000000" font-family="sans-serif" font-size="20" lengthAdjust="spacing" textLength="479" x="96" y="1114.5742">number of bathrooms, number of parking spaces,</text><text fill="#000000" font-family="sans-serif" font-size="20" lengthAdjust="spacing" textLength="701" x="96" y="1138.1289">any available equipment (such as central heating and/or air conditioning,</text><text fill="#000000" font-family="sans-serif" font-size="20" lengthAdjust="spacing" textLength="743" x="96" y="1161.6836">existence of a basement, existence of an inhabitable loft, sun exposure value.</text><polygon fill="#181818" points="70,1208.457,60,1212.457,70,1216.457,66,1212.457" style="stroke:#181818;stroke-width:1.0;"/><line style="stroke:#181818;stroke-width:1.0;stroke-dasharray:2.0,2.0;" x1="64" x2="860" y1="1212.457" y2="1212.457"/><text fill="#000000" font-family="sans-serif" font-size="20" font-weight="bold" lengthAdjust="spacing" textLength="26" x="76" y="1206.2383">18</text><text fill="#000000" font-family="sans-serif" font-size="20" lengthAdjust="spacing" textLength="256" x="106" y="1206.2383">displays operation success</text><polygon fill="#181818" points="1059,1246.0117,1069,1250.0117,1059,1254.0117,1063,1250.0117" style="stroke:#181818;stroke-width:1.0;"/><line style="stroke:#181818;stroke-width:1.0;stroke-dasharray:2.0,2.0;" x1="861" x2="1065" y1="1250.0117" y2="1250.0117"/><text fill="#000000" font-family="sans-serif" font-size="20" font-weight="bold" lengthAdjust="spacing" textLength="26" x="868" y="1243.793">19</text><text fill="#000000" font-family="sans-serif" font-size="20" lengthAdjust="spacing" textLength="156" x="898" y="1243.793">Submit property</text><!--SRC=[xLOzRzim4DtzAmvPQWDAMcJqK210K7Ge4A12DozdyMGHfaYLF3bHVtsFr8VTsexZ8cCzs19vVFVktGSTjjeswB4shjYI0aKbjeQ_ECkv_aLm_saMHXEedNL5vLrDmBwbWvq6YorkAEVE47Wg6Et671g42fLxrdO39Pf0inbh5jEy2qmrvFIp9LiGF6hSHFDvdZyku1OU39Eto7f7y6Jb6BRiR5kloSjpmSx3pTEp9Ny3620zpSGXwq8tQ1bkbhs7jDq__hN_i27BQJiz9LIzGwO1RGR39xt2xUUHynAK3et1Be3HWS6L2Q7eGZeomGnU9vpX-AqWzP3BqAvhpG426L5Eaj3Zf1EApW8T4Jh9XtlxDzDPmaaw0ymrT21FG81I499UeLHAkYAtM0O8ZNSDUUxISa2f1ldrewihz1lnXm80XOnNYmVSDHH6gDW9WW9pYpLbK6YMPh0V0XJe5VG5cC7AChvCRwYKfn0oe1grsR-kR27T94o0HT6cSfQ6CukxVmyrqeqv7XREnNjrmFcGYE-IYCLfUlsgOT1bCZicFDNIcFceW8yIgDPBDpix7Jdc75SfpeWpr4ypdwnFmbbrdQfZRRvN6Jt4eKErY9N1LzS6gQblQDNYzVnVOfkmtyXso5VqEZklR9vw_eW-Uf9lRQ6-NsGWLqNAOInjcJaowsLobt8j05SKUwM3GYBr4kGUgF5QhEO_PAx7Sz86x6JKDrKuBS9O1P7qNhrtOtw1zygUONx0EnkwE6PWJSexLuTiPGyMaQj-zS1IGjd6-HVaogHeZxO3tCd4mBLqddZLJOmKvg4jgdWl9Kvee2Bi9wTL7wL1KVlOLah7W6Hz62QZPgdA_ijrLgv8cbuahFI_GpoX40X3Y_wvOK7R2jUQaqlZIh48hHMhneNM4-pGj7JtfaaptT6nOvEu0bL8QE7Ig3a0InVo_eAzqFw_0G00]--></g></svg>