<?xml version="1.0" encoding="UTF-8" standalone="no"?><svg xmlns="http://www.w3.org/2000/svg" xmlns:xlink="http://www.w3.org/1999/xlink" contentStyleType="text/css" height="1111px" preserveAspectRatio="none" style="width:894px;height:1111px;background:#FFFFFF;" version="1.1" viewBox="0 0 894 1111" width="894px" zoomAndPan="magnify"><defs/><g><text fill="#000000" font-family="sans-serif" font-size="14" font-weight="bold" lengthAdjust="spacing" textLength="363" x="266.5" y="28.5352">System Sequence Diagram (SSD) - Alternative One</text><rect fill="#FFFFFF" height="878.5313" style="stroke:#181818;stroke-width:1.0;" width="10" x="49" y="136.043"/><rect fill="#FFFFFF" height="37.5547" style="stroke:#181818;stroke-width:1.0;" width="10" x="828" y="165.5977"/><rect fill="#FFFFFF" height="37.5547" style="stroke:#181818;stroke-width:1.0;" width="10" x="828" y="287.8164"/><rect fill="#FFFFFF" height="162.7734" style="stroke:#181818;stroke-width:1.0;" width="10" x="828" y="362.9258"/><rect fill="#FFFFFF" height="367.2109" style="stroke:#181818;stroke-width:1.0;" width="10" x="828" y="563.2539"/><rect fill="#FFFFFF" height="37.5547" style="stroke:#181818;stroke-width:1.0;" width="10" x="828" y="968.0195"/><rect fill="none" height="111.2188" style="stroke:#000000;stroke-width:1.5;" width="877" x="10" y="377.9258"/><rect fill="none" height="315.6563" style="stroke:#000000;stroke-width:1.5;" width="877" x="10" y="578.2539"/><line style="stroke:#181818;stroke-width:0.5;stroke-dasharray:5.0,5.0;" x1="54" x2="54" y1="126.043" y2="1023.5742"/><line style="stroke:#181818;stroke-width:0.5;stroke-dasharray:5.0,5.0;" x1="833" x2="833" y1="126.043" y2="1023.5742"/><text fill="#000000" font-family="sans-serif" font-size="20" lengthAdjust="spacing" textLength="62" x="20" y="121.8242">Owner</text><ellipse cx="54" cy="50.9883" fill="#E3E3E3" rx="8" ry="8" style="stroke:#181818;stroke-width:0.5;"/><path d="M54,58.9883 L54,85.9883 M41,66.9883 L67,66.9883 M54,85.9883 L41,100.9883 M54,85.9883 L67,100.9883 " fill="none" style="stroke:#181818;stroke-width:0.5;"/><text fill="#000000" font-family="sans-serif" font-size="20" lengthAdjust="spacing" textLength="62" x="20" y="1041.9102">Owner</text><ellipse cx="54" cy="1054.6289" fill="#E3E3E3" rx="8" ry="8" style="stroke:#181818;stroke-width:0.5;"/><path d="M54,1062.6289 L54,1089.6289 M41,1070.6289 L67,1070.6289 M54,1089.6289 L41,1104.6289 M54,1089.6289 L67,1104.6289 " fill="none" style="stroke:#181818;stroke-width:0.5;"/><rect fill="#E3E3E3" height="37.5547" rx="2.5" ry="2.5" style="stroke:#181818;stroke-width:0.5;" width="88" x="789" y="87.4883"/><text fill="#000000" font-family="sans-serif" font-size="20" lengthAdjust="spacing" textLength="74" x="796" y="113.8242">:System</text><rect fill="#E3E3E3" height="37.5547" rx="2.5" ry="2.5" style="stroke:#181818;stroke-width:0.5;" width="88" x="789" y="1022.5742"/><text fill="#000000" font-family="sans-serif" font-size="20" lengthAdjust="spacing" textLength="74" x="796" y="1048.9102">:System</text><rect fill="#FFFFFF" height="878.5313" style="stroke:#181818;stroke-width:1.0;" width="10" x="49" y="136.043"/><rect fill="#FFFFFF" height="37.5547" style="stroke:#181818;stroke-width:1.0;" width="10" x="828" y="165.5977"/><rect fill="#FFFFFF" height="37.5547" style="stroke:#181818;stroke-width:1.0;" width="10" x="828" y="287.8164"/><rect fill="#FFFFFF" height="162.7734" style="stroke:#181818;stroke-width:1.0;" width="10" x="828" y="362.9258"/><rect fill="#FFFFFF" height="367.2109" style="stroke:#181818;stroke-width:1.0;" width="10" x="828" y="563.2539"/><rect fill="#FFFFFF" height="37.5547" style="stroke:#181818;stroke-width:1.0;" width="10" x="828" y="968.0195"/><polygon fill="#181818" points="816,161.5977,826,165.5977,816,169.5977,820,165.5977" style="stroke:#181818;stroke-width:1.0;"/><line style="stroke:#181818;stroke-width:1.0;" x1="59" x2="822" y1="165.5977" y2="165.5977"/><text fill="#000000" font-family="sans-serif" font-size="20" font-weight="bold" lengthAdjust="spacing" textLength="13" x="66" y="159.3789">1</text><text fill="#000000" font-family="sans-serif" font-size="20" lengthAdjust="spacing" textLength="513" x="83" y="159.3789">Submit a request for listing a property for sale or rent</text><polygon fill="#181818" points="70,199.1523,60,203.1523,70,207.1523,66,203.1523" style="stroke:#181818;stroke-width:1.0;"/><line style="stroke:#181818;stroke-width:1.0;stroke-dasharray:2.0,2.0;" x1="64" x2="832" y1="203.1523" y2="203.1523"/><text fill="#000000" font-family="sans-serif" font-size="20" font-weight="bold" lengthAdjust="spacing" textLength="13" x="76" y="196.9336">2</text><text fill="#000000" font-family="sans-serif" font-size="20" lengthAdjust="spacing" textLength="198" x="93" y="196.9336">requests Owner data</text><polygon fill="#181818" points="816,283.8164,826,287.8164,816,291.8164,820,287.8164" style="stroke:#181818;stroke-width:1.0;"/><line style="stroke:#181818;stroke-width:1.0;" x1="59" x2="822" y1="287.8164" y2="287.8164"/><text fill="#000000" font-family="sans-serif" font-size="20" font-weight="bold" lengthAdjust="spacing" textLength="13" x="66" y="258.043">3</text><text fill="#000000" font-family="sans-serif" font-size="20" lengthAdjust="spacing" textLength="492" x="83" y="234.4883">types requested data (name, citizen's card number,</text><text fill="#000000" font-family="sans-serif" font-size="20" lengthAdjust="spacing" textLength="352" x="83" y="258.043">tax number, address, email address,</text><text fill="#000000" font-family="sans-serif" font-size="20" lengthAdjust="spacing" textLength="264" x="83" y="281.5977">contact telephone number).</text><polygon fill="#181818" points="70,321.3711,60,325.3711,70,329.3711,66,325.3711" style="stroke:#181818;stroke-width:1.0;"/><line style="stroke:#181818;stroke-width:1.0;stroke-dasharray:2.0,2.0;" x1="64" x2="832" y1="325.3711" y2="325.3711"/><text fill="#000000" font-family="sans-serif" font-size="20" font-weight="bold" lengthAdjust="spacing" textLength="13" x="76" y="319.1523">4</text><text fill="#000000" font-family="sans-serif" font-size="20" lengthAdjust="spacing" textLength="232" x="93" y="319.1523">requests type of request</text><polygon fill="#181818" points="816,358.9258,826,362.9258,816,366.9258,820,362.9258" style="stroke:#181818;stroke-width:1.0;"/><line style="stroke:#181818;stroke-width:1.0;" x1="59" x2="822" y1="362.9258" y2="362.9258"/><text fill="#000000" font-family="sans-serif" font-size="20" font-weight="bold" lengthAdjust="spacing" textLength="13" x="66" y="356.707">5</text><text fill="#000000" font-family="sans-serif" font-size="20" lengthAdjust="spacing" textLength="335" x="83" y="356.707">types requested data (Sale or Rent)</text><path d="M10,377.9258 L82,377.9258 L82,393.4805 L72,403.4805 L10,403.4805 L10,377.9258 " fill="#EEEEEE" style="stroke:#000000;stroke-width:1.5;"/><rect fill="none" height="111.2188" style="stroke:#000000;stroke-width:1.5;" width="877" x="10" y="377.9258"/><text fill="#000000" font-family="sans-serif" font-size="20" font-weight="bold" lengthAdjust="spacing" textLength="27" x="25" y="398.2617">alt</text><text fill="#000000" font-family="sans-serif" font-size="20" font-weight="bold" lengthAdjust="spacing" textLength="83" x="97" y="399.2617">[if Rent]</text><polygon fill="#181818" points="70,437.5898,60,441.5898,70,445.5898,66,441.5898" style="stroke:#181818;stroke-width:1.0;"/><line style="stroke:#181818;stroke-width:1.0;" x1="64" x2="827" y1="441.5898" y2="441.5898"/><text fill="#000000" font-family="sans-serif" font-size="20" font-weight="bold" lengthAdjust="spacing" textLength="13" x="76" y="435.3711">6</text><text fill="#000000" font-family="sans-serif" font-size="20" lengthAdjust="spacing" textLength="242" x="93" y="435.3711">request contract duration</text><line style="stroke:#000000;stroke-width:1.0;stroke-dasharray:2.0,2.0;" x1="10" x2="887" y1="450.5898" y2="450.5898"/><polygon fill="#181818" points="816,477.1445,826,481.1445,816,485.1445,820,481.1445" style="stroke:#181818;stroke-width:1.0;"/><line style="stroke:#181818;stroke-width:1.0;" x1="59" x2="822" y1="481.1445" y2="481.1445"/><text fill="#000000" font-family="sans-serif" font-size="20" font-weight="bold" lengthAdjust="spacing" textLength="13" x="66" y="474.9258">7</text><text fill="#000000" font-family="sans-serif" font-size="20" lengthAdjust="spacing" textLength="201" x="83" y="474.9258">types requested data</text><polygon fill="#181818" points="70,521.6992,60,525.6992,70,529.6992,66,525.6992" style="stroke:#181818;stroke-width:1.0;"/><line style="stroke:#181818;stroke-width:1.0;stroke-dasharray:2.0,2.0;" x1="64" x2="832" y1="525.6992" y2="525.6992"/><text fill="#000000" font-family="sans-serif" font-size="20" font-weight="bold" lengthAdjust="spacing" textLength="13" x="76" y="519.4805">8</text><text fill="#000000" font-family="sans-serif" font-size="20" lengthAdjust="spacing" textLength="242" x="93" y="519.4805">requests type of property</text><polygon fill="#181818" points="816,559.2539,826,563.2539,816,567.2539,820,563.2539" style="stroke:#181818;stroke-width:1.0;"/><line style="stroke:#181818;stroke-width:1.0;" x1="59" x2="822" y1="563.2539" y2="563.2539"/><text fill="#000000" font-family="sans-serif" font-size="20" font-weight="bold" lengthAdjust="spacing" textLength="13" x="66" y="557.0352">9</text><text fill="#000000" font-family="sans-serif" font-size="20" lengthAdjust="spacing" textLength="465" x="83" y="557.0352">types requested data (Apartement, House, Land)</text><path d="M10,578.2539 L82,578.2539 L82,593.8086 L72,603.8086 L10,603.8086 L10,578.2539 " fill="#EEEEEE" style="stroke:#000000;stroke-width:1.5;"/><rect fill="none" height="315.6563" style="stroke:#000000;stroke-width:1.5;" width="877" x="10" y="578.2539"/><text fill="#000000" font-family="sans-serif" font-size="20" font-weight="bold" lengthAdjust="spacing" textLength="27" x="25" y="598.5898">alt</text><text fill="#000000" font-family="sans-serif" font-size="20" font-weight="bold" lengthAdjust="spacing" textLength="86" x="97" y="599.5898">[if Land]</text><polygon fill="#181818" points="70,685.0273,60,689.0273,70,693.0273,66,689.0273" style="stroke:#181818;stroke-width:1.0;"/><line style="stroke:#181818;stroke-width:1.0;" x1="64" x2="827" y1="689.0273" y2="689.0273"/><text fill="#000000" font-family="sans-serif" font-size="20" font-weight="bold" lengthAdjust="spacing" textLength="26" x="76" y="659.2539">10</text><text fill="#000000" font-family="sans-serif" font-size="20" lengthAdjust="spacing" textLength="425" x="106" y="635.6992">types requested data (area (in m2), location,</text><text fill="#000000" font-family="sans-serif" font-size="20" lengthAdjust="spacing" textLength="500" x="106" y="659.2539">distance from the city centre, requested price (USD),</text><text fill="#000000" font-family="sans-serif" font-size="20" lengthAdjust="spacing" textLength="129" x="106" y="682.8086">photographs)</text><line style="stroke:#000000;stroke-width:1.0;stroke-dasharray:2.0,2.0;" x1="10" x2="887" y1="698.0273" y2="698.0273"/><text fill="#000000" font-family="sans-serif" font-size="20" font-weight="bold" lengthAdjust="spacing" textLength="157" x="15" y="717.3633">[if Apartement]</text><polygon fill="#181818" points="70,818.8008,60,822.8008,70,826.8008,66,822.8008" style="stroke:#181818;stroke-width:1.0;"/><line style="stroke:#181818;stroke-width:1.0;" x1="64" x2="827" y1="822.8008" y2="822.8008"/><text fill="#000000" font-family="sans-serif" font-size="20" font-weight="bold" lengthAdjust="spacing" textLength="26" x="76" y="781.25">11</text><text fill="#000000" font-family="sans-serif" font-size="20" lengthAdjust="spacing" textLength="709" x="106" y="745.918">types requested data (area (in m2), location, distance from the city centre,</text><text fill="#000000" font-family="sans-serif" font-size="20" lengthAdjust="spacing" textLength="566" x="106" y="769.4727">requested price (USD), photographs, number of bedrooms,</text><text fill="#000000" font-family="sans-serif" font-size="20" lengthAdjust="spacing" textLength="479" x="106" y="793.0273">number of bathrooms, number of parking spaces,</text><text fill="#000000" font-family="sans-serif" font-size="20" lengthAdjust="spacing" textLength="708" x="106" y="816.582">any available equipment (such as central heating and/or air conditioning).</text><line style="stroke:#000000;stroke-width:1.0;stroke-dasharray:2.0,2.0;" x1="10" x2="887" y1="831.8008" y2="831.8008"/><text fill="#000000" font-family="sans-serif" font-size="20" font-weight="bold" lengthAdjust="spacing" textLength="101" x="15" y="851.1367">[if House]</text><polygon fill="#181818" points="70,881.9102,60,885.9102,70,889.9102,66,885.9102" style="stroke:#181818;stroke-width:1.0;"/><line style="stroke:#181818;stroke-width:1.0;" x1="64" x2="827" y1="885.9102" y2="885.9102"/><text fill="#000000" font-family="sans-serif" font-size="20" font-weight="bold" lengthAdjust="spacing" textLength="26" x="76" y="879.6914">12</text><text fill="#000000" font-family="sans-serif" font-size="20" lengthAdjust="spacing" textLength="201" x="106" y="879.6914">types requested data</text><polygon fill="#181818" points="70,926.4648,60,930.4648,70,934.4648,66,930.4648" style="stroke:#181818;stroke-width:1.0;"/><line style="stroke:#181818;stroke-width:1.0;stroke-dasharray:2.0,2.0;" x1="64" x2="832" y1="930.4648" y2="930.4648"/><text fill="#000000" font-family="sans-serif" font-size="20" font-weight="bold" lengthAdjust="spacing" textLength="26" x="76" y="924.2461">13</text><text fill="#000000" font-family="sans-serif" font-size="20" lengthAdjust="spacing" textLength="6" x="106" y="924.2461"> </text><polygon fill="#181818" points="816,964.0195,826,968.0195,816,972.0195,820,968.0195" style="stroke:#181818;stroke-width:1.0;"/><line style="stroke:#181818;stroke-width:1.0;" x1="59" x2="822" y1="968.0195" y2="968.0195"/><text fill="#000000" font-family="sans-serif" font-size="20" font-weight="bold" lengthAdjust="spacing" textLength="26" x="66" y="961.8008">14</text><text fill="#000000" font-family="sans-serif" font-size="20" lengthAdjust="spacing" textLength="6" x="96" y="961.8008"> </text><polygon fill="#181818" points="70,1001.5742,60,1005.5742,70,1009.5742,66,1005.5742" style="stroke:#181818;stroke-width:1.0;"/><line style="stroke:#181818;stroke-width:1.0;stroke-dasharray:2.0,2.0;" x1="64" x2="832" y1="1005.5742" y2="1005.5742"/><text fill="#000000" font-family="sans-serif" font-size="20" font-weight="bold" lengthAdjust="spacing" textLength="26" x="76" y="999.3555">15</text><text fill="#000000" font-family="sans-serif" font-size="20" lengthAdjust="spacing" textLength="6" x="106" y="999.3555"> </text><!--SRC=[hLHDYzj03BtdLuXS6eFJbZtcK5XOIW-5XPhUSb4ySZp4rhWpShRkhw_6NmbTxxOfwqCoblNndkP9uMIvGOzrvV8J6J1KO5l9PyUIsLy4TnzNONA1sh7BI-zg0l4jNNrfC3_XaJBfAW9FkI0Vgsk7KA9nJvQFK60LQBKIA-gQTK6eXen-jCGvmOF5OtJVPDb30bkuhuGyezWpmIDh6BRYkAqFvFMSY_EmVdnYycl00FrffGN5vhP15bZlXWhzv-7Onzap2et-Az2dFyBsquHe1rbxgAq0AXq55mGABLRP8944GkDTGrwwtXnGkUY_9vO-tLnYgWdZCwRVQgMXv6xAFy87WuAzkw75BC-HIjTGcDB4EzGCi66iAONSYbuZlmkGepSmj2w5FGl-dD_G64yXf40rskhokkTSTQ0eGAYYfdHCOqpo_lzfHhZWYidm4jURo6RZ1NpJ2qYMeGtMIi0MlTjpi2FM6If4zZxIDwrN3JhkGoZgTuhz0-0olY6CpMtzcHJs5cAuZqD1jT9EuOjhWohZAx99Pa2BsSTkHSzNkhLS4JtfhsMexv8KTBlq3OoQCZf368Uzq4q2Kb8KQGUvWlEAwvAeyLQzDjzr5SGurPyutGvD6PBv8YA-2xct0laNY7j-0UGLn7ISb7YJ1pBUkJgaUxuoefI3zSfJcPpYVWcwK2dw8tU0PvrAFAZ2jQfj8b7OX3OlurBhCM459U6mcTXyq450wwDyZOs4r3uExDIoNWEtTUiYuZbkMSdpvt_LxEkhvFOYlm40]--></g></svg>