<?xml version="1.0" encoding="UTF-8" standalone="no"?><svg xmlns="http://www.w3.org/2000/svg" xmlns:xlink="http://www.w3.org/1999/xlink" contentStyleType="text/css" height="555px" preserveAspectRatio="none" style="width:834px;height:555px;background:#FFFFFF;" version="1.1" viewBox="0 0 834 555" width="834px" zoomAndPan="magnify"><defs/><g><text fill="#000000" font-family="sans-serif" font-size="14" font-weight="bold" lengthAdjust="spacing" textLength="231" x="303" y="28.5352">System Sequence Diagram (SSD)</text><rect fill="#FFFFFF" height="322.5469" style="stroke:#181818;stroke-width:1.0;" width="10" x="46" y="136.043"/><rect fill="#FFFFFF" height="37.5547" style="stroke:#181818;stroke-width:1.0;" width="10" x="769" y="165.5977"/><rect fill="#FFFFFF" height="208.8828" style="stroke:#181818;stroke-width:1.0;" width="10" x="769" y="240.707"/><rect fill="none" height="71.6641" style="stroke:#000000;stroke-width:1.5;" width="818" x="10" y="255.707"/><rect fill="none" height="71.6641" style="stroke:#000000;stroke-width:1.5;" width="818" x="10" y="341.3711"/><line style="stroke:#181818;stroke-width:0.5;stroke-dasharray:5.0,5.0;" x1="51" x2="51" y1="126.043" y2="467.5898"/><line style="stroke:#181818;stroke-width:0.5;stroke-dasharray:5.0,5.0;" x1="774" x2="774" y1="126.043" y2="467.5898"/><text fill="#000000" font-family="sans-serif" font-size="20" lengthAdjust="spacing" textLength="56" x="20" y="121.8242">Client</text><ellipse cx="51" cy="50.9883" fill="#E3E3E3" rx="8" ry="8" style="stroke:#181818;stroke-width:0.5;"/><path d="M51,58.9883 L51,85.9883 M38,66.9883 L64,66.9883 M51,85.9883 L38,100.9883 M51,85.9883 L64,100.9883 " fill="none" style="stroke:#181818;stroke-width:0.5;"/><text fill="#000000" font-family="sans-serif" font-size="20" lengthAdjust="spacing" textLength="56" x="20" y="485.9258">Client</text><ellipse cx="51" cy="498.6445" fill="#E3E3E3" rx="8" ry="8" style="stroke:#181818;stroke-width:0.5;"/><path d="M51,506.6445 L51,533.6445 M38,514.6445 L64,514.6445 M51,533.6445 L38,548.6445 M51,533.6445 L64,548.6445 " fill="none" style="stroke:#181818;stroke-width:0.5;"/><rect fill="#E3E3E3" height="37.5547" rx="2.5" ry="2.5" style="stroke:#181818;stroke-width:0.5;" width="88" x="730" y="87.4883"/><text fill="#000000" font-family="sans-serif" font-size="20" lengthAdjust="spacing" textLength="74" x="737" y="113.8242">:System</text><rect fill="#E3E3E3" height="37.5547" rx="2.5" ry="2.5" style="stroke:#181818;stroke-width:0.5;" width="88" x="730" y="466.5898"/><text fill="#000000" font-family="sans-serif" font-size="20" lengthAdjust="spacing" textLength="74" x="737" y="492.9258">:System</text><rect fill="#FFFFFF" height="322.5469" style="stroke:#181818;stroke-width:1.0;" width="10" x="46" y="136.043"/><rect fill="#FFFFFF" height="37.5547" style="stroke:#181818;stroke-width:1.0;" width="10" x="769" y="165.5977"/><rect fill="#FFFFFF" height="208.8828" style="stroke:#181818;stroke-width:1.0;" width="10" x="769" y="240.707"/><polygon fill="#181818" points="757,161.5977,767,165.5977,757,169.5977,761,165.5977" style="stroke:#181818;stroke-width:1.0;"/><line style="stroke:#181818;stroke-width:1.0;" x1="56" x2="763" y1="165.5977" y2="165.5977"/><text fill="#000000" font-family="sans-serif" font-size="20" font-weight="bold" lengthAdjust="spacing" textLength="13" x="63" y="159.3789">1</text><text fill="#000000" font-family="sans-serif" font-size="20" lengthAdjust="spacing" textLength="476" x="80" y="159.3789">requests to make an order to purchase a property</text><polygon fill="#181818" points="67,199.1523,57,203.1523,67,207.1523,63,203.1523" style="stroke:#181818;stroke-width:1.0;"/><line style="stroke:#181818;stroke-width:1.0;stroke-dasharray:2.0,2.0;" x1="61" x2="773" y1="203.1523" y2="203.1523"/><text fill="#000000" font-family="sans-serif" font-size="20" font-weight="bold" lengthAdjust="spacing" textLength="13" x="73" y="196.9336">2</text><text fill="#000000" font-family="sans-serif" font-size="20" lengthAdjust="spacing" textLength="219" x="90" y="196.9336">requests order amount</text><polygon fill="#181818" points="757,236.707,767,240.707,757,244.707,761,240.707" style="stroke:#181818;stroke-width:1.0;"/><line style="stroke:#181818;stroke-width:1.0;" x1="56" x2="763" y1="240.707" y2="240.707"/><text fill="#000000" font-family="sans-serif" font-size="20" font-weight="bold" lengthAdjust="spacing" textLength="13" x="63" y="234.4883">3</text><text fill="#000000" font-family="sans-serif" font-size="20" lengthAdjust="spacing" textLength="636" x="80" y="234.4883">inserts order amount (equal or lower to the price set by the owner)</text><path d="M10,255.707 L89,255.707 L89,271.2617 L79,281.2617 L10,281.2617 L10,255.707 " fill="#EEEEEE" style="stroke:#000000;stroke-width:1.5;"/><rect fill="none" height="71.6641" style="stroke:#000000;stroke-width:1.5;" width="818" x="10" y="255.707"/><text fill="#000000" font-family="sans-serif" font-size="20" font-weight="bold" lengthAdjust="spacing" textLength="34" x="25" y="276.043">opt</text><text fill="#000000" font-family="sans-serif" font-size="20" font-weight="bold" lengthAdjust="spacing" textLength="382" x="104" y="277.043">[request already made by this client]</text><polygon fill="#181818" points="67,315.3711,57,319.3711,67,323.3711,63,319.3711" style="stroke:#181818;stroke-width:1.0;"/><line style="stroke:#181818;stroke-width:1.0;stroke-dasharray:2.0,2.0;" x1="61" x2="768" y1="319.3711" y2="319.3711"/><text fill="#000000" font-family="sans-serif" font-size="20" font-weight="bold" lengthAdjust="spacing" textLength="13" x="73" y="313.1523">4</text><text fill="#000000" font-family="sans-serif" font-size="20" lengthAdjust="spacing" textLength="605" x="90" y="313.1523">informs that the request has already been made by this "Client"</text><path d="M10,341.3711 L89,341.3711 L89,356.9258 L79,366.9258 L10,366.9258 L10,341.3711 " fill="#EEEEEE" style="stroke:#000000;stroke-width:1.5;"/><rect fill="none" height="71.6641" style="stroke:#000000;stroke-width:1.5;" width="818" x="10" y="341.3711"/><text fill="#000000" font-family="sans-serif" font-size="20" font-weight="bold" lengthAdjust="spacing" textLength="34" x="25" y="361.707">opt</text><text fill="#000000" font-family="sans-serif" font-size="20" font-weight="bold" lengthAdjust="spacing" textLength="472" x="104" y="362.707">[order amount already made to this property]</text><polygon fill="#181818" points="67,401.0352,57,405.0352,67,409.0352,63,405.0352" style="stroke:#181818;stroke-width:1.0;"/><line style="stroke:#181818;stroke-width:1.0;stroke-dasharray:2.0,2.0;" x1="61" x2="768" y1="405.0352" y2="405.0352"/><text fill="#000000" font-family="sans-serif" font-size="20" font-weight="bold" lengthAdjust="spacing" textLength="13" x="73" y="398.8164">5</text><text fill="#000000" font-family="sans-serif" font-size="20" lengthAdjust="spacing" textLength="672" x="90" y="398.8164">informs that the order amount has already been made to this property</text><polygon fill="#181818" points="67,445.5898,57,449.5898,67,453.5898,63,449.5898" style="stroke:#181818;stroke-width:1.0;"/><line style="stroke:#181818;stroke-width:1.0;stroke-dasharray:2.0,2.0;" x1="61" x2="773" y1="449.5898" y2="449.5898"/><text fill="#000000" font-family="sans-serif" font-size="20" font-weight="bold" lengthAdjust="spacing" textLength="13" x="73" y="443.3711">6</text><text fill="#000000" font-family="sans-serif" font-size="20" lengthAdjust="spacing" textLength="525" x="90" y="443.3711">informs that the order has been successfully requested</text><!--SRC=[bPB1ReCm343lV8NLKtkODEtOmowhzWDyWPiOY0W9IvnLxEjdIDCMYHxAoNBivnU7s1itOi31UjMJ1aqD9ilVtd5j_WW-tgjOIc3mpgik-860GwA7an5LZotLF5c2G8hHjVQn87Qe_SMu5XgqaQgA3KjfFKMc0MhwIUGKmSbWEvVlw_fqg2fCx5qQpXGaLkm3xBwi8SSxm0Wvh6G06sL6T0oxOoOkvpbSEiqlCfM62kJBCRnz5eUZU8j5v0ZiOS2U01tue2dCYJ45rM6K98p1ZnHuMZWtU9as9w_8Dw5VvppGCn87dyHbhjQq2TamD2xAu3K2zW96Apcm_f9bkIEnDBBGI0pdQKduYwDmU2xjHowIW3OGwadMe2dtcmWghm_ktzOzZMjy66I97V8ojp1bUpVkcSYjuULX5pmvVNTQNNObjjnKUbSFyehQ2htjjpdZvlV2b1c_O6DIYc9iahLJMGxfPtz2zGy0]--></g></svg>