<?xml version="1.0" encoding="UTF-8" standalone="no"?><svg xmlns="http://www.w3.org/2000/svg" xmlns:xlink="http://www.w3.org/1999/xlink" contentStyleType="text/css" height="630px" preserveAspectRatio="none" style="width:834px;height:630px;background:#FFFFFF;" version="1.1" viewBox="0 0 834 630" width="834px" zoomAndPan="magnify"><defs/><g><text fill="#000000" font-family="sans-serif" font-size="14" font-weight="bold" lengthAdjust="spacing" textLength="231" x="303" y="28.5352">System Sequence Diagram (SSD)</text><rect fill="#FFFFFF" height="397.6563" style="stroke:#181818;stroke-width:1.0;" width="10" x="46" y="136.043"/><rect fill="#FFFFFF" height="37.5547" style="stroke:#181818;stroke-width:1.0;" width="10" x="769" y="165.5977"/><rect fill="#FFFFFF" height="37.5547" style="stroke:#181818;stroke-width:1.0;" width="10" x="769" y="240.707"/><rect fill="#FFFFFF" height="208.8828" style="stroke:#181818;stroke-width:1.0;" width="10" x="769" y="315.8164"/><rect fill="none" height="71.6641" style="stroke:#000000;stroke-width:1.5;" width="818" x="10" y="330.8164"/><rect fill="none" height="71.6641" style="stroke:#000000;stroke-width:1.5;" width="818" x="10" y="416.4805"/><line style="stroke:#181818;stroke-width:0.5;stroke-dasharray:5.0,5.0;" x1="51" x2="51" y1="126.043" y2="542.6992"/><line style="stroke:#181818;stroke-width:0.5;stroke-dasharray:5.0,5.0;" x1="774" x2="774" y1="126.043" y2="542.6992"/><text fill="#000000" font-family="sans-serif" font-size="20" lengthAdjust="spacing" textLength="56" x="20" y="121.8242">Client</text><ellipse cx="51" cy="50.9883" fill="#E3E3E3" rx="8" ry="8" style="stroke:#181818;stroke-width:0.5;"/><path d="M51,58.9883 L51,85.9883 M38,66.9883 L64,66.9883 M51,85.9883 L38,100.9883 M51,85.9883 L64,100.9883 " fill="none" style="stroke:#181818;stroke-width:0.5;"/><text fill="#000000" font-family="sans-serif" font-size="20" lengthAdjust="spacing" textLength="56" x="20" y="561.0352">Client</text><ellipse cx="51" cy="573.7539" fill="#E3E3E3" rx="8" ry="8" style="stroke:#181818;stroke-width:0.5;"/><path d="M51,581.7539 L51,608.7539 M38,589.7539 L64,589.7539 M51,608.7539 L38,623.7539 M51,608.7539 L64,623.7539 " fill="none" style="stroke:#181818;stroke-width:0.5;"/><rect fill="#E3E3E3" height="37.5547" rx="2.5" ry="2.5" style="stroke:#181818;stroke-width:0.5;" width="88" x="730" y="87.4883"/><text fill="#000000" font-family="sans-serif" font-size="20" lengthAdjust="spacing" textLength="74" x="737" y="113.8242">:System</text><rect fill="#E3E3E3" height="37.5547" rx="2.5" ry="2.5" style="stroke:#181818;stroke-width:0.5;" width="88" x="730" y="541.6992"/><text fill="#000000" font-family="sans-serif" font-size="20" lengthAdjust="spacing" textLength="74" x="737" y="568.0352">:System</text><rect fill="#FFFFFF" height="397.6563" style="stroke:#181818;stroke-width:1.0;" width="10" x="46" y="136.043"/><rect fill="#FFFFFF" height="37.5547" style="stroke:#181818;stroke-width:1.0;" width="10" x="769" y="165.5977"/><rect fill="#FFFFFF" height="37.5547" style="stroke:#181818;stroke-width:1.0;" width="10" x="769" y="240.707"/><rect fill="#FFFFFF" height="208.8828" style="stroke:#181818;stroke-width:1.0;" width="10" x="769" y="315.8164"/><polygon fill="#181818" points="757,161.5977,767,165.5977,757,169.5977,761,165.5977" style="stroke:#181818;stroke-width:1.0;"/><line style="stroke:#181818;stroke-width:1.0;" x1="56" x2="763" y1="165.5977" y2="165.5977"/><text fill="#000000" font-family="sans-serif" font-size="20" font-weight="bold" lengthAdjust="spacing" textLength="13" x="63" y="159.3789">1</text><text fill="#000000" font-family="sans-serif" font-size="20" lengthAdjust="spacing" textLength="476" x="80" y="159.3789">requests to make an order to purchase a property</text><polygon fill="#181818" points="67,199.1523,57,203.1523,67,207.1523,63,203.1523" style="stroke:#181818;stroke-width:1.0;"/><line style="stroke:#181818;stroke-width:1.0;stroke-dasharray:2.0,2.0;" x1="61" x2="773" y1="203.1523" y2="203.1523"/><text fill="#000000" font-family="sans-serif" font-size="20" font-weight="bold" lengthAdjust="spacing" textLength="13" x="73" y="196.9336">2</text><text fill="#000000" font-family="sans-serif" font-size="20" lengthAdjust="spacing" textLength="195" x="90" y="196.9336">requests property id</text><polygon fill="#181818" points="757,236.707,767,240.707,757,244.707,761,240.707" style="stroke:#181818;stroke-width:1.0;"/><line style="stroke:#181818;stroke-width:1.0;" x1="56" x2="763" y1="240.707" y2="240.707"/><text fill="#000000" font-family="sans-serif" font-size="20" font-weight="bold" lengthAdjust="spacing" textLength="13" x="63" y="234.4883">3</text><text fill="#000000" font-family="sans-serif" font-size="20" lengthAdjust="spacing" textLength="177" x="80" y="234.4883">inserts property id</text><polygon fill="#181818" points="67,274.2617,57,278.2617,67,282.2617,63,278.2617" style="stroke:#181818;stroke-width:1.0;"/><line style="stroke:#181818;stroke-width:1.0;stroke-dasharray:2.0,2.0;" x1="61" x2="773" y1="278.2617" y2="278.2617"/><text fill="#000000" font-family="sans-serif" font-size="20" font-weight="bold" lengthAdjust="spacing" textLength="13" x="73" y="272.043">4</text><text fill="#000000" font-family="sans-serif" font-size="20" lengthAdjust="spacing" textLength="219" x="90" y="272.043">requests order amount</text><polygon fill="#181818" points="757,311.8164,767,315.8164,757,319.8164,761,315.8164" style="stroke:#181818;stroke-width:1.0;"/><line style="stroke:#181818;stroke-width:1.0;" x1="56" x2="763" y1="315.8164" y2="315.8164"/><text fill="#000000" font-family="sans-serif" font-size="20" font-weight="bold" lengthAdjust="spacing" textLength="13" x="63" y="309.5977">5</text><text fill="#000000" font-family="sans-serif" font-size="20" lengthAdjust="spacing" textLength="636" x="80" y="309.5977">inserts order amount (equal or lower to the price set by the owner)</text><path d="M10,330.8164 L89,330.8164 L89,346.3711 L79,356.3711 L10,356.3711 L10,330.8164 " fill="#EEEEEE" style="stroke:#000000;stroke-width:1.5;"/><rect fill="none" height="71.6641" style="stroke:#000000;stroke-width:1.5;" width="818" x="10" y="330.8164"/><text fill="#000000" font-family="sans-serif" font-size="20" font-weight="bold" lengthAdjust="spacing" textLength="34" x="25" y="351.1523">opt</text><text fill="#000000" font-family="sans-serif" font-size="20" font-weight="bold" lengthAdjust="spacing" textLength="382" x="104" y="352.1523">[request already made by this client]</text><polygon fill="#181818" points="67,390.4805,57,394.4805,67,398.4805,63,394.4805" style="stroke:#181818;stroke-width:1.0;"/><line style="stroke:#181818;stroke-width:1.0;stroke-dasharray:2.0,2.0;" x1="61" x2="768" y1="394.4805" y2="394.4805"/><text fill="#000000" font-family="sans-serif" font-size="20" font-weight="bold" lengthAdjust="spacing" textLength="13" x="73" y="388.2617">6</text><text fill="#000000" font-family="sans-serif" font-size="20" lengthAdjust="spacing" textLength="605" x="90" y="388.2617">informs that the request has already been made by this "Client"</text><path d="M10,416.4805 L89,416.4805 L89,432.0352 L79,442.0352 L10,442.0352 L10,416.4805 " fill="#EEEEEE" style="stroke:#000000;stroke-width:1.5;"/><rect fill="none" height="71.6641" style="stroke:#000000;stroke-width:1.5;" width="818" x="10" y="416.4805"/><text fill="#000000" font-family="sans-serif" font-size="20" font-weight="bold" lengthAdjust="spacing" textLength="34" x="25" y="436.8164">opt</text><text fill="#000000" font-family="sans-serif" font-size="20" font-weight="bold" lengthAdjust="spacing" textLength="472" x="104" y="437.8164">[order amount already made to this property]</text><polygon fill="#181818" points="67,476.1445,57,480.1445,67,484.1445,63,480.1445" style="stroke:#181818;stroke-width:1.0;"/><line style="stroke:#181818;stroke-width:1.0;stroke-dasharray:2.0,2.0;" x1="61" x2="768" y1="480.1445" y2="480.1445"/><text fill="#000000" font-family="sans-serif" font-size="20" font-weight="bold" lengthAdjust="spacing" textLength="13" x="73" y="473.9258">7</text><text fill="#000000" font-family="sans-serif" font-size="20" lengthAdjust="spacing" textLength="672" x="90" y="473.9258">informs that the order amount has already been made to this property</text><polygon fill="#181818" points="67,520.6992,57,524.6992,67,528.6992,63,524.6992" style="stroke:#181818;stroke-width:1.0;"/><line style="stroke:#181818;stroke-width:1.0;stroke-dasharray:2.0,2.0;" x1="61" x2="773" y1="524.6992" y2="524.6992"/><text fill="#000000" font-family="sans-serif" font-size="20" font-weight="bold" lengthAdjust="spacing" textLength="13" x="73" y="518.4805">8</text><text fill="#000000" font-family="sans-serif" font-size="20" lengthAdjust="spacing" textLength="525" x="90" y="518.4805">informs that the order has been successfully requested</text><!--SRC=[dP8xRiCm38PtduB8b0m5YeuPkZJe1Nm2Hc9YmRBaIbG3z_IbvIYnKMT8DH4K-V7d8xR6zHYmirwrf47J2PFbJ- -uDZy4RwzLB27GUUTL4tn7m27HxAT7rUAPQXuiGI35wCvs7X0RrFvYt1bEQ2DL5HkMq7g8J1tKz9N8AOA3mVCOlgthmwwgCB5tgJjI45kn3x3vi8OSRm0ZJ6Ob1TWeqwDZsEmdOlwVp9nflf6f95GWRxBXvRres8jkKH4v0dlei2L01pve2gEZJq4r6CK9VV0z1HuovmOlrKRd5VaYz6kT6RsaWz4vMDCgOqMWSL4I_nAUrp2rXPrFCe__YPWZO2jWjE83wo_JmBWX4MfagP4OZaDs-8kZi7iislTSH0BQGAW7MOMcATz4KDCAuVxM-ZJkv4CdYsoGSzt2b0tUk4SYjuINuyfuSlgkQT7iGbZkrCJbKJmZRO5UrxTQuwRlYIeZFcDZKefYF2LhXp8SUdYErIy0]--></g></svg>