<?xml version="1.0" encoding="UTF-8" standalone="no"?><svg xmlns="http://www.w3.org/2000/svg" xmlns:xlink="http://www.w3.org/1999/xlink" contentStyleType="text/css" height="4209px" preserveAspectRatio="none" style="width:2073px;height:4209px;background:#FFFFFF;" version="1.1" viewBox="0 0 2073 4209" width="2073px" zoomAndPan="magnify"><defs><filter height="300%" id="fi8wj2bpugmc8" width="300%" x="-1" y="-1"><feGaussianBlur result="blurOut" stdDeviation="2.0"/><feColorMatrix in="blurOut" result="blurOut2" type="matrix" values="0 0 0 0 0 0 0 0 0 0 0 0 0 0 0 0 0 0 .4 0"/><feOffset dx="4.0" dy="4.0" in="blurOut2" result="blurOut3"/><feBlend in="SourceGraphic" in2="blurOut3" mode="normal"/></filter></defs><g><text fill="#000000" font-family="sans-serif" font-size="14" font-weight="bold" lengthAdjust="spacing" textLength="131" x="964" y="23.5352">Use Case Diagram</text><!--cluster actors_1--><g id="cluster_actors_1"><rect fill="none" filter="url(#fi8wj2bpugmc8)" height="390" rx="2.5" ry="2.5" style="stroke:#FFFF00;stroke-width:1.0;" width="204" x="24.5" y="833.4883"/><text fill="#000000" font-family="sans-serif" font-size="20" font-weight="bold" lengthAdjust="spacing" textLength="147" x="53" y="854.8242">System Actors</text></g><!--cluster actors_2--><g id="cluster_actors_2"><rect fill="none" filter="url(#fi8wj2bpugmc8)" height="512" rx="2.5" ry="2.5" style="stroke:#FFFF00;stroke-width:1.0;" width="239" x="7" y="2928.4883"/><text fill="#000000" font-family="sans-serif" font-size="20" font-weight="bold" lengthAdjust="spacing" textLength="147" x="53" y="2949.8242">System Actors</text></g><!--cluster usecases--><g id="cluster_usecases"><rect fill="none" filter="url(#fi8wj2bpugmc8)" height="4153" rx="2.5" ry="2.5" style="stroke:#FFFF00;stroke-width:1.0;" width="1787" x="274" y="44.4883"/><text fill="#000000" font-family="sans-serif" font-size="20" font-weight="bold" lengthAdjust="spacing" textLength="105" x="1115" y="65.8242">Use Cases</text></g><!--entity Unregistered User--><g id="elem_Unregistered User"><ellipse cx="126.5" cy="884.4883" fill="#F1F1F1" filter="url(#fi8wj2bpugmc8)" rx="8" ry="8" style="stroke:#181818;stroke-width:0.5;"/><path d="M126.5,892.4883 L126.5,919.4883 M113.5,900.4883 L139.5,900.4883 M126.5,919.4883 L113.5,934.4883 M126.5,919.4883 L139.5,934.4883 " fill="none" filter="url(#fi8wj2bpugmc8)" style="stroke:#181818;stroke-width:0.5;"/><text fill="#000000" font-family="sans-serif" font-size="20" lengthAdjust="spacing" textLength="172" x="40.5" y="958.3242">Unregistered User</text></g><!--entity Client--><g id="elem_Client"><ellipse cx="126.5" cy="1006.4883" fill="#F1F1F1" filter="url(#fi8wj2bpugmc8)" rx="8" ry="8" style="stroke:#181818;stroke-width:0.5;"/><path d="M126.5,1014.4883 L126.5,1041.4883 M113.5,1022.4883 L139.5,1022.4883 M126.5,1041.4883 L113.5,1056.4883 M126.5,1041.4883 L139.5,1056.4883 " fill="none" filter="url(#fi8wj2bpugmc8)" style="stroke:#181818;stroke-width:0.5;"/><text fill="#000000" font-family="sans-serif" font-size="20" lengthAdjust="spacing" textLength="56" x="98.5" y="1080.3242">Client</text></g><!--entity Agent--><g id="elem_Agent"><ellipse cx="126.5" cy="1128.4883" fill="#F1F1F1" filter="url(#fi8wj2bpugmc8)" rx="8" ry="8" style="stroke:#181818;stroke-width:0.5;"/><path d="M126.5,1136.4883 L126.5,1163.4883 M113.5,1144.4883 L139.5,1144.4883 M126.5,1163.4883 L113.5,1178.4883 M126.5,1163.4883 L139.5,1178.4883 " fill="none" filter="url(#fi8wj2bpugmc8)" style="stroke:#181818;stroke-width:0.5;"/><text fill="#000000" font-family="sans-serif" font-size="20" lengthAdjust="spacing" textLength="56" x="98.5" y="1202.3242">Agent</text></g><!--entity System Administrator--><g id="elem_System Administrator"><ellipse cx="126.5" cy="2979.4883" fill="#F1F1F1" filter="url(#fi8wj2bpugmc8)" rx="8" ry="8" style="stroke:#181818;stroke-width:0.5;"/><path d="M126.5,2987.4883 L126.5,3014.4883 M113.5,2995.4883 L139.5,2995.4883 M126.5,3014.4883 L113.5,3029.4883 M126.5,3014.4883 L139.5,3029.4883 " fill="none" filter="url(#fi8wj2bpugmc8)" style="stroke:#181818;stroke-width:0.5;"/><text fill="#000000" font-family="sans-serif" font-size="20" lengthAdjust="spacing" textLength="207" x="23" y="3053.3242">System Administrator</text></g><!--entity Owner--><g id="elem_Owner"><ellipse cx="126.5" cy="3101.4883" fill="#F1F1F1" filter="url(#fi8wj2bpugmc8)" rx="8" ry="8" style="stroke:#181818;stroke-width:0.5;"/><path d="M126.5,3109.4883 L126.5,3136.4883 M113.5,3117.4883 L139.5,3117.4883 M126.5,3136.4883 L113.5,3151.4883 M126.5,3136.4883 L139.5,3151.4883 " fill="none" filter="url(#fi8wj2bpugmc8)" style="stroke:#181818;stroke-width:0.5;"/><text fill="#000000" font-family="sans-serif" font-size="20" lengthAdjust="spacing" textLength="62" x="95.5" y="3175.3242">Owner</text></g><!--entity Network Manager--><g id="elem_Network Manager"><ellipse cx="126.5" cy="3223.4883" fill="#F1F1F1" filter="url(#fi8wj2bpugmc8)" rx="8" ry="8" style="stroke:#181818;stroke-width:0.5;"/><path d="M126.5,3231.4883 L126.5,3258.4883 M113.5,3239.4883 L139.5,3239.4883 M126.5,3258.4883 L113.5,3273.4883 M126.5,3258.4883 L139.5,3273.4883 " fill="none" filter="url(#fi8wj2bpugmc8)" style="stroke:#181818;stroke-width:0.5;"/><text fill="#000000" font-family="sans-serif" font-size="20" lengthAdjust="spacing" textLength="168" x="42.5" y="3297.3242">Network Manager</text></g><!--entity Store Manager--><g id="elem_Store Manager"><ellipse cx="126.5" cy="3345.4883" fill="#F1F1F1" filter="url(#fi8wj2bpugmc8)" rx="8" ry="8" style="stroke:#181818;stroke-width:0.5;"/><path d="M126.5,3353.4883 L126.5,3380.4883 M113.5,3361.4883 L139.5,3361.4883 M126.5,3380.4883 L113.5,3395.4883 M126.5,3380.4883 L139.5,3395.4883 " fill="none" filter="url(#fi8wj2bpugmc8)" style="stroke:#181818;stroke-width:0.5;"/><text fill="#000000" font-family="sans-serif" font-size="20" lengthAdjust="spacing" textLength="137" x="58" y="3419.3242">Store Manager</text></g><g id="elem_UC1"><ellipse cx="1167.7443" cy="123.3371" fill="#F1F1F1" filter="url(#fi8wj2bpugmc8)" rx="169.7443" ry="36.3489" style="stroke:#181818;stroke-width:0.5;"/><text fill="#000000" font-family="sans-serif" font-size="20" lengthAdjust="spacing" textLength="300" x="1017.7443" y="128.8957">UC1 - Display listed properties</text></g><g id="elem_UC2"><ellipse cx="1167.6349" cy="2055.4153" fill="#F1F1F1" filter="url(#fi8wj2bpugmc8)" rx="267.6349" ry="55.927" style="stroke:#181818;stroke-width:0.5;"/><text fill="#000000" font-family="sans-serif" font-size="20" lengthAdjust="spacing" textLength="504" x="915.6349" y="2060.9739">UC2 - Publish any sale announcement on the system</text></g><g id="elem_UC3"><ellipse cx="1167.6484" cy="3024.618" fill="#F1F1F1" filter="url(#fi8wj2bpugmc8)" rx="171.1484" ry="36.6297" style="stroke:#181818;stroke-width:0.5;"/><text fill="#000000" font-family="sans-serif" font-size="20" lengthAdjust="spacing" textLength="303" x="1016.1484" y="3030.1766">UC3 - Register a new employee</text></g><g id="elem_UC4"><ellipse cx="1167.7053" cy="3128.5293" fill="#F1F1F1" filter="url(#fi8wj2bpugmc8)" rx="148.2053" ry="32.0411" style="stroke:#181818;stroke-width:0.5;"/><text fill="#000000" font-family="sans-serif" font-size="20" lengthAdjust="spacing" textLength="253" x="1038.2053" y="3135.4473">UC4 - Submit Sale or Rent</text></g><g id="elem_UC5"><ellipse cx="1167.4485" cy="2455.378" fill="#F1F1F1" filter="url(#fi8wj2bpugmc8)" rx="297.4485" ry="61.8897" style="stroke:#181818;stroke-width:0.5;"/><text fill="#000000" font-family="sans-serif" font-size="20" lengthAdjust="spacing" textLength="565" x="884.9485" y="2460.9366">UC5 - As a system administrator, I want to register a store.</text></g><g id="elem_UC6"><ellipse cx="1167.4142" cy="2644.4711" fill="#F1F1F1" filter="url(#fi8wj2bpugmc8)" rx="447.9142" ry="91.9828" style="stroke:#181818;stroke-width:0.5;"/><text fill="#000000" font-family="sans-serif" font-size="20" lengthAdjust="spacing" textLength="870" x="732.4142" y="2650.0297">UC6 - As a system administrator, I want to specify states, districts and cities in the system.</text></g><g id="elem_UC7"><ellipse cx="1167.4789" cy="488.5841" fill="#F1F1F1" filter="url(#fi8wj2bpugmc8)" rx="295.9789" ry="61.5958" style="stroke:#181818;stroke-width:0.5;"/><text fill="#000000" font-family="sans-serif" font-size="20" lengthAdjust="spacing" textLength="562" x="886.4789" y="494.1427">UC7 - Register in the system to buy, sell or rent properties</text></g><g id="elem_UC8"><ellipse cx="1167.4824" cy="1206.5848" fill="#F1F1F1" filter="url(#fi8wj2bpugmc8)" rx="353.4824" ry="73.0965" style="stroke:#181818;stroke-width:0.5;"/><text fill="#000000" font-family="sans-serif" font-size="20" lengthAdjust="spacing" textLength="679" x="827.9824" y="1212.1434">UC8 - See the list of property announcement requests made to himself</text></g><g id="elem_UC9"><ellipse cx="1167.6666" cy="655.6216" fill="#F1F1F1" filter="url(#fi8wj2bpugmc8)" rx="341.1666" ry="70.6333" style="stroke:#181818;stroke-width:0.5;"/><text fill="#000000" font-family="sans-serif" font-size="20" lengthAdjust="spacing" textLength="654" x="840.6666" y="661.1802">UC9 - Leave a message to the agent to schedule a visit to a property</text></g><g id="elem_UC10"><ellipse cx="1167.2958" cy="812.2474" fill="#F1F1F1" filter="url(#fi8wj2bpugmc8)" rx="244.2958" ry="51.2592" style="stroke:#181818;stroke-width:0.5;"/><text fill="#000000" font-family="sans-serif" font-size="20" lengthAdjust="spacing" textLength="456" x="939.2958" y="817.806">UC10 - Place an order to purchase the property</text></g><g id="elem_UC11"><ellipse cx="1167.3793" cy="1871.2641" fill="#F1F1F1" filter="url(#fi8wj2bpugmc8)" rx="451.8793" ry="92.7759" style="stroke:#181818;stroke-width:0.5;"/><text fill="#000000" font-family="sans-serif" font-size="20" lengthAdjust="spacing" textLength="878" x="728.3793" y="1876.8227">UC11 - List real estate purchase orders to accept or decline a purchase order for a property</text></g><g id="elem_UC12"><ellipse cx="1167.4904" cy="2862.2864" fill="#F1F1F1" filter="url(#fi8wj2bpugmc8)" rx="439.4904" ry="90.2981" style="stroke:#181818;stroke-width:0.5;"/><text fill="#000000" font-family="sans-serif" font-size="20" lengthAdjust="spacing" textLength="853" x="740.9904" y="2867.845">UC12 - Import information from a legacy system that has been in use in several agencies</text></g><g id="elem_UC13"><ellipse cx="1167.6824" cy="3453.5248" fill="#F1F1F1" filter="url(#fi8wj2bpugmc8)" rx="475.6824" ry="97.5365" style="stroke:#181818;stroke-width:0.5;"/><text fill="#000000" font-family="sans-serif" font-size="20" lengthAdjust="spacing" textLength="926" x="704.6824" y="3459.0834">UC13 - As a network manager, I want to list all employees working in every store of the network.</text></g><g id="elem_UC14"><ellipse cx="1167.6136" cy="998.311" fill="#F1F1F1" filter="url(#fi8wj2bpugmc8)" rx="484.6136" ry="99.3227" style="stroke:#181818;stroke-width:0.5;"/><text fill="#000000" font-family="sans-serif" font-size="20" lengthAdjust="spacing" textLength="944" x="695.6136" y="1003.8696">UC14 - As a client, I want to read the response for the appointment requests, to accept or reject it.</text></g><g id="elem_UC15"><ellipse cx="1167.5602" cy="1403.3003" fill="#F1F1F1" filter="url(#fi8wj2bpugmc8)" rx="432.0602" ry="88.812" style="stroke:#181818;stroke-width:0.5;"/><text fill="#000000" font-family="sans-serif" font-size="20" lengthAdjust="spacing" textLength="838" x="748.5602" y="1408.8589">US15 - As an agent, I intend to list all booking requests for properties managed by me.</text></g><g id="elem_UC16"><ellipse cx="1167.3237" cy="1635.653" fill="#F1F1F1" filter="url(#fi8wj2bpugmc8)" rx="526.3237" ry="107.6647" style="stroke:#181818;stroke-width:0.5;"/><text fill="#000000" font-family="sans-serif" font-size="20" lengthAdjust="spacing" textLength="1028" x="653.3237" y="1641.2116">US16 - As an agent, when viewing a booking request, I want to respond to the user that scheduled the visit.</text></g><g id="elem_UC17"><ellipse cx="1167.3984" cy="3258.368" fill="#F1F1F1" filter="url(#fi8wj2bpugmc8)" rx="299.8984" ry="62.3797" style="stroke:#181818;stroke-width:0.5;"/><text fill="#000000" font-family="sans-serif" font-size="20" lengthAdjust="spacing" textLength="570" x="882.3984" y="3263.9266">US17 - As a network manager, I want to list all deals made.</text></g><g id="elem_UC18"><ellipse cx="1167.4672" cy="4003.3817" fill="#F1F1F1" filter="url(#fi8wj2bpugmc8)" rx="877.4672" ry="177.8934" style="stroke:#181818;stroke-width:0.5;"/><text fill="#000000" font-family="sans-serif" font-size="20" lengthAdjust="spacing" textLength="1721" x="306.9672" y="3997.163">US18 - As a store manager, I intend to analyse the deals (only sale of houses and apartments) made. In particular, I intend to compare property sale values with the forecast values.</text><text fill="#000000" font-family="sans-serif" font-size="20" lengthAdjust="spacing" textLength="1640" x="347.4672" y="4020.7177">The prediction of the value of the business/property must be estimated based on the characteristics of the property and using linear and multilinear regression algorithms.</text></g><g id="elem_UC19"><ellipse cx="1167.7086" cy="3688.53" fill="#F1F1F1" filter="url(#fi8wj2bpugmc8)" rx="498.2086" ry="102.0417" style="stroke:#181818;stroke-width:0.5;"/><text fill="#000000" font-family="sans-serif" font-size="20" lengthAdjust="spacing" textLength="810" x="762.7086" y="3682.3113">US19 - As a network manager, I want to divide the set of all stores in to two subsets,</text><text fill="#000000" font-family="sans-serif" font-size="20" lengthAdjust="spacing" textLength="950" x="692.7086" y="3705.8659">so that the total number of properties of the stores between the two subsets is the closest possible.</text></g><g id="elem_UC20"><ellipse cx="1167.663" cy="293.5209" fill="#F1F1F1" filter="url(#fi8wj2bpugmc8)" rx="478.163" ry="98.0326" style="stroke:#181818;stroke-width:0.5;"/><text fill="#000000" font-family="sans-serif" font-size="20" lengthAdjust="spacing" textLength="931" x="702.163" y="299.0795">US20 - As a client, I want to read the response for the appointment request, to accept or reject it.</text></g><g id="elem_UC21"><ellipse cx="1167.3983" cy="2252.3679" fill="#F1F1F1" filter="url(#fi8wj2bpugmc8)" rx="514.8983" ry="105.3797" style="stroke:#181818;stroke-width:0.5;"/><text fill="#000000" font-family="sans-serif" font-size="20" lengthAdjust="spacing" textLength="1005" x="664.8983" y="2257.9265">US21 - As an agent, at the end of the visit, I want to register the visit and the opinion about the business.</text></g><!--link Unregistered User to UC1--><g id="link_Unregistered User_UC1"><path d="M128.89,875.6583 C134.48,730.7083 160.38,270.6983 266,177.4883 C371.43,84.4383 772.02,95.3583 1001.82,110.1683 " fill="none" id="Unregistered User-to-UC1" style="stroke:#181818;stroke-width:1.0;"/><polygon fill="#181818" points="1006.72,110.4883,998.0025,105.9051,1001.7308,110.1595,997.4764,113.8878,1006.72,110.4883" style="stroke:#181818;stroke-width:1.0;"/></g><!--link Agent to UC2--><g id="link_Agent_UC2"><path d="M128.15,1207.2983 C131.4,1361.5383 150.86,1875.8183 266,1981.4883 C458.88,2158.5083 783,2136.1683 985.26,2099.1683 " fill="none" id="Agent-to-UC2" style="stroke:#181818;stroke-width:1.0;"/><polygon fill="#181818" points="990.02,2098.2883,980.4467,2095.975,985.1018,2099.189,981.8878,2103.8441,990.02,2098.2883" style="stroke:#181818;stroke-width:1.0;"/></g><!--link System Administrator to UC3--><g id="link_System Administrator_UC3"><path d="M230.44,3015.4783 C407.48,3017.1783 771.55,3020.6883 989.81,3022.7883 " fill="none" id="System Administrator-to-UC3" style="stroke:#181818;stroke-width:1.0;"/><polygon fill="#181818" points="994.71,3022.8383,985.7563,3018.7357,989.7103,3022.7811,985.6649,3026.7352,994.71,3022.8383" style="stroke:#181818;stroke-width:1.0;"/></g><!--link Owner to UC4--><g id="link_Owner_UC4"><path d="M157.75,3136.2583 C282.61,3135.2983 763,3131.5983 1013.12,3129.6683 " fill="none" id="Owner-to-UC4" style="stroke:#181818;stroke-width:1.0;"/><polygon fill="#181818" points="1017.84,3129.6283,1008.806,3125.7056,1012.8402,3129.6711,1008.8746,3133.7053,1017.84,3129.6283" style="stroke:#181818;stroke-width:1.0;"/></g><!--link System Administrator to UC5--><g id="link_System Administrator_UC5"><path d="M133.75,2970.8683 C150.07,2863.4683 197.53,2590.8483 266,2534.4883 C455.03,2378.8883 748.1,2383.5983 948.19,2411.0183 " fill="none" id="System Administrator-to-UC5" style="stroke:#181818;stroke-width:1.0;"/><polygon fill="#181818" points="952.88,2411.6683,944.515,2406.4695,947.9274,2410.9812,943.4157,2414.3936,952.88,2411.6683" style="stroke:#181818;stroke-width:1.0;"/></g><!--link System Administrator to UC6--><g id="link_System Administrator_UC6"><path d="M137.47,2970.6283 C153.51,2910.9883 191.15,2805.8583 266,2754.4883 C401.1,2661.7683 575.12,2626.2483 734.11,2616.7383 " fill="none" id="System Administrator-to-UC6" style="stroke:#181818;stroke-width:1.0;"/><polygon fill="#181818" points="738.72,2616.4783,729.5059,2612.9997,733.7282,2616.7643,729.9636,2620.9866,738.72,2616.4783" style="stroke:#181818;stroke-width:1.0;"/></g><!--link Client to UC7--><g id="link_Client_UC7"><path d="M154.98,1036.8283 C185.05,1030.1083 231.91,1014.5483 254,980.4883 C278.98,941.9683 234.5,600.8883 266,567.4883 C443.18,379.6283 764.62,400.6283 971.68,439.6083 " fill="none" id="Client-to-UC7" style="stroke:#181818;stroke-width:1.0;"/><polygon fill="#181818" points="976.59,440.5383,968.4892,434.9368,971.6769,439.6099,967.0038,442.7977,976.59,440.5383" style="stroke:#181818;stroke-width:1.0;"/></g><!--link Agent to UC8--><g id="link_Agent_UC8"><path d="M154.76,1164.6183 C247.71,1168.4683 560.55,1181.4083 814.02,1191.8983 " fill="none" id="Agent-to-UC8" style="stroke:#181818;stroke-width:1.0;"/><polygon fill="#181818" points="818.86,1192.0983,810.0401,1187.7155,813.8646,1191.8836,809.6965,1195.7081,818.86,1192.0983" style="stroke:#181818;stroke-width:1.0;"/></g><!--link Client to UC9--><g id="link_Client_UC9"><path d="M154.84,1036.7383 C184.79,1029.9383 231.55,1014.3083 254,980.4883 C268.58,958.5183 247.8,762.5683 266,743.4883 C432.36,569.1483 722.72,572.1583 928.71,602.5683 " fill="none" id="Client-to-UC9" style="stroke:#181818;stroke-width:1.0;"/><polygon fill="#181818" points="933.59,603.2983,925.2844,598.0051,928.6455,602.5552,924.0955,605.9163,933.59,603.2983" style="stroke:#181818;stroke-width:1.0;"/></g><!--link Client to UC10--><g id="link_Client_UC10"><path d="M154.95,1036.3083 C184.53,1029.1883 230.52,1013.3083 254,980.4883 C279.79,944.4383 233.98,912.1283 266,881.4883 C357.42,794.0183 691.43,789.4083 925.85,797.9483 " fill="none" id="Client-to-UC10" style="stroke:#181818;stroke-width:1.0;"/><polygon fill="#181818" points="930.55,798.1283,921.7047,793.797,925.5534,797.9427,921.4077,801.7915,930.55,798.1283" style="stroke:#181818;stroke-width:1.0;"/></g><!--link Agent to UC11--><g id="link_Agent_UC11"><path d="M131.26,1207.1483 C142.96,1331.9083 182.95,1685.7583 266,1760.4883 C400.1,1881.1583 594.43,1916.0783 768.27,1917.8183 " fill="none" id="Agent-to-UC11" style="stroke:#181818;stroke-width:1.0;"/><polygon fill="#181818" points="773.19,1917.8583,764.2246,1913.7813,768.1902,1917.8154,764.156,1921.781,773.19,1917.8583" style="stroke:#181818;stroke-width:1.0;"/></g><!--link System Administrator to UC12--><g id="link_System Administrator_UC12"><path d="M230.16,2979.5183 C242.15,2976.1383 254.29,2973.0283 266,2970.4883 C422.71,2936.5183 597.25,2912.4783 750.62,2895.8583 " fill="none" id="System Administrator-to-UC12" style="stroke:#181818;stroke-width:1.0;"/><polygon fill="#181818" points="755.48,2895.3283,746.099,2892.3289,750.5095,2895.871,746.9674,2900.2816,755.48,2895.3283" style="stroke:#181818;stroke-width:1.0;"/></g><!--link Network Manager to UC13--><g id="link_Network Manager_UC13"><path d="M210.96,3290.4783 C226.25,3298.5583 241.35,3308.2083 254,3319.4883 C261.45,3326.1383 257.58,3333.1183 266,3338.4883 C391.29,3418.3083 546.39,3454.9383 692.37,3469.3683 " fill="none" id="Network Manager-to-UC13" style="stroke:#181818;stroke-width:1.0;"/><polygon fill="#181818" points="696.93,3469.8083,688.3616,3464.9521,691.9537,3469.3221,687.5837,3472.9142,696.93,3469.8083" style="stroke:#181818;stroke-width:1.0;"/></g><!--link Client to UC14--><g id="link_Client_UC14"><path d="M154.76,1040.3583 C232.47,1037.1483 463.89,1027.5683 685.81,1018.3783 " fill="none" id="Client-to-UC14" style="stroke:#181818;stroke-width:1.0;"/><polygon fill="#181818" points="690.53,1018.1883,681.3665,1014.5784,685.5346,1018.403,681.7101,1022.5711,690.53,1018.1883" style="stroke:#181818;stroke-width:1.0;"/></g><!--link Agent to UC15--><g id="link_Agent_UC15"><path d="M154.82,1200.7783 C179.95,1231.9983 220.19,1274.8283 266,1296.4883 C408.31,1363.7783 576.83,1394.8283 729.37,1407.6883 " fill="none" id="Agent-to-UC15" style="stroke:#181818;stroke-width:1.0;"/><polygon fill="#181818" points="734.2,1408.0783,725.5621,1403.3467,729.2172,1407.6642,724.8997,1411.3193,734.2,1408.0783" style="stroke:#181818;stroke-width:1.0;"/></g><!--link Agent to UC16--><g id="link_Agent_UC16"><path d="M131.28,1207.2783 C140.28,1282.2283 169.99,1434.2783 266,1509.4883 C372.35,1592.7983 508.23,1634.4883 642.01,1653.0783 " fill="none" id="Agent-to-UC16" style="stroke:#181818;stroke-width:1.0;"/><polygon fill="#181818" points="646.87,1653.7383,638.503,1648.5428,641.9172,1653.0532,637.4068,1656.4673,646.87,1653.7383" style="stroke:#181818;stroke-width:1.0;"/></g><!--link Network Manager to UC17--><g id="link_Network Manager_UC17"><path d="M210.77,3258.4883 C350.2,3258.4883 637.57,3258.4883 860.97,3258.4883 " fill="none" id="Network Manager-to-UC17" style="stroke:#181818;stroke-width:1.0;"/><polygon fill="#181818" points="865.72,3258.4883,856.72,3254.4883,860.72,3258.4883,856.72,3262.4883,865.72,3258.4883" style="stroke:#181818;stroke-width:1.0;"/></g><!--link Store Manager to UC18--><g id="link_Store Manager_UC18"><path d="M128.11,3424.4083 C131.83,3511.4583 153.08,3706.2983 266,3808.4883 C310.22,3848.5083 360.66,3880.9983 414.56,3907.3183 " fill="none" id="Store Manager-to-UC18" style="stroke:#181818;stroke-width:1.0;"/><polygon fill="#181818" points="418.77,3909.3483,412.422,3901.8181,414.2725,3907.1638,408.9268,3909.0142,418.77,3909.3483" style="stroke:#181818;stroke-width:1.0;"/></g><!--link Network Manager to UC19--><g id="link_Network Manager_UC19"><path d="M210.7,3282.9483 C227.66,3291.7783 243.5,3303.6283 254,3319.4883 C269.29,3342.5883 247.26,3548.0983 266,3568.4883 C382.42,3695.1683 563.14,3735.6783 732.22,3740.4483 " fill="none" id="Network Manager-to-UC19" style="stroke:#181818;stroke-width:1.0;"/><polygon fill="#181818" points="736.97,3740.5683,728.0758,3736.3383,731.9717,3740.4398,727.8702,3744.3356,736.97,3740.5683" style="stroke:#181818;stroke-width:1.0;"/></g><!--link Client to UC20--><g id="link_Client_UC20"><path d="M154.75,1036.9183 C184.86,1030.2683 231.98,1014.7383 254,980.4883 C271.16,953.7983 244.8,433.0883 266,409.4883 C389.16,272.3783 587.68,236.3083 767.01,237.5983 " fill="none" id="Client-to-UC20" style="stroke:#181818;stroke-width:1.0;"/><polygon fill="#181818" points="771.87,237.6483,762.9163,233.5457,766.8703,237.5911,762.8249,241.5452,771.87,237.6483" style="stroke:#181818;stroke-width:1.0;"/></g><!--link Agent to UC21--><g id="link_Agent_UC21"><path d="M127.11,1207.2883 C126.57,1378.1883 133.9,1997.1483 266,2128.4883 C376.03,2237.8983 534.38,2281.5483 687.7,2293.8283 " fill="none" id="Agent-to-UC21" style="stroke:#181818;stroke-width:1.0;"/><polygon fill="#181818" points="692.57,2294.1983,683.9053,2289.516,687.5849,2293.8126,683.2883,2297.4922,692.57,2294.1983" style="stroke:#181818;stroke-width:1.0;"/></g><!--SRC=[hLPDR-Cs4BtxLmnoQGiasyY9xUHI84rH8C3s0-lkRO62aiOM6ufKISg6MkI_TuQYP7q4hWiqXoGIoVUUPjxCqBrANGahIcMoLymXnvsebV_HQB-LVo4iRnTVkMuFb4QRhB2cHF2sniLffHBPgzZZrZSAmMBcXTwhuGPNYDmSfTwt9mSh_Uw_5q0_tnkRetqsobXeK2bpNBmj5bvw0lxi49u5_Vf1YZsTNImKxZnu0rRk2m-vP31fz6BHeyBLjd4UItZAlB7k2eG34VxzFO6MCZp2rMTjSIzfhwL049Mz6gu-AudQZruzxSERjylObcEsRbzUIasaLj3R4VelHpsHy3Fwex6ly9FG5ElnsfP-usbbhAcBMwkdTfZnGoidFj6cvmHkABAkKg81nO78eRAcGkjbF4fxmg7kvvsOmStDpNVznW7waj1_hLC2Ba3e1fmWQK9hK-iCIuea60s-G70XCf5lEUPhGmujnN9ASKSKdw8U4A3n25XMoZI84Uvk3FTk4YBwtHJzdj2tTLfA3rlMJc7_5DG4vFinSfkz27K_XLeHr1Cv8tuhYA60QtY1ez2jhqzVupZ37oBRwlBlM4t9rvUIkmepkQDCUU7HNLDvqIQPUJghSyWasmBaC6cTlFNbyjPJUPjX4aVeh2cjcsjmr1Su_9PTCxFePamU2pVIRQPq3vnLn433fWUpwo2RiJqj_bcZewylHOwifP0bATb5seSpJdsOiZuIwqSK1we0AD4vgbf6P1623uRmPmNcDHS97AIJuPtejKNMntCV-pYhy5ikGYKohZm8dPPHgzfc1MzX_Wb1SdkE8QuEARYBVEH0MXGAC9Zdn10uNVYKBCFASnfpp9JK_9tZRR0pTlx5IN8cqCcixIJSTrxAobXFRYB4Kl24W1sDCG9Nk1TPqnki41v80AI8cir7GFp7uG4jVGtd9Xiqm-NbFazctIgvwmfHnyPUjkrxM8F1aeBitZKo1xoL1odfObbDsndOjvo-YDLLOZBfUDCPqgcRTRlalbENXOoFkvB80vb5LnbD1pXJmRnLPQJsetgv7cVRuXyqcK3wNkBzMOTDc-SswRgdRck5bH4dKayQ1Ymr9eIfBrlMU6eMCTWvf0rLOAzbTSvSgvcKzLJAiI3Z72I6guwOYXW7aMENTsLFgBRrNrVtROX3wVVorkVahMVoDl_5OJdLQzlSUhhDPURPp8WV-XaJl3cWFMMAtgacDfsM-skZLRmOa9iBGuZjh15qLGocSj-q0k550x-JMQt413Sp9IsT6baBU12gvkAHlWYCv0QMw-F2Xo_wjz3yC9VX2jdLKrZk7jBQKQDoxjiUkwm98aNkSv8w2_k9Of1tTndgPfPkQ6Wfo39p7SvWmEJ0c7lW3YXiU57I3Lp6Pxe0a54S2n9gRop9BrsVdydC6Ly2k-mypBBpU84jSdcGUPiSXs4giaT2EjkXJxOzqf2gKrfsrr-qCwrz-OGtdhgbhikKJ7qQg5nsCG8HA2K1t6h3eHCSIDU6Jnco0CruGo58rScOZvSPSpe0jylR_wch_LjJMvuTcylRcR1asabYADdKdHMv5RnxE-nNWt_uoLGqWjWqgQdzoBkzmdDpb1RV5ly0]--></g></svg>