<?xml version="1.0" encoding="UTF-8" standalone="no"?><svg xmlns="http://www.w3.org/2000/svg" xmlns:xlink="http://www.w3.org/1999/xlink" contentStyleType="text/css" height="3985px" preserveAspectRatio="none" style="width:1371px;height:3985px;background:#FFFFFF;" version="1.1" viewBox="0 0 1371 3985" width="1371px" zoomAndPan="magnify"><defs><filter height="300%" id="f18mm0gtsx3eqe" width="300%" x="-1" y="-1"><feGaussianBlur result="blurOut" stdDeviation="2.0"/><feColorMatrix in="blurOut" result="blurOut2" type="matrix" values="0 0 0 0 0 0 0 0 0 0 0 0 0 0 0 0 0 0 .4 0"/><feOffset dx="4.0" dy="4.0" in="blurOut2" result="blurOut3"/><feBlend in="SourceGraphic" in2="blurOut3" mode="normal"/></filter></defs><g><text fill="#000000" font-family="sans-serif" font-size="14" font-weight="bold" lengthAdjust="spacing" textLength="131" x="613" y="23.5352">Use Case Diagram</text><!--cluster actors_1--><g id="cluster_actors_1"><rect fill="none" filter="url(#f18mm0gtsx3eqe)" height="390" rx="2.5" ry="2.5" style="stroke:#FFFF00;stroke-width:1.0;" width="204" x="24.5" y="833.4883"/><text fill="#000000" font-family="sans-serif" font-size="20" font-weight="bold" lengthAdjust="spacing" textLength="147" x="53" y="854.8242">System Actors</text></g><!--cluster actors_2--><g id="cluster_actors_2"><rect fill="none" filter="url(#f18mm0gtsx3eqe)" height="512" rx="2.5" ry="2.5" style="stroke:#FFFF00;stroke-width:1.0;" width="239" x="7" y="2928.4883"/><text fill="#000000" font-family="sans-serif" font-size="20" font-weight="bold" lengthAdjust="spacing" textLength="147" x="53" y="2949.8242">System Actors</text></g><!--cluster usecases--><g id="cluster_usecases"><rect fill="none" filter="url(#f18mm0gtsx3eqe)" height="3929" rx="2.5" ry="2.5" style="stroke:#FFFF00;stroke-width:1.0;" width="1085" x="274" y="44.4883"/><text fill="#000000" font-family="sans-serif" font-size="20" font-weight="bold" lengthAdjust="spacing" textLength="105" x="764" y="65.8242">Use Cases</text></g><!--entity Unregistered User--><g id="elem_Unregistered User"><ellipse cx="126.5" cy="884.4883" fill="#F1F1F1" filter="url(#f18mm0gtsx3eqe)" rx="8" ry="8" style="stroke:#181818;stroke-width:0.5;"/><path d="M126.5,892.4883 L126.5,919.4883 M113.5,900.4883 L139.5,900.4883 M126.5,919.4883 L113.5,934.4883 M126.5,919.4883 L139.5,934.4883 " fill="none" filter="url(#f18mm0gtsx3eqe)" style="stroke:#181818;stroke-width:0.5;"/><text fill="#000000" font-family="sans-serif" font-size="20" lengthAdjust="spacing" textLength="172" x="40.5" y="958.3242">Unregistered User</text></g><!--entity Client--><g id="elem_Client"><ellipse cx="126.5" cy="1006.4883" fill="#F1F1F1" filter="url(#f18mm0gtsx3eqe)" rx="8" ry="8" style="stroke:#181818;stroke-width:0.5;"/><path d="M126.5,1014.4883 L126.5,1041.4883 M113.5,1022.4883 L139.5,1022.4883 M126.5,1041.4883 L113.5,1056.4883 M126.5,1041.4883 L139.5,1056.4883 " fill="none" filter="url(#f18mm0gtsx3eqe)" style="stroke:#181818;stroke-width:0.5;"/><text fill="#000000" font-family="sans-serif" font-size="20" lengthAdjust="spacing" textLength="56" x="98.5" y="1080.3242">Client</text></g><!--entity Agent--><g id="elem_Agent"><ellipse cx="126.5" cy="1128.4883" fill="#F1F1F1" filter="url(#f18mm0gtsx3eqe)" rx="8" ry="8" style="stroke:#181818;stroke-width:0.5;"/><path d="M126.5,1136.4883 L126.5,1163.4883 M113.5,1144.4883 L139.5,1144.4883 M126.5,1163.4883 L113.5,1178.4883 M126.5,1163.4883 L139.5,1178.4883 " fill="none" filter="url(#f18mm0gtsx3eqe)" style="stroke:#181818;stroke-width:0.5;"/><text fill="#000000" font-family="sans-serif" font-size="20" lengthAdjust="spacing" textLength="56" x="98.5" y="1202.3242">Agent</text></g><!--entity System Administrator--><g id="elem_System Administrator"><ellipse cx="126.5" cy="2979.4883" fill="#F1F1F1" filter="url(#f18mm0gtsx3eqe)" rx="8" ry="8" style="stroke:#181818;stroke-width:0.5;"/><path d="M126.5,2987.4883 L126.5,3014.4883 M113.5,2995.4883 L139.5,2995.4883 M126.5,3014.4883 L113.5,3029.4883 M126.5,3014.4883 L139.5,3029.4883 " fill="none" filter="url(#f18mm0gtsx3eqe)" style="stroke:#181818;stroke-width:0.5;"/><text fill="#000000" font-family="sans-serif" font-size="20" lengthAdjust="spacing" textLength="207" x="23" y="3053.3242">System Administrator</text></g><!--entity Owner--><g id="elem_Owner"><ellipse cx="126.5" cy="3101.4883" fill="#F1F1F1" filter="url(#f18mm0gtsx3eqe)" rx="8" ry="8" style="stroke:#181818;stroke-width:0.5;"/><path d="M126.5,3109.4883 L126.5,3136.4883 M113.5,3117.4883 L139.5,3117.4883 M126.5,3136.4883 L113.5,3151.4883 M126.5,3136.4883 L139.5,3151.4883 " fill="none" filter="url(#f18mm0gtsx3eqe)" style="stroke:#181818;stroke-width:0.5;"/><text fill="#000000" font-family="sans-serif" font-size="20" lengthAdjust="spacing" textLength="62" x="95.5" y="3175.3242">Owner</text></g><!--entity Network Manager--><g id="elem_Network Manager"><ellipse cx="126.5" cy="3223.4883" fill="#F1F1F1" filter="url(#f18mm0gtsx3eqe)" rx="8" ry="8" style="stroke:#181818;stroke-width:0.5;"/><path d="M126.5,3231.4883 L126.5,3258.4883 M113.5,3239.4883 L139.5,3239.4883 M126.5,3258.4883 L113.5,3273.4883 M126.5,3258.4883 L139.5,3273.4883 " fill="none" filter="url(#f18mm0gtsx3eqe)" style="stroke:#181818;stroke-width:0.5;"/><text fill="#000000" font-family="sans-serif" font-size="20" lengthAdjust="spacing" textLength="168" x="42.5" y="3297.3242">Network Manager</text></g><!--entity Store Manager--><g id="elem_Store Manager"><ellipse cx="126.5" cy="3345.4883" fill="#F1F1F1" filter="url(#f18mm0gtsx3eqe)" rx="8" ry="8" style="stroke:#181818;stroke-width:0.5;"/><path d="M126.5,3353.4883 L126.5,3380.4883 M113.5,3361.4883 L139.5,3361.4883 M126.5,3380.4883 L113.5,3395.4883 M126.5,3380.4883 L139.5,3395.4883 " fill="none" filter="url(#f18mm0gtsx3eqe)" style="stroke:#181818;stroke-width:0.5;"/><text fill="#000000" font-family="sans-serif" font-size="20" lengthAdjust="spacing" textLength="137" x="58" y="3419.3242">Store Manager</text></g><g id="elem_UC1"><ellipse cx="816.7443" cy="123.3371" fill="#F1F1F1" filter="url(#f18mm0gtsx3eqe)" rx="169.7443" ry="36.3489" style="stroke:#181818;stroke-width:0.5;"/><text fill="#000000" font-family="sans-serif" font-size="20" lengthAdjust="spacing" textLength="300" x="666.7443" y="128.8957">UC1 - Display listed properties</text></g><g id="elem_UC2"><ellipse cx="816.6349" cy="2055.4153" fill="#F1F1F1" filter="url(#f18mm0gtsx3eqe)" rx="267.6349" ry="55.927" style="stroke:#181818;stroke-width:0.5;"/><text fill="#000000" font-family="sans-serif" font-size="20" lengthAdjust="spacing" textLength="504" x="564.6349" y="2060.9739">UC2 - Publish any sale announcement on the system</text></g><g id="elem_UC3"><ellipse cx="816.6484" cy="3024.618" fill="#F1F1F1" filter="url(#f18mm0gtsx3eqe)" rx="171.1484" ry="36.6297" style="stroke:#181818;stroke-width:0.5;"/><text fill="#000000" font-family="sans-serif" font-size="20" lengthAdjust="spacing" textLength="303" x="665.1484" y="3030.1766">UC3 - Register a new employee</text></g><g id="elem_UC4"><ellipse cx="816.7053" cy="3128.5293" fill="#F1F1F1" filter="url(#f18mm0gtsx3eqe)" rx="148.2053" ry="32.0411" style="stroke:#181818;stroke-width:0.5;"/><text fill="#000000" font-family="sans-serif" font-size="20" lengthAdjust="spacing" textLength="253" x="687.2053" y="3135.4473">UC4 - Submit Sale or Rent</text></g><g id="elem_UC5"><ellipse cx="816.4485" cy="2455.378" fill="#F1F1F1" filter="url(#f18mm0gtsx3eqe)" rx="297.4485" ry="61.8897" style="stroke:#181818;stroke-width:0.5;"/><text fill="#000000" font-family="sans-serif" font-size="20" lengthAdjust="spacing" textLength="565" x="533.9485" y="2460.9366">UC5 - As a system administrator, I want to register a store.</text></g><g id="elem_UC6"><ellipse cx="816.4142" cy="2644.4711" fill="#F1F1F1" filter="url(#f18mm0gtsx3eqe)" rx="447.9142" ry="91.9828" style="stroke:#181818;stroke-width:0.5;"/><text fill="#000000" font-family="sans-serif" font-size="20" lengthAdjust="spacing" textLength="870" x="381.4142" y="2650.0297">UC6 - As a system administrator, I want to specify states, districts and cities in the system.</text></g><g id="elem_UC7"><ellipse cx="816.4789" cy="488.5841" fill="#F1F1F1" filter="url(#f18mm0gtsx3eqe)" rx="295.9789" ry="61.5958" style="stroke:#181818;stroke-width:0.5;"/><text fill="#000000" font-family="sans-serif" font-size="20" lengthAdjust="spacing" textLength="562" x="535.4789" y="494.1427">UC7 - Register in the system to buy, sell or rent properties</text></g><g id="elem_UC8"><ellipse cx="816.4824" cy="1206.5848" fill="#F1F1F1" filter="url(#f18mm0gtsx3eqe)" rx="353.4824" ry="73.0965" style="stroke:#181818;stroke-width:0.5;"/><text fill="#000000" font-family="sans-serif" font-size="20" lengthAdjust="spacing" textLength="679" x="476.9824" y="1212.1434">UC8 - See the list of property announcement requests made to himself</text></g><g id="elem_UC9"><ellipse cx="816.6666" cy="655.6216" fill="#F1F1F1" filter="url(#f18mm0gtsx3eqe)" rx="341.1666" ry="70.6333" style="stroke:#181818;stroke-width:0.5;"/><text fill="#000000" font-family="sans-serif" font-size="20" lengthAdjust="spacing" textLength="654" x="489.6666" y="661.1802">UC9 - Leave a message to the agent to schedule a visit to a property</text></g><g id="elem_UC10"><ellipse cx="816.2958" cy="812.2474" fill="#F1F1F1" filter="url(#f18mm0gtsx3eqe)" rx="244.2958" ry="51.2592" style="stroke:#181818;stroke-width:0.5;"/><text fill="#000000" font-family="sans-serif" font-size="20" lengthAdjust="spacing" textLength="456" x="588.2958" y="817.806">UC10 - Place an order to purchase the property</text></g><g id="elem_UC11"><ellipse cx="816.3793" cy="1871.2641" fill="#F1F1F1" filter="url(#f18mm0gtsx3eqe)" rx="451.8793" ry="92.7759" style="stroke:#181818;stroke-width:0.5;"/><text fill="#000000" font-family="sans-serif" font-size="20" lengthAdjust="spacing" textLength="878" x="377.3793" y="1876.8227">UC11 - List real estate purchase orders to accept or decline a purchase order for a property</text></g><g id="elem_UC12"><ellipse cx="816.4904" cy="2862.2864" fill="#F1F1F1" filter="url(#f18mm0gtsx3eqe)" rx="439.4904" ry="90.2981" style="stroke:#181818;stroke-width:0.5;"/><text fill="#000000" font-family="sans-serif" font-size="20" lengthAdjust="spacing" textLength="853" x="389.9904" y="2867.845">UC12 - Import information from a legacy system that has been in use in several agencies</text></g><g id="elem_UC13"><ellipse cx="816.6824" cy="3453.5248" fill="#F1F1F1" filter="url(#f18mm0gtsx3eqe)" rx="475.6824" ry="97.5365" style="stroke:#181818;stroke-width:0.5;"/><text fill="#000000" font-family="sans-serif" font-size="20" lengthAdjust="spacing" textLength="926" x="353.6824" y="3459.0834">UC13 - As a network manager, I want to list all employees working in every store of the network.</text></g><g id="elem_UC14"><ellipse cx="816.6136" cy="998.311" fill="#F1F1F1" filter="url(#f18mm0gtsx3eqe)" rx="484.6136" ry="99.3227" style="stroke:#181818;stroke-width:0.5;"/><text fill="#000000" font-family="sans-serif" font-size="20" lengthAdjust="spacing" textLength="944" x="344.6136" y="1003.8696">UC14 - As a client, I want to read the response for the appointment requests, to accept or reject it.</text></g><g id="elem_UC15"><ellipse cx="816.5602" cy="1403.3003" fill="#F1F1F1" filter="url(#f18mm0gtsx3eqe)" rx="432.0602" ry="88.812" style="stroke:#181818;stroke-width:0.5;"/><text fill="#000000" font-family="sans-serif" font-size="20" lengthAdjust="spacing" textLength="838" x="397.5602" y="1408.8589">US15 - As an agent, I intend to list all booking requests for properties managed by me.</text></g><g id="elem_UC16"><ellipse cx="816.3237" cy="1635.653" fill="#F1F1F1" filter="url(#f18mm0gtsx3eqe)" rx="526.3237" ry="107.6647" style="stroke:#181818;stroke-width:0.5;"/><text fill="#000000" font-family="sans-serif" font-size="20" lengthAdjust="spacing" textLength="1028" x="302.3237" y="1641.2116">US16 - As an agent, when viewing a booking request, I want to respond to the user that scheduled the visit.</text></g><g id="elem_UC17"><ellipse cx="816.3984" cy="3258.368" fill="#F1F1F1" filter="url(#f18mm0gtsx3eqe)" rx="299.8984" ry="62.3797" style="stroke:#181818;stroke-width:0.5;"/><text fill="#000000" font-family="sans-serif" font-size="20" lengthAdjust="spacing" textLength="570" x="531.3984" y="3263.9266">US17 - As a network manager, I want to list all deals made.</text></g><g id="elem_UC18"><ellipse cx="816.561" cy="3891.4005" fill="#F1F1F1" filter="url(#f18mm0gtsx3eqe)" rx="317.561" ry="65.9122" style="stroke:#181818;stroke-width:0.5;"/><text fill="#000000" font-family="sans-serif" font-size="20" lengthAdjust="spacing" textLength="606" x="513.561" y="3896.9591">US18 - As a store manager, I intend to analyse the deals made.</text></g><g id="elem_UC19"><ellipse cx="816.7086" cy="3688.53" fill="#F1F1F1" filter="url(#f18mm0gtsx3eqe)" rx="498.2086" ry="102.0417" style="stroke:#181818;stroke-width:0.5;"/><text fill="#000000" font-family="sans-serif" font-size="20" lengthAdjust="spacing" textLength="810" x="411.7086" y="3682.3113">US19 - As a network manager, I want to divide the set of all stores in to two subsets,</text><text fill="#000000" font-family="sans-serif" font-size="20" lengthAdjust="spacing" textLength="950" x="341.7086" y="3705.8659">so that the total number of properties of the stores between the two subsets is the closest possible.</text></g><g id="elem_UC20"><ellipse cx="816.663" cy="293.5209" fill="#F1F1F1" filter="url(#f18mm0gtsx3eqe)" rx="478.163" ry="98.0326" style="stroke:#181818;stroke-width:0.5;"/><text fill="#000000" font-family="sans-serif" font-size="20" lengthAdjust="spacing" textLength="931" x="351.163" y="299.0795">US20 - As a client, I want to read the response for the appointment request, to accept or reject it.</text></g><g id="elem_UC21"><ellipse cx="816.3983" cy="2252.3679" fill="#F1F1F1" filter="url(#f18mm0gtsx3eqe)" rx="514.8983" ry="105.3797" style="stroke:#181818;stroke-width:0.5;"/><text fill="#000000" font-family="sans-serif" font-size="20" lengthAdjust="spacing" textLength="1005" x="313.8983" y="2257.9265">US21 - As an agent, at the end of the visit, I want to register the visit and the opinion about the business.</text></g><!--link Unregistered User to UC1--><g id="link_Unregistered User_UC1"><path d="M129.04,875.5583 C135.08,730.8083 162.23,272.6383 266,177.4883 C378.82,74.0383 564.68,78.6283 688.58,96.7383 " fill="none" id="Unregistered User-to-UC1" style="stroke:#181818;stroke-width:1.0;"/><polygon fill="#181818" points="693.3,97.4383,684.9944,92.1451,688.3555,96.6952,683.8055,100.0563,693.3,97.4383" style="stroke:#181818;stroke-width:1.0;"/></g><!--link Agent to UC2--><g id="link_Agent_UC2"><path d="M128.35,1207.3583 C132.27,1361.2283 153.7,1872.9283 266,1981.4883 C346.75,2059.5483 468.04,2081.8283 576.14,2082.9583 " fill="none" id="Agent-to-UC2" style="stroke:#181818;stroke-width:1.0;"/><polygon fill="#181818" points="581.07,2082.9883,572.093,2078.9369,576.0701,2082.9597,572.0473,2086.9368,581.07,2082.9883" style="stroke:#181818;stroke-width:1.0;"/></g><!--link System Administrator to UC3--><g id="link_System Administrator_UC3"><path d="M230.13,3015.9783 C337.99,3017.5483 509.66,3020.0383 639.26,3021.9283 " fill="none" id="System Administrator-to-UC3" style="stroke:#181818;stroke-width:1.0;"/><polygon fill="#181818" points="643.89,3021.9983,634.9481,3017.8701,638.8905,3021.9269,634.8338,3025.8693,643.89,3021.9983" style="stroke:#181818;stroke-width:1.0;"/></g><!--link Owner to UC4--><g id="link_Owner_UC4"><path d="M157.95,3136.1383 C244.48,3135.1283 496.23,3132.1983 661.92,3130.2783 " fill="none" id="Owner-to-UC4" style="stroke:#181818;stroke-width:1.0;"/><polygon fill="#181818" points="666.76,3130.2183,657.7149,3126.3214,661.7603,3130.2754,657.8063,3134.3209,666.76,3130.2183" style="stroke:#181818;stroke-width:1.0;"/></g><!--link System Administrator to UC5--><g id="link_System Administrator_UC5"><path d="M134,2970.7083 C150.83,2863.5583 199.19,2592.6483 266,2534.4883 C336.7,2472.9383 433,2446.7483 525.24,2437.9383 " fill="none" id="System Administrator-to-UC5" style="stroke:#181818;stroke-width:1.0;"/><polygon fill="#181818" points="530.09,2437.4983,520.7624,2434.3368,525.1109,2437.9548,521.4928,2442.3033,530.09,2437.4983" style="stroke:#181818;stroke-width:1.0;"/></g><!--link System Administrator to UC6--><g id="link_System Administrator_UC6"><path d="M138.18,2970.9283 C154.96,2912.1183 193.36,2808.5083 266,2754.4883 C306.79,2724.1483 353.82,2701.6183 402.85,2684.9583 " fill="none" id="System Administrator-to-UC6" style="stroke:#181818;stroke-width:1.0;"/><polygon fill="#181818" points="407.4,2683.4383,397.5961,2682.4985,402.658,2685.0237,400.1328,2690.0856,407.4,2683.4383" style="stroke:#181818;stroke-width:1.0;"/></g><!--link Client to UC7--><g id="link_Client_UC7"><path d="M154.98,1036.8283 C185.05,1030.1083 231.91,1014.5483 254,980.4883 C278.98,941.9683 235.44,601.7383 266,567.4883 C336,489.0383 446.13,463.0983 549.47,459.1683 " fill="none" id="Client-to-UC7" style="stroke:#181818;stroke-width:1.0;"/><polygon fill="#181818" points="554.44,458.9983,545.3082,455.309,549.4429,459.1696,545.5823,463.3043,554.44,458.9983" style="stroke:#181818;stroke-width:1.0;"/></g><!--link Agent to UC8--><g id="link_Agent_UC8"><path d="M154.89,1165.1983 C210.13,1168.6483 340.75,1176.8183 471.39,1184.9783 " fill="none" id="Agent-to-UC8" style="stroke:#181818;stroke-width:1.0;"/><polygon fill="#181818" points="476.1,1185.2783,467.3695,1180.72,471.1099,1184.9637,466.8662,1188.7041,476.1,1185.2783" style="stroke:#181818;stroke-width:1.0;"/></g><!--link Client to UC9--><g id="link_Client_UC9"><path d="M154.84,1036.7383 C184.79,1029.9383 231.55,1014.3083 254,980.4883 C268.58,958.5183 248.39,763.1183 266,743.4883 C320.4,682.8683 398.56,652.6283 478.93,639.3383 " fill="none" id="Client-to-UC9" style="stroke:#181818;stroke-width:1.0;"/><polygon fill="#181818" points="483.72,638.5683,474.2036,636.0308,478.782,639.3532,475.4596,643.9316,483.72,638.5683" style="stroke:#181818;stroke-width:1.0;"/></g><!--link Client to UC10--><g id="link_Client_UC10"><path d="M154.95,1036.3083 C184.53,1029.1883 230.52,1013.3083 254,980.4883 C279.79,944.4383 234.73,912.8983 266,881.4883 C354.23,792.8783 494.62,776.4983 611.41,781.8183 " fill="none" id="Client-to-UC10" style="stroke:#181818;stroke-width:1.0;"/><polygon fill="#181818" points="616.15,782.0483,607.3553,777.6151,611.1559,781.805,606.966,785.6057,616.15,782.0483" style="stroke:#181818;stroke-width:1.0;"/></g><!--link Agent to UC11--><g id="link_Agent_UC11"><path d="M131.59,1207.2883 C144.11,1331.6183 185.98,1682.7283 266,1760.4883 C300.4,1793.9183 341.93,1818.5883 386.55,1836.6383 " fill="none" id="Agent-to-UC11" style="stroke:#181818;stroke-width:1.0;"/><polygon fill="#181818" points="391.18,1838.4683,384.2832,1831.4374,386.5308,1836.6286,381.3396,1838.8762,391.18,1838.4683" style="stroke:#181818;stroke-width:1.0;"/></g><!--link System Administrator to UC12--><g id="link_System Administrator_UC12"><path d="M230.36,2980.3883 C242.32,2976.8483 254.39,2973.4583 266,2970.4883 C333.54,2953.1783 406.36,2937.0983 476.2,2922.9083 " fill="none" id="System Administrator-to-UC12" style="stroke:#181818;stroke-width:1.0;"/><polygon fill="#181818" points="481.03,2921.9283,471.4119,2919.8087,476.131,2922.9281,473.0116,2927.6471,481.03,2921.9283" style="stroke:#181818;stroke-width:1.0;"/></g><!--link Network Manager to UC13--><g id="link_Network Manager_UC13"><path d="M210.96,3290.4783 C226.25,3298.5583 241.35,3308.2083 254,3319.4883 C261.45,3326.1383 257.8,3332.7883 266,3338.4883 C305.44,3365.8783 350.06,3386.9783 396.39,3403.2083 " fill="none" id="Network Manager-to-UC13" style="stroke:#181818;stroke-width:1.0;"/><polygon fill="#181818" points="400.92,3404.7683,393.7131,3398.0556,396.1925,3403.1401,391.108,3405.6195,400.92,3404.7683" style="stroke:#181818;stroke-width:1.0;"/></g><!--link Client to UC14--><g id="link_Client_UC14"><path d="M154.89,1039.7783 C192.1,1037.4483 263.52,1032.9883 346.11,1027.8283 " fill="none" id="Client-to-UC14" style="stroke:#181818;stroke-width:1.0;"/><polygon fill="#181818" points="351.08,1027.5183,341.8462,1024.0924,346.0899,1027.8328,342.3495,1032.0766,351.08,1027.5183" style="stroke:#181818;stroke-width:1.0;"/></g><!--link Agent to UC15--><g id="link_Agent_UC15"><path d="M154.98,1199.6483 C180.37,1230.3583 220.88,1273.0683 266,1296.4883 C317.6,1323.2683 375.1,1343.3783 432.91,1358.4683 " fill="none" id="Agent-to-UC15" style="stroke:#181818;stroke-width:1.0;"/><polygon fill="#181818" points="437.4,1359.6283,429.6768,1353.5166,432.5569,1358.3854,427.6882,1361.2655,437.4,1359.6283" style="stroke:#181818;stroke-width:1.0;"/></g><!--link Agent to UC16--><g id="link_Agent_UC16"><path d="M132.1,1207.3083 C142.29,1281.2783 173.69,1430.5183 266,1509.4883 C296.92,1535.9483 332.3,1557.1283 369.86,1574.0583 " fill="none" id="Agent-to-UC16" style="stroke:#181818;stroke-width:1.0;"/><polygon fill="#181818" points="374.04,1575.9183,367.436,1568.6116,369.4698,1573.8902,364.1911,1575.924,374.04,1575.9183" style="stroke:#181818;stroke-width:1.0;"/></g><!--link Network Manager to UC17--><g id="link_Network Manager_UC17"><path d="M210.83,3258.4883 C285.71,3258.4883 400.41,3258.4883 509.86,3258.4883 " fill="none" id="Network Manager-to-UC17" style="stroke:#181818;stroke-width:1.0;"/><polygon fill="#181818" points="514.55,3258.4883,505.55,3254.4883,509.55,3258.4883,505.55,3262.4883,514.55,3258.4883" style="stroke:#181818;stroke-width:1.0;"/></g><!--link Store Manager to UC18--><g id="link_Store Manager_UC18"><path d="M127.55,3424.3483 C130.21,3512.1783 149.6,3709.6783 266,3808.4883 C330.02,3862.8383 414.02,3889.8183 497.02,3901.7683 " fill="none" id="Store Manager-to-UC18" style="stroke:#181818;stroke-width:1.0;"/><polygon fill="#181818" points="501.5,3902.3983,493.1477,3897.1792,496.5491,3901.6992,492.0291,3905.1006,501.5,3902.3983" style="stroke:#181818;stroke-width:1.0;"/></g><!--link Network Manager to UC19--><g id="link_Network Manager_UC19"><path d="M210.7,3282.9483 C227.66,3291.7783 243.5,3303.6283 254,3319.4883 C269.29,3342.5883 248.11,3547.3383 266,3568.4883 C292.19,3599.4483 324.33,3623.5283 359.83,3642.1383 " fill="none" id="Network Manager-to-UC19" style="stroke:#181818;stroke-width:1.0;"/><polygon fill="#181818" points="364.2,3644.3883,357.9974,3636.7379,359.7451,3642.118,354.365,3643.8657,364.2,3644.3883" style="stroke:#181818;stroke-width:1.0;"/></g><!--link Client to UC20--><g id="link_Client_UC20"><path d="M154.75,1036.9183 C184.86,1030.2683 231.98,1014.7383 254,980.4883 C271.16,953.7983 245.76,433.9183 266,409.4883 C293.42,376.3883 327.69,351.2483 365.64,332.3183 " fill="none" id="Client-to-UC20" style="stroke:#181818;stroke-width:1.0;"/><polygon fill="#181818" points="369.91,330.2283,360.0668,330.5624,365.4125,332.4128,363.562,337.7584,369.91,330.2283" style="stroke:#181818;stroke-width:1.0;"/></g><!--link Agent to UC21--><g id="link_Agent_UC21"><path d="M127.45,1207.2583 C128.19,1377.3483 139.68,1991.7183 266,2128.4883 C292.77,2157.4683 324.75,2180.3983 359.63,2198.4583 " fill="none" id="Agent-to-UC21" style="stroke:#181818;stroke-width:1.0;"/><polygon fill="#181818" points="363.9,2200.6283,357.6974,2192.9779,359.4451,2198.358,354.065,2200.1057,363.9,2200.6283" style="stroke:#181818;stroke-width:1.0;"/></g><!--SRC=[hLR9ZkCs4BthAmfzoSKTM6wlbm2T3W8CC5amnjm219HKjfYMI8Masb22_lTKKPIifU4uG7omBIxlFTRoAFigLIMCA0kTlc866Pv4NRWVjN97-HV2QXbzOxirK6gbqzpe4i6P6gFhJ2NILt76esiA18Ef4-fS31VON6Jw8jMvtJcOwLV_7G5zljScG_EY2ssWmQBGb-WzYfnq1FpL8hm8-lf1YZFjZQ82JmwS1YFFkODCCfZKAefwL7WuDjPX2S-fqyO-WB0W_D_VOsWf_ICyV5K6pvBM6We4KPc7uUnB8L6vqT3psO-ytyUs6hDrwx9IAY8rWaP7wBzSr4J2p-Wkshp2Jq9HhCTpH_h6wynOKnUtLazjCUM7LavueaKlCJnIP6rLY0OA3aG6bT4L6YV3LbhZDtMV3s86Zu-Ft_KB1-WhGl-rJWWu1w4Qi8Aa2QLqhL8iAPAW5RWSmVh81BxLcAyDERGKgod54r5y2Nf0WC8BO5aLka4CS4zZk0-J4D2VfkXhGZ_MIIaT75axXVsBL-EHrsFaDdi1QZs5sX3KCrL6E2k8eO05V8ABK6rTNqzZESFV1hRD_UVOJCctzvBR2bDveamvuT0kgBreaKmTxLKPf9BB0kGmQPsyxVtojbDvks4IH-YiAQcR1LZo1Gw_uQgPbUXkJ1uQDz3jfdHxpYgYf-6Y1ttg89jnUHhyiqPBfoz5XgmbboKfEGNQ_OrAtKzP3yJw6SKRTG2KQ2rrBIEo2C4RVVZJ7BEQcmJUf9L-JFJQ0klXrc4FimvVSXCM8kNE0- -qZ5hL9irv2VDF2EBbBOOmEwHW5_dCWJGe2a1VF5S6psdzKT8KAyTfp30jfE9pZfV1IPlvYUFuHg3ZcUt4x3kVoaeRHzL4YANW6m9ET8qHU85daJPzWUN20Gc0155nyH4G_rXyGqEduToa0pDStL_dySojugUk4LKmzhArxs4F-f8KLEwTaLdWfNoHaYwMrRJEm7NBwGjONIV64yURtY6TkfdRnUjENUepFdObaNaoWxRIYZPmfdpnLfMMoetwPJ7Eji4_w6O2wNg9wviLDZNFOzovfsfxXPKH9v8d3GEMQEt3rBSjQxoQHGXs1ab37TXhsTmghirCodOgvP9JuRn9zAywOYfY74IENTQrFQ6Qjlwwlcz3x5k_bxUz9MyxaxVxBnMMKR-svjRJxUuhdjsCUD_VCRus1xJNJD5OqGJJ-O1xugVZ5voEUJzZFjnnv4o-oQmbjkWTdy_lfRON6gNaGWPS9pHj5xyfgzlKy0wd7Jc1gik44dQzBBYaGWi6e8G4i8tuJLSuaDOFfOMcbp2wlxIrCYck1p_S5_IfkHzNo_-fO_-jOLSthuJLSYOiddP922KNGeYPB_CFttpwMV_MmK-w8dib2nU9hbkWfBPqWLZRAxnrHz3aU_GF]--></g></svg>