<?xml version="1.0" encoding="UTF-8" standalone="no"?><svg xmlns="http://www.w3.org/2000/svg" xmlns:xlink="http://www.w3.org/1999/xlink" contentStyleType="text/css" height="2580px" preserveAspectRatio="none" style="width:2858px;height:2580px;background:#FFFFFF;" version="1.1" viewBox="0 0 2858 2580" width="2858px" zoomAndPan="magnify"><defs/><g><rect fill="#FFFFFF" height="2385.1641" style="stroke:#181818;stroke-width:1.0;" width="10" x="49" y="98.5547"/><rect fill="#FFFFFF" height="386.5469" style="stroke:#181818;stroke-width:1.0;" width="10" x="856" y="128.1094"/><rect fill="#FFFFFF" height="388.5469" style="stroke:#181818;stroke-width:1.0;" width="10" x="856" y="552.2109"/><rect fill="#FFFFFF" height="88.1094" style="stroke:#181818;stroke-width:1.0;" width="10" x="856" y="978.3125"/><rect fill="#FFFFFF" height="129.2188" style="stroke:#181818;stroke-width:1.0;" width="10" x="856" y="1103.9766"/><rect fill="#FFFFFF" height="95.1094" style="stroke:#181818;stroke-width:1.0;" width="10" x="856" y="1270.75"/><rect fill="#FFFFFF" height="88.1094" style="stroke:#181818;stroke-width:1.0;" width="10" x="856" y="1403.4141"/><rect fill="#FFFFFF" height="386.2109" style="stroke:#181818;stroke-width:1.0;" width="10" x="856" y="1617.2969"/><rect fill="#FFFFFF" height="433.6563" style="stroke:#181818;stroke-width:1.0;" width="10" x="856" y="2041.0625"/><rect fill="#FFFFFF" height="262.8828" style="stroke:#181818;stroke-width:1.0;" width="10" x="1449" y="214.2188"/><rect fill="#FFFFFF" height="262.8828" style="stroke:#181818;stroke-width:1.0;" width="10" x="1449" y="640.3203"/><rect fill="#FFFFFF" height="334.9922" style="stroke:#181818;stroke-width:1.0;" width="10" x="1449" y="2102.1719"/><rect fill="#FFFFFF" height="37.5547" style="stroke:#181818;stroke-width:1.0;" width="10" x="1656" y="251.7734"/><rect fill="#FFFFFF" height="37.5547" style="stroke:#181818;stroke-width:1.0;" width="10" x="1656" y="677.875"/><rect fill="#FFFFFF" height="37.5547" style="stroke:#181818;stroke-width:1.0;" width="10" x="1656" y="2139.7266"/><rect fill="#FFFFFF" height="37.5547" style="stroke:#181818;stroke-width:1.0;" width="10" x="1850" y="326.8828"/><rect fill="#FFFFFF" height="37.5547" style="stroke:#181818;stroke-width:1.0;" width="10" x="1850" y="752.9844"/><rect fill="#FFFFFF" height="268.8828" style="stroke:#181818;stroke-width:1.0;" width="10" x="2062.5" y="2214.8359"/><rect fill="#FFFFFF" height="37.5547" style="stroke:#181818;stroke-width:1.0;" width="10" x="2318" y="401.9922"/><rect fill="#FFFFFF" height="37.5547" style="stroke:#181818;stroke-width:1.0;" width="10" x="2548" y="828.0938"/><rect fill="none" height="159.7734" style="stroke:#000000;stroke-width:1.5;" width="1084" x="10" y="1169.5313"/><rect fill="none" height="409.875" style="stroke:#000000;stroke-width:1.5;" width="950.5" x="10" y="1506.5234"/><line style="stroke:#181818;stroke-width:0.5;stroke-dasharray:5.0,5.0;" x1="54" x2="54" y1="88.5547" y2="2492.7188"/><line style="stroke:#181818;stroke-width:0.5;stroke-dasharray:5.0,5.0;" x1="860.5" x2="860.5" y1="88.5547" y2="2492.7188"/><line style="stroke:#181818;stroke-width:0.5;stroke-dasharray:5.0,5.0;" x1="1453.5" x2="1453.5" y1="170.3867" y2="2492.7188"/><line style="stroke:#181818;stroke-width:0.5;stroke-dasharray:5.0,5.0;" x1="1660.5" x2="1660.5" y1="88.5547" y2="2492.7188"/><line style="stroke:#181818;stroke-width:0.5;stroke-dasharray:5.0,5.0;" x1="1854.5" x2="1854.5" y1="88.5547" y2="2492.7188"/><line style="stroke:#181818;stroke-width:0.5;stroke-dasharray:5.0,5.0;" x1="2067.5" x2="2067.5" y1="88.5547" y2="2492.7188"/><line style="stroke:#181818;stroke-width:0.5;stroke-dasharray:5.0,5.0;" x1="2322.5" x2="2322.5" y1="88.5547" y2="2492.7188"/><line style="stroke:#181818;stroke-width:0.5;stroke-dasharray:5.0,5.0;" x1="2552.5" x2="2552.5" y1="88.5547" y2="2492.7188"/><line style="stroke:#181818;stroke-width:0.5;stroke-dasharray:5.0,5.0;" x1="2803.5" x2="2803.5" y1="2344" y2="2492.7188"/><text fill="#000000" font-family="sans-serif" font-size="20" lengthAdjust="spacing" textLength="62" x="20" y="84.3359">Owner</text><ellipse cx="54" cy="13.5" fill="#E3E3E3" rx="8" ry="8" style="stroke:#181818;stroke-width:0.5;"/><path d="M54,21.5 L54,48.5 M41,29.5 L67,29.5 M54,48.5 L41,63.5 M54,48.5 L67,63.5 " fill="none" style="stroke:#181818;stroke-width:0.5;"/><text fill="#000000" font-family="sans-serif" font-size="20" lengthAdjust="spacing" textLength="62" x="20" y="2511.0547">Owner</text><ellipse cx="54" cy="2523.7734" fill="#E3E3E3" rx="8" ry="8" style="stroke:#181818;stroke-width:0.5;"/><path d="M54,2531.7734 L54,2558.7734 M41,2539.7734 L67,2539.7734 M54,2558.7734 L41,2573.7734 M54,2558.7734 L67,2573.7734 " fill="none" style="stroke:#181818;stroke-width:0.5;"/><rect fill="#E3E3E3" height="37.5547" rx="2.5" ry="2.5" style="stroke:#181818;stroke-width:0.5;" width="179" x="771.5" y="50"/><text fill="#000000" font-family="sans-serif" font-size="20" lengthAdjust="spacing" textLength="165" x="778.5" y="76.3359">:CreateRequestUI</text><rect fill="#E3E3E3" height="37.5547" rx="2.5" ry="2.5" style="stroke:#181818;stroke-width:0.5;" width="179" x="771.5" y="2491.7188"/><text fill="#000000" font-family="sans-serif" font-size="20" lengthAdjust="spacing" textLength="165" x="778.5" y="2518.0547">:CreateRequestUI</text><rect fill="#E3E3E3" height="37.5547" rx="2.5" ry="2.5" style="stroke:#181818;stroke-width:0.5;" width="255" x="1326.5" y="2491.7188"/><text fill="#000000" font-family="sans-serif" font-size="20" lengthAdjust="spacing" textLength="241" x="1333.5" y="2518.0547">:CreateRequestController</text><rect fill="#E3E3E3" height="37.5547" rx="2.5" ry="2.5" style="stroke:#181818;stroke-width:0.5;" width="139" x="1591.5" y="50"/><text fill="#000000" font-family="sans-serif" font-size="20" lengthAdjust="spacing" textLength="125" x="1598.5" y="76.3359">:Repositories</text><rect fill="#E3E3E3" height="37.5547" rx="2.5" ry="2.5" style="stroke:#181818;stroke-width:0.5;" width="139" x="1591.5" y="2491.7188"/><text fill="#000000" font-family="sans-serif" font-size="20" lengthAdjust="spacing" textLength="125" x="1598.5" y="2518.0547">:Repositories</text><rect fill="#E3E3E3" height="61.1094" rx="2.5" ry="2.5" style="stroke:#181818;stroke-width:0.5;" width="139" x="1785.5" y="26.4453"/><text fill="#000000" font-family="sans-serif" font-size="20" lengthAdjust="spacing" textLength="114" x="1798" y="52.7813">repositories</text><text fill="#000000" font-family="sans-serif" font-size="20" lengthAdjust="spacing" textLength="125" x="1792.5" y="76.3359">:Repositories</text><rect fill="#E3E3E3" height="61.1094" rx="2.5" ry="2.5" style="stroke:#181818;stroke-width:0.5;" width="139" x="1785.5" y="2491.7188"/><text fill="#000000" font-family="sans-serif" font-size="20" lengthAdjust="spacing" textLength="114" x="1798" y="2518.0547">repositories</text><text fill="#000000" font-family="sans-serif" font-size="20" lengthAdjust="spacing" textLength="125" x="1792.5" y="2541.6094">:Repositories</text><rect fill="#E3E3E3" height="61.1094" rx="2.5" ry="2.5" style="stroke:#181818;stroke-width:0.5;" width="266" x="1934.5" y="26.4453"/><text fill="#000000" font-family="sans-serif" font-size="20" lengthAdjust="spacing" textLength="252" x="1941.5" y="52.7813">AnnouncementRepository:</text><text fill="#000000" font-family="sans-serif" font-size="20" lengthAdjust="spacing" textLength="246" x="1944.5" y="76.3359">AnnouncementRepository</text><rect fill="#E3E3E3" height="61.1094" rx="2.5" ry="2.5" style="stroke:#181818;stroke-width:0.5;" width="266" x="1934.5" y="2491.7188"/><text fill="#000000" font-family="sans-serif" font-size="20" lengthAdjust="spacing" textLength="252" x="1941.5" y="2518.0547">AnnouncementRepository:</text><text fill="#000000" font-family="sans-serif" font-size="20" lengthAdjust="spacing" textLength="246" x="1944.5" y="2541.6094">AnnouncementRepository</text><rect fill="#E3E3E3" height="61.1094" rx="2.5" ry="2.5" style="stroke:#181818;stroke-width:0.5;" width="225" x="2210.5" y="26.4453"/><text fill="#000000" font-family="sans-serif" font-size="20" lengthAdjust="spacing" textLength="211" x="2217.5" y="52.7813">AgencyListRepository:</text><text fill="#000000" font-family="sans-serif" font-size="20" lengthAdjust="spacing" textLength="205" x="2220.5" y="76.3359">AgencyListRepository</text><rect fill="#E3E3E3" height="61.1094" rx="2.5" ry="2.5" style="stroke:#181818;stroke-width:0.5;" width="225" x="2210.5" y="2491.7188"/><text fill="#000000" font-family="sans-serif" font-size="20" lengthAdjust="spacing" textLength="211" x="2217.5" y="2518.0547">AgencyListRepository:</text><text fill="#000000" font-family="sans-serif" font-size="20" lengthAdjust="spacing" textLength="205" x="2220.5" y="2541.6094">AgencyListRepository</text><rect fill="#E3E3E3" height="61.1094" rx="2.5" ry="2.5" style="stroke:#181818;stroke-width:0.5;" width="215" x="2445.5" y="26.4453"/><text fill="#000000" font-family="sans-serif" font-size="20" lengthAdjust="spacing" textLength="201" x="2452.5" y="52.7813">EmployeeRepository:</text><text fill="#000000" font-family="sans-serif" font-size="20" lengthAdjust="spacing" textLength="195" x="2455.5" y="76.3359">EmployeeRepository</text><rect fill="#E3E3E3" height="61.1094" rx="2.5" ry="2.5" style="stroke:#181818;stroke-width:0.5;" width="215" x="2445.5" y="2491.7188"/><text fill="#000000" font-family="sans-serif" font-size="20" lengthAdjust="spacing" textLength="201" x="2452.5" y="2518.0547">EmployeeRepository:</text><text fill="#000000" font-family="sans-serif" font-size="20" lengthAdjust="spacing" textLength="195" x="2455.5" y="2541.6094">EmployeeRepository</text><rect fill="#E3E3E3" height="61.1094" rx="2.5" ry="2.5" style="stroke:#181818;stroke-width:0.5;" width="97" x="2755.5" y="2491.7188"/><text fill="#000000" font-family="sans-serif" font-size="20" lengthAdjust="spacing" textLength="72" x="2768" y="2518.0547">request</text><text fill="#000000" font-family="sans-serif" font-size="20" lengthAdjust="spacing" textLength="83" x="2762.5" y="2541.6094">:Request</text><rect fill="#FFFFFF" height="2385.1641" style="stroke:#181818;stroke-width:1.0;" width="10" x="49" y="98.5547"/><rect fill="#FFFFFF" height="386.5469" style="stroke:#181818;stroke-width:1.0;" width="10" x="856" y="128.1094"/><rect fill="#FFFFFF" height="388.5469" style="stroke:#181818;stroke-width:1.0;" width="10" x="856" y="552.2109"/><rect fill="#FFFFFF" height="88.1094" style="stroke:#181818;stroke-width:1.0;" width="10" x="856" y="978.3125"/><rect fill="#FFFFFF" height="129.2188" style="stroke:#181818;stroke-width:1.0;" width="10" x="856" y="1103.9766"/><rect fill="#FFFFFF" height="95.1094" style="stroke:#181818;stroke-width:1.0;" width="10" x="856" y="1270.75"/><rect fill="#FFFFFF" height="88.1094" style="stroke:#181818;stroke-width:1.0;" width="10" x="856" y="1403.4141"/><rect fill="#FFFFFF" height="386.2109" style="stroke:#181818;stroke-width:1.0;" width="10" x="856" y="1617.2969"/><rect fill="#FFFFFF" height="433.6563" style="stroke:#181818;stroke-width:1.0;" width="10" x="856" y="2041.0625"/><rect fill="#FFFFFF" height="262.8828" style="stroke:#181818;stroke-width:1.0;" width="10" x="1449" y="214.2188"/><rect fill="#FFFFFF" height="262.8828" style="stroke:#181818;stroke-width:1.0;" width="10" x="1449" y="640.3203"/><rect fill="#FFFFFF" height="334.9922" style="stroke:#181818;stroke-width:1.0;" width="10" x="1449" y="2102.1719"/><rect fill="#FFFFFF" height="37.5547" style="stroke:#181818;stroke-width:1.0;" width="10" x="1656" y="251.7734"/><rect fill="#FFFFFF" height="37.5547" style="stroke:#181818;stroke-width:1.0;" width="10" x="1656" y="677.875"/><rect fill="#FFFFFF" height="37.5547" style="stroke:#181818;stroke-width:1.0;" width="10" x="1656" y="2139.7266"/><rect fill="#FFFFFF" height="37.5547" style="stroke:#181818;stroke-width:1.0;" width="10" x="1850" y="326.8828"/><rect fill="#FFFFFF" height="37.5547" style="stroke:#181818;stroke-width:1.0;" width="10" x="1850" y="752.9844"/><rect fill="#FFFFFF" height="268.8828" style="stroke:#181818;stroke-width:1.0;" width="10" x="2062.5" y="2214.8359"/><rect fill="#FFFFFF" height="37.5547" style="stroke:#181818;stroke-width:1.0;" width="10" x="2318" y="401.9922"/><rect fill="#FFFFFF" height="37.5547" style="stroke:#181818;stroke-width:1.0;" width="10" x="2548" y="828.0938"/><polygon fill="#181818" points="844,124.1094,854,128.1094,844,132.1094,848,128.1094" style="stroke:#181818;stroke-width:1.0;"/><line style="stroke:#181818;stroke-width:1.0;" x1="59" x2="850" y1="128.1094" y2="128.1094"/><text fill="#000000" font-family="sans-serif" font-size="20" font-weight="bold" lengthAdjust="spacing" textLength="13" x="66" y="121.8906">1</text><text fill="#000000" font-family="sans-serif" font-size="20" lengthAdjust="spacing" textLength="242" x="83" y="121.8906">ask to create Sale or Rent</text><polygon fill="#181818" points="1314.5,161.6641,1324.5,165.6641,1314.5,169.6641,1318.5,165.6641" style="stroke:#181818;stroke-width:1.0;"/><line style="stroke:#181818;stroke-width:1.0;" x1="866" x2="1320.5" y1="165.6641" y2="165.6641"/><text fill="#000000" font-family="sans-serif" font-size="20" font-weight="bold" lengthAdjust="spacing" textLength="13" x="873" y="159.4453">2</text><text fill="#000000" font-family="sans-serif" font-size="20" lengthAdjust="spacing" textLength="141" x="890" y="159.4453">create Request</text><rect fill="#E3E3E3" height="37.5547" rx="2.5" ry="2.5" style="stroke:#181818;stroke-width:0.5;" width="255" x="1326.5" y="136.1094"/><text fill="#000000" font-family="sans-serif" font-size="20" lengthAdjust="spacing" textLength="241" x="1333.5" y="162.4453">:CreateRequestController</text><polygon fill="#181818" points="1437,210.2188,1447,214.2188,1437,218.2188,1441,214.2188" style="stroke:#181818;stroke-width:1.0;"/><line style="stroke:#181818;stroke-width:1.0;stroke-dasharray:2.0,2.0;" x1="866" x2="1443" y1="214.2188" y2="214.2188"/><text fill="#000000" font-family="sans-serif" font-size="20" font-weight="bold" lengthAdjust="spacing" textLength="13" x="873" y="208">3</text><text fill="#000000" font-family="sans-serif" font-size="20" lengthAdjust="spacing" textLength="147" x="890" y="208">getAgencyList()</text><polygon fill="#181818" points="1644,247.7734,1654,251.7734,1644,255.7734,1648,251.7734" style="stroke:#181818;stroke-width:1.0;"/><line style="stroke:#181818;stroke-width:1.0;" x1="1459" x2="1650" y1="251.7734" y2="251.7734"/><text fill="#000000" font-family="sans-serif" font-size="20" font-weight="bold" lengthAdjust="spacing" textLength="13" x="1466" y="245.5547">4</text><text fill="#000000" font-family="sans-serif" font-size="20" lengthAdjust="spacing" textLength="123" x="1483" y="245.5547">getInstance()</text><polygon fill="#181818" points="1470,285.3281,1460,289.3281,1470,293.3281,1466,289.3281" style="stroke:#181818;stroke-width:1.0;"/><line style="stroke:#181818;stroke-width:1.0;stroke-dasharray:2.0,2.0;" x1="1464" x2="1660" y1="289.3281" y2="289.3281"/><text fill="#000000" font-family="sans-serif" font-size="20" font-weight="bold" lengthAdjust="spacing" textLength="13" x="1476" y="283.1094">5</text><text fill="#000000" font-family="sans-serif" font-size="20" lengthAdjust="spacing" textLength="114" x="1493" y="283.1094">repositories</text><polygon fill="#181818" points="1838,322.8828,1848,326.8828,1838,330.8828,1842,326.8828" style="stroke:#181818;stroke-width:1.0;"/><line style="stroke:#181818;stroke-width:1.0;" x1="1459" x2="1844" y1="326.8828" y2="326.8828"/><text fill="#000000" font-family="sans-serif" font-size="20" font-weight="bold" lengthAdjust="spacing" textLength="13" x="1466" y="320.6641">6</text><text fill="#000000" font-family="sans-serif" font-size="20" lengthAdjust="spacing" textLength="249" x="1483" y="320.6641">getAgencyListRepository()</text><polygon fill="#181818" points="1470,360.4375,1460,364.4375,1470,368.4375,1466,364.4375" style="stroke:#181818;stroke-width:1.0;"/><line style="stroke:#181818;stroke-width:1.0;stroke-dasharray:2.0,2.0;" x1="1464" x2="1854" y1="364.4375" y2="364.4375"/><text fill="#000000" font-family="sans-serif" font-size="20" font-weight="bold" lengthAdjust="spacing" textLength="13" x="1476" y="358.2188">7</text><text fill="#000000" font-family="sans-serif" font-size="20" lengthAdjust="spacing" textLength="205" x="1493" y="358.2188">AgencyListRepository</text><polygon fill="#181818" points="2306,397.9922,2316,401.9922,2306,405.9922,2310,401.9922" style="stroke:#181818;stroke-width:1.0;"/><line style="stroke:#181818;stroke-width:1.0;stroke-dasharray:2.0,2.0;" x1="1459" x2="2312" y1="401.9922" y2="401.9922"/><text fill="#000000" font-family="sans-serif" font-size="20" font-weight="bold" lengthAdjust="spacing" textLength="13" x="1466" y="395.7734">8</text><text fill="#000000" font-family="sans-serif" font-size="20" lengthAdjust="spacing" textLength="166" x="1483" y="395.7734">getAgencyList(id)</text><polygon fill="#181818" points="1470,435.5469,1460,439.5469,1470,443.5469,1466,439.5469" style="stroke:#181818;stroke-width:1.0;"/><line style="stroke:#181818;stroke-width:1.0;stroke-dasharray:2.0,2.0;" x1="1464" x2="2322" y1="439.5469" y2="439.5469"/><text fill="#000000" font-family="sans-serif" font-size="20" font-weight="bold" lengthAdjust="spacing" textLength="13" x="1476" y="433.3281">9</text><text fill="#000000" font-family="sans-serif" font-size="20" lengthAdjust="spacing" textLength="103" x="1493" y="433.3281">AgencyList</text><polygon fill="#181818" points="877,473.1016,867,477.1016,877,481.1016,873,477.1016" style="stroke:#181818;stroke-width:1.0;"/><line style="stroke:#181818;stroke-width:1.0;stroke-dasharray:2.0,2.0;" x1="871" x2="1453" y1="477.1016" y2="477.1016"/><text fill="#000000" font-family="sans-serif" font-size="20" font-weight="bold" lengthAdjust="spacing" textLength="26" x="883" y="470.8828">10</text><text fill="#000000" font-family="sans-serif" font-size="20" lengthAdjust="spacing" textLength="103" x="913" y="470.8828">AgencyList</text><polygon fill="#181818" points="70,510.6563,60,514.6563,70,518.6563,66,514.6563" style="stroke:#181818;stroke-width:1.0;"/><line style="stroke:#181818;stroke-width:1.0;stroke-dasharray:2.0,2.0;" x1="64" x2="860" y1="514.6563" y2="514.6563"/><text fill="#000000" font-family="sans-serif" font-size="20" font-weight="bold" lengthAdjust="spacing" textLength="26" x="76" y="508.4375">11</text><text fill="#000000" font-family="sans-serif" font-size="20" lengthAdjust="spacing" textLength="231" x="106" y="508.4375">displays list of Agencies</text><polygon fill="#181818" points="844,548.2109,854,552.2109,844,556.2109,848,552.2109" style="stroke:#181818;stroke-width:1.0;"/><line style="stroke:#181818;stroke-width:1.0;" x1="59" x2="850" y1="552.2109" y2="552.2109"/><text fill="#000000" font-family="sans-serif" font-size="20" font-weight="bold" lengthAdjust="spacing" textLength="26" x="66" y="545.9922">12</text><text fill="#000000" font-family="sans-serif" font-size="20" lengthAdjust="spacing" textLength="237" x="96" y="545.9922">submits selected Agency</text><line style="stroke:#181818;stroke-width:1.0;stroke-dasharray:2.0,2.0;" x1="866" x2="908" y1="589.7656" y2="589.7656"/><line style="stroke:#181818;stroke-width:1.0;stroke-dasharray:2.0,2.0;" x1="908" x2="908" y1="589.7656" y2="602.7656"/><line style="stroke:#181818;stroke-width:1.0;stroke-dasharray:2.0,2.0;" x1="867" x2="908" y1="602.7656" y2="602.7656"/><polygon fill="#181818" points="877,598.7656,867,602.7656,877,606.7656,873,602.7656" style="stroke:#181818;stroke-width:1.0;"/><text fill="#000000" font-family="sans-serif" font-size="20" font-weight="bold" lengthAdjust="spacing" textLength="26" x="873" y="583.5469">13</text><text fill="#000000" font-family="sans-serif" font-size="20" lengthAdjust="spacing" textLength="171" x="903" y="583.5469">Keep data Agency</text><polygon fill="#181818" points="1437,636.3203,1447,640.3203,1437,644.3203,1441,640.3203" style="stroke:#181818;stroke-width:1.0;"/><line style="stroke:#181818;stroke-width:1.0;stroke-dasharray:2.0,2.0;" x1="866" x2="1443" y1="640.3203" y2="640.3203"/><text fill="#000000" font-family="sans-serif" font-size="20" font-weight="bold" lengthAdjust="spacing" textLength="26" x="873" y="634.1016">14</text><text fill="#000000" font-family="sans-serif" font-size="20" lengthAdjust="spacing" textLength="240" x="903" y="634.1016">getEmployeeList(Agency)</text><polygon fill="#181818" points="1644,673.875,1654,677.875,1644,681.875,1648,677.875" style="stroke:#181818;stroke-width:1.0;"/><line style="stroke:#181818;stroke-width:1.0;" x1="1459" x2="1650" y1="677.875" y2="677.875"/><text fill="#000000" font-family="sans-serif" font-size="20" font-weight="bold" lengthAdjust="spacing" textLength="26" x="1466" y="671.6563">15</text><text fill="#000000" font-family="sans-serif" font-size="20" lengthAdjust="spacing" textLength="123" x="1496" y="671.6563">getInstance()</text><polygon fill="#181818" points="1470,711.4297,1460,715.4297,1470,719.4297,1466,715.4297" style="stroke:#181818;stroke-width:1.0;"/><line style="stroke:#181818;stroke-width:1.0;stroke-dasharray:2.0,2.0;" x1="1464" x2="1660" y1="715.4297" y2="715.4297"/><text fill="#000000" font-family="sans-serif" font-size="20" font-weight="bold" lengthAdjust="spacing" textLength="26" x="1476" y="709.2109">16</text><text fill="#000000" font-family="sans-serif" font-size="20" lengthAdjust="spacing" textLength="114" x="1506" y="709.2109">repositories</text><polygon fill="#181818" points="1838,748.9844,1848,752.9844,1838,756.9844,1842,752.9844" style="stroke:#181818;stroke-width:1.0;"/><line style="stroke:#181818;stroke-width:1.0;" x1="1459" x2="1844" y1="752.9844" y2="752.9844"/><text fill="#000000" font-family="sans-serif" font-size="20" font-weight="bold" lengthAdjust="spacing" textLength="26" x="1466" y="746.7656">17</text><text fill="#000000" font-family="sans-serif" font-size="20" lengthAdjust="spacing" textLength="342" x="1496" y="746.7656">getEmployeeListRepository(Agency)</text><polygon fill="#181818" points="1470,786.5391,1460,790.5391,1470,794.5391,1466,790.5391" style="stroke:#181818;stroke-width:1.0;"/><line style="stroke:#181818;stroke-width:1.0;stroke-dasharray:2.0,2.0;" x1="1464" x2="1854" y1="790.5391" y2="790.5391"/><text fill="#000000" font-family="sans-serif" font-size="20" font-weight="bold" lengthAdjust="spacing" textLength="26" x="1476" y="784.3203">18</text><text fill="#000000" font-family="sans-serif" font-size="20" lengthAdjust="spacing" textLength="259" x="1506" y="784.3203">getEmployeeListRepository</text><polygon fill="#181818" points="2536,824.0938,2546,828.0938,2536,832.0938,2540,828.0938" style="stroke:#181818;stroke-width:1.0;"/><line style="stroke:#181818;stroke-width:1.0;stroke-dasharray:2.0,2.0;" x1="1459" x2="2542" y1="828.0938" y2="828.0938"/><text fill="#000000" font-family="sans-serif" font-size="20" font-weight="bold" lengthAdjust="spacing" textLength="26" x="1466" y="821.875">19</text><text fill="#000000" font-family="sans-serif" font-size="20" lengthAdjust="spacing" textLength="240" x="1496" y="821.875">getEmployeeList(Agency)</text><polygon fill="#181818" points="1470,861.6484,1460,865.6484,1470,869.6484,1466,865.6484" style="stroke:#181818;stroke-width:1.0;"/><line style="stroke:#181818;stroke-width:1.0;stroke-dasharray:2.0,2.0;" x1="1464" x2="2552" y1="865.6484" y2="865.6484"/><text fill="#000000" font-family="sans-serif" font-size="20" font-weight="bold" lengthAdjust="spacing" textLength="26" x="1476" y="859.4297">20</text><text fill="#000000" font-family="sans-serif" font-size="20" lengthAdjust="spacing" textLength="127" x="1506" y="859.4297">EmployeeList</text><polygon fill="#181818" points="877,899.2031,867,903.2031,877,907.2031,873,903.2031" style="stroke:#181818;stroke-width:1.0;"/><line style="stroke:#181818;stroke-width:1.0;stroke-dasharray:2.0,2.0;" x1="871" x2="1453" y1="903.2031" y2="903.2031"/><text fill="#000000" font-family="sans-serif" font-size="20" font-weight="bold" lengthAdjust="spacing" textLength="26" x="883" y="896.9844">21</text><text fill="#000000" font-family="sans-serif" font-size="20" lengthAdjust="spacing" textLength="127" x="913" y="896.9844">EmployeeList</text><polygon fill="#181818" points="70,936.7578,60,940.7578,70,944.7578,66,940.7578" style="stroke:#181818;stroke-width:1.0;"/><line style="stroke:#181818;stroke-width:1.0;stroke-dasharray:2.0,2.0;" x1="64" x2="860" y1="940.7578" y2="940.7578"/><text fill="#000000" font-family="sans-serif" font-size="20" font-weight="bold" lengthAdjust="spacing" textLength="26" x="76" y="934.5391">22</text><text fill="#000000" font-family="sans-serif" font-size="20" lengthAdjust="spacing" textLength="337" x="106" y="934.5391">displays list of Employees as Agent</text><polygon fill="#181818" points="844,974.3125,854,978.3125,844,982.3125,848,978.3125" style="stroke:#181818;stroke-width:1.0;"/><line style="stroke:#181818;stroke-width:1.0;" x1="59" x2="850" y1="978.3125" y2="978.3125"/><text fill="#000000" font-family="sans-serif" font-size="20" font-weight="bold" lengthAdjust="spacing" textLength="26" x="66" y="972.0938">23</text><text fill="#000000" font-family="sans-serif" font-size="20" lengthAdjust="spacing" textLength="350" x="96" y="972.0938">submits selected Employee as Agent</text><line style="stroke:#181818;stroke-width:1.0;stroke-dasharray:2.0,2.0;" x1="866" x2="908" y1="1015.8672" y2="1015.8672"/><line style="stroke:#181818;stroke-width:1.0;stroke-dasharray:2.0,2.0;" x1="908" x2="908" y1="1015.8672" y2="1028.8672"/><line style="stroke:#181818;stroke-width:1.0;stroke-dasharray:2.0,2.0;" x1="867" x2="908" y1="1028.8672" y2="1028.8672"/><polygon fill="#181818" points="877,1024.8672,867,1028.8672,877,1032.8672,873,1028.8672" style="stroke:#181818;stroke-width:1.0;"/><text fill="#000000" font-family="sans-serif" font-size="20" font-weight="bold" lengthAdjust="spacing" textLength="26" x="873" y="1009.6484">24</text><text fill="#000000" font-family="sans-serif" font-size="20" lengthAdjust="spacing" textLength="257" x="903" y="1009.6484">Keep data Employee Agent</text><polygon fill="#181818" points="70,1062.4219,60,1066.4219,70,1070.4219,66,1066.4219" style="stroke:#181818;stroke-width:1.0;"/><line style="stroke:#181818;stroke-width:1.0;stroke-dasharray:2.0,2.0;" x1="64" x2="860" y1="1066.4219" y2="1066.4219"/><text fill="#000000" font-family="sans-serif" font-size="20" font-weight="bold" lengthAdjust="spacing" textLength="26" x="76" y="1060.2031">25</text><text fill="#000000" font-family="sans-serif" font-size="20" lengthAdjust="spacing" textLength="266" x="106" y="1060.2031">requests type of transaction</text><polygon fill="#181818" points="844,1099.9766,854,1103.9766,844,1107.9766,848,1103.9766" style="stroke:#181818;stroke-width:1.0;"/><line style="stroke:#181818;stroke-width:1.0;" x1="59" x2="850" y1="1103.9766" y2="1103.9766"/><text fill="#000000" font-family="sans-serif" font-size="20" font-weight="bold" lengthAdjust="spacing" textLength="26" x="66" y="1097.7578">26</text><text fill="#000000" font-family="sans-serif" font-size="20" lengthAdjust="spacing" textLength="335" x="96" y="1097.7578">types requested data (Sale or Rent)</text><line style="stroke:#181818;stroke-width:1.0;stroke-dasharray:2.0,2.0;" x1="866" x2="908" y1="1141.5313" y2="1141.5313"/><line style="stroke:#181818;stroke-width:1.0;stroke-dasharray:2.0,2.0;" x1="908" x2="908" y1="1141.5313" y2="1154.5313"/><line style="stroke:#181818;stroke-width:1.0;stroke-dasharray:2.0,2.0;" x1="867" x2="908" y1="1154.5313" y2="1154.5313"/><polygon fill="#181818" points="877,1150.5313,867,1154.5313,877,1158.5313,873,1154.5313" style="stroke:#181818;stroke-width:1.0;"/><text fill="#000000" font-family="sans-serif" font-size="20" font-weight="bold" lengthAdjust="spacing" textLength="26" x="873" y="1135.3125">27</text><text fill="#000000" font-family="sans-serif" font-size="20" lengthAdjust="spacing" textLength="261" x="903" y="1135.3125">Keep data TransactionType</text><path d="M10,1169.5313 L89,1169.5313 L89,1185.0859 L79,1195.0859 L10,1195.0859 L10,1169.5313 " fill="#EEEEEE" style="stroke:#000000;stroke-width:1.5;"/><rect fill="none" height="159.7734" style="stroke:#000000;stroke-width:1.5;" width="1084" x="10" y="1169.5313"/><text fill="#000000" font-family="sans-serif" font-size="20" font-weight="bold" lengthAdjust="spacing" textLength="34" x="25" y="1189.8672">opt</text><text fill="#000000" font-family="sans-serif" font-size="20" font-weight="bold" lengthAdjust="spacing" textLength="61" x="104" y="1190.8672">[Rent]</text><polygon fill="#181818" points="70,1229.1953,60,1233.1953,70,1237.1953,66,1233.1953" style="stroke:#181818;stroke-width:1.0;"/><line style="stroke:#181818;stroke-width:1.0;stroke-dasharray:2.0,2.0;" x1="64" x2="860" y1="1233.1953" y2="1233.1953"/><text fill="#000000" font-family="sans-serif" font-size="20" font-weight="bold" lengthAdjust="spacing" textLength="26" x="76" y="1226.9766">28</text><text fill="#000000" font-family="sans-serif" font-size="20" lengthAdjust="spacing" textLength="242" x="106" y="1226.9766">request contract duration</text><polygon fill="#181818" points="844,1266.75,854,1270.75,844,1274.75,848,1270.75" style="stroke:#181818;stroke-width:1.0;"/><line style="stroke:#181818;stroke-width:1.0;" x1="59" x2="850" y1="1270.75" y2="1270.75"/><text fill="#000000" font-family="sans-serif" font-size="20" font-weight="bold" lengthAdjust="spacing" textLength="26" x="66" y="1264.5313">29</text><text fill="#000000" font-family="sans-serif" font-size="20" lengthAdjust="spacing" textLength="201" x="96" y="1264.5313">types requested data</text><line style="stroke:#181818;stroke-width:1.0;stroke-dasharray:2.0,2.0;" x1="866" x2="908" y1="1308.3047" y2="1308.3047"/><line style="stroke:#181818;stroke-width:1.0;stroke-dasharray:2.0,2.0;" x1="908" x2="908" y1="1308.3047" y2="1321.3047"/><line style="stroke:#181818;stroke-width:1.0;stroke-dasharray:2.0,2.0;" x1="867" x2="908" y1="1321.3047" y2="1321.3047"/><polygon fill="#181818" points="877,1317.3047,867,1321.3047,877,1325.3047,873,1321.3047" style="stroke:#181818;stroke-width:1.0;"/><text fill="#000000" font-family="sans-serif" font-size="20" font-weight="bold" lengthAdjust="spacing" textLength="26" x="873" y="1302.0859">30</text><text fill="#000000" font-family="sans-serif" font-size="20" lengthAdjust="spacing" textLength="179" x="903" y="1302.0859">Keep data contract</text><polygon fill="#181818" points="70,1361.8594,60,1365.8594,70,1369.8594,66,1365.8594" style="stroke:#181818;stroke-width:1.0;"/><line style="stroke:#181818;stroke-width:1.0;stroke-dasharray:2.0,2.0;" x1="64" x2="860" y1="1365.8594" y2="1365.8594"/><text fill="#000000" font-family="sans-serif" font-size="20" font-weight="bold" lengthAdjust="spacing" textLength="26" x="76" y="1359.6406">31</text><text fill="#000000" font-family="sans-serif" font-size="20" lengthAdjust="spacing" textLength="242" x="106" y="1359.6406">requests type of property</text><polygon fill="#181818" points="844,1399.4141,854,1403.4141,844,1407.4141,848,1403.4141" style="stroke:#181818;stroke-width:1.0;"/><line style="stroke:#181818;stroke-width:1.0;" x1="59" x2="850" y1="1403.4141" y2="1403.4141"/><text fill="#000000" font-family="sans-serif" font-size="20" font-weight="bold" lengthAdjust="spacing" textLength="26" x="66" y="1397.1953">32</text><text fill="#000000" font-family="sans-serif" font-size="20" lengthAdjust="spacing" textLength="465" x="96" y="1397.1953">types requested data (Apartement, House, Land)</text><line style="stroke:#181818;stroke-width:1.0;stroke-dasharray:2.0,2.0;" x1="866" x2="908" y1="1440.9688" y2="1440.9688"/><line style="stroke:#181818;stroke-width:1.0;stroke-dasharray:2.0,2.0;" x1="908" x2="908" y1="1440.9688" y2="1453.9688"/><line style="stroke:#181818;stroke-width:1.0;stroke-dasharray:2.0,2.0;" x1="867" x2="908" y1="1453.9688" y2="1453.9688"/><polygon fill="#181818" points="877,1449.9688,867,1453.9688,877,1457.9688,873,1453.9688" style="stroke:#181818;stroke-width:1.0;"/><text fill="#000000" font-family="sans-serif" font-size="20" font-weight="bold" lengthAdjust="spacing" textLength="26" x="873" y="1434.75">33</text><text fill="#000000" font-family="sans-serif" font-size="20" lengthAdjust="spacing" textLength="256" x="903" y="1434.75">Keep data type of property</text><polygon fill="#181818" points="70,1487.5234,60,1491.5234,70,1495.5234,66,1491.5234" style="stroke:#181818;stroke-width:1.0;"/><line style="stroke:#181818;stroke-width:1.0;stroke-dasharray:2.0,2.0;" x1="64" x2="860" y1="1491.5234" y2="1491.5234"/><text fill="#000000" font-family="sans-serif" font-size="20" font-weight="bold" lengthAdjust="spacing" textLength="26" x="76" y="1485.3047">34</text><text fill="#000000" font-family="sans-serif" font-size="20" lengthAdjust="spacing" textLength="243" x="106" y="1485.3047">requests data of property</text><path d="M10,1506.5234 L82,1506.5234 L82,1522.0781 L72,1532.0781 L10,1532.0781 L10,1506.5234 " fill="#EEEEEE" style="stroke:#000000;stroke-width:1.5;"/><rect fill="none" height="409.875" style="stroke:#000000;stroke-width:1.5;" width="950.5" x="10" y="1506.5234"/><text fill="#000000" font-family="sans-serif" font-size="20" font-weight="bold" lengthAdjust="spacing" textLength="27" x="25" y="1526.8594">alt</text><text fill="#000000" font-family="sans-serif" font-size="20" font-weight="bold" lengthAdjust="spacing" textLength="64" x="97" y="1527.8594">[Land]</text><polygon fill="#181818" points="844,1613.2969,854,1617.2969,844,1621.2969,848,1617.2969" style="stroke:#181818;stroke-width:1.0;"/><line style="stroke:#181818;stroke-width:1.0;" x1="59" x2="850" y1="1617.2969" y2="1617.2969"/><text fill="#000000" font-family="sans-serif" font-size="20" font-weight="bold" lengthAdjust="spacing" textLength="26" x="66" y="1587.5234">35</text><text fill="#000000" font-family="sans-serif" font-size="20" lengthAdjust="spacing" textLength="430" x="96" y="1563.9688">Select requested data (area (in m2), location,</text><text fill="#000000" font-family="sans-serif" font-size="20" lengthAdjust="spacing" textLength="500" x="96" y="1587.5234">distance from the city centre, requested price (USD),</text><text fill="#000000" font-family="sans-serif" font-size="20" lengthAdjust="spacing" textLength="129" x="96" y="1611.0781">photographs)</text><line style="stroke:#000000;stroke-width:1.0;stroke-dasharray:2.0,2.0;" x1="10" x2="960.5" y1="1626.2969" y2="1626.2969"/><text fill="#000000" font-family="sans-serif" font-size="20" font-weight="bold" lengthAdjust="spacing" textLength="135" x="15" y="1645.6328">[Apartement]</text><polygon fill="#181818" points="844,1747.0703,854,1751.0703,844,1755.0703,848,1751.0703" style="stroke:#181818;stroke-width:1.0;"/><line style="stroke:#181818;stroke-width:1.0;" x1="59" x2="850" y1="1751.0703" y2="1751.0703"/><text fill="#000000" font-family="sans-serif" font-size="20" font-weight="bold" lengthAdjust="spacing" textLength="26" x="66" y="1709.5195">36</text><text fill="#000000" font-family="sans-serif" font-size="20" lengthAdjust="spacing" textLength="714" x="96" y="1674.1875">Select requested data (area (in m2), location, distance from the city centre,</text><text fill="#000000" font-family="sans-serif" font-size="20" lengthAdjust="spacing" textLength="566" x="96" y="1697.7422">requested price (USD), photographs, number of bedrooms,</text><text fill="#000000" font-family="sans-serif" font-size="20" lengthAdjust="spacing" textLength="479" x="96" y="1721.2969">number of bathrooms, number of parking spaces,</text><text fill="#000000" font-family="sans-serif" font-size="20" lengthAdjust="spacing" textLength="708" x="96" y="1744.8516">any available equipment (such as central heating and/or air conditioning).</text><line style="stroke:#000000;stroke-width:1.0;stroke-dasharray:2.0,2.0;" x1="10" x2="960.5" y1="1760.0703" y2="1760.0703"/><text fill="#000000" font-family="sans-serif" font-size="20" font-weight="bold" lengthAdjust="spacing" textLength="79" x="15" y="1779.4063">[House]</text><polygon fill="#181818" points="844,1904.3984,854,1908.3984,844,1912.3984,848,1908.3984" style="stroke:#181818;stroke-width:1.0;"/><line style="stroke:#181818;stroke-width:1.0;" x1="59" x2="850" y1="1908.3984" y2="1908.3984"/><text fill="#000000" font-family="sans-serif" font-size="20" font-weight="bold" lengthAdjust="spacing" textLength="26" x="66" y="1855.0703">37</text><text fill="#000000" font-family="sans-serif" font-size="20" lengthAdjust="spacing" textLength="714" x="96" y="1807.9609">Select requested data (area (in m2), location, distance from the city centre,</text><text fill="#000000" font-family="sans-serif" font-size="20" lengthAdjust="spacing" textLength="566" x="96" y="1831.5156">requested price (USD), photographs, number of bedrooms,</text><text fill="#000000" font-family="sans-serif" font-size="20" lengthAdjust="spacing" textLength="479" x="96" y="1855.0703">number of bathrooms, number of parking spaces,</text><text fill="#000000" font-family="sans-serif" font-size="20" lengthAdjust="spacing" textLength="701" x="96" y="1878.625">any available equipment (such as central heating and/or air conditioning,</text><text fill="#000000" font-family="sans-serif" font-size="20" lengthAdjust="spacing" textLength="743" x="96" y="1902.1797">existence of a basement, existence of an inhabitable loft, sun exposure value.</text><line style="stroke:#181818;stroke-width:1.0;stroke-dasharray:2.0,2.0;" x1="866" x2="908" y1="1952.9531" y2="1952.9531"/><line style="stroke:#181818;stroke-width:1.0;stroke-dasharray:2.0,2.0;" x1="908" x2="908" y1="1952.9531" y2="1965.9531"/><line style="stroke:#181818;stroke-width:1.0;stroke-dasharray:2.0,2.0;" x1="867" x2="908" y1="1965.9531" y2="1965.9531"/><polygon fill="#181818" points="877,1961.9531,867,1965.9531,877,1969.9531,873,1965.9531" style="stroke:#181818;stroke-width:1.0;"/><text fill="#000000" font-family="sans-serif" font-size="20" font-weight="bold" lengthAdjust="spacing" textLength="26" x="873" y="1946.7344">38</text><text fill="#000000" font-family="sans-serif" font-size="20" lengthAdjust="spacing" textLength="209" x="903" y="1946.7344">Keep data of property</text><polygon fill="#181818" points="70,1999.5078,60,2003.5078,70,2007.5078,66,2003.5078" style="stroke:#181818;stroke-width:1.0;"/><line style="stroke:#181818;stroke-width:1.0;stroke-dasharray:2.0,2.0;" x1="64" x2="860" y1="2003.5078" y2="2003.5078"/><text fill="#000000" font-family="sans-serif" font-size="20" font-weight="bold" lengthAdjust="spacing" textLength="26" x="76" y="1997.2891">39</text><text fill="#000000" font-family="sans-serif" font-size="20" lengthAdjust="spacing" textLength="186" x="106" y="1997.2891">ask to confirm data</text><polygon fill="#181818" points="844,2037.0625,854,2041.0625,844,2045.0625,848,2041.0625" style="stroke:#181818;stroke-width:1.0;"/><line style="stroke:#181818;stroke-width:1.0;" x1="59" x2="850" y1="2041.0625" y2="2041.0625"/><text fill="#000000" font-family="sans-serif" font-size="20" font-weight="bold" lengthAdjust="spacing" textLength="26" x="66" y="2034.8438">40</text><text fill="#000000" font-family="sans-serif" font-size="20" lengthAdjust="spacing" textLength="201" x="96" y="2034.8438">confirm entered data</text><polygon fill="#181818" points="1437,2098.1719,1447,2102.1719,1437,2106.1719,1441,2102.1719" style="stroke:#181818;stroke-width:1.0;"/><line style="stroke:#181818;stroke-width:1.0;" x1="866" x2="1443" y1="2102.1719" y2="2102.1719"/><text fill="#000000" font-family="sans-serif" font-size="20" font-weight="bold" lengthAdjust="spacing" textLength="26" x="873" y="2084.1758">41</text><text fill="#000000" font-family="sans-serif" font-size="20" lengthAdjust="spacing" textLength="534" x="903" y="2072.3984">Createannouncemnt (Employee agent, TransactionType,</text><text fill="#000000" font-family="sans-serif" font-size="20" lengthAdjust="spacing" textLength="243" x="909" y="2095.9531">TypeOfProperty,Property)</text><polygon fill="#181818" points="1644,2135.7266,1654,2139.7266,1644,2143.7266,1648,2139.7266" style="stroke:#181818;stroke-width:1.0;"/><line style="stroke:#181818;stroke-width:1.0;" x1="1459" x2="1650" y1="2139.7266" y2="2139.7266"/><text fill="#000000" font-family="sans-serif" font-size="20" font-weight="bold" lengthAdjust="spacing" textLength="26" x="1466" y="2133.5078">42</text><text fill="#000000" font-family="sans-serif" font-size="20" lengthAdjust="spacing" textLength="123" x="1496" y="2133.5078">getInstance()</text><polygon fill="#181818" points="1470,2173.2813,1460,2177.2813,1470,2181.2813,1466,2177.2813" style="stroke:#181818;stroke-width:1.0;"/><line style="stroke:#181818;stroke-width:1.0;stroke-dasharray:2.0,2.0;" x1="1464" x2="1660" y1="2177.2813" y2="2177.2813"/><text fill="#000000" font-family="sans-serif" font-size="20" font-weight="bold" lengthAdjust="spacing" textLength="26" x="1476" y="2171.0625">43</text><text fill="#000000" font-family="sans-serif" font-size="20" lengthAdjust="spacing" textLength="114" x="1506" y="2171.0625">repositories</text><polygon fill="#181818" points="2050.5,2210.8359,2060.5,2214.8359,2050.5,2218.8359,2054.5,2214.8359" style="stroke:#181818;stroke-width:1.0;"/><line style="stroke:#181818;stroke-width:1.0;" x1="1459" x2="2056.5" y1="2214.8359" y2="2214.8359"/><text fill="#000000" font-family="sans-serif" font-size="20" font-weight="bold" lengthAdjust="spacing" textLength="26" x="1466" y="2208.6172">44</text><text fill="#000000" font-family="sans-serif" font-size="20" lengthAdjust="spacing" textLength="290" x="1496" y="2208.6172">getAnnouncementRepository()</text><polygon fill="#181818" points="1470,2248.3906,1460,2252.3906,1470,2256.3906,1466,2252.3906" style="stroke:#181818;stroke-width:1.0;"/><line style="stroke:#181818;stroke-width:1.0;stroke-dasharray:2.0,2.0;" x1="1464" x2="2061.5" y1="2252.3906" y2="2252.3906"/><text fill="#000000" font-family="sans-serif" font-size="20" font-weight="bold" lengthAdjust="spacing" textLength="26" x="1476" y="2246.1719">45</text><text fill="#000000" font-family="sans-serif" font-size="20" lengthAdjust="spacing" textLength="246" x="1506" y="2246.1719">AnnouncementRepository</text><polygon fill="#181818" points="2050.5,2285.9453,2060.5,2289.9453,2050.5,2293.9453,2054.5,2289.9453" style="stroke:#181818;stroke-width:1.0;"/><line style="stroke:#181818;stroke-width:1.0;" x1="1459" x2="2056.5" y1="2289.9453" y2="2289.9453"/><text fill="#000000" font-family="sans-serif" font-size="20" font-weight="bold" lengthAdjust="spacing" textLength="26" x="1466" y="2283.7266">46</text><text fill="#000000" font-family="sans-serif" font-size="20" lengthAdjust="spacing" textLength="264" x="1496" y="2283.7266">create Request with all data</text><polygon fill="#181818" points="2743.5,2347.0547,2753.5,2351.0547,2743.5,2355.0547,2747.5,2351.0547" style="stroke:#181818;stroke-width:1.0;"/><line style="stroke:#181818;stroke-width:1.0;" x1="2072.5" x2="2749.5" y1="2351.0547" y2="2351.0547"/><text fill="#000000" font-family="sans-serif" font-size="20" font-weight="bold" lengthAdjust="spacing" textLength="26" x="2079.5" y="2333.0586">47</text><text fill="#000000" font-family="sans-serif" font-size="20" lengthAdjust="spacing" textLength="629" x="2109.5" y="2321.2813">addAnnouncementFromOwner(Employee agent, TransactionType,</text><text fill="#000000" font-family="sans-serif" font-size="20" lengthAdjust="spacing" textLength="243" x="2115.5" y="2344.8359">TypeOfProperty,Property)</text><rect fill="#E3E3E3" height="61.1094" rx="2.5" ry="2.5" style="stroke:#181818;stroke-width:0.5;" width="97" x="2755.5" y="2297.9453"/><text fill="#000000" font-family="sans-serif" font-size="20" lengthAdjust="spacing" textLength="72" x="2768" y="2324.2813">request</text><text fill="#000000" font-family="sans-serif" font-size="20" lengthAdjust="spacing" textLength="83" x="2762.5" y="2347.8359">:Request</text><polygon fill="#181818" points="1470,2395.6094,1460,2399.6094,1470,2403.6094,1466,2399.6094" style="stroke:#181818;stroke-width:1.0;"/><line style="stroke:#181818;stroke-width:1.0;stroke-dasharray:2.0,2.0;" x1="1464" x2="2061.5" y1="2399.6094" y2="2399.6094"/><text fill="#000000" font-family="sans-serif" font-size="20" font-weight="bold" lengthAdjust="spacing" textLength="26" x="1476" y="2393.3906">48</text><text fill="#000000" font-family="sans-serif" font-size="20" lengthAdjust="spacing" textLength="72" x="1506" y="2393.3906">request</text><polygon fill="#181818" points="877,2433.1641,867,2437.1641,877,2441.1641,873,2437.1641" style="stroke:#181818;stroke-width:1.0;"/><line style="stroke:#181818;stroke-width:1.0;stroke-dasharray:2.0,2.0;" x1="871" x2="1453" y1="2437.1641" y2="2437.1641"/><text fill="#000000" font-family="sans-serif" font-size="20" font-weight="bold" lengthAdjust="spacing" textLength="26" x="883" y="2430.9453">49</text><text fill="#000000" font-family="sans-serif" font-size="20" lengthAdjust="spacing" textLength="72" x="913" y="2430.9453">request</text><polygon fill="#181818" points="70,2470.7188,60,2474.7188,70,2478.7188,66,2474.7188" style="stroke:#181818;stroke-width:1.0;"/><line style="stroke:#181818;stroke-width:1.0;stroke-dasharray:2.0,2.0;" x1="64" x2="860" y1="2474.7188" y2="2474.7188"/><text fill="#000000" font-family="sans-serif" font-size="20" font-weight="bold" lengthAdjust="spacing" textLength="26" x="76" y="2468.5">50</text><text fill="#000000" font-family="sans-serif" font-size="20" lengthAdjust="spacing" textLength="256" x="106" y="2468.5">displays operation success</text><!--SRC=[xLXBSzis4BxpL-paOiaZkx6RP58TCdLjkRKhrwuUoSKNY8GaZ4c01K0xwg_l0YGbIWH9AScqCmrziGqkldqlW4yzCHuJIQ9G-4yqW83EIHBgQy7rcFrDuVorft8HY0GN_bAAY8AM2IryYOd_H1Pqh5SX1KbzJVWYB0ge9Gd42-CBc9DGKSyZYHOyYMPKUjxHaWKKvaBecVZi4LyB2Q_kNpYLhu0ekF_qns3a8OvcFei9r_2gVoafqNH4_qgeqjCRApUzgHEwH9Ua2CCCz78o6kw8ZsWi54FbZ2ehirvOZPdn1otUtY8BEnvv6U1XU37Ptd71kKYuJoFAzGQ-_yZT7ooA-zCExe9oVpLaQWVLiPnYEZvi8mwYE1GhIhVmoeiMhRoy6oUR0XiY-rSQti6Vqy5uudacvUmPKvMbseFin_uB9nymjT37BK-W1VWsgp0cM6fOA2ECocR76WcBORreVX01SKpMZuyHAmF9pDcIpAKpSHHUKBs9LwTRabuhjKLL-fp289oZdbBq6wwmOtoAsENTQtHNEPR5NKfoN_fGh5Z7ve0Ug6tjcodrtL1j81n1ApXcsyGXO34tjZjh5kfyS0Ed9YEi2x2KRXOuahBMuBIf9EvKL2YmpVVote8xUmN0G9xaBLC0hiRrgie_RRy-14p58Laf2148n3o5TLPGmTfI2pgxMYMpY6a5YePuRE09b9fS4tA4hR3NklmxfJ44H9CSgR6ty-bbqvrkQdkyjiMB4IiqULNi6Zjzfz4hDNZDpLxJxkLJwaloxpZhIi8EJOMIA-ghQo27fjfctnVNNS7RFLzg-HnSvRU7MXMczRtQleTIu-SQgXKSFWBMc2cWUnxjJBliig90hs9gNDUIS6Lqkq_0NSSRHvu5LhaUS-asfdQA5vhkOVElEW2JZUqJr5g65R5Ehr0bmACDg6qJUu56gAj44eFdFDEtexaE9lZPPWYotNi4iYcIxa0wTtrPy7AZIrie3vmmHyLuFKWHKwbN9kuL5yTzgY_EOBol2rPbsLsOcxfzM_JWDv4eseCXuK6tjW2TsYhZsEXAKomiobV4WeGQh5TxrDJOpgDIc0W-6A33E4JdtHxWQzbMSGyUEOvAUx3375_6e9SKVAPNu6D49GPp0nHBXbATwVYgQ_R5Iw75Gf9ugRe7TJl51pJUATTv- -O-DNZqo2jyAdZKW_HnRx8seu4K8bAzHrvO97gPhXOaqQKdmn6ecFZKo1E-0l9CM4XcE1nHAukDnz1HYRyq1uMrYOImnEUSsOav_W5dA67IT6_0Z4EutZsjYAAj-3Q0ZG4qHjFFw1OrRg4cWWQeR6niV-30-9BCcBOgGp572PLmbC9hJ28fF9CmeQTx3LNtF2bEWdrdIKuU23vdCdAV57jCr59bv80O22ghZg2cYylwQfWoLYGdV4oYDjUYXGtspecEEGRp-twUdpUz_8-cHynt-8HnKsdPcz_vhLFtdAbWviexAlGMAG0tr86Ux19RyC8qjdaOfdMvls4VSdRk-1Xx9mYASjSur2mx-qrhSuyOPLEpCh_Pf90Lf5xp6wYE-p1ss_6Emyp7uQeEUl_yZDCjYK9lGud_buHxIx6t57jBiRSKUqknjnHxIx6t57jBiRSKUqkn__iK-tTEbxVKTqjzjzHtItstr7TBVRVKTqjzjzJt_vhwVWW9rzEx8JnJgGpQsUdvw_CVJyywOvoHjpWzpt-2i_F-s_Vzj-_Wqs02vdFNw_pwC0Gb4ebJrXmlaiqIOqtNkyNv3gE4QnRHFfZ_EfExBem7-I8C-3EJWjkxmkt7krG8ZpuzZeMsmk_UdFp2D1vp4is2ZtVULSh8urPV1DXOVPXEha_UUtY9MYIOxJuEFEyIywLDqJrC_W40]--></g></svg>