<?xml version="1.0" encoding="UTF-8" standalone="no"?><svg xmlns="http://www.w3.org/2000/svg" xmlns:xlink="http://www.w3.org/1999/xlink" contentStyleType="text/css" height="570px" preserveAspectRatio="none" style="width:1550px;height:570px;background:#FFFFFF;" version="1.1" viewBox="0 0 1550 570" width="1550px" zoomAndPan="magnify"><defs/><g><text fill="#000000" font-family="sans-serif" font-size="14" font-weight="bold" lengthAdjust="spacing" textLength="301" x="625.5" y="28.5352">System Sequence Diagram (SSD) of US016</text><rect fill="#FFFFFF" height="337.5469" style="stroke:#181818;stroke-width:1.0;" width="10" x="46" y="136.043"/><rect fill="#FFFFFF" height="37.5547" style="stroke:#181818;stroke-width:1.0;" width="10" x="1484" y="165.5977"/><rect fill="#FFFFFF" height="78.6641" style="stroke:#181818;stroke-width:1.0;" width="10" x="1484" y="240.707"/><rect fill="#FFFFFF" height="37.5547" style="stroke:#181818;stroke-width:1.0;" width="10" x="1484" y="356.9258"/><rect fill="none" height="209.8828" style="stroke:#000000;stroke-width:1.5;" width="1533" x="10" y="255.707"/><line style="stroke:#181818;stroke-width:0.5;stroke-dasharray:5.0,5.0;" x1="51" x2="51" y1="126.043" y2="482.5898"/><line style="stroke:#181818;stroke-width:0.5;stroke-dasharray:5.0,5.0;" x1="1489" x2="1489" y1="126.043" y2="482.5898"/><text fill="#000000" font-family="sans-serif" font-size="20" lengthAdjust="spacing" textLength="56" x="20" y="121.8242">Agent</text><ellipse cx="51" cy="50.9883" fill="#E3E3E3" rx="8" ry="8" style="stroke:#181818;stroke-width:0.5;"/><path d="M51,58.9883 L51,85.9883 M38,66.9883 L64,66.9883 M51,85.9883 L38,100.9883 M51,85.9883 L64,100.9883 " fill="none" style="stroke:#181818;stroke-width:0.5;"/><text fill="#000000" font-family="sans-serif" font-size="20" lengthAdjust="spacing" textLength="56" x="20" y="500.9258">Agent</text><ellipse cx="51" cy="513.6445" fill="#E3E3E3" rx="8" ry="8" style="stroke:#181818;stroke-width:0.5;"/><path d="M51,521.6445 L51,548.6445 M38,529.6445 L64,529.6445 M51,548.6445 L38,563.6445 M51,548.6445 L64,563.6445 " fill="none" style="stroke:#181818;stroke-width:0.5;"/><rect fill="#E3E3E3" height="37.5547" rx="2.5" ry="2.5" style="stroke:#181818;stroke-width:0.5;" width="88" x="1445" y="87.4883"/><text fill="#000000" font-family="sans-serif" font-size="20" lengthAdjust="spacing" textLength="74" x="1452" y="113.8242">:System</text><rect fill="#E3E3E3" height="37.5547" rx="2.5" ry="2.5" style="stroke:#181818;stroke-width:0.5;" width="88" x="1445" y="481.5898"/><text fill="#000000" font-family="sans-serif" font-size="20" lengthAdjust="spacing" textLength="74" x="1452" y="507.9258">:System</text><rect fill="#FFFFFF" height="337.5469" style="stroke:#181818;stroke-width:1.0;" width="10" x="46" y="136.043"/><rect fill="#FFFFFF" height="37.5547" style="stroke:#181818;stroke-width:1.0;" width="10" x="1484" y="165.5977"/><rect fill="#FFFFFF" height="78.6641" style="stroke:#181818;stroke-width:1.0;" width="10" x="1484" y="240.707"/><rect fill="#FFFFFF" height="37.5547" style="stroke:#181818;stroke-width:1.0;" width="10" x="1484" y="356.9258"/><polygon fill="#181818" points="1472,161.5977,1482,165.5977,1472,169.5977,1476,165.5977" style="stroke:#181818;stroke-width:1.0;"/><line style="stroke:#181818;stroke-width:1.0;" x1="56" x2="1478" y1="165.5977" y2="165.5977"/><text fill="#000000" font-family="sans-serif" font-size="20" font-weight="bold" lengthAdjust="spacing" textLength="13" x="63" y="159.3789">1</text><text fill="#000000" font-family="sans-serif" font-size="20" lengthAdjust="spacing" textLength="642" x="80" y="159.3789">Select a booking request from the list of pending booking requests</text><polygon fill="#181818" points="67,199.1523,57,203.1523,67,207.1523,63,203.1523" style="stroke:#181818;stroke-width:1.0;"/><line style="stroke:#181818;stroke-width:1.0;stroke-dasharray:2.0,2.0;" x1="61" x2="1488" y1="203.1523" y2="203.1523"/><text fill="#000000" font-family="sans-serif" font-size="20" font-weight="bold" lengthAdjust="spacing" textLength="13" x="73" y="196.9336">2</text><text fill="#000000" font-family="sans-serif" font-size="20" lengthAdjust="spacing" textLength="531" x="90" y="196.9336">Show the option to accept or reject the booking request</text><polygon fill="#181818" points="1472,236.707,1482,240.707,1472,244.707,1476,240.707" style="stroke:#181818;stroke-width:1.0;"/><line style="stroke:#181818;stroke-width:1.0;" x1="56" x2="1478" y1="240.707" y2="240.707"/><text fill="#000000" font-family="sans-serif" font-size="20" font-weight="bold" lengthAdjust="spacing" textLength="13" x="63" y="234.4883">3</text><text fill="#000000" font-family="sans-serif" font-size="20" lengthAdjust="spacing" textLength="515" x="80" y="234.4883">Select the option to accept/reject the booking request</text><path d="M10,255.707 L89,255.707 L89,271.2617 L79,281.2617 L10,281.2617 L10,255.707 " fill="#EEEEEE" style="stroke:#000000;stroke-width:1.5;"/><rect fill="none" height="209.8828" style="stroke:#000000;stroke-width:1.5;" width="1533" x="10" y="255.707"/><text fill="#000000" font-family="sans-serif" font-size="20" font-weight="bold" lengthAdjust="spacing" textLength="34" x="25" y="276.043">opt</text><text fill="#000000" font-family="sans-serif" font-size="20" font-weight="bold" lengthAdjust="spacing" textLength="78" x="104" y="277.043">[Reject]</text><polygon fill="#181818" points="67,315.3711,57,319.3711,67,323.3711,63,319.3711" style="stroke:#181818;stroke-width:1.0;"/><line style="stroke:#181818;stroke-width:1.0;stroke-dasharray:2.0,2.0;" x1="61" x2="1488" y1="319.3711" y2="319.3711"/><text fill="#000000" font-family="sans-serif" font-size="20" font-weight="bold" lengthAdjust="spacing" textLength="13" x="73" y="313.1523">4</text><text fill="#000000" font-family="sans-serif" font-size="20" lengthAdjust="spacing" textLength="447" x="90" y="313.1523">Show the option to write a message to the user</text><polygon fill="#181818" points="1472,352.9258,1482,356.9258,1472,360.9258,1476,356.9258" style="stroke:#181818;stroke-width:1.0;"/><line style="stroke:#181818;stroke-width:1.0;" x1="56" x2="1478" y1="356.9258" y2="356.9258"/><text fill="#000000" font-family="sans-serif" font-size="20" font-weight="bold" lengthAdjust="spacing" textLength="13" x="63" y="350.707">5</text><text fill="#000000" font-family="sans-serif" font-size="20" lengthAdjust="spacing" textLength="566" x="80" y="350.707">Write a message to the user with the reason of the rejection</text><polygon fill="#181818" points="67,390.4805,57,394.4805,67,398.4805,63,394.4805" style="stroke:#181818;stroke-width:1.0;"/><line style="stroke:#181818;stroke-width:1.0;stroke-dasharray:2.0,2.0;" x1="61" x2="1488" y1="394.4805" y2="394.4805"/><text fill="#000000" font-family="sans-serif" font-size="20" font-weight="bold" lengthAdjust="spacing" textLength="13" x="73" y="388.2617">6</text><text fill="#000000" font-family="sans-serif" font-size="20" lengthAdjust="spacing" textLength="1373" x="90" y="388.2617">Send the email to the user with the response to the booking request and remove the booking request from the list of pending booking requests</text><line style="stroke:#000000;stroke-width:1.0;stroke-dasharray:2.0,2.0;" x1="10" x2="1543" y1="403.4805" y2="403.4805"/><text fill="#000000" font-family="sans-serif" font-size="20" font-weight="bold" lengthAdjust="spacing" textLength="84" x="15" y="422.8164">[Accept]</text><polygon fill="#181818" points="67,453.5898,57,457.5898,67,461.5898,63,457.5898" style="stroke:#181818;stroke-width:1.0;"/><line style="stroke:#181818;stroke-width:1.0;stroke-dasharray:2.0,2.0;" x1="61" x2="1488" y1="457.5898" y2="457.5898"/><text fill="#000000" font-family="sans-serif" font-size="20" font-weight="bold" lengthAdjust="spacing" textLength="13" x="73" y="451.3711">7</text><text fill="#000000" font-family="sans-serif" font-size="20" lengthAdjust="spacing" textLength="1392" x="90" y="451.3711">Send the email to the user with the acceptance of the booking request and remove the booking request from the list of pending booking requests</text><!--SRC=[nLFDJiCm3BxdAQoTu30nE73O0MdIn0DG8SvUwxLXRLmITzDuUfnqdQQnWYOEvEJ4plSJEs5ZNOiUcvhp3HLGq1gxMfxPIMO_2Hvc9WmbqB3ZlFBS48Zlw2JJOhx1aZBPrmIUSa5NrgS5eSA2TzQLiCOwa35YHKkpVH1g8AEFZbnEiBHOnlARB5lU0g_XDPlTFng3dR3hcXLvZNDX3vD5IKucW05IP9H7R6vRT0AJUG-SqdsOxjaj2Xtg3UXA8KoV1Y5pbLAhV41OCM-YNX-r1O6r-WQf26ghEvNMaYjYmLbXIC1n7Ga71KFYG3PLtbw0qbQyI-ZSYcK7mdezfrQPl2A_HqqnVKQM80kwo3JgxHBDtIySetuK25xItIljxRnLA8I6Gj3HYKUne0lQum5fnDbbTs_ZWB2pKgMT9mpAh-thTr6u2Zh2_jYtCNCw20cE6hJr66zesOMZglFfGeNmrF2MBgQl7xxlJnTFIVyUB5B7pHyTzNE3yTSUNlE_FBd2V040]--></g></svg>