<?xml version="1.0" encoding="UTF-8" standalone="no"?><svg xmlns="http://www.w3.org/2000/svg" xmlns:xlink="http://www.w3.org/1999/xlink" contentStyleType="text/css" height="981px" preserveAspectRatio="none" style="width:1018px;height:981px;background:#FFFFFF;" version="1.1" viewBox="0 0 1018 981" width="1018px" zoomAndPan="magnify"><defs/><g><text fill="#000000" font-family="sans-serif" font-size="14" font-weight="bold" lengthAdjust="spacing" textLength="415" x="302.5" y="28.5352">System Sequence Diagram (SSD) - US002 - Publish a Sale</text><rect fill="#FFFFFF" height="748.2031" style="stroke:#181818;stroke-width:1.0;" width="10" x="46" y="136.043"/><rect fill="#FFFFFF" height="37.5547" style="stroke:#181818;stroke-width:1.0;" width="10" x="952" y="165.5977"/><rect fill="#FFFFFF" height="37.5547" style="stroke:#181818;stroke-width:1.0;" width="10" x="952" y="240.707"/><rect fill="#FFFFFF" height="37.5547" style="stroke:#181818;stroke-width:1.0;" width="10" x="952" y="315.8164"/><rect fill="#FFFFFF" height="78.6641" style="stroke:#181818;stroke-width:1.0;" width="10" x="952" y="390.9258"/><rect fill="#FFFFFF" height="63.1094" style="stroke:#181818;stroke-width:1.0;" width="10" x="952" y="530.6992"/><rect fill="#FFFFFF" height="63.1094" style="stroke:#181818;stroke-width:1.0;" width="10" x="952" y="654.918"/><rect fill="#FFFFFF" height="44.5547" style="stroke:#181818;stroke-width:1.0;" width="10" x="952" y="755.582"/><rect fill="#FFFFFF" height="37.5547" style="stroke:#181818;stroke-width:1.0;" width="10" x="952" y="837.6914"/><rect fill="none" height="357.6563" style="stroke:#000000;stroke-width:1.5;" width="1001" x="10" y="405.9258"/><line style="stroke:#181818;stroke-width:0.5;stroke-dasharray:5.0,5.0;" x1="51" x2="51" y1="126.043" y2="893.2461"/><line style="stroke:#181818;stroke-width:0.5;stroke-dasharray:5.0,5.0;" x1="957" x2="957" y1="126.043" y2="893.2461"/><text fill="#000000" font-family="sans-serif" font-size="20" lengthAdjust="spacing" textLength="56" x="20" y="121.8242">Agent</text><ellipse cx="51" cy="50.9883" fill="#E3E3E3" rx="8" ry="8" style="stroke:#181818;stroke-width:0.5;"/><path d="M51,58.9883 L51,85.9883 M38,66.9883 L64,66.9883 M51,85.9883 L38,100.9883 M51,85.9883 L64,100.9883 " fill="none" style="stroke:#181818;stroke-width:0.5;"/><text fill="#000000" font-family="sans-serif" font-size="20" lengthAdjust="spacing" textLength="56" x="20" y="911.582">Agent</text><ellipse cx="51" cy="924.3008" fill="#E3E3E3" rx="8" ry="8" style="stroke:#181818;stroke-width:0.5;"/><path d="M51,932.3008 L51,959.3008 M38,940.3008 L64,940.3008 M51,959.3008 L38,974.3008 M51,959.3008 L64,974.3008 " fill="none" style="stroke:#181818;stroke-width:0.5;"/><rect fill="#E3E3E3" height="37.5547" rx="2.5" ry="2.5" style="stroke:#181818;stroke-width:0.5;" width="88" x="913" y="87.4883"/><text fill="#000000" font-family="sans-serif" font-size="20" lengthAdjust="spacing" textLength="74" x="920" y="113.8242">:System</text><rect fill="#E3E3E3" height="37.5547" rx="2.5" ry="2.5" style="stroke:#181818;stroke-width:0.5;" width="88" x="913" y="892.2461"/><text fill="#000000" font-family="sans-serif" font-size="20" lengthAdjust="spacing" textLength="74" x="920" y="918.582">:System</text><rect fill="#FFFFFF" height="748.2031" style="stroke:#181818;stroke-width:1.0;" width="10" x="46" y="136.043"/><rect fill="#FFFFFF" height="37.5547" style="stroke:#181818;stroke-width:1.0;" width="10" x="952" y="165.5977"/><rect fill="#FFFFFF" height="37.5547" style="stroke:#181818;stroke-width:1.0;" width="10" x="952" y="240.707"/><rect fill="#FFFFFF" height="37.5547" style="stroke:#181818;stroke-width:1.0;" width="10" x="952" y="315.8164"/><rect fill="#FFFFFF" height="78.6641" style="stroke:#181818;stroke-width:1.0;" width="10" x="952" y="390.9258"/><rect fill="#FFFFFF" height="63.1094" style="stroke:#181818;stroke-width:1.0;" width="10" x="952" y="530.6992"/><rect fill="#FFFFFF" height="63.1094" style="stroke:#181818;stroke-width:1.0;" width="10" x="952" y="654.918"/><rect fill="#FFFFFF" height="44.5547" style="stroke:#181818;stroke-width:1.0;" width="10" x="952" y="755.582"/><rect fill="#FFFFFF" height="37.5547" style="stroke:#181818;stroke-width:1.0;" width="10" x="952" y="837.6914"/><polygon fill="#181818" points="940,161.5977,950,165.5977,940,169.5977,944,165.5977" style="stroke:#181818;stroke-width:1.0;"/><line style="stroke:#181818;stroke-width:1.0;" x1="56" x2="946" y1="165.5977" y2="165.5977"/><text fill="#000000" font-family="sans-serif" font-size="20" font-weight="bold" lengthAdjust="spacing" textLength="13" x="63" y="159.3789">1</text><text fill="#000000" font-family="sans-serif" font-size="20" lengthAdjust="spacing" textLength="540" x="80" y="159.3789">asks to create a new sale for publish from existing order</text><polygon fill="#181818" points="67,199.1523,57,203.1523,67,207.1523,63,203.1523" style="stroke:#181818;stroke-width:1.0;"/><line style="stroke:#181818;stroke-width:1.0;stroke-dasharray:2.0,2.0;" x1="61" x2="956" y1="203.1523" y2="203.1523"/><text fill="#000000" font-family="sans-serif" font-size="20" font-weight="bold" lengthAdjust="spacing" textLength="13" x="73" y="196.9336">2</text><text fill="#000000" font-family="sans-serif" font-size="20" lengthAdjust="spacing" textLength="490" x="90" y="196.9336">requests commission (fixed amount or percentage)</text><polygon fill="#181818" points="940,236.707,950,240.707,940,244.707,944,240.707" style="stroke:#181818;stroke-width:1.0;"/><line style="stroke:#181818;stroke-width:1.0;" x1="56" x2="946" y1="240.707" y2="240.707"/><text fill="#000000" font-family="sans-serif" font-size="20" font-weight="bold" lengthAdjust="spacing" textLength="13" x="63" y="234.4883">3</text><text fill="#000000" font-family="sans-serif" font-size="20" lengthAdjust="spacing" textLength="173" x="80" y="234.4883">types commission</text><polygon fill="#181818" points="67,274.2617,57,278.2617,67,282.2617,63,278.2617" style="stroke:#181818;stroke-width:1.0;"/><line style="stroke:#181818;stroke-width:1.0;stroke-dasharray:2.0,2.0;" x1="61" x2="956" y1="278.2617" y2="278.2617"/><text fill="#000000" font-family="sans-serif" font-size="20" font-weight="bold" lengthAdjust="spacing" textLength="13" x="73" y="272.043">4</text><text fill="#000000" font-family="sans-serif" font-size="20" lengthAdjust="spacing" textLength="323" x="90" y="272.043">validates and returns commission</text><polygon fill="#181818" points="940,311.8164,950,315.8164,940,319.8164,944,315.8164" style="stroke:#181818;stroke-width:1.0;"/><line style="stroke:#181818;stroke-width:1.0;" x1="56" x2="946" y1="315.8164" y2="315.8164"/><text fill="#000000" font-family="sans-serif" font-size="20" font-weight="bold" lengthAdjust="spacing" textLength="13" x="63" y="309.5977">5</text><text fill="#000000" font-family="sans-serif" font-size="20" lengthAdjust="spacing" textLength="206" x="80" y="309.5977">confirms commission</text><polygon fill="#181818" points="67,349.3711,57,353.3711,67,357.3711,63,353.3711" style="stroke:#181818;stroke-width:1.0;"/><line style="stroke:#181818;stroke-width:1.0;stroke-dasharray:2.0,2.0;" x1="61" x2="956" y1="353.3711" y2="353.3711"/><text fill="#000000" font-family="sans-serif" font-size="20" font-weight="bold" lengthAdjust="spacing" textLength="13" x="73" y="347.1523">6</text><text fill="#000000" font-family="sans-serif" font-size="20" lengthAdjust="spacing" textLength="700" x="90" y="347.1523">shows property type list (House, Apartment, Land) and asks to select one</text><polygon fill="#181818" points="940,386.9258,950,390.9258,940,394.9258,944,390.9258" style="stroke:#181818;stroke-width:1.0;"/><line style="stroke:#181818;stroke-width:1.0;" x1="56" x2="946" y1="390.9258" y2="390.9258"/><text fill="#000000" font-family="sans-serif" font-size="20" font-weight="bold" lengthAdjust="spacing" textLength="13" x="63" y="384.707">7</text><text fill="#000000" font-family="sans-serif" font-size="20" lengthAdjust="spacing" textLength="217" x="80" y="384.707">selects a property type</text><path d="M10,405.9258 L82,405.9258 L82,421.4805 L72,431.4805 L10,431.4805 L10,405.9258 " fill="#EEEEEE" style="stroke:#000000;stroke-width:1.5;"/><rect fill="none" height="357.6563" style="stroke:#000000;stroke-width:1.5;" width="1001" x="10" y="405.9258"/><text fill="#000000" font-family="sans-serif" font-size="20" font-weight="bold" lengthAdjust="spacing" textLength="27" x="25" y="426.2617">alt</text><text fill="#000000" font-family="sans-serif" font-size="20" font-weight="bold" lengthAdjust="spacing" textLength="79" x="97" y="427.2617">[House]</text><polygon fill="#181818" points="67,465.5898,57,469.5898,67,473.5898,63,469.5898" style="stroke:#181818;stroke-width:1.0;"/><line style="stroke:#181818;stroke-width:1.0;stroke-dasharray:2.0,2.0;" x1="61" x2="956" y1="469.5898" y2="469.5898"/><text fill="#000000" font-family="sans-serif" font-size="20" font-weight="bold" lengthAdjust="spacing" textLength="13" x="73" y="463.3711">8</text><text fill="#000000" font-family="sans-serif" font-size="20" lengthAdjust="spacing" textLength="364" x="90" y="463.3711">requests data for House property type</text><polygon fill="#181818" points="940,526.6992,950,530.6992,940,534.6992,944,530.6992" style="stroke:#181818;stroke-width:1.0;"/><line style="stroke:#181818;stroke-width:1.0;" x1="56" x2="946" y1="530.6992" y2="530.6992"/><text fill="#000000" font-family="sans-serif" font-size="20" font-weight="bold" lengthAdjust="spacing" textLength="13" x="63" y="512.7031">9</text><text fill="#000000" font-family="sans-serif" font-size="20" lengthAdjust="spacing" textLength="799" x="80" y="500.9258">types requested data for House property type (address, area, number of bedrooms,</text><text fill="#000000" font-family="sans-serif" font-size="20" lengthAdjust="spacing" textLength="409" x="80" y="524.4805">number of bathrooms, garage, pool, price)</text><line style="stroke:#000000;stroke-width:1.0;stroke-dasharray:2.0,2.0;" x1="10" x2="1011" y1="539.6992" y2="539.6992"/><text fill="#000000" font-family="sans-serif" font-size="20" font-weight="bold" lengthAdjust="spacing" textLength="123" x="15" y="559.0352">[Apartment]</text><polygon fill="#181818" points="67,589.8086,57,593.8086,67,597.8086,63,593.8086" style="stroke:#181818;stroke-width:1.0;"/><line style="stroke:#181818;stroke-width:1.0;stroke-dasharray:2.0,2.0;" x1="61" x2="956" y1="593.8086" y2="593.8086"/><text fill="#000000" font-family="sans-serif" font-size="20" font-weight="bold" lengthAdjust="spacing" textLength="26" x="73" y="587.5898">10</text><text fill="#000000" font-family="sans-serif" font-size="20" lengthAdjust="spacing" textLength="406" x="103" y="587.5898">requests data for Apartment property type</text><polygon fill="#181818" points="940,650.918,950,654.918,940,658.918,944,654.918" style="stroke:#181818;stroke-width:1.0;"/><line style="stroke:#181818;stroke-width:1.0;" x1="56" x2="946" y1="654.918" y2="654.918"/><text fill="#000000" font-family="sans-serif" font-size="20" font-weight="bold" lengthAdjust="spacing" textLength="26" x="63" y="636.9219">11</text><text fill="#000000" font-family="sans-serif" font-size="20" lengthAdjust="spacing" textLength="841" x="93" y="625.1445">types requested data for Apartment property type (address, area, number of bedrooms,</text><text fill="#000000" font-family="sans-serif" font-size="20" lengthAdjust="spacing" textLength="409" x="93" y="648.6992">number of bathrooms, garage, pool, price)</text><line style="stroke:#000000;stroke-width:1.0;stroke-dasharray:2.0,2.0;" x1="10" x2="1011" y1="663.918" y2="663.918"/><text fill="#000000" font-family="sans-serif" font-size="20" font-weight="bold" lengthAdjust="spacing" textLength="64" x="15" y="683.2539">[Land]</text><polygon fill="#181818" points="67,714.0273,57,718.0273,67,722.0273,63,718.0273" style="stroke:#181818;stroke-width:1.0;"/><line style="stroke:#181818;stroke-width:1.0;stroke-dasharray:2.0,2.0;" x1="61" x2="956" y1="718.0273" y2="718.0273"/><text fill="#000000" font-family="sans-serif" font-size="20" font-weight="bold" lengthAdjust="spacing" textLength="26" x="73" y="711.8086">12</text><text fill="#000000" font-family="sans-serif" font-size="20" lengthAdjust="spacing" textLength="351" x="103" y="711.8086">requests data for Land property type</text><polygon fill="#181818" points="940,751.582,950,755.582,940,759.582,944,755.582" style="stroke:#181818;stroke-width:1.0;"/><line style="stroke:#181818;stroke-width:1.0;" x1="56" x2="946" y1="755.582" y2="755.582"/><text fill="#000000" font-family="sans-serif" font-size="20" font-weight="bold" lengthAdjust="spacing" textLength="26" x="63" y="749.3633">13</text><text fill="#000000" font-family="sans-serif" font-size="20" lengthAdjust="spacing" textLength="631" x="93" y="749.3633">types requested data for Land property type (address, area, price)</text><polygon fill="#181818" points="67,796.1367,57,800.1367,67,804.1367,63,800.1367" style="stroke:#181818;stroke-width:1.0;"/><line style="stroke:#181818;stroke-width:1.0;stroke-dasharray:2.0,2.0;" x1="61" x2="956" y1="800.1367" y2="800.1367"/><text fill="#000000" font-family="sans-serif" font-size="20" font-weight="bold" lengthAdjust="spacing" textLength="26" x="73" y="793.918">14</text><text fill="#000000" font-family="sans-serif" font-size="20" lengthAdjust="spacing" textLength="351" x="103" y="793.918">validates and returns requested data</text><polygon fill="#181818" points="940,833.6914,950,837.6914,940,841.6914,944,837.6914" style="stroke:#181818;stroke-width:1.0;"/><line style="stroke:#181818;stroke-width:1.0;" x1="56" x2="946" y1="837.6914" y2="837.6914"/><text fill="#000000" font-family="sans-serif" font-size="20" font-weight="bold" lengthAdjust="spacing" textLength="26" x="63" y="831.4727">15</text><text fill="#000000" font-family="sans-serif" font-size="20" lengthAdjust="spacing" textLength="245" x="93" y="831.4727">confirms order to publish</text><polygon fill="#181818" points="67,871.2461,57,875.2461,67,879.2461,63,875.2461" style="stroke:#181818;stroke-width:1.0;"/><line style="stroke:#181818;stroke-width:1.0;stroke-dasharray:2.0,2.0;" x1="61" x2="956" y1="875.2461" y2="875.2461"/><text fill="#000000" font-family="sans-serif" font-size="20" font-weight="bold" lengthAdjust="spacing" textLength="26" x="73" y="869.0273">16</text><text fill="#000000" font-family="sans-serif" font-size="20" lengthAdjust="spacing" textLength="435" x="103" y="869.0273">publishes order and shows operation success</text><!--SRC=[lLJ1Rjim3BtxAuYS4Y01WXvp652W67ROOO2nsowCJ3j2BD6JwARPru-IdJP5cgmkqEMGAD8ZtzCZnRYtliE0hcMpfmeggh5lvIjxAUqVWhjr4KyGSEpPx08x0WazdPrqQFROK2d7bY2G4VHDUmw8EwpuO7q3DRQHYaAiABGyHY479VtkoHk21ujDWi_Byc41A_XPhjTt-lkZtxOsxW2XHCrRO2_iUxUbe6iZ761stv2N6M24l2gKLwon7Ng1sMOWoiV3CiVPHnGQyGNe9ozXzUKaRAC1-mZ2O08bB8Ad0qGL0RMoTgEkMaq1Uh9HqXKvL2eivNlcE96cpJ7tIca6lerQfWP4YM3OEHkZPG_psZvfHT1nhvX4Hi4eN7rUv3mLlPd-yWvoxEWyzIHfZzZQId4Hq5SgLFhWBvAzMufXNzlWFgmcxlWGeGkiPiWntmoq0WBpRzn7Mi9zghjJy1A-g-15LdqgOgHMUnFOqpJLGvmwy9hvkd9i1RAWuU-_ggx-Okwd7FC6oGsrjqe-4gHtVOC1vbXLWM9S0cgNBs5uMS0rRAaAp4vFVlcpNPJTkDtewsxKzewvrUzWpTYSLwqXVVxmKgQ91Zt7VQf9LrZ-cr4lFgKUdcXH2lbKTou9Benvp_tqOfD6pcib7nmxUJIdKJ1Exad3PuoXKvgaRXX8oGkKDBLZRumQSKNUNm00]--></g></svg>