<?xml version="1.0" encoding="UTF-8" standalone="no"?><svg xmlns="http://www.w3.org/2000/svg" xmlns:xlink="http://www.w3.org/1999/xlink" contentStyleType="text/css" height="1258px" preserveAspectRatio="none" style="width:963px;height:1258px;background:#FFFFFF;" version="1.1" viewBox="0 0 963 1258" width="963px" zoomAndPan="magnify"><defs/><g><text fill="#000000" font-family="sans-serif" font-size="14" font-weight="bold" lengthAdjust="spacing" textLength="415" x="275" y="28.5352">System Sequence Diagram (SSD) - US002 - Publish a Sale</text><rect fill="#FFFFFF" height="1025.0859" style="stroke:#181818;stroke-width:1.0;" width="10" x="46" y="136.043"/><rect fill="#FFFFFF" height="37.5547" style="stroke:#181818;stroke-width:1.0;" width="10" x="897" y="165.5977"/><rect fill="#FFFFFF" height="37.5547" style="stroke:#181818;stroke-width:1.0;" width="10" x="897" y="240.707"/><rect fill="#FFFFFF" height="37.5547" style="stroke:#181818;stroke-width:1.0;" width="10" x="897" y="315.8164"/><rect fill="#FFFFFF" height="78.6641" style="stroke:#181818;stroke-width:1.0;" width="10" x="897" y="390.9258"/><rect fill="#FFFFFF" height="37.5547" style="stroke:#181818;stroke-width:1.0;" width="10" x="897" y="530.6992"/><rect fill="#FFFFFF" height="37.5547" style="stroke:#181818;stroke-width:1.0;" width="10" x="897" y="605.8086"/><rect fill="#FFFFFF" height="37.5547" style="stroke:#181818;stroke-width:1.0;" width="10" x="897" y="706.4727"/><rect fill="#FFFFFF" height="37.5547" style="stroke:#181818;stroke-width:1.0;" width="10" x="897" y="781.582"/><rect fill="#FFFFFF" height="37.5547" style="stroke:#181818;stroke-width:1.0;" width="10" x="897" y="882.2461"/><rect fill="#FFFFFF" height="37.5547" style="stroke:#181818;stroke-width:1.0;" width="10" x="897" y="957.3555"/><rect fill="#FFFFFF" height="37.5547" style="stroke:#181818;stroke-width:1.0;" width="10" x="897" y="1039.4648"/><rect fill="#FFFFFF" height="37.5547" style="stroke:#181818;stroke-width:1.0;" width="10" x="897" y="1114.5742"/><rect fill="none" height="596.9844" style="stroke:#000000;stroke-width:1.5;" width="946" x="10" y="405.9258"/><line style="stroke:#181818;stroke-width:0.5;stroke-dasharray:5.0,5.0;" x1="51" x2="51" y1="126.043" y2="1170.1289"/><line style="stroke:#181818;stroke-width:0.5;stroke-dasharray:5.0,5.0;" x1="902" x2="902" y1="126.043" y2="1170.1289"/><text fill="#000000" font-family="sans-serif" font-size="20" lengthAdjust="spacing" textLength="56" x="20" y="121.8242">Agent</text><ellipse cx="51" cy="50.9883" fill="#E3E3E3" rx="8" ry="8" style="stroke:#181818;stroke-width:0.5;"/><path d="M51,58.9883 L51,85.9883 M38,66.9883 L64,66.9883 M51,85.9883 L38,100.9883 M51,85.9883 L64,100.9883 " fill="none" style="stroke:#181818;stroke-width:0.5;"/><text fill="#000000" font-family="sans-serif" font-size="20" lengthAdjust="spacing" textLength="56" x="20" y="1188.4648">Agent</text><ellipse cx="51" cy="1201.1836" fill="#E3E3E3" rx="8" ry="8" style="stroke:#181818;stroke-width:0.5;"/><path d="M51,1209.1836 L51,1236.1836 M38,1217.1836 L64,1217.1836 M51,1236.1836 L38,1251.1836 M51,1236.1836 L64,1251.1836 " fill="none" style="stroke:#181818;stroke-width:0.5;"/><rect fill="#E3E3E3" height="37.5547" rx="2.5" ry="2.5" style="stroke:#181818;stroke-width:0.5;" width="88" x="858" y="87.4883"/><text fill="#000000" font-family="sans-serif" font-size="20" lengthAdjust="spacing" textLength="74" x="865" y="113.8242">:System</text><rect fill="#E3E3E3" height="37.5547" rx="2.5" ry="2.5" style="stroke:#181818;stroke-width:0.5;" width="88" x="858" y="1169.1289"/><text fill="#000000" font-family="sans-serif" font-size="20" lengthAdjust="spacing" textLength="74" x="865" y="1195.4648">:System</text><rect fill="#FFFFFF" height="1025.0859" style="stroke:#181818;stroke-width:1.0;" width="10" x="46" y="136.043"/><rect fill="#FFFFFF" height="37.5547" style="stroke:#181818;stroke-width:1.0;" width="10" x="897" y="165.5977"/><rect fill="#FFFFFF" height="37.5547" style="stroke:#181818;stroke-width:1.0;" width="10" x="897" y="240.707"/><rect fill="#FFFFFF" height="37.5547" style="stroke:#181818;stroke-width:1.0;" width="10" x="897" y="315.8164"/><rect fill="#FFFFFF" height="78.6641" style="stroke:#181818;stroke-width:1.0;" width="10" x="897" y="390.9258"/><rect fill="#FFFFFF" height="37.5547" style="stroke:#181818;stroke-width:1.0;" width="10" x="897" y="530.6992"/><rect fill="#FFFFFF" height="37.5547" style="stroke:#181818;stroke-width:1.0;" width="10" x="897" y="605.8086"/><rect fill="#FFFFFF" height="37.5547" style="stroke:#181818;stroke-width:1.0;" width="10" x="897" y="706.4727"/><rect fill="#FFFFFF" height="37.5547" style="stroke:#181818;stroke-width:1.0;" width="10" x="897" y="781.582"/><rect fill="#FFFFFF" height="37.5547" style="stroke:#181818;stroke-width:1.0;" width="10" x="897" y="882.2461"/><rect fill="#FFFFFF" height="37.5547" style="stroke:#181818;stroke-width:1.0;" width="10" x="897" y="957.3555"/><rect fill="#FFFFFF" height="37.5547" style="stroke:#181818;stroke-width:1.0;" width="10" x="897" y="1039.4648"/><rect fill="#FFFFFF" height="37.5547" style="stroke:#181818;stroke-width:1.0;" width="10" x="897" y="1114.5742"/><polygon fill="#181818" points="885,161.5977,895,165.5977,885,169.5977,889,165.5977" style="stroke:#181818;stroke-width:1.0;"/><line style="stroke:#181818;stroke-width:1.0;" x1="56" x2="891" y1="165.5977" y2="165.5977"/><text fill="#000000" font-family="sans-serif" font-size="20" font-weight="bold" lengthAdjust="spacing" textLength="13" x="63" y="159.3789">1</text><text fill="#000000" font-family="sans-serif" font-size="20" lengthAdjust="spacing" textLength="540" x="80" y="159.3789">asks to create a new sale for publish from existing order</text><polygon fill="#181818" points="67,199.1523,57,203.1523,67,207.1523,63,203.1523" style="stroke:#181818;stroke-width:1.0;"/><line style="stroke:#181818;stroke-width:1.0;stroke-dasharray:2.0,2.0;" x1="61" x2="901" y1="203.1523" y2="203.1523"/><text fill="#000000" font-family="sans-serif" font-size="20" font-weight="bold" lengthAdjust="spacing" textLength="13" x="73" y="196.9336">2</text><text fill="#000000" font-family="sans-serif" font-size="20" lengthAdjust="spacing" textLength="490" x="90" y="196.9336">requests commission (fixed amount or percentage)</text><polygon fill="#181818" points="885,236.707,895,240.707,885,244.707,889,240.707" style="stroke:#181818;stroke-width:1.0;"/><line style="stroke:#181818;stroke-width:1.0;" x1="56" x2="891" y1="240.707" y2="240.707"/><text fill="#000000" font-family="sans-serif" font-size="20" font-weight="bold" lengthAdjust="spacing" textLength="13" x="63" y="234.4883">3</text><text fill="#000000" font-family="sans-serif" font-size="20" lengthAdjust="spacing" textLength="173" x="80" y="234.4883">types commission</text><polygon fill="#181818" points="67,274.2617,57,278.2617,67,282.2617,63,278.2617" style="stroke:#181818;stroke-width:1.0;"/><line style="stroke:#181818;stroke-width:1.0;stroke-dasharray:2.0,2.0;" x1="61" x2="901" y1="278.2617" y2="278.2617"/><text fill="#000000" font-family="sans-serif" font-size="20" font-weight="bold" lengthAdjust="spacing" textLength="13" x="73" y="272.043">4</text><text fill="#000000" font-family="sans-serif" font-size="20" lengthAdjust="spacing" textLength="323" x="90" y="272.043">validates and returns commission</text><polygon fill="#181818" points="885,311.8164,895,315.8164,885,319.8164,889,315.8164" style="stroke:#181818;stroke-width:1.0;"/><line style="stroke:#181818;stroke-width:1.0;" x1="56" x2="891" y1="315.8164" y2="315.8164"/><text fill="#000000" font-family="sans-serif" font-size="20" font-weight="bold" lengthAdjust="spacing" textLength="13" x="63" y="309.5977">5</text><text fill="#000000" font-family="sans-serif" font-size="20" lengthAdjust="spacing" textLength="206" x="80" y="309.5977">confirms commission</text><polygon fill="#181818" points="67,349.3711,57,353.3711,67,357.3711,63,353.3711" style="stroke:#181818;stroke-width:1.0;"/><line style="stroke:#181818;stroke-width:1.0;stroke-dasharray:2.0,2.0;" x1="61" x2="901" y1="353.3711" y2="353.3711"/><text fill="#000000" font-family="sans-serif" font-size="20" font-weight="bold" lengthAdjust="spacing" textLength="13" x="73" y="347.1523">6</text><text fill="#000000" font-family="sans-serif" font-size="20" lengthAdjust="spacing" textLength="700" x="90" y="347.1523">shows property type list (House, Apartment, Land) and asks to select one</text><polygon fill="#181818" points="885,386.9258,895,390.9258,885,394.9258,889,390.9258" style="stroke:#181818;stroke-width:1.0;"/><line style="stroke:#181818;stroke-width:1.0;" x1="56" x2="891" y1="390.9258" y2="390.9258"/><text fill="#000000" font-family="sans-serif" font-size="20" font-weight="bold" lengthAdjust="spacing" textLength="13" x="63" y="384.707">7</text><text fill="#000000" font-family="sans-serif" font-size="20" lengthAdjust="spacing" textLength="217" x="80" y="384.707">selects a property type</text><path d="M10,405.9258 L82,405.9258 L82,421.4805 L72,431.4805 L10,431.4805 L10,405.9258 " fill="#EEEEEE" style="stroke:#000000;stroke-width:1.5;"/><rect fill="none" height="596.9844" style="stroke:#000000;stroke-width:1.5;" width="946" x="10" y="405.9258"/><text fill="#000000" font-family="sans-serif" font-size="20" font-weight="bold" lengthAdjust="spacing" textLength="27" x="25" y="426.2617">alt</text><text fill="#000000" font-family="sans-serif" font-size="20" font-weight="bold" lengthAdjust="spacing" textLength="79" x="97" y="427.2617">[House]</text><polygon fill="#181818" points="67,465.5898,57,469.5898,67,473.5898,63,469.5898" style="stroke:#181818;stroke-width:1.0;"/><line style="stroke:#181818;stroke-width:1.0;stroke-dasharray:2.0,2.0;" x1="61" x2="901" y1="469.5898" y2="469.5898"/><text fill="#000000" font-family="sans-serif" font-size="20" font-weight="bold" lengthAdjust="spacing" textLength="13" x="73" y="463.3711">8</text><text fill="#000000" font-family="sans-serif" font-size="20" lengthAdjust="spacing" textLength="364" x="90" y="463.3711">requests data for House property type</text><polygon fill="#181818" points="885,526.6992,895,530.6992,885,534.6992,889,530.6992" style="stroke:#181818;stroke-width:1.0;"/><line style="stroke:#181818;stroke-width:1.0;" x1="56" x2="891" y1="530.6992" y2="530.6992"/><text fill="#000000" font-family="sans-serif" font-size="20" font-weight="bold" lengthAdjust="spacing" textLength="13" x="63" y="512.7031">9</text><text fill="#000000" font-family="sans-serif" font-size="20" lengthAdjust="spacing" textLength="799" x="80" y="500.9258">types requested data for House property type (address, area, number of bedrooms,</text><text fill="#000000" font-family="sans-serif" font-size="20" lengthAdjust="spacing" textLength="409" x="80" y="524.4805">number of bathrooms, garage, pool, price)</text><polygon fill="#181818" points="67,564.2539,57,568.2539,67,572.2539,63,568.2539" style="stroke:#181818;stroke-width:1.0;"/><line style="stroke:#181818;stroke-width:1.0;stroke-dasharray:2.0,2.0;" x1="61" x2="901" y1="568.2539" y2="568.2539"/><text fill="#000000" font-family="sans-serif" font-size="20" font-weight="bold" lengthAdjust="spacing" textLength="26" x="73" y="562.0352">10</text><text fill="#000000" font-family="sans-serif" font-size="20" lengthAdjust="spacing" textLength="351" x="103" y="562.0352">validates and returns requested data</text><polygon fill="#181818" points="885,601.8086,895,605.8086,885,609.8086,889,605.8086" style="stroke:#181818;stroke-width:1.0;"/><line style="stroke:#181818;stroke-width:1.0;" x1="56" x2="891" y1="605.8086" y2="605.8086"/><text fill="#000000" font-family="sans-serif" font-size="20" font-weight="bold" lengthAdjust="spacing" textLength="26" x="63" y="599.5898">11</text><text fill="#000000" font-family="sans-serif" font-size="20" lengthAdjust="spacing" textLength="245" x="93" y="599.5898">confirms order to publish</text><polygon fill="#181818" points="67,639.3633,57,643.3633,67,647.3633,63,643.3633" style="stroke:#181818;stroke-width:1.0;"/><line style="stroke:#181818;stroke-width:1.0;stroke-dasharray:2.0,2.0;" x1="61" x2="901" y1="643.3633" y2="643.3633"/><text fill="#000000" font-family="sans-serif" font-size="20" font-weight="bold" lengthAdjust="spacing" textLength="26" x="73" y="637.1445">12</text><text fill="#000000" font-family="sans-serif" font-size="20" lengthAdjust="spacing" textLength="435" x="103" y="637.1445">publishes order and shows operation success</text><line style="stroke:#000000;stroke-width:1.0;stroke-dasharray:2.0,2.0;" x1="10" x2="956" y1="652.3633" y2="652.3633"/><text fill="#000000" font-family="sans-serif" font-size="20" font-weight="bold" lengthAdjust="spacing" textLength="123" x="15" y="671.6992">[Apartment]</text><polygon fill="#181818" points="885,702.4727,895,706.4727,885,710.4727,889,706.4727" style="stroke:#181818;stroke-width:1.0;"/><line style="stroke:#181818;stroke-width:1.0;" x1="56" x2="891" y1="706.4727" y2="706.4727"/><text fill="#000000" font-family="sans-serif" font-size="20" font-weight="bold" lengthAdjust="spacing" textLength="26" x="63" y="700.2539">13</text><text fill="#000000" font-family="sans-serif" font-size="20" lengthAdjust="spacing" textLength="454" x="93" y="700.2539">types requested data for selected property type</text><polygon fill="#181818" points="67,740.0273,57,744.0273,67,748.0273,63,744.0273" style="stroke:#181818;stroke-width:1.0;"/><line style="stroke:#181818;stroke-width:1.0;stroke-dasharray:2.0,2.0;" x1="61" x2="901" y1="744.0273" y2="744.0273"/><text fill="#000000" font-family="sans-serif" font-size="20" font-weight="bold" lengthAdjust="spacing" textLength="26" x="73" y="737.8086">14</text><text fill="#000000" font-family="sans-serif" font-size="20" lengthAdjust="spacing" textLength="351" x="103" y="737.8086">validates and returns requested data</text><polygon fill="#181818" points="885,777.582,895,781.582,885,785.582,889,781.582" style="stroke:#181818;stroke-width:1.0;"/><line style="stroke:#181818;stroke-width:1.0;" x1="56" x2="891" y1="781.582" y2="781.582"/><text fill="#000000" font-family="sans-serif" font-size="20" font-weight="bold" lengthAdjust="spacing" textLength="26" x="63" y="775.3633">15</text><text fill="#000000" font-family="sans-serif" font-size="20" lengthAdjust="spacing" textLength="245" x="93" y="775.3633">confirms order to publish</text><polygon fill="#181818" points="67,815.1367,57,819.1367,67,823.1367,63,819.1367" style="stroke:#181818;stroke-width:1.0;"/><line style="stroke:#181818;stroke-width:1.0;stroke-dasharray:2.0,2.0;" x1="61" x2="901" y1="819.1367" y2="819.1367"/><text fill="#000000" font-family="sans-serif" font-size="20" font-weight="bold" lengthAdjust="spacing" textLength="26" x="73" y="812.918">16</text><text fill="#000000" font-family="sans-serif" font-size="20" lengthAdjust="spacing" textLength="435" x="103" y="812.918">publishes order and shows operation success</text><line style="stroke:#000000;stroke-width:1.0;stroke-dasharray:2.0,2.0;" x1="10" x2="956" y1="828.1367" y2="828.1367"/><text fill="#000000" font-family="sans-serif" font-size="20" font-weight="bold" lengthAdjust="spacing" textLength="64" x="15" y="847.4727">[Land]</text><polygon fill="#181818" points="885,878.2461,895,882.2461,885,886.2461,889,882.2461" style="stroke:#181818;stroke-width:1.0;"/><line style="stroke:#181818;stroke-width:1.0;" x1="56" x2="891" y1="882.2461" y2="882.2461"/><text fill="#000000" font-family="sans-serif" font-size="20" font-weight="bold" lengthAdjust="spacing" textLength="26" x="63" y="876.0273">17</text><text fill="#000000" font-family="sans-serif" font-size="20" lengthAdjust="spacing" textLength="454" x="93" y="876.0273">types requested data for selected property type</text><polygon fill="#181818" points="67,915.8008,57,919.8008,67,923.8008,63,919.8008" style="stroke:#181818;stroke-width:1.0;"/><line style="stroke:#181818;stroke-width:1.0;stroke-dasharray:2.0,2.0;" x1="61" x2="901" y1="919.8008" y2="919.8008"/><text fill="#000000" font-family="sans-serif" font-size="20" font-weight="bold" lengthAdjust="spacing" textLength="26" x="73" y="913.582">18</text><text fill="#000000" font-family="sans-serif" font-size="20" lengthAdjust="spacing" textLength="351" x="103" y="913.582">validates and returns requested data</text><polygon fill="#181818" points="885,953.3555,895,957.3555,885,961.3555,889,957.3555" style="stroke:#181818;stroke-width:1.0;"/><line style="stroke:#181818;stroke-width:1.0;" x1="56" x2="891" y1="957.3555" y2="957.3555"/><text fill="#000000" font-family="sans-serif" font-size="20" font-weight="bold" lengthAdjust="spacing" textLength="26" x="63" y="951.1367">19</text><text fill="#000000" font-family="sans-serif" font-size="20" lengthAdjust="spacing" textLength="245" x="93" y="951.1367">confirms order to publish</text><polygon fill="#181818" points="67,990.9102,57,994.9102,67,998.9102,63,994.9102" style="stroke:#181818;stroke-width:1.0;"/><line style="stroke:#181818;stroke-width:1.0;stroke-dasharray:2.0,2.0;" x1="61" x2="901" y1="994.9102" y2="994.9102"/><text fill="#000000" font-family="sans-serif" font-size="20" font-weight="bold" lengthAdjust="spacing" textLength="26" x="73" y="988.6914">20</text><text fill="#000000" font-family="sans-serif" font-size="20" lengthAdjust="spacing" textLength="435" x="103" y="988.6914">publishes order and shows operation success</text><polygon fill="#181818" points="885,1035.4648,895,1039.4648,885,1043.4648,889,1039.4648" style="stroke:#181818;stroke-width:1.0;"/><line style="stroke:#181818;stroke-width:1.0;" x1="56" x2="891" y1="1039.4648" y2="1039.4648"/><text fill="#000000" font-family="sans-serif" font-size="20" font-weight="bold" lengthAdjust="spacing" textLength="26" x="63" y="1033.2461">21</text><text fill="#000000" font-family="sans-serif" font-size="20" lengthAdjust="spacing" textLength="454" x="93" y="1033.2461">types requested data for selected property type</text><polygon fill="#181818" points="67,1073.0195,57,1077.0195,67,1081.0195,63,1077.0195" style="stroke:#181818;stroke-width:1.0;"/><line style="stroke:#181818;stroke-width:1.0;stroke-dasharray:2.0,2.0;" x1="61" x2="901" y1="1077.0195" y2="1077.0195"/><text fill="#000000" font-family="sans-serif" font-size="20" font-weight="bold" lengthAdjust="spacing" textLength="26" x="73" y="1070.8008">22</text><text fill="#000000" font-family="sans-serif" font-size="20" lengthAdjust="spacing" textLength="351" x="103" y="1070.8008">validates and returns requested data</text><polygon fill="#181818" points="885,1110.5742,895,1114.5742,885,1118.5742,889,1114.5742" style="stroke:#181818;stroke-width:1.0;"/><line style="stroke:#181818;stroke-width:1.0;" x1="56" x2="891" y1="1114.5742" y2="1114.5742"/><text fill="#000000" font-family="sans-serif" font-size="20" font-weight="bold" lengthAdjust="spacing" textLength="26" x="63" y="1108.3555">23</text><text fill="#000000" font-family="sans-serif" font-size="20" lengthAdjust="spacing" textLength="245" x="93" y="1108.3555">confirms order to publish</text><polygon fill="#181818" points="67,1148.1289,57,1152.1289,67,1156.1289,63,1152.1289" style="stroke:#181818;stroke-width:1.0;"/><line style="stroke:#181818;stroke-width:1.0;stroke-dasharray:2.0,2.0;" x1="61" x2="901" y1="1152.1289" y2="1152.1289"/><text fill="#000000" font-family="sans-serif" font-size="20" font-weight="bold" lengthAdjust="spacing" textLength="26" x="73" y="1145.9102">24</text><text fill="#000000" font-family="sans-serif" font-size="20" lengthAdjust="spacing" textLength="435" x="103" y="1145.9102">publishes order and shows operation success</text><!--SRC=[xLKzZzim3DtzAuXC2P00mOqP2XnmA3fqA61qwyB8j2F45bs9lbpwwql9zZL1Fde9hkXo7c95elYU7X_biBMkHOzDpMPB1HHKObVBPtQIsry43yiiZ27Gi6EpyTmGYE_eOAL5iyMASjdN19wCeAlgmu2mmO9trbLGOXqeoyIAXkRx8DH0JZyxSeRWoM8LmwTv_ZI31NpFbyi7VN_hrhKD6q38KVDcs0cxhbcJrx4HzZ1vhCZ913106cMAAzRO5ft0PDK3fUL-cFRPPnGQuZFG9mrXyMaajj8Dsm32O3p5M0H7EmXA0af5RGTUfOe2z6A3n2EoBvHOpFUACOB6oI7tGc5wl9LAfW842M2uQMm8bXrCI_kY5S66Eus9OEIDXglEivIdeBFfJyyW-vOEKzz4xHbhMsXS07I54fNEkvDaRwPYs9NMDtUp2HlU1MWzgnYoJoS3hO30z0jtWURm6ElUQF0SlYhXMM8z5Z5GhTu4TdGRwtwVAd2CV9avrWA9KF_tRrLNVJ7vAUqv0tA5xRMI3m2nhwyWm1IBmbC8Sq1r-HpwpW8kOKs5PsvqvOSxc4NP3DELTdUbihVCjVvwQmPpNfJc9fiT7-0-ALujbzeosc3eshju3djfJ1VPzgQCYgB4pWsTCIhd5RfnblGUX3z-lQUOlIzrvhnZBfxhemP7DOWNnOVy_qD-rJrxFz7_oNrp-wVjhCXl_S3TAkuflTy0]--></g></svg>