<?xml version="1.0" encoding="UTF-8" standalone="no"?><svg xmlns="http://www.w3.org/2000/svg" xmlns:xlink="http://www.w3.org/1999/xlink" contentStyleType="text/css" height="459px" preserveAspectRatio="none" style="width:630px;height:459px;background:#FFFFFF;" version="1.1" viewBox="0 0 630 459" width="630px" zoomAndPan="magnify"><defs/><g><text fill="#000000" font-family="sans-serif" font-size="14" font-weight="bold" lengthAdjust="spacing" textLength="473" x="77.75" y="28.5352">System Sequence Diagram (SSD) - US003: Register New Employee</text><rect fill="#FFFFFF" height="226.3281" style="stroke:#181818;stroke-width:1.0;" width="10" x="106.5" y="136.043"/><rect fill="#FFFFFF" height="37.5547" style="stroke:#181818;stroke-width:1.0;" width="10" x="575.5" y="165.5977"/><rect fill="#FFFFFF" height="37.5547" style="stroke:#181818;stroke-width:1.0;" width="10" x="575.5" y="240.707"/><rect fill="#FFFFFF" height="37.5547" style="stroke:#181818;stroke-width:1.0;" width="10" x="575.5" y="315.8164"/><line style="stroke:#181818;stroke-width:0.5;stroke-dasharray:5.0,5.0;" x1="111" x2="111" y1="126.043" y2="371.3711"/><line style="stroke:#181818;stroke-width:0.5;stroke-dasharray:5.0,5.0;" x1="580.5" x2="580.5" y1="126.043" y2="371.3711"/><text fill="#000000" font-family="sans-serif" font-size="20" lengthAdjust="spacing" textLength="207" x="5" y="121.8242">System Administrator</text><ellipse cx="111.5" cy="50.9883" fill="#E2E2F0" rx="8" ry="8" style="stroke:#181818;stroke-width:0.5;"/><path d="M111.5,58.9883 L111.5,85.9883 M98.5,66.9883 L124.5,66.9883 M111.5,85.9883 L98.5,100.9883 M111.5,85.9883 L124.5,100.9883 " fill="none" style="stroke:#181818;stroke-width:0.5;"/><text fill="#000000" font-family="sans-serif" font-size="20" lengthAdjust="spacing" textLength="207" x="5" y="389.707">System Administrator</text><ellipse cx="111.5" cy="402.4258" fill="#E2E2F0" rx="8" ry="8" style="stroke:#181818;stroke-width:0.5;"/><path d="M111.5,410.4258 L111.5,437.4258 M98.5,418.4258 L124.5,418.4258 M111.5,437.4258 L98.5,452.4258 M111.5,437.4258 L124.5,452.4258 " fill="none" style="stroke:#181818;stroke-width:0.5;"/><rect fill="#E2E2F0" height="37.5547" rx="2.5" ry="2.5" style="stroke:#181818;stroke-width:0.5;" width="88" x="536.5" y="87.4883"/><text fill="#000000" font-family="sans-serif" font-size="20" lengthAdjust="spacing" textLength="74" x="543.5" y="113.8242">:System</text><rect fill="#E2E2F0" height="37.5547" rx="2.5" ry="2.5" style="stroke:#181818;stroke-width:0.5;" width="88" x="536.5" y="370.3711"/><text fill="#000000" font-family="sans-serif" font-size="20" lengthAdjust="spacing" textLength="74" x="543.5" y="396.707">:System</text><rect fill="#FFFFFF" height="226.3281" style="stroke:#181818;stroke-width:1.0;" width="10" x="106.5" y="136.043"/><rect fill="#FFFFFF" height="37.5547" style="stroke:#181818;stroke-width:1.0;" width="10" x="575.5" y="165.5977"/><rect fill="#FFFFFF" height="37.5547" style="stroke:#181818;stroke-width:1.0;" width="10" x="575.5" y="240.707"/><rect fill="#FFFFFF" height="37.5547" style="stroke:#181818;stroke-width:1.0;" width="10" x="575.5" y="315.8164"/><polygon fill="#181818" points="563.5,161.5977,573.5,165.5977,563.5,169.5977,567.5,165.5977" style="stroke:#181818;stroke-width:1.0;"/><line style="stroke:#181818;stroke-width:1.0;" x1="116.5" x2="569.5" y1="165.5977" y2="165.5977"/><text fill="#000000" font-family="sans-serif" font-size="20" font-weight="bold" lengthAdjust="spacing" textLength="13" x="123.5" y="159.3789">1</text><text fill="#000000" font-family="sans-serif" font-size="20" lengthAdjust="spacing" textLength="346" x="140.5" y="159.3789">requests to register a new employee</text><polygon fill="#181818" points="127.5,199.1523,117.5,203.1523,127.5,207.1523,123.5,203.1523" style="stroke:#181818;stroke-width:1.0;"/><line style="stroke:#181818;stroke-width:1.0;stroke-dasharray:2.0,2.0;" x1="121.5" x2="579.5" y1="203.1523" y2="203.1523"/><text fill="#000000" font-family="sans-serif" font-size="20" font-weight="bold" lengthAdjust="spacing" textLength="13" x="133.5" y="196.9336">2</text><text fill="#000000" font-family="sans-serif" font-size="20" lengthAdjust="spacing" textLength="418" x="150.5" y="196.9336">requests data (name, email, password, etc.)</text><polygon fill="#181818" points="563.5,236.707,573.5,240.707,563.5,244.707,567.5,240.707" style="stroke:#181818;stroke-width:1.0;"/><line style="stroke:#181818;stroke-width:1.0;" x1="116.5" x2="569.5" y1="240.707" y2="240.707"/><text fill="#000000" font-family="sans-serif" font-size="20" font-weight="bold" lengthAdjust="spacing" textLength="13" x="123.5" y="234.4883">3</text><text fill="#000000" font-family="sans-serif" font-size="20" lengthAdjust="spacing" textLength="256" x="140.5" y="234.4883">provide the necessary data</text><polygon fill="#181818" points="127.5,274.2617,117.5,278.2617,127.5,282.2617,123.5,278.2617" style="stroke:#181818;stroke-width:1.0;"/><line style="stroke:#181818;stroke-width:1.0;stroke-dasharray:2.0,2.0;" x1="121.5" x2="579.5" y1="278.2617" y2="278.2617"/><text fill="#000000" font-family="sans-serif" font-size="20" font-weight="bold" lengthAdjust="spacing" textLength="13" x="133.5" y="272.043">4</text><text fill="#000000" font-family="sans-serif" font-size="20" lengthAdjust="spacing" textLength="325" x="150.5" y="272.043">validate data and list the agencies</text><polygon fill="#181818" points="563.5,311.8164,573.5,315.8164,563.5,319.8164,567.5,315.8164" style="stroke:#181818;stroke-width:1.0;"/><line style="stroke:#181818;stroke-width:1.0;" x1="116.5" x2="569.5" y1="315.8164" y2="315.8164"/><text fill="#000000" font-family="sans-serif" font-size="20" font-weight="bold" lengthAdjust="spacing" textLength="13" x="123.5" y="309.5977">5</text><text fill="#000000" font-family="sans-serif" font-size="20" lengthAdjust="spacing" textLength="286" x="140.5" y="309.5977">select the agency from the list</text><polygon fill="#181818" points="127.5,349.3711,117.5,353.3711,127.5,357.3711,123.5,353.3711" style="stroke:#181818;stroke-width:1.0;"/><line style="stroke:#181818;stroke-width:1.0;stroke-dasharray:2.0,2.0;" x1="121.5" x2="579.5" y1="353.3711" y2="353.3711"/><text fill="#000000" font-family="sans-serif" font-size="20" font-weight="bold" lengthAdjust="spacing" textLength="13" x="133.5" y="347.1523">6</text><text fill="#000000" font-family="sans-serif" font-size="20" lengthAdjust="spacing" textLength="248" x="150.5" y="347.1523">displays success message</text><!--SRC=[bPBFJiCm38VlUmfhfqtQq0It7P2GW2C7AXx095uNBNzAx6ugJu-RjcCIJ8ASdEINBr-iyC751ZC6dyo1B5ZQOUlbEKMft2V1xMR6KmH2YidiSme4E_HC5riDcWFML4dd2J8PmLZxom3lqQQJY_LuT2PED5frB1IWee-MeY5uT5ZtyKLLFIvX3M_LPdEtXLUgdGOplD09daBZKqVAm5PIRCCxPQsDf0pp4VXWWujw9AEkpW5vM9cfZ3ZZ6em2y-qGBjj3MJ3kY49ZVWOwIWdh-ybsgozKNnO6ILgFRWXHxMYowq-UQHCUnZ6IrWeTw1TCYuAmY1XefJHqVgNjPJwbR7L1pCsoO2pzIlyfs-HqT9P0zgI6XfWnT-MMiyvLpokkH_JEzldYYj62rnwK6_GNHEE8puW_Up9v_JZVa0vs-jVAlAV_kw7MSUEnO-3MzA-6q3-zfYlT-m80]--></g></svg>