<?xml version="1.0" encoding="UTF-8" standalone="no"?><svg xmlns="http://www.w3.org/2000/svg" xmlns:xlink="http://www.w3.org/1999/xlink" contentStyleType="text/css" height="1252px" preserveAspectRatio="none" style="width:1820px;height:1252px;background:#FFFFFF;" version="1.1" viewBox="0 0 1820 1252" width="1820px" zoomAndPan="magnify"><defs/><g><text fill="#000000" font-family="sans-serif" font-size="14" font-weight="bold" lengthAdjust="spacing" textLength="105" x="850.835" y="23.5352">Domain Model</text><!--class Client--><g id="elem_Client"><rect codeLine="11" fill="#F1F1F1" height="41.5547" id="Client" rx="2.5" ry="2.5" style="stroke:#181818;stroke-width:0.5;" width="62" x="1477.67" y="380.0383"/><text fill="#000000" font-family="sans-serif" font-size="20" lengthAdjust="spacing" textLength="56" x="1480.67" y="404.3742">Client</text><line style="stroke:#181818;stroke-width:0.5;" x1="1478.67" x2="1538.67" y1="413.593" y2="413.593"/></g><!--class Owner--><g id="elem_Owner"><rect codeLine="14" fill="#F1F1F1" height="41.5547" id="Owner" rx="2.5" ry="2.5" style="stroke:#181818;stroke-width:0.5;" width="68" x="408.67" y="380.0383"/><text fill="#000000" font-family="sans-serif" font-size="20" lengthAdjust="spacing" textLength="62" x="411.67" y="404.3742">Owner</text><line style="stroke:#181818;stroke-width:0.5;" x1="409.67" x2="475.67" y1="413.593" y2="413.593"/></g><!--class Employee--><g id="elem_Employee"><rect codeLine="17" fill="#F1F1F1" height="41.5547" id="Employee" rx="2.5" ry="2.5" style="stroke:#181818;stroke-width:0.5;" width="99" x="393.17" y="44.4883"/><text fill="#000000" font-family="sans-serif" font-size="20" lengthAdjust="spacing" textLength="93" x="396.17" y="68.8242">Employee</text><line style="stroke:#181818;stroke-width:0.5;" x1="394.17" x2="491.17" y1="78.043" y2="78.043"/></g><!--class Agent--><g id="elem_Agent"><rect codeLine="20" fill="#F1F1F1" height="41.5547" id="Agent" rx="2.5" ry="2.5" style="stroke:#181818;stroke-width:0.5;" width="62" x="411.67" y="194.5983"/><text fill="#000000" font-family="sans-serif" font-size="20" lengthAdjust="spacing" textLength="56" x="414.67" y="218.9342">Agent</text><line style="stroke:#181818;stroke-width:0.5;" x1="412.67" x2="472.67" y1="228.153" y2="228.153"/></g><!--class Property--><g id="elem_Property"><rect codeLine="25" fill="#F1F1F1" height="112.2188" id="Property" rx="2.5" ry="2.5" style="stroke:#181818;stroke-width:0.5;" width="205" x="458.17" y="541.9183"/><text fill="#000000" font-family="sans-serif" font-size="20" lengthAdjust="spacing" textLength="80" x="520.67" y="566.2542">Property</text><line style="stroke:#181818;stroke-width:0.5;" x1="459.17" x2="662.17" y1="575.473" y2="575.473"/><text fill="#000000" font-family="sans-serif" font-size="20" lengthAdjust="spacing" textLength="41" x="464.17" y="598.8089">area</text><text fill="#000000" font-family="sans-serif" font-size="20" lengthAdjust="spacing" textLength="193" x="464.17" y="622.3636">distanceFromCenter</text><text fill="#000000" font-family="sans-serif" font-size="20" lengthAdjust="spacing" textLength="48" x="464.17" y="645.9183">price</text></g><!--class Photos--><g id="elem_Photos"><rect codeLine="31" fill="#F1F1F1" height="41.5547" id="Photos" rx="2.5" ry="2.5" style="stroke:#181818;stroke-width:0.5;" width="70" x="525.67" y="774.4783"/><text fill="#000000" font-family="sans-serif" font-size="20" lengthAdjust="spacing" textLength="64" x="528.67" y="798.8142">Photos</text><line style="stroke:#181818;stroke-width:0.5;" x1="526.67" x2="594.67" y1="808.033" y2="808.033"/></g><!--class Address--><g id="elem_Address"><rect codeLine="34" fill="#F1F1F1" height="88.6641" id="Address" rx="2.5" ry="2.5" style="stroke:#181818;stroke-width:0.5;" width="135" x="1449.17" y="553.6983"/><text fill="#000000" font-family="sans-serif" font-size="20" lengthAdjust="spacing" textLength="79" x="1477.17" y="578.0342">Address</text><line style="stroke:#181818;stroke-width:0.5;" x1="1450.17" x2="1583.17" y1="587.253" y2="587.253"/><text fill="#000000" font-family="sans-serif" font-size="20" lengthAdjust="spacing" textLength="123" x="1455.17" y="610.5889">doorNumber</text><text fill="#000000" font-family="sans-serif" font-size="20" lengthAdjust="spacing" textLength="80" x="1455.17" y="634.1436">zipCode</text></g><!--class Street--><g id="elem_Street"><rect codeLine="39" fill="#F1F1F1" height="41.5547" id="Street" rx="2.5" ry="2.5" style="stroke:#181818;stroke-width:0.5;" width="61" x="1697.17" y="44.4883"/><text fill="#000000" font-family="sans-serif" font-size="20" lengthAdjust="spacing" textLength="55" x="1700.17" y="68.8242">Street</text><line style="stroke:#181818;stroke-width:0.5;" x1="1698.17" x2="1757.17" y1="78.043" y2="78.043"/></g><!--class City--><g id="elem_City"><rect codeLine="42" fill="#F1F1F1" height="41.5547" id="City" rx="2.5" ry="2.5" style="stroke:#181818;stroke-width:0.5;" width="43" x="1706.17" y="194.5983"/><text fill="#000000" font-family="sans-serif" font-size="20" lengthAdjust="spacing" textLength="37" x="1709.17" y="218.9342">City</text><line style="stroke:#181818;stroke-width:0.5;" x1="1707.17" x2="1748.17" y1="228.153" y2="228.153"/></g><!--class District--><g id="elem_District"><rect codeLine="45" fill="#F1F1F1" height="41.5547" id="District" rx="2.5" ry="2.5" style="stroke:#181818;stroke-width:0.5;" width="75" x="1674.17" y="380.0383"/><text fill="#000000" font-family="sans-serif" font-size="20" lengthAdjust="spacing" textLength="69" x="1677.17" y="404.3742">District</text><line style="stroke:#181818;stroke-width:0.5;" x1="1675.17" x2="1748.17" y1="413.593" y2="413.593"/></g><!--class State--><g id="elem_State"><rect codeLine="48" fill="#F1F1F1" height="41.5547" id="State" rx="2.5" ry="2.5" style="stroke:#181818;stroke-width:0.5;" width="53" x="1585.17" y="774.4783"/><text fill="#000000" font-family="sans-serif" font-size="20" lengthAdjust="spacing" textLength="47" x="1588.17" y="798.8142">State</text><line style="stroke:#181818;stroke-width:0.5;" x1="1586.17" x2="1637.17" y1="808.033" y2="808.033"/></g><!--class Apartment--><g id="elem_Apartment"><rect codeLine="51" fill="#F1F1F1" height="41.5547" id="Apartment" rx="2.5" ry="2.5" style="stroke:#181818;stroke-width:0.5;" width="108" x="532.67" y="959.9183"/><text fill="#000000" font-family="sans-serif" font-size="20" lengthAdjust="spacing" textLength="102" x="535.67" y="984.2542">Apartment</text><line style="stroke:#181818;stroke-width:0.5;" x1="533.67" x2="639.67" y1="993.473" y2="993.473"/></g><!--class Residency--><g id="elem_Residency"><rect codeLine="59" fill="#F1F1F1" height="112.2188" id="Residency" rx="2.5" ry="2.5" style="stroke:#181818;stroke-width:0.5;" width="248" x="630.67" y="739.1383"/><text fill="#000000" font-family="sans-serif" font-size="20" lengthAdjust="spacing" textLength="96" x="706.67" y="763.4742">Residency</text><line style="stroke:#181818;stroke-width:0.5;" x1="631.67" x2="877.67" y1="772.693" y2="772.693"/><text fill="#000000" font-family="sans-serif" font-size="20" lengthAdjust="spacing" textLength="195" x="636.67" y="796.0289">numberOfBedrooms</text><text fill="#000000" font-family="sans-serif" font-size="20" lengthAdjust="spacing" textLength="201" x="636.67" y="819.5836">numberOfBathrooms</text><text fill="#000000" font-family="sans-serif" font-size="20" lengthAdjust="spacing" textLength="236" x="636.67" y="843.1383">numberOfParkingSpaces</text></g><!--class House--><g id="elem_House"><rect codeLine="54" fill="#F1F1F1" height="88.6641" id="House" rx="2.5" ry="2.5" style="stroke:#181818;stroke-width:0.5;" width="157" x="676.17" y="936.3583"/><text fill="#000000" font-family="sans-serif" font-size="20" lengthAdjust="spacing" textLength="60" x="724.67" y="960.6942">House</text><line style="stroke:#181818;stroke-width:0.5;" x1="677.17" x2="832.17" y1="969.913" y2="969.913"/><text fill="#000000" font-family="sans-serif" font-size="20" lengthAdjust="spacing" textLength="94" x="682.17" y="993.2489">basement</text><text fill="#000000" font-family="sans-serif" font-size="20" lengthAdjust="spacing" textLength="145" x="682.17" y="1016.8036">inhabitableLoft</text></g><!--class PublishedProperty--><g id="elem_PublishedProperty"><rect codeLine="66" fill="#F1F1F1" height="88.6641" id="PublishedProperty" rx="2.5" ry="2.5" style="stroke:#181818;stroke-width:0.5;" width="180" x="1044.67" y="171.0383"/><text fill="#000000" font-family="sans-serif" font-size="20" lengthAdjust="spacing" textLength="174" x="1047.67" y="195.3742">PublishedProperty</text><line style="stroke:#181818;stroke-width:0.5;" x1="1045.67" x2="1223.67" y1="204.593" y2="204.593"/><text fill="#000000" font-family="sans-serif" font-size="20" lengthAdjust="spacing" textLength="140" x="1050.67" y="227.9289">publishedDate</text><text fill="#000000" font-family="sans-serif" font-size="20" lengthAdjust="spacing" textLength="118" x="1050.67" y="251.4836">publishedBy</text></g><!--class Commission--><g id="elem_Commission"><rect codeLine="71" fill="#F1F1F1" height="88.6641" id="Commission" rx="2.5" ry="2.5" style="stroke:#181818;stroke-width:0.5;" width="126" x="969.67" y="356.4783"/><text fill="#000000" font-family="sans-serif" font-size="20" lengthAdjust="spacing" textLength="120" x="972.67" y="380.8142">Commission</text><line style="stroke:#181818;stroke-width:0.5;" x1="970.67" x2="1094.67" y1="390.033" y2="390.033"/><text fill="#000000" font-family="sans-serif" font-size="20" lengthAdjust="spacing" textLength="106" x="975.67" y="413.3689">percentage</text><text fill="#000000" font-family="sans-serif" font-size="20" lengthAdjust="spacing" textLength="50" x="975.67" y="436.9236">value</text></g><!--class TypeOfProperty--><g id="elem_TypeOfProperty"><rect codeLine="76" fill="#F1F1F1" height="112.2188" id="TypeOfProperty" rx="2.5" ry="2.5" style="stroke:#181818;stroke-width:0.5;" width="156" x="1130.67" y="344.7083"/><text fill="#000000" font-family="sans-serif" font-size="20" lengthAdjust="spacing" textLength="150" x="1133.67" y="369.0442">TypeOfProperty</text><line style="stroke:#181818;stroke-width:0.5;" x1="1131.67" x2="1285.67" y1="378.263" y2="378.263"/><text fill="#000000" font-family="sans-serif" font-size="20" lengthAdjust="spacing" textLength="121" x="1136.67" y="401.5989">APARTMENT</text><text fill="#000000" font-family="sans-serif" font-size="20" lengthAdjust="spacing" textLength="67" x="1136.67" y="425.1536">HOUSE</text><text fill="#000000" font-family="sans-serif" font-size="20" lengthAdjust="spacing" textLength="55" x="1136.67" y="448.7083">LAND</text></g><!--class Land--><g id="elem_Land"><rect codeLine="82" fill="#F1F1F1" height="41.5547" id="Land" rx="2.5" ry="2.5" style="stroke:#181818;stroke-width:0.5;" width="53" x="438.17" y="774.4783"/><text fill="#000000" font-family="sans-serif" font-size="20" lengthAdjust="spacing" textLength="47" x="441.17" y="798.8142">Land</text><line style="stroke:#181818;stroke-width:0.5;" x1="439.17" x2="490.17" y1="808.033" y2="808.033"/></g><!--class Equipment--><g id="elem_Equipment"><rect codeLine="85" fill="#F1F1F1" height="65.1094" id="Equipment" rx="2.5" ry="2.5" style="stroke:#181818;stroke-width:0.5;" width="172" x="868.67" y="948.1383"/><text fill="#000000" font-family="sans-serif" font-size="20" lengthAdjust="spacing" textLength="104" x="902.67" y="972.4742">Equipment</text><line style="stroke:#181818;stroke-width:0.5;" x1="869.67" x2="1039.67" y1="981.693" y2="981.693"/><text fill="#000000" font-family="sans-serif" font-size="20" lengthAdjust="spacing" textLength="160" x="874.67" y="1005.0289">equipmentName</text></g><!--class SunExposure--><g id="elem_SunExposure"><rect codeLine="90" fill="#F1F1F1" height="135.7734" id="SunExposure" rx="2.5" ry="2.5" style="stroke:#181818;stroke-width:0.5;" width="130" x="689.67" y="1110.0283"/><text fill="#000000" font-family="sans-serif" font-size="20" lengthAdjust="spacing" textLength="124" x="692.67" y="1134.3642">SunExposure</text><line style="stroke:#181818;stroke-width:0.5;" x1="690.67" x2="818.67" y1="1143.583" y2="1143.583"/><text fill="#000000" font-family="sans-serif" font-size="20" lengthAdjust="spacing" textLength="72" x="695.67" y="1166.9189">NORTH</text><text fill="#000000" font-family="sans-serif" font-size="20" lengthAdjust="spacing" textLength="69" x="695.67" y="1190.4736">SOUTH</text><text fill="#000000" font-family="sans-serif" font-size="20" lengthAdjust="spacing" textLength="49" x="695.67" y="1214.0283">EAST</text><text fill="#000000" font-family="sans-serif" font-size="20" lengthAdjust="spacing" textLength="52" x="695.67" y="1237.583">WEST</text></g><!--class TransactionType--><g id="elem_TransactionType"><rect codeLine="97" fill="#F1F1F1" height="112.2188" id="TransactionType" rx="2.5" ry="2.5" style="stroke:#181818;stroke-width:0.5;" width="165" x="769.17" y="344.7083"/><text fill="#000000" font-family="sans-serif" font-size="20" lengthAdjust="spacing" textLength="159" x="772.17" y="369.0442">TransactionType</text><line style="stroke:#181818;stroke-width:0.5;" x1="770.17" x2="933.17" y1="378.263" y2="378.263"/><text fill="#000000" font-family="sans-serif" font-size="20" lengthAdjust="spacing" textLength="52" x="775.17" y="401.5989">RENT</text><text fill="#000000" font-family="sans-serif" font-size="20" lengthAdjust="spacing" textLength="47" x="775.17" y="425.1536">SALE</text><text fill="#000000" font-family="sans-serif" font-size="20" lengthAdjust="spacing" textLength="38" x="775.17" y="448.7083">BUY</text></g><!--class Request--><g id="elem_Request"><rect codeLine="104" fill="#F1F1F1" height="41.5547" id="Request" rx="2.5" ry="2.5" style="stroke:#181818;stroke-width:0.5;" width="83" x="596.17" y="380.0383"/><text fill="#000000" font-family="sans-serif" font-size="20" lengthAdjust="spacing" textLength="77" x="599.17" y="404.3742">Request</text><line style="stroke:#181818;stroke-width:0.5;" x1="597.17" x2="678.17" y1="413.593" y2="413.593"/></g><!--class Agency--><g id="elem_Agency"><rect fill="#F1F1F1" height="41.5547" id="Agency" rx="2.5" ry="2.5" style="stroke:#181818;stroke-width:0.5;" width="75" x="1527.17" y="44.4883"/><text fill="#000000" font-family="sans-serif" font-size="20" lengthAdjust="spacing" textLength="69" x="1530.17" y="68.8242">Agency</text><line style="stroke:#181818;stroke-width:0.5;" x1="1528.17" x2="1601.17" y1="78.043" y2="78.043"/></g><!--reverse link Employee to Agent--><g id="link_Employee_Agent"><path d="M442.67,107.1983 C442.67,135.5183 442.67,171.9783 442.67,194.2383 " fill="none" id="Employee-backto-Agent" style="stroke:#181818;stroke-width:1.0;"/><polygon fill="none" points="435.67,107.2383,442.67,87.2383,449.67,107.2383,435.67,107.2383" style="stroke:#181818;stroke-width:1.0;"/></g><!--reverse link Residency to Apartment--><g id="link_Residency_Apartment"><path d="M689.7,867.1883 C659.32,900.3683 625.42,937.3783 605.09,959.5783 " fill="none" id="Residency-backto-Apartment" style="stroke:#181818;stroke-width:1.0;"/><polygon fill="none" points="684.14,862.8083,702.81,852.7883,694.46,872.2683,684.14,862.8083" style="stroke:#181818;stroke-width:1.0;"/></g><!--reverse link Residency to House--><g id="link_Residency_House"><path d="M754.67,872.7883 C754.67,894.3483 754.67,917.0683 754.67,935.9883 " fill="none" id="Residency-backto-House" style="stroke:#181818;stroke-width:1.0;"/><polygon fill="none" points="747.67,872.7883,754.67,852.7883,761.67,872.7883,747.67,872.7883" style="stroke:#181818;stroke-width:1.0;"/></g><!--reverse link Property to Residency--><g id="link_Property_Residency"><path d="M630.3,669.1083 C653.03,691.9783 677.94,717.0383 699.46,738.6883 " fill="none" id="Property-backto-Residency" style="stroke:#181818;stroke-width:1.0;"/><polygon fill="none" points="625.88,674.5683,616.74,655.4483,635.81,664.7083,625.88,674.5683" style="stroke:#181818;stroke-width:1.0;"/></g><!--reverse link Property to Land--><g id="link_Property_Land"><path d="M524.18,673.2383 C506.27,709.6583 486.09,750.6883 474.43,774.3983 " fill="none" id="Property-backto-Land" style="stroke:#181818;stroke-width:1.0;"/><polygon fill="none" points="518.31,670.3083,533.42,655.4483,530.87,676.4883,518.31,670.3083" style="stroke:#181818;stroke-width:1.0;"/></g><!--link PublishedProperty to TypeOfProperty--><g id="link_PublishedProperty_TypeOfProperty"><path codeLine="107" d="M1188.42,259.9283 C1196.24,268.8983 1203.16,278.9283 1207.67,289.7083 C1214.75,306.6383 1216.66,326.3483 1216.28,344.3883 " fill="none" id="PublishedProperty-TypeOfProperty" style="stroke:#181818;stroke-width:1.0;"/><polygon fill="#000000" points="1224.1761,310.083,1224.1082,294.8662,1215.1769,297.8123,1224.1761,310.083" style="stroke:#000000;stroke-width:1.0;"/><text fill="#000000" font-family="sans-serif" font-size="20" lengthAdjust="spacing" textLength="50" x="1234.67" y="310.0442">has a</text><text fill="#000000" font-family="sans-serif" font-size="20" lengthAdjust="spacing" textLength="13" x="1182.0645" y="287.1864">1</text><text fill="#000000" font-family="sans-serif" font-size="20" lengthAdjust="spacing" textLength="13" x="1203.4153" y="332.4791">1</text></g><!--link Agency to Agent--><g id="link_Agency_Agent"><path codeLine="108" d="M1526.7,71.2783 C1352.71,94.2383 633.4,189.1983 474.03,210.2283 " fill="none" id="Agency-Agent" style="stroke:#181818;stroke-width:1.0;"/><polygon fill="#000000" points="1169.7388,129.8625,1184.7018,132.6305,1183.4711,123.3068,1169.7388,129.8625" style="stroke:#000000;stroke-width:1.0;"/><text fill="#000000" font-family="sans-serif" font-size="20" lengthAdjust="spacing" textLength="33" x="1190.67" y="136.3742">has</text><text fill="#000000" font-family="sans-serif" font-size="20" lengthAdjust="spacing" textLength="13" x="1506.0567" y="66.7187">1</text><text fill="#000000" font-family="sans-serif" font-size="20" lengthAdjust="spacing" textLength="10" x="481.5293" y="203.1879">*</text></g><!--link Agent to Owner--><g id="link_Agent_Owner"><path codeLine="109" d="M442.67,236.3483 C442.67,271.5483 442.67,344.2083 442.67,379.5783 " fill="none" id="Agent-Owner" style="stroke:#181818;stroke-width:1.0;"/><polygon fill="#000000" points="450.67,310.4856,455.3723,296.0135,445.9677,296.0135,450.67,310.4856" style="stroke:#000000;stroke-width:1.0;"/><text fill="#000000" font-family="sans-serif" font-size="20" lengthAdjust="spacing" textLength="122" x="463.67" y="310.0442">contacted by</text><text fill="#000000" font-family="sans-serif" font-size="20" lengthAdjust="spacing" textLength="13" x="428.0856" y="263.667">1</text><text fill="#000000" font-family="sans-serif" font-size="20" lengthAdjust="spacing" textLength="13" x="428.0856" y="368.0021">1</text></g><!--link Agent to Property--><g id="link_Agent_Property"><path codeLine="110" d="M411.37,221.1183 C323.29,235.1983 76.91,279.8383 33.67,344.7083 C6,386.1983 6,415.4283 33.67,456.9183 C80.54,527.2283 318.26,567.6083 457.9,585.6183 " fill="none" id="Agent-Property" style="stroke:#181818;stroke-width:1.0;"/><polygon fill="#000000" points="42.683,409.0312,45.5149,394.0802,36.186,395.271,42.683,409.0312" style="stroke:#000000;stroke-width:1.0;"/><text fill="#000000" font-family="sans-serif" font-size="20" lengthAdjust="spacing" textLength="93" x="54.67" y="408.6542">publishes</text><text fill="#000000" font-family="sans-serif" font-size="20" lengthAdjust="spacing" textLength="10" x="393.8831" y="216.324">*</text><text fill="#000000" font-family="sans-serif" font-size="20" lengthAdjust="spacing" textLength="10" x="440.3224" y="580.2926">*</text></g><!--link Agent to Property--><g id="link_Agent_Property"><path codeLine="111" d="M411.43,222.9083 C358.79,235.7883 253.84,269.9583 209.67,344.7083 C184.3,387.6483 181.69,415.6383 209.67,456.9183 C264.78,538.2683 375.52,572.3883 457.95,586.6983 " fill="none" id="Agent-Property-1" style="stroke:#181818;stroke-width:1.0;"/><polygon fill="#000000" points="218.6847,409.031,221.5134,394.0793,212.1848,395.2722,218.6847,409.031" style="stroke:#000000;stroke-width:1.0;"/><text fill="#000000" font-family="sans-serif" font-size="20" lengthAdjust="spacing" textLength="160" x="230.67" y="408.6542">sets commission</text><text fill="#000000" font-family="sans-serif" font-size="20" lengthAdjust="spacing" textLength="13" x="390.6461" y="246.2269">1</text><text fill="#000000" font-family="sans-serif" font-size="20" lengthAdjust="spacing" textLength="10" x="440.0393" y="606.0671">*</text></g><!--link Owner to Property--><g id="link_Owner_Property"><path codeLine="112" d="M454.85,421.9683 C471.75,449.9283 502.96,501.5483 527.12,541.5183 " fill="none" id="Owner-Property" style="stroke:#181818;stroke-width:1.0;"/><polygon fill="#000000" points="521.8087,506.5419,518.3459,491.7242,510.2976,496.5895,521.8087,506.5419" style="stroke:#000000;stroke-width:1.0;"/><text fill="#000000" font-family="sans-serif" font-size="20" lengthAdjust="spacing" textLength="49" x="530.67" y="507.2542">owns</text><text fill="#000000" font-family="sans-serif" font-size="20" lengthAdjust="spacing" textLength="13" x="443.1635" y="448.9193">1</text><text fill="#000000" font-family="sans-serif" font-size="20" lengthAdjust="spacing" textLength="10" x="512.4217" y="529.5994">*</text></g><!--link Owner to Request--><g id="link_Owner_Request"><path codeLine="113" d="M477.08,400.8183 C510.21,400.8183 560.37,400.8183 595.8,400.8183 " fill="none" id="Owner-Request" style="stroke:#181818;stroke-width:1.0;"/><polygon fill="#000000" points="509.92,385.5956,495.4479,380.8933,495.4479,390.2979,509.92,385.5956" style="stroke:#000000;stroke-width:1.0;"/><text fill="#000000" font-family="sans-serif" font-size="20" lengthAdjust="spacing" textLength="63" x="514.92" y="393.1542">makes</text><text fill="#000000" font-family="sans-serif" font-size="20" lengthAdjust="spacing" textLength="13" x="484.6228" y="395.0855">1</text><text fill="#000000" font-family="sans-serif" font-size="20" lengthAdjust="spacing" textLength="10" x="578.0372" y="395.2959">*</text></g><!--link Request to Agent--><g id="link_Request_Agent"><path codeLine="114" d="M633.97,379.5683 C628.63,355.4883 616.65,315.3383 592.67,289.7083 C560.1,254.8783 507.45,234.5283 473.97,224.4383 " fill="none" id="Request-Agent" style="stroke:#181818;stroke-width:1.0;"/><polygon fill="#000000" points="610.9264,296.9169,618.0434,310.3669,624.5899,303.6149,610.9264,296.9169" style="stroke:#000000;stroke-width:1.0;"/><text fill="#000000" font-family="sans-serif" font-size="20" lengthAdjust="spacing" textLength="87" x="629.67" y="310.0442">is sent to</text><text fill="#000000" font-family="sans-serif" font-size="20" lengthAdjust="spacing" textLength="10" x="621.8494" y="367.9897">*</text><text fill="#000000" font-family="sans-serif" font-size="20" lengthAdjust="spacing" textLength="13" x="481.7663" y="248.0725">1</text></g><!--link Request to Property--><g id="link_Request_Property"><path codeLine="115" d="M629.72,421.9683 C618.69,449.9283 598.33,501.5483 582.56,541.5183 " fill="none" id="Request-Property" style="stroke:#181818;stroke-width:1.0;"/><polygon fill="#000000" points="608.7343,507.1375,618.4192,495.4006,609.6708,491.9495,608.7343,507.1375" style="stroke:#000000;stroke-width:1.0;"/><text fill="#000000" font-family="sans-serif" font-size="20" lengthAdjust="spacing" textLength="33" x="624.67" y="507.2542">has</text><text fill="#000000" font-family="sans-serif" font-size="20" lengthAdjust="spacing" textLength="13" x="613.3784" y="448.9193">1</text><text fill="#000000" font-family="sans-serif" font-size="20" lengthAdjust="spacing" textLength="13" x="571.4357" y="529.5994">1</text></g><!--link Request to TransactionType--><g id="link_Request_TransactionType"><path codeLine="116" d="M679.44,400.8183 C704.86,400.8183 738.23,400.8183 768.82,400.8183 " fill="none" id="Request-TransactionType" style="stroke:#181818;stroke-width:1.0;"/><polygon fill="#000000" points="712.67,385.5956,698.1979,380.8933,698.1979,390.2979,712.67,385.5956" style="stroke:#000000;stroke-width:1.0;"/><text fill="#000000" font-family="sans-serif" font-size="20" lengthAdjust="spacing" textLength="33" x="717.67" y="393.1542">has</text><text fill="#000000" font-family="sans-serif" font-size="20" lengthAdjust="spacing" textLength="13" x="687.133" y="395.366">1</text><text fill="#000000" font-family="sans-serif" font-size="20" lengthAdjust="spacing" textLength="13" x="748.1415" y="396.1898">1</text></g><!--link Address to State--><g id="link_Address_State"><path codeLine="117" d="M1537.99,642.8483 C1557.96,683.8783 1586.9,743.3483 1601.87,774.1183 " fill="none" id="Address-State" style="stroke:#181818;stroke-width:1.0;"/><polygon fill="#000000" points="1574.1694,689.7222,1576.2738,704.7928,1584.7302,700.6777,1574.1694,689.7222" style="stroke:#000000;stroke-width:1.0;"/><text fill="#000000" font-family="sans-serif" font-size="20" lengthAdjust="spacing" textLength="64" x="1590.67" y="704.4742">part of</text><text fill="#000000" font-family="sans-serif" font-size="20" lengthAdjust="spacing" textLength="13" x="1526.9814" y="669.7892">1</text><text fill="#000000" font-family="sans-serif" font-size="20" lengthAdjust="spacing" textLength="13" x="1584.6931" y="762.162">1</text></g><!--link City to District--><g id="link_City_District"><path codeLine="118" d="M1725.93,236.3483 C1722.86,271.5483 1716.52,344.2083 1713.43,379.5783 " fill="none" id="City-District" style="stroke:#181818;stroke-width:1.0;"/><polygon fill="#000000" points="1727.9745,310.4553,1733.9172,296.4468,1724.5482,295.6292,1727.9745,310.4553" style="stroke:#000000;stroke-width:1.0;"/><text fill="#000000" font-family="sans-serif" font-size="20" lengthAdjust="spacing" textLength="64" x="1741.67" y="310.0442">part of</text><text fill="#000000" font-family="sans-serif" font-size="20" lengthAdjust="spacing" textLength="10" x="1714.2871" y="263.667">*</text><text fill="#000000" font-family="sans-serif" font-size="20" lengthAdjust="spacing" textLength="13" x="1699.2746" y="368.0021">1</text></g><!--link Street to City--><g id="link_Street_City"><path codeLine="119" d="M1727.67,86.2383 C1727.67,114.5083 1727.67,165.8883 1727.67,194.2383 " fill="none" id="Street-City" style="stroke:#181818;stroke-width:1.0;"/><polygon fill="#000000" points="1735.67,136.8156,1740.3723,122.3435,1730.9677,122.3435,1735.67,136.8156" style="stroke:#000000;stroke-width:1.0;"/><text fill="#000000" font-family="sans-serif" font-size="20" lengthAdjust="spacing" textLength="64" x="1748.67" y="136.3742">part of</text><text fill="#000000" font-family="sans-serif" font-size="20" lengthAdjust="spacing" textLength="10" x="1716.4513" y="113.557">*</text><text fill="#000000" font-family="sans-serif" font-size="20" lengthAdjust="spacing" textLength="13" x="1713.0044" y="182.282">1</text></g><!--link District to State--><g id="link_District_State"><path codeLine="120" d="M1711.23,421.8983 C1709.57,471.9683 1701.62,605.7183 1663.67,709.1383 C1654.9,733.0383 1639.06,757.5583 1627.15,774.0983 " fill="none" id="District-State" style="stroke:#181818;stroke-width:1.0;"/><polygon fill="#000000" points="1706.8124,606.087,1714.7466,593.1023,1705.5991,590.9185,1706.8124,606.087" style="stroke:#000000;stroke-width:1.0;"/><text fill="#000000" font-family="sans-serif" font-size="20" lengthAdjust="spacing" textLength="64" x="1721.67" y="605.8642">part of</text><text fill="#000000" font-family="sans-serif" font-size="20" lengthAdjust="spacing" textLength="10" x="1699.972" y="448.8331">*</text><text fill="#000000" font-family="sans-serif" font-size="20" lengthAdjust="spacing" textLength="13" x="1616.4511" y="762.1368">1</text></g><!--link Client to Address--><g id="link_Client_Address"><path codeLine="121" d="M1502.74,421.6983 C1496.92,443.7483 1489.48,480.3683 1493.67,511.9183 C1495.48,525.5783 1498.86,540.1483 1502.49,553.3083 " fill="none" id="Client-Address" style="stroke:#181818;stroke-width:1.0;"/><polygon fill="#000000" points="1501.6548,507.6956,1506.3846,493.2324,1496.98,493.2146,1501.6548,507.6956" style="stroke:#000000;stroke-width:1.0;"/><text fill="#000000" font-family="sans-serif" font-size="20" lengthAdjust="spacing" textLength="62" x="1514.67" y="507.2542">has an</text><text fill="#000000" font-family="sans-serif" font-size="20" lengthAdjust="spacing" textLength="13" x="1486.7102" y="448.9951">1</text><text fill="#000000" font-family="sans-serif" font-size="20" lengthAdjust="spacing" textLength="10" x="1489.6729" y="541.4273">*</text></g><!--link Property to Photos--><g id="link_Property_Photos"><path codeLine="122" d="M560.67,654.4483 C560.67,694.5783 560.67,746.4983 560.67,774.3983 " fill="none" id="Property-Photos" style="stroke:#181818;stroke-width:1.0;"/><polygon fill="#000000" points="568.67,704.9156,573.3723,690.4435,563.9677,690.4435,568.67,704.9156" style="stroke:#000000;stroke-width:1.0;"/><text fill="#000000" font-family="sans-serif" font-size="20" lengthAdjust="spacing" textLength="33" x="581.67" y="704.4742">has</text><text fill="#000000" font-family="sans-serif" font-size="20" lengthAdjust="spacing" textLength="13" x="546.9184" y="681.6696">1</text><text fill="#000000" font-family="sans-serif" font-size="20" lengthAdjust="spacing" textLength="35" x="520.9669" y="762.1127">1..*</text></g><!--link PublishedProperty to Commission--><g id="link_PublishedProperty_Commission"><path codeLine="123" d="M1044.3,241.9683 C1021.62,252.8983 999.97,268.2583 986.67,289.7083 C973.83,310.3883 982.47,335.2783 995.57,356.1583 " fill="none" id="PublishedProperty-Commission" style="stroke:#181818;stroke-width:1.0;"/><polygon fill="#000000" points="997.81,295.1276,987.8048,306.5927,996.4546,310.284,997.81,295.1276" style="stroke:#000000;stroke-width:1.0;"/><text fill="#000000" font-family="sans-serif" font-size="20" lengthAdjust="spacing" textLength="83" x="1007.67" y="310.0442">is set for</text><text fill="#000000" font-family="sans-serif" font-size="20" lengthAdjust="spacing" textLength="13" x="1023.5807" y="264.3623">1</text><text fill="#000000" font-family="sans-serif" font-size="20" lengthAdjust="spacing" textLength="13" x="976.1662" y="344.2876">1</text></g><!--link PublishedProperty to Commission--><g id="link_PublishedProperty_Commission"><path codeLine="127" d="M1120.12,260.0783 C1113.6,277.5383 1105.22,297.5283 1095.67,314.7083 C1087.81,328.8483 1077.91,343.3183 1068.3,356.2283 " fill="none" id="PublishedProperty-Commission-1" style="stroke:#181818;stroke-width:1.0;"/><polygon fill="#000000" points="1110.8745,309.528,1121.88,299.0192,1113.6012,294.5573,1110.8745,309.528" style="stroke:#000000;stroke-width:1.0;"/><text fill="#000000" font-family="sans-serif" font-size="20" lengthAdjust="spacing" textLength="50" x="1127.67" y="310.0442">has a</text><text fill="#000000" font-family="sans-serif" font-size="20" lengthAdjust="spacing" textLength="13" x="1104.2914" y="287.0044">1</text><text fill="#000000" font-family="sans-serif" font-size="20" lengthAdjust="spacing" textLength="13" x="1059.5785" y="344.3679">1</text></g><!--link Residency to Equipment--><g id="link_Residency_Equipment"><path codeLine="124" d="M815.22,851.7883 C849.48,883.2083 891.1,921.3883 919.91,947.8083 " fill="none" id="Residency-Equipment" style="stroke:#181818;stroke-width:1.0;"/><polygon fill="#000000" points="885.5657,899.5431,878.0787,886.2955,871.7218,893.2263,885.5657,899.5431" style="stroke:#000000;stroke-width:1.0;"/><text fill="#000000" font-family="sans-serif" font-size="20" lengthAdjust="spacing" textLength="33" x="892.67" y="901.6942">has</text><text fill="#000000" font-family="sans-serif" font-size="20" lengthAdjust="spacing" textLength="13" x="808.1317" y="878.5965">1</text><text fill="#000000" font-family="sans-serif" font-size="20" lengthAdjust="spacing" textLength="10" x="902.5793" y="936.0119">*</text></g><!--link PublishedProperty to Property--><g id="link_PublishedProperty_Property"><path codeLine="125" d="M1225.08,240.8883 C1250.66,251.9383 1276.25,267.6283 1293.67,289.7083 C1319.74,322.7483 1307.91,453.0083 1304.67,456.9183 C1224.39,553.7383 848.36,584.0983 663.62,593.2583 " fill="none" id="PublishedProperty-Property" style="stroke:#181818;stroke-width:1.0;"/><polygon fill="#000000" points="1324.4461,396.843,1309.6884,400.5532,1314.6877,408.519,1324.4461,396.843" style="stroke:#000000;stroke-width:1.0;"/><text fill="#000000" font-family="sans-serif" font-size="20" lengthAdjust="spacing" textLength="64" x="1330.67" y="408.6542">part of</text><text fill="#000000" font-family="sans-serif" font-size="20" lengthAdjust="spacing" textLength="13" x="1232.8025" y="238.3634">1</text><text fill="#000000" font-family="sans-serif" font-size="20" lengthAdjust="spacing" textLength="13" x="671.3157" y="588.4698">1</text></g><!--link Property to Address--><g id="link_Property_Address"><path codeLine="126" d="M663.43,598.0283 C859.83,598.0283 1283.62,598.0283 1448.8,598.0283 " fill="none" id="Property-Address" style="stroke:#181818;stroke-width:1.0;"/><polygon fill="#000000" points="1030.17,582.8056,1015.6979,578.1033,1015.6979,587.5079,1030.17,582.8056" style="stroke:#000000;stroke-width:1.0;"/><text fill="#000000" font-family="sans-serif" font-size="20" lengthAdjust="spacing" textLength="62" x="1035.17" y="590.3642">has an</text><text fill="#000000" font-family="sans-serif" font-size="20" lengthAdjust="spacing" textLength="13" x="671.1123" y="618.1924">1</text><text fill="#000000" font-family="sans-serif" font-size="20" lengthAdjust="spacing" textLength="13" x="1428.1306" y="593.2067">1</text></g><!--link House to SunExposure--><g id="link_House_SunExposure"><path codeLine="128" d="M754.67,1025.5083 C754.67,1050.3483 754.67,1081.9583 754.67,1109.8583 " fill="none" id="House-SunExposure" style="stroke:#181818;stroke-width:1.0;"/><polygon fill="#000000" points="762.67,1075.8056,767.3723,1061.3335,757.9677,1061.3335,762.67,1075.8056" style="stroke:#000000;stroke-width:1.0;"/><text fill="#000000" font-family="sans-serif" font-size="20" lengthAdjust="spacing" textLength="131" x="775.67" y="1075.3642">has a value of</text><text fill="#000000" font-family="sans-serif" font-size="20" lengthAdjust="spacing" textLength="13" x="740.7966" y="1052.4492">1</text><text fill="#000000" font-family="sans-serif" font-size="20" lengthAdjust="spacing" textLength="13" x="740.9997" y="1098.0185">1</text></g><!--link PublishedProperty to TransactionType--><g id="link_PublishedProperty_TransactionType"><path codeLine="129" d="M1044.55,224.9283 C961.31,234.9083 846.48,254.7083 818.67,289.7083 C806.26,305.3283 808.57,325.5483 816.01,344.3883 " fill="none" id="PublishedProperty-TransactionType" style="stroke:#181818;stroke-width:1.0;"/><polygon fill="#000000" points="819.5801,306.1916,834.5841,303.6548,830.2275,295.3201,819.5801,306.1916" style="stroke:#000000;stroke-width:1.0;"/><text fill="#000000" font-family="sans-serif" font-size="20" lengthAdjust="spacing" textLength="131" x="839.67" y="310.0442">has a value of</text><text fill="#000000" font-family="sans-serif" font-size="20" lengthAdjust="spacing" textLength="13" x="1023.5487" y="221.1264">1</text><text fill="#000000" font-family="sans-serif" font-size="20" lengthAdjust="spacing" textLength="13" x="797.8718" y="332.4791">1</text></g><!--link Agency to Address--><g id="link_Agency_Address"><path codeLine="130" d="M1570.42,86.5383 C1587.65,150.9183 1634.5,355.6983 1581.67,511.9183 C1576.67,526.7183 1567.95,540.9683 1558.49,553.4383 " fill="none" id="Agency-Address" style="stroke:#181818;stroke-width:1.0;"/><polygon fill="#000000" points="1612.4657,310.483,1617.5361,296.1357,1608.1346,295.8955,1612.4657,310.483" style="stroke:#000000;stroke-width:1.0;"/><text fill="#000000" font-family="sans-serif" font-size="20" lengthAdjust="spacing" textLength="62" x="1625.67" y="310.0442">has an</text><text fill="#000000" font-family="sans-serif" font-size="20" lengthAdjust="spacing" textLength="13" x="1557.2466" y="113.517">1</text><text fill="#000000" font-family="sans-serif" font-size="20" lengthAdjust="spacing" textLength="13" x="1550.6776" y="541.5764">1</text></g><!--SRC=[ZLJ1Rjim3BthAuHU1WneqUvO30NI94K7f4aGfnXwb6qc5c9BdaIlJOlz-sWfjkGaA9g3Oz6FvECZARkJgXP6LANETf3p73QYAV51AqpaE_0Vryns45vffRF2w0eucWQYBxN8Tc8B2UvBu0Oo56fRnW1RY5o_IhNb6r7Q-4jM2cj7Y4Qc3SAlJ2kN-9fz2vXIAi1z3LmRB3GhP0uyaoQZ5Ewz0ZBdbZ6KI0GckX9IyIUTGycOIy37fGI57-nVPrYyAZ3HULhLfTu3HARHbbmul26e_0ZGGPP6rs1m_y4u_OG1uLvoQKc231v8h3450UFCjP4PXFZBGgEsFCwOvmQizT5ohSsygTA3yxkinrHH02Te0EAInh8bqXydH88IneW41Gug97snYgjSWIL5LHO7UjIDXNE8bbOgBBGHt46gGgGIHLh2J6ymXEYT-Z13vPIhSx6vXzneNTcXKM1nQbqAGmEoJMZsW5eVL6tIKje2yc66kZDFI8AXvNuVQQYhIbehjJguWSceEXfkT_mhoYPgmPg6afWC4esMezNwQJfVkzFZuZcPkhVPQ3u9dZEXyZDQX77yqyYwSYFREaDtd8lAvUyQsgZfMwrjOwYjyyLg_SYInJCzfwDapNvFwH786g6io91gQtb_i5LBCXdDfkp- -IKAkg9iOFtSdAZ9Bsuk-EMb-nkMVyiBORdWTwnTd2mWlr_uLV80_ndZE6uN-IsdvKSYIFTGkWyuSlT1GgAkTKVHZb0Mq5BChg64zOaYNW6iNvKT8XpWeCKjhyJEfJiOF2rF_r2Sj9IHgA2EOJxIJPpAgt2AE6fGBvU_56B1t1wJOEtwShtXFrcx-p6dRlaZq1tpDqOCSsunfFVpeFFfxfY_JWSTzYmFGz2AVJenLrUjvExMwuhxTBx2CXxKHRxHXgeDrqd4e5-PByMEXgaNSOZplJqjwskCULW7Vt_6xGjRsw7SnUAr_Npbpit8mFre-SxMmFu3]--></g></svg>