<?xml version="1.0" encoding="UTF-8" standalone="no"?><svg xmlns="http://www.w3.org/2000/svg" xmlns:xlink="http://www.w3.org/1999/xlink" contentStyleType="text/css" height="1253px" preserveAspectRatio="none" style="width:1820px;height:1253px;background:#FFFFFF;" version="1.1" viewBox="0 0 1820 1253" width="1820px" zoomAndPan="magnify"><defs/><g><text fill="#000000" font-family="sans-serif" font-size="14" font-weight="bold" lengthAdjust="spacing" textLength="105" x="850.805" y="23.5352">Domain Model</text><!--class Client--><g id="elem_Client"><rect codeLine="11" fill="#F1F1F1" height="41.5547" id="Client" rx="2.5" ry="2.5" style="stroke:#181818;stroke-width:0.5;" width="62" x="1477.61" y="380.4883"/><text fill="#000000" font-family="sans-serif" font-size="20" lengthAdjust="spacing" textLength="56" x="1480.61" y="404.8242">Client</text><line style="stroke:#181818;stroke-width:0.5;" x1="1478.61" x2="1538.61" y1="414.043" y2="414.043"/></g><!--class Owner--><g id="elem_Owner"><rect codeLine="14" fill="#F1F1F1" height="41.5547" id="Owner" rx="2.5" ry="2.5" style="stroke:#181818;stroke-width:0.5;" width="68" x="408.61" y="380.4883"/><text fill="#000000" font-family="sans-serif" font-size="20" lengthAdjust="spacing" textLength="62" x="411.61" y="404.8242">Owner</text><line style="stroke:#181818;stroke-width:0.5;" x1="409.61" x2="475.61" y1="414.043" y2="414.043"/></g><!--class Employee--><g id="elem_Employee"><rect codeLine="17" fill="#F1F1F1" height="41.5547" id="Employee" rx="2.5" ry="2.5" style="stroke:#181818;stroke-width:0.5;" width="99" x="393.11" y="44.4883"/><text fill="#000000" font-family="sans-serif" font-size="20" lengthAdjust="spacing" textLength="93" x="396.11" y="68.8242">Employee</text><line style="stroke:#181818;stroke-width:0.5;" x1="394.11" x2="491.11" y1="78.043" y2="78.043"/></g><!--class Agent--><g id="elem_Agent"><rect codeLine="20" fill="#F1F1F1" height="41.5547" id="Agent" rx="2.5" ry="2.5" style="stroke:#181818;stroke-width:0.5;" width="62" x="411.61" y="194.9883"/><text fill="#000000" font-family="sans-serif" font-size="20" lengthAdjust="spacing" textLength="56" x="414.61" y="219.3242">Agent</text><line style="stroke:#181818;stroke-width:0.5;" x1="412.61" x2="472.61" y1="228.543" y2="228.543"/></g><!--class Property--><g id="elem_Property"><rect codeLine="25" fill="#F1F1F1" height="112.2188" id="Property" rx="2.5" ry="2.5" style="stroke:#181818;stroke-width:0.5;" width="205" x="458.11" y="542.4883"/><text fill="#000000" font-family="sans-serif" font-size="20" lengthAdjust="spacing" textLength="80" x="520.61" y="566.8242">Property</text><line style="stroke:#181818;stroke-width:0.5;" x1="459.11" x2="662.11" y1="576.043" y2="576.043"/><text fill="#000000" font-family="sans-serif" font-size="20" lengthAdjust="spacing" textLength="41" x="464.11" y="599.3789">area</text><text fill="#000000" font-family="sans-serif" font-size="20" lengthAdjust="spacing" textLength="193" x="464.11" y="622.9336">distanceFromCenter</text><text fill="#000000" font-family="sans-serif" font-size="20" lengthAdjust="spacing" textLength="48" x="464.11" y="646.4883">price</text></g><!--class Photos--><g id="elem_Photos"><rect codeLine="31" fill="#F1F1F1" height="41.5547" id="Photos" rx="2.5" ry="2.5" style="stroke:#181818;stroke-width:0.5;" width="70" x="525.61" y="774.4883"/><text fill="#000000" font-family="sans-serif" font-size="20" lengthAdjust="spacing" textLength="64" x="528.61" y="798.8242">Photos</text><line style="stroke:#181818;stroke-width:0.5;" x1="526.61" x2="594.61" y1="808.043" y2="808.043"/></g><!--class Address--><g id="elem_Address"><rect codeLine="34" fill="#F1F1F1" height="88.6641" id="Address" rx="2.5" ry="2.5" style="stroke:#181818;stroke-width:0.5;" width="135" x="1449.11" y="553.9883"/><text fill="#000000" font-family="sans-serif" font-size="20" lengthAdjust="spacing" textLength="79" x="1477.11" y="578.3242">Address</text><line style="stroke:#181818;stroke-width:0.5;" x1="1450.11" x2="1583.11" y1="587.543" y2="587.543"/><text fill="#000000" font-family="sans-serif" font-size="20" lengthAdjust="spacing" textLength="123" x="1455.11" y="610.8789">doorNumber</text><text fill="#000000" font-family="sans-serif" font-size="20" lengthAdjust="spacing" textLength="80" x="1455.11" y="634.4336">zipCode</text></g><!--class Street--><g id="elem_Street"><rect codeLine="39" fill="#F1F1F1" height="41.5547" id="Street" rx="2.5" ry="2.5" style="stroke:#181818;stroke-width:0.5;" width="61" x="1697.11" y="44.4883"/><text fill="#000000" font-family="sans-serif" font-size="20" lengthAdjust="spacing" textLength="55" x="1700.11" y="68.8242">Street</text><line style="stroke:#181818;stroke-width:0.5;" x1="1698.11" x2="1757.11" y1="78.043" y2="78.043"/></g><!--class City--><g id="elem_City"><rect codeLine="42" fill="#F1F1F1" height="41.5547" id="City" rx="2.5" ry="2.5" style="stroke:#181818;stroke-width:0.5;" width="43" x="1706.11" y="194.9883"/><text fill="#000000" font-family="sans-serif" font-size="20" lengthAdjust="spacing" textLength="37" x="1709.11" y="219.3242">City</text><line style="stroke:#181818;stroke-width:0.5;" x1="1707.11" x2="1748.11" y1="228.543" y2="228.543"/></g><!--class District--><g id="elem_District"><rect codeLine="45" fill="#F1F1F1" height="41.5547" id="District" rx="2.5" ry="2.5" style="stroke:#181818;stroke-width:0.5;" width="75" x="1674.11" y="380.4883"/><text fill="#000000" font-family="sans-serif" font-size="20" lengthAdjust="spacing" textLength="69" x="1677.11" y="404.8242">District</text><line style="stroke:#181818;stroke-width:0.5;" x1="1675.11" x2="1748.11" y1="414.043" y2="414.043"/></g><!--class State--><g id="elem_State"><rect codeLine="48" fill="#F1F1F1" height="41.5547" id="State" rx="2.5" ry="2.5" style="stroke:#181818;stroke-width:0.5;" width="53" x="1585.11" y="774.4883"/><text fill="#000000" font-family="sans-serif" font-size="20" lengthAdjust="spacing" textLength="47" x="1588.11" y="798.8242">State</text><line style="stroke:#181818;stroke-width:0.5;" x1="1586.11" x2="1637.11" y1="808.043" y2="808.043"/></g><!--class Apartment--><g id="elem_Apartment"><rect codeLine="51" fill="#F1F1F1" height="41.5547" id="Apartment" rx="2.5" ry="2.5" style="stroke:#181818;stroke-width:0.5;" width="108" x="532.61" y="959.9883"/><text fill="#000000" font-family="sans-serif" font-size="20" lengthAdjust="spacing" textLength="102" x="535.61" y="984.3242">Apartment</text><line style="stroke:#181818;stroke-width:0.5;" x1="533.61" x2="639.61" y1="993.543" y2="993.543"/></g><!--class Residency--><g id="elem_Residency"><rect codeLine="59" fill="#F1F1F1" height="112.2188" id="Residency" rx="2.5" ry="2.5" style="stroke:#181818;stroke-width:0.5;" width="248" x="630.61" y="739.4883"/><text fill="#000000" font-family="sans-serif" font-size="20" lengthAdjust="spacing" textLength="96" x="706.61" y="763.8242">Residency</text><line style="stroke:#181818;stroke-width:0.5;" x1="631.61" x2="877.61" y1="773.043" y2="773.043"/><text fill="#000000" font-family="sans-serif" font-size="20" lengthAdjust="spacing" textLength="195" x="636.61" y="796.3789">numberOfBedrooms</text><text fill="#000000" font-family="sans-serif" font-size="20" lengthAdjust="spacing" textLength="201" x="636.61" y="819.9336">numberOfBathrooms</text><text fill="#000000" font-family="sans-serif" font-size="20" lengthAdjust="spacing" textLength="236" x="636.61" y="843.4883">numberOfParkingSpaces</text></g><!--class House--><g id="elem_House"><rect codeLine="54" fill="#F1F1F1" height="88.6641" id="House" rx="2.5" ry="2.5" style="stroke:#181818;stroke-width:0.5;" width="157" x="676.11" y="936.4883"/><text fill="#000000" font-family="sans-serif" font-size="20" lengthAdjust="spacing" textLength="60" x="724.61" y="960.8242">House</text><line style="stroke:#181818;stroke-width:0.5;" x1="677.11" x2="832.11" y1="970.043" y2="970.043"/><text fill="#000000" font-family="sans-serif" font-size="20" lengthAdjust="spacing" textLength="94" x="682.11" y="993.3789">basement</text><text fill="#000000" font-family="sans-serif" font-size="20" lengthAdjust="spacing" textLength="145" x="682.11" y="1016.9336">inhabitableLoft</text></g><!--class PublishedProperty--><g id="elem_PublishedProperty"><rect codeLine="66" fill="#F1F1F1" height="88.6641" id="PublishedProperty" rx="2.5" ry="2.5" style="stroke:#181818;stroke-width:0.5;" width="180" x="1044.61" y="171.4883"/><text fill="#000000" font-family="sans-serif" font-size="20" lengthAdjust="spacing" textLength="174" x="1047.61" y="195.8242">PublishedProperty</text><line style="stroke:#181818;stroke-width:0.5;" x1="1045.61" x2="1223.61" y1="205.043" y2="205.043"/><text fill="#000000" font-family="sans-serif" font-size="20" lengthAdjust="spacing" textLength="140" x="1050.61" y="228.3789">publishedDate</text><text fill="#000000" font-family="sans-serif" font-size="20" lengthAdjust="spacing" textLength="118" x="1050.61" y="251.9336">publishedBy</text></g><!--class Commission--><g id="elem_Commission"><rect codeLine="71" fill="#F1F1F1" height="88.6641" id="Commission" rx="2.5" ry="2.5" style="stroke:#181818;stroke-width:0.5;" width="126" x="969.61" y="356.9883"/><text fill="#000000" font-family="sans-serif" font-size="20" lengthAdjust="spacing" textLength="120" x="972.61" y="381.3242">Commission</text><line style="stroke:#181818;stroke-width:0.5;" x1="970.61" x2="1094.61" y1="390.543" y2="390.543"/><text fill="#000000" font-family="sans-serif" font-size="20" lengthAdjust="spacing" textLength="106" x="975.61" y="413.8789">percentage</text><text fill="#000000" font-family="sans-serif" font-size="20" lengthAdjust="spacing" textLength="50" x="975.61" y="437.4336">value</text></g><!--class TypeOfProperty--><g id="elem_TypeOfProperty"><rect codeLine="76" fill="#F1F1F1" height="112.2188" id="TypeOfProperty" rx="2.5" ry="2.5" style="stroke:#181818;stroke-width:0.5;" width="156" x="1130.61" y="345.4883"/><text fill="#000000" font-family="sans-serif" font-size="20" lengthAdjust="spacing" textLength="150" x="1133.61" y="369.8242">TypeOfProperty</text><line style="stroke:#181818;stroke-width:0.5;" x1="1131.61" x2="1285.61" y1="379.043" y2="379.043"/><text fill="#000000" font-family="sans-serif" font-size="20" lengthAdjust="spacing" textLength="121" x="1136.61" y="402.3789">APARTMENT</text><text fill="#000000" font-family="sans-serif" font-size="20" lengthAdjust="spacing" textLength="67" x="1136.61" y="425.9336">HOUSE</text><text fill="#000000" font-family="sans-serif" font-size="20" lengthAdjust="spacing" textLength="55" x="1136.61" y="449.4883">LAND</text></g><!--class Land--><g id="elem_Land"><rect codeLine="82" fill="#F1F1F1" height="41.5547" id="Land" rx="2.5" ry="2.5" style="stroke:#181818;stroke-width:0.5;" width="53" x="437.11" y="774.4883"/><text fill="#000000" font-family="sans-serif" font-size="20" lengthAdjust="spacing" textLength="47" x="440.11" y="798.8242">Land</text><line style="stroke:#181818;stroke-width:0.5;" x1="438.11" x2="489.11" y1="808.043" y2="808.043"/></g><!--class Equipment--><g id="elem_Equipment"><rect codeLine="85" fill="#F1F1F1" height="65.1094" id="Equipment" rx="2.5" ry="2.5" style="stroke:#181818;stroke-width:0.5;" width="172" x="868.61" y="948.4883"/><text fill="#000000" font-family="sans-serif" font-size="20" lengthAdjust="spacing" textLength="104" x="902.61" y="972.8242">Equipment</text><line style="stroke:#181818;stroke-width:0.5;" x1="869.61" x2="1039.61" y1="982.043" y2="982.043"/><text fill="#000000" font-family="sans-serif" font-size="20" lengthAdjust="spacing" textLength="160" x="874.61" y="1005.3789">equipmentName</text></g><!--class SunExposure--><g id="elem_SunExposure"><rect codeLine="90" fill="#F1F1F1" height="135.7734" id="SunExposure" rx="2.5" ry="2.5" style="stroke:#181818;stroke-width:0.5;" width="130" x="689.61" y="1110.4883"/><text fill="#000000" font-family="sans-serif" font-size="20" lengthAdjust="spacing" textLength="124" x="692.61" y="1134.8242">SunExposure</text><line style="stroke:#181818;stroke-width:0.5;" x1="690.61" x2="818.61" y1="1144.043" y2="1144.043"/><text fill="#000000" font-family="sans-serif" font-size="20" lengthAdjust="spacing" textLength="72" x="695.61" y="1167.3789">NORTH</text><text fill="#000000" font-family="sans-serif" font-size="20" lengthAdjust="spacing" textLength="69" x="695.61" y="1190.9336">SOUTH</text><text fill="#000000" font-family="sans-serif" font-size="20" lengthAdjust="spacing" textLength="49" x="695.61" y="1214.4883">EAST</text><text fill="#000000" font-family="sans-serif" font-size="20" lengthAdjust="spacing" textLength="52" x="695.61" y="1238.043">WEST</text></g><!--class TransactionType--><g id="elem_TransactionType"><rect codeLine="97" fill="#F1F1F1" height="112.2188" id="TransactionType" rx="2.5" ry="2.5" style="stroke:#181818;stroke-width:0.5;" width="165" x="769.11" y="345.4883"/><text fill="#000000" font-family="sans-serif" font-size="20" lengthAdjust="spacing" textLength="159" x="772.11" y="369.8242">TransactionType</text><line style="stroke:#181818;stroke-width:0.5;" x1="770.11" x2="933.11" y1="379.043" y2="379.043"/><text fill="#000000" font-family="sans-serif" font-size="20" lengthAdjust="spacing" textLength="52" x="775.11" y="402.3789">RENT</text><text fill="#000000" font-family="sans-serif" font-size="20" lengthAdjust="spacing" textLength="47" x="775.11" y="425.9336">SALE</text><text fill="#000000" font-family="sans-serif" font-size="20" lengthAdjust="spacing" textLength="38" x="775.11" y="449.4883">BUY</text></g><!--class Request--><g id="elem_Request"><rect codeLine="104" fill="#F1F1F1" height="41.5547" id="Request" rx="2.5" ry="2.5" style="stroke:#181818;stroke-width:0.5;" width="83" x="596.11" y="380.4883"/><text fill="#000000" font-family="sans-serif" font-size="20" lengthAdjust="spacing" textLength="77" x="599.11" y="404.8242">Request</text><line style="stroke:#181818;stroke-width:0.5;" x1="597.11" x2="678.11" y1="414.043" y2="414.043"/></g><!--class Agency--><g id="elem_Agency"><rect fill="#F1F1F1" height="41.5547" id="Agency" rx="2.5" ry="2.5" style="stroke:#181818;stroke-width:0.5;" width="75" x="1527.11" y="44.4883"/><text fill="#000000" font-family="sans-serif" font-size="20" lengthAdjust="spacing" textLength="69" x="1530.11" y="68.8242">Agency</text><line style="stroke:#181818;stroke-width:0.5;" x1="1528.11" x2="1601.11" y1="78.043" y2="78.043"/></g><!--reverse link Employee to Agent--><g id="link_Employee_Agent"><path d="M442.61,107.4483 C442.61,135.8883 442.61,172.5583 442.61,194.8983 " fill="none" id="Employee-backto-Agent" style="stroke:#181818;stroke-width:1.0;"/><polygon fill="none" points="435.61,107.8283,442.61,87.8283,449.61,107.8283,435.61,107.8283" style="stroke:#181818;stroke-width:1.0;"/></g><!--reverse link Residency to Apartment--><g id="link_Residency_Apartment"><path d="M690.08,866.9683 C659.63,900.2283 625.58,937.4283 605.13,959.7583 " fill="none" id="Residency-backto-Apartment" style="stroke:#181818;stroke-width:1.0;"/><polygon fill="none" points="684.53,862.5683,703.2,852.5483,694.86,872.0183,684.53,862.5683" style="stroke:#181818;stroke-width:1.0;"/></g><!--reverse link Residency to House--><g id="link_Residency_House"><path d="M754.61,872.2483 C754.61,893.9683 754.61,916.9183 754.61,936.0383 " fill="none" id="Residency-backto-House" style="stroke:#181818;stroke-width:1.0;"/><polygon fill="none" points="747.61,872.5483,754.61,852.5483,761.61,872.5483,747.61,872.5483" style="stroke:#181818;stroke-width:1.0;"/></g><!--reverse link Property to Residency--><g id="link_Property_Residency"><path d="M630.24,669.4783 C652.97,692.3283 677.88,717.3683 699.4,738.9883 " fill="none" id="Property-backto-Residency" style="stroke:#181818;stroke-width:1.0;"/><polygon fill="none" points="625.83,674.9583,616.68,655.8483,635.75,665.0883,625.83,674.9583" style="stroke:#181818;stroke-width:1.0;"/></g><!--reverse link Property to Land--><g id="link_Property_Land"><path d="M523.92,673.2483 C505.9,709.4783 485.56,750.3583 473.71,774.1883 " fill="none" id="Property-backto-Land" style="stroke:#181818;stroke-width:1.0;"/><polygon fill="none" points="517.9,670.6383,533.07,655.8483,530.43,676.8683,517.9,670.6383" style="stroke:#181818;stroke-width:1.0;"/></g><!--link PublishedProperty to TypeOfProperty--><g id="link_PublishedProperty_TypeOfProperty"><path codeLine="107" d="M1188.36,260.6683 C1196.18,269.6483 1203.1,279.6983 1207.61,290.4883 C1214.67,307.4083 1216.58,327.1083 1216.2,345.1183 " fill="none" id="PublishedProperty-TypeOfProperty" style="stroke:#181818;stroke-width:1.0;"/><polygon fill="#000000" points="1224.1147,310.8634,1224.0495,295.6467,1215.1178,298.5911,1224.1147,310.8634" style="stroke:#000000;stroke-width:1.0;"/><text fill="#000000" font-family="sans-serif" font-size="20" lengthAdjust="spacing" textLength="50" x="1234.61" y="310.8242">has a</text><text fill="#000000" font-family="sans-serif" font-size="20" lengthAdjust="spacing" textLength="13" x="1181.7092" y="287.6132">1</text><text fill="#000000" font-family="sans-serif" font-size="20" lengthAdjust="spacing" textLength="13" x="1203.3328" y="333.203">1</text></g><!--link Agency to Agent--><g id="link_Agency_Agent"><path codeLine="108" d="M1526.63,71.5183 C1352.65,94.5383 633.34,189.7483 473.97,210.8383 " fill="none" id="Agency-Agent" style="stroke:#181818;stroke-width:1.0;"/><polygon fill="#000000" points="1169.6792,130.3153,1184.6432,133.0781,1183.4092,123.7548,1169.6792,130.3153" style="stroke:#000000;stroke-width:1.0;"/><text fill="#000000" font-family="sans-serif" font-size="20" lengthAdjust="spacing" textLength="33" x="1190.61" y="136.8242">has</text><text fill="#000000" font-family="sans-serif" font-size="20" lengthAdjust="spacing" textLength="13" x="1505.985" y="67">1</text><text fill="#000000" font-family="sans-serif" font-size="20" lengthAdjust="spacing" textLength="10" x="481.4693" y="203.8433">*</text></g><!--link Agent to Owner--><g id="link_Agent_Owner"><path codeLine="109" d="M442.61,237.3283 C442.61,272.5983 442.61,344.7183 442.61,380.0583 " fill="none" id="Agent-Owner" style="stroke:#181818;stroke-width:1.0;"/><polygon fill="#000000" points="450.61,311.2656,455.3123,296.7935,445.9077,296.7935,450.61,311.2656" style="stroke:#000000;stroke-width:1.0;"/><text fill="#000000" font-family="sans-serif" font-size="20" lengthAdjust="spacing" textLength="122" x="463.61" y="310.8242">contacted by</text><text fill="#000000" font-family="sans-serif" font-size="20" lengthAdjust="spacing" textLength="13" x="428.1881" y="263.9573">1</text><text fill="#000000" font-family="sans-serif" font-size="20" lengthAdjust="spacing" textLength="13" x="427.9444" y="368.084">1</text></g><!--link Agent to Property--><g id="link_Agent_Property"><path codeLine="110" d="M411.31,221.7483 C323.23,235.8683 76.86,280.6183 33.61,345.4883 C6,386.9083 6,416.0683 33.61,457.4883 C80.48,527.7883 318.2,568.1183 457.84,586.0883 " fill="none" id="Agent-Property" style="stroke:#181818;stroke-width:1.0;"/><polygon fill="#000000" points="42.6235,409.7012,45.4545,394.7499,36.1257,395.9413,42.6235,409.7012" style="stroke:#000000;stroke-width:1.0;"/><text fill="#000000" font-family="sans-serif" font-size="20" lengthAdjust="spacing" textLength="93" x="54.61" y="409.3242">publishes</text><text fill="#000000" font-family="sans-serif" font-size="20" lengthAdjust="spacing" textLength="10" x="393.8231" y="217.0035">*</text><text fill="#000000" font-family="sans-serif" font-size="20" lengthAdjust="spacing" textLength="10" x="440.2624" y="580.7556">*</text></g><!--link Agent to Property--><g id="link_Agent_Property"><path codeLine="111" d="M411.24,223.4983 C358.38,236.3483 252.98,270.4983 208.61,345.4883 C183.26,388.3283 180.66,416.2983 208.61,457.4883 C263.9,538.9883 374.95,573.0483 457.61,587.2783 " fill="none" id="Agent-Property-1" style="stroke:#181818;stroke-width:1.0;"/><polygon fill="#000000" points="217.6216,409.7014,220.4562,394.7509,211.1271,395.94,217.6216,409.7014" style="stroke:#000000;stroke-width:1.0;"/><text fill="#000000" font-family="sans-serif" font-size="20" lengthAdjust="spacing" textLength="160" x="229.61" y="409.3242">sets commission</text><text fill="#000000" font-family="sans-serif" font-size="20" lengthAdjust="spacing" textLength="13" x="390.4293" y="246.8582">1</text><text fill="#000000" font-family="sans-serif" font-size="20" lengthAdjust="spacing" textLength="10" x="440.0162" y="606.6464">*</text></g><!--link Owner to Property--><g id="link_Owner_Property"><path codeLine="112" d="M455.01,422.9883 C472,451.0483 503.12,502.4883 527.19,542.2683 " fill="none" id="Owner-Property" style="stroke:#181818;stroke-width:1.0;"/><polygon fill="#000000" points="521.7518,507.11,518.2823,492.2939,510.2362,497.1629,521.7518,507.11" style="stroke:#000000;stroke-width:1.0;"/><text fill="#000000" font-family="sans-serif" font-size="20" lengthAdjust="spacing" textLength="49" x="530.61" y="507.8242">owns</text><text fill="#000000" font-family="sans-serif" font-size="20" lengthAdjust="spacing" textLength="13" x="443.2269" y="449.2336">1</text><text fill="#000000" font-family="sans-serif" font-size="20" lengthAdjust="spacing" textLength="10" x="512.5076" y="530.3713">*</text></g><!--link Owner to Request--><g id="link_Owner_Request"><path codeLine="113" d="M477.02,401.4883 C510.15,401.4883 560.31,401.4883 595.74,401.4883 " fill="none" id="Owner-Request" style="stroke:#181818;stroke-width:1.0;"/><polygon fill="#000000" points="509.86,386.2656,495.3879,381.5633,495.3879,390.9679,509.86,386.2656" style="stroke:#000000;stroke-width:1.0;"/><text fill="#000000" font-family="sans-serif" font-size="20" lengthAdjust="spacing" textLength="63" x="514.86" y="393.8242">makes</text><text fill="#000000" font-family="sans-serif" font-size="20" lengthAdjust="spacing" textLength="13" x="484.5628" y="395.7961">1</text><text fill="#000000" font-family="sans-serif" font-size="20" lengthAdjust="spacing" textLength="10" x="577.9772" y="396.0023">*</text></g><!--link Request to Agent--><g id="link_Request_Agent"><path codeLine="114" d="M633.9,380.2583 C628.55,356.2083 616.56,316.1083 592.61,290.4883 C560.03,255.6383 507.38,235.2283 473.91,225.0883 " fill="none" id="Request-Agent" style="stroke:#181818;stroke-width:1.0;"/><polygon fill="#000000" points="610.8673,297.6959,617.9822,311.1471,624.5297,304.3961,610.8673,297.6959" style="stroke:#000000;stroke-width:1.0;"/><text fill="#000000" font-family="sans-serif" font-size="20" lengthAdjust="spacing" textLength="87" x="629.61" y="310.8242">is sent to</text><text fill="#000000" font-family="sans-serif" font-size="20" lengthAdjust="spacing" textLength="10" x="621.6681" y="368.3353">*</text><text fill="#000000" font-family="sans-serif" font-size="20" lengthAdjust="spacing" textLength="13" x="481.7062" y="248.7761">1</text></g><!--link Request to Property--><g id="link_Request_Property"><path codeLine="115" d="M629.51,422.9883 C618.43,451.0483 598.12,502.4883 582.41,542.2683 " fill="none" id="Request-Property" style="stroke:#181818;stroke-width:1.0;"/><polygon fill="#000000" points="608.6718,507.7065,618.3607,495.9728,609.6134,492.5188,608.6718,507.7065" style="stroke:#000000;stroke-width:1.0;"/><text fill="#000000" font-family="sans-serif" font-size="20" lengthAdjust="spacing" textLength="33" x="624.61" y="507.8242">has</text><text fill="#000000" font-family="sans-serif" font-size="20" lengthAdjust="spacing" textLength="13" x="613.4988" y="449.2336">1</text><text fill="#000000" font-family="sans-serif" font-size="20" lengthAdjust="spacing" textLength="13" x="571.2747" y="530.3713">1</text></g><!--link Request to TransactionType--><g id="link_Request_TransactionType"><path codeLine="116" d="M679.38,401.4883 C704.8,401.4883 738.17,401.4883 768.75,401.4883 " fill="none" id="Request-TransactionType" style="stroke:#181818;stroke-width:1.0;"/><polygon fill="#000000" points="712.61,386.2656,698.1379,381.5633,698.1379,390.9679,712.61,386.2656" style="stroke:#000000;stroke-width:1.0;"/><text fill="#000000" font-family="sans-serif" font-size="20" lengthAdjust="spacing" textLength="33" x="717.61" y="393.8242">has</text><text fill="#000000" font-family="sans-serif" font-size="20" lengthAdjust="spacing" textLength="13" x="687.073" y="396.0711">1</text><text fill="#000000" font-family="sans-serif" font-size="20" lengthAdjust="spacing" textLength="13" x="748.0706" y="396.8504">1</text></g><!--link Address to State--><g id="link_Address_State"><path codeLine="117" d="M1537.93,643.2483 C1557.84,684.1283 1586.68,743.3183 1601.69,774.1283 " fill="none" id="Address-State" style="stroke:#181818;stroke-width:1.0;"/><polygon fill="#000000" points="1574.1063,690.0737,1576.2172,705.1434,1584.6719,701.0246,1574.1063,690.0737" style="stroke:#000000;stroke-width:1.0;"/><text fill="#000000" font-family="sans-serif" font-size="20" lengthAdjust="spacing" textLength="64" x="1590.61" y="704.8242">part of</text><text fill="#000000" font-family="sans-serif" font-size="20" lengthAdjust="spacing" textLength="13" x="1526.8288" y="669.8496">1</text><text fill="#000000" font-family="sans-serif" font-size="20" lengthAdjust="spacing" textLength="13" x="1584.4824" y="762.172">1</text></g><!--link City to District--><g id="link_City_District"><path codeLine="118" d="M1725.84,237.3283 C1722.76,272.5983 1716.47,344.7183 1713.39,380.0583 " fill="none" id="City-District" style="stroke:#181818;stroke-width:1.0;"/><polygon fill="#000000" points="1727.9148,311.2354,1733.8569,297.2266,1724.4879,296.4094,1727.9148,311.2354" style="stroke:#000000;stroke-width:1.0;"/><text fill="#000000" font-family="sans-serif" font-size="20" lengthAdjust="spacing" textLength="64" x="1741.61" y="310.8242">part of</text><text fill="#000000" font-family="sans-serif" font-size="20" lengthAdjust="spacing" textLength="10" x="1714.3591" y="263.9573">*</text><text fill="#000000" font-family="sans-serif" font-size="20" lengthAdjust="spacing" textLength="13" x="1699.1805" y="368.084">1</text></g><!--link Street to City--><g id="link_Street_City"><path codeLine="119" d="M1727.61,86.8283 C1727.61,115.2583 1727.61,166.5883 1727.61,194.8983 " fill="none" id="Street-City" style="stroke:#181818;stroke-width:1.0;"/><polygon fill="#000000" points="1735.61,137.2656,1740.3123,122.7935,1730.9077,122.7935,1735.61,137.2656" style="stroke:#000000;stroke-width:1.0;"/><text fill="#000000" font-family="sans-serif" font-size="20" lengthAdjust="spacing" textLength="64" x="1748.61" y="136.8242">part of</text><text fill="#000000" font-family="sans-serif" font-size="20" lengthAdjust="spacing" textLength="10" x="1716.5163" y="113.4573">*</text><text fill="#000000" font-family="sans-serif" font-size="20" lengthAdjust="spacing" textLength="13" x="1712.8631" y="182.61">1</text></g><!--link District to State--><g id="link_District_State"><path codeLine="120" d="M1711.16,422.9283 C1709.47,473.2283 1701.46,606.4383 1663.61,709.4883 C1654.9,733.1983 1639.21,757.5083 1627.34,774.0283 " fill="none" id="District-State" style="stroke:#181818;stroke-width:1.0;"/><polygon fill="#000000" points="1706.7523,606.547,1714.6866,593.5623,1705.5391,591.3785,1706.7523,606.547" style="stroke:#000000;stroke-width:1.0;"/><text fill="#000000" font-family="sans-serif" font-size="20" lengthAdjust="spacing" textLength="64" x="1721.61" y="606.3242">part of</text><text fill="#000000" font-family="sans-serif" font-size="20" lengthAdjust="spacing" textLength="10" x="1699.9678" y="449.5792">*</text><text fill="#000000" font-family="sans-serif" font-size="20" lengthAdjust="spacing" textLength="13" x="1616.5898" y="762.4521">1</text></g><!--link Client to Address--><g id="link_Client_Address"><path codeLine="121" d="M1502.58,422.7583 C1496.77,444.8183 1489.44,481.1583 1493.61,512.4883 C1495.42,526.1283 1498.8,540.6783 1502.42,553.8183 " fill="none" id="Client-Address" style="stroke:#181818;stroke-width:1.0;"/><polygon fill="#000000" points="1501.6002,508.2656,1506.3202,493.7992,1496.9156,493.7878,1501.6002,508.2656" style="stroke:#000000;stroke-width:1.0;"/><text fill="#000000" font-family="sans-serif" font-size="20" lengthAdjust="spacing" textLength="62" x="1514.61" y="507.8242">has an</text><text fill="#000000" font-family="sans-serif" font-size="20" lengthAdjust="spacing" textLength="13" x="1486.8391" y="449.372">1</text><text fill="#000000" font-family="sans-serif" font-size="20" lengthAdjust="spacing" textLength="10" x="1489.4815" y="541.6214">*</text></g><!--link Property to Photos--><g id="link_Property_Photos"><path codeLine="122" d="M560.61,654.8483 C560.61,694.7083 560.61,746.1983 560.61,774.1883 " fill="none" id="Property-Photos" style="stroke:#181818;stroke-width:1.0;"/><polygon fill="#000000" points="568.61,705.2656,573.3123,690.7935,563.9077,690.7935,568.61,705.2656" style="stroke:#000000;stroke-width:1.0;"/><text fill="#000000" font-family="sans-serif" font-size="20" lengthAdjust="spacing" textLength="33" x="581.61" y="704.8242">has</text><text fill="#000000" font-family="sans-serif" font-size="20" lengthAdjust="spacing" textLength="13" x="546.8584" y="682.05">1</text><text fill="#000000" font-family="sans-serif" font-size="20" lengthAdjust="spacing" textLength="35" x="521.1256" y="762.2473">1..*</text></g><!--link PublishedProperty to Commission--><g id="link_PublishedProperty_Commission"><path codeLine="123" d="M1044.24,242.6783 C1021.56,253.6383 999.91,269.0283 986.61,290.4883 C973.85,311.0683 982.36,335.8183 995.37,356.6183 " fill="none" id="PublishedProperty-Commission" style="stroke:#181818;stroke-width:1.0;"/><polygon fill="#000000" points="997.7635,295.9134,987.7373,307.3602,996.3803,311.0673,997.7635,295.9134" style="stroke:#000000;stroke-width:1.0;"/><text fill="#000000" font-family="sans-serif" font-size="20" lengthAdjust="spacing" textLength="83" x="1007.61" y="310.8242">is set for</text><text fill="#000000" font-family="sans-serif" font-size="20" lengthAdjust="spacing" textLength="13" x="1023.5207" y="265.093">1</text><text fill="#000000" font-family="sans-serif" font-size="20" lengthAdjust="spacing" textLength="13" x="975.9457" y="344.7403">1</text></g><!--link PublishedProperty to Commission--><g id="link_PublishedProperty_Commission"><path codeLine="127" d="M1120.07,260.7683 C1113.55,278.2583 1105.17,298.2883 1095.61,315.4883 C1087.84,329.4583 1078.08,343.7483 1068.57,356.5283 " fill="none" id="PublishedProperty-Commission-1" style="stroke:#181818;stroke-width:1.0;"/><polygon fill="#000000" points="1110.8208,310.3113,1121.8169,299.7928,1113.5342,295.3383,1110.8208,310.3113" style="stroke:#000000;stroke-width:1.0;"/><text fill="#000000" font-family="sans-serif" font-size="20" lengthAdjust="spacing" textLength="50" x="1127.61" y="310.8242">has a</text><text fill="#000000" font-family="sans-serif" font-size="20" lengthAdjust="spacing" textLength="13" x="1104.3743" y="287.3721">1</text><text fill="#000000" font-family="sans-serif" font-size="20" lengthAdjust="spacing" textLength="13" x="1059.8969" y="344.6371">1</text></g><!--link Residency to Equipment--><g id="link_Residency_Equipment"><path codeLine="124" d="M814.89,851.7883 C849.16,883.2383 890.87,921.5083 919.75,948.0083 " fill="none" id="Residency-Equipment" style="stroke:#181818;stroke-width:1.0;"/><polygon fill="#000000" points="885.5045,899.6744,878.0205,886.4251,871.6621,893.3545,885.5045,899.6744" style="stroke:#000000;stroke-width:1.0;"/><text fill="#000000" font-family="sans-serif" font-size="20" lengthAdjust="spacing" textLength="33" x="892.61" y="901.8242">has</text><text fill="#000000" font-family="sans-serif" font-size="20" lengthAdjust="spacing" textLength="13" x="808.1083" y="878.983">1</text><text fill="#000000" font-family="sans-serif" font-size="20" lengthAdjust="spacing" textLength="10" x="902.4008" y="936.1843">*</text></g><!--link PublishedProperty to Property--><g id="link_PublishedProperty_Property"><path codeLine="125" d="M1225.02,241.5983 C1250.6,252.6783 1276.19,268.3983 1293.61,290.4883 C1319.61,323.4683 1307.75,453.7083 1304.61,457.4883 C1224.32,554.2883 848.29,584.5983 663.56,593.7383 " fill="none" id="PublishedProperty-Property" style="stroke:#181818;stroke-width:1.0;"/><polygon fill="#000000" points="1324.3873,397.515,1309.6286,401.2209,1314.6255,409.1881,1324.3873,397.515" style="stroke:#000000;stroke-width:1.0;"/><text fill="#000000" font-family="sans-serif" font-size="20" lengthAdjust="spacing" textLength="64" x="1330.61" y="409.3242">part of</text><text fill="#000000" font-family="sans-serif" font-size="20" lengthAdjust="spacing" textLength="13" x="1232.7425" y="239.0941">1</text><text fill="#000000" font-family="sans-serif" font-size="20" lengthAdjust="spacing" textLength="13" x="671.2557" y="588.9435">1</text></g><!--link Property to Address--><g id="link_Property_Address"><path codeLine="126" d="M663.37,598.4883 C859.77,598.4883 1283.56,598.4883 1448.74,598.4883 " fill="none" id="Property-Address" style="stroke:#181818;stroke-width:1.0;"/><polygon fill="#000000" points="1030.11,583.2656,1015.6379,578.5633,1015.6379,587.9679,1030.11,583.2656" style="stroke:#000000;stroke-width:1.0;"/><text fill="#000000" font-family="sans-serif" font-size="20" lengthAdjust="spacing" textLength="62" x="1035.11" y="590.8242">has an</text><text fill="#000000" font-family="sans-serif" font-size="20" lengthAdjust="spacing" textLength="13" x="671.0523" y="618.6446">1</text><text fill="#000000" font-family="sans-serif" font-size="20" lengthAdjust="spacing" textLength="13" x="1428.0706" y="593.6842">1</text></g><!--link House to SunExposure--><g id="link_House_SunExposure"><path codeLine="128" d="M754.61,1025.8583 C754.61,1050.7383 754.61,1082.3983 754.61,1110.3383 " fill="none" id="House-SunExposure" style="stroke:#181818;stroke-width:1.0;"/><polygon fill="#000000" points="762.61,1076.2656,767.3123,1061.7935,757.9077,1061.7935,762.61,1076.2656" style="stroke:#000000;stroke-width:1.0;"/><text fill="#000000" font-family="sans-serif" font-size="20" lengthAdjust="spacing" textLength="131" x="775.61" y="1075.8242">has a value of</text><text fill="#000000" font-family="sans-serif" font-size="20" lengthAdjust="spacing" textLength="13" x="740.7772" y="1052.4737">1</text><text fill="#000000" font-family="sans-serif" font-size="20" lengthAdjust="spacing" textLength="13" x="740.9397" y="1098.5006">1</text></g><!--link PublishedProperty to TransactionType--><g id="link_PublishedProperty_TransactionType"><path codeLine="129" d="M1044.49,225.5883 C961.25,235.6283 846.41,255.4783 818.61,290.4883 C806.21,306.0983 808.53,326.2983 815.97,345.1283 " fill="none" id="PublishedProperty-TransactionType" style="stroke:#181818;stroke-width:1.0;"/><polygon fill="#000000" points="819.5213,306.9738,834.5245,304.4323,830.1653,296.099,819.5213,306.9738" style="stroke:#000000;stroke-width:1.0;"/><text fill="#000000" font-family="sans-serif" font-size="20" lengthAdjust="spacing" textLength="131" x="839.61" y="310.8242">has a value of</text><text fill="#000000" font-family="sans-serif" font-size="20" lengthAdjust="spacing" textLength="13" x="1023.4887" y="221.8038">1</text><text fill="#000000" font-family="sans-serif" font-size="20" lengthAdjust="spacing" textLength="13" x="797.8342" y="333.2143">1</text></g><!--link Agency to Address--><g id="link_Agency_Address"><path codeLine="130" d="M1570.37,86.7783 C1587.62,151.2183 1634.53,356.1583 1581.61,512.4883 C1576.66,527.0883 1568.09,541.1583 1558.77,553.5083 " fill="none" id="Agency-Address" style="stroke:#181818;stroke-width:1.0;"/><polygon fill="#000000" points="1612.4112,311.2632,1617.4716,296.9123,1608.07,296.6787,1612.4112,311.2632" style="stroke:#000000;stroke-width:1.0;"/><text fill="#000000" font-family="sans-serif" font-size="20" lengthAdjust="spacing" textLength="62" x="1625.61" y="310.8242">has an</text><text fill="#000000" font-family="sans-serif" font-size="20" lengthAdjust="spacing" textLength="13" x="1557.2081" y="113.3964">1</text><text fill="#000000" font-family="sans-serif" font-size="20" lengthAdjust="spacing" textLength="13" x="1551.0076" y="541.6141">1</text></g><!--SRC=[ZLJ1Rjim3BthAuHU1WneqUvO30NI94K7f4aGfnXwb6qc5c9BdaIlJOlz-sWfjkGaA9g3Oz6FvECZARkJgXP6LANETf3p73QYAV51AqpaE_0Vryns45vffRF2w0eucWQYBxN8Tc8B2UvBu0Oo56fRnW1RY5o_IhNb6r7Q-4jM2cj7Y4Qc3SAlJ2kN-9fz2vXIAi1z3LmRB3GhP0uyaoQZ5Ewz0ZBdbZ6KI0GckX9IyIUTGycOIy37fGI57-nVPrYyAZ3HULhLfTu3HARHbbmul26e_0ZGGPP6rs1m_y4u_OG1uLvoQKc231v8h3450UFCjP4PXFZBGgEsFCwOvmQizT5ohSsygTA3yxkinrHH02Te0EAInh8bqXydH88IneW41Gug97snYgjSWIL5LHO7UjIDXNE8bbOgBBGHt46gGgGIHLh2J6ymXEYT-Z13vPIhSx6vXzneNTcXKM1nQbqAGmEoJMZsW5eVL6tIKje2yc66kZDFI8AXvNuVQQYhIbehjJguWSceEXfkT_mhoYPgmPg6afWC4esMezNwQJfVkzFZuZcPkhVPQ3u9dZEXyZDQX77yqyYwSYFREaDtd8lAvUyQsgZfMwrjOwYjyyLg_SYInJCzfwDapNvFwH786g6io91gQtb_i5LBCXdDfkp- -IKAkg9iOFtSdAZ9Bsuk-EMb-nkMVyiBORdWTwnTd2mWlr_uLV80_ndZE6uN-IsdvKSYIFTGkWyuSlT1GgAkTKVHZb0Mq5BChg64zOaYNW6iNvKT8XpWeCKjhyJEfJiOF2rF_r2Sj9IHgA2EOJxIJPpAgt2AE6fGBvU_56B1t1wJOEtwShtXFrcx-p6dRlaZq1tpDqOCSsunfFVpeFFfxfY_JWSTzYmFGz2AVJenLrUjvExMwuhxTBx2CXxKHRxHXgeDrqd4e5-PByMEXgaNSOZplJqjwskCULW7Vt_6xGjRsw7SnUAr_Npbpit8mFre-SxMmFu3]--></g></svg>