<?xml version="1.0" encoding="UTF-8" standalone="no"?><svg xmlns="http://www.w3.org/2000/svg" xmlns:xlink="http://www.w3.org/1999/xlink" contentStyleType="text/css" height="1219px" preserveAspectRatio="none" style="width:1956px;height:1219px;background:#FFFFFF;" version="1.1" viewBox="0 0 1956 1219" width="1956px" zoomAndPan="magnify"><defs/><g><text fill="#000000" font-family="sans-serif" font-size="14" font-weight="bold" lengthAdjust="spacing" textLength="105" x="918.78" y="23.5352">Domain Model</text><!--class Client--><g id="elem_Client"><rect codeLine="11" fill="#F1F1F1" height="159.3281" id="Client" rx="2.5" ry="2.5" style="stroke:#181818;stroke-width:0.5;" width="220" x="415.06" y="44.4883"/><text fill="#000000" font-family="sans-serif" font-size="20" lengthAdjust="spacing" textLength="56" x="497.06" y="68.8242">Client</text><line style="stroke:#181818;stroke-width:0.5;" x1="416.06" x2="634.06" y1="78.043" y2="78.043"/><text fill="#000000" font-family="sans-serif" font-size="20" lengthAdjust="spacing" textLength="53" x="421.06" y="101.3789">name</text><text fill="#000000" font-family="sans-serif" font-size="20" lengthAdjust="spacing" textLength="208" x="421.06" y="124.9336">passportCardNumber</text><text fill="#000000" font-family="sans-serif" font-size="20" lengthAdjust="spacing" textLength="108" x="421.06" y="148.4883">taxNumber</text><text fill="#000000" font-family="sans-serif" font-size="20" lengthAdjust="spacing" textLength="53" x="421.06" y="172.043">email</text><text fill="#000000" font-family="sans-serif" font-size="20" lengthAdjust="spacing" textLength="173" x="421.06" y="195.5977">telephoneNumber</text></g><!--class Owner--><g id="elem_Owner"><rect codeLine="19" fill="#F1F1F1" height="41.5547" id="Owner" rx="2.5" ry="2.5" style="stroke:#181818;stroke-width:0.5;" width="68" x="13.06" y="555.9883"/><text fill="#000000" font-family="sans-serif" font-size="20" lengthAdjust="spacing" textLength="62" x="16.06" y="580.3242">Owner</text><line style="stroke:#181818;stroke-width:0.5;" x1="14.06" x2="80.06" y1="589.543" y2="589.543"/></g><!--class Employee--><g id="elem_Employee"><rect codeLine="22" fill="#F1F1F1" height="182.8828" id="Employee" rx="2.5" ry="2.5" style="stroke:#181818;stroke-width:0.5;" width="199" x="1077.56" y="485.4883"/><text fill="#000000" font-family="sans-serif" font-size="20" lengthAdjust="spacing" textLength="93" x="1130.56" y="509.8242">Employee</text><line style="stroke:#181818;stroke-width:0.5;" x1="1078.56" x2="1275.56" y1="519.043" y2="519.043"/><text fill="#000000" font-family="sans-serif" font-size="20" lengthAdjust="spacing" textLength="53" x="1083.56" y="542.3789">name</text><text fill="#000000" font-family="sans-serif" font-size="20" lengthAdjust="spacing" textLength="187" x="1083.56" y="565.9336">citizenCardNumber</text><text fill="#000000" font-family="sans-serif" font-size="20" lengthAdjust="spacing" textLength="108" x="1083.56" y="589.4883">taxNumber</text><text fill="#000000" font-family="sans-serif" font-size="20" lengthAdjust="spacing" textLength="76" x="1083.56" y="613.043">address</text><text fill="#000000" font-family="sans-serif" font-size="20" lengthAdjust="spacing" textLength="53" x="1083.56" y="636.5977">email</text><text fill="#000000" font-family="sans-serif" font-size="20" lengthAdjust="spacing" textLength="173" x="1083.56" y="660.1523">telephoneNumber</text></g><!--class Agent--><g id="elem_Agent"><rect codeLine="31" fill="#F1F1F1" height="65.1094" id="Agent" rx="2.5" ry="2.5" style="stroke:#181818;stroke-width:0.5;" width="78" x="255.06" y="311.9883"/><text fill="#000000" font-family="sans-serif" font-size="20" lengthAdjust="spacing" textLength="56" x="266.06" y="336.3242">Agent</text><line style="stroke:#181818;stroke-width:0.5;" x1="256.06" x2="332.06" y1="345.543" y2="345.543"/><text fill="#000000" font-family="sans-serif" font-size="20" lengthAdjust="spacing" textLength="66" x="261.06" y="368.8789">agency</text></g><!--class Property--><g id="elem_Property"><rect codeLine="51" fill="#F1F1F1" height="159.3281" id="Property" rx="2.5" ry="2.5" style="stroke:#181818;stroke-width:0.5;" width="205" x="221.56" y="497.4883"/><text fill="#000000" font-family="sans-serif" font-size="20" lengthAdjust="spacing" textLength="80" x="284.06" y="521.8242">Property</text><line style="stroke:#181818;stroke-width:0.5;" x1="222.56" x2="425.56" y1="531.043" y2="531.043"/><text fill="#000000" font-family="sans-serif" font-size="20" lengthAdjust="spacing" textLength="147" x="227.56" y="554.3789">typeOfBusiness</text><text fill="#000000" font-family="sans-serif" font-size="20" lengthAdjust="spacing" textLength="144" x="227.56" y="577.9336">typeOfProperty</text><text fill="#000000" font-family="sans-serif" font-size="20" lengthAdjust="spacing" textLength="41" x="227.56" y="601.4883">area</text><text fill="#000000" font-family="sans-serif" font-size="20" lengthAdjust="spacing" textLength="193" x="227.56" y="625.043">distanceFromCenter</text><text fill="#000000" font-family="sans-serif" font-size="20" lengthAdjust="spacing" textLength="48" x="227.56" y="648.5977">price</text></g><!--class Address--><g id="elem_Address"><rect codeLine="62" fill="#F1F1F1" height="112.2188" id="Address" rx="2.5" ry="2.5" style="stroke:#181818;stroke-width:0.5;" width="135" x="457.56" y="288.4883"/><text fill="#000000" font-family="sans-serif" font-size="20" lengthAdjust="spacing" textLength="79" x="485.56" y="312.8242">Address</text><line style="stroke:#181818;stroke-width:0.5;" x1="458.56" x2="591.56" y1="322.043" y2="322.043"/><text fill="#000000" font-family="sans-serif" font-size="20" lengthAdjust="spacing" textLength="54" x="463.56" y="345.3789">street</text><text fill="#000000" font-family="sans-serif" font-size="20" lengthAdjust="spacing" textLength="123" x="463.56" y="368.9336">doorNumber</text><text fill="#000000" font-family="sans-serif" font-size="20" lengthAdjust="spacing" textLength="80" x="463.56" y="392.4883">zipCode</text></g><!--class Photos--><g id="elem_Photos"><rect codeLine="59" fill="#F1F1F1" height="41.5547" id="Photos" rx="2.5" ry="2.5" style="stroke:#181818;stroke-width:0.5;" width="70" x="73.06" y="788.4883"/><text fill="#000000" font-family="sans-serif" font-size="20" lengthAdjust="spacing" textLength="64" x="76.06" y="812.8242">Photos</text><line style="stroke:#181818;stroke-width:0.5;" x1="74.06" x2="142.06" y1="822.043" y2="822.043"/></g><!--class City--><g id="elem_City"><rect codeLine="68" fill="#F1F1F1" height="41.5547" id="City" rx="2.5" ry="2.5" style="stroke:#181818;stroke-width:0.5;" width="43" x="536.56" y="555.9883"/><text fill="#000000" font-family="sans-serif" font-size="20" lengthAdjust="spacing" textLength="37" x="539.56" y="580.3242">City</text><line style="stroke:#181818;stroke-width:0.5;" x1="537.56" x2="578.56" y1="589.543" y2="589.543"/></g><!--class District--><g id="elem_District"><rect codeLine="71" fill="#F1F1F1" height="41.5547" id="District" rx="2.5" ry="2.5" style="stroke:#181818;stroke-width:0.5;" width="75" x="549.56" y="788.4883"/><text fill="#000000" font-family="sans-serif" font-size="20" lengthAdjust="spacing" textLength="69" x="552.56" y="812.8242">District</text><line style="stroke:#181818;stroke-width:0.5;" x1="550.56" x2="623.56" y1="822.043" y2="822.043"/></g><!--class State--><g id="elem_State"><rect codeLine="74" fill="#F1F1F1" height="41.5547" id="State" rx="2.5" ry="2.5" style="stroke:#181818;stroke-width:0.5;" width="53" x="560.56" y="985.4883"/><text fill="#000000" font-family="sans-serif" font-size="20" lengthAdjust="spacing" textLength="47" x="563.56" y="1009.8242">State</text><line style="stroke:#181818;stroke-width:0.5;" x1="561.56" x2="612.56" y1="1019.043" y2="1019.043"/></g><!--class Apartment--><g id="elem_Apartment"><rect codeLine="77" fill="#F1F1F1" height="41.5547" id="Apartment" rx="2.5" ry="2.5" style="stroke:#181818;stroke-width:0.5;" width="108" x="316.06" y="985.4883"/><text fill="#000000" font-family="sans-serif" font-size="20" lengthAdjust="spacing" textLength="102" x="319.06" y="1009.8242">Apartment</text><line style="stroke:#181818;stroke-width:0.5;" x1="317.06" x2="423.06" y1="1019.043" y2="1019.043"/></g><!--class Residency--><g id="elem_Residency"><rect codeLine="86" fill="#F1F1F1" height="112.2188" id="Residency" rx="2.5" ry="2.5" style="stroke:#181818;stroke-width:0.5;" width="248" x="178.06" y="753.4883"/><text fill="#000000" font-family="sans-serif" font-size="20" lengthAdjust="spacing" textLength="96" x="254.06" y="777.8242">Residency</text><line style="stroke:#181818;stroke-width:0.5;" x1="179.06" x2="425.06" y1="787.043" y2="787.043"/><text fill="#000000" font-family="sans-serif" font-size="20" lengthAdjust="spacing" textLength="195" x="184.06" y="810.3789">numberOfBedrooms</text><text fill="#000000" font-family="sans-serif" font-size="20" lengthAdjust="spacing" textLength="201" x="184.06" y="833.9336">numberOfBathrooms</text><text fill="#000000" font-family="sans-serif" font-size="20" lengthAdjust="spacing" textLength="236" x="184.06" y="857.4883">numberOfParkingSpaces</text></g><!--class House--><g id="elem_House"><rect codeLine="80" fill="#F1F1F1" height="112.2188" id="House" rx="2.5" ry="2.5" style="stroke:#181818;stroke-width:0.5;" width="157" x="123.56" y="950.4883"/><text fill="#000000" font-family="sans-serif" font-size="20" lengthAdjust="spacing" textLength="60" x="172.06" y="974.8242">House</text><line style="stroke:#181818;stroke-width:0.5;" x1="124.56" x2="279.56" y1="984.043" y2="984.043"/><text fill="#000000" font-family="sans-serif" font-size="20" lengthAdjust="spacing" textLength="94" x="129.56" y="1007.3789">basement</text><text fill="#000000" font-family="sans-serif" font-size="20" lengthAdjust="spacing" textLength="145" x="129.56" y="1030.9336">inhabitableLoft</text><text fill="#000000" font-family="sans-serif" font-size="20" lengthAdjust="spacing" textLength="123" x="129.56" y="1054.4883">sunExposure</text></g><!--class PublishedProperty--><g id="elem_PublishedProperty"><rect codeLine="93" fill="#F1F1F1" height="112.2188" id="PublishedProperty" rx="2.5" ry="2.5" style="stroke:#181818;stroke-width:0.5;" width="180" x="806.06" y="288.4883"/><text fill="#000000" font-family="sans-serif" font-size="20" lengthAdjust="spacing" textLength="174" x="809.06" y="312.8242">PublishedProperty</text><line style="stroke:#181818;stroke-width:0.5;" x1="807.06" x2="985.06" y1="322.043" y2="322.043"/><text fill="#000000" font-family="sans-serif" font-size="20" lengthAdjust="spacing" textLength="140" x="812.06" y="345.3789">publishedDate</text><text fill="#000000" font-family="sans-serif" font-size="20" lengthAdjust="spacing" textLength="118" x="812.06" y="368.9336">publishedBy</text><text fill="#000000" font-family="sans-serif" font-size="20" lengthAdjust="spacing" textLength="116" x="812.06" y="392.4883">comission</text></g><!--class Commission--><g id="elem_Commission"><rect codeLine="99" fill="#F1F1F1" height="88.6641" id="Commission" rx="2.5" ry="2.5" style="stroke:#181818;stroke-width:0.5;" width="126" x="916.06" y="532.4883"/><text fill="#000000" font-family="sans-serif" font-size="20" lengthAdjust="spacing" textLength="120" x="919.06" y="556.8242">Commission</text><line style="stroke:#181818;stroke-width:0.5;" x1="917.06" x2="1041.06" y1="566.043" y2="566.043"/><text fill="#000000" font-family="sans-serif" font-size="20" lengthAdjust="spacing" textLength="106" x="922.06" y="589.3789">percentage</text><text fill="#000000" font-family="sans-serif" font-size="20" lengthAdjust="spacing" textLength="50" x="922.06" y="612.9336">value</text></g><!--class Land--><g id="elem_Land"><rect codeLine="104" fill="#F1F1F1" height="41.5547" id="Land" rx="2.5" ry="2.5" style="stroke:#181818;stroke-width:0.5;" width="53" x="461.56" y="788.4883"/><text fill="#000000" font-family="sans-serif" font-size="20" lengthAdjust="spacing" textLength="47" x="464.56" y="812.8242">Land</text><line style="stroke:#181818;stroke-width:0.5;" x1="462.56" x2="513.56" y1="822.043" y2="822.043"/></g><!--class Equipment--><g id="elem_Equipment"><rect codeLine="107" fill="#F1F1F1" height="65.1094" id="Equipment" rx="2.5" ry="2.5" style="stroke:#181818;stroke-width:0.5;" width="172" x="199.06" y="1147.4883"/><text fill="#000000" font-family="sans-serif" font-size="20" lengthAdjust="spacing" textLength="104" x="233.06" y="1171.8242">Equipment</text><line style="stroke:#181818;stroke-width:0.5;" x1="200.06" x2="370.06" y1="1181.043" y2="1181.043"/><text fill="#000000" font-family="sans-serif" font-size="20" lengthAdjust="spacing" textLength="160" x="205.06" y="1204.3789">equipmentName</text></g><!--class Role--><g id="elem_Role"><rect codeLine="111" fill="#F1F1F1" height="41.5547" id="Role" rx="2.5" ry="2.5" style="stroke:#181818;stroke-width:0.5;" width="48" x="1428.06" y="788.4883"/><text fill="#000000" font-family="sans-serif" font-size="20" lengthAdjust="spacing" textLength="42" x="1431.06" y="812.8242">Role</text><line style="stroke:#181818;stroke-width:0.5;" x1="1429.06" x2="1475.06" y1="822.043" y2="822.043"/></g><!--class SystemAdministrator--><g id="elem_SystemAdministrator"><rect codeLine="114" fill="#F1F1F1" height="41.5547" id="SystemAdministrator" rx="2.5" ry="2.5" style="stroke:#181818;stroke-width:0.5;" width="207" x="1243.56" y="323.4883"/><text fill="#000000" font-family="sans-serif" font-size="20" lengthAdjust="spacing" textLength="201" x="1246.56" y="347.8242">SystemAdministrator</text><line style="stroke:#181818;stroke-width:0.5;" x1="1244.56" x2="1449.56" y1="357.043" y2="357.043"/></g><!--class StoreManager--><g id="elem_StoreManager"><rect codeLine="117" fill="#F1F1F1" height="41.5547" id="StoreManager" rx="2.5" ry="2.5" style="stroke:#181818;stroke-width:0.5;" width="137" x="670.56" y="102.9883"/><text fill="#000000" font-family="sans-serif" font-size="20" lengthAdjust="spacing" textLength="131" x="673.56" y="127.3242">StoreManager</text><line style="stroke:#181818;stroke-width:0.5;" x1="671.56" x2="806.56" y1="136.543" y2="136.543"/></g><!--class StoreNetworkManager--><g id="elem_StoreNetworkManager"><rect codeLine="120" fill="#F1F1F1" height="41.5547" id="StoreNetworkManager" rx="2.5" ry="2.5" style="stroke:#181818;stroke-width:0.5;" width="217" x="1732.56" y="555.9883"/><text fill="#000000" font-family="sans-serif" font-size="20" lengthAdjust="spacing" textLength="211" x="1735.56" y="580.3242">StoreNetworkManager</text><line style="stroke:#181818;stroke-width:0.5;" x1="1733.56" x2="1948.56" y1="589.543" y2="589.543"/></g><!--reverse link Address to Property--><g id="link_Address_Property"><path d="M475.62,418.0283 C466.17,430.7983 456.09,443.7583 446.06,455.4883 C434.16,469.4083 420.94,483.5883 407.72,497.1083 " fill="none" id="Address-backto-Property" style="stroke:#181818;stroke-width:1.0;"/><polygon fill="none" points="469.76,414.1883,487.16,402.0883,481.1,422.3883,469.76,414.1883" style="stroke:#181818;stroke-width:1.0;"/></g><!--reverse link Residency to Apartment--><g id="link_Residency_Apartment"><path d="M328.39,885.9983 C340.87,921.7883 354.8,961.7383 362.98,985.1883 " fill="none" id="Residency-backto-Apartment" style="stroke:#181818;stroke-width:1.0;"/><polygon fill="none" points="321.84,888.4683,321.86,867.2783,335.06,883.8583,321.84,888.4683" style="stroke:#181818;stroke-width:1.0;"/></g><!--reverse link Residency to House--><g id="link_Residency_House"><path d="M263.98,884.7483 C252.87,906.4083 240.92,929.6983 230.52,949.9883 " fill="none" id="Residency-backto-House" style="stroke:#181818;stroke-width:1.0;"/><polygon fill="none" points="257.63,881.7983,272.98,867.1883,270.08,888.1783,257.63,881.7983" style="stroke:#181818;stroke-width:1.0;"/></g><!--reverse link Property to Residency--><g id="link_Property_Residency"><path d="M314.52,677.9383 C312.06,703.6983 309.51,730.4883 307.35,753.0483 " fill="none" id="Property-backto-Residency" style="stroke:#181818;stroke-width:1.0;"/><polygon fill="none" points="307.54,677.4183,316.41,658.1783,321.47,678.7483,307.54,677.4183" style="stroke:#181818;stroke-width:1.0;"/></g><!--reverse link Property to Land--><g id="link_Property_Land"><path d="M392.34,673.9583 C422.57,716.4383 455.35,762.5183 473.64,788.2183 " fill="none" id="Property-backto-Land" style="stroke:#181818;stroke-width:1.0;"/><polygon fill="none" points="386.81,678.2583,380.92,657.8983,398.22,670.1383,386.81,678.2583" style="stroke:#181818;stroke-width:1.0;"/></g><!--link Agent to Employee--><g id="link_Agent_Employee"><path codeLine="124" d="M333.54,363.2283 C362.47,375.5183 403,391.2683 440.06,400.4883 C541.81,425.8083 575.74,394.0683 674.06,430.4883 C693.02,437.5083 692.96,448.8583 712.06,455.4883 C858.3,506.2483 914.75,429.4783 1059.06,485.4883 C1065.2,487.8683 1071.28,490.6783 1077.27,493.7983 " fill="none" id="Agent-Employee" style="stroke:#181818;stroke-width:1.0;"/><polygon fill="#000000" points="712.1805,441.8823,725.6215,449.0162,727.2477,439.7533,712.1805,441.8823" style="stroke:#000000;stroke-width:1.0;"/><text fill="#000000" font-family="sans-serif" font-size="20" lengthAdjust="spacing" textLength="33" x="733.06" y="450.8242">is a</text><text fill="#000000" font-family="sans-serif" font-size="20" lengthAdjust="spacing" textLength="13" x="341.1554" y="360.8002">1</text><text fill="#000000" font-family="sans-serif" font-size="20" lengthAdjust="spacing" textLength="13" x="1056.4643" y="483.2051">1</text></g><!--link Employee to Role--><g id="link_Employee_Role"><path codeLine="125" d="M1162.96,668.7683 C1164.23,688.3683 1169.25,707.8683 1181.06,723.4883 C1240.67,802.3583 1373.14,809.8283 1427.78,809.3583 " fill="none" id="Employee-Role" style="stroke:#181818;stroke-width:1.0;"/><polygon fill="#000000" points="1196.126,715.0169,1185.5484,704.0775,1181.1386,712.3841,1196.126,715.0169" style="stroke:#000000;stroke-width:1.0;"/><text fill="#000000" font-family="sans-serif" font-size="20" lengthAdjust="spacing" textLength="118" x="1202.06" y="718.8242">has a role of</text><text fill="#000000" font-family="sans-serif" font-size="20" lengthAdjust="spacing" textLength="13" x="1148.4472" y="695.7135">1</text><text fill="#000000" font-family="sans-serif" font-size="20" lengthAdjust="spacing" textLength="13" x="1406.8926" y="802.8422">1</text></g><!--link SystemAdministrator to Role--><g id="link_SystemAdministrator_Role"><path codeLine="126" d="M1381.45,365.8783 C1417.5,389.4783 1472.05,432.0483 1495.06,485.4883 C1541.04,592.2683 1485.49,735.7483 1461.79,788.2083 " fill="none" id="SystemAdministrator-Role" style="stroke:#181818;stroke-width:1.0;"/><polygon fill="#000000" points="1522.555,585.1247,1524.4699,570.0288,1515.2311,571.7863,1522.555,585.1247" style="stroke:#000000;stroke-width:1.0;"/><text fill="#000000" font-family="sans-serif" font-size="20" lengthAdjust="spacing" textLength="118" x="1534.06" y="584.8242">has a role of</text><text fill="#000000" font-family="sans-serif" font-size="20" lengthAdjust="spacing" textLength="13" x="1374.5509" y="392.5183">1</text><text fill="#000000" font-family="sans-serif" font-size="20" lengthAdjust="spacing" textLength="13" x="1449.6177" y="776.2725">1</text></g><!--link SystemAdministrator to Role--><g id="link_SystemAdministrator_Role"><path codeLine="128" d="M1342.73,365.8583 C1332.58,417.9083 1310.71,559.4283 1347.06,668.4883 C1363.39,717.4883 1404.34,763.1483 1430,788.2983 " fill="none" id="SystemAdministrator-Role-1" style="stroke:#181818;stroke-width:1.0;"/><polygon fill="#000000" points="1356.6785,585.1002,1358.3556,569.976,1349.1456,571.8787,1356.6785,585.1002" style="stroke:#000000;stroke-width:1.0;"/><text fill="#000000" font-family="sans-serif" font-size="20" lengthAdjust="spacing" textLength="118" x="1368.06" y="584.8242">has a role of</text><text fill="#000000" font-family="sans-serif" font-size="20" lengthAdjust="spacing" textLength="13" x="1327.3609" y="392.4939">1</text><text fill="#000000" font-family="sans-serif" font-size="20" lengthAdjust="spacing" textLength="13" x="1426.0128" y="776.3855">1</text></g><!--link StoreNetworkManager to Role--><g id="link_StoreNetworkManager_Role"><path codeLine="127" d="M1811.8,598.4683 C1784.56,617.2883 1742.62,645.6483 1705.06,668.4883 C1622.92,718.4283 1522.1,771.9983 1476.51,795.8183 " fill="none" id="StoreNetworkManager-Role" style="stroke:#181818;stroke-width:1.0;"/><polygon fill="#000000" points="1652.1656,715.3236,1667.0229,712.0351,1662.2524,703.9302,1652.1656,715.3236" style="stroke:#000000;stroke-width:1.0;"/><text fill="#000000" font-family="sans-serif" font-size="20" lengthAdjust="spacing" textLength="118" x="1672.06" y="718.8242">has a role of</text><text fill="#000000" font-family="sans-serif" font-size="20" lengthAdjust="spacing" textLength="13" x="1791.4245" y="624.7095">1</text><text fill="#000000" font-family="sans-serif" font-size="20" lengthAdjust="spacing" textLength="13" x="1484.0541" y="786.1409">1</text></g><!--link SystemAdministrator to Employee--><g id="link_SystemAdministrator_Employee"><path codeLine="129" d="M1325.44,365.6683 C1308.31,382.2283 1284.32,406.7283 1266.06,430.4883 C1252.98,447.5083 1240.17,466.5583 1228.53,485.1283 " fill="none" id="SystemAdministrator-Employee" style="stroke:#181818;stroke-width:1.0;"/><polygon fill="#000000" points="1269.02,449.4784,1281.7892,441.2018,1274.4857,435.277,1269.02,449.4784" style="stroke:#000000;stroke-width:1.0;"/><text fill="#000000" font-family="sans-serif" font-size="20" lengthAdjust="spacing" textLength="33" x="1287.06" y="450.8242">is a</text><text fill="#000000" font-family="sans-serif" font-size="20" lengthAdjust="spacing" textLength="13" x="1306.2888" y="392.2623">1</text><text fill="#000000" font-family="sans-serif" font-size="20" lengthAdjust="spacing" textLength="13" x="1219.1135" y="473.2545">1</text></g><!--link Agent to Owner--><g id="link_Agent_Owner"><path codeLine="130" d="M254.99,345.0683 C195.65,346.8083 84.3,359.9183 33.06,430.4883 C6,467.7583 24.35,525.3183 37.32,555.6583 " fill="none" id="Agent-Owner" style="stroke:#181818;stroke-width:1.0;"/><text fill="#000000" font-family="sans-serif" font-size="20" lengthAdjust="spacing" textLength="122" x="34.06" y="450.8242">contacted by</text><text fill="#000000" font-family="sans-serif" font-size="20" lengthAdjust="spacing" textLength="13" x="234.1577" y="339.5656">1</text><text fill="#000000" font-family="sans-serif" font-size="20" lengthAdjust="spacing" textLength="13" x="20.1585" y="543.7097">1</text></g><!--link Agent to Property--><g id="link_Agent_Property"><path codeLine="131" d="M315.76,377.4783 C324.88,392.8083 334.43,411.8483 339.06,430.4883 C344.35,451.8083 344.36,475.3283 342.04,497.1383 " fill="none" id="Agent-Property" style="stroke:#181818;stroke-width:1.0;"/><text fill="#000000" font-family="sans-serif" font-size="20" lengthAdjust="spacing" textLength="93" x="344.06" y="450.8242">publishes</text><text fill="#000000" font-family="sans-serif" font-size="20" lengthAdjust="spacing" textLength="10" x="308.6303" y="404.4992">*</text><text fill="#000000" font-family="sans-serif" font-size="20" lengthAdjust="spacing" textLength="10" x="333.196" y="485.3484">*</text></g><!--link Agent to Property--><g id="link_Agent_Property"><path codeLine="132" d="M254.68,359.1283 C210.41,376.9183 147.34,411.0883 169.06,455.4883 C180.89,479.6783 200.18,500.4083 221.2,517.5183 " fill="none" id="Agent-Property-1" style="stroke:#181818;stroke-width:1.0;"/><text fill="#000000" font-family="sans-serif" font-size="20" lengthAdjust="spacing" textLength="160" x="170.06" y="450.8242">sets comission</text><text fill="#000000" font-family="sans-serif" font-size="20" lengthAdjust="spacing" textLength="13" x="234.0811" y="356.0212">1</text><text fill="#000000" font-family="sans-serif" font-size="20" lengthAdjust="spacing" textLength="10" x="203.6161" y="508.8721">*</text></g><!--link Owner to Property--><g id="link_Owner_Property"><path codeLine="133" d="M81.3,576.9883 C116.19,576.9883 172.02,576.9883 221.35,576.9883 " fill="none" id="Owner-Property" style="stroke:#181818;stroke-width:1.0;"/><polygon fill="#000000" points="115.81,561.7656,130.2821,566.4679,130.2821,557.0633,115.81,561.7656" style="stroke:#000000;stroke-width:1.0;"/><text fill="#000000" font-family="sans-serif" font-size="20" lengthAdjust="spacing" textLength="49" x="136.81" y="569.3242">owns</text><text fill="#000000" font-family="sans-serif" font-size="20" lengthAdjust="spacing" textLength="13" x="89.0661" y="571.2273">1</text><text fill="#000000" font-family="sans-serif" font-size="20" lengthAdjust="spacing" textLength="10" x="203.44" y="572.488">*</text></g><!--link Address to City--><g id="link_Address_City"><path codeLine="134" d="M532.96,400.6983 C540.1,450.5083 550.2,521.0783 555.13,555.5083 " fill="none" id="Address-City" style="stroke:#181818;stroke-width:1.0;"/><polygon fill="#000000" points="547.9259,435.3464,545.3227,450.339,554.6323,449.0058,547.9259,435.3464" style="stroke:#000000;stroke-width:1.0;"/><text fill="#000000" font-family="sans-serif" font-size="20" lengthAdjust="spacing" textLength="103" x="562.06" y="450.8242">is a part of</text><text fill="#000000" font-family="sans-serif" font-size="20" lengthAdjust="spacing" textLength="13" x="520.1219" y="427.8826">1</text><text fill="#000000" font-family="sans-serif" font-size="20" lengthAdjust="spacing" textLength="13" x="539.8314" y="543.9272">1</text></g><!--link City to District--><g id="link_City_District"><path codeLine="135" d="M560.63,598.4483 C566.14,642.1883 578.99,744.3783 584.49,788.0783 " fill="none" id="City-District" style="stroke:#181818;stroke-width:1.0;"/><polygon fill="#000000" points="583.0613,703.3282,580.2025,718.2742,589.5335,717.1001,583.0613,703.3282" style="stroke:#000000;stroke-width:1.0;"/><text fill="#000000" font-family="sans-serif" font-size="20" lengthAdjust="spacing" textLength="103" x="597.06" y="718.8242">is a part of</text><text fill="#000000" font-family="sans-serif" font-size="20" lengthAdjust="spacing" textLength="13" x="546.8194" y="624.6853">1</text><text fill="#000000" font-family="sans-serif" font-size="20" lengthAdjust="spacing" textLength="13" x="569.1658" y="776.1092">1</text></g><!--link District to State--><g id="link_District_State"><path codeLine="136" d="M587.06,830.9883 C587.06,868.5383 587.06,947.9183 587.06,985.2583 " fill="none" id="District-State" style="stroke:#181818;stroke-width:1.0;"/><polygon fill="#000000" points="595.06,900.2656,590.3577,914.7378,599.7623,914.7378,595.06,900.2656" style="stroke:#000000;stroke-width:1.0;"/><text fill="#000000" font-family="sans-serif" font-size="20" lengthAdjust="spacing" textLength="103" x="608.06" y="915.8242">is a part of</text><text fill="#000000" font-family="sans-serif" font-size="20" lengthAdjust="spacing" textLength="13" x="572.7194" y="857.2336">1</text><text fill="#000000" font-family="sans-serif" font-size="20" lengthAdjust="spacing" textLength="13" x="572.3944" y="973.3353">1</text></g><!--link Client to Address--><g id="link_Client_Address"><path codeLine="137" d="M525.06,203.8683 C525.06,231.7383 525.06,262.4783 525.06,287.9983 " fill="none" id="Client-Address" style="stroke:#181818;stroke-width:1.0;"/><polygon fill="#000000" points="533.06,254.2656,537.7623,239.7935,528.3577,239.7935,533.06,254.2656" style="stroke:#000000;stroke-width:1.0;"/><text fill="#000000" font-family="sans-serif" font-size="20" lengthAdjust="spacing" textLength="33" x="546.06" y="253.8242">has</text><text fill="#000000" font-family="sans-serif" font-size="20" lengthAdjust="spacing" textLength="13" x="511.5014" y="231.0669">1</text><text fill="#000000" font-family="sans-serif" font-size="20" lengthAdjust="spacing" textLength="10" x="514.4506" y="276.0684">*</text></g><!--link Property to Photos--><g id="link_Property_Photos"><path codeLine="138" d="M250.33,656.6683 C206.58,703.3583 154.45,758.9783 127.06,788.2183 " fill="none" id="Property-Photos" style="stroke:#181818;stroke-width:1.0;"/><polygon fill="#000000" points="212.5898,717.1032,225.9167,709.7582,219.0542,703.3276,212.5898,717.1032" style="stroke:#000000;stroke-width:1.0;"/><text fill="#000000" font-family="sans-serif" font-size="20" lengthAdjust="spacing" textLength="33" x="231.06" y="718.8242">has</text><text fill="#000000" font-family="sans-serif" font-size="20" lengthAdjust="spacing" textLength="13" x="230.1845" y="684.135">1</text><text fill="#000000" font-family="sans-serif" font-size="20" lengthAdjust="spacing" textLength="10" x="120.6475" y="776.285">*</text></g><!--link PublishedProperty to Commission--><g id="link_PublishedProperty_Commission"><path codeLine="139" d="M926.93,400.9383 C931.69,410.6183 936.28,420.7283 940.06,430.4883 C952.96,463.7683 963.19,502.9283 969.93,532.2283 " fill="none" id="PublishedProperty-Commission" style="stroke:#181818;stroke-width:1.0;"/><polygon fill="#000000" points="954.57,435.663,954.6057,450.8799,963.5432,447.9527,954.57,435.663" style="stroke:#000000;stroke-width:1.0;"/><text fill="#000000" font-family="sans-serif" font-size="20" lengthAdjust="spacing" textLength="83" x="970.06" y="450.8242">is set for</text><text fill="#000000" font-family="sans-serif" font-size="20" lengthAdjust="spacing" textLength="13" x="916.7478" y="428.1504">1</text><text fill="#000000" font-family="sans-serif" font-size="20" lengthAdjust="spacing" textLength="13" x="954.6343" y="520.3664">1</text></g><!--link House to Equipment--><g id="link_House_Equipment"><path codeLine="140" d="M227.12,1062.8383 C235.23,1080.3883 244.38,1099.8283 253.06,1117.4883 C257.84,1127.2083 263.21,1137.6983 268.17,1147.2083 " fill="none" id="House-Equipment" style="stroke:#181818;stroke-width:1.0;"/><polygon fill="#000000" points="264.5601,1112.4593,262.4567,1097.3885,254,1101.5031,264.5601,1112.4593" style="stroke:#000000;stroke-width:1.0;"/><text fill="#000000" font-family="sans-serif" font-size="20" lengthAdjust="spacing" textLength="33" x="274.06" y="1112.8242">has</text><text fill="#000000" font-family="sans-serif" font-size="20" lengthAdjust="spacing" textLength="13" x="216.266" y="1090.0388">1</text><text fill="#000000" font-family="sans-serif" font-size="20" lengthAdjust="spacing" textLength="10" x="253.9972" y="1135.1458">*</text></g><!--link Apartment to Equipment--><g id="link_Apartment_Equipment"><path codeLine="141" d="M359.98,1027.8383 C345.38,1057.2883 318.21,1112.0983 300.91,1146.9983 " fill="none" id="Apartment-Equipment" style="stroke:#181818;stroke-width:1.0;"/><polygon fill="#000000" points="332.5069,1112.4333,343.1476,1101.5554,334.7215,1097.3784,332.5069,1112.4333" style="stroke:#000000;stroke-width:1.0;"/><text fill="#000000" font-family="sans-serif" font-size="20" lengthAdjust="spacing" textLength="33" x="349.06" y="1112.8242">has</text><text fill="#000000" font-family="sans-serif" font-size="20" lengthAdjust="spacing" textLength="13" x="343.3531" y="1054.4695">1</text><text fill="#000000" font-family="sans-serif" font-size="20" lengthAdjust="spacing" textLength="10" x="292.9105" y="1135.1724">*</text></g><!--link PublishedProperty to Property--><g id="link_PublishedProperty_Property"><path codeLine="142" d="M838.45,400.7783 C811.25,426.3383 783.01,451.8683 775.06,455.4883 C670.8,502.9583 629.29,454.3183 519.06,485.4883 C488.17,494.2183 456.03,507.2983 426.97,520.8183 " fill="none" id="PublishedProperty-Property" style="stroke:#181818;stroke-width:1.0;"/><polygon fill="#000000" points="821.7399,441.0252,806.53,440.5641,809.1637,449.5923,821.7399,441.0252" style="stroke:#000000;stroke-width:1.0;"/><text fill="#000000" font-family="sans-serif" font-size="20" lengthAdjust="spacing" textLength="103" x="827.06" y="450.8242">is a part of</text><text fill="#000000" font-family="sans-serif" font-size="20" lengthAdjust="spacing" textLength="13" x="818.0373" y="427.9719">1</text><text fill="#000000" font-family="sans-serif" font-size="20" lengthAdjust="spacing" textLength="13" x="434.6629" y="512.4041">1</text></g><!--SRC=[jLNBRjim4BppAuXU31G8aFPe604I9q43v8KQw9scrXPXYbH8AewIzj-x92MAbbKZb_fWYxEZtUNimtOdLCqCgwJcEoXe0HlMI7UhbLk9Tw3VpudjARJIIlFIw0geCmrabfhn7Tl2ohKIg07kcDhAd61BLkYzK5kwOTBc5YwPjPVE6R5k7DnnhKBWSp8RE58eS6qDL1jNQbAA0YWNXcE8y5m1meKbn0c72LphYWb57tG1af0GW2wb0EK-2CMFOXM4XnejDVfSCbCyDjKQJ80TUyjEWCvan452NMe5dVLFx_nfhy3GZm6ugMgfMu1HF2uStasT3CUAme2rdmrzkKtNmW8etdhJBDgUZQx1kFQ3p88FLF1fquCHOmPOVC86O4ve5K-5i5X33hTOxQLmxHAZ68Ws0oyDM0V5in6ymp0tfxU6rQMDW0fvFcske31QLsEKkN82VcO6QxvTOJj1PsAlA05RIxXvQKHTOHeHBvczOXOEW3jLihLmddslDnrk6tNpLclR6FZ597RjB6dNIq7XpO4gKCoeVPGpodNLM6o-hXuZ1PE0HufXLbqvww3H4DBhPFDMEOXfKMHmqP_M9ckBTr4liP-7ztnLCZVN61v3kGnQEUOWZuJ3vBnWwRu_mUBuODDah1-wiJ35y5ciUydzGOpa7gazk4nEajkXCoTxPRfL_jqfcRxDMWfR-jxC8zGzV8sI729NiOvSLvMmrW_08772EYzWE5uUvomSNqCx9VOzKyN41OUTq3TmT0RzyT5lXq4hBVEQhLeSjEgog8Jo1MPEcuCAQmCFJ656H_0ZkBqskznAmhAWNxvzeMTduQVVKtCgB6LqGNeW9_cKvdw-a67mcUeDlI0JcNtYfUFC_bUaqo-DBdvnB4tSwNDi3Amunsr7rstF-egiyDsNUPxwoUQUHXmBpkQD5aDCCVLUMQn6jnlojFpOqovhFy_-jWiIq8pLRuDZPh9axB0e9fo6lyn4n0IxVABQ5oJjpumI5rnYZCVnu2f9YH0QrQ4RhDA2n1MKEKsZq_iTLjafrideWzYZQvDPeYz-8pbaCmPJ0cE3tm9_0G00]--></g></svg>