<?xml version="1.0" encoding="UTF-8" standalone="no"?><svg xmlns="http://www.w3.org/2000/svg" xmlns:xlink="http://www.w3.org/1999/xlink" contentStyleType="text/css" height="715px" preserveAspectRatio="none" style="width:663px;height:715px;background:#FFFFFF;" version="1.1" viewBox="0 0 663 715" width="663px" zoomAndPan="magnify"><defs/><g><!--class UserSession--><g id="elem_UserSession"><rect codeLine="10" fill="#F1F1F1" height="50" id="UserSession" rx="2.5" ry="2.5" style="stroke:#181818;stroke-width:0.5;" width="149" x="161.5" y="523"/><ellipse cx="177.5" cy="540" fill="#ADD1B2" rx="12" ry="12" style="stroke:#181818;stroke-width:1.0;"/><path d="M180.3066,547.0801 Q179.623,547.4316 178.8711,547.6074 Q178.1191,547.7832 177.2891,547.7832 Q174.3398,547.7832 172.7871,545.8398 Q171.2344,543.8965 171.2344,540.2246 Q171.2344,536.543 172.7871,534.5996 Q174.3398,532.6563 177.2891,532.6563 Q178.1191,532.6563 178.8809,532.832 Q179.6426,533.0078 180.3066,533.3594 L180.3066,536.5625 Q179.5645,535.8789 178.8662,535.5615 Q178.168,535.2441 177.4258,535.2441 Q175.8438,535.2441 175.0381,536.499 Q174.2324,537.7539 174.2324,540.2246 Q174.2324,542.6855 175.0381,543.9404 Q175.8438,545.1953 177.4258,545.1953 Q178.168,545.1953 178.8662,544.8779 Q179.5645,544.5605 180.3066,543.877 Z " fill="#000000"/><text fill="#000000" font-family="sans-serif" font-size="20" lengthAdjust="spacing" textLength="115" x="192.5" y="547.5586">UserSession</text><line style="stroke:#181818;stroke-width:0.5;" x1="162.5" x2="309.5" y1="557" y2="557"/><line style="stroke:#181818;stroke-width:0.5;" x1="162.5" x2="309.5" y1="565" y2="565"/></g><!--class AuthenticationFacade--><g id="elem_AuthenticationFacade"><rect codeLine="13" fill="#F1F1F1" height="50" id="AuthenticationFacade" rx="2.5" ry="2.5" style="stroke:#181818;stroke-width:0.5;" width="240" x="116" y="388"/><ellipse cx="132" cy="405" fill="#ADD1B2" rx="12" ry="12" style="stroke:#181818;stroke-width:1.0;"/><path d="M134.8066,412.0801 Q134.123,412.4316 133.3711,412.6074 Q132.6191,412.7832 131.7891,412.7832 Q128.8398,412.7832 127.2871,410.8398 Q125.7344,408.8965 125.7344,405.2246 Q125.7344,401.543 127.2871,399.5996 Q128.8398,397.6563 131.7891,397.6563 Q132.6191,397.6563 133.3809,397.832 Q134.1426,398.0078 134.8066,398.3594 L134.8066,401.5625 Q134.0645,400.8789 133.3662,400.5615 Q132.668,400.2441 131.9258,400.2441 Q130.3438,400.2441 129.5381,401.499 Q128.7324,402.7539 128.7324,405.2246 Q128.7324,407.6855 129.5381,408.9404 Q130.3438,410.1953 131.9258,410.1953 Q132.668,410.1953 133.3662,409.8779 Q134.0645,409.5605 134.8066,408.877 Z " fill="#000000"/><text fill="#000000" font-family="sans-serif" font-size="20" lengthAdjust="spacing" textLength="206" x="147" y="412.5586">AuthenticationFacade</text><line style="stroke:#181818;stroke-width:0.5;" x1="117" x2="355" y1="422" y2="422"/><line style="stroke:#181818;stroke-width:0.5;" x1="117" x2="355" y1="430" y2="430"/></g><!--class AuthenticationRepository--><g id="elem_AuthenticationRepository"><rect codeLine="16" fill="#F1F1F1" height="50" id="AuthenticationRepository" rx="2.5" ry="2.5" style="stroke:#181818;stroke-width:0.5;" width="275" x="98.5" y="253"/><ellipse cx="114.5" cy="270" fill="#ADD1B2" rx="12" ry="12" style="stroke:#181818;stroke-width:1.0;"/><path d="M117.3066,277.0801 Q116.623,277.4316 115.8711,277.6074 Q115.1191,277.7832 114.2891,277.7832 Q111.3398,277.7832 109.7871,275.8398 Q108.2344,273.8965 108.2344,270.2246 Q108.2344,266.543 109.7871,264.5996 Q111.3398,262.6563 114.2891,262.6563 Q115.1191,262.6563 115.8809,262.832 Q116.6426,263.0078 117.3066,263.3594 L117.3066,266.5625 Q116.5645,265.8789 115.8662,265.5615 Q115.168,265.2441 114.4258,265.2441 Q112.8438,265.2441 112.0381,266.499 Q111.2324,267.7539 111.2324,270.2246 Q111.2324,272.6855 112.0381,273.9404 Q112.8438,275.1953 114.4258,275.1953 Q115.168,275.1953 115.8662,274.8779 Q116.5645,274.5605 117.3066,273.877 Z " fill="#000000"/><text fill="#000000" font-family="sans-serif" font-size="20" lengthAdjust="spacing" textLength="241" x="129.5" y="277.5586">AuthenticationRepository</text><line style="stroke:#181818;stroke-width:0.5;" x1="99.5" x2="372.5" y1="287" y2="287"/><line style="stroke:#181818;stroke-width:0.5;" x1="99.5" x2="372.5" y1="295" y2="295"/></g><!--class Repositories--><g id="elem_Repositories"><rect codeLine="19" fill="#F1F1F1" height="50" id="Repositories" rx="2.5" ry="2.5" style="stroke:#181818;stroke-width:0.5;" width="153" x="261.5" y="118"/><ellipse cx="277.5" cy="135" fill="#ADD1B2" rx="12" ry="12" style="stroke:#181818;stroke-width:1.0;"/><path d="M280.3066,142.0801 Q279.623,142.4316 278.8711,142.6074 Q278.1191,142.7832 277.2891,142.7832 Q274.3398,142.7832 272.7871,140.8398 Q271.2344,138.8965 271.2344,135.2246 Q271.2344,131.543 272.7871,129.5996 Q274.3398,127.6563 277.2891,127.6563 Q278.1191,127.6563 278.8809,127.832 Q279.6426,128.0078 280.3066,128.3594 L280.3066,131.5625 Q279.5645,130.8789 278.8662,130.5615 Q278.168,130.2441 277.4258,130.2441 Q275.8438,130.2441 275.0381,131.499 Q274.2324,132.7539 274.2324,135.2246 Q274.2324,137.6855 275.0381,138.9404 Q275.8438,140.1953 277.4258,140.1953 Q278.168,140.1953 278.8662,139.8779 Q279.5645,139.5605 280.3066,138.877 Z " fill="#000000"/><text fill="#000000" font-family="sans-serif" font-size="20" lengthAdjust="spacing" textLength="119" x="292.5" y="142.5586">Repositories</text><line style="stroke:#181818;stroke-width:0.5;" x1="262.5" x2="413.5" y1="152" y2="152"/><line style="stroke:#181818;stroke-width:0.5;" x1="262.5" x2="413.5" y1="160" y2="160"/></g><!--class CreateOrderController--><g id="elem_CreateOrderController"><rect codeLine="22" fill="#F1F1F1" height="50" id="CreateOrderController" rx="2.5" ry="2.5" style="stroke:#181818;stroke-width:0.5;" width="248" x="214" y="7"/><ellipse cx="230" cy="24" fill="#ADD1B2" rx="12" ry="12" style="stroke:#181818;stroke-width:1.0;"/><path d="M232.8066,31.0801 Q232.123,31.4316 231.3711,31.6074 Q230.6191,31.7832 229.7891,31.7832 Q226.8398,31.7832 225.2871,29.8398 Q223.7344,27.8965 223.7344,24.2246 Q223.7344,20.543 225.2871,18.5996 Q226.8398,16.6563 229.7891,16.6563 Q230.6191,16.6563 231.3809,16.832 Q232.1426,17.0078 232.8066,17.3594 L232.8066,20.5625 Q232.0645,19.8789 231.3662,19.5615 Q230.668,19.2441 229.9258,19.2441 Q228.3438,19.2441 227.5381,20.499 Q226.7324,21.7539 226.7324,24.2246 Q226.7324,26.6855 227.5381,27.9404 Q228.3438,29.1953 229.9258,29.1953 Q230.668,29.1953 231.3662,28.8779 Q232.0645,28.5605 232.8066,27.877 Z " fill="#000000"/><text fill="#000000" font-family="sans-serif" font-size="20" lengthAdjust="spacing" textLength="214" x="245" y="31.5586">CreateOrderController</text><line style="stroke:#181818;stroke-width:0.5;" x1="215" x2="461" y1="41" y2="41"/><line style="stroke:#181818;stroke-width:0.5;" x1="215" x2="461" y1="49" y2="49"/></g><!--class CreateOrderUI--><g id="elem_CreateOrderUI"><rect codeLine="25" fill="#F1F1F1" height="50" id="CreateOrderUI" rx="2.5" ry="2.5" style="stroke:#181818;stroke-width:0.5;" width="172" x="7" y="7"/><ellipse cx="23" cy="24" fill="#ADD1B2" rx="12" ry="12" style="stroke:#181818;stroke-width:1.0;"/><path d="M25.8066,31.0801 Q25.123,31.4316 24.3711,31.6074 Q23.6191,31.7832 22.7891,31.7832 Q19.8398,31.7832 18.2871,29.8398 Q16.7344,27.8965 16.7344,24.2246 Q16.7344,20.543 18.2871,18.5996 Q19.8398,16.6563 22.7891,16.6563 Q23.6191,16.6563 24.3809,16.832 Q25.1426,17.0078 25.8066,17.3594 L25.8066,20.5625 Q25.0645,19.8789 24.3662,19.5615 Q23.668,19.2441 22.9258,19.2441 Q21.3438,19.2441 20.5381,20.499 Q19.7324,21.7539 19.7324,24.2246 Q19.7324,26.6855 20.5381,27.9404 Q21.3438,29.1953 22.9258,29.1953 Q23.668,29.1953 24.3662,28.8779 Q25.0645,28.5605 25.8066,27.877 Z " fill="#000000"/><text fill="#000000" font-family="sans-serif" font-size="20" lengthAdjust="spacing" textLength="138" x="38" y="31.5586">CreateOrderUI</text><line style="stroke:#181818;stroke-width:0.5;" x1="8" x2="178" y1="41" y2="41"/><line style="stroke:#181818;stroke-width:0.5;" x1="8" x2="178" y1="49" y2="49"/></g><!--class User--><g id="elem_User"><rect codeLine="28" fill="#F1F1F1" height="50" id="User" rx="2.5" ry="2.5" style="stroke:#181818;stroke-width:0.5;" width="77" x="197.5" y="658"/><ellipse cx="213.5" cy="675" fill="#ADD1B2" rx="12" ry="12" style="stroke:#181818;stroke-width:1.0;"/><path d="M216.3066,682.0801 Q215.623,682.4316 214.8711,682.6074 Q214.1191,682.7832 213.2891,682.7832 Q210.3398,682.7832 208.7871,680.8398 Q207.2344,678.8965 207.2344,675.2246 Q207.2344,671.543 208.7871,669.5996 Q210.3398,667.6563 213.2891,667.6563 Q214.1191,667.6563 214.8809,667.832 Q215.6426,668.0078 216.3066,668.3594 L216.3066,671.5625 Q215.5645,670.8789 214.8662,670.5615 Q214.168,670.2441 213.4258,670.2441 Q211.8438,670.2441 211.0381,671.499 Q210.2324,672.7539 210.2324,675.2246 Q210.2324,677.6855 211.0381,678.9404 Q211.8438,680.1953 213.4258,680.1953 Q214.168,680.1953 214.8662,679.8779 Q215.5645,679.5605 216.3066,678.877 Z " fill="#000000"/><text fill="#000000" font-family="sans-serif" font-size="20" lengthAdjust="spacing" textLength="43" x="228.5" y="682.5586">User</text><line style="stroke:#181818;stroke-width:0.5;" x1="198.5" x2="273.5" y1="692" y2="692"/><line style="stroke:#181818;stroke-width:0.5;" x1="198.5" x2="273.5" y1="700" y2="700"/></g><!--class OrderRepository--><g id="elem_OrderRepository"><rect codeLine="31" fill="#F1F1F1" height="50" id="OrderRepository" rx="2.5" ry="2.5" style="stroke:#181818;stroke-width:0.5;" width="192" x="464" y="253"/><ellipse cx="480" cy="270" fill="#ADD1B2" rx="12" ry="12" style="stroke:#181818;stroke-width:1.0;"/><path d="M482.8066,277.0801 Q482.123,277.4316 481.3711,277.6074 Q480.6191,277.7832 479.7891,277.7832 Q476.8398,277.7832 475.2871,275.8398 Q473.7344,273.8965 473.7344,270.2246 Q473.7344,266.543 475.2871,264.5996 Q476.8398,262.6563 479.7891,262.6563 Q480.6191,262.6563 481.3809,262.832 Q482.1426,263.0078 482.8066,263.3594 L482.8066,266.5625 Q482.0645,265.8789 481.3662,265.5615 Q480.668,265.2441 479.9258,265.2441 Q478.3438,265.2441 477.5381,266.499 Q476.7324,267.7539 476.7324,270.2246 Q476.7324,272.6855 477.5381,273.9404 Q478.3438,275.1953 479.9258,275.1953 Q480.668,275.1953 481.3662,274.8779 Q482.0645,274.5605 482.8066,273.877 Z " fill="#000000"/><text fill="#000000" font-family="sans-serif" font-size="20" lengthAdjust="spacing" textLength="158" x="495" y="277.5586">OrderRepository</text><line style="stroke:#181818;stroke-width:0.5;" x1="465" x2="655" y1="287" y2="287"/><line style="stroke:#181818;stroke-width:0.5;" x1="465" x2="655" y1="295" y2="295"/></g><!--class Order--><g id="elem_Order"><rect codeLine="34" fill="#F1F1F1" height="50" id="Order" rx="2.5" ry="2.5" style="stroke:#181818;stroke-width:0.5;" width="90" x="515" y="388"/><ellipse cx="531" cy="405" fill="#ADD1B2" rx="12" ry="12" style="stroke:#181818;stroke-width:1.0;"/><path d="M533.8066,412.0801 Q533.123,412.4316 532.3711,412.6074 Q531.6191,412.7832 530.7891,412.7832 Q527.8398,412.7832 526.2871,410.8398 Q524.7344,408.8965 524.7344,405.2246 Q524.7344,401.543 526.2871,399.5996 Q527.8398,397.6563 530.7891,397.6563 Q531.6191,397.6563 532.3809,397.832 Q533.1426,398.0078 533.8066,398.3594 L533.8066,401.5625 Q533.0645,400.8789 532.3662,400.5615 Q531.668,400.2441 530.9258,400.2441 Q529.3438,400.2441 528.5381,401.499 Q527.7324,402.7539 527.7324,405.2246 Q527.7324,407.6855 528.5381,408.9404 Q529.3438,410.1953 530.9258,410.1953 Q531.668,410.1953 532.3662,409.8779 Q533.0645,409.5605 533.8066,408.877 Z " fill="#000000"/><text fill="#000000" font-family="sans-serif" font-size="20" lengthAdjust="spacing" textLength="56" x="546" y="412.5586">Order</text><line style="stroke:#181818;stroke-width:0.5;" x1="516" x2="604" y1="422" y2="422"/><line style="stroke:#181818;stroke-width:0.5;" x1="516" x2="604" y1="430" y2="430"/></g><!--link Repositories to Repositories--><g id="link_Repositories_Repositories"><path codeLine="37" d="M414.87,132.71 C434.63,133.36 449.5,136.79 449.5,143 C449.5,148.53 437.7,151.85 421.16,152.98 " fill="none" id="Repositories-to-Repositories" style="stroke:#181818;stroke-width:1.0;"/><polygon fill="#181818" points="416.38,153.21,425.5741,156.7411,421.3734,152.9525,425.162,148.7517,416.38,153.21" style="stroke:#181818;stroke-width:1.0;"/><text fill="#000000" font-family="sans-serif" font-size="20" lengthAdjust="spacing" textLength="89" x="455.5" y="150.8359">instances</text></g><!--link CreateOrderUI to CreateOrderController--><g id="link_CreateOrderUI_CreateOrderController"><path codeLine="39" d="M179.06,32 C184.87,32 195.77,32 207.59,32 " fill="none" id="CreateOrderUI-to-CreateOrderController" style="stroke:#181818;stroke-width:1.0;stroke-dasharray:7.0,7.0;"/><polygon fill="#181818" points="212.32,32,203.32,28,207.32,32,203.32,36,212.32,32" style="stroke:#181818;stroke-width:1.0;"/></g><!--link CreateOrderController to Repositories--><g id="link_CreateOrderController_Repositories"><path codeLine="41" d="M338,57.46 C338,73.45 338,94.45 338,111.52 " fill="none" id="CreateOrderController-to-Repositories" style="stroke:#181818;stroke-width:1.0;stroke-dasharray:7.0,7.0;"/><polygon fill="#181818" points="338,116.11,342,107.11,338,111.11,334,107.11,338,116.11" style="stroke:#181818;stroke-width:1.0;"/></g><!--link Repositories to AuthenticationRepository--><g id="link_Repositories_AuthenticationRepository"><path codeLine="43" d="M319.29,168.39 C302.11,190.8 276.62,224.03 258.37,247.83 " fill="none" id="Repositories-to-AuthenticationRepository" style="stroke:#181818;stroke-width:1.0;"/><polygon fill="#181818" points="255.51,251.56,264.1671,246.8637,258.5579,247.5963,257.8252,241.9871,255.51,251.56" style="stroke:#181818;stroke-width:1.0;"/><text fill="#000000" font-family="sans-serif" font-size="20" lengthAdjust="spacing" textLength="33" x="298" y="218.3359">has</text><text fill="#000000" font-family="sans-serif" font-size="20" lengthAdjust="spacing" textLength="13" x="301.0904" y="195.3917">1</text><text fill="#000000" font-family="sans-serif" font-size="20" lengthAdjust="spacing" textLength="13" x="244.3858" y="240.6639">1</text></g><!--link CreateOrderController to AuthenticationRepository--><g id="link_CreateOrderController_AuthenticationRepository"><path codeLine="45" d="M311.06,57.36 C283.29,82.47 244,118 244,118 C244,118 239.87,200.01 237.55,246.23 " fill="none" id="CreateOrderController-to-AuthenticationRepository" style="stroke:#181818;stroke-width:1.0;stroke-dasharray:7.0,7.0;"/><polygon fill="#181818" points="237.31,250.99,241.767,242.2073,237.5668,245.9966,233.7775,241.7964,237.31,250.99" style="stroke:#181818;stroke-width:1.0;"/></g><!--link CreateOrderController to OrderRepository--><g id="link_CreateOrderController_OrderRepository"><path codeLine="47" d="M399.32,57.47 C462.25,82.58 551,118 551,118 C551,118 555.64,200.01 558.26,246.23 " fill="none" id="CreateOrderController-to-OrderRepository" style="stroke:#181818;stroke-width:1.0;stroke-dasharray:7.0,7.0;"/><polygon fill="#181818" points="558.53,250.99,562.0085,241.7759,558.2439,245.9982,554.0216,242.2336,558.53,250.99" style="stroke:#181818;stroke-width:1.0;"/></g><!--link AuthenticationRepository to AuthenticationFacade--><g id="link_AuthenticationRepository_AuthenticationFacade"><path codeLine="49" d="M236,303.39 C236,325.33 236,357.65 236,381.33 " fill="none" id="AuthenticationRepository-to-AuthenticationFacade" style="stroke:#181818;stroke-width:1.0;"/><polygon fill="#181818" points="236,386.25,240,377.25,236,381.25,232,377.25,236,386.25" style="stroke:#181818;stroke-width:1.0;"/><text fill="#000000" font-family="sans-serif" font-size="20" lengthAdjust="spacing" textLength="33" x="237" y="353.3359">has</text><text fill="#000000" font-family="sans-serif" font-size="20" lengthAdjust="spacing" textLength="13" x="221.6594" y="330.3917">1</text><text fill="#000000" font-family="sans-serif" font-size="20" lengthAdjust="spacing" textLength="13" x="221.4969" y="375.6639">1</text></g><!--link AuthenticationFacade to UserSession--><g id="link_AuthenticationFacade_UserSession"><path codeLine="51" d="M236,438.39 C236,460.33 236,492.65 236,516.33 " fill="none" id="AuthenticationFacade-to-UserSession" style="stroke:#181818;stroke-width:1.0;"/><polygon fill="#181818" points="236,521.25,240,512.25,236,516.25,232,512.25,236,521.25" style="stroke:#181818;stroke-width:1.0;"/><text fill="#000000" font-family="sans-serif" font-size="20" lengthAdjust="spacing" textLength="33" x="237" y="488.3359">has</text><text fill="#000000" font-family="sans-serif" font-size="20" lengthAdjust="spacing" textLength="13" x="221.6594" y="465.3917">1</text><text fill="#000000" font-family="sans-serif" font-size="20" lengthAdjust="spacing" textLength="13" x="221.4969" y="510.6639">1</text></g><!--link UserSession to User--><g id="link_UserSession_User"><path codeLine="53" d="M236,573.39 C236,595.33 236,627.65 236,651.33 " fill="none" id="UserSession-to-User" style="stroke:#181818;stroke-width:1.0;"/><polygon fill="#181818" points="236,656.25,240,647.25,236,651.25,232,647.25,236,656.25" style="stroke:#181818;stroke-width:1.0;"/><text fill="#000000" font-family="sans-serif" font-size="20" lengthAdjust="spacing" textLength="33" x="237" y="623.3359">has</text><text fill="#000000" font-family="sans-serif" font-size="20" lengthAdjust="spacing" textLength="13" x="221.6594" y="600.3917">1</text><text fill="#000000" font-family="sans-serif" font-size="20" lengthAdjust="spacing" textLength="13" x="221.4969" y="645.6639">1</text></g><!--link Repositories to OrderRepository--><g id="link_Repositories_OrderRepository"><path codeLine="55" d="M378.72,168.39 C416.93,191.29 474.03,225.49 513.9,249.38 " fill="none" id="Repositories-to-OrderRepository" style="stroke:#181818;stroke-width:1.0;"/><polygon fill="#181818" points="517.87,251.76,512.2105,243.6996,513.5825,249.1875,508.0946,250.5595,517.87,251.76" style="stroke:#181818;stroke-width:1.0;"/><text fill="#000000" font-family="sans-serif" font-size="20" lengthAdjust="spacing" textLength="33" x="469" y="218.3359">has</text><text fill="#000000" font-family="sans-serif" font-size="20" lengthAdjust="spacing" textLength="13" x="372.7779" y="195.3917">1</text><text fill="#000000" font-family="sans-serif" font-size="20" lengthAdjust="spacing" textLength="13" x="495.8044" y="240.8516">1</text></g><!--link OrderRepository to Order--><g id="link_OrderRepository_Order"><path codeLine="57" d="M560,303.39 C560,325.33 560,357.65 560,381.33 " fill="none" id="OrderRepository-to-Order" style="stroke:#181818;stroke-width:1.0;"/><polygon fill="#181818" points="560,386.25,564,377.25,560,381.25,556,377.25,560,386.25" style="stroke:#181818;stroke-width:1.0;"/><text fill="#000000" font-family="sans-serif" font-size="20" lengthAdjust="spacing" textLength="33" x="561" y="353.3359">has</text><text fill="#000000" font-family="sans-serif" font-size="20" lengthAdjust="spacing" textLength="13" x="545.6594" y="330.3917">1</text><text fill="#000000" font-family="sans-serif" font-size="20" lengthAdjust="spacing" textLength="10" x="548.8438" y="375.6639">*</text></g><!--SRC=[VP91Yy8m48Nl-HM35s51SVVeGH11y2Ii-0EowTW6OwPafYpTPV_xjgNLj1XF9VE-r_SwAL-jBtNGDqVcYXbaUD6LaprvETaVX8-LclF0m8qycIBG3K52XUgXbDfSTOudgHr2G2FQvou6kD0PVLkVmqKxZXLdFKfT8fJawlOG9zv52a8gSXcdcRSYmNvLWWT3lkkxKchky28W1C7cXK1cspgMLEU0CsCu8RCb_wl-L3_TLbAW5sjqG_gzDZf3IEgVM19ReL37p7rgaUFvBg0MF8OCmwvPQo3dC2I0yo4MsgxHiICUsLEbEuzAB3RZKckmdfkRCSXAZLENc-SzHrnKVxaSltkIF7kVmQA9Rv_9tQsXqFmg8ELyvPaiIQbaVBfZV_zzlwTQR8v-gS4JZwRem2GNDlc4WP-ExvQttjA3_m00]--></g></svg>