<?xml version="1.0" encoding="UTF-8" standalone="no"?><svg xmlns="http://www.w3.org/2000/svg" xmlns:xlink="http://www.w3.org/1999/xlink" contentStyleType="text/css" height="1610px" preserveAspectRatio="none" style="width:2559px;height:1610px;background:#FFFFFF;" version="1.1" viewBox="0 0 2559 1610" width="2559px" zoomAndPan="magnify"><defs/><g><!--class Property--><g id="elem_Property"><rect codeLine="10" fill="#F1F1F1" height="261.9922" id="Property" rx="2.5" ry="2.5" style="stroke:#181818;stroke-width:0.5;" width="310" x="1591" y="1088.31"/><ellipse cx="1701.5" cy="1105.31" fill="#ADD1B2" rx="12" ry="12" style="stroke:#181818;stroke-width:1.0;"/><path d="M1704.3066,1112.3901 Q1703.623,1112.7416 1702.8711,1112.9174 Q1702.1191,1113.0932 1701.2891,1113.0932 Q1698.3398,1113.0932 1696.7871,1111.1498 Q1695.2344,1109.2065 1695.2344,1105.5346 Q1695.2344,1101.853 1696.7871,1099.9096 Q1698.3398,1097.9663 1701.2891,1097.9663 Q1702.1191,1097.9663 1702.8809,1098.142 Q1703.6426,1098.3178 1704.3066,1098.6694 L1704.3066,1101.8725 Q1703.5645,1101.1889 1702.8662,1100.8715 Q1702.168,1100.5541 1701.4258,1100.5541 Q1699.8438,1100.5541 1699.0381,1101.809 Q1698.2324,1103.0639 1698.2324,1105.5346 Q1698.2324,1107.9955 1699.0381,1109.2504 Q1699.8438,1110.5053 1701.4258,1110.5053 Q1702.168,1110.5053 1702.8662,1110.1879 Q1703.5645,1109.8705 1704.3066,1109.187 Z " fill="#000000"/><text fill="#000000" font-family="sans-serif" font-size="20" lengthAdjust="spacing" textLength="80" x="1723.5" y="1112.8686">Property</text><line style="stroke:#181818;stroke-width:0.5;" x1="1592" x2="1900" y1="1122.31" y2="1122.31"/><text fill="#000000" font-family="sans-serif" font-size="20" lengthAdjust="spacing" textLength="138" x="1597" y="1145.6459">-area : double</text><text fill="#000000" font-family="sans-serif" font-size="20" lengthAdjust="spacing" textLength="290" x="1597" y="1169.2006">-distanceFromCenter : double</text><text fill="#000000" font-family="sans-serif" font-size="20" lengthAdjust="spacing" textLength="145" x="1597" y="1192.7553">-price : double</text><text fill="#000000" font-family="sans-serif" font-size="20" lengthAdjust="spacing" textLength="185" x="1597" y="1216.31">-address : Address</text><line style="stroke:#181818;stroke-width:0.5;" x1="1592" x2="1900" y1="1224.5288" y2="1224.5288"/><text fill="#000000" font-family="sans-serif" font-size="20" lengthAdjust="spacing" textLength="236" x="1597" y="1247.8647">+getAddress() : Address</text><text fill="#000000" font-family="sans-serif" font-size="20" lengthAdjust="spacing" textLength="189" x="1597" y="1271.4194">+getArea() : double</text><text fill="#000000" font-family="sans-serif" font-size="20" lengthAdjust="spacing" textLength="298" x="1597" y="1294.9741">+getDistanceFromCenter() : int</text><text fill="#000000" font-family="sans-serif" font-size="20" lengthAdjust="spacing" textLength="191" x="1597" y="1318.5288">+getPrice() : double</text><text fill="#000000" font-family="sans-serif" font-size="20" lengthAdjust="spacing" textLength="179" x="1597" y="1342.0834">+toString() : String</text></g><!--class Announcement--><g id="elem_Announcement"><rect codeLine="22" fill="#F1F1F1" height="285.5469" id="Announcement" rx="2.5" ry="2.5" style="stroke:#181818;stroke-width:0.5;" width="354" x="1569" y="717.77"/><ellipse cx="1669.5" cy="734.77" fill="#ADD1B2" rx="12" ry="12" style="stroke:#181818;stroke-width:1.0;"/><path d="M1672.3066,741.8501 Q1671.623,742.2016 1670.8711,742.3774 Q1670.1191,742.5532 1669.2891,742.5532 Q1666.3398,742.5532 1664.7871,740.6098 Q1663.2344,738.6665 1663.2344,734.9946 Q1663.2344,731.313 1664.7871,729.3696 Q1666.3398,727.4263 1669.2891,727.4263 Q1670.1191,727.4263 1670.8809,727.602 Q1671.6426,727.7778 1672.3066,728.1294 L1672.3066,731.3325 Q1671.5645,730.6489 1670.8662,730.3315 Q1670.168,730.0141 1669.4258,730.0141 Q1667.8438,730.0141 1667.0381,731.269 Q1666.2324,732.5239 1666.2324,734.9946 Q1666.2324,737.4555 1667.0381,738.7104 Q1667.8438,739.9653 1669.4258,739.9653 Q1670.168,739.9653 1670.8662,739.6479 Q1671.5645,739.3305 1672.3066,738.647 Z " fill="#000000"/><text fill="#000000" font-family="sans-serif" font-size="20" lengthAdjust="spacing" textLength="144" x="1691.5" y="742.3286">Announcement</text><line style="stroke:#181818;stroke-width:0.5;" x1="1570" x2="1922" y1="751.77" y2="751.77"/><text fill="#000000" font-family="sans-serif" font-size="20" lengthAdjust="spacing" textLength="324" x="1575" y="775.1059">-typeOfProperty : TypeOfProperty</text><text fill="#000000" font-family="sans-serif" font-size="20" lengthAdjust="spacing" textLength="342" x="1575" y="798.6606">-transactionType : TransactionType</text><text fill="#000000" font-family="sans-serif" font-size="20" lengthAdjust="spacing" textLength="190" x="1575" y="822.2153">-publishDate : Date</text><text fill="#000000" font-family="sans-serif" font-size="20" lengthAdjust="spacing" textLength="247" x="1575" y="845.77">-comission : Commission</text><text fill="#000000" font-family="sans-serif" font-size="20" lengthAdjust="spacing" textLength="255" x="1575" y="869.3247">-photos ArrayList&lt;Photo&gt;</text><text fill="#000000" font-family="sans-serif" font-size="20" lengthAdjust="spacing" textLength="217" x="1575" y="892.8794">-isPublished : boolean</text><text fill="#000000" font-family="sans-serif" font-size="20" lengthAdjust="spacing" textLength="74" x="1575" y="916.4341">-id : int</text><text fill="#000000" font-family="sans-serif" font-size="20" lengthAdjust="spacing" textLength="150" x="1575" y="939.9888">-idCounter : int</text><line style="stroke:#181818;stroke-width:0.5;" x1="1570" x2="1922" y1="948.2075" y2="948.2075"/><text fill="#000000" font-family="sans-serif" font-size="20" lengthAdjust="spacing" textLength="238" x="1575" y="971.5434">+getProperty() : Property</text><text fill="#000000" font-family="sans-serif" font-size="20" lengthAdjust="spacing" textLength="179" x="1575" y="995.0981">+toString() : String</text></g><!--class AnnouncementRepository--><g id="elem_AnnouncementRepository"><rect codeLine="35" fill="#F1F1F1" height="167.7734" id="AnnouncementRepository" rx="2.5" ry="2.5" style="stroke:#181818;stroke-width:0.5;" width="1415" x="1038.5" y="464.99"/><ellipse cx="1618.5" cy="481.99" fill="#ADD1B2" rx="12" ry="12" style="stroke:#181818;stroke-width:1.0;"/><path d="M1621.3066,489.0701 Q1620.623,489.4216 1619.8711,489.5974 Q1619.1191,489.7732 1618.2891,489.7732 Q1615.3398,489.7732 1613.7871,487.8298 Q1612.2344,485.8865 1612.2344,482.2146 Q1612.2344,478.533 1613.7871,476.5896 Q1615.3398,474.6463 1618.2891,474.6463 Q1619.1191,474.6463 1619.8809,474.822 Q1620.6426,474.9978 1621.3066,475.3494 L1621.3066,478.5525 Q1620.5645,477.8689 1619.8662,477.5515 Q1619.168,477.2341 1618.4258,477.2341 Q1616.8438,477.2341 1616.0381,478.489 Q1615.2324,479.7439 1615.2324,482.2146 Q1615.2324,484.6755 1616.0381,485.9304 Q1616.8438,487.1853 1618.4258,487.1853 Q1619.168,487.1853 1619.8662,486.8679 Q1620.5645,486.5505 1621.3066,485.867 Z " fill="#000000"/><text fill="#000000" font-family="sans-serif" font-size="20" lengthAdjust="spacing" textLength="246" x="1640.5" y="489.5486">AnnouncementRepository</text><line style="stroke:#181818;stroke-width:0.5;" x1="1039.5" x2="2452.5" y1="498.99" y2="498.99"/><line style="stroke:#181818;stroke-width:0.5;" x1="1039.5" x2="2452.5" y1="506.99" y2="506.99"/><text fill="#000000" font-family="sans-serif" font-size="20" lengthAdjust="spacing" textLength="743" x="1044.5" y="530.3259">+getAllAnnouncementsSortedByDefualtCriteria() : ArrayList&lt;Announcement&gt;</text><text fill="#000000" font-family="sans-serif" font-size="20" lengthAdjust="spacing" textLength="1008" x="1044.5" y="553.8806">+getAllAnnouncementsSortedBySortCriteria(String sortCriteria, String order) : ArrayList&lt;Announcement&gt;</text><text fill="#000000" font-family="sans-serif" font-size="20" lengthAdjust="spacing" textLength="1403" x="1044.5" y="577.4353">+getFilteredAnnouncements(TypeOfProperty typeOfProperty, TransactionType transactionType, int numberOfRooms) : ArrayList&lt;Announcement&gt;</text><text fill="#000000" font-family="sans-serif" font-size="20" lengthAdjust="spacing" textLength="1017" x="1044.5" y="600.99">+getFilteredAndSortedAnnouncements(TypeOfProperty typeOfProperty, TransactionType transactionType,</text><text fill="#000000" font-family="sans-serif" font-size="20" lengthAdjust="spacing" textLength="789" x="1050.5" y="624.5447">int numberOfRooms, String sortCriteria, String order) : ArrayList&lt;Announcement&gt;</text></g><!--class Repositories--><g id="elem_Repositories"><rect codeLine="42" fill="#F1F1F1" height="120.6641" id="Repositories" rx="2.5" ry="2.5" style="stroke:#181818;stroke-width:0.5;" width="582" x="1223" y="259.33"/><ellipse cx="1450" cy="276.33" fill="#ADD1B2" rx="12" ry="12" style="stroke:#181818;stroke-width:1.0;"/><path d="M1452.8066,283.4101 Q1452.123,283.7616 1451.3711,283.9374 Q1450.6191,284.1132 1449.7891,284.1132 Q1446.8398,284.1132 1445.2871,282.1698 Q1443.7344,280.2265 1443.7344,276.5546 Q1443.7344,272.873 1445.2871,270.9296 Q1446.8398,268.9862 1449.7891,268.9862 Q1450.6191,268.9862 1451.3809,269.162 Q1452.1426,269.3378 1452.8066,269.6894 L1452.8066,272.8925 Q1452.0645,272.2089 1451.3662,271.8915 Q1450.668,271.5741 1449.9258,271.5741 Q1448.3438,271.5741 1447.5381,272.829 Q1446.7324,274.0839 1446.7324,276.5546 Q1446.7324,279.0155 1447.5381,280.2704 Q1448.3438,281.5253 1449.9258,281.5253 Q1450.668,281.5253 1451.3662,281.2079 Q1452.0645,280.8905 1452.8066,280.207 Z " fill="#000000"/><text fill="#000000" font-family="sans-serif" font-size="20" lengthAdjust="spacing" textLength="119" x="1472" y="283.8886">Repositories</text><line style="stroke:#181818;stroke-width:0.5;" x1="1224" x2="1804" y1="293.33" y2="293.33"/><line style="stroke:#181818;stroke-width:0.5;" x1="1224" x2="1804" y1="301.33" y2="301.33"/><text fill="#000000" font-family="sans-serif" font-size="20" lengthAdjust="spacing" textLength="149" x="1229" y="324.6659">+Repositories()</text><text fill="#000000" font-family="sans-serif" font-size="20" lengthAdjust="spacing" textLength="276" x="1229" y="348.2206">+getInstance() : Repositories</text><text fill="#000000" font-family="sans-serif" font-size="20" lengthAdjust="spacing" textLength="570" x="1229" y="371.7753">+getAnnouncementRepository() : AnnouncementRepository</text></g><!--class ListAnnouncementsController--><g id="elem_ListAnnouncementsController"><rect codeLine="48" fill="#F1F1F1" height="191.3281" id="ListAnnouncementsController" rx="2.5" ry="2.5" style="stroke:#181818;stroke-width:0.5;" width="1402" x="1150" y="7"/><ellipse cx="1704.5" cy="24" fill="#ADD1B2" rx="12" ry="12" style="stroke:#181818;stroke-width:1.0;"/><path d="M1707.3066,31.0801 Q1706.623,31.4316 1705.8711,31.6074 Q1705.1191,31.7832 1704.2891,31.7832 Q1701.3398,31.7832 1699.7871,29.8398 Q1698.2344,27.8965 1698.2344,24.2246 Q1698.2344,20.543 1699.7871,18.5996 Q1701.3398,16.6563 1704.2891,16.6563 Q1705.1191,16.6563 1705.8809,16.832 Q1706.6426,17.0078 1707.3066,17.3594 L1707.3066,20.5625 Q1706.5645,19.8789 1705.8662,19.5615 Q1705.168,19.2441 1704.4258,19.2441 Q1702.8438,19.2441 1702.0381,20.499 Q1701.2324,21.7539 1701.2324,24.2246 Q1701.2324,26.6855 1702.0381,27.9404 Q1702.8438,29.1953 1704.4258,29.1953 Q1705.168,29.1953 1705.8662,28.8779 Q1706.5645,28.5605 1707.3066,27.877 Z " fill="#000000"/><text fill="#000000" font-family="sans-serif" font-size="20" lengthAdjust="spacing" textLength="284" x="1726.5" y="31.5586">ListAnnouncementsController</text><line style="stroke:#181818;stroke-width:0.5;" x1="1151" x2="2551" y1="41" y2="41"/><line style="stroke:#181818;stroke-width:0.5;" x1="1151" x2="2551" y1="49" y2="49"/><text fill="#000000" font-family="sans-serif" font-size="20" lengthAdjust="spacing" textLength="414" x="1156" y="72.3359">+getAnnoucementRepository() : Repository</text><text fill="#000000" font-family="sans-serif" font-size="20" lengthAdjust="spacing" textLength="743" x="1156" y="95.8906">+getAllAnnouncementsSortedByDefualtCriteria() : ArrayList&lt;Announcement&gt;</text><text fill="#000000" font-family="sans-serif" font-size="20" lengthAdjust="spacing" textLength="1008" x="1156" y="119.4453">+getAllAnnouncementsSortedBySortCriteria(String sortCriteria, String order) : ArrayList&lt;Announcement&gt;</text><text fill="#000000" font-family="sans-serif" font-size="20" lengthAdjust="spacing" textLength="1390" x="1156" y="143">+getFilteredAnnouncements(ypeOfProperty typeOfProperty, TransactionType transactionType, int numberOfRooms) : ArrayList&lt;Announcement&gt;</text><text fill="#000000" font-family="sans-serif" font-size="20" lengthAdjust="spacing" textLength="1017" x="1156" y="166.5547">+getFilteredAndSortedAnnouncements(TypeOfProperty typeOfProperty, TransactionType transactionType,</text><text fill="#000000" font-family="sans-serif" font-size="20" lengthAdjust="spacing" textLength="789" x="1162" y="190.1094">int numberOfRooms, String sortCriteria, String order) : ArrayList&lt;Announcement&gt;</text></g><!--class ListAnouncementsUI--><g id="elem_ListAnouncementsUI"><rect codeLine="56" fill="#F1F1F1" height="144.2188" id="ListAnouncementsUI" rx="2.5" ry="2.5" style="stroke:#181818;stroke-width:0.5;" width="1108" x="7" y="30.56"/><ellipse cx="458.5" cy="47.56" fill="#ADD1B2" rx="12" ry="12" style="stroke:#181818;stroke-width:1.0;"/><path d="M461.3066,54.6401 Q460.623,54.9916 459.8711,55.1674 Q459.1191,55.3432 458.2891,55.3432 Q455.3398,55.3432 453.7871,53.3998 Q452.2344,51.4565 452.2344,47.7846 Q452.2344,44.103 453.7871,42.1596 Q455.3398,40.2162 458.2891,40.2162 Q459.1191,40.2162 459.8809,40.392 Q460.6426,40.5678 461.3066,40.9194 L461.3066,44.1225 Q460.5645,43.4389 459.8662,43.1215 Q459.168,42.8041 458.4258,42.8041 Q456.8438,42.8041 456.0381,44.059 Q455.2324,45.3139 455.2324,47.7846 Q455.2324,50.2455 456.0381,51.5004 Q456.8438,52.7553 458.4258,52.7553 Q459.168,52.7553 459.8662,52.4379 Q460.5645,52.1205 461.3066,51.437 Z " fill="#000000"/><text fill="#000000" font-family="sans-serif" font-size="20" lengthAdjust="spacing" textLength="196" x="480.5" y="55.1186">ListAnouncementsUI</text><line style="stroke:#181818;stroke-width:0.5;" x1="8" x2="1114" y1="64.56" y2="64.56"/><line style="stroke:#181818;stroke-width:0.5;" x1="8" x2="1114" y1="72.56" y2="72.56"/><text fill="#000000" font-family="sans-serif" font-size="20" lengthAdjust="spacing" textLength="1096" x="13" y="95.8959">+checkInputType(typeOfProperty, transactionType, numberOfRooms, sortCriteria) : AnnouncementListOptionType</text><text fill="#000000" font-family="sans-serif" font-size="20" lengthAdjust="spacing" textLength="843" x="13" y="119.4506">+getAnnouncements(TypeOfProperty typeOfProperty, TransactionType transactionType,</text><text fill="#000000" font-family="sans-serif" font-size="20" lengthAdjust="spacing" textLength="789" x="19" y="143.0053">int numberOfRooms, String sortCriteria, String order) : ArrayList&lt;Announcement&gt;</text><text fill="#000000" font-family="sans-serif" font-size="20" lengthAdjust="spacing" textLength="458" x="13" y="166.56">+getController() : ListAnnouncementsController</text></g><!--class Address--><g id="elem_Address"><rect codeLine="62" fill="#F1F1F1" height="167.7734" id="Address" rx="2.5" ry="2.5" style="stroke:#181818;stroke-width:0.5;" width="165" x="1663.5" y="1435.31"/><ellipse cx="1702.9" cy="1452.31" fill="#ADD1B2" rx="12" ry="12" style="stroke:#181818;stroke-width:1.0;"/><path d="M1705.7066,1459.3901 Q1705.023,1459.7416 1704.2711,1459.9174 Q1703.5191,1460.0932 1702.6891,1460.0932 Q1699.7398,1460.0932 1698.1871,1458.1498 Q1696.6344,1456.2065 1696.6344,1452.5346 Q1696.6344,1448.853 1698.1871,1446.9096 Q1699.7398,1444.9663 1702.6891,1444.9663 Q1703.5191,1444.9663 1704.2809,1445.142 Q1705.0426,1445.3178 1705.7066,1445.6694 L1705.7066,1448.8725 Q1704.9645,1448.1889 1704.2662,1447.8715 Q1703.568,1447.5541 1702.8258,1447.5541 Q1701.2438,1447.5541 1700.4381,1448.809 Q1699.6324,1450.0639 1699.6324,1452.5346 Q1699.6324,1454.9955 1700.4381,1456.2504 Q1701.2438,1457.5053 1702.8258,1457.5053 Q1703.568,1457.5053 1704.2662,1457.1879 Q1704.9645,1456.8705 1705.7066,1456.187 Z " fill="#000000"/><text fill="#000000" font-family="sans-serif" font-size="20" lengthAdjust="spacing" textLength="79" x="1723.1" y="1459.8686">Address</text><line style="stroke:#181818;stroke-width:0.5;" x1="1664.5" x2="1827.5" y1="1469.31" y2="1469.31"/><text fill="#000000" font-family="sans-serif" font-size="20" lengthAdjust="spacing" textLength="140" x="1669.5" y="1492.6459">-street : String</text><text fill="#000000" font-family="sans-serif" font-size="20" lengthAdjust="spacing" textLength="119" x="1669.5" y="1516.2006">-city : String</text><text fill="#000000" font-family="sans-serif" font-size="20" lengthAdjust="spacing" textLength="153" x="1669.5" y="1539.7553">-district : String</text><text fill="#000000" font-family="sans-serif" font-size="20" lengthAdjust="spacing" textLength="132" x="1669.5" y="1563.31">-state : String</text><text fill="#000000" font-family="sans-serif" font-size="20" lengthAdjust="spacing" textLength="135" x="1669.5" y="1586.8647">-zipCode : int</text><line style="stroke:#181818;stroke-width:0.5;" x1="1664.5" x2="1827.5" y1="1595.0834" y2="1595.0834"/></g><!--link Repositories to Repositories--><g id="link_Repositories_Repositories"><path codeLine="70" d="M1805.37,307.02 C1826.84,309.86 1840,314.07 1840,319.66 C1840,324.73 1829.19,328.66 1811.19,331.47 " fill="none" id="Repositories-to-Repositories" style="stroke:#181818;stroke-width:1.0;"/><polygon fill="#181818" points="1806.37,332.3,1815.8496,334.9717,1811.3186,331.5849,1814.7054,327.0539,1806.37,332.3" style="stroke:#181818;stroke-width:1.0;"/><text fill="#000000" font-family="sans-serif" font-size="20" lengthAdjust="spacing" textLength="89" x="1846" y="327.4959">instances</text></g><!--link ListAnouncementsUI to ListAnnouncementsController--><g id="link_ListAnouncementsUI_ListAnnouncementsController"><path codeLine="72" d="M1115.37,102.67 C1124.51,102.67 1133.92,102.67 1143.51,102.67 " fill="none" id="ListAnouncementsUI-to-ListAnnouncementsController" style="stroke:#181818;stroke-width:1.0;stroke-dasharray:7.0,7.0;"/><polygon fill="#181818" points="1148.51,102.67,1139.51,98.67,1143.51,102.67,1139.51,106.67,1148.51,102.67" style="stroke:#181818;stroke-width:1.0;"/></g><!--link ListAnnouncementsController to Repositories--><g id="link_ListAnnouncementsController_Repositories"><path codeLine="74" d="M1702.21,198.59 C1671.87,217.95 1640.67,237.85 1612.61,255.75 " fill="none" id="ListAnnouncementsController-to-Repositories" style="stroke:#181818;stroke-width:1.0;stroke-dasharray:7.0,7.0;"/><polygon fill="#181818" points="1608.78,258.84,1618.5195,257.3764,1612.9965,256.1528,1614.2201,250.6299,1608.78,258.84" style="stroke:#181818;stroke-width:1.0;"/></g><!--link Repositories to AnnouncementRepository--><g id="link_Repositories_AnnouncementRepository"><path codeLine="76" d="M1574.96,380.36 C1600.04,404.92 1629.58,433.86 1657,460.72 " fill="none" id="Repositories-to-AnnouncementRepository" style="stroke:#181818;stroke-width:1.0;"/><polygon fill="#181818" points="1660.03,463.66,1656.3648,454.5185,1656.4448,460.1748,1650.7885,460.2548,1660.03,463.66" style="stroke:#181818;stroke-width:1.0;"/><text fill="#000000" font-family="sans-serif" font-size="20" lengthAdjust="spacing" textLength="33" x="1631" y="430.3259">has</text><text fill="#000000" font-family="sans-serif" font-size="20" lengthAdjust="spacing" textLength="13" x="1567.5762" y="407.17">1</text><text fill="#000000" font-family="sans-serif" font-size="20" lengthAdjust="spacing" textLength="13" x="1640.1693" y="452.7941">1</text></g><!--link ListAnnouncementsController to AnnouncementRepository--><g id="link_ListAnnouncementsController_AnnouncementRepository"><path codeLine="78" d="M1905.95,198.7 C1924.68,231.11 1941,259.33 1941,259.33 C1941,259.33 1941,379.99 1941,379.99 C1941,379.99 1894.52,420.01 1846.95,460.97 " fill="none" id="ListAnnouncementsController-to-AnnouncementRepository" style="stroke:#181818;stroke-width:1.0;stroke-dasharray:7.0,7.0;"/><polygon fill="#181818" points="1843.64,464.68,1853.0712,461.8423,1847.4302,461.419,1847.8536,455.778,1843.64,464.68" style="stroke:#181818;stroke-width:1.0;"/></g><!--link AnnouncementRepository to Announcement--><g id="link_AnnouncementRepository_Announcement"><path codeLine="80" d="M1746,632.86 C1746,657.2 1746,684.58 1746,711.67 " fill="none" id="AnnouncementRepository-to-Announcement" style="stroke:#181818;stroke-width:1.0;"/><polygon fill="#181818" points="1746,716.45,1750,707.45,1746,711.45,1742,707.45,1746,716.45" style="stroke:#181818;stroke-width:1.0;"/><text fill="#000000" font-family="sans-serif" font-size="20" lengthAdjust="spacing" textLength="33" x="1747" y="683.1059">has</text><text fill="#000000" font-family="sans-serif" font-size="20" lengthAdjust="spacing" textLength="13" x="1732.4617" y="660.1261">1</text><text fill="#000000" font-family="sans-serif" font-size="20" lengthAdjust="spacing" textLength="10" x="1735.7266" y="705.3468">*</text></g><!--link Announcement to Property--><g id="link_Announcement_Property"><path codeLine="82" d="M1746,1003.57 C1746,1029.49 1746,1056.49 1746,1082.24 " fill="none" id="Announcement-to-Property" style="stroke:#181818;stroke-width:1.0;"/><polygon fill="#181818" points="1746,1087.05,1750,1078.05,1746,1082.05,1742,1078.05,1746,1087.05" style="stroke:#181818;stroke-width:1.0;"/><text fill="#000000" font-family="sans-serif" font-size="20" lengthAdjust="spacing" textLength="33" x="1747" y="1053.6459">has</text><text fill="#000000" font-family="sans-serif" font-size="20" lengthAdjust="spacing" textLength="13" x="1732.6648" y="1030.888">1</text><text fill="#000000" font-family="sans-serif" font-size="20" lengthAdjust="spacing" textLength="13" x="1732.6242" y="1076.1489">1</text></g><!--link Property to Address--><g id="link_Property_Address"><path codeLine="84" d="M1746,1350.53 C1746,1377.06 1746,1404.38 1746,1429.08 " fill="none" id="Property-to-Address" style="stroke:#181818;stroke-width:1.0;"/><polygon fill="#181818" points="1746,1433.97,1750,1424.97,1746,1428.97,1742,1424.97,1746,1433.97" style="stroke:#181818;stroke-width:1.0;"/><text fill="#000000" font-family="sans-serif" font-size="20" lengthAdjust="spacing" textLength="33" x="1747" y="1400.6459">has</text><text fill="#000000" font-family="sans-serif" font-size="20" lengthAdjust="spacing" textLength="13" x="1732.6445" y="1377.6863">1</text><text fill="#000000" font-family="sans-serif" font-size="20" lengthAdjust="spacing" textLength="13" x="1732.4414" y="1423.1033">1</text></g><!--SRC=[rLPBQnin4Bxlhn2vn6dYaFPeWY5r21WACN5xwqNU7Nk5jPf5qb8sfV-zUkn3shMTfeJG-hBMp6Zccq-V7chFH4abBJYcUyX81bjQSVs0Gg_PCv1FDycvQcD8WGBJN681HCiAajvJqdHFTx3MDGSY8TLKx7WOe7AQuGycTcHBkGezd0dGTGcaH5xRGLYnSwBKc0IpKawLkjDQiasbOPcYS7XlakISmrOJZKIoNQv9nYmSXecRGLOIIv2w_faGzviIAe6I6ScmsXZ4hJLZolIGmeFfTW52Wnp7b9AbC3RJB9DWIit8dV_NU2x93dHZcbmSSHimpXVbTAxx4I8No8GEerOMqw4C6jU6BB5pFlyt-PKqhDm9WPN9NPYyn54p9PRsnstBbvdqDJ8qGP8AHIs_mhfjL6pnOQM1mbH-JxKDiHzlJx5WIfbGOrrWqGoQEJbgDD2afFKNq_ljoXhctidKogSqcfsH3I87sinZMS-A7IrCPtxv6cF3as_3qH7sz0gcdg14nJJAsdD6BkqASXx6gBLHBcIVwtlOLfJhXMG63FEBtFSMJfc_cCj-kqGU8L61xQg1RNPD1l9FAZqmRcP25fMRn2i-KCJLSAc7OhYoX1DH5HkGZzidn4Az3ahc-trJJD_565L7rzzns6cZqmC3rIeYj4qkkYQNmczc9uCmfb_xWqBpiZdewd5OZ15f2tESI-JSx8BctEig72mG92LlhUjt5FO9PR-tiFzpPNj5zLY_BLjzfpca-wKeAsr1J8QWHymDu8MuXjAsHH_By28PROn_aRGMPx_ft9uuiIc3syM_23otKwAq1D3zBUIjANFNSMIppnLpyuzYpIdZhjp8-CpA1MRGt8YcU7HmJUVnGMQZ_66bakI04Axd9tjBJfr6rzTniG6KiuzdP6hmsE-HYtT6SgfUBdBao4oEPEqAVuWBj-KYMuWoU2wvm6uSjT8z45tCRm00]--></g></svg>