<?xml version="1.0" encoding="UTF-8" standalone="no"?><svg xmlns="http://www.w3.org/2000/svg" xmlns:xlink="http://www.w3.org/1999/xlink" contentStyleType="text/css" height="2134px" preserveAspectRatio="none" style="width:3177px;height:2134px;background:#FFFFFF;" version="1.1" viewBox="0 0 3177 2134" width="3177px" zoomAndPan="magnify"><defs/><g><rect fill="#FFFFFF" height="1938.5078" style="stroke:#181818;stroke-width:1.0;" width="10" x="86.5" y="98.5547"/><rect fill="#FFFFFF" height="37.5547" style="stroke:#181818;stroke-width:1.0;" width="10" x="373.5" y="128.1094"/><rect fill="#FFFFFF" height="37.5547" style="stroke:#181818;stroke-width:1.0;" width="10" x="706.5" y="165.6641"/><rect fill="#FFFFFF" height="37.5547" style="stroke:#181818;stroke-width:1.0;" width="10" x="706.5" y="281.8828"/><rect fill="#FFFFFF" height="489.2109" style="stroke:#181818;stroke-width:1.0;" width="10" x="706.5" y="356.9922"/><rect fill="#FFFFFF" height="37.5547" style="stroke:#181818;stroke-width:1.0;" width="10" x="1145.5" y="846.2031"/><rect fill="#FFFFFF" height="281.8828" style="stroke:#181818;stroke-width:1.0;" width="10" x="1145.5" y="962.4219"/><rect fill="#FFFFFF" height="360.1016" style="stroke:#181818;stroke-width:1.0;" width="10" x="1145.5" y="1329.9688"/><rect fill="#FFFFFF" height="37.5547" style="stroke:#181818;stroke-width:1.0;" width="10" x="1499.5" y="1690.0703"/><rect fill="#FFFFFF" height="262.8828" style="stroke:#181818;stroke-width:1.0;" width="10" x="1499.5" y="1765.1797"/><rect fill="#FFFFFF" height="343.9922" style="stroke:#181818;stroke-width:1.0;" width="10" x="1715" y="394.5469"/><rect fill="#FFFFFF" height="265.8828" style="stroke:#181818;stroke-width:1.0;" width="10" x="1884" y="435.1016"/><rect fill="#FFFFFF" height="112.6641" style="stroke:#181818;stroke-width:1.0;" width="10" x="2091" y="475.6563"/><rect fill="#FFFFFF" height="37.5547" style="stroke:#181818;stroke-width:1.0;" width="10" x="2339" y="513.2109"/><rect fill="#FFFFFF" height="37.5547" style="stroke:#181818;stroke-width:1.0;" width="10" x="2339" y="625.875"/><rect fill="#FFFFFF" height="241.3281" style="stroke:#181818;stroke-width:1.0;" width="10" x="2579.5" y="1002.9766"/><rect fill="#FFFFFF" height="187.7734" style="stroke:#181818;stroke-width:1.0;" width="10" x="2579.5" y="1802.7344"/><rect fill="#FFFFFF" height="112.6641" style="stroke:#181818;stroke-width:1.0;" width="10" x="2764.5" y="1840.2891"/><rect fill="#FFFFFF" height="37.5547" style="stroke:#181818;stroke-width:1.0;" width="10" x="2913.5" y="1043.5313"/><rect fill="#FFFFFF" height="88.1094" style="stroke:#181818;stroke-width:1.0;" width="10" x="2913.5" y="1118.6406"/><rect fill="#FFFFFF" height="37.5547" style="stroke:#181818;stroke-width:1.0;" width="10" x="2913.5" y="1877.8438"/><rect fill="none" height="591.4297" style="stroke:#000000;stroke-width:1.5;" width="2474" x="10" y="218.2188"/><rect fill="none" height="353.5469" style="stroke:#000000;stroke-width:1.5;" width="3161.5" x="10" y="898.7578"/><rect fill="none" height="387.2109" style="stroke:#000000;stroke-width:1.5;" width="1308" x="10" y="1266.3047"/><line style="stroke:#181818;stroke-width:0.5;stroke-dasharray:5.0,5.0;" x1="91" x2="91" y1="88.5547" y2="2046.0625"/><line style="stroke:#181818;stroke-width:0.5;stroke-dasharray:5.0,5.0;" x1="378.5" x2="378.5" y1="88.5547" y2="2046.0625"/><line style="stroke:#181818;stroke-width:0.5;stroke-dasharray:5.0,5.0;" x1="711.5" x2="711.5" y1="88.5547" y2="2046.0625"/><line style="stroke:#181818;stroke-width:0.5;stroke-dasharray:5.0,5.0;" x1="1150" x2="1150" y1="88.5547" y2="2046.0625"/><line style="stroke:#181818;stroke-width:0.5;stroke-dasharray:5.0,5.0;" x1="1504.5" x2="1504.5" y1="88.5547" y2="2046.0625"/><line style="stroke:#181818;stroke-width:0.5;stroke-dasharray:5.0,5.0;" x1="1719.5" x2="1719.5" y1="88.5547" y2="2046.0625"/><line style="stroke:#181818;stroke-width:0.5;stroke-dasharray:5.0,5.0;" x1="1888.5" x2="1888.5" y1="88.5547" y2="2046.0625"/><line style="stroke:#181818;stroke-width:0.5;stroke-dasharray:5.0,5.0;" x1="2095.5" x2="2095.5" y1="88.5547" y2="2046.0625"/><line style="stroke:#181818;stroke-width:0.5;stroke-dasharray:5.0,5.0;" x1="2344" x2="2344" y1="88.5547" y2="2046.0625"/><line style="stroke:#181818;stroke-width:0.5;stroke-dasharray:5.0,5.0;" x1="2584" x2="2584" y1="88.5547" y2="2046.0625"/><line style="stroke:#181818;stroke-width:0.5;stroke-dasharray:5.0,5.0;" x1="2769" x2="2769" y1="88.5547" y2="2046.0625"/><line style="stroke:#181818;stroke-width:0.5;stroke-dasharray:5.0,5.0;" x1="2918" x2="2918" y1="88.5547" y2="2046.0625"/><text fill="#000000" font-family="sans-serif" font-size="20" lengthAdjust="spacing" textLength="137" x="20" y="84.3359">Store Manager</text><ellipse cx="91.5" cy="13.5" fill="#E3E3E3" rx="8" ry="8" style="stroke:#181818;stroke-width:0.5;"/><path d="M91.5,21.5 L91.5,48.5 M78.5,29.5 L104.5,29.5 M91.5,48.5 L78.5,63.5 M91.5,48.5 L104.5,63.5 " fill="none" style="stroke:#181818;stroke-width:0.5;"/><text fill="#000000" font-family="sans-serif" font-size="20" lengthAdjust="spacing" textLength="137" x="20" y="2064.3984">Store Manager</text><ellipse cx="91.5" cy="2077.1172" fill="#E3E3E3" rx="8" ry="8" style="stroke:#181818;stroke-width:0.5;"/><path d="M91.5,2085.1172 L91.5,2112.1172 M78.5,2093.1172 L104.5,2093.1172 M91.5,2112.1172 L78.5,2127.1172 M91.5,2112.1172 L104.5,2127.1172 " fill="none" style="stroke:#181818;stroke-width:0.5;"/><rect fill="#E3E3E3" height="37.5547" rx="2.5" ry="2.5" style="stroke:#181818;stroke-width:0.5;" width="226" x="265.5" y="50"/><text fill="#000000" font-family="sans-serif" font-size="20" lengthAdjust="spacing" textLength="212" x="272.5" y="76.3359">:StoreManagerWindow</text><rect fill="#E3E3E3" height="37.5547" rx="2.5" ry="2.5" style="stroke:#181818;stroke-width:0.5;" width="226" x="265.5" y="2045.0625"/><text fill="#000000" font-family="sans-serif" font-size="20" lengthAdjust="spacing" textLength="212" x="272.5" y="2071.3984">:StoreManagerWindow</text><rect fill="#E3E3E3" height="37.5547" rx="2.5" ry="2.5" style="stroke:#181818;stroke-width:0.5;" width="222" x="600.5" y="50"/><text fill="#000000" font-family="sans-serif" font-size="20" lengthAdjust="spacing" textLength="208" x="607.5" y="76.3359">:AnalyseDealsWindow</text><rect fill="#E3E3E3" height="37.5547" rx="2.5" ry="2.5" style="stroke:#181818;stroke-width:0.5;" width="222" x="600.5" y="2045.0625"/><text fill="#000000" font-family="sans-serif" font-size="20" lengthAdjust="spacing" textLength="208" x="607.5" y="2071.3984">:AnalyseDealsWindow</text><rect fill="#E3E3E3" height="37.5547" rx="2.5" ry="2.5" style="stroke:#181818;stroke-width:0.5;" width="315" x="993" y="50"/><text fill="#000000" font-family="sans-serif" font-size="20" lengthAdjust="spacing" textLength="301" x="1000" y="76.3359">:SelectRegressionModelWindow</text><rect fill="#E3E3E3" height="37.5547" rx="2.5" ry="2.5" style="stroke:#181818;stroke-width:0.5;" width="315" x="993" y="2045.0625"/><text fill="#000000" font-family="sans-serif" font-size="20" lengthAdjust="spacing" textLength="301" x="1000" y="2071.3984">:SelectRegressionModelWindow</text><rect fill="#E3E3E3" height="37.5547" rx="2.5" ry="2.5" style="stroke:#181818;stroke-width:0.5;" width="230" x="1389.5" y="50"/><text fill="#000000" font-family="sans-serif" font-size="20" lengthAdjust="spacing" textLength="216" x="1396.5" y="76.3359">:ShowStatisticsWindow</text><rect fill="#E3E3E3" height="37.5547" rx="2.5" ry="2.5" style="stroke:#181818;stroke-width:0.5;" width="230" x="1389.5" y="2045.0625"/><text fill="#000000" font-family="sans-serif" font-size="20" lengthAdjust="spacing" textLength="216" x="1396.5" y="2071.3984">:ShowStatisticsWindow</text><rect fill="#E3E3E3" height="37.5547" rx="2.5" ry="2.5" style="stroke:#181818;stroke-width:0.5;" width="181" x="1629.5" y="50"/><text fill="#000000" font-family="sans-serif" font-size="20" lengthAdjust="spacing" textLength="167" x="1636.5" y="76.3359">:ImportController</text><rect fill="#E3E3E3" height="37.5547" rx="2.5" ry="2.5" style="stroke:#181818;stroke-width:0.5;" width="181" x="1629.5" y="2045.0625"/><text fill="#000000" font-family="sans-serif" font-size="20" lengthAdjust="spacing" textLength="167" x="1636.5" y="2071.3984">:ImportController</text><rect fill="#E3E3E3" height="37.5547" rx="2.5" ry="2.5" style="stroke:#181818;stroke-width:0.5;" width="123" x="1827.5" y="50"/><text fill="#000000" font-family="sans-serif" font-size="20" lengthAdjust="spacing" textLength="109" x="1834.5" y="76.3359">:CSVImport</text><rect fill="#E3E3E3" height="37.5547" rx="2.5" ry="2.5" style="stroke:#181818;stroke-width:0.5;" width="123" x="1827.5" y="2045.0625"/><text fill="#000000" font-family="sans-serif" font-size="20" lengthAdjust="spacing" textLength="109" x="1834.5" y="2071.3984">:CSVImport</text><rect fill="#E3E3E3" height="61.1094" rx="2.5" ry="2.5" style="stroke:#181818;stroke-width:0.5;" width="139" x="2026.5" y="26.4453"/><text fill="#000000" font-family="sans-serif" font-size="20" lengthAdjust="spacing" textLength="114" x="2039" y="52.7813">repositories</text><text fill="#000000" font-family="sans-serif" font-size="20" lengthAdjust="spacing" textLength="125" x="2033.5" y="76.3359">:Repositories</text><rect fill="#E3E3E3" height="61.1094" rx="2.5" ry="2.5" style="stroke:#181818;stroke-width:0.5;" width="139" x="2026.5" y="2045.0625"/><text fill="#000000" font-family="sans-serif" font-size="20" lengthAdjust="spacing" textLength="114" x="2039" y="2071.3984">repositories</text><text fill="#000000" font-family="sans-serif" font-size="20" lengthAdjust="spacing" textLength="125" x="2033.5" y="2094.9531">:Repositories</text><rect fill="#E3E3E3" height="61.1094" rx="2.5" ry="2.5" style="stroke:#181818;stroke-width:0.5;" width="260" x="2214" y="26.4453"/><text fill="#000000" font-family="sans-serif" font-size="20" lengthAdjust="spacing" textLength="149" x="2269.5" y="52.7813">:dealRepository</text><text fill="#000000" font-family="sans-serif" font-size="20" lengthAdjust="spacing" textLength="246" x="2221" y="76.3359">AnnouncementRepository</text><rect fill="#E3E3E3" height="61.1094" rx="2.5" ry="2.5" style="stroke:#181818;stroke-width:0.5;" width="260" x="2214" y="2045.0625"/><text fill="#000000" font-family="sans-serif" font-size="20" lengthAdjust="spacing" textLength="149" x="2269.5" y="2071.3984">:dealRepository</text><text fill="#000000" font-family="sans-serif" font-size="20" lengthAdjust="spacing" textLength="246" x="2221" y="2094.9531">AnnouncementRepository</text><rect fill="#E3E3E3" height="37.5547" rx="2.5" ry="2.5" style="stroke:#181818;stroke-width:0.5;" width="201" x="2484" y="50"/><text fill="#000000" font-family="sans-serif" font-size="20" lengthAdjust="spacing" textLength="187" x="2491" y="76.3359">:StatisticsController</text><rect fill="#E3E3E3" height="37.5547" rx="2.5" ry="2.5" style="stroke:#181818;stroke-width:0.5;" width="201" x="2484" y="2045.0625"/><text fill="#000000" font-family="sans-serif" font-size="20" lengthAdjust="spacing" textLength="187" x="2491" y="2071.3984">:StatisticsController</text><rect fill="#E3E3E3" height="37.5547" rx="2.5" ry="2.5" style="stroke:#181818;stroke-width:0.5;" width="149" x="2695" y="50"/><text fill="#000000" font-family="sans-serif" font-size="20" lengthAdjust="spacing" textLength="135" x="2702" y="76.3359">:StatisticsDTO</text><rect fill="#E3E3E3" height="37.5547" rx="2.5" ry="2.5" style="stroke:#181818;stroke-width:0.5;" width="149" x="2695" y="2045.0625"/><text fill="#000000" font-family="sans-serif" font-size="20" lengthAdjust="spacing" textLength="135" x="2702" y="2071.3984">:StatisticsDTO</text><rect fill="#E3E3E3" height="37.5547" rx="2.5" ry="2.5" style="stroke:#181818;stroke-width:0.5;" width="105" x="2866" y="50"/><text fill="#000000" font-family="sans-serif" font-size="20" lengthAdjust="spacing" textLength="91" x="2873" y="76.3359">:Statistics</text><rect fill="#E3E3E3" height="37.5547" rx="2.5" ry="2.5" style="stroke:#181818;stroke-width:0.5;" width="105" x="2866" y="2045.0625"/><text fill="#000000" font-family="sans-serif" font-size="20" lengthAdjust="spacing" textLength="91" x="2873" y="2071.3984">:Statistics</text><rect fill="#FFFFFF" height="1938.5078" style="stroke:#181818;stroke-width:1.0;" width="10" x="86.5" y="98.5547"/><rect fill="#FFFFFF" height="37.5547" style="stroke:#181818;stroke-width:1.0;" width="10" x="373.5" y="128.1094"/><rect fill="#FFFFFF" height="37.5547" style="stroke:#181818;stroke-width:1.0;" width="10" x="706.5" y="165.6641"/><rect fill="#FFFFFF" height="37.5547" style="stroke:#181818;stroke-width:1.0;" width="10" x="706.5" y="281.8828"/><rect fill="#FFFFFF" height="489.2109" style="stroke:#181818;stroke-width:1.0;" width="10" x="706.5" y="356.9922"/><rect fill="#FFFFFF" height="37.5547" style="stroke:#181818;stroke-width:1.0;" width="10" x="1145.5" y="846.2031"/><rect fill="#FFFFFF" height="281.8828" style="stroke:#181818;stroke-width:1.0;" width="10" x="1145.5" y="962.4219"/><rect fill="#FFFFFF" height="360.1016" style="stroke:#181818;stroke-width:1.0;" width="10" x="1145.5" y="1329.9688"/><rect fill="#FFFFFF" height="37.5547" style="stroke:#181818;stroke-width:1.0;" width="10" x="1499.5" y="1690.0703"/><rect fill="#FFFFFF" height="262.8828" style="stroke:#181818;stroke-width:1.0;" width="10" x="1499.5" y="1765.1797"/><rect fill="#FFFFFF" height="343.9922" style="stroke:#181818;stroke-width:1.0;" width="10" x="1715" y="394.5469"/><rect fill="#FFFFFF" height="265.8828" style="stroke:#181818;stroke-width:1.0;" width="10" x="1884" y="435.1016"/><rect fill="#FFFFFF" height="112.6641" style="stroke:#181818;stroke-width:1.0;" width="10" x="2091" y="475.6563"/><rect fill="#FFFFFF" height="37.5547" style="stroke:#181818;stroke-width:1.0;" width="10" x="2339" y="513.2109"/><rect fill="#FFFFFF" height="37.5547" style="stroke:#181818;stroke-width:1.0;" width="10" x="2339" y="625.875"/><rect fill="#FFFFFF" height="241.3281" style="stroke:#181818;stroke-width:1.0;" width="10" x="2579.5" y="1002.9766"/><rect fill="#FFFFFF" height="187.7734" style="stroke:#181818;stroke-width:1.0;" width="10" x="2579.5" y="1802.7344"/><rect fill="#FFFFFF" height="112.6641" style="stroke:#181818;stroke-width:1.0;" width="10" x="2764.5" y="1840.2891"/><rect fill="#FFFFFF" height="37.5547" style="stroke:#181818;stroke-width:1.0;" width="10" x="2913.5" y="1043.5313"/><rect fill="#FFFFFF" height="88.1094" style="stroke:#181818;stroke-width:1.0;" width="10" x="2913.5" y="1118.6406"/><rect fill="#FFFFFF" height="37.5547" style="stroke:#181818;stroke-width:1.0;" width="10" x="2913.5" y="1877.8438"/><polygon fill="#181818" points="361.5,124.1094,371.5,128.1094,361.5,132.1094,365.5,128.1094" style="stroke:#181818;stroke-width:1.0;"/><line style="stroke:#181818;stroke-width:1.0;" x1="96.5" x2="367.5" y1="128.1094" y2="128.1094"/><text fill="#000000" font-family="sans-serif" font-size="20" font-weight="bold" lengthAdjust="spacing" textLength="13" x="103.5" y="121.8906">1</text><text fill="#000000" font-family="sans-serif" font-size="20" lengthAdjust="spacing" textLength="241" x="120.5" y="121.8906">requests to analyse deals</text><polygon fill="#181818" points="694.5,161.6641,704.5,165.6641,694.5,169.6641,698.5,165.6641" style="stroke:#181818;stroke-width:1.0;"/><line style="stroke:#181818;stroke-width:1.0;" x1="378.5" x2="700.5" y1="165.6641" y2="165.6641"/><text fill="#000000" font-family="sans-serif" font-size="20" font-weight="bold" lengthAdjust="spacing" textLength="13" x="385.5" y="159.4453">2</text><text fill="#000000" font-family="sans-serif" font-size="20" lengthAdjust="spacing" textLength="287" x="402.5" y="159.4453">displays AnalyseDealsWindow</text><polygon fill="#181818" points="107.5,199.2188,97.5,203.2188,107.5,207.2188,103.5,203.2188" style="stroke:#181818;stroke-width:1.0;"/><line style="stroke:#181818;stroke-width:1.0;" x1="101.5" x2="710.5" y1="203.2188" y2="203.2188"/><text fill="#000000" font-family="sans-serif" font-size="20" font-weight="bold" lengthAdjust="spacing" textLength="13" x="113.5" y="197">3</text><text fill="#000000" font-family="sans-serif" font-size="20" lengthAdjust="spacing" textLength="455" x="130.5" y="197">displays options (import file, use existing deals</text><path d="M10,218.2188 L82,218.2188 L82,233.7734 L72,243.7734 L10,243.7734 L10,218.2188 " fill="#EEEEEE" style="stroke:#000000;stroke-width:1.5;"/><rect fill="none" height="591.4297" style="stroke:#000000;stroke-width:1.5;" width="2474" x="10" y="218.2188"/><text fill="#000000" font-family="sans-serif" font-size="20" font-weight="bold" lengthAdjust="spacing" textLength="27" x="25" y="238.5547">alt</text><text fill="#000000" font-family="sans-serif" font-size="20" font-weight="bold" lengthAdjust="spacing" textLength="124" x="97" y="239.5547">[import file]</text><polygon fill="#181818" points="694.5,277.8828,704.5,281.8828,694.5,285.8828,698.5,281.8828" style="stroke:#181818;stroke-width:1.0;"/><line style="stroke:#181818;stroke-width:1.0;" x1="96.5" x2="700.5" y1="281.8828" y2="281.8828"/><text fill="#000000" font-family="sans-serif" font-size="20" font-weight="bold" lengthAdjust="spacing" textLength="13" x="103.5" y="275.6641">4</text><text fill="#000000" font-family="sans-serif" font-size="20" lengthAdjust="spacing" textLength="214" x="120.5" y="275.6641">requests to import file</text><polygon fill="#181818" points="107.5,315.4375,97.5,319.4375,107.5,323.4375,103.5,319.4375" style="stroke:#181818;stroke-width:1.0;"/><line style="stroke:#181818;stroke-width:1.0;" x1="101.5" x2="710.5" y1="319.4375" y2="319.4375"/><text fill="#000000" font-family="sans-serif" font-size="20" font-weight="bold" lengthAdjust="spacing" textLength="13" x="113.5" y="313.2188">5</text><text fill="#000000" font-family="sans-serif" font-size="20" lengthAdjust="spacing" textLength="196" x="130.5" y="313.2188">displays file chooser</text><polygon fill="#181818" points="694.5,352.9922,704.5,356.9922,694.5,360.9922,698.5,356.9922" style="stroke:#181818;stroke-width:1.0;"/><line style="stroke:#181818;stroke-width:1.0;" x1="96.5" x2="700.5" y1="356.9922" y2="356.9922"/><text fill="#000000" font-family="sans-serif" font-size="20" font-weight="bold" lengthAdjust="spacing" textLength="13" x="103.5" y="350.7734">6</text><text fill="#000000" font-family="sans-serif" font-size="20" lengthAdjust="spacing" textLength="198" x="120.5" y="350.7734">Selects file to import</text><polygon fill="#181818" points="1703,390.5469,1713,394.5469,1703,398.5469,1707,394.5469" style="stroke:#181818;stroke-width:1.0;"/><line style="stroke:#181818;stroke-width:1.0;" x1="716.5" x2="1709" y1="394.5469" y2="394.5469"/><text fill="#000000" font-family="sans-serif" font-size="20" font-weight="bold" lengthAdjust="spacing" textLength="13" x="723.5" y="388.3281">7</text><text fill="#000000" font-family="sans-serif" font-size="20" lengthAdjust="spacing" textLength="108" x="740.5" y="388.3281">onBtImport</text><polygon fill="#181818" points="1872,431.1016,1882,435.1016,1872,439.1016,1876,435.1016" style="stroke:#181818;stroke-width:1.0;"/><line style="stroke:#181818;stroke-width:1.0;" x1="1725" x2="1878" y1="435.1016" y2="435.1016"/><text fill="#000000" font-family="sans-serif" font-size="20" font-weight="bold" lengthAdjust="spacing" textLength="13" x="1732" y="428.8828">8</text><text fill="#000000" font-family="sans-serif" font-size="20" lengthAdjust="spacing" textLength="123" x="1749" y="428.8828">importData()</text><path d="M1899,407.5469 L1899,440.5469 L2290,440.5469 L2290,417.5469 L2280,407.5469 L1899,407.5469 " fill="#FAFAFA" style="stroke:#181818;stroke-width:0.5;"/><path d="M2280,407.5469 L2280,417.5469 L2290,417.5469 L2280,407.5469 " fill="#FAFAFA" style="stroke:#181818;stroke-width:0.5;"/><text fill="#000000" font-family="sans-serif" font-size="20" lengthAdjust="spacing" textLength="370" x="1905" y="431.8828">Always creates instance of repositories</text><polygon fill="#181818" points="2079,471.6563,2089,475.6563,2079,479.6563,2083,475.6563" style="stroke:#181818;stroke-width:1.0;"/><line style="stroke:#181818;stroke-width:1.0;" x1="1894" x2="2085" y1="475.6563" y2="475.6563"/><text fill="#000000" font-family="sans-serif" font-size="20" font-weight="bold" lengthAdjust="spacing" textLength="13" x="1901" y="469.4375">9</text><text fill="#000000" font-family="sans-serif" font-size="20" lengthAdjust="spacing" textLength="123" x="1918" y="469.4375">getInstance()</text><polygon fill="#181818" points="2327,509.2109,2337,513.2109,2327,517.2109,2331,513.2109" style="stroke:#181818;stroke-width:1.0;"/><line style="stroke:#181818;stroke-width:1.0;" x1="2101" x2="2333" y1="513.2109" y2="513.2109"/><text fill="#000000" font-family="sans-serif" font-size="20" font-weight="bold" lengthAdjust="spacing" textLength="26" x="2108" y="506.9922">10</text><text fill="#000000" font-family="sans-serif" font-size="20" lengthAdjust="spacing" textLength="189" x="2138" y="506.9922">getDealRepository()</text><polygon fill="#181818" points="2112,546.7656,2102,550.7656,2112,554.7656,2108,550.7656" style="stroke:#181818;stroke-width:1.0;"/><line style="stroke:#181818;stroke-width:1.0;" x1="2106" x2="2343" y1="550.7656" y2="550.7656"/><text fill="#000000" font-family="sans-serif" font-size="20" font-weight="bold" lengthAdjust="spacing" textLength="26" x="2118" y="544.5469">11</text><text fill="#000000" font-family="sans-serif" font-size="20" lengthAdjust="spacing" textLength="143" x="2148" y="544.5469">dealRepository</text><polygon fill="#181818" points="1905,584.3203,1895,588.3203,1905,592.3203,1901,588.3203" style="stroke:#181818;stroke-width:1.0;"/><line style="stroke:#181818;stroke-width:1.0;" x1="1899" x2="2095" y1="588.3203" y2="588.3203"/><text fill="#000000" font-family="sans-serif" font-size="20" font-weight="bold" lengthAdjust="spacing" textLength="26" x="1911" y="582.1016">12</text><text fill="#000000" font-family="sans-serif" font-size="20" lengthAdjust="spacing" textLength="143" x="1941" y="582.1016">dealRepository</text><polygon fill="#181818" points="2327,621.875,2337,625.875,2327,629.875,2331,625.875" style="stroke:#181818;stroke-width:1.0;"/><line style="stroke:#181818;stroke-width:1.0;" x1="1894" x2="2333" y1="625.875" y2="625.875"/><text fill="#000000" font-family="sans-serif" font-size="20" font-weight="bold" lengthAdjust="spacing" textLength="26" x="1901" y="619.6563">13</text><text fill="#000000" font-family="sans-serif" font-size="20" lengthAdjust="spacing" textLength="117" x="1931" y="619.6563">importCSV()</text><polygon fill="#181818" points="1905,659.4297,1895,663.4297,1905,667.4297,1901,663.4297" style="stroke:#181818;stroke-width:1.0;"/><line style="stroke:#181818;stroke-width:1.0;" x1="1899" x2="2343" y1="663.4297" y2="663.4297"/><text fill="#000000" font-family="sans-serif" font-size="20" font-weight="bold" lengthAdjust="spacing" textLength="26" x="1911" y="657.2109">14</text><text fill="#000000" font-family="sans-serif" font-size="20" lengthAdjust="spacing" textLength="73" x="1941" y="657.2109">success</text><polygon fill="#181818" points="1736,696.9844,1726,700.9844,1736,704.9844,1732,700.9844" style="stroke:#181818;stroke-width:1.0;"/><line style="stroke:#181818;stroke-width:1.0;" x1="1730" x2="1888" y1="700.9844" y2="700.9844"/><text fill="#000000" font-family="sans-serif" font-size="20" font-weight="bold" lengthAdjust="spacing" textLength="26" x="1742" y="694.7656">15</text><text fill="#000000" font-family="sans-serif" font-size="20" lengthAdjust="spacing" textLength="73" x="1772" y="694.7656">success</text><polygon fill="#181818" points="727.5,734.5391,717.5,738.5391,727.5,742.5391,723.5,738.5391" style="stroke:#181818;stroke-width:1.0;"/><line style="stroke:#181818;stroke-width:1.0;" x1="721.5" x2="1719" y1="738.5391" y2="738.5391"/><text fill="#000000" font-family="sans-serif" font-size="20" font-weight="bold" lengthAdjust="spacing" textLength="26" x="733.5" y="732.3203">16</text><text fill="#000000" font-family="sans-serif" font-size="20" lengthAdjust="spacing" textLength="73" x="763.5" y="732.3203">success</text><line style="stroke:#000000;stroke-width:1.0;stroke-dasharray:2.0,2.0;" x1="10" x2="2484" y1="747.5391" y2="747.5391"/><text fill="#000000" font-family="sans-serif" font-size="20" font-weight="bold" lengthAdjust="spacing" textLength="202" x="15" y="766.875">[use existing deals]</text><polygon fill="#181818" points="694.5,797.6484,704.5,801.6484,694.5,805.6484,698.5,801.6484" style="stroke:#181818;stroke-width:1.0;"/><line style="stroke:#181818;stroke-width:1.0;" x1="96.5" x2="700.5" y1="801.6484" y2="801.6484"/><text fill="#000000" font-family="sans-serif" font-size="20" font-weight="bold" lengthAdjust="spacing" textLength="26" x="103.5" y="795.4297">17</text><text fill="#000000" font-family="sans-serif" font-size="20" lengthAdjust="spacing" textLength="285" x="133.5" y="795.4297">requests to use existing deals</text><polygon fill="#181818" points="1133.5,842.2031,1143.5,846.2031,1133.5,850.2031,1137.5,846.2031" style="stroke:#181818;stroke-width:1.0;"/><line style="stroke:#181818;stroke-width:1.0;" x1="711.5" x2="1139.5" y1="846.2031" y2="846.2031"/><text fill="#000000" font-family="sans-serif" font-size="20" font-weight="bold" lengthAdjust="spacing" textLength="26" x="718.5" y="839.9844">18</text><text fill="#000000" font-family="sans-serif" font-size="20" lengthAdjust="spacing" textLength="380" x="748.5" y="839.9844">displays SelectRegressionModelWindow</text><polygon fill="#181818" points="107.5,879.7578,97.5,883.7578,107.5,887.7578,103.5,883.7578" style="stroke:#181818;stroke-width:1.0;"/><line style="stroke:#181818;stroke-width:1.0;" x1="101.5" x2="1149.5" y1="883.7578" y2="883.7578"/><text fill="#000000" font-family="sans-serif" font-size="20" font-weight="bold" lengthAdjust="spacing" textLength="26" x="113.5" y="877.5391">19</text><text fill="#000000" font-family="sans-serif" font-size="20" lengthAdjust="spacing" textLength="341" x="143.5" y="877.5391">requests to select regression model</text><path d="M10,898.7578 L89,898.7578 L89,914.3125 L79,924.3125 L10,924.3125 L10,898.7578 " fill="#EEEEEE" style="stroke:#000000;stroke-width:1.5;"/><rect fill="none" height="353.5469" style="stroke:#000000;stroke-width:1.5;" width="3161.5" x="10" y="898.7578"/><text fill="#000000" font-family="sans-serif" font-size="20" font-weight="bold" lengthAdjust="spacing" textLength="34" x="25" y="919.0938">opt</text><text fill="#000000" font-family="sans-serif" font-size="20" font-weight="bold" lengthAdjust="spacing" textLength="222" x="104" y="920.0938">[set confidence level]</text><polygon fill="#181818" points="1133.5,958.4219,1143.5,962.4219,1133.5,966.4219,1137.5,962.4219" style="stroke:#181818;stroke-width:1.0;"/><line style="stroke:#181818;stroke-width:1.0;" x1="96.5" x2="1139.5" y1="962.4219" y2="962.4219"/><text fill="#000000" font-family="sans-serif" font-size="20" font-weight="bold" lengthAdjust="spacing" textLength="26" x="103.5" y="956.2031">20</text><text fill="#000000" font-family="sans-serif" font-size="20" lengthAdjust="spacing" textLength="301" x="133.5" y="956.2031">requests to set confidence level</text><polygon fill="#181818" points="2567.5,998.9766,2577.5,1002.9766,2567.5,1006.9766,2571.5,1002.9766" style="stroke:#181818;stroke-width:1.0;"/><line style="stroke:#181818;stroke-width:1.0;" x1="1155.5" x2="2573.5" y1="1002.9766" y2="1002.9766"/><text fill="#000000" font-family="sans-serif" font-size="20" font-weight="bold" lengthAdjust="spacing" textLength="26" x="1162.5" y="996.7578">21</text><text fill="#000000" font-family="sans-serif" font-size="20" lengthAdjust="spacing" textLength="169" x="1192.5" y="996.7578">OnBtConfidence()</text><path d="M2594,975.4219 L2594,1008.4219 L2956,1008.4219 L2956,985.4219 L2946,975.4219 L2594,975.4219 " fill="#FAFAFA" style="stroke:#181818;stroke-width:0.5;"/><path d="M2946,975.4219 L2946,985.4219 L2956,985.4219 L2946,975.4219 " fill="#FAFAFA" style="stroke:#181818;stroke-width:0.5;"/><text fill="#000000" font-family="sans-serif" font-size="20" lengthAdjust="spacing" textLength="341" x="2600" y="999.7578">Always creates instance of Statistics</text><polygon fill="#181818" points="2901.5,1039.5313,2911.5,1043.5313,2901.5,1047.5313,2905.5,1043.5313" style="stroke:#181818;stroke-width:1.0;"/><line style="stroke:#181818;stroke-width:1.0;" x1="2589.5" x2="2907.5" y1="1043.5313" y2="1043.5313"/><text fill="#000000" font-family="sans-serif" font-size="20" font-weight="bold" lengthAdjust="spacing" textLength="26" x="2596.5" y="1037.3125">22</text><text fill="#000000" font-family="sans-serif" font-size="20" lengthAdjust="spacing" textLength="123" x="2626.5" y="1037.3125">getInstance()</text><polygon fill="#181818" points="2600.5,1077.0859,2590.5,1081.0859,2600.5,1085.0859,2596.5,1081.0859" style="stroke:#181818;stroke-width:1.0;"/><line style="stroke:#181818;stroke-width:1.0;" x1="2594.5" x2="2917.5" y1="1081.0859" y2="1081.0859"/><text fill="#000000" font-family="sans-serif" font-size="20" font-weight="bold" lengthAdjust="spacing" textLength="26" x="2606.5" y="1074.8672">23</text><text fill="#000000" font-family="sans-serif" font-size="20" lengthAdjust="spacing" textLength="84" x="2636.5" y="1074.8672">statistics</text><polygon fill="#181818" points="2901.5,1114.6406,2911.5,1118.6406,2901.5,1122.6406,2905.5,1118.6406" style="stroke:#181818;stroke-width:1.0;"/><line style="stroke:#181818;stroke-width:1.0;" x1="2589.5" x2="2907.5" y1="1118.6406" y2="1118.6406"/><text fill="#000000" font-family="sans-serif" font-size="20" font-weight="bold" lengthAdjust="spacing" textLength="26" x="2596.5" y="1112.4219">24</text><text fill="#000000" font-family="sans-serif" font-size="20" lengthAdjust="spacing" textLength="199" x="2626.5" y="1112.4219">setConfidenceLevel()</text><line style="stroke:#181818;stroke-width:1.0;" x1="2923.5" x2="2965.5" y1="1156.1953" y2="1156.1953"/><line style="stroke:#181818;stroke-width:1.0;" x1="2965.5" x2="2965.5" y1="1156.1953" y2="1169.1953"/><line style="stroke:#181818;stroke-width:1.0;" x1="2924.5" x2="2965.5" y1="1169.1953" y2="1169.1953"/><polygon fill="#181818" points="2934.5,1165.1953,2924.5,1169.1953,2934.5,1173.1953,2930.5,1169.1953" style="stroke:#181818;stroke-width:1.0;"/><text fill="#000000" font-family="sans-serif" font-size="20" font-weight="bold" lengthAdjust="spacing" textLength="26" x="2930.5" y="1149.9766">25</text><text fill="#000000" font-family="sans-serif" font-size="20" lengthAdjust="spacing" textLength="199" x="2960.5" y="1149.9766">setConfidenceLevel()</text><polygon fill="#181818" points="2600.5,1202.75,2590.5,1206.75,2600.5,1210.75,2596.5,1206.75" style="stroke:#181818;stroke-width:1.0;"/><line style="stroke:#181818;stroke-width:1.0;" x1="2594.5" x2="2917.5" y1="1206.75" y2="1206.75"/><text fill="#000000" font-family="sans-serif" font-size="20" font-weight="bold" lengthAdjust="spacing" textLength="26" x="2606.5" y="1200.5313">26</text><text fill="#000000" font-family="sans-serif" font-size="20" lengthAdjust="spacing" textLength="73" x="2636.5" y="1200.5313">success</text><polygon fill="#181818" points="1161.5,1240.3047,1151.5,1244.3047,1161.5,1248.3047,1157.5,1244.3047" style="stroke:#181818;stroke-width:1.0;"/><line style="stroke:#181818;stroke-width:1.0;" x1="1155.5" x2="2583.5" y1="1244.3047" y2="1244.3047"/><text fill="#000000" font-family="sans-serif" font-size="20" font-weight="bold" lengthAdjust="spacing" textLength="26" x="1167.5" y="1238.0859">27</text><text fill="#000000" font-family="sans-serif" font-size="20" lengthAdjust="spacing" textLength="73" x="1197.5" y="1238.0859">success</text><path d="M10,1266.3047 L82,1266.3047 L82,1281.8594 L72,1291.8594 L10,1291.8594 L10,1266.3047 " fill="#EEEEEE" style="stroke:#000000;stroke-width:1.5;"/><rect fill="none" height="387.2109" style="stroke:#000000;stroke-width:1.5;" width="1308" x="10" y="1266.3047"/><text fill="#000000" font-family="sans-serif" font-size="20" font-weight="bold" lengthAdjust="spacing" textLength="27" x="25" y="1286.6406">alt</text><text fill="#000000" font-family="sans-serif" font-size="20" font-weight="bold" lengthAdjust="spacing" textLength="337" x="97" y="1287.6406">[simple regression model (area)]</text><polygon fill="#181818" points="1133.5,1325.9688,1143.5,1329.9688,1133.5,1333.9688,1137.5,1329.9688" style="stroke:#181818;stroke-width:1.0;"/><line style="stroke:#181818;stroke-width:1.0;" x1="96.5" x2="1139.5" y1="1329.9688" y2="1329.9688"/><text fill="#000000" font-family="sans-serif" font-size="20" font-weight="bold" lengthAdjust="spacing" textLength="26" x="103.5" y="1323.75">28</text><text fill="#000000" font-family="sans-serif" font-size="20" lengthAdjust="spacing" textLength="370" x="133.5" y="1323.75">selects simple regression model (area)</text><line style="stroke:#000000;stroke-width:1.0;stroke-dasharray:2.0,2.0;" x1="10" x2="1318" y1="1338.9688" y2="1338.9688"/><text fill="#000000" font-family="sans-serif" font-size="20" font-weight="bold" lengthAdjust="spacing" textLength="507" x="15" y="1358.3047">[simple regression model (distance from center)]</text><polygon fill="#181818" points="1133.5,1389.0781,1143.5,1393.0781,1133.5,1397.0781,1137.5,1393.0781" style="stroke:#181818;stroke-width:1.0;"/><line style="stroke:#181818;stroke-width:1.0;" x1="96.5" x2="1139.5" y1="1393.0781" y2="1393.0781"/><text fill="#000000" font-family="sans-serif" font-size="20" font-weight="bold" lengthAdjust="spacing" textLength="26" x="103.5" y="1386.8594">29</text><text fill="#000000" font-family="sans-serif" font-size="20" lengthAdjust="spacing" textLength="526" x="133.5" y="1386.8594">selects simple regression model (distance from center)</text><line style="stroke:#000000;stroke-width:1.0;stroke-dasharray:2.0,2.0;" x1="10" x2="1318" y1="1402.0781" y2="1402.0781"/><text fill="#000000" font-family="sans-serif" font-size="20" font-weight="bold" lengthAdjust="spacing" textLength="509" x="15" y="1421.4141">[simple regression model (number of bedrooms)]</text><polygon fill="#181818" points="1133.5,1452.1875,1143.5,1456.1875,1133.5,1460.1875,1137.5,1456.1875" style="stroke:#181818;stroke-width:1.0;"/><line style="stroke:#181818;stroke-width:1.0;" x1="96.5" x2="1139.5" y1="1456.1875" y2="1456.1875"/><text fill="#000000" font-family="sans-serif" font-size="20" font-weight="bold" lengthAdjust="spacing" textLength="26" x="103.5" y="1449.9688">30</text><text fill="#000000" font-family="sans-serif" font-size="20" lengthAdjust="spacing" textLength="533" x="133.5" y="1449.9688">selects simple regression model (number of bedrooms)</text><line style="stroke:#000000;stroke-width:1.0;stroke-dasharray:2.0,2.0;" x1="10" x2="1318" y1="1465.1875" y2="1465.1875"/><text fill="#000000" font-family="sans-serif" font-size="20" font-weight="bold" lengthAdjust="spacing" textLength="517" x="15" y="1484.5234">[simple regression model (number of bathrooms)]</text><polygon fill="#181818" points="1133.5,1515.2969,1143.5,1519.2969,1133.5,1523.2969,1137.5,1519.2969" style="stroke:#181818;stroke-width:1.0;"/><line style="stroke:#181818;stroke-width:1.0;" x1="96.5" x2="1139.5" y1="1519.2969" y2="1519.2969"/><text fill="#000000" font-family="sans-serif" font-size="20" font-weight="bold" lengthAdjust="spacing" textLength="26" x="103.5" y="1513.0781">31</text><text fill="#000000" font-family="sans-serif" font-size="20" lengthAdjust="spacing" textLength="539" x="133.5" y="1513.0781">selects simple regression model (number of bathrooms)</text><line style="stroke:#000000;stroke-width:1.0;stroke-dasharray:2.0,2.0;" x1="10" x2="1318" y1="1528.2969" y2="1528.2969"/><text fill="#000000" font-family="sans-serif" font-size="20" font-weight="bold" lengthAdjust="spacing" textLength="563" x="15" y="1547.6328">[simple regression model (number of parking spaces)]</text><polygon fill="#181818" points="1133.5,1578.4063,1143.5,1582.4063,1133.5,1586.4063,1137.5,1582.4063" style="stroke:#181818;stroke-width:1.0;"/><line style="stroke:#181818;stroke-width:1.0;" x1="96.5" x2="1139.5" y1="1582.4063" y2="1582.4063"/><text fill="#000000" font-family="sans-serif" font-size="20" font-weight="bold" lengthAdjust="spacing" textLength="26" x="103.5" y="1576.1875">32</text><text fill="#000000" font-family="sans-serif" font-size="20" lengthAdjust="spacing" textLength="580" x="133.5" y="1576.1875">selects simple regression model (number of parking spaces)</text><line style="stroke:#000000;stroke-width:1.0;stroke-dasharray:2.0,2.0;" x1="10" x2="1318" y1="1591.4063" y2="1591.4063"/><text fill="#000000" font-family="sans-serif" font-size="20" font-weight="bold" lengthAdjust="spacing" textLength="288" x="15" y="1610.7422">[multiple regression model]</text><polygon fill="#181818" points="1133.5,1641.5156,1143.5,1645.5156,1133.5,1649.5156,1137.5,1645.5156" style="stroke:#181818;stroke-width:1.0;"/><line style="stroke:#181818;stroke-width:1.0;" x1="96.5" x2="1139.5" y1="1645.5156" y2="1645.5156"/><text fill="#000000" font-family="sans-serif" font-size="20" font-weight="bold" lengthAdjust="spacing" textLength="26" x="103.5" y="1639.2969">33</text><text fill="#000000" font-family="sans-serif" font-size="20" lengthAdjust="spacing" textLength="324" x="133.5" y="1639.2969">selects multiple regression model</text><polygon fill="#181818" points="1487.5,1686.0703,1497.5,1690.0703,1487.5,1694.0703,1491.5,1690.0703" style="stroke:#181818;stroke-width:1.0;"/><line style="stroke:#181818;stroke-width:1.0;" x1="1150.5" x2="1493.5" y1="1690.0703" y2="1690.0703"/><text fill="#000000" font-family="sans-serif" font-size="20" font-weight="bold" lengthAdjust="spacing" textLength="26" x="1157.5" y="1683.8516">34</text><text fill="#000000" font-family="sans-serif" font-size="20" lengthAdjust="spacing" textLength="295" x="1187.5" y="1683.8516">displays ShowStatisticsWindow</text><polygon fill="#181818" points="107.5,1723.625,97.5,1727.625,107.5,1731.625,103.5,1727.625" style="stroke:#181818;stroke-width:1.0;"/><line style="stroke:#181818;stroke-width:1.0;" x1="101.5" x2="1503.5" y1="1727.625" y2="1727.625"/><text fill="#000000" font-family="sans-serif" font-size="20" font-weight="bold" lengthAdjust="spacing" textLength="26" x="113.5" y="1721.4063">35</text><text fill="#000000" font-family="sans-serif" font-size="20" lengthAdjust="spacing" textLength="402" x="143.5" y="1721.4063">requests to select type of statistic analysis</text><polygon fill="#181818" points="1487.5,1761.1797,1497.5,1765.1797,1487.5,1769.1797,1491.5,1765.1797" style="stroke:#181818;stroke-width:1.0;"/><line style="stroke:#181818;stroke-width:1.0;" x1="96.5" x2="1493.5" y1="1765.1797" y2="1765.1797"/><text fill="#000000" font-family="sans-serif" font-size="20" font-weight="bold" lengthAdjust="spacing" textLength="26" x="103.5" y="1758.9609">36</text><text fill="#000000" font-family="sans-serif" font-size="20" lengthAdjust="spacing" textLength="1085" x="133.5" y="1758.9609">selects type of statistic analysis (coefficients, forecasted prices, hypothesis test, confidence intervals, anova table)</text><polygon fill="#181818" points="2567.5,1798.7344,2577.5,1802.7344,2567.5,1806.7344,2571.5,1802.7344" style="stroke:#181818;stroke-width:1.0;"/><line style="stroke:#181818;stroke-width:1.0;" x1="1509.5" x2="2573.5" y1="1802.7344" y2="1802.7344"/><text fill="#000000" font-family="sans-serif" font-size="20" font-weight="bold" lengthAdjust="spacing" textLength="26" x="1516.5" y="1796.5156">37</text><text fill="#000000" font-family="sans-serif" font-size="20" lengthAdjust="spacing" textLength="129" x="1546.5" y="1796.5156">getStatistics()</text><polygon fill="#181818" points="2752.5,1836.2891,2762.5,1840.2891,2752.5,1844.2891,2756.5,1840.2891" style="stroke:#181818;stroke-width:1.0;"/><line style="stroke:#181818;stroke-width:1.0;" x1="2589.5" x2="2758.5" y1="1840.2891" y2="1840.2891"/><text fill="#000000" font-family="sans-serif" font-size="20" font-weight="bold" lengthAdjust="spacing" textLength="26" x="2596.5" y="1834.0703">38</text><text fill="#000000" font-family="sans-serif" font-size="20" lengthAdjust="spacing" textLength="90" x="2626.5" y="1834.0703">getStats()</text><polygon fill="#181818" points="2901.5,1873.8438,2911.5,1877.8438,2901.5,1881.8438,2905.5,1877.8438" style="stroke:#181818;stroke-width:1.0;"/><line style="stroke:#181818;stroke-width:1.0;" x1="2774.5" x2="2907.5" y1="1877.8438" y2="1877.8438"/><text fill="#000000" font-family="sans-serif" font-size="20" font-weight="bold" lengthAdjust="spacing" textLength="26" x="2781.5" y="1871.625">39</text><text fill="#000000" font-family="sans-serif" font-size="20" lengthAdjust="spacing" textLength="90" x="2811.5" y="1871.625">getStats()</text><polygon fill="#181818" points="2785.5,1911.3984,2775.5,1915.3984,2785.5,1919.3984,2781.5,1915.3984" style="stroke:#181818;stroke-width:1.0;"/><line style="stroke:#181818;stroke-width:1.0;" x1="2779.5" x2="2917.5" y1="1915.3984" y2="1915.3984"/><text fill="#000000" font-family="sans-serif" font-size="20" font-weight="bold" lengthAdjust="spacing" textLength="26" x="2791.5" y="1909.1797">40</text><text fill="#000000" font-family="sans-serif" font-size="20" lengthAdjust="spacing" textLength="45" x="2821.5" y="1909.1797">stats</text><polygon fill="#181818" points="2600.5,1948.9531,2590.5,1952.9531,2600.5,1956.9531,2596.5,1952.9531" style="stroke:#181818;stroke-width:1.0;"/><line style="stroke:#181818;stroke-width:1.0;" x1="2594.5" x2="2768.5" y1="1952.9531" y2="1952.9531"/><text fill="#000000" font-family="sans-serif" font-size="20" font-weight="bold" lengthAdjust="spacing" textLength="26" x="2606.5" y="1946.7344">41</text><text fill="#000000" font-family="sans-serif" font-size="20" lengthAdjust="spacing" textLength="89" x="2636.5" y="1946.7344">statsDTO</text><polygon fill="#181818" points="1520.5,1986.5078,1510.5,1990.5078,1520.5,1994.5078,1516.5,1990.5078" style="stroke:#181818;stroke-width:1.0;"/><line style="stroke:#181818;stroke-width:1.0;" x1="1514.5" x2="2583.5" y1="1990.5078" y2="1990.5078"/><text fill="#000000" font-family="sans-serif" font-size="20" font-weight="bold" lengthAdjust="spacing" textLength="26" x="1526.5" y="1984.2891">42</text><text fill="#000000" font-family="sans-serif" font-size="20" lengthAdjust="spacing" textLength="89" x="1556.5" y="1984.2891">statsDTO</text><polygon fill="#181818" points="107.5,2024.0625,97.5,2028.0625,107.5,2032.0625,103.5,2028.0625" style="stroke:#181818;stroke-width:1.0;"/><line style="stroke:#181818;stroke-width:1.0;" x1="101.5" x2="1503.5" y1="2028.0625" y2="2028.0625"/><text fill="#000000" font-family="sans-serif" font-size="20" font-weight="bold" lengthAdjust="spacing" textLength="26" x="113.5" y="2021.8438">43</text><text fill="#000000" font-family="sans-serif" font-size="20" lengthAdjust="spacing" textLength="356" x="143.5" y="2021.8438">show selected type of statistic results</text><!--SRC=[lLZ1Rjim3BtxAuIUKY03XXrx6D0r651WGu5bs2wxg3QT25KapvBRPLy_IdOTIQOLhqENGz58vECZHL9Kp8DG3M_vGUho0IfMGSqxQJzgPRVYDx1tRmlpBC8EMkbot-e3CDjs4Emql7pWEzZQemJMGccvsibGmEnvfP-4sh6QImD5mJkhLNUuXnR_BwrksSKM_mBxp1KYjHUC6-PNXeK2WQmeHSELPHTNuTPteH1yej4l9thNYikZWGqWZK1lkfpQ0ubkVO5T2yO8hJxh2cHeU7u_HThhfwtbLXXS33bG6udkxQ7HhRt1qscrb4EKqiL4vsRxhPVmmkEtMAg5HXk1mHDWVgYhBy5NhnRk9_WLncoKF_vGrqhfJfLm06LFwnvb4ubEJlJPzSG_QcDMT_FrBb72bLdfHBHm7yn6ySWjnDbNXD_Oc_T4fh4h3DFF3emrp6h6-vHYBZw6HXtEk22mqC8q9z529KmZ-P7CMBIKip9k4ge5OInnCZIk6uivRjXA-5nYjP2mPXrw2xzSAB7EUxS3IfHLBYqB80g6dpJGP1Z2GAS0MOjEuEzyTRYit6jjC0sS-XcV5llGjup1mEZ7lxYGTW8qejK7Uqi0Jvg6tvu08EZOCH2jfxZXbgykOxnJN_7hIkDQAtRxtkpmkPPFBg9b2wXYc506BueIcAxZ1kDaGLKUfSSxaK16eIoIse6z7P1ILX6gtufq4IjkIJrQl9PY9atCRoOeKuvnaqpJY89CYOR7a4UREXr5R-9nVwWeyp9FH_0hPhgonEjlYNiH9I9lPw2IDAFobQor6RXf5G1E9rGZUr5d8d0mhMURxVm84VQZtAHnhjsErqC6eyZncFR9q5_ZDN7fMHL7HjIDBgQSPRnM4CEoKgjQLE1QWuH71A2YdmzNJ6i6SXahR_nSJAOZ2fAum-PxCnfEoukSQpBTyqm73SQOk7yEqICOHippdJGSacAyZFycfXJD9tDm6NfuZgTeVdAdc6EPfJc7zXU-qHrbiMFPx3qB7cHCAfDBPTzztD1biEdxfrfSgMp5CRCkNr1lPXXc5W0lekhxy2mODiC-xsjyZR8INnhGlWfhsb2UNF-iTILv3rMhzS6y2ZNAp69YtEx_2xEJdQNKyAdsuAvBqt0iWLVcbnhp90-Tj8BI_0SkyvY-9CzTByGl0z58GFroiBGddAGeb8AqlMWCiCV6NqpZBJ0yYKNqB9oncaQPZi1pUETDiLMfeQxnyO-rQzQiHjoI6miLQrg1Xxvc-sEZxHwSCDwfTXtE2i8L_2EEK6j4r8-SMNuluVBbGIFl4hntJpkh49qS4SvVbfklToVO6KJtkqWHgn3pG0OWrARCkyE8ZvfKdHYUZ12UAecJ-924OoPdieXHd9Ubla6n8HCngwQfY4M7rNy-wVy0]--></g></svg>