<?xml version="1.0" encoding="UTF-8" standalone="no"?><svg xmlns="http://www.w3.org/2000/svg" xmlns:xlink="http://www.w3.org/1999/xlink" contentStyleType="text/css" height="3021px" preserveAspectRatio="none" style="width:1957px;height:3021px;background:#FFFFFF;" version="1.1" viewBox="0 0 1957 3021" width="1957px" zoomAndPan="magnify"><defs/><g><!--class ImportController--><g id="elem_ImportController"><rect codeLine="8" fill="#F1F1F1" height="73.5547" id="ImportController" rx="2.5" ry="2.5" style="stroke:#181818;stroke-width:0.5;" width="369" x="897" y="617.5"/><ellipse cx="996.5" cy="634.5" fill="#ADD1B2" rx="12" ry="12" style="stroke:#181818;stroke-width:1.0;"/><path d="M999.3066,641.5801 Q998.623,641.9316 997.8711,642.1074 Q997.1191,642.2832 996.2891,642.2832 Q993.3398,642.2832 991.7871,640.3398 Q990.2344,638.3965 990.2344,634.7246 Q990.2344,631.043 991.7871,629.0996 Q993.3398,627.1563 996.2891,627.1563 Q997.1191,627.1563 997.8809,627.332 Q998.6426,627.5078 999.3066,627.8594 L999.3066,631.0625 Q998.5645,630.3789 997.8662,630.0615 Q997.168,629.7441 996.4258,629.7441 Q994.8438,629.7441 994.0381,630.999 Q993.2324,632.2539 993.2324,634.7246 Q993.2324,637.1855 994.0381,638.4404 Q994.8438,639.6953 996.4258,639.6953 Q997.168,639.6953 997.8662,639.3779 Q998.5645,639.0605 999.3066,638.377 Z " fill="#000000"/><text fill="#000000" font-family="sans-serif" font-size="20" lengthAdjust="spacing" textLength="161" x="1018.5" y="642.0586">ImportController</text><line style="stroke:#181818;stroke-width:0.5;" x1="898" x2="1265" y1="651.5" y2="651.5"/><line style="stroke:#181818;stroke-width:0.5;" x1="898" x2="1265" y1="659.5" y2="659.5"/><text fill="#000000" font-family="sans-serif" font-size="20" lengthAdjust="spacing" textLength="357" x="903" y="682.8359">+importData(location) : importResult</text></g><!--class StatisticsController--><g id="elem_StatisticsController"><rect codeLine="12" fill="#F1F1F1" height="97.1094" id="StatisticsController" rx="2.5" ry="2.5" style="stroke:#181818;stroke-width:0.5;" width="431" x="1519" y="1370"/><ellipse cx="1639.5" cy="1387" fill="#ADD1B2" rx="12" ry="12" style="stroke:#181818;stroke-width:1.0;"/><path d="M1642.3066,1394.0801 Q1641.623,1394.4316 1640.8711,1394.6074 Q1640.1191,1394.7832 1639.2891,1394.7832 Q1636.3398,1394.7832 1634.7871,1392.8398 Q1633.2344,1390.8965 1633.2344,1387.2246 Q1633.2344,1383.543 1634.7871,1381.5996 Q1636.3398,1379.6563 1639.2891,1379.6563 Q1640.1191,1379.6563 1640.8809,1379.832 Q1641.6426,1380.0078 1642.3066,1380.3594 L1642.3066,1383.5625 Q1641.5645,1382.8789 1640.8662,1382.5615 Q1640.168,1382.2441 1639.4258,1382.2441 Q1637.8438,1382.2441 1637.0381,1383.499 Q1636.2324,1384.7539 1636.2324,1387.2246 Q1636.2324,1389.6855 1637.0381,1390.9404 Q1637.8438,1392.1953 1639.4258,1392.1953 Q1640.168,1392.1953 1640.8662,1391.8779 Q1641.5645,1391.5605 1642.3066,1390.877 Z " fill="#000000"/><text fill="#000000" font-family="sans-serif" font-size="20" lengthAdjust="spacing" textLength="181" x="1661.5" y="1394.5586">StatisticsController</text><line style="stroke:#181818;stroke-width:0.5;" x1="1520" x2="1949" y1="1404" y2="1404"/><text fill="#000000" font-family="sans-serif" font-size="20" lengthAdjust="spacing" textLength="419" x="1525" y="1427.3359">-dealRepository : AnnouncementRepository</text><line style="stroke:#181818;stroke-width:0.5;" x1="1520" x2="1949" y1="1435.5547" y2="1435.5547"/><text fill="#000000" font-family="sans-serif" font-size="20" lengthAdjust="spacing" textLength="253" x="1525" y="1458.8906">+getStats() : StatisticsDTO</text></g><!--class StatisticsDTO--><g id="elem_StatisticsDTO"><rect codeLine="17" fill="#F1F1F1" height="50" id="StatisticsDTO" rx="2.5" ry="2.5" style="stroke:#181818;stroke-width:0.5;" width="163" x="1382" y="1082"/><ellipse cx="1398" cy="1099" fill="#ADD1B2" rx="12" ry="12" style="stroke:#181818;stroke-width:1.0;"/><path d="M1400.8066,1106.0801 Q1400.123,1106.4316 1399.3711,1106.6074 Q1398.6191,1106.7832 1397.7891,1106.7832 Q1394.8398,1106.7832 1393.2871,1104.8398 Q1391.7344,1102.8965 1391.7344,1099.2246 Q1391.7344,1095.543 1393.2871,1093.5996 Q1394.8398,1091.6563 1397.7891,1091.6563 Q1398.6191,1091.6563 1399.3809,1091.832 Q1400.1426,1092.0078 1400.8066,1092.3594 L1400.8066,1095.5625 Q1400.0645,1094.8789 1399.3662,1094.5615 Q1398.668,1094.2441 1397.9258,1094.2441 Q1396.3438,1094.2441 1395.5381,1095.499 Q1394.7324,1096.7539 1394.7324,1099.2246 Q1394.7324,1101.6855 1395.5381,1102.9404 Q1396.3438,1104.1953 1397.9258,1104.1953 Q1398.668,1104.1953 1399.3662,1103.8779 Q1400.0645,1103.5605 1400.8066,1102.877 Z " fill="#000000"/><text fill="#000000" font-family="sans-serif" font-size="20" lengthAdjust="spacing" textLength="129" x="1413" y="1106.5586">StatisticsDTO</text><line style="stroke:#181818;stroke-width:0.5;" x1="1383" x2="1544" y1="1116" y2="1116"/><line style="stroke:#181818;stroke-width:0.5;" x1="1383" x2="1544" y1="1124" y2="1124"/></g><!--class CSVImport--><g id="elem_CSVImport"><rect codeLine="20" fill="#F1F1F1" height="97.1094" id="CSVImport" rx="2.5" ry="2.5" style="stroke:#181818;stroke-width:0.5;" width="531" x="816" y="1058.5"/><ellipse cx="1025.5" cy="1075.5" fill="#ADD1B2" rx="12" ry="12" style="stroke:#181818;stroke-width:1.0;"/><path d="M1028.3066,1082.5801 Q1027.623,1082.9316 1026.8711,1083.1074 Q1026.1191,1083.2832 1025.2891,1083.2832 Q1022.3398,1083.2832 1020.7871,1081.3398 Q1019.2344,1079.3965 1019.2344,1075.7246 Q1019.2344,1072.043 1020.7871,1070.0996 Q1022.3398,1068.1563 1025.2891,1068.1563 Q1026.1191,1068.1563 1026.8809,1068.332 Q1027.6426,1068.5078 1028.3066,1068.8594 L1028.3066,1072.0625 Q1027.5645,1071.3789 1026.8662,1071.0615 Q1026.168,1070.7441 1025.4258,1070.7441 Q1023.8438,1070.7441 1023.0381,1071.999 Q1022.2324,1073.2539 1022.2324,1075.7246 Q1022.2324,1078.1855 1023.0381,1079.4404 Q1023.8438,1080.6953 1025.4258,1080.6953 Q1026.168,1080.6953 1026.8662,1080.3779 Q1027.5645,1080.0605 1028.3066,1079.377 Z " fill="#000000"/><text fill="#000000" font-family="sans-serif" font-size="20" lengthAdjust="spacing" textLength="103" x="1047.5" y="1083.0586">CSVImport</text><line style="stroke:#181818;stroke-width:0.5;" x1="817" x2="1346" y1="1092.5" y2="1092.5"/><text fill="#000000" font-family="sans-serif" font-size="20" lengthAdjust="spacing" textLength="519" x="822" y="1115.8359">-announcementRepository : AnnouncementRepository</text><line style="stroke:#181818;stroke-width:0.5;" x1="817" x2="1346" y1="1124.0547" y2="1124.0547"/><text fill="#000000" font-family="sans-serif" font-size="20" lengthAdjust="spacing" textLength="139" x="822" y="1147.3906">+importData()</text></g><!--class Repositories--><g id="elem_Repositories"><rect codeLine="26" fill="#F1F1F1" height="120.6641" id="Repositories" rx="2.5" ry="2.5" style="stroke:#181818;stroke-width:0.5;" width="481" x="181" y="1046.5"/><ellipse cx="357.5" cy="1063.5" fill="#ADD1B2" rx="12" ry="12" style="stroke:#181818;stroke-width:1.0;"/><path d="M360.3066,1070.5801 Q359.623,1070.9316 358.8711,1071.1074 Q358.1191,1071.2832 357.2891,1071.2832 Q354.3398,1071.2832 352.7871,1069.3398 Q351.2344,1067.3965 351.2344,1063.7246 Q351.2344,1060.043 352.7871,1058.0996 Q354.3398,1056.1563 357.2891,1056.1563 Q358.1191,1056.1563 358.8809,1056.332 Q359.6426,1056.5078 360.3066,1056.8594 L360.3066,1060.0625 Q359.5645,1059.3789 358.8662,1059.0615 Q358.168,1058.7441 357.4258,1058.7441 Q355.8438,1058.7441 355.0381,1059.999 Q354.2324,1061.2539 354.2324,1063.7246 Q354.2324,1066.1855 355.0381,1067.4404 Q355.8438,1068.6953 357.4258,1068.6953 Q358.168,1068.6953 358.8662,1068.3779 Q359.5645,1068.0605 360.3066,1067.377 Z " fill="#000000"/><text fill="#000000" font-family="sans-serif" font-size="20" lengthAdjust="spacing" textLength="119" x="379.5" y="1071.0586">Repositories</text><line style="stroke:#181818;stroke-width:0.5;" x1="182" x2="661" y1="1080.5" y2="1080.5"/><line style="stroke:#181818;stroke-width:0.5;" x1="182" x2="661" y1="1088.5" y2="1088.5"/><text fill="#000000" font-family="sans-serif" font-size="20" lengthAdjust="spacing" textLength="149" x="187" y="1111.8359">+Repositories()</text><text fill="#000000" font-family="sans-serif" font-size="20" lengthAdjust="spacing" textLength="276" x="187" y="1135.3906">+getInstance() : Repositories</text><text fill="#000000" font-family="sans-serif" font-size="20" lengthAdjust="spacing" textLength="469" x="187" y="1158.9453">+getDealRepository() : AnnouncementRepository</text></g><!--class AnnouncementRepository--><g id="elem_AnnouncementRepository"><rect codeLine="32" fill="#F1F1F1" height="73.5547" id="AnnouncementRepository" rx="2.5" ry="2.5" style="stroke:#181818;stroke-width:0.5;" width="829" x="7" y="1381.5"/><ellipse cx="294" cy="1398.5" fill="#ADD1B2" rx="12" ry="12" style="stroke:#181818;stroke-width:1.0;"/><path d="M296.8066,1405.5801 Q296.123,1405.9316 295.3711,1406.1074 Q294.6191,1406.2832 293.7891,1406.2832 Q290.8398,1406.2832 289.2871,1404.3398 Q287.7344,1402.3965 287.7344,1398.7246 Q287.7344,1395.043 289.2871,1393.0996 Q290.8398,1391.1563 293.7891,1391.1563 Q294.6191,1391.1563 295.3809,1391.332 Q296.1426,1391.5078 296.8066,1391.8594 L296.8066,1395.0625 Q296.0645,1394.3789 295.3662,1394.0615 Q294.668,1393.7441 293.9258,1393.7441 Q292.3438,1393.7441 291.5381,1394.999 Q290.7324,1396.2539 290.7324,1398.7246 Q290.7324,1401.1855 291.5381,1402.4404 Q292.3438,1403.6953 293.9258,1403.6953 Q294.668,1403.6953 295.3662,1403.3779 Q296.0645,1403.0605 296.8066,1402.377 Z " fill="#000000"/><text fill="#000000" font-family="sans-serif" font-size="20" lengthAdjust="spacing" textLength="246" x="316" y="1406.0586">AnnouncementRepository</text><line style="stroke:#181818;stroke-width:0.5;" x1="8" x2="835" y1="1415.5" y2="1415.5"/><line style="stroke:#181818;stroke-width:0.5;" x1="8" x2="835" y1="1423.5" y2="1423.5"/><text fill="#000000" font-family="sans-serif" font-size="20" lengthAdjust="spacing" textLength="817" x="13" y="1446.8359">+getAllAnnouncementsSortedByDefualtCriteriaReverse() : ArrayList&lt;Announcement&gt;</text></g><!--class StoreManagerMenuWindow--><g id="elem_StoreManagerMenuWindow"><rect codeLine="36" fill="#F1F1F1" height="120.6641" id="StoreManagerMenuWindow" rx="2.5" ry="2.5" style="stroke:#181818;stroke-width:0.5;" width="292" x="1262.5" y="7"/><ellipse cx="1278.5" cy="24" fill="#ADD1B2" rx="12" ry="12" style="stroke:#181818;stroke-width:1.0;"/><path d="M1281.3066,31.0801 Q1280.623,31.4316 1279.8711,31.6074 Q1279.1191,31.7832 1278.2891,31.7832 Q1275.3398,31.7832 1273.7871,29.8398 Q1272.2344,27.8965 1272.2344,24.2246 Q1272.2344,20.543 1273.7871,18.5996 Q1275.3398,16.6563 1278.2891,16.6563 Q1279.1191,16.6563 1279.8809,16.832 Q1280.6426,17.0078 1281.3066,17.3594 L1281.3066,20.5625 Q1280.5645,19.8789 1279.8662,19.5615 Q1279.168,19.2441 1278.4258,19.2441 Q1276.8438,19.2441 1276.0381,20.499 Q1275.2324,21.7539 1275.2324,24.2246 Q1275.2324,26.6855 1276.0381,27.9404 Q1276.8438,29.1953 1278.4258,29.1953 Q1279.168,29.1953 1279.8662,28.8779 Q1280.5645,28.5605 1281.3066,27.877 Z " fill="#000000"/><text fill="#000000" font-family="sans-serif" font-size="20" lengthAdjust="spacing" textLength="258" x="1293.5" y="31.5586">StoreManagerMenuWindow</text><line style="stroke:#181818;stroke-width:0.5;" x1="1263.5" x2="1553.5" y1="41" y2="41"/><text fill="#000000" font-family="sans-serif" font-size="20" lengthAdjust="spacing" textLength="258" x="1268.5" y="64.3359">-saleForecastScene : Scene</text><text fill="#000000" font-family="sans-serif" font-size="20" lengthAdjust="spacing" textLength="112" x="1268.5" y="87.8906">-bt : Button</text><line style="stroke:#181818;stroke-width:0.5;" x1="1263.5" x2="1553.5" y1="96.1094" y2="96.1094"/><text fill="#000000" font-family="sans-serif" font-size="20" lengthAdjust="spacing" textLength="193" x="1268.5" y="119.4453">+onBtAction() : void</text></g><!--class Statistics--><g id="elem_Statistics"><rect codeLine="42" fill="#F1F1F1" height="1486.8359" id="Statistics" rx="2.5" ry="2.5" style="stroke:#181818;stroke-width:0.5;" width="456" x="1256.5" y="1528"/><ellipse cx="1437.5" cy="1545" fill="#ADD1B2" rx="12" ry="12" style="stroke:#181818;stroke-width:1.0;"/><path d="M1440.3066,1552.0801 Q1439.623,1552.4316 1438.8711,1552.6074 Q1438.1191,1552.7832 1437.2891,1552.7832 Q1434.3398,1552.7832 1432.7871,1550.8398 Q1431.2344,1548.8965 1431.2344,1545.2246 Q1431.2344,1541.543 1432.7871,1539.5996 Q1434.3398,1537.6563 1437.2891,1537.6563 Q1438.1191,1537.6563 1438.8809,1537.832 Q1439.6426,1538.0078 1440.3066,1538.3594 L1440.3066,1541.5625 Q1439.5645,1540.8789 1438.8662,1540.5615 Q1438.168,1540.2441 1437.4258,1540.2441 Q1435.8438,1540.2441 1435.0381,1541.499 Q1434.2324,1542.7539 1434.2324,1545.2246 Q1434.2324,1547.6855 1435.0381,1548.9404 Q1435.8438,1550.1953 1437.4258,1550.1953 Q1438.168,1550.1953 1438.8662,1549.8779 Q1439.5645,1549.5605 1440.3066,1548.877 Z " fill="#000000"/><text fill="#000000" font-family="sans-serif" font-size="20" lengthAdjust="spacing" textLength="85" x="1459.5" y="1552.5586">Statistics</text><line style="stroke:#181818;stroke-width:0.5;" x1="1257.5" x2="1711.5" y1="1562" y2="1562"/><text fill="#000000" font-family="sans-serif" font-size="20" lengthAdjust="spacing" textLength="306" x="1262.5" y="1585.3359">-isMultipleRegression : boolean</text><text fill="#000000" font-family="sans-serif" font-size="20" lengthAdjust="spacing" textLength="342" x="1262.5" y="1608.8906">-deals : ArrayList&lt;Announcement&gt;</text><text fill="#000000" font-family="sans-serif" font-size="20" lengthAdjust="spacing" textLength="372" x="1262.5" y="1632.4453">-forecastedPrices : ArrayList&lt;Double&gt;</text><text fill="#000000" font-family="sans-serif" font-size="20" lengthAdjust="spacing" textLength="182" x="1262.5" y="1656">-intercept : double</text><text fill="#000000" font-family="sans-serif" font-size="20" lengthAdjust="spacing" textLength="246" x="1262.5" y="1679.5547">-interceptPValue : double</text><text fill="#000000" font-family="sans-serif" font-size="20" lengthAdjust="spacing" textLength="149" x="1262.5" y="1703.1094">-slope : double</text><text fill="#000000" font-family="sans-serif" font-size="20" lengthAdjust="spacing" textLength="213" x="1262.5" y="1726.6641">-slopePValue : double</text><text fill="#000000" font-family="sans-serif" font-size="20" lengthAdjust="spacing" textLength="303" x="1262.5" y="1750.2188">-correlationCoefficient : double</text><text fill="#000000" font-family="sans-serif" font-size="20" lengthAdjust="spacing" textLength="335" x="1262.5" y="1773.7734">-determinationCoefficient : double</text><text fill="#000000" font-family="sans-serif" font-size="20" lengthAdjust="spacing" textLength="420" x="1262.5" y="1797.3281">-adjustedDeterminationCoefficient : double</text><text fill="#000000" font-family="sans-serif" font-size="20" lengthAdjust="spacing" textLength="282" x="1262.5" y="1820.8828">-slopeStandardError : double</text><text fill="#000000" font-family="sans-serif" font-size="20" lengthAdjust="spacing" textLength="315" x="1262.5" y="1844.4375">-interceptStandardError : double</text><text fill="#000000" font-family="sans-serif" font-size="20" lengthAdjust="spacing" textLength="132" x="1262.5" y="1867.9922">-alfa : double</text><text fill="#000000" font-family="sans-serif" font-size="20" lengthAdjust="spacing" textLength="67" x="1262.5" y="1891.5469">-n : int</text><text fill="#000000" font-family="sans-serif" font-size="20" lengthAdjust="spacing" textLength="250" x="1262.5" y="1915.1016">-confidenceLevel : double</text><text fill="#000000" font-family="sans-serif" font-size="20" lengthAdjust="spacing" textLength="310" x="1262.5" y="1938.6563">-confidenceIntervals : double[][]</text><text fill="#000000" font-family="sans-serif" font-size="20" lengthAdjust="spacing" textLength="184" x="1262.5" y="1962.2109">-rejects : boolean[]</text><text fill="#000000" font-family="sans-serif" font-size="20" lengthAdjust="spacing" textLength="281" x="1262.5" y="1985.7656">-totalSumOfSquares : double</text><text fill="#000000" font-family="sans-serif" font-size="20" lengthAdjust="spacing" textLength="315" x="1262.5" y="2009.3203">-residualSumOfSquares : double</text><text fill="#000000" font-family="sans-serif" font-size="20" lengthAdjust="spacing" textLength="338" x="1262.5" y="2032.875">-regressionSumOfSquares : double</text><text fill="#000000" font-family="sans-serif" font-size="20" lengthAdjust="spacing" textLength="284" x="1262.5" y="2056.4297">-totalDegreesOfFreedom : int</text><text fill="#000000" font-family="sans-serif" font-size="20" lengthAdjust="spacing" textLength="314" x="1262.5" y="2079.9844">-regressionMeanSquare : double</text><text fill="#000000" font-family="sans-serif" font-size="20" lengthAdjust="spacing" textLength="291" x="1262.5" y="2103.5391">-residualMeanSquare : double</text><text fill="#000000" font-family="sans-serif" font-size="20" lengthAdjust="spacing" textLength="341" x="1262.5" y="2127.0938">-regressionDegreesOfFreedom : int</text><text fill="#000000" font-family="sans-serif" font-size="20" lengthAdjust="spacing" textLength="318" x="1262.5" y="2150.6484">-residualDegreesOfFreedom : int</text><text fill="#000000" font-family="sans-serif" font-size="20" lengthAdjust="spacing" textLength="157" x="1262.5" y="2174.2031">-fValue : double</text><text fill="#000000" font-family="sans-serif" font-size="20" lengthAdjust="spacing" textLength="163" x="1262.5" y="2197.7578">-pValue : double</text><text fill="#000000" font-family="sans-serif" font-size="20" lengthAdjust="spacing" textLength="214" x="1262.5" y="2221.3125">-criticalValue : double</text><text fill="#000000" font-family="sans-serif" font-size="20" lengthAdjust="spacing" textLength="223" x="1262.5" y="2244.8672">-isSignificant : boolean</text><text fill="#000000" font-family="sans-serif" font-size="20" lengthAdjust="spacing" textLength="248" x="1262.5" y="2268.4219">-interceptTValue : double</text><text fill="#000000" font-family="sans-serif" font-size="20" lengthAdjust="spacing" textLength="215" x="1262.5" y="2291.9766">-slopeTValue : double</text><text fill="#000000" font-family="sans-serif" font-size="20" lengthAdjust="spacing" textLength="338" x="1262.5" y="2315.5313">-coefficientLowerBounds : double[]</text><text fill="#000000" font-family="sans-serif" font-size="20" lengthAdjust="spacing" textLength="340" x="1262.5" y="2339.0859">-coefficientUpperBounds : double[]</text><text fill="#000000" font-family="sans-serif" font-size="20" lengthAdjust="spacing" textLength="313" x="1262.5" y="2362.6406">-predictionLowerBound : double</text><text fill="#000000" font-family="sans-serif" font-size="20" lengthAdjust="spacing" textLength="315" x="1262.5" y="2386.1953">-predictionUpperBound : double</text><text fill="#000000" font-family="sans-serif" font-size="20" lengthAdjust="spacing" textLength="253" x="1262.5" y="2409.75">-standardErrors : double[]</text><text fill="#000000" font-family="sans-serif" font-size="20" lengthAdjust="spacing" textLength="181" x="1262.5" y="2433.3047">-tValues : double[]</text><text fill="#000000" font-family="sans-serif" font-size="20" lengthAdjust="spacing" textLength="187" x="1262.5" y="2456.8594">-pValues : double[]</text><text fill="#000000" font-family="sans-serif" font-size="20" lengthAdjust="spacing" textLength="321" x="1262.5" y="2480.4141">-meanSquareRegression : double</text><text fill="#000000" font-family="sans-serif" font-size="20" lengthAdjust="spacing" textLength="298" x="1262.5" y="2503.9688">-meanSquareResidual : double</text><text fill="#000000" font-family="sans-serif" font-size="20" lengthAdjust="spacing" textLength="303" x="1262.5" y="2527.5234">-interceptCriticalValue : double</text><text fill="#000000" font-family="sans-serif" font-size="20" lengthAdjust="spacing" textLength="270" x="1262.5" y="2551.0781">-slopeCriticalValue : double</text><text fill="#000000" font-family="sans-serif" font-size="20" lengthAdjust="spacing" textLength="333" x="1262.5" y="2574.6328">-explainedSumOfSquares : double</text><text fill="#000000" font-family="sans-serif" font-size="20" lengthAdjust="spacing" textLength="316" x="1262.5" y="2598.1875">-degreesOfFreedomRSS : double</text><text fill="#000000" font-family="sans-serif" font-size="20" lengthAdjust="spacing" textLength="316" x="1262.5" y="2621.7422">-degreesOfFreedomTSS : double</text><text fill="#000000" font-family="sans-serif" font-size="20" lengthAdjust="spacing" textLength="276" x="1262.5" y="2645.2969">-meanSquaredError : double</text><text fill="#000000" font-family="sans-serif" font-size="20" lengthAdjust="spacing" textLength="298" x="1262.5" y="2668.8516">-multipleCriticalValue : double</text><text fill="#000000" font-family="sans-serif" font-size="20" lengthAdjust="spacing" textLength="287" x="1262.5" y="2692.4063">-covarianceMatrix : double[][]</text><text fill="#000000" font-family="sans-serif" font-size="20" lengthAdjust="spacing" textLength="309" x="1262.5" y="2715.9609">-estimatedCoefficient : double[]</text><text fill="#000000" font-family="sans-serif" font-size="20" lengthAdjust="spacing" textLength="442" x="1262.5" y="2739.5156">-predictionsLowerBound : ArrayList&lt;Double&gt;</text><text fill="#000000" font-family="sans-serif" font-size="20" lengthAdjust="spacing" textLength="444" x="1262.5" y="2763.0703">-predictionsUpperBound : ArrayList&lt;Double&gt;</text><text fill="#000000" font-family="sans-serif" font-size="20" lengthAdjust="spacing" textLength="229" x="1262.5" y="2786.625">-standardError : double</text><text fill="#000000" font-family="sans-serif" font-size="20" lengthAdjust="spacing" textLength="231" x="1262.5" y="2810.1797">-testStatistics : double[]</text><text fill="#000000" font-family="sans-serif" font-size="20" lengthAdjust="spacing" textLength="339" x="1262.5" y="2833.7344">-multipleTestCriticalValue : double</text><text fill="#000000" font-family="sans-serif" font-size="20" lengthAdjust="spacing" textLength="367" x="1262.5" y="2857.2891">-simplePredictionIntervals : double[][]</text><line style="stroke:#181818;stroke-width:0.5;" x1="1257.5" x2="1711.5" y1="2865.5078" y2="2865.5078"/><text fill="#000000" font-family="sans-serif" font-size="20" lengthAdjust="spacing" textLength="341" x="1262.5" y="2888.8438">+calcSimpleRegressionArea() : void</text><text fill="#000000" font-family="sans-serif" font-size="20" lengthAdjust="spacing" textLength="400" x="1262.5" y="2912.3984">+calcSimpleRegressionBathrooms() : void</text><text fill="#000000" font-family="sans-serif" font-size="20" lengthAdjust="spacing" textLength="394" x="1262.5" y="2935.9531">+calcSimpleRegressionBedrooms() : void</text><text fill="#000000" font-family="sans-serif" font-size="20" lengthAdjust="spacing" textLength="379" x="1262.5" y="2959.5078">+calcSimpleRegressionDistance() : void</text><text fill="#000000" font-family="sans-serif" font-size="20" lengthAdjust="spacing" textLength="369" x="1262.5" y="2983.0625">+calcSimpleRegressionParking() : void</text><text fill="#000000" font-family="sans-serif" font-size="20" lengthAdjust="spacing" textLength="309" x="1262.5" y="3006.6172">+calcMultipleRegression() : void</text></g><!--class AnalyseDealsWindow--><g id="elem_AnalyseDealsWindow"><rect codeLine="107" fill="#F1F1F1" height="191.3281" id="AnalyseDealsWindow" rx="2.5" ry="2.5" style="stroke:#181818;stroke-width:0.5;" width="371" x="1223" y="189"/><ellipse cx="1303" cy="206" fill="#ADD1B2" rx="12" ry="12" style="stroke:#181818;stroke-width:1.0;"/><path d="M1305.8066,213.0801 Q1305.123,213.4316 1304.3711,213.6074 Q1303.6191,213.7832 1302.7891,213.7832 Q1299.8398,213.7832 1298.2871,211.8398 Q1296.7344,209.8965 1296.7344,206.2246 Q1296.7344,202.543 1298.2871,200.5996 Q1299.8398,198.6563 1302.7891,198.6563 Q1303.6191,198.6563 1304.3809,198.832 Q1305.1426,199.0078 1305.8066,199.3594 L1305.8066,202.5625 Q1305.0645,201.8789 1304.3662,201.5615 Q1303.668,201.2441 1302.9258,201.2441 Q1301.3438,201.2441 1300.5381,202.499 Q1299.7324,203.7539 1299.7324,206.2246 Q1299.7324,208.6855 1300.5381,209.9404 Q1301.3438,211.1953 1302.9258,211.1953 Q1303.668,211.1953 1304.3662,210.8779 Q1305.0645,210.5605 1305.8066,209.877 Z " fill="#000000"/><text fill="#000000" font-family="sans-serif" font-size="20" lengthAdjust="spacing" textLength="202" x="1325" y="213.5586">AnalyseDealsWindow</text><line style="stroke:#181818;stroke-width:0.5;" x1="1224" x2="1593" y1="223" y2="223"/><text fill="#000000" font-family="sans-serif" font-size="20" lengthAdjust="spacing" textLength="283" x="1229" y="246.3359">-controller : ImportController</text><text fill="#000000" font-family="sans-serif" font-size="20" lengthAdjust="spacing" textLength="359" x="1229" y="269.8906">-selectRegressionModelScene : Scene</text><text fill="#000000" font-family="sans-serif" font-size="20" lengthAdjust="spacing" textLength="177" x="1229" y="293.4453">-btImport : Button</text><text fill="#000000" font-family="sans-serif" font-size="20" lengthAdjust="spacing" textLength="165" x="1229" y="317">-btDeals : Button</text><line style="stroke:#181818;stroke-width:0.5;" x1="1224" x2="1593" y1="325.2188" y2="325.2188"/><text fill="#000000" font-family="sans-serif" font-size="20" lengthAdjust="spacing" textLength="197" x="1229" y="348.5547">+onBtImport() : void</text><text fill="#000000" font-family="sans-serif" font-size="20" lengthAdjust="spacing" textLength="185" x="1229" y="372.1094">+onBtDeals() : void</text></g><!--class SelectRegressionModelWindow--><g id="elem_SelectRegressionModelWindow"><rect codeLine="116" fill="#F1F1F1" height="426.875" id="SelectRegressionModelWindow" rx="2.5" ry="2.5" style="stroke:#181818;stroke-width:0.5;" width="329" x="1573" y="441"/><ellipse cx="1589" cy="458" fill="#ADD1B2" rx="12" ry="12" style="stroke:#181818;stroke-width:1.0;"/><path d="M1591.8066,465.0801 Q1591.123,465.4316 1590.3711,465.6074 Q1589.6191,465.7832 1588.7891,465.7832 Q1585.8398,465.7832 1584.2871,463.8398 Q1582.7344,461.8965 1582.7344,458.2246 Q1582.7344,454.543 1584.2871,452.5996 Q1585.8398,450.6563 1588.7891,450.6563 Q1589.6191,450.6563 1590.3809,450.832 Q1591.1426,451.0078 1591.8066,451.3594 L1591.8066,454.5625 Q1591.0645,453.8789 1590.3662,453.5615 Q1589.668,453.2441 1588.9258,453.2441 Q1587.3438,453.2441 1586.5381,454.499 Q1585.7324,455.7539 1585.7324,458.2246 Q1585.7324,460.6855 1586.5381,461.9404 Q1587.3438,463.1953 1588.9258,463.1953 Q1589.668,463.1953 1590.3662,462.8779 Q1591.0645,462.5605 1591.8066,461.877 Z " fill="#000000"/><text fill="#000000" font-family="sans-serif" font-size="20" lengthAdjust="spacing" textLength="295" x="1604" y="465.5586">SelectRegressionModelWindow</text><line style="stroke:#181818;stroke-width:0.5;" x1="1574" x2="1901" y1="475" y2="475"/><text fill="#000000" font-family="sans-serif" font-size="20" lengthAdjust="spacing" textLength="303" x="1579" y="498.3359">-controller : StatisticsController</text><text fill="#000000" font-family="sans-serif" font-size="20" lengthAdjust="spacing" textLength="274" x="1579" y="521.8906">-showStatisticsScene : Scene</text><text fill="#000000" font-family="sans-serif" font-size="20" lengthAdjust="spacing" textLength="222" x="1579" y="545.4453">-btSimpleArea : Button</text><text fill="#000000" font-family="sans-serif" font-size="20" lengthAdjust="spacing" textLength="281" x="1579" y="569">-btSimpleBathrooms : Button</text><text fill="#000000" font-family="sans-serif" font-size="20" lengthAdjust="spacing" textLength="275" x="1579" y="592.5547">-btSimpleBedrooms : Button</text><text fill="#000000" font-family="sans-serif" font-size="20" lengthAdjust="spacing" textLength="260" x="1579" y="616.1094">-btSimpleDistance : Button</text><text fill="#000000" font-family="sans-serif" font-size="20" lengthAdjust="spacing" textLength="250" x="1579" y="639.6641">-btSimpleParking : Button</text><text fill="#000000" font-family="sans-serif" font-size="20" lengthAdjust="spacing" textLength="190" x="1579" y="663.2188">-btMultiple : Button</text><text fill="#000000" font-family="sans-serif" font-size="20" lengthAdjust="spacing" textLength="220" x="1579" y="686.7734">-btConfidence : Button</text><line style="stroke:#181818;stroke-width:0.5;" x1="1574" x2="1901" y1="694.9922" y2="694.9922"/><text fill="#000000" font-family="sans-serif" font-size="20" lengthAdjust="spacing" textLength="242" x="1579" y="718.3281">+onBtSimpleArea() : void</text><text fill="#000000" font-family="sans-serif" font-size="20" lengthAdjust="spacing" textLength="301" x="1579" y="741.8828">+onBtSimpleBathrooms() : void</text><text fill="#000000" font-family="sans-serif" font-size="20" lengthAdjust="spacing" textLength="295" x="1579" y="765.4375">+onBtSimpleBedrooms() : void</text><text fill="#000000" font-family="sans-serif" font-size="20" lengthAdjust="spacing" textLength="280" x="1579" y="788.9922">+onBtSimpleDistance() : void</text><text fill="#000000" font-family="sans-serif" font-size="20" lengthAdjust="spacing" textLength="270" x="1579" y="812.5469">+onBtSimpleParking() : void</text><text fill="#000000" font-family="sans-serif" font-size="20" lengthAdjust="spacing" textLength="210" x="1579" y="836.1016">+onBtMultiple() : void</text><text fill="#000000" font-family="sans-serif" font-size="20" lengthAdjust="spacing" textLength="240" x="1579" y="859.6563">+onBtConfidence() : void</text></g><!--class ShowStatisticsWindow--><g id="elem_ShowStatisticsWindow"><rect codeLine="135" fill="#F1F1F1" height="356.2109" id="ShowStatisticsWindow" rx="2.5" ry="2.5" style="stroke:#181818;stroke-width:0.5;" width="315" x="1580" y="929"/><ellipse cx="1628" cy="946" fill="#ADD1B2" rx="12" ry="12" style="stroke:#181818;stroke-width:1.0;"/><path d="M1630.8066,953.0801 Q1630.123,953.4316 1629.3711,953.6074 Q1628.6191,953.7832 1627.7891,953.7832 Q1624.8398,953.7832 1623.2871,951.8398 Q1621.7344,949.8965 1621.7344,946.2246 Q1621.7344,942.543 1623.2871,940.5996 Q1624.8398,938.6563 1627.7891,938.6563 Q1628.6191,938.6563 1629.3809,938.832 Q1630.1426,939.0078 1630.8066,939.3594 L1630.8066,942.5625 Q1630.0645,941.8789 1629.3662,941.5615 Q1628.668,941.2441 1627.9258,941.2441 Q1626.3438,941.2441 1625.5381,942.499 Q1624.7324,943.7539 1624.7324,946.2246 Q1624.7324,948.6855 1625.5381,949.9404 Q1626.3438,951.1953 1627.9258,951.1953 Q1628.668,951.1953 1629.3662,950.8779 Q1630.0645,950.5605 1630.8066,949.877 Z " fill="#000000"/><text fill="#000000" font-family="sans-serif" font-size="20" lengthAdjust="spacing" textLength="210" x="1650" y="953.5586">ShowStatisticsWindow</text><line style="stroke:#181818;stroke-width:0.5;" x1="1581" x2="1894" y1="963" y2="963"/><text fill="#000000" font-family="sans-serif" font-size="20" lengthAdjust="spacing" textLength="303" x="1586" y="986.3359">-controller : StatisticsController</text><text fill="#000000" font-family="sans-serif" font-size="20" lengthAdjust="spacing" textLength="168" x="1586" y="1009.8906">-btPrices : Button</text><text fill="#000000" font-family="sans-serif" font-size="20" lengthAdjust="spacing" textLength="125" x="1586" y="1033.4453">-btR : Button</text><text fill="#000000" font-family="sans-serif" font-size="20" lengthAdjust="spacing" textLength="153" x="1586" y="1057">-btTest : Button</text><text fill="#000000" font-family="sans-serif" font-size="20" lengthAdjust="spacing" textLength="183" x="1586" y="1080.5547">-btInterval : Button</text><text fill="#000000" font-family="sans-serif" font-size="20" lengthAdjust="spacing" textLength="171" x="1586" y="1104.1094">-btAnova : Button</text><text fill="#000000" font-family="sans-serif" font-size="20" lengthAdjust="spacing" textLength="95" x="1586" y="1127.6641">-btValues</text><line style="stroke:#181818;stroke-width:0.5;" x1="1581" x2="1894" y1="1135.8828" y2="1135.8828"/><text fill="#000000" font-family="sans-serif" font-size="20" lengthAdjust="spacing" textLength="188" x="1586" y="1159.2188">+onBtPrices() : void</text><text fill="#000000" font-family="sans-serif" font-size="20" lengthAdjust="spacing" textLength="145" x="1586" y="1182.7734">+onBtR() : void</text><text fill="#000000" font-family="sans-serif" font-size="20" lengthAdjust="spacing" textLength="173" x="1586" y="1206.3281">+onBtTest() : void</text><text fill="#000000" font-family="sans-serif" font-size="20" lengthAdjust="spacing" textLength="203" x="1586" y="1229.8828">+onBtInterval() : void</text><text fill="#000000" font-family="sans-serif" font-size="20" lengthAdjust="spacing" textLength="191" x="1586" y="1253.4375">+onBtAnova() : void</text><text fill="#000000" font-family="sans-serif" font-size="20" lengthAdjust="spacing" textLength="195" x="1586" y="1276.9922">+onBtValues() : void</text></g><!--link StoreManagerMenuWindow to AnalyseDealsWindow--><g id="link_StoreManagerMenuWindow_AnalyseDealsWindow"><path codeLine="152" d="M1408.5,128.39 C1408.5,145.25 1408.5,164.06 1408.5,182.61 " fill="none" id="StoreManagerMenuWindow-to-AnalyseDealsWindow" style="stroke:#181818;stroke-width:1.0;stroke-dasharray:7.0,7.0;"/><polygon fill="#181818" points="1408.5,187.37,1412.5,178.37,1408.5,182.37,1404.5,178.37,1408.5,187.37" style="stroke:#181818;stroke-width:1.0;"/></g><!--link AnalyseDealsWindow to SelectRegressionModelWindow--><g id="link_AnalyseDealsWindow_SelectRegressionModelWindow"><path codeLine="154" d="M1493.23,380.27 C1516.36,406.14 1542.27,435.12 1568.33,464.28 " fill="none" id="AnalyseDealsWindow-to-SelectRegressionModelWindow" style="stroke:#181818;stroke-width:1.0;stroke-dasharray:7.0,7.0;"/><polygon fill="#181818" points="1571.51,467.83,1568.5003,458.4523,1568.1802,464.1001,1562.5324,463.7799,1571.51,467.83" style="stroke:#181818;stroke-width:1.0;"/></g><!--link SelectRegressionModelWindow to ShowStatisticsWindow--><g id="link_SelectRegressionModelWindow_ShowStatisticsWindow"><path codeLine="156" d="M1737.5,868.22 C1737.5,886.43 1737.5,904.76 1737.5,922.72 " fill="none" id="SelectRegressionModelWindow-to-ShowStatisticsWindow" style="stroke:#181818;stroke-width:1.0;stroke-dasharray:7.0,7.0;"/><polygon fill="#181818" points="1737.5,927.28,1741.5,918.28,1737.5,922.28,1733.5,918.28,1737.5,927.28" style="stroke:#181818;stroke-width:1.0;"/></g><!--link SelectRegressionModelWindow to StatisticsController--><g id="link_SelectRegressionModelWindow_StatisticsController"><path codeLine="157" d="M1873.66,868.3 C1896.25,903.61 1912.5,929 1912.5,929 C1912.5,929 1912.5,1285 1912.5,1285 C1912.5,1285 1853.85,1328.66 1803.88,1365.86 " fill="none" id="SelectRegressionModelWindow-to-StatisticsController" style="stroke:#181818;stroke-width:1.0;stroke-dasharray:7.0,7.0;"/><polygon fill="#181818" points="1799.98,1368.76,1809.5887,1366.5984,1803.992,1365.776,1804.8143,1360.1793,1799.98,1368.76" style="stroke:#181818;stroke-width:1.0;"/></g><!--link AnalyseDealsWindow to ImportController--><g id="link_AnalyseDealsWindow_ImportController"><path codeLine="158" d="M1324.29,380.27 C1257.48,455.46 1167.35,556.88 1117.84,612.6 " fill="none" id="AnalyseDealsWindow-to-ImportController" style="stroke:#181818;stroke-width:1.0;stroke-dasharray:7.0,7.0;"/><polygon fill="#181818" points="1114.77,616.06,1123.7312,611.9738,1118.0847,612.3167,1117.7418,606.6702,1114.77,616.06" style="stroke:#181818;stroke-width:1.0;"/></g><!--link ImportController to CSVImport--><g id="link_ImportController_CSVImport"><path codeLine="160" d="M1081.5,691.98 C1081.5,771.13 1081.5,958.91 1081.5,1051.9 " fill="none" id="ImportController-to-CSVImport" style="stroke:#181818;stroke-width:1.0;stroke-dasharray:7.0,7.0;"/><polygon fill="#181818" points="1081.5,1056.65,1085.5,1047.65,1081.5,1051.65,1077.5,1047.65,1081.5,1056.65" style="stroke:#181818;stroke-width:1.0;"/></g><!--link ImportController to Repositories--><g id="link_ImportController_Repositories"><path codeLine="161" d="M1028.05,691.98 C915.94,768.5 655.04,946.59 514.74,1042.36 " fill="none" id="ImportController-to-Repositories" style="stroke:#181818;stroke-width:1.0;stroke-dasharray:7.0,7.0;"/><polygon fill="#181818" points="510.64,1045.16,520.3296,1043.3959,514.7714,1042.3438,515.8236,1036.7856,510.64,1045.16" style="stroke:#181818;stroke-width:1.0;"/></g><!--link StatisticsController to Statistics--><g id="link_StatisticsController_Statistics"><path codeLine="162" d="M1720.43,1467.38 C1716,1482.47 1710.65,1500.69 1704.56,1521.41 " fill="none" id="StatisticsController-to-Statistics" style="stroke:#181818;stroke-width:1.0;stroke-dasharray:7.0,7.0;"/><polygon fill="#181818" points="1703.17,1526.16,1709.5567,1518.6626,1704.587,1521.365,1701.8847,1516.3954,1703.17,1526.16" style="stroke:#181818;stroke-width:1.0;"/></g><!--link ShowStatisticsWindow to StatisticsController--><g id="link_ShowStatisticsWindow_StatisticsController"><path codeLine="164" d="M1735.78,1285.35 C1735.51,1313.62 1735.24,1340.87 1735.03,1363.2 " fill="none" id="ShowStatisticsWindow-to-StatisticsController" style="stroke:#181818;stroke-width:1.0;stroke-dasharray:7.0,7.0;"/><polygon fill="#181818" points="1734.98,1368.15,1739.0826,1359.1963,1735.0371,1363.1503,1731.0831,1359.1049,1734.98,1368.15" style="stroke:#181818;stroke-width:1.0;"/></g><!--link StatisticsDTO to Statistics--><g id="link_StatisticsDTO_Statistics"><path codeLine="165" d="M1463.94,1132.28 C1464.98,1190.08 1467.77,1344.31 1470.97,1521.25 " fill="none" id="StatisticsDTO-to-Statistics" style="stroke:#181818;stroke-width:1.0;stroke-dasharray:7.0,7.0;"/><polygon fill="#181818" points="1471.05,1526.04,1474.8692,1516.9618,1470.95,1521.041,1466.8708,1517.1218,1471.05,1526.04" style="stroke:#181818;stroke-width:1.0;"/></g><!--link StatisticsDTO to StatisticsController--><g id="link_StatisticsDTO_StatisticsController"><path codeLine="166" d="M1477.06,1132.24 C1504.17,1180.72 1562.5,1285 1562.5,1285 C1562.5,1285 1619.18,1328.66 1667.46,1365.86 " fill="none" id="StatisticsDTO-to-StatisticsController" style="stroke:#181818;stroke-width:1.0;stroke-dasharray:7.0,7.0;"/><polygon fill="#181818" points="1671.21,1368.74,1666.4987,1360.0911,1667.241,1365.699,1661.6331,1366.4414,1671.21,1368.74" style="stroke:#181818;stroke-width:1.0;"/></g><!--link Repositories to Repositories--><g id="link_Repositories_Repositories"><path codeLine="167" d="M662.37,1076.21 C683.66,1082.69 697,1092.95 697,1107 C697,1119.73 686.04,1129.35 668.14,1135.87 " fill="none" id="Repositories-to-Repositories" style="stroke:#181818;stroke-width:1.0;"/><polygon fill="#181818" points="663.8,1137.31,673.6039,1138.2498,668.542,1135.7246,671.0672,1130.6626,663.8,1137.31" style="stroke:#181818;stroke-width:1.0;"/><text fill="#000000" font-family="sans-serif" font-size="20" lengthAdjust="spacing" textLength="89" x="703" y="1114.8359">instances</text></g><!--link Repositories to AnnouncementRepository--><g id="link_Repositories_AnnouncementRepository"><path codeLine="168" d="M421.5,1167.67 C421.5,1228.44 421.5,1321.14 421.5,1374.88 " fill="none" id="Repositories-to-AnnouncementRepository" style="stroke:#181818;stroke-width:1.0;"/><polygon fill="#181818" points="421.5,1379.73,425.5,1370.73,421.5,1374.73,417.5,1370.73,421.5,1379.73" style="stroke:#181818;stroke-width:1.0;"/><text fill="#000000" font-family="sans-serif" font-size="20" lengthAdjust="spacing" textLength="33" x="422.5" y="1335.3359">has</text></g><!--SRC=[dLXDRziu4BtxL-ZOeaXHxB5O573i3H0WHWBBspqKFT3Yo653aLgIIkeDzh_lY9H4AY8bTtqnpFSuNtmSZQMVcAY98XMNnHFGZ4996cvkf30v-mUotpwjT4_9Qb8yaHFavimXKr0O8auS0e9-95I-C77AIi9rY70cm9nho6h9p-sF02iuqNfjZ6B7ni1j8OLr_Mc57ujbjrKjbTbWK4fo3YfxNMNu-P0n2so98Uym0MAO5E-ppzto7ZIcilgtjv8R96Z32ZsnT4M1y3tKKZCZrHbDh8MGZIYW0c4yuDoUmBIszBlMbxUwFTp7dE7ogr_Vv5zTDfrZ4lMp442GzllMT6Txe37GVOd2DIJtyTyAZQTNW4qXv0oCxQWYbfS8QSWjZhyE9jUSXnITOn90hyzRA1l2pKOn0ugHFJo3qYwqjLBaV8U5_3tS-IMiirIm8m9rgNOWch-OG0bsnTM4mmtY1T4cBq10UrxjjuEF1dzVDyP8uMAKujgiYrP5rlcpP3HseftrZEaT2epL7FPmKg0rRiHjHoav46VI4LjrwPbiFBFieWNwe5W1uqrRsHmvX7Gci685r6qYrA8nyE4huGt4A9hBEWsaznLIAU3slcqab2Kh62OIOrB082ecBk4I-gDfKz_-mXuRA1wDe4JHFvIIQhOKYqp2In9RRmyMhOng84f60G_n3WNBusNgARTj0CzE1OxsxVktxm5LmGzigDhBPuGQQGZFc-g-pFzkY08TyuRBZ3QNy7gnBZ6jssrB1trVtk0NbTMa4DxU3kDsvkRYMsBrrYvmx0mk4ikaaEkqnB4RiOBm987fd9q4GsqIAytfjHzKTvY_W8UPUpQ8_qw-WBh6fa533SMvVzRrFBTMG9bjTDvij3m3pvkCfX5UguHFOxDC1JG7LeDWHdrs4aN8SygOxGMRfHEsXxF8Wfyr9pZHqANRHD_8T9_dbz0ESPfFDjtCgkxnj9X38Py9FdcnKUq8pc4_KrqAyFbN4MpHiQwSK9WUIMpkQHRi6SbjRezUQkW6O_QFxeJ0kZeTaBki2fo-E3mCiIPQ-x3Z0nehShl9otUjWFWPOvPwJSoZahBIb_A1_Wfzou99S9d-G1GExgS4UpeFHGQfjI3yhA4TC7Kuhjdo5duq_poP-prD0yV7fNUpanJuTCJhnZndPppiTT2s6ytU87OKTDiYgRQWtHWR4sEHZQRIKOgnFoNTyFeeNpmQ7L_TuRHQ6cSmG8DsKdYdbGJSQoC1TrgOeBqA9i1cc8SYWxTFPbpn04nSXP0H5Nz0YCiz84G5Rl4-hGZa4uifOdIG_qSAHpFy6nWNT3zPQLlOPB5lKHDWBR3nJrRTizXdvvn7qjv7rje08ijz21781X5PTs5ueAre_EzUzl7ZbqXRMQscQvOwSqVHHHfqcoF7kRmfThQ9w2PTRpLv_z7IXZS9SNZqfpxwwcCS5oOUIImT_EW5nrjRSs1WO_J2ukfg7BITujrbrLFcElNUv97erNy0]--></g></svg>