<?xml version="1.0" encoding="UTF-8" standalone="no"?><svg xmlns="http://www.w3.org/2000/svg" xmlns:xlink="http://www.w3.org/1999/xlink" contentStyleType="text/css" height="1391px" preserveAspectRatio="none" style="width:922px;height:1391px;background:#FFFFFF;" version="1.1" viewBox="0 0 922 1391" width="922px" zoomAndPan="magnify"><defs/><g><text fill="#000000" font-family="sans-serif" font-size="14" font-weight="bold" lengthAdjust="spacing" textLength="363" x="280.5" y="28.5352">System Sequence Diagram (SSD) - Alternative One</text><rect fill="#FFFFFF" height="1158.5234" style="stroke:#181818;stroke-width:1.0;" width="10" x="49" y="136.043"/><rect fill="#FFFFFF" height="37.5547" style="stroke:#181818;stroke-width:1.0;" width="10" x="856" y="165.5977"/><rect fill="#FFFFFF" height="37.5547" style="stroke:#181818;stroke-width:1.0;" width="10" x="856" y="240.707"/><rect fill="#FFFFFF" height="37.5547" style="stroke:#181818;stroke-width:1.0;" width="10" x="856" y="315.8164"/><rect fill="#FFFFFF" height="37.5547" style="stroke:#181818;stroke-width:1.0;" width="10" x="856" y="438.0352"/><rect fill="#FFFFFF" height="78.6641" style="stroke:#181818;stroke-width:1.0;" width="10" x="856" y="513.1445"/><rect fill="#FFFFFF" height="44.5547" style="stroke:#181818;stroke-width:1.0;" width="10" x="856" y="629.3633"/><rect fill="#FFFFFF" height="37.5547" style="stroke:#181818;stroke-width:1.0;" width="10" x="856" y="711.4727"/><rect fill="#FFFFFF" height="335.6563" style="stroke:#181818;stroke-width:1.0;" width="10" x="856" y="874.8008"/><rect fill="#FFFFFF" height="37.5547" style="stroke:#181818;stroke-width:1.0;" width="10" x="856" y="1248.0117"/><rect fill="none" height="109.2188" style="stroke:#000000;stroke-width:1.5;" width="905" x="10" y="528.1445"/><rect fill="none" height="409.875" style="stroke:#000000;stroke-width:1.5;" width="905" x="10" y="764.0273"/><line style="stroke:#181818;stroke-width:0.5;stroke-dasharray:5.0,5.0;" x1="54" x2="54" y1="126.043" y2="1303.5664"/><line style="stroke:#181818;stroke-width:0.5;stroke-dasharray:5.0,5.0;" x1="861" x2="861" y1="126.043" y2="1303.5664"/><text fill="#000000" font-family="sans-serif" font-size="20" lengthAdjust="spacing" textLength="62" x="20" y="121.8242">Owner</text><ellipse cx="54" cy="50.9883" fill="#E3E3E3" rx="8" ry="8" style="stroke:#181818;stroke-width:0.5;"/><path d="M54,58.9883 L54,85.9883 M41,66.9883 L67,66.9883 M54,85.9883 L41,100.9883 M54,85.9883 L67,100.9883 " fill="none" style="stroke:#181818;stroke-width:0.5;"/><text fill="#000000" font-family="sans-serif" font-size="20" lengthAdjust="spacing" textLength="62" x="20" y="1321.9023">Owner</text><ellipse cx="54" cy="1334.6211" fill="#E3E3E3" rx="8" ry="8" style="stroke:#181818;stroke-width:0.5;"/><path d="M54,1342.6211 L54,1369.6211 M41,1350.6211 L67,1350.6211 M54,1369.6211 L41,1384.6211 M54,1369.6211 L67,1384.6211 " fill="none" style="stroke:#181818;stroke-width:0.5;"/><rect fill="#E3E3E3" height="37.5547" rx="2.5" ry="2.5" style="stroke:#181818;stroke-width:0.5;" width="88" x="817" y="87.4883"/><text fill="#000000" font-family="sans-serif" font-size="20" lengthAdjust="spacing" textLength="74" x="824" y="113.8242">:System</text><rect fill="#E3E3E3" height="37.5547" rx="2.5" ry="2.5" style="stroke:#181818;stroke-width:0.5;" width="88" x="817" y="1302.5664"/><text fill="#000000" font-family="sans-serif" font-size="20" lengthAdjust="spacing" textLength="74" x="824" y="1328.9023">:System</text><rect fill="#FFFFFF" height="1158.5234" style="stroke:#181818;stroke-width:1.0;" width="10" x="49" y="136.043"/><rect fill="#FFFFFF" height="37.5547" style="stroke:#181818;stroke-width:1.0;" width="10" x="856" y="165.5977"/><rect fill="#FFFFFF" height="37.5547" style="stroke:#181818;stroke-width:1.0;" width="10" x="856" y="240.707"/><rect fill="#FFFFFF" height="37.5547" style="stroke:#181818;stroke-width:1.0;" width="10" x="856" y="315.8164"/><rect fill="#FFFFFF" height="37.5547" style="stroke:#181818;stroke-width:1.0;" width="10" x="856" y="438.0352"/><rect fill="#FFFFFF" height="78.6641" style="stroke:#181818;stroke-width:1.0;" width="10" x="856" y="513.1445"/><rect fill="#FFFFFF" height="44.5547" style="stroke:#181818;stroke-width:1.0;" width="10" x="856" y="629.3633"/><rect fill="#FFFFFF" height="37.5547" style="stroke:#181818;stroke-width:1.0;" width="10" x="856" y="711.4727"/><rect fill="#FFFFFF" height="335.6563" style="stroke:#181818;stroke-width:1.0;" width="10" x="856" y="874.8008"/><rect fill="#FFFFFF" height="37.5547" style="stroke:#181818;stroke-width:1.0;" width="10" x="856" y="1248.0117"/><polygon fill="#181818" points="844,161.5977,854,165.5977,844,169.5977,848,165.5977" style="stroke:#181818;stroke-width:1.0;"/><line style="stroke:#181818;stroke-width:1.0;" x1="59" x2="850" y1="165.5977" y2="165.5977"/><text fill="#000000" font-family="sans-serif" font-size="20" font-weight="bold" lengthAdjust="spacing" textLength="13" x="66" y="159.3789">1</text><text fill="#000000" font-family="sans-serif" font-size="20" lengthAdjust="spacing" textLength="242" x="83" y="159.3789">ask to create Sale or Rent</text><polygon fill="#181818" points="70,199.1523,60,203.1523,70,207.1523,66,203.1523" style="stroke:#181818;stroke-width:1.0;"/><line style="stroke:#181818;stroke-width:1.0;stroke-dasharray:2.0,2.0;" x1="64" x2="860" y1="203.1523" y2="203.1523"/><text fill="#000000" font-family="sans-serif" font-size="20" font-weight="bold" lengthAdjust="spacing" textLength="13" x="76" y="196.9336">2</text><text fill="#000000" font-family="sans-serif" font-size="20" lengthAdjust="spacing" textLength="231" x="93" y="196.9336">displays list of Agencies</text><polygon fill="#181818" points="844,236.707,854,240.707,844,244.707,848,240.707" style="stroke:#181818;stroke-width:1.0;"/><line style="stroke:#181818;stroke-width:1.0;" x1="59" x2="850" y1="240.707" y2="240.707"/><text fill="#000000" font-family="sans-serif" font-size="20" font-weight="bold" lengthAdjust="spacing" textLength="13" x="66" y="234.4883">3</text><text fill="#000000" font-family="sans-serif" font-size="20" lengthAdjust="spacing" textLength="237" x="83" y="234.4883">submits selected Agency</text><polygon fill="#181818" points="70,274.2617,60,278.2617,70,282.2617,66,278.2617" style="stroke:#181818;stroke-width:1.0;"/><line style="stroke:#181818;stroke-width:1.0;stroke-dasharray:2.0,2.0;" x1="64" x2="860" y1="278.2617" y2="278.2617"/><text fill="#000000" font-family="sans-serif" font-size="20" font-weight="bold" lengthAdjust="spacing" textLength="13" x="76" y="272.043">4</text><text fill="#000000" font-family="sans-serif" font-size="20" lengthAdjust="spacing" textLength="201" x="93" y="272.043">displays list of Agent</text><polygon fill="#181818" points="844,311.8164,854,315.8164,844,319.8164,848,315.8164" style="stroke:#181818;stroke-width:1.0;"/><line style="stroke:#181818;stroke-width:1.0;" x1="59" x2="850" y1="315.8164" y2="315.8164"/><text fill="#000000" font-family="sans-serif" font-size="20" font-weight="bold" lengthAdjust="spacing" textLength="13" x="66" y="309.5977">5</text><text fill="#000000" font-family="sans-serif" font-size="20" lengthAdjust="spacing" textLength="224" x="83" y="309.5977">submits selected Agent</text><polygon fill="#181818" points="70,349.3711,60,353.3711,70,357.3711,66,353.3711" style="stroke:#181818;stroke-width:1.0;"/><line style="stroke:#181818;stroke-width:1.0;stroke-dasharray:2.0,2.0;" x1="64" x2="860" y1="353.3711" y2="353.3711"/><text fill="#000000" font-family="sans-serif" font-size="20" font-weight="bold" lengthAdjust="spacing" textLength="13" x="76" y="347.1523">6</text><text fill="#000000" font-family="sans-serif" font-size="20" lengthAdjust="spacing" textLength="198" x="93" y="347.1523">requests Owner data</text><polygon fill="#181818" points="844,434.0352,854,438.0352,844,442.0352,848,438.0352" style="stroke:#181818;stroke-width:1.0;"/><line style="stroke:#181818;stroke-width:1.0;" x1="59" x2="850" y1="438.0352" y2="438.0352"/><text fill="#000000" font-family="sans-serif" font-size="20" font-weight="bold" lengthAdjust="spacing" textLength="13" x="66" y="408.2617">7</text><text fill="#000000" font-family="sans-serif" font-size="20" lengthAdjust="spacing" textLength="492" x="83" y="384.707">types requested data (name, citizen's card number,</text><text fill="#000000" font-family="sans-serif" font-size="20" lengthAdjust="spacing" textLength="352" x="83" y="408.2617">tax number, address, email address,</text><text fill="#000000" font-family="sans-serif" font-size="20" lengthAdjust="spacing" textLength="264" x="83" y="431.8164">contact telephone number).</text><polygon fill="#181818" points="70,471.5898,60,475.5898,70,479.5898,66,475.5898" style="stroke:#181818;stroke-width:1.0;"/><line style="stroke:#181818;stroke-width:1.0;stroke-dasharray:2.0,2.0;" x1="64" x2="860" y1="475.5898" y2="475.5898"/><text fill="#000000" font-family="sans-serif" font-size="20" font-weight="bold" lengthAdjust="spacing" textLength="13" x="76" y="469.3711">8</text><text fill="#000000" font-family="sans-serif" font-size="20" lengthAdjust="spacing" textLength="266" x="93" y="469.3711">requests type of transaction</text><polygon fill="#181818" points="844,509.1445,854,513.1445,844,517.1445,848,513.1445" style="stroke:#181818;stroke-width:1.0;"/><line style="stroke:#181818;stroke-width:1.0;" x1="59" x2="850" y1="513.1445" y2="513.1445"/><text fill="#000000" font-family="sans-serif" font-size="20" font-weight="bold" lengthAdjust="spacing" textLength="13" x="66" y="506.9258">9</text><text fill="#000000" font-family="sans-serif" font-size="20" lengthAdjust="spacing" textLength="335" x="83" y="506.9258">types requested data (Sale or Rent)</text><path d="M10,528.1445 L89,528.1445 L89,543.6992 L79,553.6992 L10,553.6992 L10,528.1445 " fill="#EEEEEE" style="stroke:#000000;stroke-width:1.5;"/><rect fill="none" height="109.2188" style="stroke:#000000;stroke-width:1.5;" width="905" x="10" y="528.1445"/><text fill="#000000" font-family="sans-serif" font-size="20" font-weight="bold" lengthAdjust="spacing" textLength="34" x="25" y="548.4805">opt</text><text fill="#000000" font-family="sans-serif" font-size="20" font-weight="bold" lengthAdjust="spacing" textLength="61" x="104" y="549.4805">[Rent]</text><polygon fill="#181818" points="70,587.8086,60,591.8086,70,595.8086,66,591.8086" style="stroke:#181818;stroke-width:1.0;"/><line style="stroke:#181818;stroke-width:1.0;stroke-dasharray:2.0,2.0;" x1="64" x2="860" y1="591.8086" y2="591.8086"/><text fill="#000000" font-family="sans-serif" font-size="20" font-weight="bold" lengthAdjust="spacing" textLength="26" x="76" y="585.5898">10</text><text fill="#000000" font-family="sans-serif" font-size="20" lengthAdjust="spacing" textLength="242" x="106" y="585.5898">request contract duration</text><polygon fill="#181818" points="844,625.3633,854,629.3633,844,633.3633,848,629.3633" style="stroke:#181818;stroke-width:1.0;"/><line style="stroke:#181818;stroke-width:1.0;" x1="59" x2="850" y1="629.3633" y2="629.3633"/><text fill="#000000" font-family="sans-serif" font-size="20" font-weight="bold" lengthAdjust="spacing" textLength="26" x="66" y="623.1445">11</text><text fill="#000000" font-family="sans-serif" font-size="20" lengthAdjust="spacing" textLength="201" x="96" y="623.1445">types requested data</text><polygon fill="#181818" points="70,669.918,60,673.918,70,677.918,66,673.918" style="stroke:#181818;stroke-width:1.0;"/><line style="stroke:#181818;stroke-width:1.0;stroke-dasharray:2.0,2.0;" x1="64" x2="860" y1="673.918" y2="673.918"/><text fill="#000000" font-family="sans-serif" font-size="20" font-weight="bold" lengthAdjust="spacing" textLength="26" x="76" y="667.6992">12</text><text fill="#000000" font-family="sans-serif" font-size="20" lengthAdjust="spacing" textLength="242" x="106" y="667.6992">requests type of property</text><polygon fill="#181818" points="844,707.4727,854,711.4727,844,715.4727,848,711.4727" style="stroke:#181818;stroke-width:1.0;"/><line style="stroke:#181818;stroke-width:1.0;" x1="59" x2="850" y1="711.4727" y2="711.4727"/><text fill="#000000" font-family="sans-serif" font-size="20" font-weight="bold" lengthAdjust="spacing" textLength="26" x="66" y="705.2539">13</text><text fill="#000000" font-family="sans-serif" font-size="20" lengthAdjust="spacing" textLength="465" x="96" y="705.2539">types requested data (Apartement, House, Land)</text><polygon fill="#181818" points="70,745.0273,60,749.0273,70,753.0273,66,749.0273" style="stroke:#181818;stroke-width:1.0;"/><line style="stroke:#181818;stroke-width:1.0;stroke-dasharray:2.0,2.0;" x1="64" x2="860" y1="749.0273" y2="749.0273"/><text fill="#000000" font-family="sans-serif" font-size="20" font-weight="bold" lengthAdjust="spacing" textLength="26" x="76" y="742.8086">14</text><text fill="#000000" font-family="sans-serif" font-size="20" lengthAdjust="spacing" textLength="243" x="106" y="742.8086">requests data of property</text><path d="M10,764.0273 L82,764.0273 L82,779.582 L72,789.582 L10,789.582 L10,764.0273 " fill="#EEEEEE" style="stroke:#000000;stroke-width:1.5;"/><rect fill="none" height="409.875" style="stroke:#000000;stroke-width:1.5;" width="905" x="10" y="764.0273"/><text fill="#000000" font-family="sans-serif" font-size="20" font-weight="bold" lengthAdjust="spacing" textLength="27" x="25" y="784.3633">alt</text><text fill="#000000" font-family="sans-serif" font-size="20" font-weight="bold" lengthAdjust="spacing" textLength="64" x="97" y="785.3633">[Land]</text><polygon fill="#181818" points="844,870.8008,854,874.8008,844,878.8008,848,874.8008" style="stroke:#181818;stroke-width:1.0;"/><line style="stroke:#181818;stroke-width:1.0;" x1="59" x2="850" y1="874.8008" y2="874.8008"/><text fill="#000000" font-family="sans-serif" font-size="20" font-weight="bold" lengthAdjust="spacing" textLength="26" x="66" y="845.0273">15</text><text fill="#000000" font-family="sans-serif" font-size="20" lengthAdjust="spacing" textLength="430" x="96" y="821.4727">Select requested data (area (in m2), location,</text><text fill="#000000" font-family="sans-serif" font-size="20" lengthAdjust="spacing" textLength="500" x="96" y="845.0273">distance from the city centre, requested price (USD),</text><text fill="#000000" font-family="sans-serif" font-size="20" lengthAdjust="spacing" textLength="129" x="96" y="868.582">photographs)</text><line style="stroke:#000000;stroke-width:1.0;stroke-dasharray:2.0,2.0;" x1="10" x2="915" y1="883.8008" y2="883.8008"/><text fill="#000000" font-family="sans-serif" font-size="20" font-weight="bold" lengthAdjust="spacing" textLength="135" x="15" y="903.1367">[Apartement]</text><polygon fill="#181818" points="844,1004.5742,854,1008.5742,844,1012.5742,848,1008.5742" style="stroke:#181818;stroke-width:1.0;"/><line style="stroke:#181818;stroke-width:1.0;" x1="59" x2="850" y1="1008.5742" y2="1008.5742"/><text fill="#000000" font-family="sans-serif" font-size="20" font-weight="bold" lengthAdjust="spacing" textLength="26" x="66" y="967.0234">16</text><text fill="#000000" font-family="sans-serif" font-size="20" lengthAdjust="spacing" textLength="714" x="96" y="931.6914">Select requested data (area (in m2), location, distance from the city centre,</text><text fill="#000000" font-family="sans-serif" font-size="20" lengthAdjust="spacing" textLength="566" x="96" y="955.2461">requested price (USD), photographs, number of bedrooms,</text><text fill="#000000" font-family="sans-serif" font-size="20" lengthAdjust="spacing" textLength="479" x="96" y="978.8008">number of bathrooms, number of parking spaces,</text><text fill="#000000" font-family="sans-serif" font-size="20" lengthAdjust="spacing" textLength="708" x="96" y="1002.3555">any available equipment (such as central heating and/or air conditioning).</text><line style="stroke:#000000;stroke-width:1.0;stroke-dasharray:2.0,2.0;" x1="10" x2="915" y1="1017.5742" y2="1017.5742"/><text fill="#000000" font-family="sans-serif" font-size="20" font-weight="bold" lengthAdjust="spacing" textLength="79" x="15" y="1036.9102">[House]</text><polygon fill="#181818" points="844,1161.9023,854,1165.9023,844,1169.9023,848,1165.9023" style="stroke:#181818;stroke-width:1.0;"/><line style="stroke:#181818;stroke-width:1.0;" x1="59" x2="850" y1="1165.9023" y2="1165.9023"/><text fill="#000000" font-family="sans-serif" font-size="20" font-weight="bold" lengthAdjust="spacing" textLength="26" x="66" y="1112.5742">17</text><text fill="#000000" font-family="sans-serif" font-size="20" lengthAdjust="spacing" textLength="714" x="96" y="1065.4648">Select requested data (area (in m2), location, distance from the city centre,</text><text fill="#000000" font-family="sans-serif" font-size="20" lengthAdjust="spacing" textLength="566" x="96" y="1089.0195">requested price (USD), photographs, number of bedrooms,</text><text fill="#000000" font-family="sans-serif" font-size="20" lengthAdjust="spacing" textLength="479" x="96" y="1112.5742">number of bathrooms, number of parking spaces,</text><text fill="#000000" font-family="sans-serif" font-size="20" lengthAdjust="spacing" textLength="701" x="96" y="1136.1289">any available equipment (such as central heating and/or air conditioning,</text><text fill="#000000" font-family="sans-serif" font-size="20" lengthAdjust="spacing" textLength="743" x="96" y="1159.6836">existence of a basement, existence of an inhabitable loft, sun exposure value.</text><polygon fill="#181818" points="70,1206.457,60,1210.457,70,1214.457,66,1210.457" style="stroke:#181818;stroke-width:1.0;"/><line style="stroke:#181818;stroke-width:1.0;stroke-dasharray:2.0,2.0;" x1="64" x2="860" y1="1210.457" y2="1210.457"/><text fill="#000000" font-family="sans-serif" font-size="20" font-weight="bold" lengthAdjust="spacing" textLength="26" x="76" y="1204.2383">18</text><text fill="#000000" font-family="sans-serif" font-size="20" lengthAdjust="spacing" textLength="186" x="106" y="1204.2383">ask to confirm data</text><polygon fill="#181818" points="844,1244.0117,854,1248.0117,844,1252.0117,848,1248.0117" style="stroke:#181818;stroke-width:1.0;"/><line style="stroke:#181818;stroke-width:1.0;" x1="59" x2="850" y1="1248.0117" y2="1248.0117"/><text fill="#000000" font-family="sans-serif" font-size="20" font-weight="bold" lengthAdjust="spacing" textLength="26" x="66" y="1241.793">19</text><text fill="#000000" font-family="sans-serif" font-size="20" lengthAdjust="spacing" textLength="201" x="96" y="1241.793">confirm entered data</text><polygon fill="#181818" points="70,1281.5664,60,1285.5664,70,1289.5664,66,1285.5664" style="stroke:#181818;stroke-width:1.0;"/><line style="stroke:#181818;stroke-width:1.0;stroke-dasharray:2.0,2.0;" x1="64" x2="860" y1="1285.5664" y2="1285.5664"/><text fill="#000000" font-family="sans-serif" font-size="20" font-weight="bold" lengthAdjust="spacing" textLength="26" x="76" y="1279.3477">20</text><text fill="#000000" font-family="sans-serif" font-size="20" lengthAdjust="spacing" textLength="256" x="106" y="1279.3477">displays operation success</text><!--SRC=[xLOzRzim4DtzAmvPQWDAMcJCK210K7Ge4A12DozdwMmHfeugUNAY_leUASbHQpk9WupH955tZ- - -7XcsXXlqM5jNRAc4ajROMldcM7BpX-3woooC9b0xTaNbNKqWlgN9dmQBBMuebyuIU2e4UMEd1g72qZqOti0QRQ3PJ8oeQTu5eHfo-jqI5mHt1ZVHV9xdTmkuX5ihv1d5x0ZkMTsm5STjlIAlxuKu3nVt3qp-0Z10UflfXc8Aqo0BNDpqEwJV_MloCpiK6kndC3pf4ow_Zgnkr6aBug3m5CrpLCQwuqzYIKvxe15vH1e0BXMh1xs1qeJ6OXV0cY3Wrd2xqOWDXUHKqXxh0Eo0LcXNjP40WQncMekMeBfpAHrbr0SsvVCY7JZAPm0w9qK-Ta6GeOvGek3iR3BIDHH6gDZGYW9pnfeoA8neJ_Ed00Nw4le-oc39We_xBonBJo5aG3KQ-_Ivv4A7Gfc0Q9nDvPW6dyNLxCsXHhenz-AHGqHmV2hciuEUzklYECMqwXhfU_eauprXY3dmCGbbwt7Fzhmg7UUxj_uV9guHb-Vbi_6k8I_TUpNGRLGLgZLB6NntRT1k-e5SBfwl_4ji4_OhsQ8LI7i-azSyJU01ULJzWhbXgAyN6QZIfyh5bbODKAbMuLshgeDK56UaWqBZz1hY4r3ZZLhDVwaiHpzjVt6gr4qLZgSW5Ks57k0fS-_6-mNMIpx1Uy8w6sOtPdz5fNUk3jcI9uieLRywiTHGjl4C2thUKRH7xW1tgXEuqbdJNKqJ8uLvQ8igdZc94rgez0I9dbg_ppgIQ7mSfTB4W7Hza90-Owc_Ff9rCbcHD3rgMEdAe3kX4WZ3SFxxWy5mXIiZQKlhrceHMbQhneNM4-pGjdHrg34d9dUy43XU6r-_weWwMiCHG2cJdmhWcwuKKJnIjJMsGdCTJd7w2m00]--></g></svg>