<?xml version="1.0" encoding="UTF-8" standalone="no"?><svg xmlns="http://www.w3.org/2000/svg" xmlns:xlink="http://www.w3.org/1999/xlink" contentStyleType="text/css" height="534px" preserveAspectRatio="none" style="width:1041px;height:534px;background:#FFFFFF;" version="1.1" viewBox="0 0 1041 534" width="1041px" zoomAndPan="magnify"><defs/><g><text fill="#000000" font-family="sans-serif" font-size="14" font-weight="bold" lengthAdjust="spacing" textLength="363" x="338" y="28.5352">System Sequence Diagram (SSD) - Alternative One</text><rect fill="#FFFFFF" height="301.4375" style="stroke:#181818;stroke-width:1.0;" width="10" x="31" y="136.043"/><rect fill="#FFFFFF" height="37.5547" style="stroke:#181818;stroke-width:1.0;" width="10" x="986" y="165.5977"/><rect fill="#FFFFFF" height="37.5547" style="stroke:#181818;stroke-width:1.0;" width="10" x="986" y="240.707"/><rect fill="#FFFFFF" height="37.5547" style="stroke:#181818;stroke-width:1.0;" width="10" x="986" y="315.8164"/><rect fill="#FFFFFF" height="37.5547" style="stroke:#181818;stroke-width:1.0;" width="10" x="986" y="390.9258"/><line style="stroke:#181818;stroke-width:0.5;stroke-dasharray:5.0,5.0;" x1="36" x2="36" y1="126.043" y2="446.4805"/><line style="stroke:#181818;stroke-width:0.5;stroke-dasharray:5.0,5.0;" x1="991" x2="991" y1="126.043" y2="446.4805"/><text fill="#000000" font-family="sans-serif" font-size="20" lengthAdjust="spacing" textLength="56" x="5" y="121.8242">Agent</text><ellipse cx="36" cy="50.9883" fill="#E3E3E3" rx="8" ry="8" style="stroke:#181818;stroke-width:0.5;"/><path d="M36,58.9883 L36,85.9883 M23,66.9883 L49,66.9883 M36,85.9883 L23,100.9883 M36,85.9883 L49,100.9883 " fill="none" style="stroke:#181818;stroke-width:0.5;"/><text fill="#000000" font-family="sans-serif" font-size="20" lengthAdjust="spacing" textLength="56" x="5" y="464.8164">Agent</text><ellipse cx="36" cy="477.5352" fill="#E3E3E3" rx="8" ry="8" style="stroke:#181818;stroke-width:0.5;"/><path d="M36,485.5352 L36,512.5352 M23,493.5352 L49,493.5352 M36,512.5352 L23,527.5352 M36,512.5352 L49,527.5352 " fill="none" style="stroke:#181818;stroke-width:0.5;"/><rect fill="#E3E3E3" height="37.5547" rx="2.5" ry="2.5" style="stroke:#181818;stroke-width:0.5;" width="88" x="947" y="87.4883"/><text fill="#000000" font-family="sans-serif" font-size="20" lengthAdjust="spacing" textLength="74" x="954" y="113.8242">:System</text><rect fill="#E3E3E3" height="37.5547" rx="2.5" ry="2.5" style="stroke:#181818;stroke-width:0.5;" width="88" x="947" y="445.4805"/><text fill="#000000" font-family="sans-serif" font-size="20" lengthAdjust="spacing" textLength="74" x="954" y="471.8164">:System</text><rect fill="#FFFFFF" height="301.4375" style="stroke:#181818;stroke-width:1.0;" width="10" x="31" y="136.043"/><rect fill="#FFFFFF" height="37.5547" style="stroke:#181818;stroke-width:1.0;" width="10" x="986" y="165.5977"/><rect fill="#FFFFFF" height="37.5547" style="stroke:#181818;stroke-width:1.0;" width="10" x="986" y="240.707"/><rect fill="#FFFFFF" height="37.5547" style="stroke:#181818;stroke-width:1.0;" width="10" x="986" y="315.8164"/><rect fill="#FFFFFF" height="37.5547" style="stroke:#181818;stroke-width:1.0;" width="10" x="986" y="390.9258"/><polygon fill="#181818" points="974,161.5977,984,165.5977,974,169.5977,978,165.5977" style="stroke:#181818;stroke-width:1.0;"/><line style="stroke:#181818;stroke-width:1.0;" x1="41" x2="980" y1="165.5977" y2="165.5977"/><text fill="#000000" font-family="sans-serif" font-size="20" font-weight="bold" lengthAdjust="spacing" textLength="13" x="48" y="159.3789">1</text><text fill="#000000" font-family="sans-serif" font-size="20" lengthAdjust="spacing" textLength="244" x="65" y="159.3789">ask to list purchase order</text><polygon fill="#181818" points="52,199.1523,42,203.1523,52,207.1523,48,203.1523" style="stroke:#181818;stroke-width:1.0;"/><line style="stroke:#181818;stroke-width:1.0;stroke-dasharray:2.0,2.0;" x1="46" x2="990" y1="203.1523" y2="203.1523"/><text fill="#000000" font-family="sans-serif" font-size="20" font-weight="bold" lengthAdjust="spacing" textLength="13" x="58" y="196.9336">2</text><text fill="#000000" font-family="sans-serif" font-size="20" lengthAdjust="spacing" textLength="888" x="75" y="196.9336">displays list of purchases orders grouped by property from the oldest to the most recent one</text><polygon fill="#181818" points="974,236.707,984,240.707,974,244.707,978,240.707" style="stroke:#181818;stroke-width:1.0;"/><line style="stroke:#181818;stroke-width:1.0;" x1="41" x2="980" y1="240.707" y2="240.707"/><text fill="#000000" font-family="sans-serif" font-size="20" font-weight="bold" lengthAdjust="spacing" textLength="13" x="48" y="234.4883">3</text><text fill="#000000" font-family="sans-serif" font-size="20" lengthAdjust="spacing" textLength="206" x="65" y="234.4883">select purchase order</text><polygon fill="#181818" points="52,274.2617,42,278.2617,52,282.2617,48,278.2617" style="stroke:#181818;stroke-width:1.0;"/><line style="stroke:#181818;stroke-width:1.0;stroke-dasharray:2.0,2.0;" x1="46" x2="990" y1="278.2617" y2="278.2617"/><text fill="#000000" font-family="sans-serif" font-size="20" font-weight="bold" lengthAdjust="spacing" textLength="13" x="58" y="272.043">4</text><text fill="#000000" font-family="sans-serif" font-size="20" lengthAdjust="spacing" textLength="904" x="75" y="272.043">display the list of purchase orders sorted by the amount offered, the highest offer appear first.</text><polygon fill="#181818" points="974,311.8164,984,315.8164,974,319.8164,978,315.8164" style="stroke:#181818;stroke-width:1.0;"/><line style="stroke:#181818;stroke-width:1.0;" x1="41" x2="980" y1="315.8164" y2="315.8164"/><text fill="#000000" font-family="sans-serif" font-size="20" font-weight="bold" lengthAdjust="spacing" textLength="13" x="48" y="309.5977">5</text><text fill="#000000" font-family="sans-serif" font-size="20" lengthAdjust="spacing" textLength="206" x="65" y="309.5977">select purchase order</text><polygon fill="#181818" points="52,349.3711,42,353.3711,52,357.3711,48,353.3711" style="stroke:#181818;stroke-width:1.0;"/><line style="stroke:#181818;stroke-width:1.0;stroke-dasharray:2.0,2.0;" x1="46" x2="990" y1="353.3711" y2="353.3711"/><text fill="#000000" font-family="sans-serif" font-size="20" font-weight="bold" lengthAdjust="spacing" textLength="13" x="58" y="347.1523">6</text><text fill="#000000" font-family="sans-serif" font-size="20" lengthAdjust="spacing" textLength="357" x="75" y="347.1523">displays option list (Accept or Reject)</text><polygon fill="#181818" points="974,386.9258,984,390.9258,974,394.9258,978,390.9258" style="stroke:#181818;stroke-width:1.0;"/><line style="stroke:#181818;stroke-width:1.0;" x1="41" x2="980" y1="390.9258" y2="390.9258"/><text fill="#000000" font-family="sans-serif" font-size="20" font-weight="bold" lengthAdjust="spacing" textLength="13" x="48" y="384.707">7</text><text fill="#000000" font-family="sans-serif" font-size="20" lengthAdjust="spacing" textLength="298" x="65" y="384.707">select option (Accept or Reject)</text><polygon fill="#181818" points="52,424.4805,42,428.4805,52,432.4805,48,428.4805" style="stroke:#181818;stroke-width:1.0;"/><line style="stroke:#181818;stroke-width:1.0;stroke-dasharray:2.0,2.0;" x1="46" x2="990" y1="428.4805" y2="428.4805"/><text fill="#000000" font-family="sans-serif" font-size="20" font-weight="bold" lengthAdjust="spacing" textLength="13" x="58" y="422.2617">8</text><text fill="#000000" font-family="sans-serif" font-size="20" lengthAdjust="spacing" textLength="267" x="75" y="422.2617">system send email to client.</text><!--SRC=[hLB9JkH03BtdAwm-WKIFHXpxC59BY2lIv0jCbPCKNIdNb1r6cQ_7sNeG226Md5nUtc97JY5bBDX7TYVouAd18Uej9wt3FuBhdvLiBT1pOjSLxWcq3FIiaj6TiALQnqXGo2ccDZvla0uz_msfXGQZK5LfK6kjHr7geQO_0oL7S1EmdTelwlhc4lPmZ4ebeOP7WhjaOpWefw6_fsAnKowmExQKT0SeC4UL4Mfm8MDIs1qMXhcyXFDSU4IbjR-2zPkViF-rgJhOq0cK8GPHo4Dn7Ge15s_iqy0PQ4FUa5Q0lM4je0VmGNB4KHOmRivuiW0Aj8M7R2Uu7o4NpbHqXCQM3TePQVHaSoPcUlLiiQrvWcPRoyJfwIpdbPvNpeIY7UcBdbPBiwANhZPJmaKNJrCNzZnCafk62lchETU5jYDPau0v4nPeGX7zyTBNkxRWMtpzlnLd3PmMSnT7voYRpWA_wS5OBZ-zzXNs3SIFA9Kb9PGyK8yXJd-8Yy6gRsxl2G00]--></g></svg>