<?xml version="1.0" encoding="UTF-8" standalone="no"?><svg xmlns="http://www.w3.org/2000/svg" xmlns:xlink="http://www.w3.org/1999/xlink" contentStyleType="text/css" height="1276px" preserveAspectRatio="none" style="width:1375px;height:1276px;background:#FFFFFF;" version="1.1" viewBox="0 0 1375 1276" width="1375px" zoomAndPan="magnify"><defs/><g><text fill="#000000" font-family="sans-serif" font-size="14" font-weight="bold" lengthAdjust="spacing" textLength="105" x="628.12" y="23.5352">Domain Model</text><!--class Owner--><g id="elem_Owner"><rect codeLine="10" fill="#F1F1F1" height="41.5547" id="Owner" rx="2.5" ry="2.5" style="stroke:#181818;stroke-width:0.5;" width="68" x="479.24" y="520.9883"/><text fill="#000000" font-family="sans-serif" font-size="20" lengthAdjust="spacing" textLength="62" x="482.24" y="545.3242">Owner</text><line style="stroke:#181818;stroke-width:0.5;" x1="480.24" x2="546.24" y1="554.543" y2="554.543"/></g><!--class Person--><g id="elem_Person"><rect codeLine="17" fill="#F1F1F1" height="159.3281" id="Person" rx="2.5" ry="2.5" style="stroke:#181818;stroke-width:0.5;" width="220" x="924.24" y="265.4883"/><text fill="#000000" font-family="sans-serif" font-size="20" lengthAdjust="spacing" textLength="64" x="1002.24" y="289.8242">Person</text><line style="stroke:#181818;stroke-width:0.5;" x1="925.24" x2="1143.24" y1="299.043" y2="299.043"/><text fill="#000000" font-family="sans-serif" font-size="20" lengthAdjust="spacing" textLength="53" x="930.24" y="322.3789">name</text><text fill="#000000" font-family="sans-serif" font-size="20" lengthAdjust="spacing" textLength="208" x="930.24" y="345.9336">passportCardNumber</text><text fill="#000000" font-family="sans-serif" font-size="20" lengthAdjust="spacing" textLength="108" x="930.24" y="369.4883">taxNumber</text><text fill="#000000" font-family="sans-serif" font-size="20" lengthAdjust="spacing" textLength="53" x="930.24" y="393.043">email</text><text fill="#000000" font-family="sans-serif" font-size="20" lengthAdjust="spacing" textLength="173" x="930.24" y="416.5977">telephoneNumber</text></g><!--class Agent--><g id="elem_Agent"><rect codeLine="14" fill="#F1F1F1" height="41.5547" id="Agent" rx="2.5" ry="2.5" style="stroke:#181818;stroke-width:0.5;" width="62" x="482.24" y="323.9883"/><text fill="#000000" font-family="sans-serif" font-size="20" lengthAdjust="spacing" textLength="56" x="485.24" y="348.3242">Agent</text><line style="stroke:#181818;stroke-width:0.5;" x1="483.24" x2="543.24" y1="357.543" y2="357.543"/></g><!--class Agency--><g id="elem_Agency"><rect codeLine="25" fill="#F1F1F1" height="135.7734" id="Agency" rx="2.5" ry="2.5" style="stroke:#181818;stroke-width:0.5;" width="150" x="857.24" y="44.4883"/><text fill="#000000" font-family="sans-serif" font-size="20" lengthAdjust="spacing" textLength="69" x="897.74" y="68.8242">Agency</text><line style="stroke:#181818;stroke-width:0.5;" x1="858.24" x2="1006.24" y1="78.043" y2="78.043"/><text fill="#000000" font-family="sans-serif" font-size="20" lengthAdjust="spacing" textLength="21" x="863.24" y="101.3789">ID</text><text fill="#000000" font-family="sans-serif" font-size="20" lengthAdjust="spacing" textLength="53" x="863.24" y="124.9336">name</text><text fill="#000000" font-family="sans-serif" font-size="20" lengthAdjust="spacing" textLength="132" x="863.24" y="148.4883">emailAddress</text><text fill="#000000" font-family="sans-serif" font-size="20" lengthAdjust="spacing" textLength="138" x="863.24" y="172.043">phoneNumber</text></g><!--class Property--><g id="elem_Property"><rect codeLine="32" fill="#F1F1F1" height="112.2188" id="Property" rx="2.5" ry="2.5" style="stroke:#181818;stroke-width:0.5;" width="205" x="497.74" y="659.4883"/><text fill="#000000" font-family="sans-serif" font-size="20" lengthAdjust="spacing" textLength="80" x="560.24" y="683.8242">Property</text><line style="stroke:#181818;stroke-width:0.5;" x1="498.74" x2="701.74" y1="693.043" y2="693.043"/><text fill="#000000" font-family="sans-serif" font-size="20" lengthAdjust="spacing" textLength="41" x="503.74" y="716.3789">area</text><text fill="#000000" font-family="sans-serif" font-size="20" lengthAdjust="spacing" textLength="193" x="503.74" y="739.9336">distanceFromCenter</text><text fill="#000000" font-family="sans-serif" font-size="20" lengthAdjust="spacing" textLength="48" x="503.74" y="763.4883">price</text></g><!--class Photos--><g id="elem_Photos"><rect codeLine="38" fill="#F1F1F1" height="41.5547" id="Photos" rx="2.5" ry="2.5" style="stroke:#181818;stroke-width:0.5;" width="70" x="371.24" y="891.4883"/><text fill="#000000" font-family="sans-serif" font-size="20" lengthAdjust="spacing" textLength="64" x="374.24" y="915.8242">Photos</text><line style="stroke:#181818;stroke-width:0.5;" x1="372.24" x2="440.24" y1="925.043" y2="925.043"/></g><!--class Rent--><g id="elem_Rent"><rect codeLine="41" fill="#F1F1F1" height="65.1094" id="Rent" rx="2.5" ry="2.5" style="stroke:#181818;stroke-width:0.5;" width="172" x="922.24" y="509.4883"/><text fill="#000000" font-family="sans-serif" font-size="20" lengthAdjust="spacing" textLength="43" x="986.74" y="533.8242">Rent</text><line style="stroke:#181818;stroke-width:0.5;" x1="923.24" x2="1093.24" y1="543.043" y2="543.043"/><text fill="#000000" font-family="sans-serif" font-size="20" lengthAdjust="spacing" textLength="160" x="928.24" y="566.3789">contractDuration</text></g><!--class Address--><g id="elem_Address"><rect codeLine="45" fill="#F1F1F1" height="112.2188" id="Address" rx="2.5" ry="2.5" style="stroke:#181818;stroke-width:0.5;" width="135" x="1175.74" y="659.4883"/><text fill="#000000" font-family="sans-serif" font-size="20" lengthAdjust="spacing" textLength="79" x="1203.74" y="683.8242">Address</text><line style="stroke:#181818;stroke-width:0.5;" x1="1176.74" x2="1309.74" y1="693.043" y2="693.043"/><text fill="#000000" font-family="sans-serif" font-size="20" lengthAdjust="spacing" textLength="54" x="1181.74" y="716.3789">street</text><text fill="#000000" font-family="sans-serif" font-size="20" lengthAdjust="spacing" textLength="123" x="1181.74" y="739.9336">doorNumber</text><text fill="#000000" font-family="sans-serif" font-size="20" lengthAdjust="spacing" textLength="80" x="1181.74" y="763.4883">zipCode</text></g><!--class City--><g id="elem_City"><rect codeLine="51" fill="#F1F1F1" height="41.5547" id="City" rx="2.5" ry="2.5" style="stroke:#181818;stroke-width:0.5;" width="43" x="1129.74" y="520.9883"/><text fill="#000000" font-family="sans-serif" font-size="20" lengthAdjust="spacing" textLength="37" x="1132.74" y="545.3242">City</text><line style="stroke:#181818;stroke-width:0.5;" x1="1130.74" x2="1171.74" y1="554.543" y2="554.543"/></g><!--class District--><g id="elem_District"><rect codeLine="54" fill="#F1F1F1" height="41.5547" id="District" rx="2.5" ry="2.5" style="stroke:#181818;stroke-width:0.5;" width="75" x="1055.74" y="694.4883"/><text fill="#000000" font-family="sans-serif" font-size="20" lengthAdjust="spacing" textLength="69" x="1058.74" y="718.8242">District</text><line style="stroke:#181818;stroke-width:0.5;" x1="1056.74" x2="1129.74" y1="728.043" y2="728.043"/></g><!--class State--><g id="elem_State"><rect codeLine="57" fill="#F1F1F1" height="41.5547" id="State" rx="2.5" ry="2.5" style="stroke:#181818;stroke-width:0.5;" width="53" x="1143.74" y="891.4883"/><text fill="#000000" font-family="sans-serif" font-size="20" lengthAdjust="spacing" textLength="47" x="1146.74" y="915.8242">State</text><line style="stroke:#181818;stroke-width:0.5;" x1="1144.74" x2="1195.74" y1="925.043" y2="925.043"/></g><!--class Apartment--><g id="elem_Apartment"><rect codeLine="60" fill="#F1F1F1" height="41.5547" id="Apartment" rx="2.5" ry="2.5" style="stroke:#181818;stroke-width:0.5;" width="108" x="378.24" y="1076.9883"/><text fill="#000000" font-family="sans-serif" font-size="20" lengthAdjust="spacing" textLength="102" x="381.24" y="1101.3242">Apartment</text><line style="stroke:#181818;stroke-width:0.5;" x1="379.24" x2="485.24" y1="1110.543" y2="1110.543"/></g><!--class Residency--><g id="elem_Residency"><rect codeLine="68" fill="#F1F1F1" height="112.2188" id="Residency" rx="2.5" ry="2.5" style="stroke:#181818;stroke-width:0.5;" width="248" x="476.24" y="856.4883"/><text fill="#000000" font-family="sans-serif" font-size="20" lengthAdjust="spacing" textLength="96" x="552.24" y="880.8242">Residency</text><line style="stroke:#181818;stroke-width:0.5;" x1="477.24" x2="723.24" y1="890.043" y2="890.043"/><text fill="#000000" font-family="sans-serif" font-size="20" lengthAdjust="spacing" textLength="195" x="482.24" y="913.3789">numberOfBedrooms</text><text fill="#000000" font-family="sans-serif" font-size="20" lengthAdjust="spacing" textLength="201" x="482.24" y="936.9336">numberOfBathrooms</text><text fill="#000000" font-family="sans-serif" font-size="20" lengthAdjust="spacing" textLength="236" x="482.24" y="960.4883">numberOfParkingSpaces</text></g><!--class House--><g id="elem_House"><rect codeLine="63" fill="#F1F1F1" height="88.6641" id="House" rx="2.5" ry="2.5" style="stroke:#181818;stroke-width:0.5;" width="157" x="521.74" y="1053.4883"/><text fill="#000000" font-family="sans-serif" font-size="20" lengthAdjust="spacing" textLength="60" x="570.24" y="1077.8242">House</text><line style="stroke:#181818;stroke-width:0.5;" x1="522.74" x2="677.74" y1="1087.043" y2="1087.043"/><text fill="#000000" font-family="sans-serif" font-size="20" lengthAdjust="spacing" textLength="94" x="527.74" y="1110.3789">basement</text><text fill="#000000" font-family="sans-serif" font-size="20" lengthAdjust="spacing" textLength="145" x="527.74" y="1133.9336">inhabitableLoft</text></g><!--class Land--><g id="elem_Land"><rect codeLine="75" fill="#F1F1F1" height="41.5547" id="Land" rx="2.5" ry="2.5" style="stroke:#181818;stroke-width:0.5;" width="53" x="759.74" y="891.4883"/><text fill="#000000" font-family="sans-serif" font-size="20" lengthAdjust="spacing" textLength="47" x="762.74" y="915.8242">Land</text><line style="stroke:#181818;stroke-width:0.5;" x1="760.74" x2="811.74" y1="925.043" y2="925.043"/></g><!--class Equipment--><g id="elem_Equipment"><rect codeLine="78" fill="#F1F1F1" height="65.1094" id="Equipment" rx="2.5" ry="2.5" style="stroke:#181818;stroke-width:0.5;" width="172" x="714.24" y="1065.4883"/><text fill="#000000" font-family="sans-serif" font-size="20" lengthAdjust="spacing" textLength="104" x="748.24" y="1089.8242">Equipment</text><line style="stroke:#181818;stroke-width:0.5;" x1="715.24" x2="885.24" y1="1099.043" y2="1099.043"/><text fill="#000000" font-family="sans-serif" font-size="20" lengthAdjust="spacing" textLength="160" x="720.24" y="1122.3789">equipmentName</text></g><!--class SunExposure--><g id="elem_SunExposure"><rect codeLine="82" fill="#F1F1F1" height="41.5547" id="SunExposure" rx="2.5" ry="2.5" style="stroke:#181818;stroke-width:0.5;" width="130" x="535.24" y="1227.4883"/><text fill="#000000" font-family="sans-serif" font-size="20" lengthAdjust="spacing" textLength="124" x="538.24" y="1251.8242">SunExposure</text><line style="stroke:#181818;stroke-width:0.5;" x1="536.24" x2="664.24" y1="1261.043" y2="1261.043"/></g><!--class Request--><g id="elem_Request"><rect codeLine="85" fill="#F1F1F1" height="65.1094" id="Request" rx="2.5" ry="2.5" style="stroke:#181818;stroke-width:0.5;" width="171" x="661.74" y="509.4883"/><text fill="#000000" font-family="sans-serif" font-size="20" lengthAdjust="spacing" textLength="77" x="708.74" y="533.8242">Request</text><line style="stroke:#181818;stroke-width:0.5;" x1="662.74" x2="831.74" y1="543.043" y2="543.043"/><text fill="#000000" font-family="sans-serif" font-size="20" lengthAdjust="spacing" textLength="159" x="667.74" y="566.3789">TransactionType</text></g><!--reverse link Person to Owner--><g id="link_Person_Owner"><path d="M905.45,432.5483 C874.63,450.2683 841.1,467.2283 808.24,479.4883 C738.82,505.3983 716.74,494.1583 644.24,509.4883 C611.29,516.4583 573.96,525.5583 547.6,532.1783 " fill="none" id="Person-backto-Owner" style="stroke:#181818;stroke-width:1.0;"/><polygon fill="none" points="901.67,426.6483,922.46,422.5283,908.78,438.7083,901.67,426.6483" style="stroke:#181818;stroke-width:1.0;"/></g><!--reverse link Residency to Apartment--><g id="link_Residency_Apartment"><path d="M535.71,983.9683 C505.27,1017.2283 471.21,1054.4283 450.76,1076.7583 " fill="none" id="Residency-backto-Apartment" style="stroke:#181818;stroke-width:1.0;"/><polygon fill="none" points="530.14,979.6883,548.81,969.6583,540.47,989.1383,530.14,979.6883" style="stroke:#181818;stroke-width:1.0;"/></g><!--reverse link Residency to House--><g id="link_Residency_House"><path d="M600.24,989.9183 C600.24,1011.4383 600.24,1034.1183 600.24,1053.0383 " fill="none" id="Residency-backto-House" style="stroke:#181818;stroke-width:1.0;"/><polygon fill="none" points="593.24,990.0583,600.24,970.0583,607.24,990.0583,593.24,990.0583" style="stroke:#181818;stroke-width:1.0;"/></g><!--reverse link Property to Residency--><g id="link_Property_Residency"><path d="M600.24,793.0683 C600.24,814.0683 600.24,836.4283 600.24,855.9883 " fill="none" id="Property-backto-Residency" style="stroke:#181818;stroke-width:1.0;"/><polygon fill="none" points="593.24,793.3583,600.24,773.3583,607.24,793.3583,593.24,793.3583" style="stroke:#181818;stroke-width:1.0;"/></g><!--reverse link Property to Land--><g id="link_Property_Land"><path d="M674.9,786.8583 C697.12,808.6483 721.15,833.0983 742.24,856.4883 C752.23,867.5683 762.69,880.5783 770.91,891.1683 " fill="none" id="Property-backto-Land" style="stroke:#181818;stroke-width:1.0;"/><polygon fill="none" points="670.04,791.8883,660.58,772.9283,679.8,781.8483,670.04,791.8883" style="stroke:#181818;stroke-width:1.0;"/></g><!--link Agency to Agent--><g id="link_Agency_Agent"><path codeLine="89" d="M856.85,154.9583 C763.78,206.1583 609.8,290.8683 544.29,326.9083 " fill="none" id="Agency-Agent" style="stroke:#181818;stroke-width:1.0;"/><polygon fill="#000000" points="748.2307,227.1217,763.1772,224.266,758.6441,216.026,748.2307,227.1217" style="stroke:#000000;stroke-width:1.0;"/><text fill="#000000" font-family="sans-serif" font-size="20" lengthAdjust="spacing" textLength="33" x="768.24" y="230.8242">has</text><text fill="#000000" font-family="sans-serif" font-size="20" lengthAdjust="spacing" textLength="13" x="836.3008" y="154.1853">1</text><text fill="#000000" font-family="sans-serif" font-size="20" lengthAdjust="spacing" textLength="10" x="552.1759" y="316.883">*</text></g><!--link Agent to Owner--><g id="link_Agent_Owner"><path codeLine="90" d="M513.24,366.4883 C513.24,404.0383 513.24,483.4183 513.24,520.7583 " fill="none" id="Agent-Owner" style="stroke:#181818;stroke-width:1.0;"/><polygon fill="#000000" points="521.24,475.2656,525.9423,460.7935,516.5377,460.7935,521.24,475.2656" style="stroke:#000000;stroke-width:1.0;"/><text fill="#000000" font-family="sans-serif" font-size="20" lengthAdjust="spacing" textLength="122" x="534.24" y="474.8242">contacted by</text><text fill="#000000" font-family="sans-serif" font-size="20" lengthAdjust="spacing" textLength="13" x="498.8994" y="392.7336">1</text><text fill="#000000" font-family="sans-serif" font-size="20" lengthAdjust="spacing" textLength="13" x="498.5744" y="508.8353">1</text></g><!--link Agent to Property--><g id="link_Agent_Property"><path codeLine="91" d="M482,349.8983 C370.79,365.1283 6,427.1183 104.24,574.4883 C147.86,639.9083 365.36,681.4883 497.43,701.1283 " fill="none" id="Agent-Property" style="stroke:#181818;stroke-width:1.0;"/><polygon fill="#000000" points="112.5911,550.2579,116.6537,535.5933,107.2582,536.0061,112.5911,550.2579" style="stroke:#000000;stroke-width:1.0;"/><text fill="#000000" font-family="sans-serif" font-size="20" lengthAdjust="spacing" textLength="93" x="125.24" y="549.8242">publishes</text><text fill="#000000" font-family="sans-serif" font-size="20" lengthAdjust="spacing" textLength="10" x="464.0725" y="344.902">*</text><text fill="#000000" font-family="sans-serif" font-size="20" lengthAdjust="spacing" textLength="10" x="479.8496" y="695.6577">*</text></g><!--link Agent to Property--><g id="link_Agent_Property"><path codeLine="92" d="M481.9,357.8983 C404.78,389.0183 216.59,477.1683 280.24,574.4883 C328.04,647.5683 423.31,682.7283 497.53,699.5083 " fill="none" id="Agent-Property-1" style="stroke:#181818;stroke-width:1.0;"/><polygon fill="#000000" points="288.6056,550.2573,292.6416,535.5853,283.2468,536.0152,288.6056,550.2573" style="stroke:#000000;stroke-width:1.0;"/><text fill="#000000" font-family="sans-serif" font-size="20" lengthAdjust="spacing" textLength="160" x="301.24" y="549.8242">sets commission</text><text fill="#000000" font-family="sans-serif" font-size="20" lengthAdjust="spacing" textLength="13" x="461.0955" y="382.3719">1</text><text fill="#000000" font-family="sans-serif" font-size="20" lengthAdjust="spacing" textLength="10" x="479.62" y="718.5276">*</text></g><!--link Owner to Property--><g id="link_Owner_Property"><path codeLine="93" d="M523.56,563.3383 C535.49,586.8483 555.61,626.5083 572.25,659.3083 " fill="none" id="Owner-Property" style="stroke:#181818;stroke-width:1.0;"/><polygon fill="#000000" points="567.8596,624.4,565.5052,609.3663,557.1182,613.6214,567.8596,624.4" style="stroke:#000000;stroke-width:1.0;"/><text fill="#000000" font-family="sans-serif" font-size="20" lengthAdjust="spacing" textLength="49" x="577.24" y="624.8242">owns</text><text fill="#000000" font-family="sans-serif" font-size="20" lengthAdjust="spacing" textLength="13" x="511.3956" y="589.9695">1</text><text fill="#000000" font-family="sans-serif" font-size="20" lengthAdjust="spacing" textLength="10" x="558.2293" y="647.4162">*</text></g><!--link Owner to Request--><g id="link_Owner_Request"><path codeLine="94" d="M547.27,541.9883 C577.12,541.9883 621.82,541.9883 661.39,541.9883 " fill="none" id="Owner-Request" style="stroke:#181818;stroke-width:1.0;"/><polygon fill="#000000" points="580.49,526.7656,566.0179,522.0633,566.0179,531.4679,580.49,526.7656" style="stroke:#000000;stroke-width:1.0;"/><text fill="#000000" font-family="sans-serif" font-size="20" lengthAdjust="spacing" textLength="58" x="585.49" y="534.3242">create</text><text fill="#000000" font-family="sans-serif" font-size="20" lengthAdjust="spacing" textLength="13" x="555.2493" y="536.1586">1</text><text fill="#000000" font-family="sans-serif" font-size="20" lengthAdjust="spacing" textLength="13" x="640.7423" y="537.3903">1</text></g><!--link Request to Property--><g id="link_Request_Property"><path codeLine="95" d="M719.94,574.8483 C699.68,598.4783 671.54,631.2983 647.64,659.1883 " fill="none" id="Request-Property" style="stroke:#181818;stroke-width:1.0;"/><polygon fill="#000000" points="693.0333,623.3394,706.0224,615.4123,698.8822,609.2914,693.0333,623.3394" style="stroke:#000000;stroke-width:1.0;"/><text fill="#000000" font-family="sans-serif" font-size="20" lengthAdjust="spacing" textLength="62" x="711.24" y="624.8242">has an</text><text fill="#000000" font-family="sans-serif" font-size="20" lengthAdjust="spacing" textLength="13" x="701.1306" y="601.8469">1</text><text fill="#000000" font-family="sans-serif" font-size="20" lengthAdjust="spacing" textLength="13" x="639.6247" y="647.2816">1</text></g><!--link Request to Agent--><g id="link_Request_Agent"><path codeLine="96" d="M719.76,509.1483 C704.44,492.1483 684.6,471.3283 665.24,454.4883 C625.98,420.3283 576.2,386.3583 544.53,365.7583 " fill="none" id="Request-Agent" style="stroke:#181818;stroke-width:1.0;"/><polygon fill="#000000" points="693.0487,462.1993,701.271,475.0035,707.2268,467.7252,693.0487,462.1993" style="stroke:#000000;stroke-width:1.0;"/><text fill="#000000" font-family="sans-serif" font-size="20" lengthAdjust="spacing" textLength="87" x="712.24" y="474.8242">is sent to</text><text fill="#000000" font-family="sans-serif" font-size="20" lengthAdjust="spacing" textLength="13" x="700.4949" y="497.3501">1</text><text fill="#000000" font-family="sans-serif" font-size="20" lengthAdjust="spacing" textLength="13" x="537.5726" y="393.0819">1</text></g><!--link Request to Rent--><g id="link_Request_Rent"><path codeLine="97" d="M833.06,541.9883 C861.59,541.9883 893.36,541.9883 921.92,541.9883 " fill="none" id="Request-Rent" style="stroke:#181818;stroke-width:1.0;"/><polygon fill="#000000" points="865.99,526.7656,851.5179,522.0633,851.5179,531.4679,865.99,526.7656" style="stroke:#000000;stroke-width:1.0;"/><text fill="#000000" font-family="sans-serif" font-size="20" lengthAdjust="spacing" textLength="33" x="870.99" y="534.3242">has</text><text fill="#000000" font-family="sans-serif" font-size="20" lengthAdjust="spacing" textLength="13" x="840.7053" y="537.3903">1</text><text fill="#000000" font-family="sans-serif" font-size="20" lengthAdjust="spacing" textLength="13" x="901.2333" y="537.3903">1</text></g><!--link Address to State--><g id="link_Address_State"><path codeLine="98" d="M1229.75,771.9683 C1224.89,789.6183 1218.93,809.0783 1212.24,826.4883 C1203.5,849.2283 1190.83,874.0883 1181.69,891.0083 " fill="none" id="Address-State" style="stroke:#181818;stroke-width:1.0;"/><polygon fill="#000000" points="1231.235,806.8474,1221.4567,818.5067,1230.1774,822.0275,1231.235,806.8474" style="stroke:#000000;stroke-width:1.0;"/><text fill="#000000" font-family="sans-serif" font-size="20" lengthAdjust="spacing" textLength="86" x="1241.24" y="821.8242">is part of</text><text fill="#000000" font-family="sans-serif" font-size="20" lengthAdjust="spacing" textLength="13" x="1214.4387" y="799.1838">1</text><text fill="#000000" font-family="sans-serif" font-size="20" lengthAdjust="spacing" textLength="13" x="1169.8966" y="879.4272">1</text></g><!--link City to District--><g id="link_City_District"><path codeLine="99" d="M1129.51,559.8283 C1116.95,570.9783 1102.28,586.7783 1095.24,604.4883 C1083.53,633.9483 1086.16,671.4583 1089.47,694.1883 " fill="none" id="City-District" style="stroke:#181818;stroke-width:1.0;"/><polygon fill="#000000" points="1100.9553,624.9324,1109.5948,612.406,1100.582,609.7201,1100.9553,624.9324" style="stroke:#000000;stroke-width:1.0;"/><text fill="#000000" font-family="sans-serif" font-size="20" lengthAdjust="spacing" textLength="100" x="1116.24" y="624.8242">are part of</text><text fill="#000000" font-family="sans-serif" font-size="20" lengthAdjust="spacing" textLength="10" x="1111.6581" y="558.1735">*</text><text fill="#000000" font-family="sans-serif" font-size="20" lengthAdjust="spacing" textLength="13" x="1073.8383" y="682.2473">1</text></g><!--link District to State--><g id="link_District_State"><path codeLine="100" d="M1085.5,736.8383 C1078.11,759.6183 1069.79,797.1583 1082.24,826.4883 C1094.61,855.6183 1122.39,879.6383 1143.45,894.6183 " fill="none" id="District-State" style="stroke:#181818;stroke-width:1.0;"/><polygon fill="#000000" points="1092.9981,821.7751,1092.4226,806.5691,1083.5947,809.8115,1092.9981,821.7751" style="stroke:#000000;stroke-width:1.0;"/><text fill="#000000" font-family="sans-serif" font-size="20" lengthAdjust="spacing" textLength="100" x="1103.24" y="821.8242">are part of</text><text fill="#000000" font-family="sans-serif" font-size="20" lengthAdjust="spacing" textLength="10" x="1072.7131" y="763.4695">*</text><text fill="#000000" font-family="sans-serif" font-size="20" lengthAdjust="spacing" textLength="13" x="1122.7517" y="884.278">1</text></g><!--link Property to Photos--><g id="link_Property_Photos"><path codeLine="101" d="M544.04,771.7283 C518.09,797.3783 486.96,828.3483 459.24,856.4883 C448.07,867.8283 435.73,880.6183 425.77,891.0083 " fill="none" id="Property-Photos" style="stroke:#181818;stroke-width:1.0;"/><polygon fill="#000000" points="514.6072,819.9465,528.1361,812.9806,521.4579,806.3589,514.6072,819.9465" style="stroke:#000000;stroke-width:1.0;"/><text fill="#000000" font-family="sans-serif" font-size="20" lengthAdjust="spacing" textLength="33" x="533.24" y="821.8242">has</text><text fill="#000000" font-family="sans-serif" font-size="20" lengthAdjust="spacing" textLength="13" x="523.7903" y="798.9161">1</text><text fill="#000000" font-family="sans-serif" font-size="20" lengthAdjust="spacing" textLength="10" x="419.3117" y="879.4272">*</text></g><!--link Residency to Equipment--><g id="link_Residency_Equipment"><path codeLine="104" d="M660.52,968.7883 C694.79,1000.2383 736.5,1038.5083 765.38,1065.0083 " fill="none" id="Residency-Equipment" style="stroke:#181818;stroke-width:1.0;"/><polygon fill="#000000" points="731.1345,1016.6744,723.6505,1003.4251,717.2921,1010.3545,731.1345,1016.6744" style="stroke:#000000;stroke-width:1.0;"/><text fill="#000000" font-family="sans-serif" font-size="20" lengthAdjust="spacing" textLength="33" x="738.24" y="1018.8242">has</text><text fill="#000000" font-family="sans-serif" font-size="20" lengthAdjust="spacing" textLength="13" x="653.7383" y="995.983">1</text><text fill="#000000" font-family="sans-serif" font-size="20" lengthAdjust="spacing" textLength="10" x="748.0308" y="1053.1843">*</text></g><!--link Person to Address--><g id="link_Person_Address"><path codeLine="105" d="M1123.11,424.8383 C1147.47,449.9683 1172.13,479.1783 1190.24,509.4883 C1217.87,555.7183 1231.23,616.1683 1237.61,659.4283 " fill="none" id="Person-Address" style="stroke:#181818;stroke-width:1.0;"/><polygon fill="#000000" points="1229.749,549.455,1227.6269,534.3868,1219.1753,538.5119,1229.749,549.455" style="stroke:#000000;stroke-width:1.0;"/><text fill="#000000" font-family="sans-serif" font-size="20" lengthAdjust="spacing" textLength="33" x="1239.24" y="549.8242">has</text><text fill="#000000" font-family="sans-serif" font-size="20" lengthAdjust="spacing" textLength="13" x="1117.1887" y="452.0343">1</text><text fill="#000000" font-family="sans-serif" font-size="20" lengthAdjust="spacing" textLength="10" x="1226.248" y="647.1296">*</text></g><!--link Property to Address--><g id="link_Property_Address"><path codeLine="106" d="M702.92,671.1083 C753.73,651.4983 816.6,630.7083 875.24,620.9083 C996.1,600.6983 1033.86,615.5183 1148.24,659.4883 C1157.27,662.9583 1166.43,667.2383 1175.32,671.8683 " fill="none" id="Property-Address" style="stroke:#181818;stroke-width:1.0;"/><polygon fill="#000000" points="891.24,617.2785,876.7754,612.5529,876.7603,621.9575,891.24,617.2785" style="stroke:#000000;stroke-width:1.0;"/><text fill="#000000" font-family="sans-serif" font-size="20" lengthAdjust="spacing" textLength="62" x="896.24" y="624.8242">has an</text><text fill="#000000" font-family="sans-serif" font-size="20" lengthAdjust="spacing" textLength="13" x="710.5967" y="663.527">1</text><text fill="#000000" font-family="sans-serif" font-size="20" lengthAdjust="spacing" textLength="13" x="1154.6454" y="662.5373">1</text></g><!--link House to SunExposure--><g id="link_House_SunExposure"><path codeLine="107" d="M600.24,1142.7383 C600.24,1170.6283 600.24,1205.4683 600.24,1227.0983 " fill="none" id="House-SunExposure" style="stroke:#181818;stroke-width:1.0;"/><polygon fill="#000000" points="608.24,1193.2656,612.9423,1178.7935,603.5377,1178.7935,608.24,1193.2656" style="stroke:#000000;stroke-width:1.0;"/><text fill="#000000" font-family="sans-serif" font-size="20" lengthAdjust="spacing" textLength="131" x="621.24" y="1192.8242">has a value of</text><text fill="#000000" font-family="sans-serif" font-size="20" lengthAdjust="spacing" textLength="13" x="586.4072" y="1169.3383">1</text><text fill="#000000" font-family="sans-serif" font-size="20" lengthAdjust="spacing" textLength="13" x="585.5744" y="1215.1343">1</text></g><!--link Agency to Address--><g id="link_Agency_Address"><path codeLine="108" d="M1007.63,149.8283 C1056.62,176.4283 1119.15,216.3883 1162.24,265.4883 C1259.31,376.0983 1300.69,428.6083 1281.24,574.4883 C1277.45,602.9483 1269.5,633.8183 1261.84,659.3183 " fill="none" id="Agency-Address" style="stroke:#181818;stroke-width:1.0;"/><polygon fill="#000000" points="1295.8117,474.424,1293.5581,459.375,1285.1428,463.5737,1295.8117,474.424" style="stroke:#000000;stroke-width:1.0;"/><text fill="#000000" font-family="sans-serif" font-size="20" lengthAdjust="spacing" textLength="62" x="1305.24" y="474.8242">has an</text><text fill="#000000" font-family="sans-serif" font-size="20" lengthAdjust="spacing" textLength="13" x="1015.1792" y="148.5824">1</text><text fill="#000000" font-family="sans-serif" font-size="20" lengthAdjust="spacing" textLength="13" x="1250.3147" y="647.4274">1</text></g><!--SRC=[VLJRJjn037tFLupsfL8bfBQFg4BQxeAAH06n_80tyMv69ECmTWeBuj_hpEGosQxW0JBscUDZ-mpyP5q37kgAyYSiJ84xQ2kv8YSR-uRcnxUC1uYfoL5UUghHY6ynoJIGFy4UDtAeq7ZC1To-IW5SGa4lrktD3YfECta5p4iHRxUju7LEBXJ-bfMsG9DRdojH-AvHIYeuoyIAbbbJ3TQPFrHWbMM1njozEFG6NmLTmUOUFPCpxzb7DW2MUtGI8p4GCU-PqHy7DOQFHZCDULc1BsxRUei-X0LUanDg-Ih6iSAc98TzzYEjbXyY-VLwNYDSNnQ5H-POz1J3lQS6lVGSu172Hs5PHvpZbIvZfHtraXflSqmkboJ4QRSFiViEguCM3xciMmzYoIMgewW8O_684eiI-QJ_DzkiTFRJlPNjT8x7jMfKFPA4DWA2oNcf5f2wqpIix05PLns6Dg9-Kyju2j6fs09Znn0ErfMmjGBR2cze9sdV_QN96xF1kj3MtUuN5fwevdaGfFm_UWzUFRpVgFLHFJcMkW5NdAWovY-VMzjqYcDb78wtdJ6cIRNkyhKXRZtErlVS8klDHm-ETNcwjyT34-v5hvd5zuKvEpEBhulezNDJ0fkBB1f_oEgV-5JEWm-KIT_-zZ3Xz7ea6JeuDqsxhIoNUCHsX68KLiwwjiogJh6nq2ailJW-1kZllakLfdONL4GVIULFB5r_u4wZ-X5OLbqgMEWOrXTCvXJDdv84rvh0qldLqCxyp3gpnp55qE1snUah7O4NsPX8m0FZ73cqbEumFk51t9Vu59BywAOHChsfps3JW_WCrVy3JJqLnpC2PfBZo5D4sCjSTDV-PEuUPlv2rM8Smv6HJr9c_m00]--></g></svg>