<?xml version="1.0" encoding="UTF-8" standalone="no"?><svg xmlns="http://www.w3.org/2000/svg" xmlns:xlink="http://www.w3.org/1999/xlink" contentStyleType="text/css" height="928px" preserveAspectRatio="none" style="width:500px;height:928px;background:#FFFFFF;" version="1.1" viewBox="0 0 500 928" width="500px" zoomAndPan="magnify"><defs/><g><text fill="#000000" font-family="sans-serif" font-size="14" font-weight="bold" lengthAdjust="spacing" textLength="105" x="190.5" y="23.5352">Domain Model</text><!--class Employee--><g id="elem_Employee"><rect codeLine="16" fill="#F1F1F1" height="41.5547" id="Employee" rx="2.5" ry="2.5" style="stroke:#181818;stroke-width:0.5;" width="99" x="260.5" y="264.4883"/><text fill="#000000" font-family="sans-serif" font-size="20" lengthAdjust="spacing" textLength="93" x="263.5" y="288.8242">Employee</text><line style="stroke:#181818;stroke-width:0.5;" x1="261.5" x2="358.5" y1="298.043" y2="298.043"/></g><!--class Agent--><g id="elem_Agent"><rect codeLine="13" fill="#F1F1F1" height="41.5547" id="Agent" rx="2.5" ry="2.5" style="stroke:#181818;stroke-width:0.5;" width="62" x="272" y="367.4883"/><text fill="#000000" font-family="sans-serif" font-size="20" lengthAdjust="spacing" textLength="56" x="275" y="391.8242">Agent</text><line style="stroke:#181818;stroke-width:0.5;" x1="273" x2="333" y1="401.043" y2="401.043"/></g><!--class Person--><g id="elem_Person"><rect codeLine="18" fill="#F1F1F1" height="159.3281" id="Person" rx="2.5" ry="2.5" style="stroke:#181818;stroke-width:0.5;" width="220" x="273" y="44.4883"/><text fill="#000000" font-family="sans-serif" font-size="20" lengthAdjust="spacing" textLength="64" x="351" y="68.8242">Person</text><line style="stroke:#181818;stroke-width:0.5;" x1="274" x2="492" y1="78.043" y2="78.043"/><text fill="#000000" font-family="sans-serif" font-size="20" lengthAdjust="spacing" textLength="53" x="279" y="101.3789">name</text><text fill="#000000" font-family="sans-serif" font-size="20" lengthAdjust="spacing" textLength="208" x="279" y="124.9336">passportCardNumber</text><text fill="#000000" font-family="sans-serif" font-size="20" lengthAdjust="spacing" textLength="108" x="279" y="148.4883">taxNumber</text><text fill="#000000" font-family="sans-serif" font-size="20" lengthAdjust="spacing" textLength="173" x="279" y="172.043">telephoneNumber</text><text fill="#000000" font-family="sans-serif" font-size="20" lengthAdjust="spacing" textLength="53" x="279" y="195.5977">email</text></g><!--class Order--><g id="elem_Order"><rect codeLine="26" fill="#F1F1F1" height="182.8828" id="Order" rx="2.5" ry="2.5" style="stroke:#181818;stroke-width:0.5;" width="172" x="7" y="494.4883"/><text fill="#000000" font-family="sans-serif" font-size="20" lengthAdjust="spacing" textLength="56" x="65" y="518.8242">Order</text><line style="stroke:#181818;stroke-width:0.5;" x1="8" x2="178" y1="528.043" y2="528.043"/><text fill="#000000" font-family="sans-serif" font-size="20" lengthAdjust="spacing" textLength="19" x="13" y="551.3789">id</text><text fill="#000000" font-family="sans-serif" font-size="20" lengthAdjust="spacing" textLength="160" x="13" y="574.9336">announcementId</text><text fill="#000000" font-family="sans-serif" font-size="20" lengthAdjust="spacing" textLength="128" x="13" y="598.4883">orderAmount</text><text fill="#000000" font-family="sans-serif" font-size="20" lengthAdjust="spacing" textLength="105" x="13" y="622.043">clientEmail</text><text fill="#000000" font-family="sans-serif" font-size="20" lengthAdjust="spacing" textLength="42" x="13" y="645.5977">date</text><text fill="#000000" font-family="sans-serif" font-size="20" lengthAdjust="spacing" textLength="99" x="13" y="669.1523">orderState</text></g><!--class Email--><g id="elem_Email"><rect codeLine="35" fill="#F1F1F1" height="112.2188" id="Email" rx="2.5" ry="2.5" style="stroke:#181818;stroke-width:0.5;" width="86" x="237" y="529.9883"/><text fill="#000000" font-family="sans-serif" font-size="20" lengthAdjust="spacing" textLength="53" x="253.5" y="554.3242">Email</text><line style="stroke:#181818;stroke-width:0.5;" x1="238" x2="322" y1="563.543" y2="563.543"/><text fill="#000000" font-family="sans-serif" font-size="20" lengthAdjust="spacing" textLength="53" x="243" y="586.8789">email</text><text fill="#000000" font-family="sans-serif" font-size="20" lengthAdjust="spacing" textLength="74" x="243" y="610.4336">decison</text><text fill="#000000" font-family="sans-serif" font-size="20" lengthAdjust="spacing" textLength="71" x="243" y="633.9883">orderid</text></g><!--class Announcement--><g id="elem_Announcement"><rect codeLine="40" fill="#F1F1F1" height="159.3281" id="Announcement" rx="2.5" ry="2.5" style="stroke:#181818;stroke-width:0.5;" width="159" x="13.5" y="762.4883"/><text fill="#000000" font-family="sans-serif" font-size="20" lengthAdjust="spacing" textLength="144" x="21" y="786.8242">Announcement</text><line style="stroke:#181818;stroke-width:0.5;" x1="14.5" x2="171.5" y1="796.043" y2="796.043"/><text fill="#000000" font-family="sans-serif" font-size="20" lengthAdjust="spacing" textLength="147" x="19.5" y="819.3789">typeOfBuisness</text><text fill="#000000" font-family="sans-serif" font-size="20" lengthAdjust="spacing" textLength="144" x="19.5" y="842.9336">typeOfProperty</text><text fill="#000000" font-family="sans-serif" font-size="20" lengthAdjust="spacing" textLength="140" x="19.5" y="866.4883">publishedDate</text><text fill="#000000" font-family="sans-serif" font-size="20" lengthAdjust="spacing" textLength="118" x="19.5" y="890.043">publishedBy</text><text fill="#000000" font-family="sans-serif" font-size="20" lengthAdjust="spacing" textLength="97" x="19.5" y="913.5977">comission</text></g><!--class Client--><g id="elem_Client"><rect codeLine="47" fill="#F1F1F1" height="41.5547" id="Client" rx="2.5" ry="2.5" style="stroke:#181818;stroke-width:0.5;" width="62" x="295" y="820.9883"/><text fill="#000000" font-family="sans-serif" font-size="20" lengthAdjust="spacing" textLength="56" x="298" y="845.3242">Client</text><line style="stroke:#181818;stroke-width:0.5;" x1="296" x2="356" y1="854.543" y2="854.543"/></g><!--reverse link Employee to Agent--><g id="link_Employee_Agent"><path d="M307.12,328.0583 C306.19,341.5183 305.19,355.8583 304.41,367.0783 " fill="none" id="Employee-backto-Agent" style="stroke:#181818;stroke-width:1.0;"/><polygon fill="none" points="300.11,327.9083,308.48,308.4383,314.08,328.8683,300.11,327.9083" style="stroke:#181818;stroke-width:1.0;"/></g><!--reverse link Person to Employee--><g id="link_Person_Employee"><path d="M338.03,223.2483 C330.99,238.6183 324.4,253.0283 319.38,263.9983 " fill="none" id="Person-backto-Employee" style="stroke:#181818;stroke-width:1.0;"/><polygon fill="none" points="331.61,220.4483,346.3,205.1783,344.34,226.2783,331.61,220.4483" style="stroke:#181818;stroke-width:1.0;"/></g><!--reverse link Person to Client--><g id="link_Person_Client"><path d="M425.78,224.0983 C431.26,243.7483 435,264.4883 435,284.4883 C435,284.4883 435,284.4883 435,586.9883 C435,652.3883 439.25,672.5883 413,732.4883 C397.69,767.4283 368.14,800.5683 347.76,820.8183 " fill="none" id="Person-backto-Client" style="stroke:#181818;stroke-width:1.0;"/><polygon fill="none" points="419.14,226.3083,419.85,205.1383,432.5,222.1283,419.14,226.3083" style="stroke:#181818;stroke-width:1.0;"/></g><!--link Agent to Order--><g id="link_Agent_Order"><path codeLine="51" d="M271.65,393.7783 C224.23,400.9183 137.59,416.7483 117,439.4883 C103.42,454.4783 95.94,474.0783 92.09,494.0083 " fill="none" id="Agent-Order" style="stroke:#181818;stroke-width:1.0;"/><polygon fill="#000000" points="118.0146,456.1649,132.9432,453.217,128.3594,445.0052,118.0146,456.1649" style="stroke:#000000;stroke-width:1.0;"/><text fill="#000000" font-family="sans-serif" font-size="20" lengthAdjust="spacing" textLength="148" x="138" y="459.8242">accepr or reject</text><text fill="#000000" font-family="sans-serif" font-size="20" lengthAdjust="spacing" textLength="13" x="250.8434" y="388.9365">1</text><text fill="#000000" font-family="sans-serif" font-size="20" lengthAdjust="spacing" textLength="10" x="81.619" y="482.1249">*</text></g><!--link Order to Announcement--><g id="link_Order_Announcement"><path codeLine="52" d="M93,677.9683 C93,705.4483 93,735.3683 93,761.9883 " fill="none" id="Order-Announcement" style="stroke:#181818;stroke-width:1.0;"/><polygon fill="#000000" points="101,712.2656,96.2977,726.7378,105.7023,726.7378,101,712.2656" style="stroke:#000000;stroke-width:1.0;"/><text fill="#000000" font-family="sans-serif" font-size="20" lengthAdjust="spacing" textLength="44" x="114" y="727.8242">have</text><text fill="#000000" font-family="sans-serif" font-size="20" lengthAdjust="spacing" textLength="10" x="82.6484" y="704.6038">*</text><text fill="#000000" font-family="sans-serif" font-size="20" lengthAdjust="spacing" textLength="13" x="79.4211" y="750.1851">1</text></g><!--link Agent to Email--><g id="link_Agent_Email"><path codeLine="53" d="M300.63,409.6783 C297.32,437.7683 291.21,489.7283 286.49,529.8183 " fill="none" id="Agent-Email" style="stroke:#181818;stroke-width:1.0;"/><polygon fill="#000000" points="304.0649,460.2108,310.4266,446.3875,301.0865,445.2882,304.0649,460.2108" style="stroke:#000000;stroke-width:1.0;"/><text fill="#000000" font-family="sans-serif" font-size="20" lengthAdjust="spacing" textLength="46" x="318" y="459.8242">send</text><text fill="#000000" font-family="sans-serif" font-size="20" lengthAdjust="spacing" textLength="13" x="285.6897" y="436.2745">1</text><text fill="#000000" font-family="sans-serif" font-size="20" lengthAdjust="spacing" textLength="10" x="276.6716" y="517.9274">*</text></g><!--link Email to Client--><g id="link_Email_Client"><path codeLine="54" d="M258.7,642.2883 C251.08,669.7683 246.29,703.2583 255,732.4883 C265.23,766.7883 290.14,800.3383 307.55,820.8383 " fill="none" id="Email-Client" style="stroke:#181818;stroke-width:1.0;"/><polygon fill="#000000" points="265.1112,727.982,265.8276,712.782,256.7564,715.2638,265.1112,727.982" style="stroke:#000000;stroke-width:1.0;"/><text fill="#000000" font-family="sans-serif" font-size="20" lengthAdjust="spacing" textLength="132" x="276" y="727.8242">whith decison</text><text fill="#000000" font-family="sans-serif" font-size="20" lengthAdjust="spacing" textLength="13" x="242.4856" y="669.483">1</text><text fill="#000000" font-family="sans-serif" font-size="20" lengthAdjust="spacing" textLength="13" x="288.1566" y="808.9358">1</text></g><!--SRC=[RLB1JYCn3BtdAwmUaP3OFLPefG95uh20r2z84xS9JU8eyG3TYdzVDyDC8-tE9V7pyxFz9lNWKzP5nq3cW1OixlGG-94IR_mVX9ytgauKY9J8k48HWSk0NIPhSz1xtF0n81GqhDC-z8JgjAKFd_Qmqw7s6HDqhIlcuhS3uvEXr1hVAESjWl75Y52xHsH7jYh5dgND0qNj4_mcYq4frNHW7NEW8oB0INrzOwiz9WRyP4osOvpKp9YnYVIAfLAwI4mno9Tqn7R9aibK-5uN-pp4BPO6i_xi8moO7INiC9J1WsX_YxyKYsNKzhOTEYKQai4eWp-D49r9goWmjzW4BybrKph7LZDUY1i-XryNLuHswdgt2ZHUbheKIVFPicw0iOwF6LzsTuEl2MljeDT26GiVHqk6RV3LeNsOnfcHkv5XAFfQlVITUjstJVvZlLBZdrlyMC3rDIok5gDLIz36O2uojRorDtbjy4krJEESgLBHhx04fzyHRlyLRCuieKfh4MdHd9PZd6q9yE4ykyaoOQg_]--></g></svg>