<?xml version="1.0" encoding="UTF-8" standalone="no"?><svg xmlns="http://www.w3.org/2000/svg" xmlns:xlink="http://www.w3.org/1999/xlink" contentStyleType="text/css" height="928px" preserveAspectRatio="none" style="width:499px;height:928px;background:#FFFFFF;" version="1.1" viewBox="0 0 499 928" width="499px" zoomAndPan="magnify"><defs/><g><text fill="#000000" font-family="sans-serif" font-size="14" font-weight="bold" lengthAdjust="spacing" textLength="105" x="190" y="23.5352">Domain Model</text><!--class Employee--><g id="elem_Employee"><rect codeLine="16" fill="#F1F1F1" height="41.5547" id="Employee" rx="2.5" ry="2.5" style="stroke:#181818;stroke-width:0.5;" width="99" x="259.5" y="264.8183"/><text fill="#000000" font-family="sans-serif" font-size="20" lengthAdjust="spacing" textLength="93" x="262.5" y="289.1542">Employee</text><line style="stroke:#181818;stroke-width:0.5;" x1="260.5" x2="357.5" y1="298.373" y2="298.373"/></g><!--class Agent--><g id="elem_Agent"><rect codeLine="13" fill="#F1F1F1" height="41.5547" id="Agent" rx="2.5" ry="2.5" style="stroke:#181818;stroke-width:0.5;" width="62" x="272" y="367.3683"/><text fill="#000000" font-family="sans-serif" font-size="20" lengthAdjust="spacing" textLength="56" x="275" y="391.7042">Agent</text><line style="stroke:#181818;stroke-width:0.5;" x1="273" x2="333" y1="400.923" y2="400.923"/></g><!--class Person--><g id="elem_Person"><rect codeLine="18" fill="#F1F1F1" height="159.3281" id="Person" rx="2.5" ry="2.5" style="stroke:#181818;stroke-width:0.5;" width="220" x="272" y="44.4883"/><text fill="#000000" font-family="sans-serif" font-size="20" lengthAdjust="spacing" textLength="64" x="350" y="68.8242">Person</text><line style="stroke:#181818;stroke-width:0.5;" x1="273" x2="491" y1="78.043" y2="78.043"/><text fill="#000000" font-family="sans-serif" font-size="20" lengthAdjust="spacing" textLength="53" x="278" y="101.3789">name</text><text fill="#000000" font-family="sans-serif" font-size="20" lengthAdjust="spacing" textLength="208" x="278" y="124.9336">passportCardNumber</text><text fill="#000000" font-family="sans-serif" font-size="20" lengthAdjust="spacing" textLength="108" x="278" y="148.4883">taxNumber</text><text fill="#000000" font-family="sans-serif" font-size="20" lengthAdjust="spacing" textLength="173" x="278" y="172.043">telephoneNumber</text><text fill="#000000" font-family="sans-serif" font-size="20" lengthAdjust="spacing" textLength="53" x="278" y="195.5977">email</text></g><!--class Order--><g id="elem_Order"><rect codeLine="26" fill="#F1F1F1" height="182.8828" id="Order" rx="2.5" ry="2.5" style="stroke:#181818;stroke-width:0.5;" width="172" x="7" y="493.9283"/><text fill="#000000" font-family="sans-serif" font-size="20" lengthAdjust="spacing" textLength="56" x="65" y="518.2642">Order</text><line style="stroke:#181818;stroke-width:0.5;" x1="8" x2="178" y1="527.483" y2="527.483"/><text fill="#000000" font-family="sans-serif" font-size="20" lengthAdjust="spacing" textLength="19" x="13" y="550.8189">id</text><text fill="#000000" font-family="sans-serif" font-size="20" lengthAdjust="spacing" textLength="160" x="13" y="574.3736">announcementId</text><text fill="#000000" font-family="sans-serif" font-size="20" lengthAdjust="spacing" textLength="128" x="13" y="597.9283">orderAmount</text><text fill="#000000" font-family="sans-serif" font-size="20" lengthAdjust="spacing" textLength="105" x="13" y="621.483">clientEmail</text><text fill="#000000" font-family="sans-serif" font-size="20" lengthAdjust="spacing" textLength="42" x="13" y="645.0377">date</text><text fill="#000000" font-family="sans-serif" font-size="20" lengthAdjust="spacing" textLength="99" x="13" y="668.5923">orderState</text></g><!--class Email--><g id="elem_Email"><rect codeLine="35" fill="#F1F1F1" height="112.2188" id="Email" rx="2.5" ry="2.5" style="stroke:#181818;stroke-width:0.5;" width="86" x="237" y="529.2583"/><text fill="#000000" font-family="sans-serif" font-size="20" lengthAdjust="spacing" textLength="53" x="253.5" y="553.5942">Email</text><line style="stroke:#181818;stroke-width:0.5;" x1="238" x2="322" y1="562.813" y2="562.813"/><text fill="#000000" font-family="sans-serif" font-size="20" lengthAdjust="spacing" textLength="53" x="243" y="586.1489">email</text><text fill="#000000" font-family="sans-serif" font-size="20" lengthAdjust="spacing" textLength="74" x="243" y="609.7036">decison</text><text fill="#000000" font-family="sans-serif" font-size="20" lengthAdjust="spacing" textLength="71" x="243" y="633.2583">orderid</text></g><!--class Announcement--><g id="elem_Announcement"><rect codeLine="40" fill="#F1F1F1" height="159.3281" id="Announcement" rx="2.5" ry="2.5" style="stroke:#181818;stroke-width:0.5;" width="159" x="13.5" y="761.8083"/><text fill="#000000" font-family="sans-serif" font-size="20" lengthAdjust="spacing" textLength="144" x="21" y="786.1442">Announcement</text><line style="stroke:#181818;stroke-width:0.5;" x1="14.5" x2="171.5" y1="795.363" y2="795.363"/><text fill="#000000" font-family="sans-serif" font-size="20" lengthAdjust="spacing" textLength="147" x="19.5" y="818.6989">typeOfBuisness</text><text fill="#000000" font-family="sans-serif" font-size="20" lengthAdjust="spacing" textLength="144" x="19.5" y="842.2536">typeOfProperty</text><text fill="#000000" font-family="sans-serif" font-size="20" lengthAdjust="spacing" textLength="140" x="19.5" y="865.8083">publishedDate</text><text fill="#000000" font-family="sans-serif" font-size="20" lengthAdjust="spacing" textLength="118" x="19.5" y="889.363">publishedBy</text><text fill="#000000" font-family="sans-serif" font-size="20" lengthAdjust="spacing" textLength="97" x="19.5" y="912.9177">comission</text></g><!--class Client--><g id="elem_Client"><rect codeLine="47" fill="#F1F1F1" height="41.5547" id="Client" rx="2.5" ry="2.5" style="stroke:#181818;stroke-width:0.5;" width="62" x="294" y="820.6983"/><text fill="#000000" font-family="sans-serif" font-size="20" lengthAdjust="spacing" textLength="56" x="297" y="845.0342">Client</text><line style="stroke:#181818;stroke-width:0.5;" x1="295" x2="355" y1="854.253" y2="854.253"/></g><!--reverse link Employee to Agent--><g id="link_Employee_Agent"><path d="M306.58,327.1783 C305.76,340.8683 304.88,355.5683 304.2,366.9783 " fill="none" id="Employee-backto-Agent" style="stroke:#181818;stroke-width:1.0;"/><polygon fill="none" points="299.64,327.0083,307.81,307.4583,313.61,327.8383,299.64,327.0083" style="stroke:#181818;stroke-width:1.0;"/></g><!--reverse link Person to Employee--><g id="link_Person_Employee"><path d="M337.2,222.9983 C330.03,238.6583 323.31,253.3383 318.23,264.4383 " fill="none" id="Person-backto-Employee" style="stroke:#181818;stroke-width:1.0;"/><polygon fill="none" points="331.24,220.2083,345.93,204.9383,343.97,226.0383,331.24,220.2083" style="stroke:#181818;stroke-width:1.0;"/></g><!--reverse link Person to Client--><g id="link_Person_Client"><path d="M424.79,224.2283 C430.26,243.8683 434,264.6083 434,284.5983 C434,284.5983 434,284.5983 434,586.3683 C434,651.7483 438.22,671.9183 412,731.8083 C396.69,766.7883 367.14,799.9783 346.76,820.2683 " fill="none" id="Person-backto-Client" style="stroke:#181818;stroke-width:1.0;"/><polygon fill="none" points="417.82,226.4083,418.54,205.2283,431.18,222.2383,417.82,226.4083" style="stroke:#181818;stroke-width:1.0;"/></g><!--link Agent to Order--><g id="link_Agent_Order"><path codeLine="51" d="M271.65,393.3983 C224.23,400.4783 137.6,416.2083 117,438.9283 C103.34,453.9983 95.84,473.7383 92.01,493.7883 " fill="none" id="Agent-Order" style="stroke:#181818;stroke-width:1.0;"/><polygon fill="#000000" points="118.0165,455.6083,132.9437,452.6531,128.3558,444.4435,118.0165,455.6083" style="stroke:#000000;stroke-width:1.0;"/><text fill="#000000" font-family="sans-serif" font-size="20" lengthAdjust="spacing" textLength="148" x="138" y="459.2642">accepr or reject</text><text fill="#000000" font-family="sans-serif" font-size="20" lengthAdjust="spacing" textLength="13" x="250.8434" y="388.5029">1</text><text fill="#000000" font-family="sans-serif" font-size="20" lengthAdjust="spacing" textLength="10" x="81.514" y="481.6108">*</text></g><!--link Order to Announcement--><g id="link_Order_Announcement"><path codeLine="52" d="M93,677.0283 C93,704.6783 93,734.8483 93,761.6483 " fill="none" id="Order-Announcement" style="stroke:#181818;stroke-width:1.0;"/><polygon fill="#000000" points="101,711.5856,96.2977,726.0578,105.7023,726.0578,101,711.5856" style="stroke:#000000;stroke-width:1.0;"/><text fill="#000000" font-family="sans-serif" font-size="20" lengthAdjust="spacing" textLength="44" x="114" y="727.1442">have</text><text fill="#000000" font-family="sans-serif" font-size="20" lengthAdjust="spacing" textLength="10" x="82.6172" y="704.2835">*</text><text fill="#000000" font-family="sans-serif" font-size="20" lengthAdjust="spacing" textLength="13" x="79.4008" y="749.5908">1</text></g><!--link Agent to Email--><g id="link_Agent_Email"><path codeLine="53" d="M300.63,409.3083 C297.33,437.2683 291.25,488.8883 286.54,528.8583 " fill="none" id="Agent-Email" style="stroke:#181818;stroke-width:1.0;"/><polygon fill="#000000" points="304.0636,459.6506,310.4275,445.8284,301.0876,444.7276,304.0636,459.6506" style="stroke:#000000;stroke-width:1.0;"/><text fill="#000000" font-family="sans-serif" font-size="20" lengthAdjust="spacing" textLength="46" x="318" y="459.2642">send</text><text fill="#000000" font-family="sans-serif" font-size="20" lengthAdjust="spacing" textLength="13" x="285.5788" y="436.2616">1</text><text fill="#000000" font-family="sans-serif" font-size="20" lengthAdjust="spacing" textLength="10" x="276.7277" y="516.9394">*</text></g><!--link Email to Client--><g id="link_Email_Client"><path codeLine="54" d="M258.05,641.9583 C250.25,669.3483 245.33,702.6783 254,731.8083 C264.22,766.1483 289.14,799.7483 306.55,820.2883 " fill="none" id="Email-Client" style="stroke:#181818;stroke-width:1.0;"/><polygon fill="#000000" points="264.0995,727.3052,264.8389,712.1063,255.764,714.5744,264.0995,727.3052" style="stroke:#000000;stroke-width:1.0;"/><text fill="#000000" font-family="sans-serif" font-size="20" lengthAdjust="spacing" textLength="132" x="275" y="727.1442">whith decison</text><text fill="#000000" font-family="sans-serif" font-size="20" lengthAdjust="spacing" textLength="13" x="241.9383" y="668.772">1</text><text fill="#000000" font-family="sans-serif" font-size="20" lengthAdjust="spacing" textLength="13" x="287.1566" y="808.3192">1</text></g><!--SRC=[RLB1JYCn3BtdAwmUaP3OFLPefG95uh20r2z84xS9JU8eyG3TYdzVDyDC8-tE9V7pyxFz9lNWKzP5nq3cW1OixlGG-94IR_mVX9ytgauKY9J8k48HWSk0NIPhSz1xtF0n81GqhDC-z8JgjAKFd_Qmqw7s6HDqhIlcuhS3uvEXr1hVAESjWl75Y52xHsH7jYh5dgND0qNj4_mcYq4frNHW7NEW8oB0INrzOwiz9WRyP4osOvpKp9YnYVIAfLAwI4mno9Tqn7R9aibK-5uN-pp4BPO6i_xi8moO7INiC9J1WsX_YxyKYsNKzhOTEYKQai4eWp-D49r9goWmjzW4BybrKph7LZDUY1i-XryNLuHswdgt2ZHUbheKIVFPicw0iOwF6LzsTuEl2MljeDT26GiVHqk6RV3LeNsOnfcHkv5XAFfQlVITUjstJVvZlLBZdrlyMC3rDIok5gDLIz36O2uojRorDtbjy4krJEESgLBHhx04fzyHRlyLRCuieKfh4MdHd9PZd6q9yE4ykyaoOQg_]--></g></svg>