<?xml version="1.0" encoding="UTF-8" standalone="no"?><svg xmlns="http://www.w3.org/2000/svg" xmlns:xlink="http://www.w3.org/1999/xlink" contentStyleType="text/css" height="675px" preserveAspectRatio="none" style="width:848px;height:675px;background:#FFFFFF;" version="1.1" viewBox="0 0 848 675" width="848px" zoomAndPan="magnify"><defs/><g><text fill="#000000" font-family="sans-serif" font-size="14" font-weight="bold" lengthAdjust="spacing" textLength="105" x="364.9" y="23.5352">Domain Model</text><!--class Employee--><g id="elem_Employee"><rect codeLine="11" fill="#F1F1F1" height="41.5547" id="Employee" rx="2.5" ry="2.5" style="stroke:#181818;stroke-width:0.5;" width="99" x="327.3" y="102.9883"/><text fill="#000000" font-family="sans-serif" font-size="20" lengthAdjust="spacing" textLength="93" x="330.3" y="127.3242">Employee</text><line style="stroke:#181818;stroke-width:0.5;" x1="328.3" x2="425.3" y1="136.543" y2="136.543"/></g><!--class Role--><g id="elem_Role"><rect codeLine="14" fill="#F1F1F1" height="88.6641" id="Role" rx="2.5" ry="2.5" style="stroke:#181818;stroke-width:0.5;" width="65" x="627.3" y="567.9883"/><text fill="#000000" font-family="sans-serif" font-size="20" lengthAdjust="spacing" textLength="42" x="638.8" y="592.3242">Role</text><line style="stroke:#181818;stroke-width:0.5;" x1="628.3" x2="691.3" y1="601.543" y2="601.543"/><text fill="#000000" font-family="sans-serif" font-size="20" lengthAdjust="spacing" textLength="53" x="633.3" y="624.8789">agent</text><text fill="#000000" font-family="sans-serif" font-size="20" lengthAdjust="spacing" textLength="52" x="633.3" y="648.4336">client</text></g><!--class PurchaseOrder--><g id="elem_PurchaseOrder"><rect codeLine="19" fill="#F1F1F1" height="182.8828" id="PurchaseOrder" rx="2.5" ry="2.5" style="stroke:#181818;stroke-width:0.5;" width="147" x="134.3" y="288.4883"/><text fill="#000000" font-family="sans-serif" font-size="20" lengthAdjust="spacing" textLength="141" x="137.3" y="312.8242">PurchaseOrder</text><line style="stroke:#181818;stroke-width:0.5;" x1="135.3" x2="280.3" y1="322.043" y2="322.043"/><text fill="#000000" font-family="sans-serif" font-size="20" lengthAdjust="spacing" textLength="19" x="140.3" y="345.3789">id</text><text fill="#000000" font-family="sans-serif" font-size="20" lengthAdjust="spacing" textLength="121" x="140.3" y="368.9336">creationDate</text><text fill="#000000" font-family="sans-serif" font-size="20" lengthAdjust="spacing" textLength="57" x="140.3" y="392.4883">status</text><text fill="#000000" font-family="sans-serif" font-size="20" lengthAdjust="spacing" textLength="48" x="140.3" y="416.043">price</text><text fill="#000000" font-family="sans-serif" font-size="20" lengthAdjust="spacing" textLength="82" x="140.3" y="439.5977">property</text><text fill="#000000" font-family="sans-serif" font-size="20" lengthAdjust="spacing" textLength="79" x="140.3" y="463.1523">endUser</text></g><!--class Person--><g id="elem_Person"><rect codeLine="27" fill="#F1F1F1" height="159.3281" id="Person" rx="2.5" ry="2.5" style="stroke:#181818;stroke-width:0.5;" width="220" x="461.8" y="44.4883"/><text fill="#000000" font-family="sans-serif" font-size="20" lengthAdjust="spacing" textLength="64" x="539.8" y="68.8242">Person</text><line style="stroke:#181818;stroke-width:0.5;" x1="462.8" x2="680.8" y1="78.043" y2="78.043"/><text fill="#000000" font-family="sans-serif" font-size="20" lengthAdjust="spacing" textLength="53" x="467.8" y="101.3789">name</text><text fill="#000000" font-family="sans-serif" font-size="20" lengthAdjust="spacing" textLength="208" x="467.8" y="124.9336">passportCardNumber</text><text fill="#000000" font-family="sans-serif" font-size="20" lengthAdjust="spacing" textLength="108" x="467.8" y="148.4883">taxNumber</text><text fill="#000000" font-family="sans-serif" font-size="20" lengthAdjust="spacing" textLength="53" x="467.8" y="172.043">email</text><text fill="#000000" font-family="sans-serif" font-size="20" lengthAdjust="spacing" textLength="173" x="467.8" y="195.5977">telephoneNumber</text></g><!--class Property--><g id="elem_Property"><rect codeLine="35" fill="#F1F1F1" height="112.2188" id="Property" rx="2.5" ry="2.5" style="stroke:#181818;stroke-width:0.5;" width="205" x="536.3" y="323.9883"/><text fill="#000000" font-family="sans-serif" font-size="20" lengthAdjust="spacing" textLength="80" x="598.8" y="348.3242">Property</text><line style="stroke:#181818;stroke-width:0.5;" x1="537.3" x2="740.3" y1="357.543" y2="357.543"/><text fill="#000000" font-family="sans-serif" font-size="20" lengthAdjust="spacing" textLength="41" x="542.3" y="380.8789">area</text><text fill="#000000" font-family="sans-serif" font-size="20" lengthAdjust="spacing" textLength="193" x="542.3" y="404.4336">distanceFromCenter</text><text fill="#000000" font-family="sans-serif" font-size="20" lengthAdjust="spacing" textLength="48" x="542.3" y="427.9883">price</text></g><!--class Email--><g id="elem_Email"><rect codeLine="41" fill="#F1F1F1" height="112.2188" id="Email" rx="2.5" ry="2.5" style="stroke:#181818;stroke-width:0.5;" width="86" x="164.8" y="556.4883"/><text fill="#000000" font-family="sans-serif" font-size="20" lengthAdjust="spacing" textLength="53" x="181.3" y="580.8242">Email</text><line style="stroke:#181818;stroke-width:0.5;" x1="165.8" x2="249.8" y1="590.043" y2="590.043"/><text fill="#000000" font-family="sans-serif" font-size="20" lengthAdjust="spacing" textLength="53" x="170.8" y="613.3789">email</text><text fill="#000000" font-family="sans-serif" font-size="20" lengthAdjust="spacing" textLength="74" x="170.8" y="636.9336">decison</text><text fill="#000000" font-family="sans-serif" font-size="20" lengthAdjust="spacing" textLength="71" x="170.8" y="660.4883">orderid</text></g><!--class endUser--><g id="elem_endUser"><rect codeLine="47" fill="#F1F1F1" height="112.2188" id="endUser" rx="2.5" ry="2.5" style="stroke:#181818;stroke-width:0.5;" width="185" x="316.3" y="323.9883"/><text fill="#000000" font-family="sans-serif" font-size="20" lengthAdjust="spacing" textLength="79" x="369.3" y="348.3242">endUser</text><line style="stroke:#181818;stroke-width:0.5;" x1="317.3" x2="500.3" y1="357.543" y2="357.543"/><text fill="#000000" font-family="sans-serif" font-size="20" lengthAdjust="spacing" textLength="53" x="322.3" y="380.8789">name</text><text fill="#000000" font-family="sans-serif" font-size="20" lengthAdjust="spacing" textLength="53" x="322.3" y="404.4336">email</text><text fill="#000000" font-family="sans-serif" font-size="20" lengthAdjust="spacing" textLength="173" x="322.3" y="427.9883">telephoneNumber</text></g><!--link PurchaseOrder to Property--><g id="link_PurchaseOrder_Property"><path codeLine="53" d="M246.76,288.0083 C256.18,275.1283 267.59,263.6383 281.3,255.8183 C302.54,243.7183 311.95,253.6583 336.3,255.8183 C418.38,263.1083 443.37,255.3183 518.8,288.4883 C538.95,297.3483 558.79,310.2483 576.36,323.5783 " fill="none" id="PurchaseOrder-Property" style="stroke:#181818;stroke-width:1.0;"/><polygon fill="#000000" points="297.2538,247.124,283.3698,240.8961,282.3607,250.2463,297.2538,247.124" style="stroke:#000000;stroke-width:1.0;"/><text fill="#000000" font-family="sans-serif" font-size="20" lengthAdjust="spacing" textLength="33" x="302.3" y="253.8242">has</text><text fill="#000000" font-family="sans-serif" font-size="20" lengthAdjust="spacing" textLength="13" x="236.3467" y="276.1249">1</text><text fill="#000000" font-family="sans-serif" font-size="20" lengthAdjust="spacing" textLength="13" x="554.9579" y="311.6582">1</text></g><!--link Employee to Role--><g id="link_Employee_Role"><path codeLine="54" d="M389.38,145.4083 C401.45,163.3183 421.29,188.7183 444.8,203.4883 C567.25,280.3683 670.93,173.6783 758.8,288.4883 C808.23,353.0783 783.44,393.9783 758.8,471.4883 C745.82,512.3383 716.12,551.5283 692.61,578.0083 " fill="none" id="Employee-Role" style="stroke:#181818;stroke-width:1.0;"/><polygon fill="#000000" points="799.3919,386.8166,794.9356,372.2668,787.2346,377.6648,799.3919,386.8166" style="stroke:#000000;stroke-width:1.0;"/><text fill="#000000" font-family="sans-serif" font-size="20" lengthAdjust="spacing" textLength="33" x="807.8" y="387.8242">has</text><text fill="#000000" font-family="sans-serif" font-size="20" lengthAdjust="spacing" textLength="13" x="377.71" y="172.0548">1</text><text fill="#000000" font-family="sans-serif" font-size="20" lengthAdjust="spacing" textLength="10" x="700.4083" y="564.9527">*</text></g><!--link Employee to PurchaseOrder--><g id="link_Employee_PurchaseOrder"><path codeLine="55" d="M374.84,145.1983 C371.33,172.8983 361.92,223.2083 337.8,258.4883 C325.46,276.5383 315.25,274.0783 298.8,288.4883 C293.1,293.4783 287.31,298.7383 281.55,304.1083 " fill="none" id="Employee-PurchaseOrder" style="stroke:#181818;stroke-width:1.0;"/><polygon fill="#000000" points="354.7499,253.1646,366.1318,243.0648,358.0215,238.3036,354.7499,253.1646" style="stroke:#000000;stroke-width:1.0;"/><text fill="#000000" font-family="sans-serif" font-size="20" lengthAdjust="spacing" textLength="29" x="371.8" y="253.8242">list</text><text fill="#000000" font-family="sans-serif" font-size="20" lengthAdjust="spacing" textLength="13" x="359.9894" y="171.7989">1</text><text fill="#000000" font-family="sans-serif" font-size="20" lengthAdjust="spacing" textLength="10" x="289.302" y="291.8758">*</text></g><!--link PurchaseOrder to Email--><g id="link_PurchaseOrder_Email"><path codeLine="56" d="M207.8,471.7583 C207.8,500.2283 207.8,530.7883 207.8,556.0483 " fill="none" id="PurchaseOrder-Email" style="stroke:#181818;stroke-width:1.0;"/><polygon fill="#000000" points="215.8,522.2656,220.5023,507.7935,211.0977,507.7935,215.8,522.2656" style="stroke:#000000;stroke-width:1.0;"/><text fill="#000000" font-family="sans-serif" font-size="20" lengthAdjust="spacing" textLength="33" x="228.8" y="521.8242">has</text><text fill="#000000" font-family="sans-serif" font-size="20" lengthAdjust="spacing" textLength="13" x="194.3227" y="498.7028">1</text><text fill="#000000" font-family="sans-serif" font-size="20" lengthAdjust="spacing" textLength="10" x="197.1906" y="544.1245">*</text></g><!--link Employee to Email--><g id="link_Employee_Email"><path codeLine="57" d="M326.95,133.1383 C251.36,148.4683 110.08,189.4783 48.8,288.4883 C6,357.6483 15.31,397.3683 48.8,471.4883 C72.35,523.6083 125.96,564.0683 164.42,587.7983 " fill="none" id="Employee-Email" style="stroke:#181818;stroke-width:1.0;"/><polygon fill="#000000" points="54.1071,387.7988,63.4065,375.754,54.5507,372.5883,54.1071,387.7988" style="stroke:#000000;stroke-width:1.0;"/><text fill="#000000" font-family="sans-serif" font-size="20" lengthAdjust="spacing" textLength="46" x="69.8" y="387.8242">send</text><text fill="#000000" font-family="sans-serif" font-size="20" lengthAdjust="spacing" textLength="13" x="306.378" y="129.2256">1</text><text fill="#000000" font-family="sans-serif" font-size="20" lengthAdjust="spacing" textLength="10" x="146.7094" y="578.3932">*</text></g><!--link endUser to Email--><g id="link_endUser_Email"><path codeLine="58" d="M360.66,436.1983 C327.32,474.4183 283.33,524.8683 251.1,561.8283 " fill="none" id="endUser-Email" style="stroke:#181818;stroke-width:1.0;"/><polygon fill="#000000" points="305.5419,520.2949,318.5978,512.4784,311.5099,506.2972,305.5419,520.2949" style="stroke:#000000;stroke-width:1.0;"/><text fill="#000000" font-family="sans-serif" font-size="20" lengthAdjust="spacing" textLength="33" x="323.8" y="521.8242">has</text><text fill="#000000" font-family="sans-serif" font-size="20" lengthAdjust="spacing" textLength="13" x="341.3423" y="463.3826">1</text><text fill="#000000" font-family="sans-serif" font-size="20" lengthAdjust="spacing" textLength="10" x="258.7978" y="548.2842">*</text></g><!--link endUser to Role--><g id="link_endUser_Role"><path codeLine="59" d="M468.92,436.1983 C518.52,481.7483 587.03,544.6583 627.05,581.4083 " fill="none" id="endUser-Role" style="stroke:#181818;stroke-width:1.0;"/><polygon fill="#000000" points="577.6925,519.6766,570.2134,506.4245,563.8524,513.3515,577.6925,519.6766" style="stroke:#000000;stroke-width:1.0;"/><text fill="#000000" font-family="sans-serif" font-size="20" lengthAdjust="spacing" textLength="33" x="584.8" y="521.8242">has</text><text fill="#000000" font-family="sans-serif" font-size="20" lengthAdjust="spacing" textLength="13" x="462.1198" y="463.3826">1</text><text fill="#000000" font-family="sans-serif" font-size="20" lengthAdjust="spacing" textLength="10" x="609.2641" y="569.0539">*</text></g><!--SRC=[VL7BJWCn3BpdAwmUaP208mSar8B4WOT0V819t6xKRBnAl89IzTzniscxHOKzh1pFP3pZvAMF7IPi0zibEN0qnpx8FKTvyzy4LnScxoZGScJR96u99FKqGZgqIrpGcwm2GI8h61TXJCWDElxqSG5p37cCs80vtuea_z4BFLYEPV25QRmZi3vP5IfrIzAmoyQ85nqpunPzX4Ts58mnHGVksYxmYWXWRJQxvYihVMr0FpKPfLGs-6sv9xtqoJQOwJavIWFPku6P2CLpdA5GQMH1wNCfk-GjrOexIh8g1uhkFLDIzIfEANCSL2EszOOY7IUPOd9FVVkX_6rRy6jq8WqPXZu5wXgELD63ypgv9bItfN1UVKPBz_fWKurQ1GV7cyF2L7_zQvGZwzLlgNcx3zt4_aRDzYlClpwFTWkJomcSb__E-JKe2ZTc_tgLSZOfRtSQ7l0ZwMi86bgP9mOEz1BtFxrAo9fI6JNhdmedyB7X7m00]--></g></svg>