<?xml version="1.0" encoding="UTF-8" standalone="no"?><svg xmlns="http://www.w3.org/2000/svg" xmlns:xlink="http://www.w3.org/1999/xlink" contentStyleType="text/css" height="482px" preserveAspectRatio="none" style="width:719px;height:482px;background:#FFFFFF;" version="1.1" viewBox="0 0 719 482" width="719px" zoomAndPan="magnify"><defs/><g><text fill="#000000" font-family="sans-serif" font-size="14" font-weight="bold" lengthAdjust="spacing" textLength="473" x="122.25" y="28.5352">System Sequence Diagram (SSD) - US003: Register New Employee</text><rect fill="#FFFFFF" height="249.8828" style="stroke:#181818;stroke-width:1.0;" width="10" x="106.5" y="136.043"/><rect fill="#FFFFFF" height="37.5547" style="stroke:#181818;stroke-width:1.0;" width="10" x="664.5" y="165.5977"/><rect fill="#FFFFFF" height="37.5547" style="stroke:#181818;stroke-width:1.0;" width="10" x="664.5" y="240.707"/><rect fill="#FFFFFF" height="61.1094" style="stroke:#181818;stroke-width:1.0;" width="10" x="664.5" y="315.8164"/><line style="stroke:#181818;stroke-width:0.5;stroke-dasharray:5.0,5.0;" x1="111" x2="111" y1="126.043" y2="394.9258"/><line style="stroke:#181818;stroke-width:0.5;stroke-dasharray:5.0,5.0;" x1="669.5" x2="669.5" y1="126.043" y2="394.9258"/><text fill="#000000" font-family="sans-serif" font-size="20" lengthAdjust="spacing" textLength="207" x="5" y="121.8242">System Administrator</text><ellipse cx="111.5" cy="50.9883" fill="#E2E2F0" rx="8" ry="8" style="stroke:#181818;stroke-width:0.5;"/><path d="M111.5,58.9883 L111.5,85.9883 M98.5,66.9883 L124.5,66.9883 M111.5,85.9883 L98.5,100.9883 M111.5,85.9883 L124.5,100.9883 " fill="none" style="stroke:#181818;stroke-width:0.5;"/><text fill="#000000" font-family="sans-serif" font-size="20" lengthAdjust="spacing" textLength="207" x="5" y="413.2617">System Administrator</text><ellipse cx="111.5" cy="425.9805" fill="#E2E2F0" rx="8" ry="8" style="stroke:#181818;stroke-width:0.5;"/><path d="M111.5,433.9805 L111.5,460.9805 M98.5,441.9805 L124.5,441.9805 M111.5,460.9805 L98.5,475.9805 M111.5,460.9805 L124.5,475.9805 " fill="none" style="stroke:#181818;stroke-width:0.5;"/><rect fill="#E2E2F0" height="37.5547" rx="2.5" ry="2.5" style="stroke:#181818;stroke-width:0.5;" width="88" x="625.5" y="87.4883"/><text fill="#000000" font-family="sans-serif" font-size="20" lengthAdjust="spacing" textLength="74" x="632.5" y="113.8242">:System</text><rect fill="#E2E2F0" height="37.5547" rx="2.5" ry="2.5" style="stroke:#181818;stroke-width:0.5;" width="88" x="625.5" y="393.9258"/><text fill="#000000" font-family="sans-serif" font-size="20" lengthAdjust="spacing" textLength="74" x="632.5" y="420.2617">:System</text><rect fill="#FFFFFF" height="249.8828" style="stroke:#181818;stroke-width:1.0;" width="10" x="106.5" y="136.043"/><rect fill="#FFFFFF" height="37.5547" style="stroke:#181818;stroke-width:1.0;" width="10" x="664.5" y="165.5977"/><rect fill="#FFFFFF" height="37.5547" style="stroke:#181818;stroke-width:1.0;" width="10" x="664.5" y="240.707"/><rect fill="#FFFFFF" height="61.1094" style="stroke:#181818;stroke-width:1.0;" width="10" x="664.5" y="315.8164"/><polygon fill="#181818" points="652.5,161.5977,662.5,165.5977,652.5,169.5977,656.5,165.5977" style="stroke:#181818;stroke-width:1.0;"/><line style="stroke:#181818;stroke-width:1.0;" x1="116.5" x2="658.5" y1="165.5977" y2="165.5977"/><text fill="#000000" font-family="sans-serif" font-size="20" font-weight="bold" lengthAdjust="spacing" textLength="13" x="123.5" y="159.3789">1</text><text fill="#000000" font-family="sans-serif" font-size="20" lengthAdjust="spacing" textLength="346" x="140.5" y="159.3789">requests to register a new employee</text><polygon fill="#181818" points="127.5,199.1523,117.5,203.1523,127.5,207.1523,123.5,203.1523" style="stroke:#181818;stroke-width:1.0;"/><line style="stroke:#181818;stroke-width:1.0;stroke-dasharray:2.0,2.0;" x1="121.5" x2="668.5" y1="203.1523" y2="203.1523"/><text fill="#000000" font-family="sans-serif" font-size="20" font-weight="bold" lengthAdjust="spacing" textLength="13" x="133.5" y="196.9336">2</text><text fill="#000000" font-family="sans-serif" font-size="20" lengthAdjust="spacing" textLength="418" x="150.5" y="196.9336">requests data (name, email, password, etc.)</text><polygon fill="#181818" points="652.5,236.707,662.5,240.707,652.5,244.707,656.5,240.707" style="stroke:#181818;stroke-width:1.0;"/><line style="stroke:#181818;stroke-width:1.0;" x1="116.5" x2="658.5" y1="240.707" y2="240.707"/><text fill="#000000" font-family="sans-serif" font-size="20" font-weight="bold" lengthAdjust="spacing" textLength="13" x="123.5" y="234.4883">3</text><text fill="#000000" font-family="sans-serif" font-size="20" lengthAdjust="spacing" textLength="256" x="140.5" y="234.4883">provide the necessary data</text><polygon fill="#181818" points="127.5,274.2617,117.5,278.2617,127.5,282.2617,123.5,278.2617" style="stroke:#181818;stroke-width:1.0;"/><line style="stroke:#181818;stroke-width:1.0;stroke-dasharray:2.0,2.0;" x1="121.5" x2="668.5" y1="278.2617" y2="278.2617"/><text fill="#000000" font-family="sans-serif" font-size="20" font-weight="bold" lengthAdjust="spacing" textLength="13" x="133.5" y="272.043">4</text><text fill="#000000" font-family="sans-serif" font-size="20" lengthAdjust="spacing" textLength="325" x="150.5" y="272.043">validate data and list the agencies</text><polygon fill="#181818" points="652.5,311.8164,662.5,315.8164,652.5,319.8164,656.5,315.8164" style="stroke:#181818;stroke-width:1.0;"/><line style="stroke:#181818;stroke-width:1.0;" x1="116.5" x2="658.5" y1="315.8164" y2="315.8164"/><text fill="#000000" font-family="sans-serif" font-size="20" font-weight="bold" lengthAdjust="spacing" textLength="13" x="123.5" y="309.5977">5</text><text fill="#000000" font-family="sans-serif" font-size="20" lengthAdjust="spacing" textLength="286" x="140.5" y="309.5977">select the agency from the list</text><polygon fill="#181818" points="127.5,372.9258,117.5,376.9258,127.5,380.9258,123.5,376.9258" style="stroke:#181818;stroke-width:1.0;"/><line style="stroke:#181818;stroke-width:1.0;stroke-dasharray:2.0,2.0;" x1="121.5" x2="668.5" y1="376.9258" y2="376.9258"/><text fill="#000000" font-family="sans-serif" font-size="20" font-weight="bold" lengthAdjust="spacing" textLength="13" x="133.5" y="358.9297">6</text><text fill="#000000" font-family="sans-serif" font-size="20" lengthAdjust="spacing" textLength="501" x="150.5" y="347.1523">displays success message and send the password to</text><text fill="#000000" font-family="sans-serif" font-size="20" lengthAdjust="spacing" textLength="203" x="156.5" y="370.707">the employee's email</text><!--SRC=[bP9DRzim38Rl_XL4Bcs1fWYwMmu31hGxzb2ZjrvOYN64wCCJwGJkhoybsrc0BS2cWq5JBn-zfCG75tlC67mo1x9WQOU3bvyfIki-2Hut3IyI22aciyyf4EpGCrrizMWEs54heoV8P0HZvoy5l4URJYvsSsaZJbJQZYmKeALV0qL3yEImA_BRjdswWpMyjPlDjosyKkTKcE65Jl0SUfz6KWOEak8GFYXhR2HbMCt07pQug2KPDRi2v2dJg1bnnlKO1LRRILotfx1Yt165Pdq3kce8w- -Bswrsg7vP62HfF7j3YEgE5dUbyanRy32lcRHMw4I_O5eKXDk8WUwLXixVwtYPJobRJOXvkAiOIt-b_scsp-deB87iIHqQOiOyrbFETgxwlEBrYDxPegzUCLhmEeDwWhw2Q1pn6V7FFfcyFfpVa15s-jRgVw7_zq2juzxZoC23ALr3AArtLFqowQUWbz6MgtoFDRLSuGrFys-kpFiB]--></g></svg>