<?xml version="1.0" encoding="UTF-8" standalone="no"?><svg xmlns="http://www.w3.org/2000/svg" xmlns:xlink="http://www.w3.org/1999/xlink" contentStyleType="text/css" height="670px" preserveAspectRatio="none" style="width:945px;height:670px;background:#FFFFFF;" version="1.1" viewBox="0 0 945 670" width="945px" zoomAndPan="magnify"><defs/><g><text fill="#000000" font-family="sans-serif" font-size="14" font-weight="bold" lengthAdjust="spacing" textLength="473" x="235.25" y="28.5352">System Sequence Diagram (SSD) - US003: Register New Employee</text><rect fill="#FFFFFF" height="437.6563" style="stroke:#181818;stroke-width:1.0;" width="10" x="106.5" y="136.043"/><rect fill="#FFFFFF" height="37.5547" style="stroke:#181818;stroke-width:1.0;" width="10" x="890.5" y="165.5977"/><rect fill="#FFFFFF" height="61.1094" style="stroke:#181818;stroke-width:1.0;" width="10" x="890.5" y="240.707"/><rect fill="#FFFFFF" height="37.5547" style="stroke:#181818;stroke-width:1.0;" width="10" x="890.5" y="339.3711"/><rect fill="#FFFFFF" height="37.5547" style="stroke:#181818;stroke-width:1.0;" width="10" x="890.5" y="414.4805"/><rect fill="#FFFFFF" height="75.1094" style="stroke:#181818;stroke-width:1.0;" width="10" x="890.5" y="489.5898"/><line style="stroke:#181818;stroke-width:0.5;stroke-dasharray:5.0,5.0;" x1="111" x2="111" y1="126.043" y2="582.6992"/><line style="stroke:#181818;stroke-width:0.5;stroke-dasharray:5.0,5.0;" x1="895.5" x2="895.5" y1="126.043" y2="582.6992"/><text fill="#000000" font-family="sans-serif" font-size="20" lengthAdjust="spacing" textLength="207" x="5" y="121.8242">System Administrator</text><ellipse cx="111.5" cy="50.9883" fill="#E2E2F0" rx="8" ry="8" style="stroke:#181818;stroke-width:0.5;"/><path d="M111.5,58.9883 L111.5,85.9883 M98.5,66.9883 L124.5,66.9883 M111.5,85.9883 L98.5,100.9883 M111.5,85.9883 L124.5,100.9883 " fill="none" style="stroke:#181818;stroke-width:0.5;"/><text fill="#000000" font-family="sans-serif" font-size="20" lengthAdjust="spacing" textLength="207" x="5" y="601.0352">System Administrator</text><ellipse cx="111.5" cy="613.7539" fill="#E2E2F0" rx="8" ry="8" style="stroke:#181818;stroke-width:0.5;"/><path d="M111.5,621.7539 L111.5,648.7539 M98.5,629.7539 L124.5,629.7539 M111.5,648.7539 L98.5,663.7539 M111.5,648.7539 L124.5,663.7539 " fill="none" style="stroke:#181818;stroke-width:0.5;"/><rect fill="#E2E2F0" height="37.5547" rx="2.5" ry="2.5" style="stroke:#181818;stroke-width:0.5;" width="88" x="851.5" y="87.4883"/><text fill="#000000" font-family="sans-serif" font-size="20" lengthAdjust="spacing" textLength="74" x="858.5" y="113.8242">:System</text><rect fill="#E2E2F0" height="37.5547" rx="2.5" ry="2.5" style="stroke:#181818;stroke-width:0.5;" width="88" x="851.5" y="581.6992"/><text fill="#000000" font-family="sans-serif" font-size="20" lengthAdjust="spacing" textLength="74" x="858.5" y="608.0352">:System</text><rect fill="#FFFFFF" height="437.6563" style="stroke:#181818;stroke-width:1.0;" width="10" x="106.5" y="136.043"/><rect fill="#FFFFFF" height="37.5547" style="stroke:#181818;stroke-width:1.0;" width="10" x="890.5" y="165.5977"/><rect fill="#FFFFFF" height="61.1094" style="stroke:#181818;stroke-width:1.0;" width="10" x="890.5" y="240.707"/><rect fill="#FFFFFF" height="37.5547" style="stroke:#181818;stroke-width:1.0;" width="10" x="890.5" y="339.3711"/><rect fill="#FFFFFF" height="37.5547" style="stroke:#181818;stroke-width:1.0;" width="10" x="890.5" y="414.4805"/><rect fill="#FFFFFF" height="75.1094" style="stroke:#181818;stroke-width:1.0;" width="10" x="890.5" y="489.5898"/><polygon fill="#181818" points="878.5,161.5977,888.5,165.5977,878.5,169.5977,882.5,165.5977" style="stroke:#181818;stroke-width:1.0;"/><line style="stroke:#181818;stroke-width:1.0;" x1="116.5" x2="884.5" y1="165.5977" y2="165.5977"/><text fill="#000000" font-family="sans-serif" font-size="20" font-weight="bold" lengthAdjust="spacing" textLength="13" x="123.5" y="159.3789">1</text><text fill="#000000" font-family="sans-serif" font-size="20" lengthAdjust="spacing" textLength="346" x="140.5" y="159.3789">requests to register a new employee</text><polygon fill="#181818" points="127.5,199.1523,117.5,203.1523,127.5,207.1523,123.5,203.1523" style="stroke:#181818;stroke-width:1.0;"/><line style="stroke:#181818;stroke-width:1.0;stroke-dasharray:2.0,2.0;" x1="121.5" x2="894.5" y1="203.1523" y2="203.1523"/><text fill="#000000" font-family="sans-serif" font-size="20" font-weight="bold" lengthAdjust="spacing" textLength="13" x="133.5" y="196.9336">2</text><text fill="#000000" font-family="sans-serif" font-size="20" lengthAdjust="spacing" textLength="365" x="150.5" y="196.9336">requests the role of the new employee</text><polygon fill="#181818" points="878.5,236.707,888.5,240.707,878.5,244.707,882.5,240.707" style="stroke:#181818;stroke-width:1.0;"/><line style="stroke:#181818;stroke-width:1.0;" x1="116.5" x2="884.5" y1="240.707" y2="240.707"/><text fill="#000000" font-family="sans-serif" font-size="20" font-weight="bold" lengthAdjust="spacing" textLength="13" x="123.5" y="234.4883">3</text><text fill="#000000" font-family="sans-serif" font-size="20" lengthAdjust="spacing" textLength="356" x="140.5" y="234.4883">provide the role of the new employee</text><polygon fill="#181818" points="127.5,297.8164,117.5,301.8164,127.5,305.8164,123.5,301.8164" style="stroke:#181818;stroke-width:1.0;"/><line style="stroke:#181818;stroke-width:1.0;stroke-dasharray:2.0,2.0;" x1="121.5" x2="894.5" y1="301.8164" y2="301.8164"/><text fill="#000000" font-family="sans-serif" font-size="20" font-weight="bold" lengthAdjust="spacing" textLength="13" x="133.5" y="283.8203">4</text><text fill="#000000" font-family="sans-serif" font-size="20" lengthAdjust="spacing" textLength="727" x="150.5" y="272.043">requests the name, the passport card number, the tax number, the address,</text><text fill="#000000" font-family="sans-serif" font-size="20" lengthAdjust="spacing" textLength="470" x="150.5" y="295.5977">the email address, the contact telephone number</text><polygon fill="#181818" points="878.5,335.3711,888.5,339.3711,878.5,343.3711,882.5,339.3711" style="stroke:#181818;stroke-width:1.0;"/><line style="stroke:#181818;stroke-width:1.0;" x1="116.5" x2="884.5" y1="339.3711" y2="339.3711"/><text fill="#000000" font-family="sans-serif" font-size="20" font-weight="bold" lengthAdjust="spacing" textLength="13" x="123.5" y="333.1523">5</text><text fill="#000000" font-family="sans-serif" font-size="20" lengthAdjust="spacing" textLength="256" x="140.5" y="333.1523">provide the necessary data</text><polygon fill="#181818" points="127.5,372.9258,117.5,376.9258,127.5,380.9258,123.5,376.9258" style="stroke:#181818;stroke-width:1.0;"/><line style="stroke:#181818;stroke-width:1.0;stroke-dasharray:2.0,2.0;" x1="121.5" x2="894.5" y1="376.9258" y2="376.9258"/><text fill="#000000" font-family="sans-serif" font-size="20" font-weight="bold" lengthAdjust="spacing" textLength="13" x="133.5" y="370.707">6</text><text fill="#000000" font-family="sans-serif" font-size="20" lengthAdjust="spacing" textLength="154" x="150.5" y="370.707">list the agencies</text><polygon fill="#181818" points="878.5,410.4805,888.5,414.4805,878.5,418.4805,882.5,414.4805" style="stroke:#181818;stroke-width:1.0;"/><line style="stroke:#181818;stroke-width:1.0;" x1="116.5" x2="884.5" y1="414.4805" y2="414.4805"/><text fill="#000000" font-family="sans-serif" font-size="20" font-weight="bold" lengthAdjust="spacing" textLength="13" x="123.5" y="408.2617">7</text><text fill="#000000" font-family="sans-serif" font-size="20" lengthAdjust="spacing" textLength="286" x="140.5" y="408.2617">select the agency from the list</text><polygon fill="#181818" points="127.5,448.0352,117.5,452.0352,127.5,456.0352,123.5,452.0352" style="stroke:#181818;stroke-width:1.0;"/><line style="stroke:#181818;stroke-width:1.0;stroke-dasharray:2.0,2.0;" x1="121.5" x2="894.5" y1="452.0352" y2="452.0352"/><text fill="#000000" font-family="sans-serif" font-size="20" font-weight="bold" lengthAdjust="spacing" textLength="13" x="133.5" y="445.8164">8</text><text fill="#000000" font-family="sans-serif" font-size="20" lengthAdjust="spacing" textLength="340" x="150.5" y="445.8164">shows the provided data to confirm</text><polygon fill="#181818" points="878.5,485.5898,888.5,489.5898,878.5,493.5898,882.5,489.5898" style="stroke:#181818;stroke-width:1.0;"/><line style="stroke:#181818;stroke-width:1.0;" x1="116.5" x2="884.5" y1="489.5898" y2="489.5898"/><text fill="#000000" font-family="sans-serif" font-size="20" font-weight="bold" lengthAdjust="spacing" textLength="13" x="123.5" y="483.3711">9</text><text fill="#000000" font-family="sans-serif" font-size="20" lengthAdjust="spacing" textLength="250" x="140.5" y="483.3711">confirm the provided data</text><polygon fill="#181818" points="127.5,523.1445,117.5,527.1445,127.5,531.1445,123.5,527.1445" style="stroke:#181818;stroke-width:1.0;"/><line style="stroke:#181818;stroke-width:1.0;stroke-dasharray:2.0,2.0;" x1="121.5" x2="889.5" y1="527.1445" y2="527.1445"/><text fill="#000000" font-family="sans-serif" font-size="20" font-weight="bold" lengthAdjust="spacing" textLength="26" x="133.5" y="520.9258">10</text><text fill="#000000" font-family="sans-serif" font-size="20" lengthAdjust="spacing" textLength="445" x="163.5" y="520.9258">validate the data and display success message</text><polygon fill="#181818" points="127.5,560.6992,117.5,564.6992,127.5,568.6992,123.5,564.6992" style="stroke:#181818;stroke-width:1.0;"/><line style="stroke:#181818;stroke-width:1.0;stroke-dasharray:2.0,2.0;" x1="121.5" x2="894.5" y1="564.6992" y2="564.6992"/><text fill="#000000" font-family="sans-serif" font-size="20" font-weight="bold" lengthAdjust="spacing" textLength="26" x="133.5" y="558.4805">11</text><text fill="#000000" font-family="sans-serif" font-size="20" lengthAdjust="spacing" textLength="414" x="163.5" y="558.4805">send the password to the employee's email</text><!--SRC=[dPDDRzim38Rl_XL4Bjs01WZMMmu31hGzxb1ZjrquYRQ5w6iIdSpzzQCiUykGhMlg4oMHJrwIR_B1-8W9dGtgG1eqTJXQVWoUM_DCy67Nv3K5NF113IauWWvjfhEdYEg0FRKyMO94Yj7tzZmX3wZ3oVX-AMtOiAIsKsPoqDBtaRmYk3VOb_HtRNl_7hRmfTtjxlRmHBsHn0IVwGGFBjemaJ1mvE17zusIn8f3Wiq2_AITyLAIK6utWBdUD2A6ZJ8HFSDcNvFdvnhE67D4fYM_0Vdc4BOVLxLxwL3qPix0GU956u8NTRIgAvM_Q2iUbcyXRGLQwUVCGKOOP3YXc-CBggQ_SYzbnXIEHjF_YIzgVOrUZuvkvoXYpZ4a1eL9GzrEVM7yySSPjKwKyoryzUL83etzVLckbDXGP06JfJW4Jx1kUzNrfb5uKl8Jc2RGoFZc0LXPUssa5-yQojUhojAOEeDCqCdVQpuN-jKUoaCurOKi_UgvnM9JcMLdahlEG4lH9V5gPKUqHfVSWfereHUKoT7Y17bKPINWobvwUh55ahhLQASW7fFcgd-geMzojLBpZrP_0W00]--></g></svg>