<?xml version="1.0" encoding="UTF-8" standalone="no"?><svg xmlns="http://www.w3.org/2000/svg" xmlns:xlink="http://www.w3.org/1999/xlink" contentStyleType="text/css" height="2500px" preserveAspectRatio="none" style="width:3019px;height:2500px;background:#FFFFFF;" version="1.1" viewBox="0 0 3019 2500" width="3019px" zoomAndPan="magnify"><defs/><g><!--class Property--><g id="elem_Property"><rect codeLine="91" fill="#F1F1F1" height="261.9922" id="Property" rx="2.5" ry="2.5" style="stroke:#181818;stroke-width:0.5;" width="290" x="1950.5" y="1638"/><ellipse cx="2051" cy="1655" fill="#ADD1B2" rx="12" ry="12" style="stroke:#181818;stroke-width:1.0;"/><path d="M2053.8066,1662.0801 Q2053.123,1662.4316 2052.3711,1662.6074 Q2051.6191,1662.7832 2050.7891,1662.7832 Q2047.8398,1662.7832 2046.2871,1660.8398 Q2044.7344,1658.8965 2044.7344,1655.2246 Q2044.7344,1651.543 2046.2871,1649.5996 Q2047.8398,1647.6563 2050.7891,1647.6563 Q2051.6191,1647.6563 2052.3809,1647.832 Q2053.1426,1648.0078 2053.8066,1648.3594 L2053.8066,1651.5625 Q2053.0645,1650.8789 2052.3662,1650.5615 Q2051.668,1650.2441 2050.9258,1650.2441 Q2049.3438,1650.2441 2048.5381,1651.499 Q2047.7324,1652.7539 2047.7324,1655.2246 Q2047.7324,1657.6855 2048.5381,1658.9404 Q2049.3438,1660.1953 2050.9258,1660.1953 Q2051.668,1660.1953 2052.3662,1659.8779 Q2053.0645,1659.5605 2053.8066,1658.877 Z " fill="#000000"/><text fill="#000000" font-family="sans-serif" font-size="20" lengthAdjust="spacing" textLength="80" x="2073" y="1662.5586">Property</text><line style="stroke:#181818;stroke-width:0.5;" x1="1951.5" x2="2239.5" y1="1672" y2="1672"/><text fill="#000000" font-family="sans-serif" font-size="20" lengthAdjust="spacing" textLength="126" x="1956.5" y="1695.3359">-double area</text><text fill="#000000" font-family="sans-serif" font-size="20" lengthAdjust="spacing" textLength="278" x="1956.5" y="1718.8906">-double distanceFromCenter</text><text fill="#000000" font-family="sans-serif" font-size="20" lengthAdjust="spacing" textLength="133" x="1956.5" y="1742.4453">-double price</text><text fill="#000000" font-family="sans-serif" font-size="20" lengthAdjust="spacing" textLength="173" x="1956.5" y="1766">-Address address</text><line style="stroke:#181818;stroke-width:0.5;" x1="1951.5" x2="2239.5" y1="1774.2188" y2="1774.2188"/><text fill="#000000" font-family="sans-serif" font-size="20" lengthAdjust="spacing" textLength="139" x="1956.5" y="1797.5547">+getAddress()</text><text fill="#000000" font-family="sans-serif" font-size="20" lengthAdjust="spacing" textLength="104" x="1956.5" y="1821.1094">+getArea()</text><text fill="#000000" font-family="sans-serif" font-size="20" lengthAdjust="spacing" textLength="255" x="1956.5" y="1844.6641">+getDistanceFromCenter()</text><text fill="#000000" font-family="sans-serif" font-size="20" lengthAdjust="spacing" textLength="106" x="1956.5" y="1868.2188">+getPrice()</text><text fill="#000000" font-family="sans-serif" font-size="20" lengthAdjust="spacing" textLength="105" x="1956.5" y="1891.7734">+toString()</text></g><!--class Announcement--><g id="elem_Announcement"><rect codeLine="22" fill="#F1F1F1" height="285.5469" id="Announcement" rx="2.5" ry="2.5" style="stroke:#181818;stroke-width:0.5;" width="342" x="1924.5" y="1267"/><ellipse cx="2019" cy="1284" fill="#ADD1B2" rx="12" ry="12" style="stroke:#181818;stroke-width:1.0;"/><path d="M2021.8066,1291.0801 Q2021.123,1291.4316 2020.3711,1291.6074 Q2019.6191,1291.7832 2018.7891,1291.7832 Q2015.8398,1291.7832 2014.2871,1289.8398 Q2012.7344,1287.8965 2012.7344,1284.2246 Q2012.7344,1280.543 2014.2871,1278.5996 Q2015.8398,1276.6563 2018.7891,1276.6563 Q2019.6191,1276.6563 2020.3809,1276.832 Q2021.1426,1277.0078 2021.8066,1277.3594 L2021.8066,1280.5625 Q2021.0645,1279.8789 2020.3662,1279.5615 Q2019.668,1279.2441 2018.9258,1279.2441 Q2017.3438,1279.2441 2016.5381,1280.499 Q2015.7324,1281.7539 2015.7324,1284.2246 Q2015.7324,1286.6855 2016.5381,1287.9404 Q2017.3438,1289.1953 2018.9258,1289.1953 Q2019.668,1289.1953 2020.3662,1288.8779 Q2021.0645,1288.5605 2021.8066,1287.877 Z " fill="#000000"/><text fill="#000000" font-family="sans-serif" font-size="20" lengthAdjust="spacing" textLength="144" x="2041" y="1291.5586">Announcement</text><line style="stroke:#181818;stroke-width:0.5;" x1="1925.5" x2="2265.5" y1="1301" y2="1301"/><text fill="#000000" font-family="sans-serif" font-size="20" lengthAdjust="spacing" textLength="312" x="1930.5" y="1324.3359">-TypeOfProperty typeOfProperty</text><text fill="#000000" font-family="sans-serif" font-size="20" lengthAdjust="spacing" textLength="330" x="1930.5" y="1347.8906">-TransactionType transactionType</text><text fill="#000000" font-family="sans-serif" font-size="20" lengthAdjust="spacing" textLength="178" x="1930.5" y="1371.4453">-Date publishDate</text><text fill="#000000" font-family="sans-serif" font-size="20" lengthAdjust="spacing" textLength="216" x="1930.5" y="1395">-Comission comission</text><text fill="#000000" font-family="sans-serif" font-size="20" lengthAdjust="spacing" textLength="255" x="1930.5" y="1418.5547">-ArrayList&lt;Photo&gt; photos</text><text fill="#000000" font-family="sans-serif" font-size="20" lengthAdjust="spacing" textLength="205" x="1930.5" y="1442.1094">-boolean isPublished</text><text fill="#000000" font-family="sans-serif" font-size="20" lengthAdjust="spacing" textLength="62" x="1930.5" y="1465.6641">-int id</text><text fill="#000000" font-family="sans-serif" font-size="20" lengthAdjust="spacing" textLength="138" x="1930.5" y="1489.2188">-int idCounter</text><line style="stroke:#181818;stroke-width:0.5;" x1="1925.5" x2="2265.5" y1="1497.4375" y2="1497.4375"/><text fill="#000000" font-family="sans-serif" font-size="20" lengthAdjust="spacing" textLength="140" x="1930.5" y="1520.7734">+getProperty()</text><text fill="#000000" font-family="sans-serif" font-size="20" lengthAdjust="spacing" textLength="105" x="1930.5" y="1544.3281">+toString()</text></g><!--class AnnouncementRepository--><g id="elem_AnnouncementRepository"><rect codeLine="35" fill="#F1F1F1" height="167.7734" id="AnnouncementRepository" rx="2.5" ry="2.5" style="stroke:#181818;stroke-width:0.5;" width="1136" x="1760.5" y="1014"/><ellipse cx="2201" cy="1031" fill="#ADD1B2" rx="12" ry="12" style="stroke:#181818;stroke-width:1.0;"/><path d="M2203.8066,1038.0801 Q2203.123,1038.4316 2202.3711,1038.6074 Q2201.6191,1038.7832 2200.7891,1038.7832 Q2197.8398,1038.7832 2196.2871,1036.8398 Q2194.7344,1034.8965 2194.7344,1031.2246 Q2194.7344,1027.543 2196.2871,1025.5996 Q2197.8398,1023.6563 2200.7891,1023.6563 Q2201.6191,1023.6563 2202.3809,1023.832 Q2203.1426,1024.0078 2203.8066,1024.3594 L2203.8066,1027.5625 Q2203.0645,1026.8789 2202.3662,1026.5615 Q2201.668,1026.2441 2200.9258,1026.2441 Q2199.3438,1026.2441 2198.5381,1027.499 Q2197.7324,1028.7539 2197.7324,1031.2246 Q2197.7324,1033.6855 2198.5381,1034.9404 Q2199.3438,1036.1953 2200.9258,1036.1953 Q2201.668,1036.1953 2202.3662,1035.8779 Q2203.0645,1035.5605 2203.8066,1034.877 Z " fill="#000000"/><text fill="#000000" font-family="sans-serif" font-size="20" lengthAdjust="spacing" textLength="246" x="2223" y="1038.5586">AnnouncementRepository</text><line style="stroke:#181818;stroke-width:0.5;" x1="1761.5" x2="2895.5" y1="1048" y2="1048"/><line style="stroke:#181818;stroke-width:0.5;" x1="1761.5" x2="2895.5" y1="1056" y2="1056"/><text fill="#000000" font-family="sans-serif" font-size="20" lengthAdjust="spacing" textLength="464" x="1766.5" y="1079.3359">+getAllAnnouncementsSortedByDefualtCriteria()</text><text fill="#000000" font-family="sans-serif" font-size="20" lengthAdjust="spacing" textLength="729" x="1766.5" y="1102.8906">+getAllAnnouncementsSortedBySortCriteria(String sortCriteria, String order)</text><text fill="#000000" font-family="sans-serif" font-size="20" lengthAdjust="spacing" textLength="1124" x="1766.5" y="1126.4453">+getFilteredAnnouncements(TypeOfProperty typeOfProperty, TransactionType transactionType, int numberOfRooms)</text><text fill="#000000" font-family="sans-serif" font-size="20" lengthAdjust="spacing" textLength="1017" x="1766.5" y="1150">+getFilteredAndSortedAnnouncements(TypeOfProperty typeOfProperty, TransactionType transactionType,</text><text fill="#000000" font-family="sans-serif" font-size="20" lengthAdjust="spacing" textLength="510" x="1772.5" y="1173.5547">int numberOfRooms, String sortCriteria, String order)</text></g><!--class Repositories--><g id="elem_Repositories"><rect codeLine="42" fill="#F1F1F1" height="120.6641" id="Repositories" rx="2.5" ry="2.5" style="stroke:#181818;stroke-width:0.5;" width="318" x="1210.5" y="808"/><ellipse cx="1305.5" cy="825" fill="#ADD1B2" rx="12" ry="12" style="stroke:#181818;stroke-width:1.0;"/><path d="M1308.3066,832.0801 Q1307.623,832.4316 1306.8711,832.6074 Q1306.1191,832.7832 1305.2891,832.7832 Q1302.3398,832.7832 1300.7871,830.8398 Q1299.2344,828.8965 1299.2344,825.2246 Q1299.2344,821.543 1300.7871,819.5996 Q1302.3398,817.6563 1305.2891,817.6563 Q1306.1191,817.6563 1306.8809,817.832 Q1307.6426,818.0078 1308.3066,818.3594 L1308.3066,821.5625 Q1307.5645,820.8789 1306.8662,820.5615 Q1306.168,820.2441 1305.4258,820.2441 Q1303.8438,820.2441 1303.0381,821.499 Q1302.2324,822.7539 1302.2324,825.2246 Q1302.2324,827.6855 1303.0381,828.9404 Q1303.8438,830.1953 1305.4258,830.1953 Q1306.168,830.1953 1306.8662,829.8779 Q1307.5645,829.5605 1308.3066,828.877 Z " fill="#000000"/><text fill="#000000" font-family="sans-serif" font-size="20" lengthAdjust="spacing" textLength="119" x="1327.5" y="832.5586">Repositories</text><line style="stroke:#181818;stroke-width:0.5;" x1="1211.5" x2="1527.5" y1="842" y2="842"/><line style="stroke:#181818;stroke-width:0.5;" x1="1211.5" x2="1527.5" y1="850" y2="850"/><text fill="#000000" font-family="sans-serif" font-size="20" lengthAdjust="spacing" textLength="149" x="1216.5" y="873.3359">+Repositories()</text><text fill="#000000" font-family="sans-serif" font-size="20" lengthAdjust="spacing" textLength="139" x="1216.5" y="896.8906">+getInstance()</text><text fill="#000000" font-family="sans-serif" font-size="20" lengthAdjust="spacing" textLength="306" x="1216.5" y="920.4453">+getAnnouncementRepository()</text></g><!--class ListAnnouncementsController--><g id="elem_ListAnnouncementsController"><rect codeLine="48" fill="#F1F1F1" height="191.3281" id="ListAnnouncementsController" rx="2.5" ry="2.5" style="stroke:#181818;stroke-width:0.5;" width="1123" x="1510" y="556"/><ellipse cx="1925" cy="573" fill="#ADD1B2" rx="12" ry="12" style="stroke:#181818;stroke-width:1.0;"/><path d="M1927.8066,580.0801 Q1927.123,580.4316 1926.3711,580.6074 Q1925.6191,580.7832 1924.7891,580.7832 Q1921.8398,580.7832 1920.2871,578.8398 Q1918.7344,576.8965 1918.7344,573.2246 Q1918.7344,569.543 1920.2871,567.5996 Q1921.8398,565.6563 1924.7891,565.6563 Q1925.6191,565.6563 1926.3809,565.832 Q1927.1426,566.0078 1927.8066,566.3594 L1927.8066,569.5625 Q1927.0645,568.8789 1926.3662,568.5615 Q1925.668,568.2441 1924.9258,568.2441 Q1923.3438,568.2441 1922.5381,569.499 Q1921.7324,570.7539 1921.7324,573.2246 Q1921.7324,575.6855 1922.5381,576.9404 Q1923.3438,578.1953 1924.9258,578.1953 Q1925.668,578.1953 1926.3662,577.8779 Q1927.0645,577.5605 1927.8066,576.877 Z " fill="#000000"/><text fill="#000000" font-family="sans-serif" font-size="20" lengthAdjust="spacing" textLength="284" x="1947" y="580.5586">ListAnnouncementsController</text><line style="stroke:#181818;stroke-width:0.5;" x1="1511" x2="2632" y1="590" y2="590"/><line style="stroke:#181818;stroke-width:0.5;" x1="1511" x2="2632" y1="598" y2="598"/><text fill="#000000" font-family="sans-serif" font-size="20" lengthAdjust="spacing" textLength="294" x="1516" y="621.3359">+getAnnoucementRepository()</text><text fill="#000000" font-family="sans-serif" font-size="20" lengthAdjust="spacing" textLength="464" x="1516" y="644.8906">+getAllAnnouncementsSortedByDefualtCriteria()</text><text fill="#000000" font-family="sans-serif" font-size="20" lengthAdjust="spacing" textLength="729" x="1516" y="668.4453">+getAllAnnouncementsSortedBySortCriteria(String sortCriteria, String order)</text><text fill="#000000" font-family="sans-serif" font-size="20" lengthAdjust="spacing" textLength="1111" x="1516" y="692">+getFilteredAnnouncements(ypeOfProperty typeOfProperty, TransactionType transactionType, int numberOfRooms)</text><text fill="#000000" font-family="sans-serif" font-size="20" lengthAdjust="spacing" textLength="1017" x="1516" y="715.5547">+getFilteredAndSortedAnnouncements(TypeOfProperty typeOfProperty, TransactionType transactionType,</text><text fill="#000000" font-family="sans-serif" font-size="20" lengthAdjust="spacing" textLength="510" x="1522" y="739.1094">int numberOfRooms, String sortCriteria, String order)</text></g><!--class ListAnouncementsUI--><g id="elem_ListAnouncementsUI"><rect codeLine="56" fill="#F1F1F1" height="144.2188" id="ListAnouncementsUI" rx="2.5" ry="2.5" style="stroke:#181818;stroke-width:0.5;" width="855" x="1196" y="382"/><ellipse cx="1521" cy="399" fill="#ADD1B2" rx="12" ry="12" style="stroke:#181818;stroke-width:1.0;"/><path d="M1523.8066,406.0801 Q1523.123,406.4316 1522.3711,406.6074 Q1521.6191,406.7832 1520.7891,406.7832 Q1517.8398,406.7832 1516.2871,404.8398 Q1514.7344,402.8965 1514.7344,399.2246 Q1514.7344,395.543 1516.2871,393.5996 Q1517.8398,391.6563 1520.7891,391.6563 Q1521.6191,391.6563 1522.3809,391.832 Q1523.1426,392.0078 1523.8066,392.3594 L1523.8066,395.5625 Q1523.0645,394.8789 1522.3662,394.5615 Q1521.668,394.2441 1520.9258,394.2441 Q1519.3438,394.2441 1518.5381,395.499 Q1517.7324,396.7539 1517.7324,399.2246 Q1517.7324,401.6855 1518.5381,402.9404 Q1519.3438,404.1953 1520.9258,404.1953 Q1521.668,404.1953 1522.3662,403.8779 Q1523.0645,403.5605 1523.8066,402.877 Z " fill="#000000"/><text fill="#000000" font-family="sans-serif" font-size="20" lengthAdjust="spacing" textLength="196" x="1543" y="406.5586">ListAnouncementsUI</text><line style="stroke:#181818;stroke-width:0.5;" x1="1197" x2="2050" y1="416" y2="416"/><line style="stroke:#181818;stroke-width:0.5;" x1="1197" x2="2050" y1="424" y2="424"/><text fill="#000000" font-family="sans-serif" font-size="20" lengthAdjust="spacing" textLength="787" x="1202" y="447.3359">+checkInputType(typeOfProperty, transactionType, numberOfRooms, sortCriteria)</text><text fill="#000000" font-family="sans-serif" font-size="20" lengthAdjust="spacing" textLength="843" x="1202" y="470.8906">+getAnnouncements(TypeOfProperty typeOfProperty, TransactionType transactionType,</text><text fill="#000000" font-family="sans-serif" font-size="20" lengthAdjust="spacing" textLength="510" x="1208" y="494.4453">int numberOfRooms, String sortCriteria, String order)</text><text fill="#000000" font-family="sans-serif" font-size="20" lengthAdjust="spacing" textLength="156" x="1202" y="518">+getController()</text></g><!--class Address--><g id="elem_Address"><rect codeLine="62" fill="#F1F1F1" height="167.7734" id="Address" rx="2.5" ry="2.5" style="stroke:#181818;stroke-width:0.5;" width="153" x="1842" y="1985"/><ellipse cx="1876" cy="2002" fill="#ADD1B2" rx="12" ry="12" style="stroke:#181818;stroke-width:1.0;"/><path d="M1878.8066,2009.0801 Q1878.123,2009.4316 1877.3711,2009.6074 Q1876.6191,2009.7832 1875.7891,2009.7832 Q1872.8398,2009.7832 1871.2871,2007.8398 Q1869.7344,2005.8965 1869.7344,2002.2246 Q1869.7344,1998.543 1871.2871,1996.5996 Q1872.8398,1994.6563 1875.7891,1994.6563 Q1876.6191,1994.6563 1877.3809,1994.832 Q1878.1426,1995.0078 1878.8066,1995.3594 L1878.8066,1998.5625 Q1878.0645,1997.8789 1877.3662,1997.5615 Q1876.668,1997.2441 1875.9258,1997.2441 Q1874.3438,1997.2441 1873.5381,1998.499 Q1872.7324,1999.7539 1872.7324,2002.2246 Q1872.7324,2004.6855 1873.5381,2005.9404 Q1874.3438,2007.1953 1875.9258,2007.1953 Q1876.668,2007.1953 1877.3662,2006.8779 Q1878.0645,2006.5605 1878.8066,2005.877 Z " fill="#000000"/><text fill="#000000" font-family="sans-serif" font-size="20" lengthAdjust="spacing" textLength="79" x="1895" y="2009.5586">Address</text><line style="stroke:#181818;stroke-width:0.5;" x1="1843" x2="1994" y1="2019" y2="2019"/><text fill="#000000" font-family="sans-serif" font-size="20" lengthAdjust="spacing" textLength="128" x="1848" y="2042.3359">-String street</text><text fill="#000000" font-family="sans-serif" font-size="20" lengthAdjust="spacing" textLength="107" x="1848" y="2065.8906">-String city</text><text fill="#000000" font-family="sans-serif" font-size="20" lengthAdjust="spacing" textLength="141" x="1848" y="2089.4453">-String district</text><text fill="#000000" font-family="sans-serif" font-size="20" lengthAdjust="spacing" textLength="120" x="1848" y="2113">-String state</text><text fill="#000000" font-family="sans-serif" font-size="20" lengthAdjust="spacing" textLength="123" x="1848" y="2136.5547">-int zipCode</text><line style="stroke:#181818;stroke-width:0.5;" x1="1843" x2="1994" y1="2144.7734" y2="2144.7734"/></g><!--class CreateRequestController--><g id="elem_CreateRequestController"><rect codeLine="70" fill="#F1F1F1" height="50" id="CreateRequestController" rx="2.5" ry="2.5" style="stroke:#181818;stroke-width:0.5;" width="269" x="1206" y="626.5"/><ellipse cx="1222" cy="643.5" fill="#ADD1B2" rx="12" ry="12" style="stroke:#181818;stroke-width:1.0;"/><path d="M1224.8066,650.5801 Q1224.123,650.9316 1223.3711,651.1074 Q1222.6191,651.2832 1221.7891,651.2832 Q1218.8398,651.2832 1217.2871,649.3398 Q1215.7344,647.3965 1215.7344,643.7246 Q1215.7344,640.043 1217.2871,638.0996 Q1218.8398,636.1563 1221.7891,636.1563 Q1222.6191,636.1563 1223.3809,636.332 Q1224.1426,636.5078 1224.8066,636.8594 L1224.8066,640.0625 Q1224.0645,639.3789 1223.3662,639.0615 Q1222.668,638.7441 1221.9258,638.7441 Q1220.3438,638.7441 1219.5381,639.999 Q1218.7324,641.2539 1218.7324,643.7246 Q1218.7324,646.1855 1219.5381,647.4404 Q1220.3438,648.6953 1221.9258,648.6953 Q1222.668,648.6953 1223.3662,648.3779 Q1224.0645,648.0605 1224.8066,647.377 Z " fill="#000000"/><text fill="#000000" font-family="sans-serif" font-size="20" lengthAdjust="spacing" textLength="235" x="1237" y="651.0586">CreateRequestController</text><line style="stroke:#181818;stroke-width:0.5;" x1="1207" x2="1474" y1="660.5" y2="660.5"/><line style="stroke:#181818;stroke-width:0.5;" x1="1207" x2="1474" y1="668.5" y2="668.5"/></g><!--class PublishAnnouncementController--><g id="elem_PublishAnnouncementController"><rect codeLine="73" fill="#F1F1F1" height="50" id="PublishAnnouncementController" rx="2.5" ry="2.5" style="stroke:#181818;stroke-width:0.5;" width="344" x="2668.5" y="626.5"/><ellipse cx="2684.5" cy="643.5" fill="#ADD1B2" rx="12" ry="12" style="stroke:#181818;stroke-width:1.0;"/><path d="M2687.3066,650.5801 Q2686.623,650.9316 2685.8711,651.1074 Q2685.1191,651.2832 2684.2891,651.2832 Q2681.3398,651.2832 2679.7871,649.3398 Q2678.2344,647.3965 2678.2344,643.7246 Q2678.2344,640.043 2679.7871,638.0996 Q2681.3398,636.1563 2684.2891,636.1563 Q2685.1191,636.1563 2685.8809,636.332 Q2686.6426,636.5078 2687.3066,636.8594 L2687.3066,640.0625 Q2686.5645,639.3789 2685.8662,639.0615 Q2685.168,638.7441 2684.4258,638.7441 Q2682.8438,638.7441 2682.0381,639.999 Q2681.2324,641.2539 2681.2324,643.7246 Q2681.2324,646.1855 2682.0381,647.4404 Q2682.8438,648.6953 2684.4258,648.6953 Q2685.168,648.6953 2685.8662,648.3779 Q2686.5645,648.0605 2687.3066,647.377 Z " fill="#000000"/><text fill="#000000" font-family="sans-serif" font-size="20" lengthAdjust="spacing" textLength="310" x="2699.5" y="651.0586">PublishAnnouncementController</text><line style="stroke:#181818;stroke-width:0.5;" x1="2669.5" x2="3011.5" y1="660.5" y2="660.5"/><line style="stroke:#181818;stroke-width:0.5;" x1="2669.5" x2="3011.5" y1="668.5" y2="668.5"/></g><!--class RegisterEmployeeController--><g id="elem_RegisterEmployeeController"><rect codeLine="76" fill="#F1F1F1" height="50" id="RegisterEmployeeController" rx="2.5" ry="2.5" style="stroke:#181818;stroke-width:0.5;" width="301" x="870" y="626.5"/><ellipse cx="886" cy="643.5" fill="#ADD1B2" rx="12" ry="12" style="stroke:#181818;stroke-width:1.0;"/><path d="M888.8066,650.5801 Q888.123,650.9316 887.3711,651.1074 Q886.6191,651.2832 885.7891,651.2832 Q882.8398,651.2832 881.2871,649.3398 Q879.7344,647.3965 879.7344,643.7246 Q879.7344,640.043 881.2871,638.0996 Q882.8398,636.1563 885.7891,636.1563 Q886.6191,636.1563 887.3809,636.332 Q888.1426,636.5078 888.8066,636.8594 L888.8066,640.0625 Q888.0645,639.3789 887.3662,639.0615 Q886.668,638.7441 885.9258,638.7441 Q884.3438,638.7441 883.5381,639.999 Q882.7324,641.2539 882.7324,643.7246 Q882.7324,646.1855 883.5381,647.4404 Q884.3438,648.6953 885.9258,648.6953 Q886.668,648.6953 887.3662,648.3779 Q888.0645,648.0605 888.8066,647.377 Z " fill="#000000"/><text fill="#000000" font-family="sans-serif" font-size="20" lengthAdjust="spacing" textLength="267" x="901" y="651.0586">RegisterEmployeeController</text><line style="stroke:#181818;stroke-width:0.5;" x1="871" x2="1170" y1="660.5" y2="660.5"/><line style="stroke:#181818;stroke-width:0.5;" x1="871" x2="1170" y1="668.5" y2="668.5"/></g><!--class AuthenticationController--><g id="elem_AuthenticationController"><rect codeLine="79" fill="#F1F1F1" height="50" id="AuthenticationController" rx="2.5" ry="2.5" style="stroke:#181818;stroke-width:0.5;" width="269" x="422" y="222"/><ellipse cx="438" cy="239" fill="#ADD1B2" rx="12" ry="12" style="stroke:#181818;stroke-width:1.0;"/><path d="M440.8066,246.0801 Q440.123,246.4316 439.3711,246.6074 Q438.6191,246.7832 437.7891,246.7832 Q434.8398,246.7832 433.2871,244.8398 Q431.7344,242.8965 431.7344,239.2246 Q431.7344,235.543 433.2871,233.5996 Q434.8398,231.6563 437.7891,231.6563 Q438.6191,231.6563 439.3809,231.832 Q440.1426,232.0078 440.8066,232.3594 L440.8066,235.5625 Q440.0645,234.8789 439.3662,234.5615 Q438.668,234.2441 437.9258,234.2441 Q436.3438,234.2441 435.5381,235.499 Q434.7324,236.7539 434.7324,239.2246 Q434.7324,241.6855 435.5381,242.9404 Q436.3438,244.1953 437.9258,244.1953 Q438.668,244.1953 439.3662,243.8779 Q440.0645,243.5605 440.8066,242.877 Z " fill="#000000"/><text fill="#000000" font-family="sans-serif" font-size="20" lengthAdjust="spacing" textLength="235" x="453" y="246.5586">AuthenticationController</text><line style="stroke:#181818;stroke-width:0.5;" x1="423" x2="690" y1="256" y2="256"/><line style="stroke:#181818;stroke-width:0.5;" x1="423" x2="690" y1="264" y2="264"/></g><!--class UserSession--><g id="elem_UserSession"><rect codeLine="82" fill="#F1F1F1" height="50" id="UserSession" rx="2.5" ry="2.5" style="stroke:#181818;stroke-width:0.5;" width="149" x="572" y="1744"/><ellipse cx="588" cy="1761" fill="#ADD1B2" rx="12" ry="12" style="stroke:#181818;stroke-width:1.0;"/><path d="M590.8066,1768.0801 Q590.123,1768.4316 589.3711,1768.6074 Q588.6191,1768.7832 587.7891,1768.7832 Q584.8398,1768.7832 583.2871,1766.8398 Q581.7344,1764.8965 581.7344,1761.2246 Q581.7344,1757.543 583.2871,1755.5996 Q584.8398,1753.6563 587.7891,1753.6563 Q588.6191,1753.6563 589.3809,1753.832 Q590.1426,1754.0078 590.8066,1754.3594 L590.8066,1757.5625 Q590.0645,1756.8789 589.3662,1756.5615 Q588.668,1756.2441 587.9258,1756.2441 Q586.3438,1756.2441 585.5381,1757.499 Q584.7324,1758.7539 584.7324,1761.2246 Q584.7324,1763.6855 585.5381,1764.9404 Q586.3438,1766.1953 587.9258,1766.1953 Q588.668,1766.1953 589.3662,1765.8779 Q590.0645,1765.5605 590.8066,1764.877 Z " fill="#000000"/><text fill="#000000" font-family="sans-serif" font-size="20" lengthAdjust="spacing" textLength="115" x="603" y="1768.5586">UserSession</text><line style="stroke:#181818;stroke-width:0.5;" x1="573" x2="720" y1="1778" y2="1778"/><line style="stroke:#181818;stroke-width:0.5;" x1="573" x2="720" y1="1786" y2="1786"/></g><!--class Agency--><g id="elem_Agency"><rect codeLine="85" fill="#F1F1F1" height="50" id="Agency" rx="2.5" ry="2.5" style="stroke:#181818;stroke-width:0.5;" width="103" x="1554" y="1385"/><ellipse cx="1570" cy="1402" fill="#ADD1B2" rx="12" ry="12" style="stroke:#181818;stroke-width:1.0;"/><path d="M1572.8066,1409.0801 Q1572.123,1409.4316 1571.3711,1409.6074 Q1570.6191,1409.7832 1569.7891,1409.7832 Q1566.8398,1409.7832 1565.2871,1407.8398 Q1563.7344,1405.8965 1563.7344,1402.2246 Q1563.7344,1398.543 1565.2871,1396.5996 Q1566.8398,1394.6563 1569.7891,1394.6563 Q1570.6191,1394.6563 1571.3809,1394.832 Q1572.1426,1395.0078 1572.8066,1395.3594 L1572.8066,1398.5625 Q1572.0645,1397.8789 1571.3662,1397.5615 Q1570.668,1397.2441 1569.9258,1397.2441 Q1568.3438,1397.2441 1567.5381,1398.499 Q1566.7324,1399.7539 1566.7324,1402.2246 Q1566.7324,1404.6855 1567.5381,1405.9404 Q1568.3438,1407.1953 1569.9258,1407.1953 Q1570.668,1407.1953 1571.3662,1406.8779 Q1572.0645,1406.5605 1572.8066,1405.877 Z " fill="#000000"/><text fill="#000000" font-family="sans-serif" font-size="20" lengthAdjust="spacing" textLength="69" x="1585" y="1409.5586">Agency</text><line style="stroke:#181818;stroke-width:0.5;" x1="1555" x2="1656" y1="1419" y2="1419"/><line style="stroke:#181818;stroke-width:0.5;" x1="1555" x2="1656" y1="1427" y2="1427"/></g><!--class Agent--><g id="elem_Agent"><rect codeLine="88" fill="#F1F1F1" height="50" id="Agent" rx="2.5" ry="2.5" style="stroke:#181818;stroke-width:0.5;" width="90" x="1270.5" y="1744"/><ellipse cx="1286.5" cy="1761" fill="#ADD1B2" rx="12" ry="12" style="stroke:#181818;stroke-width:1.0;"/><path d="M1289.3066,1768.0801 Q1288.623,1768.4316 1287.8711,1768.6074 Q1287.1191,1768.7832 1286.2891,1768.7832 Q1283.3398,1768.7832 1281.7871,1766.8398 Q1280.2344,1764.8965 1280.2344,1761.2246 Q1280.2344,1757.543 1281.7871,1755.5996 Q1283.3398,1753.6563 1286.2891,1753.6563 Q1287.1191,1753.6563 1287.8809,1753.832 Q1288.6426,1754.0078 1289.3066,1754.3594 L1289.3066,1757.5625 Q1288.5645,1756.8789 1287.8662,1756.5615 Q1287.168,1756.2441 1286.4258,1756.2441 Q1284.8438,1756.2441 1284.0381,1757.499 Q1283.2324,1758.7539 1283.2324,1761.2246 Q1283.2324,1763.6855 1284.0381,1764.9404 Q1284.8438,1766.1953 1286.4258,1766.1953 Q1287.168,1766.1953 1287.8662,1765.8779 Q1288.5645,1765.5605 1289.3066,1764.877 Z " fill="#000000"/><text fill="#000000" font-family="sans-serif" font-size="20" lengthAdjust="spacing" textLength="56" x="1301.5" y="1768.5586">Agent</text><line style="stroke:#181818;stroke-width:0.5;" x1="1271.5" x2="1359.5" y1="1778" y2="1778"/><line style="stroke:#181818;stroke-width:0.5;" x1="1271.5" x2="1359.5" y1="1786" y2="1786"/></g><!--class Employee--><g id="elem_Employee"><rect codeLine="109" fill="#F1F1F1" height="50" id="Employee" rx="2.5" ry="2.5" style="stroke:#181818;stroke-width:0.5;" width="127" x="1040" y="1385"/><ellipse cx="1056" cy="1402" fill="#ADD1B2" rx="12" ry="12" style="stroke:#181818;stroke-width:1.0;"/><path d="M1058.8066,1409.0801 Q1058.123,1409.4316 1057.3711,1409.6074 Q1056.6191,1409.7832 1055.7891,1409.7832 Q1052.8398,1409.7832 1051.2871,1407.8398 Q1049.7344,1405.8965 1049.7344,1402.2246 Q1049.7344,1398.543 1051.2871,1396.5996 Q1052.8398,1394.6563 1055.7891,1394.6563 Q1056.6191,1394.6563 1057.3809,1394.832 Q1058.1426,1395.0078 1058.8066,1395.3594 L1058.8066,1398.5625 Q1058.0645,1397.8789 1057.3662,1397.5615 Q1056.668,1397.2441 1055.9258,1397.2441 Q1054.3438,1397.2441 1053.5381,1398.499 Q1052.7324,1399.7539 1052.7324,1402.2246 Q1052.7324,1404.6855 1053.5381,1405.9404 Q1054.3438,1407.1953 1055.9258,1407.1953 Q1056.668,1407.1953 1057.3662,1406.8779 Q1058.0645,1406.5605 1058.8066,1405.877 Z " fill="#000000"/><text fill="#000000" font-family="sans-serif" font-size="20" lengthAdjust="spacing" textLength="93" x="1071" y="1409.5586">Employee</text><line style="stroke:#181818;stroke-width:0.5;" x1="1041" x2="1166" y1="1419" y2="1419"/><line style="stroke:#181818;stroke-width:0.5;" x1="1041" x2="1166" y1="1427" y2="1427"/></g><!--class Residency--><g id="elem_Residency"><rect codeLine="94" fill="#F1F1F1" height="50" id="Residency" rx="2.5" ry="2.5" style="stroke:#181818;stroke-width:0.5;" width="130" x="2030.5" y="2044"/><ellipse cx="2046.5" cy="2061" fill="#A9DCDF" rx="12" ry="12" style="stroke:#181818;stroke-width:1.0;"/><path d="M2046.5156,2055.8066 L2045.1582,2061.7734 L2047.8828,2061.7734 Z M2044.7578,2053.1699 L2048.2832,2053.1699 L2052.2188,2067.75 L2049.3379,2067.75 L2048.4395,2064.1465 L2044.582,2064.1465 L2043.7031,2067.75 L2040.8223,2067.75 Z " fill="#000000"/><text fill="#000000" font-family="sans-serif" font-size="20" font-style="italic" lengthAdjust="spacing" textLength="96" x="2061.5" y="2068.5586">Residency</text><line style="stroke:#181818;stroke-width:0.5;" x1="2031.5" x2="2159.5" y1="2078" y2="2078"/><line style="stroke:#181818;stroke-width:0.5;" x1="2031.5" x2="2159.5" y1="2086" y2="2086"/></g><!--class Apartment--><g id="elem_Apartment"><rect codeLine="97" fill="#F1F1F1" height="50" id="Apartment" rx="2.5" ry="2.5" style="stroke:#181818;stroke-width:0.5;" width="136" x="1979.5" y="2214"/><ellipse cx="1995.5" cy="2231" fill="#ADD1B2" rx="12" ry="12" style="stroke:#181818;stroke-width:1.0;"/><path d="M1998.3066,2238.0801 Q1997.623,2238.4316 1996.8711,2238.6074 Q1996.1191,2238.7832 1995.2891,2238.7832 Q1992.3398,2238.7832 1990.7871,2236.8398 Q1989.2344,2234.8965 1989.2344,2231.2246 Q1989.2344,2227.543 1990.7871,2225.5996 Q1992.3398,2223.6563 1995.2891,2223.6563 Q1996.1191,2223.6563 1996.8809,2223.832 Q1997.6426,2224.0078 1998.3066,2224.3594 L1998.3066,2227.5625 Q1997.5645,2226.8789 1996.8662,2226.5615 Q1996.168,2226.2441 1995.4258,2226.2441 Q1993.8438,2226.2441 1993.0381,2227.499 Q1992.2324,2228.7539 1992.2324,2231.2246 Q1992.2324,2233.6855 1993.0381,2234.9404 Q1993.8438,2236.1953 1995.4258,2236.1953 Q1996.168,2236.1953 1996.8662,2235.8779 Q1997.5645,2235.5605 1998.3066,2234.877 Z " fill="#000000"/><text fill="#000000" font-family="sans-serif" font-size="20" lengthAdjust="spacing" textLength="102" x="2010.5" y="2238.5586">Apartment</text><line style="stroke:#181818;stroke-width:0.5;" x1="1980.5" x2="2114.5" y1="2248" y2="2248"/><line style="stroke:#181818;stroke-width:0.5;" x1="1980.5" x2="2114.5" y1="2256" y2="2256"/></g><!--class House--><g id="elem_House"><rect codeLine="100" fill="#F1F1F1" height="50" id="House" rx="2.5" ry="2.5" style="stroke:#181818;stroke-width:0.5;" width="94" x="2150.5" y="2214"/><ellipse cx="2166.5" cy="2231" fill="#ADD1B2" rx="12" ry="12" style="stroke:#181818;stroke-width:1.0;"/><path d="M2169.3066,2238.0801 Q2168.623,2238.4316 2167.8711,2238.6074 Q2167.1191,2238.7832 2166.2891,2238.7832 Q2163.3398,2238.7832 2161.7871,2236.8398 Q2160.2344,2234.8965 2160.2344,2231.2246 Q2160.2344,2227.543 2161.7871,2225.5996 Q2163.3398,2223.6563 2166.2891,2223.6563 Q2167.1191,2223.6563 2167.8809,2223.832 Q2168.6426,2224.0078 2169.3066,2224.3594 L2169.3066,2227.5625 Q2168.5645,2226.8789 2167.8662,2226.5615 Q2167.168,2226.2441 2166.4258,2226.2441 Q2164.8438,2226.2441 2164.0381,2227.499 Q2163.2324,2228.7539 2163.2324,2231.2246 Q2163.2324,2233.6855 2164.0381,2234.9404 Q2164.8438,2236.1953 2166.4258,2236.1953 Q2167.168,2236.1953 2167.8662,2235.8779 Q2168.5645,2235.5605 2169.3066,2234.877 Z " fill="#000000"/><text fill="#000000" font-family="sans-serif" font-size="20" lengthAdjust="spacing" textLength="60" x="2181.5" y="2238.5586">House</text><line style="stroke:#181818;stroke-width:0.5;" x1="2151.5" x2="2243.5" y1="2248" y2="2248"/><line style="stroke:#181818;stroke-width:0.5;" x1="2151.5" x2="2243.5" y1="2256" y2="2256"/></g><!--class Land--><g id="elem_Land"><rect codeLine="103" fill="#F1F1F1" height="50" id="Land" rx="2.5" ry="2.5" style="stroke:#181818;stroke-width:0.5;" width="81" x="2196" y="2044"/><ellipse cx="2212" cy="2061" fill="#ADD1B2" rx="12" ry="12" style="stroke:#181818;stroke-width:1.0;"/><path d="M2214.8066,2068.0801 Q2214.123,2068.4316 2213.3711,2068.6074 Q2212.6191,2068.7832 2211.7891,2068.7832 Q2208.8398,2068.7832 2207.2871,2066.8398 Q2205.7344,2064.8965 2205.7344,2061.2246 Q2205.7344,2057.543 2207.2871,2055.5996 Q2208.8398,2053.6563 2211.7891,2053.6563 Q2212.6191,2053.6563 2213.3809,2053.832 Q2214.1426,2054.0078 2214.8066,2054.3594 L2214.8066,2057.5625 Q2214.0645,2056.8789 2213.3662,2056.5615 Q2212.668,2056.2441 2211.9258,2056.2441 Q2210.3438,2056.2441 2209.5381,2057.499 Q2208.7324,2058.7539 2208.7324,2061.2246 Q2208.7324,2063.6855 2209.5381,2064.9404 Q2210.3438,2066.1953 2211.9258,2066.1953 Q2212.668,2066.1953 2213.3662,2065.8779 Q2214.0645,2065.5605 2214.8066,2064.877 Z " fill="#000000"/><text fill="#000000" font-family="sans-serif" font-size="20" lengthAdjust="spacing" textLength="47" x="2227" y="2068.5586">Land</text><line style="stroke:#181818;stroke-width:0.5;" x1="2197" x2="2276" y1="2078" y2="2078"/><line style="stroke:#181818;stroke-width:0.5;" x1="2197" x2="2276" y1="2086" y2="2086"/></g><!--class Commission--><g id="elem_Commission"><rect codeLine="106" fill="#F1F1F1" height="50" id="Commission" rx="2.5" ry="2.5" style="stroke:#181818;stroke-width:0.5;" width="154" x="2275.5" y="1744"/><ellipse cx="2291.5" cy="1761" fill="#ADD1B2" rx="12" ry="12" style="stroke:#181818;stroke-width:1.0;"/><path d="M2294.3066,1768.0801 Q2293.623,1768.4316 2292.8711,1768.6074 Q2292.1191,1768.7832 2291.2891,1768.7832 Q2288.3398,1768.7832 2286.7871,1766.8398 Q2285.2344,1764.8965 2285.2344,1761.2246 Q2285.2344,1757.543 2286.7871,1755.5996 Q2288.3398,1753.6563 2291.2891,1753.6563 Q2292.1191,1753.6563 2292.8809,1753.832 Q2293.6426,1754.0078 2294.3066,1754.3594 L2294.3066,1757.5625 Q2293.5645,1756.8789 2292.8662,1756.5615 Q2292.168,1756.2441 2291.4258,1756.2441 Q2289.8438,1756.2441 2289.0381,1757.499 Q2288.2324,1758.7539 2288.2324,1761.2246 Q2288.2324,1763.6855 2289.0381,1764.9404 Q2289.8438,1766.1953 2291.4258,1766.1953 Q2292.168,1766.1953 2292.8662,1765.8779 Q2293.5645,1765.5605 2294.3066,1764.877 Z " fill="#000000"/><text fill="#000000" font-family="sans-serif" font-size="20" lengthAdjust="spacing" textLength="120" x="2306.5" y="1768.5586">Commission</text><line style="stroke:#181818;stroke-width:0.5;" x1="2276.5" x2="2428.5" y1="1778" y2="1778"/><line style="stroke:#181818;stroke-width:0.5;" x1="2276.5" x2="2428.5" y1="1786" y2="1786"/></g><!--class PasswordGenerator--><g id="elem_PasswordGenerator"><rect codeLine="112" fill="#F1F1F1" height="50" id="PasswordGenerator" rx="2.5" ry="2.5" style="stroke:#181818;stroke-width:0.5;" width="218" x="699.5" y="843.5"/><ellipse cx="715.5" cy="860.5" fill="#ADD1B2" rx="12" ry="12" style="stroke:#181818;stroke-width:1.0;"/><path d="M718.3066,867.5801 Q717.623,867.9316 716.8711,868.1074 Q716.1191,868.2832 715.2891,868.2832 Q712.3398,868.2832 710.7871,866.3398 Q709.2344,864.3965 709.2344,860.7246 Q709.2344,857.043 710.7871,855.0996 Q712.3398,853.1563 715.2891,853.1563 Q716.1191,853.1563 716.8809,853.332 Q717.6426,853.5078 718.3066,853.8594 L718.3066,857.0625 Q717.5645,856.3789 716.8662,856.0615 Q716.168,855.7441 715.4258,855.7441 Q713.8438,855.7441 713.0381,856.999 Q712.2324,858.2539 712.2324,860.7246 Q712.2324,863.1855 713.0381,864.4404 Q713.8438,865.6953 715.4258,865.6953 Q716.168,865.6953 716.8662,865.3779 Q717.5645,865.0605 718.3066,864.377 Z " fill="#000000"/><text fill="#000000" font-family="sans-serif" font-size="20" lengthAdjust="spacing" textLength="184" x="730.5" y="868.0586">PasswordGenerator</text><line style="stroke:#181818;stroke-width:0.5;" x1="700.5" x2="916.5" y1="877.5" y2="877.5"/><line style="stroke:#181818;stroke-width:0.5;" x1="700.5" x2="916.5" y1="885.5" y2="885.5"/></g><!--class Photo--><g id="elem_Photo"><rect codeLine="115" fill="#F1F1F1" height="50" id="Photo" rx="2.5" ry="2.5" style="stroke:#181818;stroke-width:0.5;" width="88" x="2464.5" y="1744"/><ellipse cx="2480.5" cy="1761" fill="#ADD1B2" rx="12" ry="12" style="stroke:#181818;stroke-width:1.0;"/><path d="M2483.3066,1768.0801 Q2482.623,1768.4316 2481.8711,1768.6074 Q2481.1191,1768.7832 2480.2891,1768.7832 Q2477.3398,1768.7832 2475.7871,1766.8398 Q2474.2344,1764.8965 2474.2344,1761.2246 Q2474.2344,1757.543 2475.7871,1755.5996 Q2477.3398,1753.6563 2480.2891,1753.6563 Q2481.1191,1753.6563 2481.8809,1753.832 Q2482.6426,1754.0078 2483.3066,1754.3594 L2483.3066,1757.5625 Q2482.5645,1756.8789 2481.8662,1756.5615 Q2481.168,1756.2441 2480.4258,1756.2441 Q2478.8438,1756.2441 2478.0381,1757.499 Q2477.2324,1758.7539 2477.2324,1761.2246 Q2477.2324,1763.6855 2478.0381,1764.9404 Q2478.8438,1766.1953 2480.4258,1766.1953 Q2481.168,1766.1953 2481.8662,1765.8779 Q2482.5645,1765.5605 2483.3066,1764.877 Z " fill="#000000"/><text fill="#000000" font-family="sans-serif" font-size="20" lengthAdjust="spacing" textLength="54" x="2495.5" y="1768.5586">Photo</text><line style="stroke:#181818;stroke-width:0.5;" x1="2465.5" x2="2551.5" y1="1778" y2="1778"/><line style="stroke:#181818;stroke-width:0.5;" x1="2465.5" x2="2551.5" y1="1786" y2="1786"/></g><!--class User--><g id="elem_User"><rect codeLine="118" fill="#F1F1F1" height="50" id="User" rx="2.5" ry="2.5" style="stroke:#181818;stroke-width:0.5;" width="77" x="608" y="1385"/><ellipse cx="624" cy="1402" fill="#A9DCDF" rx="12" ry="12" style="stroke:#181818;stroke-width:1.0;"/><path d="M624.0156,1396.8066 L622.6582,1402.7734 L625.3828,1402.7734 Z M622.2578,1394.1699 L625.7832,1394.1699 L629.7188,1408.75 L626.8379,1408.75 L625.9395,1405.1465 L622.082,1405.1465 L621.2031,1408.75 L618.3223,1408.75 Z " fill="#000000"/><text fill="#000000" font-family="sans-serif" font-size="20" font-style="italic" lengthAdjust="spacing" textLength="43" x="639" y="1409.5586">User</text><line style="stroke:#181818;stroke-width:0.5;" x1="609" x2="684" y1="1419" y2="1419"/><line style="stroke:#181818;stroke-width:0.5;" x1="609" x2="684" y1="1427" y2="1427"/></g><!--class TypeOfProperty--><g id="elem_TypeOfProperty"><rect codeLine="121" fill="#F1F1F1" height="120.6641" id="TypeOfProperty" rx="2.5" ry="2.5" style="stroke:#181818;stroke-width:0.5;" width="184" x="1502.5" y="1708.5"/><ellipse cx="1518.5" cy="1725.5" fill="#EB937F" rx="12" ry="12" style="stroke:#181818;stroke-width:1.0;"/><path d="M1523.2227,1733 L1514.1406,1733 L1514.1406,1718.4199 L1523.2227,1718.4199 L1523.2227,1720.959 L1517.0215,1720.959 L1517.0215,1724.1035 L1522.6367,1724.1035 L1522.6367,1726.6426 L1517.0215,1726.6426 L1517.0215,1730.4609 L1523.2227,1730.4609 Z " fill="#000000"/><text fill="#000000" font-family="sans-serif" font-size="20" lengthAdjust="spacing" textLength="150" x="1533.5" y="1733.0586">TypeOfProperty</text><line style="stroke:#181818;stroke-width:0.5;" x1="1503.5" x2="1685.5" y1="1742.5" y2="1742.5"/><text fill="#000000" font-family="sans-serif" font-size="20" lengthAdjust="spacing" textLength="121" x="1508.5" y="1765.8359">APARTMENT</text><text fill="#000000" font-family="sans-serif" font-size="20" lengthAdjust="spacing" textLength="67" x="1508.5" y="1789.3906">HOUSE</text><text fill="#000000" font-family="sans-serif" font-size="20" lengthAdjust="spacing" textLength="55" x="1508.5" y="1812.9453">LAND</text><line style="stroke:#181818;stroke-width:0.5;" x1="1503.5" x2="1685.5" y1="1821.1641" y2="1821.1641"/></g><!--class TransactionType--><g id="elem_TransactionType"><rect codeLine="127" fill="#F1F1F1" height="97.1094" id="TransactionType" rx="2.5" ry="2.5" style="stroke:#181818;stroke-width:0.5;" width="193" x="1722" y="1720.5"/><ellipse cx="1738" cy="1737.5" fill="#EB937F" rx="12" ry="12" style="stroke:#181818;stroke-width:1.0;"/><path d="M1742.7227,1745 L1733.6406,1745 L1733.6406,1730.4199 L1742.7227,1730.4199 L1742.7227,1732.959 L1736.5215,1732.959 L1736.5215,1736.1035 L1742.1367,1736.1035 L1742.1367,1738.6426 L1736.5215,1738.6426 L1736.5215,1742.4609 L1742.7227,1742.4609 Z " fill="#000000"/><text fill="#000000" font-family="sans-serif" font-size="20" lengthAdjust="spacing" textLength="159" x="1753" y="1745.0586">TransactionType</text><line style="stroke:#181818;stroke-width:0.5;" x1="1723" x2="1914" y1="1754.5" y2="1754.5"/><text fill="#000000" font-family="sans-serif" font-size="20" lengthAdjust="spacing" textLength="52" x="1728" y="1777.8359">RENT</text><text fill="#000000" font-family="sans-serif" font-size="20" lengthAdjust="spacing" textLength="47" x="1728" y="1801.3906">SALE</text><line style="stroke:#181818;stroke-width:0.5;" x1="1723" x2="1914" y1="1809.6094" y2="1809.6094"/></g><!--class SunExposure--><g id="elem_SunExposure"><rect codeLine="132" fill="#F1F1F1" height="144.2188" id="SunExposure" rx="2.5" ry="2.5" style="stroke:#181818;stroke-width:0.5;" width="158" x="2118.5" y="2349"/><ellipse cx="2134.5" cy="2366" fill="#EB937F" rx="12" ry="12" style="stroke:#181818;stroke-width:1.0;"/><path d="M2139.2227,2373.5 L2130.1406,2373.5 L2130.1406,2358.9199 L2139.2227,2358.9199 L2139.2227,2361.459 L2133.0215,2361.459 L2133.0215,2364.6035 L2138.6367,2364.6035 L2138.6367,2367.1426 L2133.0215,2367.1426 L2133.0215,2370.9609 L2139.2227,2370.9609 Z " fill="#000000"/><text fill="#000000" font-family="sans-serif" font-size="20" lengthAdjust="spacing" textLength="124" x="2149.5" y="2373.5586">SunExposure</text><line style="stroke:#181818;stroke-width:0.5;" x1="2119.5" x2="2275.5" y1="2383" y2="2383"/><text fill="#000000" font-family="sans-serif" font-size="20" lengthAdjust="spacing" textLength="72" x="2124.5" y="2406.3359">NORTH</text><text fill="#000000" font-family="sans-serif" font-size="20" lengthAdjust="spacing" textLength="69" x="2124.5" y="2429.8906">SOUTH</text><text fill="#000000" font-family="sans-serif" font-size="20" lengthAdjust="spacing" textLength="49" x="2124.5" y="2453.4453">EAST</text><text fill="#000000" font-family="sans-serif" font-size="20" lengthAdjust="spacing" textLength="52" x="2124.5" y="2477">WEST</text><line style="stroke:#181818;stroke-width:0.5;" x1="2119.5" x2="2275.5" y1="2485.2188" y2="2485.2188"/></g><!--class AgencyListRepository--><g id="elem_AgencyListRepository"><rect codeLine="139" fill="#F1F1F1" height="50" id="AgencyListRepository" rx="2.5" ry="2.5" style="stroke:#181818;stroke-width:0.5;" width="239" x="1486" y="1073"/><ellipse cx="1502" cy="1090" fill="#ADD1B2" rx="12" ry="12" style="stroke:#181818;stroke-width:1.0;"/><path d="M1504.8066,1097.0801 Q1504.123,1097.4316 1503.3711,1097.6074 Q1502.6191,1097.7832 1501.7891,1097.7832 Q1498.8398,1097.7832 1497.2871,1095.8398 Q1495.7344,1093.8965 1495.7344,1090.2246 Q1495.7344,1086.543 1497.2871,1084.5996 Q1498.8398,1082.6563 1501.7891,1082.6563 Q1502.6191,1082.6563 1503.3809,1082.832 Q1504.1426,1083.0078 1504.8066,1083.3594 L1504.8066,1086.5625 Q1504.0645,1085.8789 1503.3662,1085.5615 Q1502.668,1085.2441 1501.9258,1085.2441 Q1500.3438,1085.2441 1499.5381,1086.499 Q1498.7324,1087.7539 1498.7324,1090.2246 Q1498.7324,1092.6855 1499.5381,1093.9404 Q1500.3438,1095.1953 1501.9258,1095.1953 Q1502.668,1095.1953 1503.3662,1094.8779 Q1504.0645,1094.5605 1504.8066,1093.877 Z " fill="#000000"/><text fill="#000000" font-family="sans-serif" font-size="20" lengthAdjust="spacing" textLength="205" x="1517" y="1097.5586">AgencyListRepository</text><line style="stroke:#181818;stroke-width:0.5;" x1="1487" x2="1724" y1="1107" y2="1107"/><line style="stroke:#181818;stroke-width:0.5;" x1="1487" x2="1724" y1="1115" y2="1115"/></g><!--class AuthenticationRepository--><g id="elem_AuthenticationRepository"><rect codeLine="142" fill="#F1F1F1" height="50" id="AuthenticationRepository" rx="2.5" ry="2.5" style="stroke:#181818;stroke-width:0.5;" width="275" x="509" y="1073"/><ellipse cx="525" cy="1090" fill="#ADD1B2" rx="12" ry="12" style="stroke:#181818;stroke-width:1.0;"/><path d="M527.8066,1097.0801 Q527.123,1097.4316 526.3711,1097.6074 Q525.6191,1097.7832 524.7891,1097.7832 Q521.8398,1097.7832 520.2871,1095.8398 Q518.7344,1093.8965 518.7344,1090.2246 Q518.7344,1086.543 520.2871,1084.5996 Q521.8398,1082.6563 524.7891,1082.6563 Q525.6191,1082.6563 526.3809,1082.832 Q527.1426,1083.0078 527.8066,1083.3594 L527.8066,1086.5625 Q527.0645,1085.8789 526.3662,1085.5615 Q525.668,1085.2441 524.9258,1085.2441 Q523.3438,1085.2441 522.5381,1086.499 Q521.7324,1087.7539 521.7324,1090.2246 Q521.7324,1092.6855 522.5381,1093.9404 Q523.3438,1095.1953 524.9258,1095.1953 Q525.668,1095.1953 526.3662,1094.8779 Q527.0645,1094.5605 527.8066,1093.877 Z " fill="#000000"/><text fill="#000000" font-family="sans-serif" font-size="20" lengthAdjust="spacing" textLength="241" x="540" y="1097.5586">AuthenticationRepository</text><line style="stroke:#181818;stroke-width:0.5;" x1="510" x2="783" y1="1107" y2="1107"/><line style="stroke:#181818;stroke-width:0.5;" x1="510" x2="783" y1="1115" y2="1115"/></g><!--class EmployeeRepository--><g id="elem_EmployeeRepository"><rect codeLine="145" fill="#F1F1F1" height="50" id="EmployeeRepository" rx="2.5" ry="2.5" style="stroke:#181818;stroke-width:0.5;" width="229" x="856" y="1073"/><ellipse cx="872" cy="1090" fill="#ADD1B2" rx="12" ry="12" style="stroke:#181818;stroke-width:1.0;"/><path d="M874.8066,1097.0801 Q874.123,1097.4316 873.3711,1097.6074 Q872.6191,1097.7832 871.7891,1097.7832 Q868.8398,1097.7832 867.2871,1095.8398 Q865.7344,1093.8965 865.7344,1090.2246 Q865.7344,1086.543 867.2871,1084.5996 Q868.8398,1082.6563 871.7891,1082.6563 Q872.6191,1082.6563 873.3809,1082.832 Q874.1426,1083.0078 874.8066,1083.3594 L874.8066,1086.5625 Q874.0645,1085.8789 873.3662,1085.5615 Q872.668,1085.2441 871.9258,1085.2441 Q870.3438,1085.2441 869.5381,1086.499 Q868.7324,1087.7539 868.7324,1090.2246 Q868.7324,1092.6855 869.5381,1093.9404 Q870.3438,1095.1953 871.9258,1095.1953 Q872.668,1095.1953 873.3662,1094.8779 Q874.0645,1094.5605 874.8066,1093.877 Z " fill="#000000"/><text fill="#000000" font-family="sans-serif" font-size="20" lengthAdjust="spacing" textLength="195" x="887" y="1097.5586">EmployeeRepository</text><line style="stroke:#181818;stroke-width:0.5;" x1="857" x2="1084" y1="1107" y2="1107"/><line style="stroke:#181818;stroke-width:0.5;" x1="857" x2="1084" y1="1115" y2="1115"/></g><!--class RoleRepository--><g id="elem_RoleRepository"><rect codeLine="148" fill="#F1F1F1" height="73.5547" id="RoleRepository" rx="2.5" ry="2.5" style="stroke:#181818;stroke-width:0.5;" width="331" x="1120" y="1061"/><ellipse cx="1209" cy="1078" fill="#ADD1B2" rx="12" ry="12" style="stroke:#181818;stroke-width:1.0;"/><path d="M1211.8066,1085.0801 Q1211.123,1085.4316 1210.3711,1085.6074 Q1209.6191,1085.7832 1208.7891,1085.7832 Q1205.8398,1085.7832 1204.2871,1083.8398 Q1202.7344,1081.8965 1202.7344,1078.2246 Q1202.7344,1074.543 1204.2871,1072.5996 Q1205.8398,1070.6563 1208.7891,1070.6563 Q1209.6191,1070.6563 1210.3809,1070.832 Q1211.1426,1071.0078 1211.8066,1071.3594 L1211.8066,1074.5625 Q1211.0645,1073.8789 1210.3662,1073.5615 Q1209.668,1073.2441 1208.9258,1073.2441 Q1207.3438,1073.2441 1206.5381,1074.499 Q1205.7324,1075.7539 1205.7324,1078.2246 Q1205.7324,1080.6855 1206.5381,1081.9404 Q1207.3438,1083.1953 1208.9258,1083.1953 Q1209.668,1083.1953 1210.3662,1082.8779 Q1211.0645,1082.5605 1211.8066,1081.877 Z " fill="#000000"/><text fill="#000000" font-family="sans-serif" font-size="20" lengthAdjust="spacing" textLength="144" x="1231" y="1085.5586">RoleRepository</text><line style="stroke:#181818;stroke-width:0.5;" x1="1121" x2="1450" y1="1095" y2="1095"/><line style="stroke:#181818;stroke-width:0.5;" x1="1121" x2="1450" y1="1103" y2="1103"/><text fill="#000000" font-family="sans-serif" font-size="20" lengthAdjust="spacing" textLength="319" x="1126" y="1126.3359">+getRolesToCreate(): List&lt;Role&gt;</text></g><!--class AuthenticationUI--><g id="elem_AuthenticationUI"><rect codeLine="153" fill="#F1F1F1" height="50" id="AuthenticationUI" rx="2.5" ry="2.5" style="stroke:#181818;stroke-width:0.5;" width="193" x="460" y="142"/><ellipse cx="476" cy="159" fill="#ADD1B2" rx="12" ry="12" style="stroke:#181818;stroke-width:1.0;"/><path d="M478.8066,166.0801 Q478.123,166.4316 477.3711,166.6074 Q476.6191,166.7832 475.7891,166.7832 Q472.8398,166.7832 471.2871,164.8398 Q469.7344,162.8965 469.7344,159.2246 Q469.7344,155.543 471.2871,153.5996 Q472.8398,151.6563 475.7891,151.6563 Q476.6191,151.6563 477.3809,151.832 Q478.1426,152.0078 478.8066,152.3594 L478.8066,155.5625 Q478.0645,154.8789 477.3662,154.5615 Q476.668,154.2441 475.9258,154.2441 Q474.3438,154.2441 473.5381,155.499 Q472.7324,156.7539 472.7324,159.2246 Q472.7324,161.6855 473.5381,162.9404 Q474.3438,164.1953 475.9258,164.1953 Q476.668,164.1953 477.3662,163.8779 Q478.0645,163.5605 478.8066,162.877 Z " fill="#000000"/><text fill="#000000" font-family="sans-serif" font-size="20" lengthAdjust="spacing" textLength="159" x="491" y="166.5586">AuthenticationUI</text><line style="stroke:#181818;stroke-width:0.5;" x1="461" x2="652" y1="176" y2="176"/><line style="stroke:#181818;stroke-width:0.5;" x1="461" x2="652" y1="184" y2="184"/></g><!--class AdminUI--><g id="elem_AdminUI"><rect codeLine="156" fill="#F1F1F1" height="50" id="AdminUI" rx="2.5" ry="2.5" style="stroke:#181818;stroke-width:0.5;" width="118" x="661.5" y="302"/><ellipse cx="677.5" cy="319" fill="#ADD1B2" rx="12" ry="12" style="stroke:#181818;stroke-width:1.0;"/><path d="M680.3066,326.0801 Q679.623,326.4316 678.8711,326.6074 Q678.1191,326.7832 677.2891,326.7832 Q674.3398,326.7832 672.7871,324.8398 Q671.2344,322.8965 671.2344,319.2246 Q671.2344,315.543 672.7871,313.5996 Q674.3398,311.6563 677.2891,311.6563 Q678.1191,311.6563 678.8809,311.832 Q679.6426,312.0078 680.3066,312.3594 L680.3066,315.5625 Q679.5645,314.8789 678.8662,314.5615 Q678.168,314.2441 677.4258,314.2441 Q675.8438,314.2441 675.0381,315.499 Q674.2324,316.7539 674.2324,319.2246 Q674.2324,321.6855 675.0381,322.9404 Q675.8438,324.1953 677.4258,324.1953 Q678.168,324.1953 678.8662,323.8779 Q679.5645,323.5605 680.3066,322.877 Z " fill="#000000"/><text fill="#000000" font-family="sans-serif" font-size="20" lengthAdjust="spacing" textLength="84" x="692.5" y="326.5586">AdminUI</text><line style="stroke:#181818;stroke-width:0.5;" x1="662.5" x2="778.5" y1="336" y2="336"/><line style="stroke:#181818;stroke-width:0.5;" x1="662.5" x2="778.5" y1="344" y2="344"/></g><!--class ClientUI--><g id="elem_ClientUI"><rect codeLine="159" fill="#F1F1F1" height="50" id="ClientUI" rx="2.5" ry="2.5" style="stroke:#181818;stroke-width:0.5;" width="110" x="125.5" y="302"/><ellipse cx="141.5" cy="319" fill="#ADD1B2" rx="12" ry="12" style="stroke:#181818;stroke-width:1.0;"/><path d="M144.3066,326.0801 Q143.623,326.4316 142.8711,326.6074 Q142.1191,326.7832 141.2891,326.7832 Q138.3398,326.7832 136.7871,324.8398 Q135.2344,322.8965 135.2344,319.2246 Q135.2344,315.543 136.7871,313.5996 Q138.3398,311.6563 141.2891,311.6563 Q142.1191,311.6563 142.8809,311.832 Q143.6426,312.0078 144.3066,312.3594 L144.3066,315.5625 Q143.5645,314.8789 142.8662,314.5615 Q142.168,314.2441 141.4258,314.2441 Q139.8438,314.2441 139.0381,315.499 Q138.2324,316.7539 138.2324,319.2246 Q138.2324,321.6855 139.0381,322.9404 Q139.8438,324.1953 141.4258,324.1953 Q142.168,324.1953 142.8662,323.8779 Q143.5645,323.5605 144.3066,322.877 Z " fill="#000000"/><text fill="#000000" font-family="sans-serif" font-size="20" lengthAdjust="spacing" textLength="76" x="156.5" y="326.5586">ClientUI</text><line style="stroke:#181818;stroke-width:0.5;" x1="126.5" x2="234.5" y1="336" y2="336"/><line style="stroke:#181818;stroke-width:0.5;" x1="126.5" x2="234.5" y1="344" y2="344"/></g><!--class EmployeeUI--><g id="elem_EmployeeUI"><rect codeLine="162" fill="#F1F1F1" height="50" id="EmployeeUI" rx="2.5" ry="2.5" style="stroke:#181818;stroke-width:0.5;" width="147" x="304" y="302"/><ellipse cx="320" cy="319" fill="#ADD1B2" rx="12" ry="12" style="stroke:#181818;stroke-width:1.0;"/><path d="M322.8066,326.0801 Q322.123,326.4316 321.3711,326.6074 Q320.6191,326.7832 319.7891,326.7832 Q316.8398,326.7832 315.2871,324.8398 Q313.7344,322.8965 313.7344,319.2246 Q313.7344,315.543 315.2871,313.5996 Q316.8398,311.6563 319.7891,311.6563 Q320.6191,311.6563 321.3809,311.832 Q322.1426,312.0078 322.8066,312.3594 L322.8066,315.5625 Q322.0645,314.8789 321.3662,314.5615 Q320.668,314.2441 319.9258,314.2441 Q318.3438,314.2441 317.5381,315.499 Q316.7324,316.7539 316.7324,319.2246 Q316.7324,321.6855 317.5381,322.9404 Q318.3438,324.1953 319.9258,324.1953 Q320.668,324.1953 321.3662,323.8779 Q322.0645,323.5605 322.8066,322.877 Z " fill="#000000"/><text fill="#000000" font-family="sans-serif" font-size="20" lengthAdjust="spacing" textLength="113" x="335" y="326.5586">EmployeeUI</text><line style="stroke:#181818;stroke-width:0.5;" x1="305" x2="450" y1="336" y2="336"/><line style="stroke:#181818;stroke-width:0.5;" x1="305" x2="450" y1="344" y2="344"/></g><!--class MainMenuUI--><g id="elem_MainMenuUI"><rect codeLine="165" fill="#F1F1F1" height="50" id="MainMenuUI" rx="2.5" ry="2.5" style="stroke:#181818;stroke-width:0.5;" width="152" x="1210.5" y="7"/><ellipse cx="1226.5" cy="24" fill="#ADD1B2" rx="12" ry="12" style="stroke:#181818;stroke-width:1.0;"/><path d="M1229.3066,31.0801 Q1228.623,31.4316 1227.8711,31.6074 Q1227.1191,31.7832 1226.2891,31.7832 Q1223.3398,31.7832 1221.7871,29.8398 Q1220.2344,27.8965 1220.2344,24.2246 Q1220.2344,20.543 1221.7871,18.5996 Q1223.3398,16.6563 1226.2891,16.6563 Q1227.1191,16.6563 1227.8809,16.832 Q1228.6426,17.0078 1229.3066,17.3594 L1229.3066,20.5625 Q1228.5645,19.8789 1227.8662,19.5615 Q1227.168,19.2441 1226.4258,19.2441 Q1224.8438,19.2441 1224.0381,20.499 Q1223.2324,21.7539 1223.2324,24.2246 Q1223.2324,26.6855 1224.0381,27.9404 Q1224.8438,29.1953 1226.4258,29.1953 Q1227.168,29.1953 1227.8662,28.8779 Q1228.5645,28.5605 1229.3066,27.877 Z " fill="#000000"/><text fill="#000000" font-family="sans-serif" font-size="20" lengthAdjust="spacing" textLength="118" x="1241.5" y="31.5586">MainMenuUI</text><line style="stroke:#181818;stroke-width:0.5;" x1="1211.5" x2="1361.5" y1="41" y2="41"/><line style="stroke:#181818;stroke-width:0.5;" x1="1211.5" x2="1361.5" y1="49" y2="49"/></g><!--class MenuItem--><g id="elem_MenuItem"><rect codeLine="168" fill="#F1F1F1" height="50" id="MenuItem" rx="2.5" ry="2.5" style="stroke:#181818;stroke-width:0.5;" width="129" x="1281" y="142"/><ellipse cx="1297" cy="159" fill="#ADD1B2" rx="12" ry="12" style="stroke:#181818;stroke-width:1.0;"/><path d="M1299.8066,166.0801 Q1299.123,166.4316 1298.3711,166.6074 Q1297.6191,166.7832 1296.7891,166.7832 Q1293.8398,166.7832 1292.2871,164.8398 Q1290.7344,162.8965 1290.7344,159.2246 Q1290.7344,155.543 1292.2871,153.5996 Q1293.8398,151.6563 1296.7891,151.6563 Q1297.6191,151.6563 1298.3809,151.832 Q1299.1426,152.0078 1299.8066,152.3594 L1299.8066,155.5625 Q1299.0645,154.8789 1298.3662,154.5615 Q1297.668,154.2441 1296.9258,154.2441 Q1295.3438,154.2441 1294.5381,155.499 Q1293.7324,156.7539 1293.7324,159.2246 Q1293.7324,161.6855 1294.5381,162.9404 Q1295.3438,164.1953 1296.9258,164.1953 Q1297.668,164.1953 1298.3662,163.8779 Q1299.0645,163.5605 1299.8066,162.877 Z " fill="#000000"/><text fill="#000000" font-family="sans-serif" font-size="20" lengthAdjust="spacing" textLength="95" x="1312" y="166.5586">MenuItem</text><line style="stroke:#181818;stroke-width:0.5;" x1="1282" x2="1409" y1="176" y2="176"/><line style="stroke:#181818;stroke-width:0.5;" x1="1282" x2="1409" y1="184" y2="184"/></g><!--class CreateRequestUI--><g id="elem_CreateRequestUI"><rect codeLine="171" fill="#F1F1F1" height="50" id="CreateRequestUI" rx="2.5" ry="2.5" style="stroke:#181818;stroke-width:0.5;" width="193" x="7" y="626.5"/><ellipse cx="23" cy="643.5" fill="#ADD1B2" rx="12" ry="12" style="stroke:#181818;stroke-width:1.0;"/><path d="M25.8066,650.5801 Q25.123,650.9316 24.3711,651.1074 Q23.6191,651.2832 22.7891,651.2832 Q19.8398,651.2832 18.2871,649.3398 Q16.7344,647.3965 16.7344,643.7246 Q16.7344,640.043 18.2871,638.0996 Q19.8398,636.1563 22.7891,636.1563 Q23.6191,636.1563 24.3809,636.332 Q25.1426,636.5078 25.8066,636.8594 L25.8066,640.0625 Q25.0645,639.3789 24.3662,639.0615 Q23.668,638.7441 22.9258,638.7441 Q21.3438,638.7441 20.5381,639.999 Q19.7324,641.2539 19.7324,643.7246 Q19.7324,646.1855 20.5381,647.4404 Q21.3438,648.6953 22.9258,648.6953 Q23.668,648.6953 24.3662,648.3779 Q25.0645,648.0605 25.8066,647.377 Z " fill="#000000"/><text fill="#000000" font-family="sans-serif" font-size="20" lengthAdjust="spacing" textLength="159" x="38" y="651.0586">CreateRequestUI</text><line style="stroke:#181818;stroke-width:0.5;" x1="8" x2="199" y1="660.5" y2="660.5"/><line style="stroke:#181818;stroke-width:0.5;" x1="8" x2="199" y1="668.5" y2="668.5"/></g><!--class DevTeamUI--><g id="elem_DevTeamUI"><rect codeLine="174" fill="#F1F1F1" height="50" id="DevTeamUI" rx="2.5" ry="2.5" style="stroke:#181818;stroke-width:0.5;" width="144" x="1445.5" y="142"/><ellipse cx="1461.5" cy="159" fill="#ADD1B2" rx="12" ry="12" style="stroke:#181818;stroke-width:1.0;"/><path d="M1464.3066,166.0801 Q1463.623,166.4316 1462.8711,166.6074 Q1462.1191,166.7832 1461.2891,166.7832 Q1458.3398,166.7832 1456.7871,164.8398 Q1455.2344,162.8965 1455.2344,159.2246 Q1455.2344,155.543 1456.7871,153.5996 Q1458.3398,151.6563 1461.2891,151.6563 Q1462.1191,151.6563 1462.8809,151.832 Q1463.6426,152.0078 1464.3066,152.3594 L1464.3066,155.5625 Q1463.5645,154.8789 1462.8662,154.5615 Q1462.168,154.2441 1461.4258,154.2441 Q1459.8438,154.2441 1459.0381,155.499 Q1458.2324,156.7539 1458.2324,159.2246 Q1458.2324,161.6855 1459.0381,162.9404 Q1459.8438,164.1953 1461.4258,164.1953 Q1462.168,164.1953 1462.8662,163.8779 Q1463.5645,163.5605 1464.3066,162.877 Z " fill="#000000"/><text fill="#000000" font-family="sans-serif" font-size="20" lengthAdjust="spacing" textLength="110" x="1476.5" y="166.5586">DevTeamUI</text><line style="stroke:#181818;stroke-width:0.5;" x1="1446.5" x2="1588.5" y1="176" y2="176"/><line style="stroke:#181818;stroke-width:0.5;" x1="1446.5" x2="1588.5" y1="184" y2="184"/></g><!--class PublishAnnouncementUI--><g id="elem_PublishAnnouncementUI"><rect codeLine="177" fill="#F1F1F1" height="50" id="PublishAnnouncementUI" rx="2.5" ry="2.5" style="stroke:#181818;stroke-width:0.5;" width="268" x="235.5" y="626.5"/><ellipse cx="251.5" cy="643.5" fill="#ADD1B2" rx="12" ry="12" style="stroke:#181818;stroke-width:1.0;"/><path d="M254.3066,650.5801 Q253.623,650.9316 252.8711,651.1074 Q252.1191,651.2832 251.2891,651.2832 Q248.3398,651.2832 246.7871,649.3398 Q245.2344,647.3965 245.2344,643.7246 Q245.2344,640.043 246.7871,638.0996 Q248.3398,636.1563 251.2891,636.1563 Q252.1191,636.1563 252.8809,636.332 Q253.6426,636.5078 254.3066,636.8594 L254.3066,640.0625 Q253.5645,639.3789 252.8662,639.0615 Q252.168,638.7441 251.4258,638.7441 Q249.8438,638.7441 249.0381,639.999 Q248.2324,641.2539 248.2324,643.7246 Q248.2324,646.1855 249.0381,647.4404 Q249.8438,648.6953 251.4258,648.6953 Q252.168,648.6953 252.8662,648.3779 Q253.5645,648.0605 254.3066,647.377 Z " fill="#000000"/><text fill="#000000" font-family="sans-serif" font-size="20" lengthAdjust="spacing" textLength="234" x="266.5" y="651.0586">PublishAnnouncementUI</text><line style="stroke:#181818;stroke-width:0.5;" x1="236.5" x2="502.5" y1="660.5" y2="660.5"/><line style="stroke:#181818;stroke-width:0.5;" x1="236.5" x2="502.5" y1="668.5" y2="668.5"/></g><!--class RegisterEmployeeUI--><g id="elem_RegisterEmployeeUI"><rect codeLine="180" fill="#F1F1F1" height="50" id="RegisterEmployeeUI" rx="2.5" ry="2.5" style="stroke:#181818;stroke-width:0.5;" width="225" x="610" y="626.5"/><ellipse cx="626" cy="643.5" fill="#ADD1B2" rx="12" ry="12" style="stroke:#181818;stroke-width:1.0;"/><path d="M628.8066,650.5801 Q628.123,650.9316 627.3711,651.1074 Q626.6191,651.2832 625.7891,651.2832 Q622.8398,651.2832 621.2871,649.3398 Q619.7344,647.3965 619.7344,643.7246 Q619.7344,640.043 621.2871,638.0996 Q622.8398,636.1563 625.7891,636.1563 Q626.6191,636.1563 627.3809,636.332 Q628.1426,636.5078 628.8066,636.8594 L628.8066,640.0625 Q628.0645,639.3789 627.3662,639.0615 Q626.668,638.7441 625.9258,638.7441 Q624.3438,638.7441 623.5381,639.999 Q622.7324,641.2539 622.7324,643.7246 Q622.7324,646.1855 623.5381,647.4404 Q624.3438,648.6953 625.9258,648.6953 Q626.668,648.6953 627.3662,648.3779 Q628.0645,648.0605 628.8066,647.377 Z " fill="#000000"/><text fill="#000000" font-family="sans-serif" font-size="20" lengthAdjust="spacing" textLength="191" x="641" y="651.0586">RegisterEmployeeUI</text><line style="stroke:#181818;stroke-width:0.5;" x1="611" x2="834" y1="660.5" y2="660.5"/><line style="stroke:#181818;stroke-width:0.5;" x1="611" x2="834" y1="668.5" y2="668.5"/></g><!--class Role--><g id="elem_Role"><rect fill="#F1F1F1" height="50" id="Role" rx="2.5" ry="2.5" style="stroke:#181818;stroke-width:0.5;" width="76" x="1247.5" y="1385"/><ellipse cx="1263.5" cy="1402" fill="#ADD1B2" rx="12" ry="12" style="stroke:#181818;stroke-width:1.0;"/><path d="M1266.3066,1409.0801 Q1265.623,1409.4316 1264.8711,1409.6074 Q1264.1191,1409.7832 1263.2891,1409.7832 Q1260.3398,1409.7832 1258.7871,1407.8398 Q1257.2344,1405.8965 1257.2344,1402.2246 Q1257.2344,1398.543 1258.7871,1396.5996 Q1260.3398,1394.6563 1263.2891,1394.6563 Q1264.1191,1394.6563 1264.8809,1394.832 Q1265.6426,1395.0078 1266.3066,1395.3594 L1266.3066,1398.5625 Q1265.5645,1397.8789 1264.8662,1397.5615 Q1264.168,1397.2441 1263.4258,1397.2441 Q1261.8438,1397.2441 1261.0381,1398.499 Q1260.2324,1399.7539 1260.2324,1402.2246 Q1260.2324,1404.6855 1261.0381,1405.9404 Q1261.8438,1407.1953 1263.4258,1407.1953 Q1264.168,1407.1953 1264.8662,1406.8779 Q1265.5645,1406.5605 1266.3066,1405.877 Z " fill="#000000"/><text fill="#000000" font-family="sans-serif" font-size="20" lengthAdjust="spacing" textLength="42" x="1278.5" y="1409.5586">Role</text><line style="stroke:#181818;stroke-width:0.5;" x1="1248.5" x2="1322.5" y1="1419" y2="1419"/><line style="stroke:#181818;stroke-width:0.5;" x1="1248.5" x2="1322.5" y1="1427" y2="1427"/></g><!--reverse link Employee to Agent--><g id="link_Employee_Agent"><path d="M1128.7,1453.44 C1173.49,1528.85 1265.55,1683.89 1301.08,1743.71 " fill="none" id="Employee-backto-Agent" style="stroke:#181818;stroke-width:1.0;"/><polygon fill="none" points="1122.87,1457.33,1118.68,1436.56,1134.91,1450.18,1122.87,1457.33" style="stroke:#181818;stroke-width:1.0;"/></g><!--reverse link Property to Residency--><g id="link_Property_Residency"><path d="M2095.5,1921.65 C2095.5,1969.08 2095.5,2016.15 2095.5,2043.63 " fill="none" id="Property-backto-Residency" style="stroke:#181818;stroke-width:1.0;"/><polygon fill="none" points="2088.5,1921.79,2095.5,1901.79,2102.5,1921.79,2088.5,1921.79" style="stroke:#181818;stroke-width:1.0;"/></g><!--reverse link Residency to Apartment--><g id="link_Residency_Apartment"><path d="M2082.65,2114.98 C2073.61,2146.62 2061.85,2187.78 2054.49,2213.54 " fill="none" id="Residency-backto-Apartment" style="stroke:#181818;stroke-width:1.0;"/><polygon fill="none" points="2075.88,2113.19,2088.1,2095.88,2089.34,2117.04,2075.88,2113.19" style="stroke:#181818;stroke-width:1.0;"/></g><!--reverse link Residency to House--><g id="link_Residency_House"><path d="M2121.42,2112.7 C2140.81,2144.63 2166.63,2187.15 2182.65,2213.54 " fill="none" id="Residency-backto-House" style="stroke:#181818;stroke-width:1.0;"/><polygon fill="none" points="2115.51,2116.45,2111.12,2095.72,2127.48,2109.19,2115.51,2116.45" style="stroke:#181818;stroke-width:1.0;"/></g><!--reverse link Property to Land--><g id="link_Property_Land"><path d="M2166.2,1919.42 C2188.99,1967.59 2211.76,2015.71 2224.97,2043.63 " fill="none" id="Property-backto-Land" style="stroke:#181818;stroke-width:1.0;"/><polygon fill="none" points="2160.01,1922.71,2157.79,1901.64,2172.67,1916.73,2160.01,1922.71" style="stroke:#181818;stroke-width:1.0;"/></g><!--link Repositories to Repositories--><g id="link_Repositories_Repositories"><path codeLine="185" d="M1528.95,853.5 C1549.74,856.08 1563.5,861.08 1563.5,868.5 C1563.5,875.17 1552.39,879.88 1535.06,882.64 " fill="none" id="Repositories-to-Repositories" style="stroke:#181818;stroke-width:1.0;"/><polygon fill="#181818" points="1530.45,883.29,1539.922,885.9885,1535.4006,882.5889,1538.8002,878.0675,1530.45,883.29" style="stroke:#181818;stroke-width:1.0;"/><text fill="#000000" font-family="sans-serif" font-size="20" lengthAdjust="spacing" textLength="89" x="1569.5" y="876.3359">instances</text></g><!--link ListAnnouncementsController to Repositories--><g id="link_ListAnnouncementsController_Repositories"><path codeLine="186" d="M1761.55,747.43 C1683.47,771.34 1602.64,796.1 1534.8,816.87 " fill="none" id="ListAnnouncementsController-to-Repositories" style="stroke:#181818;stroke-width:1.0;stroke-dasharray:7.0,7.0;"/><polygon fill="#181818" points="1530.15,818.3,1539.9281,819.4784,1534.9292,816.8306,1537.577,811.8317,1530.15,818.3" style="stroke:#181818;stroke-width:1.0;"/></g><!--link ListAnouncementsUI to ListAnnouncementsController--><g id="link_ListAnouncementsUI_ListAnnouncementsController"><path codeLine="187" d="M1787.14,526.41 C1807.02,535.08 1827.58,544.06 1848.14,553.03 " fill="none" id="ListAnouncementsUI-to-ListAnnouncementsController" style="stroke:#181818;stroke-width:1.0;stroke-dasharray:7.0,7.0;"/><polygon fill="#181818" points="1852.55,554.95,1845.8995,547.6856,1847.9669,552.9512,1842.7014,555.0185,1852.55,554.95" style="stroke:#181818;stroke-width:1.0;"/></g><!--link AuthenticationUI to AuthenticationController--><g id="link_AuthenticationUI_AuthenticationController"><path codeLine="188" d="M556.5,192.25 C556.5,199.59 556.5,207.74 556.5,215.44 " fill="none" id="AuthenticationUI-to-AuthenticationController" style="stroke:#181818;stroke-width:1.0;stroke-dasharray:7.0,7.0;"/><polygon fill="#181818" points="556.5,220.25,560.5,211.25,556.5,215.25,552.5,211.25,556.5,220.25" style="stroke:#181818;stroke-width:1.0;"/></g><!--link CreateRequestUI to CreateRequestController--><g id="link_CreateRequestUI_CreateRequestController"><path codeLine="189" d="M120.42,626.08 C155.94,572.74 235,454 235,454 C235,454 1171,454 1171,454 C1171,454 1267.02,565.89 1314.52,621.23 " fill="none" id="CreateRequestUI-to-CreateRequestController" style="stroke:#181818;stroke-width:1.0;stroke-dasharray:7.0,7.0;"/><polygon fill="#181818" points="1317.7,624.94,1314.8623,615.5088,1314.439,621.1498,1308.798,620.7264,1317.7,624.94" style="stroke:#181818;stroke-width:1.0;"/></g><!--link PublishAnnouncementUI to PublishAnnouncementController--><g id="link_PublishAnnouncementUI_PublishAnnouncementController"><path codeLine="190" d="M400.45,626.08 C465.4,572.74 610,454 610,454 C610,454 2633,454 2633,454 C2633,454 2751.5,566.79 2809.4,621.9 " fill="none" id="PublishAnnouncementUI-to-PublishAnnouncementController" style="stroke:#181818;stroke-width:1.0;stroke-dasharray:7.0,7.0;"/><polygon fill="#181818" points="2812.7,625.04,2808.9611,615.9284,2809.0868,621.5839,2803.4313,621.7096,2812.7,625.04" style="stroke:#181818;stroke-width:1.0;"/></g><!--link RegisterEmployeeUI to RegisterEmployeeController--><g id="link_RegisterEmployeeUI_RegisterEmployeeController"><path codeLine="191" d="M835.23,651.5 C842.84,651.5 852.96,651.5 863.57,651.5 " fill="none" id="RegisterEmployeeUI-to-RegisterEmployeeController" style="stroke:#181818;stroke-width:1.0;stroke-dasharray:7.0,7.0;"/><polygon fill="#181818" points="868.35,651.5,859.35,647.5,863.35,651.5,859.35,655.5,868.35,651.5" style="stroke:#181818;stroke-width:1.0;"/></g><!--link Repositories to AnnouncementRepository--><g id="link_Repositories_AnnouncementRepository"><path codeLine="192" d="M1528.74,915.08 C1640.29,947.01 1769.5,984 1769.5,984 C1769.5,984 1829.07,996.04 1909.33,1012.27 " fill="none" id="Repositories-to-AnnouncementRepository" style="stroke:#181818;stroke-width:1.0;"/><polygon fill="#181818" points="1914.16,1013.24,1906.1256,1007.5436,1909.2582,1012.2539,1904.5479,1015.3865,1914.16,1013.24" style="stroke:#181818;stroke-width:1.0;"/><text fill="#000000" font-family="sans-serif" font-size="20" lengthAdjust="spacing" textLength="33" x="1770.5" y="979.3359">has</text><text fill="#000000" font-family="sans-serif" font-size="20" lengthAdjust="spacing" textLength="13" x="1536.2501" y="913.0257">1</text><text fill="#000000" font-family="sans-serif" font-size="20" lengthAdjust="spacing" textLength="13" x="1866.6013" y="1001.6629">1</text></g><!--link Repositories to AgencyListRepository--><g id="link_Repositories_AgencyListRepository"><path codeLine="193" d="M1431.51,929.27 C1478.09,974.18 1539.84,1033.71 1575.87,1068.43 " fill="none" id="Repositories-to-AgencyListRepository" style="stroke:#181818;stroke-width:1.0;"/><polygon fill="#181818" points="1579.04,1071.49,1575.3379,1062.3634,1575.4408,1068.0193,1569.7849,1068.1222,1579.04,1071.49" style="stroke:#181818;stroke-width:1.0;"/><text fill="#000000" font-family="sans-serif" font-size="20" lengthAdjust="spacing" textLength="33" x="1488.5" y="979.3359">has</text><text fill="#000000" font-family="sans-serif" font-size="20" lengthAdjust="spacing" textLength="13" x="1424.2345" y="956.1047">1</text><text fill="#000000" font-family="sans-serif" font-size="20" lengthAdjust="spacing" textLength="13" x="1560.1584" y="1060.8516">1</text></g><!--link Repositories to AuthenticationRepository--><g id="link_Repositories_AuthenticationRepository"><path codeLine="194" d="M1210.18,912.85 C1053.77,955.42 838.5,1014 838.5,1014 C838.5,1014 764.85,1045.84 708.78,1070.08 " fill="none" id="Repositories-to-AuthenticationRepository" style="stroke:#181818;stroke-width:1.0;"/><polygon fill="#181818" points="704.46,1071.95,714.3084,1072.0443,709.0483,1069.9632,711.1295,1064.7031,704.46,1071.95" style="stroke:#181818;stroke-width:1.0;"/><text fill="#000000" font-family="sans-serif" font-size="20" lengthAdjust="spacing" textLength="33" x="1026.5" y="979.3359">has</text><text fill="#000000" font-family="sans-serif" font-size="20" lengthAdjust="spacing" textLength="13" x="1189.6663" y="910.6946">1</text><text fill="#000000" font-family="sans-serif" font-size="20" lengthAdjust="spacing" textLength="13" x="701.0228" y="1060.8638">1</text></g><!--link Repositories to EmployeeRepository--><g id="link_Repositories_EmployeeRepository"><path codeLine="195" d="M1258.97,929.32 C1185.52,969.07 1102.5,1014 1102.5,1014 C1102.5,1014 1052.88,1045.2 1014.49,1069.34 " fill="none" id="Repositories-to-EmployeeRepository" style="stroke:#181818;stroke-width:1.0;"/><polygon fill="#181818" points="1010.67,1071.74,1020.4152,1070.3148,1014.8971,1069.0695,1016.1424,1063.5514,1010.67,1071.74" style="stroke:#181818;stroke-width:1.0;"/><text fill="#000000" font-family="sans-serif" font-size="20" lengthAdjust="spacing" textLength="33" x="1197.5" y="979.3359">has</text><text fill="#000000" font-family="sans-serif" font-size="20" lengthAdjust="spacing" textLength="13" x="1233.9013" y="956.1599">1</text><text fill="#000000" font-family="sans-serif" font-size="20" lengthAdjust="spacing" textLength="13" x="1003.4753" y="1060.8638">1</text></g><!--link Repositories to RoleRepository--><g id="link_Repositories_RoleRepository"><path codeLine="196" d="M1343.49,929.2 C1336.33,945.62 1330.5,959 1330.5,959 C1330.5,959 1312.55,1014.06 1299.32,1054.62 " fill="none" id="Repositories-to-RoleRepository" style="stroke:#181818;stroke-width:1.0;"/><polygon fill="#181818" points="1297.79,1059.3,1304.3714,1051.973,1299.3325,1054.5439,1296.7617,1049.505,1297.79,1059.3" style="stroke:#181818;stroke-width:1.0;"/><text fill="#000000" font-family="sans-serif" font-size="20" lengthAdjust="spacing" textLength="33" x="1331.5" y="979.3359">has</text><text fill="#000000" font-family="sans-serif" font-size="20" lengthAdjust="spacing" textLength="13" x="1327.1374" y="956.0275">1</text><text fill="#000000" font-family="sans-serif" font-size="20" lengthAdjust="spacing" textLength="13" x="1285.2344" y="1048.7813">1</text></g><!--link ListAnnouncementsController to AnnouncementRepository--><g id="link_ListAnnouncementsController_AnnouncementRepository"><path codeLine="197" d="M2126.32,747.31 C2170.95,824.5 2233.48,932.66 2277.15,1008.19 " fill="none" id="ListAnnouncementsController-to-AnnouncementRepository" style="stroke:#181818;stroke-width:1.0;stroke-dasharray:7.0,7.0;"/><polygon fill="#181818" points="2279.5,1012.26,2278.4626,1002.4659,2276.9993,1007.9303,2271.535,1006.467,2279.5,1012.26" style="stroke:#181818;stroke-width:1.0;"/></g><!--link CreateRequestController to AnnouncementRepository--><g id="link_CreateRequestController_AnnouncementRepository"><path codeLine="198" d="M1379.64,676.84 C1424.68,704.84 1492.5,747 1492.5,747 C1492.5,747 1604.5,777 1604.5,777 C1604.5,777 1690.5,808 1690.5,808 C1690.5,808 1950.52,925.79 2138.57,1010.97 " fill="none" id="CreateRequestController-to-AnnouncementRepository" style="stroke:#181818;stroke-width:1.0;stroke-dasharray:7.0,7.0;"/><polygon fill="#181818" points="2143.01,1012.98,2136.4528,1005.6313,2138.4528,1010.9228,2133.1613,1012.9229,2143.01,1012.98" style="stroke:#181818;stroke-width:1.0;"/></g><!--link CreateRequestController to AgencyListRepository--><g id="link_CreateRequestController_AgencyListRepository"><path codeLine="199" d="M1379.64,676.84 C1424.68,704.84 1492.5,747 1492.5,747 C1492.5,747 1664.5,808 1664.5,808 C1664.5,808 1664.5,929 1664.5,929 C1664.5,929 1633.18,1018.18 1616.18,1066.59 " fill="none" id="CreateRequestController-to-AgencyListRepository" style="stroke:#181818;stroke-width:1.0;stroke-dasharray:7.0,7.0;"/><polygon fill="#181818" points="1614.58,1071.14,1621.3383,1063.9758,1616.2381,1066.4229,1613.791,1061.3228,1614.58,1071.14" style="stroke:#181818;stroke-width:1.0;"/></g><!--link CreateRequestController to EmployeeRepository--><g id="link_CreateRequestController_EmployeeRepository"><path codeLine="200" d="M1317.38,676.8 C1275.75,720.53 1192.5,808 1192.5,808 C1192.5,808 1064.5,984 1064.5,984 C1064.5,984 1022.52,1034.47 994.67,1067.95 " fill="none" id="CreateRequestController-to-EmployeeRepository" style="stroke:#181818;stroke-width:1.0;stroke-dasharray:7.0,7.0;"/><polygon fill="#181818" points="991.63,1071.6,1000.463,1067.2435,994.8295,1067.7577,994.3153,1062.1243,991.63,1071.6" style="stroke:#181818;stroke-width:1.0;"/></g><!--link PublishAnnouncementController to AnnouncementRepository--><g id="link_PublishAnnouncementController_AnnouncementRepository"><path codeLine="201" d="M2812.61,676.71 C2741.17,738.74 2548.82,905.72 2429.2,1009.57 " fill="none" id="PublishAnnouncementController-to-AnnouncementRepository" style="stroke:#181818;stroke-width:1.0;stroke-dasharray:7.0,7.0;"/><polygon fill="#181818" points="2425.77,1012.56,2435.1835,1009.664,2429.54,1009.2756,2429.9284,1003.6321,2425.77,1012.56" style="stroke:#181818;stroke-width:1.0;"/></g><!--link RegisterEmployeeController to EmployeeRepository--><g id="link_RegisterEmployeeController_EmployeeRepository"><path codeLine="202" d="M1017.78,676.71 C1009.29,752.12 983.36,982.68 973.95,1066.3 " fill="none" id="RegisterEmployeeController-to-EmployeeRepository" style="stroke:#181818;stroke-width:1.0;stroke-dasharray:7.0,7.0;"/><polygon fill="#181818" points="973.4,1071.26,978.3802,1062.7631,973.9584,1066.2913,970.4302,1061.8696,973.4,1071.26" style="stroke:#181818;stroke-width:1.0;"/></g><!--link RegisterEmployeeController to RoleRepository--><g id="link_RegisterEmployeeController_RoleRepository"><path codeLine="203" d="M1034.94,676.71 C1077.99,748.94 1205.9,963.49 1260.43,1054.94 " fill="none" id="RegisterEmployeeController-to-RoleRepository" style="stroke:#181818;stroke-width:1.0;stroke-dasharray:7.0,7.0;"/><polygon fill="#181818" points="1262.98,1059.23,1261.7795,1049.4546,1260.4075,1054.9425,1254.9196,1053.5705,1262.98,1059.23" style="stroke:#181818;stroke-width:1.0;"/></g><!--link RegisterEmployeeController to PasswordGenerator--><g id="link_RegisterEmployeeController_PasswordGenerator"><path codeLine="204" d="M996.59,676.75 C957.31,716.59 879.26,795.74 837.11,838.49 " fill="none" id="RegisterEmployeeController-to-PasswordGenerator" style="stroke:#181818;stroke-width:1.0;stroke-dasharray:7.0,7.0;"/><polygon fill="#181818" points="833.71,841.94,842.8735,838.3302,837.2168,838.376,837.171,832.7193,833.71,841.94" style="stroke:#181818;stroke-width:1.0;"/></g><!--link RegisterEmployeeController to AuthenticationRepository--><g id="link_RegisterEmployeeController_AuthenticationRepository"><path codeLine="205" d="M977.24,676.84 C927.46,704.84 852.5,747 852.5,747 C852.5,747 681.5,808 681.5,808 C681.5,808 659.2,992.12 650.2,1066.44 " fill="none" id="RegisterEmployeeController-to-AuthenticationRepository" style="stroke:#181818;stroke-width:1.0;stroke-dasharray:7.0,7.0;"/><polygon fill="#181818" points="649.61,1071.35,654.6625,1062.8959,650.2108,1066.3862,646.7204,1061.9346,649.61,1071.35" style="stroke:#181818;stroke-width:1.0;"/></g><!--link AuthenticationController to AuthenticationRepository--><g id="link_AuthenticationController_AuthenticationRepository"><path codeLine="206" d="M556.5,272.32 C556.5,326.62 556.5,453 556.5,453 C556.5,453 556.5,453 556.5,869.5 C556.5,869.5 610.13,1005.08 634.6,1066.91 " fill="none" id="AuthenticationController-to-AuthenticationRepository" style="stroke:#181818;stroke-width:1.0;stroke-dasharray:7.0,7.0;"/><polygon fill="#181818" points="636.31,1071.25,636.7179,1061.4096,634.4703,1066.6008,629.2791,1064.3532,636.31,1071.25" style="stroke:#181818;stroke-width:1.0;"/></g><!--link EmployeeRepository to Employee--><g id="link_EmployeeRepository_Employee"><path codeLine="207" d="M980.94,1123.33 C1005.02,1179.46 1064.43,1317.93 1090.68,1379.11 " fill="none" id="EmployeeRepository-to-Employee" style="stroke:#181818;stroke-width:1.0;"/><polygon fill="#181818" points="1092.52,1383.4,1092.6402,1373.5519,1090.5452,1378.8065,1085.2906,1376.7115,1092.52,1383.4" style="stroke:#181818;stroke-width:1.0;"/><text fill="#000000" font-family="sans-serif" font-size="20" lengthAdjust="spacing" textLength="33" x="1030.5" y="1232.3359">has</text><text fill="#000000" font-family="sans-serif" font-size="20" lengthAdjust="spacing" textLength="13" x="968.7526" y="1150.3193">1</text><text fill="#000000" font-family="sans-serif" font-size="20" lengthAdjust="spacing" textLength="10" x="1079.5511" y="1372.7009">*</text></g><!--link AgencyListRepository to Agency--><g id="link_AgencyListRepository_Agency"><path codeLine="208" d="M1605.5,1123.33 C1605.5,1179.24 1605.5,1316.82 1605.5,1378.37 " fill="none" id="AgencyListRepository-to-Agency" style="stroke:#181818;stroke-width:1.0;"/><polygon fill="#181818" points="1605.5,1383.27,1609.5,1374.27,1605.5,1378.27,1601.5,1374.27,1605.5,1383.27" style="stroke:#181818;stroke-width:1.0;"/><text fill="#000000" font-family="sans-serif" font-size="20" lengthAdjust="spacing" textLength="33" x="1606.5" y="1232.3359">has</text><text fill="#000000" font-family="sans-serif" font-size="20" lengthAdjust="spacing" textLength="13" x="1591.1594" y="1150.3193">1</text><text fill="#000000" font-family="sans-serif" font-size="20" lengthAdjust="spacing" textLength="10" x="1594.3438" y="1372.7009">*</text></g><!--link RoleRepository to Role--><g id="link_RoleRepository_Role"><path codeLine="209" d="M1285.5,1135.47 C1285.5,1197.12 1285.5,1320.8 1285.5,1378.3 " fill="none" id="RoleRepository-to-Role" style="stroke:#181818;stroke-width:1.0;"/><polygon fill="#181818" points="1285.5,1383.14,1289.5,1374.14,1285.5,1378.14,1281.5,1374.14,1285.5,1383.14" style="stroke:#181818;stroke-width:1.0;"/><text fill="#000000" font-family="sans-serif" font-size="20" lengthAdjust="spacing" textLength="33" x="1286.5" y="1232.3359">has</text><text fill="#000000" font-family="sans-serif" font-size="20" lengthAdjust="spacing" textLength="13" x="1271.5859" y="1161.7627">1</text><text fill="#000000" font-family="sans-serif" font-size="20" lengthAdjust="spacing" textLength="10" x="1274.4063" y="1372.9857">*</text></g><!--link Announcement to Property--><g id="link_Announcement_Property"><path codeLine="210" d="M2095.5,1553.38 C2095.5,1579 2095.5,1605.65 2095.5,1631.11 " fill="none" id="Announcement-to-Property" style="stroke:#181818;stroke-width:1.0;"/><polygon fill="#181818" points="2095.5,1636.04,2099.5,1627.04,2095.5,1631.04,2091.5,1627.04,2095.5,1636.04" style="stroke:#181818;stroke-width:1.0;"/><text fill="#000000" font-family="sans-serif" font-size="20" lengthAdjust="spacing" textLength="33" x="2096.5" y="1603.3359">has</text><text fill="#000000" font-family="sans-serif" font-size="20" lengthAdjust="spacing" textLength="13" x="2082.2055" y="1579.7568">1</text><text fill="#000000" font-family="sans-serif" font-size="20" lengthAdjust="spacing" textLength="13" x="2082.1242" y="1625.6379">1</text></g><!--link Announcement to Photo--><g id="link_Announcement_Photo"><path codeLine="211" d="M2266.86,1521.51 C2356.38,1579.24 2447.5,1638 2447.5,1638 C2447.5,1638 2476.44,1699.67 2494.45,1738.06 " fill="none" id="Announcement-to-Photo" style="stroke:#181818;stroke-width:1.0;"/><polygon fill="#181818" points="2496.38,1742.18,2496.1851,1732.3331,2494.2593,1737.652,2488.9404,1735.7262,2496.38,1742.18" style="stroke:#181818;stroke-width:1.0;"/><text fill="#000000" font-family="sans-serif" font-size="20" lengthAdjust="spacing" textLength="33" x="2396.5" y="1603.3359">has</text><text fill="#000000" font-family="sans-serif" font-size="20" lengthAdjust="spacing" textLength="13" x="2274.3635" y="1522.0864">1</text><text fill="#000000" font-family="sans-serif" font-size="20" lengthAdjust="spacing" textLength="10" x="2483.4272" y="1731.8638">*</text></g><!--link Announcement to Commission--><g id="link_Announcement_Commission"><path codeLine="212" d="M2198,1553.38 C2247.27,1621.82 2301.86,1697.65 2331.14,1738.33 " fill="none" id="Announcement-to-Commission" style="stroke:#181818;stroke-width:1.0;"/><polygon fill="#181818" points="2334.04,1742.36,2332.0158,1732.7214,2331.1136,1738.3059,2325.5291,1737.4037,2334.04,1742.36" style="stroke:#181818;stroke-width:1.0;"/><text fill="#000000" font-family="sans-serif" font-size="20" lengthAdjust="spacing" textLength="33" x="2232.5" y="1603.3359">has</text><text fill="#000000" font-family="sans-serif" font-size="20" lengthAdjust="spacing" textLength="13" x="2189.35" y="1579.7568">1</text><text fill="#000000" font-family="sans-serif" font-size="20" lengthAdjust="spacing" textLength="13" x="2316.6647" y="1731.9125">1</text></g><!--link Announcement to TransactionType--><g id="link_Announcement_TransactionType"><path codeLine="213" d="M1985.03,1553.38 C1940.83,1610.33 1892.67,1672.41 1859.56,1715.08 " fill="none" id="Announcement-to-TransactionType" style="stroke:#181818;stroke-width:1.0;"/><polygon fill="#181818" points="1856.53,1718.99,1865.2059,1714.3285,1859.5938,1715.0386,1858.8836,1709.4265,1856.53,1718.99" style="stroke:#181818;stroke-width:1.0;"/><text fill="#000000" font-family="sans-serif" font-size="20" lengthAdjust="spacing" textLength="33" x="1957.5" y="1603.3359">has</text><text fill="#000000" font-family="sans-serif" font-size="20" lengthAdjust="spacing" textLength="13" x="1966.7298" y="1579.7568">1</text><text fill="#000000" font-family="sans-serif" font-size="20" lengthAdjust="spacing" textLength="13" x="1846.7119" y="1708.4517">1</text></g><!--link Announcement to TypeOfProperty--><g id="link_Announcement_TypeOfProperty"><path codeLine="214" d="M1924,1510.57 C1818.94,1571.56 1704.5,1638 1704.5,1638 C1704.5,1638 1676.71,1670.84 1649.07,1703.51 " fill="none" id="Announcement-to-TypeOfProperty" style="stroke:#181818;stroke-width:1.0;"/><polygon fill="#181818" points="1645.97,1707.17,1654.8298,1702.8684,1649.1933,1703.3477,1648.7141,1697.7111,1645.97,1707.17" style="stroke:#181818;stroke-width:1.0;"/><text fill="#000000" font-family="sans-serif" font-size="20" lengthAdjust="spacing" textLength="33" x="1799.5" y="1603.3359">has</text><text fill="#000000" font-family="sans-serif" font-size="20" lengthAdjust="spacing" textLength="13" x="1903.4906" y="1510.6848">1</text><text fill="#000000" font-family="sans-serif" font-size="20" lengthAdjust="spacing" textLength="13" x="1637.0763" y="1696.3728">1</text></g><!--link House to SunExposure--><g id="link_House_SunExposure"><path codeLine="215" d="M2197.5,2264.28 C2197.5,2284.44 2197.5,2314.28 2197.5,2342.45 " fill="none" id="House-to-SunExposure" style="stroke:#181818;stroke-width:1.0;"/><polygon fill="#181818" points="2197.5,2347.3,2201.5,2338.3,2197.5,2342.3,2193.5,2338.3,2197.5,2347.3" style="stroke:#181818;stroke-width:1.0;"/><text fill="#000000" font-family="sans-serif" font-size="20" lengthAdjust="spacing" textLength="33" x="2198.5" y="2314.3359">has</text><text fill="#000000" font-family="sans-serif" font-size="20" lengthAdjust="spacing" textLength="13" x="2183.1594" y="2291.259">1</text><text fill="#000000" font-family="sans-serif" font-size="20" lengthAdjust="spacing" textLength="13" x="2183.8297" y="2336.5327">1</text></g><!--link Announcement to Agent--><g id="link_Announcement_Agent"><path codeLine="216" d="M1924.08,1474.69 C1743.35,1541.83 1484.5,1638 1484.5,1638 C1484.5,1638 1402.01,1701.46 1352.29,1739.7 " fill="none" id="Announcement-to-Agent" style="stroke:#181818;stroke-width:1.0;stroke-dasharray:7.0,7.0;"/><polygon fill="#181818" points="1348.49,1742.63,1358.0576,1740.2931,1352.4467,1739.5732,1353.1667,1733.9623,1348.49,1742.63" style="stroke:#181818;stroke-width:1.0;"/></g><!--link AnnouncementRepository to Announcement--><g id="link_AnnouncementRepository_Announcement"><path codeLine="217" d="M2265.75,1182.48 C2247.35,1206.96 2226.66,1234.49 2206.21,1261.7 " fill="none" id="AnnouncementRepository-to-Announcement" style="stroke:#181818;stroke-width:1.0;"/><polygon fill="#181818" points="2203.31,1265.57,2211.91,1260.77,2206.31,1261.57,2205.51,1255.97,2203.31,1265.57" style="stroke:#181818;stroke-width:1.0;"/><text fill="#000000" font-family="sans-serif" font-size="20" lengthAdjust="spacing" textLength="33" x="2240.5" y="1232.3359">has</text><text fill="#000000" font-family="sans-serif" font-size="20" lengthAdjust="spacing" textLength="13" x="2247.448" y="1209.1943">1</text><text fill="#000000" font-family="sans-serif" font-size="20" lengthAdjust="spacing" textLength="10" x="2197.9727" y="1254.6822">*</text></g><!--link Property to Address--><g id="link_Property_Address"><path codeLine="218" d="M2018.12,1900.27 C2002.3,1926.92 1985.99,1954.38 1971.27,1979.16 " fill="none" id="Property-to-Address" style="stroke:#181818;stroke-width:1.0;"/><polygon fill="#181818" points="1968.73,1983.44,1976.7542,1977.7293,1971.2751,1979.1362,1969.8681,1973.6571,1968.73,1983.44" style="stroke:#181818;stroke-width:1.0;"/><text fill="#000000" font-family="sans-serif" font-size="20" lengthAdjust="spacing" textLength="33" x="1996.5" y="1950.3359">has</text><text fill="#000000" font-family="sans-serif" font-size="20" lengthAdjust="spacing" textLength="13" x="2000.5328" y="1927.4291">1</text><text fill="#000000" font-family="sans-serif" font-size="20" lengthAdjust="spacing" textLength="13" x="1958.641" y="1972.8801">1</text></g><!--link MainMenuUI to MenuItem--><g id="link_MainMenuUI_MenuItem"><path codeLine="219" d="M1297.32,57.39 C1307.14,79.52 1321.63,112.2 1332.16,135.93 " fill="none" id="MainMenuUI-to-MenuItem" style="stroke:#181818;stroke-width:1.0;"/><polygon fill="#181818" points="1334.13,140.38,1334.1357,130.5311,1332.102,135.8098,1326.8233,133.776,1334.13,140.38" style="stroke:#181818;stroke-width:1.0;"/><text fill="#000000" font-family="sans-serif" font-size="20" lengthAdjust="spacing" textLength="33" x="1322.5" y="107.3359">has</text><text fill="#000000" font-family="sans-serif" font-size="20" lengthAdjust="spacing" textLength="13" x="1285.211" y="84.3917">1</text><text fill="#000000" font-family="sans-serif" font-size="20" lengthAdjust="spacing" textLength="10" x="1321.1078" y="129.6639">*</text></g><!--link MainMenuUI to ListAnouncementsUI--><g id="link_MainMenuUI_ListAnouncementsUI"><path codeLine="220" d="M1281.34,57.46 C1274.56,89.6 1263.5,142 1263.5,142 C1263.5,142 1263.5,192 1263.5,192 C1263.5,192 1413.73,300.92 1520.1,378.03 " fill="none" id="MainMenuUI-to-ListAnouncementsUI" style="stroke:#181818;stroke-width:1.0;stroke-dasharray:7.0,7.0;"/><polygon fill="#181818" points="1523.9,380.79,1518.9579,372.2709,1519.8508,377.8568,1514.2648,378.7496,1523.9,380.79" style="stroke:#181818;stroke-width:1.0;"/></g><!--link MainMenuUI to AuthenticationUI--><g id="link_MainMenuUI_AuthenticationUI"><path codeLine="221" d="M1210.1,46.92 C1078.2,70.95 807.7,120.23 659.38,147.26 " fill="none" id="MainMenuUI-to-AuthenticationUI" style="stroke:#181818;stroke-width:1.0;stroke-dasharray:7.0,7.0;"/><polygon fill="#181818" points="654.78,148.09,664.3533,150.4033,659.6982,147.1893,662.9122,142.5341,654.78,148.09" style="stroke:#181818;stroke-width:1.0;"/></g><!--link MainMenuUI to DevTeamUI--><g id="link_MainMenuUI_DevTeamUI"><path codeLine="222" d="M1328.87,57.39 C1368.63,80.29 1428.04,114.49 1469.53,138.38 " fill="none" id="MainMenuUI-to-DevTeamUI" style="stroke:#181818;stroke-width:1.0;stroke-dasharray:7.0,7.0;"/><polygon fill="#181818" points="1473.7,140.78,1467.907,132.815,1469.3703,138.2793,1463.9059,139.7426,1473.7,140.78" style="stroke:#181818;stroke-width:1.0;"/></g><!--link AuthenticationUI to ClientUI--><g id="link_AuthenticationUI_ClientUI"><path codeLine="223" d="M479.01,192.47 C433.76,206.76 385.5,222 385.5,222 C385.5,222 295.08,267.87 234.34,298.68 " fill="none" id="AuthenticationUI-to-ClientUI" style="stroke:#181818;stroke-width:1.0;stroke-dasharray:7.0,7.0;"/><polygon fill="#181818" points="229.91,300.93,239.7463,300.4325,234.3706,298.6711,236.132,293.2954,229.91,300.93" style="stroke:#181818;stroke-width:1.0;"/></g><!--link AuthenticationUI to EmployeeUI--><g id="link_AuthenticationUI_EmployeeUI"><path codeLine="224" d="M488.52,192.47 C448.83,206.76 406.5,222 406.5,222 C406.5,222 394.52,264.96 385.96,295.66 " fill="none" id="AuthenticationUI-to-EmployeeUI" style="stroke:#181818;stroke-width:1.0;stroke-dasharray:7.0,7.0;"/><polygon fill="#181818" points="384.71,300.16,390.981,292.5656,386.0534,295.3438,383.2752,290.4162,384.71,300.16" style="stroke:#181818;stroke-width:1.0;"/></g><!--link AuthenticationUI to AdminUI--><g id="link_AuthenticationUI_AdminUI"><path codeLine="225" d="M619.04,192.47 C655.55,206.76 694.5,222 694.5,222 C694.5,222 705.24,264.96 712.91,295.66 " fill="none" id="AuthenticationUI-to-AdminUI" style="stroke:#181818;stroke-width:1.0;stroke-dasharray:7.0,7.0;"/><polygon fill="#181818" points="714.04,300.15,715.731,290.4474,712.824,295.3001,707.9712,292.3931,714.04,300.15" style="stroke:#181818;stroke-width:1.0;"/></g><!--link User to UserSession--><g id="link_User_UserSession"><path codeLine="226" d="M646.5,1435.26 C646.5,1498.35 646.5,1667.52 646.5,1737.28 " fill="none" id="User-to-UserSession" style="stroke:#181818;stroke-width:1.0;stroke-dasharray:7.0,7.0;"/><polygon fill="#181818" points="646.5,1742.2,650.5,1733.2,646.5,1737.2,642.5,1733.2,646.5,1742.2" style="stroke:#181818;stroke-width:1.0;"/></g><!--link AuthenticationRepository to User--><g id="link_AuthenticationRepository_User"><path codeLine="227" d="M646.5,1123.33 C646.5,1179.24 646.5,1316.82 646.5,1378.37 " fill="none" id="AuthenticationRepository-to-User" style="stroke:#181818;stroke-width:1.0;"/><polygon fill="#181818" points="646.5,1383.27,650.5,1374.27,646.5,1378.27,642.5,1374.27,646.5,1383.27" style="stroke:#181818;stroke-width:1.0;"/><text fill="#000000" font-family="sans-serif" font-size="20" lengthAdjust="spacing" textLength="33" x="647.5" y="1232.3359">has</text><text fill="#000000" font-family="sans-serif" font-size="20" lengthAdjust="spacing" textLength="13" x="632.1594" y="1150.3193">1</text><text fill="#000000" font-family="sans-serif" font-size="20" lengthAdjust="spacing" textLength="10" x="635.3438" y="1372.7009">*</text></g><!--link EmployeeUI to PublishAnnouncementUI--><g id="link_EmployeeUI_PublishAnnouncementUI"><path codeLine="228" d="M376.9,352.24 C375.46,410.16 371.83,556.52 370.25,620.16 " fill="none" id="EmployeeUI-to-PublishAnnouncementUI" style="stroke:#181818;stroke-width:1.0;stroke-dasharray:7.0,7.0;"/><polygon fill="#181818" points="370.13,624.91,374.36,616.0158,370.2585,619.9117,366.3627,615.8102,370.13,624.91" style="stroke:#181818;stroke-width:1.0;"/></g><!--link ClientUI to CreateRequestUI--><g id="link_ClientUI_CreateRequestUI"><path codeLine="229" d="M174.71,352.24 C160.88,410.16 125.94,556.52 110.74,620.16 " fill="none" id="ClientUI-to-CreateRequestUI" style="stroke:#181818;stroke-width:1.0;stroke-dasharray:7.0,7.0;"/><polygon fill="#181818" points="109.6,624.95,115.5768,617.122,110.7587,620.0861,107.7946,615.268,109.6,624.95" style="stroke:#181818;stroke-width:1.0;"/></g><!--link AdminUI to RegisterEmployeeUI--><g id="link_AdminUI_RegisterEmployeeUI"><path codeLine="230" d="M720.65,352.24 C721.01,410.16 721.92,556.52 722.31,620.16 " fill="none" id="AdminUI-to-RegisterEmployeeUI" style="stroke:#181818;stroke-width:1.0;stroke-dasharray:7.0,7.0;"/><polygon fill="#181818" points="722.34,624.91,726.2627,615.876,722.2971,619.9102,718.263,615.9446,722.34,624.91" style="stroke:#181818;stroke-width:1.0;"/></g><!--link CreateRequestController to Repositories--><g id="link_CreateRequestController_Repositories"><path codeLine="231" d="M1343.77,676.75 C1347.81,706.72 1354.86,758.96 1360.56,801.2 " fill="none" id="CreateRequestController-to-Repositories" style="stroke:#181818;stroke-width:1.0;stroke-dasharray:7.0,7.0;"/><polygon fill="#181818" points="1361.22,806.12,1363.9758,796.6646,1360.5489,801.1652,1356.0482,797.7383,1361.22,806.12" style="stroke:#181818;stroke-width:1.0;"/></g><!--link PublishAnnouncementController to Repositories--><g id="link_PublishAnnouncementController_Repositories"><path codeLine="232" d="M2791.57,676.84 C2735.27,704.84 2650.5,747 2650.5,747 C2650.5,747 1881.53,819.33 1535.16,851.92 " fill="none" id="PublishAnnouncementController-to-Repositories" style="stroke:#181818;stroke-width:1.0;stroke-dasharray:7.0,7.0;"/><polygon fill="#181818" points="1530.33,852.37,1539.6674,855.5025,1535.3077,851.898,1538.9122,847.5382,1530.33,852.37" style="stroke:#181818;stroke-width:1.0;"/></g><!--link RegisterEmployeeController to Repositories--><g id="link_RegisterEmployeeController_Repositories"><path codeLine="233" d="M1060.19,676.95 C1110.08,707.69 1197.55,761.57 1266.77,804.21 " fill="none" id="RegisterEmployeeController-to-Repositories" style="stroke:#181818;stroke-width:1.0;stroke-dasharray:7.0,7.0;"/><polygon fill="#181818" points="1270.85,806.73,1265.2739,798.6117,1266.5893,804.1135,1261.0875,805.4289,1270.85,806.73" style="stroke:#181818;stroke-width:1.0;"/></g><!--SRC=[rLXBR-Cs4BxpLn1xsMmt2ROz1ei0hkCq1lA2xQ2NNXXfOXEHI9UakkiD-jyx52c9b2a9M6nHD8T8clc6y-1mFYRwbOizKwmiPFOAEStXXLM5kPR2hFateBzy8kzrWw6b53BRALa2DQe2qcdsB7jbMrYRGm5KGMQOs1OXGEzOBhzmiQKlhD2Xfk02p64FT2-BW_q8FRPAgOmaWLLMCArdnYZ-N1bOPbBKyNuYv7q1BuOQIHNVxWpDkGs7Ir9Rq4Sbzw3CuOtG-kUCvh9wng2P0jQNvLnZ8XbSOyfp40PK7x5NF8DMECjp1UY4kQUNVwHRC5vryY4IeizOSdNaCTO_Md-1oCWrba1iKVGtyIdEX90Lhb6YFQtpFACRhE73IvCyDT6dXoWcDBEb4XQDEnnzEz0LCvWqfixrphuxwLoMN6i4qgnvSugPKknmYpbzVjn98o_ftZwqKpvBMG0JbEj7jo3aJi4nRXwzpp4XNtrV1XUvgyHq6LQmbveRgGwk8FIZhNvHX1YznXw3_DV35RnKh31pnT4bRpPepC8-MxYBXEf0TagzKAeSLBVUDIzG3tcqwCdeNfrExTDfNJ9HbS-W7bvMKfOwvJ1tiVzGpt-8OzzjwcFrQFUitISEkjcfK1RinLAuan9kJtB7mvwmhHYbFCT1fsHHWFBkkeKIwz3lQvqVtZiZpVFlzCx_eddSvdOHFIsR5ifsaBqknRuorjL9FxIZAlI22Bsdk-s_oxw9fclaQ0Owrd5bE6lNCmh0nBACEnxe99Rya6rCtzPFVJ-Rl_7zNERGkPmZfnbOmPyLw22gjmxXftrOloHk1LiC0TIYt1Vo0904pIgpmmLuncmjav0d3MeDDIk5XbiGsQ4dC1I-6X2vfetJCExswe0YzepLmGsaJQoQvtR1Te48xJtWrSMKePVMB43To4h3AEAMYNpC3zAnP-50c4e8Vtt1FleD12Y6CoxKMQ9EPMghMSi1cxLtht1zDdkShJPtY_jD_NNpyBHUr6-ti_khpZ0-0CvorHYjPxUB5hgknE8hJk5AUTZzmsfput0FJ_vjCLixqzyN-DBRPJiPka4-s3r9I5Etf7A5DvXGOK-YbUcDTEVWvCD5FPS-M-ab6VByj0o3oaiUI-O5HsmaQiAAX7UCYpkiMIn4mT90-JPmHYFm5Vor0LP6iiHvZVJzS-gLX4HiVdOPi_i5ZW_7u9gCqVBvUMn84cCU8IDBa7wjBNveRf1URInsOAIHP66imUY48yVredMEGzCkhkExdz_HCoocVGvSSI_eZkaHgyIPcBGPE2XJTiUdPyeYFb8UFTKWwKAGWOtxRfD4uKODZhCdewqn5jXmVmovch282ps5FkAAAOEXZY539s_SAj58RTVyrFMPxvTaYuTu1sXwCMwv46TLpPhXdzLXnxQNlZ4ShbLJwjHY7NTF8VjNoYbuV45rQ7VN2641sQPMR8w18GEp9ofoQEaMQ_r7myN_syH1EXAB5cjex1Xrtex_a1JwY3u9zFKjyoNemdA0f-2qjXlbQRsdT68lJxKWk9EImTaQfbzRkjH3taYJ3NfgudN1nvn6V3YUM_jiD3hI8YgU7cOHV6eWXLX2_W40]--></g></svg>