<?xml version="1.0" encoding="UTF-8" standalone="no"?><svg xmlns="http://www.w3.org/2000/svg" xmlns:xlink="http://www.w3.org/1999/xlink" contentStyleType="text/css" height="1951px" preserveAspectRatio="none" style="width:4328px;height:1951px;background:#FFFFFF;" version="1.1" viewBox="0 0 4328 1951" width="4328px" zoomAndPan="magnify"><defs/><g><!--class Property--><g id="elem_Property"><rect codeLine="91" fill="#F1F1F1" height="261.9922" id="Property" rx="2.5" ry="2.5" style="stroke:#181818;stroke-width:0.5;" width="290" x="1332.5" y="1089"/><ellipse cx="1433" cy="1106" fill="#ADD1B2" rx="12" ry="12" style="stroke:#181818;stroke-width:1.0;"/><path d="M1435.8066,1113.0801 Q1435.123,1113.4316 1434.3711,1113.6074 Q1433.6191,1113.7832 1432.7891,1113.7832 Q1429.8398,1113.7832 1428.2871,1111.8398 Q1426.7344,1109.8965 1426.7344,1106.2246 Q1426.7344,1102.543 1428.2871,1100.5996 Q1429.8398,1098.6563 1432.7891,1098.6563 Q1433.6191,1098.6563 1434.3809,1098.832 Q1435.1426,1099.0078 1435.8066,1099.3594 L1435.8066,1102.5625 Q1435.0645,1101.8789 1434.3662,1101.5615 Q1433.668,1101.2441 1432.9258,1101.2441 Q1431.3438,1101.2441 1430.5381,1102.499 Q1429.7324,1103.7539 1429.7324,1106.2246 Q1429.7324,1108.6855 1430.5381,1109.9404 Q1431.3438,1111.1953 1432.9258,1111.1953 Q1433.668,1111.1953 1434.3662,1110.8779 Q1435.0645,1110.5605 1435.8066,1109.877 Z " fill="#000000"/><text fill="#000000" font-family="sans-serif" font-size="20" lengthAdjust="spacing" textLength="80" x="1455" y="1113.5586">Property</text><line style="stroke:#181818;stroke-width:0.5;" x1="1333.5" x2="1621.5" y1="1123" y2="1123"/><text fill="#000000" font-family="sans-serif" font-size="20" lengthAdjust="spacing" textLength="126" x="1338.5" y="1146.3359">-double area</text><text fill="#000000" font-family="sans-serif" font-size="20" lengthAdjust="spacing" textLength="278" x="1338.5" y="1169.8906">-double distanceFromCenter</text><text fill="#000000" font-family="sans-serif" font-size="20" lengthAdjust="spacing" textLength="133" x="1338.5" y="1193.4453">-double price</text><text fill="#000000" font-family="sans-serif" font-size="20" lengthAdjust="spacing" textLength="173" x="1338.5" y="1217">-Address address</text><line style="stroke:#181818;stroke-width:0.5;" x1="1333.5" x2="1621.5" y1="1225.2188" y2="1225.2188"/><text fill="#000000" font-family="sans-serif" font-size="20" lengthAdjust="spacing" textLength="139" x="1338.5" y="1248.5547">+getAddress()</text><text fill="#000000" font-family="sans-serif" font-size="20" lengthAdjust="spacing" textLength="104" x="1338.5" y="1272.1094">+getArea()</text><text fill="#000000" font-family="sans-serif" font-size="20" lengthAdjust="spacing" textLength="255" x="1338.5" y="1295.6641">+getDistanceFromCenter()</text><text fill="#000000" font-family="sans-serif" font-size="20" lengthAdjust="spacing" textLength="106" x="1338.5" y="1319.2188">+getPrice()</text><text fill="#000000" font-family="sans-serif" font-size="20" lengthAdjust="spacing" textLength="105" x="1338.5" y="1342.7734">+toString()</text></g><!--class Announcement--><g id="elem_Announcement"><rect codeLine="22" fill="#F1F1F1" height="285.5469" id="Announcement" rx="2.5" ry="2.5" style="stroke:#181818;stroke-width:0.5;" width="342" x="1306.5" y="718"/><ellipse cx="1401" cy="735" fill="#ADD1B2" rx="12" ry="12" style="stroke:#181818;stroke-width:1.0;"/><path d="M1403.8066,742.0801 Q1403.123,742.4316 1402.3711,742.6074 Q1401.6191,742.7832 1400.7891,742.7832 Q1397.8398,742.7832 1396.2871,740.8398 Q1394.7344,738.8965 1394.7344,735.2246 Q1394.7344,731.543 1396.2871,729.5996 Q1397.8398,727.6563 1400.7891,727.6563 Q1401.6191,727.6563 1402.3809,727.832 Q1403.1426,728.0078 1403.8066,728.3594 L1403.8066,731.5625 Q1403.0645,730.8789 1402.3662,730.5615 Q1401.668,730.2441 1400.9258,730.2441 Q1399.3438,730.2441 1398.5381,731.499 Q1397.7324,732.7539 1397.7324,735.2246 Q1397.7324,737.6855 1398.5381,738.9404 Q1399.3438,740.1953 1400.9258,740.1953 Q1401.668,740.1953 1402.3662,739.8779 Q1403.0645,739.5605 1403.8066,738.877 Z " fill="#000000"/><text fill="#000000" font-family="sans-serif" font-size="20" lengthAdjust="spacing" textLength="144" x="1423" y="742.5586">Announcement</text><line style="stroke:#181818;stroke-width:0.5;" x1="1307.5" x2="1647.5" y1="752" y2="752"/><text fill="#000000" font-family="sans-serif" font-size="20" lengthAdjust="spacing" textLength="312" x="1312.5" y="775.3359">-TypeOfProperty typeOfProperty</text><text fill="#000000" font-family="sans-serif" font-size="20" lengthAdjust="spacing" textLength="330" x="1312.5" y="798.8906">-TransactionType transactionType</text><text fill="#000000" font-family="sans-serif" font-size="20" lengthAdjust="spacing" textLength="178" x="1312.5" y="822.4453">-Date publishDate</text><text fill="#000000" font-family="sans-serif" font-size="20" lengthAdjust="spacing" textLength="216" x="1312.5" y="846">-Comission comission</text><text fill="#000000" font-family="sans-serif" font-size="20" lengthAdjust="spacing" textLength="255" x="1312.5" y="869.5547">-ArrayList&lt;Photo&gt; photos</text><text fill="#000000" font-family="sans-serif" font-size="20" lengthAdjust="spacing" textLength="205" x="1312.5" y="893.1094">-boolean isPublished</text><text fill="#000000" font-family="sans-serif" font-size="20" lengthAdjust="spacing" textLength="62" x="1312.5" y="916.6641">-int id</text><text fill="#000000" font-family="sans-serif" font-size="20" lengthAdjust="spacing" textLength="138" x="1312.5" y="940.2188">-int idCounter</text><line style="stroke:#181818;stroke-width:0.5;" x1="1307.5" x2="1647.5" y1="948.4375" y2="948.4375"/><text fill="#000000" font-family="sans-serif" font-size="20" lengthAdjust="spacing" textLength="140" x="1312.5" y="971.7734">+getProperty()</text><text fill="#000000" font-family="sans-serif" font-size="20" lengthAdjust="spacing" textLength="105" x="1312.5" y="995.3281">+toString()</text></g><!--class AnnouncementRepository--><g id="elem_AnnouncementRepository"><rect codeLine="35" fill="#F1F1F1" height="167.7734" id="AnnouncementRepository" rx="2.5" ry="2.5" style="stroke:#181818;stroke-width:0.5;" width="1136" x="674.5" y="465"/><ellipse cx="1115" cy="482" fill="#ADD1B2" rx="12" ry="12" style="stroke:#181818;stroke-width:1.0;"/><path d="M1117.8066,489.0801 Q1117.123,489.4316 1116.3711,489.6074 Q1115.6191,489.7832 1114.7891,489.7832 Q1111.8398,489.7832 1110.2871,487.8398 Q1108.7344,485.8965 1108.7344,482.2246 Q1108.7344,478.543 1110.2871,476.5996 Q1111.8398,474.6563 1114.7891,474.6563 Q1115.6191,474.6563 1116.3809,474.832 Q1117.1426,475.0078 1117.8066,475.3594 L1117.8066,478.5625 Q1117.0645,477.8789 1116.3662,477.5615 Q1115.668,477.2441 1114.9258,477.2441 Q1113.3438,477.2441 1112.5381,478.499 Q1111.7324,479.7539 1111.7324,482.2246 Q1111.7324,484.6855 1112.5381,485.9404 Q1113.3438,487.1953 1114.9258,487.1953 Q1115.668,487.1953 1116.3662,486.8779 Q1117.0645,486.5605 1117.8066,485.877 Z " fill="#000000"/><text fill="#000000" font-family="sans-serif" font-size="20" lengthAdjust="spacing" textLength="246" x="1137" y="489.5586">AnnouncementRepository</text><line style="stroke:#181818;stroke-width:0.5;" x1="675.5" x2="1809.5" y1="499" y2="499"/><line style="stroke:#181818;stroke-width:0.5;" x1="675.5" x2="1809.5" y1="507" y2="507"/><text fill="#000000" font-family="sans-serif" font-size="20" lengthAdjust="spacing" textLength="464" x="680.5" y="530.3359">+getAllAnnouncementsSortedByDefualtCriteria()</text><text fill="#000000" font-family="sans-serif" font-size="20" lengthAdjust="spacing" textLength="729" x="680.5" y="553.8906">+getAllAnnouncementsSortedBySortCriteria(String sortCriteria, String order)</text><text fill="#000000" font-family="sans-serif" font-size="20" lengthAdjust="spacing" textLength="1124" x="680.5" y="577.4453">+getFilteredAnnouncements(TypeOfProperty typeOfProperty, TransactionType transactionType, int numberOfRooms)</text><text fill="#000000" font-family="sans-serif" font-size="20" lengthAdjust="spacing" textLength="1017" x="680.5" y="601">+getFilteredAndSortedAnnouncements(TypeOfProperty typeOfProperty, TransactionType transactionType,</text><text fill="#000000" font-family="sans-serif" font-size="20" lengthAdjust="spacing" textLength="510" x="686.5" y="624.5547">int numberOfRooms, String sortCriteria, String order)</text></g><!--class Repositories--><g id="elem_Repositories"><rect codeLine="42" fill="#F1F1F1" height="120.6641" id="Repositories" rx="2.5" ry="2.5" style="stroke:#181818;stroke-width:0.5;" width="318" x="2075.5" y="259"/><ellipse cx="2170.5" cy="276" fill="#ADD1B2" rx="12" ry="12" style="stroke:#181818;stroke-width:1.0;"/><path d="M2173.3066,283.0801 Q2172.623,283.4316 2171.8711,283.6074 Q2171.1191,283.7832 2170.2891,283.7832 Q2167.3398,283.7832 2165.7871,281.8398 Q2164.2344,279.8965 2164.2344,276.2246 Q2164.2344,272.543 2165.7871,270.5996 Q2167.3398,268.6563 2170.2891,268.6563 Q2171.1191,268.6563 2171.8809,268.832 Q2172.6426,269.0078 2173.3066,269.3594 L2173.3066,272.5625 Q2172.5645,271.8789 2171.8662,271.5615 Q2171.168,271.2441 2170.4258,271.2441 Q2168.8438,271.2441 2168.0381,272.499 Q2167.2324,273.7539 2167.2324,276.2246 Q2167.2324,278.6855 2168.0381,279.9404 Q2168.8438,281.1953 2170.4258,281.1953 Q2171.168,281.1953 2171.8662,280.8779 Q2172.5645,280.5605 2173.3066,279.877 Z " fill="#000000"/><text fill="#000000" font-family="sans-serif" font-size="20" lengthAdjust="spacing" textLength="119" x="2192.5" y="283.5586">Repositories</text><line style="stroke:#181818;stroke-width:0.5;" x1="2076.5" x2="2392.5" y1="293" y2="293"/><line style="stroke:#181818;stroke-width:0.5;" x1="2076.5" x2="2392.5" y1="301" y2="301"/><text fill="#000000" font-family="sans-serif" font-size="20" lengthAdjust="spacing" textLength="149" x="2081.5" y="324.3359">+Repositories()</text><text fill="#000000" font-family="sans-serif" font-size="20" lengthAdjust="spacing" textLength="139" x="2081.5" y="347.8906">+getInstance()</text><text fill="#000000" font-family="sans-serif" font-size="20" lengthAdjust="spacing" textLength="306" x="2081.5" y="371.4453">+getAnnouncementRepository()</text></g><!--class ListAnnouncementsController--><g id="elem_ListAnnouncementsController"><rect codeLine="48" fill="#F1F1F1" height="191.3281" id="ListAnnouncementsController" rx="2.5" ry="2.5" style="stroke:#181818;stroke-width:0.5;" width="1123" x="897" y="7"/><ellipse cx="1312" cy="24" fill="#ADD1B2" rx="12" ry="12" style="stroke:#181818;stroke-width:1.0;"/><path d="M1314.8066,31.0801 Q1314.123,31.4316 1313.3711,31.6074 Q1312.6191,31.7832 1311.7891,31.7832 Q1308.8398,31.7832 1307.2871,29.8398 Q1305.7344,27.8965 1305.7344,24.2246 Q1305.7344,20.543 1307.2871,18.5996 Q1308.8398,16.6563 1311.7891,16.6563 Q1312.6191,16.6563 1313.3809,16.832 Q1314.1426,17.0078 1314.8066,17.3594 L1314.8066,20.5625 Q1314.0645,19.8789 1313.3662,19.5615 Q1312.668,19.2441 1311.9258,19.2441 Q1310.3438,19.2441 1309.5381,20.499 Q1308.7324,21.7539 1308.7324,24.2246 Q1308.7324,26.6855 1309.5381,27.9404 Q1310.3438,29.1953 1311.9258,29.1953 Q1312.668,29.1953 1313.3662,28.8779 Q1314.0645,28.5605 1314.8066,27.877 Z " fill="#000000"/><text fill="#000000" font-family="sans-serif" font-size="20" lengthAdjust="spacing" textLength="284" x="1334" y="31.5586">ListAnnouncementsController</text><line style="stroke:#181818;stroke-width:0.5;" x1="898" x2="2019" y1="41" y2="41"/><line style="stroke:#181818;stroke-width:0.5;" x1="898" x2="2019" y1="49" y2="49"/><text fill="#000000" font-family="sans-serif" font-size="20" lengthAdjust="spacing" textLength="294" x="903" y="72.3359">+getAnnoucementRepository()</text><text fill="#000000" font-family="sans-serif" font-size="20" lengthAdjust="spacing" textLength="464" x="903" y="95.8906">+getAllAnnouncementsSortedByDefualtCriteria()</text><text fill="#000000" font-family="sans-serif" font-size="20" lengthAdjust="spacing" textLength="729" x="903" y="119.4453">+getAllAnnouncementsSortedBySortCriteria(String sortCriteria, String order)</text><text fill="#000000" font-family="sans-serif" font-size="20" lengthAdjust="spacing" textLength="1111" x="903" y="143">+getFilteredAnnouncements(ypeOfProperty typeOfProperty, TransactionType transactionType, int numberOfRooms)</text><text fill="#000000" font-family="sans-serif" font-size="20" lengthAdjust="spacing" textLength="1017" x="903" y="166.5547">+getFilteredAndSortedAnnouncements(TypeOfProperty typeOfProperty, TransactionType transactionType,</text><text fill="#000000" font-family="sans-serif" font-size="20" lengthAdjust="spacing" textLength="510" x="909" y="190.1094">int numberOfRooms, String sortCriteria, String order)</text></g><!--class ListAnouncementsUI--><g id="elem_ListAnouncementsUI"><rect codeLine="56" fill="#F1F1F1" height="144.2188" id="ListAnouncementsUI" rx="2.5" ry="2.5" style="stroke:#181818;stroke-width:0.5;" width="855" x="7" y="30.5"/><ellipse cx="332" cy="47.5" fill="#ADD1B2" rx="12" ry="12" style="stroke:#181818;stroke-width:1.0;"/><path d="M334.8066,54.5801 Q334.123,54.9316 333.3711,55.1074 Q332.6191,55.2832 331.7891,55.2832 Q328.8398,55.2832 327.2871,53.3398 Q325.7344,51.3965 325.7344,47.7246 Q325.7344,44.043 327.2871,42.0996 Q328.8398,40.1563 331.7891,40.1563 Q332.6191,40.1563 333.3809,40.332 Q334.1426,40.5078 334.8066,40.8594 L334.8066,44.0625 Q334.0645,43.3789 333.3662,43.0615 Q332.668,42.7441 331.9258,42.7441 Q330.3438,42.7441 329.5381,43.999 Q328.7324,45.2539 328.7324,47.7246 Q328.7324,50.1855 329.5381,51.4404 Q330.3438,52.6953 331.9258,52.6953 Q332.668,52.6953 333.3662,52.3779 Q334.0645,52.0605 334.8066,51.377 Z " fill="#000000"/><text fill="#000000" font-family="sans-serif" font-size="20" lengthAdjust="spacing" textLength="196" x="354" y="55.0586">ListAnouncementsUI</text><line style="stroke:#181818;stroke-width:0.5;" x1="8" x2="861" y1="64.5" y2="64.5"/><line style="stroke:#181818;stroke-width:0.5;" x1="8" x2="861" y1="72.5" y2="72.5"/><text fill="#000000" font-family="sans-serif" font-size="20" lengthAdjust="spacing" textLength="787" x="13" y="95.8359">+checkInputType(typeOfProperty, transactionType, numberOfRooms, sortCriteria)</text><text fill="#000000" font-family="sans-serif" font-size="20" lengthAdjust="spacing" textLength="843" x="13" y="119.3906">+getAnnouncements(TypeOfProperty typeOfProperty, TransactionType transactionType,</text><text fill="#000000" font-family="sans-serif" font-size="20" lengthAdjust="spacing" textLength="510" x="19" y="142.9453">int numberOfRooms, String sortCriteria, String order)</text><text fill="#000000" font-family="sans-serif" font-size="20" lengthAdjust="spacing" textLength="156" x="13" y="166.5">+getController()</text></g><!--class Address--><g id="elem_Address"><rect codeLine="62" fill="#F1F1F1" height="167.7734" id="Address" rx="2.5" ry="2.5" style="stroke:#181818;stroke-width:0.5;" width="153" x="1224" y="1436"/><ellipse cx="1258" cy="1453" fill="#ADD1B2" rx="12" ry="12" style="stroke:#181818;stroke-width:1.0;"/><path d="M1260.8066,1460.0801 Q1260.123,1460.4316 1259.3711,1460.6074 Q1258.6191,1460.7832 1257.7891,1460.7832 Q1254.8398,1460.7832 1253.2871,1458.8398 Q1251.7344,1456.8965 1251.7344,1453.2246 Q1251.7344,1449.543 1253.2871,1447.5996 Q1254.8398,1445.6563 1257.7891,1445.6563 Q1258.6191,1445.6563 1259.3809,1445.832 Q1260.1426,1446.0078 1260.8066,1446.3594 L1260.8066,1449.5625 Q1260.0645,1448.8789 1259.3662,1448.5615 Q1258.668,1448.2441 1257.9258,1448.2441 Q1256.3438,1448.2441 1255.5381,1449.499 Q1254.7324,1450.7539 1254.7324,1453.2246 Q1254.7324,1455.6855 1255.5381,1456.9404 Q1256.3438,1458.1953 1257.9258,1458.1953 Q1258.668,1458.1953 1259.3662,1457.8779 Q1260.0645,1457.5605 1260.8066,1456.877 Z " fill="#000000"/><text fill="#000000" font-family="sans-serif" font-size="20" lengthAdjust="spacing" textLength="79" x="1277" y="1460.5586">Address</text><line style="stroke:#181818;stroke-width:0.5;" x1="1225" x2="1376" y1="1470" y2="1470"/><text fill="#000000" font-family="sans-serif" font-size="20" lengthAdjust="spacing" textLength="128" x="1230" y="1493.3359">-String street</text><text fill="#000000" font-family="sans-serif" font-size="20" lengthAdjust="spacing" textLength="107" x="1230" y="1516.8906">-String city</text><text fill="#000000" font-family="sans-serif" font-size="20" lengthAdjust="spacing" textLength="141" x="1230" y="1540.4453">-String district</text><text fill="#000000" font-family="sans-serif" font-size="20" lengthAdjust="spacing" textLength="120" x="1230" y="1564">-String state</text><text fill="#000000" font-family="sans-serif" font-size="20" lengthAdjust="spacing" textLength="123" x="1230" y="1587.5547">-int zipCode</text><line style="stroke:#181818;stroke-width:0.5;" x1="1225" x2="1376" y1="1595.7734" y2="1595.7734"/></g><!--class CreateRequestController--><g id="elem_CreateRequestController"><rect codeLine="70" fill="#F1F1F1" height="50" id="CreateRequestController" rx="2.5" ry="2.5" style="stroke:#181818;stroke-width:0.5;" width="269" x="1771" y="294.5"/><ellipse cx="1787" cy="311.5" fill="#ADD1B2" rx="12" ry="12" style="stroke:#181818;stroke-width:1.0;"/><path d="M1789.8066,318.5801 Q1789.123,318.9316 1788.3711,319.1074 Q1787.6191,319.2832 1786.7891,319.2832 Q1783.8398,319.2832 1782.2871,317.3398 Q1780.7344,315.3965 1780.7344,311.7246 Q1780.7344,308.043 1782.2871,306.0996 Q1783.8398,304.1563 1786.7891,304.1563 Q1787.6191,304.1563 1788.3809,304.332 Q1789.1426,304.5078 1789.8066,304.8594 L1789.8066,308.0625 Q1789.0645,307.3789 1788.3662,307.0615 Q1787.668,306.7441 1786.9258,306.7441 Q1785.3438,306.7441 1784.5381,307.999 Q1783.7324,309.2539 1783.7324,311.7246 Q1783.7324,314.1855 1784.5381,315.4404 Q1785.3438,316.6953 1786.9258,316.6953 Q1787.668,316.6953 1788.3662,316.3779 Q1789.0645,316.0605 1789.8066,315.377 Z " fill="#000000"/><text fill="#000000" font-family="sans-serif" font-size="20" lengthAdjust="spacing" textLength="235" x="1802" y="319.0586">CreateRequestController</text><line style="stroke:#181818;stroke-width:0.5;" x1="1772" x2="2039" y1="328.5" y2="328.5"/><line style="stroke:#181818;stroke-width:0.5;" x1="1772" x2="2039" y1="336.5" y2="336.5"/></g><!--class PublishAnnouncementController--><g id="elem_PublishAnnouncementController"><rect codeLine="73" fill="#F1F1F1" height="50" id="PublishAnnouncementController" rx="2.5" ry="2.5" style="stroke:#181818;stroke-width:0.5;" width="344" x="789.5" y="294.5"/><ellipse cx="805.5" cy="311.5" fill="#ADD1B2" rx="12" ry="12" style="stroke:#181818;stroke-width:1.0;"/><path d="M808.3066,318.5801 Q807.623,318.9316 806.8711,319.1074 Q806.1191,319.2832 805.2891,319.2832 Q802.3398,319.2832 800.7871,317.3398 Q799.2344,315.3965 799.2344,311.7246 Q799.2344,308.043 800.7871,306.0996 Q802.3398,304.1563 805.2891,304.1563 Q806.1191,304.1563 806.8809,304.332 Q807.6426,304.5078 808.3066,304.8594 L808.3066,308.0625 Q807.5645,307.3789 806.8662,307.0615 Q806.168,306.7441 805.4258,306.7441 Q803.8438,306.7441 803.0381,307.999 Q802.2324,309.2539 802.2324,311.7246 Q802.2324,314.1855 803.0381,315.4404 Q803.8438,316.6953 805.4258,316.6953 Q806.168,316.6953 806.8662,316.3779 Q807.5645,316.0605 808.3066,315.377 Z " fill="#000000"/><text fill="#000000" font-family="sans-serif" font-size="20" lengthAdjust="spacing" textLength="310" x="820.5" y="319.0586">PublishAnnouncementController</text><line style="stroke:#181818;stroke-width:0.5;" x1="790.5" x2="1132.5" y1="328.5" y2="328.5"/><line style="stroke:#181818;stroke-width:0.5;" x1="790.5" x2="1132.5" y1="336.5" y2="336.5"/></g><!--class RegisterEmployeeController--><g id="elem_RegisterEmployeeController"><rect codeLine="76" fill="#F1F1F1" height="50" id="RegisterEmployeeController" rx="2.5" ry="2.5" style="stroke:#181818;stroke-width:0.5;" width="301" x="3340" y="294.5"/><ellipse cx="3356" cy="311.5" fill="#ADD1B2" rx="12" ry="12" style="stroke:#181818;stroke-width:1.0;"/><path d="M3358.8066,318.5801 Q3358.123,318.9316 3357.3711,319.1074 Q3356.6191,319.2832 3355.7891,319.2832 Q3352.8398,319.2832 3351.2871,317.3398 Q3349.7344,315.3965 3349.7344,311.7246 Q3349.7344,308.043 3351.2871,306.0996 Q3352.8398,304.1563 3355.7891,304.1563 Q3356.6191,304.1563 3357.3809,304.332 Q3358.1426,304.5078 3358.8066,304.8594 L3358.8066,308.0625 Q3358.0645,307.3789 3357.3662,307.0615 Q3356.668,306.7441 3355.9258,306.7441 Q3354.3438,306.7441 3353.5381,307.999 Q3352.7324,309.2539 3352.7324,311.7246 Q3352.7324,314.1855 3353.5381,315.4404 Q3354.3438,316.6953 3355.9258,316.6953 Q3356.668,316.6953 3357.3662,316.3779 Q3358.0645,316.0605 3358.8066,315.377 Z " fill="#000000"/><text fill="#000000" font-family="sans-serif" font-size="20" lengthAdjust="spacing" textLength="267" x="3371" y="319.0586">RegisterEmployeeController</text><line style="stroke:#181818;stroke-width:0.5;" x1="3341" x2="3640" y1="328.5" y2="328.5"/><line style="stroke:#181818;stroke-width:0.5;" x1="3341" x2="3640" y1="336.5" y2="336.5"/></g><!--class AuthenticationController--><g id="elem_AuthenticationController"><rect codeLine="79" fill="#F1F1F1" height="50" id="AuthenticationController" rx="2.5" ry="2.5" style="stroke:#181818;stroke-width:0.5;" width="269" x="2776" y="294.5"/><ellipse cx="2792" cy="311.5" fill="#ADD1B2" rx="12" ry="12" style="stroke:#181818;stroke-width:1.0;"/><path d="M2794.8066,318.5801 Q2794.123,318.9316 2793.3711,319.1074 Q2792.6191,319.2832 2791.7891,319.2832 Q2788.8398,319.2832 2787.2871,317.3398 Q2785.7344,315.3965 2785.7344,311.7246 Q2785.7344,308.043 2787.2871,306.0996 Q2788.8398,304.1563 2791.7891,304.1563 Q2792.6191,304.1563 2793.3809,304.332 Q2794.1426,304.5078 2794.8066,304.8594 L2794.8066,308.0625 Q2794.0645,307.3789 2793.3662,307.0615 Q2792.668,306.7441 2791.9258,306.7441 Q2790.3438,306.7441 2789.5381,307.999 Q2788.7324,309.2539 2788.7324,311.7246 Q2788.7324,314.1855 2789.5381,315.4404 Q2790.3438,316.6953 2791.9258,316.6953 Q2792.668,316.6953 2793.3662,316.3779 Q2794.0645,316.0605 2794.8066,315.377 Z " fill="#000000"/><text fill="#000000" font-family="sans-serif" font-size="20" lengthAdjust="spacing" textLength="235" x="2807" y="319.0586">AuthenticationController</text><line style="stroke:#181818;stroke-width:0.5;" x1="2777" x2="3044" y1="328.5" y2="328.5"/><line style="stroke:#181818;stroke-width:0.5;" x1="2777" x2="3044" y1="336.5" y2="336.5"/></g><!--class UserSession--><g id="elem_UserSession"><rect codeLine="82" fill="#F1F1F1" height="50" id="UserSession" rx="2.5" ry="2.5" style="stroke:#181818;stroke-width:0.5;" width="149" x="3657" y="77.5"/><ellipse cx="3673" cy="94.5" fill="#ADD1B2" rx="12" ry="12" style="stroke:#181818;stroke-width:1.0;"/><path d="M3675.8066,101.5801 Q3675.123,101.9316 3674.3711,102.1074 Q3673.6191,102.2832 3672.7891,102.2832 Q3669.8398,102.2832 3668.2871,100.3398 Q3666.7344,98.3965 3666.7344,94.7246 Q3666.7344,91.043 3668.2871,89.0996 Q3669.8398,87.1563 3672.7891,87.1563 Q3673.6191,87.1563 3674.3809,87.332 Q3675.1426,87.5078 3675.8066,87.8594 L3675.8066,91.0625 Q3675.0645,90.3789 3674.3662,90.0615 Q3673.668,89.7441 3672.9258,89.7441 Q3671.3438,89.7441 3670.5381,90.999 Q3669.7324,92.2539 3669.7324,94.7246 Q3669.7324,97.1855 3670.5381,98.4404 Q3671.3438,99.6953 3672.9258,99.6953 Q3673.668,99.6953 3674.3662,99.3779 Q3675.0645,99.0605 3675.8066,98.377 Z " fill="#000000"/><text fill="#000000" font-family="sans-serif" font-size="20" lengthAdjust="spacing" textLength="115" x="3688" y="102.0586">UserSession</text><line style="stroke:#181818;stroke-width:0.5;" x1="3658" x2="3805" y1="111.5" y2="111.5"/><line style="stroke:#181818;stroke-width:0.5;" x1="3658" x2="3805" y1="119.5" y2="119.5"/></g><!--class Agency--><g id="elem_Agency"><rect codeLine="85" fill="#F1F1F1" height="50" id="Agency" rx="2.5" ry="2.5" style="stroke:#181818;stroke-width:0.5;" width="103" x="1914" y="836"/><ellipse cx="1930" cy="853" fill="#ADD1B2" rx="12" ry="12" style="stroke:#181818;stroke-width:1.0;"/><path d="M1932.8066,860.0801 Q1932.123,860.4316 1931.3711,860.6074 Q1930.6191,860.7832 1929.7891,860.7832 Q1926.8398,860.7832 1925.2871,858.8398 Q1923.7344,856.8965 1923.7344,853.2246 Q1923.7344,849.543 1925.2871,847.5996 Q1926.8398,845.6563 1929.7891,845.6563 Q1930.6191,845.6563 1931.3809,845.832 Q1932.1426,846.0078 1932.8066,846.3594 L1932.8066,849.5625 Q1932.0645,848.8789 1931.3662,848.5615 Q1930.668,848.2441 1929.9258,848.2441 Q1928.3438,848.2441 1927.5381,849.499 Q1926.7324,850.7539 1926.7324,853.2246 Q1926.7324,855.6855 1927.5381,856.9404 Q1928.3438,858.1953 1929.9258,858.1953 Q1930.668,858.1953 1931.3662,857.8779 Q1932.0645,857.5605 1932.8066,856.877 Z " fill="#000000"/><text fill="#000000" font-family="sans-serif" font-size="20" lengthAdjust="spacing" textLength="69" x="1945" y="860.5586">Agency</text><line style="stroke:#181818;stroke-width:0.5;" x1="1915" x2="2016" y1="870" y2="870"/><line style="stroke:#181818;stroke-width:0.5;" x1="1915" x2="2016" y1="878" y2="878"/></g><!--class Agent--><g id="elem_Agent"><rect codeLine="88" fill="#F1F1F1" height="50" id="Agent" rx="2.5" ry="2.5" style="stroke:#181818;stroke-width:0.5;" width="90" x="2083.5" y="1195"/><ellipse cx="2099.5" cy="1212" fill="#ADD1B2" rx="12" ry="12" style="stroke:#181818;stroke-width:1.0;"/><path d="M2102.3066,1219.0801 Q2101.623,1219.4316 2100.8711,1219.6074 Q2100.1191,1219.7832 2099.2891,1219.7832 Q2096.3398,1219.7832 2094.7871,1217.8398 Q2093.2344,1215.8965 2093.2344,1212.2246 Q2093.2344,1208.543 2094.7871,1206.5996 Q2096.3398,1204.6563 2099.2891,1204.6563 Q2100.1191,1204.6563 2100.8809,1204.832 Q2101.6426,1205.0078 2102.3066,1205.3594 L2102.3066,1208.5625 Q2101.5645,1207.8789 2100.8662,1207.5615 Q2100.168,1207.2441 2099.4258,1207.2441 Q2097.8438,1207.2441 2097.0381,1208.499 Q2096.2324,1209.7539 2096.2324,1212.2246 Q2096.2324,1214.6855 2097.0381,1215.9404 Q2097.8438,1217.1953 2099.4258,1217.1953 Q2100.168,1217.1953 2100.8662,1216.8779 Q2101.5645,1216.5605 2102.3066,1215.877 Z " fill="#000000"/><text fill="#000000" font-family="sans-serif" font-size="20" lengthAdjust="spacing" textLength="56" x="2114.5" y="1219.5586">Agent</text><line style="stroke:#181818;stroke-width:0.5;" x1="2084.5" x2="2172.5" y1="1229" y2="1229"/><line style="stroke:#181818;stroke-width:0.5;" x1="2084.5" x2="2172.5" y1="1237" y2="1237"/></g><!--class Employee--><g id="elem_Employee"><rect fill="#F1F1F1" height="50" id="Employee" rx="2.5" ry="2.5" style="stroke:#181818;stroke-width:0.5;" width="127" x="2136" y="836"/><ellipse cx="2152" cy="853" fill="#ADD1B2" rx="12" ry="12" style="stroke:#181818;stroke-width:1.0;"/><path d="M2154.8066,860.0801 Q2154.123,860.4316 2153.3711,860.6074 Q2152.6191,860.7832 2151.7891,860.7832 Q2148.8398,860.7832 2147.2871,858.8398 Q2145.7344,856.8965 2145.7344,853.2246 Q2145.7344,849.543 2147.2871,847.5996 Q2148.8398,845.6563 2151.7891,845.6563 Q2152.6191,845.6563 2153.3809,845.832 Q2154.1426,846.0078 2154.8066,846.3594 L2154.8066,849.5625 Q2154.0645,848.8789 2153.3662,848.5615 Q2152.668,848.2441 2151.9258,848.2441 Q2150.3438,848.2441 2149.5381,849.499 Q2148.7324,850.7539 2148.7324,853.2246 Q2148.7324,855.6855 2149.5381,856.9404 Q2150.3438,858.1953 2151.9258,858.1953 Q2152.668,858.1953 2153.3662,857.8779 Q2154.0645,857.5605 2154.8066,856.877 Z " fill="#000000"/><text fill="#000000" font-family="sans-serif" font-size="20" lengthAdjust="spacing" textLength="93" x="2167" y="860.5586">Employee</text><line style="stroke:#181818;stroke-width:0.5;" x1="2137" x2="2262" y1="870" y2="870"/><line style="stroke:#181818;stroke-width:0.5;" x1="2137" x2="2262" y1="878" y2="878"/></g><!--class Residency--><g id="elem_Residency"><rect codeLine="94" fill="#F1F1F1" height="50" id="Residency" rx="2.5" ry="2.5" style="stroke:#181818;stroke-width:0.5;" width="130" x="1412.5" y="1495"/><ellipse cx="1428.5" cy="1512" fill="#A9DCDF" rx="12" ry="12" style="stroke:#181818;stroke-width:1.0;"/><path d="M1428.5156,1506.8066 L1427.1582,1512.7734 L1429.8828,1512.7734 Z M1426.7578,1504.1699 L1430.2832,1504.1699 L1434.2188,1518.75 L1431.3379,1518.75 L1430.4395,1515.1465 L1426.582,1515.1465 L1425.7031,1518.75 L1422.8223,1518.75 Z " fill="#000000"/><text fill="#000000" font-family="sans-serif" font-size="20" font-style="italic" lengthAdjust="spacing" textLength="96" x="1443.5" y="1519.5586">Residency</text><line style="stroke:#181818;stroke-width:0.5;" x1="1413.5" x2="1541.5" y1="1529" y2="1529"/><line style="stroke:#181818;stroke-width:0.5;" x1="1413.5" x2="1541.5" y1="1537" y2="1537"/></g><!--class Apartment--><g id="elem_Apartment"><rect codeLine="97" fill="#F1F1F1" height="50" id="Apartment" rx="2.5" ry="2.5" style="stroke:#181818;stroke-width:0.5;" width="136" x="1361.5" y="1665"/><ellipse cx="1377.5" cy="1682" fill="#ADD1B2" rx="12" ry="12" style="stroke:#181818;stroke-width:1.0;"/><path d="M1380.3066,1689.0801 Q1379.623,1689.4316 1378.8711,1689.6074 Q1378.1191,1689.7832 1377.2891,1689.7832 Q1374.3398,1689.7832 1372.7871,1687.8398 Q1371.2344,1685.8965 1371.2344,1682.2246 Q1371.2344,1678.543 1372.7871,1676.5996 Q1374.3398,1674.6563 1377.2891,1674.6563 Q1378.1191,1674.6563 1378.8809,1674.832 Q1379.6426,1675.0078 1380.3066,1675.3594 L1380.3066,1678.5625 Q1379.5645,1677.8789 1378.8662,1677.5615 Q1378.168,1677.2441 1377.4258,1677.2441 Q1375.8438,1677.2441 1375.0381,1678.499 Q1374.2324,1679.7539 1374.2324,1682.2246 Q1374.2324,1684.6855 1375.0381,1685.9404 Q1375.8438,1687.1953 1377.4258,1687.1953 Q1378.168,1687.1953 1378.8662,1686.8779 Q1379.5645,1686.5605 1380.3066,1685.877 Z " fill="#000000"/><text fill="#000000" font-family="sans-serif" font-size="20" lengthAdjust="spacing" textLength="102" x="1392.5" y="1689.5586">Apartment</text><line style="stroke:#181818;stroke-width:0.5;" x1="1362.5" x2="1496.5" y1="1699" y2="1699"/><line style="stroke:#181818;stroke-width:0.5;" x1="1362.5" x2="1496.5" y1="1707" y2="1707"/></g><!--class House--><g id="elem_House"><rect codeLine="100" fill="#F1F1F1" height="50" id="House" rx="2.5" ry="2.5" style="stroke:#181818;stroke-width:0.5;" width="94" x="1532.5" y="1665"/><ellipse cx="1548.5" cy="1682" fill="#ADD1B2" rx="12" ry="12" style="stroke:#181818;stroke-width:1.0;"/><path d="M1551.3066,1689.0801 Q1550.623,1689.4316 1549.8711,1689.6074 Q1549.1191,1689.7832 1548.2891,1689.7832 Q1545.3398,1689.7832 1543.7871,1687.8398 Q1542.2344,1685.8965 1542.2344,1682.2246 Q1542.2344,1678.543 1543.7871,1676.5996 Q1545.3398,1674.6563 1548.2891,1674.6563 Q1549.1191,1674.6563 1549.8809,1674.832 Q1550.6426,1675.0078 1551.3066,1675.3594 L1551.3066,1678.5625 Q1550.5645,1677.8789 1549.8662,1677.5615 Q1549.168,1677.2441 1548.4258,1677.2441 Q1546.8438,1677.2441 1546.0381,1678.499 Q1545.2324,1679.7539 1545.2324,1682.2246 Q1545.2324,1684.6855 1546.0381,1685.9404 Q1546.8438,1687.1953 1548.4258,1687.1953 Q1549.168,1687.1953 1549.8662,1686.8779 Q1550.5645,1686.5605 1551.3066,1685.877 Z " fill="#000000"/><text fill="#000000" font-family="sans-serif" font-size="20" lengthAdjust="spacing" textLength="60" x="1563.5" y="1689.5586">House</text><line style="stroke:#181818;stroke-width:0.5;" x1="1533.5" x2="1625.5" y1="1699" y2="1699"/><line style="stroke:#181818;stroke-width:0.5;" x1="1533.5" x2="1625.5" y1="1707" y2="1707"/></g><!--class Land--><g id="elem_Land"><rect codeLine="103" fill="#F1F1F1" height="50" id="Land" rx="2.5" ry="2.5" style="stroke:#181818;stroke-width:0.5;" width="81" x="1578" y="1495"/><ellipse cx="1594" cy="1512" fill="#ADD1B2" rx="12" ry="12" style="stroke:#181818;stroke-width:1.0;"/><path d="M1596.8066,1519.0801 Q1596.123,1519.4316 1595.3711,1519.6074 Q1594.6191,1519.7832 1593.7891,1519.7832 Q1590.8398,1519.7832 1589.2871,1517.8398 Q1587.7344,1515.8965 1587.7344,1512.2246 Q1587.7344,1508.543 1589.2871,1506.5996 Q1590.8398,1504.6563 1593.7891,1504.6563 Q1594.6191,1504.6563 1595.3809,1504.832 Q1596.1426,1505.0078 1596.8066,1505.3594 L1596.8066,1508.5625 Q1596.0645,1507.8789 1595.3662,1507.5615 Q1594.668,1507.2441 1593.9258,1507.2441 Q1592.3438,1507.2441 1591.5381,1508.499 Q1590.7324,1509.7539 1590.7324,1512.2246 Q1590.7324,1514.6855 1591.5381,1515.9404 Q1592.3438,1517.1953 1593.9258,1517.1953 Q1594.668,1517.1953 1595.3662,1516.8779 Q1596.0645,1516.5605 1596.8066,1515.877 Z " fill="#000000"/><text fill="#000000" font-family="sans-serif" font-size="20" lengthAdjust="spacing" textLength="47" x="1609" y="1519.5586">Land</text><line style="stroke:#181818;stroke-width:0.5;" x1="1579" x2="1658" y1="1529" y2="1529"/><line style="stroke:#181818;stroke-width:0.5;" x1="1579" x2="1658" y1="1537" y2="1537"/></g><!--class Commission--><g id="elem_Commission"><rect codeLine="106" fill="#F1F1F1" height="50" id="Commission" rx="2.5" ry="2.5" style="stroke:#181818;stroke-width:0.5;" width="154" x="1657.5" y="1195"/><ellipse cx="1673.5" cy="1212" fill="#ADD1B2" rx="12" ry="12" style="stroke:#181818;stroke-width:1.0;"/><path d="M1676.3066,1219.0801 Q1675.623,1219.4316 1674.8711,1219.6074 Q1674.1191,1219.7832 1673.2891,1219.7832 Q1670.3398,1219.7832 1668.7871,1217.8398 Q1667.2344,1215.8965 1667.2344,1212.2246 Q1667.2344,1208.543 1668.7871,1206.5996 Q1670.3398,1204.6563 1673.2891,1204.6563 Q1674.1191,1204.6563 1674.8809,1204.832 Q1675.6426,1205.0078 1676.3066,1205.3594 L1676.3066,1208.5625 Q1675.5645,1207.8789 1674.8662,1207.5615 Q1674.168,1207.2441 1673.4258,1207.2441 Q1671.8438,1207.2441 1671.0381,1208.499 Q1670.2324,1209.7539 1670.2324,1212.2246 Q1670.2324,1214.6855 1671.0381,1215.9404 Q1671.8438,1217.1953 1673.4258,1217.1953 Q1674.168,1217.1953 1674.8662,1216.8779 Q1675.5645,1216.5605 1676.3066,1215.877 Z " fill="#000000"/><text fill="#000000" font-family="sans-serif" font-size="20" lengthAdjust="spacing" textLength="120" x="1688.5" y="1219.5586">Commission</text><line style="stroke:#181818;stroke-width:0.5;" x1="1658.5" x2="1810.5" y1="1229" y2="1229"/><line style="stroke:#181818;stroke-width:0.5;" x1="1658.5" x2="1810.5" y1="1237" y2="1237"/></g><!--class Emplyoee--><g id="elem_Emplyoee"><rect codeLine="109" fill="#F1F1F1" height="50" id="Emplyoee" rx="2.5" ry="2.5" style="stroke:#181818;stroke-width:0.5;" width="127" x="3841" y="77.5"/><ellipse cx="3857" cy="94.5" fill="#ADD1B2" rx="12" ry="12" style="stroke:#181818;stroke-width:1.0;"/><path d="M3859.8066,101.5801 Q3859.123,101.9316 3858.3711,102.1074 Q3857.6191,102.2832 3856.7891,102.2832 Q3853.8398,102.2832 3852.2871,100.3398 Q3850.7344,98.3965 3850.7344,94.7246 Q3850.7344,91.043 3852.2871,89.0996 Q3853.8398,87.1563 3856.7891,87.1563 Q3857.6191,87.1563 3858.3809,87.332 Q3859.1426,87.5078 3859.8066,87.8594 L3859.8066,91.0625 Q3859.0645,90.3789 3858.3662,90.0615 Q3857.668,89.7441 3856.9258,89.7441 Q3855.3438,89.7441 3854.5381,90.999 Q3853.7324,92.2539 3853.7324,94.7246 Q3853.7324,97.1855 3854.5381,98.4404 Q3855.3438,99.6953 3856.9258,99.6953 Q3857.668,99.6953 3858.3662,99.3779 Q3859.0645,99.0605 3859.8066,98.377 Z " fill="#000000"/><text fill="#000000" font-family="sans-serif" font-size="20" lengthAdjust="spacing" textLength="93" x="3872" y="102.0586">Emplyoee</text><line style="stroke:#181818;stroke-width:0.5;" x1="3842" x2="3967" y1="111.5" y2="111.5"/><line style="stroke:#181818;stroke-width:0.5;" x1="3842" x2="3967" y1="119.5" y2="119.5"/></g><!--class PasswordGenerator--><g id="elem_PasswordGenerator"><rect codeLine="112" fill="#F1F1F1" height="50" id="PasswordGenerator" rx="2.5" ry="2.5" style="stroke:#181818;stroke-width:0.5;" width="218" x="3381.5" y="524"/><ellipse cx="3397.5" cy="541" fill="#ADD1B2" rx="12" ry="12" style="stroke:#181818;stroke-width:1.0;"/><path d="M3400.3066,548.0801 Q3399.623,548.4316 3398.8711,548.6074 Q3398.1191,548.7832 3397.2891,548.7832 Q3394.3398,548.7832 3392.7871,546.8398 Q3391.2344,544.8965 3391.2344,541.2246 Q3391.2344,537.543 3392.7871,535.5996 Q3394.3398,533.6563 3397.2891,533.6563 Q3398.1191,533.6563 3398.8809,533.832 Q3399.6426,534.0078 3400.3066,534.3594 L3400.3066,537.5625 Q3399.5645,536.8789 3398.8662,536.5615 Q3398.168,536.2441 3397.4258,536.2441 Q3395.8438,536.2441 3395.0381,537.499 Q3394.2324,538.7539 3394.2324,541.2246 Q3394.2324,543.6855 3395.0381,544.9404 Q3395.8438,546.1953 3397.4258,546.1953 Q3398.168,546.1953 3398.8662,545.8779 Q3399.5645,545.5605 3400.3066,544.877 Z " fill="#000000"/><text fill="#000000" font-family="sans-serif" font-size="20" lengthAdjust="spacing" textLength="184" x="3412.5" y="548.5586">PasswordGenerator</text><line style="stroke:#181818;stroke-width:0.5;" x1="3382.5" x2="3598.5" y1="558" y2="558"/><line style="stroke:#181818;stroke-width:0.5;" x1="3382.5" x2="3598.5" y1="566" y2="566"/></g><!--class Photo--><g id="elem_Photo"><rect codeLine="115" fill="#F1F1F1" height="50" id="Photo" rx="2.5" ry="2.5" style="stroke:#181818;stroke-width:0.5;" width="88" x="1846.5" y="1195"/><ellipse cx="1862.5" cy="1212" fill="#ADD1B2" rx="12" ry="12" style="stroke:#181818;stroke-width:1.0;"/><path d="M1865.3066,1219.0801 Q1864.623,1219.4316 1863.8711,1219.6074 Q1863.1191,1219.7832 1862.2891,1219.7832 Q1859.3398,1219.7832 1857.7871,1217.8398 Q1856.2344,1215.8965 1856.2344,1212.2246 Q1856.2344,1208.543 1857.7871,1206.5996 Q1859.3398,1204.6563 1862.2891,1204.6563 Q1863.1191,1204.6563 1863.8809,1204.832 Q1864.6426,1205.0078 1865.3066,1205.3594 L1865.3066,1208.5625 Q1864.5645,1207.8789 1863.8662,1207.5615 Q1863.168,1207.2441 1862.4258,1207.2441 Q1860.8438,1207.2441 1860.0381,1208.499 Q1859.2324,1209.7539 1859.2324,1212.2246 Q1859.2324,1214.6855 1860.0381,1215.9404 Q1860.8438,1217.1953 1862.4258,1217.1953 Q1863.168,1217.1953 1863.8662,1216.8779 Q1864.5645,1216.5605 1865.3066,1215.877 Z " fill="#000000"/><text fill="#000000" font-family="sans-serif" font-size="20" lengthAdjust="spacing" textLength="54" x="1877.5" y="1219.5586">Photo</text><line style="stroke:#181818;stroke-width:0.5;" x1="1847.5" x2="1933.5" y1="1229" y2="1229"/><line style="stroke:#181818;stroke-width:0.5;" x1="1847.5" x2="1933.5" y1="1237" y2="1237"/></g><!--class User--><g id="elem_User"><rect codeLine="118" fill="#F1F1F1" height="50" id="User" rx="2.5" ry="2.5" style="stroke:#181818;stroke-width:0.5;" width="77" x="4003" y="77.5"/><ellipse cx="4019" cy="94.5" fill="#A9DCDF" rx="12" ry="12" style="stroke:#181818;stroke-width:1.0;"/><path d="M4019.0156,89.3066 L4017.6582,95.2734 L4020.3828,95.2734 Z M4017.2578,86.6699 L4020.7832,86.6699 L4024.7188,101.25 L4021.8379,101.25 L4020.9395,97.6465 L4017.082,97.6465 L4016.2031,101.25 L4013.3223,101.25 Z " fill="#000000"/><text fill="#000000" font-family="sans-serif" font-size="20" font-style="italic" lengthAdjust="spacing" textLength="43" x="4034" y="102.0586">User</text><line style="stroke:#181818;stroke-width:0.5;" x1="4004" x2="4079" y1="111.5" y2="111.5"/><line style="stroke:#181818;stroke-width:0.5;" x1="4004" x2="4079" y1="119.5" y2="119.5"/></g><!--class TypeOfProperty--><g id="elem_TypeOfProperty"><rect codeLine="121" fill="#F1F1F1" height="120.6641" id="TypeOfProperty" rx="2.5" ry="2.5" style="stroke:#181818;stroke-width:0.5;" width="184" x="884.5" y="1159.5"/><ellipse cx="900.5" cy="1176.5" fill="#EB937F" rx="12" ry="12" style="stroke:#181818;stroke-width:1.0;"/><path d="M905.2227,1184 L896.1406,1184 L896.1406,1169.4199 L905.2227,1169.4199 L905.2227,1171.959 L899.0215,1171.959 L899.0215,1175.1035 L904.6367,1175.1035 L904.6367,1177.6426 L899.0215,1177.6426 L899.0215,1181.4609 L905.2227,1181.4609 Z " fill="#000000"/><text fill="#000000" font-family="sans-serif" font-size="20" lengthAdjust="spacing" textLength="150" x="915.5" y="1184.0586">TypeOfProperty</text><line style="stroke:#181818;stroke-width:0.5;" x1="885.5" x2="1067.5" y1="1193.5" y2="1193.5"/><text fill="#000000" font-family="sans-serif" font-size="20" lengthAdjust="spacing" textLength="121" x="890.5" y="1216.8359">APARTMENT</text><text fill="#000000" font-family="sans-serif" font-size="20" lengthAdjust="spacing" textLength="67" x="890.5" y="1240.3906">HOUSE</text><text fill="#000000" font-family="sans-serif" font-size="20" lengthAdjust="spacing" textLength="55" x="890.5" y="1263.9453">LAND</text><line style="stroke:#181818;stroke-width:0.5;" x1="885.5" x2="1067.5" y1="1272.1641" y2="1272.1641"/></g><!--class TransactionType--><g id="elem_TransactionType"><rect codeLine="127" fill="#F1F1F1" height="97.1094" id="TransactionType" rx="2.5" ry="2.5" style="stroke:#181818;stroke-width:0.5;" width="193" x="1104" y="1171.5"/><ellipse cx="1120" cy="1188.5" fill="#EB937F" rx="12" ry="12" style="stroke:#181818;stroke-width:1.0;"/><path d="M1124.7227,1196 L1115.6406,1196 L1115.6406,1181.4199 L1124.7227,1181.4199 L1124.7227,1183.959 L1118.5215,1183.959 L1118.5215,1187.1035 L1124.1367,1187.1035 L1124.1367,1189.6426 L1118.5215,1189.6426 L1118.5215,1193.4609 L1124.7227,1193.4609 Z " fill="#000000"/><text fill="#000000" font-family="sans-serif" font-size="20" lengthAdjust="spacing" textLength="159" x="1135" y="1196.0586">TransactionType</text><line style="stroke:#181818;stroke-width:0.5;" x1="1105" x2="1296" y1="1205.5" y2="1205.5"/><text fill="#000000" font-family="sans-serif" font-size="20" lengthAdjust="spacing" textLength="52" x="1110" y="1228.8359">RENT</text><text fill="#000000" font-family="sans-serif" font-size="20" lengthAdjust="spacing" textLength="47" x="1110" y="1252.3906">SALE</text><line style="stroke:#181818;stroke-width:0.5;" x1="1105" x2="1296" y1="1260.6094" y2="1260.6094"/></g><!--class SunExposure--><g id="elem_SunExposure"><rect codeLine="132" fill="#F1F1F1" height="144.2188" id="SunExposure" rx="2.5" ry="2.5" style="stroke:#181818;stroke-width:0.5;" width="158" x="1500.5" y="1800"/><ellipse cx="1516.5" cy="1817" fill="#EB937F" rx="12" ry="12" style="stroke:#181818;stroke-width:1.0;"/><path d="M1521.2227,1824.5 L1512.1406,1824.5 L1512.1406,1809.9199 L1521.2227,1809.9199 L1521.2227,1812.459 L1515.0215,1812.459 L1515.0215,1815.6035 L1520.6367,1815.6035 L1520.6367,1818.1426 L1515.0215,1818.1426 L1515.0215,1821.9609 L1521.2227,1821.9609 Z " fill="#000000"/><text fill="#000000" font-family="sans-serif" font-size="20" lengthAdjust="spacing" textLength="124" x="1531.5" y="1824.5586">SunExposure</text><line style="stroke:#181818;stroke-width:0.5;" x1="1501.5" x2="1657.5" y1="1834" y2="1834"/><text fill="#000000" font-family="sans-serif" font-size="20" lengthAdjust="spacing" textLength="72" x="1506.5" y="1857.3359">NORTH</text><text fill="#000000" font-family="sans-serif" font-size="20" lengthAdjust="spacing" textLength="69" x="1506.5" y="1880.8906">SOUTH</text><text fill="#000000" font-family="sans-serif" font-size="20" lengthAdjust="spacing" textLength="49" x="1506.5" y="1904.4453">EAST</text><text fill="#000000" font-family="sans-serif" font-size="20" lengthAdjust="spacing" textLength="52" x="1506.5" y="1928">WEST</text><line style="stroke:#181818;stroke-width:0.5;" x1="1501.5" x2="1657.5" y1="1936.2188" y2="1936.2188"/></g><!--class AgencyListRepository--><g id="elem_AgencyListRepository"><rect codeLine="139" fill="#F1F1F1" height="50" id="AgencyListRepository" rx="2.5" ry="2.5" style="stroke:#181818;stroke-width:0.5;" width="239" x="1846" y="524"/><ellipse cx="1862" cy="541" fill="#ADD1B2" rx="12" ry="12" style="stroke:#181818;stroke-width:1.0;"/><path d="M1864.8066,548.0801 Q1864.123,548.4316 1863.3711,548.6074 Q1862.6191,548.7832 1861.7891,548.7832 Q1858.8398,548.7832 1857.2871,546.8398 Q1855.7344,544.8965 1855.7344,541.2246 Q1855.7344,537.543 1857.2871,535.5996 Q1858.8398,533.6563 1861.7891,533.6563 Q1862.6191,533.6563 1863.3809,533.832 Q1864.1426,534.0078 1864.8066,534.3594 L1864.8066,537.5625 Q1864.0645,536.8789 1863.3662,536.5615 Q1862.668,536.2441 1861.9258,536.2441 Q1860.3438,536.2441 1859.5381,537.499 Q1858.7324,538.7539 1858.7324,541.2246 Q1858.7324,543.6855 1859.5381,544.9404 Q1860.3438,546.1953 1861.9258,546.1953 Q1862.668,546.1953 1863.3662,545.8779 Q1864.0645,545.5605 1864.8066,544.877 Z " fill="#000000"/><text fill="#000000" font-family="sans-serif" font-size="20" lengthAdjust="spacing" textLength="205" x="1877" y="548.5586">AgencyListRepository</text><line style="stroke:#181818;stroke-width:0.5;" x1="1847" x2="2084" y1="558" y2="558"/><line style="stroke:#181818;stroke-width:0.5;" x1="1847" x2="2084" y1="566" y2="566"/></g><!--class AuthenticationRepository--><g id="elem_AuthenticationRepository"><rect codeLine="142" fill="#F1F1F1" height="50" id="AuthenticationRepository" rx="2.5" ry="2.5" style="stroke:#181818;stroke-width:0.5;" width="275" x="2773" y="524"/><ellipse cx="2789" cy="541" fill="#ADD1B2" rx="12" ry="12" style="stroke:#181818;stroke-width:1.0;"/><path d="M2791.8066,548.0801 Q2791.123,548.4316 2790.3711,548.6074 Q2789.6191,548.7832 2788.7891,548.7832 Q2785.8398,548.7832 2784.2871,546.8398 Q2782.7344,544.8965 2782.7344,541.2246 Q2782.7344,537.543 2784.2871,535.5996 Q2785.8398,533.6563 2788.7891,533.6563 Q2789.6191,533.6563 2790.3809,533.832 Q2791.1426,534.0078 2791.8066,534.3594 L2791.8066,537.5625 Q2791.0645,536.8789 2790.3662,536.5615 Q2789.668,536.2441 2788.9258,536.2441 Q2787.3438,536.2441 2786.5381,537.499 Q2785.7324,538.7539 2785.7324,541.2246 Q2785.7324,543.6855 2786.5381,544.9404 Q2787.3438,546.1953 2788.9258,546.1953 Q2789.668,546.1953 2790.3662,545.8779 Q2791.0645,545.5605 2791.8066,544.877 Z " fill="#000000"/><text fill="#000000" font-family="sans-serif" font-size="20" lengthAdjust="spacing" textLength="241" x="2804" y="548.5586">AuthenticationRepository</text><line style="stroke:#181818;stroke-width:0.5;" x1="2774" x2="3047" y1="558" y2="558"/><line style="stroke:#181818;stroke-width:0.5;" x1="2774" x2="3047" y1="566" y2="566"/></g><!--class EmployeeRepository--><g id="elem_EmployeeRepository"><rect codeLine="145" fill="#F1F1F1" height="50" id="EmployeeRepository" rx="2.5" ry="2.5" style="stroke:#181818;stroke-width:0.5;" width="229" x="2120" y="524"/><ellipse cx="2136" cy="541" fill="#ADD1B2" rx="12" ry="12" style="stroke:#181818;stroke-width:1.0;"/><path d="M2138.8066,548.0801 Q2138.123,548.4316 2137.3711,548.6074 Q2136.6191,548.7832 2135.7891,548.7832 Q2132.8398,548.7832 2131.2871,546.8398 Q2129.7344,544.8965 2129.7344,541.2246 Q2129.7344,537.543 2131.2871,535.5996 Q2132.8398,533.6563 2135.7891,533.6563 Q2136.6191,533.6563 2137.3809,533.832 Q2138.1426,534.0078 2138.8066,534.3594 L2138.8066,537.5625 Q2138.0645,536.8789 2137.3662,536.5615 Q2136.668,536.2441 2135.9258,536.2441 Q2134.3438,536.2441 2133.5381,537.499 Q2132.7324,538.7539 2132.7324,541.2246 Q2132.7324,543.6855 2133.5381,544.9404 Q2134.3438,546.1953 2135.9258,546.1953 Q2136.668,546.1953 2137.3662,545.8779 Q2138.0645,545.5605 2138.8066,544.877 Z " fill="#000000"/><text fill="#000000" font-family="sans-serif" font-size="20" lengthAdjust="spacing" textLength="195" x="2151" y="548.5586">EmployeeRepository</text><line style="stroke:#181818;stroke-width:0.5;" x1="2121" x2="2348" y1="558" y2="558"/><line style="stroke:#181818;stroke-width:0.5;" x1="2121" x2="2348" y1="566" y2="566"/></g><!--class RoleRepository--><g id="elem_RoleRepository"><rect codeLine="148" fill="#F1F1F1" height="50" id="RoleRepository" rx="2.5" ry="2.5" style="stroke:#181818;stroke-width:0.5;" width="178" x="3125.5" y="524"/><ellipse cx="3141.5" cy="541" fill="#ADD1B2" rx="12" ry="12" style="stroke:#181818;stroke-width:1.0;"/><path d="M3144.3066,548.0801 Q3143.623,548.4316 3142.8711,548.6074 Q3142.1191,548.7832 3141.2891,548.7832 Q3138.3398,548.7832 3136.7871,546.8398 Q3135.2344,544.8965 3135.2344,541.2246 Q3135.2344,537.543 3136.7871,535.5996 Q3138.3398,533.6563 3141.2891,533.6563 Q3142.1191,533.6563 3142.8809,533.832 Q3143.6426,534.0078 3144.3066,534.3594 L3144.3066,537.5625 Q3143.5645,536.8789 3142.8662,536.5615 Q3142.168,536.2441 3141.4258,536.2441 Q3139.8438,536.2441 3139.0381,537.499 Q3138.2324,538.7539 3138.2324,541.2246 Q3138.2324,543.6855 3139.0381,544.9404 Q3139.8438,546.1953 3141.4258,546.1953 Q3142.168,546.1953 3142.8662,545.8779 Q3143.5645,545.5605 3144.3066,544.877 Z " fill="#000000"/><text fill="#000000" font-family="sans-serif" font-size="20" lengthAdjust="spacing" textLength="144" x="3156.5" y="548.5586">RoleRepository</text><line style="stroke:#181818;stroke-width:0.5;" x1="3126.5" x2="3302.5" y1="558" y2="558"/><line style="stroke:#181818;stroke-width:0.5;" x1="3126.5" x2="3302.5" y1="566" y2="566"/></g><!--class AuthenticationUI--><g id="elem_AuthenticationUI"><rect codeLine="151" fill="#F1F1F1" height="50" id="AuthenticationUI" rx="2.5" ry="2.5" style="stroke:#181818;stroke-width:0.5;" width="193" x="2548" y="294.5"/><ellipse cx="2564" cy="311.5" fill="#ADD1B2" rx="12" ry="12" style="stroke:#181818;stroke-width:1.0;"/><path d="M2566.8066,318.5801 Q2566.123,318.9316 2565.3711,319.1074 Q2564.6191,319.2832 2563.7891,319.2832 Q2560.8398,319.2832 2559.2871,317.3398 Q2557.7344,315.3965 2557.7344,311.7246 Q2557.7344,308.043 2559.2871,306.0996 Q2560.8398,304.1563 2563.7891,304.1563 Q2564.6191,304.1563 2565.3809,304.332 Q2566.1426,304.5078 2566.8066,304.8594 L2566.8066,308.0625 Q2566.0645,307.3789 2565.3662,307.0615 Q2564.668,306.7441 2563.9258,306.7441 Q2562.3438,306.7441 2561.5381,307.999 Q2560.7324,309.2539 2560.7324,311.7246 Q2560.7324,314.1855 2561.5381,315.4404 Q2562.3438,316.6953 2563.9258,316.6953 Q2564.668,316.6953 2565.3662,316.3779 Q2566.0645,316.0605 2566.8066,315.377 Z " fill="#000000"/><text fill="#000000" font-family="sans-serif" font-size="20" lengthAdjust="spacing" textLength="159" x="2579" y="319.0586">AuthenticationUI</text><line style="stroke:#181818;stroke-width:0.5;" x1="2549" x2="2740" y1="328.5" y2="328.5"/><line style="stroke:#181818;stroke-width:0.5;" x1="2549" x2="2740" y1="336.5" y2="336.5"/></g><!--class AdminUI--><g id="elem_AdminUI"><rect codeLine="154" fill="#F1F1F1" height="50" id="AdminUI" rx="2.5" ry="2.5" style="stroke:#181818;stroke-width:0.5;" width="118" x="4115.5" y="77.5"/><ellipse cx="4131.5" cy="94.5" fill="#ADD1B2" rx="12" ry="12" style="stroke:#181818;stroke-width:1.0;"/><path d="M4134.3066,101.5801 Q4133.623,101.9316 4132.8711,102.1074 Q4132.1191,102.2832 4131.2891,102.2832 Q4128.3398,102.2832 4126.7871,100.3398 Q4125.2344,98.3965 4125.2344,94.7246 Q4125.2344,91.043 4126.7871,89.0996 Q4128.3398,87.1563 4131.2891,87.1563 Q4132.1191,87.1563 4132.8809,87.332 Q4133.6426,87.5078 4134.3066,87.8594 L4134.3066,91.0625 Q4133.5645,90.3789 4132.8662,90.0615 Q4132.168,89.7441 4131.4258,89.7441 Q4129.8438,89.7441 4129.0381,90.999 Q4128.2324,92.2539 4128.2324,94.7246 Q4128.2324,97.1855 4129.0381,98.4404 Q4129.8438,99.6953 4131.4258,99.6953 Q4132.168,99.6953 4132.8662,99.3779 Q4133.5645,99.0605 4134.3066,98.377 Z " fill="#000000"/><text fill="#000000" font-family="sans-serif" font-size="20" lengthAdjust="spacing" textLength="84" x="4146.5" y="102.0586">AdminUI</text><line style="stroke:#181818;stroke-width:0.5;" x1="4116.5" x2="4232.5" y1="111.5" y2="111.5"/><line style="stroke:#181818;stroke-width:0.5;" x1="4116.5" x2="4232.5" y1="119.5" y2="119.5"/></g><!--class ClientUI--><g id="elem_ClientUI"><rect codeLine="157" fill="#F1F1F1" height="50" id="ClientUI" rx="2.5" ry="2.5" style="stroke:#181818;stroke-width:0.5;" width="110" x="3676.5" y="294.5"/><ellipse cx="3692.5" cy="311.5" fill="#ADD1B2" rx="12" ry="12" style="stroke:#181818;stroke-width:1.0;"/><path d="M3695.3066,318.5801 Q3694.623,318.9316 3693.8711,319.1074 Q3693.1191,319.2832 3692.2891,319.2832 Q3689.3398,319.2832 3687.7871,317.3398 Q3686.2344,315.3965 3686.2344,311.7246 Q3686.2344,308.043 3687.7871,306.0996 Q3689.3398,304.1563 3692.2891,304.1563 Q3693.1191,304.1563 3693.8809,304.332 Q3694.6426,304.5078 3695.3066,304.8594 L3695.3066,308.0625 Q3694.5645,307.3789 3693.8662,307.0615 Q3693.168,306.7441 3692.4258,306.7441 Q3690.8438,306.7441 3690.0381,307.999 Q3689.2324,309.2539 3689.2324,311.7246 Q3689.2324,314.1855 3690.0381,315.4404 Q3690.8438,316.6953 3692.4258,316.6953 Q3693.168,316.6953 3693.8662,316.3779 Q3694.5645,316.0605 3695.3066,315.377 Z " fill="#000000"/><text fill="#000000" font-family="sans-serif" font-size="20" lengthAdjust="spacing" textLength="76" x="3707.5" y="319.0586">ClientUI</text><line style="stroke:#181818;stroke-width:0.5;" x1="3677.5" x2="3785.5" y1="328.5" y2="328.5"/><line style="stroke:#181818;stroke-width:0.5;" x1="3677.5" x2="3785.5" y1="336.5" y2="336.5"/></g><!--class EmployeeUI--><g id="elem_EmployeeUI"><rect codeLine="160" fill="#F1F1F1" height="50" id="EmployeeUI" rx="2.5" ry="2.5" style="stroke:#181818;stroke-width:0.5;" width="147" x="3822" y="294.5"/><ellipse cx="3838" cy="311.5" fill="#ADD1B2" rx="12" ry="12" style="stroke:#181818;stroke-width:1.0;"/><path d="M3840.8066,318.5801 Q3840.123,318.9316 3839.3711,319.1074 Q3838.6191,319.2832 3837.7891,319.2832 Q3834.8398,319.2832 3833.2871,317.3398 Q3831.7344,315.3965 3831.7344,311.7246 Q3831.7344,308.043 3833.2871,306.0996 Q3834.8398,304.1563 3837.7891,304.1563 Q3838.6191,304.1563 3839.3809,304.332 Q3840.1426,304.5078 3840.8066,304.8594 L3840.8066,308.0625 Q3840.0645,307.3789 3839.3662,307.0615 Q3838.668,306.7441 3837.9258,306.7441 Q3836.3438,306.7441 3835.5381,307.999 Q3834.7324,309.2539 3834.7324,311.7246 Q3834.7324,314.1855 3835.5381,315.4404 Q3836.3438,316.6953 3837.9258,316.6953 Q3838.668,316.6953 3839.3662,316.3779 Q3840.0645,316.0605 3840.8066,315.377 Z " fill="#000000"/><text fill="#000000" font-family="sans-serif" font-size="20" lengthAdjust="spacing" textLength="113" x="3853" y="319.0586">EmployeeUI</text><line style="stroke:#181818;stroke-width:0.5;" x1="3823" x2="3968" y1="328.5" y2="328.5"/><line style="stroke:#181818;stroke-width:0.5;" x1="3823" x2="3968" y1="336.5" y2="336.5"/></g><!--class MainMenuUI--><g id="elem_MainMenuUI"><rect codeLine="163" fill="#F1F1F1" height="50" id="MainMenuUI" rx="2.5" ry="2.5" style="stroke:#181818;stroke-width:0.5;" width="152" x="4004.5" y="294.5"/><ellipse cx="4020.5" cy="311.5" fill="#ADD1B2" rx="12" ry="12" style="stroke:#181818;stroke-width:1.0;"/><path d="M4023.3066,318.5801 Q4022.623,318.9316 4021.8711,319.1074 Q4021.1191,319.2832 4020.2891,319.2832 Q4017.3398,319.2832 4015.7871,317.3398 Q4014.2344,315.3965 4014.2344,311.7246 Q4014.2344,308.043 4015.7871,306.0996 Q4017.3398,304.1563 4020.2891,304.1563 Q4021.1191,304.1563 4021.8809,304.332 Q4022.6426,304.5078 4023.3066,304.8594 L4023.3066,308.0625 Q4022.5645,307.3789 4021.8662,307.0615 Q4021.168,306.7441 4020.4258,306.7441 Q4018.8438,306.7441 4018.0381,307.999 Q4017.2324,309.2539 4017.2324,311.7246 Q4017.2324,314.1855 4018.0381,315.4404 Q4018.8438,316.6953 4020.4258,316.6953 Q4021.168,316.6953 4021.8662,316.3779 Q4022.5645,316.0605 4023.3066,315.377 Z " fill="#000000"/><text fill="#000000" font-family="sans-serif" font-size="20" lengthAdjust="spacing" textLength="118" x="4035.5" y="319.0586">MainMenuUI</text><line style="stroke:#181818;stroke-width:0.5;" x1="4005.5" x2="4155.5" y1="328.5" y2="328.5"/><line style="stroke:#181818;stroke-width:0.5;" x1="4005.5" x2="4155.5" y1="336.5" y2="336.5"/></g><!--class MenuItem--><g id="elem_MenuItem"><rect codeLine="166" fill="#F1F1F1" height="50" id="MenuItem" rx="2.5" ry="2.5" style="stroke:#181818;stroke-width:0.5;" width="129" x="4192" y="294.5"/><ellipse cx="4208" cy="311.5" fill="#ADD1B2" rx="12" ry="12" style="stroke:#181818;stroke-width:1.0;"/><path d="M4210.8066,318.5801 Q4210.123,318.9316 4209.3711,319.1074 Q4208.6191,319.2832 4207.7891,319.2832 Q4204.8398,319.2832 4203.2871,317.3398 Q4201.7344,315.3965 4201.7344,311.7246 Q4201.7344,308.043 4203.2871,306.0996 Q4204.8398,304.1563 4207.7891,304.1563 Q4208.6191,304.1563 4209.3809,304.332 Q4210.1426,304.5078 4210.8066,304.8594 L4210.8066,308.0625 Q4210.0645,307.3789 4209.3662,307.0615 Q4208.668,306.7441 4207.9258,306.7441 Q4206.3438,306.7441 4205.5381,307.999 Q4204.7324,309.2539 4204.7324,311.7246 Q4204.7324,314.1855 4205.5381,315.4404 Q4206.3438,316.6953 4207.9258,316.6953 Q4208.668,316.6953 4209.3662,316.3779 Q4210.0645,316.0605 4210.8066,315.377 Z " fill="#000000"/><text fill="#000000" font-family="sans-serif" font-size="20" lengthAdjust="spacing" textLength="95" x="4223" y="319.0586">MenuItem</text><line style="stroke:#181818;stroke-width:0.5;" x1="4193" x2="4320" y1="328.5" y2="328.5"/><line style="stroke:#181818;stroke-width:0.5;" x1="4193" x2="4320" y1="336.5" y2="336.5"/></g><!--class CreateRequestUI--><g id="elem_CreateRequestUI"><rect codeLine="169" fill="#F1F1F1" height="50" id="CreateRequestUI" rx="2.5" ry="2.5" style="stroke:#181818;stroke-width:0.5;" width="193" x="1543" y="294.5"/><ellipse cx="1559" cy="311.5" fill="#ADD1B2" rx="12" ry="12" style="stroke:#181818;stroke-width:1.0;"/><path d="M1561.8066,318.5801 Q1561.123,318.9316 1560.3711,319.1074 Q1559.6191,319.2832 1558.7891,319.2832 Q1555.8398,319.2832 1554.2871,317.3398 Q1552.7344,315.3965 1552.7344,311.7246 Q1552.7344,308.043 1554.2871,306.0996 Q1555.8398,304.1563 1558.7891,304.1563 Q1559.6191,304.1563 1560.3809,304.332 Q1561.1426,304.5078 1561.8066,304.8594 L1561.8066,308.0625 Q1561.0645,307.3789 1560.3662,307.0615 Q1559.668,306.7441 1558.9258,306.7441 Q1557.3438,306.7441 1556.5381,307.999 Q1555.7324,309.2539 1555.7324,311.7246 Q1555.7324,314.1855 1556.5381,315.4404 Q1557.3438,316.6953 1558.9258,316.6953 Q1559.668,316.6953 1560.3662,316.3779 Q1561.0645,316.0605 1561.8066,315.377 Z " fill="#000000"/><text fill="#000000" font-family="sans-serif" font-size="20" lengthAdjust="spacing" textLength="159" x="1574" y="319.0586">CreateRequestUI</text><line style="stroke:#181818;stroke-width:0.5;" x1="1544" x2="1735" y1="328.5" y2="328.5"/><line style="stroke:#181818;stroke-width:0.5;" x1="1544" x2="1735" y1="336.5" y2="336.5"/></g><!--class DevTeamUI--><g id="elem_DevTeamUI"><rect codeLine="172" fill="#F1F1F1" height="50" id="DevTeamUI" rx="2.5" ry="2.5" style="stroke:#181818;stroke-width:0.5;" width="144" x="3659.5" y="524"/><ellipse cx="3675.5" cy="541" fill="#ADD1B2" rx="12" ry="12" style="stroke:#181818;stroke-width:1.0;"/><path d="M3678.3066,548.0801 Q3677.623,548.4316 3676.8711,548.6074 Q3676.1191,548.7832 3675.2891,548.7832 Q3672.3398,548.7832 3670.7871,546.8398 Q3669.2344,544.8965 3669.2344,541.2246 Q3669.2344,537.543 3670.7871,535.5996 Q3672.3398,533.6563 3675.2891,533.6563 Q3676.1191,533.6563 3676.8809,533.832 Q3677.6426,534.0078 3678.3066,534.3594 L3678.3066,537.5625 Q3677.5645,536.8789 3676.8662,536.5615 Q3676.168,536.2441 3675.4258,536.2441 Q3673.8438,536.2441 3673.0381,537.499 Q3672.2324,538.7539 3672.2324,541.2246 Q3672.2324,543.6855 3673.0381,544.9404 Q3673.8438,546.1953 3675.4258,546.1953 Q3676.168,546.1953 3676.8662,545.8779 Q3677.5645,545.5605 3678.3066,544.877 Z " fill="#000000"/><text fill="#000000" font-family="sans-serif" font-size="20" lengthAdjust="spacing" textLength="110" x="3690.5" y="548.5586">DevTeamUI</text><line style="stroke:#181818;stroke-width:0.5;" x1="3660.5" x2="3802.5" y1="558" y2="558"/><line style="stroke:#181818;stroke-width:0.5;" x1="3660.5" x2="3802.5" y1="566" y2="566"/></g><!--class PublishAnnouncementUI--><g id="elem_PublishAnnouncementUI"><rect codeLine="175" fill="#F1F1F1" height="50" id="PublishAnnouncementUI" rx="2.5" ry="2.5" style="stroke:#181818;stroke-width:0.5;" width="268" x="1239.5" y="294.5"/><ellipse cx="1255.5" cy="311.5" fill="#ADD1B2" rx="12" ry="12" style="stroke:#181818;stroke-width:1.0;"/><path d="M1258.3066,318.5801 Q1257.623,318.9316 1256.8711,319.1074 Q1256.1191,319.2832 1255.2891,319.2832 Q1252.3398,319.2832 1250.7871,317.3398 Q1249.2344,315.3965 1249.2344,311.7246 Q1249.2344,308.043 1250.7871,306.0996 Q1252.3398,304.1563 1255.2891,304.1563 Q1256.1191,304.1563 1256.8809,304.332 Q1257.6426,304.5078 1258.3066,304.8594 L1258.3066,308.0625 Q1257.5645,307.3789 1256.8662,307.0615 Q1256.168,306.7441 1255.4258,306.7441 Q1253.8438,306.7441 1253.0381,307.999 Q1252.2324,309.2539 1252.2324,311.7246 Q1252.2324,314.1855 1253.0381,315.4404 Q1253.8438,316.6953 1255.4258,316.6953 Q1256.168,316.6953 1256.8662,316.3779 Q1257.5645,316.0605 1258.3066,315.377 Z " fill="#000000"/><text fill="#000000" font-family="sans-serif" font-size="20" lengthAdjust="spacing" textLength="234" x="1270.5" y="319.0586">PublishAnnouncementUI</text><line style="stroke:#181818;stroke-width:0.5;" x1="1240.5" x2="1506.5" y1="328.5" y2="328.5"/><line style="stroke:#181818;stroke-width:0.5;" x1="1240.5" x2="1506.5" y1="336.5" y2="336.5"/></g><!--class RegisterEmployeeUI--><g id="elem_RegisterEmployeeUI"><rect codeLine="178" fill="#F1F1F1" height="50" id="RegisterEmployeeUI" rx="2.5" ry="2.5" style="stroke:#181818;stroke-width:0.5;" width="225" x="3080" y="294.5"/><ellipse cx="3096" cy="311.5" fill="#ADD1B2" rx="12" ry="12" style="stroke:#181818;stroke-width:1.0;"/><path d="M3098.8066,318.5801 Q3098.123,318.9316 3097.3711,319.1074 Q3096.6191,319.2832 3095.7891,319.2832 Q3092.8398,319.2832 3091.2871,317.3398 Q3089.7344,315.3965 3089.7344,311.7246 Q3089.7344,308.043 3091.2871,306.0996 Q3092.8398,304.1563 3095.7891,304.1563 Q3096.6191,304.1563 3097.3809,304.332 Q3098.1426,304.5078 3098.8066,304.8594 L3098.8066,308.0625 Q3098.0645,307.3789 3097.3662,307.0615 Q3096.668,306.7441 3095.9258,306.7441 Q3094.3438,306.7441 3093.5381,307.999 Q3092.7324,309.2539 3092.7324,311.7246 Q3092.7324,314.1855 3093.5381,315.4404 Q3094.3438,316.6953 3095.9258,316.6953 Q3096.668,316.6953 3097.3662,316.3779 Q3098.0645,316.0605 3098.8066,315.377 Z " fill="#000000"/><text fill="#000000" font-family="sans-serif" font-size="20" lengthAdjust="spacing" textLength="191" x="3111" y="319.0586">RegisterEmployeeUI</text><line style="stroke:#181818;stroke-width:0.5;" x1="3081" x2="3304" y1="328.5" y2="328.5"/><line style="stroke:#181818;stroke-width:0.5;" x1="3081" x2="3304" y1="336.5" y2="336.5"/></g><!--class ShowTextUI--><g id="elem_ShowTextUI"><rect codeLine="181" fill="#F1F1F1" height="50" id="ShowTextUI" rx="2.5" ry="2.5" style="stroke:#181818;stroke-width:0.5;" width="147" x="3839" y="524"/><ellipse cx="3855" cy="541" fill="#ADD1B2" rx="12" ry="12" style="stroke:#181818;stroke-width:1.0;"/><path d="M3857.8066,548.0801 Q3857.123,548.4316 3856.3711,548.6074 Q3855.6191,548.7832 3854.7891,548.7832 Q3851.8398,548.7832 3850.2871,546.8398 Q3848.7344,544.8965 3848.7344,541.2246 Q3848.7344,537.543 3850.2871,535.5996 Q3851.8398,533.6563 3854.7891,533.6563 Q3855.6191,533.6563 3856.3809,533.832 Q3857.1426,534.0078 3857.8066,534.3594 L3857.8066,537.5625 Q3857.0645,536.8789 3856.3662,536.5615 Q3855.668,536.2441 3854.9258,536.2441 Q3853.3438,536.2441 3852.5381,537.499 Q3851.7324,538.7539 3851.7324,541.2246 Q3851.7324,543.6855 3852.5381,544.9404 Q3853.3438,546.1953 3854.9258,546.1953 Q3855.668,546.1953 3856.3662,545.8779 Q3857.0645,545.5605 3857.8066,544.877 Z " fill="#000000"/><text fill="#000000" font-family="sans-serif" font-size="20" lengthAdjust="spacing" textLength="113" x="3870" y="548.5586">ShowTextUI</text><line style="stroke:#181818;stroke-width:0.5;" x1="3840" x2="3985" y1="558" y2="558"/><line style="stroke:#181818;stroke-width:0.5;" x1="3840" x2="3985" y1="566" y2="566"/></g><!--class Role--><g id="elem_Role"><rect fill="#F1F1F1" height="50" id="Role" rx="2.5" ry="2.5" style="stroke:#181818;stroke-width:0.5;" width="76" x="3176.5" y="836"/><ellipse cx="3192.5" cy="853" fill="#ADD1B2" rx="12" ry="12" style="stroke:#181818;stroke-width:1.0;"/><path d="M3195.3066,860.0801 Q3194.623,860.4316 3193.8711,860.6074 Q3193.1191,860.7832 3192.2891,860.7832 Q3189.3398,860.7832 3187.7871,858.8398 Q3186.2344,856.8965 3186.2344,853.2246 Q3186.2344,849.543 3187.7871,847.5996 Q3189.3398,845.6563 3192.2891,845.6563 Q3193.1191,845.6563 3193.8809,845.832 Q3194.6426,846.0078 3195.3066,846.3594 L3195.3066,849.5625 Q3194.5645,848.8789 3193.8662,848.5615 Q3193.168,848.2441 3192.4258,848.2441 Q3190.8438,848.2441 3190.0381,849.499 Q3189.2324,850.7539 3189.2324,853.2246 Q3189.2324,855.6855 3190.0381,856.9404 Q3190.8438,858.1953 3192.4258,858.1953 Q3193.168,858.1953 3193.8662,857.8779 Q3194.5645,857.5605 3195.3066,856.877 Z " fill="#000000"/><text fill="#000000" font-family="sans-serif" font-size="20" lengthAdjust="spacing" textLength="42" x="3207.5" y="860.5586">Role</text><line style="stroke:#181818;stroke-width:0.5;" x1="3177.5" x2="3251.5" y1="870" y2="870"/><line style="stroke:#181818;stroke-width:0.5;" x1="3177.5" x2="3251.5" y1="878" y2="878"/></g><!--reverse link Employee to Agent--><g id="link_Employee_Agent"><path d="M2190.58,906.88 C2175.41,983.14 2145.1,1135.52 2133.33,1194.71 " fill="none" id="Employee-backto-Agent" style="stroke:#181818;stroke-width:1.0;"/><polygon fill="none" points="2183.61,905.99,2194.38,887.74,2197.34,908.72,2183.61,905.99" style="stroke:#181818;stroke-width:1.0;"/></g><!--reverse link Property to Residency--><g id="link_Property_Residency"><path d="M1477.5,1372.65 C1477.5,1420.08 1477.5,1467.15 1477.5,1494.63 " fill="none" id="Property-backto-Residency" style="stroke:#181818;stroke-width:1.0;"/><polygon fill="none" points="1470.5,1372.79,1477.5,1352.79,1484.5,1372.79,1470.5,1372.79" style="stroke:#181818;stroke-width:1.0;"/></g><!--reverse link Residency to Apartment--><g id="link_Residency_Apartment"><path d="M1464.65,1565.98 C1455.61,1597.62 1443.85,1638.78 1436.49,1664.54 " fill="none" id="Residency-backto-Apartment" style="stroke:#181818;stroke-width:1.0;"/><polygon fill="none" points="1457.88,1564.19,1470.1,1546.88,1471.34,1568.04,1457.88,1564.19" style="stroke:#181818;stroke-width:1.0;"/></g><!--reverse link Residency to House--><g id="link_Residency_House"><path d="M1503.42,1563.7 C1522.81,1595.63 1548.63,1638.15 1564.65,1664.54 " fill="none" id="Residency-backto-House" style="stroke:#181818;stroke-width:1.0;"/><polygon fill="none" points="1497.51,1567.45,1493.12,1546.72,1509.48,1560.19,1497.51,1567.45" style="stroke:#181818;stroke-width:1.0;"/></g><!--reverse link Property to Land--><g id="link_Property_Land"><path d="M1548.2,1370.42 C1570.99,1418.59 1593.76,1466.71 1606.97,1494.63 " fill="none" id="Property-backto-Land" style="stroke:#181818;stroke-width:1.0;"/><polygon fill="none" points="1542.01,1373.71,1539.79,1352.64,1554.67,1367.73,1542.01,1373.71" style="stroke:#181818;stroke-width:1.0;"/></g><!--link Repositories to Repositories--><g id="link_Repositories_Repositories"><path codeLine="185" d="M2393.95,304.5 C2414.74,307.08 2428.5,312.08 2428.5,319.5 C2428.5,326.17 2417.39,330.88 2400.06,333.64 " fill="none" id="Repositories-to-Repositories" style="stroke:#181818;stroke-width:1.0;"/><polygon fill="#181818" points="2395.45,334.29,2404.922,336.9885,2400.4006,333.5889,2403.8002,329.0675,2395.45,334.29" style="stroke:#181818;stroke-width:1.0;"/><text fill="#000000" font-family="sans-serif" font-size="20" lengthAdjust="spacing" textLength="89" x="2434.5" y="327.3359">instances</text></g><!--link ListAnnouncementsController to Repositories--><g id="link_ListAnnouncementsController_Repositories"><path codeLine="186" d="M1824.2,198.43 C1948.91,230.81 2057.5,259 2057.5,259 C2057.5,259 2061.79,260.44 2069.03,262.88 " fill="none" id="ListAnnouncementsController-to-Repositories" style="stroke:#181818;stroke-width:1.0;stroke-dasharray:7.0,7.0;"/><polygon fill="#181818" points="2073.68,264.44,2066.4128,257.7926,2068.938,262.8546,2063.8761,265.3798,2073.68,264.44" style="stroke:#181818;stroke-width:1.0;"/></g><!--link ListAnouncementsUI to ListAnnouncementsController--><g id="link_ListAnouncementsUI_ListAnnouncementsController"><path codeLine="187" d="M862.41,102.5 C871.32,102.5 880.64,102.5 890.22,102.5 " fill="none" id="ListAnouncementsUI-to-ListAnnouncementsController" style="stroke:#181818;stroke-width:1.0;stroke-dasharray:7.0,7.0;"/><polygon fill="#181818" points="895.04,102.5,886.04,98.5,890.04,102.5,886.04,106.5,895.04,102.5" style="stroke:#181818;stroke-width:1.0;"/></g><!--link AuthenticationUI to AuthenticationController--><g id="link_AuthenticationUI_AuthenticationController"><path codeLine="188" d="M2741.35,319.5 C2748.09,319.5 2758.27,319.5 2769.15,319.5 " fill="none" id="AuthenticationUI-to-AuthenticationController" style="stroke:#181818;stroke-width:1.0;stroke-dasharray:7.0,7.0;"/><polygon fill="#181818" points="2774.1,319.5,2765.1,315.5,2769.1,319.5,2765.1,323.5,2774.1,319.5" style="stroke:#181818;stroke-width:1.0;"/></g><!--link CreateRequestUI to CreateRequestController--><g id="link_CreateRequestUI_CreateRequestController"><path codeLine="189" d="M1736.35,319.5 C1743.09,319.5 1753.27,319.5 1764.15,319.5 " fill="none" id="CreateRequestUI-to-CreateRequestController" style="stroke:#181818;stroke-width:1.0;stroke-dasharray:7.0,7.0;"/><polygon fill="#181818" points="1769.1,319.5,1760.1,315.5,1764.1,319.5,1760.1,323.5,1769.1,319.5" style="stroke:#181818;stroke-width:1.0;"/></g><!--link PublishAnnouncementUI to PublishAnnouncementController--><g id="link_PublishAnnouncementUI_PublishAnnouncementController"><path codeLine="190" d="M1239.04,319.5 C1237.18,319.5 1236.17,319.5 1236.17,319.5 C1236.17,319.5 1180.63,319.5 1140.19,319.5 " fill="none" id="PublishAnnouncementUI-to-PublishAnnouncementController" style="stroke:#181818;stroke-width:1.0;stroke-dasharray:7.0,7.0;"/><polygon fill="#181818" points="1135.36,319.5,1144.36,323.5,1140.36,319.5,1144.36,315.5,1135.36,319.5" style="stroke:#181818;stroke-width:1.0;"/></g><!--link RegisterEmployeeUI to RegisterEmployeeController--><g id="link_RegisterEmployeeUI_RegisterEmployeeController"><path codeLine="191" d="M3305.23,319.5 C3312.84,319.5 3322.96,319.5 3333.57,319.5 " fill="none" id="RegisterEmployeeUI-to-RegisterEmployeeController" style="stroke:#181818;stroke-width:1.0;stroke-dasharray:7.0,7.0;"/><polygon fill="#181818" points="3338.35,319.5,3329.35,315.5,3333.35,319.5,3329.35,323.5,3338.35,319.5" style="stroke:#181818;stroke-width:1.0;"/></g><!--link Repositories to AnnouncementRepository--><g id="link_Repositories_AnnouncementRepository"><path codeLine="192" d="M2075.12,374.08 C2064.25,377.73 2057.5,380 2057.5,380 C2057.5,380 1856.15,421.51 1653.61,463.26 " fill="none" id="Repositories-to-AnnouncementRepository" style="stroke:#181818;stroke-width:1.0;"/><polygon fill="#181818" points="1648.8,464.25,1658.424,466.3427,1653.6962,463.2365,1656.8024,458.5087,1648.8,464.25" style="stroke:#181818;stroke-width:1.0;"/><text fill="#000000" font-family="sans-serif" font-size="20" lengthAdjust="spacing" textLength="33" x="1903.5" y="430.3359">has</text><text fill="#000000" font-family="sans-serif" font-size="20" lengthAdjust="spacing" textLength="13" x="2054.6036" y="372.3882">1</text><text fill="#000000" font-family="sans-serif" font-size="20" lengthAdjust="spacing" textLength="13" x="1668.5398" y="452.6738">1</text></g><!--link Repositories to AgencyListRepository--><g id="link_Repositories_AgencyListRepository"><path codeLine="193" d="M2170.64,380.43 C2141.12,408.14 2112.5,435 2112.5,435 C2112.5,435 2045.49,486.51 2001.96,519.97 " fill="none" id="Repositories-to-AgencyListRepository" style="stroke:#181818;stroke-width:1.0;"/><polygon fill="#181818" points="1998.24,522.84,2007.8117,520.5198,2002.2021,519.7901,2002.9318,514.1805,1998.24,522.84" style="stroke:#181818;stroke-width:1.0;"/><text fill="#000000" font-family="sans-serif" font-size="20" lengthAdjust="spacing" textLength="33" x="2140.5" y="430.3359">has</text><text fill="#000000" font-family="sans-serif" font-size="20" lengthAdjust="spacing" textLength="13" x="2150.7139" y="406.9396">1</text><text fill="#000000" font-family="sans-serif" font-size="20" lengthAdjust="spacing" textLength="13" x="1989.8305" y="511.6639">1</text></g><!--link Repositories to AuthenticationRepository--><g id="link_Repositories_AuthenticationRepository"><path codeLine="194" d="M2393.85,374.13 C2531.76,420.54 2725.37,485.7 2832.13,521.62 " fill="none" id="Repositories-to-AuthenticationRepository" style="stroke:#181818;stroke-width:1.0;"/><polygon fill="#181818" points="2836.65,523.15,2829.4008,516.483,2831.9123,521.5517,2826.8436,524.0633,2836.65,523.15" style="stroke:#181818;stroke-width:1.0;"/><text fill="#000000" font-family="sans-serif" font-size="20" lengthAdjust="spacing" textLength="33" x="2573.5" y="430.3359">has</text><text fill="#000000" font-family="sans-serif" font-size="20" lengthAdjust="spacing" textLength="13" x="2401.3651" y="372.4404">1</text><text fill="#000000" font-family="sans-serif" font-size="20" lengthAdjust="spacing" textLength="13" x="2807.8284" y="511.9613">1</text></g><!--link Repositories to EmployeeRepository--><g id="link_Repositories_EmployeeRepository"><path codeLine="195" d="M2234.5,380.27 C2234.5,424.27 2234.5,482.29 2234.5,517.28 " fill="none" id="Repositories-to-EmployeeRepository" style="stroke:#181818;stroke-width:1.0;"/><polygon fill="#181818" points="2234.5,522.03,2238.5,513.03,2234.5,517.03,2230.5,513.03,2234.5,522.03" style="stroke:#181818;stroke-width:1.0;"/><text fill="#000000" font-family="sans-serif" font-size="20" lengthAdjust="spacing" textLength="33" x="2235.5" y="430.3359">has</text><text fill="#000000" font-family="sans-serif" font-size="20" lengthAdjust="spacing" textLength="13" x="2220.8297" y="407.1047">1</text><text fill="#000000" font-family="sans-serif" font-size="20" lengthAdjust="spacing" textLength="13" x="2220.0781" y="511.8516">1</text></g><!--link Repositories to RoleRepository--><g id="link_Repositories_RoleRepository"><path codeLine="196" d="M2393.76,352.51 C2463.82,366.6 2530.5,380 2530.5,380 C2530.5,380 3065.5,465 3065.5,465 C3065.5,465 3121.74,496.33 3165.11,520.49 " fill="none" id="Repositories-to-RoleRepository" style="stroke:#181818;stroke-width:1.0;"/><polygon fill="#181818" points="3169.28,522.81,3163.3552,514.9426,3164.9092,520.3818,3159.47,521.9358,3169.28,522.81" style="stroke:#181818;stroke-width:1.0;"/><text fill="#000000" font-family="sans-serif" font-size="20" lengthAdjust="spacing" textLength="33" x="2863.5" y="430.3359">has</text><text fill="#000000" font-family="sans-serif" font-size="20" lengthAdjust="spacing" textLength="13" x="2401.271" y="349.8408">1</text><text fill="#000000" font-family="sans-serif" font-size="20" lengthAdjust="spacing" textLength="13" x="3146.575" y="511.8638">1</text></g><!--link ListAnnouncementsController to AnnouncementRepository--><g id="link_ListAnnouncementsController_AnnouncementRepository"><path codeLine="197" d="M1313.81,198.43 C1264.47,230.81 1221.5,259 1221.5,259 C1221.5,259 1221.5,380 1221.5,380 C1221.5,380 1226.3,418.44 1231.32,458.54 " fill="none" id="ListAnnouncementsController-to-AnnouncementRepository" style="stroke:#181818;stroke-width:1.0;stroke-dasharray:7.0,7.0;"/><polygon fill="#181818" points="1231.94,463.48,1234.7761,454.0483,1231.311,458.5197,1226.8396,455.0547,1231.94,463.48" style="stroke:#181818;stroke-width:1.0;"/></g><!--link CreateRequestController to AnnouncementRepository--><g id="link_CreateRequestController_AnnouncementRepository"><path codeLine="198" d="M1843.24,344.87 C1801.26,361.3 1753.5,380 1753.5,380 C1753.5,380 1628.5,421.1 1502.15,462.64 " fill="none" id="CreateRequestController-to-AnnouncementRepository" style="stroke:#181818;stroke-width:1.0;stroke-dasharray:7.0,7.0;"/><polygon fill="#181818" points="1497.57,464.14,1507.3687,465.133,1502.3205,462.5803,1504.8732,457.5322,1497.57,464.14" style="stroke:#181818;stroke-width:1.0;"/></g><!--link CreateRequestController to AgencyListRepository--><g id="link_CreateRequestController_AgencyListRepository"><path codeLine="199" d="M1911.92,344.85 C1922.95,386.67 1945.47,472.04 1957.5,517.66 " fill="none" id="CreateRequestController-to-AgencyListRepository" style="stroke:#181818;stroke-width:1.0;stroke-dasharray:7.0,7.0;"/><polygon fill="#181818" points="1958.74,522.37,1960.2967,512.6449,1957.457,517.5374,1952.5645,514.6977,1958.74,522.37" style="stroke:#181818;stroke-width:1.0;"/></g><!--link CreateRequestController to EmployeeRepository--><g id="link_CreateRequestController_EmployeeRepository"><path codeLine="200" d="M1931.16,344.78 C1966.68,378.39 2026.5,435 2026.5,435 C2026.5,435 2102.5,465 2102.5,465 C2102.5,465 2152.12,496.2 2190.51,520.34 " fill="none" id="CreateRequestController-to-EmployeeRepository" style="stroke:#181818;stroke-width:1.0;stroke-dasharray:7.0,7.0;"/><polygon fill="#181818" points="2194.33,522.74,2188.8576,514.5514,2190.1029,520.0695,2184.5848,521.3148,2194.33,522.74" style="stroke:#181818;stroke-width:1.0;"/></g><!--link PublishAnnouncementController to AnnouncementRepository--><g id="link_PublishAnnouncementController_AnnouncementRepository"><path codeLine="201" d="M991.57,344.85 C1025.66,372.44 1083.16,419 1134.53,460.59 " fill="none" id="PublishAnnouncementController-to-AnnouncementRepository" style="stroke:#181818;stroke-width:1.0;stroke-dasharray:7.0,7.0;"/><polygon fill="#181818" points="1138.3,463.64,1133.8179,454.8701,1134.4124,460.4957,1128.7869,461.0902,1138.3,463.64" style="stroke:#181818;stroke-width:1.0;"/></g><!--link RegisterEmployeeController to EmployeeRepository--><g id="link_RegisterEmployeeController_EmployeeRepository"><path codeLine="202" d="M3421.68,344.87 C3375.29,361.3 3322.5,380 3322.5,380 C3322.5,380 2755.5,465 2755.5,465 C2755.5,465 2509.77,504.15 2355.83,528.67 " fill="none" id="RegisterEmployeeController-to-EmployeeRepository" style="stroke:#181818;stroke-width:1.0;stroke-dasharray:7.0,7.0;"/><polygon fill="#181818" points="2350.98,529.44,2360.4964,531.9775,2355.918,528.6551,2359.2404,524.0767,2350.98,529.44" style="stroke:#181818;stroke-width:1.0;"/></g><!--link RegisterEmployeeController to RoleRepository--><g id="link_RegisterEmployeeController_RoleRepository"><path codeLine="203" d="M3460.96,344.85 C3409.4,387.35 3303.25,474.85 3248.63,519.87 " fill="none" id="RegisterEmployeeController-to-RoleRepository" style="stroke:#181818;stroke-width:1.0;stroke-dasharray:7.0,7.0;"/><polygon fill="#181818" points="3244.99,522.87,3254.4823,520.2438,3248.8521,519.6945,3249.4014,514.0643,3244.99,522.87" style="stroke:#181818;stroke-width:1.0;"/></g><!--link RegisterEmployeeController to PasswordGenerator--><g id="link_RegisterEmployeeController_PasswordGenerator"><path codeLine="204" d="M3490.5,344.85 C3490.5,386.58 3490.5,471.69 3490.5,517.38 " fill="none" id="RegisterEmployeeController-to-PasswordGenerator" style="stroke:#181818;stroke-width:1.0;stroke-dasharray:7.0,7.0;"/><polygon fill="#181818" points="3490.5,522.32,3494.5257,513.3315,3490.5143,517.32,3486.5257,513.3086,3490.5,522.32" style="stroke:#181818;stroke-width:1.0;"/></g><!--link RegisterEmployeeController to AuthenticationRepository--><g id="link_RegisterEmployeeController_AuthenticationRepository"><path codeLine="205" d="M3425.96,344.85 C3316.81,386.03 3107.5,465 3107.5,465 C3107.5,465 3031.93,496.84 2974.4,521.08 " fill="none" id="RegisterEmployeeController-to-AuthenticationRepository" style="stroke:#181818;stroke-width:1.0;stroke-dasharray:7.0,7.0;"/><polygon fill="#181818" points="2969.94,522.96,2979.7869,523.154,2974.5482,521.0197,2976.6825,515.7809,2969.94,522.96" style="stroke:#181818;stroke-width:1.0;"/></g><!--link AuthenticationController to AuthenticationRepository--><g id="link_AuthenticationController_AuthenticationRepository"><path codeLine="206" d="M2910.5,344.85 C2910.5,386.58 2910.5,471.69 2910.5,517.38 " fill="none" id="AuthenticationController-to-AuthenticationRepository" style="stroke:#181818;stroke-width:1.0;stroke-dasharray:7.0,7.0;"/><polygon fill="#181818" points="2910.5,522.32,2914.5257,513.3315,2910.5143,517.32,2906.5257,513.3086,2910.5,522.32" style="stroke:#181818;stroke-width:1.0;"/></g><!--link EmployeeRepository to Employee--><g id="link_EmployeeRepository_Employee"><path codeLine="207" d="M2231.75,574.33 C2225.44,630.24 2209.91,767.82 2202.96,829.37 " fill="none" id="EmployeeRepository-to-Employee" style="stroke:#181818;stroke-width:1.0;"/><polygon fill="#181818" points="2202.4,834.28,2207.3802,825.7831,2202.9584,829.3113,2199.4302,824.8896,2202.4,834.28" style="stroke:#181818;stroke-width:1.0;"/><text fill="#000000" font-family="sans-serif" font-size="20" lengthAdjust="spacing" textLength="33" x="2222.5" y="683.3359">has</text><text fill="#000000" font-family="sans-serif" font-size="20" lengthAdjust="spacing" textLength="13" x="2216.8422" y="601.3193">1</text><text fill="#000000" font-family="sans-serif" font-size="20" lengthAdjust="spacing" textLength="10" x="2191.7051" y="823.7009">*</text></g><!--link AgencyListRepository to Agency--><g id="link_AgencyListRepository_Agency"><path codeLine="208" d="M1965.5,574.33 C1965.5,630.24 1965.5,767.82 1965.5,829.37 " fill="none" id="AgencyListRepository-to-Agency" style="stroke:#181818;stroke-width:1.0;"/><polygon fill="#181818" points="1965.5,834.27,1969.5,825.27,1965.5,829.27,1961.5,825.27,1965.5,834.27" style="stroke:#181818;stroke-width:1.0;"/><text fill="#000000" font-family="sans-serif" font-size="20" lengthAdjust="spacing" textLength="33" x="1966.5" y="683.3359">has</text><text fill="#000000" font-family="sans-serif" font-size="20" lengthAdjust="spacing" textLength="13" x="1951.1594" y="601.3193">1</text><text fill="#000000" font-family="sans-serif" font-size="20" lengthAdjust="spacing" textLength="10" x="1954.3438" y="823.7009">*</text></g><!--link RoleRepository to Role--><g id="link_RoleRepository_Role"><path codeLine="209" d="M3214.5,574.33 C3214.5,630.24 3214.5,767.82 3214.5,829.37 " fill="none" id="RoleRepository-to-Role" style="stroke:#181818;stroke-width:1.0;"/><polygon fill="#181818" points="3214.5,834.27,3218.5,825.27,3214.5,829.27,3210.5,825.27,3214.5,834.27" style="stroke:#181818;stroke-width:1.0;"/><text fill="#000000" font-family="sans-serif" font-size="20" lengthAdjust="spacing" textLength="33" x="3215.5" y="683.3359">has</text><text fill="#000000" font-family="sans-serif" font-size="20" lengthAdjust="spacing" textLength="13" x="3200.1594" y="601.3193">1</text><text fill="#000000" font-family="sans-serif" font-size="20" lengthAdjust="spacing" textLength="10" x="3203.3438" y="823.7009">*</text></g><!--link Announcement to Property--><g id="link_Announcement_Property"><path codeLine="210" d="M1477.5,1004.38 C1477.5,1030 1477.5,1056.65 1477.5,1082.11 " fill="none" id="Announcement-to-Property" style="stroke:#181818;stroke-width:1.0;"/><polygon fill="#181818" points="1477.5,1087.04,1481.5,1078.04,1477.5,1082.04,1473.5,1078.04,1477.5,1087.04" style="stroke:#181818;stroke-width:1.0;"/><text fill="#000000" font-family="sans-serif" font-size="20" lengthAdjust="spacing" textLength="33" x="1478.5" y="1054.3359">has</text><text fill="#000000" font-family="sans-serif" font-size="20" lengthAdjust="spacing" textLength="13" x="1464.2055" y="1030.7568">1</text><text fill="#000000" font-family="sans-serif" font-size="20" lengthAdjust="spacing" textLength="13" x="1464.1242" y="1076.6379">1</text></g><!--link Announcement to Photo--><g id="link_Announcement_Photo"><path codeLine="211" d="M1648.89,972.84 C1737.99,1030.46 1828.5,1089 1828.5,1089 C1828.5,1089 1857.91,1150.67 1876.22,1189.06 " fill="none" id="Announcement-to-Photo" style="stroke:#181818;stroke-width:1.0;"/><polygon fill="#181818" points="1878.19,1193.18,1877.9441,1183.3342,1876.0459,1188.6631,1870.717,1186.7648,1878.19,1193.18" style="stroke:#181818;stroke-width:1.0;"/><text fill="#000000" font-family="sans-serif" font-size="20" lengthAdjust="spacing" textLength="33" x="1779.5" y="1054.3359">has</text><text fill="#000000" font-family="sans-serif" font-size="20" lengthAdjust="spacing" textLength="13" x="1656.3947" y="973.4303">1</text><text fill="#000000" font-family="sans-serif" font-size="20" lengthAdjust="spacing" textLength="10" x="1865.1956" y="1182.8638">*</text></g><!--link Announcement to Commission--><g id="link_Announcement_Commission"><path codeLine="212" d="M1580,1004.38 C1629.27,1072.82 1683.86,1148.65 1713.14,1189.33 " fill="none" id="Announcement-to-Commission" style="stroke:#181818;stroke-width:1.0;"/><polygon fill="#181818" points="1716.04,1193.36,1714.0158,1183.7214,1713.1136,1189.3059,1707.5291,1188.4037,1716.04,1193.36" style="stroke:#181818;stroke-width:1.0;"/><text fill="#000000" font-family="sans-serif" font-size="20" lengthAdjust="spacing" textLength="33" x="1615.5" y="1054.3359">has</text><text fill="#000000" font-family="sans-serif" font-size="20" lengthAdjust="spacing" textLength="13" x="1571.35" y="1030.7568">1</text><text fill="#000000" font-family="sans-serif" font-size="20" lengthAdjust="spacing" textLength="13" x="1698.6647" y="1182.9125">1</text></g><!--link Announcement to TransactionType--><g id="link_Announcement_TransactionType"><path codeLine="213" d="M1367.03,1004.38 C1322.83,1061.33 1274.67,1123.41 1241.56,1166.08 " fill="none" id="Announcement-to-TransactionType" style="stroke:#181818;stroke-width:1.0;"/><polygon fill="#181818" points="1238.53,1169.99,1247.2059,1165.3285,1241.5938,1166.0386,1240.8836,1160.4265,1238.53,1169.99" style="stroke:#181818;stroke-width:1.0;"/><text fill="#000000" font-family="sans-serif" font-size="20" lengthAdjust="spacing" textLength="33" x="1340.5" y="1054.3359">has</text><text fill="#000000" font-family="sans-serif" font-size="20" lengthAdjust="spacing" textLength="13" x="1348.7298" y="1030.7568">1</text><text fill="#000000" font-family="sans-serif" font-size="20" lengthAdjust="spacing" textLength="13" x="1228.7119" y="1159.4517">1</text></g><!--link Announcement to TypeOfProperty--><g id="link_Announcement_TypeOfProperty"><path codeLine="214" d="M1306,961.57 C1200.94,1022.56 1086.5,1089 1086.5,1089 C1086.5,1089 1058.71,1121.84 1031.07,1154.51 " fill="none" id="Announcement-to-TypeOfProperty" style="stroke:#181818;stroke-width:1.0;"/><polygon fill="#181818" points="1027.97,1158.17,1036.8298,1153.8684,1031.1933,1154.3477,1030.7141,1148.7111,1027.97,1158.17" style="stroke:#181818;stroke-width:1.0;"/><text fill="#000000" font-family="sans-serif" font-size="20" lengthAdjust="spacing" textLength="33" x="1182.5" y="1054.3359">has</text><text fill="#000000" font-family="sans-serif" font-size="20" lengthAdjust="spacing" textLength="13" x="1285.4906" y="961.6848">1</text><text fill="#000000" font-family="sans-serif" font-size="20" lengthAdjust="spacing" textLength="13" x="1019.0763" y="1147.3728">1</text></g><!--link House to SunExposure--><g id="link_House_SunExposure"><path codeLine="215" d="M1579.5,1715.28 C1579.5,1735.44 1579.5,1765.28 1579.5,1793.45 " fill="none" id="House-to-SunExposure" style="stroke:#181818;stroke-width:1.0;"/><polygon fill="#181818" points="1579.5,1798.3,1583.5,1789.3,1579.5,1793.3,1575.5,1789.3,1579.5,1798.3" style="stroke:#181818;stroke-width:1.0;"/><text fill="#000000" font-family="sans-serif" font-size="20" lengthAdjust="spacing" textLength="33" x="1580.5" y="1765.3359">has</text><text fill="#000000" font-family="sans-serif" font-size="20" lengthAdjust="spacing" textLength="13" x="1565.1594" y="1742.259">1</text><text fill="#000000" font-family="sans-serif" font-size="20" lengthAdjust="spacing" textLength="13" x="1565.8297" y="1787.5327">1</text></g><!--link Announcement to Agent--><g id="link_Announcement_Agent"><path codeLine="216" d="M1648.96,944.11 C1784.67,1009.11 1951.5,1089 1951.5,1089 C1951.5,1089 2037.9,1152.46 2089.97,1190.7 " fill="none" id="Announcement-to-Agent" style="stroke:#181818;stroke-width:1.0;stroke-dasharray:7.0,7.0;"/><polygon fill="#181818" points="2093.99,1193.65,2089.1018,1185.0999,2089.9593,1190.6913,2084.3679,1191.5489,2093.99,1193.65" style="stroke:#181818;stroke-width:1.0;"/></g><!--link AnnouncementRepository to Announcement--><g id="link_AnnouncementRepository_Announcement"><path codeLine="217" d="M1305.78,633.48 C1324.34,657.96 1345.21,685.49 1365.84,712.7 " fill="none" id="AnnouncementRepository-to-Announcement" style="stroke:#181818;stroke-width:1.0;"/><polygon fill="#181818" points="1368.77,716.57,1366.515,706.9828,1365.7471,712.5873,1360.1426,711.8194,1368.77,716.57" style="stroke:#181818;stroke-width:1.0;"/><text fill="#000000" font-family="sans-serif" font-size="20" lengthAdjust="spacing" textLength="33" x="1347.5" y="683.3359">has</text><text fill="#000000" font-family="sans-serif" font-size="20" lengthAdjust="spacing" textLength="13" x="1297.1272" y="660.1943">1</text><text fill="#000000" font-family="sans-serif" font-size="20" lengthAdjust="spacing" textLength="10" x="1353.5102" y="705.6822">*</text></g><!--link Property to Address--><g id="link_Property_Address"><path codeLine="218" d="M1400.12,1351.27 C1384.3,1377.92 1367.99,1405.38 1353.27,1430.16 " fill="none" id="Property-to-Address" style="stroke:#181818;stroke-width:1.0;"/><polygon fill="#181818" points="1350.73,1434.44,1358.7542,1428.7293,1353.2751,1430.1362,1351.8681,1424.6571,1350.73,1434.44" style="stroke:#181818;stroke-width:1.0;"/><text fill="#000000" font-family="sans-serif" font-size="20" lengthAdjust="spacing" textLength="33" x="1379.5" y="1401.3359">has</text><text fill="#000000" font-family="sans-serif" font-size="20" lengthAdjust="spacing" textLength="13" x="1382.5328" y="1378.4291">1</text><text fill="#000000" font-family="sans-serif" font-size="20" lengthAdjust="spacing" textLength="13" x="1340.641" y="1423.8801">1</text></g><!--SRC=[rLXBR-Cs4BxpLn1xsRGRBxOzBee5NDjf32InuGTwwOMMnZOHYLH9gbbliF-zGr4FKjQZM6nHD8T8cldcFPnXef-vo9XYQIAZPuXf34UM9-PE2hFbNu3-_86yrHM6fbB8wAna2jIe74Z3oLZqp4wmDPS4g8B8C75AV80-irY-S76YHvPedvDm0UQI0SraSh4VliMQAPMHn9EA4gRrr1Z53xc1PIH5uUy7GjucS3JKIAhuwMnepAqxN992WgwLp42PookXnS-4nZ8_eDDC0MlJOguna0ZkCEGP20EgZSWKZw0cJkDO0HfXxbdItz4Jc99ryqD0H9iXPNvbCUIlhJsFPEGMKo1EIFfAoX2dGiWSTQGeJuiu9tI7ELmTg-2f2JvBY692CvigOT5OuU3RWURCOD0OEjTd- -weCvbohH58e-hDCQPAiSi3nlJB-YoD_4Gp-z2EUP0o0IOerskd46B7uEWt3zvd652P_J8DpdENYV4qR22JcXkfBYuXz9tDVfBu6Bt57eFuryiSZZbBp4nnDCch0Wr9s6SDTvvGxT5kQKcKAWRLwBlZ2V8X3fJU3DRgTgnEjqNAH9uUGAsE6obJtMKmThv_Lyj_Y6lRTUX3-QXhLjU9WwugvTEyMYo5Eob-UJehxlU4RSKWv1aEEYMJ15Hfhb7KeOT-M-jyzzuPQ9v_ftV-5ytZYjjuj5zMBHIT8NfUYYmtrjHDsxMhBBISyArtTzj_5ttbJTF8mGnqMyUbOLBhCmh0XBI8kptGKEpomsrZshBbr2zdynUUpMGCZSaPxZG36_Wp1-rvzTeWocdlvwyJju4JkW1gaMQ9l01qWgQvEQC27Z6Roqx8NeFQGh6LVC4JYEZI8XWAdms8MDFAgEztVNL04ZjWTh20jF9LyzWgh1K4wD82NbrCwbkfnJpKlSmr328Uc8Y7xE0wBhUmHxG1NMGO4FvwmJxw3GGeXZFEvzb5tHMfpMP11spMrht2zTbqFTti7XTFk-BhVhNVBegtX-dJl14C3u2Jt5H2s-d3eePkSx7uZ5CuLoNiQRNPtJlSQb- -BQPR9_hx0bzQLRQJeHdalTtJ2QaQePEvmHlCFr2yN_giEEKXPPPmn0Qaocf0V6HSF69AGY8IbWRIrvuZ683dyDSEM1hGEevZm6yVmu2vFSkN7RPYIIJ10fzy2XVwHvmORcbhChI9txyF1Kd7P4V8W0hIph_5zuqAqigNnVPCCTAPB2imEDJ8TGvf4MFVW0lp-EQdDtI2oRJFdbljHtfcUa2gunYColISZJ6vwmCp9X6UeX8zrY3TYI0zXVjcaOx43GfSHqy6MsF8iVx-w3Cr8X4cUWnzjHx61FewXlITl66fZaQgk-R7fi_AVkbiSH_l05KlXYtduoohqkd_9UrtR7tF6yAXhcABZYbhrlKOidsB78E7TrA7TjSB7-RjrowDrJ4mf6Vs14ds9PsosdumNCh_b3W88Ny3]--></g></svg>