<?xml version="1.0" encoding="UTF-8" standalone="no"?><svg xmlns="http://www.w3.org/2000/svg" xmlns:xlink="http://www.w3.org/1999/xlink" contentStyleType="text/css" height="807px" preserveAspectRatio="none" style="width:765px;height:807px;background:#FFFFFF;" version="1.1" viewBox="0 0 765 807" width="765px" zoomAndPan="magnify"><defs/><g><text fill="#000000" font-family="sans-serif" font-size="14" font-weight="bold" lengthAdjust="spacing" textLength="231" x="268.25" y="28.5352">System Sequence Diagram (SSD)</text><rect fill="#FFFFFF" height="574.4297" style="stroke:#181818;stroke-width:1.0;" width="10" x="121.5" y="136.043"/><rect fill="#FFFFFF" height="61.1094" style="stroke:#181818;stroke-width:1.0;" width="10" x="699.5" y="165.5977"/><rect fill="#FFFFFF" height="37.5547" style="stroke:#181818;stroke-width:1.0;" width="10" x="699.5" y="264.2617"/><rect fill="#FFFFFF" height="37.5547" style="stroke:#181818;stroke-width:1.0;" width="10" x="699.5" y="380.4805"/><rect fill="#FFFFFF" height="37.5547" style="stroke:#181818;stroke-width:1.0;" width="10" x="699.5" y="481.1445"/><rect fill="#FFFFFF" height="37.5547" style="stroke:#181818;stroke-width:1.0;" width="10" x="699.5" y="581.8086"/><rect fill="#FFFFFF" height="37.5547" style="stroke:#181818;stroke-width:1.0;" width="10" x="699.5" y="663.918"/><rect fill="none" height="310.5469" style="stroke:#000000;stroke-width:1.5;" width="748.5" x="10" y="316.8164"/><line style="stroke:#181818;stroke-width:0.5;stroke-dasharray:5.0,5.0;" x1="126" x2="126" y1="126.043" y2="719.4727"/><line style="stroke:#181818;stroke-width:0.5;stroke-dasharray:5.0,5.0;" x1="704.5" x2="704.5" y1="126.043" y2="719.4727"/><text fill="#000000" font-family="sans-serif" font-size="20" lengthAdjust="spacing" textLength="207" x="20" y="121.8242">System Administrator</text><ellipse cx="126.5" cy="50.9883" fill="#E3E3E3" rx="8" ry="8" style="stroke:#181818;stroke-width:0.5;"/><path d="M126.5,58.9883 L126.5,85.9883 M113.5,66.9883 L139.5,66.9883 M126.5,85.9883 L113.5,100.9883 M126.5,85.9883 L139.5,100.9883 " fill="none" style="stroke:#181818;stroke-width:0.5;"/><text fill="#000000" font-family="sans-serif" font-size="20" lengthAdjust="spacing" textLength="207" x="20" y="737.8086">System Administrator</text><ellipse cx="126.5" cy="750.5273" fill="#E3E3E3" rx="8" ry="8" style="stroke:#181818;stroke-width:0.5;"/><path d="M126.5,758.5273 L126.5,785.5273 M113.5,766.5273 L139.5,766.5273 M126.5,785.5273 L113.5,800.5273 M126.5,785.5273 L139.5,800.5273 " fill="none" style="stroke:#181818;stroke-width:0.5;"/><rect fill="#E3E3E3" height="37.5547" rx="2.5" ry="2.5" style="stroke:#181818;stroke-width:0.5;" width="88" x="660.5" y="87.4883"/><text fill="#000000" font-family="sans-serif" font-size="20" lengthAdjust="spacing" textLength="74" x="667.5" y="113.8242">:System</text><rect fill="#E3E3E3" height="37.5547" rx="2.5" ry="2.5" style="stroke:#181818;stroke-width:0.5;" width="88" x="660.5" y="718.4727"/><text fill="#000000" font-family="sans-serif" font-size="20" lengthAdjust="spacing" textLength="74" x="667.5" y="744.8086">:System</text><rect fill="#FFFFFF" height="574.4297" style="stroke:#181818;stroke-width:1.0;" width="10" x="121.5" y="136.043"/><rect fill="#FFFFFF" height="61.1094" style="stroke:#181818;stroke-width:1.0;" width="10" x="699.5" y="165.5977"/><rect fill="#FFFFFF" height="37.5547" style="stroke:#181818;stroke-width:1.0;" width="10" x="699.5" y="264.2617"/><rect fill="#FFFFFF" height="37.5547" style="stroke:#181818;stroke-width:1.0;" width="10" x="699.5" y="380.4805"/><rect fill="#FFFFFF" height="37.5547" style="stroke:#181818;stroke-width:1.0;" width="10" x="699.5" y="481.1445"/><rect fill="#FFFFFF" height="37.5547" style="stroke:#181818;stroke-width:1.0;" width="10" x="699.5" y="581.8086"/><rect fill="#FFFFFF" height="37.5547" style="stroke:#181818;stroke-width:1.0;" width="10" x="699.5" y="663.918"/><polygon fill="#181818" points="687.5,161.5977,697.5,165.5977,687.5,169.5977,691.5,165.5977" style="stroke:#181818;stroke-width:1.0;"/><line style="stroke:#181818;stroke-width:1.0;" x1="131.5" x2="693.5" y1="165.5977" y2="165.5977"/><text fill="#000000" font-family="sans-serif" font-size="20" font-weight="bold" lengthAdjust="spacing" textLength="13" x="138.5" y="159.3789">1</text><text fill="#000000" font-family="sans-serif" font-size="20" lengthAdjust="spacing" textLength="267" x="155.5" y="159.3789">requests to import a csv file</text><polygon fill="#181818" points="142.5,222.707,132.5,226.707,142.5,230.707,138.5,226.707" style="stroke:#181818;stroke-width:1.0;"/><line style="stroke:#181818;stroke-width:1.0;stroke-dasharray:2.0,2.0;" x1="136.5" x2="703.5" y1="226.707" y2="226.707"/><text fill="#000000" font-family="sans-serif" font-size="20" font-weight="bold" lengthAdjust="spacing" textLength="13" x="148.5" y="208.7109">2</text><text fill="#000000" font-family="sans-serif" font-size="20" lengthAdjust="spacing" textLength="527" x="165.5" y="196.9336">lists types of data to import (Agents, Agencies, Orders)</text><text fill="#000000" font-family="sans-serif" font-size="20" lengthAdjust="spacing" textLength="212" x="171.5" y="220.4883">and asks to select one</text><polygon fill="#181818" points="687.5,260.2617,697.5,264.2617,687.5,268.2617,691.5,264.2617" style="stroke:#181818;stroke-width:1.0;"/><line style="stroke:#181818;stroke-width:1.0;" x1="131.5" x2="693.5" y1="264.2617" y2="264.2617"/><text fill="#000000" font-family="sans-serif" font-size="20" font-weight="bold" lengthAdjust="spacing" textLength="13" x="138.5" y="258.043">3</text><text fill="#000000" font-family="sans-serif" font-size="20" lengthAdjust="spacing" textLength="298" x="155.5" y="258.043">selects a type of data to import</text><polygon fill="#181818" points="142.5,297.8164,132.5,301.8164,142.5,305.8164,138.5,301.8164" style="stroke:#181818;stroke-width:1.0;"/><line style="stroke:#181818;stroke-width:1.0;stroke-dasharray:2.0,2.0;" x1="136.5" x2="703.5" y1="301.8164" y2="301.8164"/><text fill="#000000" font-family="sans-serif" font-size="20" font-weight="bold" lengthAdjust="spacing" textLength="13" x="148.5" y="295.5977">4</text><text fill="#000000" font-family="sans-serif" font-size="20" lengthAdjust="spacing" textLength="321" x="165.5" y="295.5977">requests to insert csv file location</text><path d="M10,316.8164 L82,316.8164 L82,332.3711 L72,342.3711 L10,342.3711 L10,316.8164 " fill="#EEEEEE" style="stroke:#000000;stroke-width:1.5;"/><rect fill="none" height="310.5469" style="stroke:#000000;stroke-width:1.5;" width="748.5" x="10" y="316.8164"/><text fill="#000000" font-family="sans-serif" font-size="20" font-weight="bold" lengthAdjust="spacing" textLength="27" x="25" y="337.1523">alt</text><text fill="#000000" font-family="sans-serif" font-size="20" font-weight="bold" lengthAdjust="spacing" textLength="86" x="97" y="338.1523">[Agents]</text><polygon fill="#181818" points="687.5,376.4805,697.5,380.4805,687.5,384.4805,691.5,380.4805" style="stroke:#181818;stroke-width:1.0;"/><line style="stroke:#181818;stroke-width:1.0;" x1="131.5" x2="693.5" y1="380.4805" y2="380.4805"/><text fill="#000000" font-family="sans-serif" font-size="20" font-weight="bold" lengthAdjust="spacing" textLength="13" x="138.5" y="374.2617">5</text><text fill="#000000" font-family="sans-serif" font-size="20" lengthAdjust="spacing" textLength="219" x="155.5" y="374.2617">selects csv file location</text><polygon fill="#181818" points="142.5,414.0352,132.5,418.0352,142.5,422.0352,138.5,418.0352" style="stroke:#181818;stroke-width:1.0;"/><line style="stroke:#181818;stroke-width:1.0;stroke-dasharray:2.0,2.0;" x1="136.5" x2="703.5" y1="418.0352" y2="418.0352"/><text fill="#000000" font-family="sans-serif" font-size="20" font-weight="bold" lengthAdjust="spacing" textLength="13" x="148.5" y="411.8164">6</text><text fill="#000000" font-family="sans-serif" font-size="20" lengthAdjust="spacing" textLength="501" x="165.5" y="411.8164">checks if the file is valid and displays data to import</text><line style="stroke:#000000;stroke-width:1.0;stroke-dasharray:2.0,2.0;" x1="10" x2="758.5" y1="427.0352" y2="427.0352"/><text fill="#000000" font-family="sans-serif" font-size="20" font-weight="bold" lengthAdjust="spacing" textLength="108" x="15" y="446.3711">[Agencies]</text><polygon fill="#181818" points="687.5,477.1445,697.5,481.1445,687.5,485.1445,691.5,481.1445" style="stroke:#181818;stroke-width:1.0;"/><line style="stroke:#181818;stroke-width:1.0;" x1="131.5" x2="693.5" y1="481.1445" y2="481.1445"/><text fill="#000000" font-family="sans-serif" font-size="20" font-weight="bold" lengthAdjust="spacing" textLength="13" x="138.5" y="474.9258">7</text><text fill="#000000" font-family="sans-serif" font-size="20" lengthAdjust="spacing" textLength="219" x="155.5" y="474.9258">selects csv file location</text><polygon fill="#181818" points="142.5,514.6992,132.5,518.6992,142.5,522.6992,138.5,518.6992" style="stroke:#181818;stroke-width:1.0;"/><line style="stroke:#181818;stroke-width:1.0;stroke-dasharray:2.0,2.0;" x1="136.5" x2="703.5" y1="518.6992" y2="518.6992"/><text fill="#000000" font-family="sans-serif" font-size="20" font-weight="bold" lengthAdjust="spacing" textLength="13" x="148.5" y="512.4805">8</text><text fill="#000000" font-family="sans-serif" font-size="20" lengthAdjust="spacing" textLength="501" x="165.5" y="512.4805">checks if the file is valid and displays data to import</text><line style="stroke:#000000;stroke-width:1.0;stroke-dasharray:2.0,2.0;" x1="10" x2="758.5" y1="527.6992" y2="527.6992"/><text fill="#000000" font-family="sans-serif" font-size="20" font-weight="bold" lengthAdjust="spacing" textLength="84" x="15" y="547.0352">[Orders]</text><polygon fill="#181818" points="687.5,577.8086,697.5,581.8086,687.5,585.8086,691.5,581.8086" style="stroke:#181818;stroke-width:1.0;"/><line style="stroke:#181818;stroke-width:1.0;" x1="131.5" x2="693.5" y1="581.8086" y2="581.8086"/><text fill="#000000" font-family="sans-serif" font-size="20" font-weight="bold" lengthAdjust="spacing" textLength="13" x="138.5" y="575.5898">9</text><text fill="#000000" font-family="sans-serif" font-size="20" lengthAdjust="spacing" textLength="219" x="155.5" y="575.5898">selects csv file location</text><polygon fill="#181818" points="142.5,615.3633,132.5,619.3633,142.5,623.3633,138.5,619.3633" style="stroke:#181818;stroke-width:1.0;"/><line style="stroke:#181818;stroke-width:1.0;stroke-dasharray:2.0,2.0;" x1="136.5" x2="703.5" y1="619.3633" y2="619.3633"/><text fill="#000000" font-family="sans-serif" font-size="20" font-weight="bold" lengthAdjust="spacing" textLength="26" x="148.5" y="613.1445">10</text><text fill="#000000" font-family="sans-serif" font-size="20" lengthAdjust="spacing" textLength="501" x="178.5" y="613.1445">checks if the file is valid and displays data to import</text><polygon fill="#181818" points="687.5,659.918,697.5,663.918,687.5,667.918,691.5,663.918" style="stroke:#181818;stroke-width:1.0;"/><line style="stroke:#181818;stroke-width:1.0;" x1="131.5" x2="693.5" y1="663.918" y2="663.918"/><text fill="#000000" font-family="sans-serif" font-size="20" font-weight="bold" lengthAdjust="spacing" textLength="26" x="138.5" y="657.6992">11</text><text fill="#000000" font-family="sans-serif" font-size="20" lengthAdjust="spacing" textLength="228" x="168.5" y="657.6992">confirms to import data</text><polygon fill="#181818" points="142.5,697.4727,132.5,701.4727,142.5,705.4727,138.5,701.4727" style="stroke:#181818;stroke-width:1.0;"/><line style="stroke:#181818;stroke-width:1.0;stroke-dasharray:2.0,2.0;" x1="136.5" x2="703.5" y1="701.4727" y2="701.4727"/><text fill="#000000" font-family="sans-serif" font-size="20" font-weight="bold" lengthAdjust="spacing" textLength="26" x="148.5" y="695.2539">12</text><text fill="#000000" font-family="sans-serif" font-size="20" lengthAdjust="spacing" textLength="248" x="178.5" y="695.2539">displays success message</text><!--SRC=[rLGzRzj03DtrAmXF3j00HKOF1G84MJDepSBSKJBX-r2Eb0ltrvVIMQwJA0KoHeD4yHxVlKVn90TE0nQC8Ri3UV3KuHZqCITj-G_1tSz65WZ4dBBRbnm9j8nqjJAWEs1FhPu2GI6dcFfm3P0z-loRKmyT1g6cKLQ3jYTHYj3IwqZ94JmmzXDysxOFDqs3e-OqnXSg5ZlD1JRdYdiVER5eGSjk0ALc6jjDsV60IM6pg-1vkOOp3HzHwOnlmAuvXDjVYvoTMJ11eWAQWUEGYmA2aoDqRBQccWlFGZmbp_MtHbKvTn1ufZaD990xyAXuHRgzxocf_83fwPWiUYgUYjmy9y3aJVbX5Y4KhAkGKztTq-h-7utKEZ7rauIF2hxavKrNaf0PM7e2DZ-edDF_v65GWEfuVb-H_4_nElEQt2N_Nl4Et9wSzOyxq3rLDXOuOc0_TzUp305FijQKTHzJbco0uVB5lh-JEd7VsaVodnq0brF79LwVv8dwItD_4IMZSoG2qMxsk_jirly2]--></g></svg>