<?xml version="1.0" encoding="UTF-8" standalone="no"?><svg xmlns="http://www.w3.org/2000/svg" xmlns:xlink="http://www.w3.org/1999/xlink" contentStyleType="text/css" height="482px" preserveAspectRatio="none" style="width:715px;height:482px;background:#FFFFFF;" version="1.1" viewBox="0 0 715 482" width="715px" zoomAndPan="magnify"><defs/><g><text fill="#000000" font-family="sans-serif" font-size="14" font-weight="bold" lengthAdjust="spacing" textLength="231" x="241.25" y="28.5352">System Sequence Diagram (SSD)</text><rect fill="#FFFFFF" height="249.8828" style="stroke:#181818;stroke-width:1.0;" width="10" x="106.5" y="136.043"/><rect fill="#FFFFFF" height="37.5547" style="stroke:#181818;stroke-width:1.0;" width="10" x="660.5" y="165.5977"/><rect fill="#FFFFFF" height="61.1094" style="stroke:#181818;stroke-width:1.0;" width="10" x="660.5" y="240.707"/><rect fill="#FFFFFF" height="37.5547" style="stroke:#181818;stroke-width:1.0;" width="10" x="660.5" y="339.3711"/><line style="stroke:#181818;stroke-width:0.5;stroke-dasharray:5.0,5.0;" x1="111" x2="111" y1="126.043" y2="394.9258"/><line style="stroke:#181818;stroke-width:0.5;stroke-dasharray:5.0,5.0;" x1="665.5" x2="665.5" y1="126.043" y2="394.9258"/><text fill="#000000" font-family="sans-serif" font-size="20" lengthAdjust="spacing" textLength="207" x="5" y="121.8242">System Administrator</text><ellipse cx="111.5" cy="50.9883" fill="#E3E3E3" rx="8" ry="8" style="stroke:#181818;stroke-width:0.5;"/><path d="M111.5,58.9883 L111.5,85.9883 M98.5,66.9883 L124.5,66.9883 M111.5,85.9883 L98.5,100.9883 M111.5,85.9883 L124.5,100.9883 " fill="none" style="stroke:#181818;stroke-width:0.5;"/><text fill="#000000" font-family="sans-serif" font-size="20" lengthAdjust="spacing" textLength="207" x="5" y="413.2617">System Administrator</text><ellipse cx="111.5" cy="425.9805" fill="#E3E3E3" rx="8" ry="8" style="stroke:#181818;stroke-width:0.5;"/><path d="M111.5,433.9805 L111.5,460.9805 M98.5,441.9805 L124.5,441.9805 M111.5,460.9805 L98.5,475.9805 M111.5,460.9805 L124.5,475.9805 " fill="none" style="stroke:#181818;stroke-width:0.5;"/><rect fill="#E3E3E3" height="37.5547" rx="2.5" ry="2.5" style="stroke:#181818;stroke-width:0.5;" width="88" x="621.5" y="87.4883"/><text fill="#000000" font-family="sans-serif" font-size="20" lengthAdjust="spacing" textLength="74" x="628.5" y="113.8242">:System</text><rect fill="#E3E3E3" height="37.5547" rx="2.5" ry="2.5" style="stroke:#181818;stroke-width:0.5;" width="88" x="621.5" y="393.9258"/><text fill="#000000" font-family="sans-serif" font-size="20" lengthAdjust="spacing" textLength="74" x="628.5" y="420.2617">:System</text><rect fill="#FFFFFF" height="249.8828" style="stroke:#181818;stroke-width:1.0;" width="10" x="106.5" y="136.043"/><rect fill="#FFFFFF" height="37.5547" style="stroke:#181818;stroke-width:1.0;" width="10" x="660.5" y="165.5977"/><rect fill="#FFFFFF" height="61.1094" style="stroke:#181818;stroke-width:1.0;" width="10" x="660.5" y="240.707"/><rect fill="#FFFFFF" height="37.5547" style="stroke:#181818;stroke-width:1.0;" width="10" x="660.5" y="339.3711"/><polygon fill="#181818" points="648.5,161.5977,658.5,165.5977,648.5,169.5977,652.5,165.5977" style="stroke:#181818;stroke-width:1.0;"/><line style="stroke:#181818;stroke-width:1.0;" x1="116.5" x2="654.5" y1="165.5977" y2="165.5977"/><text fill="#000000" font-family="sans-serif" font-size="20" font-weight="bold" lengthAdjust="spacing" textLength="13" x="123.5" y="159.3789">1</text><text fill="#000000" font-family="sans-serif" font-size="20" lengthAdjust="spacing" textLength="267" x="140.5" y="159.3789">requests to import a csv file</text><polygon fill="#181818" points="127.5,199.1523,117.5,203.1523,127.5,207.1523,123.5,203.1523" style="stroke:#181818;stroke-width:1.0;"/><line style="stroke:#181818;stroke-width:1.0;stroke-dasharray:2.0,2.0;" x1="121.5" x2="664.5" y1="203.1523" y2="203.1523"/><text fill="#000000" font-family="sans-serif" font-size="20" font-weight="bold" lengthAdjust="spacing" textLength="13" x="133.5" y="196.9336">2</text><text fill="#000000" font-family="sans-serif" font-size="20" lengthAdjust="spacing" textLength="321" x="150.5" y="196.9336">requests to insert csv file location</text><polygon fill="#181818" points="648.5,236.707,658.5,240.707,648.5,244.707,652.5,240.707" style="stroke:#181818;stroke-width:1.0;"/><line style="stroke:#181818;stroke-width:1.0;" x1="116.5" x2="654.5" y1="240.707" y2="240.707"/><text fill="#000000" font-family="sans-serif" font-size="20" font-weight="bold" lengthAdjust="spacing" textLength="13" x="123.5" y="234.4883">3</text><text fill="#000000" font-family="sans-serif" font-size="20" lengthAdjust="spacing" textLength="219" x="140.5" y="234.4883">selects csv file location</text><polygon fill="#181818" points="127.5,297.8164,117.5,301.8164,127.5,305.8164,123.5,301.8164" style="stroke:#181818;stroke-width:1.0;"/><line style="stroke:#181818;stroke-width:1.0;stroke-dasharray:2.0,2.0;" x1="121.5" x2="664.5" y1="301.8164" y2="301.8164"/><text fill="#000000" font-family="sans-serif" font-size="20" font-weight="bold" lengthAdjust="spacing" textLength="13" x="133.5" y="283.8203">4</text><text fill="#000000" font-family="sans-serif" font-size="20" lengthAdjust="spacing" textLength="497" x="150.5" y="272.043">checks if the file is valid and displays the amount of</text><text fill="#000000" font-family="sans-serif" font-size="20" lengthAdjust="spacing" textLength="200" x="150.5" y="295.5977">data found to import</text><polygon fill="#181818" points="648.5,335.3711,658.5,339.3711,648.5,343.3711,652.5,339.3711" style="stroke:#181818;stroke-width:1.0;"/><line style="stroke:#181818;stroke-width:1.0;" x1="116.5" x2="654.5" y1="339.3711" y2="339.3711"/><text fill="#000000" font-family="sans-serif" font-size="20" font-weight="bold" lengthAdjust="spacing" textLength="13" x="123.5" y="333.1523">5</text><text fill="#000000" font-family="sans-serif" font-size="20" lengthAdjust="spacing" textLength="462" x="140.5" y="333.1523">confirms the displayed data is the one to import</text><polygon fill="#181818" points="127.5,372.9258,117.5,376.9258,127.5,380.9258,123.5,376.9258" style="stroke:#181818;stroke-width:1.0;"/><line style="stroke:#181818;stroke-width:1.0;stroke-dasharray:2.0,2.0;" x1="121.5" x2="664.5" y1="376.9258" y2="376.9258"/><text fill="#000000" font-family="sans-serif" font-size="20" font-weight="bold" lengthAdjust="spacing" textLength="13" x="133.5" y="370.707">6</text><text fill="#000000" font-family="sans-serif" font-size="20" lengthAdjust="spacing" textLength="248" x="150.5" y="370.707">displays success message</text><!--SRC=[ZLGzRzj03DtrAmWlIe06A3fgA10Ww9f1QnRcZh88w-xK8-N0_VMbTBBhn7PX3HB5ZyV7TvHant74Z658RaSUF7Ku3VehHMtv3y6FxvKSKo2ac5oVKo3GFD5PP4ItmosrUXW8CZd5k1tE4wH7dpuuRg73GQYgbDLIsuCe1MZfzqJH4RmmRkVqXxPzUQmgd3J5ARnJDjjfoh1PAvvzuCYY6Ssx0PJYgQoRikCHeyAcASbBk9WB3EzHQSslmAx5XAUVHpgDZM24H0Kq0OSnPGK49tlesCQQQquuH-1wzgu0JuPLG1iOUC4vZ2IGEl2eU8RwyBobgF8DvgTZCkirUyho-1O1epVgkuM5q62oGefKEddwog0kWSjXIgdO13EBInAbxcAW6_DyaYOAsH17OS2M29LJhAupl2RsFthNKUwYrO3hoPbGt87sL61OO8y3-qL6pp8EU90bZ25DjXycn5jSfEZitPy9SeD-_L_-CxAdWGEhxMjz_v8qdzcLm-bHWNLbPWtdo6a1w_lrjHDpANQSmufUMisV-jo7YzVMwiluzwx3YRfCpf481BlPh-2MXdy1]--></g></svg>