<?xml version="1.0" encoding="UTF-8" standalone="no"?><svg xmlns="http://www.w3.org/2000/svg" xmlns:xlink="http://www.w3.org/1999/xlink" contentStyleType="text/css" height="1309px" preserveAspectRatio="none" style="width:1266px;height:1309px;background:#FFFFFF;" version="1.1" viewBox="0 0 1266 1309" width="1266px" zoomAndPan="magnify"><defs/><g><!--class PropertyOrderManagementController--><g id="elem_PropertyOrderManagementController"><rect codeLine="9" fill="#F1F1F1" height="144.2188" id="PropertyOrderManagementController" rx="2.5" ry="2.5" style="stroke:#181818;stroke-width:0.5;" width="711" x="429.5" y="7"/><ellipse cx="603" cy="24" fill="#ADD1B2" rx="12" ry="12" style="stroke:#181818;stroke-width:1.0;"/><path d="M605.8066,31.0801 Q605.123,31.4316 604.3711,31.6074 Q603.6191,31.7832 602.7891,31.7832 Q599.8398,31.7832 598.2871,29.8398 Q596.7344,27.8965 596.7344,24.2246 Q596.7344,20.543 598.2871,18.5996 Q599.8398,16.6563 602.7891,16.6563 Q603.6191,16.6563 604.3809,16.832 Q605.1426,17.0078 605.8066,17.3594 L605.8066,20.5625 Q605.0645,19.8789 604.3662,19.5615 Q603.668,19.2441 602.9258,19.2441 Q601.3438,19.2441 600.5381,20.499 Q599.7324,21.7539 599.7324,24.2246 Q599.7324,26.6855 600.5381,27.9404 Q601.3438,29.1953 602.9258,29.1953 Q603.668,29.1953 604.3662,28.8779 Q605.0645,28.5605 605.8066,27.877 Z " fill="#000000"/><text fill="#000000" font-family="sans-serif" font-size="20" lengthAdjust="spacing" textLength="355" x="625" y="31.5586">PropertyOrderManagementController</text><line style="stroke:#181818;stroke-width:0.5;" x1="430.5" x2="1139.5" y1="41" y2="41"/><line style="stroke:#181818;stroke-width:0.5;" x1="430.5" x2="1139.5" y1="49" y2="49"/><text fill="#000000" font-family="sans-serif" font-size="20" lengthAdjust="spacing" textLength="685" x="435.5" y="72.3359">+getAllAnnouncementsSortedByproperty() : ArrayList&lt;Announcement&gt;</text><text fill="#000000" font-family="sans-serif" font-size="20" lengthAdjust="spacing" textLength="699" x="435.5" y="95.8906">+getOrdersListByAnnouncementId(Announcementid) : ArrayList&lt;Order&gt;</text><text fill="#000000" font-family="sans-serif" font-size="20" lengthAdjust="spacing" textLength="451" x="435.5" y="119.4453">+acceptOrder(Orderid,Announcementid) : void</text><text fill="#000000" font-family="sans-serif" font-size="20" lengthAdjust="spacing" textLength="442" x="435.5" y="143">+rejectOrder(Orderid,Announcementid) : void</text></g><!--class Repositories--><g id="elem_Repositories"><rect codeLine="16" fill="#F1F1F1" height="144.2188" id="Repositories" rx="2.5" ry="2.5" style="stroke:#181818;stroke-width:0.5;" width="582" x="157" y="212"/><ellipse cx="384" cy="229" fill="#ADD1B2" rx="12" ry="12" style="stroke:#181818;stroke-width:1.0;"/><path d="M386.8066,236.0801 Q386.123,236.4316 385.3711,236.6074 Q384.6191,236.7832 383.7891,236.7832 Q380.8398,236.7832 379.2871,234.8398 Q377.7344,232.8965 377.7344,229.2246 Q377.7344,225.543 379.2871,223.5996 Q380.8398,221.6563 383.7891,221.6563 Q384.6191,221.6563 385.3809,221.832 Q386.1426,222.0078 386.8066,222.3594 L386.8066,225.5625 Q386.0645,224.8789 385.3662,224.5615 Q384.668,224.2441 383.9258,224.2441 Q382.3438,224.2441 381.5381,225.499 Q380.7324,226.7539 380.7324,229.2246 Q380.7324,231.6855 381.5381,232.9404 Q382.3438,234.1953 383.9258,234.1953 Q384.668,234.1953 385.3662,233.8779 Q386.0645,233.5605 386.8066,232.877 Z " fill="#000000"/><text fill="#000000" font-family="sans-serif" font-size="20" lengthAdjust="spacing" textLength="119" x="406" y="236.5586">Repositories</text><line style="stroke:#181818;stroke-width:0.5;" x1="158" x2="738" y1="246" y2="246"/><line style="stroke:#181818;stroke-width:0.5;" x1="158" x2="738" y1="254" y2="254"/><text fill="#000000" font-family="sans-serif" font-size="20" lengthAdjust="spacing" textLength="149" x="163" y="277.3359">+Repositories()</text><text fill="#000000" font-family="sans-serif" font-size="20" lengthAdjust="spacing" textLength="276" x="163" y="300.8906">+getInstance() : Repositories</text><text fill="#000000" font-family="sans-serif" font-size="20" lengthAdjust="spacing" textLength="394" x="163" y="324.4453">+getOrderRepository() : OrderRepository</text><text fill="#000000" font-family="sans-serif" font-size="20" lengthAdjust="spacing" textLength="570" x="163" y="348">+getAnnouncementRepository() : AnnouncementRepository</text></g><!--class AnnouncementRepository--><g id="elem_AnnouncementRepository"><rect codeLine="23" fill="#F1F1F1" height="73.5547" id="AnnouncementRepository" rx="2.5" ry="2.5" style="stroke:#181818;stroke-width:0.5;" width="697" x="562.5" y="476"/><ellipse cx="783.5" cy="493" fill="#ADD1B2" rx="12" ry="12" style="stroke:#181818;stroke-width:1.0;"/><path d="M786.3066,500.0801 Q785.623,500.4316 784.8711,500.6074 Q784.1191,500.7832 783.2891,500.7832 Q780.3398,500.7832 778.7871,498.8398 Q777.2344,496.8965 777.2344,493.2246 Q777.2344,489.543 778.7871,487.5996 Q780.3398,485.6563 783.2891,485.6563 Q784.1191,485.6563 784.8809,485.832 Q785.6426,486.0078 786.3066,486.3594 L786.3066,489.5625 Q785.5645,488.8789 784.8662,488.5615 Q784.168,488.2441 783.4258,488.2441 Q781.8438,488.2441 781.0381,489.499 Q780.2324,490.7539 780.2324,493.2246 Q780.2324,495.6855 781.0381,496.9404 Q781.8438,498.1953 783.4258,498.1953 Q784.168,498.1953 784.8662,497.8779 Q785.5645,497.5605 786.3066,496.877 Z " fill="#000000"/><text fill="#000000" font-family="sans-serif" font-size="20" lengthAdjust="spacing" textLength="246" x="805.5" y="500.5586">AnnouncementRepository</text><line style="stroke:#181818;stroke-width:0.5;" x1="563.5" x2="1258.5" y1="510" y2="510"/><line style="stroke:#181818;stroke-width:0.5;" x1="563.5" x2="1258.5" y1="518" y2="518"/><text fill="#000000" font-family="sans-serif" font-size="20" lengthAdjust="spacing" textLength="685" x="568.5" y="541.3359">+getAllAnnouncementsSortedByproperty() : ArrayList&lt;Announcement&gt;</text></g><!--class OrderRepository--><g id="elem_OrderRepository"><rect codeLine="27" fill="#F1F1F1" height="144.2188" id="OrderRepository" rx="2.5" ry="2.5" style="stroke:#181818;stroke-width:0.5;" width="520" x="7" y="441"/><ellipse cx="183.5" cy="458" fill="#ADD1B2" rx="12" ry="12" style="stroke:#181818;stroke-width:1.0;"/><path d="M186.3066,465.0801 Q185.623,465.4316 184.8711,465.6074 Q184.1191,465.7832 183.2891,465.7832 Q180.3398,465.7832 178.7871,463.8398 Q177.2344,461.8965 177.2344,458.2246 Q177.2344,454.543 178.7871,452.5996 Q180.3398,450.6563 183.2891,450.6563 Q184.1191,450.6563 184.8809,450.832 Q185.6426,451.0078 186.3066,451.3594 L186.3066,454.5625 Q185.5645,453.8789 184.8662,453.5615 Q184.168,453.2441 183.4258,453.2441 Q181.8438,453.2441 181.0381,454.499 Q180.2324,455.7539 180.2324,458.2246 Q180.2324,460.6855 181.0381,461.9404 Q181.8438,463.1953 183.4258,463.1953 Q184.168,463.1953 184.8662,462.8779 Q185.5645,462.5605 186.3066,461.877 Z " fill="#000000"/><text fill="#000000" font-family="sans-serif" font-size="20" lengthAdjust="spacing" textLength="158" x="205.5" y="465.5586">OrderRepository</text><line style="stroke:#181818;stroke-width:0.5;" x1="8" x2="526" y1="475" y2="475"/><line style="stroke:#181818;stroke-width:0.5;" x1="8" x2="526" y1="483" y2="483"/><text fill="#000000" font-family="sans-serif" font-size="20" lengthAdjust="spacing" textLength="508" x="13" y="506.3359">+getOrdersListByAnnouncementId(Announcementid)</text><text fill="#000000" font-family="sans-serif" font-size="20" lengthAdjust="spacing" textLength="392" x="13" y="529.8906">+acceptOrder(Orderid,Announcementid)</text><text fill="#000000" font-family="sans-serif" font-size="20" lengthAdjust="spacing" textLength="328" x="13" y="553.4453">+rejectAllOrder(Announcementid)</text><text fill="#000000" font-family="sans-serif" font-size="20" lengthAdjust="spacing" textLength="383" x="13" y="577">+rejectOrder(Orderid,Announcementid)</text></g><!--class Property--><g id="elem_Property"><rect codeLine="34" fill="#F1F1F1" height="261.9922" id="Property" rx="2.5" ry="2.5" style="stroke:#181818;stroke-width:0.5;" width="310" x="756" y="1041"/><ellipse cx="866.5" cy="1058" fill="#ADD1B2" rx="12" ry="12" style="stroke:#181818;stroke-width:1.0;"/><path d="M869.3066,1065.0801 Q868.623,1065.4316 867.8711,1065.6074 Q867.1191,1065.7832 866.2891,1065.7832 Q863.3398,1065.7832 861.7871,1063.8398 Q860.2344,1061.8965 860.2344,1058.2246 Q860.2344,1054.543 861.7871,1052.5996 Q863.3398,1050.6563 866.2891,1050.6563 Q867.1191,1050.6563 867.8809,1050.832 Q868.6426,1051.0078 869.3066,1051.3594 L869.3066,1054.5625 Q868.5645,1053.8789 867.8662,1053.5615 Q867.168,1053.2441 866.4258,1053.2441 Q864.8438,1053.2441 864.0381,1054.499 Q863.2324,1055.7539 863.2324,1058.2246 Q863.2324,1060.6855 864.0381,1061.9404 Q864.8438,1063.1953 866.4258,1063.1953 Q867.168,1063.1953 867.8662,1062.8779 Q868.5645,1062.5605 869.3066,1061.877 Z " fill="#000000"/><text fill="#000000" font-family="sans-serif" font-size="20" lengthAdjust="spacing" textLength="80" x="888.5" y="1065.5586">Property</text><line style="stroke:#181818;stroke-width:0.5;" x1="757" x2="1065" y1="1075" y2="1075"/><text fill="#000000" font-family="sans-serif" font-size="20" lengthAdjust="spacing" textLength="138" x="762" y="1098.3359">-area : double</text><text fill="#000000" font-family="sans-serif" font-size="20" lengthAdjust="spacing" textLength="290" x="762" y="1121.8906">-distanceFromCenter : double</text><text fill="#000000" font-family="sans-serif" font-size="20" lengthAdjust="spacing" textLength="145" x="762" y="1145.4453">-price : double</text><text fill="#000000" font-family="sans-serif" font-size="20" lengthAdjust="spacing" textLength="185" x="762" y="1169">-address : Address</text><line style="stroke:#181818;stroke-width:0.5;" x1="757" x2="1065" y1="1177.2188" y2="1177.2188"/><text fill="#000000" font-family="sans-serif" font-size="20" lengthAdjust="spacing" textLength="236" x="762" y="1200.5547">+getAddress() : Address</text><text fill="#000000" font-family="sans-serif" font-size="20" lengthAdjust="spacing" textLength="189" x="762" y="1224.1094">+getArea() : double</text><text fill="#000000" font-family="sans-serif" font-size="20" lengthAdjust="spacing" textLength="298" x="762" y="1247.6641">+getDistanceFromCenter() : int</text><text fill="#000000" font-family="sans-serif" font-size="20" lengthAdjust="spacing" textLength="191" x="762" y="1271.2188">+getPrice() : double</text><text fill="#000000" font-family="sans-serif" font-size="20" lengthAdjust="spacing" textLength="179" x="762" y="1294.7734">+toString() : String</text></g><!--class Announcement--><g id="elem_Announcement"><rect codeLine="46" fill="#F1F1F1" height="285.5469" id="Announcement" rx="2.5" ry="2.5" style="stroke:#181818;stroke-width:0.5;" width="354" x="734" y="670"/><ellipse cx="834.5" cy="687" fill="#ADD1B2" rx="12" ry="12" style="stroke:#181818;stroke-width:1.0;"/><path d="M837.3066,694.0801 Q836.623,694.4316 835.8711,694.6074 Q835.1191,694.7832 834.2891,694.7832 Q831.3398,694.7832 829.7871,692.8398 Q828.2344,690.8965 828.2344,687.2246 Q828.2344,683.543 829.7871,681.5996 Q831.3398,679.6563 834.2891,679.6563 Q835.1191,679.6563 835.8809,679.832 Q836.6426,680.0078 837.3066,680.3594 L837.3066,683.5625 Q836.5645,682.8789 835.8662,682.5615 Q835.168,682.2441 834.4258,682.2441 Q832.8438,682.2441 832.0381,683.499 Q831.2324,684.7539 831.2324,687.2246 Q831.2324,689.6855 832.0381,690.9404 Q832.8438,692.1953 834.4258,692.1953 Q835.168,692.1953 835.8662,691.8779 Q836.5645,691.5605 837.3066,690.877 Z " fill="#000000"/><text fill="#000000" font-family="sans-serif" font-size="20" lengthAdjust="spacing" textLength="144" x="856.5" y="694.5586">Announcement</text><line style="stroke:#181818;stroke-width:0.5;" x1="735" x2="1087" y1="704" y2="704"/><text fill="#000000" font-family="sans-serif" font-size="20" lengthAdjust="spacing" textLength="324" x="740" y="727.3359">-typeOfProperty : TypeOfProperty</text><text fill="#000000" font-family="sans-serif" font-size="20" lengthAdjust="spacing" textLength="342" x="740" y="750.8906">-transactionType : TransactionType</text><text fill="#000000" font-family="sans-serif" font-size="20" lengthAdjust="spacing" textLength="190" x="740" y="774.4453">-publishDate : Date</text><text fill="#000000" font-family="sans-serif" font-size="20" lengthAdjust="spacing" textLength="247" x="740" y="798">-comission : Commission</text><text fill="#000000" font-family="sans-serif" font-size="20" lengthAdjust="spacing" textLength="255" x="740" y="821.5547">-photos ArrayList&lt;Photo&gt;</text><text fill="#000000" font-family="sans-serif" font-size="20" lengthAdjust="spacing" textLength="217" x="740" y="845.1094">-isPublished : boolean</text><text fill="#000000" font-family="sans-serif" font-size="20" lengthAdjust="spacing" textLength="74" x="740" y="868.6641">-id : int</text><text fill="#000000" font-family="sans-serif" font-size="20" lengthAdjust="spacing" textLength="150" x="740" y="892.2188">-idCounter : int</text><line style="stroke:#181818;stroke-width:0.5;" x1="735" x2="1087" y1="900.4375" y2="900.4375"/><text fill="#000000" font-family="sans-serif" font-size="20" lengthAdjust="spacing" textLength="238" x="740" y="923.7734">+getProperty() : Property</text><text fill="#000000" font-family="sans-serif" font-size="20" lengthAdjust="spacing" textLength="179" x="740" y="947.3281">+toString() : String</text></g><!--class Order--><g id="elem_Order"><rect codeLine="59" fill="#F1F1F1" height="238.4375" id="Order" rx="2.5" ry="2.5" style="stroke:#181818;stroke-width:0.5;" width="237" x="148.5" y="694"/><ellipse cx="234.5" cy="711" fill="#ADD1B2" rx="12" ry="12" style="stroke:#181818;stroke-width:1.0;"/><path d="M237.3066,718.0801 Q236.623,718.4316 235.8711,718.6074 Q235.1191,718.7832 234.2891,718.7832 Q231.3398,718.7832 229.7871,716.8398 Q228.2344,714.8965 228.2344,711.2246 Q228.2344,707.543 229.7871,705.5996 Q231.3398,703.6563 234.2891,703.6563 Q235.1191,703.6563 235.8809,703.832 Q236.6426,704.0078 237.3066,704.3594 L237.3066,707.5625 Q236.5645,706.8789 235.8662,706.5615 Q235.168,706.2441 234.4258,706.2441 Q232.8438,706.2441 232.0381,707.499 Q231.2324,708.7539 231.2324,711.2246 Q231.2324,713.6855 232.0381,714.9404 Q232.8438,716.1953 234.4258,716.1953 Q235.168,716.1953 235.8662,715.8779 Q236.5645,715.5605 237.3066,714.877 Z " fill="#000000"/><text fill="#000000" font-family="sans-serif" font-size="20" lengthAdjust="spacing" textLength="56" x="256.5" y="718.5586">Order</text><line style="stroke:#181818;stroke-width:0.5;" x1="149.5" x2="384.5" y1="728" y2="728"/><text fill="#000000" font-family="sans-serif" font-size="20" lengthAdjust="spacing" textLength="74" x="154.5" y="751.3359">-id : int</text><text fill="#000000" font-family="sans-serif" font-size="20" lengthAdjust="spacing" textLength="150" x="154.5" y="774.8906">-idCounter : int</text><text fill="#000000" font-family="sans-serif" font-size="20" lengthAdjust="spacing" textLength="225" x="154.5" y="798.4453">-orderAmount : double</text><text fill="#000000" font-family="sans-serif" font-size="20" lengthAdjust="spacing" textLength="215" x="154.5" y="822">-announcementId : int</text><text fill="#000000" font-family="sans-serif" font-size="20" lengthAdjust="spacing" textLength="191" x="154.5" y="845.5547">-clientEmail : String</text><text fill="#000000" font-family="sans-serif" font-size="20" lengthAdjust="spacing" textLength="116" x="154.5" y="869.1094">-date : Date</text><text fill="#000000" font-family="sans-serif" font-size="20" lengthAdjust="spacing" textLength="179" x="154.5" y="892.6641">-state : OrderState</text><line style="stroke:#181818;stroke-width:0.5;" x1="149.5" x2="384.5" y1="900.8828" y2="900.8828"/><text fill="#000000" font-family="sans-serif" font-size="20" lengthAdjust="spacing" textLength="179" x="154.5" y="924.2188">+toString() : String</text></g><!--class PropertyOrderManagement--><g id="elem_PropertyOrderManagement"><rect fill="#F1F1F1" height="50" id="PropertyOrderManagement" rx="2.5" ry="2.5" style="stroke:#181818;stroke-width:0.5;" width="293" x="101.5" y="54"/><ellipse cx="117.5" cy="71" fill="#ADD1B2" rx="12" ry="12" style="stroke:#181818;stroke-width:1.0;"/><path d="M120.3066,78.0801 Q119.623,78.4316 118.8711,78.6074 Q118.1191,78.7832 117.2891,78.7832 Q114.3398,78.7832 112.7871,76.8398 Q111.2344,74.8965 111.2344,71.2246 Q111.2344,67.543 112.7871,65.5996 Q114.3398,63.6563 117.2891,63.6563 Q118.1191,63.6563 118.8809,63.832 Q119.6426,64.0078 120.3066,64.3594 L120.3066,67.5625 Q119.5645,66.8789 118.8662,66.5615 Q118.168,66.2441 117.4258,66.2441 Q115.8438,66.2441 115.0381,67.499 Q114.2324,68.7539 114.2324,71.2246 Q114.2324,73.6855 115.0381,74.9404 Q115.8438,76.1953 117.4258,76.1953 Q118.168,76.1953 118.8662,75.8779 Q119.5645,75.5605 120.3066,74.877 Z " fill="#000000"/><text fill="#000000" font-family="sans-serif" font-size="20" lengthAdjust="spacing" textLength="259" x="132.5" y="78.5586">PropertyOrderManagement</text><line style="stroke:#181818;stroke-width:0.5;" x1="102.5" x2="393.5" y1="88" y2="88"/><line style="stroke:#181818;stroke-width:0.5;" x1="102.5" x2="393.5" y1="96" y2="96"/></g><!--link Repositories to Repositories--><g id="link_Repositories_Repositories"><path codeLine="71" d="M739.37,269.74 C760.84,272.94 774,277.69 774,284 C774,289.67 763.38,294.08 745.65,297.24 " fill="none" id="Repositories-to-Repositories" style="stroke:#181818;stroke-width:1.0;"/><polygon fill="#181818" points="740.87,298.02,750.3946,300.5263,745.8054,297.2189,749.1128,292.6297,740.87,298.02" style="stroke:#181818;stroke-width:1.0;"/><text fill="#000000" font-family="sans-serif" font-size="20" lengthAdjust="spacing" textLength="89" x="780" y="291.8359">instances</text></g><!--link PropertyOrderManagement to PropertyOrderManagementController--><g id="link_PropertyOrderManagement_PropertyOrderManagementController"><path codeLine="73" d="M395,79 C407.17,79 416.88,79 422.82,79 " fill="none" id="PropertyOrderManagement-to-PropertyOrderManagementController" style="stroke:#181818;stroke-width:1.0;stroke-dasharray:7.0,7.0;"/><polygon fill="#181818" points="427.5,79,418.5,75,422.5,79,418.5,83,427.5,79" style="stroke:#181818;stroke-width:1.0;"/></g><!--link PropertyOrderManagementController to Repositories--><g id="link_PropertyOrderManagementController_Repositories"><path codeLine="75" d="M666.66,151.28 C636,169.75 602.91,189.69 571.97,208.32 " fill="none" id="PropertyOrderManagementController-to-Repositories" style="stroke:#181818;stroke-width:1.0;stroke-dasharray:7.0,7.0;"/><polygon fill="#181818" points="567.92,210.76,577.6925,209.5356,572.2012,208.177,573.5597,202.6857,567.92,210.76" style="stroke:#181818;stroke-width:1.0;"/></g><!--link Repositories to AnnouncementRepository--><g id="link_Repositories_AnnouncementRepository"><path codeLine="77" d="M593.54,356.36 C671.91,394.78 765.6,440.71 830.8,472.68 " fill="none" id="Repositories-to-AnnouncementRepository" style="stroke:#181818;stroke-width:1.0;"/><polygon fill="#181818" points="835.26,474.87,828.9314,467.3236,830.7681,472.6739,825.4177,474.5106,835.26,474.87" style="stroke:#181818;stroke-width:1.0;"/><text fill="#000000" font-family="sans-serif" font-size="20" lengthAdjust="spacing" textLength="33" x="694" y="406.3359">has</text><text fill="#000000" font-family="sans-serif" font-size="20" lengthAdjust="spacing" textLength="13" x="593.3578" y="383.4423">1</text><text fill="#000000" font-family="sans-serif" font-size="20" lengthAdjust="spacing" textLength="13" x="810.2243" y="463.8381">1</text></g><!--link Repositories to OrderRepository--><g id="link_Repositories_OrderRepository"><path codeLine="79" d="M391.23,356.2 C371.11,381.43 348.39,409.92 327.94,435.57 " fill="none" id="Repositories-to-OrderRepository" style="stroke:#181818;stroke-width:1.0;"/><polygon fill="#181818" points="324.83,439.48,333.5636,434.9276,327.943,435.5673,327.3033,429.9467,324.83,439.48" style="stroke:#181818;stroke-width:1.0;"/><text fill="#000000" font-family="sans-serif" font-size="20" lengthAdjust="spacing" textLength="33" x="363" y="406.3359">has</text><text fill="#000000" font-family="sans-serif" font-size="20" lengthAdjust="spacing" textLength="13" x="372.1996" y="383.5296">1</text><text fill="#000000" font-family="sans-serif" font-size="20" lengthAdjust="spacing" textLength="13" x="315.8393" y="428.7595">1</text></g><!--link PropertyOrderManagementController to AnnouncementRepository--><g id="link_PropertyOrderManagementController_AnnouncementRepository"><path codeLine="81" d="M834.23,151.41 C855.67,182.51 876,212 876,212 C876,212 896.34,386.36 906.01,469.23 " fill="none" id="PropertyOrderManagementController-to-AnnouncementRepository" style="stroke:#181818;stroke-width:1.0;stroke-dasharray:7.0,7.0;"/><polygon fill="#181818" points="906.57,474.01,909.4895,464.6038,905.985,469.0443,901.5444,465.5398,906.57,474.01" style="stroke:#181818;stroke-width:1.0;"/></g><!--link AnnouncementRepository to Announcement--><g id="link_AnnouncementRepository_Announcement"><path codeLine="83" d="M911,550.24 C911,578.94 911,621.07 911,663.19 " fill="none" id="AnnouncementRepository-to-Announcement" style="stroke:#181818;stroke-width:1.0;"/><polygon fill="#181818" points="911,668.16,915,659.16,911,663.16,907,659.16,911,668.16" style="stroke:#181818;stroke-width:1.0;"/><text fill="#000000" font-family="sans-serif" font-size="20" lengthAdjust="spacing" textLength="33" x="912" y="635.3359">has</text><text fill="#000000" font-family="sans-serif" font-size="20" lengthAdjust="spacing" textLength="13" x="897.0453" y="576.8081">1</text><text fill="#000000" font-family="sans-serif" font-size="20" lengthAdjust="spacing" textLength="10" x="900.7266" y="657.5662">*</text></g><!--link Announcement to Property--><g id="link_Announcement_Property"><path codeLine="85" d="M911,956.38 C911,982 911,1008.65 911,1034.11 " fill="none" id="Announcement-to-Property" style="stroke:#181818;stroke-width:1.0;"/><polygon fill="#181818" points="911,1039.04,915,1030.04,911,1034.04,907,1030.04,911,1039.04" style="stroke:#181818;stroke-width:1.0;"/><text fill="#000000" font-family="sans-serif" font-size="20" lengthAdjust="spacing" textLength="33" x="912" y="1006.3359">has</text><text fill="#000000" font-family="sans-serif" font-size="20" lengthAdjust="spacing" textLength="13" x="897.7055" y="982.7568">1</text><text fill="#000000" font-family="sans-serif" font-size="20" lengthAdjust="spacing" textLength="13" x="897.6242" y="1028.6379">1</text></g><!--link OrderRepository to Order--><g id="link_OrderRepository_Order"><path codeLine="87" d="M267,585.38 C267,615.93 267,652.53 267,687.31 " fill="none" id="OrderRepository-to-Order" style="stroke:#181818;stroke-width:1.0;"/><polygon fill="#181818" points="267,692.27,271,683.27,267,687.27,263,683.27,267,692.27" style="stroke:#181818;stroke-width:1.0;"/><text fill="#000000" font-family="sans-serif" font-size="20" lengthAdjust="spacing" textLength="33" x="268" y="635.3359">has</text><text fill="#000000" font-family="sans-serif" font-size="20" lengthAdjust="spacing" textLength="13" x="253.4008" y="612.4641">1</text><text fill="#000000" font-family="sans-serif" font-size="20" lengthAdjust="spacing" textLength="10" x="256.6797" y="681.7561">*</text></g><!--SRC=[hLLVRzem47_Ffx3wHDS5RNki9YHALmbfKz7O5p3s0HwE7TbcKrRrk-zi9s07Gj4q7aXyzxkxt_tnnUw4ggcXbTHi1vnmMDEzT4zQkQNu0-JJXwAm7ORKbEte1fQkaK0CC4VLHa82i5lAzM-XDcHDfKqrKYXmJGsarhBnXo9rp2IrTkgS4QkzWpdJAaJ7u4535aRNO5ppR3YORrGXYGgKco5DewK4GruAWh-x3RYfb5Ebz5wnWB5BRHpmXwPkVOnkoJsP6aERhyAwpobsSd0I0baFU6XIn9oFqgFWkRDWrdgXZ44T7Ot2l-3lJsr_QS4Zti1FhEXL-DUkBj-XrbOuRGJOhWIfR7Hxo6YkBBQBGKW_nUGv7pInJZtPiSW9iPx9ULM1f2Fdy_h_rS13QNhCN_wXjLVtCMqWie_O2vZBpbxxKn-v4r8IQe1YybplLtZlEYaNiRLFHbSpT8BNuGHJ6y7WL4mvDu2XiA3nhTNS4T-8A8hrFgD6Ca6N-GognnD60IYKIr4Bp-cS1wUNk0hK9kZYwx4gQRdYr9J4RvRdTLSlDFgH2LgGeSfIveHMNkrHkIJ2QgGYxFQHEW_nZoXdkXBM8XIbCrsrXzPcgvssoL0kl60IbS8kealSh_TafRK4sje9VgoAFyqmizY-LjZMAHdyDAStAXK6B0vFcKRofvD8fDGUFgsy8cz9IRDhajemAL3sfQ927Wa43S_hHqgSY209h9R-KCGxCP13jjlAIRxhF8KuOhOe1huEP3nv-yCnQ9ryMyRZF7gFsyt76r8YGVySM6xtP4ilcVMMLOU_ZjhGmXtWSeZxBgVR1SraASdaUWLWdtJgEEXQu5y0]--></g></svg>