<?xml version="1.0" encoding="UTF-8" standalone="no"?><svg xmlns="http://www.w3.org/2000/svg" xmlns:xlink="http://www.w3.org/1999/xlink" contentStyleType="text/css" height="1619px" preserveAspectRatio="none" style="width:2188px;height:1619px;background:#FFFFFF;" version="1.1" viewBox="0 0 2188 1619" width="2188px" zoomAndPan="magnify"><defs/><g><rect fill="#FFFFFF" height="1423.6328" style="stroke:#181818;stroke-width:1.0;" width="10" x="46" y="98.5547"/><rect fill="#FFFFFF" height="410.1016" style="stroke:#181818;stroke-width:1.0;" width="10" x="666" y="128.1094"/><rect fill="#FFFFFF" height="262.8828" style="stroke:#181818;stroke-width:1.0;" width="10" x="666" y="575.7656"/><rect fill="#FFFFFF" height="37.5547" style="stroke:#181818;stroke-width:1.0;" width="10" x="666" y="876.2031"/><rect fill="#FFFFFF" height="262.8828" style="stroke:#181818;stroke-width:1.0;" width="10" x="666" y="992.4219"/><rect fill="#FFFFFF" height="187.7734" style="stroke:#181818;stroke-width:1.0;" width="10" x="666" y="1318.4141"/><rect fill="#FFFFFF" height="262.8828" style="stroke:#181818;stroke-width:1.0;" width="10" x="1217" y="214.2188"/><rect fill="#FFFFFF" height="187.7734" style="stroke:#181818;stroke-width:1.0;" width="10" x="1217" y="613.3203"/><rect fill="#FFFFFF" height="187.7734" style="stroke:#181818;stroke-width:1.0;" width="10" x="1217" y="1029.9766"/><rect fill="#FFFFFF" height="112.6641" style="stroke:#181818;stroke-width:1.0;" width="10" x="1217" y="1355.9688"/><rect fill="#FFFFFF" height="37.5547" style="stroke:#181818;stroke-width:1.0;" width="10" x="1484" y="251.7734"/><rect fill="#FFFFFF" height="37.5547" style="stroke:#181818;stroke-width:1.0;" width="10" x="1633" y="326.8828"/><rect fill="#FFFFFF" height="37.5547" style="stroke:#181818;stroke-width:1.0;" width="10" x="1633" y="650.875"/><rect fill="#FFFFFF" height="37.5547" style="stroke:#181818;stroke-width:1.0;" width="10" x="1845.5" y="401.9922"/><rect fill="#FFFFFF" height="37.5547" style="stroke:#181818;stroke-width:1.0;" width="10" x="2077.5" y="725.9844"/><rect fill="#FFFFFF" height="37.5547" style="stroke:#181818;stroke-width:1.0;" width="10" x="2077.5" y="1067.5313"/><rect fill="#FFFFFF" height="37.5547" style="stroke:#181818;stroke-width:1.0;" width="10" x="2077.5" y="1142.6406"/><rect fill="#FFFFFF" height="37.5547" style="stroke:#181818;stroke-width:1.0;" width="10" x="2077.5" y="1393.5234"/><rect fill="none" height="585.4297" style="stroke:#000000;stroke-width:1.5;" width="2171.5" x="10" y="928.7578"/><line style="stroke:#181818;stroke-width:0.5;stroke-dasharray:5.0,5.0;" x1="51" x2="51" y1="88.5547" y2="1531.1875"/><line style="stroke:#181818;stroke-width:0.5;stroke-dasharray:5.0,5.0;" x1="670.5" x2="670.5" y1="88.5547" y2="1531.1875"/><line style="stroke:#181818;stroke-width:0.5;stroke-dasharray:5.0,5.0;" x1="1221.5" x2="1221.5" y1="170.3867" y2="1531.1875"/><line style="stroke:#181818;stroke-width:0.5;stroke-dasharray:5.0,5.0;" x1="1488.5" x2="1488.5" y1="88.5547" y2="1531.1875"/><line style="stroke:#181818;stroke-width:0.5;stroke-dasharray:5.0,5.0;" x1="1637.5" x2="1637.5" y1="88.5547" y2="1531.1875"/><line style="stroke:#181818;stroke-width:0.5;stroke-dasharray:5.0,5.0;" x1="1850.5" x2="1850.5" y1="88.5547" y2="1531.1875"/><line style="stroke:#181818;stroke-width:0.5;stroke-dasharray:5.0,5.0;" x1="2082.5" x2="2082.5" y1="88.5547" y2="1531.1875"/><text fill="#000000" font-family="sans-serif" font-size="20" lengthAdjust="spacing" textLength="56" x="20" y="84.3359">Agent</text><ellipse cx="51" cy="13.5" fill="#E3E3E3" rx="8" ry="8" style="stroke:#181818;stroke-width:0.5;"/><path d="M51,21.5 L51,48.5 M38,29.5 L64,29.5 M51,48.5 L38,63.5 M51,48.5 L64,63.5 " fill="none" style="stroke:#181818;stroke-width:0.5;"/><text fill="#000000" font-family="sans-serif" font-size="20" lengthAdjust="spacing" textLength="56" x="20" y="1549.5234">Agent</text><ellipse cx="51" cy="1562.2422" fill="#E3E3E3" rx="8" ry="8" style="stroke:#181818;stroke-width:0.5;"/><path d="M51,1570.2422 L51,1597.2422 M38,1578.2422 L64,1578.2422 M51,1597.2422 L38,1612.2422 M51,1597.2422 L64,1612.2422 " fill="none" style="stroke:#181818;stroke-width:0.5;"/><rect fill="#E3E3E3" height="37.5547" rx="2.5" ry="2.5" style="stroke:#181818;stroke-width:0.5;" width="299" x="521.5" y="50"/><text fill="#000000" font-family="sans-serif" font-size="20" lengthAdjust="spacing" textLength="285" x="528.5" y="76.3359">:PropertyOrderManagementUI</text><rect fill="#E3E3E3" height="37.5547" rx="2.5" ry="2.5" style="stroke:#181818;stroke-width:0.5;" width="299" x="521.5" y="1530.1875"/><text fill="#000000" font-family="sans-serif" font-size="20" lengthAdjust="spacing" textLength="285" x="528.5" y="1556.5234">:PropertyOrderManagementUI</text><rect fill="#E3E3E3" height="37.5547" rx="2.5" ry="2.5" style="stroke:#181818;stroke-width:0.5;" width="375" x="1034.5" y="1530.1875"/><text fill="#000000" font-family="sans-serif" font-size="20" lengthAdjust="spacing" textLength="361" x="1041.5" y="1556.5234">:PropertyOrderManagementController</text><rect fill="#E3E3E3" height="37.5547" rx="2.5" ry="2.5" style="stroke:#181818;stroke-width:0.5;" width="139" x="1419.5" y="50"/><text fill="#000000" font-family="sans-serif" font-size="20" lengthAdjust="spacing" textLength="125" x="1426.5" y="76.3359">:Repositories</text><rect fill="#E3E3E3" height="37.5547" rx="2.5" ry="2.5" style="stroke:#181818;stroke-width:0.5;" width="139" x="1419.5" y="1530.1875"/><text fill="#000000" font-family="sans-serif" font-size="20" lengthAdjust="spacing" textLength="125" x="1426.5" y="1556.5234">:Repositories</text><rect fill="#E3E3E3" height="61.1094" rx="2.5" ry="2.5" style="stroke:#181818;stroke-width:0.5;" width="139" x="1568.5" y="26.4453"/><text fill="#000000" font-family="sans-serif" font-size="20" lengthAdjust="spacing" textLength="114" x="1581" y="52.7813">repositories</text><text fill="#000000" font-family="sans-serif" font-size="20" lengthAdjust="spacing" textLength="125" x="1575.5" y="76.3359">:Repositories</text><rect fill="#E3E3E3" height="61.1094" rx="2.5" ry="2.5" style="stroke:#181818;stroke-width:0.5;" width="139" x="1568.5" y="1530.1875"/><text fill="#000000" font-family="sans-serif" font-size="20" lengthAdjust="spacing" textLength="114" x="1581" y="1556.5234">repositories</text><text fill="#000000" font-family="sans-serif" font-size="20" lengthAdjust="spacing" textLength="125" x="1575.5" y="1580.0781">:Repositories</text><rect fill="#E3E3E3" height="61.1094" rx="2.5" ry="2.5" style="stroke:#181818;stroke-width:0.5;" width="266" x="1717.5" y="26.4453"/><text fill="#000000" font-family="sans-serif" font-size="20" lengthAdjust="spacing" textLength="252" x="1724.5" y="52.7813">AnnouncementRepository:</text><text fill="#000000" font-family="sans-serif" font-size="20" lengthAdjust="spacing" textLength="246" x="1727.5" y="76.3359">AnnouncementRepository</text><rect fill="#E3E3E3" height="61.1094" rx="2.5" ry="2.5" style="stroke:#181818;stroke-width:0.5;" width="266" x="1717.5" y="1530.1875"/><text fill="#000000" font-family="sans-serif" font-size="20" lengthAdjust="spacing" textLength="252" x="1724.5" y="1556.5234">AnnouncementRepository:</text><text fill="#000000" font-family="sans-serif" font-size="20" lengthAdjust="spacing" textLength="246" x="1727.5" y="1580.0781">AnnouncementRepository</text><rect fill="#E3E3E3" height="61.1094" rx="2.5" ry="2.5" style="stroke:#181818;stroke-width:0.5;" width="178" x="1993.5" y="26.4453"/><text fill="#000000" font-family="sans-serif" font-size="20" lengthAdjust="spacing" textLength="164" x="2000.5" y="52.7813">OrderRepository:</text><text fill="#000000" font-family="sans-serif" font-size="20" lengthAdjust="spacing" textLength="158" x="2003.5" y="76.3359">OrderRepository</text><rect fill="#E3E3E3" height="61.1094" rx="2.5" ry="2.5" style="stroke:#181818;stroke-width:0.5;" width="178" x="1993.5" y="1530.1875"/><text fill="#000000" font-family="sans-serif" font-size="20" lengthAdjust="spacing" textLength="164" x="2000.5" y="1556.5234">OrderRepository:</text><text fill="#000000" font-family="sans-serif" font-size="20" lengthAdjust="spacing" textLength="158" x="2003.5" y="1580.0781">OrderRepository</text><rect fill="#FFFFFF" height="1423.6328" style="stroke:#181818;stroke-width:1.0;" width="10" x="46" y="98.5547"/><rect fill="#FFFFFF" height="410.1016" style="stroke:#181818;stroke-width:1.0;" width="10" x="666" y="128.1094"/><rect fill="#FFFFFF" height="262.8828" style="stroke:#181818;stroke-width:1.0;" width="10" x="666" y="575.7656"/><rect fill="#FFFFFF" height="37.5547" style="stroke:#181818;stroke-width:1.0;" width="10" x="666" y="876.2031"/><rect fill="#FFFFFF" height="262.8828" style="stroke:#181818;stroke-width:1.0;" width="10" x="666" y="992.4219"/><rect fill="#FFFFFF" height="187.7734" style="stroke:#181818;stroke-width:1.0;" width="10" x="666" y="1318.4141"/><rect fill="#FFFFFF" height="262.8828" style="stroke:#181818;stroke-width:1.0;" width="10" x="1217" y="214.2188"/><rect fill="#FFFFFF" height="187.7734" style="stroke:#181818;stroke-width:1.0;" width="10" x="1217" y="613.3203"/><rect fill="#FFFFFF" height="187.7734" style="stroke:#181818;stroke-width:1.0;" width="10" x="1217" y="1029.9766"/><rect fill="#FFFFFF" height="112.6641" style="stroke:#181818;stroke-width:1.0;" width="10" x="1217" y="1355.9688"/><rect fill="#FFFFFF" height="37.5547" style="stroke:#181818;stroke-width:1.0;" width="10" x="1484" y="251.7734"/><rect fill="#FFFFFF" height="37.5547" style="stroke:#181818;stroke-width:1.0;" width="10" x="1633" y="326.8828"/><rect fill="#FFFFFF" height="37.5547" style="stroke:#181818;stroke-width:1.0;" width="10" x="1633" y="650.875"/><rect fill="#FFFFFF" height="37.5547" style="stroke:#181818;stroke-width:1.0;" width="10" x="1845.5" y="401.9922"/><rect fill="#FFFFFF" height="37.5547" style="stroke:#181818;stroke-width:1.0;" width="10" x="2077.5" y="725.9844"/><rect fill="#FFFFFF" height="37.5547" style="stroke:#181818;stroke-width:1.0;" width="10" x="2077.5" y="1067.5313"/><rect fill="#FFFFFF" height="37.5547" style="stroke:#181818;stroke-width:1.0;" width="10" x="2077.5" y="1142.6406"/><rect fill="#FFFFFF" height="37.5547" style="stroke:#181818;stroke-width:1.0;" width="10" x="2077.5" y="1393.5234"/><polygon fill="#181818" points="654,124.1094,664,128.1094,654,132.1094,658,128.1094" style="stroke:#181818;stroke-width:1.0;"/><line style="stroke:#181818;stroke-width:1.0;" x1="56" x2="660" y1="128.1094" y2="128.1094"/><text fill="#000000" font-family="sans-serif" font-size="20" font-weight="bold" lengthAdjust="spacing" textLength="13" x="63" y="121.8906">1</text><text fill="#000000" font-family="sans-serif" font-size="20" lengthAdjust="spacing" textLength="574" x="80" y="121.8906">ask to list announcements and the orders to accept or reject</text><polygon fill="#181818" points="1022.5,161.6641,1032.5,165.6641,1022.5,169.6641,1026.5,165.6641" style="stroke:#181818;stroke-width:1.0;"/><line style="stroke:#181818;stroke-width:1.0;" x1="676" x2="1028.5" y1="165.6641" y2="165.6641"/><text fill="#000000" font-family="sans-serif" font-size="20" font-weight="bold" lengthAdjust="spacing" textLength="13" x="683" y="159.4453">2</text><text fill="#000000" font-family="sans-serif" font-size="20" lengthAdjust="spacing" textLength="58" x="700" y="159.4453">create</text><rect fill="#E3E3E3" height="37.5547" rx="2.5" ry="2.5" style="stroke:#181818;stroke-width:0.5;" width="375" x="1034.5" y="136.1094"/><text fill="#000000" font-family="sans-serif" font-size="20" lengthAdjust="spacing" textLength="361" x="1041.5" y="162.4453">:PropertyOrderManagementController</text><polygon fill="#181818" points="1205,210.2188,1215,214.2188,1205,218.2188,1209,214.2188" style="stroke:#181818;stroke-width:1.0;"/><line style="stroke:#181818;stroke-width:1.0;" x1="676" x2="1211" y1="214.2188" y2="214.2188"/><text fill="#000000" font-family="sans-serif" font-size="20" font-weight="bold" lengthAdjust="spacing" textLength="13" x="683" y="208">3</text><text fill="#000000" font-family="sans-serif" font-size="20" lengthAdjust="spacing" textLength="390" x="700" y="208">getAllAnnouncementsSortedByproperty()</text><polygon fill="#181818" points="1472,247.7734,1482,251.7734,1472,255.7734,1476,251.7734" style="stroke:#181818;stroke-width:1.0;"/><line style="stroke:#181818;stroke-width:1.0;" x1="1227" x2="1478" y1="251.7734" y2="251.7734"/><text fill="#000000" font-family="sans-serif" font-size="20" font-weight="bold" lengthAdjust="spacing" textLength="13" x="1234" y="245.5547">4</text><text fill="#000000" font-family="sans-serif" font-size="20" lengthAdjust="spacing" textLength="123" x="1251" y="245.5547">getInstance()</text><polygon fill="#181818" points="1238,285.3281,1228,289.3281,1238,293.3281,1234,289.3281" style="stroke:#181818;stroke-width:1.0;"/><line style="stroke:#181818;stroke-width:1.0;stroke-dasharray:2.0,2.0;" x1="1232" x2="1488" y1="289.3281" y2="289.3281"/><text fill="#000000" font-family="sans-serif" font-size="20" font-weight="bold" lengthAdjust="spacing" textLength="13" x="1244" y="283.1094">5</text><text fill="#000000" font-family="sans-serif" font-size="20" lengthAdjust="spacing" textLength="114" x="1261" y="283.1094">repositories</text><polygon fill="#181818" points="1621,322.8828,1631,326.8828,1621,330.8828,1625,326.8828" style="stroke:#181818;stroke-width:1.0;"/><line style="stroke:#181818;stroke-width:1.0;" x1="1227" x2="1627" y1="326.8828" y2="326.8828"/><text fill="#000000" font-family="sans-serif" font-size="20" font-weight="bold" lengthAdjust="spacing" textLength="13" x="1234" y="320.6641">6</text><text fill="#000000" font-family="sans-serif" font-size="20" lengthAdjust="spacing" textLength="290" x="1251" y="320.6641">getAnnouncementRepository()</text><polygon fill="#181818" points="1238,360.4375,1228,364.4375,1238,368.4375,1234,364.4375" style="stroke:#181818;stroke-width:1.0;"/><line style="stroke:#181818;stroke-width:1.0;stroke-dasharray:2.0,2.0;" x1="1232" x2="1637" y1="364.4375" y2="364.4375"/><text fill="#000000" font-family="sans-serif" font-size="20" font-weight="bold" lengthAdjust="spacing" textLength="13" x="1244" y="358.2188">7</text><text fill="#000000" font-family="sans-serif" font-size="20" lengthAdjust="spacing" textLength="276" x="1261" y="358.2188">getAnnouncementRepository</text><polygon fill="#181818" points="1833.5,397.9922,1843.5,401.9922,1833.5,405.9922,1837.5,401.9922" style="stroke:#181818;stroke-width:1.0;"/><line style="stroke:#181818;stroke-width:1.0;stroke-dasharray:2.0,2.0;" x1="1227" x2="1839.5" y1="401.9922" y2="401.9922"/><text fill="#000000" font-family="sans-serif" font-size="20" font-weight="bold" lengthAdjust="spacing" textLength="13" x="1234" y="395.7734">8</text><text fill="#000000" font-family="sans-serif" font-size="20" lengthAdjust="spacing" textLength="390" x="1251" y="395.7734">getAllAnnouncementsSortedByproperty()</text><polygon fill="#181818" points="1238,435.5469,1228,439.5469,1238,443.5469,1234,439.5469" style="stroke:#181818;stroke-width:1.0;"/><line style="stroke:#181818;stroke-width:1.0;stroke-dasharray:2.0,2.0;" x1="1232" x2="1849.5" y1="439.5469" y2="439.5469"/><text fill="#000000" font-family="sans-serif" font-size="20" font-weight="bold" lengthAdjust="spacing" textLength="13" x="1244" y="433.3281">9</text><text fill="#000000" font-family="sans-serif" font-size="20" lengthAdjust="spacing" textLength="376" x="1261" y="433.3281">getAllAnnouncementsSortedByproperty</text><polygon fill="#181818" points="687,473.1016,677,477.1016,687,481.1016,683,477.1016" style="stroke:#181818;stroke-width:1.0;"/><line style="stroke:#181818;stroke-width:1.0;stroke-dasharray:2.0,2.0;" x1="681" x2="1221" y1="477.1016" y2="477.1016"/><text fill="#000000" font-family="sans-serif" font-size="20" font-weight="bold" lengthAdjust="spacing" textLength="26" x="693" y="470.8828">10</text><text fill="#000000" font-family="sans-serif" font-size="20" lengthAdjust="spacing" textLength="376" x="723" y="470.8828">getAllAnnouncementsSortedByproperty</text><polygon fill="#181818" points="67,534.2109,57,538.2109,67,542.2109,63,538.2109" style="stroke:#181818;stroke-width:1.0;"/><line style="stroke:#181818;stroke-width:1.0;" x1="61" x2="670" y1="538.2109" y2="538.2109"/><text fill="#000000" font-family="sans-serif" font-size="20" font-weight="bold" lengthAdjust="spacing" textLength="26" x="73" y="520.2148">11</text><text fill="#000000" font-family="sans-serif" font-size="20" lengthAdjust="spacing" textLength="501" x="103" y="508.4375">Display list of all announcements sorted by property</text><text fill="#000000" font-family="sans-serif" font-size="20" lengthAdjust="spacing" textLength="202" x="103" y="531.9922">and ask to select one</text><polygon fill="#181818" points="654,571.7656,664,575.7656,654,579.7656,658,575.7656" style="stroke:#181818;stroke-width:1.0;"/><line style="stroke:#181818;stroke-width:1.0;" x1="56" x2="660" y1="575.7656" y2="575.7656"/><text fill="#000000" font-family="sans-serif" font-size="20" font-weight="bold" lengthAdjust="spacing" textLength="26" x="63" y="569.5469">12</text><text fill="#000000" font-family="sans-serif" font-size="20" lengthAdjust="spacing" textLength="232" x="93" y="569.5469">Select an announcement</text><polygon fill="#181818" points="1205,609.3203,1215,613.3203,1205,617.3203,1209,613.3203" style="stroke:#181818;stroke-width:1.0;"/><line style="stroke:#181818;stroke-width:1.0;" x1="676" x2="1211" y1="613.3203" y2="613.3203"/><text fill="#000000" font-family="sans-serif" font-size="20" font-weight="bold" lengthAdjust="spacing" textLength="26" x="683" y="607.1016">13</text><text fill="#000000" font-family="sans-serif" font-size="20" lengthAdjust="spacing" textLength="492" x="713" y="607.1016">getOrdersListByAnnouncementId(Announcementid)</text><polygon fill="#181818" points="1621,646.875,1631,650.875,1621,654.875,1625,650.875" style="stroke:#181818;stroke-width:1.0;"/><line style="stroke:#181818;stroke-width:1.0;" x1="1227" x2="1627" y1="650.875" y2="650.875"/><text fill="#000000" font-family="sans-serif" font-size="20" font-weight="bold" lengthAdjust="spacing" textLength="26" x="1234" y="644.6563">14</text><text fill="#000000" font-family="sans-serif" font-size="20" lengthAdjust="spacing" textLength="212" x="1264" y="644.6563">getOrdersRepository()</text><polygon fill="#181818" points="1238,684.4297,1228,688.4297,1238,692.4297,1234,688.4297" style="stroke:#181818;stroke-width:1.0;"/><line style="stroke:#181818;stroke-width:1.0;stroke-dasharray:2.0,2.0;" x1="1232" x2="1637" y1="688.4297" y2="688.4297"/><text fill="#000000" font-family="sans-serif" font-size="20" font-weight="bold" lengthAdjust="spacing" textLength="26" x="1244" y="682.2109">15</text><text fill="#000000" font-family="sans-serif" font-size="20" lengthAdjust="spacing" textLength="188" x="1274" y="682.2109">getOrderRepository</text><polygon fill="#181818" points="2065.5,721.9844,2075.5,725.9844,2065.5,729.9844,2069.5,725.9844" style="stroke:#181818;stroke-width:1.0;"/><line style="stroke:#181818;stroke-width:1.0;" x1="1227" x2="2071.5" y1="725.9844" y2="725.9844"/><text fill="#000000" font-family="sans-serif" font-size="20" font-weight="bold" lengthAdjust="spacing" textLength="26" x="1234" y="719.7656">16</text><text fill="#000000" font-family="sans-serif" font-size="20" lengthAdjust="spacing" textLength="492" x="1264" y="719.7656">getOrdersListByAnnouncementId(Announcementid)</text><polygon fill="#181818" points="1238,759.5391,1228,763.5391,1238,767.5391,1234,763.5391" style="stroke:#181818;stroke-width:1.0;"/><line style="stroke:#181818;stroke-width:1.0;stroke-dasharray:2.0,2.0;" x1="1232" x2="2081.5" y1="763.5391" y2="763.5391"/><text fill="#000000" font-family="sans-serif" font-size="20" font-weight="bold" lengthAdjust="spacing" textLength="26" x="1244" y="757.3203">17</text><text fill="#000000" font-family="sans-serif" font-size="20" lengthAdjust="spacing" textLength="100" x="1274" y="757.3203">OrdersList</text><polygon fill="#181818" points="687,797.0938,677,801.0938,687,805.0938,683,801.0938" style="stroke:#181818;stroke-width:1.0;"/><line style="stroke:#181818;stroke-width:1.0;stroke-dasharray:2.0,2.0;" x1="681" x2="1221" y1="801.0938" y2="801.0938"/><text fill="#000000" font-family="sans-serif" font-size="20" font-weight="bold" lengthAdjust="spacing" textLength="26" x="693" y="794.875">18</text><text fill="#000000" font-family="sans-serif" font-size="20" lengthAdjust="spacing" textLength="100" x="723" y="794.875">OrdersList</text><polygon fill="#181818" points="67,834.6484,57,838.6484,67,842.6484,63,838.6484" style="stroke:#181818;stroke-width:1.0;"/><line style="stroke:#181818;stroke-width:1.0;" x1="61" x2="670" y1="838.6484" y2="838.6484"/><text fill="#000000" font-family="sans-serif" font-size="20" font-weight="bold" lengthAdjust="spacing" textLength="26" x="73" y="832.4297">19</text><text fill="#000000" font-family="sans-serif" font-size="20" lengthAdjust="spacing" textLength="386" x="103" y="832.4297">Show list of orders and ask to select one</text><polygon fill="#181818" points="654,872.2031,664,876.2031,654,880.2031,658,876.2031" style="stroke:#181818;stroke-width:1.0;"/><line style="stroke:#181818;stroke-width:1.0;" x1="56" x2="660" y1="876.2031" y2="876.2031"/><text fill="#000000" font-family="sans-serif" font-size="20" font-weight="bold" lengthAdjust="spacing" textLength="26" x="63" y="869.9844">20</text><text fill="#000000" font-family="sans-serif" font-size="20" lengthAdjust="spacing" textLength="143" x="93" y="869.9844">Select an order</text><polygon fill="#181818" points="67,909.7578,57,913.7578,67,917.7578,63,913.7578" style="stroke:#181818;stroke-width:1.0;"/><line style="stroke:#181818;stroke-width:1.0;" x1="61" x2="670" y1="913.7578" y2="913.7578"/><text fill="#000000" font-family="sans-serif" font-size="20" font-weight="bold" lengthAdjust="spacing" textLength="26" x="73" y="907.5391">21</text><text fill="#000000" font-family="sans-serif" font-size="20" lengthAdjust="spacing" textLength="305" x="103" y="907.5391">ask to accept or reject the order</text><path d="M10,928.7578 L82,928.7578 L82,944.3125 L72,954.3125 L10,954.3125 L10,928.7578 " fill="#EEEEEE" style="stroke:#000000;stroke-width:1.5;"/><rect fill="none" height="585.4297" style="stroke:#000000;stroke-width:1.5;" width="2171.5" x="10" y="928.7578"/><text fill="#000000" font-family="sans-serif" font-size="20" font-weight="bold" lengthAdjust="spacing" textLength="27" x="25" y="949.0938">alt</text><text fill="#000000" font-family="sans-serif" font-size="20" font-weight="bold" lengthAdjust="spacing" textLength="184" x="97" y="950.0938">[accept the order]</text><polygon fill="#181818" points="654,988.4219,664,992.4219,654,996.4219,658,992.4219" style="stroke:#181818;stroke-width:1.0;"/><line style="stroke:#181818;stroke-width:1.0;" x1="56" x2="660" y1="992.4219" y2="992.4219"/><text fill="#000000" font-family="sans-serif" font-size="20" font-weight="bold" lengthAdjust="spacing" textLength="26" x="63" y="986.2031">22</text><text fill="#000000" font-family="sans-serif" font-size="20" lengthAdjust="spacing" textLength="124" x="93" y="986.2031">Select accept</text><polygon fill="#181818" points="1205,1025.9766,1215,1029.9766,1205,1033.9766,1209,1029.9766" style="stroke:#181818;stroke-width:1.0;"/><line style="stroke:#181818;stroke-width:1.0;" x1="676" x2="1211" y1="1029.9766" y2="1029.9766"/><text fill="#000000" font-family="sans-serif" font-size="20" font-weight="bold" lengthAdjust="spacing" textLength="26" x="683" y="1023.7578">23</text><text fill="#000000" font-family="sans-serif" font-size="20" lengthAdjust="spacing" textLength="376" x="713" y="1023.7578">acceptOrder(Orderid,Announcementid)</text><polygon fill="#181818" points="2065.5,1063.5313,2075.5,1067.5313,2065.5,1071.5313,2069.5,1067.5313" style="stroke:#181818;stroke-width:1.0;"/><line style="stroke:#181818;stroke-width:1.0;" x1="1227" x2="2071.5" y1="1067.5313" y2="1067.5313"/><text fill="#000000" font-family="sans-serif" font-size="20" font-weight="bold" lengthAdjust="spacing" textLength="26" x="1234" y="1061.3125">24</text><text fill="#000000" font-family="sans-serif" font-size="20" lengthAdjust="spacing" textLength="376" x="1264" y="1061.3125">acceptOrder(Orderid,Announcementid)</text><polygon fill="#181818" points="1238,1101.0859,1228,1105.0859,1238,1109.0859,1234,1105.0859" style="stroke:#181818;stroke-width:1.0;"/><line style="stroke:#181818;stroke-width:1.0;stroke-dasharray:2.0,2.0;" x1="1232" x2="2081.5" y1="1105.0859" y2="1105.0859"/><text fill="#000000" font-family="sans-serif" font-size="20" font-weight="bold" lengthAdjust="spacing" textLength="26" x="1244" y="1098.8672">25</text><text fill="#000000" font-family="sans-serif" font-size="20" lengthAdjust="spacing" textLength="145" x="1274" y="1098.8672">OrderAccepted</text><polygon fill="#181818" points="2065.5,1138.6406,2075.5,1142.6406,2065.5,1146.6406,2069.5,1142.6406" style="stroke:#181818;stroke-width:1.0;"/><line style="stroke:#181818;stroke-width:1.0;" x1="1227" x2="2071.5" y1="1142.6406" y2="1142.6406"/><text fill="#000000" font-family="sans-serif" font-size="20" font-weight="bold" lengthAdjust="spacing" textLength="26" x="1234" y="1136.4219">26</text><text fill="#000000" font-family="sans-serif" font-size="20" lengthAdjust="spacing" textLength="312" x="1264" y="1136.4219">rejectAllOrder(Announcementid)</text><polygon fill="#181818" points="1238,1176.1953,1228,1180.1953,1238,1184.1953,1234,1180.1953" style="stroke:#181818;stroke-width:1.0;"/><line style="stroke:#181818;stroke-width:1.0;stroke-dasharray:2.0,2.0;" x1="1232" x2="2081.5" y1="1180.1953" y2="1180.1953"/><text fill="#000000" font-family="sans-serif" font-size="20" font-weight="bold" lengthAdjust="spacing" textLength="26" x="1244" y="1173.9766">27</text><text fill="#000000" font-family="sans-serif" font-size="20" lengthAdjust="spacing" textLength="164" x="1274" y="1173.9766">AllOrderRejected</text><polygon fill="#181818" points="687,1213.75,677,1217.75,687,1221.75,683,1217.75" style="stroke:#181818;stroke-width:1.0;"/><line style="stroke:#181818;stroke-width:1.0;" x1="681" x2="1221" y1="1217.75" y2="1217.75"/><text fill="#000000" font-family="sans-serif" font-size="20" font-weight="bold" lengthAdjust="spacing" textLength="26" x="693" y="1211.5313">28</text><text fill="#000000" font-family="sans-serif" font-size="20" lengthAdjust="spacing" textLength="427" x="723" y="1211.5313">OrderAccepted and All OtherOrdersRejected</text><polygon fill="#181818" points="67,1251.3047,57,1255.3047,67,1259.3047,63,1255.3047" style="stroke:#181818;stroke-width:1.0;"/><line style="stroke:#181818;stroke-width:1.0;stroke-dasharray:2.0,2.0;" x1="61" x2="670" y1="1255.3047" y2="1255.3047"/><text fill="#000000" font-family="sans-serif" font-size="20" font-weight="bold" lengthAdjust="spacing" textLength="26" x="73" y="1249.0859">29</text><text fill="#000000" font-family="sans-serif" font-size="20" lengthAdjust="spacing" textLength="256" x="103" y="1249.0859">displays operation success</text><line style="stroke:#000000;stroke-width:1.0;stroke-dasharray:2.0,2.0;" x1="10" x2="2181.5" y1="1264.3047" y2="1264.3047"/><text fill="#000000" font-family="sans-serif" font-size="20" font-weight="bold" lengthAdjust="spacing" textLength="176" x="15" y="1283.6406">[reject the order]</text><polygon fill="#181818" points="654,1314.4141,664,1318.4141,654,1322.4141,658,1318.4141" style="stroke:#181818;stroke-width:1.0;"/><line style="stroke:#181818;stroke-width:1.0;" x1="56" x2="660" y1="1318.4141" y2="1318.4141"/><text fill="#000000" font-family="sans-serif" font-size="20" font-weight="bold" lengthAdjust="spacing" textLength="26" x="63" y="1312.1953">30</text><text fill="#000000" font-family="sans-serif" font-size="20" lengthAdjust="spacing" textLength="115" x="93" y="1312.1953">Select reject</text><polygon fill="#181818" points="1205,1351.9688,1215,1355.9688,1205,1359.9688,1209,1355.9688" style="stroke:#181818;stroke-width:1.0;"/><line style="stroke:#181818;stroke-width:1.0;" x1="676" x2="1211" y1="1355.9688" y2="1355.9688"/><text fill="#000000" font-family="sans-serif" font-size="20" font-weight="bold" lengthAdjust="spacing" textLength="26" x="683" y="1349.75">31</text><text fill="#000000" font-family="sans-serif" font-size="20" lengthAdjust="spacing" textLength="367" x="713" y="1349.75">rejectOrder(Orderid,Announcementid)</text><polygon fill="#181818" points="2065.5,1389.5234,2075.5,1393.5234,2065.5,1397.5234,2069.5,1393.5234" style="stroke:#181818;stroke-width:1.0;"/><line style="stroke:#181818;stroke-width:1.0;" x1="1227" x2="2071.5" y1="1393.5234" y2="1393.5234"/><text fill="#000000" font-family="sans-serif" font-size="20" font-weight="bold" lengthAdjust="spacing" textLength="26" x="1234" y="1387.3047">32</text><text fill="#000000" font-family="sans-serif" font-size="20" lengthAdjust="spacing" textLength="367" x="1264" y="1387.3047">rejectOrder(Orderid,Announcementid)</text><polygon fill="#181818" points="1238,1427.0781,1228,1431.0781,1238,1435.0781,1234,1431.0781" style="stroke:#181818;stroke-width:1.0;"/><line style="stroke:#181818;stroke-width:1.0;stroke-dasharray:2.0,2.0;" x1="1232" x2="2081.5" y1="1431.0781" y2="1431.0781"/><text fill="#000000" font-family="sans-serif" font-size="20" font-weight="bold" lengthAdjust="spacing" textLength="26" x="1244" y="1424.8594">33</text><text fill="#000000" font-family="sans-serif" font-size="20" lengthAdjust="spacing" textLength="134" x="1274" y="1424.8594">orderRejected</text><polygon fill="#181818" points="687,1464.6328,677,1468.6328,687,1472.6328,683,1468.6328" style="stroke:#181818;stroke-width:1.0;"/><line style="stroke:#181818;stroke-width:1.0;" x1="681" x2="1221" y1="1468.6328" y2="1468.6328"/><text fill="#000000" font-family="sans-serif" font-size="20" font-weight="bold" lengthAdjust="spacing" textLength="26" x="693" y="1462.4141">34</text><text fill="#000000" font-family="sans-serif" font-size="20" lengthAdjust="spacing" textLength="138" x="723" y="1462.4141">OrderRejected</text><polygon fill="#181818" points="67,1502.1875,57,1506.1875,67,1510.1875,63,1506.1875" style="stroke:#181818;stroke-width:1.0;"/><line style="stroke:#181818;stroke-width:1.0;stroke-dasharray:2.0,2.0;" x1="61" x2="670" y1="1506.1875" y2="1506.1875"/><text fill="#000000" font-family="sans-serif" font-size="20" font-weight="bold" lengthAdjust="spacing" textLength="26" x="73" y="1499.9688">35</text><text fill="#000000" font-family="sans-serif" font-size="20" lengthAdjust="spacing" textLength="256" x="103" y="1499.9688">displays operation success</text><!--SRC=[xLTDSzCm4BthL-pqGieGXeQF0HyOqWywBIbqcXOklQZsDX5L98yajuHVprgsQzbn2kbqXejzI2RIxjjTlQVrnju8bNB35rB7DvX0WjSya-wpLcugVYECNZ5RcS12AntFZLuWE9DXi9Fo-8RFSEgM4i5WxBYQoT30pdcYxuIQmJMN5XdZcTCgMroXOUpPN2G8rrgxA_sByTXf0rlZ6Igt1Tp2-F3WwpaZ72TYaNBbO2iwDJf5uvRVJ8BcX2iAlY3xYoFlSN7qR-PxLARHKgBnRdldPvEMunccsWfAIA3rDlSBowd8QwGgcYucyBXKgm2dat6hcB5IEbEnpwY6ZovLzqPn9frRJLnVR0EmjUAHMckCvGI8M-wmF7Zcls3uaOuL8dAv0QT12kk01rbO-fM0coFe7D7cHZoECNMqG9huIQgeeOaXGYFC_CoVFoVSs21j1AkqDaCtbZAirKwrSPZiBjEIqS5s3UhvOzwNC3gOAY2Fb2LznXYwTj7AkX26PNOHX4Ip11-6WYghdFwoiauAmwIyL9ZtgCEkzGnpA3oBcEJPxR3v0Qy9pDO566v4PLZ0kaWvsh2IucQOb6OXBg_d2FQ5JILV5ahMry2bR0dQUZ2uMa851vSgLtbv1onA4ZLeXGmQSPetPbgOSTM0Pn1UXXNT-sjf9vJRxZAiy2WPX3z5igB_3gaLO9k9hDqNrgZhOxk1F3xzbKxKHWxaLEE7YQqWDEJIwLETV2cAwLpVtIkYR6JTZ8SGw_Zs0Ao3vyBXlfcs-sJTHXjXk7ILQMt0W9xk1Bofts-aa2yqv5OO-kCP-4-Hl6Ypr40fXKRFUX5i3Bf2NhxxDmcCVHHClF53IdWusUBOgPaK-JvfdXNgcO-nOQgrSAjAlHm94xwH1anripkXQwe3oIL5sxEGTpJk1BtJR4ROrZQqXZIbhQgnM-dbo_tlGYiCdrXe6uDkIg1-0lRMCVHeWb0bh7uWU3xHLhQGh9w-_-Titq_p_JJVJ_FzDDzFy_qqtq_p_JJVJ_FzDDzFyu-OvaybZO4N9nEu9OdaC3ilHwz6hr_k3AQPWcFgJwCFi3EAthwFthw37mVda6zliy7XwOJUVPc9CK_66N6LvMbiisD-o-4iepDT81MMeZhU_r8jm86w5KOh_t8x_dvI6xnxCzmLZjHYA1FuViBsY_yLv17hX8Qa22xEFm_VimdzKSXeDey05TiZ1XsDhN2u-mS0]--></g></svg>