<?xml version="1.0" encoding="UTF-8" standalone="no"?><svg xmlns="http://www.w3.org/2000/svg" xmlns:xlink="http://www.w3.org/1999/xlink" contentStyleType="text/css" height="459px" preserveAspectRatio="none" style="width:869px;height:459px;background:#FFFFFF;" version="1.1" viewBox="0 0 869 459" width="869px" zoomAndPan="magnify"><defs/><g><text fill="#000000" font-family="sans-serif" font-size="14" font-weight="bold" lengthAdjust="spacing" textLength="231" x="318" y="28.5352">System Sequence Diagram (SSD)</text><rect fill="#FFFFFF" height="226.3281" style="stroke:#181818;stroke-width:1.0;" width="10" x="87" y="136.043"/><rect fill="#FFFFFF" height="37.5547" style="stroke:#181818;stroke-width:1.0;" width="10" x="814" y="165.5977"/><rect fill="#FFFFFF" height="37.5547" style="stroke:#181818;stroke-width:1.0;" width="10" x="814" y="240.707"/><rect fill="#FFFFFF" height="37.5547" style="stroke:#181818;stroke-width:1.0;" width="10" x="814" y="315.8164"/><line style="stroke:#181818;stroke-width:0.5;stroke-dasharray:5.0,5.0;" x1="92" x2="92" y1="126.043" y2="371.3711"/><line style="stroke:#181818;stroke-width:0.5;stroke-dasharray:5.0,5.0;" x1="819" x2="819" y1="126.043" y2="371.3711"/><text fill="#000000" font-family="sans-serif" font-size="20" lengthAdjust="spacing" textLength="168" x="5" y="121.8242">Network Manager</text><ellipse cx="92" cy="50.9883" fill="#E3E3E3" rx="8" ry="8" style="stroke:#181818;stroke-width:0.5;"/><path d="M92,58.9883 L92,85.9883 M79,66.9883 L105,66.9883 M92,85.9883 L79,100.9883 M92,85.9883 L105,100.9883 " fill="none" style="stroke:#181818;stroke-width:0.5;"/><text fill="#000000" font-family="sans-serif" font-size="20" lengthAdjust="spacing" textLength="168" x="5" y="389.707">Network Manager</text><ellipse cx="92" cy="402.4258" fill="#E3E3E3" rx="8" ry="8" style="stroke:#181818;stroke-width:0.5;"/><path d="M92,410.4258 L92,437.4258 M79,418.4258 L105,418.4258 M92,437.4258 L79,452.4258 M92,437.4258 L105,452.4258 " fill="none" style="stroke:#181818;stroke-width:0.5;"/><rect fill="#E3E3E3" height="37.5547" rx="2.5" ry="2.5" style="stroke:#181818;stroke-width:0.5;" width="88" x="775" y="87.4883"/><text fill="#000000" font-family="sans-serif" font-size="20" lengthAdjust="spacing" textLength="74" x="782" y="113.8242">:System</text><rect fill="#E3E3E3" height="37.5547" rx="2.5" ry="2.5" style="stroke:#181818;stroke-width:0.5;" width="88" x="775" y="370.3711"/><text fill="#000000" font-family="sans-serif" font-size="20" lengthAdjust="spacing" textLength="74" x="782" y="396.707">:System</text><rect fill="#FFFFFF" height="226.3281" style="stroke:#181818;stroke-width:1.0;" width="10" x="87" y="136.043"/><rect fill="#FFFFFF" height="37.5547" style="stroke:#181818;stroke-width:1.0;" width="10" x="814" y="165.5977"/><rect fill="#FFFFFF" height="37.5547" style="stroke:#181818;stroke-width:1.0;" width="10" x="814" y="240.707"/><rect fill="#FFFFFF" height="37.5547" style="stroke:#181818;stroke-width:1.0;" width="10" x="814" y="315.8164"/><polygon fill="#181818" points="802,161.5977,812,165.5977,802,169.5977,806,165.5977" style="stroke:#181818;stroke-width:1.0;"/><line style="stroke:#181818;stroke-width:1.0;" x1="97" x2="808" y1="165.5977" y2="165.5977"/><text fill="#000000" font-family="sans-serif" font-size="20" font-weight="bold" lengthAdjust="spacing" textLength="13" x="104" y="159.3789">1</text><text fill="#000000" font-family="sans-serif" font-size="20" lengthAdjust="spacing" textLength="242" x="121" y="159.3789">Ask to list all deals made</text><polygon fill="#181818" points="108,199.1523,98,203.1523,108,207.1523,104,203.1523" style="stroke:#181818;stroke-width:1.0;"/><line style="stroke:#181818;stroke-width:1.0;stroke-dasharray:2.0,2.0;" x1="102" x2="818" y1="203.1523" y2="203.1523"/><text fill="#000000" font-family="sans-serif" font-size="20" font-weight="bold" lengthAdjust="spacing" textLength="13" x="114" y="196.9336">2</text><text fill="#000000" font-family="sans-serif" font-size="20" lengthAdjust="spacing" textLength="445" x="131" y="196.9336">Shows option to import file with existing deals</text><polygon fill="#181818" points="802,236.707,812,240.707,802,244.707,806,240.707" style="stroke:#181818;stroke-width:1.0;"/><line style="stroke:#181818;stroke-width:1.0;" x1="97" x2="808" y1="240.707" y2="240.707"/><text fill="#000000" font-family="sans-serif" font-size="20" font-weight="bold" lengthAdjust="spacing" textLength="13" x="104" y="234.4883">3</text><text fill="#000000" font-family="sans-serif" font-size="20" lengthAdjust="spacing" textLength="187" x="121" y="234.4883">select file to import</text><polygon fill="#181818" points="108,274.2617,98,278.2617,108,282.2617,104,278.2617" style="stroke:#181818;stroke-width:1.0;"/><line style="stroke:#181818;stroke-width:1.0;stroke-dasharray:2.0,2.0;" x1="102" x2="818" y1="278.2617" y2="278.2617"/><text fill="#000000" font-family="sans-serif" font-size="20" font-weight="bold" lengthAdjust="spacing" textLength="13" x="114" y="272.043">4</text><text fill="#000000" font-family="sans-serif" font-size="20" lengthAdjust="spacing" textLength="676" x="131" y="272.043">Display deals sorted by property ID and Request to select the sort type</text><polygon fill="#181818" points="802,311.8164,812,315.8164,802,319.8164,806,315.8164" style="stroke:#181818;stroke-width:1.0;"/><line style="stroke:#181818;stroke-width:1.0;" x1="97" x2="808" y1="315.8164" y2="315.8164"/><text fill="#000000" font-family="sans-serif" font-size="20" font-weight="bold" lengthAdjust="spacing" textLength="13" x="104" y="309.5977">5</text><text fill="#000000" font-family="sans-serif" font-size="20" lengthAdjust="spacing" textLength="155" x="121" y="309.5977">selects sort type</text><polygon fill="#181818" points="108,349.3711,98,353.3711,108,357.3711,104,353.3711" style="stroke:#181818;stroke-width:1.0;"/><line style="stroke:#181818;stroke-width:1.0;stroke-dasharray:2.0,2.0;" x1="102" x2="818" y1="353.3711" y2="353.3711"/><text fill="#000000" font-family="sans-serif" font-size="20" font-weight="bold" lengthAdjust="spacing" textLength="13" x="114" y="347.1523">6</text><text fill="#000000" font-family="sans-serif" font-size="20" lengthAdjust="spacing" textLength="455" x="131" y="347.1523">Display the list of deals sorted by property area</text><!--SRC=[fLAzJiD03Dxp55Od62eXnWn8I14I0mpa2Tp4IKwvd8yxXn2U7kUQbb9H1iXa-Jv_FtPYRvp7W8FbggSQQcfmjFB0JahpGN1xayK310PsN7M11m898vsyUAnwRAcKsH84gWHTQqy1iSEQ9-DQQD16oZ8nej1oZa83bFGwagi82eFj0hygo-8wot0KTkEmew1r9HnWyqmoSUZX2PqAXWrWXBMtjZ9L55CPZqvWa-yb4cvV9YhpXaBdWndezxq7sxk3oHpkOm_2O4qKG6jrMPe51gmfJHvf3pgfkqvlbUYCEeUouoa2Up7i5cOpU0u2ZT7LJ4Owe7VLMhQMf1AVLkSwlzdE8PBLW-n9Znf_D5oOw2tEQ_AeHFhFx6RmWJq5cU6n07Grl2m7rIsftYel7IKyoEpfFq7Y6SsF91SpV4LO3ALBSdCv3WR2IsO_0G00]--></g></svg>