<?xml version="1.0" encoding="UTF-8" standalone="no"?><svg xmlns="http://www.w3.org/2000/svg" xmlns:xlink="http://www.w3.org/1999/xlink" contentStyleType="text/css" height="1633px" preserveAspectRatio="none" style="width:1283px;height:1633px;background:#FFFFFF;" version="1.1" viewBox="0 0 1283 1633" width="1283px" zoomAndPan="magnify"><defs><filter height="300%" id="fh5mfqaorvu8s" width="300%" x="-1" y="-1"><feGaussianBlur result="blurOut" stdDeviation="2.0"/><feColorMatrix in="blurOut" result="blurOut2" type="matrix" values="0 0 0 0 0 0 0 0 0 0 0 0 0 0 0 0 0 0 .4 0"/><feOffset dx="4.0" dy="4.0" in="blurOut2" result="blurOut3"/><feBlend in="SourceGraphic" in2="blurOut3" mode="normal"/></filter></defs><g><text fill="#000000" font-family="sans-serif" font-size="14" font-weight="bold" lengthAdjust="spacing" textLength="131" x="569" y="23.5352">Use Case Diagram</text><!--cluster actors--><g id="cluster_actors"><rect fill="none" filter="url(#fh5mfqaorvu8s)" height="634" rx="2.5" ry="2.5" style="stroke:#FFFF00;stroke-width:1.0;" width="239" x="7" y="488.4883"/><text fill="#000000" font-family="sans-serif" font-size="20" font-weight="bold" lengthAdjust="spacing" textLength="147" x="53" y="509.8242">System Actors</text></g><!--cluster usecases--><g id="cluster_usecases"><rect fill="none" filter="url(#fh5mfqaorvu8s)" height="1577" rx="2.5" ry="2.5" style="stroke:#FFFF00;stroke-width:1.0;" width="936" x="335" y="44.4883"/><text fill="#000000" font-family="sans-serif" font-size="20" font-weight="bold" lengthAdjust="spacing" textLength="105" x="750.5" y="65.8242">Use Cases</text></g><!--entity Unregistered User--><g id="elem_Unregistered User"><ellipse cx="126.5" cy="539.4883" fill="#F1F1F1" filter="url(#fh5mfqaorvu8s)" rx="8" ry="8" style="stroke:#181818;stroke-width:0.5;"/><path d="M126.5,547.4883 L126.5,574.4883 M113.5,555.4883 L139.5,555.4883 M126.5,574.4883 L113.5,589.4883 M126.5,574.4883 L139.5,589.4883 " fill="none" filter="url(#fh5mfqaorvu8s)" style="stroke:#181818;stroke-width:0.5;"/><text fill="#000000" font-family="sans-serif" font-size="20" lengthAdjust="spacing" textLength="172" x="40.5" y="613.3242">Unregistered User</text></g><!--entity Client--><g id="elem_Client"><ellipse cx="126.5" cy="661.4883" fill="#F1F1F1" filter="url(#fh5mfqaorvu8s)" rx="8" ry="8" style="stroke:#181818;stroke-width:0.5;"/><path d="M126.5,669.4883 L126.5,696.4883 M113.5,677.4883 L139.5,677.4883 M126.5,696.4883 L113.5,711.4883 M126.5,696.4883 L139.5,711.4883 " fill="none" filter="url(#fh5mfqaorvu8s)" style="stroke:#181818;stroke-width:0.5;"/><text fill="#000000" font-family="sans-serif" font-size="20" lengthAdjust="spacing" textLength="56" x="98.5" y="735.3242">Client</text></g><!--entity Agent--><g id="elem_Agent"><ellipse cx="126.5" cy="783.4883" fill="#F1F1F1" filter="url(#fh5mfqaorvu8s)" rx="8" ry="8" style="stroke:#181818;stroke-width:0.5;"/><path d="M126.5,791.4883 L126.5,818.4883 M113.5,799.4883 L139.5,799.4883 M126.5,818.4883 L113.5,833.4883 M126.5,818.4883 L139.5,833.4883 " fill="none" filter="url(#fh5mfqaorvu8s)" style="stroke:#181818;stroke-width:0.5;"/><text fill="#000000" font-family="sans-serif" font-size="20" lengthAdjust="spacing" textLength="56" x="98.5" y="857.3242">Agent</text></g><!--entity System Administrator--><g id="elem_System Administrator"><ellipse cx="126.5" cy="905.4883" fill="#F1F1F1" filter="url(#fh5mfqaorvu8s)" rx="8" ry="8" style="stroke:#181818;stroke-width:0.5;"/><path d="M126.5,913.4883 L126.5,940.4883 M113.5,921.4883 L139.5,921.4883 M126.5,940.4883 L113.5,955.4883 M126.5,940.4883 L139.5,955.4883 " fill="none" filter="url(#fh5mfqaorvu8s)" style="stroke:#181818;stroke-width:0.5;"/><text fill="#000000" font-family="sans-serif" font-size="20" lengthAdjust="spacing" textLength="207" x="23" y="979.3242">System Administrator</text></g><!--entity Owner--><g id="elem_Owner"><ellipse cx="126.5" cy="1027.4883" fill="#F1F1F1" filter="url(#fh5mfqaorvu8s)" rx="8" ry="8" style="stroke:#181818;stroke-width:0.5;"/><path d="M126.5,1035.4883 L126.5,1062.4883 M113.5,1043.4883 L139.5,1043.4883 M126.5,1062.4883 L113.5,1077.4883 M126.5,1062.4883 L139.5,1077.4883 " fill="none" filter="url(#fh5mfqaorvu8s)" style="stroke:#181818;stroke-width:0.5;"/><text fill="#000000" font-family="sans-serif" font-size="20" lengthAdjust="spacing" textLength="62" x="95.5" y="1101.3242">Owner</text></g><g id="elem_UC1"><ellipse cx="803.2443" cy="123.3371" fill="#F1F1F1" filter="url(#fh5mfqaorvu8s)" rx="169.7443" ry="36.3489" style="stroke:#181818;stroke-width:0.5;"/><text fill="#000000" font-family="sans-serif" font-size="20" lengthAdjust="spacing" textLength="300" x="653.2443" y="128.8957">UC1 - Display listed properties</text></g><g id="elem_UC2"><ellipse cx="803.1349" cy="723.4153" fill="#F1F1F1" filter="url(#fh5mfqaorvu8s)" rx="267.6349" ry="55.927" style="stroke:#181818;stroke-width:0.5;"/><text fill="#000000" font-family="sans-serif" font-size="20" lengthAdjust="spacing" textLength="504" x="551.1349" y="728.9739">UC2 - Publish any sale announcement on the system</text></g><g id="elem_UC3"><ellipse cx="803.1484" cy="1253.618" fill="#F1F1F1" filter="url(#fh5mfqaorvu8s)" rx="171.1484" ry="36.6297" style="stroke:#181818;stroke-width:0.5;"/><text fill="#000000" font-family="sans-serif" font-size="20" lengthAdjust="spacing" textLength="303" x="651.6484" y="1259.1766">UC3 - Register a new employee</text></g><g id="elem_UC4"><ellipse cx="803.2053" cy="1573.5293" fill="#F1F1F1" filter="url(#fh5mfqaorvu8s)" rx="148.2053" ry="32.0411" style="stroke:#181818;stroke-width:0.5;"/><text fill="#000000" font-family="sans-serif" font-size="20" lengthAdjust="spacing" textLength="253" x="673.7053" y="1580.4473">UC4 - Submit Sale or Rent</text></g><g id="elem_UC7"><ellipse cx="802.9789" cy="256.5841" fill="#F1F1F1" filter="url(#fh5mfqaorvu8s)" rx="295.9789" ry="61.5958" style="stroke:#181818;stroke-width:0.5;"/><text fill="#000000" font-family="sans-serif" font-size="20" lengthAdjust="spacing" textLength="562" x="521.9789" y="262.1427">UC7 - Register in the system to buy, sell or rent properties</text></g><g id="elem_UC8"><ellipse cx="802.9824" cy="887.5848" fill="#F1F1F1" filter="url(#fh5mfqaorvu8s)" rx="353.4824" ry="73.0965" style="stroke:#181818;stroke-width:0.5;"/><text fill="#000000" font-family="sans-serif" font-size="20" lengthAdjust="spacing" textLength="679" x="463.4824" y="893.1434">UC8 - See the list of property announcement requests made to himself</text></g><g id="elem_UC9"><ellipse cx="803.1666" cy="423.6216" fill="#F1F1F1" filter="url(#fh5mfqaorvu8s)" rx="341.1666" ry="70.6333" style="stroke:#181818;stroke-width:0.5;"/><text fill="#000000" font-family="sans-serif" font-size="20" lengthAdjust="spacing" textLength="654" x="476.1666" y="429.1802">UC9 - Leave a message to the agent to schedule a visit to a property</text></g><g id="elem_UC10"><ellipse cx="802.7958" cy="580.2474" fill="#F1F1F1" filter="url(#fh5mfqaorvu8s)" rx="244.2958" ry="51.2592" style="stroke:#181818;stroke-width:0.5;"/><text fill="#000000" font-family="sans-serif" font-size="20" lengthAdjust="spacing" textLength="456" x="574.7958" y="585.806">UC10 - Place an order to purchase the property</text></g><g id="elem_UC11"><ellipse cx="802.8793" cy="1088.2641" fill="#F1F1F1" filter="url(#fh5mfqaorvu8s)" rx="451.8793" ry="92.7759" style="stroke:#181818;stroke-width:0.5;"/><text fill="#000000" font-family="sans-serif" font-size="20" lengthAdjust="spacing" textLength="878" x="363.8793" y="1093.8227">UC11 - List real estate purchase orders to accept or decline a purchase order for a property</text></g><g id="elem_UC12"><ellipse cx="802.9904" cy="1415.2864" fill="#F1F1F1" filter="url(#fh5mfqaorvu8s)" rx="439.4904" ry="90.2981" style="stroke:#181818;stroke-width:0.5;"/><text fill="#000000" font-family="sans-serif" font-size="20" lengthAdjust="spacing" textLength="853" x="376.4904" y="1420.845">UC12 - Import information from a legacy system that has been in use in several agencies</text></g><!--link Unregistered User to UC1--><g id="link_Unregistered User_UC1"><path d="M135.41,530.6483 C153.12,446.4783 204.43,262.9983 327,177.4883 C419.67,112.8283 548.13,101.6783 648.09,105.3983 " fill="none" id="Unregistered User-to-UC1" style="stroke:#181818;stroke-width:1.0;"/><polygon fill="#181818" points="652.82,105.5883,643.9871,101.2318,647.824,105.3884,643.6673,109.2254,652.82,105.5883" style="stroke:#181818;stroke-width:1.0;"/></g><!--link Agent to UC2--><g id="link_Agent_UC2"><path d="M154.78,814.6483 C224.92,804.7683 417.05,777.7083 573.89,755.6183 " fill="none" id="Agent-to-UC2" style="stroke:#181818;stroke-width:1.0;"/><polygon fill="#181818" points="578.42,754.9783,568.9491,752.276,573.4691,755.6774,570.0677,760.1974,578.42,754.9783" style="stroke:#181818;stroke-width:1.0;"/></g><!--link System Administrator to UC3--><g id="link_System Administrator_UC3"><path d="M230.46,981.2183 C239.07,987.1783 247.11,993.9183 254,1001.4883 C316.83,1070.5583 253.56,1140.8283 327,1198.4883 C418.14,1270.0383 551.1,1279.9183 653.18,1274.1083 " fill="none" id="System Administrator-to-UC3" style="stroke:#181818;stroke-width:1.0;"/><polygon fill="#181818" points="658.04,1273.8083,648.816,1270.3561,653.049,1274.1086,649.2965,1278.3416,658.04,1273.8083" style="stroke:#181818;stroke-width:1.0;"/></g><!--link Owner to UC4--><g id="link_Owner_UC4"><path d="M132.06,1106.2983 C144.39,1200.2783 187.5,1420.9983 327,1523.4883 C426.9,1596.8783 572.11,1601.6083 675.64,1592.8383 " fill="none" id="Owner-to-UC4" style="stroke:#181818;stroke-width:1.0;"/><polygon fill="#181818" points="680.58,1592.3983,671.2614,1589.2103,675.5996,1592.8407,671.9692,1597.1789,680.58,1592.3983" style="stroke:#181818;stroke-width:1.0;"/></g><!--link Client to UC7--><g id="link_Client_UC7"><path d="M154.76,690.6283 C183.74,682.9683 228.78,666.6683 254,635.4883 C340.29,528.7983 226.45,428.8683 327,335.4883 C374.62,291.2583 437.12,266.6083 501.08,253.7283 " fill="none" id="Client-to-UC7" style="stroke:#181818;stroke-width:1.0;"/><polygon fill="#181818" points="505.79,252.8083,496.184,250.6348,500.8855,253.7806,497.7397,258.4821,505.79,252.8083" style="stroke:#181818;stroke-width:1.0;"/></g><!--link Agent to UC8--><g id="link_Agent_UC8"><path d="M154.78,821.2783 C211.24,827.0583 346.78,840.9183 479.31,854.4783 " fill="none" id="Agent-to-UC8" style="stroke:#181818;stroke-width:1.0;"/><polygon fill="#181818" points="484.11,854.9683,475.5555,850.0877,479.1351,854.4679,474.7549,858.0476,484.11,854.9683" style="stroke:#181818;stroke-width:1.0;"/></g><!--link Client to UC9--><g id="link_Client_UC9"><path d="M154.9,688.5083 C182.53,679.3483 225.12,662.0783 254,635.4883 C301.05,592.1783 274.62,548.1783 327,511.4883 C369.91,481.4383 420.16,460.8083 471.61,446.7983 " fill="none" id="Client-to-UC9" style="stroke:#181818;stroke-width:1.0;"/><polygon fill="#181818" points="476.42,445.5183,466.6938,443.9687,471.5884,446.8048,468.7523,451.6994,476.42,445.5183" style="stroke:#181818;stroke-width:1.0;"/></g><!--link Client to UC10--><g id="link_Client_UC10"><path d="M154.77,689.2683 C193.04,679.3183 264.95,661.2783 327,649.4883 C411.27,633.4683 504.58,619.1783 586.03,607.8183 " fill="none" id="Client-to-UC10" style="stroke:#181818;stroke-width:1.0;"/><polygon fill="#181818" points="590.87,607.1383,581.4057,604.4129,585.9174,607.8253,582.505,612.337,590.87,607.1383" style="stroke:#181818;stroke-width:1.0;"/></g><!--link Agent to UC11--><g id="link_Agent_UC11"><path d="M154.83,827.3183 C182.02,837.0383 223.91,854.6583 254,879.4883 C295.89,914.0583 281.57,947.7183 327,977.4883 C359.86,999.0183 396.41,1016.3983 434.24,1030.4083 " fill="none" id="Agent-to-UC11" style="stroke:#181818;stroke-width:1.0;"/><polygon fill="#181818" points="438.9,1032.1083,431.8222,1025.2596,434.2044,1030.3904,429.0736,1032.7725,438.9,1032.1083" style="stroke:#181818;stroke-width:1.0;"/></g><!--link System Administrator to UC12--><g id="link_System Administrator_UC12"><path d="M230.23,979.5083 C239.12,985.8483 247.27,993.1283 254,1001.4883 C341.67,1110.3983 227.6,1209.1583 327,1307.4883 C352.43,1332.6483 382.43,1352.4383 414.79,1367.9583 " fill="none" id="System Administrator-to-UC12" style="stroke:#181818;stroke-width:1.0;"/><polygon fill="#181818" points="419.06,1369.9683,412.6255,1362.5119,414.5375,1367.8359,409.2136,1369.7479,419.06,1369.9683" style="stroke:#181818;stroke-width:1.0;"/></g><!--SRC=[ZLHBQzj04BxhLmo-z5A3xHWINmgfIw4GQ8d93nYlnjAIVQYxAnkrvBztHf8TIGwcEjZQtTdlCG_5L-qg36YDLw-KGqu7h4twxbtQwJy4gqNsAPvZm7hdLHcy9KYXfkpzf4BrYWNjKcC80gc4hZ33W5XYxa_Q5TtDmSab-cy6_7pr8QUmzSO7QCWOVyhUiYpfnC0laM2B_FDDOy5tiypG8K7o47HH9iYrW6dliko22hDT4nDPU5J9XpW3Z83jAtI4xG9cBovGeJaoS1gOACo6frkZoQNHrcCntJaJvLOxHWh8kwE0doSdkEndgE_igjDMHrAowCJrAmxQBc7ElcDbi04ZGdEeWgye9DrVvPZsqldvm1FCv_Clby01-ehHVzLx1Yu1NGCHMHewvskdoB9Jy0vIIH1RaptVQipNfGGwYjMKueufddizWE3e16GhunkY7kvk3FTXFdlqkodwcj5tzTxg13lHplb-RjMqoEinSbU87cezXReV2jL3sz9g-xhv394xKoY2PEQg3FTZjhvvUhhxATs3A2TgQQImu0zdo6PSWa2_QuefWiMSH4kfBIivzBGFDwhnC6NTCEiJuP6h39PYvEaLH161Sb4MKPMKrz88SDHHjtjuqTQpRcwPtLnryK8QpQ2Ixe9srWMrgeCg9KJu9mJBnIs6_dH88PFo98aCX0OuOPZedQ7bZAqLfQXAKiQSbD5EV8x3uE33jUFbyaQYbrUZjPJP-c4h7n9t4oDQb6yK7FX3ok262bJDfS5AJC02O4_afFaOIFuY7Icm6wcD6Wpywlz7XcFVidy0]--></g></svg>