<?xml version="1.0" encoding="UTF-8" standalone="no"?><svg xmlns="http://www.w3.org/2000/svg" xmlns:xlink="http://www.w3.org/1999/xlink" contentStyleType="text/css" height="1629px" preserveAspectRatio="none" style="width:1282px;height:1629px;background:#FFFFFF;" version="1.1" viewBox="0 0 1282 1629" width="1282px" zoomAndPan="magnify"><defs><filter height="300%" id="fh5mfqaorvu8s" width="300%" x="-1" y="-1"><feGaussianBlur result="blurOut" stdDeviation="2.0"/><feColorMatrix in="blurOut" result="blurOut2" type="matrix" values="0 0 0 0 0 0 0 0 0 0 0 0 0 0 0 0 0 0 .4 0"/><feOffset dx="4.0" dy="4.0" in="blurOut2" result="blurOut3"/><feBlend in="SourceGraphic" in2="blurOut3" mode="normal"/></filter></defs><g><text fill="#000000" font-family="sans-serif" font-size="14" font-weight="bold" lengthAdjust="spacing" textLength="131" x="568.88" y="23.5352">Use Case Diagram</text><!--cluster actors--><g id="cluster_actors"><rect fill="none" filter="url(#fh5mfqaorvu8s)" height="632" rx="2.5" ry="2.5" style="stroke:#FFFF00;stroke-width:1.0;" width="239" x="7" y="487.4883"/><text fill="#000000" font-family="sans-serif" font-size="20" font-weight="bold" lengthAdjust="spacing" textLength="147" x="53" y="508.8242">System Actors</text></g><!--cluster usecases--><g id="cluster_usecases"><rect fill="none" filter="url(#fh5mfqaorvu8s)" height="1573" rx="2.5" ry="2.5" style="stroke:#FFFF00;stroke-width:1.0;" width="935.76" x="335" y="44.4883"/><text fill="#000000" font-family="sans-serif" font-size="20" font-weight="bold" lengthAdjust="spacing" textLength="105" x="750.38" y="65.8242">Use Cases</text></g><!--entity Unregistered User--><g id="elem_Unregistered User"><ellipse cx="126.5" cy="537.7083" fill="#F1F1F1" filter="url(#fh5mfqaorvu8s)" rx="8" ry="8" style="stroke:#181818;stroke-width:0.5;"/><path d="M126.5,545.7083 L126.5,572.7083 M113.5,553.7083 L139.5,553.7083 M126.5,572.7083 L113.5,587.7083 M126.5,572.7083 L139.5,587.7083 " fill="none" filter="url(#fh5mfqaorvu8s)" style="stroke:#181818;stroke-width:0.5;"/><text fill="#000000" font-family="sans-serif" font-size="20" lengthAdjust="spacing" textLength="172" x="40.5" y="611.5442">Unregistered User</text></g><!--entity Client--><g id="elem_Client"><ellipse cx="126.5" cy="659.7083" fill="#F1F1F1" filter="url(#fh5mfqaorvu8s)" rx="8" ry="8" style="stroke:#181818;stroke-width:0.5;"/><path d="M126.5,667.7083 L126.5,694.7083 M113.5,675.7083 L139.5,675.7083 M126.5,694.7083 L113.5,709.7083 M126.5,694.7083 L139.5,709.7083 " fill="none" filter="url(#fh5mfqaorvu8s)" style="stroke:#181818;stroke-width:0.5;"/><text fill="#000000" font-family="sans-serif" font-size="20" lengthAdjust="spacing" textLength="56" x="98.5" y="733.5442">Client</text></g><!--entity Agent--><g id="elem_Agent"><ellipse cx="126.5" cy="781.7083" fill="#F1F1F1" filter="url(#fh5mfqaorvu8s)" rx="8" ry="8" style="stroke:#181818;stroke-width:0.5;"/><path d="M126.5,789.7083 L126.5,816.7083 M113.5,797.7083 L139.5,797.7083 M126.5,816.7083 L113.5,831.7083 M126.5,816.7083 L139.5,831.7083 " fill="none" filter="url(#fh5mfqaorvu8s)" style="stroke:#181818;stroke-width:0.5;"/><text fill="#000000" font-family="sans-serif" font-size="20" lengthAdjust="spacing" textLength="56" x="98.5" y="855.5442">Agent</text></g><!--entity System Administrator--><g id="elem_System Administrator"><ellipse cx="126.5" cy="903.7083" fill="#F1F1F1" filter="url(#fh5mfqaorvu8s)" rx="8" ry="8" style="stroke:#181818;stroke-width:0.5;"/><path d="M126.5,911.7083 L126.5,938.7083 M113.5,919.7083 L139.5,919.7083 M126.5,938.7083 L113.5,953.7083 M126.5,938.7083 L139.5,953.7083 " fill="none" filter="url(#fh5mfqaorvu8s)" style="stroke:#181818;stroke-width:0.5;"/><text fill="#000000" font-family="sans-serif" font-size="20" lengthAdjust="spacing" textLength="207" x="23" y="977.5442">System Administrator</text></g><!--entity Owner--><g id="elem_Owner"><ellipse cx="126.5" cy="1025.7083" fill="#F1F1F1" filter="url(#fh5mfqaorvu8s)" rx="8" ry="8" style="stroke:#181818;stroke-width:0.5;"/><path d="M126.5,1033.7083 L126.5,1060.7083 M113.5,1041.7083 L139.5,1041.7083 M126.5,1060.7083 L113.5,1075.7083 M126.5,1060.7083 L139.5,1075.7083 " fill="none" filter="url(#fh5mfqaorvu8s)" style="stroke:#181818;stroke-width:0.5;"/><text fill="#000000" font-family="sans-serif" font-size="20" lengthAdjust="spacing" textLength="62" x="95.5" y="1099.5442">Owner</text></g><g id="elem_UC1"><ellipse cx="802.8843" cy="122.4871" fill="#F1F1F1" filter="url(#fh5mfqaorvu8s)" rx="169.7443" ry="36.3489" style="stroke:#181818;stroke-width:0.5;"/><text fill="#000000" font-family="sans-serif" font-size="20" lengthAdjust="spacing" textLength="300" x="652.8843" y="128.0457">UC1 - Display listed properties</text></g><g id="elem_UC2"><ellipse cx="802.8849" cy="721.4853" fill="#F1F1F1" filter="url(#fh5mfqaorvu8s)" rx="267.6349" ry="55.927" style="stroke:#181818;stroke-width:0.5;"/><text fill="#000000" font-family="sans-serif" font-size="20" lengthAdjust="spacing" textLength="504" x="550.8849" y="727.0439">UC2 - Publish any sale announcement on the system</text></g><g id="elem_UC3"><ellipse cx="802.8784" cy="1250.488" fill="#F1F1F1" filter="url(#fh5mfqaorvu8s)" rx="171.1484" ry="36.6297" style="stroke:#181818;stroke-width:0.5;"/><text fill="#000000" font-family="sans-serif" font-size="20" lengthAdjust="spacing" textLength="303" x="651.3784" y="1256.0466">UC3 - Register a new employee</text></g><g id="elem_UC4"><ellipse cx="802.8753" cy="1569.4893" fill="#F1F1F1" filter="url(#fh5mfqaorvu8s)" rx="148.2053" ry="32.0411" style="stroke:#181818;stroke-width:0.5;"/><text fill="#000000" font-family="sans-serif" font-size="20" lengthAdjust="spacing" textLength="253" x="673.3753" y="1576.4073">UC4 - Submit Sale or Rent</text></g><g id="elem_UC7"><ellipse cx="802.8789" cy="255.4841" fill="#F1F1F1" filter="url(#fh5mfqaorvu8s)" rx="295.9789" ry="61.5958" style="stroke:#181818;stroke-width:0.5;"/><text fill="#000000" font-family="sans-serif" font-size="20" lengthAdjust="spacing" textLength="562" x="521.8789" y="261.0427">UC7 - Register in the system to buy, sell or rent properties</text></g><g id="elem_UC8"><ellipse cx="802.8824" cy="885.4848" fill="#F1F1F1" filter="url(#fh5mfqaorvu8s)" rx="353.4824" ry="73.0965" style="stroke:#181818;stroke-width:0.5;"/><text fill="#000000" font-family="sans-serif" font-size="20" lengthAdjust="spacing" textLength="679" x="463.3824" y="891.0434">UC8 - See the list of property announcement requests made to himself</text></g><g id="elem_UC9"><ellipse cx="802.8766" cy="422.4916" fill="#F1F1F1" filter="url(#fh5mfqaorvu8s)" rx="341.1666" ry="70.6333" style="stroke:#181818;stroke-width:0.5;"/><text fill="#000000" font-family="sans-serif" font-size="20" lengthAdjust="spacing" textLength="654" x="475.8766" y="428.0502">UC9 - Leave a message to the agent to schedule a visit to a property</text></g><g id="elem_UC10"><ellipse cx="802.8758" cy="579.4874" fill="#F1F1F1" filter="url(#fh5mfqaorvu8s)" rx="244.2958" ry="51.2592" style="stroke:#181818;stroke-width:0.5;"/><text fill="#000000" font-family="sans-serif" font-size="20" lengthAdjust="spacing" textLength="456" x="574.8758" y="585.046">UC10 - Place an order to purchase the property</text></g><g id="elem_UC11"><ellipse cx="802.8793" cy="1086.4841" fill="#F1F1F1" filter="url(#fh5mfqaorvu8s)" rx="451.8793" ry="92.7759" style="stroke:#181818;stroke-width:0.5;"/><text fill="#000000" font-family="sans-serif" font-size="20" lengthAdjust="spacing" textLength="878" x="363.8793" y="1092.0427">UC11 - List real estate purchase orders to accept or decline a purchase order for a property</text></g><g id="elem_UC12"><ellipse cx="802.8804" cy="1412.4864" fill="#F1F1F1" filter="url(#fh5mfqaorvu8s)" rx="439.4904" ry="90.2981" style="stroke:#181818;stroke-width:0.5;"/><text fill="#000000" font-family="sans-serif" font-size="20" lengthAdjust="spacing" textLength="853" x="376.3804" y="1418.045">UC12 - Import information from a legacy system that has been in use in several agencies</text></g><!--link Unregistered User to UC1--><g id="link_Unregistered User_UC1"><path d="M135.45,528.7583 C153.22,444.7883 204.63,261.7683 327,176.4883 C419.69,111.8883 548.12,100.7283 648.06,104.4383 " fill="none" id="Unregistered User-to-UC1" style="stroke:#181818;stroke-width:1.0;"/><polygon fill="#181818" points="652.99,104.6783,644.1571,100.3218,647.994,104.4784,643.8373,108.3154,652.99,104.6783" style="stroke:#181818;stroke-width:1.0;"/></g><!--link Agent to UC2--><g id="link_Agent_UC2"><path d="M154.77,812.6483 C224.97,802.7583 417.38,775.6483 574.27,753.5483 " fill="none" id="Agent-to-UC2" style="stroke:#181818;stroke-width:1.0;"/><polygon fill="#181818" points="578.84,752.7683,569.3691,750.066,573.8891,753.4674,570.4877,757.9874,578.84,752.7683" style="stroke:#181818;stroke-width:1.0;"/></g><!--link System Administrator to UC3--><g id="link_System Administrator_UC3"><path d="M230.46,979.2183 C239.07,985.1783 247.11,991.9183 254,999.4883 C316.83,1068.5583 253.5,1138.8983 327,1196.4883 C418.51,1268.1783 552.09,1277.5783 654.28,1271.3883 " fill="none" id="System Administrator-to-UC3" style="stroke:#181818;stroke-width:1.0;"/><polygon fill="#181818" points="659.04,1271.0183,649.8062,1267.5924,654.0499,1271.3328,650.3095,1275.5766,659.04,1271.0183" style="stroke:#181818;stroke-width:1.0;"/></g><!--link Owner to UC4--><g id="link_Owner_UC4"><path d="M132.08,1104.2283 C144.44,1198.0583 187.6,1418.3783 327,1520.4883 C427.24,1593.9083 572.93,1598.1483 676.46,1589.0483 " fill="none" id="Owner-to-UC4" style="stroke:#181818;stroke-width:1.0;"/><polygon fill="#181818" points="681.29,1588.5183,671.9615,1585.3592,676.311,1588.9761,672.6941,1593.3256,681.29,1588.5183" style="stroke:#181818;stroke-width:1.0;"/></g><!--link Client to UC7--><g id="link_Client_UC7"><path d="M154.76,688.6283 C183.73,680.9583 228.77,664.6683 254,633.4883 C340.06,527.1583 226.73,427.5383 327,334.4883 C374.72,290.1983 437.37,265.5483 501.45,252.6883 " fill="none" id="Client-to-UC7" style="stroke:#181818;stroke-width:1.0;"/><polygon fill="#181818" points="506.25,251.5583,496.6501,249.3579,501.3427,252.5168,498.1838,257.2095,506.25,251.5583" style="stroke:#181818;stroke-width:1.0;"/></g><!--link Agent to UC8--><g id="link_Agent_UC8"><path d="M154.77,819.2783 C211.22,825.0583 346.72,838.9183 479.21,852.4783 " fill="none" id="Agent-to-UC8" style="stroke:#181818;stroke-width:1.0;"/><polygon fill="#181818" points="484.12,853.0783,475.5655,848.1977,479.1451,852.5779,474.7649,856.1576,484.12,853.0783" style="stroke:#181818;stroke-width:1.0;"/></g><!--link Client to UC9--><g id="link_Client_UC9"><path d="M154.88,686.4883 C182.5,677.3083 225.07,660.0183 254,633.4883 C300.85,590.5183 274.87,546.8683 327,510.4883 C370.13,480.3983 420.62,459.7683 472.29,445.7683 " fill="none" id="Client-to-UC9" style="stroke:#181818;stroke-width:1.0;"/><polygon fill="#181818" points="476.94,444.2683,467.2138,442.7187,472.1084,445.5548,469.2723,450.4494,476.94,444.2683" style="stroke:#181818;stroke-width:1.0;"/></g><!--link Client to UC10--><g id="link_Client_UC10"><path d="M154.78,687.4483 C193.06,677.7383 264.99,660.1183 327,648.4883 C411.66,632.6083 505.4,618.2983 587.07,606.8783 " fill="none" id="Client-to-UC10" style="stroke:#181818;stroke-width:1.0;"/><polygon fill="#181818" points="591.93,606.0683,582.4668,603.3392,586.9772,606.7534,583.563,611.2638,591.93,606.0683" style="stroke:#181818;stroke-width:1.0;"/></g><!--link Agent to UC11--><g id="link_Agent_UC11"><path d="M154.86,825.2783 C182.06,834.9783 223.97,852.5883 254,877.4883 C296.08,912.3883 281.32,946.4583 327,976.4883 C359.61,997.9183 395.87,1015.1983 433.42,1029.1283 " fill="none" id="Agent-to-UC11" style="stroke:#181818;stroke-width:1.0;"/><polygon fill="#181818" points="437.97,1031.1583,430.8855,1024.3165,433.2727,1029.445,428.1442,1031.8322,437.97,1031.1583" style="stroke:#181818;stroke-width:1.0;"/></g><!--link System Administrator to UC12--><g id="link_System Administrator_UC12"><path d="M230.23,977.5083 C239.12,983.8483 247.27,991.1283 254,999.4883 C341.4,1108.0683 227.84,1206.5283 327,1304.4883 C352.62,1329.7983 382.86,1349.6783 415.48,1365.2283 " fill="none" id="System Administrator-to-UC12" style="stroke:#181818;stroke-width:1.0;"/><polygon fill="#181818" points="419.73,1367.6883,413.2864,1360.2398,415.2049,1365.5614,409.8833,1367.4799,419.73,1367.6883" style="stroke:#181818;stroke-width:1.0;"/></g><!--SRC=[ZLHBQzj04BxhLmo-z5A3xHWINmgfIw4GQ8d93nYlnjAIVQYxAnkrvBztHf8TIGwcEjZQtTdlCG_5L-qg36YDLw-KGqu7h4twxbtQwJy4gqNsAPvZm7hdLHcy9KYXfkpzf4BrYWNjKcC80gc4hZ33W5XYxa_Q5TtDmSab-cy6_7pr8QUmzSO7QCWOVyhUiYpfnC0laM2B_FDDOy5tiypG8K7o47HH9iYrW6dliko22hDT4nDPU5J9XpW3Z83jAtI4xG9cBovGeJaoS1gOACo6frkZoQNHrcCntJaJvLOxHWh8kwE0doSdkEndgE_igjDMHrAowCJrAmxQBc7ElcDbi04ZGdEeWgye9DrVvPZsqldvm1FCv_Clby01-ehHVzLx1Yu1NGCHMHewvskdoB9Jy0vIIH1RaptVQipNfGGwYjMKueufddizWE3e16GhunkY7kvk3FTXFdlqkodwcj5tzTxg13lHplb-RjMqoEinSbU87cezXReV2jL3sz9g-xhv394xKoY2PEQg3FTZjhvvUhhxATs3A2TgQQImu0zdo6PSWa2_QuefWiMSH4kfBIivzBGFDwhnC6NTCEiJuP6h39PYvEaLH161Sb4MKPMKrz88SDHHjtjuqTQpRcwPtLnryK8QpQ2Ixe9srWMrgeCg9KJu9mJBnIs6_dH88PFo98aCX0OuOPZedQ7bZAqLfQXAKiQSbD5EV8x3uE33jUFbyaQYbrUZjPJP-c4h7n9t4oDQb6yK7FX3ok262bJDfS5AJC02O4_afFaOIFuY7Icm6wcD6Wpywlz7XcFVidy0]--></g></svg>