<?xml version="1.0" encoding="UTF-8" standalone="no"?><svg xmlns="http://www.w3.org/2000/svg" xmlns:xlink="http://www.w3.org/1999/xlink" contentStyleType="text/css" height="1205px" preserveAspectRatio="none" style="width:761px;height:1205px;background:#FFFFFF;" version="1.1" viewBox="0 0 761 1205" width="761px" zoomAndPan="magnify"><defs/><g><text fill="#000000" font-family="sans-serif" font-size="14" font-weight="bold" lengthAdjust="spacing" textLength="426" x="160.75" y="23.5352">Domain Model for User Story 3 - Register a New Employee</text><!--class SystemAdministrator--><g id="elem_SystemAdministrator"><rect codeLine="17" fill="#F1F1F1" height="41.5547" id="SystemAdministrator" rx="2.5" ry="2.5" style="stroke:#181818;stroke-width:0.5;" width="207" x="7" y="103.3783"/><text fill="#000000" font-family="sans-serif" font-size="20" lengthAdjust="spacing" textLength="201" x="10" y="127.7142">SystemAdministrator</text><line style="stroke:#181818;stroke-width:0.5;" x1="8" x2="213" y1="136.933" y2="136.933"/></g><!--class Employee--><g id="elem_Employee"><rect codeLine="44" fill="#F1F1F1" height="41.5547" id="Employee" rx="2.5" ry="2.5" style="stroke:#181818;stroke-width:0.5;" width="99" x="61" y="347.7083"/><text fill="#000000" font-family="sans-serif" font-size="20" lengthAdjust="spacing" textLength="93" x="64" y="372.0442">Employee</text><line style="stroke:#181818;stroke-width:0.5;" x1="62" x2="159" y1="381.263" y2="381.263"/></g><!--class StoreManager--><g id="elem_StoreManager"><rect codeLine="20" fill="#F1F1F1" height="41.5547" id="StoreManager" rx="2.5" ry="2.5" style="stroke:#181818;stroke-width:0.5;" width="137" x="104" y="635.6983"/><text fill="#000000" font-family="sans-serif" font-size="20" lengthAdjust="spacing" textLength="131" x="107" y="660.0342">StoreManager</text><line style="stroke:#181818;stroke-width:0.5;" x1="105" x2="240" y1="669.253" y2="669.253"/></g><!--class StoreNetworkManager--><g id="elem_StoreNetworkManager"><rect codeLine="23" fill="#F1F1F1" height="41.5547" id="StoreNetworkManager" rx="2.5" ry="2.5" style="stroke:#181818;stroke-width:0.5;" width="217" x="139" y="509.1483"/><text fill="#000000" font-family="sans-serif" font-size="20" lengthAdjust="spacing" textLength="211" x="142" y="533.4842">StoreNetworkManager</text><line style="stroke:#181818;stroke-width:0.5;" x1="140" x2="355" y1="542.703" y2="542.703"/></g><!--class Agent--><g id="elem_Agent"><rect codeLine="26" fill="#F1F1F1" height="41.5547" id="Agent" rx="2.5" ry="2.5" style="stroke:#181818;stroke-width:0.5;" width="62" x="101.5" y="1006.5883"/><text fill="#000000" font-family="sans-serif" font-size="20" lengthAdjust="spacing" textLength="56" x="104.5" y="1030.9242">Agent</text><line style="stroke:#181818;stroke-width:0.5;" x1="102.5" x2="162.5" y1="1040.143" y2="1040.143"/></g><!--class Agency--><g id="elem_Agency"><rect codeLine="29" fill="#F1F1F1" height="135.7734" id="Agency" rx="2.5" ry="2.5" style="stroke:#181818;stroke-width:0.5;" width="150" x="97.5" y="762.2583"/><text fill="#000000" font-family="sans-serif" font-size="20" lengthAdjust="spacing" textLength="69" x="138" y="786.5942">Agency</text><line style="stroke:#181818;stroke-width:0.5;" x1="98.5" x2="246.5" y1="795.813" y2="795.813"/><text fill="#000000" font-family="sans-serif" font-size="20" lengthAdjust="spacing" textLength="21" x="103.5" y="819.1489">ID</text><text fill="#000000" font-family="sans-serif" font-size="20" lengthAdjust="spacing" textLength="53" x="103.5" y="842.7036">name</text><text fill="#000000" font-family="sans-serif" font-size="20" lengthAdjust="spacing" textLength="132" x="103.5" y="866.2583">emailAddress</text><text fill="#000000" font-family="sans-serif" font-size="20" lengthAdjust="spacing" textLength="138" x="103.5" y="889.813">phoneNumber</text></g><!--class User--><g id="elem_User"><rect codeLine="36" fill="#F1F1F1" height="159.3281" id="User" rx="2.5" ry="2.5" style="stroke:#181818;stroke-width:0.5;" width="220" x="299.5" y="44.4883"/><text fill="#000000" font-family="sans-serif" font-size="20" lengthAdjust="spacing" textLength="43" x="388" y="68.8242">User</text><line style="stroke:#181818;stroke-width:0.5;" x1="300.5" x2="518.5" y1="78.043" y2="78.043"/><text fill="#000000" font-family="sans-serif" font-size="20" lengthAdjust="spacing" textLength="53" x="305.5" y="101.3789">name</text><text fill="#000000" font-family="sans-serif" font-size="20" lengthAdjust="spacing" textLength="208" x="305.5" y="124.9336">passportCardNumber</text><text fill="#000000" font-family="sans-serif" font-size="20" lengthAdjust="spacing" textLength="108" x="305.5" y="148.4883">taxNumber</text><text fill="#000000" font-family="sans-serif" font-size="20" lengthAdjust="spacing" textLength="53" x="305.5" y="172.043">email</text><text fill="#000000" font-family="sans-serif" font-size="20" lengthAdjust="spacing" textLength="173" x="305.5" y="195.5977">telephoneNumber</text></g><!--class Address--><g id="elem_Address"><rect codeLine="47" fill="#F1F1F1" height="88.6641" id="Address" rx="2.5" ry="2.5" style="stroke:#181818;stroke-width:0.5;" width="135" x="300" y="983.0283"/><text fill="#000000" font-family="sans-serif" font-size="20" lengthAdjust="spacing" textLength="79" x="328" y="1007.3642">Address</text><line style="stroke:#181818;stroke-width:0.5;" x1="301" x2="434" y1="1016.583" y2="1016.583"/><text fill="#000000" font-family="sans-serif" font-size="20" lengthAdjust="spacing" textLength="123" x="306" y="1039.9189">doorNumber</text><text fill="#000000" font-family="sans-serif" font-size="20" lengthAdjust="spacing" textLength="80" x="306" y="1063.4736">zipCode</text></g><!--class Street--><g id="elem_Street"><rect codeLine="52" fill="#F1F1F1" height="41.5547" id="Street" rx="2.5" ry="2.5" style="stroke:#181818;stroke-width:0.5;" width="61" x="477" y="635.6983"/><text fill="#000000" font-family="sans-serif" font-size="20" lengthAdjust="spacing" textLength="55" x="480" y="660.0342">Street</text><line style="stroke:#181818;stroke-width:0.5;" x1="478" x2="537" y1="669.253" y2="669.253"/></g><!--class City--><g id="elem_City"><rect codeLine="55" fill="#F1F1F1" height="41.5547" id="City" rx="2.5" ry="2.5" style="stroke:#181818;stroke-width:0.5;" width="43" x="486" y="809.3683"/><text fill="#000000" font-family="sans-serif" font-size="20" lengthAdjust="spacing" textLength="37" x="489" y="833.7042">City</text><line style="stroke:#181818;stroke-width:0.5;" x1="487" x2="528" y1="842.923" y2="842.923"/></g><!--class District--><g id="elem_District"><rect codeLine="58" fill="#F1F1F1" height="41.5547" id="District" rx="2.5" ry="2.5" style="stroke:#181818;stroke-width:0.5;" width="75" x="470" y="1006.5883"/><text fill="#000000" font-family="sans-serif" font-size="20" lengthAdjust="spacing" textLength="69" x="473" y="1030.9242">District</text><line style="stroke:#181818;stroke-width:0.5;" x1="471" x2="544" y1="1040.143" y2="1040.143"/></g><!--class State--><g id="elem_State"><rect codeLine="61" fill="#F1F1F1" height="41.5547" id="State" rx="2.5" ry="2.5" style="stroke:#181818;stroke-width:0.5;" width="53" x="411" y="1156.6983"/><text fill="#000000" font-family="sans-serif" font-size="20" lengthAdjust="spacing" textLength="47" x="414" y="1181.0342">State</text><line style="stroke:#181818;stroke-width:0.5;" x1="412" x2="463" y1="1190.253" y2="1190.253"/></g><!--class Role--><g id="elem_Role"><rect codeLine="64" fill="#F1F1F1" height="159.3281" id="Role" rx="2.5" ry="2.5" style="stroke:#181818;stroke-width:0.5;" width="292" x="462.5" y="288.8183"/><text fill="#000000" font-family="sans-serif" font-size="20" lengthAdjust="spacing" textLength="42" x="587.5" y="313.1542">Role</text><line style="stroke:#181818;stroke-width:0.5;" x1="463.5" x2="753.5" y1="322.373" y2="322.373"/><text fill="#000000" font-family="sans-serif" font-size="20" lengthAdjust="spacing" textLength="67" x="468.5" y="345.7089">ADMIN</text><text fill="#000000" font-family="sans-serif" font-size="20" lengthAdjust="spacing" textLength="67" x="468.5" y="369.2636">AGENT</text><text fill="#000000" font-family="sans-serif" font-size="20" lengthAdjust="spacing" textLength="70" x="468.5" y="392.8183">CLIENT</text><text fill="#000000" font-family="sans-serif" font-size="20" lengthAdjust="spacing" textLength="280" x="468.5" y="416.373">STORE_NETWORK_MANAGER</text><text fill="#000000" font-family="sans-serif" font-size="20" lengthAdjust="spacing" textLength="172" x="468.5" y="439.9277">STORE_MANAGER</text></g><!--reverse link Employee to SystemAdministrator--><g id="link_Employee_SystemAdministrator"><path d="M151.17,333.1983 C176.61,307.3683 202.47,270.2683 190.5,233.8183 C178.95,198.6483 151.18,165.4983 131.62,145.2783 " fill="none" id="Employee-backto-SystemAdministrator" style="stroke:#181818;stroke-width:1.0;"/><polygon fill="none" points="156.48,337.7583,137.12,346.3683,146.88,327.5683,156.48,337.7583" style="stroke:#181818;stroke-width:1.0;"/></g><!--link SystemAdministrator to Employee--><g id="link_SystemAdministrator_Employee"><path codeLine="72" d="M100.43,145.2983 C88.63,171.2583 71.43,217.9183 77.5,258.8183 C82.22,290.6083 94.31,325.9683 102.47,347.4683 " fill="none" id="SystemAdministrator-Employee" style="stroke:#181818;stroke-width:1.0;"/><polygon fill="#000000" points="85.5807,254.5952,90.1367,240.0764,80.7327,240.1713,85.5807,254.5952" style="stroke:#000000;stroke-width:1.0;"/><text fill="#000000" font-family="sans-serif" font-size="20" lengthAdjust="spacing" textLength="83" x="98.5" y="254.1542">registers</text><text fill="#000000" font-family="sans-serif" font-size="20" lengthAdjust="spacing" textLength="13" x="83.5982" y="172.247">1</text><text fill="#000000" font-family="sans-serif" font-size="20" lengthAdjust="spacing" textLength="13" x="85.7467" y="335.5427">1</text></g><!--reverse link Employee to StoreManager--><g id="link_Employee_StoreManager"><path d="M108.47,410.7083 C107.7,447.9183 109.19,503.8383 121.5,550.6983 C129.72,582.0083 147.59,615.1083 159.83,635.5383 " fill="none" id="Employee-backto-StoreManager" style="stroke:#181818;stroke-width:1.0;"/><polygon fill="none" points="101.51,410.4783,109.19,390.7283,115.5,410.9583,101.51,410.4783" style="stroke:#181818;stroke-width:1.0;"/></g><!--reverse link Employee to StoreNetworkManager--><g id="link_Employee_StoreNetworkManager"><path d="M141.36,405.3983 C168.84,437.3783 208.02,482.9783 230.29,508.8983 " fill="none" id="Employee-backto-StoreNetworkManager" style="stroke:#181818;stroke-width:1.0;"/><polygon fill="none" points="135.58,410.4083,127.85,390.6783,146.19,401.2883,135.58,410.4083" style="stroke:#181818;stroke-width:1.0;"/></g><!--reverse link Employee to Agent--><g id="link_Employee_Agent"><path d="M74.39,404.3183 C47.17,434.4583 14.5,480.6683 14.5,528.9283 C14.5,528.9283 14.5,528.9283 14.5,831.1383 C14.5,904.2083 75.79,973.3583 110.03,1006.2783 " fill="none" id="Employee-backto-Agent" style="stroke:#181818;stroke-width:1.0;"/><polygon fill="none" points="68.84,399.9583,87.72,390.3283,78.97,409.6183,68.84,399.9583" style="stroke:#181818;stroke-width:1.0;"/></g><!--reverse link User to Employee--><g id="link_User_Employee"><path d="M295.7,217.3883 C237.03,264.9283 170.58,318.7983 135.41,347.2883 " fill="none" id="User-backto-Employee" style="stroke:#181818;stroke-width:1.0;"/><polygon fill="none" points="291.06,211.3183,311.01,204.1683,299.88,222.1983,291.06,211.3183" style="stroke:#181818;stroke-width:1.0;"/></g><!--link User to Address--><g id="link_User_Address"><path codeLine="73" d="M409.5,204.2783 C409.5,251.6283 409.5,312.9983 409.5,367.4783 C409.5,367.4783 409.5,367.4783 409.5,831.1383 C409.5,884.1883 394.5,943.5583 382.43,982.7483 " fill="none" id="User-Address" style="stroke:#181818;stroke-width:1.0;"/><polygon fill="#000000" points="417.222,601.4708,422.4244,587.1708,413.0255,586.844,417.222,601.4708" style="stroke:#000000;stroke-width:1.0;"/><text fill="#000000" font-family="sans-serif" font-size="20" lengthAdjust="spacing" textLength="33" x="430.5" y="601.0342">has</text><text fill="#000000" font-family="sans-serif" font-size="20" lengthAdjust="spacing" textLength="13" x="395.9617" y="231.225">1</text><text fill="#000000" font-family="sans-serif" font-size="20" lengthAdjust="spacing" textLength="10" x="373.8885" y="970.8835">*</text></g><!--link User to Role--><g id="link_User_Role"><path codeLine="74" d="M474.38,204.1683 C496.62,231.2383 521.48,261.5183 543.7,288.5783 " fill="none" id="User-Role" style="stroke:#181818;stroke-width:1.0;"/><polygon fill="#000000" points="527.5772,252.778,522.0264,238.6097,514.7585,244.5782,527.5772,252.778" style="stroke:#000000;stroke-width:1.0;"/><text fill="#000000" font-family="sans-serif" font-size="20" lengthAdjust="spacing" textLength="50" x="535.5" y="254.1542">has a</text><text fill="#000000" font-family="sans-serif" font-size="20" lengthAdjust="spacing" textLength="13" x="466.2146" y="231.1058">1</text><text fill="#000000" font-family="sans-serif" font-size="20" lengthAdjust="spacing" textLength="13" x="524.127" y="276.5135">1</text></g><!--link Address to State--><g id="link_Address_State"><path codeLine="75" d="M363.14,1072.0783 C363.21,1089.9283 365.78,1110.2083 374.5,1126.6983 C382.52,1141.8483 397.37,1153.9283 410.65,1162.3983 " fill="none" id="Address-State" style="stroke:#181818;stroke-width:1.0;"/><polygon fill="#000000" points="386.2243,1121.5558,383.6486,1106.5585,375.3253,1110.9367,386.2243,1121.5558" style="stroke:#000000;stroke-width:1.0;"/><text fill="#000000" font-family="sans-serif" font-size="20" lengthAdjust="spacing" textLength="64" x="395.5" y="1122.0342">part of</text><text fill="#000000" font-family="sans-serif" font-size="20" lengthAdjust="spacing" textLength="13" x="348.6807" y="1099.0058">1</text><text fill="#000000" font-family="sans-serif" font-size="20" lengthAdjust="spacing" textLength="13" x="389.9378" y="1152.6523">1</text></g><!--link Street to City--><g id="link_Street_City"><path codeLine="76" d="M507.5,677.5083 C507.5,710.4983 507.5,775.8983 507.5,808.9783 " fill="none" id="Street-City" style="stroke:#181818;stroke-width:1.0;"/><polygon fill="#000000" points="515.5,728.0356,520.2023,713.5635,510.7977,713.5635,515.5,728.0356" style="stroke:#000000;stroke-width:1.0;"/><text fill="#000000" font-family="sans-serif" font-size="20" lengthAdjust="spacing" textLength="64" x="528.5" y="727.5942">part of</text><text fill="#000000" font-family="sans-serif" font-size="20" lengthAdjust="spacing" textLength="13" x="492.9969" y="704.4315">1</text><text fill="#000000" font-family="sans-serif" font-size="20" lengthAdjust="spacing" textLength="13" x="492.8344" y="797.0143">1</text></g><!--link City to District--><g id="link_City_District"><path codeLine="77" d="M507.5,851.2983 C507.5,888.8083 507.5,968.8883 507.5,1006.3183 " fill="none" id="City-District" style="stroke:#181818;stroke-width:1.0;"/><polygon fill="#000000" points="515.5,948.8056,520.2023,934.3335,510.7977,934.3335,515.5,948.8056" style="stroke:#000000;stroke-width:1.0;"/><text fill="#000000" font-family="sans-serif" font-size="20" lengthAdjust="spacing" textLength="64" x="528.5" y="948.3642">part of</text><text fill="#000000" font-family="sans-serif" font-size="20" lengthAdjust="spacing" textLength="13" x="492.9969" y="878.2493">1</text><text fill="#000000" font-family="sans-serif" font-size="20" lengthAdjust="spacing" textLength="13" x="492.8344" y="994.385">1</text></g><!--link District to State--><g id="link_District_State"><path codeLine="78" d="M499.26,1048.5483 C490.95,1068.5883 477.51,1100.0783 464.5,1126.6983 C459.66,1136.5883 453.89,1147.3483 448.93,1156.3283 " fill="none" id="District-State" style="stroke:#181818;stroke-width:1.0;"/><polygon fill="#000000" points="480.1151,1121.7242,490.4991,1110.601,481.9778,1106.6218,480.1151,1121.7242" style="stroke:#000000;stroke-width:1.0;"/><text fill="#000000" font-family="sans-serif" font-size="20" lengthAdjust="spacing" textLength="64" x="496.5" y="1122.0342">part of</text><text fill="#000000" font-family="sans-serif" font-size="20" lengthAdjust="spacing" textLength="13" x="482.8514" y="1075.5062">1</text><text fill="#000000" font-family="sans-serif" font-size="20" lengthAdjust="spacing" textLength="13" x="437.1933" y="1144.3694">1</text></g><!--link Agency to Address--><g id="link_Agency_Address"><path codeLine="79" d="M239.61,898.3283 C267.48,926.2283 299.04,957.8183 323.83,982.6383 " fill="none" id="Agency-Address" style="stroke:#181818;stroke-width:1.0;"/><polygon fill="#000000" points="306.1538,946.4655,299.2527,932.9035,292.5992,939.5499,306.1538,946.4655" style="stroke:#000000;stroke-width:1.0;"/><text fill="#000000" font-family="sans-serif" font-size="20" lengthAdjust="spacing" textLength="33" x="313.5" y="948.3642">has</text><text fill="#000000" font-family="sans-serif" font-size="20" lengthAdjust="spacing" textLength="13" x="232.3869" y="925.2855">1</text><text fill="#000000" font-family="sans-serif" font-size="20" lengthAdjust="spacing" textLength="13" x="303.4613" y="970.7573">1</text></g><!--link StoreNetworkManager to StoreManager--><g id="link_StoreNetworkManager_StoreManager"><path codeLine="80" d="M235.45,550.9383 C221.45,574.1783 198.5,612.2983 184.52,635.5183 " fill="none" id="StoreNetworkManager-StoreManager" style="stroke:#181818;stroke-width:1.0;"/><polygon fill="#000000" points="220.3732,600.3291,231.867,590.3568,223.8103,585.5054,220.3732,600.3291" style="stroke:#000000;stroke-width:1.0;"/><text fill="#000000" font-family="sans-serif" font-size="20" lengthAdjust="spacing" textLength="86" x="237.5" y="601.0342">manages</text><text fill="#000000" font-family="sans-serif" font-size="20" lengthAdjust="spacing" textLength="13" x="218.1603" y="577.8569">1</text><text fill="#000000" font-family="sans-serif" font-size="20" lengthAdjust="spacing" textLength="10" x="176.3189" y="623.6081">*</text></g><!--link StoreManager to Agency--><g id="link_StoreManager_Agency"><path codeLine="81" d="M172.5,677.5083 C172.5,698.1983 172.5,731.6583 172.5,761.8783 " fill="none" id="StoreManager-Agency" style="stroke:#181818;stroke-width:1.0;"/><polygon fill="#000000" points="180.5,728.0356,185.2023,713.5635,175.7977,713.5635,180.5,728.0356" style="stroke:#000000;stroke-width:1.0;"/><text fill="#000000" font-family="sans-serif" font-size="20" lengthAdjust="spacing" textLength="86" x="193.5" y="727.5942">manages</text><text fill="#000000" font-family="sans-serif" font-size="20" lengthAdjust="spacing" textLength="13" x="157.9969" y="704.4315">1</text><text fill="#000000" font-family="sans-serif" font-size="20" lengthAdjust="spacing" textLength="13" x="158.8297" y="750.0169">1</text></g><!--link Agency to Agent--><g id="link_Agency_Agent"><path codeLine="82" d="M158.73,898.3283 C150.96,936.2683 141.79,981.0183 136.61,1006.3083 " fill="none" id="Agency-Agent" style="stroke:#181818;stroke-width:1.0;"/><polygon fill="#000000" points="158.8945,948.6429,166.4055,935.4088,157.1922,933.5215,158.8945,948.6429" style="stroke:#000000;stroke-width:1.0;"/><text fill="#000000" font-family="sans-serif" font-size="20" lengthAdjust="spacing" textLength="33" x="173.5" y="948.3642">has</text><text fill="#000000" font-family="sans-serif" font-size="20" lengthAdjust="spacing" textLength="13" x="143.798" y="925.2855">1</text><text fill="#000000" font-family="sans-serif" font-size="20" lengthAdjust="spacing" textLength="10" x="126.3819" y="994.3725">*</text></g><!--SRC=[ZPDHQzim4CVV_IcElWmAWMvxoyF09Da8Mro8C_POLEjYYqWw8rr8tR3lFbcEKpKBRVsYy_r_kZlzBVkTigrmmcYgTYX1ubRiDNydowLwHlXob_aH0KEMgiQHGM2tnqHfHRKJDPRSQGI75GjRwnJmZP1qKBQ6hT0-LIejlC-PdNhSCouhih7nNTOeYL0fLuL2CJR83KcVPPyqRXcOmAcwOP2gxwZ8PXyf-qPTLXp6dvCHoiAA96hOaeFV7XsKJAw3hp21DTRASqW9AF002zDgwX2pBBQ4iWkYoQLHDc1EX7s0JunM-ZDxpFwUyQ3ZIjZWtljSWNmWj_i0djTe-JsWweuPX6SvZuiL1cE0mG2TI-dG-vXe6x9OxCqZkfSAqPRZwvrj45foF1DEdlW-pU8fUOlbXpngl5fx7FXyWbEpb_67wKxz9P5B6ZohTXQ-NcgUG-Hq_qnnbxxF-s-bgbTCoO8nJQn9uwbZFbyjYo7wiIWsCPhzMevXkRbVBnwAnURF_Vhdmoel0hLEb34JIb-xBpUVRs0oYSlen3JyLiEzy_0jYtQCrEtDQCSK6l6V79P-y44JGHszIu1ur6duV8w1je4vEPOWlMCf4HrCzD71b3cx-bQhuIQcoCLfhbtzvEpf7pG54uFpjak-hnxxfUJ51BS3msF_Vm00]--></g></svg>