<?xml version="1.0" encoding="UTF-8" standalone="no"?><svg xmlns="http://www.w3.org/2000/svg" xmlns:xlink="http://www.w3.org/1999/xlink" contentStyleType="text/css" height="1540px" preserveAspectRatio="none" style="width:3087px;height:1540px;background:#FFFFFF;" version="1.1" viewBox="0 0 3087 1540" width="3087px" zoomAndPan="magnify"><defs/><g><!--class Property--><g id="elem_Property"><rect codeLine="10" fill="#F1F1F1" height="261.9922" id="Property" rx="2.5" ry="2.5" style="stroke:#181818;stroke-width:0.5;" width="310" x="2217.5" y="1113"/><ellipse cx="2328" cy="1130" fill="#ADD1B2" rx="12" ry="12" style="stroke:#181818;stroke-width:1.0;"/><path d="M2330.8066,1137.0801 Q2330.123,1137.4316 2329.3711,1137.6074 Q2328.6191,1137.7832 2327.7891,1137.7832 Q2324.8398,1137.7832 2323.2871,1135.8398 Q2321.7344,1133.8965 2321.7344,1130.2246 Q2321.7344,1126.543 2323.2871,1124.5996 Q2324.8398,1122.6563 2327.7891,1122.6563 Q2328.6191,1122.6563 2329.3809,1122.832 Q2330.1426,1123.0078 2330.8066,1123.3594 L2330.8066,1126.5625 Q2330.0645,1125.8789 2329.3662,1125.5615 Q2328.668,1125.2441 2327.9258,1125.2441 Q2326.3438,1125.2441 2325.5381,1126.499 Q2324.7324,1127.7539 2324.7324,1130.2246 Q2324.7324,1132.6855 2325.5381,1133.9404 Q2326.3438,1135.1953 2327.9258,1135.1953 Q2328.668,1135.1953 2329.3662,1134.8779 Q2330.0645,1134.5605 2330.8066,1133.877 Z " fill="#000000"/><text fill="#000000" font-family="sans-serif" font-size="20" lengthAdjust="spacing" textLength="80" x="2350" y="1137.5586">Property</text><line style="stroke:#181818;stroke-width:0.5;" x1="2218.5" x2="2526.5" y1="1147" y2="1147"/><text fill="#000000" font-family="sans-serif" font-size="20" lengthAdjust="spacing" textLength="138" x="2223.5" y="1170.3359">-area : double</text><text fill="#000000" font-family="sans-serif" font-size="20" lengthAdjust="spacing" textLength="290" x="2223.5" y="1193.8906">-distanceFromCenter : double</text><text fill="#000000" font-family="sans-serif" font-size="20" lengthAdjust="spacing" textLength="145" x="2223.5" y="1217.4453">-price : double</text><text fill="#000000" font-family="sans-serif" font-size="20" lengthAdjust="spacing" textLength="185" x="2223.5" y="1241">-address : Address</text><line style="stroke:#181818;stroke-width:0.5;" x1="2218.5" x2="2526.5" y1="1249.2188" y2="1249.2188"/><text fill="#000000" font-family="sans-serif" font-size="20" lengthAdjust="spacing" textLength="236" x="2223.5" y="1272.5547">+getAddress() : Address</text><text fill="#000000" font-family="sans-serif" font-size="20" lengthAdjust="spacing" textLength="189" x="2223.5" y="1296.1094">+getArea() : double</text><text fill="#000000" font-family="sans-serif" font-size="20" lengthAdjust="spacing" textLength="298" x="2223.5" y="1319.6641">+getDistanceFromCenter() : int</text><text fill="#000000" font-family="sans-serif" font-size="20" lengthAdjust="spacing" textLength="191" x="2223.5" y="1343.2188">+getPrice() : double</text><text fill="#000000" font-family="sans-serif" font-size="20" lengthAdjust="spacing" textLength="179" x="2223.5" y="1366.7734">+toString() : String</text></g><!--class Announcement--><g id="elem_Announcement"><rect codeLine="22" fill="#F1F1F1" height="285.5469" id="Announcement" rx="2.5" ry="2.5" style="stroke:#181818;stroke-width:0.5;" width="354" x="2195.5" y="742"/><ellipse cx="2296" cy="759" fill="#ADD1B2" rx="12" ry="12" style="stroke:#181818;stroke-width:1.0;"/><path d="M2298.8066,766.0801 Q2298.123,766.4316 2297.3711,766.6074 Q2296.6191,766.7832 2295.7891,766.7832 Q2292.8398,766.7832 2291.2871,764.8398 Q2289.7344,762.8965 2289.7344,759.2246 Q2289.7344,755.543 2291.2871,753.5996 Q2292.8398,751.6563 2295.7891,751.6563 Q2296.6191,751.6563 2297.3809,751.832 Q2298.1426,752.0078 2298.8066,752.3594 L2298.8066,755.5625 Q2298.0645,754.8789 2297.3662,754.5615 Q2296.668,754.2441 2295.9258,754.2441 Q2294.3438,754.2441 2293.5381,755.499 Q2292.7324,756.7539 2292.7324,759.2246 Q2292.7324,761.6855 2293.5381,762.9404 Q2294.3438,764.1953 2295.9258,764.1953 Q2296.668,764.1953 2297.3662,763.8779 Q2298.0645,763.5605 2298.8066,762.877 Z " fill="#000000"/><text fill="#000000" font-family="sans-serif" font-size="20" lengthAdjust="spacing" textLength="144" x="2318" y="766.5586">Announcement</text><line style="stroke:#181818;stroke-width:0.5;" x1="2196.5" x2="2548.5" y1="776" y2="776"/><text fill="#000000" font-family="sans-serif" font-size="20" lengthAdjust="spacing" textLength="324" x="2201.5" y="799.3359">-typeOfProperty : TypeOfProperty</text><text fill="#000000" font-family="sans-serif" font-size="20" lengthAdjust="spacing" textLength="342" x="2201.5" y="822.8906">-transactionType : TransactionType</text><text fill="#000000" font-family="sans-serif" font-size="20" lengthAdjust="spacing" textLength="190" x="2201.5" y="846.4453">-publishDate : Date</text><text fill="#000000" font-family="sans-serif" font-size="20" lengthAdjust="spacing" textLength="247" x="2201.5" y="870">-comission : Commission</text><text fill="#000000" font-family="sans-serif" font-size="20" lengthAdjust="spacing" textLength="255" x="2201.5" y="893.5547">-photos ArrayList&lt;Photo&gt;</text><text fill="#000000" font-family="sans-serif" font-size="20" lengthAdjust="spacing" textLength="217" x="2201.5" y="917.1094">-isPublished : boolean</text><text fill="#000000" font-family="sans-serif" font-size="20" lengthAdjust="spacing" textLength="74" x="2201.5" y="940.6641">-id : int</text><text fill="#000000" font-family="sans-serif" font-size="20" lengthAdjust="spacing" textLength="150" x="2201.5" y="964.2188">-idCounter : int</text><line style="stroke:#181818;stroke-width:0.5;" x1="2196.5" x2="2548.5" y1="972.4375" y2="972.4375"/><text fill="#000000" font-family="sans-serif" font-size="20" lengthAdjust="spacing" textLength="238" x="2201.5" y="995.7734">+getProperty() : Property</text><text fill="#000000" font-family="sans-serif" font-size="20" lengthAdjust="spacing" textLength="179" x="2201.5" y="1019.3281">+toString() : String</text></g><!--class AnnouncementRepository--><g id="elem_AnnouncementRepository"><rect codeLine="35" fill="#F1F1F1" height="167.7734" id="AnnouncementRepository" rx="2.5" ry="2.5" style="stroke:#181818;stroke-width:0.5;" width="1415" x="1665" y="489"/><ellipse cx="2245" cy="506" fill="#ADD1B2" rx="12" ry="12" style="stroke:#181818;stroke-width:1.0;"/><path d="M2247.8066,513.0801 Q2247.123,513.4316 2246.3711,513.6074 Q2245.6191,513.7832 2244.7891,513.7832 Q2241.8398,513.7832 2240.2871,511.8398 Q2238.7344,509.8965 2238.7344,506.2246 Q2238.7344,502.543 2240.2871,500.5996 Q2241.8398,498.6563 2244.7891,498.6563 Q2245.6191,498.6563 2246.3809,498.832 Q2247.1426,499.0078 2247.8066,499.3594 L2247.8066,502.5625 Q2247.0645,501.8789 2246.3662,501.5615 Q2245.668,501.2441 2244.9258,501.2441 Q2243.3438,501.2441 2242.5381,502.499 Q2241.7324,503.7539 2241.7324,506.2246 Q2241.7324,508.6855 2242.5381,509.9404 Q2243.3438,511.1953 2244.9258,511.1953 Q2245.668,511.1953 2246.3662,510.8779 Q2247.0645,510.5605 2247.8066,509.877 Z " fill="#000000"/><text fill="#000000" font-family="sans-serif" font-size="20" lengthAdjust="spacing" textLength="246" x="2267" y="513.5586">AnnouncementRepository</text><line style="stroke:#181818;stroke-width:0.5;" x1="1666" x2="3079" y1="523" y2="523"/><line style="stroke:#181818;stroke-width:0.5;" x1="1666" x2="3079" y1="531" y2="531"/><text fill="#000000" font-family="sans-serif" font-size="20" lengthAdjust="spacing" textLength="743" x="1671" y="554.3359">+getAllAnnouncementsSortedByDefualtCriteria() : ArrayList&lt;Announcement&gt;</text><text fill="#000000" font-family="sans-serif" font-size="20" lengthAdjust="spacing" textLength="1008" x="1671" y="577.8906">+getAllAnnouncementsSortedBySortCriteria(String sortCriteria, String order) : ArrayList&lt;Announcement&gt;</text><text fill="#000000" font-family="sans-serif" font-size="20" lengthAdjust="spacing" textLength="1403" x="1671" y="601.4453">+getFilteredAnnouncements(TypeOfProperty typeOfProperty, TransactionType transactionType, int numberOfRooms) : ArrayList&lt;Announcement&gt;</text><text fill="#000000" font-family="sans-serif" font-size="20" lengthAdjust="spacing" textLength="1017" x="1671" y="625">+getFilteredAndSortedAnnouncements(TypeOfProperty typeOfProperty, TransactionType transactionType,</text><text fill="#000000" font-family="sans-serif" font-size="20" lengthAdjust="spacing" textLength="789" x="1677" y="648.5547">int numberOfRooms, String sortCriteria, String order) : ArrayList&lt;Announcement&gt;</text></g><!--class OrderRepository--><g id="elem_OrderRepository"><rect codeLine="42" fill="#F1F1F1" height="120.6641" id="OrderRepository" rx="2.5" ry="2.5" style="stroke:#181818;stroke-width:0.5;" width="1195" x="7" y="512.5"/><ellipse cx="521" cy="529.5" fill="#ADD1B2" rx="12" ry="12" style="stroke:#181818;stroke-width:1.0;"/><path d="M523.8066,536.5801 Q523.123,536.9316 522.3711,537.1074 Q521.6191,537.2832 520.7891,537.2832 Q517.8398,537.2832 516.2871,535.3398 Q514.7344,533.3965 514.7344,529.7246 Q514.7344,526.043 516.2871,524.0996 Q517.8398,522.1563 520.7891,522.1563 Q521.6191,522.1563 522.3809,522.332 Q523.1426,522.5078 523.8066,522.8594 L523.8066,526.0625 Q523.0645,525.3789 522.3662,525.0615 Q521.668,524.7441 520.9258,524.7441 Q519.3438,524.7441 518.5381,525.999 Q517.7324,527.2539 517.7324,529.7246 Q517.7324,532.1855 518.5381,533.4404 Q519.3438,534.6953 520.9258,534.6953 Q521.668,534.6953 522.3662,534.3779 Q523.0645,534.0605 523.8066,533.377 Z " fill="#000000"/><text fill="#000000" font-family="sans-serif" font-size="20" lengthAdjust="spacing" textLength="158" x="543" y="537.0586">OrderRepository</text><line style="stroke:#181818;stroke-width:0.5;" x1="8" x2="1201" y1="546.5" y2="546.5"/><line style="stroke:#181818;stroke-width:0.5;" x1="8" x2="1201" y1="554.5" y2="554.5"/><text fill="#000000" font-family="sans-serif" font-size="20" lengthAdjust="spacing" textLength="944" x="13" y="577.8359">+clientAlreadyMadeOrderForThisAnnouncement(String clientEmail, int announcementId) : boolean</text><text fill="#000000" font-family="sans-serif" font-size="20" lengthAdjust="spacing" textLength="1183" x="13" y="601.3906">+someoneAlreadyMadeOrderWithSameAmountForThisAnnouncement(double orderAmount, int announcementId) : boolean</text><text fill="#000000" font-family="sans-serif" font-size="20" lengthAdjust="spacing" textLength="1089" x="13" y="624.9453">+addOrder(double orderAmount, int announcementId, String clientEmail, Date date, OrderState orderState) : void</text></g><!--class AuthenticationRepository--><g id="elem_AuthenticationRepository"><rect codeLine="48" fill="#F1F1F1" height="73.5547" id="AuthenticationRepository" rx="2.5" ry="2.5" style="stroke:#181818;stroke-width:0.5;" width="392" x="1237.5" y="536"/><ellipse cx="1308.5" cy="553" fill="#ADD1B2" rx="12" ry="12" style="stroke:#181818;stroke-width:1.0;"/><path d="M1311.3066,560.0801 Q1310.623,560.4316 1309.8711,560.6074 Q1309.1191,560.7832 1308.2891,560.7832 Q1305.3398,560.7832 1303.7871,558.8398 Q1302.2344,556.8965 1302.2344,553.2246 Q1302.2344,549.543 1303.7871,547.5996 Q1305.3398,545.6563 1308.2891,545.6563 Q1309.1191,545.6563 1309.8809,545.832 Q1310.6426,546.0078 1311.3066,546.3594 L1311.3066,549.5625 Q1310.5645,548.8789 1309.8662,548.5615 Q1309.168,548.2441 1308.4258,548.2441 Q1306.8438,548.2441 1306.0381,549.499 Q1305.2324,550.7539 1305.2324,553.2246 Q1305.2324,555.6855 1306.0381,556.9404 Q1306.8438,558.1953 1308.4258,558.1953 Q1309.168,558.1953 1309.8662,557.8779 Q1310.5645,557.5605 1311.3066,556.877 Z " fill="#000000"/><text fill="#000000" font-family="sans-serif" font-size="20" lengthAdjust="spacing" textLength="241" x="1330.5" y="560.5586">AuthenticationRepository</text><line style="stroke:#181818;stroke-width:0.5;" x1="1238.5" x2="1628.5" y1="570" y2="570"/><line style="stroke:#181818;stroke-width:0.5;" x1="1238.5" x2="1628.5" y1="578" y2="578"/><text fill="#000000" font-family="sans-serif" font-size="20" lengthAdjust="spacing" textLength="380" x="1243.5" y="601.3359">+getCurrentUserSession() : UserSession</text></g><!--class AuthenticationFacade--><g id="elem_AuthenticationFacade"><rect codeLine="52" fill="#F1F1F1" height="73.5547" id="AuthenticationFacade" rx="2.5" ry="2.5" style="stroke:#181818;stroke-width:0.5;" width="525" x="1171" y="848"/><ellipse cx="1326" cy="865" fill="#ADD1B2" rx="12" ry="12" style="stroke:#181818;stroke-width:1.0;"/><path d="M1328.8066,872.0801 Q1328.123,872.4316 1327.3711,872.6074 Q1326.6191,872.7832 1325.7891,872.7832 Q1322.8398,872.7832 1321.2871,870.8398 Q1319.7344,868.8965 1319.7344,865.2246 Q1319.7344,861.543 1321.2871,859.5996 Q1322.8398,857.6563 1325.7891,857.6563 Q1326.6191,857.6563 1327.3809,857.832 Q1328.1426,858.0078 1328.8066,858.3594 L1328.8066,861.5625 Q1328.0645,860.8789 1327.3662,860.5615 Q1326.668,860.2441 1325.9258,860.2441 Q1324.3438,860.2441 1323.5381,861.499 Q1322.7324,862.7539 1322.7324,865.2246 Q1322.7324,867.6855 1323.5381,868.9404 Q1324.3438,870.1953 1325.9258,870.1953 Q1326.668,870.1953 1327.3662,869.8779 Q1328.0645,869.5605 1328.8066,868.877 Z " fill="#000000"/><text fill="#000000" font-family="sans-serif" font-size="20" lengthAdjust="spacing" textLength="206" x="1348" y="872.5586">AuthenticationFacade</text><line style="stroke:#181818;stroke-width:0.5;" x1="1172" x2="1695" y1="882" y2="882"/><line style="stroke:#181818;stroke-width:0.5;" x1="1172" x2="1695" y1="890" y2="890"/><text fill="#000000" font-family="sans-serif" font-size="20" lengthAdjust="spacing" textLength="513" x="1177" y="913.3359">+getCurrentUserSession() : UserSession : UserSession</text></g><!--class UserSession--><g id="elem_UserSession"><rect codeLine="56" fill="#F1F1F1" height="73.5547" id="UserSession" rx="2.5" ry="2.5" style="stroke:#181818;stroke-width:0.5;" width="205" x="1331" y="1207"/><ellipse cx="1372.2" cy="1224" fill="#ADD1B2" rx="12" ry="12" style="stroke:#181818;stroke-width:1.0;"/><path d="M1375.0066,1231.0801 Q1374.323,1231.4316 1373.5711,1231.6074 Q1372.8191,1231.7832 1371.9891,1231.7832 Q1369.0398,1231.7832 1367.4871,1229.8398 Q1365.9344,1227.8965 1365.9344,1224.2246 Q1365.9344,1220.543 1367.4871,1218.5996 Q1369.0398,1216.6563 1371.9891,1216.6563 Q1372.8191,1216.6563 1373.5809,1216.832 Q1374.3426,1217.0078 1375.0066,1217.3594 L1375.0066,1220.5625 Q1374.2645,1219.8789 1373.5662,1219.5615 Q1372.868,1219.2441 1372.1258,1219.2441 Q1370.5438,1219.2441 1369.7381,1220.499 Q1368.9324,1221.7539 1368.9324,1224.2246 Q1368.9324,1226.6855 1369.7381,1227.9404 Q1370.5438,1229.1953 1372.1258,1229.1953 Q1372.868,1229.1953 1373.5662,1228.8779 Q1374.2645,1228.5605 1375.0066,1227.877 Z " fill="#000000"/><text fill="#000000" font-family="sans-serif" font-size="20" lengthAdjust="spacing" textLength="115" x="1392.8" y="1231.5586">UserSession</text><line style="stroke:#181818;stroke-width:0.5;" x1="1332" x2="1535" y1="1241" y2="1241"/><line style="stroke:#181818;stroke-width:0.5;" x1="1332" x2="1535" y1="1249" y2="1249"/><text fill="#000000" font-family="sans-serif" font-size="20" lengthAdjust="spacing" textLength="193" x="1337" y="1272.3359">+getUserId() : Email</text></g><!--class User--><g id="elem_User"><rect codeLine="60" fill="#F1F1F1" height="73.5547" id="User" rx="2.5" ry="2.5" style="stroke:#181818;stroke-width:0.5;" width="162" x="1352.5" y="1460"/><ellipse cx="1407.5" cy="1477" fill="#ADD1B2" rx="12" ry="12" style="stroke:#181818;stroke-width:1.0;"/><path d="M1410.3066,1484.0801 Q1409.623,1484.4316 1408.8711,1484.6074 Q1408.1191,1484.7832 1407.2891,1484.7832 Q1404.3398,1484.7832 1402.7871,1482.8398 Q1401.2344,1480.8965 1401.2344,1477.2246 Q1401.2344,1473.543 1402.7871,1471.5996 Q1404.3398,1469.6563 1407.2891,1469.6563 Q1408.1191,1469.6563 1408.8809,1469.832 Q1409.6426,1470.0078 1410.3066,1470.3594 L1410.3066,1473.5625 Q1409.5645,1472.8789 1408.8662,1472.5615 Q1408.168,1472.2441 1407.4258,1472.2441 Q1405.8438,1472.2441 1405.0381,1473.499 Q1404.2324,1474.7539 1404.2324,1477.2246 Q1404.2324,1479.6855 1405.0381,1480.9404 Q1405.8438,1482.1953 1407.4258,1482.1953 Q1408.168,1482.1953 1408.8662,1481.8779 Q1409.5645,1481.5605 1410.3066,1480.877 Z " fill="#000000"/><text fill="#000000" font-family="sans-serif" font-size="20" lengthAdjust="spacing" textLength="43" x="1429.5" y="1484.5586">User</text><line style="stroke:#181818;stroke-width:0.5;" x1="1353.5" x2="1513.5" y1="1494" y2="1494"/><line style="stroke:#181818;stroke-width:0.5;" x1="1353.5" x2="1513.5" y1="1502" y2="1502"/><text fill="#000000" font-family="sans-serif" font-size="20" lengthAdjust="spacing" textLength="150" x="1358.5" y="1525.3359">+getId() : Email</text></g><!--class Order--><g id="elem_Order"><rect codeLine="64" fill="#F1F1F1" height="238.4375" id="Order" rx="2.5" ry="2.5" style="stroke:#181818;stroke-width:0.5;" width="237" x="486" y="766"/><ellipse cx="572" cy="783" fill="#ADD1B2" rx="12" ry="12" style="stroke:#181818;stroke-width:1.0;"/><path d="M574.8066,790.0801 Q574.123,790.4316 573.3711,790.6074 Q572.6191,790.7832 571.7891,790.7832 Q568.8398,790.7832 567.2871,788.8398 Q565.7344,786.8965 565.7344,783.2246 Q565.7344,779.543 567.2871,777.5996 Q568.8398,775.6563 571.7891,775.6563 Q572.6191,775.6563 573.3809,775.832 Q574.1426,776.0078 574.8066,776.3594 L574.8066,779.5625 Q574.0645,778.8789 573.3662,778.5615 Q572.668,778.2441 571.9258,778.2441 Q570.3438,778.2441 569.5381,779.499 Q568.7324,780.7539 568.7324,783.2246 Q568.7324,785.6855 569.5381,786.9404 Q570.3438,788.1953 571.9258,788.1953 Q572.668,788.1953 573.3662,787.8779 Q574.0645,787.5605 574.8066,786.877 Z " fill="#000000"/><text fill="#000000" font-family="sans-serif" font-size="20" lengthAdjust="spacing" textLength="56" x="594" y="790.5586">Order</text><line style="stroke:#181818;stroke-width:0.5;" x1="487" x2="722" y1="800" y2="800"/><text fill="#000000" font-family="sans-serif" font-size="20" lengthAdjust="spacing" textLength="74" x="492" y="823.3359">-id : int</text><text fill="#000000" font-family="sans-serif" font-size="20" lengthAdjust="spacing" textLength="150" x="492" y="846.8906">-idCounter : int</text><text fill="#000000" font-family="sans-serif" font-size="20" lengthAdjust="spacing" textLength="225" x="492" y="870.4453">-orderAmount : double</text><text fill="#000000" font-family="sans-serif" font-size="20" lengthAdjust="spacing" textLength="215" x="492" y="894">-announcementId : int</text><text fill="#000000" font-family="sans-serif" font-size="20" lengthAdjust="spacing" textLength="191" x="492" y="917.5547">-clientEmail : String</text><text fill="#000000" font-family="sans-serif" font-size="20" lengthAdjust="spacing" textLength="116" x="492" y="941.1094">-date : Date</text><text fill="#000000" font-family="sans-serif" font-size="20" lengthAdjust="spacing" textLength="179" x="492" y="964.6641">-state : OrderState</text><line style="stroke:#181818;stroke-width:0.5;" x1="487" x2="722" y1="972.8828" y2="972.8828"/><text fill="#000000" font-family="sans-serif" font-size="20" lengthAdjust="spacing" textLength="179" x="492" y="996.2188">+toString() : String</text></g><!--class Repositories--><g id="elem_Repositories"><rect codeLine="76" fill="#F1F1F1" height="120.6641" id="Repositories" rx="2.5" ry="2.5" style="stroke:#181818;stroke-width:0.5;" width="406" x="1582.5" y="283"/><ellipse cx="1721.5" cy="300" fill="#ADD1B2" rx="12" ry="12" style="stroke:#181818;stroke-width:1.0;"/><path d="M1724.3066,307.0801 Q1723.623,307.4316 1722.8711,307.6074 Q1722.1191,307.7832 1721.2891,307.7832 Q1718.3398,307.7832 1716.7871,305.8398 Q1715.2344,303.8965 1715.2344,300.2246 Q1715.2344,296.543 1716.7871,294.5996 Q1718.3398,292.6563 1721.2891,292.6563 Q1722.1191,292.6563 1722.8809,292.832 Q1723.6426,293.0078 1724.3066,293.3594 L1724.3066,296.5625 Q1723.5645,295.8789 1722.8662,295.5615 Q1722.168,295.2441 1721.4258,295.2441 Q1719.8438,295.2441 1719.0381,296.499 Q1718.2324,297.7539 1718.2324,300.2246 Q1718.2324,302.6855 1719.0381,303.9404 Q1719.8438,305.1953 1721.4258,305.1953 Q1722.168,305.1953 1722.8662,304.8779 Q1723.5645,304.5605 1724.3066,303.877 Z " fill="#000000"/><text fill="#000000" font-family="sans-serif" font-size="20" lengthAdjust="spacing" textLength="119" x="1743.5" y="307.5586">Repositories</text><line style="stroke:#181818;stroke-width:0.5;" x1="1583.5" x2="1987.5" y1="317" y2="317"/><line style="stroke:#181818;stroke-width:0.5;" x1="1583.5" x2="1987.5" y1="325" y2="325"/><text fill="#000000" font-family="sans-serif" font-size="20" lengthAdjust="spacing" textLength="149" x="1588.5" y="348.3359">+Repositories()</text><text fill="#000000" font-family="sans-serif" font-size="20" lengthAdjust="spacing" textLength="276" x="1588.5" y="371.8906">+getInstance() : Repositories</text><text fill="#000000" font-family="sans-serif" font-size="20" lengthAdjust="spacing" textLength="394" x="1588.5" y="395.4453">+getOrderRepository() : OrderRepository</text></g><!--class CreateOrderController--><g id="elem_CreateOrderController"><rect codeLine="82" fill="#F1F1F1" height="214.8828" id="CreateOrderController" rx="2.5" ry="2.5" style="stroke:#181818;stroke-width:0.5;" width="1195" x="1600" y="7"/><ellipse cx="2086" cy="24" fill="#ADD1B2" rx="12" ry="12" style="stroke:#181818;stroke-width:1.0;"/><path d="M2088.8066,31.0801 Q2088.123,31.4316 2087.3711,31.6074 Q2086.6191,31.7832 2085.7891,31.7832 Q2082.8398,31.7832 2081.2871,29.8398 Q2079.7344,27.8965 2079.7344,24.2246 Q2079.7344,20.543 2081.2871,18.5996 Q2082.8398,16.6563 2085.7891,16.6563 Q2086.6191,16.6563 2087.3809,16.832 Q2088.1426,17.0078 2088.8066,17.3594 L2088.8066,20.5625 Q2088.0645,19.8789 2087.3662,19.5615 Q2086.668,19.2441 2085.9258,19.2441 Q2084.3438,19.2441 2083.5381,20.499 Q2082.7324,21.7539 2082.7324,24.2246 Q2082.7324,26.6855 2083.5381,27.9404 Q2084.3438,29.1953 2085.9258,29.1953 Q2086.668,29.1953 2087.3662,28.8779 Q2088.0645,28.5605 2088.8066,27.877 Z " fill="#000000"/><text fill="#000000" font-family="sans-serif" font-size="20" lengthAdjust="spacing" textLength="214" x="2108" y="31.5586">CreateOrderController</text><line style="stroke:#181818;stroke-width:0.5;" x1="1601" x2="2794" y1="41" y2="41"/><line style="stroke:#181818;stroke-width:0.5;" x1="1601" x2="2794" y1="49" y2="49"/><text fill="#000000" font-family="sans-serif" font-size="20" lengthAdjust="spacing" textLength="1183" x="1606" y="72.3359">+someoneAlreadyMadeOrderWithSameAmountForThisAnnouncement(double orderAmount, int announcementId) : boolean</text><text fill="#000000" font-family="sans-serif" font-size="20" lengthAdjust="spacing" textLength="933" x="1606" y="95.8906">+clientAlreadyMadeOrderForThisAnnouncement(int announcementId, String userEmail) : boolean</text><text fill="#000000" font-family="sans-serif" font-size="20" lengthAdjust="spacing" textLength="506" x="1606" y="119.4453">+getPropertyPriceByAnnouncementId(int id) : double</text><text fill="#000000" font-family="sans-serif" font-size="20" lengthAdjust="spacing" textLength="243" x="1606" y="143">+getClientEmail() : String</text><text fill="#000000" font-family="sans-serif" font-size="20" lengthAdjust="spacing" textLength="519" x="1606" y="166.5547">+getAllAnnouncements() : ArrayList&lt;Announcement&gt;</text><text fill="#000000" font-family="sans-serif" font-size="20" lengthAdjust="spacing" textLength="695" x="1606" y="190.1094">+getPropertyByAnnouncement(Announcement announcement) : Property</text><text fill="#000000" font-family="sans-serif" font-size="20" lengthAdjust="spacing" textLength="1110" x="1606" y="213.6641">+createOrder(double orderAmount, int announcementId, String clientEmail, Date date, OrderState orderState) : void</text></g><!--class CreateOrderUI--><g id="elem_CreateOrderUI"><rect codeLine="92" fill="#F1F1F1" height="97.1094" id="CreateOrderUI" rx="2.5" ry="2.5" style="stroke:#181818;stroke-width:0.5;" width="798" x="766.5" y="66"/><ellipse cx="1092" cy="83" fill="#ADD1B2" rx="12" ry="12" style="stroke:#181818;stroke-width:1.0;"/><path d="M1094.8066,90.0801 Q1094.123,90.4316 1093.3711,90.6074 Q1092.6191,90.7832 1091.7891,90.7832 Q1088.8398,90.7832 1087.2871,88.8398 Q1085.7344,86.8965 1085.7344,83.2246 Q1085.7344,79.543 1087.2871,77.5996 Q1088.8398,75.6563 1091.7891,75.6563 Q1092.6191,75.6563 1093.3809,75.832 Q1094.1426,76.0078 1094.8066,76.3594 L1094.8066,79.5625 Q1094.0645,78.8789 1093.3662,78.5615 Q1092.668,78.2441 1091.9258,78.2441 Q1090.3438,78.2441 1089.5381,79.499 Q1088.7324,80.7539 1088.7324,83.2246 Q1088.7324,85.6855 1089.5381,86.9404 Q1090.3438,88.1953 1091.9258,88.1953 Q1092.668,88.1953 1093.3662,87.8779 Q1094.0645,87.5605 1094.8066,86.877 Z " fill="#000000"/><text fill="#000000" font-family="sans-serif" font-size="20" lengthAdjust="spacing" textLength="138" x="1114" y="90.5586">CreateOrderUI</text><line style="stroke:#181818;stroke-width:0.5;" x1="767.5" x2="1563.5" y1="100" y2="100"/><line style="stroke:#181818;stroke-width:0.5;" x1="767.5" x2="1563.5" y1="108" y2="108"/><text fill="#000000" font-family="sans-serif" font-size="20" lengthAdjust="spacing" textLength="786" x="772.5" y="131.3359">+showAnnouncements(ArrayList&lt;Announcement&gt; publishedPropertiesList) : void</text><text fill="#000000" font-family="sans-serif" font-size="20" lengthAdjust="spacing" textLength="589" x="772.5" y="154.8906">+createOrder(amount, id, clientEmail, date, orderState) : void</text></g><!--link Repositories to Repositories--><g id="link_Repositories_Repositories"><path codeLine="98" d="M1988.63,329.36 C2009.88,332.12 2023.5,336.83 2023.5,343.5 C2023.5,349.49 2012.51,353.9 1994.86,356.74 " fill="none" id="Repositories-to-Repositories" style="stroke:#181818;stroke-width:1.0;"/><polygon fill="#181818" points="1990.13,357.42,1999.6085,360.0955,1995.0789,356.7069,1998.4675,352.1773,1990.13,357.42" style="stroke:#181818;stroke-width:1.0;"/><text fill="#000000" font-family="sans-serif" font-size="20" lengthAdjust="spacing" textLength="89" x="2029.5" y="351.3359">instances</text></g><!--link CreateOrderUI to CreateOrderController--><g id="link_CreateOrderUI_CreateOrderController"><path codeLine="100" d="M1564.77,114.5 C1573.58,114.5 1583.16,114.5 1593.3,114.5 " fill="none" id="CreateOrderUI-to-CreateOrderController" style="stroke:#181818;stroke-width:1.0;stroke-dasharray:7.0,7.0;"/><polygon fill="#181818" points="1598.17,114.5,1589.17,110.5,1593.17,114.5,1589.17,118.5,1598.17,114.5" style="stroke:#181818;stroke-width:1.0;"/></g><!--link CreateOrderController to Repositories--><g id="link_CreateOrderController_Repositories"><path codeLine="102" d="M2003.56,222.35 C1968.05,241.92 1932.06,261.75 1899.83,279.51 " fill="none" id="CreateOrderController-to-Repositories" style="stroke:#181818;stroke-width:1.0;stroke-dasharray:7.0,7.0;"/><polygon fill="#181818" points="1895.6,281.84,1905.4133,281.0039,1899.9802,279.4288,1901.5553,273.9956,1895.6,281.84" style="stroke:#181818;stroke-width:1.0;"/></g><!--link Repositories to AnnouncementRepository--><g id="link_Repositories_AnnouncementRepository"><path codeLine="104" d="M1940.11,404.42 C2004.7,429.45 2080.96,459.01 2151.3,486.27 " fill="none" id="Repositories-to-AnnouncementRepository" style="stroke:#181818;stroke-width:1.0;"/><polygon fill="#181818" points="2155.81,488.02,2148.8759,481.0259,2151.1511,486.205,2145.9719,488.4802,2155.81,488.02" style="stroke:#181818;stroke-width:1.0;"/><text fill="#000000" font-family="sans-serif" font-size="20" lengthAdjust="spacing" textLength="33" x="2079.5" y="454.3359">has</text><text fill="#000000" font-family="sans-serif" font-size="20" lengthAdjust="spacing" textLength="13" x="1941.6896" y="430.9286">1</text><text fill="#000000" font-family="sans-serif" font-size="20" lengthAdjust="spacing" textLength="13" x="2125.1608" y="476.6955">1</text></g><!--link Repositories to AuthenticationRepository--><g id="link_Repositories_AuthenticationRepository"><path codeLine="106" d="M1693.02,404.27 C1630.56,444.64 1549.84,496.81 1495.13,532.17 " fill="none" id="Repositories-to-AuthenticationRepository" style="stroke:#181818;stroke-width:1.0;"/><polygon fill="#181818" points="1491.19,534.72,1500.92,533.1945,1495.3894,532.0061,1496.5778,526.4755,1491.19,534.72" style="stroke:#181818;stroke-width:1.0;"/><text fill="#000000" font-family="sans-serif" font-size="20" lengthAdjust="spacing" textLength="33" x="1641.5" y="454.3359">has</text><text fill="#000000" font-family="sans-serif" font-size="20" lengthAdjust="spacing" textLength="13" x="1669.8127" y="431.1047">1</text><text fill="#000000" font-family="sans-serif" font-size="20" lengthAdjust="spacing" textLength="13" x="1485.188" y="523.8498">1</text></g><!--link Repositories to OrderRepository--><g id="link_Repositories_OrderRepository"><path codeLine="108" d="M1582.14,383.67 C1400.63,418.64 1131.84,470.42 922.02,510.83 " fill="none" id="Repositories-to-OrderRepository" style="stroke:#181818;stroke-width:1.0;"/><polygon fill="#181818" points="917.32,511.74,926.9137,513.9674,922.2299,510.7952,925.4021,506.1115,917.32,511.74" style="stroke:#181818;stroke-width:1.0;"/><text fill="#000000" font-family="sans-serif" font-size="20" lengthAdjust="spacing" textLength="33" x="1301.5" y="454.3359">has</text><text fill="#000000" font-family="sans-serif" font-size="20" lengthAdjust="spacing" textLength="13" x="1561.5982" y="381.0523">1</text><text fill="#000000" font-family="sans-serif" font-size="20" lengthAdjust="spacing" textLength="13" x="936.1708" y="500.4882">1</text></g><!--link CreateOrderController to AnnouncementRepository--><g id="link_CreateOrderController_AnnouncementRepository"><path codeLine="110" d="M2238.42,222.24 C2268.79,301.47 2309.73,408.26 2338.35,482.92 " fill="none" id="CreateOrderController-to-AnnouncementRepository" style="stroke:#181818;stroke-width:1.0;stroke-dasharray:7.0,7.0;"/><polygon fill="#181818" points="2340.02,487.27,2340.5327,477.4345,2338.2299,482.6014,2333.063,480.2986,2340.02,487.27" style="stroke:#181818;stroke-width:1.0;"/></g><!--link AnnouncementRepository to Announcement--><g id="link_AnnouncementRepository_Announcement"><path codeLine="112" d="M2372.5,657.48 C2372.5,681.56 2372.5,708.58 2372.5,735.34 " fill="none" id="AnnouncementRepository-to-Announcement" style="stroke:#181818;stroke-width:1.0;"/><polygon fill="#181818" points="2372.5,740.26,2376.5,731.26,2372.5,735.26,2368.5,731.26,2372.5,740.26" style="stroke:#181818;stroke-width:1.0;"/><text fill="#000000" font-family="sans-serif" font-size="20" lengthAdjust="spacing" textLength="33" x="2373.5" y="707.3359">has</text><text fill="#000000" font-family="sans-serif" font-size="20" lengthAdjust="spacing" textLength="13" x="2359.0023" y="684.1943">1</text><text fill="#000000" font-family="sans-serif" font-size="20" lengthAdjust="spacing" textLength="10" x="2362.2266" y="729.6822">*</text></g><!--link Announcement to Property--><g id="link_Announcement_Property"><path codeLine="114" d="M2372.5,1028.38 C2372.5,1054 2372.5,1080.65 2372.5,1106.11 " fill="none" id="Announcement-to-Property" style="stroke:#181818;stroke-width:1.0;"/><polygon fill="#181818" points="2372.5,1111.04,2376.5,1102.04,2372.5,1106.04,2368.5,1102.04,2372.5,1111.04" style="stroke:#181818;stroke-width:1.0;"/><text fill="#000000" font-family="sans-serif" font-size="20" lengthAdjust="spacing" textLength="33" x="2373.5" y="1078.3359">has</text><text fill="#000000" font-family="sans-serif" font-size="20" lengthAdjust="spacing" textLength="13" x="2359.2055" y="1054.7568">1</text><text fill="#000000" font-family="sans-serif" font-size="20" lengthAdjust="spacing" textLength="13" x="2359.1242" y="1100.6379">1</text></g><!--link AuthenticationRepository to AuthenticationFacade--><g id="link_AuthenticationRepository_AuthenticationFacade"><path codeLine="116" d="M1433.5,610.47 C1433.5,668.07 1433.5,779.84 1433.5,841.17 " fill="none" id="AuthenticationRepository-to-AuthenticationFacade" style="stroke:#181818;stroke-width:1.0;"/><polygon fill="#181818" points="1433.5,846.15,1437.5,837.15,1433.5,841.15,1429.5,837.15,1433.5,846.15" style="stroke:#181818;stroke-width:1.0;"/><text fill="#000000" font-family="sans-serif" font-size="20" lengthAdjust="spacing" textLength="33" x="1434.5" y="707.3359">has</text><text fill="#000000" font-family="sans-serif" font-size="20" lengthAdjust="spacing" textLength="13" x="1419.5859" y="636.7627">1</text><text fill="#000000" font-family="sans-serif" font-size="20" lengthAdjust="spacing" textLength="13" x="1419.3828" y="835.6992">1</text></g><!--link AuthenticationFacade to UserSession--><g id="link_AuthenticationFacade_UserSession"><path codeLine="118" d="M1433.5,922.2 C1433.5,988.62 1433.5,1129.63 1433.5,1200.49 " fill="none" id="AuthenticationFacade-to-UserSession" style="stroke:#181818;stroke-width:1.0;"/><polygon fill="#181818" points="1433.5,1205.19,1437.5,1196.19,1433.5,1200.19,1429.5,1196.19,1433.5,1205.19" style="stroke:#181818;stroke-width:1.0;"/><text fill="#000000" font-family="sans-serif" font-size="20" lengthAdjust="spacing" textLength="33" x="1434.5" y="1078.3359">has</text><text fill="#000000" font-family="sans-serif" font-size="20" lengthAdjust="spacing" textLength="13" x="1419.5453" y="948.7622">1</text><text fill="#000000" font-family="sans-serif" font-size="20" lengthAdjust="spacing" textLength="13" x="1419.3828" y="1194.7461">1</text></g><!--link UserSession to User--><g id="link_UserSession_User"><path codeLine="120" d="M1433.5,1281.5 C1433.5,1327.17 1433.5,1405.25 1433.5,1453.55 " fill="none" id="UserSession-to-User" style="stroke:#181818;stroke-width:1.0;"/><polygon fill="#181818" points="1433.5,1458.35,1437.5,1449.35,1433.5,1453.35,1429.5,1449.35,1433.5,1458.35" style="stroke:#181818;stroke-width:1.0;"/><text fill="#000000" font-family="sans-serif" font-size="20" lengthAdjust="spacing" textLength="33" x="1434.5" y="1425.3359">has</text><text fill="#000000" font-family="sans-serif" font-size="20" lengthAdjust="spacing" textLength="13" x="1419.5859" y="1307.7969">1</text><text fill="#000000" font-family="sans-serif" font-size="20" lengthAdjust="spacing" textLength="13" x="1419.3422" y="1447.6328">1</text></g><!--link OrderRepository to Order--><g id="link_OrderRepository_Order"><path codeLine="122" d="M604.5,633.77 C604.5,669.41 604.5,716.01 604.5,759.32 " fill="none" id="OrderRepository-to-Order" style="stroke:#181818;stroke-width:1.0;"/><polygon fill="#181818" points="604.5,764.17,608.5,755.17,604.5,759.17,600.5,755.17,604.5,764.17" style="stroke:#181818;stroke-width:1.0;"/><text fill="#000000" font-family="sans-serif" font-size="20" lengthAdjust="spacing" textLength="33" x="605.5" y="707.3359">has</text><text fill="#000000" font-family="sans-serif" font-size="20" lengthAdjust="spacing" textLength="13" x="590.8297" y="660.6047">1</text><text fill="#000000" font-family="sans-serif" font-size="20" lengthAdjust="spacing" textLength="10" x="594.1797" y="753.639">*</text></g><!--SRC=[nLPRJzim57xFhx3s0WoAs1xHLAcKLKBQ1AAWlUp5nAUDXMDNjZEKeVtt7Tkvs6a3PPes7cXo_9tRTowEUUHoGpKjXSeVWH46Are9kr3IBlbF81_FiWFJOaYffCeBhKeWLbUGzISRcZ_IDInjBO1eo2sLQn43J46PUk9oJLPKcFX4S0cstW3PA56xbzXZTwYqLLcabGjgpCnQpHyg2rUvaZxUiomx4B2on2gY-RgmX74N3bUPro0tMcr0s_ev8_vlGgW6Iiu9KzK3HjnA6JUOGmuBp7OEqeBUncmqps5RJ1dJWAxEoImyDIV7P0ss4HqUZHnZCFuiiUcFBhSYya0kROowSJ7jic3L4icIQtyM7hDVMSFAJ4fLeUqIxH9FpOGusgzNBL-eT9S86f2cqb37htJ73fLA0co3eN1JN5Bh8Eudo7DLScCGYjAvAfkNHgTGLc5eMjFw2-R-wSO9fk6GcvjW4dlsd3me9O0sUfprhBYtEMOMojS86vv26fwEEAStC7KB6sMuLReEd95ZLq4XOenPOkS2kwWlOLLHOUUQOp0y5BdFBLQPlchB_NQ6GeJ4HBAJ9coS6WPw7qyBBb0JMEBkCAtue2DEXgKUDiE98vp8gdm0VRswLQeqRmk5XNp_QapVvNPK7Lr_nc7N6zSEsJT5qnEvu0YR2PniLd-b33nieVHTmKrigQraKFXSKYu2XJG2NR6ZjE79iS5zh2GCFNpZjbZI4cQb6u1T_iA620a6r5x-SBzv1tlgTqGcUVbLmF3VIQ1jQPr0TO_Ewm_5MJHvbIrGd-VK5NEBPkoSUQKr8kuDsW2_IVoKHUzZrXOqHzhUOcdCRYJipJdX5VCcVFeflCVjndX-0cWIBpVtjhNSo2GgHteBJDAwn3fHQVgTvqzOkhB9nDWWwQkMXVXVN9jTkJYOTbd6iiEZdWGPxZbl9yPqYC6SUU10rdkUurJOC15p_AhHIWZaw_d_ZCx-k-25EQgmPtofjin7zvh_3hYePua9RvMpmTU1R_Y-0UBwZLr4UzrURIXf58V9jqQSul0cHhhwsltZPHDrpVrLros5Uaff6A6W_Tu1rkI3tUjGdP-jx6YR4MQGX1wYtXrgbapLP9fEcHllC4acoz9yJgUxnoB1HTDoUfhQ7dX-z-4TcQ1xzploVNHE2lgYsiXoVrLnCFSjVZoFtG5csKZWdQ_tQMwjeqGM1nPzE0VWM8RZD8HRQRU1vYnMJcydhnEBXj0MCsGmpjYVDS3V]--></g></svg>