<?xml version="1.0" encoding="UTF-8" standalone="no"?><svg xmlns="http://www.w3.org/2000/svg" xmlns:xlink="http://www.w3.org/1999/xlink" contentStyleType="text/css" height="1454px" preserveAspectRatio="none" style="width:3793px;height:1454px;background:#FFFFFF;" version="1.1" viewBox="0 0 3793 1454" width="3793px" zoomAndPan="magnify"><defs/><g><rect fill="#FFFFFF" height="1258.75" style="stroke:#181818;stroke-width:1.0;" width="10" x="31" y="98.5547"/><rect fill="#FFFFFF" height="37.5547" style="stroke:#181818;stroke-width:1.0;" width="10" x="749" y="128.1094"/><rect fill="#FFFFFF" height="394.5469" style="stroke:#181818;stroke-width:1.0;" width="10" x="749" y="203.2188"/><rect fill="#FFFFFF" height="721.9844" style="stroke:#181818;stroke-width:1.0;" width="10" x="749" y="635.3203"/><rect fill="#FFFFFF" height="316.4375" style="stroke:#181818;stroke-width:1.0;" width="10" x="1211" y="243.7734"/><rect fill="#FFFFFF" height="637.875" style="stroke:#181818;stroke-width:1.0;" width="10" x="1211" y="672.875"/><rect fill="#FFFFFF" height="37.5547" style="stroke:#181818;stroke-width:1.0;" width="10" x="1401.5" y="284.3281"/><rect fill="#FFFFFF" height="37.5547" style="stroke:#181818;stroke-width:1.0;" width="10" x="1555" y="359.4375"/><rect fill="#FFFFFF" height="37.5547" style="stroke:#181818;stroke-width:1.0;" width="10" x="1555" y="710.4297"/><rect fill="#FFFFFF" height="88.1094" style="stroke:#181818;stroke-width:1.0;" width="10" x="1761.5" y="434.5469"/><rect fill="#FFFFFF" height="313.4375" style="stroke:#181818;stroke-width:1.0;" width="10" x="2189.5" y="785.5391"/><rect fill="#FFFFFF" height="238.3281" style="stroke:#181818;stroke-width:1.0;" width="10" x="2479.5" y="823.0938"/><rect fill="#FFFFFF" height="163.2188" style="stroke:#181818;stroke-width:1.0;" width="10" x="2769.5" y="860.6484"/><rect fill="#FFFFFF" height="88.1094" style="stroke:#181818;stroke-width:1.0;" width="10" x="2934.5" y="898.2031"/><rect fill="#FFFFFF" height="136.6641" style="stroke:#181818;stroke-width:1.0;" width="10" x="3059" y="1136.5313"/><line style="stroke:#181818;stroke-width:0.5;stroke-dasharray:5.0,5.0;" x1="36" x2="36" y1="88.5547" y2="1366.3047"/><line style="stroke:#181818;stroke-width:0.5;stroke-dasharray:5.0,5.0;" x1="754" x2="754" y1="88.5547" y2="1366.3047"/><line style="stroke:#181818;stroke-width:0.5;stroke-dasharray:5.0,5.0;" x1="1216" x2="1216" y1="88.5547" y2="1366.3047"/><line style="stroke:#181818;stroke-width:0.5;stroke-dasharray:5.0,5.0;" x1="1406" x2="1406" y1="88.5547" y2="1366.3047"/><line style="stroke:#181818;stroke-width:0.5;stroke-dasharray:5.0,5.0;" x1="1559.5" x2="1559.5" y1="88.5547" y2="1366.3047"/><line style="stroke:#181818;stroke-width:0.5;stroke-dasharray:5.0,5.0;" x1="1766.5" x2="1766.5" y1="88.5547" y2="1366.3047"/><line style="stroke:#181818;stroke-width:0.5;stroke-dasharray:5.0,5.0;" x1="2194" x2="2194" y1="88.5547" y2="1366.3047"/><line style="stroke:#181818;stroke-width:0.5;stroke-dasharray:5.0,5.0;" x1="2484.5" x2="2484.5" y1="88.5547" y2="1366.3047"/><line style="stroke:#181818;stroke-width:0.5;stroke-dasharray:5.0,5.0;" x1="2774" x2="2774" y1="88.5547" y2="1366.3047"/><line style="stroke:#181818;stroke-width:0.5;stroke-dasharray:5.0,5.0;" x1="2939" x2="2939" y1="88.5547" y2="1366.3047"/><line style="stroke:#181818;stroke-width:0.5;stroke-dasharray:5.0,5.0;" x1="3064" x2="3064" y1="88.5547" y2="1366.3047"/><line style="stroke:#181818;stroke-width:0.5;stroke-dasharray:5.0,5.0;" x1="3752" x2="3752" y1="1178.8086" y2="1366.3047"/><text fill="#000000" font-family="sans-serif" font-size="20" lengthAdjust="spacing" textLength="56" x="5" y="84.3359">Client</text><ellipse cx="36" cy="13.5" fill="#E3E3E3" rx="8" ry="8" style="stroke:#181818;stroke-width:0.5;"/><path d="M36,21.5 L36,48.5 M23,29.5 L49,29.5 M36,48.5 L23,63.5 M36,48.5 L49,63.5 " fill="none" style="stroke:#181818;stroke-width:0.5;"/><text fill="#000000" font-family="sans-serif" font-size="20" lengthAdjust="spacing" textLength="56" x="5" y="1384.6406">Client</text><ellipse cx="36" cy="1397.3594" fill="#E3E3E3" rx="8" ry="8" style="stroke:#181818;stroke-width:0.5;"/><path d="M36,1405.3594 L36,1432.3594 M23,1413.3594 L49,1413.3594 M36,1432.3594 L23,1447.3594 M36,1432.3594 L49,1447.3594 " fill="none" style="stroke:#181818;stroke-width:0.5;"/><rect fill="#E3E3E3" height="37.5547" rx="2.5" ry="2.5" style="stroke:#181818;stroke-width:0.5;" width="152" x="678" y="50"/><text fill="#000000" font-family="sans-serif" font-size="20" lengthAdjust="spacing" textLength="138" x="685" y="76.3359">CreateOrderUI</text><rect fill="#E3E3E3" height="37.5547" rx="2.5" ry="2.5" style="stroke:#181818;stroke-width:0.5;" width="152" x="678" y="1365.3047"/><text fill="#000000" font-family="sans-serif" font-size="20" lengthAdjust="spacing" textLength="138" x="685" y="1391.6406">CreateOrderUI</text><rect fill="#E3E3E3" height="37.5547" rx="2.5" ry="2.5" style="stroke:#181818;stroke-width:0.5;" width="228" x="1102" y="50"/><text fill="#000000" font-family="sans-serif" font-size="20" lengthAdjust="spacing" textLength="214" x="1109" y="76.3359">CreateOrderController</text><rect fill="#E3E3E3" height="37.5547" rx="2.5" ry="2.5" style="stroke:#181818;stroke-width:0.5;" width="228" x="1102" y="1365.3047"/><text fill="#000000" font-family="sans-serif" font-size="20" lengthAdjust="spacing" textLength="214" x="1109" y="1391.6406">CreateOrderController</text><rect fill="#E3E3E3" height="37.5547" rx="2.5" ry="2.5" style="stroke:#181818;stroke-width:0.5;" width="133" x="1340" y="50"/><text fill="#000000" font-family="sans-serif" font-size="20" lengthAdjust="spacing" textLength="119" x="1347" y="76.3359">Repositories</text><rect fill="#E3E3E3" height="37.5547" rx="2.5" ry="2.5" style="stroke:#181818;stroke-width:0.5;" width="133" x="1340" y="1365.3047"/><text fill="#000000" font-family="sans-serif" font-size="20" lengthAdjust="spacing" textLength="119" x="1347" y="1391.6406">Repositories</text><rect fill="#E3E3E3" height="61.1094" rx="2.5" ry="2.5" style="stroke:#181818;stroke-width:0.5;" width="133" x="1493.5" y="26.4453"/><text fill="#000000" font-family="sans-serif" font-size="20" lengthAdjust="spacing" textLength="114" x="1503" y="52.7813">repositories</text><text fill="#000000" font-family="sans-serif" font-size="20" lengthAdjust="spacing" textLength="119" x="1500.5" y="76.3359">Repositories</text><rect fill="#E3E3E3" height="61.1094" rx="2.5" ry="2.5" style="stroke:#181818;stroke-width:0.5;" width="133" x="1493.5" y="1365.3047"/><text fill="#000000" font-family="sans-serif" font-size="20" lengthAdjust="spacing" textLength="114" x="1503" y="1391.6406">repositories</text><text fill="#000000" font-family="sans-serif" font-size="20" lengthAdjust="spacing" textLength="119" x="1500.5" y="1415.1953">Repositories</text><rect fill="#E3E3E3" height="61.1094" rx="2.5" ry="2.5" style="stroke:#181818;stroke-width:0.5;" width="260" x="1636.5" y="26.4453"/><text fill="#000000" font-family="sans-serif" font-size="20" lengthAdjust="spacing" textLength="243" x="1645" y="52.7813">announcementRepository</text><text fill="#000000" font-family="sans-serif" font-size="20" lengthAdjust="spacing" textLength="246" x="1643.5" y="76.3359">AnnouncementRepository</text><rect fill="#E3E3E3" height="61.1094" rx="2.5" ry="2.5" style="stroke:#181818;stroke-width:0.5;" width="260" x="1636.5" y="1365.3047"/><text fill="#000000" font-family="sans-serif" font-size="20" lengthAdjust="spacing" textLength="243" x="1645" y="1391.6406">announcementRepository</text><text fill="#000000" font-family="sans-serif" font-size="20" lengthAdjust="spacing" textLength="246" x="1643.5" y="1415.1953">AnnouncementRepository</text><rect fill="#E3E3E3" height="61.1094" rx="2.5" ry="2.5" style="stroke:#181818;stroke-width:0.5;" width="255" x="2067" y="26.4453"/><text fill="#000000" font-family="sans-serif" font-size="20" lengthAdjust="spacing" textLength="238" x="2075.5" y="52.7813">authenticationRepository</text><text fill="#000000" font-family="sans-serif" font-size="20" lengthAdjust="spacing" textLength="241" x="2074" y="76.3359">AuthenticationRepository</text><rect fill="#E3E3E3" height="61.1094" rx="2.5" ry="2.5" style="stroke:#181818;stroke-width:0.5;" width="255" x="2067" y="1365.3047"/><text fill="#000000" font-family="sans-serif" font-size="20" lengthAdjust="spacing" textLength="238" x="2075.5" y="1391.6406">authenticationRepository</text><text fill="#000000" font-family="sans-serif" font-size="20" lengthAdjust="spacing" textLength="241" x="2074" y="1415.1953">AuthenticationRepository</text><rect fill="#E3E3E3" height="61.1094" rx="2.5" ry="2.5" style="stroke:#181818;stroke-width:0.5;" width="220" x="2374.5" y="26.4453"/><text fill="#000000" font-family="sans-serif" font-size="20" lengthAdjust="spacing" textLength="203" x="2383" y="52.7813">authenticationFacade</text><text fill="#000000" font-family="sans-serif" font-size="20" lengthAdjust="spacing" textLength="206" x="2381.5" y="76.3359">AuthenticationFacade</text><rect fill="#E3E3E3" height="61.1094" rx="2.5" ry="2.5" style="stroke:#181818;stroke-width:0.5;" width="220" x="2374.5" y="1365.3047"/><text fill="#000000" font-family="sans-serif" font-size="20" lengthAdjust="spacing" textLength="203" x="2383" y="1391.6406">authenticationFacade</text><text fill="#000000" font-family="sans-serif" font-size="20" lengthAdjust="spacing" textLength="206" x="2381.5" y="1415.1953">AuthenticationFacade</text><rect fill="#E3E3E3" height="61.1094" rx="2.5" ry="2.5" style="stroke:#181818;stroke-width:0.5;" width="129" x="2710" y="26.4453"/><text fill="#000000" font-family="sans-serif" font-size="20" lengthAdjust="spacing" textLength="113" x="2718" y="52.7813">userSession</text><text fill="#000000" font-family="sans-serif" font-size="20" lengthAdjust="spacing" textLength="115" x="2717" y="76.3359">UserSession</text><rect fill="#E3E3E3" height="61.1094" rx="2.5" ry="2.5" style="stroke:#181818;stroke-width:0.5;" width="129" x="2710" y="1365.3047"/><text fill="#000000" font-family="sans-serif" font-size="20" lengthAdjust="spacing" textLength="113" x="2718" y="1391.6406">userSession</text><text fill="#000000" font-family="sans-serif" font-size="20" lengthAdjust="spacing" textLength="115" x="2717" y="1415.1953">UserSession</text><rect fill="#E3E3E3" height="61.1094" rx="2.5" ry="2.5" style="stroke:#181818;stroke-width:0.5;" width="57" x="2911" y="26.4453"/><text fill="#000000" font-family="sans-serif" font-size="20" lengthAdjust="spacing" textLength="41" x="2919" y="52.7813">user</text><text fill="#000000" font-family="sans-serif" font-size="20" lengthAdjust="spacing" textLength="43" x="2918" y="76.3359">User</text><rect fill="#E3E3E3" height="61.1094" rx="2.5" ry="2.5" style="stroke:#181818;stroke-width:0.5;" width="57" x="2911" y="1365.3047"/><text fill="#000000" font-family="sans-serif" font-size="20" lengthAdjust="spacing" textLength="41" x="2919" y="1391.6406">user</text><text fill="#000000" font-family="sans-serif" font-size="20" lengthAdjust="spacing" textLength="43" x="2918" y="1415.1953">User</text><rect fill="#E3E3E3" height="61.1094" rx="2.5" ry="2.5" style="stroke:#181818;stroke-width:0.5;" width="172" x="2978" y="26.4453"/><text fill="#000000" font-family="sans-serif" font-size="20" lengthAdjust="spacing" textLength="154" x="2987" y="52.7813">orderRepository</text><text fill="#000000" font-family="sans-serif" font-size="20" lengthAdjust="spacing" textLength="158" x="2985" y="76.3359">OrderRepository</text><rect fill="#E3E3E3" height="61.1094" rx="2.5" ry="2.5" style="stroke:#181818;stroke-width:0.5;" width="172" x="2978" y="1365.3047"/><text fill="#000000" font-family="sans-serif" font-size="20" lengthAdjust="spacing" textLength="154" x="2987" y="1391.6406">orderRepository</text><text fill="#000000" font-family="sans-serif" font-size="20" lengthAdjust="spacing" textLength="158" x="2985" y="1415.1953">OrderRepository</text><rect fill="#E3E3E3" height="37.5547" rx="2.5" ry="2.5" style="stroke:#181818;stroke-width:0.5;" width="70" x="3717" y="1365.3047"/><text fill="#000000" font-family="sans-serif" font-size="20" lengthAdjust="spacing" textLength="56" x="3724" y="1391.6406">Order</text><rect fill="#FFFFFF" height="1258.75" style="stroke:#181818;stroke-width:1.0;" width="10" x="31" y="98.5547"/><rect fill="#FFFFFF" height="37.5547" style="stroke:#181818;stroke-width:1.0;" width="10" x="749" y="128.1094"/><rect fill="#FFFFFF" height="394.5469" style="stroke:#181818;stroke-width:1.0;" width="10" x="749" y="203.2188"/><rect fill="#FFFFFF" height="721.9844" style="stroke:#181818;stroke-width:1.0;" width="10" x="749" y="635.3203"/><rect fill="#FFFFFF" height="316.4375" style="stroke:#181818;stroke-width:1.0;" width="10" x="1211" y="243.7734"/><rect fill="#FFFFFF" height="637.875" style="stroke:#181818;stroke-width:1.0;" width="10" x="1211" y="672.875"/><rect fill="#FFFFFF" height="37.5547" style="stroke:#181818;stroke-width:1.0;" width="10" x="1401.5" y="284.3281"/><rect fill="#FFFFFF" height="37.5547" style="stroke:#181818;stroke-width:1.0;" width="10" x="1555" y="359.4375"/><rect fill="#FFFFFF" height="37.5547" style="stroke:#181818;stroke-width:1.0;" width="10" x="1555" y="710.4297"/><rect fill="#FFFFFF" height="88.1094" style="stroke:#181818;stroke-width:1.0;" width="10" x="1761.5" y="434.5469"/><rect fill="#FFFFFF" height="313.4375" style="stroke:#181818;stroke-width:1.0;" width="10" x="2189.5" y="785.5391"/><rect fill="#FFFFFF" height="238.3281" style="stroke:#181818;stroke-width:1.0;" width="10" x="2479.5" y="823.0938"/><rect fill="#FFFFFF" height="163.2188" style="stroke:#181818;stroke-width:1.0;" width="10" x="2769.5" y="860.6484"/><rect fill="#FFFFFF" height="88.1094" style="stroke:#181818;stroke-width:1.0;" width="10" x="2934.5" y="898.2031"/><rect fill="#FFFFFF" height="136.6641" style="stroke:#181818;stroke-width:1.0;" width="10" x="3059" y="1136.5313"/><polygon fill="#181818" points="737,124.1094,747,128.1094,737,132.1094,741,128.1094" style="stroke:#181818;stroke-width:1.0;"/><line style="stroke:#181818;stroke-width:1.0;" x1="41" x2="743" y1="128.1094" y2="128.1094"/><text fill="#000000" font-family="sans-serif" font-size="20" font-weight="bold" lengthAdjust="spacing" textLength="13" x="48" y="121.8906">1</text><text fill="#000000" font-family="sans-serif" font-size="20" lengthAdjust="spacing" textLength="476" x="65" y="121.8906">requests to make an order to purchase a property</text><polygon fill="#181818" points="52,161.6641,42,165.6641,52,169.6641,48,165.6641" style="stroke:#181818;stroke-width:1.0;"/><line style="stroke:#181818;stroke-width:1.0;" x1="46" x2="753" y1="165.6641" y2="165.6641"/><text fill="#000000" font-family="sans-serif" font-size="20" font-weight="bold" lengthAdjust="spacing" textLength="13" x="58" y="159.4453">2</text><text fill="#000000" font-family="sans-serif" font-size="20" lengthAdjust="spacing" textLength="254" x="75" y="159.4453">requests announcement id</text><polygon fill="#181818" points="737,199.2188,747,203.2188,737,207.2188,741,203.2188" style="stroke:#181818;stroke-width:1.0;"/><line style="stroke:#181818;stroke-width:1.0;" x1="41" x2="743" y1="203.2188" y2="203.2188"/><text fill="#000000" font-family="sans-serif" font-size="20" font-weight="bold" lengthAdjust="spacing" textLength="13" x="48" y="197">3</text><text fill="#000000" font-family="sans-serif" font-size="20" lengthAdjust="spacing" textLength="236" x="65" y="197">inserts announcement id</text><polygon fill="#181818" points="1199,239.7734,1209,243.7734,1199,247.7734,1203,243.7734" style="stroke:#181818;stroke-width:1.0;"/><line style="stroke:#181818;stroke-width:1.0;" x1="759" x2="1205" y1="243.7734" y2="243.7734"/><text fill="#000000" font-family="sans-serif" font-size="20" font-weight="bold" lengthAdjust="spacing" textLength="13" x="766" y="237.5547">4</text><text fill="#000000" font-family="sans-serif" font-size="20" lengthAdjust="spacing" textLength="374" x="783" y="237.5547">getPropertyPriceByAnnouncementId(id)</text><path d="M1226,216.2188 L1226,249.2188 L1617,249.2188 L1617,226.2188 L1607,216.2188 L1226,216.2188 " fill="#FAFAFA" style="stroke:#181818;stroke-width:0.5;"/><path d="M1607,216.2188 L1607,226.2188 L1617,226.2188 L1607,216.2188 " fill="#FAFAFA" style="stroke:#181818;stroke-width:0.5;"/><text fill="#000000" font-family="sans-serif" font-size="20" lengthAdjust="spacing" textLength="370" x="1232" y="240.5547">Always creates instance of repositories</text><polygon fill="#181818" points="1389.5,280.3281,1399.5,284.3281,1389.5,288.3281,1393.5,284.3281" style="stroke:#181818;stroke-width:1.0;"/><line style="stroke:#181818;stroke-width:1.0;" x1="1221" x2="1395.5" y1="284.3281" y2="284.3281"/><text fill="#000000" font-family="sans-serif" font-size="20" font-weight="bold" lengthAdjust="spacing" textLength="13" x="1228" y="278.1094">5</text><text fill="#000000" font-family="sans-serif" font-size="20" lengthAdjust="spacing" textLength="123" x="1245" y="278.1094">getInstance()</text><polygon fill="#181818" points="1232,317.8828,1222,321.8828,1232,325.8828,1228,321.8828" style="stroke:#181818;stroke-width:1.0;"/><line style="stroke:#181818;stroke-width:1.0;stroke-dasharray:2.0,2.0;" x1="1226" x2="1405.5" y1="321.8828" y2="321.8828"/><text fill="#000000" font-family="sans-serif" font-size="20" font-weight="bold" lengthAdjust="spacing" textLength="13" x="1238" y="315.6641">6</text><text fill="#000000" font-family="sans-serif" font-size="20" lengthAdjust="spacing" textLength="114" x="1255" y="315.6641">repositories</text><polygon fill="#181818" points="1543,355.4375,1553,359.4375,1543,363.4375,1547,359.4375" style="stroke:#181818;stroke-width:1.0;"/><line style="stroke:#181818;stroke-width:1.0;" x1="1221" x2="1549" y1="359.4375" y2="359.4375"/><text fill="#000000" font-family="sans-serif" font-size="20" font-weight="bold" lengthAdjust="spacing" textLength="13" x="1228" y="353.2188">7</text><text fill="#000000" font-family="sans-serif" font-size="20" lengthAdjust="spacing" textLength="290" x="1245" y="353.2188">getAnnouncementRepository()</text><polygon fill="#181818" points="1232,392.9922,1222,396.9922,1232,400.9922,1228,396.9922" style="stroke:#181818;stroke-width:1.0;"/><line style="stroke:#181818;stroke-width:1.0;stroke-dasharray:2.0,2.0;" x1="1226" x2="1559" y1="396.9922" y2="396.9922"/><text fill="#000000" font-family="sans-serif" font-size="20" font-weight="bold" lengthAdjust="spacing" textLength="13" x="1238" y="390.7734">8</text><text fill="#000000" font-family="sans-serif" font-size="20" lengthAdjust="spacing" textLength="243" x="1255" y="390.7734">announcementRepository</text><polygon fill="#181818" points="1749.5,430.5469,1759.5,434.5469,1749.5,438.5469,1753.5,434.5469" style="stroke:#181818;stroke-width:1.0;"/><line style="stroke:#181818;stroke-width:1.0;" x1="1221" x2="1755.5" y1="434.5469" y2="434.5469"/><text fill="#000000" font-family="sans-serif" font-size="20" font-weight="bold" lengthAdjust="spacing" textLength="13" x="1228" y="428.3281">9</text><text fill="#000000" font-family="sans-serif" font-size="20" lengthAdjust="spacing" textLength="374" x="1245" y="428.3281">getPropertyPriceByAnnouncementId(id)</text><line style="stroke:#181818;stroke-width:1.0;" x1="1771.5" x2="1813.5" y1="472.1016" y2="472.1016"/><line style="stroke:#181818;stroke-width:1.0;" x1="1813.5" x2="1813.5" y1="472.1016" y2="485.1016"/><line style="stroke:#181818;stroke-width:1.0;" x1="1772.5" x2="1813.5" y1="485.1016" y2="485.1016"/><polygon fill="#181818" points="1782.5,481.1016,1772.5,485.1016,1782.5,489.1016,1778.5,485.1016" style="stroke:#181818;stroke-width:1.0;"/><text fill="#000000" font-family="sans-serif" font-size="20" font-weight="bold" lengthAdjust="spacing" textLength="26" x="1778.5" y="465.8828">10</text><text fill="#000000" font-family="sans-serif" font-size="20" lengthAdjust="spacing" textLength="374" x="1808.5" y="465.8828">getPropertyPriceByAnnouncementId(id)</text><polygon fill="#181818" points="1232,518.6563,1222,522.6563,1232,526.6563,1228,522.6563" style="stroke:#181818;stroke-width:1.0;"/><line style="stroke:#181818;stroke-width:1.0;stroke-dasharray:2.0,2.0;" x1="1226" x2="1765.5" y1="522.6563" y2="522.6563"/><text fill="#000000" font-family="sans-serif" font-size="20" font-weight="bold" lengthAdjust="spacing" textLength="26" x="1238" y="516.4375">11</text><text fill="#000000" font-family="sans-serif" font-size="20" lengthAdjust="spacing" textLength="48" x="1268" y="516.4375">price</text><polygon fill="#181818" points="770,556.2109,760,560.2109,770,564.2109,766,560.2109" style="stroke:#181818;stroke-width:1.0;"/><line style="stroke:#181818;stroke-width:1.0;stroke-dasharray:2.0,2.0;" x1="764" x2="1215" y1="560.2109" y2="560.2109"/><text fill="#000000" font-family="sans-serif" font-size="20" font-weight="bold" lengthAdjust="spacing" textLength="26" x="776" y="553.9922">12</text><text fill="#000000" font-family="sans-serif" font-size="20" lengthAdjust="spacing" textLength="48" x="806" y="553.9922">price</text><polygon fill="#181818" points="52,593.7656,42,597.7656,52,601.7656,48,597.7656" style="stroke:#181818;stroke-width:1.0;"/><line style="stroke:#181818;stroke-width:1.0;stroke-dasharray:2.0,2.0;" x1="46" x2="753" y1="597.7656" y2="597.7656"/><text fill="#000000" font-family="sans-serif" font-size="20" font-weight="bold" lengthAdjust="spacing" textLength="26" x="58" y="591.5469">13</text><text fill="#000000" font-family="sans-serif" font-size="20" lengthAdjust="spacing" textLength="219" x="88" y="591.5469">requests order amount</text><polygon fill="#181818" points="737,631.3203,747,635.3203,737,639.3203,741,635.3203" style="stroke:#181818;stroke-width:1.0;"/><line style="stroke:#181818;stroke-width:1.0;" x1="41" x2="743" y1="635.3203" y2="635.3203"/><text fill="#000000" font-family="sans-serif" font-size="20" font-weight="bold" lengthAdjust="spacing" textLength="26" x="48" y="629.1016">14</text><text fill="#000000" font-family="sans-serif" font-size="20" lengthAdjust="spacing" textLength="659" x="78" y="629.1016">inserts order amount (equal or lower than the price set by the owner)</text><polygon fill="#181818" points="1199,668.875,1209,672.875,1199,676.875,1203,672.875" style="stroke:#181818;stroke-width:1.0;"/><line style="stroke:#181818;stroke-width:1.0;" x1="759" x2="1205" y1="672.875" y2="672.875"/><text fill="#000000" font-family="sans-serif" font-size="20" font-weight="bold" lengthAdjust="spacing" textLength="26" x="766" y="666.6563">15</text><text fill="#000000" font-family="sans-serif" font-size="20" lengthAdjust="spacing" textLength="403" x="796" y="666.6563">createOrder(announcemementId, amount)</text><polygon fill="#181818" points="1543,706.4297,1553,710.4297,1543,714.4297,1547,710.4297" style="stroke:#181818;stroke-width:1.0;"/><line style="stroke:#181818;stroke-width:1.0;" x1="1221" x2="1549" y1="710.4297" y2="710.4297"/><text fill="#000000" font-family="sans-serif" font-size="20" font-weight="bold" lengthAdjust="spacing" textLength="26" x="1228" y="704.2109">16</text><text fill="#000000" font-family="sans-serif" font-size="20" lengthAdjust="spacing" textLength="285" x="1258" y="704.2109">getAuthenticationRepository()</text><polygon fill="#181818" points="1232,743.9844,1222,747.9844,1232,751.9844,1228,747.9844" style="stroke:#181818;stroke-width:1.0;"/><line style="stroke:#181818;stroke-width:1.0;" x1="1226" x2="1559" y1="747.9844" y2="747.9844"/><text fill="#000000" font-family="sans-serif" font-size="20" font-weight="bold" lengthAdjust="spacing" textLength="26" x="1238" y="741.7656">17</text><text fill="#000000" font-family="sans-serif" font-size="20" lengthAdjust="spacing" textLength="238" x="1268" y="741.7656">authenticationRepository</text><polygon fill="#181818" points="2177.5,781.5391,2187.5,785.5391,2177.5,789.5391,2181.5,785.5391" style="stroke:#181818;stroke-width:1.0;"/><line style="stroke:#181818;stroke-width:1.0;" x1="1221" x2="2183.5" y1="785.5391" y2="785.5391"/><text fill="#000000" font-family="sans-serif" font-size="20" font-weight="bold" lengthAdjust="spacing" textLength="26" x="1228" y="779.3203">18</text><text fill="#000000" font-family="sans-serif" font-size="20" lengthAdjust="spacing" textLength="87" x="1258" y="779.3203">getUser()</text><polygon fill="#181818" points="2467.5,819.0938,2477.5,823.0938,2467.5,827.0938,2471.5,823.0938" style="stroke:#181818;stroke-width:1.0;"/><line style="stroke:#181818;stroke-width:1.0;" x1="2199.5" x2="2473.5" y1="823.0938" y2="823.0938"/><text fill="#000000" font-family="sans-serif" font-size="20" font-weight="bold" lengthAdjust="spacing" textLength="26" x="2206.5" y="816.875">19</text><text fill="#000000" font-family="sans-serif" font-size="20" lengthAdjust="spacing" textLength="231" x="2236.5" y="816.875">getCurrentUserSession()</text><polygon fill="#181818" points="2757.5,856.6484,2767.5,860.6484,2757.5,864.6484,2761.5,860.6484" style="stroke:#181818;stroke-width:1.0;"/><line style="stroke:#181818;stroke-width:1.0;" x1="2489.5" x2="2763.5" y1="860.6484" y2="860.6484"/><text fill="#000000" font-family="sans-serif" font-size="20" font-weight="bold" lengthAdjust="spacing" textLength="26" x="2496.5" y="854.4297">20</text><text fill="#000000" font-family="sans-serif" font-size="20" lengthAdjust="spacing" textLength="231" x="2526.5" y="854.4297">getCurrentUserSession()</text><polygon fill="#181818" points="2922.5,894.2031,2932.5,898.2031,2922.5,902.2031,2926.5,898.2031" style="stroke:#181818;stroke-width:1.0;"/><line style="stroke:#181818;stroke-width:1.0;" x1="2779.5" x2="2928.5" y1="898.2031" y2="898.2031"/><text fill="#000000" font-family="sans-serif" font-size="20" font-weight="bold" lengthAdjust="spacing" textLength="26" x="2786.5" y="891.9844">21</text><text fill="#000000" font-family="sans-serif" font-size="20" lengthAdjust="spacing" textLength="106" x="2816.5" y="891.9844">getUserId()</text><line style="stroke:#181818;stroke-width:1.0;" x1="2944.5" x2="2986.5" y1="935.7578" y2="935.7578"/><line style="stroke:#181818;stroke-width:1.0;" x1="2986.5" x2="2986.5" y1="935.7578" y2="948.7578"/><line style="stroke:#181818;stroke-width:1.0;" x1="2945.5" x2="2986.5" y1="948.7578" y2="948.7578"/><polygon fill="#181818" points="2955.5,944.7578,2945.5,948.7578,2955.5,952.7578,2951.5,948.7578" style="stroke:#181818;stroke-width:1.0;"/><text fill="#000000" font-family="sans-serif" font-size="20" font-weight="bold" lengthAdjust="spacing" textLength="26" x="2951.5" y="929.5391">22</text><text fill="#000000" font-family="sans-serif" font-size="20" lengthAdjust="spacing" textLength="63" x="2981.5" y="929.5391">getId()</text><polygon fill="#181818" points="2790.5,982.3125,2780.5,986.3125,2790.5,990.3125,2786.5,986.3125" style="stroke:#181818;stroke-width:1.0;"/><line style="stroke:#181818;stroke-width:1.0;stroke-dasharray:2.0,2.0;" x1="2784.5" x2="2938.5" y1="986.3125" y2="986.3125"/><text fill="#000000" font-family="sans-serif" font-size="20" font-weight="bold" lengthAdjust="spacing" textLength="26" x="2796.5" y="980.0938">23</text><text fill="#000000" font-family="sans-serif" font-size="20" lengthAdjust="spacing" textLength="53" x="2826.5" y="980.0938">email</text><polygon fill="#181818" points="2500.5,1019.8672,2490.5,1023.8672,2500.5,1027.8672,2496.5,1023.8672" style="stroke:#181818;stroke-width:1.0;"/><line style="stroke:#181818;stroke-width:1.0;stroke-dasharray:2.0,2.0;" x1="2494.5" x2="2773.5" y1="1023.8672" y2="1023.8672"/><text fill="#000000" font-family="sans-serif" font-size="20" font-weight="bold" lengthAdjust="spacing" textLength="26" x="2506.5" y="1017.6484">24</text><text fill="#000000" font-family="sans-serif" font-size="20" lengthAdjust="spacing" textLength="53" x="2536.5" y="1017.6484">email</text><polygon fill="#181818" points="2210.5,1057.4219,2200.5,1061.4219,2210.5,1065.4219,2206.5,1061.4219" style="stroke:#181818;stroke-width:1.0;"/><line style="stroke:#181818;stroke-width:1.0;stroke-dasharray:2.0,2.0;" x1="2204.5" x2="2483.5" y1="1061.4219" y2="1061.4219"/><text fill="#000000" font-family="sans-serif" font-size="20" font-weight="bold" lengthAdjust="spacing" textLength="26" x="2216.5" y="1055.2031">25</text><text fill="#000000" font-family="sans-serif" font-size="20" lengthAdjust="spacing" textLength="53" x="2246.5" y="1055.2031">email</text><polygon fill="#181818" points="1232,1094.9766,1222,1098.9766,1232,1102.9766,1228,1098.9766" style="stroke:#181818;stroke-width:1.0;"/><line style="stroke:#181818;stroke-width:1.0;stroke-dasharray:2.0,2.0;" x1="1226" x2="2193.5" y1="1098.9766" y2="1098.9766"/><text fill="#000000" font-family="sans-serif" font-size="20" font-weight="bold" lengthAdjust="spacing" textLength="26" x="1238" y="1092.7578">26</text><text fill="#000000" font-family="sans-serif" font-size="20" lengthAdjust="spacing" textLength="53" x="1268" y="1092.7578">email</text><polygon fill="#181818" points="3047,1132.5313,3057,1136.5313,3047,1140.5313,3051,1136.5313" style="stroke:#181818;stroke-width:1.0;"/><line style="stroke:#181818;stroke-width:1.0;" x1="1221" x2="3053" y1="1136.5313" y2="1136.5313"/><text fill="#000000" font-family="sans-serif" font-size="20" font-weight="bold" lengthAdjust="spacing" textLength="26" x="1228" y="1130.3125">27</text><text fill="#000000" font-family="sans-serif" font-size="20" lengthAdjust="spacing" textLength="655" x="1258" y="1130.3125">createOrder(announcementId, amount, clientEmail, date, orderState)</text><polygon fill="#181818" points="3705,1170.0859,3715,1174.0859,3705,1178.0859,3709,1174.0859" style="stroke:#181818;stroke-width:1.0;"/><line style="stroke:#181818;stroke-width:1.0;" x1="3069" x2="3711" y1="1174.0859" y2="1174.0859"/><text fill="#000000" font-family="sans-serif" font-size="20" font-weight="bold" lengthAdjust="spacing" textLength="26" x="3076" y="1167.8672">28</text><text fill="#000000" font-family="sans-serif" font-size="20" lengthAdjust="spacing" textLength="58" x="3106" y="1167.8672">create</text><rect fill="#E3E3E3" height="37.5547" rx="2.5" ry="2.5" style="stroke:#181818;stroke-width:0.5;" width="70" x="3717" y="1144.5313"/><text fill="#000000" font-family="sans-serif" font-size="20" lengthAdjust="spacing" textLength="56" x="3724" y="1170.8672">Order</text><line style="stroke:#181818;stroke-width:1.0;" x1="3069" x2="3111" y1="1222.6406" y2="1222.6406"/><line style="stroke:#181818;stroke-width:1.0;" x1="3111" x2="3111" y1="1222.6406" y2="1235.6406"/><line style="stroke:#181818;stroke-width:1.0;" x1="3070" x2="3111" y1="1235.6406" y2="1235.6406"/><polygon fill="#181818" points="3080,1231.6406,3070,1235.6406,3080,1239.6406,3076,1235.6406" style="stroke:#181818;stroke-width:1.0;"/><text fill="#000000" font-family="sans-serif" font-size="20" font-weight="bold" lengthAdjust="spacing" textLength="26" x="3076" y="1216.4219">29</text><text fill="#000000" font-family="sans-serif" font-size="20" lengthAdjust="spacing" textLength="634" x="3106" y="1216.4219">addOrder(announcementId, amount, clientEmail, date, orderState)</text><polygon fill="#181818" points="1232,1269.1953,1222,1273.1953,1232,1277.1953,1228,1273.1953" style="stroke:#181818;stroke-width:1.0;"/><line style="stroke:#181818;stroke-width:1.0;stroke-dasharray:2.0,2.0;" x1="1226" x2="3063" y1="1273.1953" y2="1273.1953"/><text fill="#000000" font-family="sans-serif" font-size="20" font-weight="bold" lengthAdjust="spacing" textLength="26" x="1238" y="1266.9766">30</text><text fill="#000000" font-family="sans-serif" font-size="20" lengthAdjust="spacing" textLength="52" x="1268" y="1266.9766">order</text><polygon fill="#181818" points="770,1306.75,760,1310.75,770,1314.75,766,1310.75" style="stroke:#181818;stroke-width:1.0;"/><line style="stroke:#181818;stroke-width:1.0;stroke-dasharray:2.0,2.0;" x1="764" x2="1215" y1="1310.75" y2="1310.75"/><text fill="#000000" font-family="sans-serif" font-size="20" font-weight="bold" lengthAdjust="spacing" textLength="26" x="776" y="1304.5313">31</text><text fill="#000000" font-family="sans-serif" font-size="20" lengthAdjust="spacing" textLength="52" x="806" y="1304.5313">order</text><polygon fill="#181818" points="52,1344.3047,42,1348.3047,52,1352.3047,48,1348.3047" style="stroke:#181818;stroke-width:1.0;"/><line style="stroke:#181818;stroke-width:1.0;stroke-dasharray:2.0,2.0;" x1="46" x2="748" y1="1348.3047" y2="1348.3047"/><text fill="#000000" font-family="sans-serif" font-size="20" font-weight="bold" lengthAdjust="spacing" textLength="26" x="58" y="1342.0859">32</text><text fill="#000000" font-family="sans-serif" font-size="20" lengthAdjust="spacing" textLength="256" x="88" y="1342.0859">displays operation success</text><!--SRC=[fLPDRzmW4BtxLw1SkeasKjLZ3v7IA95oIfHLRhaGc5sZjS45tEtsrtS0xnfZs6mRd-pvU6yOte3DLiYEQjesYcs14mvhsZVsGKcx4d-0VFjQcKC8QPLKhDQg1M9r3v6desnBDx2o-mQ81cQft3HnWAafLpiXDsHD6mDLHNkhPD- -WwwgBxNWGDPAsNVrkwBCAaqkxXe1qbuGQWZphnKYMS54HwL5jmPguKbpqA-FFgeNnOWxN8vMJGCwu5dTJ6DVe5D68Ay0uqDUxf-VLjCO7SMyoLc6Tqypg9IgbmnQhFuOlt-JjrcxHycx4jZUrkWMZ5gXv0Iuu0dG1USfy0VAA8SKE5WpeC4n1UmDw1KOW-ut-Jf- -FJeUvuLmiFUuiiqGBbzZTV-D3NujCHM-GVr9NwXCWwogWW-uPrStw2Co7VSp9yz66k8LQIbMo1K4i_e35slMKqD6acdLGVQxZt64HYLw0q8XO03T0GQwu88xcCvpDAJceJ49XIoIzGeTCpSW7qU2dtMWi6FVIopHxuG_78AuoV4cwJ2JoqsjVMVxhbjTdIFK-JdoxYwSDmP4BKcyOpuU93SGuG5kNAmB3zSeQx78NcH513cpzj2zFMud1b9rBiXhvhm-OJ0bv-lb3tCihU5t8WzFzHf7H72eOeyzNzjJ-6Ky445cayNS19yR4_d0D9kdAetjESWycnwKEDHrzcP2jD9M-In_pXGSIfP821jq4OQjNFpNkFeunaNAYC6B7dVUuFQIT2NPumV6o-YnQYUqDhbm9kTlwA82oVvnp8ULLow3CxGSI4rrEQExBIEuiqJD5N2ct65woNmtFLQeoUwG4wp3bTJXd50HRO8x5oI-0BpdXZ32Gq_nyRWAAM2SHTRa8oBd6JuwCWtgn1QAfgPs8-8arBApSoYpDQLxzbfEMIHpzsM_F5o1cJ-WBb9VmQAWncFvN8uC-uTxP9m35-6ys9byJtPpDdlXlEcj8TAhgwE5PmEd9HCEVzKlNcciRy-DkrlTbtJSpkRD_v5fCSs5wPht4-4ktNyhX7JCuQ2StVtNm00]--></g></svg>