<?xml version="1.0" encoding="UTF-8" standalone="no"?><svg xmlns="http://www.w3.org/2000/svg" xmlns:xlink="http://www.w3.org/1999/xlink" contentStyleType="text/css" height="1539px" preserveAspectRatio="none" style="width:3085px;height:1539px;background:#FFFFFF;" version="1.1" viewBox="0 0 3085 1539" width="3085px" zoomAndPan="magnify"><defs/><g><!--class Property--><g id="elem_Property"><rect codeLine="10" fill="#F1F1F1" height="261.9922" id="Property" rx="2.5" ry="2.5" style="stroke:#181818;stroke-width:0.5;" width="310" x="2215.5" y="1111.86"/><ellipse cx="2326" cy="1128.86" fill="#ADD1B2" rx="12" ry="12" style="stroke:#181818;stroke-width:1.0;"/><path d="M2328.8066,1135.9401 Q2328.123,1136.2916 2327.3711,1136.4674 Q2326.6191,1136.6432 2325.7891,1136.6432 Q2322.8398,1136.6432 2321.2871,1134.6998 Q2319.7344,1132.7565 2319.7344,1129.0846 Q2319.7344,1125.403 2321.2871,1123.4596 Q2322.8398,1121.5163 2325.7891,1121.5163 Q2326.6191,1121.5163 2327.3809,1121.692 Q2328.1426,1121.8678 2328.8066,1122.2194 L2328.8066,1125.4225 Q2328.0645,1124.7389 2327.3662,1124.4215 Q2326.668,1124.1041 2325.9258,1124.1041 Q2324.3438,1124.1041 2323.5381,1125.359 Q2322.7324,1126.6139 2322.7324,1129.0846 Q2322.7324,1131.5455 2323.5381,1132.8004 Q2324.3438,1134.0553 2325.9258,1134.0553 Q2326.668,1134.0553 2327.3662,1133.7379 Q2328.0645,1133.4205 2328.8066,1132.737 Z " fill="#000000"/><text fill="#000000" font-family="sans-serif" font-size="20" lengthAdjust="spacing" textLength="80" x="2348" y="1136.4186">Property</text><line style="stroke:#181818;stroke-width:0.5;" x1="2216.5" x2="2524.5" y1="1145.86" y2="1145.86"/><text fill="#000000" font-family="sans-serif" font-size="20" lengthAdjust="spacing" textLength="138" x="2221.5" y="1169.1959">-area : double</text><text fill="#000000" font-family="sans-serif" font-size="20" lengthAdjust="spacing" textLength="290" x="2221.5" y="1192.7506">-distanceFromCenter : double</text><text fill="#000000" font-family="sans-serif" font-size="20" lengthAdjust="spacing" textLength="145" x="2221.5" y="1216.3053">-price : double</text><text fill="#000000" font-family="sans-serif" font-size="20" lengthAdjust="spacing" textLength="185" x="2221.5" y="1239.86">-address : Address</text><line style="stroke:#181818;stroke-width:0.5;" x1="2216.5" x2="2524.5" y1="1248.0788" y2="1248.0788"/><text fill="#000000" font-family="sans-serif" font-size="20" lengthAdjust="spacing" textLength="236" x="2221.5" y="1271.4147">+getAddress() : Address</text><text fill="#000000" font-family="sans-serif" font-size="20" lengthAdjust="spacing" textLength="189" x="2221.5" y="1294.9694">+getArea() : double</text><text fill="#000000" font-family="sans-serif" font-size="20" lengthAdjust="spacing" textLength="298" x="2221.5" y="1318.5241">+getDistanceFromCenter() : int</text><text fill="#000000" font-family="sans-serif" font-size="20" lengthAdjust="spacing" textLength="191" x="2221.5" y="1342.0788">+getPrice() : double</text><text fill="#000000" font-family="sans-serif" font-size="20" lengthAdjust="spacing" textLength="179" x="2221.5" y="1365.6334">+toString() : String</text></g><!--class Announcement--><g id="elem_Announcement"><rect codeLine="22" fill="#F1F1F1" height="285.5469" id="Announcement" rx="2.5" ry="2.5" style="stroke:#181818;stroke-width:0.5;" width="354" x="2193.5" y="741.32"/><ellipse cx="2294" cy="758.32" fill="#ADD1B2" rx="12" ry="12" style="stroke:#181818;stroke-width:1.0;"/><path d="M2296.8066,765.4001 Q2296.123,765.7516 2295.3711,765.9274 Q2294.6191,766.1032 2293.7891,766.1032 Q2290.8398,766.1032 2289.2871,764.1598 Q2287.7344,762.2165 2287.7344,758.5446 Q2287.7344,754.863 2289.2871,752.9196 Q2290.8398,750.9763 2293.7891,750.9763 Q2294.6191,750.9763 2295.3809,751.152 Q2296.1426,751.3278 2296.8066,751.6794 L2296.8066,754.8825 Q2296.0645,754.1989 2295.3662,753.8815 Q2294.668,753.5641 2293.9258,753.5641 Q2292.3438,753.5641 2291.5381,754.819 Q2290.7324,756.0739 2290.7324,758.5446 Q2290.7324,761.0055 2291.5381,762.2604 Q2292.3438,763.5153 2293.9258,763.5153 Q2294.668,763.5153 2295.3662,763.1979 Q2296.0645,762.8805 2296.8066,762.197 Z " fill="#000000"/><text fill="#000000" font-family="sans-serif" font-size="20" lengthAdjust="spacing" textLength="144" x="2316" y="765.8786">Announcement</text><line style="stroke:#181818;stroke-width:0.5;" x1="2194.5" x2="2546.5" y1="775.32" y2="775.32"/><text fill="#000000" font-family="sans-serif" font-size="20" lengthAdjust="spacing" textLength="324" x="2199.5" y="798.6559">-typeOfProperty : TypeOfProperty</text><text fill="#000000" font-family="sans-serif" font-size="20" lengthAdjust="spacing" textLength="342" x="2199.5" y="822.2106">-transactionType : TransactionType</text><text fill="#000000" font-family="sans-serif" font-size="20" lengthAdjust="spacing" textLength="190" x="2199.5" y="845.7653">-publishDate : Date</text><text fill="#000000" font-family="sans-serif" font-size="20" lengthAdjust="spacing" textLength="247" x="2199.5" y="869.32">-comission : Commission</text><text fill="#000000" font-family="sans-serif" font-size="20" lengthAdjust="spacing" textLength="255" x="2199.5" y="892.8747">-photos ArrayList&lt;Photo&gt;</text><text fill="#000000" font-family="sans-serif" font-size="20" lengthAdjust="spacing" textLength="217" x="2199.5" y="916.4294">-isPublished : boolean</text><text fill="#000000" font-family="sans-serif" font-size="20" lengthAdjust="spacing" textLength="74" x="2199.5" y="939.9841">-id : int</text><text fill="#000000" font-family="sans-serif" font-size="20" lengthAdjust="spacing" textLength="150" x="2199.5" y="963.5388">-idCounter : int</text><line style="stroke:#181818;stroke-width:0.5;" x1="2194.5" x2="2546.5" y1="971.7575" y2="971.7575"/><text fill="#000000" font-family="sans-serif" font-size="20" lengthAdjust="spacing" textLength="238" x="2199.5" y="995.0934">+getProperty() : Property</text><text fill="#000000" font-family="sans-serif" font-size="20" lengthAdjust="spacing" textLength="179" x="2199.5" y="1018.6481">+toString() : String</text></g><!--class AnnouncementRepository--><g id="elem_AnnouncementRepository"><rect codeLine="35" fill="#F1F1F1" height="167.7734" id="AnnouncementRepository" rx="2.5" ry="2.5" style="stroke:#181818;stroke-width:0.5;" width="1415" x="1663" y="488.54"/><ellipse cx="2243" cy="505.54" fill="#ADD1B2" rx="12" ry="12" style="stroke:#181818;stroke-width:1.0;"/><path d="M2245.8066,512.6201 Q2245.123,512.9716 2244.3711,513.1474 Q2243.6191,513.3232 2242.7891,513.3232 Q2239.8398,513.3232 2238.2871,511.3798 Q2236.7344,509.4365 2236.7344,505.7646 Q2236.7344,502.083 2238.2871,500.1396 Q2239.8398,498.1963 2242.7891,498.1963 Q2243.6191,498.1963 2244.3809,498.372 Q2245.1426,498.5478 2245.8066,498.8994 L2245.8066,502.1025 Q2245.0645,501.4189 2244.3662,501.1015 Q2243.668,500.7841 2242.9258,500.7841 Q2241.3438,500.7841 2240.5381,502.039 Q2239.7324,503.2939 2239.7324,505.7646 Q2239.7324,508.2255 2240.5381,509.4804 Q2241.3438,510.7353 2242.9258,510.7353 Q2243.668,510.7353 2244.3662,510.4179 Q2245.0645,510.1005 2245.8066,509.417 Z " fill="#000000"/><text fill="#000000" font-family="sans-serif" font-size="20" lengthAdjust="spacing" textLength="246" x="2265" y="513.0986">AnnouncementRepository</text><line style="stroke:#181818;stroke-width:0.5;" x1="1664" x2="3077" y1="522.54" y2="522.54"/><line style="stroke:#181818;stroke-width:0.5;" x1="1664" x2="3077" y1="530.54" y2="530.54"/><text fill="#000000" font-family="sans-serif" font-size="20" lengthAdjust="spacing" textLength="743" x="1669" y="553.8759">+getAllAnnouncementsSortedByDefualtCriteria() : ArrayList&lt;Announcement&gt;</text><text fill="#000000" font-family="sans-serif" font-size="20" lengthAdjust="spacing" textLength="1008" x="1669" y="577.4306">+getAllAnnouncementsSortedBySortCriteria(String sortCriteria, String order) : ArrayList&lt;Announcement&gt;</text><text fill="#000000" font-family="sans-serif" font-size="20" lengthAdjust="spacing" textLength="1403" x="1669" y="600.9853">+getFilteredAnnouncements(TypeOfProperty typeOfProperty, TransactionType transactionType, int numberOfRooms) : ArrayList&lt;Announcement&gt;</text><text fill="#000000" font-family="sans-serif" font-size="20" lengthAdjust="spacing" textLength="1017" x="1669" y="624.54">+getFilteredAndSortedAnnouncements(TypeOfProperty typeOfProperty, TransactionType transactionType,</text><text fill="#000000" font-family="sans-serif" font-size="20" lengthAdjust="spacing" textLength="789" x="1675" y="648.0947">int numberOfRooms, String sortCriteria, String order) : ArrayList&lt;Announcement&gt;</text></g><!--class OrderRepository--><g id="elem_OrderRepository"><rect codeLine="42" fill="#F1F1F1" height="120.6641" id="OrderRepository" rx="2.5" ry="2.5" style="stroke:#181818;stroke-width:0.5;" width="1195" x="7" y="512.1"/><ellipse cx="521" cy="529.1" fill="#ADD1B2" rx="12" ry="12" style="stroke:#181818;stroke-width:1.0;"/><path d="M523.8066,536.1801 Q523.123,536.5316 522.3711,536.7074 Q521.6191,536.8832 520.7891,536.8832 Q517.8398,536.8832 516.2871,534.9398 Q514.7344,532.9965 514.7344,529.3246 Q514.7344,525.643 516.2871,523.6996 Q517.8398,521.7563 520.7891,521.7563 Q521.6191,521.7563 522.3809,521.932 Q523.1426,522.1078 523.8066,522.4594 L523.8066,525.6625 Q523.0645,524.9789 522.3662,524.6615 Q521.668,524.3441 520.9258,524.3441 Q519.3438,524.3441 518.5381,525.599 Q517.7324,526.8539 517.7324,529.3246 Q517.7324,531.7855 518.5381,533.0404 Q519.3438,534.2953 520.9258,534.2953 Q521.668,534.2953 522.3662,533.9779 Q523.0645,533.6605 523.8066,532.977 Z " fill="#000000"/><text fill="#000000" font-family="sans-serif" font-size="20" lengthAdjust="spacing" textLength="158" x="543" y="536.6586">OrderRepository</text><line style="stroke:#181818;stroke-width:0.5;" x1="8" x2="1201" y1="546.1" y2="546.1"/><line style="stroke:#181818;stroke-width:0.5;" x1="8" x2="1201" y1="554.1" y2="554.1"/><text fill="#000000" font-family="sans-serif" font-size="20" lengthAdjust="spacing" textLength="944" x="13" y="577.4359">+clientAlreadyMadeOrderForThisAnnouncement(String clientEmail, int announcementId) : boolean</text><text fill="#000000" font-family="sans-serif" font-size="20" lengthAdjust="spacing" textLength="1183" x="13" y="600.9906">+someoneAlreadyMadeOrderWithSameAmountForThisAnnouncement(double orderAmount, int announcementId) : boolean</text><text fill="#000000" font-family="sans-serif" font-size="20" lengthAdjust="spacing" textLength="1089" x="13" y="624.5453">+addOrder(double orderAmount, int announcementId, String clientEmail, Date date, OrderState orderState) : void</text></g><!--class AuthenticationRepository--><g id="elem_AuthenticationRepository"><rect codeLine="48" fill="#F1F1F1" height="73.5547" id="AuthenticationRepository" rx="2.5" ry="2.5" style="stroke:#181818;stroke-width:0.5;" width="392" x="1236.5" y="535.65"/><ellipse cx="1307.5" cy="552.65" fill="#ADD1B2" rx="12" ry="12" style="stroke:#181818;stroke-width:1.0;"/><path d="M1310.3066,559.7301 Q1309.623,560.0816 1308.8711,560.2574 Q1308.1191,560.4332 1307.2891,560.4332 Q1304.3398,560.4332 1302.7871,558.4898 Q1301.2344,556.5465 1301.2344,552.8746 Q1301.2344,549.193 1302.7871,547.2496 Q1304.3398,545.3063 1307.2891,545.3063 Q1308.1191,545.3063 1308.8809,545.482 Q1309.6426,545.6578 1310.3066,546.0094 L1310.3066,549.2125 Q1309.5645,548.5289 1308.8662,548.2115 Q1308.168,547.8941 1307.4258,547.8941 Q1305.8438,547.8941 1305.0381,549.149 Q1304.2324,550.4039 1304.2324,552.8746 Q1304.2324,555.3355 1305.0381,556.5904 Q1305.8438,557.8453 1307.4258,557.8453 Q1308.168,557.8453 1308.8662,557.5279 Q1309.5645,557.2105 1310.3066,556.527 Z " fill="#000000"/><text fill="#000000" font-family="sans-serif" font-size="20" lengthAdjust="spacing" textLength="241" x="1329.5" y="560.2086">AuthenticationRepository</text><line style="stroke:#181818;stroke-width:0.5;" x1="1237.5" x2="1627.5" y1="569.65" y2="569.65"/><line style="stroke:#181818;stroke-width:0.5;" x1="1237.5" x2="1627.5" y1="577.65" y2="577.65"/><text fill="#000000" font-family="sans-serif" font-size="20" lengthAdjust="spacing" textLength="380" x="1242.5" y="600.9859">+getCurrentUserSession() : UserSession</text></g><!--class AuthenticationFacade--><g id="elem_AuthenticationFacade"><rect codeLine="52" fill="#F1F1F1" height="73.5547" id="AuthenticationFacade" rx="2.5" ry="2.5" style="stroke:#181818;stroke-width:0.5;" width="525" x="1170" y="847.31"/><ellipse cx="1325" cy="864.31" fill="#ADD1B2" rx="12" ry="12" style="stroke:#181818;stroke-width:1.0;"/><path d="M1327.8066,871.3901 Q1327.123,871.7416 1326.3711,871.9174 Q1325.6191,872.0932 1324.7891,872.0932 Q1321.8398,872.0932 1320.2871,870.1498 Q1318.7344,868.2065 1318.7344,864.5346 Q1318.7344,860.853 1320.2871,858.9096 Q1321.8398,856.9663 1324.7891,856.9663 Q1325.6191,856.9663 1326.3809,857.142 Q1327.1426,857.3178 1327.8066,857.6694 L1327.8066,860.8725 Q1327.0645,860.1889 1326.3662,859.8715 Q1325.668,859.5541 1324.9258,859.5541 Q1323.3438,859.5541 1322.5381,860.809 Q1321.7324,862.0639 1321.7324,864.5346 Q1321.7324,866.9955 1322.5381,868.2504 Q1323.3438,869.5053 1324.9258,869.5053 Q1325.668,869.5053 1326.3662,869.1879 Q1327.0645,868.8705 1327.8066,868.187 Z " fill="#000000"/><text fill="#000000" font-family="sans-serif" font-size="20" lengthAdjust="spacing" textLength="206" x="1347" y="871.8686">AuthenticationFacade</text><line style="stroke:#181818;stroke-width:0.5;" x1="1171" x2="1694" y1="881.31" y2="881.31"/><line style="stroke:#181818;stroke-width:0.5;" x1="1171" x2="1694" y1="889.31" y2="889.31"/><text fill="#000000" font-family="sans-serif" font-size="20" lengthAdjust="spacing" textLength="513" x="1176" y="912.6459">+getCurrentUserSession() : UserSession : UserSession</text></g><!--class UserSession--><g id="elem_UserSession"><rect codeLine="56" fill="#F1F1F1" height="73.5547" id="UserSession" rx="2.5" ry="2.5" style="stroke:#181818;stroke-width:0.5;" width="205" x="1330" y="1206.08"/><ellipse cx="1371.2" cy="1223.08" fill="#ADD1B2" rx="12" ry="12" style="stroke:#181818;stroke-width:1.0;"/><path d="M1374.0066,1230.1601 Q1373.323,1230.5116 1372.5711,1230.6874 Q1371.8191,1230.8632 1370.9891,1230.8632 Q1368.0398,1230.8632 1366.4871,1228.9198 Q1364.9344,1226.9765 1364.9344,1223.3046 Q1364.9344,1219.623 1366.4871,1217.6796 Q1368.0398,1215.7363 1370.9891,1215.7363 Q1371.8191,1215.7363 1372.5809,1215.912 Q1373.3426,1216.0878 1374.0066,1216.4394 L1374.0066,1219.6425 Q1373.2645,1218.9589 1372.5662,1218.6415 Q1371.868,1218.3241 1371.1258,1218.3241 Q1369.5438,1218.3241 1368.7381,1219.579 Q1367.9324,1220.8339 1367.9324,1223.3046 Q1367.9324,1225.7655 1368.7381,1227.0204 Q1369.5438,1228.2753 1371.1258,1228.2753 Q1371.868,1228.2753 1372.5662,1227.9579 Q1373.2645,1227.6405 1374.0066,1226.957 Z " fill="#000000"/><text fill="#000000" font-family="sans-serif" font-size="20" lengthAdjust="spacing" textLength="115" x="1391.8" y="1230.6386">UserSession</text><line style="stroke:#181818;stroke-width:0.5;" x1="1331" x2="1534" y1="1240.08" y2="1240.08"/><line style="stroke:#181818;stroke-width:0.5;" x1="1331" x2="1534" y1="1248.08" y2="1248.08"/><text fill="#000000" font-family="sans-serif" font-size="20" lengthAdjust="spacing" textLength="193" x="1336" y="1271.4159">+getUserId() : Email</text></g><!--class User--><g id="elem_User"><rect codeLine="60" fill="#F1F1F1" height="73.5547" id="User" rx="2.5" ry="2.5" style="stroke:#181818;stroke-width:0.5;" width="162" x="1351.5" y="1458.86"/><ellipse cx="1406.5" cy="1475.86" fill="#ADD1B2" rx="12" ry="12" style="stroke:#181818;stroke-width:1.0;"/><path d="M1409.3066,1482.9401 Q1408.623,1483.2916 1407.8711,1483.4674 Q1407.1191,1483.6432 1406.2891,1483.6432 Q1403.3398,1483.6432 1401.7871,1481.6998 Q1400.2344,1479.7565 1400.2344,1476.0846 Q1400.2344,1472.403 1401.7871,1470.4596 Q1403.3398,1468.5163 1406.2891,1468.5163 Q1407.1191,1468.5163 1407.8809,1468.692 Q1408.6426,1468.8678 1409.3066,1469.2194 L1409.3066,1472.4225 Q1408.5645,1471.7389 1407.8662,1471.4215 Q1407.168,1471.1041 1406.4258,1471.1041 Q1404.8438,1471.1041 1404.0381,1472.359 Q1403.2324,1473.6139 1403.2324,1476.0846 Q1403.2324,1478.5455 1404.0381,1479.8004 Q1404.8438,1481.0553 1406.4258,1481.0553 Q1407.168,1481.0553 1407.8662,1480.7379 Q1408.5645,1480.4205 1409.3066,1479.737 Z " fill="#000000"/><text fill="#000000" font-family="sans-serif" font-size="20" lengthAdjust="spacing" textLength="43" x="1428.5" y="1483.4186">User</text><line style="stroke:#181818;stroke-width:0.5;" x1="1352.5" x2="1512.5" y1="1492.86" y2="1492.86"/><line style="stroke:#181818;stroke-width:0.5;" x1="1352.5" x2="1512.5" y1="1500.86" y2="1500.86"/><text fill="#000000" font-family="sans-serif" font-size="20" lengthAdjust="spacing" textLength="150" x="1357.5" y="1524.1959">+getId() : Email</text></g><!--class Order--><g id="elem_Order"><rect codeLine="64" fill="#F1F1F1" height="238.4375" id="Order" rx="2.5" ry="2.5" style="stroke:#181818;stroke-width:0.5;" width="237" x="486" y="764.87"/><ellipse cx="572" cy="781.87" fill="#ADD1B2" rx="12" ry="12" style="stroke:#181818;stroke-width:1.0;"/><path d="M574.8066,788.9501 Q574.123,789.3016 573.3711,789.4774 Q572.6191,789.6532 571.7891,789.6532 Q568.8398,789.6532 567.2871,787.7098 Q565.7344,785.7665 565.7344,782.0946 Q565.7344,778.413 567.2871,776.4696 Q568.8398,774.5263 571.7891,774.5263 Q572.6191,774.5263 573.3809,774.702 Q574.1426,774.8778 574.8066,775.2294 L574.8066,778.4325 Q574.0645,777.7489 573.3662,777.4315 Q572.668,777.1141 571.9258,777.1141 Q570.3438,777.1141 569.5381,778.369 Q568.7324,779.6239 568.7324,782.0946 Q568.7324,784.5555 569.5381,785.8104 Q570.3438,787.0653 571.9258,787.0653 Q572.668,787.0653 573.3662,786.7479 Q574.0645,786.4305 574.8066,785.747 Z " fill="#000000"/><text fill="#000000" font-family="sans-serif" font-size="20" lengthAdjust="spacing" textLength="56" x="594" y="789.4286">Order</text><line style="stroke:#181818;stroke-width:0.5;" x1="487" x2="722" y1="798.87" y2="798.87"/><text fill="#000000" font-family="sans-serif" font-size="20" lengthAdjust="spacing" textLength="74" x="492" y="822.2059">-id : int</text><text fill="#000000" font-family="sans-serif" font-size="20" lengthAdjust="spacing" textLength="150" x="492" y="845.7606">-idCounter : int</text><text fill="#000000" font-family="sans-serif" font-size="20" lengthAdjust="spacing" textLength="225" x="492" y="869.3153">-orderAmount : double</text><text fill="#000000" font-family="sans-serif" font-size="20" lengthAdjust="spacing" textLength="215" x="492" y="892.87">-announcementId : int</text><text fill="#000000" font-family="sans-serif" font-size="20" lengthAdjust="spacing" textLength="191" x="492" y="916.4247">-clientEmail : String</text><text fill="#000000" font-family="sans-serif" font-size="20" lengthAdjust="spacing" textLength="116" x="492" y="939.9794">-date : Date</text><text fill="#000000" font-family="sans-serif" font-size="20" lengthAdjust="spacing" textLength="179" x="492" y="963.5341">-state : OrderState</text><line style="stroke:#181818;stroke-width:0.5;" x1="487" x2="722" y1="971.7528" y2="971.7528"/><text fill="#000000" font-family="sans-serif" font-size="20" lengthAdjust="spacing" textLength="179" x="492" y="995.0888">+toString() : String</text></g><!--class Repositories--><g id="elem_Repositories"><rect codeLine="76" fill="#F1F1F1" height="120.6641" id="Repositories" rx="2.5" ry="2.5" style="stroke:#181818;stroke-width:0.5;" width="406" x="1580.5" y="282.88"/><ellipse cx="1719.5" cy="299.88" fill="#ADD1B2" rx="12" ry="12" style="stroke:#181818;stroke-width:1.0;"/><path d="M1722.3066,306.9601 Q1721.623,307.3116 1720.8711,307.4874 Q1720.1191,307.6632 1719.2891,307.6632 Q1716.3398,307.6632 1714.7871,305.7198 Q1713.2344,303.7765 1713.2344,300.1046 Q1713.2344,296.423 1714.7871,294.4796 Q1716.3398,292.5363 1719.2891,292.5363 Q1720.1191,292.5363 1720.8809,292.712 Q1721.6426,292.8878 1722.3066,293.2394 L1722.3066,296.4425 Q1721.5645,295.7589 1720.8662,295.4415 Q1720.168,295.1241 1719.4258,295.1241 Q1717.8438,295.1241 1717.0381,296.379 Q1716.2324,297.6339 1716.2324,300.1046 Q1716.2324,302.5655 1717.0381,303.8204 Q1717.8438,305.0753 1719.4258,305.0753 Q1720.168,305.0753 1720.8662,304.7579 Q1721.5645,304.4405 1722.3066,303.757 Z " fill="#000000"/><text fill="#000000" font-family="sans-serif" font-size="20" lengthAdjust="spacing" textLength="119" x="1741.5" y="307.4386">Repositories</text><line style="stroke:#181818;stroke-width:0.5;" x1="1581.5" x2="1985.5" y1="316.88" y2="316.88"/><line style="stroke:#181818;stroke-width:0.5;" x1="1581.5" x2="1985.5" y1="324.88" y2="324.88"/><text fill="#000000" font-family="sans-serif" font-size="20" lengthAdjust="spacing" textLength="149" x="1586.5" y="348.2159">+Repositories()</text><text fill="#000000" font-family="sans-serif" font-size="20" lengthAdjust="spacing" textLength="276" x="1586.5" y="371.7706">+getInstance() : Repositories</text><text fill="#000000" font-family="sans-serif" font-size="20" lengthAdjust="spacing" textLength="394" x="1586.5" y="395.3253">+getOrderRepository() : OrderRepository</text></g><!--class CreateOrderController--><g id="elem_CreateOrderController"><rect codeLine="82" fill="#F1F1F1" height="214.8828" id="CreateOrderController" rx="2.5" ry="2.5" style="stroke:#181818;stroke-width:0.5;" width="1195" x="1598" y="7"/><ellipse cx="2084" cy="24" fill="#ADD1B2" rx="12" ry="12" style="stroke:#181818;stroke-width:1.0;"/><path d="M2086.8066,31.0801 Q2086.123,31.4316 2085.3711,31.6074 Q2084.6191,31.7832 2083.7891,31.7832 Q2080.8398,31.7832 2079.2871,29.8398 Q2077.7344,27.8965 2077.7344,24.2246 Q2077.7344,20.543 2079.2871,18.5996 Q2080.8398,16.6563 2083.7891,16.6563 Q2084.6191,16.6563 2085.3809,16.832 Q2086.1426,17.0078 2086.8066,17.3594 L2086.8066,20.5625 Q2086.0645,19.8789 2085.3662,19.5615 Q2084.668,19.2441 2083.9258,19.2441 Q2082.3438,19.2441 2081.5381,20.499 Q2080.7324,21.7539 2080.7324,24.2246 Q2080.7324,26.6855 2081.5381,27.9404 Q2082.3438,29.1953 2083.9258,29.1953 Q2084.668,29.1953 2085.3662,28.8779 Q2086.0645,28.5605 2086.8066,27.877 Z " fill="#000000"/><text fill="#000000" font-family="sans-serif" font-size="20" lengthAdjust="spacing" textLength="214" x="2106" y="31.5586">CreateOrderController</text><line style="stroke:#181818;stroke-width:0.5;" x1="1599" x2="2792" y1="41" y2="41"/><line style="stroke:#181818;stroke-width:0.5;" x1="1599" x2="2792" y1="49" y2="49"/><text fill="#000000" font-family="sans-serif" font-size="20" lengthAdjust="spacing" textLength="1183" x="1604" y="72.3359">+someoneAlreadyMadeOrderWithSameAmountForThisAnnouncement(double orderAmount, int announcementId) : boolean</text><text fill="#000000" font-family="sans-serif" font-size="20" lengthAdjust="spacing" textLength="933" x="1604" y="95.8906">+clientAlreadyMadeOrderForThisAnnouncement(int announcementId, String userEmail) : boolean</text><text fill="#000000" font-family="sans-serif" font-size="20" lengthAdjust="spacing" textLength="506" x="1604" y="119.4453">+getPropertyPriceByAnnouncementId(int id) : double</text><text fill="#000000" font-family="sans-serif" font-size="20" lengthAdjust="spacing" textLength="243" x="1604" y="143">+getClientEmail() : String</text><text fill="#000000" font-family="sans-serif" font-size="20" lengthAdjust="spacing" textLength="519" x="1604" y="166.5547">+getAllAnnouncements() : ArrayList&lt;Announcement&gt;</text><text fill="#000000" font-family="sans-serif" font-size="20" lengthAdjust="spacing" textLength="695" x="1604" y="190.1094">+getPropertyByAnnouncement(Announcement announcement) : Property</text><text fill="#000000" font-family="sans-serif" font-size="20" lengthAdjust="spacing" textLength="1110" x="1604" y="213.6641">+createOrder(double orderAmount, int announcementId, String clientEmail, Date date, OrderState orderState) : void</text></g><!--class CreateOrderUI--><g id="elem_CreateOrderUI"><rect codeLine="92" fill="#F1F1F1" height="97.1094" id="CreateOrderUI" rx="2.5" ry="2.5" style="stroke:#181818;stroke-width:0.5;" width="798" x="765.5" y="65.88"/><ellipse cx="1091" cy="82.88" fill="#ADD1B2" rx="12" ry="12" style="stroke:#181818;stroke-width:1.0;"/><path d="M1093.8066,89.9601 Q1093.123,90.3116 1092.3711,90.4874 Q1091.6191,90.6632 1090.7891,90.6632 Q1087.8398,90.6632 1086.2871,88.7198 Q1084.7344,86.7765 1084.7344,83.1046 Q1084.7344,79.423 1086.2871,77.4796 Q1087.8398,75.5363 1090.7891,75.5363 Q1091.6191,75.5363 1092.3809,75.712 Q1093.1426,75.8878 1093.8066,76.2394 L1093.8066,79.4425 Q1093.0645,78.7589 1092.3662,78.4415 Q1091.668,78.1241 1090.9258,78.1241 Q1089.3438,78.1241 1088.5381,79.379 Q1087.7324,80.6339 1087.7324,83.1046 Q1087.7324,85.5655 1088.5381,86.8204 Q1089.3438,88.0753 1090.9258,88.0753 Q1091.668,88.0753 1092.3662,87.7579 Q1093.0645,87.4405 1093.8066,86.757 Z " fill="#000000"/><text fill="#000000" font-family="sans-serif" font-size="20" lengthAdjust="spacing" textLength="138" x="1113" y="90.4386">CreateOrderUI</text><line style="stroke:#181818;stroke-width:0.5;" x1="766.5" x2="1562.5" y1="99.88" y2="99.88"/><line style="stroke:#181818;stroke-width:0.5;" x1="766.5" x2="1562.5" y1="107.88" y2="107.88"/><text fill="#000000" font-family="sans-serif" font-size="20" lengthAdjust="spacing" textLength="786" x="771.5" y="131.2159">+showAnnouncements(ArrayList&lt;Announcement&gt; publishedPropertiesList) : void</text><text fill="#000000" font-family="sans-serif" font-size="20" lengthAdjust="spacing" textLength="589" x="771.5" y="154.7706">+createOrder(amount, id, clientEmail, date, orderState) : void</text></g><!--link Repositories to Repositories--><g id="link_Repositories_Repositories"><path codeLine="98" d="M1986.63,329.1 C2007.88,331.85 2021.5,336.56 2021.5,343.21 C2021.5,349.24 2010.32,353.67 1992.4,356.5 " fill="none" id="Repositories-to-Repositories" style="stroke:#181818;stroke-width:1.0;"/><polygon fill="#181818" points="1987.63,357.32,1997.1085,359.9955,1992.5789,356.6069,1995.9675,352.0773,1987.63,357.32" style="stroke:#181818;stroke-width:1.0;"/><text fill="#000000" font-family="sans-serif" font-size="20" lengthAdjust="spacing" textLength="89" x="2027.5" y="351.0459">instances</text></g><!--link CreateOrderUI to CreateOrderController--><g id="link_CreateOrderUI_CreateOrderController"><path codeLine="100" d="M1563.76,114.44 C1572.42,114.44 1581.81,114.44 1591.75,114.44 " fill="none" id="CreateOrderUI-to-CreateOrderController" style="stroke:#181818;stroke-width:1.0;stroke-dasharray:7.0,7.0;"/><polygon fill="#181818" points="1596.66,114.44,1587.66,110.44,1591.66,114.44,1587.66,118.44,1596.66,114.44" style="stroke:#181818;stroke-width:1.0;"/></g><!--link CreateOrderController to Repositories--><g id="link_CreateOrderController_Repositories"><path codeLine="102" d="M2001.26,222.35 C1965.63,241.96 1929.53,261.83 1897.24,279.6 " fill="none" id="CreateOrderController-to-Repositories" style="stroke:#181818;stroke-width:1.0;stroke-dasharray:7.0,7.0;"/><polygon fill="#181818" points="1893.1,282.44,1902.9133,281.6039,1897.4802,280.0288,1899.0553,274.5956,1893.1,282.44" style="stroke:#181818;stroke-width:1.0;"/></g><!--link Repositories to AnnouncementRepository--><g id="link_Repositories_AnnouncementRepository"><path codeLine="104" d="M1937.73,403.91 C2002.53,428.99 2079.13,458.64 2149.73,485.97 " fill="none" id="Repositories-to-AnnouncementRepository" style="stroke:#181818;stroke-width:1.0;"/><polygon fill="#181818" points="2154.24,488.11,2147.2873,481.1344,2149.5762,486.3074,2144.4032,488.5964,2154.24,488.11" style="stroke:#181818;stroke-width:1.0;"/><text fill="#000000" font-family="sans-serif" font-size="20" lengthAdjust="spacing" textLength="33" x="2077.5" y="453.8759">has</text><text fill="#000000" font-family="sans-serif" font-size="20" lengthAdjust="spacing" textLength="13" x="1939.9647" y="430.72">1</text><text fill="#000000" font-family="sans-serif" font-size="20" lengthAdjust="spacing" textLength="13" x="2123.1825" y="476.2355">1</text></g><!--link Repositories to AuthenticationRepository--><g id="link_Repositories_AuthenticationRepository"><path codeLine="106" d="M1691.28,403.91 C1628.78,444.37 1547.93,496.71 1493.37,532.03 " fill="none" id="Repositories-to-AuthenticationRepository" style="stroke:#181818;stroke-width:1.0;"/><polygon fill="#181818" points="1489.5,535.18,1499.23,533.6545,1493.6994,532.4661,1494.8878,526.9355,1489.5,535.18" style="stroke:#181818;stroke-width:1.0;"/><text fill="#000000" font-family="sans-serif" font-size="20" lengthAdjust="spacing" textLength="33" x="1639.5" y="453.8759">has</text><text fill="#000000" font-family="sans-serif" font-size="20" lengthAdjust="spacing" textLength="13" x="1668.0995" y="430.72">1</text><text fill="#000000" font-family="sans-serif" font-size="20" lengthAdjust="spacing" textLength="13" x="1483.6984" y="523.4881">1</text></g><!--link Repositories to OrderRepository--><g id="link_Repositories_OrderRepository"><path codeLine="108" d="M1580.15,383.4 C1398.72,418.37 1130.16,470.12 920.71,510.49 " fill="none" id="Repositories-to-OrderRepository" style="stroke:#181818;stroke-width:1.0;"/><polygon fill="#181818" points="915.84,511.62,925.4325,513.8525,920.7504,510.6779,923.9251,505.9958,915.84,511.62" style="stroke:#181818;stroke-width:1.0;"/><text fill="#000000" font-family="sans-serif" font-size="20" lengthAdjust="spacing" textLength="33" x="1300.5" y="453.8759">has</text><text fill="#000000" font-family="sans-serif" font-size="20" lengthAdjust="spacing" textLength="13" x="1559.6085" y="380.7769">1</text><text fill="#000000" font-family="sans-serif" font-size="20" lengthAdjust="spacing" textLength="13" x="935.0725" y="500.0771">1</text></g><!--link CreateOrderController to AnnouncementRepository--><g id="link_CreateOrderController_AnnouncementRepository"><path codeLine="110" d="M2236.53,222.35 C2266.97,301.65 2307.97,408.49 2336.57,483.01 " fill="none" id="CreateOrderController-to-AnnouncementRepository" style="stroke:#181818;stroke-width:1.0;stroke-dasharray:7.0,7.0;"/><polygon fill="#181818" points="2338.6,487.31,2339.1127,477.4745,2336.8099,482.6414,2331.643,480.3386,2338.6,487.31" style="stroke:#181818;stroke-width:1.0;"/></g><!--link AnnouncementRepository to Announcement--><g id="link_AnnouncementRepository_Announcement"><path codeLine="112" d="M2370.5,656.41 C2370.5,680.75 2370.5,708.13 2370.5,735.22 " fill="none" id="AnnouncementRepository-to-Announcement" style="stroke:#181818;stroke-width:1.0;"/><polygon fill="#181818" points="2370.5,740,2374.5,731,2370.5,735,2366.5,731,2370.5,740" style="stroke:#181818;stroke-width:1.0;"/><text fill="#000000" font-family="sans-serif" font-size="20" lengthAdjust="spacing" textLength="33" x="2371.5" y="706.6559">has</text><text fill="#000000" font-family="sans-serif" font-size="20" lengthAdjust="spacing" textLength="13" x="2356.9617" y="683.6761">1</text><text fill="#000000" font-family="sans-serif" font-size="20" lengthAdjust="spacing" textLength="10" x="2360.2266" y="728.8968">*</text></g><!--link Announcement to Property--><g id="link_Announcement_Property"><path codeLine="114" d="M2370.5,1027.12 C2370.5,1053.04 2370.5,1080.04 2370.5,1105.78 " fill="none" id="Announcement-to-Property" style="stroke:#181818;stroke-width:1.0;"/><polygon fill="#181818" points="2370.5,1110.6,2374.5,1101.6,2370.5,1105.6,2366.5,1101.6,2370.5,1110.6" style="stroke:#181818;stroke-width:1.0;"/><text fill="#000000" font-family="sans-serif" font-size="20" lengthAdjust="spacing" textLength="33" x="2371.5" y="1077.1959">has</text><text fill="#000000" font-family="sans-serif" font-size="20" lengthAdjust="spacing" textLength="13" x="2357.1648" y="1054.438">1</text><text fill="#000000" font-family="sans-serif" font-size="20" lengthAdjust="spacing" textLength="13" x="2357.1242" y="1099.6989">1</text></g><!--link AuthenticationRepository to AuthenticationFacade--><g id="link_AuthenticationRepository_AuthenticationFacade"><path codeLine="116" d="M1432.5,609.56 C1432.5,667.36 1432.5,780.33 1432.5,841.44 " fill="none" id="AuthenticationRepository-to-AuthenticationFacade" style="stroke:#181818;stroke-width:1.0;"/><polygon fill="#181818" points="1432.5,846.19,1436.5,837.19,1432.5,841.19,1428.5,837.19,1432.5,846.19" style="stroke:#181818;stroke-width:1.0;"/><text fill="#000000" font-family="sans-serif" font-size="20" lengthAdjust="spacing" textLength="33" x="1433.5" y="706.6559">has</text><text fill="#000000" font-family="sans-serif" font-size="20" lengthAdjust="spacing" textLength="13" x="1418.4641" y="636.691">1</text><text fill="#000000" font-family="sans-serif" font-size="20" lengthAdjust="spacing" textLength="13" x="1418.3422" y="834.9546">1</text></g><!--link AuthenticationFacade to UserSession--><g id="link_AuthenticationFacade_UserSession"><path codeLine="118" d="M1432.5,921.26 C1432.5,987.77 1432.5,1129.13 1432.5,1199.8 " fill="none" id="AuthenticationFacade-to-UserSession" style="stroke:#181818;stroke-width:1.0;"/><polygon fill="#181818" points="1432.5,1204.59,1436.5,1195.59,1432.5,1199.59,1428.5,1195.59,1432.5,1204.59" style="stroke:#181818;stroke-width:1.0;"/><text fill="#000000" font-family="sans-serif" font-size="20" lengthAdjust="spacing" textLength="33" x="1433.5" y="1077.1959">has</text><text fill="#000000" font-family="sans-serif" font-size="20" lengthAdjust="spacing" textLength="13" x="1418.5047" y="948.0914">1</text><text fill="#000000" font-family="sans-serif" font-size="20" lengthAdjust="spacing" textLength="13" x="1418.4234" y="1193.8948">1</text></g><!--link UserSession to User--><g id="link_UserSession_User"><path codeLine="120" d="M1432.5,1280.06 C1432.5,1325.81 1432.5,1404.4 1432.5,1452.71 " fill="none" id="UserSession-to-User" style="stroke:#181818;stroke-width:1.0;"/><polygon fill="#181818" points="1432.5,1457.45,1436.5,1448.45,1432.5,1452.45,1428.5,1448.45,1432.5,1457.45" style="stroke:#181818;stroke-width:1.0;"/><text fill="#000000" font-family="sans-serif" font-size="20" lengthAdjust="spacing" textLength="33" x="1433.5" y="1424.1959">has</text><text fill="#000000" font-family="sans-serif" font-size="20" lengthAdjust="spacing" textLength="13" x="1418.5047" y="1306.896">1</text><text fill="#000000" font-family="sans-serif" font-size="20" lengthAdjust="spacing" textLength="13" x="1418.4234" y="1446.768">1</text></g><!--link OrderRepository to Order--><g id="link_OrderRepository_Order"><path codeLine="122" d="M604.5,633.14 C604.5,668.79 604.5,715.44 604.5,758.77 " fill="none" id="OrderRepository-to-Order" style="stroke:#181818;stroke-width:1.0;"/><polygon fill="#181818" points="604.5,763.58,608.5,754.58,604.5,758.58,600.5,754.58,604.5,763.58" style="stroke:#181818;stroke-width:1.0;"/><text fill="#000000" font-family="sans-serif" font-size="20" lengthAdjust="spacing" textLength="33" x="605.5" y="706.6559">has</text><text fill="#000000" font-family="sans-serif" font-size="20" lengthAdjust="spacing" textLength="13" x="590.8297" y="659.951">1</text><text fill="#000000" font-family="sans-serif" font-size="20" lengthAdjust="spacing" textLength="10" x="594.1797" y="752.541">*</text></g><!--SRC=[nLPRJzim57xFhx3s0WoAs1xHLAcKLKBQ1AAWlUp5nAUDXMDNjZEKeVtt7Tkvs6a3PPes7cXo_9tRTowEUUHoGpKjXSeVWH46Are9kr3IBlbF81_FiWFJOaYffCeBhKeWLbUGzISRcZ_IDInjBO1eo2sLQn43J46PUk9oJLPKcFX4S0cstW3PA56xbzXZTwYqLLcabGjgpCnQpHyg2rUvaZxUiomx4B2on2gY-RgmX74N3bUPro0tMcr0s_ev8_vlGgW6Iiu9KzK3HjnA6JUOGmuBp7OEqeBUncmqps5RJ1dJWAxEoImyDIV7P0ss4HqUZHnZCFuiiUcFBhSYya0kROowSJ7jic3L4icIQtyM7hDVMSFAJ4fLeUqIxH9FpOGusgzNBL-eT9S86f2cqb37htJ73fLA0co3eN1JN5Bh8Eudo7DLScCGYjAvAfkNHgTGLc5eMjFw2-R-wSO9fk6GcvjW4dlsd3me9O0sUfprhBYtEMOMojS86vv26fwEEAStC7KB6sMuLReEd95ZLq4XOenPOkS2kwWlOLLHOUUQOp0y5BdFBLQPlchB_NQ6GeJ4HBAJ9coS6WPw7qyBBb0JMEBkCAtue2DEXgKUDiE98vp8gdm0VRswLQeqRmk5XNp_QapVvNPK7Lr_nc7N6zSEsJT5qnEvu0YR2PniLd-b33nieVHTmKrigQraKFXSKYu2XJG2NR6ZjE79iS5zh2GCFNpZjbZI4cQb6u1T_iA620a6r5x-SBzv1tlgTqGcUVbLmF3VIQ1jQPr0TO_Ewm_5MJHvbIrGd-VK5NEBPkoSUQKr8kuDsW2_IVoKHUzZrXOqHzhUOcdCRYJipJdX5VCcVFeflCVjndX-0cWIBpVtjhNSo2GgHteBJDAwn3fHQVgTvqzOkhB9nDWWwQkMXVXVN9jTkJYOTbd6iiEZdWGPxZbl9yPqYC6SUU10rdkUurJOC15p_AhHIWZaw_d_ZCx-k-25EQgmPtofjin7zvh_3hYePua9RvMpmTU1R_Y-0UBwZLr4UzrURIXf58V9jqQSul0cHhhwsltZPHDrpVrLros5Uaff6A6W_Tu1rkI3tUjGdP-jx6YR4MQGX1wYtXrgbapLP9fEcHllC4acoz9yJgUxnoB1HTDoUfhQ7dX-z-4TcQ1xzploVNHE2lgYsiXoVrLnCFSjVZoFtG5csKZWdQ_tQMwjeqGM1nPzE0VWM8RZD8HRQRU1vYnMJcydhnEBXj0MCsGmpjYVDS3V]--></g></svg>