<?xml version="1.0" encoding="UTF-8" standalone="no"?><svg xmlns="http://www.w3.org/2000/svg" xmlns:xlink="http://www.w3.org/1999/xlink" contentStyleType="text/css" height="1172px" preserveAspectRatio="none" style="width:2963px;height:1172px;background:#FFFFFF;" version="1.1" viewBox="0 0 2963 1172" width="2963px" zoomAndPan="magnify"><defs/><g><rect fill="#FFFFFF" height="976.8672" style="stroke:#181818;stroke-width:1.0;" width="10" x="31" y="98.5547"/><rect fill="#FFFFFF" height="37.5547" style="stroke:#181818;stroke-width:1.0;" width="10" x="736" y="128.1094"/><rect fill="#FFFFFF" height="37.5547" style="stroke:#181818;stroke-width:1.0;" width="10" x="736" y="203.2188"/><rect fill="#FFFFFF" height="797.0938" style="stroke:#181818;stroke-width:1.0;" width="10" x="736" y="278.3281"/><rect fill="#FFFFFF" height="712.9844" style="stroke:#181818;stroke-width:1.0;" width="10" x="1096" y="315.8828"/><rect fill="#FFFFFF" height="37.5547" style="stroke:#181818;stroke-width:1.0;" width="10" x="1286.5" y="353.4375"/><rect fill="#FFFFFF" height="37.5547" style="stroke:#181818;stroke-width:1.0;" width="10" x="1429.5" y="428.5469"/><rect fill="#FFFFFF" height="313.4375" style="stroke:#181818;stroke-width:1.0;" width="10" x="1633.5" y="503.6563"/><rect fill="#FFFFFF" height="238.3281" style="stroke:#181818;stroke-width:1.0;" width="10" x="1923.5" y="541.2109"/><rect fill="#FFFFFF" height="163.2188" style="stroke:#181818;stroke-width:1.0;" width="10" x="2213.5" y="578.7656"/><rect fill="#FFFFFF" height="88.1094" style="stroke:#181818;stroke-width:1.0;" width="10" x="2378.5" y="616.3203"/><rect fill="#FFFFFF" height="136.6641" style="stroke:#181818;stroke-width:1.0;" width="10" x="2503" y="854.6484"/><line style="stroke:#181818;stroke-width:0.5;stroke-dasharray:5.0,5.0;" x1="36" x2="36" y1="88.5547" y2="1084.4219"/><line style="stroke:#181818;stroke-width:0.5;stroke-dasharray:5.0,5.0;" x1="741" x2="741" y1="88.5547" y2="1084.4219"/><line style="stroke:#181818;stroke-width:0.5;stroke-dasharray:5.0,5.0;" x1="1101" x2="1101" y1="88.5547" y2="1084.4219"/><line style="stroke:#181818;stroke-width:0.5;stroke-dasharray:5.0,5.0;" x1="1291" x2="1291" y1="88.5547" y2="1084.4219"/><line style="stroke:#181818;stroke-width:0.5;stroke-dasharray:5.0,5.0;" x1="1434" x2="1434" y1="88.5547" y2="1084.4219"/><line style="stroke:#181818;stroke-width:0.5;stroke-dasharray:5.0,5.0;" x1="1638" x2="1638" y1="88.5547" y2="1084.4219"/><line style="stroke:#181818;stroke-width:0.5;stroke-dasharray:5.0,5.0;" x1="1928.5" x2="1928.5" y1="88.5547" y2="1084.4219"/><line style="stroke:#181818;stroke-width:0.5;stroke-dasharray:5.0,5.0;" x1="2218" x2="2218" y1="88.5547" y2="1084.4219"/><line style="stroke:#181818;stroke-width:0.5;stroke-dasharray:5.0,5.0;" x1="2383" x2="2383" y1="88.5547" y2="1084.4219"/><line style="stroke:#181818;stroke-width:0.5;stroke-dasharray:5.0,5.0;" x1="2508" x2="2508" y1="88.5547" y2="1084.4219"/><line style="stroke:#181818;stroke-width:0.5;stroke-dasharray:5.0,5.0;" x1="2922" x2="2922" y1="896.9258" y2="1084.4219"/><text fill="#000000" font-family="sans-serif" font-size="20" lengthAdjust="spacing" textLength="56" x="5" y="84.3359">Client</text><ellipse cx="36" cy="13.5" fill="#E3E3E3" rx="8" ry="8" style="stroke:#181818;stroke-width:0.5;"/><path d="M36,21.5 L36,48.5 M23,29.5 L49,29.5 M36,48.5 L23,63.5 M36,48.5 L49,63.5 " fill="none" style="stroke:#181818;stroke-width:0.5;"/><text fill="#000000" font-family="sans-serif" font-size="20" lengthAdjust="spacing" textLength="56" x="5" y="1102.7578">Client</text><ellipse cx="36" cy="1115.4766" fill="#E3E3E3" rx="8" ry="8" style="stroke:#181818;stroke-width:0.5;"/><path d="M36,1123.4766 L36,1150.4766 M23,1131.4766 L49,1131.4766 M36,1150.4766 L23,1165.4766 M36,1150.4766 L49,1165.4766 " fill="none" style="stroke:#181818;stroke-width:0.5;"/><rect fill="#E3E3E3" height="37.5547" rx="2.5" ry="2.5" style="stroke:#181818;stroke-width:0.5;" width="152" x="665" y="50"/><text fill="#000000" font-family="sans-serif" font-size="20" lengthAdjust="spacing" textLength="138" x="672" y="76.3359">CreateOrderUI</text><rect fill="#E3E3E3" height="37.5547" rx="2.5" ry="2.5" style="stroke:#181818;stroke-width:0.5;" width="152" x="665" y="1083.4219"/><text fill="#000000" font-family="sans-serif" font-size="20" lengthAdjust="spacing" textLength="138" x="672" y="1109.7578">CreateOrderUI</text><rect fill="#E3E3E3" height="37.5547" rx="2.5" ry="2.5" style="stroke:#181818;stroke-width:0.5;" width="228" x="987" y="50"/><text fill="#000000" font-family="sans-serif" font-size="20" lengthAdjust="spacing" textLength="214" x="994" y="76.3359">CreateOrderController</text><rect fill="#E3E3E3" height="37.5547" rx="2.5" ry="2.5" style="stroke:#181818;stroke-width:0.5;" width="228" x="987" y="1083.4219"/><text fill="#000000" font-family="sans-serif" font-size="20" lengthAdjust="spacing" textLength="214" x="994" y="1109.7578">CreateOrderController</text><rect fill="#E3E3E3" height="37.5547" rx="2.5" ry="2.5" style="stroke:#181818;stroke-width:0.5;" width="133" x="1225" y="50"/><text fill="#000000" font-family="sans-serif" font-size="20" lengthAdjust="spacing" textLength="119" x="1232" y="76.3359">Repositories</text><rect fill="#E3E3E3" height="37.5547" rx="2.5" ry="2.5" style="stroke:#181818;stroke-width:0.5;" width="133" x="1225" y="1083.4219"/><text fill="#000000" font-family="sans-serif" font-size="20" lengthAdjust="spacing" textLength="119" x="1232" y="1109.7578">Repositories</text><rect fill="#E3E3E3" height="61.1094" rx="2.5" ry="2.5" style="stroke:#181818;stroke-width:0.5;" width="133" x="1368" y="26.4453"/><text fill="#000000" font-family="sans-serif" font-size="20" lengthAdjust="spacing" textLength="114" x="1377.5" y="52.7813">repositories</text><text fill="#000000" font-family="sans-serif" font-size="20" lengthAdjust="spacing" textLength="119" x="1375" y="76.3359">Repositories</text><rect fill="#E3E3E3" height="61.1094" rx="2.5" ry="2.5" style="stroke:#181818;stroke-width:0.5;" width="133" x="1368" y="1083.4219"/><text fill="#000000" font-family="sans-serif" font-size="20" lengthAdjust="spacing" textLength="114" x="1377.5" y="1109.7578">repositories</text><text fill="#000000" font-family="sans-serif" font-size="20" lengthAdjust="spacing" textLength="119" x="1375" y="1133.3125">Repositories</text><rect fill="#E3E3E3" height="61.1094" rx="2.5" ry="2.5" style="stroke:#181818;stroke-width:0.5;" width="255" x="1511" y="26.4453"/><text fill="#000000" font-family="sans-serif" font-size="20" lengthAdjust="spacing" textLength="238" x="1519.5" y="52.7813">authenticationRepository</text><text fill="#000000" font-family="sans-serif" font-size="20" lengthAdjust="spacing" textLength="241" x="1518" y="76.3359">AuthenticationRepository</text><rect fill="#E3E3E3" height="61.1094" rx="2.5" ry="2.5" style="stroke:#181818;stroke-width:0.5;" width="255" x="1511" y="1083.4219"/><text fill="#000000" font-family="sans-serif" font-size="20" lengthAdjust="spacing" textLength="238" x="1519.5" y="1109.7578">authenticationRepository</text><text fill="#000000" font-family="sans-serif" font-size="20" lengthAdjust="spacing" textLength="241" x="1518" y="1133.3125">AuthenticationRepository</text><rect fill="#E3E3E3" height="61.1094" rx="2.5" ry="2.5" style="stroke:#181818;stroke-width:0.5;" width="220" x="1818.5" y="26.4453"/><text fill="#000000" font-family="sans-serif" font-size="20" lengthAdjust="spacing" textLength="203" x="1827" y="52.7813">authenticationFacade</text><text fill="#000000" font-family="sans-serif" font-size="20" lengthAdjust="spacing" textLength="206" x="1825.5" y="76.3359">AuthenticationFacade</text><rect fill="#E3E3E3" height="61.1094" rx="2.5" ry="2.5" style="stroke:#181818;stroke-width:0.5;" width="220" x="1818.5" y="1083.4219"/><text fill="#000000" font-family="sans-serif" font-size="20" lengthAdjust="spacing" textLength="203" x="1827" y="1109.7578">authenticationFacade</text><text fill="#000000" font-family="sans-serif" font-size="20" lengthAdjust="spacing" textLength="206" x="1825.5" y="1133.3125">AuthenticationFacade</text><rect fill="#E3E3E3" height="61.1094" rx="2.5" ry="2.5" style="stroke:#181818;stroke-width:0.5;" width="129" x="2154" y="26.4453"/><text fill="#000000" font-family="sans-serif" font-size="20" lengthAdjust="spacing" textLength="113" x="2162" y="52.7813">userSession</text><text fill="#000000" font-family="sans-serif" font-size="20" lengthAdjust="spacing" textLength="115" x="2161" y="76.3359">UserSession</text><rect fill="#E3E3E3" height="61.1094" rx="2.5" ry="2.5" style="stroke:#181818;stroke-width:0.5;" width="129" x="2154" y="1083.4219"/><text fill="#000000" font-family="sans-serif" font-size="20" lengthAdjust="spacing" textLength="113" x="2162" y="1109.7578">userSession</text><text fill="#000000" font-family="sans-serif" font-size="20" lengthAdjust="spacing" textLength="115" x="2161" y="1133.3125">UserSession</text><rect fill="#E3E3E3" height="61.1094" rx="2.5" ry="2.5" style="stroke:#181818;stroke-width:0.5;" width="57" x="2355" y="26.4453"/><text fill="#000000" font-family="sans-serif" font-size="20" lengthAdjust="spacing" textLength="41" x="2363" y="52.7813">user</text><text fill="#000000" font-family="sans-serif" font-size="20" lengthAdjust="spacing" textLength="43" x="2362" y="76.3359">User</text><rect fill="#E3E3E3" height="61.1094" rx="2.5" ry="2.5" style="stroke:#181818;stroke-width:0.5;" width="57" x="2355" y="1083.4219"/><text fill="#000000" font-family="sans-serif" font-size="20" lengthAdjust="spacing" textLength="41" x="2363" y="1109.7578">user</text><text fill="#000000" font-family="sans-serif" font-size="20" lengthAdjust="spacing" textLength="43" x="2362" y="1133.3125">User</text><rect fill="#E3E3E3" height="61.1094" rx="2.5" ry="2.5" style="stroke:#181818;stroke-width:0.5;" width="172" x="2422" y="26.4453"/><text fill="#000000" font-family="sans-serif" font-size="20" lengthAdjust="spacing" textLength="154" x="2431" y="52.7813">orderRepository</text><text fill="#000000" font-family="sans-serif" font-size="20" lengthAdjust="spacing" textLength="158" x="2429" y="76.3359">OrderRepository</text><rect fill="#E3E3E3" height="61.1094" rx="2.5" ry="2.5" style="stroke:#181818;stroke-width:0.5;" width="172" x="2422" y="1083.4219"/><text fill="#000000" font-family="sans-serif" font-size="20" lengthAdjust="spacing" textLength="154" x="2431" y="1109.7578">orderRepository</text><text fill="#000000" font-family="sans-serif" font-size="20" lengthAdjust="spacing" textLength="158" x="2429" y="1133.3125">OrderRepository</text><rect fill="#E3E3E3" height="37.5547" rx="2.5" ry="2.5" style="stroke:#181818;stroke-width:0.5;" width="70" x="2887" y="1083.4219"/><text fill="#000000" font-family="sans-serif" font-size="20" lengthAdjust="spacing" textLength="56" x="2894" y="1109.7578">Order</text><rect fill="#FFFFFF" height="976.8672" style="stroke:#181818;stroke-width:1.0;" width="10" x="31" y="98.5547"/><rect fill="#FFFFFF" height="37.5547" style="stroke:#181818;stroke-width:1.0;" width="10" x="736" y="128.1094"/><rect fill="#FFFFFF" height="37.5547" style="stroke:#181818;stroke-width:1.0;" width="10" x="736" y="203.2188"/><rect fill="#FFFFFF" height="797.0938" style="stroke:#181818;stroke-width:1.0;" width="10" x="736" y="278.3281"/><rect fill="#FFFFFF" height="712.9844" style="stroke:#181818;stroke-width:1.0;" width="10" x="1096" y="315.8828"/><rect fill="#FFFFFF" height="37.5547" style="stroke:#181818;stroke-width:1.0;" width="10" x="1286.5" y="353.4375"/><rect fill="#FFFFFF" height="37.5547" style="stroke:#181818;stroke-width:1.0;" width="10" x="1429.5" y="428.5469"/><rect fill="#FFFFFF" height="313.4375" style="stroke:#181818;stroke-width:1.0;" width="10" x="1633.5" y="503.6563"/><rect fill="#FFFFFF" height="238.3281" style="stroke:#181818;stroke-width:1.0;" width="10" x="1923.5" y="541.2109"/><rect fill="#FFFFFF" height="163.2188" style="stroke:#181818;stroke-width:1.0;" width="10" x="2213.5" y="578.7656"/><rect fill="#FFFFFF" height="88.1094" style="stroke:#181818;stroke-width:1.0;" width="10" x="2378.5" y="616.3203"/><rect fill="#FFFFFF" height="136.6641" style="stroke:#181818;stroke-width:1.0;" width="10" x="2503" y="854.6484"/><polygon fill="#181818" points="724,124.1094,734,128.1094,724,132.1094,728,128.1094" style="stroke:#181818;stroke-width:1.0;"/><line style="stroke:#181818;stroke-width:1.0;" x1="41" x2="730" y1="128.1094" y2="128.1094"/><text fill="#000000" font-family="sans-serif" font-size="20" font-weight="bold" lengthAdjust="spacing" textLength="13" x="48" y="121.8906">1</text><text fill="#000000" font-family="sans-serif" font-size="20" lengthAdjust="spacing" textLength="476" x="65" y="121.8906">requests to make an order to purchase a property</text><polygon fill="#181818" points="52,161.6641,42,165.6641,52,169.6641,48,165.6641" style="stroke:#181818;stroke-width:1.0;"/><line style="stroke:#181818;stroke-width:1.0;" x1="46" x2="740" y1="165.6641" y2="165.6641"/><text fill="#000000" font-family="sans-serif" font-size="20" font-weight="bold" lengthAdjust="spacing" textLength="13" x="58" y="159.4453">2</text><text fill="#000000" font-family="sans-serif" font-size="20" lengthAdjust="spacing" textLength="195" x="75" y="159.4453">requests property id</text><polygon fill="#181818" points="724,199.2188,734,203.2188,724,207.2188,728,203.2188" style="stroke:#181818;stroke-width:1.0;"/><line style="stroke:#181818;stroke-width:1.0;" x1="41" x2="730" y1="203.2188" y2="203.2188"/><text fill="#000000" font-family="sans-serif" font-size="20" font-weight="bold" lengthAdjust="spacing" textLength="13" x="48" y="197">3</text><text fill="#000000" font-family="sans-serif" font-size="20" lengthAdjust="spacing" textLength="177" x="65" y="197">inserts property id</text><polygon fill="#181818" points="52,236.7734,42,240.7734,52,244.7734,48,240.7734" style="stroke:#181818;stroke-width:1.0;"/><line style="stroke:#181818;stroke-width:1.0;stroke-dasharray:2.0,2.0;" x1="46" x2="740" y1="240.7734" y2="240.7734"/><text fill="#000000" font-family="sans-serif" font-size="20" font-weight="bold" lengthAdjust="spacing" textLength="13" x="58" y="234.5547">4</text><text fill="#000000" font-family="sans-serif" font-size="20" lengthAdjust="spacing" textLength="219" x="75" y="234.5547">requests order amount</text><polygon fill="#181818" points="724,274.3281,734,278.3281,724,282.3281,728,278.3281" style="stroke:#181818;stroke-width:1.0;"/><line style="stroke:#181818;stroke-width:1.0;" x1="41" x2="730" y1="278.3281" y2="278.3281"/><text fill="#000000" font-family="sans-serif" font-size="20" font-weight="bold" lengthAdjust="spacing" textLength="13" x="48" y="272.1094">5</text><text fill="#000000" font-family="sans-serif" font-size="20" lengthAdjust="spacing" textLength="659" x="65" y="272.1094">inserts order amount (equal or lower than the price set by the owner)</text><polygon fill="#181818" points="1084,311.8828,1094,315.8828,1084,319.8828,1088,315.8828" style="stroke:#181818;stroke-width:1.0;"/><line style="stroke:#181818;stroke-width:1.0;" x1="746" x2="1090" y1="315.8828" y2="315.8828"/><text fill="#000000" font-family="sans-serif" font-size="20" font-weight="bold" lengthAdjust="spacing" textLength="13" x="753" y="309.6641">6</text><text fill="#000000" font-family="sans-serif" font-size="20" lengthAdjust="spacing" textLength="314" x="770" y="309.6641">createOrder(propertyId, amount)</text><polygon fill="#181818" points="1274.5,349.4375,1284.5,353.4375,1274.5,357.4375,1278.5,353.4375" style="stroke:#181818;stroke-width:1.0;"/><line style="stroke:#181818;stroke-width:1.0;" x1="1106" x2="1280.5" y1="353.4375" y2="353.4375"/><text fill="#000000" font-family="sans-serif" font-size="20" font-weight="bold" lengthAdjust="spacing" textLength="13" x="1113" y="347.2188">7</text><text fill="#000000" font-family="sans-serif" font-size="20" lengthAdjust="spacing" textLength="123" x="1130" y="347.2188">getInstance()</text><polygon fill="#181818" points="1117,386.9922,1107,390.9922,1117,394.9922,1113,390.9922" style="stroke:#181818;stroke-width:1.0;"/><line style="stroke:#181818;stroke-width:1.0;stroke-dasharray:2.0,2.0;" x1="1111" x2="1290.5" y1="390.9922" y2="390.9922"/><text fill="#000000" font-family="sans-serif" font-size="20" font-weight="bold" lengthAdjust="spacing" textLength="13" x="1123" y="384.7734">8</text><text fill="#000000" font-family="sans-serif" font-size="20" lengthAdjust="spacing" textLength="114" x="1140" y="384.7734">repositories</text><polygon fill="#181818" points="1417.5,424.5469,1427.5,428.5469,1417.5,432.5469,1421.5,428.5469" style="stroke:#181818;stroke-width:1.0;"/><line style="stroke:#181818;stroke-width:1.0;" x1="1106" x2="1423.5" y1="428.5469" y2="428.5469"/><text fill="#000000" font-family="sans-serif" font-size="20" font-weight="bold" lengthAdjust="spacing" textLength="13" x="1113" y="422.3281">9</text><text fill="#000000" font-family="sans-serif" font-size="20" lengthAdjust="spacing" textLength="285" x="1130" y="422.3281">getAuthenticationRepository()</text><polygon fill="#181818" points="1117,462.1016,1107,466.1016,1117,470.1016,1113,466.1016" style="stroke:#181818;stroke-width:1.0;"/><line style="stroke:#181818;stroke-width:1.0;" x1="1111" x2="1433.5" y1="466.1016" y2="466.1016"/><text fill="#000000" font-family="sans-serif" font-size="20" font-weight="bold" lengthAdjust="spacing" textLength="26" x="1123" y="459.8828">10</text><text fill="#000000" font-family="sans-serif" font-size="20" lengthAdjust="spacing" textLength="238" x="1153" y="459.8828">authenticationRepository</text><polygon fill="#181818" points="1621.5,499.6563,1631.5,503.6563,1621.5,507.6563,1625.5,503.6563" style="stroke:#181818;stroke-width:1.0;"/><line style="stroke:#181818;stroke-width:1.0;" x1="1106" x2="1627.5" y1="503.6563" y2="503.6563"/><text fill="#000000" font-family="sans-serif" font-size="20" font-weight="bold" lengthAdjust="spacing" textLength="26" x="1113" y="497.4375">11</text><text fill="#000000" font-family="sans-serif" font-size="20" lengthAdjust="spacing" textLength="87" x="1143" y="497.4375">getUser()</text><polygon fill="#181818" points="1911.5,537.2109,1921.5,541.2109,1911.5,545.2109,1915.5,541.2109" style="stroke:#181818;stroke-width:1.0;"/><line style="stroke:#181818;stroke-width:1.0;" x1="1643.5" x2="1917.5" y1="541.2109" y2="541.2109"/><text fill="#000000" font-family="sans-serif" font-size="20" font-weight="bold" lengthAdjust="spacing" textLength="26" x="1650.5" y="534.9922">12</text><text fill="#000000" font-family="sans-serif" font-size="20" lengthAdjust="spacing" textLength="231" x="1680.5" y="534.9922">getCurrentUserSession()</text><polygon fill="#181818" points="2201.5,574.7656,2211.5,578.7656,2201.5,582.7656,2205.5,578.7656" style="stroke:#181818;stroke-width:1.0;"/><line style="stroke:#181818;stroke-width:1.0;" x1="1933.5" x2="2207.5" y1="578.7656" y2="578.7656"/><text fill="#000000" font-family="sans-serif" font-size="20" font-weight="bold" lengthAdjust="spacing" textLength="26" x="1940.5" y="572.5469">13</text><text fill="#000000" font-family="sans-serif" font-size="20" lengthAdjust="spacing" textLength="231" x="1970.5" y="572.5469">getCurrentUserSession()</text><polygon fill="#181818" points="2366.5,612.3203,2376.5,616.3203,2366.5,620.3203,2370.5,616.3203" style="stroke:#181818;stroke-width:1.0;"/><line style="stroke:#181818;stroke-width:1.0;" x1="2223.5" x2="2372.5" y1="616.3203" y2="616.3203"/><text fill="#000000" font-family="sans-serif" font-size="20" font-weight="bold" lengthAdjust="spacing" textLength="26" x="2230.5" y="610.1016">14</text><text fill="#000000" font-family="sans-serif" font-size="20" lengthAdjust="spacing" textLength="106" x="2260.5" y="610.1016">getUserId()</text><line style="stroke:#181818;stroke-width:1.0;" x1="2388.5" x2="2430.5" y1="653.875" y2="653.875"/><line style="stroke:#181818;stroke-width:1.0;" x1="2430.5" x2="2430.5" y1="653.875" y2="666.875"/><line style="stroke:#181818;stroke-width:1.0;" x1="2389.5" x2="2430.5" y1="666.875" y2="666.875"/><polygon fill="#181818" points="2399.5,662.875,2389.5,666.875,2399.5,670.875,2395.5,666.875" style="stroke:#181818;stroke-width:1.0;"/><text fill="#000000" font-family="sans-serif" font-size="20" font-weight="bold" lengthAdjust="spacing" textLength="26" x="2395.5" y="647.6563">15</text><text fill="#000000" font-family="sans-serif" font-size="20" lengthAdjust="spacing" textLength="63" x="2425.5" y="647.6563">getId()</text><polygon fill="#181818" points="2234.5,700.4297,2224.5,704.4297,2234.5,708.4297,2230.5,704.4297" style="stroke:#181818;stroke-width:1.0;"/><line style="stroke:#181818;stroke-width:1.0;stroke-dasharray:2.0,2.0;" x1="2228.5" x2="2382.5" y1="704.4297" y2="704.4297"/><text fill="#000000" font-family="sans-serif" font-size="20" font-weight="bold" lengthAdjust="spacing" textLength="26" x="2240.5" y="698.2109">16</text><text fill="#000000" font-family="sans-serif" font-size="20" lengthAdjust="spacing" textLength="53" x="2270.5" y="698.2109">email</text><polygon fill="#181818" points="1944.5,737.9844,1934.5,741.9844,1944.5,745.9844,1940.5,741.9844" style="stroke:#181818;stroke-width:1.0;"/><line style="stroke:#181818;stroke-width:1.0;stroke-dasharray:2.0,2.0;" x1="1938.5" x2="2217.5" y1="741.9844" y2="741.9844"/><text fill="#000000" font-family="sans-serif" font-size="20" font-weight="bold" lengthAdjust="spacing" textLength="26" x="1950.5" y="735.7656">17</text><text fill="#000000" font-family="sans-serif" font-size="20" lengthAdjust="spacing" textLength="53" x="1980.5" y="735.7656">email</text><polygon fill="#181818" points="1654.5,775.5391,1644.5,779.5391,1654.5,783.5391,1650.5,779.5391" style="stroke:#181818;stroke-width:1.0;"/><line style="stroke:#181818;stroke-width:1.0;stroke-dasharray:2.0,2.0;" x1="1648.5" x2="1927.5" y1="779.5391" y2="779.5391"/><text fill="#000000" font-family="sans-serif" font-size="20" font-weight="bold" lengthAdjust="spacing" textLength="26" x="1660.5" y="773.3203">18</text><text fill="#000000" font-family="sans-serif" font-size="20" lengthAdjust="spacing" textLength="53" x="1690.5" y="773.3203">email</text><polygon fill="#181818" points="1117,813.0938,1107,817.0938,1117,821.0938,1113,817.0938" style="stroke:#181818;stroke-width:1.0;"/><line style="stroke:#181818;stroke-width:1.0;stroke-dasharray:2.0,2.0;" x1="1111" x2="1637.5" y1="817.0938" y2="817.0938"/><text fill="#000000" font-family="sans-serif" font-size="20" font-weight="bold" lengthAdjust="spacing" textLength="26" x="1123" y="810.875">19</text><text fill="#000000" font-family="sans-serif" font-size="20" lengthAdjust="spacing" textLength="53" x="1153" y="810.875">email</text><polygon fill="#181818" points="2491,850.6484,2501,854.6484,2491,858.6484,2495,854.6484" style="stroke:#181818;stroke-width:1.0;"/><line style="stroke:#181818;stroke-width:1.0;" x1="1106" x2="2497" y1="854.6484" y2="854.6484"/><text fill="#000000" font-family="sans-serif" font-size="20" font-weight="bold" lengthAdjust="spacing" textLength="26" x="1113" y="848.4297">20</text><text fill="#000000" font-family="sans-serif" font-size="20" lengthAdjust="spacing" textLength="379" x="1143" y="848.4297">createOrder(propertyId, amount, email)</text><polygon fill="#181818" points="2875,888.2031,2885,892.2031,2875,896.2031,2879,892.2031" style="stroke:#181818;stroke-width:1.0;"/><line style="stroke:#181818;stroke-width:1.0;" x1="2513" x2="2881" y1="892.2031" y2="892.2031"/><text fill="#000000" font-family="sans-serif" font-size="20" font-weight="bold" lengthAdjust="spacing" textLength="26" x="2520" y="885.9844">21</text><text fill="#000000" font-family="sans-serif" font-size="20" lengthAdjust="spacing" textLength="58" x="2550" y="885.9844">create</text><rect fill="#E3E3E3" height="37.5547" rx="2.5" ry="2.5" style="stroke:#181818;stroke-width:0.5;" width="70" x="2887" y="862.6484"/><text fill="#000000" font-family="sans-serif" font-size="20" lengthAdjust="spacing" textLength="56" x="2894" y="888.9844">Order</text><line style="stroke:#181818;stroke-width:1.0;" x1="2513" x2="2555" y1="940.7578" y2="940.7578"/><line style="stroke:#181818;stroke-width:1.0;" x1="2555" x2="2555" y1="940.7578" y2="953.7578"/><line style="stroke:#181818;stroke-width:1.0;" x1="2514" x2="2555" y1="953.7578" y2="953.7578"/><polygon fill="#181818" points="2524,949.7578,2514,953.7578,2524,957.7578,2520,953.7578" style="stroke:#181818;stroke-width:1.0;"/><text fill="#000000" font-family="sans-serif" font-size="20" font-weight="bold" lengthAdjust="spacing" textLength="26" x="2520" y="934.5391">22</text><text fill="#000000" font-family="sans-serif" font-size="20" lengthAdjust="spacing" textLength="360" x="2550" y="934.5391">addOrder(propertyID, amount, email)</text><polygon fill="#181818" points="1117,987.3125,1107,991.3125,1117,995.3125,1113,991.3125" style="stroke:#181818;stroke-width:1.0;"/><line style="stroke:#181818;stroke-width:1.0;stroke-dasharray:2.0,2.0;" x1="1111" x2="2507" y1="991.3125" y2="991.3125"/><text fill="#000000" font-family="sans-serif" font-size="20" font-weight="bold" lengthAdjust="spacing" textLength="26" x="1123" y="985.0938">23</text><text fill="#000000" font-family="sans-serif" font-size="20" lengthAdjust="spacing" textLength="52" x="1153" y="985.0938">order</text><polygon fill="#181818" points="757,1024.8672,747,1028.8672,757,1032.8672,753,1028.8672" style="stroke:#181818;stroke-width:1.0;"/><line style="stroke:#181818;stroke-width:1.0;stroke-dasharray:2.0,2.0;" x1="751" x2="1100" y1="1028.8672" y2="1028.8672"/><text fill="#000000" font-family="sans-serif" font-size="20" font-weight="bold" lengthAdjust="spacing" textLength="26" x="763" y="1022.6484">24</text><text fill="#000000" font-family="sans-serif" font-size="20" lengthAdjust="spacing" textLength="52" x="793" y="1022.6484">order</text><polygon fill="#181818" points="52,1062.4219,42,1066.4219,52,1070.4219,48,1066.4219" style="stroke:#181818;stroke-width:1.0;"/><line style="stroke:#181818;stroke-width:1.0;stroke-dasharray:2.0,2.0;" x1="46" x2="735" y1="1066.4219" y2="1066.4219"/><text fill="#000000" font-family="sans-serif" font-size="20" font-weight="bold" lengthAdjust="spacing" textLength="26" x="58" y="1060.2031">25</text><text fill="#000000" font-family="sans-serif" font-size="20" lengthAdjust="spacing" textLength="256" x="88" y="1060.2031">displays operation success</text><!--SRC=[bLMnZjim3Dtz5S8jJGztGD6nGu4YxG6PKbnmMnP6Oc8XikHASjFqwqjBSIpBTYxrP9EFxr4KIRkZr3LOg9JXHnHCu1uQvL-CzXlv5zddJuNh8Amosl3IcWgPjmqcdXhu4GwuyMU5p2Bte0yg1RWIX3b9VM1xK0wB0XflT5Fjq1R5Xr8AP7jZ_CxyAO1xOzd3KadK_e61Opoy5iJa9PSrQ4zkY-1nRGNQjrL0DN8MiQJZMACKsiZdhHfYNx4sJfAkH1SWhpz-hZT3Z4qmMpsA2EvX19snfCGb1ozD7t7Uwcypdi0qvxn5_W8S1ER4qJf16Xr3miQXtQ1pvDxgj_uZX2VVuwW8ZvT0BqE0QIyWFVjwQ0XXcQq83pM2_4rNsDr_mUY9x-pvAzqt-q9L_zMWyuvvmoeu8WFDWc9hg1lBIt1aPBKrDLf_3XnNOcgPO20g8hnG9wHT59CYu0IEGhDyfAO2J4HEIavgnkoXCWqT-Vz4qr2s849GP6FAdDfwb5GQwW5AJN9a3ZtRdOF1d3JQZpShGmD3EhoVg4Ltm9LukYXc3678OhPjDB64cIAQ0_gLThGYE2woe3XsmHRHpxrwEdzvOPAuJYt0ezhSGENgSOI3BKRtudEZd2UIK7I9pAd7tDh9oVEONG01DiitqefJ7dMMZRNaIURujkfbGqmeNbX9BI6xLoJT8y6JShJzJ9zzOLOYZm_x9NPcYnn417JY6sM85KWrcgahuo2L-M9EiepEDLsps-qmoNpljQIDqFVj7PHvVtLzc-taT-V_AOfb5pRQxAqtf-xK7X-lAhU1WxH0Y2odxwESfjdwEeNLcTTfClTOdcxrJiRrgo_VyaAwMi6PLZKb6ghFNCCvDKxxm_i7]--></g></svg>