<?xml version="1.0" encoding="UTF-8" standalone="no"?><svg xmlns="http://www.w3.org/2000/svg" xmlns:xlink="http://www.w3.org/1999/xlink" contentStyleType="text/css" height="788px" preserveAspectRatio="none" style="width:630px;height:788px;background:#FFFFFF;" version="1.1" viewBox="0 0 630 788" width="630px" zoomAndPan="magnify"><defs/><g><text fill="#000000" font-family="sans-serif" font-size="14" font-weight="bold" lengthAdjust="spacing" textLength="105" x="255.75" y="23.5352">Domain Model</text><!--class Person--><g id="elem_Person"><rect codeLine="17" fill="#F1F1F1" height="159.3281" id="Person" rx="2.5" ry="2.5" style="stroke:#181818;stroke-width:0.5;" width="220" x="154.5" y="44.4883"/><text fill="#000000" font-family="sans-serif" font-size="20" lengthAdjust="spacing" textLength="64" x="232.5" y="68.8242">Person</text><line style="stroke:#181818;stroke-width:0.5;" x1="155.5" x2="373.5" y1="78.043" y2="78.043"/><text fill="#000000" font-family="sans-serif" font-size="20" lengthAdjust="spacing" textLength="53" x="160.5" y="101.3789">name</text><text fill="#000000" font-family="sans-serif" font-size="20" lengthAdjust="spacing" textLength="208" x="160.5" y="124.9336">passportCardNumber</text><text fill="#000000" font-family="sans-serif" font-size="20" lengthAdjust="spacing" textLength="108" x="160.5" y="148.4883">taxNumber</text><text fill="#000000" font-family="sans-serif" font-size="20" lengthAdjust="spacing" textLength="53" x="160.5" y="172.043">email</text><text fill="#000000" font-family="sans-serif" font-size="20" lengthAdjust="spacing" textLength="173" x="160.5" y="195.5977">telephoneNumber</text></g><!--class Employee--><g id="elem_Employee"><rect codeLine="25" fill="#F1F1F1" height="41.5547" id="Employee" rx="2.5" ry="2.5" style="stroke:#181818;stroke-width:0.5;" width="99" x="157" y="323.4883"/><text fill="#000000" font-family="sans-serif" font-size="20" lengthAdjust="spacing" textLength="93" x="160" y="347.8242">Employee</text><line style="stroke:#181818;stroke-width:0.5;" x1="158" x2="255" y1="357.043" y2="357.043"/></g><!--class SystemAdministrator--><g id="elem_SystemAdministrator"><rect codeLine="28" fill="#F1F1F1" height="41.5547" id="SystemAdministrator" rx="2.5" ry="2.5" style="stroke:#181818;stroke-width:0.5;" width="207" x="7" y="485.4883"/><text fill="#000000" font-family="sans-serif" font-size="20" lengthAdjust="spacing" textLength="201" x="10" y="509.8242">SystemAdministrator</text><line style="stroke:#181818;stroke-width:0.5;" x1="8" x2="213" y1="519.043" y2="519.043"/></g><!--class Role--><g id="elem_Role"><rect codeLine="31" fill="#F1F1F1" height="41.5547" id="Role" rx="2.5" ry="2.5" style="stroke:#181818;stroke-width:0.5;" width="48" x="193.5" y="612.4883"/><text fill="#000000" font-family="sans-serif" font-size="20" lengthAdjust="spacing" textLength="42" x="196.5" y="636.8242">Role</text><line style="stroke:#181818;stroke-width:0.5;" x1="194.5" x2="240.5" y1="646.043" y2="646.043"/></g><!--class Address--><g id="elem_Address"><rect codeLine="34" fill="#F1F1F1" height="112.2188" id="Address" rx="2.5" ry="2.5" style="stroke:#181818;stroke-width:0.5;" width="135" x="325" y="288.4883"/><text fill="#000000" font-family="sans-serif" font-size="20" lengthAdjust="spacing" textLength="79" x="353" y="312.8242">Address</text><line style="stroke:#181818;stroke-width:0.5;" x1="326" x2="459" y1="322.043" y2="322.043"/><text fill="#000000" font-family="sans-serif" font-size="20" lengthAdjust="spacing" textLength="54" x="331" y="345.3789">street</text><text fill="#000000" font-family="sans-serif" font-size="20" lengthAdjust="spacing" textLength="123" x="331" y="368.9336">doorNumber</text><text fill="#000000" font-family="sans-serif" font-size="20" lengthAdjust="spacing" textLength="80" x="331" y="392.4883">zipCode</text></g><!--class City--><g id="elem_City"><rect codeLine="40" fill="#F1F1F1" height="41.5547" id="City" rx="2.5" ry="2.5" style="stroke:#181818;stroke-width:0.5;" width="43" x="460" y="485.4883"/><text fill="#000000" font-family="sans-serif" font-size="20" lengthAdjust="spacing" textLength="37" x="463" y="509.8242">City</text><line style="stroke:#181818;stroke-width:0.5;" x1="461" x2="502" y1="519.043" y2="519.043"/></g><!--class District--><g id="elem_District"><rect codeLine="43" fill="#F1F1F1" height="41.5547" id="District" rx="2.5" ry="2.5" style="stroke:#181818;stroke-width:0.5;" width="75" x="444" y="612.4883"/><text fill="#000000" font-family="sans-serif" font-size="20" lengthAdjust="spacing" textLength="69" x="447" y="636.8242">District</text><line style="stroke:#181818;stroke-width:0.5;" x1="445" x2="518" y1="646.043" y2="646.043"/></g><!--class State--><g id="elem_State"><rect codeLine="46" fill="#F1F1F1" height="41.5547" id="State" rx="2.5" ry="2.5" style="stroke:#181818;stroke-width:0.5;" width="53" x="455" y="739.4883"/><text fill="#000000" font-family="sans-serif" font-size="20" lengthAdjust="spacing" textLength="47" x="458" y="763.8242">State</text><line style="stroke:#181818;stroke-width:0.5;" x1="456" x2="507" y1="773.043" y2="773.043"/></g><!--reverse link Person to Employee--><g id="link_Person_Employee"><path d="M231.01,224.3083 C230.14,227.3983 229.3,230.4583 228.5,233.4883 C220.32,264.3683 213.59,300.8283 209.81,323.0383 " fill="none" id="Person-backto-Employee" style="stroke:#181818;stroke-width:1.0;"/><polygon fill="none" points="224.28,222.3883,236.68,205.2083,237.7,226.3783,224.28,222.3883" style="stroke:#181818;stroke-width:1.0;"/></g><!--link Employee to Person--><g id="link_Employee_Person"><path codeLine="50" d="M211.87,323.2483 C219.06,296.1883 232.2,246.6583 243.56,203.8683 " fill="none" id="Employee-Person" style="stroke:#181818;stroke-width:1.0;"/><polygon fill="#000000" points="245.5526,238.5334,237.2946,251.3147,246.3843,253.7276,245.5526,238.5334" style="stroke:#000000;stroke-width:1.0;"/><text fill="#000000" font-family="sans-serif" font-size="20" lengthAdjust="spacing" textLength="45" x="256.5" y="253.8242">is an</text><text fill="#000000" font-family="sans-serif" font-size="20" lengthAdjust="spacing" textLength="13" x="198.5804" y="311.3227">1</text><text fill="#000000" font-family="sans-serif" font-size="20" lengthAdjust="spacing" textLength="13" x="228.2019" y="231.0669">1</text></g><!--reverse link Employee to SystemAdministrator--><g id="link_Employee_SystemAdministrator"><path d="M169.99,381.2683 C157.01,395.5883 143.22,412.8583 133.5,430.4883 C123.97,447.7883 117.86,469.5483 114.35,485.1683 " fill="none" id="Employee-backto-SystemAdministrator" style="stroke:#181818;stroke-width:1.0;"/><polygon fill="none" points="164.66,376.7183,183.53,367.0683,174.79,386.3783,164.66,376.7183" style="stroke:#181818;stroke-width:1.0;"/></g><!--link SystemAdministrator to Employee--><g id="link_SystemAdministrator_Employee"><path codeLine="49" d="M122.71,485.1383 C141.16,454.3883 175.93,396.4483 194.34,365.7483 " fill="none" id="SystemAdministrator-Employee" style="stroke:#181818;stroke-width:1.0;"/><polygon fill="#000000" points="165.6158,436.4056,154.138,446.3963,162.2025,451.2347,165.6158,436.4056" style="stroke:#000000;stroke-width:1.0;"/><text fill="#000000" font-family="sans-serif" font-size="20" lengthAdjust="spacing" textLength="68" x="174.5" y="450.8242">creates</text><text fill="#000000" font-family="sans-serif" font-size="20" lengthAdjust="spacing" textLength="13" x="111.1732" y="473.1845">1</text><text fill="#000000" font-family="sans-serif" font-size="20" lengthAdjust="spacing" textLength="10" x="180.5863" y="392.3598">*</text></g><!--link Employee to Role--><g id="link_Employee_Role"><path codeLine="51" d="M220.66,365.6783 C231.38,382.2383 245.3,406.7383 251.5,430.4883 C268.56,495.8683 275.66,518.3183 254.5,582.4883 C250.92,593.3583 243.96,603.7983 237.03,612.2983 " fill="none" id="Employee-Role" style="stroke:#181818;stroke-width:1.0;"/><polygon fill="#000000" points="277.0299,514.7481,280.7633,499.9963,271.3794,500.6191,277.0299,514.7481" style="stroke:#000000;stroke-width:1.0;"/><text fill="#000000" font-family="sans-serif" font-size="20" lengthAdjust="spacing" textLength="118" x="289.5" y="514.3242">has a role of</text><text fill="#000000" font-family="sans-serif" font-size="20" lengthAdjust="spacing" textLength="13" x="209.3356" y="392.2745">1</text><text fill="#000000" font-family="sans-serif" font-size="20" lengthAdjust="spacing" textLength="13" x="227.3689" y="600.3855">1</text></g><!--link SystemAdministrator to Role--><g id="link_SystemAdministrator_Role"><path codeLine="52" d="M127.93,527.8483 C147.83,551.0983 180.18,588.8983 200.08,612.1383 " fill="none" id="SystemAdministrator-Role" style="stroke:#181818;stroke-width:1.0;"/><polygon fill="#000000" points="187.7022,576.3432,181.8636,562.291,174.719,568.4066,187.7022,576.3432" style="stroke:#000000;stroke-width:1.0;"/><text fill="#000000" font-family="sans-serif" font-size="20" lengthAdjust="spacing" textLength="50" x="195.5" y="577.8242">has a</text><text fill="#000000" font-family="sans-serif" font-size="20" lengthAdjust="spacing" textLength="13" x="117.3209" y="554.4817">1</text><text fill="#000000" font-family="sans-serif" font-size="20" lengthAdjust="spacing" textLength="13" x="180.9505" y="600.1845">1</text></g><!--link Person to Address--><g id="link_Person_Address"><path codeLine="53" d="M310.71,203.8683 C327.04,231.7383 345.04,262.4783 359.99,287.9983 " fill="none" id="Person-Address" style="stroke:#181818;stroke-width:1.0;"/><polygon fill="#000000" points="352.5435,253.1686,349.2862,238.3044,341.1713,243.0577,352.5435,253.1686" style="stroke:#000000;stroke-width:1.0;"/><text fill="#000000" font-family="sans-serif" font-size="20" lengthAdjust="spacing" textLength="33" x="361.5" y="253.8242">has</text><text fill="#000000" font-family="sans-serif" font-size="20" lengthAdjust="spacing" textLength="13" x="301.1226" y="231.0669">1</text><text fill="#000000" font-family="sans-serif" font-size="20" lengthAdjust="spacing" textLength="10" x="345.4185" y="276.0684">*</text></g><!--link Address to City--><g id="link_Address_City"><path codeLine="54" d="M423.13,400.5483 C439.42,429.8383 458.47,464.0783 470.26,485.2783 " fill="none" id="Address-City" style="stroke:#181818;stroke-width:1.0;"/><polygon fill="#000000" points="457.6112,436.2744,460.5368,451.2074,468.7554,446.6359,457.6112,436.2744" style="stroke:#000000;stroke-width:1.0;"/><text fill="#000000" font-family="sans-serif" font-size="20" lengthAdjust="spacing" textLength="120" x="474.5" y="450.8242">is a part of a</text><text fill="#000000" font-family="sans-serif" font-size="20" lengthAdjust="spacing" textLength="13" x="413.0708" y="428.1386">1</text><text fill="#000000" font-family="sans-serif" font-size="20" lengthAdjust="spacing" textLength="13" x="452.7141" y="473.3604">1</text></g><!--link City to District--><g id="link_City_District"><path codeLine="55" d="M481.5,527.8483 C481.5,551.0983 481.5,588.8983 481.5,612.1383 " fill="none" id="City-District" style="stroke:#181818;stroke-width:1.0;"/><polygon fill="#000000" points="489.5,562.2656,484.7977,576.7378,494.2023,576.7378,489.5,562.2656" style="stroke:#000000;stroke-width:1.0;"/><text fill="#000000" font-family="sans-serif" font-size="20" lengthAdjust="spacing" textLength="120" x="502.5" y="577.8242">is a part of a</text><text fill="#000000" font-family="sans-serif" font-size="20" lengthAdjust="spacing" textLength="13" x="467.0781" y="554.4817">1</text><text fill="#000000" font-family="sans-serif" font-size="20" lengthAdjust="spacing" textLength="13" x="466.8344" y="600.1845">1</text></g><!--link District to State--><g id="link_District_State"><path codeLine="56" d="M481.5,654.8483 C481.5,678.0983 481.5,715.8983 481.5,739.1383 " fill="none" id="District-State" style="stroke:#181818;stroke-width:1.0;"/><polygon fill="#000000" points="489.5,689.2656,484.7977,703.7378,494.2023,703.7378,489.5,689.2656" style="stroke:#000000;stroke-width:1.0;"/><text fill="#000000" font-family="sans-serif" font-size="20" lengthAdjust="spacing" textLength="120" x="502.5" y="704.8242">is a part of a</text><text fill="#000000" font-family="sans-serif" font-size="20" lengthAdjust="spacing" textLength="13" x="467.0781" y="681.4817">1</text><text fill="#000000" font-family="sans-serif" font-size="20" lengthAdjust="spacing" textLength="13" x="466.8344" y="727.1845">1</text></g><!--SRC=[ZP9HQnin3CVV_Ib4NWQ3GhV7K08XtM0F6wNv1Agjv4Hiwv0LrhJikyztbzpSaPNTYstffx_-4bSEd7jKJ57yWG84sk4nsbV9jkKNWi-thbmGI9B5Tog9mFH8JQP7Vy0zRUqK2PIyOTx75YWT1ld9UGyxZAND-8YbhCsKduv6txpaiV6jwpWGU5PVXSPx8kia5ES-HDePc83olZC8F7HaoUv_PD_HDRPg_ruISeRl4YWwD-h00scH3AyEwfSnqNZfQweNjGrg-75CJwHZsF2vUL5LYrES8lMTP3fdVrtKlwG-oea8wDaeXwRTZ6nFnIYjG-BCnHHDTARdyeP_bFZclGv1gPxJ15M1oCPh4D76xGltcphudy8DswaLkX_QixStvWpjtEsQpyMd1TpSmEBZOhQw1AzKYmgit6p_mjLZMi0Ik03cVp33Y4lei2AWmxYog-Hx1lugMhdpdXk3vprDoCfTrjOeZ0kPdDKVG6reYt3dndZ3pOkwmiwvXf-MU0N-3G00]--></g></svg>