<?xml version="1.0" encoding="UTF-8" standalone="no"?><svg xmlns="http://www.w3.org/2000/svg" xmlns:xlink="http://www.w3.org/1999/xlink" contentStyleType="text/css" height="1206px" preserveAspectRatio="none" style="width:761px;height:1206px;background:#FFFFFF;" version="1.1" viewBox="0 0 761 1206" width="761px" zoomAndPan="magnify"><defs/><g><text fill="#000000" font-family="sans-serif" font-size="14" font-weight="bold" lengthAdjust="spacing" textLength="426" x="160.75" y="23.5352">Domain Model for User Story 3 - Register a New Employee</text><!--class SystemAdministrator--><g id="elem_SystemAdministrator"><rect codeLine="17" fill="#F1F1F1" height="41.5547" id="SystemAdministrator" rx="2.5" ry="2.5" style="stroke:#181818;stroke-width:0.5;" width="207" x="7" y="102.9883"/><text fill="#000000" font-family="sans-serif" font-size="20" lengthAdjust="spacing" textLength="201" x="10" y="127.3242">SystemAdministrator</text><line style="stroke:#181818;stroke-width:0.5;" x1="8" x2="213" y1="136.543" y2="136.543"/></g><!--class Employee--><g id="elem_Employee"><rect codeLine="44" fill="#F1F1F1" height="41.5547" id="Employee" rx="2.5" ry="2.5" style="stroke:#181818;stroke-width:0.5;" width="99" x="61" y="346.9883"/><text fill="#000000" font-family="sans-serif" font-size="20" lengthAdjust="spacing" textLength="93" x="64" y="371.3242">Employee</text><line style="stroke:#181818;stroke-width:0.5;" x1="62" x2="159" y1="380.543" y2="380.543"/></g><!--class StoreManager--><g id="elem_StoreManager"><rect codeLine="20" fill="#F1F1F1" height="41.5547" id="StoreManager" rx="2.5" ry="2.5" style="stroke:#181818;stroke-width:0.5;" width="137" x="104" y="635.4883"/><text fill="#000000" font-family="sans-serif" font-size="20" lengthAdjust="spacing" textLength="131" x="107" y="659.8242">StoreManager</text><line style="stroke:#181818;stroke-width:0.5;" x1="105" x2="240" y1="669.043" y2="669.043"/></g><!--class StoreNetworkManager--><g id="elem_StoreNetworkManager"><rect codeLine="23" fill="#F1F1F1" height="41.5547" id="StoreNetworkManager" rx="2.5" ry="2.5" style="stroke:#181818;stroke-width:0.5;" width="217" x="139" y="508.4883"/><text fill="#000000" font-family="sans-serif" font-size="20" lengthAdjust="spacing" textLength="211" x="142" y="532.8242">StoreNetworkManager</text><line style="stroke:#181818;stroke-width:0.5;" x1="140" x2="355" y1="542.043" y2="542.043"/></g><!--class Agent--><g id="elem_Agent"><rect codeLine="26" fill="#F1F1F1" height="41.5547" id="Agent" rx="2.5" ry="2.5" style="stroke:#181818;stroke-width:0.5;" width="62" x="101.5" y="1006.9883"/><text fill="#000000" font-family="sans-serif" font-size="20" lengthAdjust="spacing" textLength="56" x="104.5" y="1031.3242">Agent</text><line style="stroke:#181818;stroke-width:0.5;" x1="102.5" x2="162.5" y1="1040.543" y2="1040.543"/></g><!--class Agency--><g id="elem_Agency"><rect codeLine="29" fill="#F1F1F1" height="135.7734" id="Agency" rx="2.5" ry="2.5" style="stroke:#181818;stroke-width:0.5;" width="150" x="97.5" y="762.4883"/><text fill="#000000" font-family="sans-serif" font-size="20" lengthAdjust="spacing" textLength="69" x="138" y="786.8242">Agency</text><line style="stroke:#181818;stroke-width:0.5;" x1="98.5" x2="246.5" y1="796.043" y2="796.043"/><text fill="#000000" font-family="sans-serif" font-size="20" lengthAdjust="spacing" textLength="21" x="103.5" y="819.3789">ID</text><text fill="#000000" font-family="sans-serif" font-size="20" lengthAdjust="spacing" textLength="53" x="103.5" y="842.9336">name</text><text fill="#000000" font-family="sans-serif" font-size="20" lengthAdjust="spacing" textLength="132" x="103.5" y="866.4883">emailAddress</text><text fill="#000000" font-family="sans-serif" font-size="20" lengthAdjust="spacing" textLength="138" x="103.5" y="890.043">phoneNumber</text></g><!--class User--><g id="elem_User"><rect codeLine="36" fill="#F1F1F1" height="159.3281" id="User" rx="2.5" ry="2.5" style="stroke:#181818;stroke-width:0.5;" width="220" x="299.5" y="44.4883"/><text fill="#000000" font-family="sans-serif" font-size="20" lengthAdjust="spacing" textLength="43" x="388" y="68.8242">User</text><line style="stroke:#181818;stroke-width:0.5;" x1="300.5" x2="518.5" y1="78.043" y2="78.043"/><text fill="#000000" font-family="sans-serif" font-size="20" lengthAdjust="spacing" textLength="53" x="305.5" y="101.3789">name</text><text fill="#000000" font-family="sans-serif" font-size="20" lengthAdjust="spacing" textLength="208" x="305.5" y="124.9336">passportCardNumber</text><text fill="#000000" font-family="sans-serif" font-size="20" lengthAdjust="spacing" textLength="108" x="305.5" y="148.4883">taxNumber</text><text fill="#000000" font-family="sans-serif" font-size="20" lengthAdjust="spacing" textLength="53" x="305.5" y="172.043">email</text><text fill="#000000" font-family="sans-serif" font-size="20" lengthAdjust="spacing" textLength="173" x="305.5" y="195.5977">telephoneNumber</text></g><!--class Address--><g id="elem_Address"><rect codeLine="47" fill="#F1F1F1" height="88.6641" id="Address" rx="2.5" ry="2.5" style="stroke:#181818;stroke-width:0.5;" width="135" x="301" y="983.4883"/><text fill="#000000" font-family="sans-serif" font-size="20" lengthAdjust="spacing" textLength="79" x="329" y="1007.8242">Address</text><line style="stroke:#181818;stroke-width:0.5;" x1="302" x2="435" y1="1017.043" y2="1017.043"/><text fill="#000000" font-family="sans-serif" font-size="20" lengthAdjust="spacing" textLength="123" x="307" y="1040.3789">doorNumber</text><text fill="#000000" font-family="sans-serif" font-size="20" lengthAdjust="spacing" textLength="80" x="307" y="1063.9336">zipCode</text></g><!--class Street--><g id="elem_Street"><rect codeLine="52" fill="#F1F1F1" height="41.5547" id="Street" rx="2.5" ry="2.5" style="stroke:#181818;stroke-width:0.5;" width="61" x="478" y="635.4883"/><text fill="#000000" font-family="sans-serif" font-size="20" lengthAdjust="spacing" textLength="55" x="481" y="659.8242">Street</text><line style="stroke:#181818;stroke-width:0.5;" x1="479" x2="538" y1="669.043" y2="669.043"/></g><!--class City--><g id="elem_City"><rect codeLine="55" fill="#F1F1F1" height="41.5547" id="City" rx="2.5" ry="2.5" style="stroke:#181818;stroke-width:0.5;" width="43" x="487" y="809.4883"/><text fill="#000000" font-family="sans-serif" font-size="20" lengthAdjust="spacing" textLength="37" x="490" y="833.8242">City</text><line style="stroke:#181818;stroke-width:0.5;" x1="488" x2="529" y1="843.043" y2="843.043"/></g><!--class District--><g id="elem_District"><rect codeLine="58" fill="#F1F1F1" height="41.5547" id="District" rx="2.5" ry="2.5" style="stroke:#181818;stroke-width:0.5;" width="75" x="471" y="1006.9883"/><text fill="#000000" font-family="sans-serif" font-size="20" lengthAdjust="spacing" textLength="69" x="474" y="1031.3242">District</text><line style="stroke:#181818;stroke-width:0.5;" x1="472" x2="545" y1="1040.543" y2="1040.543"/></g><!--class State--><g id="elem_State"><rect codeLine="61" fill="#F1F1F1" height="41.5547" id="State" rx="2.5" ry="2.5" style="stroke:#181818;stroke-width:0.5;" width="53" x="412" y="1157.4883"/><text fill="#000000" font-family="sans-serif" font-size="20" lengthAdjust="spacing" textLength="47" x="415" y="1181.8242">State</text><line style="stroke:#181818;stroke-width:0.5;" x1="413" x2="464" y1="1191.043" y2="1191.043"/></g><!--class Role--><g id="elem_Role"><rect codeLine="64" fill="#F1F1F1" height="159.3281" id="Role" rx="2.5" ry="2.5" style="stroke:#181818;stroke-width:0.5;" width="292" x="462.5" y="288.4883"/><text fill="#000000" font-family="sans-serif" font-size="20" lengthAdjust="spacing" textLength="42" x="587.5" y="312.8242">Role</text><line style="stroke:#181818;stroke-width:0.5;" x1="463.5" x2="753.5" y1="322.043" y2="322.043"/><text fill="#000000" font-family="sans-serif" font-size="20" lengthAdjust="spacing" textLength="67" x="468.5" y="345.3789">ADMIN</text><text fill="#000000" font-family="sans-serif" font-size="20" lengthAdjust="spacing" textLength="100" x="468.5" y="368.9336">EMPLOYEE</text><text fill="#000000" font-family="sans-serif" font-size="20" lengthAdjust="spacing" textLength="70" x="468.5" y="392.4883">CLIENT</text><text fill="#000000" font-family="sans-serif" font-size="20" lengthAdjust="spacing" textLength="280" x="468.5" y="416.043">STORE_NETWORK_MANAGER</text><text fill="#000000" font-family="sans-serif" font-size="20" lengthAdjust="spacing" textLength="172" x="468.5" y="439.5977">STORE_MANAGER</text></g><!--reverse link Employee to SystemAdministrator--><g id="link_Employee_SystemAdministrator"><path d="M151.75,332.1583 C177,306.3883 202.38,269.6283 190.5,233.4883 C179.02,198.5783 151.53,165.6783 131.99,145.4583 " fill="none" id="Employee-backto-SystemAdministrator" style="stroke:#181818;stroke-width:1.0;"/><polygon fill="none" points="156.82,336.9983,137.48,345.6483,147.21,326.8283,156.82,336.9983" style="stroke:#181818;stroke-width:1.0;"/></g><!--link SystemAdministrator to Employee--><g id="link_SystemAdministrator_Employee"><path codeLine="72" d="M102.32,145.3683 C94.16,166.8683 82.19,201.9383 77.5,233.4883 C71.42,274.3383 88.63,320.9483 100.43,346.8683 " fill="none" id="SystemAdministrator-Employee" style="stroke:#181818;stroke-width:1.0;"/><polygon fill="#000000" points="85.425,254.2653,90.2628,239.8379,80.8586,239.7497,85.425,254.2653" style="stroke:#000000;stroke-width:1.0;"/><text fill="#000000" font-family="sans-serif" font-size="20" lengthAdjust="spacing" textLength="83" x="98.5" y="253.8242">registers</text><text fill="#000000" font-family="sans-serif" font-size="20" lengthAdjust="spacing" textLength="13" x="86.1087" y="172.0061">1</text><text fill="#000000" font-family="sans-serif" font-size="20" lengthAdjust="spacing" textLength="13" x="82.9768" y="334.572">1</text></g><!--reverse link Employee to StoreManager--><g id="link_Employee_StoreManager"><path d="M108.47,410.5383 C107.71,447.8083 109.23,503.6583 121.5,550.4883 C129.67,581.6583 147.36,614.6183 159.6,635.1083 " fill="none" id="Employee-backto-StoreManager" style="stroke:#181818;stroke-width:1.0;"/><polygon fill="none" points="101.46,410.5283,109.14,390.7783,115.46,411.0083,101.46,410.5283" style="stroke:#181818;stroke-width:1.0;"/></g><!--reverse link Employee to StoreNetworkManager--><g id="link_Employee_StoreNetworkManager"><path d="M141.7,405.3183 C169.07,437.1783 207.86,482.3383 230.07,508.1983 " fill="none" id="Employee-backto-StoreNetworkManager" style="stroke:#181818;stroke-width:1.0;"/><polygon fill="none" points="136.56,410.0683,128.84,390.3383,147.18,400.9483,136.56,410.0683" style="stroke:#181818;stroke-width:1.0;"/></g><!--reverse link Employee to Agent--><g id="link_Employee_Agent"><path d="M73.56,404.7783 C46.5,434.9383 14.5,480.7183 14.5,528.4883 C14.5,528.4883 14.5,528.4883 14.5,831.4883 C14.5,904.4383 75.46,973.5183 109.75,1006.6083 " fill="none" id="Employee-backto-Agent" style="stroke:#181818;stroke-width:1.0;"/><polygon fill="none" points="68.34,400.0983,87.19,390.4183,78.5,409.7383,68.34,400.0983" style="stroke:#181818;stroke-width:1.0;"/></g><!--reverse link User to Employee--><g id="link_User_Employee"><path d="M295.37,217.3583 C236.96,264.6383 170.91,318.0983 135.73,346.5683 " fill="none" id="User-backto-Employee" style="stroke:#181818;stroke-width:1.0;"/><polygon fill="none" points="290.88,211.9883,310.83,204.8483,299.69,222.8683,290.88,211.9883" style="stroke:#181818;stroke-width:1.0;"/></g><!--link User to Address--><g id="link_User_Address"><path codeLine="73" d="M409.5,203.7283 C409.5,251.0583 409.5,312.4783 409.5,366.9883 C409.5,366.9883 409.5,366.9883 409.5,831.4883 C409.5,884.5483 394.86,944.0183 383.07,983.2783 " fill="none" id="User-Address" style="stroke:#181818;stroke-width:1.0;"/><polygon fill="#000000" points="417.2289,601.261,422.4189,586.9565,413.0197,586.6379,417.2289,601.261" style="stroke:#000000;stroke-width:1.0;"/><text fill="#000000" font-family="sans-serif" font-size="20" lengthAdjust="spacing" textLength="33" x="430.5" y="600.8242">has</text><text fill="#000000" font-family="sans-serif" font-size="20" lengthAdjust="spacing" textLength="13" x="395.9211" y="231.2004">1</text><text fill="#000000" font-family="sans-serif" font-size="20" lengthAdjust="spacing" textLength="10" x="374.4756" y="971.4238">*</text></g><!--link User to Role--><g id="link_User_Role"><path codeLine="74" d="M474.38,203.8883 C496.62,230.9283 521.48,261.1683 543.7,288.1883 " fill="none" id="User-Role" style="stroke:#181818;stroke-width:1.0;"/><polygon fill="#000000" points="527.5811,252.4448,522.0213,238.28,514.7573,244.2532,527.5811,252.4448" style="stroke:#000000;stroke-width:1.0;"/><text fill="#000000" font-family="sans-serif" font-size="20" lengthAdjust="spacing" textLength="50" x="535.5" y="253.8242">has a</text><text fill="#000000" font-family="sans-serif" font-size="20" lengthAdjust="spacing" textLength="13" x="466.397" y="231.0886">1</text><text fill="#000000" font-family="sans-serif" font-size="20" lengthAdjust="spacing" textLength="13" x="524.3498" y="276.4029">1</text></g><!--link Address to State--><g id="link_Address_State"><path codeLine="75" d="M364.15,1072.7783 C364.22,1090.6483 366.78,1110.9583 375.5,1127.4883 C383.51,1142.6783 398.37,1154.8183 411.64,1163.3283 " fill="none" id="Address-State" style="stroke:#181818;stroke-width:1.0;"/><polygon fill="#000000" points="387.2157,1122.3504,384.6583,1107.3499,376.3296,1111.718,387.2157,1122.3504" style="stroke:#000000;stroke-width:1.0;"/><text fill="#000000" font-family="sans-serif" font-size="20" lengthAdjust="spacing" textLength="64" x="396.5" y="1122.8242">part of</text><text fill="#000000" font-family="sans-serif" font-size="20" lengthAdjust="spacing" textLength="13" x="349.7598" y="1099.3834">1</text><text fill="#000000" font-family="sans-serif" font-size="20" lengthAdjust="spacing" textLength="13" x="390.9255" y="1153.6147">1</text></g><!--link Street to City--><g id="link_Street_City"><path codeLine="76" d="M508.5,677.8983 C508.5,710.9983 508.5,776.0183 508.5,809.1083 " fill="none" id="Street-City" style="stroke:#181818;stroke-width:1.0;"/><polygon fill="#000000" points="516.5,728.2656,521.2023,713.7935,511.7977,713.7935,516.5,728.2656" style="stroke:#000000;stroke-width:1.0;"/><text fill="#000000" font-family="sans-serif" font-size="20" lengthAdjust="spacing" textLength="64" x="529.5" y="727.8242">part of</text><text fill="#000000" font-family="sans-serif" font-size="20" lengthAdjust="spacing" textLength="13" x="494.0781" y="704.5427">1</text><text fill="#000000" font-family="sans-serif" font-size="20" lengthAdjust="spacing" textLength="13" x="493.8344" y="797.1468">1</text></g><!--link City to District--><g id="link_City_District"><path codeLine="77" d="M508.5,851.6783 C508.5,889.1383 508.5,969.0183 508.5,1006.6183 " fill="none" id="City-District" style="stroke:#181818;stroke-width:1.0;"/><polygon fill="#000000" points="516.5,949.2656,521.2023,934.7935,511.7977,934.7935,516.5,949.2656" style="stroke:#000000;stroke-width:1.0;"/><text fill="#000000" font-family="sans-serif" font-size="20" lengthAdjust="spacing" textLength="64" x="529.5" y="948.8242">part of</text><text fill="#000000" font-family="sans-serif" font-size="20" lengthAdjust="spacing" textLength="13" x="494.0781" y="878.2745">1</text><text fill="#000000" font-family="sans-serif" font-size="20" lengthAdjust="spacing" textLength="13" x="493.8344" y="994.6594">1</text></g><!--link District to State--><g id="link_District_State"><path codeLine="78" d="M500.25,1049.2083 C491.94,1069.2783 478.49,1100.8183 465.5,1127.4883 C460.66,1137.4183 454.89,1148.2283 449.92,1157.2583 " fill="none" id="District-State" style="stroke:#181818;stroke-width:1.0;"/><polygon fill="#000000" points="481.1221,1122.5175,491.4953,1111.3842,482.9703,1107.4132,481.1221,1122.5175" style="stroke:#000000;stroke-width:1.0;"/><text fill="#000000" font-family="sans-serif" font-size="20" lengthAdjust="spacing" textLength="64" x="497.5" y="1122.8242">part of</text><text fill="#000000" font-family="sans-serif" font-size="20" lengthAdjust="spacing" textLength="13" x="484.0234" y="1075.8111">1</text><text fill="#000000" font-family="sans-serif" font-size="20" lengthAdjust="spacing" textLength="13" x="438.1808" y="1145.3353">1</text></g><!--link Agency to Address--><g id="link_Agency_Address"><path codeLine="79" d="M239.95,898.7683 C267.97,926.7083 299.68,958.3483 324.6,983.2083 " fill="none" id="Agency-Address" style="stroke:#181818;stroke-width:1.0;"/><polygon fill="#000000" points="307.1639,946.9154,300.2387,933.3657,293.5969,940.024,307.1639,946.9154" style="stroke:#000000;stroke-width:1.0;"/><text fill="#000000" font-family="sans-serif" font-size="20" lengthAdjust="spacing" textLength="33" x="314.5" y="948.8242">has</text><text fill="#000000" font-family="sans-serif" font-size="20" lengthAdjust="spacing" textLength="13" x="232.5688" y="925.4949">1</text><text fill="#000000" font-family="sans-serif" font-size="20" lengthAdjust="spacing" textLength="13" x="304.1975" y="971.3435">1</text></g><!--link StoreNetworkManager to StoreManager--><g id="link_StoreNetworkManager_StoreManager"><path codeLine="80" d="M235.28,550.8483 C221.34,574.0983 198.66,611.8983 184.71,635.1383 " fill="none" id="StoreNetworkManager-StoreManager" style="stroke:#181818;stroke-width:1.0;"/><polygon fill="#000000" points="220.3843,600.1257,231.862,590.1349,223.7974,585.2965,220.3843,600.1257" style="stroke:#000000;stroke-width:1.0;"/><text fill="#000000" font-family="sans-serif" font-size="20" lengthAdjust="spacing" textLength="86" x="237.5" y="600.8242">manages</text><text fill="#000000" font-family="sans-serif" font-size="20" lengthAdjust="spacing" textLength="13" x="218.185" y="577.4817">1</text><text fill="#000000" font-family="sans-serif" font-size="20" lengthAdjust="spacing" textLength="10" x="176.5576" y="623.1845">*</text></g><!--link StoreManager to Agency--><g id="link_StoreManager_Agency"><path codeLine="81" d="M172.5,677.8983 C172.5,698.7183 172.5,732.1683 172.5,762.3583 " fill="none" id="StoreManager-Agency" style="stroke:#181818;stroke-width:1.0;"/><polygon fill="#000000" points="180.5,728.2656,185.2023,713.7935,175.7977,713.7935,180.5,728.2656" style="stroke:#000000;stroke-width:1.0;"/><text fill="#000000" font-family="sans-serif" font-size="20" lengthAdjust="spacing" textLength="86" x="193.5" y="727.8242">manages</text><text fill="#000000" font-family="sans-serif" font-size="20" lengthAdjust="spacing" textLength="13" x="158.0781" y="704.5427">1</text><text fill="#000000" font-family="sans-serif" font-size="20" lengthAdjust="spacing" textLength="13" x="158.7891" y="750.0274">1</text></g><!--link Agency to Agent--><g id="link_Agency_Agent"><path codeLine="82" d="M158.73,898.7683 C150.96,936.7683 141.79,981.5783 136.61,1006.9083 " fill="none" id="Agency-Agent" style="stroke:#181818;stroke-width:1.0;"/><polygon fill="#000000" points="158.8968,949.1033,166.4039,935.8671,157.1901,933.9824,158.8968,949.1033" style="stroke:#000000;stroke-width:1.0;"/><text fill="#000000" font-family="sans-serif" font-size="20" lengthAdjust="spacing" textLength="33" x="173.5" y="948.8242">has</text><text fill="#000000" font-family="sans-serif" font-size="20" lengthAdjust="spacing" textLength="13" x="143.8614" y="925.4949">1</text><text fill="#000000" font-family="sans-serif" font-size="20" lengthAdjust="spacing" textLength="10" x="126.3708" y="994.6227">*</text></g><!--SRC=[ZPFVQzim4CVV_LSSUHaK0jtsbeU1IRmHrZWZpXXxAgfriKNqmqWNKZViVvyiswcQXhP-aNJVZ-vENybkBtJ3B5FIb7lam7773fA-6qs5U4BuSfku4G5bj2bhQnG2sGD6IiFAFQkme5OYM2o9wKh6WAiPDqUXAzWnwMAbbCovbCYAXmFXiZGw5BvDQi4HIc5BdoZC5L9jk4kIJn9t16J0YgecuAAhA8nEFfBsZRmaoBU_C8e93Il3KSBEMFZjq491nhRm5QQmmKeuyY46EHuXKuqqBMAIX99Gj5vKALT2Uymolm_maL1pTsPFoRypxdLSCUtTUv_BaOx6xZ-0fnLgUWyesrC2_bikmg2PmZ11Ru1CERVeN0WqjT6O7zG3skSCmPRJovsD5nfZQSui7_WkJEmnMeNqVHmbNiqzDdm-mL3ikVs-kw4-DyP61Pv4C_Ut5vjd4IdUFnVKnkj5TrUYVC4Kn0ZZmCP872gcYzKo3xDizUjk_JVBmc9-jypoRPWMs_Kcky-pxP_rvkVzAitJ7zacKiQ8ptxjoKm-Js0w3SDenip_MVtJS_0j2OwCrCraT6G6DNib-w7hlTUOLqVx8Y2STkPlq1AOdMS6qoAaCoqcWecHFfeOCsTZtohLFyOOkJZDjTSVdJt-YMQWmkIyxPBlieTwCNdHmKtFq5Z_Fm00]--></g></svg>