<?xml version="1.0" encoding="UTF-8" standalone="no"?><svg xmlns="http://www.w3.org/2000/svg" xmlns:xlink="http://www.w3.org/1999/xlink" contentStyleType="text/css" height="661px" preserveAspectRatio="none" style="width:673px;height:661px;background:#FFFFFF;" version="1.1" viewBox="0 0 673 661" width="673px" zoomAndPan="magnify"><defs/><g><text fill="#000000" font-family="sans-serif" font-size="14" font-weight="bold" lengthAdjust="spacing" textLength="426" x="116.75" y="23.5352">Domain Model for User Story 3 - Register a New Employee</text><!--class SystemAdministrator--><g id="elem_SystemAdministrator"><rect codeLine="17" fill="#F1F1F1" height="41.5547" id="SystemAdministrator" rx="2.5" ry="2.5" style="stroke:#181818;stroke-width:0.5;" width="207" x="7" y="229.9883"/><text fill="#000000" font-family="sans-serif" font-size="20" lengthAdjust="spacing" textLength="201" x="10" y="254.3242">SystemAdministrator</text><line style="stroke:#181818;stroke-width:0.5;" x1="8" x2="213" y1="263.543" y2="263.543"/></g><!--class User--><g id="elem_User"><rect codeLine="20" fill="#F1F1F1" height="159.3281" id="User" rx="2.5" ry="2.5" style="stroke:#181818;stroke-width:0.5;" width="220" x="249.5" y="171.4883"/><text fill="#000000" font-family="sans-serif" font-size="20" lengthAdjust="spacing" textLength="43" x="338" y="195.8242">User</text><line style="stroke:#181818;stroke-width:0.5;" x1="250.5" x2="468.5" y1="205.043" y2="205.043"/><text fill="#000000" font-family="sans-serif" font-size="20" lengthAdjust="spacing" textLength="53" x="255.5" y="228.3789">name</text><text fill="#000000" font-family="sans-serif" font-size="20" lengthAdjust="spacing" textLength="208" x="255.5" y="251.9336">passportCardNumber</text><text fill="#000000" font-family="sans-serif" font-size="20" lengthAdjust="spacing" textLength="108" x="255.5" y="275.4883">taxNumber</text><text fill="#000000" font-family="sans-serif" font-size="20" lengthAdjust="spacing" textLength="53" x="255.5" y="299.043">email</text><text fill="#000000" font-family="sans-serif" font-size="20" lengthAdjust="spacing" textLength="173" x="255.5" y="322.5977">telephoneNumber</text></g><!--class Employee--><g id="elem_Employee"><rect codeLine="28" fill="#F1F1F1" height="41.5547" id="Employee" rx="2.5" ry="2.5" style="stroke:#181818;stroke-width:0.5;" width="99" x="77" y="450.4883"/><text fill="#000000" font-family="sans-serif" font-size="20" lengthAdjust="spacing" textLength="93" x="80" y="474.8242">Employee</text><line style="stroke:#181818;stroke-width:0.5;" x1="78" x2="175" y1="484.043" y2="484.043"/></g><!--class Address--><g id="elem_Address"><rect codeLine="31" fill="#F1F1F1" height="88.6641" id="Address" rx="2.5" ry="2.5" style="stroke:#181818;stroke-width:0.5;" width="135" x="225" y="426.9883"/><text fill="#000000" font-family="sans-serif" font-size="20" lengthAdjust="spacing" textLength="79" x="253" y="451.3242">Address</text><line style="stroke:#181818;stroke-width:0.5;" x1="226" x2="359" y1="460.543" y2="460.543"/><text fill="#000000" font-family="sans-serif" font-size="20" lengthAdjust="spacing" textLength="123" x="231" y="483.8789">doorNumber</text><text fill="#000000" font-family="sans-serif" font-size="20" lengthAdjust="spacing" textLength="80" x="231" y="507.4336">zipCode</text></g><!--class Street--><g id="elem_Street"><rect codeLine="36" fill="#F1F1F1" height="41.5547" id="Street" rx="2.5" ry="2.5" style="stroke:#181818;stroke-width:0.5;" width="61" x="550" y="44.4883"/><text fill="#000000" font-family="sans-serif" font-size="20" lengthAdjust="spacing" textLength="55" x="553" y="68.8242">Street</text><line style="stroke:#181818;stroke-width:0.5;" x1="551" x2="610" y1="78.043" y2="78.043"/></g><!--class City--><g id="elem_City"><rect codeLine="39" fill="#F1F1F1" height="41.5547" id="City" rx="2.5" ry="2.5" style="stroke:#181818;stroke-width:0.5;" width="43" x="559" y="229.9883"/><text fill="#000000" font-family="sans-serif" font-size="20" lengthAdjust="spacing" textLength="37" x="562" y="254.3242">City</text><line style="stroke:#181818;stroke-width:0.5;" x1="560" x2="601" y1="263.543" y2="263.543"/></g><!--class District--><g id="elem_District"><rect codeLine="42" fill="#F1F1F1" height="41.5547" id="District" rx="2.5" ry="2.5" style="stroke:#181818;stroke-width:0.5;" width="75" x="543" y="450.4883"/><text fill="#000000" font-family="sans-serif" font-size="20" lengthAdjust="spacing" textLength="69" x="546" y="474.8242">District</text><line style="stroke:#181818;stroke-width:0.5;" x1="544" x2="617" y1="484.043" y2="484.043"/></g><!--class State--><g id="elem_State"><rect codeLine="45" fill="#F1F1F1" height="41.5547" id="State" rx="2.5" ry="2.5" style="stroke:#181818;stroke-width:0.5;" width="53" x="410" y="612.4883"/><text fill="#000000" font-family="sans-serif" font-size="20" lengthAdjust="spacing" textLength="47" x="413" y="636.8242">State</text><line style="stroke:#181818;stroke-width:0.5;" x1="411" x2="462" y1="646.043" y2="646.043"/></g><!--class Role--><g id="elem_Role"><rect codeLine="48" fill="#F1F1F1" height="112.2188" id="Role" rx="2.5" ry="2.5" style="stroke:#181818;stroke-width:0.5;" width="112" x="395.5" y="415.4883"/><text fill="#000000" font-family="sans-serif" font-size="20" lengthAdjust="spacing" textLength="42" x="430.5" y="439.8242">Role</text><line style="stroke:#181818;stroke-width:0.5;" x1="396.5" x2="506.5" y1="449.043" y2="449.043"/><text fill="#000000" font-family="sans-serif" font-size="20" lengthAdjust="spacing" textLength="67" x="401.5" y="472.3789">ADMIN</text><text fill="#000000" font-family="sans-serif" font-size="20" lengthAdjust="spacing" textLength="100" x="401.5" y="495.9336">EMPLOYEE</text><text fill="#000000" font-family="sans-serif" font-size="20" lengthAdjust="spacing" textLength="70" x="401.5" y="519.4883">CLIENT</text></g><!--reverse link User to Employee--><g id="link_User_Employee"><path d="M273.99,346.0283 C260.74,359.5783 246.97,373.1183 233.5,385.4883 C207.81,409.0783 176.34,433.5983 154.2,450.2083 " fill="none" id="User-backto-Employee" style="stroke:#181818;stroke-width:1.0;"/><polygon fill="none" points="268.72,341.4083,287.64,331.8683,278.8,351.1183,268.72,341.4083" style="stroke:#181818;stroke-width:1.0;"/></g><!--link SystemAdministrator to Employee--><g id="link_SystemAdministrator_Employee"><path codeLine="54" d="M111.98,272.1483 C115.02,313.6683 121.95,408.3083 125,450.0583 " fill="none" id="SystemAdministrator-Employee" style="stroke:#181818;stroke-width:1.0;"/><polygon fill="#000000" points="129.0839,381.2443,132.7174,366.4675,123.3379,367.154,129.0839,381.2443" style="stroke:#000000;stroke-width:1.0;"/><text fill="#000000" font-family="sans-serif" font-size="20" lengthAdjust="spacing" textLength="83" x="141.5" y="380.8242">registers</text><text fill="#000000" font-family="sans-serif" font-size="20" lengthAdjust="spacing" textLength="13" x="97.8819" y="298.738">1</text><text fill="#000000" font-family="sans-serif" font-size="20" lengthAdjust="spacing" textLength="13" x="109.95" y="438.084">1</text></g><!--link User to Address--><g id="link_User_Address"><path codeLine="55" d="M335.31,330.8683 C325.42,363.1383 314.34,399.2583 305.94,426.6683 " fill="none" id="User-Address" style="stroke:#181818;stroke-width:1.0;"/><polygon fill="#000000" points="332.1551,380.9143,340.8928,368.456,331.9013,365.6995,332.1551,380.9143" style="stroke:#000000;stroke-width:1.0;"/><text fill="#000000" font-family="sans-serif" font-size="20" lengthAdjust="spacing" textLength="33" x="347.5" y="380.8242">has</text><text fill="#000000" font-family="sans-serif" font-size="20" lengthAdjust="spacing" textLength="13" x="319.6726" y="358.0669">1</text><text fill="#000000" font-family="sans-serif" font-size="20" lengthAdjust="spacing" textLength="10" x="297.1796" y="414.7976">*</text></g><!--link User to Role--><g id="link_User_Role"><path codeLine="56" d="M392.71,330.8683 C404.45,358.7383 417.39,389.4783 428.14,414.9983 " fill="none" id="User-Role" style="stroke:#181818;stroke-width:1.0;"/><polygon fill="#000000" points="425.605,380.6385,424.3217,365.4758,415.6544,369.1259,425.605,380.6385" style="stroke:#000000;stroke-width:1.0;"/><text fill="#000000" font-family="sans-serif" font-size="20" lengthAdjust="spacing" textLength="50" x="435.5" y="380.8242">has a</text><text fill="#000000" font-family="sans-serif" font-size="20" lengthAdjust="spacing" textLength="13" x="382.0054" y="358.0669">1</text><text fill="#000000" font-family="sans-serif" font-size="20" lengthAdjust="spacing" textLength="13" x="411.5008" y="403.0684">1</text></g><!--link Address to State--><g id="link_Address_State"><path codeLine="57" d="M331.85,516.2083 C359.99,547.4783 396.59,588.1383 418.21,612.1683 " fill="none" id="Address-State" style="stroke:#181818;stroke-width:1.0;"/><polygon fill="#000000" points="403.8516,576.2121,397.6657,562.3092,390.6752,568.6004,403.8516,576.2121" style="stroke:#000000;stroke-width:1.0;"/><text fill="#000000" font-family="sans-serif" font-size="20" lengthAdjust="spacing" textLength="64" x="411.5" y="577.8242">part of</text><text fill="#000000" font-family="sans-serif" font-size="20" lengthAdjust="spacing" textLength="13" x="323.2642" y="543.1586">1</text><text fill="#000000" font-family="sans-serif" font-size="20" lengthAdjust="spacing" textLength="13" x="398.8576" y="600.2222">1</text></g><!--link Street to City--><g id="link_Street_City"><path codeLine="58" d="M580.5,86.8283 C580.5,122.0983 580.5,194.2183 580.5,229.5583 " fill="none" id="Street-City" style="stroke:#181818;stroke-width:1.0;"/><polygon fill="#000000" points="588.5,137.2656,593.2023,122.7935,583.7977,122.7935,588.5,137.2656" style="stroke:#000000;stroke-width:1.0;"/><text fill="#000000" font-family="sans-serif" font-size="20" lengthAdjust="spacing" textLength="64" x="601.5" y="136.8242">part of</text><text fill="#000000" font-family="sans-serif" font-size="20" lengthAdjust="spacing" textLength="13" x="566.0781" y="113.4573">1</text><text fill="#000000" font-family="sans-serif" font-size="20" lengthAdjust="spacing" textLength="13" x="565.8344" y="217.584">1</text></g><!--link City to District--><g id="link_City_District"><path codeLine="59" d="M580.5,272.1483 C580.5,313.6683 580.5,408.3083 580.5,450.0583 " fill="none" id="City-District" style="stroke:#181818;stroke-width:1.0;"/><polygon fill="#000000" points="588.5,381.2656,593.2023,366.7935,583.7977,366.7935,588.5,381.2656" style="stroke:#000000;stroke-width:1.0;"/><text fill="#000000" font-family="sans-serif" font-size="20" lengthAdjust="spacing" textLength="64" x="601.5" y="380.8242">part of</text><text fill="#000000" font-family="sans-serif" font-size="20" lengthAdjust="spacing" textLength="13" x="566.0781" y="298.738">1</text><text fill="#000000" font-family="sans-serif" font-size="20" lengthAdjust="spacing" textLength="13" x="565.8344" y="438.084">1</text></g><!--link District to State--><g id="link_District_State"><path codeLine="60" d="M563.44,492.6083 C544.46,514.8583 512.74,551.6383 484.5,582.4883 C475.4,592.4283 465.07,603.2383 456.34,612.2583 " fill="none" id="District-State" style="stroke:#181818;stroke-width:1.0;"/><polygon fill="#000000" points="509.1644,576.2264,522.3203,568.5794,515.3129,562.307,509.1644,576.2264" style="stroke:#000000;stroke-width:1.0;"/><text fill="#000000" font-family="sans-serif" font-size="20" lengthAdjust="spacing" textLength="64" x="527.5" y="577.8242">part of</text><text fill="#000000" font-family="sans-serif" font-size="20" lengthAdjust="spacing" textLength="13" x="545.2863" y="519.1892">1</text><text fill="#000000" font-family="sans-serif" font-size="20" lengthAdjust="spacing" textLength="13" x="446.7584" y="600.3353">1</text></g><!--SRC=[ZLB1Rjim3BthAuXS2Wm8q7Mt70O4YGS4QBAXtWuxgXPj2v54WsBGkiN-VR8IPnew5FE55DyJ7_daUBHXqAoze-Q81Wos-kJa2mMfxGl2tQsACmKy1Mfw9eyWVC826NHpr1tMCZe4naPqw5n9YBqsz6H31wrsiKGQfsDSYx1zF0dk6WfP-5RrrY0qbflKAESUfISJbRfns0e80Tkk5p1sKhGKrF-qVQUlM4dZRybh6s1F1XsqnF0Z8aCjn2DyWYKyO6UZf9A60pv1vGT78w9IMHBgCO5-RRmDYSOwtODNzMk6SxDN1UaBscDEXWGCnBBHR0ud_uYSowAVYnEcgTovZWw7dW9Uq6llUHJ0Py5Whc9NmjeOnXJF-eQ82u4NEspIpd_OjJ2YbFStLiRol9qsjCrVd5gqO5bu88SNnVLslplahDf_k__wiwhoONE_gmxVfnl_Cc_nSG7BPGxpWglqZvqV8S9dbRUSMHyMyvOhwFKRE8LfdZEc4pfRKX3o1glqAYn0RU9SZ2Wean4b8njJuBCn9UTgrdjIlm40]--></g></svg>