<?xml version="1.0" encoding="UTF-8" standalone="no"?><svg xmlns="http://www.w3.org/2000/svg" xmlns:xlink="http://www.w3.org/1999/xlink" contentStyleType="text/css" height="445px" preserveAspectRatio="none" style="width:604px;height:445px;background:#FFFFFF;" version="1.1" viewBox="0 0 604 445" width="604px" zoomAndPan="magnify"><defs/><g><text fill="#000000" font-family="sans-serif" font-size="14" font-weight="bold" lengthAdjust="spacing" textLength="363" x="119.5" y="28.5352">System Sequence Diagram (SSD) - Alternative One</text><rect fill="#FFFFFF" height="212.3281" style="stroke:#181818;stroke-width:1.0;" width="10" x="34" y="136.043"/><rect fill="#FFFFFF" height="37.5547" style="stroke:#181818;stroke-width:1.0;" width="10" x="549" y="165.5977"/><rect fill="#FFFFFF" height="61.1094" style="stroke:#181818;stroke-width:1.0;" width="10" x="549" y="240.707"/><rect fill="#FFFFFF" height="9" style="stroke:#181818;stroke-width:1.0;" width="10" x="549" y="339.3711"/><line style="stroke:#181818;stroke-width:0.5;stroke-dasharray:5.0,5.0;" x1="39" x2="39" y1="126.043" y2="357.3711"/><line style="stroke:#181818;stroke-width:0.5;stroke-dasharray:5.0,5.0;" x1="554" x2="554" y1="126.043" y2="357.3711"/><text fill="#000000" font-family="sans-serif" font-size="20" lengthAdjust="spacing" textLength="62" x="5" y="121.8242">Owner</text><ellipse cx="39" cy="50.9883" fill="#E3E3E3" rx="8" ry="8" style="stroke:#181818;stroke-width:0.5;"/><path d="M39,58.9883 L39,85.9883 M26,66.9883 L52,66.9883 M39,85.9883 L26,100.9883 M39,85.9883 L52,100.9883 " fill="none" style="stroke:#181818;stroke-width:0.5;"/><text fill="#000000" font-family="sans-serif" font-size="20" lengthAdjust="spacing" textLength="62" x="5" y="375.707">Owner</text><ellipse cx="39" cy="388.4258" fill="#E3E3E3" rx="8" ry="8" style="stroke:#181818;stroke-width:0.5;"/><path d="M39,396.4258 L39,423.4258 M26,404.4258 L52,404.4258 M39,423.4258 L26,438.4258 M39,423.4258 L52,438.4258 " fill="none" style="stroke:#181818;stroke-width:0.5;"/><rect fill="#E3E3E3" height="37.5547" rx="2.5" ry="2.5" style="stroke:#181818;stroke-width:0.5;" width="88" x="510" y="87.4883"/><text fill="#000000" font-family="sans-serif" font-size="20" lengthAdjust="spacing" textLength="74" x="517" y="113.8242">:System</text><rect fill="#E3E3E3" height="37.5547" rx="2.5" ry="2.5" style="stroke:#181818;stroke-width:0.5;" width="88" x="510" y="356.3711"/><text fill="#000000" font-family="sans-serif" font-size="20" lengthAdjust="spacing" textLength="74" x="517" y="382.707">:System</text><rect fill="#FFFFFF" height="212.3281" style="stroke:#181818;stroke-width:1.0;" width="10" x="34" y="136.043"/><rect fill="#FFFFFF" height="37.5547" style="stroke:#181818;stroke-width:1.0;" width="10" x="549" y="165.5977"/><rect fill="#FFFFFF" height="61.1094" style="stroke:#181818;stroke-width:1.0;" width="10" x="549" y="240.707"/><rect fill="#FFFFFF" height="9" style="stroke:#181818;stroke-width:1.0;" width="10" x="549" y="339.3711"/><polygon fill="#181818" points="537,161.5977,547,165.5977,537,169.5977,541,165.5977" style="stroke:#181818;stroke-width:1.0;"/><line style="stroke:#181818;stroke-width:1.0;" x1="44" x2="543" y1="165.5977" y2="165.5977"/><text fill="#000000" font-family="sans-serif" font-size="20" font-weight="bold" lengthAdjust="spacing" textLength="13" x="51" y="159.3789">1</text><text fill="#000000" font-family="sans-serif" font-size="20" lengthAdjust="spacing" textLength="281" x="68" y="159.3789">Click on the "Register" button</text><polygon fill="#181818" points="55,199.1523,45,203.1523,55,207.1523,51,203.1523" style="stroke:#181818;stroke-width:1.0;"/><line style="stroke:#181818;stroke-width:1.0;stroke-dasharray:2.0,2.0;" x1="49" x2="553" y1="203.1523" y2="203.1523"/><text fill="#000000" font-family="sans-serif" font-size="20" font-weight="bold" lengthAdjust="spacing" textLength="13" x="61" y="196.9336">2</text><text fill="#000000" font-family="sans-serif" font-size="20" lengthAdjust="spacing" textLength="419" x="78" y="196.9336">Displays the registration form with its fields</text><polygon fill="#181818" points="537,236.707,547,240.707,537,244.707,541,240.707" style="stroke:#181818;stroke-width:1.0;"/><line style="stroke:#181818;stroke-width:1.0;" x1="44" x2="543" y1="240.707" y2="240.707"/><text fill="#000000" font-family="sans-serif" font-size="20" font-weight="bold" lengthAdjust="spacing" textLength="13" x="51" y="234.4883">3</text><text fill="#000000" font-family="sans-serif" font-size="20" lengthAdjust="spacing" textLength="456" x="68" y="234.4883">Types the requested data and submits the form</text><polygon fill="#181818" points="55,297.8164,45,301.8164,55,305.8164,51,301.8164" style="stroke:#181818;stroke-width:1.0;"/><line style="stroke:#181818;stroke-width:1.0;stroke-dasharray:2.0,2.0;" x1="49" x2="553" y1="301.8164" y2="301.8164"/><text fill="#000000" font-family="sans-serif" font-size="20" font-weight="bold" lengthAdjust="spacing" textLength="13" x="61" y="283.8203">4</text><text fill="#000000" font-family="sans-serif" font-size="20" lengthAdjust="spacing" textLength="458" x="78" y="272.043">Creates the user, alerts of the operation success</text><text fill="#000000" font-family="sans-serif" font-size="20" lengthAdjust="spacing" textLength="285" x="78" y="295.5977">and sends confirmation email</text><polygon fill="#181818" points="537,335.3711,547,339.3711,537,343.3711,541,339.3711" style="stroke:#181818;stroke-width:1.0;"/><line style="stroke:#181818;stroke-width:1.0;" x1="44" x2="543" y1="339.3711" y2="339.3711"/><text fill="#000000" font-family="sans-serif" font-size="20" font-weight="bold" lengthAdjust="spacing" textLength="13" x="51" y="333.1523">5</text><text fill="#000000" font-family="sans-serif" font-size="20" lengthAdjust="spacing" textLength="387" x="68" y="333.1523">Click on the verification link in the email</text><!--SRC=[bP51Rzim38Nl_XL4JXtG04MFEGmOMknQeDvn5qQc7S8IvKbKWkpNZv7Y8aKxOFE9rdly7YdbcMN1XC57DzC00urOl7wFeZt_9dXywF9gWH0bkaEAWK1JeHjbGJVZHBsUFK4YfoYJlpNa0mxnn3B1Y3vJrochMVjpLWhGqwz2uWYU6QUB_Qxldx_05hvvfIIeV2Hu4Ml3eb5As5EoscbCi7av2QKDO8PQTHQex7X1KTZiMaALMrdx-8XALty7rw_-mlRhEjKEdZox6QA07WWshpIn2PQrBsfZrCOts4fVQLV8rdWDlBFjykBnd2ikLLgotOm_nXJWn7e0rWmZanzo9Gtqru2Fu_uuBxJ2xKBjr1uK5G5bW5psuGA_o9UunlddyUqo4fcn0KgcT0_eAHanZlKiBdJT9XVdA6VuAJMOPCZWeeoSGZDGGFOjwhyMVFSUHqeyicj4pp83D-66_ic6Vm00]--></g></svg>