<?xml version="1.0" encoding="UTF-8" standalone="no"?><svg xmlns="http://www.w3.org/2000/svg" xmlns:xlink="http://www.w3.org/1999/xlink" contentStyleType="text/css" height="581px" preserveAspectRatio="none" style="width:604px;height:581px;background:#FFFFFF;" version="1.1" viewBox="0 0 604 581" width="604px" zoomAndPan="magnify"><defs/><g><text fill="#000000" font-family="sans-serif" font-size="14" font-weight="bold" lengthAdjust="spacing" textLength="365" x="118.5" y="28.5352">System Sequence Diagram (SSD) - Alternative Two</text><rect fill="#FFFFFF" height="348.5469" style="stroke:#181818;stroke-width:1.0;" width="10" x="34" y="136.043"/><rect fill="#FFFFFF" height="37.5547" style="stroke:#181818;stroke-width:1.0;" width="10" x="549" y="165.5977"/><rect fill="#FFFFFF" height="61.1094" style="stroke:#181818;stroke-width:1.0;" width="10" x="549" y="240.707"/><rect fill="#FFFFFF" height="37.5547" style="stroke:#181818;stroke-width:1.0;" width="10" x="549" y="339.3711"/><rect fill="#FFFFFF" height="61.1094" style="stroke:#181818;stroke-width:1.0;" width="10" x="549" y="414.4805"/><line style="stroke:#181818;stroke-width:0.5;stroke-dasharray:5.0,5.0;" x1="39" x2="39" y1="126.043" y2="493.5898"/><line style="stroke:#181818;stroke-width:0.5;stroke-dasharray:5.0,5.0;" x1="554" x2="554" y1="126.043" y2="493.5898"/><text fill="#000000" font-family="sans-serif" font-size="20" lengthAdjust="spacing" textLength="62" x="5" y="121.8242">Owner</text><ellipse cx="39" cy="50.9883" fill="#E3E3E3" rx="8" ry="8" style="stroke:#181818;stroke-width:0.5;"/><path d="M39,58.9883 L39,85.9883 M26,66.9883 L52,66.9883 M39,85.9883 L26,100.9883 M39,85.9883 L52,100.9883 " fill="none" style="stroke:#181818;stroke-width:0.5;"/><text fill="#000000" font-family="sans-serif" font-size="20" lengthAdjust="spacing" textLength="62" x="5" y="511.9258">Owner</text><ellipse cx="39" cy="524.6445" fill="#E3E3E3" rx="8" ry="8" style="stroke:#181818;stroke-width:0.5;"/><path d="M39,532.6445 L39,559.6445 M26,540.6445 L52,540.6445 M39,559.6445 L26,574.6445 M39,559.6445 L52,574.6445 " fill="none" style="stroke:#181818;stroke-width:0.5;"/><rect fill="#E3E3E3" height="37.5547" rx="2.5" ry="2.5" style="stroke:#181818;stroke-width:0.5;" width="88" x="510" y="87.4883"/><text fill="#000000" font-family="sans-serif" font-size="20" lengthAdjust="spacing" textLength="74" x="517" y="113.8242">:System</text><rect fill="#E3E3E3" height="37.5547" rx="2.5" ry="2.5" style="stroke:#181818;stroke-width:0.5;" width="88" x="510" y="492.5898"/><text fill="#000000" font-family="sans-serif" font-size="20" lengthAdjust="spacing" textLength="74" x="517" y="518.9258">:System</text><rect fill="#FFFFFF" height="348.5469" style="stroke:#181818;stroke-width:1.0;" width="10" x="34" y="136.043"/><rect fill="#FFFFFF" height="37.5547" style="stroke:#181818;stroke-width:1.0;" width="10" x="549" y="165.5977"/><rect fill="#FFFFFF" height="61.1094" style="stroke:#181818;stroke-width:1.0;" width="10" x="549" y="240.707"/><rect fill="#FFFFFF" height="37.5547" style="stroke:#181818;stroke-width:1.0;" width="10" x="549" y="339.3711"/><rect fill="#FFFFFF" height="61.1094" style="stroke:#181818;stroke-width:1.0;" width="10" x="549" y="414.4805"/><polygon fill="#181818" points="537,161.5977,547,165.5977,537,169.5977,541,165.5977" style="stroke:#181818;stroke-width:1.0;"/><line style="stroke:#181818;stroke-width:1.0;" x1="44" x2="543" y1="165.5977" y2="165.5977"/><text fill="#000000" font-family="sans-serif" font-size="20" font-weight="bold" lengthAdjust="spacing" textLength="13" x="51" y="159.3789">1</text><text fill="#000000" font-family="sans-serif" font-size="20" lengthAdjust="spacing" textLength="281" x="68" y="159.3789">Click on the "Register" button</text><polygon fill="#181818" points="55,199.1523,45,203.1523,55,207.1523,51,203.1523" style="stroke:#181818;stroke-width:1.0;"/><line style="stroke:#181818;stroke-width:1.0;stroke-dasharray:2.0,2.0;" x1="49" x2="553" y1="203.1523" y2="203.1523"/><text fill="#000000" font-family="sans-serif" font-size="20" font-weight="bold" lengthAdjust="spacing" textLength="13" x="61" y="196.9336">2</text><text fill="#000000" font-family="sans-serif" font-size="20" lengthAdjust="spacing" textLength="419" x="78" y="196.9336">Displays the registration form with its fields</text><polygon fill="#181818" points="537,236.707,547,240.707,537,244.707,541,240.707" style="stroke:#181818;stroke-width:1.0;"/><line style="stroke:#181818;stroke-width:1.0;" x1="44" x2="543" y1="240.707" y2="240.707"/><text fill="#000000" font-family="sans-serif" font-size="20" font-weight="bold" lengthAdjust="spacing" textLength="13" x="51" y="234.4883">3</text><text fill="#000000" font-family="sans-serif" font-size="20" lengthAdjust="spacing" textLength="456" x="68" y="234.4883">Types the requested data and submits the form</text><polygon fill="#181818" points="55,297.8164,45,301.8164,55,305.8164,51,301.8164" style="stroke:#181818;stroke-width:1.0;"/><line style="stroke:#181818;stroke-width:1.0;stroke-dasharray:2.0,2.0;" x1="49" x2="553" y1="301.8164" y2="301.8164"/><text fill="#000000" font-family="sans-serif" font-size="20" font-weight="bold" lengthAdjust="spacing" textLength="13" x="61" y="283.8203">4</text><text fill="#000000" font-family="sans-serif" font-size="20" lengthAdjust="spacing" textLength="458" x="78" y="272.043">Creates the user, alerts of the operation success</text><text fill="#000000" font-family="sans-serif" font-size="20" lengthAdjust="spacing" textLength="285" x="78" y="295.5977">and sends confirmation email</text><polygon fill="#181818" points="537,335.3711,547,339.3711,537,343.3711,541,339.3711" style="stroke:#181818;stroke-width:1.0;"/><line style="stroke:#181818;stroke-width:1.0;" x1="44" x2="543" y1="339.3711" y2="339.3711"/><text fill="#000000" font-family="sans-serif" font-size="20" font-weight="bold" lengthAdjust="spacing" textLength="13" x="51" y="333.1523">5</text><text fill="#000000" font-family="sans-serif" font-size="20" lengthAdjust="spacing" textLength="387" x="68" y="333.1523">Click on the verification link in the email</text><polygon fill="#181818" points="55,372.9258,45,376.9258,55,380.9258,51,376.9258" style="stroke:#181818;stroke-width:1.0;"/><line style="stroke:#181818;stroke-width:1.0;stroke-dasharray:2.0,2.0;" x1="49" x2="553" y1="376.9258" y2="376.9258"/><text fill="#000000" font-family="sans-serif" font-size="20" font-weight="bold" lengthAdjust="spacing" textLength="13" x="61" y="370.707">6</text><text fill="#000000" font-family="sans-serif" font-size="20" lengthAdjust="spacing" textLength="281" x="78" y="370.707">Displays the verification form</text><polygon fill="#181818" points="537,410.4805,547,414.4805,537,418.4805,541,414.4805" style="stroke:#181818;stroke-width:1.0;"/><line style="stroke:#181818;stroke-width:1.0;" x1="44" x2="543" y1="414.4805" y2="414.4805"/><text fill="#000000" font-family="sans-serif" font-size="20" font-weight="bold" lengthAdjust="spacing" textLength="13" x="51" y="408.2617">7</text><text fill="#000000" font-family="sans-serif" font-size="20" lengthAdjust="spacing" textLength="258" x="68" y="408.2617">Click on the "Verify" button</text><polygon fill="#181818" points="55,471.5898,45,475.5898,55,479.5898,51,475.5898" style="stroke:#181818;stroke-width:1.0;"/><line style="stroke:#181818;stroke-width:1.0;stroke-dasharray:2.0,2.0;" x1="49" x2="553" y1="475.5898" y2="475.5898"/><text fill="#000000" font-family="sans-serif" font-size="20" font-weight="bold" lengthAdjust="spacing" textLength="13" x="61" y="457.5938">8</text><text fill="#000000" font-family="sans-serif" font-size="20" lengthAdjust="spacing" textLength="458" x="78" y="445.8164">Verifies the user, alerts of the operation success</text><text fill="#000000" font-family="sans-serif" font-size="20" lengthAdjust="spacing" textLength="247" x="78" y="469.3711">and sends welcome email</text><!--SRC=[dPDDQ-Cm48Rl_XM3JrtOGDbZ3eMbfTT27NhQoqGUEuFruPL6CTvVNrcAquIoqCQdiURLyyw77GQs8teqsgc1McYfmwZbsLbf-1_1h_igh18mpZfryCuGY8zqaHbH3TXJ8xCcyAG4RQyl1U60hPlOzj2X3bHLmfAapHo433JqDv9L14-C_IA_Qvgd7x21trh8MnG-4kmcLrKOnTbezkHJhCHvg5ycIxu6392ZAXaAAnxH2jJRuf3J9Spt-8X29tq5foU_mkPXhMeBZvhL0Cw270ZgL-ev9PBNFaeg8ryymrRwIZj1DebNmDlKNHWrpY7ZVARvr5lYTyuRc5WEm1AWOz9joAIM_clmkTpTFD8AJmDDfscXA0XeMmXnRnRuabxi2kVBvQTXU4h20eY1_4z0JJuHNPVFt4YdRa9KYaA0FpORasq3A6SxzgO8o23hOlMj1g_sSIJF7Qj2r6m7u9Aue7-lmwlzNE7F0xkztFfj0SwtVJnRoBVvvl5FfDNottxCvdCdxm00]--></g></svg>