<?xml version="1.0" encoding="UTF-8" standalone="no"?><svg xmlns="http://www.w3.org/2000/svg" xmlns:xlink="http://www.w3.org/1999/xlink" contentStyleType="text/css" height="816px" preserveAspectRatio="none" style="width:598px;height:816px;background:#FFFFFF;" version="1.1" viewBox="0 0 598 816" width="598px" zoomAndPan="magnify"><defs/><g><!--class SystemAdministrator--><g id="elem_SystemAdministrator"><rect codeLine="9" fill="#F1F1F1" height="97.1094" id="SystemAdministrator" rx="2.5" ry="2.5" style="stroke:#181818;stroke-width:0.5;" width="235" x="124.5" y="7"/><ellipse cx="140.5" cy="24" fill="#C2C2C2" rx="12" ry="12" style="stroke:#181818;stroke-width:1.0;"/><path d="M143.3066,31.0801 Q142.623,31.4316 141.8711,31.6074 Q141.1191,31.7832 140.2891,31.7832 Q137.3398,31.7832 135.7871,29.8398 Q134.2344,27.8965 134.2344,24.2246 Q134.2344,20.543 135.7871,18.5996 Q137.3398,16.6563 140.2891,16.6563 Q141.1191,16.6563 141.8809,16.832 Q142.6426,17.0078 143.3066,17.3594 L143.3066,20.5625 Q142.5645,19.8789 141.8662,19.5615 Q141.168,19.2441 140.4258,19.2441 Q138.8438,19.2441 138.0381,20.499 Q137.2324,21.7539 137.2324,24.2246 Q137.2324,26.6855 138.0381,27.9404 Q138.8438,29.1953 140.4258,29.1953 Q141.168,29.1953 141.8662,28.8779 Q142.5645,28.5605 143.3066,27.877 Z " fill="#000000"/><text fill="#000000" font-family="sans-serif" font-size="20" lengthAdjust="spacing" textLength="201" x="155.5" y="31.5586">SystemAdministrator</text><line style="stroke:#181818;stroke-width:0.5;" x1="125.5" x2="358.5" y1="41" y2="41"/><text fill="#000000" font-family="sans-serif" font-size="20" lengthAdjust="spacing" textLength="65" x="130.5" y="64.3359">-name</text><text fill="#000000" font-family="sans-serif" font-size="20" lengthAdjust="spacing" textLength="65" x="130.5" y="87.8906">-email</text><line style="stroke:#181818;stroke-width:0.5;" x1="125.5" x2="358.5" y1="96.1094" y2="96.1094"/></g><!--class CSVImport--><g id="elem_CSVImport"><rect codeLine="14" fill="#F1F1F1" height="73.5547" id="CSVImport" rx="2.5" ry="2.5" style="stroke:#181818;stroke-width:0.5;" width="151" x="12.5" y="577"/><ellipse cx="34.8" cy="594" fill="#C2C2C2" rx="12" ry="12" style="stroke:#181818;stroke-width:1.0;"/><path d="M37.6066,601.0801 Q36.923,601.4316 36.1711,601.6074 Q35.4191,601.7832 34.5891,601.7832 Q31.6398,601.7832 30.0871,599.8398 Q28.5344,597.8965 28.5344,594.2246 Q28.5344,590.543 30.0871,588.5996 Q31.6398,586.6563 34.5891,586.6563 Q35.4191,586.6563 36.1809,586.832 Q36.9426,587.0078 37.6066,587.3594 L37.6066,590.5625 Q36.8645,589.8789 36.1662,589.5615 Q35.468,589.2441 34.7258,589.2441 Q33.1438,589.2441 32.3381,590.499 Q31.5324,591.7539 31.5324,594.2246 Q31.5324,596.6855 32.3381,597.9404 Q33.1438,599.1953 34.7258,599.1953 Q35.468,599.1953 36.1662,598.8779 Q36.8645,598.5605 37.6066,597.877 Z " fill="#000000"/><text fill="#000000" font-family="sans-serif" font-size="20" lengthAdjust="spacing" textLength="103" x="51.2" y="601.5586">CSVImport</text><line style="stroke:#181818;stroke-width:0.5;" x1="13.5" x2="162.5" y1="611" y2="611"/><line style="stroke:#181818;stroke-width:0.5;" x1="13.5" x2="162.5" y1="619" y2="619"/><text fill="#000000" font-family="sans-serif" font-size="20" lengthAdjust="spacing" textLength="139" x="18.5" y="642.3359">+importData()</text></g><!--class ImportController--><g id="elem_ImportController"><rect codeLine="18" fill="#F1F1F1" height="120.6641" id="ImportController" rx="2.5" ry="2.5" style="stroke:#181818;stroke-width:0.5;" width="270" x="107" y="371"/><ellipse cx="157" cy="388" fill="#C2C2C2" rx="12" ry="12" style="stroke:#181818;stroke-width:1.0;"/><path d="M159.8066,395.0801 Q159.123,395.4316 158.3711,395.6074 Q157.6191,395.7832 156.7891,395.7832 Q153.8398,395.7832 152.2871,393.8398 Q150.7344,391.8965 150.7344,388.2246 Q150.7344,384.543 152.2871,382.5996 Q153.8398,380.6563 156.7891,380.6563 Q157.6191,380.6563 158.3809,380.832 Q159.1426,381.0078 159.8066,381.3594 L159.8066,384.5625 Q159.0645,383.8789 158.3662,383.5615 Q157.668,383.2441 156.9258,383.2441 Q155.3438,383.2441 154.5381,384.499 Q153.7324,385.7539 153.7324,388.2246 Q153.7324,390.6855 154.5381,391.9404 Q155.3438,393.1953 156.9258,393.1953 Q157.668,393.1953 158.3662,392.8779 Q159.0645,392.5605 159.8066,391.877 Z " fill="#000000"/><text fill="#000000" font-family="sans-serif" font-size="20" lengthAdjust="spacing" textLength="161" x="179" y="395.5586">ImportController</text><line style="stroke:#181818;stroke-width:0.5;" x1="108" x2="376" y1="405" y2="405"/><text fill="#000000" font-family="sans-serif" font-size="20" lengthAdjust="spacing" textLength="258" x="113" y="428.3359">-AnnouncementRepository</text><line style="stroke:#181818;stroke-width:0.5;" x1="108" x2="376" y1="436.5547" y2="436.5547"/><text fill="#000000" font-family="sans-serif" font-size="20" lengthAdjust="spacing" textLength="139" x="113" y="459.8906">+importData()</text><text fill="#000000" font-family="sans-serif" font-size="20" lengthAdjust="spacing" textLength="119" x="113" y="483.4453">+checkFile()</text></g><!--class ImportUI--><g id="elem_ImportUI"><rect codeLine="24" fill="#F1F1F1" height="97.1094" id="ImportUI" rx="2.5" ry="2.5" style="stroke:#181818;stroke-width:0.5;" width="185" x="149.5" y="189"/><ellipse cx="195.2" cy="206" fill="#C2C2C2" rx="12" ry="12" style="stroke:#181818;stroke-width:1.0;"/><path d="M198.0066,213.0801 Q197.323,213.4316 196.5711,213.6074 Q195.8191,213.7832 194.9891,213.7832 Q192.0398,213.7832 190.4871,211.8398 Q188.9344,209.8965 188.9344,206.2246 Q188.9344,202.543 190.4871,200.5996 Q192.0398,198.6563 194.9891,198.6563 Q195.8191,198.6563 196.5809,198.832 Q197.3426,199.0078 198.0066,199.3594 L198.0066,202.5625 Q197.2645,201.8789 196.5662,201.5615 Q195.868,201.2441 195.1258,201.2441 Q193.5438,201.2441 192.7381,202.499 Q191.9324,203.7539 191.9324,206.2246 Q191.9324,208.6855 192.7381,209.9404 Q193.5438,211.1953 195.1258,211.1953 Q195.868,211.1953 196.5662,210.8779 Q197.2645,210.5605 198.0066,209.877 Z " fill="#000000"/><text fill="#000000" font-family="sans-serif" font-size="20" lengthAdjust="spacing" textLength="85" x="216.8" y="213.5586">ImportUI</text><line style="stroke:#181818;stroke-width:0.5;" x1="150.5" x2="333.5" y1="223" y2="223"/><text fill="#000000" font-family="sans-serif" font-size="20" lengthAdjust="spacing" textLength="173" x="155.5" y="246.3359">-ImportController</text><line style="stroke:#181818;stroke-width:0.5;" x1="150.5" x2="333.5" y1="254.5547" y2="254.5547"/><text fill="#000000" font-family="sans-serif" font-size="20" lengthAdjust="spacing" textLength="119" x="155.5" y="277.8906">+selectFile()</text></g><!--class AnnouncementRepository--><g id="elem_AnnouncementRepository"><rect codeLine="29" fill="#F1F1F1" height="73.5547" id="AnnouncementRepository" rx="2.5" ry="2.5" style="stroke:#181818;stroke-width:0.5;" width="392" x="199" y="577"/><ellipse cx="267.5" cy="594" fill="#C2C2C2" rx="12" ry="12" style="stroke:#181818;stroke-width:1.0;"/><path d="M270.3066,601.0801 Q269.623,601.4316 268.8711,601.6074 Q268.1191,601.7832 267.2891,601.7832 Q264.3398,601.7832 262.7871,599.8398 Q261.2344,597.8965 261.2344,594.2246 Q261.2344,590.543 262.7871,588.5996 Q264.3398,586.6563 267.2891,586.6563 Q268.1191,586.6563 268.8809,586.832 Q269.6426,587.0078 270.3066,587.3594 L270.3066,590.5625 Q269.5645,589.8789 268.8662,589.5615 Q268.168,589.2441 267.4258,589.2441 Q265.8438,589.2441 265.0381,590.499 Q264.2324,591.7539 264.2324,594.2246 Q264.2324,596.6855 265.0381,597.9404 Q265.8438,599.1953 267.4258,599.1953 Q268.168,599.1953 268.8662,598.8779 Q269.5645,598.5605 270.3066,597.877 Z " fill="#000000"/><text fill="#000000" font-family="sans-serif" font-size="20" lengthAdjust="spacing" textLength="246" x="289.5" y="601.5586">AnnouncementRepository</text><line style="stroke:#181818;stroke-width:0.5;" x1="200" x2="590" y1="611" y2="611"/><line style="stroke:#181818;stroke-width:0.5;" x1="200" x2="590" y1="619" y2="619"/><text fill="#000000" font-family="sans-serif" font-size="20" lengthAdjust="spacing" textLength="380" x="205" y="642.3359">-addAnnouncementFromImportedFile()</text></g><!--class DataImporter--><g id="elem_DataImporter"><rect codeLine="33" fill="#F1F1F1" height="73.5547" id="DataImporter" rx="2.5" ry="2.5" style="stroke:#181818;stroke-width:0.5;" width="162" x="7" y="736"/><ellipse cx="23" cy="753" fill="#B1B1B1" rx="12" ry="12" style="stroke:#181818;stroke-width:1.0;"/><path d="M18.6797,748.459 L18.6797,745.9199 L27.3613,745.9199 L27.3613,748.459 L24.4609,748.459 L24.4609,757.9609 L27.3613,757.9609 L27.3613,760.5 L18.6797,760.5 L18.6797,757.9609 L21.5801,757.9609 L21.5801,748.459 Z " fill="#000000"/><text fill="#000000" font-family="sans-serif" font-size="20" font-style="italic" lengthAdjust="spacing" textLength="128" x="38" y="760.5586">DataImporter</text><line style="stroke:#181818;stroke-width:0.5;" x1="8" x2="168" y1="770" y2="770"/><line style="stroke:#181818;stroke-width:0.5;" x1="8" x2="168" y1="778" y2="778"/><text fill="#000000" font-family="sans-serif" font-size="20" lengthAdjust="spacing" textLength="139" x="13" y="801.3359">+importData()</text></g><!--link ImportUI to ImportController--><g id="link_ImportUI_ImportController"><path codeLine="38" d="M242,286.45 C242,310.01 242,338.75 242,364.36 " fill="none" id="ImportUI-to-ImportController" style="stroke:#181818;stroke-width:1.0;stroke-dasharray:7.0,7.0;"/><polygon fill="#181818" points="242,369.28,246,360.28,242,364.28,238,360.28,242,369.28" style="stroke:#181818;stroke-width:1.0;"/><text fill="#000000" font-family="sans-serif" font-size="20" lengthAdjust="spacing" textLength="43" x="243" y="336.3359">calls</text></g><!--link SystemAdministrator to ImportUI--><g id="link_SystemAdministrator_ImportUI"><path codeLine="42" d="M242,104.26 C242,130.3 242,162.44 242,188.51 " fill="none" id="SystemAdministrator-ImportUI" style="stroke:#181818;stroke-width:1.0;"/><text fill="#000000" font-family="sans-serif" font-size="20" lengthAdjust="spacing" textLength="82" x="243" y="154.3359">interacts</text></g><!--link ImportController to AnnouncementRepository--><g id="link_ImportController_AnnouncementRepository"><path codeLine="44" d="M292.73,492.35 C314.82,518.41 340.16,548.3 360.08,571.81 " fill="none" id="ImportController-to-AnnouncementRepository" style="stroke:#181818;stroke-width:1.0;stroke-dasharray:7.0,7.0;"/><polygon fill="#181818" points="363.27,575.57,360.4879,566.1223,360.0313,571.7607,354.3929,571.3041,363.27,575.57" style="stroke:#181818;stroke-width:1.0;"/><text fill="#000000" font-family="sans-serif" font-size="20" lengthAdjust="spacing" textLength="43" x="337" y="542.3359">uses</text></g><!--link ImportController to CSVImport--><g id="link_ImportController_CSVImport"><path codeLine="46" d="M190.93,492.35 C168.7,518.41 143.2,548.3 123.14,571.81 " fill="none" id="ImportController-to-CSVImport" style="stroke:#181818;stroke-width:1.0;stroke-dasharray:7.0,7.0;"/><polygon fill="#181818" points="119.93,575.57,128.8149,571.3206,123.1757,571.7667,122.7296,566.1274,119.93,575.57" style="stroke:#181818;stroke-width:1.0;"/><text fill="#000000" font-family="sans-serif" font-size="20" lengthAdjust="spacing" textLength="110" x="166" y="542.3359">instantiates</text></g><!--link CSVImport to DataImporter--><g id="link_CSVImport_DataImporter"><path codeLine="48" d="M88,651.41 C88,674.61 88,704.78 88,729.13 " fill="none" id="CSVImport-to-DataImporter" style="stroke:#181818;stroke-width:1.0;stroke-dasharray:7.0,7.0;"/><polygon fill="#181818" points="88,734,92,725,88,729,84,725,88,734" style="stroke:#181818;stroke-width:1.0;"/><text fill="#000000" font-family="sans-serif" font-size="20" lengthAdjust="spacing" textLength="114" x="89" y="701.3359">implements</text></g><!--SRC=[TLBBQiCm4BphA_RMbk8GUimX4582WPvgsljMNZiYAyb8QufR-k-LxJWsUVXaUHuxdbKy6bTZGCjU7wc0WafiM7RUIMv-25wMAeuKiDvvVGZU4aXeQ8RKg8zOKIuj4mJIWgxYEI4UiF3VnbLG8iSvmiQHj3L1xRdj3ZDCCyQu4Gdcgn7QQ-_wK4kb7fXA0V4GJ7KGA4mtr7YdLA-1l8r2TbDOuqoKWE83_2f8JmOEBPrUoQ9XzJUgjlddtjO-o41z1jEVNb7myMcY3PnjwYXuPfgSDyxvnccovEITQXzDcjlUyXe-wGFfuyumNRj_xC-kb-DEuaYS_lbIVJl2sGkBOixOfMKEzbHCJiO9XH8rGPVsX8TxdQXpuCLYVTtD2ZGonxIo0TgxqWUBtR9ch2nRmnjLgDjXSqdMH4ggMulCigca5VHfKKiSaynikqHt6Xa7tDISBqBl7zDr5eFIqIUauytxwQYsvdvELFy0]--></g></svg>