<?xml version="1.0" encoding="UTF-8" standalone="no"?><svg xmlns="http://www.w3.org/2000/svg" xmlns:xlink="http://www.w3.org/1999/xlink" contentStyleType="text/css" height="657px" preserveAspectRatio="none" style="width:603px;height:657px;background:#FFFFFF;" version="1.1" viewBox="0 0 603 657" width="603px" zoomAndPan="magnify"><defs/><g><!--class SystemAdministrator--><g id="elem_SystemAdministrator"><rect codeLine="9" fill="#F1F1F1" height="97.1094" id="SystemAdministrator" rx="2.5" ry="2.5" style="stroke:#181818;stroke-width:0.5;" width="235" x="241.5" y="7"/><ellipse cx="257.5" cy="24" fill="#C2C2C2" rx="12" ry="12" style="stroke:#181818;stroke-width:1.0;"/><path d="M260.3066,31.0801 Q259.623,31.4316 258.8711,31.6074 Q258.1191,31.7832 257.2891,31.7832 Q254.3398,31.7832 252.7871,29.8398 Q251.2344,27.8965 251.2344,24.2246 Q251.2344,20.543 252.7871,18.5996 Q254.3398,16.6563 257.2891,16.6563 Q258.1191,16.6563 258.8809,16.832 Q259.6426,17.0078 260.3066,17.3594 L260.3066,20.5625 Q259.5645,19.8789 258.8662,19.5615 Q258.168,19.2441 257.4258,19.2441 Q255.8438,19.2441 255.0381,20.499 Q254.2324,21.7539 254.2324,24.2246 Q254.2324,26.6855 255.0381,27.9404 Q255.8438,29.1953 257.4258,29.1953 Q258.168,29.1953 258.8662,28.8779 Q259.5645,28.5605 260.3066,27.877 Z " fill="#000000"/><text fill="#000000" font-family="sans-serif" font-size="20" lengthAdjust="spacing" textLength="201" x="272.5" y="31.5586">SystemAdministrator</text><line style="stroke:#181818;stroke-width:0.5;" x1="242.5" x2="475.5" y1="41" y2="41"/><text fill="#000000" font-family="sans-serif" font-size="20" lengthAdjust="spacing" textLength="65" x="247.5" y="64.3359">-name</text><text fill="#000000" font-family="sans-serif" font-size="20" lengthAdjust="spacing" textLength="65" x="247.5" y="87.8906">-email</text><line style="stroke:#181818;stroke-width:0.5;" x1="242.5" x2="475.5" y1="96.1094" y2="96.1094"/></g><!--class ImportController--><g id="elem_ImportController"><rect codeLine="14" fill="#F1F1F1" height="120.6641" id="ImportController" rx="2.5" ry="2.5" style="stroke:#181818;stroke-width:0.5;" width="270" x="224" y="371"/><ellipse cx="274" cy="388" fill="#C2C2C2" rx="12" ry="12" style="stroke:#181818;stroke-width:1.0;"/><path d="M276.8066,395.0801 Q276.123,395.4316 275.3711,395.6074 Q274.6191,395.7832 273.7891,395.7832 Q270.8398,395.7832 269.2871,393.8398 Q267.7344,391.8965 267.7344,388.2246 Q267.7344,384.543 269.2871,382.5996 Q270.8398,380.6563 273.7891,380.6563 Q274.6191,380.6563 275.3809,380.832 Q276.1426,381.0078 276.8066,381.3594 L276.8066,384.5625 Q276.0645,383.8789 275.3662,383.5615 Q274.668,383.2441 273.9258,383.2441 Q272.3438,383.2441 271.5381,384.499 Q270.7324,385.7539 270.7324,388.2246 Q270.7324,390.6855 271.5381,391.9404 Q272.3438,393.1953 273.9258,393.1953 Q274.668,393.1953 275.3662,392.8779 Q276.0645,392.5605 276.8066,391.877 Z " fill="#000000"/><text fill="#000000" font-family="sans-serif" font-size="20" lengthAdjust="spacing" textLength="161" x="296" y="395.5586">ImportController</text><line style="stroke:#181818;stroke-width:0.5;" x1="225" x2="493" y1="405" y2="405"/><text fill="#000000" font-family="sans-serif" font-size="20" lengthAdjust="spacing" textLength="258" x="230" y="428.3359">-AnnouncementRepository</text><line style="stroke:#181818;stroke-width:0.5;" x1="225" x2="493" y1="436.5547" y2="436.5547"/><text fill="#000000" font-family="sans-serif" font-size="20" lengthAdjust="spacing" textLength="139" x="230" y="459.8906">+importData()</text><text fill="#000000" font-family="sans-serif" font-size="20" lengthAdjust="spacing" textLength="119" x="230" y="483.4453">+checkFile()</text></g><!--class ImportUI--><g id="elem_ImportUI"><rect codeLine="20" fill="#F1F1F1" height="97.1094" id="ImportUI" rx="2.5" ry="2.5" style="stroke:#181818;stroke-width:0.5;" width="185" x="266.5" y="189"/><ellipse cx="312.2" cy="206" fill="#C2C2C2" rx="12" ry="12" style="stroke:#181818;stroke-width:1.0;"/><path d="M315.0066,213.0801 Q314.323,213.4316 313.5711,213.6074 Q312.8191,213.7832 311.9891,213.7832 Q309.0398,213.7832 307.4871,211.8398 Q305.9344,209.8965 305.9344,206.2246 Q305.9344,202.543 307.4871,200.5996 Q309.0398,198.6563 311.9891,198.6563 Q312.8191,198.6563 313.5809,198.832 Q314.3426,199.0078 315.0066,199.3594 L315.0066,202.5625 Q314.2645,201.8789 313.5662,201.5615 Q312.868,201.2441 312.1258,201.2441 Q310.5438,201.2441 309.7381,202.499 Q308.9324,203.7539 308.9324,206.2246 Q308.9324,208.6855 309.7381,209.9404 Q310.5438,211.1953 312.1258,211.1953 Q312.868,211.1953 313.5662,210.8779 Q314.2645,210.5605 315.0066,209.877 Z " fill="#000000"/><text fill="#000000" font-family="sans-serif" font-size="20" lengthAdjust="spacing" textLength="85" x="333.8" y="213.5586">ImportUI</text><line style="stroke:#181818;stroke-width:0.5;" x1="267.5" x2="450.5" y1="223" y2="223"/><text fill="#000000" font-family="sans-serif" font-size="20" lengthAdjust="spacing" textLength="173" x="272.5" y="246.3359">-ImportController</text><line style="stroke:#181818;stroke-width:0.5;" x1="267.5" x2="450.5" y1="254.5547" y2="254.5547"/><text fill="#000000" font-family="sans-serif" font-size="20" lengthAdjust="spacing" textLength="119" x="272.5" y="277.8906">+selectFile()</text></g><!--class AnnouncementRepository--><g id="elem_AnnouncementRepository"><rect codeLine="25" fill="#F1F1F1" height="73.5547" id="AnnouncementRepository" rx="2.5" ry="2.5" style="stroke:#181818;stroke-width:0.5;" width="392" x="7" y="577"/><ellipse cx="75.5" cy="594" fill="#C2C2C2" rx="12" ry="12" style="stroke:#181818;stroke-width:1.0;"/><path d="M78.3066,601.0801 Q77.623,601.4316 76.8711,601.6074 Q76.1191,601.7832 75.2891,601.7832 Q72.3398,601.7832 70.7871,599.8398 Q69.2344,597.8965 69.2344,594.2246 Q69.2344,590.543 70.7871,588.5996 Q72.3398,586.6563 75.2891,586.6563 Q76.1191,586.6563 76.8809,586.832 Q77.6426,587.0078 78.3066,587.3594 L78.3066,590.5625 Q77.5645,589.8789 76.8662,589.5615 Q76.168,589.2441 75.4258,589.2441 Q73.8438,589.2441 73.0381,590.499 Q72.2324,591.7539 72.2324,594.2246 Q72.2324,596.6855 73.0381,597.9404 Q73.8438,599.1953 75.4258,599.1953 Q76.168,599.1953 76.8662,598.8779 Q77.5645,598.5605 78.3066,597.877 Z " fill="#000000"/><text fill="#000000" font-family="sans-serif" font-size="20" lengthAdjust="spacing" textLength="246" x="97.5" y="601.5586">AnnouncementRepository</text><line style="stroke:#181818;stroke-width:0.5;" x1="8" x2="398" y1="611" y2="611"/><line style="stroke:#181818;stroke-width:0.5;" x1="8" x2="398" y1="619" y2="619"/><text fill="#000000" font-family="sans-serif" font-size="20" lengthAdjust="spacing" textLength="380" x="13" y="642.3359">-addAnnouncementFromImportedFile()</text></g><!--class DataImporter--><g id="elem_DataImporter"><rect codeLine="29" fill="#F1F1F1" height="73.5547" id="DataImporter" rx="2.5" ry="2.5" style="stroke:#181818;stroke-width:0.5;" width="162" x="434" y="577"/><ellipse cx="450" cy="594" fill="#C2C2C2" rx="12" ry="12" style="stroke:#181818;stroke-width:1.0;"/><path d="M452.8066,601.0801 Q452.123,601.4316 451.3711,601.6074 Q450.6191,601.7832 449.7891,601.7832 Q446.8398,601.7832 445.2871,599.8398 Q443.7344,597.8965 443.7344,594.2246 Q443.7344,590.543 445.2871,588.5996 Q446.8398,586.6563 449.7891,586.6563 Q450.6191,586.6563 451.3809,586.832 Q452.1426,587.0078 452.8066,587.3594 L452.8066,590.5625 Q452.0645,589.8789 451.3662,589.5615 Q450.668,589.2441 449.9258,589.2441 Q448.3438,589.2441 447.5381,590.499 Q446.7324,591.7539 446.7324,594.2246 Q446.7324,596.6855 447.5381,597.9404 Q448.3438,599.1953 449.9258,599.1953 Q450.668,599.1953 451.3662,598.8779 Q452.0645,598.5605 452.8066,597.877 Z " fill="#000000"/><text fill="#000000" font-family="sans-serif" font-size="20" lengthAdjust="spacing" textLength="128" x="465" y="601.5586">DataImporter</text><line style="stroke:#181818;stroke-width:0.5;" x1="435" x2="595" y1="611" y2="611"/><line style="stroke:#181818;stroke-width:0.5;" x1="435" x2="595" y1="619" y2="619"/><text fill="#000000" font-family="sans-serif" font-size="20" lengthAdjust="spacing" textLength="139" x="440" y="642.3359">+importData()</text></g><!--link ImportUI to ImportController--><g id="link_ImportUI_ImportController"><path codeLine="34" d="M359,286.45 C359,310.01 359,338.75 359,364.36 " fill="none" id="ImportUI-to-ImportController" style="stroke:#181818;stroke-width:1.0;stroke-dasharray:7.0,7.0;"/><polygon fill="#181818" points="359,369.28,363,360.28,359,364.28,355,360.28,359,369.28" style="stroke:#181818;stroke-width:1.0;"/><text fill="#000000" font-family="sans-serif" font-size="20" lengthAdjust="spacing" textLength="43" x="360" y="336.3359">calls</text></g><!--link SystemAdministrator to ImportUI--><g id="link_SystemAdministrator_ImportUI"><path codeLine="38" d="M359,104.26 C359,130.3 359,162.44 359,188.51 " fill="none" id="SystemAdministrator-ImportUI" style="stroke:#181818;stroke-width:1.0;"/><text fill="#000000" font-family="sans-serif" font-size="20" lengthAdjust="spacing" textLength="82" x="360" y="154.3359">interacts</text></g><!--link ImportController to AnnouncementRepository--><g id="link_ImportController_AnnouncementRepository"><path codeLine="40" d="M307.27,492.35 C284.75,518.41 258.92,548.3 238.6,571.81 " fill="none" id="ImportController-to-AnnouncementRepository" style="stroke:#181818;stroke-width:1.0;stroke-dasharray:7.0,7.0;"/><polygon fill="#181818" points="235.34,575.58,244.2511,571.3857,238.6092,571.7968,238.1981,566.155,235.34,575.58" style="stroke:#181818;stroke-width:1.0;"/><text fill="#000000" font-family="sans-serif" font-size="20" lengthAdjust="spacing" textLength="43" x="282" y="542.3359">uses</text></g><!--link ImportController to DataImporter--><g id="link_ImportController_DataImporter"><path codeLine="42" d="M410.73,492.35 C433.25,518.41 459.08,548.3 479.4,571.81 " fill="none" id="ImportController-to-DataImporter" style="stroke:#181818;stroke-width:1.0;stroke-dasharray:7.0,7.0;"/><polygon fill="#181818" points="482.66,575.58,479.8019,566.155,479.3908,571.7968,473.7489,571.3857,482.66,575.58" style="stroke:#181818;stroke-width:1.0;"/><text fill="#000000" font-family="sans-serif" font-size="20" lengthAdjust="spacing" textLength="110" x="456" y="542.3359">instantiates</text></g><!--SRC=[TLBBQiCm4BphA_RMbk8GUimX45e2XfuQ-W5RQMsBw66aDSKD_VVAZfqAr_L9rkpCpkuedhLhCQ0rNfv9WQ8AEyD7x_YalmYUjYBE9M2zyx89tX9mw2X3MfHdhEd4lI4891bTRVA2sA3odzhLKA69EMAq8-vRWjQRVlZ9C6amnWDpq1yTKocz6qrjXRWpL36mXw3hXa7feQdsJeYH0wS-Cjc3ijhfo07P1xW8I5y13YrDHxAeZVYUMQLjVU3dD7pmnj0lvU2SxvmaIuxVgFLH9y5-11z1ZwmNPBn_cAvaG_9yr8RIpKBzlRofBjjDv4Wc3RDahrkuQQ5IUSKnfNIL9xLK6fnEMBYipP0gnStiPhF_kvSTI3GcfXokKEag7omE2MHLHR67LwfHzjSu4gsBb5XhwHJ5xu9se5qoXvBZx2IJ7HpziusvmIeddtji4TCpPOsS63y0]--></g></svg>