<?xml version="1.0" encoding="UTF-8" standalone="no"?><svg xmlns="http://www.w3.org/2000/svg" xmlns:xlink="http://www.w3.org/1999/xlink" contentStyleType="text/css" height="568px" preserveAspectRatio="none" style="width:853px;height:568px;background:#FFFFFF;" version="1.1" viewBox="0 0 853 568" width="853px" zoomAndPan="magnify"><defs><filter height="300%" id="fz2ymwbwaqdsw" width="300%" x="-1" y="-1"><feGaussianBlur result="blurOut" stdDeviation="2.0"/><feColorMatrix in="blurOut" result="blurOut2" type="matrix" values="0 0 0 0 0 0 0 0 0 0 0 0 0 0 0 0 0 0 .4 0"/><feOffset dx="4.0" dy="4.0" in="blurOut2" result="blurOut3"/><feBlend in="SourceGraphic" in2="blurOut3" mode="normal"/></filter></defs><g><text fill="#000000" font-family="sans-serif" font-size="14" font-weight="bold" lengthAdjust="spacing" textLength="131" x="354" y="23.5352">Use Case Diagram</text><!--cluster actors--><g id="cluster_actors"><rect fill="none" filter="url(#fz2ymwbwaqdsw)" height="512" rx="2.5" ry="2.5" style="stroke:#FFFF00;stroke-width:1.0;" width="239" x="7" y="44.4883"/><text fill="#000000" font-family="sans-serif" font-size="20" font-weight="bold" lengthAdjust="spacing" textLength="147" x="53" y="65.8242">System Actors</text></g><!--cluster usecases--><g id="cluster_usecases"><rect fill="none" filter="url(#fz2ymwbwaqdsw)" height="487" rx="2.5" ry="2.5" style="stroke:#FFFF00;stroke-width:1.0;" width="567" x="274" y="48.4883"/><text fill="#000000" font-family="sans-serif" font-size="20" font-weight="bold" lengthAdjust="spacing" textLength="105" x="505" y="69.8242">Use Cases</text></g><!--entity Unregistered User--><g id="elem_Unregistered User"><ellipse cx="126.5" cy="95.4883" fill="#F1F1F1" filter="url(#fz2ymwbwaqdsw)" rx="8" ry="8" style="stroke:#181818;stroke-width:0.5;"/><path d="M126.5,103.4883 L126.5,130.4883 M113.5,111.4883 L139.5,111.4883 M126.5,130.4883 L113.5,145.4883 M126.5,130.4883 L139.5,145.4883 " fill="none" filter="url(#fz2ymwbwaqdsw)" style="stroke:#181818;stroke-width:0.5;"/><text fill="#000000" font-family="sans-serif" font-size="20" lengthAdjust="spacing" textLength="172" x="40.5" y="169.3242">Unregistered User</text></g><!--entity Organization Agent--><g id="elem_Organization Agent"><ellipse cx="126.5" cy="217.4883" fill="#F1F1F1" filter="url(#fz2ymwbwaqdsw)" rx="8" ry="8" style="stroke:#181818;stroke-width:0.5;"/><path d="M126.5,225.4883 L126.5,252.4883 M113.5,233.4883 L139.5,233.4883 M126.5,252.4883 L113.5,267.4883 M126.5,252.4883 L139.5,267.4883 " fill="none" filter="url(#fz2ymwbwaqdsw)" style="stroke:#181818;stroke-width:0.5;"/><text fill="#000000" font-family="sans-serif" font-size="20" lengthAdjust="spacing" textLength="186" x="33.5" y="291.3242">Organization Agent</text></g><!--entity System Administrator--><g id="elem_System Administrator"><ellipse cx="126.5" cy="339.4883" fill="#F1F1F1" filter="url(#fz2ymwbwaqdsw)" rx="8" ry="8" style="stroke:#181818;stroke-width:0.5;"/><path d="M126.5,347.4883 L126.5,374.4883 M113.5,355.4883 L139.5,355.4883 M126.5,374.4883 L113.5,389.4883 M126.5,374.4883 L139.5,389.4883 " fill="none" filter="url(#fz2ymwbwaqdsw)" style="stroke:#181818;stroke-width:0.5;"/><text fill="#000000" font-family="sans-serif" font-size="20" lengthAdjust="spacing" textLength="207" x="23" y="413.3242">System Administrator</text></g><!--entity Owner--><g id="elem_Owner"><ellipse cx="126.5" cy="461.4883" fill="#F1F1F1" filter="url(#fz2ymwbwaqdsw)" rx="8" ry="8" style="stroke:#181818;stroke-width:0.5;"/><path d="M126.5,469.4883 L126.5,496.4883 M113.5,477.4883 L139.5,477.4883 M126.5,496.4883 L113.5,511.4883 M126.5,496.4883 L139.5,511.4883 " fill="none" filter="url(#fz2ymwbwaqdsw)" style="stroke:#181818;stroke-width:0.5;"/><text fill="#000000" font-family="sans-serif" font-size="20" lengthAdjust="spacing" textLength="62" x="95.5" y="535.3242">Owner</text></g><g id="elem_UC1"><ellipse cx="557.7443" cy="127.3371" fill="#F1F1F1" filter="url(#fz2ymwbwaqdsw)" rx="169.7443" ry="36.3489" style="stroke:#181818;stroke-width:0.5;"/><text fill="#000000" font-family="sans-serif" font-size="20" lengthAdjust="spacing" textLength="300" x="407.7443" y="132.8957">UC1 - Display listed properties</text></g><g id="elem_UC2"><ellipse cx="557.6349" cy="255.4153" fill="#F1F1F1" filter="url(#fz2ymwbwaqdsw)" rx="267.6349" ry="55.927" style="stroke:#181818;stroke-width:0.5;"/><text fill="#000000" font-family="sans-serif" font-size="20" lengthAdjust="spacing" textLength="504" x="305.6349" y="260.9739">UC2 - Publish any sale announcement on the system</text></g><g id="elem_UC3"><ellipse cx="557.6484" cy="383.618" fill="#F1F1F1" filter="url(#fz2ymwbwaqdsw)" rx="171.1484" ry="36.6297" style="stroke:#181818;stroke-width:0.5;"/><text fill="#000000" font-family="sans-serif" font-size="20" lengthAdjust="spacing" textLength="303" x="406.1484" y="389.1766">UC3 - Register a new employee</text></g><g id="elem_UC4"><ellipse cx="557.7053" cy="487.5293" fill="#F1F1F1" filter="url(#fz2ymwbwaqdsw)" rx="148.2053" ry="32.0411" style="stroke:#181818;stroke-width:0.5;"/><text fill="#000000" font-family="sans-serif" font-size="20" lengthAdjust="spacing" textLength="253" x="428.2053" y="494.4473">UC4 - Submit Sale or Rent</text></g><!--link Unregistered User to UC1--><g id="link_Unregistered User_UC1"><path d="M212.77,129.8883 C261.1,129.5583 323.39,129.1183 381.64,128.7083 " fill="none" id="Unregistered User-to-UC1" style="stroke:#181818;stroke-width:1.0;"/><polygon fill="#181818" points="386.47,128.6783,377.4473,124.7298,381.4701,128.7069,377.493,132.7296,386.47,128.6783" style="stroke:#181818;stroke-width:1.0;"/></g><!--link Organization Agent to UC2--><g id="link_Organization Agent_UC2"><path d="M219.79,253.1383 C239.38,253.2683 261,253.4183 283.56,253.5783 " fill="none" id="Organization Agent-to-UC2" style="stroke:#181818;stroke-width:1.0;"/><polygon fill="#181818" points="288.43,253.6183,279.453,249.5669,283.4301,253.5897,279.4073,257.5668,288.43,253.6183" style="stroke:#181818;stroke-width:1.0;"/></g><!--link System Administrator to UC3--><g id="link_System Administrator_UC3"><path d="M230.26,376.6483 C275.4,377.5883 329.69,378.7283 380.93,379.8083 " fill="none" id="System Administrator-to-UC3" style="stroke:#181818;stroke-width:1.0;"/><polygon fill="#181818" points="385.65,379.9083,376.7318,375.7291,380.651,379.8083,376.5718,383.7275,385.65,379.9083" style="stroke:#181818;stroke-width:1.0;"/></g><!--link Owner to UC4--><g id="link_Owner_UC4"><path d="M157.67,495.8583 C208.28,494.7983 313.58,492.5883 403.27,490.6983 " fill="none" id="Owner-to-UC4" style="stroke:#181818;stroke-width:1.0;"/><polygon fill="#181818" points="408.19,490.5983,399.1118,486.779,403.191,490.6983,399.2718,494.7774,408.19,490.5983" style="stroke:#181818;stroke-width:1.0;"/></g><!--SRC=[RP5DReCm48NtFiKecwuYjIJhIccgRbi5vG0Jc1Wh_a6s4I9Lxzx1E9HKOO4mC_EzzyRXecoB7ersrOLggEcCdOuVpiPINGcAP_4KRZrWd7LLuvqXYBuZyLTfiRgWf38Eci1J5T5AlMm83TQkLrPEaulAtFqjW9ytvsloUwUTXu6qThtu4IAgoE1Z8DWZlzuLIfuLGjCvGdJWbMmYr6g4AMU5cAcmAeSGoS2kYiw75M00J9ym2QO3h8xMarJSwNaDBEHNo-gdbsZL5KSux2JPU5U-ITH6MMPuvB_tyxqTYPnawUoMPtBL1Qh6msGhdxXf_m9hJXnQZGFeqM8DhNSj-QZoAFUaeGSfOBr-dUiBQC7Gh-x4l0RG3X2G7Q6rhhCL6Gu8d3Gs125bop95mYIf1ol9MiL_hGrh7R8lGB3K0vbMku4eSpSpDx4VxZFJD__fMwQNtSce2EKOWlTzI6uIUNj7dfodoyYuRReKyGi0]--></g></svg>