<?xml version="1.0" encoding="UTF-8" standalone="no"?><svg xmlns="http://www.w3.org/2000/svg" xmlns:xlink="http://www.w3.org/1999/xlink" contentStyleType="text/css" height="782px" preserveAspectRatio="none" style="width:864px;height:782px;background:#FFFFFF;" version="1.1" viewBox="0 0 864 782" width="864px" zoomAndPan="magnify"><defs><filter height="300%" id="faad7mbye0gfd" width="300%" x="-1" y="-1"><feGaussianBlur result="blurOut" stdDeviation="2.0"/><feColorMatrix in="blurOut" result="blurOut2" type="matrix" values="0 0 0 0 0 0 0 0 0 0 0 0 0 0 0 0 0 0 .4 0"/><feOffset dx="4.0" dy="4.0" in="blurOut2" result="blurOut3"/><feBlend in="SourceGraphic" in2="blurOut3" mode="normal"/></filter></defs><g><text fill="#000000" font-family="sans-serif" font-size="14" font-weight="bold" lengthAdjust="spacing" textLength="131" x="359.5" y="23.5352">Use Case Diagram</text><!--cluster actors--><g id="cluster_actors"><rect fill="none" filter="url(#faad7mbye0gfd)" height="510" rx="2.5" ry="2.5" style="stroke:#FFFF00;stroke-width:1.0;" width="239" x="7" y="98.4883"/><text fill="#000000" font-family="sans-serif" font-size="20" font-weight="bold" lengthAdjust="spacing" textLength="147" x="53" y="119.8242">System Actors</text></g><!--cluster usecases--><g id="cluster_usecases"><rect fill="none" filter="url(#faad7mbye0gfd)" height="726" rx="2.5" ry="2.5" style="stroke:#FFFF00;stroke-width:1.0;" width="578" x="274" y="44.4883"/><text fill="#000000" font-family="sans-serif" font-size="20" font-weight="bold" lengthAdjust="spacing" textLength="105" x="510.5" y="65.8242">Use Cases</text></g><!--entity Unregistered User--><g id="elem_Unregistered User"><ellipse cx="126.5" cy="148.7083" fill="#F1F1F1" filter="url(#faad7mbye0gfd)" rx="8" ry="8" style="stroke:#181818;stroke-width:0.5;"/><path d="M126.5,156.7083 L126.5,183.7083 M113.5,164.7083 L139.5,164.7083 M126.5,183.7083 L113.5,198.7083 M126.5,183.7083 L139.5,198.7083 " fill="none" filter="url(#faad7mbye0gfd)" style="stroke:#181818;stroke-width:0.5;"/><text fill="#000000" font-family="sans-serif" font-size="20" lengthAdjust="spacing" textLength="172" x="40.5" y="222.5442">Unregistered User</text></g><!--entity Organization Agent--><g id="elem_Organization Agent"><ellipse cx="126.5" cy="270.7083" fill="#F1F1F1" filter="url(#faad7mbye0gfd)" rx="8" ry="8" style="stroke:#181818;stroke-width:0.5;"/><path d="M126.5,278.7083 L126.5,305.7083 M113.5,286.7083 L139.5,286.7083 M126.5,305.7083 L113.5,320.7083 M126.5,305.7083 L139.5,320.7083 " fill="none" filter="url(#faad7mbye0gfd)" style="stroke:#181818;stroke-width:0.5;"/><text fill="#000000" font-family="sans-serif" font-size="20" lengthAdjust="spacing" textLength="186" x="33.5" y="344.5442">Organization Agent</text></g><!--entity System Administrator--><g id="elem_System Administrator"><ellipse cx="126.5" cy="392.7083" fill="#F1F1F1" filter="url(#faad7mbye0gfd)" rx="8" ry="8" style="stroke:#181818;stroke-width:0.5;"/><path d="M126.5,400.7083 L126.5,427.7083 M113.5,408.7083 L139.5,408.7083 M126.5,427.7083 L113.5,442.7083 M126.5,427.7083 L139.5,442.7083 " fill="none" filter="url(#faad7mbye0gfd)" style="stroke:#181818;stroke-width:0.5;"/><text fill="#000000" font-family="sans-serif" font-size="20" lengthAdjust="spacing" textLength="207" x="23" y="466.5442">System Administrator</text></g><!--entity Owner--><g id="elem_Owner"><ellipse cx="126.5" cy="514.7083" fill="#F1F1F1" filter="url(#faad7mbye0gfd)" rx="8" ry="8" style="stroke:#181818;stroke-width:0.5;"/><path d="M126.5,522.7083 L126.5,549.7083 M113.5,530.7083 L139.5,530.7083 M126.5,549.7083 L113.5,564.7083 M126.5,549.7083 L139.5,564.7083 " fill="none" filter="url(#faad7mbye0gfd)" style="stroke:#181818;stroke-width:0.5;"/><text fill="#000000" font-family="sans-serif" font-size="20" lengthAdjust="spacing" textLength="62" x="95.5" y="588.5442">Owner</text></g><g id="elem_UC1"><ellipse cx="563.0043" cy="122.4871" fill="#F1F1F1" filter="url(#faad7mbye0gfd)" rx="169.7443" ry="36.3489" style="stroke:#181818;stroke-width:0.5;"/><text fill="#000000" font-family="sans-serif" font-size="20" lengthAdjust="spacing" textLength="300" x="413.0043" y="128.0457">UC1 - Display listed properties</text></g><g id="elem_UC2"><ellipse cx="563.0049" cy="249.4853" fill="#F1F1F1" filter="url(#faad7mbye0gfd)" rx="267.6349" ry="55.927" style="stroke:#181818;stroke-width:0.5;"/><text fill="#000000" font-family="sans-serif" font-size="20" lengthAdjust="spacing" textLength="504" x="311.0049" y="255.0439">UC2 - Publish any sale announcement on the system</text></g><g id="elem_UC3"><ellipse cx="562.9984" cy="377.488" fill="#F1F1F1" filter="url(#faad7mbye0gfd)" rx="171.1484" ry="36.6297" style="stroke:#181818;stroke-width:0.5;"/><text fill="#000000" font-family="sans-serif" font-size="20" lengthAdjust="spacing" textLength="303" x="411.4984" y="383.0466">UC3 - Register a new employee</text></g><g id="elem_UC4"><ellipse cx="562.9953" cy="722.4893" fill="#F1F1F1" filter="url(#faad7mbye0gfd)" rx="148.2053" ry="32.0411" style="stroke:#181818;stroke-width:0.5;"/><text fill="#000000" font-family="sans-serif" font-size="20" lengthAdjust="spacing" textLength="253" x="433.4953" y="729.4073">UC4 - Submit Sale or Rent</text></g><g id="elem_UC5"><ellipse cx="562.998" cy="477.4879" fill="#F1F1F1" filter="url(#faad7mbye0gfd)" rx="131.548" ry="28.7096" style="stroke:#181818;stroke-width:0.5;"/><text fill="#000000" font-family="sans-serif" font-size="20" lengthAdjust="spacing" textLength="215" x="452.498" y="484.4058">UC5 - Register a Store</text></g><g id="elem_UC6"><ellipse cx="562.9998" cy="598.4882" fill="#F1F1F1" filter="url(#faad7mbye0gfd)" rx="272.9998" ry="57" style="stroke:#181818;stroke-width:0.5;"/><text fill="#000000" font-family="sans-serif" font-size="20" lengthAdjust="spacing" textLength="515" x="305.4998" y="604.0468">UC6 - Specify states, districts and cities in the system</text></g><!--link Unregistered User to UC1--><g id="link_Unregistered User_UC1"><path d="M212.82,171.5083 C270.16,163.4583 347.22,152.6383 414.36,143.2183 " fill="none" id="Unregistered User-to-UC1" style="stroke:#181818;stroke-width:1.0;"/><polygon fill="#181818" points="419,142.4283,409.528,139.7298,414.0494,143.1294,410.6498,147.6507,419,142.4283" style="stroke:#181818;stroke-width:1.0;"/></g><!--link Organization Agent to UC2--><g id="link_Organization Agent_UC2"><path d="M219.91,293.5783 C252.21,289.4183 290.08,284.5383 328.63,279.5683 " fill="none" id="Organization Agent-to-UC2" style="stroke:#181818;stroke-width:1.0;"/><polygon fill="#181818" points="333.33,278.8283,323.8903,276.019,328.3715,279.4713,324.9192,283.9525,333.33,278.8283" style="stroke:#181818;stroke-width:1.0;"/></g><!--link System Administrator to UC3--><g id="link_System Administrator_UC3"><path d="M230.47,415.6383 C282.86,409.6083 347.65,402.1583 406.01,395.4383 " fill="none" id="System Administrator-to-UC3" style="stroke:#181818;stroke-width:1.0;"/><polygon fill="#181818" points="410.64,394.7883,401.2411,391.8452,405.6729,395.3609,402.1573,399.7926,410.64,394.7883" style="stroke:#181818;stroke-width:1.0;"/></g><!--link Owner to UC4--><g id="link_Owner_UC4"><path d="M157.99,585.9983 C183.76,614.2883 223.22,651.9983 266,672.4883 C311.28,694.1783 364.4,706.6283 413.04,713.7183 " fill="none" id="Owner-to-UC4" style="stroke:#181818;stroke-width:1.0;"/><polygon fill="#181818" points="417.95,714.5483,409.5998,709.3258,412.9994,713.8472,408.478,717.2468,417.95,714.5483" style="stroke:#181818;stroke-width:1.0;"/></g><!--link System Administrator to UC5--><g id="link_System Administrator_UC5"><path d="M230.47,439.3383 C293.32,446.5683 374.01,455.8583 440.04,463.4583 " fill="none" id="System Administrator-to-UC5" style="stroke:#181818;stroke-width:1.0;"/><polygon fill="#181818" points="444.98,464.1383,436.4956,459.1367,440.0127,463.5673,435.5821,467.0844,444.98,464.1383" style="stroke:#181818;stroke-width:1.0;"/></g><!--link System Administrator to UC6--><g id="link_System Administrator_UC6"><path d="M230.35,467.8283 C239.04,473.8783 247.12,480.7383 254,488.4883 C264.92,500.7883 253.9,512.3483 266,523.4883 C284.67,540.6883 306.71,554.0683 330.21,564.4683 " fill="none" id="System Administrator-to-UC6" style="stroke:#181818;stroke-width:1.0;"/><polygon fill="#181818" points="334.56,566.7783,327.8715,559.5489,329.9665,564.8035,324.7119,566.8985,334.56,566.7783" style="stroke:#181818;stroke-width:1.0;"/></g><!--SRC=[ZP9DRkCm38NtEWMHJJSDqCdVia0dWzbsKAC7O6N69Y9BXaGZS0Uz-z2oat62BEf5O8NazzwZbOxiMupOk62FL4991-oS_0vU2luaM3sPXtJkWIRuOEiO6WA97Pd_bHRj4Iigf7S4aQoWhzoy8TLOXXFxQfoSLIxTVmteypF4ak8-k12X9-V2oNmP8omAVay4UzIVNuoLpXhZw20W0I9NjK390uo3D-P2XKNH9w46Ngo4c1Q02J2_mYYO3x1uzv4griweQr2Xk9XNNsE5dZznWCDBHLwkocU9ic6lZ8Zwx_NyoGz4JJ9tTiupkkeIsU4msffEshJ_0KjDd5g7FRZ1OWbj32r5uMbKU_BGdHImN3vVwZFeIg5_kW_brO2-XuJg2BqFdRVKQ43Gf58Jf9njabbbJ9Qwiv99QtMhjLQjjyaN87Ww0JMj2ptHn5rVk9bzTvyJVNrBtoYzw3uQ5YY64Bhlj-mcapTNvD5v_XWJRdEBsrwRBLJwx7BxVPVRM-nkSDcIvOFkMb0eFUfzrIcseZVIbs1v-9x0TzQ- -xxmBbyoymy0]--></g></svg>