<?xml version="1.0" encoding="us-ascii" standalone="no"?><svg xmlns="http://www.w3.org/2000/svg" xmlns:xlink="http://www.w3.org/1999/xlink" contentStyleType="text/css" height="660px" preserveAspectRatio="none" style="width:682px;height:660px;background:#FFFFFF;" version="1.1" viewBox="0 0 682 660" width="682px" zoomAndPan="magnify"><defs><filter height="300%" id="f1fb2c54dt6qek" width="300%" x="-1" y="-1"><feGaussianBlur result="blurOut" stdDeviation="2.0"/><feColorMatrix in="blurOut" result="blurOut2" type="matrix" values="0 0 0 0 0 0 0 0 0 0 0 0 0 0 0 0 0 0 .4 0"/><feOffset dx="4.0" dy="4.0" in="blurOut2" result="blurOut3"/><feBlend in="SourceGraphic" in2="blurOut3" mode="normal"/></filter></defs><g><text fill="#000000" font-family="sans-serif" font-size="14" font-weight="bold" lengthAdjust="spacing" textLength="145" x="261.5" y="22.9951">Use Case Diagram</text><!--cluster actors--><g id="cluster_actors"><rect fill="none" filter="url(#f1fb2c54dt6qek)" height="473" rx="2.5" ry="2.5" style="stroke:#FFFF00;stroke-width:1.0;" width="190" x="7" y="72.2969"/><text fill="#000000" font-family="sans-serif" font-size="14" font-weight="bold" lengthAdjust="spacing" textLength="119" x="42.5" y="87.292">System Actors</text></g><!--cluster usecases--><g id="cluster_usecases"><rect fill="none" filter="url(#f1fb2c54dt6qek)" height="604" rx="2.5" ry="2.5" style="stroke:#FFFF00;stroke-width:1.0;" width="445" x="225" y="44.2969"/><text fill="#000000" font-family="sans-serif" font-size="14" font-weight="bold" lengthAdjust="spacing" textLength="81" x="407" y="59.292">Use Cases</text></g><!--entity Unregistered User--><g id="elem_Unregistered User"><ellipse cx="102" cy="116.2969" fill="#F1F1F1" filter="url(#f1fb2c54dt6qek)" rx="8" ry="8" style="stroke:#181818;stroke-width:0.5;"/><path d="M102,124.2969 L102,151.2969 M89,132.2969 L115,132.2969 M102,151.2969 L89,166.2969 M102,151.2969 L115,166.2969 " fill="none" filter="url(#f1fb2c54dt6qek)" style="stroke:#181818;stroke-width:0.5;"/><text fill="#000000" font-family="sans-serif" font-size="14" lengthAdjust="spacing" textLength="128" x="38" y="183.792">Unregistered User</text></g><!--entity Organization Agent--><g id="elem_Organization Agent"><ellipse cx="102" cy="230.2969" fill="#F1F1F1" filter="url(#f1fb2c54dt6qek)" rx="8" ry="8" style="stroke:#181818;stroke-width:0.5;"/><path d="M102,238.2969 L102,265.2969 M89,246.2969 L115,246.2969 M102,265.2969 L89,280.2969 M102,265.2969 L115,280.2969 " fill="none" filter="url(#f1fb2c54dt6qek)" style="stroke:#181818;stroke-width:0.5;"/><text fill="#000000" font-family="sans-serif" font-size="14" lengthAdjust="spacing" textLength="140" x="32" y="297.792">Organization Agent</text></g><!--entity System Administrator--><g id="elem_System Administrator"><ellipse cx="102" cy="344.2969" fill="#F1F1F1" filter="url(#f1fb2c54dt6qek)" rx="8" ry="8" style="stroke:#181818;stroke-width:0.5;"/><path d="M102,352.2969 L102,379.2969 M89,360.2969 L115,360.2969 M102,379.2969 L89,394.2969 M102,379.2969 L115,394.2969 " fill="none" filter="url(#f1fb2c54dt6qek)" style="stroke:#181818;stroke-width:0.5;"/><text fill="#000000" font-family="sans-serif" font-size="14" lengthAdjust="spacing" textLength="158" x="23" y="411.792">System Administrator</text></g><!--entity Owner--><g id="elem_Owner"><ellipse cx="102" cy="458.2969" fill="#F1F1F1" filter="url(#f1fb2c54dt6qek)" rx="8" ry="8" style="stroke:#181818;stroke-width:0.5;"/><path d="M102,466.2969 L102,493.2969 M89,474.2969 L115,474.2969 M102,493.2969 L89,508.2969 M102,493.2969 L115,508.2969 " fill="none" filter="url(#f1fb2c54dt6qek)" style="stroke:#181818;stroke-width:0.5;"/><text fill="#000000" font-family="sans-serif" font-size="14" lengthAdjust="spacing" textLength="46" x="79" y="525.792">Owner</text></g><g id="elem_UC1"><ellipse cx="447.4752" cy="107.2919" fill="#F1F1F1" filter="url(#f1fb2c54dt6qek)" rx="125.4752" ry="27.495" style="stroke:#181818;stroke-width:0.5;"/><text fill="#000000" font-family="sans-serif" font-size="14" lengthAdjust="spacing" textLength="219" x="337.9752" y="110.1386">UC1 - Display listed properties</text></g><g id="elem_UC2"><ellipse cx="447.2751" cy="212.0519" fill="#F1F1F1" filter="url(#f1fb2c54dt6qek)" rx="199.2751" ry="42.255" style="stroke:#181818;stroke-width:0.5;"/><text fill="#000000" font-family="sans-serif" font-size="14" lengthAdjust="spacing" textLength="372" x="261.2751" y="214.8986">UC2 - Publish any sale announcement on the system</text></g><g id="elem_UC3"><ellipse cx="447.3356" cy="318.264" fill="#F1F1F1" filter="url(#f1fb2c54dt6qek)" rx="127.8356" ry="27.9671" style="stroke:#181818;stroke-width:0.5;"/><text fill="#000000" font-family="sans-serif" font-size="14" lengthAdjust="spacing" textLength="224" x="335.3356" y="321.1107">UC3 - Register a new employee</text></g><g id="elem_UC4"><ellipse cx="447.5935" cy="607.1156" fill="#F1F1F1" filter="url(#f1fb2c54dt6qek)" rx="109.5935" ry="24.3187" style="stroke:#181818;stroke-width:0.5;"/><text fill="#000000" font-family="sans-serif" font-size="14" lengthAdjust="spacing" textLength="185" x="355.0935" y="609.9623">UC4 - Submit Sale or Rent</text></g><g id="elem_UC5"><ellipse cx="447.711" cy="403.2391" fill="#F1F1F1" filter="url(#f1fb2c54dt6qek)" rx="97.711" ry="21.9422" style="stroke:#181818;stroke-width:0.5;"/><text fill="#000000" font-family="sans-serif" font-size="14" lengthAdjust="spacing" textLength="159" x="368.211" y="406.0858">UC5 - Register a Store</text></g><g id="elem_UC6"><ellipse cx="447.6177" cy="504.5204" fill="#F1F1F1" filter="url(#f1fb2c54dt6qek)" rx="206.6177" ry="43.7235" style="stroke:#181818;stroke-width:0.5;"/><text fill="#000000" font-family="sans-serif" font-size="14" lengthAdjust="spacing" textLength="387" x="254.1177" y="507.3671">UC6 - Specify states, districts and cities in the system</text></g><!--link Unregistered User to UC1--><g id="link_Unregistered User_UC1"><path d="M166.003,139.9599 C212.159,134.5859 276.116,127.1379 331.303,120.7119 " fill="none" id="Unregistered User-to-UC1" style="stroke:#181818;stroke-width:1.0;"/><polygon fill="#181818" points="336.275,120.1329,326.8726,117.2013,331.3086,120.7115,327.7984,125.1476,336.275,120.1329" style="stroke:#181818;stroke-width:1.0;"/></g><!--link Organization Agent to UC2--><g id="link_Organization Agent_UC2"><path d="M172.099,251.4399 C202.38,247.1209 239.384,241.8419 276.294,236.5769 " fill="none" id="Organization Agent-to-UC2" style="stroke:#181818;stroke-width:1.0;"/><polygon fill="#181818" points="281.264,235.8679,271.7894,233.1786,276.3141,236.5738,272.9189,241.0984,281.264,235.8679" style="stroke:#181818;stroke-width:1.0;"/></g><!--link System Administrator to UC3--><g id="link_System Administrator_UC3"><path d="M181.375,362.2909 C228.371,354.4929 288.769,344.4709 340.044,335.9619 " fill="none" id="System Administrator-to-UC3" style="stroke:#181818;stroke-width:1.0;"/><polygon fill="#181818" points="344.977,335.1439,335.4436,332.6712,340.0445,335.9624,336.7532,340.5632,344.977,335.1439" style="stroke:#181818;stroke-width:1.0;"/></g><!--link Owner to UC4--><g id="link_Owner_UC4"><path d="M125.011,507.9849 C146.902,525.5539 182.161,551.1999 217,565.2969 C255.899,581.0372 300.899,590.9161 340.692,597.0999 " fill="none" id="Owner-to-UC4" style="stroke:#181818;stroke-width:1.0;"/><polygon fill="#181818" points="346.02,597.9106,337.7249,592.601,341.077,597.1577,336.5203,600.5098,346.02,597.9106" style="stroke:#181818;stroke-width:1.0;"/></g><!--link System Administrator to UC5--><g id="link_System Administrator_UC5"><path d="M181.375,381.6859 C231.537,385.7749 296.965,391.1079 350.273,395.4529 " fill="none" id="System Administrator-to-UC5" style="stroke:#181818;stroke-width:1.0;"/><polygon fill="#181818" points="355.393,395.8709,346.7486,391.1512,350.4096,395.4637,346.0971,399.1247,355.393,395.8709" style="stroke:#181818;stroke-width:1.0;"/></g><!--link System Administrator to UC6--><g id="link_System Administrator_UC6"><path d="M178.607,414.9179 C187.7,420.4459 196.697,426.2969 205,432.2969 C210.864,436.5349 210.654,439.8229 217,443.2969 C239.376,455.5459 264.342,465.4379 289.34,473.3959 " fill="none" id="System Administrator-to-UC6" style="stroke:#181818;stroke-width:1.0;"/><polygon fill="#181818" points="294.339,474.9619,286.9458,468.4549,289.5675,473.4676,284.5549,476.0893,294.339,474.9619" style="stroke:#181818;stroke-width:1.0;"/></g><!--SRC=[ZPBFReCm3CRlUGghbrtMm_hlEAdhxfkAzW1Uy21gI51YLB5fxpudq8vMFPG38jZ-VTzdU8W7ureCs43ZdTTry0q1XuxKVwL5VS2A2kujGI3Dw2exROWrblveN3LCJYhdxXy5ShtuK5BOUUi3z6IjFwfVfTYmW3yYmGxbzcgmabcbB7qni8TWgfgXD0bcl5FgJ8LPqKUc1hQQVOWpm0YO7s4Gp0UOVRX0bP7EG6KI2hDfzIrKwCmt9ZXiAt9yKJv9b8rnmWWeRo_dZouH9SdKsIdFuAgBfDDXi3MUf6dt17D975kBFTXaiOGs-9O2ct5KUlBGZHGmdp-VwnFeGg3ltQVmQa3NGqHnXCxvpcbg9218Kgu9OiusoYmo9alTMCcejRZMMehMVlG528wEG4rhVKyqSfTdRcRVtET8NrxJLq8lki_6C1GfXEnxdzraykg2F3ZF7sF4hQvnwqkpXKYVNAxlTxc-ncwIovQq-P9TCpB5H_bVPSfebZ_IbQ1D-fvWRgnzSx_mHlt-0G00]--></g></svg>