<?xml version="1.0" encoding="UTF-8" standalone="no"?><svg xmlns="http://www.w3.org/2000/svg" xmlns:xlink="http://www.w3.org/1999/xlink" contentStyleType="text/css" height="568px" preserveAspectRatio="none" style="width:853px;height:568px;background:#FFFFFF;" version="1.1" viewBox="0 0 853 568" width="853px" zoomAndPan="magnify"><defs><filter height="300%" id="ffof545rgofdn" width="300%" x="-1" y="-1"><feGaussianBlur result="blurOut" stdDeviation="2.0"/><feColorMatrix in="blurOut" result="blurOut2" type="matrix" values="0 0 0 0 0 0 0 0 0 0 0 0 0 0 0 0 0 0 .4 0"/><feOffset dx="4.0" dy="4.0" in="blurOut2" result="blurOut3"/><feBlend in="SourceGraphic" in2="blurOut3" mode="normal"/></filter></defs><g><text fill="#000000" font-family="sans-serif" font-size="14" font-weight="bold" lengthAdjust="spacing" textLength="131" x="354" y="23.5352">Use Case Diagram</text><!--cluster actors--><g id="cluster_actors"><rect fill="none" filter="url(#ffof545rgofdn)" height="512" rx="2.5" ry="2.5" style="stroke:#FFFF00;stroke-width:1.0;" width="239" x="7" y="44.4883"/><text fill="#000000" font-family="sans-serif" font-size="20" font-weight="bold" lengthAdjust="spacing" textLength="147" x="53" y="65.8242">System Actors</text></g><!--cluster usecases--><g id="cluster_usecases"><rect fill="none" filter="url(#ffof545rgofdn)" height="493" rx="2.5" ry="2.5" style="stroke:#FFFF00;stroke-width:1.0;" width="567" x="274" y="48.4883"/><text fill="#000000" font-family="sans-serif" font-size="20" font-weight="bold" lengthAdjust="spacing" textLength="105" x="505" y="69.8242">Use Cases</text></g><!--entity Unregistered User--><g id="elem_Unregistered User"><ellipse cx="126.5" cy="95.4883" fill="#F1F1F1" filter="url(#ffof545rgofdn)" rx="8" ry="8" style="stroke:#181818;stroke-width:0.5;"/><path d="M126.5,103.4883 L126.5,130.4883 M113.5,111.4883 L139.5,111.4883 M126.5,130.4883 L113.5,145.4883 M126.5,130.4883 L139.5,145.4883 " fill="none" filter="url(#ffof545rgofdn)" style="stroke:#181818;stroke-width:0.5;"/><text fill="#000000" font-family="sans-serif" font-size="20" lengthAdjust="spacing" textLength="172" x="40.5" y="169.3242">Unregistered User</text></g><!--entity Organization Agent--><g id="elem_Organization Agent"><ellipse cx="126.5" cy="217.4883" fill="#F1F1F1" filter="url(#ffof545rgofdn)" rx="8" ry="8" style="stroke:#181818;stroke-width:0.5;"/><path d="M126.5,225.4883 L126.5,252.4883 M113.5,233.4883 L139.5,233.4883 M126.5,252.4883 L113.5,267.4883 M126.5,252.4883 L139.5,267.4883 " fill="none" filter="url(#ffof545rgofdn)" style="stroke:#181818;stroke-width:0.5;"/><text fill="#000000" font-family="sans-serif" font-size="20" lengthAdjust="spacing" textLength="186" x="33.5" y="291.3242">Organization Agent</text></g><!--entity System Administrator--><g id="elem_System Administrator"><ellipse cx="126.5" cy="339.4883" fill="#F1F1F1" filter="url(#ffof545rgofdn)" rx="8" ry="8" style="stroke:#181818;stroke-width:0.5;"/><path d="M126.5,347.4883 L126.5,374.4883 M113.5,355.4883 L139.5,355.4883 M126.5,374.4883 L113.5,389.4883 M126.5,374.4883 L139.5,389.4883 " fill="none" filter="url(#ffof545rgofdn)" style="stroke:#181818;stroke-width:0.5;"/><text fill="#000000" font-family="sans-serif" font-size="20" lengthAdjust="spacing" textLength="207" x="23" y="413.3242">System Administrator</text></g><!--entity Owner--><g id="elem_Owner"><ellipse cx="126.5" cy="461.4883" fill="#F1F1F1" filter="url(#ffof545rgofdn)" rx="8" ry="8" style="stroke:#181818;stroke-width:0.5;"/><path d="M126.5,469.4883 L126.5,496.4883 M113.5,477.4883 L139.5,477.4883 M126.5,496.4883 L113.5,511.4883 M126.5,496.4883 L139.5,511.4883 " fill="none" filter="url(#ffof545rgofdn)" style="stroke:#181818;stroke-width:0.5;"/><text fill="#000000" font-family="sans-serif" font-size="20" lengthAdjust="spacing" textLength="62" x="95.5" y="535.3242">Owner</text></g><g id="elem_UC1"><ellipse cx="557.7443" cy="127.3371" fill="#F1F1F1" filter="url(#ffof545rgofdn)" rx="169.7443" ry="36.3489" style="stroke:#181818;stroke-width:0.5;"/><text fill="#000000" font-family="sans-serif" font-size="20" lengthAdjust="spacing" textLength="300" x="407.7443" y="132.8957">UC1 - Display listed properties</text></g><g id="elem_UC2"><ellipse cx="557.6349" cy="255.4153" fill="#F1F1F1" filter="url(#ffof545rgofdn)" rx="267.6349" ry="55.927" style="stroke:#181818;stroke-width:0.5;"/><text fill="#000000" font-family="sans-serif" font-size="20" lengthAdjust="spacing" textLength="504" x="305.6349" y="260.9739">UC2 - Publish any sale announcement on the system</text></g><g id="elem_UC3"><ellipse cx="557.3091" cy="382.6501" fill="#F1F1F1" filter="url(#ffof545rgofdn)" rx="168.8091" ry="36.1618" style="stroke:#181818;stroke-width:0.5;"/><text fill="#000000" font-family="sans-serif" font-size="20" lengthAdjust="spacing" textLength="298" x="408.3091" y="388.2087">UC3 - register a new employee</text></g><g id="elem_UC4"><ellipse cx="557.3091" cy="489.6501" fill="#F1F1F1" filter="url(#ffof545rgofdn)" rx="168.8091" ry="36.1618" style="stroke:#181818;stroke-width:0.5;"/><text fill="#000000" font-family="sans-serif" font-size="20" lengthAdjust="spacing" textLength="298" x="408.3091" y="495.2087">UC4 - register a new employee</text></g><!--link Unregistered User to UC1--><g id="link_Unregistered User_UC1"><path d="M212.77,129.8883 C261.1,129.5583 323.39,129.1183 381.64,128.7083 " fill="none" id="Unregistered User-to-UC1" style="stroke:#181818;stroke-width:1.0;"/><polygon fill="#181818" points="386.47,128.6783,377.4473,124.7298,381.4701,128.7069,377.493,132.7296,386.47,128.6783" style="stroke:#181818;stroke-width:1.0;"/></g><!--link Organization Agent to UC2--><g id="link_Organization Agent_UC2"><path d="M219.79,253.1383 C239.38,253.2683 261,253.4183 283.56,253.5783 " fill="none" id="Organization Agent-to-UC2" style="stroke:#181818;stroke-width:1.0;"/><polygon fill="#181818" points="288.43,253.6183,279.453,249.5669,283.4301,253.5897,279.4073,257.5668,288.43,253.6183" style="stroke:#181818;stroke-width:1.0;"/></g><!--link System Administrator to UC3--><g id="link_System Administrator_UC3"><path d="M230.26,376.4083 C275.87,377.2583 330.84,378.2783 382.55,379.2483 " fill="none" id="System Administrator-to-UC3" style="stroke:#181818;stroke-width:1.0;"/><polygon fill="#181818" points="387.32,379.3383,378.4018,375.1591,382.321,379.2383,378.2418,383.1575,387.32,379.3383" style="stroke:#181818;stroke-width:1.0;"/></g><!--link Owner to UC4--><g id="link_Owner_UC4"><path d="M157.67,495.9983 C204.37,495.2383 297.63,493.7083 382.23,492.3283 " fill="none" id="Owner-to-UC4" style="stroke:#181818;stroke-width:1.0;"/><polygon fill="#181818" points="387.05,492.2483,377.9828,488.4031,382.0507,492.334,378.1199,496.402,387.05,492.2483" style="stroke:#181818;stroke-width:1.0;"/></g><!--SRC=[XP7FQiCm3CRlVWgHoqw5BUrvq7Nika7f0sY9wfWwTf0TGZhsxbESFqj7OJc4A99-t_VPuM9SWuorzSM5IYZfZAsDRzx5exaIv8_g8SmpK7ldYufzJH2v9VNRQR2ueAPZx2q1Kn7HQRiU21MMlZDEZvkhpZBzfK2U5yybyS5Rpz2JjRvJtqf54mLy2WG7bDUhGIsxIbawHuWUsEWgGca6cF5EgOKAsR4FaMhO5z5po003OFg4KJ0La9qSapOooN8C8iJPkllE6fsvuW27lIONRzgpH5aR9mn6-Nkxtxc1A4dMpkOyewisK34Kewsfag734smaSMWizc07YoKqx1lYQAPLcKbBTrB0PlEyz5VGNA0VxQVmAa3NGq1nXCxvrXLKIq2GfB4Y22dR99CdJ9AwSoIJLlvNQojQioz0SDG1rOtrFT74tIxSnBvxdXDz-vU- -vU-kw6FxjE5JCXTkXZr0m00]--></g></svg>