<?xml version="1.0" encoding="UTF-8" standalone="no"?><svg xmlns="http://www.w3.org/2000/svg" xmlns:xlink="http://www.w3.org/1999/xlink" contentStyleType="text/css" height="1623px" preserveAspectRatio="none" style="width:2515px;height:1623px;background:#FFFFFF;" version="1.1" viewBox="0 0 2515 1623" width="2515px" zoomAndPan="magnify"><defs/><g><rect fill="#FFFFFF" height="1419.0781" style="stroke:#181818;stroke-width:1.0;" width="10" x="31" y="98.5547"/><rect fill="#FFFFFF" height="901.3125" style="stroke:#181818;stroke-width:1.0;" width="10" x="496" y="128.1094"/><rect fill="#FFFFFF" height="413.1016" style="stroke:#181818;stroke-width:1.0;" width="10" x="496" y="1066.9766"/><rect fill="#FFFFFF" height="375.5469" style="stroke:#181818;stroke-width:1.0;" width="10" x="1054" y="165.6641"/><rect fill="#FFFFFF" height="413.1016" style="stroke:#181818;stroke-width:1.0;" width="10" x="1054" y="578.7656"/><rect fill="#FFFFFF" height="337.9922" style="stroke:#181818;stroke-width:1.0;" width="10" x="1054" y="1104.5313"/><rect fill="#FFFFFF" height="37.5547" style="stroke:#181818;stroke-width:1.0;" width="10" x="1390" y="203.2188"/><rect fill="#FFFFFF" height="1248.3047" style="stroke:#181818;stroke-width:1.0;" width="10" x="1390" y="278.3281"/><rect fill="#FFFFFF" height="37.5547" style="stroke:#181818;stroke-width:1.0;" width="10" x="1835" y="466.1016"/><rect fill="#FFFFFF" height="37.5547" style="stroke:#181818;stroke-width:1.0;" width="10" x="1835" y="616.3203"/><rect fill="#FFFFFF" height="37.5547" style="stroke:#181818;stroke-width:1.0;" width="10" x="1835" y="841.6484"/><rect fill="#FFFFFF" height="37.5547" style="stroke:#181818;stroke-width:1.0;" width="10" x="1835" y="916.7578"/><rect fill="#FFFFFF" height="37.5547" style="stroke:#181818;stroke-width:1.0;" width="10" x="1835" y="1142.0859"/><rect fill="#FFFFFF" height="37.5547" style="stroke:#181818;stroke-width:1.0;" width="10" x="1835" y="1367.4141"/><rect fill="#FFFFFF" height="37.5547" style="stroke:#181818;stroke-width:1.0;" width="10" x="2108.5" y="315.8828"/><rect fill="#FFFFFF" height="37.5547" style="stroke:#181818;stroke-width:1.0;" width="10" x="2108.5" y="691.4297"/><rect fill="#FFFFFF" height="37.5547" style="stroke:#181818;stroke-width:1.0;" width="10" x="2108.5" y="1217.1953"/><rect fill="#FFFFFF" height="37.5547" style="stroke:#181818;stroke-width:1.0;" width="10" x="2376.5" y="390.9922"/><rect fill="#FFFFFF" height="37.5547" style="stroke:#181818;stroke-width:1.0;" width="10" x="2376.5" y="766.5391"/><rect fill="#FFFFFF" height="37.5547" style="stroke:#181818;stroke-width:1.0;" width="10" x="2376.5" y="1292.3047"/><line style="stroke:#181818;stroke-width:0.5;stroke-dasharray:5.0,5.0;" x1="36" x2="36" y1="88.5547" y2="1535.6328"/><line style="stroke:#181818;stroke-width:0.5;stroke-dasharray:5.0,5.0;" x1="500.5" x2="500.5" y1="88.5547" y2="1535.6328"/><line style="stroke:#181818;stroke-width:0.5;stroke-dasharray:5.0,5.0;" x1="1059" x2="1059" y1="88.5547" y2="1535.6328"/><line style="stroke:#181818;stroke-width:0.5;stroke-dasharray:5.0,5.0;" x1="1394.5" x2="1394.5" y1="88.5547" y2="1535.6328"/><line style="stroke:#181818;stroke-width:0.5;stroke-dasharray:5.0,5.0;" x1="1840" x2="1840" y1="88.5547" y2="1535.6328"/><line style="stroke:#181818;stroke-width:0.5;stroke-dasharray:5.0,5.0;" x1="2113" x2="2113" y1="88.5547" y2="1535.6328"/><line style="stroke:#181818;stroke-width:0.5;stroke-dasharray:5.0,5.0;" x1="2381" x2="2381" y1="88.5547" y2="1535.6328"/><text fill="#000000" font-family="sans-serif" font-size="20" lengthAdjust="spacing" textLength="56" x="5" y="84.3359">Agent</text><ellipse cx="36" cy="13.5" fill="#E3E3E3" rx="8" ry="8" style="stroke:#181818;stroke-width:0.5;"/><path d="M36,21.5 L36,48.5 M23,29.5 L49,29.5 M36,48.5 L23,63.5 M36,48.5 L49,63.5 " fill="none" style="stroke:#181818;stroke-width:0.5;"/><text fill="#000000" font-family="sans-serif" font-size="20" lengthAdjust="spacing" textLength="56" x="5" y="1553.9688">Agent</text><ellipse cx="36" cy="1566.6875" fill="#E3E3E3" rx="8" ry="8" style="stroke:#181818;stroke-width:0.5;"/><path d="M36,1574.6875 L36,1601.6875 M23,1582.6875 L49,1582.6875 M36,1601.6875 L23,1616.6875 M36,1601.6875 L49,1616.6875 " fill="none" style="stroke:#181818;stroke-width:0.5;"/><rect fill="#E3E3E3" height="37.5547" rx="2.5" ry="2.5" style="stroke:#181818;stroke-width:0.5;" width="293" x="354.5" y="50"/><text fill="#000000" font-family="sans-serif" font-size="20" lengthAdjust="spacing" textLength="279" x="361.5" y="76.3359">:PublishSaleAnnouncementUI</text><rect fill="#E3E3E3" height="37.5547" rx="2.5" ry="2.5" style="stroke:#181818;stroke-width:0.5;" width="293" x="354.5" y="1534.6328"/><text fill="#000000" font-family="sans-serif" font-size="20" lengthAdjust="spacing" textLength="279" x="361.5" y="1560.9688">:PublishSaleAnnouncementUI</text><rect fill="#E3E3E3" height="37.5547" rx="2.5" ry="2.5" style="stroke:#181818;stroke-width:0.5;" width="330" x="894" y="50"/><text fill="#000000" font-family="sans-serif" font-size="20" lengthAdjust="spacing" textLength="316" x="901" y="76.3359">:PublishAnnouncementController</text><rect fill="#E3E3E3" height="37.5547" rx="2.5" ry="2.5" style="stroke:#181818;stroke-width:0.5;" width="330" x="894" y="1534.6328"/><text fill="#000000" font-family="sans-serif" font-size="20" lengthAdjust="spacing" textLength="316" x="901" y="1560.9688">:PublishAnnouncementController</text><rect fill="#E3E3E3" height="37.5547" rx="2.5" ry="2.5" style="stroke:#181818;stroke-width:0.5;" width="139" x="1325.5" y="50"/><text fill="#000000" font-family="sans-serif" font-size="20" lengthAdjust="spacing" textLength="125" x="1332.5" y="76.3359">:Repositories</text><rect fill="#E3E3E3" height="37.5547" rx="2.5" ry="2.5" style="stroke:#181818;stroke-width:0.5;" width="139" x="1325.5" y="1534.6328"/><text fill="#000000" font-family="sans-serif" font-size="20" lengthAdjust="spacing" textLength="125" x="1332.5" y="1560.9688">:Repositories</text><rect fill="#E3E3E3" height="37.5547" rx="2.5" ry="2.5" style="stroke:#181818;stroke-width:0.5;" width="266" x="1707" y="50"/><text fill="#000000" font-family="sans-serif" font-size="20" lengthAdjust="spacing" textLength="252" x="1714" y="76.3359">:AnnouncementRepository</text><rect fill="#E3E3E3" height="37.5547" rx="2.5" ry="2.5" style="stroke:#181818;stroke-width:0.5;" width="266" x="1707" y="1534.6328"/><text fill="#000000" font-family="sans-serif" font-size="20" lengthAdjust="spacing" textLength="252" x="1714" y="1560.9688">:AnnouncementRepository</text><rect fill="#E3E3E3" height="37.5547" rx="2.5" ry="2.5" style="stroke:#181818;stroke-width:0.5;" width="261" x="1983" y="50"/><text fill="#000000" font-family="sans-serif" font-size="20" lengthAdjust="spacing" textLength="247" x="1990" y="76.3359">:AuthenticationRepository</text><rect fill="#E3E3E3" height="37.5547" rx="2.5" ry="2.5" style="stroke:#181818;stroke-width:0.5;" width="261" x="1983" y="1534.6328"/><text fill="#000000" font-family="sans-serif" font-size="20" lengthAdjust="spacing" textLength="247" x="1990" y="1560.9688">:AuthenticationRepository</text><rect fill="#E3E3E3" height="61.1094" rx="2.5" ry="2.5" style="stroke:#181818;stroke-width:0.5;" width="255" x="2254" y="26.4453"/><text fill="#000000" font-family="sans-serif" font-size="20" lengthAdjust="spacing" textLength="150" x="2306.5" y="52.7813">authRepository:</text><text fill="#000000" font-family="sans-serif" font-size="20" lengthAdjust="spacing" textLength="241" x="2261" y="76.3359">AuthenticationRepository</text><rect fill="#E3E3E3" height="61.1094" rx="2.5" ry="2.5" style="stroke:#181818;stroke-width:0.5;" width="255" x="2254" y="1534.6328"/><text fill="#000000" font-family="sans-serif" font-size="20" lengthAdjust="spacing" textLength="150" x="2306.5" y="1560.9688">authRepository:</text><text fill="#000000" font-family="sans-serif" font-size="20" lengthAdjust="spacing" textLength="241" x="2261" y="1584.5234">AuthenticationRepository</text><rect fill="#FFFFFF" height="1419.0781" style="stroke:#181818;stroke-width:1.0;" width="10" x="31" y="98.5547"/><rect fill="#FFFFFF" height="901.3125" style="stroke:#181818;stroke-width:1.0;" width="10" x="496" y="128.1094"/><rect fill="#FFFFFF" height="413.1016" style="stroke:#181818;stroke-width:1.0;" width="10" x="496" y="1066.9766"/><rect fill="#FFFFFF" height="375.5469" style="stroke:#181818;stroke-width:1.0;" width="10" x="1054" y="165.6641"/><rect fill="#FFFFFF" height="413.1016" style="stroke:#181818;stroke-width:1.0;" width="10" x="1054" y="578.7656"/><rect fill="#FFFFFF" height="337.9922" style="stroke:#181818;stroke-width:1.0;" width="10" x="1054" y="1104.5313"/><rect fill="#FFFFFF" height="37.5547" style="stroke:#181818;stroke-width:1.0;" width="10" x="1390" y="203.2188"/><rect fill="#FFFFFF" height="1248.3047" style="stroke:#181818;stroke-width:1.0;" width="10" x="1390" y="278.3281"/><rect fill="#FFFFFF" height="37.5547" style="stroke:#181818;stroke-width:1.0;" width="10" x="1835" y="466.1016"/><rect fill="#FFFFFF" height="37.5547" style="stroke:#181818;stroke-width:1.0;" width="10" x="1835" y="616.3203"/><rect fill="#FFFFFF" height="37.5547" style="stroke:#181818;stroke-width:1.0;" width="10" x="1835" y="841.6484"/><rect fill="#FFFFFF" height="37.5547" style="stroke:#181818;stroke-width:1.0;" width="10" x="1835" y="916.7578"/><rect fill="#FFFFFF" height="37.5547" style="stroke:#181818;stroke-width:1.0;" width="10" x="1835" y="1142.0859"/><rect fill="#FFFFFF" height="37.5547" style="stroke:#181818;stroke-width:1.0;" width="10" x="1835" y="1367.4141"/><rect fill="#FFFFFF" height="37.5547" style="stroke:#181818;stroke-width:1.0;" width="10" x="2108.5" y="315.8828"/><rect fill="#FFFFFF" height="37.5547" style="stroke:#181818;stroke-width:1.0;" width="10" x="2108.5" y="691.4297"/><rect fill="#FFFFFF" height="37.5547" style="stroke:#181818;stroke-width:1.0;" width="10" x="2108.5" y="1217.1953"/><rect fill="#FFFFFF" height="37.5547" style="stroke:#181818;stroke-width:1.0;" width="10" x="2376.5" y="390.9922"/><rect fill="#FFFFFF" height="37.5547" style="stroke:#181818;stroke-width:1.0;" width="10" x="2376.5" y="766.5391"/><rect fill="#FFFFFF" height="37.5547" style="stroke:#181818;stroke-width:1.0;" width="10" x="2376.5" y="1292.3047"/><polygon fill="#181818" points="484,124.1094,494,128.1094,484,132.1094,488,128.1094" style="stroke:#181818;stroke-width:1.0;"/><line style="stroke:#181818;stroke-width:1.0;" x1="41" x2="490" y1="128.1094" y2="128.1094"/><text fill="#000000" font-family="sans-serif" font-size="20" font-weight="bold" lengthAdjust="spacing" textLength="13" x="48" y="121.8906">1</text><text fill="#000000" font-family="sans-serif" font-size="20" lengthAdjust="spacing" textLength="322" x="65" y="121.8906">asks to publish an announcement</text><polygon fill="#181818" points="1042,161.6641,1052,165.6641,1042,169.6641,1046,165.6641" style="stroke:#181818;stroke-width:1.0;"/><line style="stroke:#181818;stroke-width:1.0;" x1="506" x2="1048" y1="165.6641" y2="165.6641"/><text fill="#000000" font-family="sans-serif" font-size="20" font-weight="bold" lengthAdjust="spacing" textLength="13" x="513" y="159.4453">2</text><text fill="#000000" font-family="sans-serif" font-size="20" lengthAdjust="spacing" textLength="263" x="530" y="159.4453">getAnnouncementsByUser()</text><polygon fill="#181818" points="1378,199.2188,1388,203.2188,1378,207.2188,1382,203.2188" style="stroke:#181818;stroke-width:1.0;"/><line style="stroke:#181818;stroke-width:1.0;" x1="1064" x2="1384" y1="203.2188" y2="203.2188"/><text fill="#000000" font-family="sans-serif" font-size="20" font-weight="bold" lengthAdjust="spacing" textLength="13" x="1071" y="197">3</text><text fill="#000000" font-family="sans-serif" font-size="20" lengthAdjust="spacing" textLength="123" x="1088" y="197">getInstance()</text><polygon fill="#181818" points="1075,236.7734,1065,240.7734,1075,244.7734,1071,240.7734" style="stroke:#181818;stroke-width:1.0;"/><line style="stroke:#181818;stroke-width:1.0;" x1="1069" x2="1394" y1="240.7734" y2="240.7734"/><text fill="#000000" font-family="sans-serif" font-size="20" font-weight="bold" lengthAdjust="spacing" textLength="13" x="1081" y="234.5547">4</text><text fill="#000000" font-family="sans-serif" font-size="20" lengthAdjust="spacing" textLength="153" x="1098" y="234.5547">returns instance</text><polygon fill="#181818" points="1378,274.3281,1388,278.3281,1378,282.3281,1382,278.3281" style="stroke:#181818;stroke-width:1.0;"/><line style="stroke:#181818;stroke-width:1.0;stroke-dasharray:2.0,2.0;" x1="1064" x2="1384" y1="278.3281" y2="278.3281"/><text fill="#000000" font-family="sans-serif" font-size="20" font-weight="bold" lengthAdjust="spacing" textLength="13" x="1071" y="272.1094">5</text><text fill="#000000" font-family="sans-serif" font-size="20" lengthAdjust="spacing" textLength="290" x="1088" y="272.1094">getAnnouncementRepository()</text><polygon fill="#181818" points="2096.5,311.8828,2106.5,315.8828,2096.5,319.8828,2100.5,315.8828" style="stroke:#181818;stroke-width:1.0;"/><line style="stroke:#181818;stroke-width:1.0;" x1="1064" x2="2102.5" y1="315.8828" y2="315.8828"/><text fill="#000000" font-family="sans-serif" font-size="20" font-weight="bold" lengthAdjust="spacing" textLength="13" x="1071" y="309.6641">6</text><text fill="#000000" font-family="sans-serif" font-size="20" lengthAdjust="spacing" textLength="123" x="1088" y="309.6641">getInstance()</text><polygon fill="#181818" points="1075,349.4375,1065,353.4375,1075,357.4375,1071,353.4375" style="stroke:#181818;stroke-width:1.0;"/><line style="stroke:#181818;stroke-width:1.0;stroke-dasharray:2.0,2.0;" x1="1069" x2="2112.5" y1="353.4375" y2="353.4375"/><text fill="#000000" font-family="sans-serif" font-size="20" font-weight="bold" lengthAdjust="spacing" textLength="13" x="1081" y="347.2188">7</text><text fill="#000000" font-family="sans-serif" font-size="20" lengthAdjust="spacing" textLength="238" x="1098" y="347.2188">authenticationRepository</text><polygon fill="#181818" points="2364.5,386.9922,2374.5,390.9922,2364.5,394.9922,2368.5,390.9922" style="stroke:#181818;stroke-width:1.0;"/><line style="stroke:#181818;stroke-width:1.0;" x1="1064" x2="2370.5" y1="390.9922" y2="390.9922"/><text fill="#000000" font-family="sans-serif" font-size="20" font-weight="bold" lengthAdjust="spacing" textLength="13" x="1071" y="384.7734">8</text><text fill="#000000" font-family="sans-serif" font-size="20" lengthAdjust="spacing" textLength="231" x="1088" y="384.7734">getCurrentUserSession()</text><polygon fill="#181818" points="1075,424.5469,1065,428.5469,1075,432.5469,1071,428.5469" style="stroke:#181818;stroke-width:1.0;"/><line style="stroke:#181818;stroke-width:1.0;stroke-dasharray:2.0,2.0;" x1="1069" x2="2380.5" y1="428.5469" y2="428.5469"/><text fill="#000000" font-family="sans-serif" font-size="20" font-weight="bold" lengthAdjust="spacing" textLength="13" x="1081" y="422.3281">9</text><text fill="#000000" font-family="sans-serif" font-size="20" lengthAdjust="spacing" textLength="115" x="1098" y="422.3281">UserSession</text><polygon fill="#181818" points="1823,462.1016,1833,466.1016,1823,470.1016,1827,466.1016" style="stroke:#181818;stroke-width:1.0;"/><line style="stroke:#181818;stroke-width:1.0;" x1="1064" x2="1829" y1="466.1016" y2="466.1016"/><text fill="#000000" font-family="sans-serif" font-size="20" font-weight="bold" lengthAdjust="spacing" textLength="26" x="1071" y="459.8828">10</text><text fill="#000000" font-family="sans-serif" font-size="20" lengthAdjust="spacing" textLength="722" x="1101" y="459.8828">getAnnouncementsByAgent(getCurrentUserSession().getUserId().getEmail())</text><polygon fill="#181818" points="1075,499.6563,1065,503.6563,1075,507.6563,1071,503.6563" style="stroke:#181818;stroke-width:1.0;"/><line style="stroke:#181818;stroke-width:1.0;stroke-dasharray:2.0,2.0;" x1="1069" x2="1839" y1="503.6563" y2="503.6563"/><text fill="#000000" font-family="sans-serif" font-size="20" font-weight="bold" lengthAdjust="spacing" textLength="26" x="1081" y="497.4375">11</text><text fill="#000000" font-family="sans-serif" font-size="20" lengthAdjust="spacing" textLength="151" x="1111" y="497.4375">announcements</text><polygon fill="#181818" points="517,537.2109,507,541.2109,517,545.2109,513,541.2109" style="stroke:#181818;stroke-width:1.0;"/><line style="stroke:#181818;stroke-width:1.0;stroke-dasharray:2.0,2.0;" x1="511" x2="1058" y1="541.2109" y2="541.2109"/><text fill="#000000" font-family="sans-serif" font-size="20" font-weight="bold" lengthAdjust="spacing" textLength="26" x="523" y="534.9922">12</text><text fill="#000000" font-family="sans-serif" font-size="20" lengthAdjust="spacing" textLength="360" x="553" y="534.9922">shows non published announcements</text><polygon fill="#181818" points="1042,574.7656,1052,578.7656,1042,582.7656,1046,578.7656" style="stroke:#181818;stroke-width:1.0;"/><line style="stroke:#181818;stroke-width:1.0;" x1="506" x2="1048" y1="578.7656" y2="578.7656"/><text fill="#000000" font-family="sans-serif" font-size="20" font-weight="bold" lengthAdjust="spacing" textLength="26" x="513" y="572.5469">13</text><text fill="#000000" font-family="sans-serif" font-size="20" lengthAdjust="spacing" textLength="499" x="543" y="572.5469">publishAnnouncement(announcement, commission)</text><polygon fill="#181818" points="1823,612.3203,1833,616.3203,1823,620.3203,1827,616.3203" style="stroke:#181818;stroke-width:1.0;"/><line style="stroke:#181818;stroke-width:1.0;" x1="1064" x2="1829" y1="616.3203" y2="616.3203"/><text fill="#000000" font-family="sans-serif" font-size="20" font-weight="bold" lengthAdjust="spacing" textLength="26" x="1071" y="610.1016">14</text><text fill="#000000" font-family="sans-serif" font-size="20" lengthAdjust="spacing" textLength="123" x="1101" y="610.1016">getInstance()</text><polygon fill="#181818" points="1075,649.875,1065,653.875,1075,657.875,1071,653.875" style="stroke:#181818;stroke-width:1.0;"/><line style="stroke:#181818;stroke-width:1.0;stroke-dasharray:2.0,2.0;" x1="1069" x2="1839" y1="653.875" y2="653.875"/><text fill="#000000" font-family="sans-serif" font-size="20" font-weight="bold" lengthAdjust="spacing" textLength="26" x="1081" y="647.6563">15</text><text fill="#000000" font-family="sans-serif" font-size="20" lengthAdjust="spacing" textLength="243" x="1111" y="647.6563">announcementRepository</text><polygon fill="#181818" points="2096.5,687.4297,2106.5,691.4297,2096.5,695.4297,2100.5,691.4297" style="stroke:#181818;stroke-width:1.0;"/><line style="stroke:#181818;stroke-width:1.0;" x1="1064" x2="2102.5" y1="691.4297" y2="691.4297"/><text fill="#000000" font-family="sans-serif" font-size="20" font-weight="bold" lengthAdjust="spacing" textLength="26" x="1071" y="685.2109">16</text><text fill="#000000" font-family="sans-serif" font-size="20" lengthAdjust="spacing" textLength="123" x="1101" y="685.2109">getInstance()</text><polygon fill="#181818" points="1075,724.9844,1065,728.9844,1075,732.9844,1071,728.9844" style="stroke:#181818;stroke-width:1.0;"/><line style="stroke:#181818;stroke-width:1.0;stroke-dasharray:2.0,2.0;" x1="1069" x2="2112.5" y1="728.9844" y2="728.9844"/><text fill="#000000" font-family="sans-serif" font-size="20" font-weight="bold" lengthAdjust="spacing" textLength="26" x="1081" y="722.7656">17</text><text fill="#000000" font-family="sans-serif" font-size="20" lengthAdjust="spacing" textLength="238" x="1111" y="722.7656">authenticationRepository</text><polygon fill="#181818" points="2364.5,762.5391,2374.5,766.5391,2364.5,770.5391,2368.5,766.5391" style="stroke:#181818;stroke-width:1.0;"/><line style="stroke:#181818;stroke-width:1.0;" x1="1064" x2="2370.5" y1="766.5391" y2="766.5391"/><text fill="#000000" font-family="sans-serif" font-size="20" font-weight="bold" lengthAdjust="spacing" textLength="26" x="1071" y="760.3203">18</text><text fill="#000000" font-family="sans-serif" font-size="20" lengthAdjust="spacing" textLength="188" x="1101" y="760.3203">getCurrentSession()</text><polygon fill="#181818" points="1075,800.0938,1065,804.0938,1075,808.0938,1071,804.0938" style="stroke:#181818;stroke-width:1.0;"/><line style="stroke:#181818;stroke-width:1.0;stroke-dasharray:2.0,2.0;" x1="1069" x2="2380.5" y1="804.0938" y2="804.0938"/><text fill="#000000" font-family="sans-serif" font-size="20" font-weight="bold" lengthAdjust="spacing" textLength="26" x="1081" y="797.875">19</text><text fill="#000000" font-family="sans-serif" font-size="20" lengthAdjust="spacing" textLength="71" x="1111" y="797.875">session</text><polygon fill="#181818" points="1823,837.6484,1833,841.6484,1823,845.6484,1827,841.6484" style="stroke:#181818;stroke-width:1.0;"/><line style="stroke:#181818;stroke-width:1.0;" x1="1064" x2="1829" y1="841.6484" y2="841.6484"/><text fill="#000000" font-family="sans-serif" font-size="20" font-weight="bold" lengthAdjust="spacing" textLength="26" x="1071" y="835.4297">20</text><text fill="#000000" font-family="sans-serif" font-size="20" lengthAdjust="spacing" textLength="440" x="1101" y="835.4297">publishAnnouncement(announcement.getId())</text><polygon fill="#181818" points="1075,875.2031,1065,879.2031,1075,883.2031,1071,879.2031" style="stroke:#181818;stroke-width:1.0;"/><line style="stroke:#181818;stroke-width:1.0;stroke-dasharray:2.0,2.0;" x1="1069" x2="1839" y1="879.2031" y2="879.2031"/><text fill="#000000" font-family="sans-serif" font-size="20" font-weight="bold" lengthAdjust="spacing" textLength="26" x="1081" y="872.9844">21</text><text fill="#000000" font-family="sans-serif" font-size="20" lengthAdjust="spacing" textLength="73" x="1111" y="872.9844">success</text><polygon fill="#181818" points="1823,912.7578,1833,916.7578,1823,920.7578,1827,916.7578" style="stroke:#181818;stroke-width:1.0;"/><line style="stroke:#181818;stroke-width:1.0;" x1="1064" x2="1829" y1="916.7578" y2="916.7578"/><text fill="#000000" font-family="sans-serif" font-size="20" font-weight="bold" lengthAdjust="spacing" textLength="26" x="1071" y="910.5391">22</text><text fill="#000000" font-family="sans-serif" font-size="20" lengthAdjust="spacing" textLength="427" x="1101" y="910.5391">getAnnouncementsByUser(session.getUser())</text><polygon fill="#181818" points="1075,950.3125,1065,954.3125,1075,958.3125,1071,954.3125" style="stroke:#181818;stroke-width:1.0;"/><line style="stroke:#181818;stroke-width:1.0;stroke-dasharray:2.0,2.0;" x1="1069" x2="1839" y1="954.3125" y2="954.3125"/><text fill="#000000" font-family="sans-serif" font-size="20" font-weight="bold" lengthAdjust="spacing" textLength="26" x="1081" y="948.0938">23</text><text fill="#000000" font-family="sans-serif" font-size="20" lengthAdjust="spacing" textLength="151" x="1111" y="948.0938">announcements</text><polygon fill="#181818" points="517,987.8672,507,991.8672,517,995.8672,513,991.8672" style="stroke:#181818;stroke-width:1.0;"/><line style="stroke:#181818;stroke-width:1.0;stroke-dasharray:2.0,2.0;" x1="511" x2="1058" y1="991.8672" y2="991.8672"/><text fill="#000000" font-family="sans-serif" font-size="20" font-weight="bold" lengthAdjust="spacing" textLength="26" x="523" y="985.6484">24</text><text fill="#000000" font-family="sans-serif" font-size="20" lengthAdjust="spacing" textLength="360" x="553" y="985.6484">shows non published announcements</text><polygon fill="#181818" points="52,1025.4219,42,1029.4219,52,1033.4219,48,1029.4219" style="stroke:#181818;stroke-width:1.0;"/><line style="stroke:#181818;stroke-width:1.0;" x1="46" x2="500" y1="1029.4219" y2="1029.4219"/><text fill="#000000" font-family="sans-serif" font-size="20" font-weight="bold" lengthAdjust="spacing" textLength="26" x="58" y="1023.2031">25</text><text fill="#000000" font-family="sans-serif" font-size="20" lengthAdjust="spacing" textLength="360" x="88" y="1023.2031">shows non published announcements</text><polygon fill="#181818" points="484,1062.9766,494,1066.9766,484,1070.9766,488,1066.9766" style="stroke:#181818;stroke-width:1.0;"/><line style="stroke:#181818;stroke-width:1.0;" x1="41" x2="490" y1="1066.9766" y2="1066.9766"/><text fill="#000000" font-family="sans-serif" font-size="20" font-weight="bold" lengthAdjust="spacing" textLength="26" x="48" y="1060.7578">26</text><text fill="#000000" font-family="sans-serif" font-size="20" lengthAdjust="spacing" textLength="406" x="78" y="1060.7578">selects ID of the Announcement to publish</text><polygon fill="#181818" points="1042,1100.5313,1052,1104.5313,1042,1108.5313,1046,1104.5313" style="stroke:#181818;stroke-width:1.0;"/><line style="stroke:#181818;stroke-width:1.0;" x1="506" x2="1048" y1="1104.5313" y2="1104.5313"/><text fill="#000000" font-family="sans-serif" font-size="20" font-weight="bold" lengthAdjust="spacing" textLength="26" x="513" y="1098.3125">27</text><text fill="#000000" font-family="sans-serif" font-size="20" lengthAdjust="spacing" textLength="248" x="543" y="1098.3125">getAnnouncementById(id)</text><polygon fill="#181818" points="1823,1138.0859,1833,1142.0859,1823,1146.0859,1827,1142.0859" style="stroke:#181818;stroke-width:1.0;"/><line style="stroke:#181818;stroke-width:1.0;" x1="1064" x2="1829" y1="1142.0859" y2="1142.0859"/><text fill="#000000" font-family="sans-serif" font-size="20" font-weight="bold" lengthAdjust="spacing" textLength="26" x="1071" y="1135.8672">28</text><text fill="#000000" font-family="sans-serif" font-size="20" lengthAdjust="spacing" textLength="123" x="1101" y="1135.8672">getInstance()</text><polygon fill="#181818" points="1075,1175.6406,1065,1179.6406,1075,1183.6406,1071,1179.6406" style="stroke:#181818;stroke-width:1.0;"/><line style="stroke:#181818;stroke-width:1.0;stroke-dasharray:2.0,2.0;" x1="1069" x2="1839" y1="1179.6406" y2="1179.6406"/><text fill="#000000" font-family="sans-serif" font-size="20" font-weight="bold" lengthAdjust="spacing" textLength="26" x="1081" y="1173.4219">29</text><text fill="#000000" font-family="sans-serif" font-size="20" lengthAdjust="spacing" textLength="243" x="1111" y="1173.4219">announcementRepository</text><polygon fill="#181818" points="2096.5,1213.1953,2106.5,1217.1953,2096.5,1221.1953,2100.5,1217.1953" style="stroke:#181818;stroke-width:1.0;"/><line style="stroke:#181818;stroke-width:1.0;" x1="1064" x2="2102.5" y1="1217.1953" y2="1217.1953"/><text fill="#000000" font-family="sans-serif" font-size="20" font-weight="bold" lengthAdjust="spacing" textLength="26" x="1071" y="1210.9766">30</text><text fill="#000000" font-family="sans-serif" font-size="20" lengthAdjust="spacing" textLength="123" x="1101" y="1210.9766">getInstance()</text><polygon fill="#181818" points="1075,1250.75,1065,1254.75,1075,1258.75,1071,1254.75" style="stroke:#181818;stroke-width:1.0;"/><line style="stroke:#181818;stroke-width:1.0;stroke-dasharray:2.0,2.0;" x1="1069" x2="2112.5" y1="1254.75" y2="1254.75"/><text fill="#000000" font-family="sans-serif" font-size="20" font-weight="bold" lengthAdjust="spacing" textLength="26" x="1081" y="1248.5313">31</text><text fill="#000000" font-family="sans-serif" font-size="20" lengthAdjust="spacing" textLength="238" x="1111" y="1248.5313">authenticationRepository</text><polygon fill="#181818" points="2364.5,1288.3047,2374.5,1292.3047,2364.5,1296.3047,2368.5,1292.3047" style="stroke:#181818;stroke-width:1.0;"/><line style="stroke:#181818;stroke-width:1.0;" x1="1064" x2="2370.5" y1="1292.3047" y2="1292.3047"/><text fill="#000000" font-family="sans-serif" font-size="20" font-weight="bold" lengthAdjust="spacing" textLength="26" x="1071" y="1286.0859">32</text><text fill="#000000" font-family="sans-serif" font-size="20" lengthAdjust="spacing" textLength="188" x="1101" y="1286.0859">getCurrentSession()</text><polygon fill="#181818" points="1075,1325.8594,1065,1329.8594,1075,1333.8594,1071,1329.8594" style="stroke:#181818;stroke-width:1.0;"/><line style="stroke:#181818;stroke-width:1.0;stroke-dasharray:2.0,2.0;" x1="1069" x2="2380.5" y1="1329.8594" y2="1329.8594"/><text fill="#000000" font-family="sans-serif" font-size="20" font-weight="bold" lengthAdjust="spacing" textLength="26" x="1081" y="1323.6406">33</text><text fill="#000000" font-family="sans-serif" font-size="20" lengthAdjust="spacing" textLength="71" x="1111" y="1323.6406">session</text><polygon fill="#181818" points="1823,1363.4141,1833,1367.4141,1823,1371.4141,1827,1367.4141" style="stroke:#181818;stroke-width:1.0;"/><line style="stroke:#181818;stroke-width:1.0;" x1="1064" x2="1829" y1="1367.4141" y2="1367.4141"/><text fill="#000000" font-family="sans-serif" font-size="20" font-weight="bold" lengthAdjust="spacing" textLength="26" x="1071" y="1361.1953">34</text><text fill="#000000" font-family="sans-serif" font-size="20" lengthAdjust="spacing" textLength="427" x="1101" y="1361.1953">getAnnouncementsByUser(session.getUser())</text><polygon fill="#181818" points="1075,1400.9688,1065,1404.9688,1075,1408.9688,1071,1404.9688" style="stroke:#181818;stroke-width:1.0;"/><line style="stroke:#181818;stroke-width:1.0;stroke-dasharray:2.0,2.0;" x1="1069" x2="1839" y1="1404.9688" y2="1404.9688"/><text fill="#000000" font-family="sans-serif" font-size="20" font-weight="bold" lengthAdjust="spacing" textLength="26" x="1081" y="1398.75">35</text><text fill="#000000" font-family="sans-serif" font-size="20" lengthAdjust="spacing" textLength="151" x="1111" y="1398.75">announcements</text><polygon fill="#181818" points="517,1438.5234,507,1442.5234,517,1446.5234,513,1442.5234" style="stroke:#181818;stroke-width:1.0;"/><line style="stroke:#181818;stroke-width:1.0;stroke-dasharray:2.0,2.0;" x1="511" x2="1058" y1="1442.5234" y2="1442.5234"/><text fill="#000000" font-family="sans-serif" font-size="20" font-weight="bold" lengthAdjust="spacing" textLength="26" x="523" y="1436.3047">36</text><text fill="#000000" font-family="sans-serif" font-size="20" lengthAdjust="spacing" textLength="360" x="553" y="1436.3047">shows non published announcements</text><polygon fill="#181818" points="52,1476.0781,42,1480.0781,52,1484.0781,48,1480.0781" style="stroke:#181818;stroke-width:1.0;"/><line style="stroke:#181818;stroke-width:1.0;stroke-dasharray:2.0,2.0;" x1="46" x2="500" y1="1480.0781" y2="1480.0781"/><text fill="#000000" font-family="sans-serif" font-size="20" font-weight="bold" lengthAdjust="spacing" textLength="26" x="58" y="1473.8594">37</text><text fill="#000000" font-family="sans-serif" font-size="20" lengthAdjust="spacing" textLength="360" x="88" y="1473.8594">shows non published announcements</text><polygon fill="#181818" points="489,1513.6328,499,1517.6328,489,1521.6328,493,1517.6328" style="stroke:#181818;stroke-width:1.0;"/><line style="stroke:#181818;stroke-width:1.0;" x1="36" x2="495" y1="1517.6328" y2="1517.6328"/><text fill="#000000" font-family="sans-serif" font-size="20" font-weight="bold" lengthAdjust="spacing" textLength="26" x="43" y="1511.4141">38</text><text fill="#000000" font-family="sans-serif" font-size="20" lengthAdjust="spacing" textLength="85" x="73" y="1511.4141">closes UI</text><!--SRC=[xLTDRnen4BtlhnZb4Y8rLTKZXqg4qcgb1Y8st7entW4iTcraUvlINz-nbm_lna3QmYKD5z3ElEVvU3Dhp5B85TEiB1HVOWuvpbXLs2zAsapyGlZu8J5R5oYLL7oXLObWTOM1PSNuaiqni-i2GIEtJCwBqC4iMAwUX9p3Z1K6auHLLicgdA9Eakk5o15cIjcf-famRfM6gzuSfRq2Pg3tTJ1yJ8Z72YvMJ5guwZvKqqAOHSOAx4cfAicn9Fz9wX6JDEuUklOfHQsA0hM7z1_7trgWCQwK4HICGEDzneE7KSidPDpvh-kmewOcdaLzkj_bF_9sUvLTa5rmPeMIRGOoPi9rY7hG2eXCpK1E4SMCoNM3jA_AKXX3BdMfH_VtQPQbes7BByoivXyE4wS7yODPtEWWyLzm-ucw35toMXgm2bPrXu5928iQm4aK2K48w7fDq3dQy4HpjvuOr9sRFSIB8W7wU0X1dGGyCfM6HCwHt9rz1_4QyO_Sh-0qZRRIqe3O0BrFZX5WVLPuMBpbXu_UHjjeD1oDkwa9RtEV9iFj9Xqg-w7EjxAAq8R1nIZgEFkLrcwWgICPUkt48ew6q0W-Ui8-Zu0_5lfX_bqMqTP4rUKtMkT0Rk_fkNkGvlNlGSb4qRbfvnoV_Nt6yMY2leKXFSlu2FjEb7xgp48z6P0aYStSqQkZIHtGrbFK6BtLyttS2V7lWEzsnj5vF5R-Wr8_Pn6FIFzaDL_3W5voECr51lEKzjpqkIayjsfCnJabz5SoUVcIyQ-mJU6sE-NrhP7w3l271Eu2qBmy62pehceW_Gng1gIgHkp1jUBbjuYxDMb7v6zBwsrfNVOsyJyC-lacdHUAQkKCOVp-3qK3zni0]--></g></svg>