<?xml version="1.0" encoding="UTF-8" standalone="no"?><svg xmlns="http://www.w3.org/2000/svg" xmlns:xlink="http://www.w3.org/1999/xlink" contentStyleType="text/css" height="2059px" preserveAspectRatio="none" style="width:1788px;height:2059px;background:#FFFFFF;" version="1.1" viewBox="0 0 1788 2059" width="1788px" zoomAndPan="magnify"><defs/><g><text fill="#000000" font-family="sans-serif" font-size="14" font-weight="bold" lengthAdjust="spacing" textLength="105" x="834.5" y="23.5352">Domain Model</text><!--class Client--><g id="elem_Client"><rect codeLine="11" fill="#F1F1F1" height="41.5547" id="Client" rx="2.5" ry="2.5" style="stroke:#181818;stroke-width:0.5;" width="62" x="1303" y="336.4883"/><text fill="#000000" font-family="sans-serif" font-size="20" lengthAdjust="spacing" textLength="56" x="1306" y="360.8242">Client</text><line style="stroke:#181818;stroke-width:0.5;" x1="1304" x2="1364" y1="370.043" y2="370.043"/></g><!--class User--><g id="elem_User"><rect codeLine="23" fill="#F1F1F1" height="159.3281" id="User" rx="2.5" ry="2.5" style="stroke:#181818;stroke-width:0.5;" width="220" x="1139" y="44.4883"/><text fill="#000000" font-family="sans-serif" font-size="20" lengthAdjust="spacing" textLength="43" x="1227.5" y="68.8242">User</text><line style="stroke:#181818;stroke-width:0.5;" x1="1140" x2="1358" y1="78.043" y2="78.043"/><text fill="#000000" font-family="sans-serif" font-size="20" lengthAdjust="spacing" textLength="53" x="1145" y="101.3789">name</text><text fill="#000000" font-family="sans-serif" font-size="20" lengthAdjust="spacing" textLength="208" x="1145" y="124.9336">passportCardNumber</text><text fill="#000000" font-family="sans-serif" font-size="20" lengthAdjust="spacing" textLength="108" x="1145" y="148.4883">taxNumber</text><text fill="#000000" font-family="sans-serif" font-size="20" lengthAdjust="spacing" textLength="53" x="1145" y="172.043">email</text><text fill="#000000" font-family="sans-serif" font-size="20" lengthAdjust="spacing" textLength="173" x="1145" y="195.5977">telephoneNumber</text></g><!--class Owner--><g id="elem_Owner"><rect codeLine="14" fill="#F1F1F1" height="41.5547" id="Owner" rx="2.5" ry="2.5" style="stroke:#181818;stroke-width:0.5;" width="68" x="93" y="1186.4883"/><text fill="#000000" font-family="sans-serif" font-size="20" lengthAdjust="spacing" textLength="62" x="96" y="1210.8242">Owner</text><line style="stroke:#181818;stroke-width:0.5;" x1="94" x2="160" y1="1220.043" y2="1220.043"/></g><!--class Employee--><g id="elem_Employee"><rect codeLine="17" fill="#F1F1F1" height="41.5547" id="Employee" rx="2.5" ry="2.5" style="stroke:#181818;stroke-width:0.5;" width="99" x="830.5" y="264.4883"/><text fill="#000000" font-family="sans-serif" font-size="20" lengthAdjust="spacing" textLength="93" x="833.5" y="288.8242">Employee</text><line style="stroke:#181818;stroke-width:0.5;" x1="831.5" x2="928.5" y1="298.043" y2="298.043"/></g><!--class Agent--><g id="elem_Agent"><rect codeLine="20" fill="#F1F1F1" height="41.5547" id="Agent" rx="2.5" ry="2.5" style="stroke:#181818;stroke-width:0.5;" width="62" x="333" y="977.4883"/><text fill="#000000" font-family="sans-serif" font-size="20" lengthAdjust="spacing" textLength="56" x="336" y="1001.8242">Agent</text><line style="stroke:#181818;stroke-width:0.5;" x1="334" x2="394" y1="1011.043" y2="1011.043"/></g><!--class Agency--><g id="elem_Agency"><rect codeLine="31" fill="#F1F1F1" height="135.7734" id="Agency" rx="2.5" ry="2.5" style="stroke:#181818;stroke-width:0.5;" width="150" x="1150" y="709.4883"/><text fill="#000000" font-family="sans-serif" font-size="20" lengthAdjust="spacing" textLength="69" x="1190.5" y="733.8242">Agency</text><line style="stroke:#181818;stroke-width:0.5;" x1="1151" x2="1299" y1="743.043" y2="743.043"/><text fill="#000000" font-family="sans-serif" font-size="20" lengthAdjust="spacing" textLength="21" x="1156" y="766.3789">ID</text><text fill="#000000" font-family="sans-serif" font-size="20" lengthAdjust="spacing" textLength="53" x="1156" y="789.9336">name</text><text fill="#000000" font-family="sans-serif" font-size="20" lengthAdjust="spacing" textLength="132" x="1156" y="813.4883">emailAddress</text><text fill="#000000" font-family="sans-serif" font-size="20" lengthAdjust="spacing" textLength="138" x="1156" y="837.043">phoneNumber</text></g><!--class Property--><g id="elem_Property"><rect codeLine="38" fill="#F1F1F1" height="112.2188" id="Property" rx="2.5" ry="2.5" style="stroke:#181818;stroke-width:0.5;" width="205" x="492.5" y="1348.4883"/><text fill="#000000" font-family="sans-serif" font-size="20" lengthAdjust="spacing" textLength="80" x="555" y="1372.8242">Property</text><line style="stroke:#181818;stroke-width:0.5;" x1="493.5" x2="696.5" y1="1382.043" y2="1382.043"/><text fill="#000000" font-family="sans-serif" font-size="20" lengthAdjust="spacing" textLength="41" x="498.5" y="1405.3789">area</text><text fill="#000000" font-family="sans-serif" font-size="20" lengthAdjust="spacing" textLength="193" x="498.5" y="1428.9336">distanceFromCenter</text><text fill="#000000" font-family="sans-serif" font-size="20" lengthAdjust="spacing" textLength="48" x="498.5" y="1452.4883">price</text></g><!--class Photos--><g id="elem_Photos"><rect codeLine="44" fill="#F1F1F1" height="41.5547" id="Photos" rx="2.5" ry="2.5" style="stroke:#181818;stroke-width:0.5;" width="70" x="560" y="1580.4883"/><text fill="#000000" font-family="sans-serif" font-size="20" lengthAdjust="spacing" textLength="64" x="563" y="1604.8242">Photos</text><line style="stroke:#181818;stroke-width:0.5;" x1="561" x2="629" y1="1614.043" y2="1614.043"/></g><!--class Address--><g id="elem_Address"><rect codeLine="47" fill="#F1F1F1" height="88.6641" id="Address" rx="2.5" ry="2.5" style="stroke:#181818;stroke-width:0.5;" width="135" x="1441.5" y="1359.9883"/><text fill="#000000" font-family="sans-serif" font-size="20" lengthAdjust="spacing" textLength="79" x="1469.5" y="1384.3242">Address</text><line style="stroke:#181818;stroke-width:0.5;" x1="1442.5" x2="1575.5" y1="1393.543" y2="1393.543"/><text fill="#000000" font-family="sans-serif" font-size="20" lengthAdjust="spacing" textLength="123" x="1447.5" y="1416.8789">doorNumber</text><text fill="#000000" font-family="sans-serif" font-size="20" lengthAdjust="spacing" textLength="80" x="1447.5" y="1440.4336">zipCode</text></g><!--class Street--><g id="elem_Street"><rect codeLine="52" fill="#F1F1F1" height="41.5547" id="Street" rx="2.5" ry="2.5" style="stroke:#181818;stroke-width:0.5;" width="61" x="1664.5" y="756.4883"/><text fill="#000000" font-family="sans-serif" font-size="20" lengthAdjust="spacing" textLength="55" x="1667.5" y="780.8242">Street</text><line style="stroke:#181818;stroke-width:0.5;" x1="1665.5" x2="1724.5" y1="790.043" y2="790.043"/></g><!--class City--><g id="elem_City"><rect codeLine="55" fill="#F1F1F1" height="41.5547" id="City" rx="2.5" ry="2.5" style="stroke:#181818;stroke-width:0.5;" width="43" x="1673.5" y="977.4883"/><text fill="#000000" font-family="sans-serif" font-size="20" lengthAdjust="spacing" textLength="37" x="1676.5" y="1001.8242">City</text><line style="stroke:#181818;stroke-width:0.5;" x1="1674.5" x2="1715.5" y1="1011.043" y2="1011.043"/></g><!--class District--><g id="elem_District"><rect codeLine="58" fill="#F1F1F1" height="41.5547" id="District" rx="2.5" ry="2.5" style="stroke:#181818;stroke-width:0.5;" width="75" x="1657.5" y="1186.4883"/><text fill="#000000" font-family="sans-serif" font-size="20" lengthAdjust="spacing" textLength="69" x="1660.5" y="1210.8242">District</text><line style="stroke:#181818;stroke-width:0.5;" x1="1658.5" x2="1731.5" y1="1220.043" y2="1220.043"/></g><!--class State--><g id="elem_State"><rect codeLine="61" fill="#F1F1F1" height="41.5547" id="State" rx="2.5" ry="2.5" style="stroke:#181818;stroke-width:0.5;" width="53" x="1567.5" y="1580.4883"/><text fill="#000000" font-family="sans-serif" font-size="20" lengthAdjust="spacing" textLength="47" x="1570.5" y="1604.8242">State</text><line style="stroke:#181818;stroke-width:0.5;" x1="1568.5" x2="1619.5" y1="1614.043" y2="1614.043"/></g><!--class Apartment--><g id="elem_Apartment"><rect codeLine="64" fill="#F1F1F1" height="41.5547" id="Apartment" rx="2.5" ry="2.5" style="stroke:#181818;stroke-width:0.5;" width="108" x="567" y="1765.9883"/><text fill="#000000" font-family="sans-serif" font-size="20" lengthAdjust="spacing" textLength="102" x="570" y="1790.3242">Apartment</text><line style="stroke:#181818;stroke-width:0.5;" x1="568" x2="674" y1="1799.543" y2="1799.543"/></g><!--class Residency--><g id="elem_Residency"><rect codeLine="72" fill="#F1F1F1" height="112.2188" id="Residency" rx="2.5" ry="2.5" style="stroke:#181818;stroke-width:0.5;" width="248" x="665" y="1545.4883"/><text fill="#000000" font-family="sans-serif" font-size="20" lengthAdjust="spacing" textLength="96" x="741" y="1569.8242">Residency</text><line style="stroke:#181818;stroke-width:0.5;" x1="666" x2="912" y1="1579.043" y2="1579.043"/><text fill="#000000" font-family="sans-serif" font-size="20" lengthAdjust="spacing" textLength="195" x="671" y="1602.3789">numberOfBedrooms</text><text fill="#000000" font-family="sans-serif" font-size="20" lengthAdjust="spacing" textLength="201" x="671" y="1625.9336">numberOfBathrooms</text><text fill="#000000" font-family="sans-serif" font-size="20" lengthAdjust="spacing" textLength="236" x="671" y="1649.4883">numberOfParkingSpaces</text></g><!--class House--><g id="elem_House"><rect codeLine="67" fill="#F1F1F1" height="88.6641" id="House" rx="2.5" ry="2.5" style="stroke:#181818;stroke-width:0.5;" width="157" x="710.5" y="1742.4883"/><text fill="#000000" font-family="sans-serif" font-size="20" lengthAdjust="spacing" textLength="60" x="759" y="1766.8242">House</text><line style="stroke:#181818;stroke-width:0.5;" x1="711.5" x2="866.5" y1="1776.043" y2="1776.043"/><text fill="#000000" font-family="sans-serif" font-size="20" lengthAdjust="spacing" textLength="94" x="716.5" y="1799.3789">basement</text><text fill="#000000" font-family="sans-serif" font-size="20" lengthAdjust="spacing" textLength="145" x="716.5" y="1822.9336">inhabitableLoft</text></g><!--class PublishedProperty--><g id="elem_PublishedProperty"><rect codeLine="79" fill="#F1F1F1" height="135.7734" id="PublishedProperty" rx="2.5" ry="2.5" style="stroke:#181818;stroke-width:0.5;" width="180" x="872" y="930.4883"/><text fill="#000000" font-family="sans-serif" font-size="20" lengthAdjust="spacing" textLength="174" x="875" y="954.8242">PublishedProperty</text><line style="stroke:#181818;stroke-width:0.5;" x1="873" x2="1051" y1="964.043" y2="964.043"/><text fill="#000000" font-family="sans-serif" font-size="20" lengthAdjust="spacing" textLength="144" x="878" y="987.3789">typeOfProperty</text><text fill="#000000" font-family="sans-serif" font-size="20" lengthAdjust="spacing" textLength="140" x="878" y="1010.9336">publishedDate</text><text fill="#000000" font-family="sans-serif" font-size="20" lengthAdjust="spacing" textLength="118" x="878" y="1034.4883">publishedBy</text><text fill="#000000" font-family="sans-serif" font-size="20" lengthAdjust="spacing" textLength="116" x="878" y="1058.043">comission</text></g><!--class Commission--><g id="elem_Commission"><rect codeLine="86" fill="#F1F1F1" height="88.6641" id="Commission" rx="2.5" ry="2.5" style="stroke:#181818;stroke-width:0.5;" width="126" x="1015" y="1162.9883"/><text fill="#000000" font-family="sans-serif" font-size="20" lengthAdjust="spacing" textLength="120" x="1018" y="1187.3242">Commission</text><line style="stroke:#181818;stroke-width:0.5;" x1="1016" x2="1140" y1="1196.543" y2="1196.543"/><text fill="#000000" font-family="sans-serif" font-size="20" lengthAdjust="spacing" textLength="106" x="1021" y="1219.8789">percentage</text><text fill="#000000" font-family="sans-serif" font-size="20" lengthAdjust="spacing" textLength="50" x="1021" y="1243.4336">value</text></g><!--class Land--><g id="elem_Land"><rect codeLine="91" fill="#F1F1F1" height="41.5547" id="Land" rx="2.5" ry="2.5" style="stroke:#181818;stroke-width:0.5;" width="53" x="471.5" y="1580.4883"/><text fill="#000000" font-family="sans-serif" font-size="20" lengthAdjust="spacing" textLength="47" x="474.5" y="1604.8242">Land</text><line style="stroke:#181818;stroke-width:0.5;" x1="472.5" x2="523.5" y1="1614.043" y2="1614.043"/></g><!--class Equipment--><g id="elem_Equipment"><rect codeLine="94" fill="#F1F1F1" height="65.1094" id="Equipment" rx="2.5" ry="2.5" style="stroke:#181818;stroke-width:0.5;" width="172" x="903" y="1754.4883"/><text fill="#000000" font-family="sans-serif" font-size="20" lengthAdjust="spacing" textLength="104" x="937" y="1778.8242">Equipment</text><line style="stroke:#181818;stroke-width:0.5;" x1="904" x2="1074" y1="1788.043" y2="1788.043"/><text fill="#000000" font-family="sans-serif" font-size="20" lengthAdjust="spacing" textLength="160" x="909" y="1811.3789">equipmentName</text></g><!--class Role--><g id="elem_Role"><rect codeLine="98" fill="#F1F1F1" height="88.6641" id="Role" rx="2.5" ry="2.5" style="stroke:#181818;stroke-width:0.5;" width="112" x="824" y="535.4883"/><text fill="#000000" font-family="sans-serif" font-size="20" lengthAdjust="spacing" textLength="42" x="859" y="559.8242">Role</text><line style="stroke:#181818;stroke-width:0.5;" x1="825" x2="935" y1="569.043" y2="569.043"/><text fill="#000000" font-family="sans-serif" font-size="20" lengthAdjust="spacing" textLength="67" x="830" y="592.3789">ADMIN</text><text fill="#000000" font-family="sans-serif" font-size="20" lengthAdjust="spacing" textLength="100" x="830" y="615.9336">EMPLOYEE</text></g><!--class SystemAdministrator--><g id="elem_SystemAdministrator"><rect codeLine="103" fill="#F1F1F1" height="41.5547" id="SystemAdministrator" rx="2.5" ry="2.5" style="stroke:#181818;stroke-width:0.5;" width="207" x="602.5" y="408.4883"/><text fill="#000000" font-family="sans-serif" font-size="20" lengthAdjust="spacing" textLength="201" x="605.5" y="432.8242">SystemAdministrator</text><line style="stroke:#181818;stroke-width:0.5;" x1="603.5" x2="808.5" y1="442.043" y2="442.043"/></g><!--class StoreManager--><g id="elem_StoreManager"><rect codeLine="106" fill="#F1F1F1" height="41.5547" id="StoreManager" rx="2.5" ry="2.5" style="stroke:#181818;stroke-width:0.5;" width="137" x="1156.5" y="558.9883"/><text fill="#000000" font-family="sans-serif" font-size="20" lengthAdjust="spacing" textLength="131" x="1159.5" y="583.3242">StoreManager</text><line style="stroke:#181818;stroke-width:0.5;" x1="1157.5" x2="1292.5" y1="592.543" y2="592.543"/></g><!--class StoreNetworkManager--><g id="elem_StoreNetworkManager"><rect codeLine="109" fill="#F1F1F1" height="41.5547" id="StoreNetworkManager" rx="2.5" ry="2.5" style="stroke:#181818;stroke-width:0.5;" width="217" x="987.5" y="408.4883"/><text fill="#000000" font-family="sans-serif" font-size="20" lengthAdjust="spacing" textLength="211" x="990.5" y="432.8242">StoreNetworkManager</text><line style="stroke:#181818;stroke-width:0.5;" x1="988.5" x2="1203.5" y1="442.043" y2="442.043"/></g><!--class SunExposure--><g id="elem_SunExposure"><rect codeLine="112" fill="#F1F1F1" height="135.7734" id="SunExposure" rx="2.5" ry="2.5" style="stroke:#181818;stroke-width:0.5;" width="130" x="724" y="1916.4883"/><text fill="#000000" font-family="sans-serif" font-size="20" lengthAdjust="spacing" textLength="124" x="727" y="1940.8242">SunExposure</text><line style="stroke:#181818;stroke-width:0.5;" x1="725" x2="853" y1="1950.043" y2="1950.043"/><text fill="#000000" font-family="sans-serif" font-size="20" lengthAdjust="spacing" textLength="72" x="730" y="1973.3789">NORTH</text><text fill="#000000" font-family="sans-serif" font-size="20" lengthAdjust="spacing" textLength="69" x="730" y="1996.9336">SOUTH</text><text fill="#000000" font-family="sans-serif" font-size="20" lengthAdjust="spacing" textLength="49" x="730" y="2020.4883">EAST</text><text fill="#000000" font-family="sans-serif" font-size="20" lengthAdjust="spacing" textLength="52" x="730" y="2044.043">WEST</text></g><!--class TransactionType--><g id="elem_TransactionType"><rect codeLine="119" fill="#F1F1F1" height="112.2188" id="TransactionType" rx="2.5" ry="2.5" style="stroke:#181818;stroke-width:0.5;" width="165" x="1176.5" y="1151.4883"/><text fill="#000000" font-family="sans-serif" font-size="20" lengthAdjust="spacing" textLength="159" x="1179.5" y="1175.8242">TransactionType</text><line style="stroke:#181818;stroke-width:0.5;" x1="1177.5" x2="1340.5" y1="1185.043" y2="1185.043"/><text fill="#000000" font-family="sans-serif" font-size="20" lengthAdjust="spacing" textLength="52" x="1182.5" y="1208.3789">RENT</text><text fill="#000000" font-family="sans-serif" font-size="20" lengthAdjust="spacing" textLength="47" x="1182.5" y="1231.9336">SALE</text><text fill="#000000" font-family="sans-serif" font-size="20" lengthAdjust="spacing" textLength="38" x="1182.5" y="1255.4883">BUY</text></g><!--class UnregisteredUser--><g id="elem_UnregisteredUser"><rect codeLine="125" fill="#F1F1F1" height="41.5547" id="UnregisteredUser" rx="2.5" ry="2.5" style="stroke:#181818;stroke-width:0.5;" width="172" x="876" y="756.4883"/><text fill="#000000" font-family="sans-serif" font-size="20" lengthAdjust="spacing" textLength="166" x="879" y="780.8242">UnregisteredUser</text><line style="stroke:#181818;stroke-width:0.5;" x1="877" x2="1047" y1="790.043" y2="790.043"/></g><!--class Request--><g id="elem_Request"><rect codeLine="128" fill="#F1F1F1" height="41.5547" id="Request" rx="2.5" ry="2.5" style="stroke:#181818;stroke-width:0.5;" width="83" x="488.5" y="1186.4883"/><text fill="#000000" font-family="sans-serif" font-size="20" lengthAdjust="spacing" textLength="77" x="491.5" y="1210.8242">Request</text><line style="stroke:#181818;stroke-width:0.5;" x1="489.5" x2="570.5" y1="1220.043" y2="1220.043"/></g><!--reverse link User to Client--><g id="link_User_Client"><path d="M1285.22,223.6383 C1300.64,265.6383 1317.19,310.7083 1326.5,336.0683 " fill="none" id="User-backto-Client" style="stroke:#181818;stroke-width:1.0;"/><polygon fill="none" points="1278.74,226.2983,1278.42,205.1083,1291.88,221.4683,1278.74,226.2983" style="stroke:#181818;stroke-width:1.0;"/></g><!--reverse link User to Owner--><g id="link_User_Owner"><path d="M1117.42,128.2783 C797.68,138.0183 6,173.3583 6,284.4883 C6,284.4883 6,284.4883 6,999.4883 C6,1056.6883 17.61,1072.4183 47,1121.4883 C61.99,1146.5183 85.43,1170.2883 103.07,1186.2883 " fill="none" id="User-backto-Owner" style="stroke:#181818;stroke-width:1.0;"/><polygon fill="none" points="1116.98,121.2883,1137.18,127.6883,1117.4,135.2783,1116.98,121.2883" style="stroke:#181818;stroke-width:1.0;"/></g><!--reverse link User to Employee--><g id="link_User_Employee"><path d="M1119.4,181.0083 C1052.77,209.8083 975.63,243.1483 927.32,264.0283 " fill="none" id="User-backto-Employee" style="stroke:#181818;stroke-width:1.0;"/><polygon fill="none" points="1116.26,174.7383,1137.4,173.2283,1121.82,187.5883,1116.26,174.7383" style="stroke:#181818;stroke-width:1.0;"/></g><!--reverse link Employee to Agent--><g id="link_Employee_Agent"><path d="M809.4,295.0383 C687.62,311.7783 451,353.9083 451,428.4883 C451,428.4883 451,428.4883 451,778.4883 C451,856.4283 402.82,939.6383 378.17,977.1183 " fill="none" id="Employee-backto-Agent" style="stroke:#181818;stroke-width:1.0;"/><polygon fill="none" points="808.12,288.1483,828.87,292.4583,809.97,302.0283,808.12,288.1483" style="stroke:#181818;stroke-width:1.0;"/></g><!--reverse link Residency to Apartment--><g id="link_Residency_Apartment"><path d="M724.47,1672.9683 C694.02,1706.2283 659.97,1743.4283 639.52,1765.7583 " fill="none" id="Residency-backto-Apartment" style="stroke:#181818;stroke-width:1.0;"/><polygon fill="none" points="718.9,1668.6883,737.57,1658.6583,729.23,1678.1383,718.9,1668.6883" style="stroke:#181818;stroke-width:1.0;"/></g><!--reverse link Residency to House--><g id="link_Residency_House"><path d="M789,1678.9183 C789,1700.4383 789,1723.1183 789,1742.0383 " fill="none" id="Residency-backto-House" style="stroke:#181818;stroke-width:1.0;"/><polygon fill="none" points="782,1679.0583,789,1659.0583,796,1679.0583,782,1679.0583" style="stroke:#181818;stroke-width:1.0;"/></g><!--reverse link Property to Residency--><g id="link_Property_Residency"><path d="M664.96,1475.8083 C687.6,1498.5683 712.37,1523.4683 733.79,1544.9883 " fill="none" id="Property-backto-Residency" style="stroke:#181818;stroke-width:1.0;"/><polygon fill="none" points="660.28,1481.0383,651.14,1461.9183,670.21,1471.1583,660.28,1481.0383" style="stroke:#181818;stroke-width:1.0;"/></g><!--reverse link Property to Land--><g id="link_Property_Land"><path d="M558.06,1479.7483 C540.1,1515.8483 519.9,1556.4683 508.1,1580.1883 " fill="none" id="Property-backto-Land" style="stroke:#181818;stroke-width:1.0;"/><polygon fill="none" points="551.61,1476.9883,566.79,1462.1983,564.15,1483.2283,551.61,1476.9883" style="stroke:#181818;stroke-width:1.0;"/></g><!--reverse link Employee to SystemAdministrator--><g id="link_Employee_SystemAdministrator"><path d="M809.12,294.9283 C780.65,301.7783 749.73,314.1483 729,336.4883 C710.86,356.0383 706.47,387.6883 705.69,408.2983 " fill="none" id="Employee-backto-SystemAdministrator" style="stroke:#181818;stroke-width:1.0;"/><polygon fill="none" points="807.74,288.0683,828.73,290.9983,810.49,301.7983,807.74,288.0683" style="stroke:#181818;stroke-width:1.0;"/></g><!--link SystemAdministrator to Employee--><g id="link_SystemAdministrator_Employee"><path codeLine="134" d="M714.49,408.0483 C723.91,387.5383 740.9,356.2483 764,336.4883 C783,320.2383 808.08,308.5483 830.06,300.5683 " fill="none" id="SystemAdministrator-Employee" style="stroke:#181818;stroke-width:1.0;"/><polygon fill="#000000" points="777.8582,352.3175,764.0583,358.7299,770.4629,365.6166,777.8582,352.3175" style="stroke:#000000;stroke-width:1.0;"/><text fill="#000000" font-family="sans-serif" font-size="20" lengthAdjust="spacing" textLength="68" x="785" y="365.3242">creates</text><text fill="#000000" font-family="sans-serif" font-size="20" lengthAdjust="spacing" textLength="13" x="701.9999" y="396.0715">1</text><text fill="#000000" font-family="sans-serif" font-size="20" lengthAdjust="spacing" textLength="10" x="812.3341" y="297.478">*</text></g><!--reverse link Employee to StoreManager--><g id="link_Employee_StoreManager"><path d="M951.14,291.6183 C1029.55,301.2383 1153.59,328.9183 1222,408.4883 C1258.38,450.8083 1242.81,523.2483 1232.07,558.5083 " fill="none" id="Employee-backto-StoreManager" style="stroke:#181818;stroke-width:1.0;"/><polygon fill="none" points="950.47,298.5883,931.34,289.4683,951.98,284.6683,950.47,298.5883" style="stroke:#181818;stroke-width:1.0;"/></g><!--reverse link Employee to StoreNetworkManager--><g id="link_Employee_StoreNetworkManager"><path d="M928.8,318.5683 C970.6,346.0483 1029.53,384.7883 1065.11,408.1783 " fill="none" id="Employee-backto-StoreNetworkManager" style="stroke:#181818;stroke-width:1.0;"/><polygon fill="none" points="925.08,324.4983,912.21,307.6683,932.77,312.7983,925.08,324.4983" style="stroke:#181818;stroke-width:1.0;"/></g><!--link StoreNetworkManager to StoreManager--><g id="link_StoreNetworkManager_StoreManager"><path codeLine="132" d="M1100.19,450.8483 C1104.25,466.8983 1111.64,489.2183 1124,505.4883 C1140.66,527.4183 1165.64,545.6783 1186.6,558.5183 " fill="none" id="StoreNetworkManager-StoreManager" style="stroke:#181818;stroke-width:1.0;"/><polygon fill="#000000" points="1137.0072,499.5048,1131.6164,485.2748,1124.2818,491.1612,1137.0072,499.5048" style="stroke:#000000;stroke-width:1.0;"/><text fill="#000000" font-family="sans-serif" font-size="20" lengthAdjust="spacing" textLength="86" x="1145" y="500.8242">manages</text><text fill="#000000" font-family="sans-serif" font-size="20" lengthAdjust="spacing" textLength="13" x="1086.6847" y="477.4817">1</text><text fill="#000000" font-family="sans-serif" font-size="20" lengthAdjust="spacing" textLength="10" x="1166.0212" y="546.9397">*</text></g><!--link Agency to Agent--><g id="link_Agency_Agent"><path codeLine="133" d="M1149.82,814.1883 C1123.74,825.4883 1094,837.1883 1066,845.4883 C993.7,866.9283 972.89,860.4383 899,875.4883 C706.7,914.6683 477.46,969.7883 395.25,989.8283 " fill="none" id="Agency-Agent" style="stroke:#181818;stroke-width:1.0;"/><polygon fill="#000000" points="899.2083,890.0793,914.3697,891.3782,912.2376,882.2185,899.2083,890.0793" style="stroke:#000000;stroke-width:1.0;"/><text fill="#000000" font-family="sans-serif" font-size="20" lengthAdjust="spacing" textLength="33" x="920" y="895.8242">has</text><text fill="#000000" font-family="sans-serif" font-size="20" lengthAdjust="spacing" textLength="13" x="1129.0349" y="812.9633">1</text><text fill="#000000" font-family="sans-serif" font-size="20" lengthAdjust="spacing" textLength="10" x="403.1797" y="981.8636">*</text></g><!--link Employee to Role--><g id="link_Employee_Role"><path codeLine="135" d="M880,306.5883 C880,353.4483 880,470.7883 880,535.1083 " fill="none" id="Employee-Role" style="stroke:#181818;stroke-width:1.0;"/><polygon fill="#000000" points="888,437.7656,892.7023,423.2935,883.2977,423.2935,888,437.7656" style="stroke:#000000;stroke-width:1.0;"/><text fill="#000000" font-family="sans-serif" font-size="20" lengthAdjust="spacing" textLength="50" x="901" y="437.3242">has a</text><text fill="#000000" font-family="sans-serif" font-size="20" lengthAdjust="spacing" textLength="13" x="865.4969" y="333.5786">1</text><text fill="#000000" font-family="sans-serif" font-size="20" lengthAdjust="spacing" textLength="13" x="866.0453" y="523.2288">1</text></g><!--link SystemAdministrator to Role--><g id="link_SystemAdministrator_Role"><path codeLine="136" d="M724.99,450.6683 C739.96,466.2083 761.64,487.9483 782,505.4883 C795.05,516.7283 809.65,528.2183 823.52,538.6683 " fill="none" id="SystemAdministrator-Role" style="stroke:#181818;stroke-width:1.0;"/><polygon fill="#000000" points="795.9667,498.5947,788.3052,485.4472,782.0405,492.4615,795.9667,498.5947" style="stroke:#000000;stroke-width:1.0;"/><text fill="#000000" font-family="sans-serif" font-size="20" lengthAdjust="spacing" textLength="50" x="803" y="500.8242">has a</text><text fill="#000000" font-family="sans-serif" font-size="20" lengthAdjust="spacing" textLength="13" x="714.7222" y="477.2623">1</text><text fill="#000000" font-family="sans-serif" font-size="20" lengthAdjust="spacing" textLength="13" x="802.8443" y="528.6211">1</text></g><!--link StoreNetworkManager to Role--><g id="link_StoreNetworkManager_Role"><path codeLine="137" d="M1066.42,450.8283 C1033.03,473.7783 977.94,511.6583 936.28,540.2983 " fill="none" id="StoreNetworkManager-Role" style="stroke:#181818;stroke-width:1.0;"/><polygon fill="#000000" points="1020.4076,497.7978,1034.9973,493.4739,1029.6694,485.7241,1020.4076,497.7978" style="stroke:#000000;stroke-width:1.0;"/><text fill="#000000" font-family="sans-serif" font-size="20" lengthAdjust="spacing" textLength="50" x="1040" y="500.8242">has a</text><text fill="#000000" font-family="sans-serif" font-size="20" lengthAdjust="spacing" textLength="13" x="1045.5275" y="477.4573">1</text><text fill="#000000" font-family="sans-serif" font-size="20" lengthAdjust="spacing" textLength="13" x="943.9313" y="530.4497">1</text></g><!--link Agent to Owner--><g id="link_Agent_Owner"><path codeLine="138" d="M332.87,998.5683 C269.26,998.5883 124.99,1008.8183 61,1096.4883 C39.2,1126.3483 73.43,1163.7383 100.18,1186.3383 " fill="none" id="Agent-Owner" style="stroke:#181818;stroke-width:1.0;"/><polygon fill="#000000" points="62.7742,1114.2895,76.9897,1108.8606,71.0838,1101.5418,62.7742,1114.2895" style="stroke:#000000;stroke-width:1.0;"/><text fill="#000000" font-family="sans-serif" font-size="20" lengthAdjust="spacing" textLength="122" x="82" y="1116.8242">contacted by</text><text fill="#000000" font-family="sans-serif" font-size="20" lengthAdjust="spacing" textLength="13" x="312.1088" y="992.652">1</text><text fill="#000000" font-family="sans-serif" font-size="20" lengthAdjust="spacing" textLength="13" x="78.6418" y="1174.4358">1</text></g><!--link Agent to Property--><g id="link_Agent_Property"><path codeLine="139" d="M332.66,1018.7183 C301.31,1040.6983 259.29,1079.1283 271,1121.4883 C290.6,1192.3883 303.74,1211.7283 356,1263.4883 C395.03,1302.1483 446.83,1334.1883 492.22,1357.8183 " fill="none" id="Agent-Property" style="stroke:#181818;stroke-width:1.0;"/><polygon fill="#000000" points="367.4061,1215.0043,365.4992,1199.9074,356.9896,1203.9115,367.4061,1215.0043" style="stroke:#000000;stroke-width:1.0;"/><text fill="#000000" font-family="sans-serif" font-size="20" lengthAdjust="spacing" textLength="93" x="377" y="1215.3242">publishes</text><text fill="#000000" font-family="sans-serif" font-size="20" lengthAdjust="spacing" textLength="10" x="315.1649" y="1016.9579">*</text><text fill="#000000" font-family="sans-serif" font-size="20" lengthAdjust="spacing" textLength="10" x="474.6417" y="1350.076">*</text></g><!--link Agent to Property--><g id="link_Agent_Property"><path codeLine="140" d="M395.43,1011.5883 C444.87,1032.3283 540.19,1079.4983 589,1151.4883 C631.36,1213.9683 630.76,1243.7683 620,1318.4883 C618.6,1328.2283 616.33,1338.4183 613.73,1348.2083 " fill="none" id="Agent-Property-1" style="stroke:#181818;stroke-width:1.0;"/><polygon fill="#000000" points="639.3529,1214.4778,635.4238,1199.7769,627.5332,1204.8939,639.3529,1214.4778" style="stroke:#000000;stroke-width:1.0;"/><text fill="#000000" font-family="sans-serif" font-size="20" lengthAdjust="spacing" textLength="160" x="648" y="1215.3242">sets comission</text><text fill="#000000" font-family="sans-serif" font-size="20" lengthAdjust="spacing" textLength="13" x="402.8975" y="1008.3377">1</text><text fill="#000000" font-family="sans-serif" font-size="20" lengthAdjust="spacing" textLength="10" x="605.4033" y="1336.304">*</text></g><!--link Owner to Property--><g id="link_Owner_Property"><path codeLine="141" d="M121.62,1228.7183 C116.45,1253.1583 112.28,1294.0183 134,1318.4883 C180.26,1370.5983 370.92,1391.0283 492.09,1398.8383 " fill="none" id="Owner-Property" style="stroke:#181818;stroke-width:1.0;"/><polygon fill="#000000" points="149.2701,1309.6041,138.0806,1299.2915,134.1561,1307.838,149.2701,1309.6041" style="stroke:#000000;stroke-width:1.0;"/><text fill="#000000" font-family="sans-serif" font-size="20" lengthAdjust="spacing" textLength="49" x="155" y="1313.8242">owns</text><text fill="#000000" font-family="sans-serif" font-size="20" lengthAdjust="spacing" textLength="13" x="106.0213" y="1255.3233">1</text><text fill="#000000" font-family="sans-serif" font-size="20" lengthAdjust="spacing" textLength="10" x="474.5026" y="1393.9802">*</text></g><!--link Owner to Request--><g id="link_Owner_Request"><path codeLine="142" d="M144.61,1186.1783 C155.78,1174.0983 171.25,1159.7883 188,1151.4883 C275.19,1108.2983 306.58,1121.5083 403.5,1112.9083 C441.13,1109.5583 456.87,1092.2483 488.5,1112.9083 C513.27,1129.0883 523.35,1163.6983 527.39,1186.2683 " fill="none" id="Owner-Request" style="stroke:#181818;stroke-width:1.0;"/><polygon fill="#000000" points="419.5,1109.2675,405.029,1104.5618,405.0268,1113.9664,419.5,1109.2675" style="stroke:#000000;stroke-width:1.0;"/><text fill="#000000" font-family="sans-serif" font-size="20" lengthAdjust="spacing" textLength="63" x="424.5" y="1116.8242">makes</text><text fill="#000000" font-family="sans-serif" font-size="20" lengthAdjust="spacing" textLength="13" x="134.4569" y="1174.2348">1</text><text fill="#000000" font-family="sans-serif" font-size="20" lengthAdjust="spacing" textLength="10" x="515.4399" y="1174.3478">*</text></g><!--link Request to Agent--><g id="link_Request_Agent"><path codeLine="143" d="M488.25,1193.3283 C420.15,1171.6683 292.09,1130.0583 286,1121.4883 C261.32,1086.7483 303.51,1044.5283 334.85,1019.9683 " fill="none" id="Request-Agent" style="stroke:#181818;stroke-width:1.0;"/><polygon fill="#000000" points="288.6986,1103.2744,294.7674,1117.2287,301.8105,1110.9965,288.6986,1103.2744" style="stroke:#000000;stroke-width:1.0;"/><text fill="#000000" font-family="sans-serif" font-size="20" lengthAdjust="spacing" textLength="87" x="307" y="1116.8242">is sent to</text><text fill="#000000" font-family="sans-serif" font-size="20" lengthAdjust="spacing" textLength="10" x="470.507" y="1185.4971">*</text><text fill="#000000" font-family="sans-serif" font-size="20" lengthAdjust="spacing" textLength="13" x="314.4972" y="1046.2095">1</text></g><!--link Request to Property--><g id="link_Request_Property"><path codeLine="144" d="M535.08,1228.9583 C540.75,1251.1983 550.53,1287.6783 561,1318.4883 C564.27,1328.1183 568.03,1338.2483 571.84,1348.0183 " fill="none" id="Request-Property" style="stroke:#181818;stroke-width:1.0;"/><polygon fill="#000000" points="571.3601,1313.9096,571.5837,1298.6943,562.5976,1301.4688,571.3601,1313.9096" style="stroke:#000000;stroke-width:1.0;"/><text fill="#000000" font-family="sans-serif" font-size="20" lengthAdjust="spacing" textLength="33" x="582" y="1313.8242">has</text><text fill="#000000" font-family="sans-serif" font-size="20" lengthAdjust="spacing" textLength="13" x="521.7871" y="1255.1974">1</text><text fill="#000000" font-family="sans-serif" font-size="20" lengthAdjust="spacing" textLength="13" x="555.2252" y="1336.0908">1</text></g><!--link Request to TransactionType--><g id="link_Request_TransactionType"><path codeLine="145" d="M551.32,1186.2483 C564.18,1174.4983 581.43,1160.4983 599,1151.4883 C657,1121.7383 675.89,1121.5583 740.5,1112.9083 C870.55,1095.4883 965.13,1089.7883 1159,1151.4883 C1164.69,1153.2983 1170.42,1155.4583 1176.1,1157.8483 " fill="none" id="Request-TransactionType" style="stroke:#181818;stroke-width:1.0;"/><polygon fill="#000000" points="756.4917,1108.9024,741.821,1104.8621,742.2481,1114.257,756.4917,1108.9024" style="stroke:#000000;stroke-width:1.0;"/><text fill="#000000" font-family="sans-serif" font-size="20" lengthAdjust="spacing" textLength="33" x="761.5" y="1116.8242">has</text><text fill="#000000" font-family="sans-serif" font-size="20" lengthAdjust="spacing" textLength="13" x="542.1176" y="1174.3227">1</text><text fill="#000000" font-family="sans-serif" font-size="20" lengthAdjust="spacing" textLength="13" x="1155.4172" y="1148.9444">1</text></g><!--link Address to State--><g id="link_Address_State"><path codeLine="146" d="M1521.64,1449.3083 C1528.07,1469.7683 1536.53,1494.2283 1546,1515.4883 C1556.21,1538.3983 1570.66,1563.2283 1581.03,1580.0983 " fill="none" id="Address-State" style="stroke:#181818;stroke-width:1.0;"/><polygon fill="#000000" points="1550.6923,1495.9814,1552.3944,1511.1028,1560.9575,1507.2145,1550.6923,1495.9814" style="stroke:#000000;stroke-width:1.0;"/><text fill="#000000" font-family="sans-serif" font-size="20" lengthAdjust="spacing" textLength="64" x="1567" y="1510.8242">part of</text><text fill="#000000" font-family="sans-serif" font-size="20" lengthAdjust="spacing" textLength="13" x="1509.4267" y="1475.9173">1</text><text fill="#000000" font-family="sans-serif" font-size="20" lengthAdjust="spacing" textLength="13" x="1563.0408" y="1568.1343">1</text></g><!--link City to District--><g id="link_City_District"><path codeLine="147" d="M1695,1019.7083 C1695,1059.2883 1695,1146.5383 1695,1186.1783 " fill="none" id="City-District" style="stroke:#181818;stroke-width:1.0;"/><polygon fill="#000000" points="1703,1117.2656,1707.7023,1102.7935,1698.2977,1102.7935,1703,1117.2656" style="stroke:#000000;stroke-width:1.0;"/><text fill="#000000" font-family="sans-serif" font-size="20" lengthAdjust="spacing" textLength="64" x="1716" y="1116.8242">part of</text><text fill="#000000" font-family="sans-serif" font-size="20" lengthAdjust="spacing" textLength="10" x="1683.9063" y="1046.3111">*</text><text fill="#000000" font-family="sans-serif" font-size="20" lengthAdjust="spacing" textLength="13" x="1680.3344" y="1174.2348">1</text></g><!--link Street to City--><g id="link_Street_City"><path codeLine="148" d="M1695,798.6983 C1695,840.3083 1695,935.1683 1695,977.0083 " fill="none" id="Street-City" style="stroke:#181818;stroke-width:1.0;"/><polygon fill="#000000" points="1703,896.2656,1707.7023,881.7935,1698.2977,881.7935,1703,896.2656" style="stroke:#000000;stroke-width:1.0;"/><text fill="#000000" font-family="sans-serif" font-size="20" lengthAdjust="spacing" textLength="64" x="1716" y="895.8242">part of</text><text fill="#000000" font-family="sans-serif" font-size="20" lengthAdjust="spacing" textLength="10" x="1683.9063" y="825.2989">*</text><text fill="#000000" font-family="sans-serif" font-size="20" lengthAdjust="spacing" textLength="13" x="1680.4156" y="965.4272">1</text></g><!--link District to State--><g id="link_District_State"><path codeLine="149" d="M1693.02,1228.7183 C1687.72,1278.5583 1671.2,1410.7983 1636,1515.4883 C1628.24,1538.5783 1615.41,1563.3783 1605.97,1580.1983 " fill="none" id="District-State" style="stroke:#181818;stroke-width:1.0;"/><polygon fill="#000000" points="1681.0768,1412.531,1689.1203,1399.6137,1679.9915,1397.3529,1681.0768,1412.531" style="stroke:#000000;stroke-width:1.0;"/><text fill="#000000" font-family="sans-serif" font-size="20" lengthAdjust="spacing" textLength="64" x="1696" y="1412.3242">part of</text><text fill="#000000" font-family="sans-serif" font-size="20" lengthAdjust="spacing" textLength="10" x="1681.4931" y="1255.3233">*</text><text fill="#000000" font-family="sans-serif" font-size="20" lengthAdjust="spacing" textLength="13" x="1594.3717" y="1568.2599">1</text></g><!--link Client to Address--><g id="link_Client_Address"><path codeLine="150" d="M1338.33,378.9483 C1356.55,465.5283 1428.07,810.4783 1472,1096.4883 C1486.34,1189.8783 1498.45,1299.9583 1504.62,1359.6483 " fill="none" id="Client-Address" style="stroke:#181818;stroke-width:1.0;"/><polygon fill="#000000" points="1438.3374,785.653,1440.5541,770.5985,1431.2819,772.1707,1438.3374,785.653" style="stroke:#000000;stroke-width:1.0;"/><text fill="#000000" font-family="sans-serif" font-size="20" lengthAdjust="spacing" textLength="62" x="1450" y="785.3242">has an</text><text fill="#000000" font-family="sans-serif" font-size="20" lengthAdjust="spacing" textLength="13" x="1324.8824" y="405.1853">1</text><text fill="#000000" font-family="sans-serif" font-size="20" lengthAdjust="spacing" textLength="10" x="1493.2423" y="1347.7747">*</text></g><!--link Property to Photos--><g id="link_Property_Photos"><path codeLine="151" d="M595,1460.8483 C595,1500.7083 595,1552.1983 595,1580.1883 " fill="none" id="Property-Photos" style="stroke:#181818;stroke-width:1.0;"/><polygon fill="#000000" points="603,1511.2656,607.7023,1496.7935,598.2977,1496.7935,603,1511.2656" style="stroke:#000000;stroke-width:1.0;"/><text fill="#000000" font-family="sans-serif" font-size="20" lengthAdjust="spacing" textLength="33" x="616" y="1510.8242">has</text><text fill="#000000" font-family="sans-serif" font-size="20" lengthAdjust="spacing" textLength="13" x="581.2484" y="1488.05">1</text><text fill="#000000" font-family="sans-serif" font-size="20" lengthAdjust="spacing" textLength="10" x="583.7188" y="1568.2473">*</text></g><!--link PublishedProperty to Commission--><g id="link_PublishedProperty_Commission"><path codeLine="152" d="M941.07,1066.8283 C938.87,1085.4083 940.11,1104.9883 949,1121.4883 C951.03,1125.2483 983.03,1146.3483 1014.65,1166.5883 " fill="none" id="PublishedProperty-Commission" style="stroke:#181818;stroke-width:1.0;"/><polygon fill="#000000" points="952.2514,1102.8274,957.0574,1117.2654,964.626,1111.6831,952.2514,1102.8274" style="stroke:#000000;stroke-width:1.0;"/><text fill="#000000" font-family="sans-serif" font-size="20" lengthAdjust="spacing" textLength="83" x="970" y="1116.8242">is set for</text><text fill="#000000" font-family="sans-serif" font-size="20" lengthAdjust="spacing" textLength="13" x="939.7397" y="1093.5605">1</text><text fill="#000000" font-family="sans-serif" font-size="20" lengthAdjust="spacing" textLength="13" x="994.0102" y="1157.2417">1</text></g><!--link PublishedProperty to Commission--><g id="link_PublishedProperty_Commission"><path codeLine="157" d="M1038.05,1066.7083 C1045.67,1076.0783 1052.58,1086.0883 1058,1096.4883 C1068.53,1116.7183 1073.61,1141.5483 1076.02,1162.4983 " fill="none" id="PublishedProperty-Commission-1" style="stroke:#181818;stroke-width:1.0;"/><polygon fill="#000000" points="1077.948,1116.7027,1076.9864,1101.5162,1068.2437,1104.9817,1077.948,1116.7027" style="stroke:#000000;stroke-width:1.0;"/><text fill="#000000" font-family="sans-serif" font-size="20" lengthAdjust="spacing" textLength="50" x="1088" y="1116.8242">has a</text><text fill="#000000" font-family="sans-serif" font-size="20" lengthAdjust="spacing" textLength="13" x="1031.679" y="1093.6798">1</text><text fill="#000000" font-family="sans-serif" font-size="20" lengthAdjust="spacing" textLength="13" x="1061.7745" y="1150.6027">1</text></g><!--link Residency to Equipment--><g id="link_Residency_Equipment"><path codeLine="153" d="M849.28,1657.7883 C883.55,1689.2383 925.26,1727.5083 954.14,1754.0083 " fill="none" id="Residency-Equipment" style="stroke:#181818;stroke-width:1.0;"/><polygon fill="#000000" points="920.8945,1705.6744,913.4105,1692.4251,907.0521,1699.3545,920.8945,1705.6744" style="stroke:#000000;stroke-width:1.0;"/><text fill="#000000" font-family="sans-serif" font-size="20" lengthAdjust="spacing" textLength="33" x="928" y="1707.8242">has</text><text fill="#000000" font-family="sans-serif" font-size="20" lengthAdjust="spacing" textLength="13" x="842.4983" y="1684.983">1</text><text fill="#000000" font-family="sans-serif" font-size="20" lengthAdjust="spacing" textLength="10" x="936.7908" y="1742.1843">*</text></g><!--link PublishedProperty to Property--><g id="link_PublishedProperty_Property"><path codeLine="154" d="M936.39,1066.7083 C912.11,1123.9383 871.3,1205.8083 817,1263.4883 C783.27,1299.3183 738.49,1329.8383 697.98,1353.1483 " fill="none" id="PublishedProperty-Property" style="stroke:#181818;stroke-width:1.0;"/><polygon fill="#000000" points="909.1178,1201.6168,896.2454,1209.732,903.4738,1215.7483,909.1178,1201.6168" style="stroke:#000000;stroke-width:1.0;"/><text fill="#000000" font-family="sans-serif" font-size="20" lengthAdjust="spacing" textLength="64" x="917" y="1215.3242">part of</text><text fill="#000000" font-family="sans-serif" font-size="20" lengthAdjust="spacing" textLength="13" x="920.3295" y="1093.6798">1</text><text fill="#000000" font-family="sans-serif" font-size="20" lengthAdjust="spacing" textLength="13" x="705.3357" y="1345.2734">1</text></g><!--link User to Address--><g id="link_User_Address"><path codeLine="155" d="M1359.38,129.6383 C1463.59,140.6683 1604,175.7083 1604,284.4883 C1604,284.4883 1604,284.4883 1604,1208.4883 C1604,1264.7883 1571.6,1321.8283 1544.64,1359.5583 " fill="none" id="User-Address" style="stroke:#181818;stroke-width:1.0;"/><polygon fill="#000000" points="1613.1916,675.1764,1615.6858,660.1653,1606.3862,661.5661,1613.1916,675.1764" style="stroke:#000000;stroke-width:1.0;"/><text fill="#000000" font-family="sans-serif" font-size="20" lengthAdjust="spacing" textLength="33" x="1625" y="674.8242">has</text><text fill="#000000" font-family="sans-serif" font-size="20" lengthAdjust="spacing" textLength="13" x="1366.8676" y="125.6067">1</text><text fill="#000000" font-family="sans-serif" font-size="20" lengthAdjust="spacing" textLength="10" x="1539.1403" y="1347.6715">*</text></g><!--link Property to Address--><g id="link_Property_Address"><path codeLine="156" d="M697.63,1404.4883 C886.03,1404.4883 1282.29,1404.4883 1441.07,1404.4883 " fill="none" id="Property-Address" style="stroke:#181818;stroke-width:1.0;"/><polygon fill="#000000" points="1043.5,1389.2656,1029.0279,1384.5633,1029.0279,1393.9679,1043.5,1389.2656" style="stroke:#000000;stroke-width:1.0;"/><text fill="#000000" font-family="sans-serif" font-size="20" lengthAdjust="spacing" textLength="62" x="1048.5" y="1396.8242">has an</text><text fill="#000000" font-family="sans-serif" font-size="20" lengthAdjust="spacing" textLength="13" x="705.6442" y="1399.992">1</text><text fill="#000000" font-family="sans-serif" font-size="20" lengthAdjust="spacing" textLength="13" x="1420.3944" y="1399.6842">1</text></g><!--link StoreManager to Agency--><g id="link_StoreManager_Agency"><path codeLine="158" d="M1225,601.1783 C1225,626.5383 1225,671.3483 1225,709.3183 " fill="none" id="StoreManager-Agency" style="stroke:#181818;stroke-width:1.0;"/><polygon fill="#000000" points="1233,675.2656,1237.7023,660.7935,1228.2977,660.7935,1233,675.2656" style="stroke:#000000;stroke-width:1.0;"/><text fill="#000000" font-family="sans-serif" font-size="20" lengthAdjust="spacing" textLength="115" x="1246" y="674.8242">manages an</text><text fill="#000000" font-family="sans-serif" font-size="20" lengthAdjust="spacing" textLength="13" x="1210.5781" y="627.7745">1</text><text fill="#000000" font-family="sans-serif" font-size="20" lengthAdjust="spacing" textLength="13" x="1211.3297" y="697.4785">1</text></g><!--link House to SunExposure--><g id="link_House_SunExposure"><path codeLine="159" d="M789,1831.8583 C789,1856.7383 789,1888.3983 789,1916.3383 " fill="none" id="House-SunExposure" style="stroke:#181818;stroke-width:1.0;"/><polygon fill="#000000" points="797,1882.2656,801.7023,1867.7935,792.2977,1867.7935,797,1882.2656" style="stroke:#000000;stroke-width:1.0;"/><text fill="#000000" font-family="sans-serif" font-size="20" lengthAdjust="spacing" textLength="131" x="810" y="1881.8242">has a value of</text><text fill="#000000" font-family="sans-serif" font-size="20" lengthAdjust="spacing" textLength="13" x="775.1672" y="1858.4737">1</text><text fill="#000000" font-family="sans-serif" font-size="20" lengthAdjust="spacing" textLength="13" x="775.3297" y="1904.5006">1</text></g><!--link PublishedProperty to TransactionType--><g id="link_PublishedProperty_TransactionType"><path codeLine="160" d="M1052.19,1040.0983 C1083.4,1055.8583 1117.84,1075.2383 1147,1096.4883 C1168.81,1112.3783 1190.5,1132.4283 1208.9,1151.0483 " fill="none" id="PublishedProperty-TransactionType" style="stroke:#181818;stroke-width:1.0;"/><polygon fill="#000000" points="1191.5292,1113.8883,1182.4349,1101.688,1177.0006,1109.3636,1191.5292,1113.8883" style="stroke:#000000;stroke-width:1.0;"/><text fill="#000000" font-family="sans-serif" font-size="20" lengthAdjust="spacing" textLength="131" x="1198" y="1116.8242">has a value of</text><text fill="#000000" font-family="sans-serif" font-size="20" lengthAdjust="spacing" textLength="13" x="1059.895" y="1038.8647">1</text><text fill="#000000" font-family="sans-serif" font-size="20" lengthAdjust="spacing" textLength="13" x="1189.0019" y="1139.1245">1</text></g><!--link Agency to Address--><g id="link_Agency_Address"><path codeLine="161" d="M1255.66,845.9683 C1314.18,974.7483 1440.31,1252.3183 1489.13,1359.7683 " fill="none" id="Agency-Address" style="stroke:#181818;stroke-width:1.0;"/><polygon fill="#000000" points="1391.3095,1116.549,1389.6036,1101.428,1381.0415,1105.3186,1391.3095,1116.549" style="stroke:#000000;stroke-width:1.0;"/><text fill="#000000" font-family="sans-serif" font-size="20" lengthAdjust="spacing" textLength="62" x="1401" y="1116.8242">has an</text><text fill="#000000" font-family="sans-serif" font-size="20" lengthAdjust="spacing" textLength="13" x="1244.8873" y="872.7134">1</text><text fill="#000000" font-family="sans-serif" font-size="20" lengthAdjust="spacing" textLength="13" x="1472.2569" y="1347.9123">1</text></g><!--link UnregisteredUser to PublishedProperty--><g id="link_UnregisteredUser_PublishedProperty"><path codeLine="162" d="M962,798.6983 C962,828.3483 962,885.0183 962,930.2883 " fill="none" id="UnregisteredUser-PublishedProperty" style="stroke:#181818;stroke-width:1.0;"/><polygon fill="#000000" points="970,896.2656,974.7023,881.7935,965.2977,881.7935,970,896.2656" style="stroke:#000000;stroke-width:1.0;"/><text fill="#000000" font-family="sans-serif" font-size="20" lengthAdjust="spacing" textLength="52" x="983" y="895.8242">views</text><text fill="#000000" font-family="sans-serif" font-size="20" lengthAdjust="spacing" textLength="13" x="947.5781" y="825.2989">1</text><text fill="#000000" font-family="sans-serif" font-size="20" lengthAdjust="spacing" textLength="10" x="951.4844" y="918.4454">*</text></g><!--SRC=[ZLPDRzim3BthLmYz31WmODin60gaYOSLQ9EYJZ7ig5XCBCIMF4bkcWtxxwCbVz29rxM7rgQU-F58FjSTbAw45MLXiWD8Bc4dwi9_DTgdwXVmpn-Pwo2yDDfakJKbS6zh82ULo0vY3wa_5S0jP5xeVK41BXVI79NUyvqe73t92k7St7khjhM7sype4FWZUpTW2gN1dohWnlhSi5n9u9co6OO8poMWMJh6lFAOmDAKGcb-RoGKZ8K0V54eq9x3YmSj7NzoO7-pFztf-gZ1ZWuvEKtAgZ0dW7_Tdk-fwmvD017FyKUB4i93XVOAora8ArTrkGKRp5wya3V0EefeXmAgt6XeJqUnirDqVhiSnmZNvr9QS2u6dVBmO4q5rhS-X0KH7gHosCKClcA_5rXVcr9bLGRaScwySPIiDbxq9esnf9vVgbfWKmPmwYs09xSNgacaVrrY4XYG8b8lFELsZYFYIzg0Ht0u586L7lNDr0wc44rQM-6WyH1UbCx5LdcnBU3ExFpWeh_KknapfqETwzqDI6jCwSP6uVDBwuEmEEFx5DS7S7e7LkjjeLmESXoXMG6yrDfYEpha4baPMsuY8ZDbgPnJHXEMUrjqZFuoh1ytEBm-Yw8cJReJMaxKFAp7prfL3N_H6NIlgsOE1_fCWMsRB-zlLoovVxXR_qWIqjMJyr3EPQbqqtBXZNrjeL8yXtkXCUF_urRWZyOUtWAlTV9I6LTRjAxMZvjlB5q_uUzadcxOzmH_zTYD5Tg9p2E96-pBR_QOh3OidTybxERf1zbzRM6FDO45UQORZqWLk3ZSR2hLgqzN_CC7VlN-QbJnZ9VXmV5h5lUV8eCQpNWkckCfNWcsus36Cznx7ppsQjVXy4_JlEXI_CVf9VYLkYx0KKd9SHHcJ0y_I4WsVg6sfm675SGwkgcSzUFlnjxEK0wy8vk1s1Y8K3E0pL6xCI80skurpJY4SAqXfXNJRtkX74R4LBoXiEZf4mqLctQ9E1ks3jXgBIKio2CIrgWYDpl-XJMIIdFgD9M0cYurGanXuHg5zFSYQ3hSDMi_j7GWOvPjbnkoku97V8SlILVPXGBI6WVvQgdrV8SZ-8KD4ardlDEZD_acazGp6FuV-5T1vzN4lb-M_BQ2-DdYJ6nCtFX10uBx-7sZSp18MUSoo7fiqglPJ0xRwFgPw4mMVAvxerwVXv_nPmN7Xaps5m00]--></g></svg>