<?xml version="1.0" encoding="UTF-8" standalone="no"?><svg xmlns="http://www.w3.org/2000/svg" xmlns:xlink="http://www.w3.org/1999/xlink" contentStyleType="text/css" height="2162px" preserveAspectRatio="none" style="width:1390px;height:2162px;background:#FFFFFF;" version="1.1" viewBox="0 0 1390 2162" width="1390px" zoomAndPan="magnify"><defs/><g><text fill="#000000" font-family="sans-serif" font-size="14" font-weight="bold" lengthAdjust="spacing" textLength="105" x="635.5" y="23.5352">Domain Model</text><!--class Client--><g id="elem_Client"><rect codeLine="11" fill="#F1F1F1" height="41.5547" id="Client" rx="2.5" ry="2.5" style="stroke:#181818;stroke-width:0.5;" width="62" x="1143" y="580.4883"/><text fill="#000000" font-family="sans-serif" font-size="20" lengthAdjust="spacing" textLength="56" x="1146" y="604.8242">Client</text><line style="stroke:#181818;stroke-width:0.5;" x1="1144" x2="1204" y1="614.043" y2="614.043"/></g><!--class User--><g id="elem_User"><rect codeLine="23" fill="#F1F1F1" height="159.3281" id="User" rx="2.5" ry="2.5" style="stroke:#181818;stroke-width:0.5;" width="220" x="921" y="288.4883"/><text fill="#000000" font-family="sans-serif" font-size="20" lengthAdjust="spacing" textLength="43" x="1009.5" y="312.8242">User</text><line style="stroke:#181818;stroke-width:0.5;" x1="922" x2="1140" y1="322.043" y2="322.043"/><text fill="#000000" font-family="sans-serif" font-size="20" lengthAdjust="spacing" textLength="53" x="927" y="345.3789">name</text><text fill="#000000" font-family="sans-serif" font-size="20" lengthAdjust="spacing" textLength="208" x="927" y="368.9336">passportCardNumber</text><text fill="#000000" font-family="sans-serif" font-size="20" lengthAdjust="spacing" textLength="108" x="927" y="392.4883">taxNumber</text><text fill="#000000" font-family="sans-serif" font-size="20" lengthAdjust="spacing" textLength="53" x="927" y="416.043">email</text><text fill="#000000" font-family="sans-serif" font-size="20" lengthAdjust="spacing" textLength="173" x="927" y="439.5977">telephoneNumber</text></g><!--class Owner--><g id="elem_Owner"><rect codeLine="14" fill="#F1F1F1" height="41.5547" id="Owner" rx="2.5" ry="2.5" style="stroke:#181818;stroke-width:0.5;" width="68" x="145" y="1289.4883"/><text fill="#000000" font-family="sans-serif" font-size="20" lengthAdjust="spacing" textLength="62" x="148" y="1313.8242">Owner</text><line style="stroke:#181818;stroke-width:0.5;" x1="146" x2="212" y1="1323.043" y2="1323.043"/></g><!--class Employee--><g id="elem_Employee"><rect codeLine="17" fill="#F1F1F1" height="41.5547" id="Employee" rx="2.5" ry="2.5" style="stroke:#181818;stroke-width:0.5;" width="99" x="802.5" y="508.4883"/><text fill="#000000" font-family="sans-serif" font-size="20" lengthAdjust="spacing" textLength="93" x="805.5" y="532.8242">Employee</text><line style="stroke:#181818;stroke-width:0.5;" x1="803.5" x2="900.5" y1="542.043" y2="542.043"/></g><!--class Agent--><g id="elem_Agent"><rect codeLine="20" fill="#F1F1F1" height="41.5547" id="Agent" rx="2.5" ry="2.5" style="stroke:#181818;stroke-width:0.5;" width="62" x="413" y="1127.4883"/><text fill="#000000" font-family="sans-serif" font-size="20" lengthAdjust="spacing" textLength="56" x="416" y="1151.8242">Agent</text><line style="stroke:#181818;stroke-width:0.5;" x1="414" x2="474" y1="1161.043" y2="1161.043"/></g><!--class Agency--><g id="elem_Agency"><rect codeLine="31" fill="#F1F1F1" height="135.7734" id="Agency" rx="2.5" ry="2.5" style="stroke:#181818;stroke-width:0.5;" width="150" x="782" y="906.4883"/><text fill="#000000" font-family="sans-serif" font-size="20" lengthAdjust="spacing" textLength="69" x="822.5" y="930.8242">Agency</text><line style="stroke:#181818;stroke-width:0.5;" x1="783" x2="931" y1="940.043" y2="940.043"/><text fill="#000000" font-family="sans-serif" font-size="20" lengthAdjust="spacing" textLength="21" x="788" y="963.3789">ID</text><text fill="#000000" font-family="sans-serif" font-size="20" lengthAdjust="spacing" textLength="53" x="788" y="986.9336">name</text><text fill="#000000" font-family="sans-serif" font-size="20" lengthAdjust="spacing" textLength="132" x="788" y="1010.4883">emailAddress</text><text fill="#000000" font-family="sans-serif" font-size="20" lengthAdjust="spacing" textLength="138" x="788" y="1034.043">phoneNumber</text></g><!--class Property--><g id="elem_Property"><rect codeLine="38" fill="#F1F1F1" height="112.2188" id="Property" rx="2.5" ry="2.5" style="stroke:#181818;stroke-width:0.5;" width="205" x="265.5" y="1451.4883"/><text fill="#000000" font-family="sans-serif" font-size="20" lengthAdjust="spacing" textLength="80" x="328" y="1475.8242">Property</text><line style="stroke:#181818;stroke-width:0.5;" x1="266.5" x2="469.5" y1="1485.043" y2="1485.043"/><text fill="#000000" font-family="sans-serif" font-size="20" lengthAdjust="spacing" textLength="41" x="271.5" y="1508.3789">area</text><text fill="#000000" font-family="sans-serif" font-size="20" lengthAdjust="spacing" textLength="193" x="271.5" y="1531.9336">distanceFromCenter</text><text fill="#000000" font-family="sans-serif" font-size="20" lengthAdjust="spacing" textLength="48" x="271.5" y="1555.4883">price</text></g><!--class Photo--><g id="elem_Photo"><rect codeLine="44" fill="#F1F1F1" height="41.5547" id="Photo" rx="2.5" ry="2.5" style="stroke:#181818;stroke-width:0.5;" width="60" x="532" y="1486.4883"/><text fill="#000000" font-family="sans-serif" font-size="20" lengthAdjust="spacing" textLength="54" x="535" y="1510.8242">Photo</text><line style="stroke:#181818;stroke-width:0.5;" x1="533" x2="591" y1="1520.043" y2="1520.043"/></g><!--class Address--><g id="elem_Address"><rect codeLine="47" fill="#F1F1F1" height="88.6641" id="Address" rx="2.5" ry="2.5" style="stroke:#181818;stroke-width:0.5;" width="135" x="1036.5" y="1462.9883"/><text fill="#000000" font-family="sans-serif" font-size="20" lengthAdjust="spacing" textLength="79" x="1064.5" y="1487.3242">Address</text><line style="stroke:#181818;stroke-width:0.5;" x1="1037.5" x2="1170.5" y1="1496.543" y2="1496.543"/><text fill="#000000" font-family="sans-serif" font-size="20" lengthAdjust="spacing" textLength="123" x="1042.5" y="1519.8789">doorNumber</text><text fill="#000000" font-family="sans-serif" font-size="20" lengthAdjust="spacing" textLength="80" x="1042.5" y="1543.4336">zipCode</text></g><!--class Street--><g id="elem_Street"><rect codeLine="52" fill="#F1F1F1" height="41.5547" id="Street" rx="2.5" ry="2.5" style="stroke:#181818;stroke-width:0.5;" width="61" x="1268.5" y="953.4883"/><text fill="#000000" font-family="sans-serif" font-size="20" lengthAdjust="spacing" textLength="55" x="1271.5" y="977.8242">Street</text><line style="stroke:#181818;stroke-width:0.5;" x1="1269.5" x2="1328.5" y1="987.043" y2="987.043"/></g><!--class City--><g id="elem_City"><rect codeLine="55" fill="#F1F1F1" height="41.5547" id="City" rx="2.5" ry="2.5" style="stroke:#181818;stroke-width:0.5;" width="43" x="1274.5" y="1127.4883"/><text fill="#000000" font-family="sans-serif" font-size="20" lengthAdjust="spacing" textLength="37" x="1277.5" y="1151.8242">City</text><line style="stroke:#181818;stroke-width:0.5;" x1="1275.5" x2="1316.5" y1="1161.043" y2="1161.043"/></g><!--class District--><g id="elem_District"><rect codeLine="58" fill="#F1F1F1" height="41.5547" id="District" rx="2.5" ry="2.5" style="stroke:#181818;stroke-width:0.5;" width="75" x="1242.5" y="1289.4883"/><text fill="#000000" font-family="sans-serif" font-size="20" lengthAdjust="spacing" textLength="69" x="1245.5" y="1313.8242">District</text><line style="stroke:#181818;stroke-width:0.5;" x1="1243.5" x2="1316.5" y1="1323.043" y2="1323.043"/></g><!--class State--><g id="elem_State"><rect codeLine="61" fill="#F1F1F1" height="41.5547" id="State" rx="2.5" ry="2.5" style="stroke:#181818;stroke-width:0.5;" width="53" x="1187.5" y="1683.4883"/><text fill="#000000" font-family="sans-serif" font-size="20" lengthAdjust="spacing" textLength="47" x="1190.5" y="1707.8242">State</text><line style="stroke:#181818;stroke-width:0.5;" x1="1188.5" x2="1239.5" y1="1717.043" y2="1717.043"/></g><!--class Apartment--><g id="elem_Apartment"><rect codeLine="64" fill="#F1F1F1" height="41.5547" id="Apartment" rx="2.5" ry="2.5" style="stroke:#181818;stroke-width:0.5;" width="108" x="7" y="1868.9883"/><text fill="#000000" font-family="sans-serif" font-size="20" lengthAdjust="spacing" textLength="102" x="10" y="1893.3242">Apartment</text><line style="stroke:#181818;stroke-width:0.5;" x1="8" x2="114" y1="1902.543" y2="1902.543"/></g><!--class Residency--><g id="elem_Residency"><rect codeLine="72" fill="#F1F1F1" height="112.2188" id="Residency" rx="2.5" ry="2.5" style="stroke:#181818;stroke-width:0.5;" width="248" x="105" y="1648.4883"/><text fill="#000000" font-family="sans-serif" font-size="20" lengthAdjust="spacing" textLength="96" x="181" y="1672.8242">Residency</text><line style="stroke:#181818;stroke-width:0.5;" x1="106" x2="352" y1="1682.043" y2="1682.043"/><text fill="#000000" font-family="sans-serif" font-size="20" lengthAdjust="spacing" textLength="195" x="111" y="1705.3789">numberOfBedrooms</text><text fill="#000000" font-family="sans-serif" font-size="20" lengthAdjust="spacing" textLength="201" x="111" y="1728.9336">numberOfBathrooms</text><text fill="#000000" font-family="sans-serif" font-size="20" lengthAdjust="spacing" textLength="236" x="111" y="1752.4883">numberOfParkingSpaces</text></g><!--class House--><g id="elem_House"><rect codeLine="67" fill="#F1F1F1" height="88.6641" id="House" rx="2.5" ry="2.5" style="stroke:#181818;stroke-width:0.5;" width="157" x="150.5" y="1845.4883"/><text fill="#000000" font-family="sans-serif" font-size="20" lengthAdjust="spacing" textLength="60" x="199" y="1869.8242">House</text><line style="stroke:#181818;stroke-width:0.5;" x1="151.5" x2="306.5" y1="1879.043" y2="1879.043"/><text fill="#000000" font-family="sans-serif" font-size="20" lengthAdjust="spacing" textLength="94" x="156.5" y="1902.3789">basement</text><text fill="#000000" font-family="sans-serif" font-size="20" lengthAdjust="spacing" textLength="145" x="156.5" y="1925.9336">inhabitableLoft</text></g><!--class Announcement--><g id="elem_Announcement"><rect codeLine="79" fill="#F1F1F1" height="112.2188" id="Announcement" rx="2.5" ry="2.5" style="stroke:#181818;stroke-width:0.5;" width="152" x="500" y="1254.4883"/><text fill="#000000" font-family="sans-serif" font-size="20" lengthAdjust="spacing" textLength="144" x="504" y="1278.8242">Announcement</text><line style="stroke:#181818;stroke-width:0.5;" x1="501" x2="651" y1="1288.043" y2="1288.043"/><text fill="#000000" font-family="sans-serif" font-size="20" lengthAdjust="spacing" textLength="140" x="506" y="1311.3789">publishedDate</text><text fill="#000000" font-family="sans-serif" font-size="20" lengthAdjust="spacing" textLength="118" x="506" y="1334.9336">publishedBy</text><text fill="#000000" font-family="sans-serif" font-size="20" lengthAdjust="spacing" textLength="110" x="506" y="1358.4883">isPublished</text></g><!--class Commission--><g id="elem_Commission"><rect codeLine="85" fill="#F1F1F1" height="88.6641" id="Commission" rx="2.5" ry="2.5" style="stroke:#181818;stroke-width:0.5;" width="126" x="662" y="1462.9883"/><text fill="#000000" font-family="sans-serif" font-size="20" lengthAdjust="spacing" textLength="120" x="665" y="1487.3242">Commission</text><line style="stroke:#181818;stroke-width:0.5;" x1="663" x2="787" y1="1496.543" y2="1496.543"/><text fill="#000000" font-family="sans-serif" font-size="20" lengthAdjust="spacing" textLength="106" x="668" y="1519.8789">percentage</text><text fill="#000000" font-family="sans-serif" font-size="20" lengthAdjust="spacing" textLength="50" x="668" y="1543.4336">value</text></g><!--class TypeOfProperty--><g id="elem_TypeOfProperty"><rect codeLine="90" fill="#F1F1F1" height="112.2188" id="TypeOfProperty" rx="2.5" ry="2.5" style="stroke:#181818;stroke-width:0.5;" width="156" x="845" y="1451.4883"/><text fill="#000000" font-family="sans-serif" font-size="20" lengthAdjust="spacing" textLength="150" x="848" y="1475.8242">TypeOfProperty</text><line style="stroke:#181818;stroke-width:0.5;" x1="846" x2="1000" y1="1485.043" y2="1485.043"/><text fill="#000000" font-family="sans-serif" font-size="20" lengthAdjust="spacing" textLength="121" x="851" y="1508.3789">APARTMENT</text><text fill="#000000" font-family="sans-serif" font-size="20" lengthAdjust="spacing" textLength="67" x="851" y="1531.9336">HOUSE</text><text fill="#000000" font-family="sans-serif" font-size="20" lengthAdjust="spacing" textLength="55" x="851" y="1555.4883">LAND</text></g><!--class Land--><g id="elem_Land"><rect codeLine="96" fill="#F1F1F1" height="41.5547" id="Land" rx="2.5" ry="2.5" style="stroke:#181818;stroke-width:0.5;" width="53" x="388.5" y="1683.4883"/><text fill="#000000" font-family="sans-serif" font-size="20" lengthAdjust="spacing" textLength="47" x="391.5" y="1707.8242">Land</text><line style="stroke:#181818;stroke-width:0.5;" x1="389.5" x2="440.5" y1="1717.043" y2="1717.043"/></g><!--class Equipment--><g id="elem_Equipment"><rect codeLine="99" fill="#F1F1F1" height="65.1094" id="Equipment" rx="2.5" ry="2.5" style="stroke:#181818;stroke-width:0.5;" width="172" x="343" y="1857.4883"/><text fill="#000000" font-family="sans-serif" font-size="20" lengthAdjust="spacing" textLength="104" x="377" y="1881.8242">Equipment</text><line style="stroke:#181818;stroke-width:0.5;" x1="344" x2="514" y1="1891.043" y2="1891.043"/><text fill="#000000" font-family="sans-serif" font-size="20" lengthAdjust="spacing" textLength="160" x="349" y="1914.3789">equipmentName</text></g><!--class Role--><g id="elem_Role"><rect codeLine="103" fill="#F1F1F1" height="159.3281" id="Role" rx="2.5" ry="2.5" style="stroke:#181818;stroke-width:0.5;" width="292" x="885" y="44.4883"/><text fill="#000000" font-family="sans-serif" font-size="20" lengthAdjust="spacing" textLength="42" x="1010" y="68.8242">Role</text><line style="stroke:#181818;stroke-width:0.5;" x1="886" x2="1176" y1="78.043" y2="78.043"/><text fill="#000000" font-family="sans-serif" font-size="20" lengthAdjust="spacing" textLength="67" x="891" y="101.3789">ADMIN</text><text fill="#000000" font-family="sans-serif" font-size="20" lengthAdjust="spacing" textLength="100" x="891" y="124.9336">EMPLOYEE</text><text fill="#000000" font-family="sans-serif" font-size="20" lengthAdjust="spacing" textLength="70" x="891" y="148.4883">CLIENT</text><text fill="#000000" font-family="sans-serif" font-size="20" lengthAdjust="spacing" textLength="280" x="891" y="172.043">STORE_NETWORK_MANAGER</text><text fill="#000000" font-family="sans-serif" font-size="20" lengthAdjust="spacing" textLength="172" x="891" y="195.5977">STORE_MANAGER</text></g><!--class SystemAdministrator--><g id="elem_SystemAdministrator"><rect codeLine="111" fill="#F1F1F1" height="41.5547" id="SystemAdministrator" rx="2.5" ry="2.5" style="stroke:#181818;stroke-width:0.5;" width="207" x="755.5" y="652.4883"/><text fill="#000000" font-family="sans-serif" font-size="20" lengthAdjust="spacing" textLength="201" x="758.5" y="676.8242">SystemAdministrator</text><line style="stroke:#181818;stroke-width:0.5;" x1="756.5" x2="961.5" y1="686.043" y2="686.043"/></g><!--class StoreManager--><g id="elem_StoreManager"><rect codeLine="114" fill="#F1F1F1" height="41.5547" id="StoreManager" rx="2.5" ry="2.5" style="stroke:#181818;stroke-width:0.5;" width="137" x="788.5" y="779.4883"/><text fill="#000000" font-family="sans-serif" font-size="20" lengthAdjust="spacing" textLength="131" x="791.5" y="803.8242">StoreManager</text><line style="stroke:#181818;stroke-width:0.5;" x1="789.5" x2="924.5" y1="813.043" y2="813.043"/></g><!--class StoreNetworkManager--><g id="elem_StoreNetworkManager"><rect codeLine="117" fill="#F1F1F1" height="41.5547" id="StoreNetworkManager" rx="2.5" ry="2.5" style="stroke:#181818;stroke-width:0.5;" width="217" x="503.5" y="652.4883"/><text fill="#000000" font-family="sans-serif" font-size="20" lengthAdjust="spacing" textLength="211" x="506.5" y="676.8242">StoreNetworkManager</text><line style="stroke:#181818;stroke-width:0.5;" x1="504.5" x2="719.5" y1="686.043" y2="686.043"/></g><!--class SunExposure--><g id="elem_SunExposure"><rect codeLine="120" fill="#F1F1F1" height="135.7734" id="SunExposure" rx="2.5" ry="2.5" style="stroke:#181818;stroke-width:0.5;" width="130" x="164" y="2019.4883"/><text fill="#000000" font-family="sans-serif" font-size="20" lengthAdjust="spacing" textLength="124" x="167" y="2043.8242">SunExposure</text><line style="stroke:#181818;stroke-width:0.5;" x1="165" x2="293" y1="2053.043" y2="2053.043"/><text fill="#000000" font-family="sans-serif" font-size="20" lengthAdjust="spacing" textLength="72" x="170" y="2076.3789">NORTH</text><text fill="#000000" font-family="sans-serif" font-size="20" lengthAdjust="spacing" textLength="69" x="170" y="2099.9336">SOUTH</text><text fill="#000000" font-family="sans-serif" font-size="20" lengthAdjust="spacing" textLength="49" x="170" y="2123.4883">EAST</text><text fill="#000000" font-family="sans-serif" font-size="20" lengthAdjust="spacing" textLength="52" x="170" y="2147.043">WEST</text></g><!--class TransactionType--><g id="elem_TransactionType"><rect codeLine="127" fill="#F1F1F1" height="112.2188" id="TransactionType" rx="2.5" ry="2.5" style="stroke:#181818;stroke-width:0.5;" width="165" x="741.5" y="1254.4883"/><text fill="#000000" font-family="sans-serif" font-size="20" lengthAdjust="spacing" textLength="159" x="744.5" y="1278.8242">TransactionType</text><line style="stroke:#181818;stroke-width:0.5;" x1="742.5" x2="905.5" y1="1288.043" y2="1288.043"/><text fill="#000000" font-family="sans-serif" font-size="20" lengthAdjust="spacing" textLength="52" x="747.5" y="1311.3789">RENT</text><text fill="#000000" font-family="sans-serif" font-size="20" lengthAdjust="spacing" textLength="47" x="747.5" y="1334.9336">SALE</text><text fill="#000000" font-family="sans-serif" font-size="20" lengthAdjust="spacing" textLength="38" x="747.5" y="1358.4883">BUY</text></g><!--class UnregisteredUser--><g id="elem_UnregisteredUser"><rect codeLine="133" fill="#F1F1F1" height="41.5547" id="UnregisteredUser" rx="2.5" ry="2.5" style="stroke:#181818;stroke-width:0.5;" width="172" x="695" y="1127.4883"/><text fill="#000000" font-family="sans-serif" font-size="20" lengthAdjust="spacing" textLength="166" x="698" y="1151.8242">UnregisteredUser</text><line style="stroke:#181818;stroke-width:0.5;" x1="696" x2="866" y1="1161.043" y2="1161.043"/></g><!--reverse link User to Client--><g id="link_User_Client"><path d="M1107.93,464.9383 C1110.73,469.1283 1113.43,473.3183 1116,477.4883 C1137.19,511.8483 1155.95,555.1883 1166.07,580.1783 " fill="none" id="User-backto-Client" style="stroke:#181818;stroke-width:1.0;"/><polygon fill="none" points="1101.69,469.2183,1096,448.8083,1113.18,461.2183,1101.69,469.2183" style="stroke:#181818;stroke-width:1.0;"/></g><!--reverse link User to Owner--><g id="link_User_Owner"><path d="M899.95,377.3083 C636.79,395.7683 69,445.2483 69,528.4883 C69,528.4883 69,528.4883 69,1149.4883 C69,1208.3083 120.11,1261.2783 152.65,1289.0483 " fill="none" id="User-backto-Owner" style="stroke:#181818;stroke-width:1.0;"/><polygon fill="none" points="899.21,370.2683,919.65,375.8683,900.18,384.2383,899.21,370.2683" style="stroke:#181818;stroke-width:1.0;"/></g><!--reverse link User to Employee--><g id="link_User_Employee"><path d="M927.07,461.5983 C907.46,479.0683 888.8,495.6883 874.99,507.9983 " fill="none" id="User-backto-Employee" style="stroke:#181818;stroke-width:1.0;"/><polygon fill="none" points="921.96,456.8783,941.55,448.8083,931.27,467.3383,921.96,456.8783" style="stroke:#181818;stroke-width:1.0;"/></g><!--reverse link Employee to Agent--><g id="link_Employee_Agent"><path d="M781.89,540.1483 C665.25,558.2183 444,601.7983 444,672.4883 C444,672.4883 444,672.4883 444,975.4883 C444,1030.2883 444,1094.8983 444,1127.0983 " fill="none" id="Employee-backto-Agent" style="stroke:#181818;stroke-width:1.0;"/><polygon fill="none" points="780.56,533.1183,801.38,537.0783,782.64,546.9683,780.56,533.1183" style="stroke:#181818;stroke-width:1.0;"/></g><!--reverse link Residency to Apartment--><g id="link_Residency_Apartment"><path d="M164.47,1775.9683 C134.02,1809.2283 99.97,1846.4283 79.52,1868.7583 " fill="none" id="Residency-backto-Apartment" style="stroke:#181818;stroke-width:1.0;"/><polygon fill="none" points="158.93,1771.5683,177.59,1761.5483,169.25,1781.0183,158.93,1771.5683" style="stroke:#181818;stroke-width:1.0;"/></g><!--reverse link Residency to House--><g id="link_Residency_House"><path d="M229,1781.2483 C229,1802.9683 229,1825.9183 229,1845.0383 " fill="none" id="Residency-backto-House" style="stroke:#181818;stroke-width:1.0;"/><polygon fill="none" points="222,1781.5483,229,1761.5483,236,1781.5483,222,1781.5483" style="stroke:#181818;stroke-width:1.0;"/></g><!--reverse link Property to Residency--><g id="link_Property_Residency"><path d="M316.47,1580.7783 C300.64,1602.9883 283.46,1627.0883 268.56,1647.9883 " fill="none" id="Property-backto-Residency" style="stroke:#181818;stroke-width:1.0;"/><polygon fill="none" points="311.23,1577.0683,328.54,1564.8483,322.63,1585.1983,311.23,1577.0683" style="stroke:#181818;stroke-width:1.0;"/></g><!--reverse link Property to Land--><g id="link_Property_Land"><path d="M386.26,1584.2483 C394.87,1619.9683 404.47,1659.7983 410.11,1683.1883 " fill="none" id="Property-backto-Land" style="stroke:#181818;stroke-width:1.0;"/><polygon fill="none" points="379.22,1585.9283,381.34,1564.8483,392.83,1582.6483,379.22,1585.9283" style="stroke:#181818;stroke-width:1.0;"/></g><!--reverse link Employee to SystemAdministrator--><g id="link_Employee_SystemAdministrator"><path d="M845.19,571.1983 C843.48,587.2283 842.7,605.7683 845,622.4883 C846.37,632.4883 849.23,643.3083 852,652.3183 " fill="none" id="Employee-backto-SystemAdministrator" style="stroke:#181818;stroke-width:1.0;"/><polygon fill="none" points="838.36,570.5283,848.01,551.6583,852.23,572.4283,838.36,570.5283" style="stroke:#181818;stroke-width:1.0;"/></g><!--link SystemAdministrator to Employee--><g id="link_SystemAdministrator_Employee"><path codeLine="143" d="M858,652.1783 C856.67,625.2083 854.33,577.8283 853,550.8383 " fill="none" id="SystemAdministrator-Employee" style="stroke:#181818;stroke-width:1.0;"/><polygon fill="#000000" points="864.6058,593.7753,860.6224,608.4616,870.0155,607.9982,864.6058,593.7753" style="stroke:#000000;stroke-width:1.0;"/><text fill="#000000" font-family="sans-serif" font-size="20" lengthAdjust="spacing" textLength="68" x="878" y="609.3242">creates</text><text fill="#000000" font-family="sans-serif" font-size="20" lengthAdjust="spacing" textLength="13" x="843.0781" y="640.2348">1</text><text fill="#000000" font-family="sans-serif" font-size="20" lengthAdjust="spacing" textLength="10" x="842.125" y="577.4695">*</text></g><!--reverse link Employee to StoreManager--><g id="link_Employee_StoreManager"><path d="M920.64,554.3983 C933.34,561.2583 945.55,569.8583 955,580.4883 C977.5,605.8083 974.37,619.0883 980,652.4883 C983.1,670.8983 987.82,677.5383 980,694.4883 C962.66,732.0983 924.47,761.2283 895.21,779.1583 " fill="none" id="Employee-backto-StoreManager" style="stroke:#181818;stroke-width:1.0;"/><polygon fill="none" points="918.04,560.4283,902.97,545.5383,924.04,547.7883,918.04,560.4283" style="stroke:#181818;stroke-width:1.0;"/></g><!--reverse link Employee to StoreNetworkManager--><g id="link_Employee_StoreNetworkManager"><path d="M799.43,561.5883 C753.01,589.0583 686.67,628.3083 646.63,651.9983 " fill="none" id="Employee-backto-StoreNetworkManager" style="stroke:#181818;stroke-width:1.0;"/><polygon fill="none" points="795.58,555.1483,816.36,550.9883,802.71,567.1983,795.58,555.1483" style="stroke:#181818;stroke-width:1.0;"/></g><!--link Agent to Announcement--><g id="link_Agent_Announcement"><path codeLine="139" d="M475.23,1150.4783 C509.11,1153.4283 561.73,1163.8883 587,1199.4883 C598.11,1215.1383 598.86,1235.3483 595.65,1254.1683 " fill="none" id="Agent-Announcement" style="stroke:#181818;stroke-width:1.0;"/><polygon fill="#000000" points="611.0623,1217.4857,603.1638,1204.4792,597.0273,1211.6058,611.0623,1217.4857" style="stroke:#000000;stroke-width:1.0;"/><text fill="#000000" font-family="sans-serif" font-size="20" lengthAdjust="spacing" textLength="93" x="618" y="1219.8242">publishes</text><text fill="#000000" font-family="sans-serif" font-size="20" lengthAdjust="spacing" textLength="13" x="483.0118" y="1172.6997">1</text><text fill="#000000" font-family="sans-serif" font-size="20" lengthAdjust="spacing" textLength="13" x="584.2527" y="1242.2591">1</text></g><!--link Announcement to Agent--><g id="link_Announcement_Agent"><path codeLine="149" d="M499.81,1267.4783 C469.17,1249.7983 440.04,1231.6783 436,1224.4883 C426.62,1207.8283 430.54,1185.7783 435.64,1169.8983 " fill="none" id="Announcement-Agent" style="stroke:#181818;stroke-width:1.0;"/><polygon fill="#000000" points="439.6044,1205.5814,443.6273,1220.2569,451.485,1215.0896,439.6044,1205.5814" style="stroke:#000000;stroke-width:1.0;"/><text fill="#000000" font-family="sans-serif" font-size="20" lengthAdjust="spacing" textLength="121" x="457" y="1219.8242">requested to</text><text fill="#000000" font-family="sans-serif" font-size="20" lengthAdjust="spacing" textLength="10" x="482.0716" y="1283.8269">*</text><text fill="#000000" font-family="sans-serif" font-size="20" lengthAdjust="spacing" textLength="13" x="419.3894" y="1196.5427">1</text></g><!--link Announcement to TypeOfProperty--><g id="link_Announcement_TypeOfProperty"><path codeLine="140" d="M652.44,1342.4783 C675.22,1351.0083 700.41,1359.7583 724,1366.4883 C788.54,1384.8983 819.32,1354.8983 872,1396.4883 C889.35,1410.1883 901.04,1431.1483 908.81,1451.1183 " fill="none" id="Announcement-TypeOfProperty" style="stroke:#181818;stroke-width:1.0;"/><polygon fill="#000000" points="909.3659,1412.387,897.8756,1402.4108,894.2061,1411.0699,909.3659,1412.387" style="stroke:#000000;stroke-width:1.0;"/><text fill="#000000" font-family="sans-serif" font-size="20" lengthAdjust="spacing" textLength="33" x="915" y="1416.8242">has</text><text fill="#000000" font-family="sans-serif" font-size="20" lengthAdjust="spacing" textLength="13" x="660.086" y="1340.7186">1</text><text fill="#000000" font-family="sans-serif" font-size="20" lengthAdjust="spacing" textLength="13" x="893.2884" y="1439.203">1</text></g><!--link StoreNetworkManager to StoreManager--><g id="link_StoreNetworkManager_StoreManager"><path codeLine="141" d="M651.91,694.8483 C697.47,718.0983 771.56,755.8983 817.11,779.1383 " fill="none" id="StoreNetworkManager-StoreManager" style="stroke:#181818;stroke-width:1.0;"/><polygon fill="#000000" points="772.126,740.9015,761.3721,730.1355,757.0978,738.5127,772.126,740.9015" style="stroke:#000000;stroke-width:1.0;"/><text fill="#000000" font-family="sans-serif" font-size="20" lengthAdjust="spacing" textLength="86" x="778" y="744.8242">manages</text><text fill="#000000" font-family="sans-serif" font-size="20" lengthAdjust="spacing" textLength="13" x="646.2184" y="721.4817">1</text><text fill="#000000" font-family="sans-serif" font-size="20" lengthAdjust="spacing" textLength="10" x="795.6069" y="767.1845">*</text></g><!--link Agency to Agent--><g id="link_Agency_Agent"><path codeLine="142" d="M781.73,1006.8383 C690.29,1044.9183 540.24,1107.4083 475.43,1134.3983 " fill="none" id="Agency-Agent" style="stroke:#181818;stroke-width:1.0;"/><polygon fill="#000000" points="614.6148,1088.3412,629.7825,1087.1183,626.1669,1078.4365,614.6148,1088.3412" style="stroke:#000000;stroke-width:1.0;"/><text fill="#000000" font-family="sans-serif" font-size="20" lengthAdjust="spacing" textLength="33" x="635" y="1092.8242">has</text><text fill="#000000" font-family="sans-serif" font-size="20" lengthAdjust="spacing" textLength="13" x="760.9363" y="1005.1987">1</text><text fill="#000000" font-family="sans-serif" font-size="20" lengthAdjust="spacing" textLength="10" x="482.9437" y="1125.5594">*</text></g><!--link Role to User--><g id="link_Role_User"><path codeLine="144" d="M1031,203.8883 C1031,230.9283 1031,261.1683 1031,288.1883 " fill="none" id="Role-User" style="stroke:#181818;stroke-width:1.0;"/><polygon fill="#000000" points="1039,238.2656,1034.2977,252.7378,1043.7023,252.7378,1039,238.2656" style="stroke:#000000;stroke-width:1.0;"/><text fill="#000000" font-family="sans-serif" font-size="20" lengthAdjust="spacing" textLength="33" x="1052" y="253.8242">has</text><text fill="#000000" font-family="sans-serif" font-size="20" lengthAdjust="spacing" textLength="13" x="1017.4414" y="231.0886">1</text><text fill="#000000" font-family="sans-serif" font-size="20" lengthAdjust="spacing" textLength="13" x="1017.4211" y="276.4029">1</text></g><!--link Agent to Owner--><g id="link_Agent_Owner"><path codeLine="145" d="M412.76,1149.4583 C339.7,1150.1283 161.02,1156.2383 124,1199.4883 C100.68,1226.7383 131.65,1265.5983 155.7,1289.0883 " fill="none" id="Agent-Owner" style="stroke:#181818;stroke-width:1.0;"/><polygon fill="#000000" points="124.9701,1216.0841,139.9317,1213.3085,135.4428,1205.0443,124.9701,1216.0841" style="stroke:#000000;stroke-width:1.0;"/><text fill="#000000" font-family="sans-serif" font-size="20" lengthAdjust="spacing" textLength="122" x="145" y="1219.8242">contacted by</text><text fill="#000000" font-family="sans-serif" font-size="20" lengthAdjust="spacing" textLength="13" x="391.9761" y="1171.4693">1</text><text fill="#000000" font-family="sans-serif" font-size="20" lengthAdjust="spacing" textLength="13" x="135.0638" y="1277.1217">1</text></g><!--link Agent to Property--><g id="link_Agent_Property"><path codeLine="146" d="M412.72,1153.7383 C383.69,1159.3083 341.28,1171.8483 316,1199.4883 C298.82,1218.2783 303.59,1229.2883 300,1254.4883 C292.98,1303.7683 290.59,1317.6083 300,1366.4883 C304.98,1392.3383 310.83,1397.6483 322,1421.4883 C326.56,1431.2083 331.71,1441.3883 336.88,1451.1783 " fill="none" id="Agent-Property" style="stroke:#181818;stroke-width:1.0;"/><polygon fill="#000000" points="306.0234,1318.5176,314.1556,1305.6559,305.0426,1303.3323,306.0234,1318.5176" style="stroke:#000000;stroke-width:1.0;"/><text fill="#000000" font-family="sans-serif" font-size="20" lengthAdjust="spacing" textLength="160" x="321" y="1318.3242">sets commission</text><text fill="#000000" font-family="sans-serif" font-size="20" lengthAdjust="spacing" textLength="13" x="391.9279" y="1148.8883">1</text><text fill="#000000" font-family="sans-serif" font-size="20" lengthAdjust="spacing" textLength="10" x="322.4779" y="1439.2703">*</text></g><!--link Owner to Property--><g id="link_Owner_Property"><path codeLine="147" d="M174.56,1331.7083 C170.56,1355.3883 167.77,1394.7783 186,1421.4883 C204.77,1448.9983 234.86,1467.8183 265.22,1480.5883 " fill="none" id="Owner-Property" style="stroke:#181818;stroke-width:1.0;"/><polygon fill="#000000" points="198.1608,1416.0985,194.6501,1401.2921,186.6176,1406.1834,198.1608,1416.0985" style="stroke:#000000;stroke-width:1.0;"/><text fill="#000000" font-family="sans-serif" font-size="20" lengthAdjust="spacing" textLength="49" x="207" y="1416.8242">owns</text><text fill="#000000" font-family="sans-serif" font-size="20" lengthAdjust="spacing" textLength="13" x="159.1669" y="1358.3111">1</text><text fill="#000000" font-family="sans-serif" font-size="20" lengthAdjust="spacing" textLength="10" x="247.6417" y="1474.236">*</text></g><!--link Owner to Announcement--><g id="link_Owner_Announcement"><path codeLine="148" d="M199.21,1289.2283 C210.54,1278.0383 225.31,1264.5883 240,1254.4883 C271.71,1232.6883 280.04,1224.7083 317.5,1215.9083 C354.27,1207.2583 365.89,1206.5783 402.5,1215.9083 C436.24,1224.5083 470.5,1241.1583 499.57,1258.1183 " fill="none" id="Owner-Announcement" style="stroke:#181818;stroke-width:1.0;"/><polygon fill="#000000" points="333.4574,1211.4414,318.5779,1208.2552,319.5468,1217.6097,333.4574,1211.4414" style="stroke:#000000;stroke-width:1.0;"/><text fill="#000000" font-family="sans-serif" font-size="20" lengthAdjust="spacing" textLength="63" x="338.5" y="1219.8242">makes</text><text fill="#000000" font-family="sans-serif" font-size="20" lengthAdjust="spacing" textLength="13" x="189.7232" y="1277.2976">1</text><text fill="#000000" font-family="sans-serif" font-size="20" lengthAdjust="spacing" textLength="10" x="482.0632" y="1248.5817">*</text></g><!--link Announcement to Property--><g id="link_Announcement_Property"><path codeLine="150" d="M499.72,1355.1283 C490.87,1359.3183 481.84,1363.2183 473,1366.4883 C415.36,1387.8283 376.46,1348.5483 338,1396.4883 C325.55,1412.0083 327.5,1432.2883 334.46,1451.2083 " fill="none" id="Announcement-Property" style="stroke:#181818;stroke-width:1.0;"/><polygon fill="#000000" points="339.0839,1413.2865,353.9587,1410.0778,349.2318,1401.9475,339.0839,1413.2865" style="stroke:#000000;stroke-width:1.0;"/><text fill="#000000" font-family="sans-serif" font-size="20" lengthAdjust="spacing" textLength="33" x="359" y="1416.8242">has</text><text fill="#000000" font-family="sans-serif" font-size="20" lengthAdjust="spacing" textLength="13" x="479.0887" y="1354.5348">1</text><text fill="#000000" font-family="sans-serif" font-size="20" lengthAdjust="spacing" textLength="13" x="331.1645" y="1439.304">1</text></g><!--link Announcement to Property--><g id="link_Announcement_Property"><path codeLine="160" d="M499.58,1366.1483 C487.33,1375.8483 475.06,1386.1583 464,1396.4883 C446.12,1413.1783 428.08,1432.9183 412.54,1451.0383 " fill="none" id="Announcement-Property-1" style="stroke:#181818;stroke-width:1.0;"/><polygon fill="#000000" points="477.7271,1403.6799,464.0835,1410.4182,470.6498,1417.1509,477.7271,1403.6799" style="stroke:#000000;stroke-width:1.0;"/><text fill="#000000" font-family="sans-serif" font-size="20" lengthAdjust="spacing" textLength="64" x="485" y="1416.8242">part of</text><text fill="#000000" font-family="sans-serif" font-size="20" lengthAdjust="spacing" textLength="13" x="478.9358" y="1391.691">1</text><text fill="#000000" font-family="sans-serif" font-size="20" lengthAdjust="spacing" textLength="13" x="404.1761" y="1439.1133">1</text></g><!--link Announcement to TransactionType--><g id="link_Announcement_TransactionType"><path codeLine="151" d="M652.43,1310.4883 C680.61,1310.4883 712.65,1310.4883 741.36,1310.4883 " fill="none" id="Announcement-TransactionType" style="stroke:#181818;stroke-width:1.0;"/><polygon fill="#000000" points="685.25,1295.2656,670.7779,1290.5633,670.7779,1299.9679,685.25,1295.2656" style="stroke:#000000;stroke-width:1.0;"/><text fill="#000000" font-family="sans-serif" font-size="20" lengthAdjust="spacing" textLength="33" x="690.25" y="1302.8242">has</text><text fill="#000000" font-family="sans-serif" font-size="20" lengthAdjust="spacing" textLength="13" x="660.0751" y="1305.7795">1</text><text fill="#000000" font-family="sans-serif" font-size="20" lengthAdjust="spacing" textLength="13" x="720.421" y="1305.815">1</text></g><!--link Announcement to TransactionType--><g id="link_Announcement_TransactionType"><path codeLine="166" d="M652.44,1335.3683 C658.09,1336.6083 663.73,1337.6783 669.25,1338.4883 C693.43,1342.0383 700.03,1341.8183 724.25,1338.4883 C729.77,1337.7283 735.42,1336.7383 741.09,1335.5983 " fill="none" id="Announcement-TransactionType-1" style="stroke:#181818;stroke-width:1.0;"/><polygon fill="#000000" points="685.25,1326.2864,670.7901,1321.5466,670.7657,1330.9511,685.25,1326.2864" style="stroke:#000000;stroke-width:1.0;"/><text fill="#000000" font-family="sans-serif" font-size="20" lengthAdjust="spacing" textLength="33" x="690.25" y="1333.8242">has</text><text fill="#000000" font-family="sans-serif" font-size="20" lengthAdjust="spacing" textLength="13" x="660.086" y="1332.9532">1</text><text fill="#000000" font-family="sans-serif" font-size="20" lengthAdjust="spacing" textLength="13" x="720.4063" y="1333.1183">1</text></g><!--link Address to State--><g id="link_Address_State"><path codeLine="152" d="M1128.69,1552.2483 C1151.74,1593.1283 1185.14,1652.3183 1202.52,1683.1283 " fill="none" id="Address-State" style="stroke:#181818;stroke-width:1.0;"/><polygon fill="#000000" points="1176.9306,1613.2334,1173.9157,1598.3182,1165.7245,1602.9389,1176.9306,1613.2334" style="stroke:#000000;stroke-width:1.0;"/><text fill="#000000" font-family="sans-serif" font-size="20" lengthAdjust="spacing" textLength="33" x="1186" y="1613.8242">has</text><text fill="#000000" font-family="sans-serif" font-size="20" lengthAdjust="spacing" textLength="13" x="1118.0206" y="1578.8496">1</text><text fill="#000000" font-family="sans-serif" font-size="20" lengthAdjust="spacing" textLength="13" x="1184.9126" y="1671.172">1</text></g><!--link City to District--><g id="link_City_District"><path codeLine="153" d="M1293.97,1169.7483 C1290.9,1200.4483 1285.11,1258.3883 1282.04,1289.1383 " fill="none" id="City-District" style="stroke:#181818;stroke-width:1.0;"/><polygon fill="#000000" points="1297.2046,1220.226,1303.3225,1206.2931,1293.9645,1205.358,1297.2046,1220.226" style="stroke:#000000;stroke-width:1.0;"/><text fill="#000000" font-family="sans-serif" font-size="20" lengthAdjust="spacing" textLength="64" x="1311" y="1219.8242">part of</text><text fill="#000000" font-family="sans-serif" font-size="20" lengthAdjust="spacing" textLength="10" x="1282.4322" y="1196.3598">*</text><text fill="#000000" font-family="sans-serif" font-size="20" lengthAdjust="spacing" textLength="13" x="1267.8971" y="1277.1845">1</text></g><!--link Street to City--><g id="link_Street_City"><path codeLine="154" d="M1298.64,995.8983 C1298.07,1028.9983 1296.93,1094.0183 1296.36,1127.1083 " fill="none" id="Street-City" style="stroke:#181818;stroke-width:1.0;"/><polygon fill="#000000" points="1304.861,1093.2644,1309.814,1078.8762,1300.4109,1078.7128,1304.861,1093.2644" style="stroke:#000000;stroke-width:1.0;"/><text fill="#000000" font-family="sans-serif" font-size="20" lengthAdjust="spacing" textLength="64" x="1318" y="1092.8242">part of</text><text fill="#000000" font-family="sans-serif" font-size="20" lengthAdjust="spacing" textLength="10" x="1287.4675" y="1022.5427">*</text><text fill="#000000" font-family="sans-serif" font-size="20" lengthAdjust="spacing" textLength="13" x="1281.7866" y="1115.1468">1</text></g><!--link District to State--><g id="link_District_State"><path codeLine="155" d="M1276.59,1331.7383 C1265.24,1399.1483 1228.81,1615.5383 1217.43,1683.1283 " fill="none" id="District-State" style="stroke:#181818;stroke-width:1.0;"/><polygon fill="#000000" points="1261.6718,1515.6546,1268.7115,1502.164,1259.4375,1500.6026,1261.6718,1515.6546" style="stroke:#000000;stroke-width:1.0;"/><text fill="#000000" font-family="sans-serif" font-size="20" lengthAdjust="spacing" textLength="64" x="1276" y="1515.3242">part of</text><text fill="#000000" font-family="sans-serif" font-size="20" lengthAdjust="spacing" textLength="10" x="1264.7503" y="1358.3477">*</text><text fill="#000000" font-family="sans-serif" font-size="20" lengthAdjust="spacing" textLength="13" x="1203.6433" y="1671.172">1</text></g><!--link Client to Address--><g id="link_Client_Address"><path codeLine="156" d="M1174.99,622.8383 C1176.17,649.0083 1178,695.8783 1178,735.9883 C1178,735.9883 1178,735.9883 1178,1311.4883 C1178,1366.1683 1152.25,1424.1883 1131.13,1462.5783 " fill="none" id="Client-Address" style="stroke:#181818;stroke-width:1.0;"/><polygon fill="#000000" points="1185.5827,982.7547,1191.0335,968.5476,1181.6417,968.057,1185.5827,982.7547" style="stroke:#000000;stroke-width:1.0;"/><text fill="#000000" font-family="sans-serif" font-size="20" lengthAdjust="spacing" textLength="33" x="1199" y="982.3242">has</text><text fill="#000000" font-family="sans-serif" font-size="20" lengthAdjust="spacing" textLength="13" x="1160.7847" y="649.4695">1</text><text fill="#000000" font-family="sans-serif" font-size="20" lengthAdjust="spacing" textLength="10" x="1124.3803" y="1450.6944">*</text></g><!--link Announcement to Photo--><g id="link_Announcement_Photo"><path codeLine="157" d="M563.34,1366.5783 C561.53,1376.4783 559.96,1386.7583 559,1396.4883 C555.91,1427.6683 558.01,1464.0383 559.92,1486.1583 " fill="none" id="Announcement-Photo" style="stroke:#181818;stroke-width:1.0;"/><polygon fill="#000000" points="566.7713,1417.2624,571.8854,1402.9306,562.4847,1402.6617,566.7713,1417.2624" style="stroke:#000000;stroke-width:1.0;"/><text fill="#000000" font-family="sans-serif" font-size="20" lengthAdjust="spacing" textLength="33" x="580" y="1416.8242">has</text><text fill="#000000" font-family="sans-serif" font-size="20" lengthAdjust="spacing" textLength="13" x="548.0049" y="1394.1722">1</text><text fill="#000000" font-family="sans-serif" font-size="20" lengthAdjust="spacing" textLength="35" x="519.9026" y="1474.2097">1..*</text></g><!--link Announcement to Commission--><g id="link_Announcement_Commission"><path codeLine="158" d="M652.28,1339.6083 C704.87,1359.7583 766.59,1385.2383 774,1396.4883 C787.52,1416.9983 778.3,1441.8583 764.38,1462.7483 " fill="none" id="Announcement-Commission" style="stroke:#181818;stroke-width:1.0;"/><polygon fill="#000000" points="783.6146,1403.3498,789.8797,1417.2171,796.8342,1410.8861,783.6146,1403.3498" style="stroke:#000000;stroke-width:1.0;"/><text fill="#000000" font-family="sans-serif" font-size="20" lengthAdjust="spacing" textLength="61" x="802" y="1416.8242">set for</text><text fill="#000000" font-family="sans-serif" font-size="20" lengthAdjust="spacing" textLength="13" x="659.9113" y="1362.7044">1</text><text fill="#000000" font-family="sans-serif" font-size="20" lengthAdjust="spacing" textLength="13" x="756.2093" y="1450.8894">1</text></g><!--link Announcement to Commission--><g id="link_Announcement_Commission"><path codeLine="163" d="M614.04,1366.9383 C626.49,1384.5883 640.57,1404.0583 654,1421.4883 C664.56,1435.1983 676.47,1449.7783 687.48,1462.9083 " fill="none" id="Announcement-Commission-1" style="stroke:#181818;stroke-width:1.0;"/><polygon fill="#000000" points="666.8617,1415.6189,661.8011,1401.2681,654.3324,1406.9834,666.8617,1415.6189" style="stroke:#000000;stroke-width:1.0;"/><text fill="#000000" font-family="sans-serif" font-size="20" lengthAdjust="spacing" textLength="33" x="675" y="1416.8242">has</text><text fill="#000000" font-family="sans-serif" font-size="20" lengthAdjust="spacing" textLength="13" x="604.6868" y="1394.1504">1</text><text fill="#000000" font-family="sans-serif" font-size="20" lengthAdjust="spacing" textLength="13" x="667.7394" y="1450.7252">1</text></g><!--link Residency to Equipment--><g id="link_Residency_Equipment"><path codeLine="159" d="M289.28,1760.7883 C323.55,1792.2383 365.26,1830.5083 394.14,1857.0083 " fill="none" id="Residency-Equipment" style="stroke:#181818;stroke-width:1.0;"/><polygon fill="#000000" points="360.8945,1808.6744,353.4105,1795.4251,347.0521,1802.3545,360.8945,1808.6744" style="stroke:#000000;stroke-width:1.0;"/><text fill="#000000" font-family="sans-serif" font-size="20" lengthAdjust="spacing" textLength="33" x="368" y="1810.8242">has</text><text fill="#000000" font-family="sans-serif" font-size="20" lengthAdjust="spacing" textLength="13" x="282.4983" y="1787.983">1</text><text fill="#000000" font-family="sans-serif" font-size="20" lengthAdjust="spacing" textLength="10" x="376.7908" y="1845.1843">*</text></g><!--link User to Address--><g id="link_User_Address"><path codeLine="161" d="M1072.46,447.6483 C1082.3,472.7783 1090,501.1783 1090,528.4883 C1090,528.4883 1090,528.4883 1090,975.4883 C1090,1156.4683 1098.23,1372.0283 1102.07,1462.7883 " fill="none" id="User-Address" style="stroke:#181818;stroke-width:1.0;"/><polygon fill="#000000" points="1098.2332,872.2622,1102.5116,857.6591,1093.111,857.9333,1098.2332,872.2622" style="stroke:#000000;stroke-width:1.0;"/><text fill="#000000" font-family="sans-serif" font-size="20" lengthAdjust="spacing" textLength="33" x="1111" y="871.8242">has</text><text fill="#000000" font-family="sans-serif" font-size="20" lengthAdjust="spacing" textLength="13" x="1062.5736" y="475.1132">1</text><text fill="#000000" font-family="sans-serif" font-size="20" lengthAdjust="spacing" textLength="10" x="1091.0522" y="1450.9352">*</text></g><!--link Property to Address--><g id="link_Property_Address"><path codeLine="162" d="M470.91,1465.3983 C485.25,1460.2983 499.9,1455.4983 514,1451.4883 C602.55,1426.3283 625.85,1421.5183 717.5,1412.9083 C852,1400.2683 893,1402.7783 1019,1451.4883 C1026.91,1454.5483 1034.84,1458.4283 1042.51,1462.7183 " fill="none" id="Property-Address" style="stroke:#181818;stroke-width:1.0;"/><polygon fill="#000000" points="733.4999,1409.2281,719.0059,1404.5937,719.05,1413.9982,733.4999,1409.2281" style="stroke:#000000;stroke-width:1.0;"/><text fill="#000000" font-family="sans-serif" font-size="20" lengthAdjust="spacing" textLength="33" x="738.5" y="1416.8242">has</text><text fill="#000000" font-family="sans-serif" font-size="20" lengthAdjust="spacing" textLength="13" x="478.6029" y="1457.978">1</text><text fill="#000000" font-family="sans-serif" font-size="20" lengthAdjust="spacing" textLength="13" x="1019.524" y="1450.855">1</text></g><!--link StoreManager to Agency--><g id="link_StoreManager_Agency"><path codeLine="164" d="M857,821.8983 C857,842.7183 857,876.1683 857,906.3583 " fill="none" id="StoreManager-Agency" style="stroke:#181818;stroke-width:1.0;"/><polygon fill="#000000" points="865,872.2656,869.7023,857.7935,860.2977,857.7935,865,872.2656" style="stroke:#000000;stroke-width:1.0;"/><text fill="#000000" font-family="sans-serif" font-size="20" lengthAdjust="spacing" textLength="86" x="878" y="871.8242">manages</text><text fill="#000000" font-family="sans-serif" font-size="20" lengthAdjust="spacing" textLength="13" x="842.5781" y="848.5427">1</text><text fill="#000000" font-family="sans-serif" font-size="20" lengthAdjust="spacing" textLength="13" x="843.2891" y="894.0274">1</text></g><!--link House to SunExposure--><g id="link_House_SunExposure"><path codeLine="165" d="M229,1934.8583 C229,1959.7383 229,1991.3983 229,2019.3383 " fill="none" id="House-SunExposure" style="stroke:#181818;stroke-width:1.0;"/><polygon fill="#000000" points="237,1985.2656,241.7023,1970.7935,232.2977,1970.7935,237,1985.2656" style="stroke:#000000;stroke-width:1.0;"/><text fill="#000000" font-family="sans-serif" font-size="20" lengthAdjust="spacing" textLength="33" x="250" y="1984.8242">has</text><text fill="#000000" font-family="sans-serif" font-size="20" lengthAdjust="spacing" textLength="13" x="215.1672" y="1961.4737">1</text><text fill="#000000" font-family="sans-serif" font-size="20" lengthAdjust="spacing" textLength="13" x="215.3297" y="2007.5006">1</text></g><!--link Agency to Address--><g id="link_Agency_Address"><path codeLine="167" d="M888.28,1042.7383 C939.62,1153.1083 1040.36,1369.6883 1083.55,1462.5283 " fill="none" id="Agency-Address" style="stroke:#181818;stroke-width:1.0;"/><polygon fill="#000000" points="982.3741,1219.5193,980.5339,1204.414,972.0067,1208.3806,982.3741,1219.5193" style="stroke:#000000;stroke-width:1.0;"/><text fill="#000000" font-family="sans-serif" font-size="20" lengthAdjust="spacing" textLength="33" x="992" y="1219.8242">has</text><text fill="#000000" font-family="sans-serif" font-size="20" lengthAdjust="spacing" textLength="13" x="877.6418" y="1069.7126">1</text><text fill="#000000" font-family="sans-serif" font-size="20" lengthAdjust="spacing" textLength="13" x="1066.5917" y="1450.6371">1</text></g><!--link UnregisteredUser to Announcement--><g id="link_UnregisteredUser_Announcement"><path codeLine="168" d="M767.41,1169.9483 C756.04,1186.0583 738.7,1208.3983 720,1224.4883 C699.65,1242.0083 675.2,1257.9583 652.28,1271.1983 " fill="none" id="UnregisteredUser-Announcement" style="stroke:#181818;stroke-width:1.0;"/><polygon fill="#000000" points="746.9926,1217.5488,760.9654,1211.5225,754.7547,1204.4604,746.9926,1217.5488" style="stroke:#000000;stroke-width:1.0;"/><text fill="#000000" font-family="sans-serif" font-size="20" lengthAdjust="spacing" textLength="52" x="766" y="1219.8242">views</text><text fill="#000000" font-family="sans-serif" font-size="20" lengthAdjust="spacing" textLength="13" x="750.2664" y="1196.1853">1</text><text fill="#000000" font-family="sans-serif" font-size="20" lengthAdjust="spacing" textLength="10" x="660.027" y="1262.7093">*</text></g><!--SRC=[ZLPRRzCm57xthx3sCWa9D7YS9gIi3MoYJQkcqyGJSfFJncfY1zkXAuZ_ph6TYxEr6tl8ukFltBvpIVMUYvefLfKosqDESzYofZHVf30f_mtqqnNH7OHMKiYiKB82QbG3mKtDiZtRGMgE9L05cM5YLuO0NR1S7hZOqIqhTNYJbKpho1Z5Dus1-qmAv_YAN0wOaWimnngeLAQGfE0vq8oh35suzmfGd6j233SOm5HMZ0iwbpcKX3W7T59o48R2am6HQ_gWGVqXVxlRnK606btIu3Qkwb8U0SvfHxlGT8SE01vFyK-m2jnBZV8QqvambITDjG7bn8Oz1IV0F4elXnBgGWfeRqU-iwCtVZyT-t3gKPuhqDexFMLXgMGDohGsc0BcNdAkiOePVC5wJp2_DgHQyGm2vK8Q6NBLklF6SYbLaCvlNa-m9WCuDGh01DeJRkFeZrEC0Vs5YDGm4r8ROOUOAkH_1Hfxmf7Ie-vae-4KmeQrOHgi1NVWec0RRjYcX9dSci54hzIR6HCdN9wBxItaIifAZuNC52-bIwQmnNSfJWzWymuv2I4RfDu6vOtNpQRake1yYjcF9RT77xTUTfA0JbbLN6ikHMi6L8OsSLBTyHShcw0QQvmm36gKLRICLkjvdApTwMxnaCRkRHObqq5pnaH-WfPXW7usl1woWUwOs4uT69ObLZQQpkyJ4i-NiyNtE2QJsRtrdguNg_X74gyV5wjlF-PH4dsDLwsqEmqzSjG6gYYlkB0Dn8nKhqrdYlSmPm9fUHkNW3b8jVyVU2FYfrhgHg4qMQpMToHTFE0pZj8rUOpnCL2lcD0iCrWfMuK_PEMIZcOnkNtu7YmIeM27EO62l5z2brs3_cn08yMNAFChwUBZ1Nt_tlqBU-gwxnvDFvFm9jGOjyCrBPX5doAXKtftCUBocbRknJbnQof4kWXxgoSg5c0xTgzfXkl9E8ksMy9mBHtUtCtBxFr-HtNyhY7D-A7R7DkeMfppCoIhmMX4T-E3M6yY26e0ouFGOuJFS4HvnVOdw7ut5CZpeNmLCKBSgwUAuvxFgt86zgojUhJVqI51RgtI3c3NS1XRjuSHODSjbLlN2NPvXp2d5a9wFGyQknfWxRSvR0uVuVdqhAaF7smLx0VeTTn5i0TTPUaMs-k631izRBLkDxrbSoX1byWDSJySpgVHgGGL-gz4mmJeQ12VJs3RHzand3t_yGkBFMocjnoVww3nEBzCvFcY6h4ocejV70vMW_m3]--></g></svg>