<?xml version="1.0" encoding="UTF-8" standalone="no"?><svg xmlns="http://www.w3.org/2000/svg" xmlns:xlink="http://www.w3.org/1999/xlink" contentStyleType="text/css" height="1704px" preserveAspectRatio="none" style="width:1738px;height:1704px;background:#FFFFFF;" version="1.1" viewBox="0 0 1738 1704" width="1738px" zoomAndPan="magnify"><defs/><g><text fill="#000000" font-family="sans-serif" font-size="14" font-weight="bold" lengthAdjust="spacing" textLength="105" x="809.7857" y="23.5352">Domain Model</text><!--class Client--><g id="elem_Client"><rect codeLine="11" fill="#F1F1F1" height="41.5547" id="Client" rx="2.5" ry="2.5" style="stroke:#181818;stroke-width:0.5;" width="62" x="59.5713" y="774.9883"/><text fill="#000000" font-family="sans-serif" font-size="20" lengthAdjust="spacing" textLength="56" x="62.5713" y="799.3242">Client</text><line style="stroke:#181818;stroke-width:0.5;" x1="60.5713" x2="120.5713" y1="808.543" y2="808.543"/></g><!--class Owner--><g id="elem_Owner"><rect codeLine="14" fill="#F1F1F1" height="41.5547" id="Owner" rx="2.5" ry="2.5" style="stroke:#181818;stroke-width:0.5;" width="68" x="601.5713" y="774.9883"/><text fill="#000000" font-family="sans-serif" font-size="20" lengthAdjust="spacing" textLength="62" x="604.5713" y="799.3242">Owner</text><line style="stroke:#181818;stroke-width:0.5;" x1="602.5713" x2="668.5713" y1="808.543" y2="808.543"/></g><!--class Employee--><g id="elem_Employee"><rect codeLine="17" fill="#F1F1F1" height="41.5547" id="Employee" rx="2.5" ry="2.5" style="stroke:#181818;stroke-width:0.5;" width="99" x="175.0713" y="774.9883"/><text fill="#000000" font-family="sans-serif" font-size="20" lengthAdjust="spacing" textLength="93" x="178.0713" y="799.3242">Employee</text><line style="stroke:#181818;stroke-width:0.5;" x1="176.0713" x2="273.0713" y1="808.543" y2="808.543"/></g><!--class Agent--><g id="elem_Agent"><rect codeLine="20" fill="#F1F1F1" height="41.5547" id="Agent" rx="2.5" ry="2.5" style="stroke:#181818;stroke-width:0.5;" width="62" x="613.5713" y="554.4883"/><text fill="#000000" font-family="sans-serif" font-size="20" lengthAdjust="spacing" textLength="56" x="616.5713" y="578.8242">Agent</text><line style="stroke:#181818;stroke-width:0.5;" x1="614.5713" x2="674.5713" y1="588.043" y2="588.043"/></g><!--class Person--><g id="elem_Person"><rect codeLine="23" fill="#F1F1F1" height="159.3281" id="Person" rx="2.5" ry="2.5" style="stroke:#181818;stroke-width:0.5;" width="220" x="203.5713" y="960.4883"/><text fill="#000000" font-family="sans-serif" font-size="20" lengthAdjust="spacing" textLength="64" x="281.5713" y="984.8242">Person</text><line style="stroke:#181818;stroke-width:0.5;" x1="204.5713" x2="422.5713" y1="994.043" y2="994.043"/><text fill="#000000" font-family="sans-serif" font-size="20" lengthAdjust="spacing" textLength="53" x="209.5713" y="1017.3789">name</text><text fill="#000000" font-family="sans-serif" font-size="20" lengthAdjust="spacing" textLength="208" x="209.5713" y="1040.9336">passportCardNumber</text><text fill="#000000" font-family="sans-serif" font-size="20" lengthAdjust="spacing" textLength="108" x="209.5713" y="1064.4883">taxNumber</text><text fill="#000000" font-family="sans-serif" font-size="20" lengthAdjust="spacing" textLength="53" x="209.5713" y="1088.043">email</text><text fill="#000000" font-family="sans-serif" font-size="20" lengthAdjust="spacing" textLength="173" x="209.5713" y="1111.5977">telephoneNumber</text></g><!--class Agency--><g id="elem_Agency"><rect codeLine="31" fill="#F1F1F1" height="135.7734" id="Agency" rx="2.5" ry="2.5" style="stroke:#181818;stroke-width:0.5;" width="150" x="569.5713" y="298.4883"/><text fill="#000000" font-family="sans-serif" font-size="20" lengthAdjust="spacing" textLength="69" x="610.0713" y="322.8242">Agency</text><line style="stroke:#181818;stroke-width:0.5;" x1="570.5713" x2="718.5713" y1="332.043" y2="332.043"/><text fill="#000000" font-family="sans-serif" font-size="20" lengthAdjust="spacing" textLength="21" x="575.5713" y="355.3789">ID</text><text fill="#000000" font-family="sans-serif" font-size="20" lengthAdjust="spacing" textLength="53" x="575.5713" y="378.9336">name</text><text fill="#000000" font-family="sans-serif" font-size="20" lengthAdjust="spacing" textLength="132" x="575.5713" y="402.4883">emailAddress</text><text fill="#000000" font-family="sans-serif" font-size="20" lengthAdjust="spacing" textLength="138" x="575.5713" y="426.043">phoneNumber</text></g><!--class Property--><g id="elem_Property"><rect codeLine="38" fill="#F1F1F1" height="159.3281" id="Property" rx="2.5" ry="2.5" style="stroke:#181818;stroke-width:0.5;" width="205" x="858.0713" y="716.4883"/><text fill="#000000" font-family="sans-serif" font-size="20" lengthAdjust="spacing" textLength="80" x="920.5713" y="740.8242">Property</text><line style="stroke:#181818;stroke-width:0.5;" x1="859.0713" x2="1062.0713" y1="750.043" y2="750.043"/><text fill="#000000" font-family="sans-serif" font-size="20" lengthAdjust="spacing" textLength="147" x="864.0713" y="773.3789">typeOfBusiness</text><text fill="#000000" font-family="sans-serif" font-size="20" lengthAdjust="spacing" textLength="144" x="864.0713" y="796.9336">typeOfProperty</text><text fill="#000000" font-family="sans-serif" font-size="20" lengthAdjust="spacing" textLength="41" x="864.0713" y="820.4883">area</text><text fill="#000000" font-family="sans-serif" font-size="20" lengthAdjust="spacing" textLength="193" x="864.0713" y="844.043">distanceFromCenter</text><text fill="#000000" font-family="sans-serif" font-size="20" lengthAdjust="spacing" textLength="48" x="864.0713" y="867.5977">price</text></g><!--class Photos--><g id="elem_Photos"><rect codeLine="46" fill="#F1F1F1" height="41.5547" id="Photos" rx="2.5" ry="2.5" style="stroke:#181818;stroke-width:0.5;" width="70" x="925.5713" y="1018.9883"/><text fill="#000000" font-family="sans-serif" font-size="20" lengthAdjust="spacing" textLength="64" x="928.5713" y="1043.3242">Photos</text><line style="stroke:#181818;stroke-width:0.5;" x1="926.5713" x2="994.5713" y1="1052.543" y2="1052.543"/></g><!--class Address--><g id="elem_Address"><rect codeLine="49" fill="#F1F1F1" height="112.2188" id="Address" rx="2.5" ry="2.5" style="stroke:#181818;stroke-width:0.5;" width="135" x="493.0713" y="1204.4883"/><text fill="#000000" font-family="sans-serif" font-size="20" lengthAdjust="spacing" textLength="79" x="521.0713" y="1228.8242">Address</text><line style="stroke:#181818;stroke-width:0.5;" x1="494.0713" x2="627.0713" y1="1238.043" y2="1238.043"/><text fill="#000000" font-family="sans-serif" font-size="20" lengthAdjust="spacing" textLength="54" x="499.0713" y="1261.3789">street</text><text fill="#000000" font-family="sans-serif" font-size="20" lengthAdjust="spacing" textLength="123" x="499.0713" y="1284.9336">doorNumber</text><text fill="#000000" font-family="sans-serif" font-size="20" lengthAdjust="spacing" textLength="80" x="499.0713" y="1308.4883">zipCode</text></g><!--class City--><g id="elem_City"><rect codeLine="55" fill="#F1F1F1" height="41.5547" id="City" rx="2.5" ry="2.5" style="stroke:#181818;stroke-width:0.5;" width="43" x="539.0713" y="1401.4883"/><text fill="#000000" font-family="sans-serif" font-size="20" lengthAdjust="spacing" textLength="37" x="542.0713" y="1425.8242">City</text><line style="stroke:#181818;stroke-width:0.5;" x1="540.0713" x2="581.0713" y1="1435.043" y2="1435.043"/></g><!--class District--><g id="elem_District"><rect codeLine="58" fill="#F1F1F1" height="41.5547" id="District" rx="2.5" ry="2.5" style="stroke:#181818;stroke-width:0.5;" width="75" x="523.0713" y="1528.4883"/><text fill="#000000" font-family="sans-serif" font-size="20" lengthAdjust="spacing" textLength="69" x="526.0713" y="1552.8242">District</text><line style="stroke:#181818;stroke-width:0.5;" x1="524.0713" x2="597.0713" y1="1562.043" y2="1562.043"/></g><!--class State--><g id="elem_State"><rect codeLine="61" fill="#F1F1F1" height="41.5547" id="State" rx="2.5" ry="2.5" style="stroke:#181818;stroke-width:0.5;" width="53" x="534.0713" y="1655.4883"/><text fill="#000000" font-family="sans-serif" font-size="20" lengthAdjust="spacing" textLength="47" x="537.0713" y="1679.8242">State</text><line style="stroke:#181818;stroke-width:0.5;" x1="535.0713" x2="586.0713" y1="1689.043" y2="1689.043"/></g><!--class Apartment--><g id="elem_Apartment"><rect codeLine="64" fill="#F1F1F1" height="41.5547" id="Apartment" rx="2.5" ry="2.5" style="stroke:#181818;stroke-width:0.5;" width="108" x="1435.5713" y="1239.4883"/><text fill="#000000" font-family="sans-serif" font-size="20" lengthAdjust="spacing" textLength="102" x="1438.5713" y="1263.8242">Apartment</text><line style="stroke:#181818;stroke-width:0.5;" x1="1436.5713" x2="1542.5713" y1="1273.043" y2="1273.043"/></g><!--class Residency--><g id="elem_Residency"><rect codeLine="72" fill="#F1F1F1" height="112.2188" id="Residency" rx="2.5" ry="2.5" style="stroke:#181818;stroke-width:0.5;" width="248" x="1190.5713" y="983.9883"/><text fill="#000000" font-family="sans-serif" font-size="20" lengthAdjust="spacing" textLength="96" x="1266.5713" y="1008.3242">Residency</text><line style="stroke:#181818;stroke-width:0.5;" x1="1191.5713" x2="1437.5713" y1="1017.543" y2="1017.543"/><text fill="#000000" font-family="sans-serif" font-size="20" lengthAdjust="spacing" textLength="195" x="1196.5713" y="1040.8789">numberOfBedrooms</text><text fill="#000000" font-family="sans-serif" font-size="20" lengthAdjust="spacing" textLength="201" x="1196.5713" y="1064.4336">numberOfBathrooms</text><text fill="#000000" font-family="sans-serif" font-size="20" lengthAdjust="spacing" textLength="236" x="1196.5713" y="1087.9883">numberOfParkingSpaces</text></g><!--class House--><g id="elem_House"><rect codeLine="67" fill="#F1F1F1" height="88.6641" id="House" rx="2.5" ry="2.5" style="stroke:#181818;stroke-width:0.5;" width="157" x="1036.0713" y="1215.9883"/><text fill="#000000" font-family="sans-serif" font-size="20" lengthAdjust="spacing" textLength="60" x="1084.5713" y="1240.3242">House</text><line style="stroke:#181818;stroke-width:0.5;" x1="1037.0713" x2="1192.0713" y1="1249.543" y2="1249.543"/><text fill="#000000" font-family="sans-serif" font-size="20" lengthAdjust="spacing" textLength="94" x="1042.0713" y="1272.8789">basement</text><text fill="#000000" font-family="sans-serif" font-size="20" lengthAdjust="spacing" textLength="145" x="1042.0713" y="1296.4336">inhabitableLoft</text></g><!--class PublishedProperty--><g id="elem_PublishedProperty"><rect codeLine="79" fill="#F1F1F1" height="112.2188" id="PublishedProperty" rx="2.5" ry="2.5" style="stroke:#181818;stroke-width:0.5;" width="180" x="1371.5713" y="519.4883"/><text fill="#000000" font-family="sans-serif" font-size="20" lengthAdjust="spacing" textLength="174" x="1374.5713" y="543.8242">PublishedProperty</text><line style="stroke:#181818;stroke-width:0.5;" x1="1372.5713" x2="1550.5713" y1="553.043" y2="553.043"/><text fill="#000000" font-family="sans-serif" font-size="20" lengthAdjust="spacing" textLength="140" x="1377.5713" y="576.3789">publishedDate</text><text fill="#000000" font-family="sans-serif" font-size="20" lengthAdjust="spacing" textLength="118" x="1377.5713" y="599.9336">publishedBy</text><text fill="#000000" font-family="sans-serif" font-size="20" lengthAdjust="spacing" textLength="116" x="1377.5713" y="623.4883">commission</text></g><!--class Commission--><g id="elem_Commission"><rect codeLine="85" fill="#F1F1F1" height="88.6641" id="Commission" rx="2.5" ry="2.5" style="stroke:#181818;stroke-width:0.5;" width="126" x="1544.5713" y="751.4883"/><text fill="#000000" font-family="sans-serif" font-size="20" lengthAdjust="spacing" textLength="120" x="1547.5713" y="775.8242">Commission</text><line style="stroke:#181818;stroke-width:0.5;" x1="1545.5713" x2="1669.5713" y1="785.043" y2="785.043"/><text fill="#000000" font-family="sans-serif" font-size="20" lengthAdjust="spacing" textLength="106" x="1550.5713" y="808.3789">percentage</text><text fill="#000000" font-family="sans-serif" font-size="20" lengthAdjust="spacing" textLength="50" x="1550.5713" y="831.9336">value</text></g><!--class Land--><g id="elem_Land"><rect codeLine="90" fill="#F1F1F1" height="41.5547" id="Land" rx="2.5" ry="2.5" style="stroke:#181818;stroke-width:0.5;" width="53" x="1031.0713" y="1018.9883"/><text fill="#000000" font-family="sans-serif" font-size="20" lengthAdjust="spacing" textLength="47" x="1034.0713" y="1043.3242">Land</text><line style="stroke:#181818;stroke-width:0.5;" x1="1032.0713" x2="1083.0713" y1="1052.543" y2="1052.543"/></g><!--class Equipment--><g id="elem_Equipment"><rect codeLine="93" fill="#F1F1F1" height="65.1094" id="Equipment" rx="2.5" ry="2.5" style="stroke:#181818;stroke-width:0.5;" width="172" x="1228.5713" y="1227.9883"/><text fill="#000000" font-family="sans-serif" font-size="20" lengthAdjust="spacing" textLength="104" x="1262.5713" y="1252.3242">Equipment</text><line style="stroke:#181818;stroke-width:0.5;" x1="1229.5713" x2="1399.5713" y1="1261.543" y2="1261.543"/><text fill="#000000" font-family="sans-serif" font-size="20" lengthAdjust="spacing" textLength="160" x="1234.5713" y="1284.8789">equipmentName</text></g><!--class Role--><g id="elem_Role"><rect codeLine="97" fill="#F1F1F1" height="41.5547" id="Role" rx="2.5" ry="2.5" style="stroke:#181818;stroke-width:0.5;" width="48" x="470.5713" y="1018.9883"/><text fill="#000000" font-family="sans-serif" font-size="20" lengthAdjust="spacing" textLength="42" x="473.5713" y="1043.3242">Role</text><line style="stroke:#181818;stroke-width:0.5;" x1="471.5713" x2="517.5713" y1="1052.543" y2="1052.543"/></g><!--class SystemAdministrator--><g id="elem_SystemAdministrator"><rect codeLine="100" fill="#F1F1F1" height="41.5547" id="SystemAdministrator" rx="2.5" ry="2.5" style="stroke:#181818;stroke-width:0.5;" width="207" x="175.0713" y="554.4883"/><text fill="#000000" font-family="sans-serif" font-size="20" lengthAdjust="spacing" textLength="201" x="178.0713" y="578.8242">SystemAdministrator</text><line style="stroke:#181818;stroke-width:0.5;" x1="176.0713" x2="381.0713" y1="588.043" y2="588.043"/></g><!--class StoreManager--><g id="elem_StoreManager"><rect codeLine="103" fill="#F1F1F1" height="41.5547" id="StoreManager" rx="2.5" ry="2.5" style="stroke:#181818;stroke-width:0.5;" width="137" x="89.0713" y="171.4883"/><text fill="#000000" font-family="sans-serif" font-size="20" lengthAdjust="spacing" textLength="131" x="92.0713" y="195.8242">StoreManager</text><line style="stroke:#181818;stroke-width:0.5;" x1="90.0713" x2="225.0713" y1="205.043" y2="205.043"/></g><!--class StoreNetworkManager--><g id="elem_StoreNetworkManager"><rect codeLine="106" fill="#F1F1F1" height="41.5547" id="StoreNetworkManager" rx="2.5" ry="2.5" style="stroke:#181818;stroke-width:0.5;" width="217" x="49.0713" y="44.4883"/><text fill="#000000" font-family="sans-serif" font-size="20" lengthAdjust="spacing" textLength="211" x="52.0713" y="68.8242">StoreNetworkManager</text><line style="stroke:#181818;stroke-width:0.5;" x1="50.0713" x2="265.0713" y1="78.043" y2="78.043"/></g><!--class SunExposure--><g id="elem_SunExposure"><rect codeLine="109" fill="#F1F1F1" height="41.5547" id="SunExposure" rx="2.5" ry="2.5" style="stroke:#181818;stroke-width:0.5;" width="130" x="1049.5713" y="1401.4883"/><text fill="#000000" font-family="sans-serif" font-size="20" lengthAdjust="spacing" textLength="124" x="1052.5713" y="1425.8242">SunExposure</text><line style="stroke:#181818;stroke-width:0.5;" x1="1050.5713" x2="1178.5713" y1="1435.043" y2="1435.043"/></g><!--class TransactionType--><g id="elem_TransactionType"><rect codeLine="112" fill="#F1F1F1" height="41.5547" id="TransactionType" rx="2.5" ry="2.5" style="stroke:#181818;stroke-width:0.5;" width="165" x="1295.0713" y="774.9883"/><text fill="#000000" font-family="sans-serif" font-size="20" lengthAdjust="spacing" textLength="159" x="1298.0713" y="799.3242">TransactionType</text><line style="stroke:#181818;stroke-width:0.5;" x1="1296.0713" x2="1459.0713" y1="808.543" y2="808.543"/></g><!--class UnregisteredUser--><g id="elem_UnregisteredUser"><rect codeLine="115" fill="#F1F1F1" height="41.5547" id="UnregisteredUser" rx="2.5" ry="2.5" style="stroke:#181818;stroke-width:0.5;" width="172" x="1375.5713" y="345.4883"/><text fill="#000000" font-family="sans-serif" font-size="20" lengthAdjust="spacing" textLength="166" x="1378.5713" y="369.8242">UnregisteredUser</text><line style="stroke:#181818;stroke-width:0.5;" x1="1376.5713" x2="1546.5713" y1="379.043" y2="379.043"/></g><!--reverse link Residency to Apartment--><g id="link_Residency_Apartment"><path d="M1372.3313,1113.1083 C1407.6813,1157.2383 1450.3713,1210.5483 1473.2313,1239.0883 " fill="none" id="Residency-backto-Apartment" style="stroke:#181818;stroke-width:1.0;"/><polygon fill="none" points="1366.9413,1117.5783,1359.9013,1097.5883,1377.8713,1108.8283,1366.9413,1117.5783" style="stroke:#181818;stroke-width:1.0;"/></g><!--reverse link Residency to House--><g id="link_Residency_House"><path d="M1249.4313,1112.1583 C1218.1413,1146.3383 1181.6513,1186.1983 1154.5313,1215.8383 " fill="none" id="Residency-backto-House" style="stroke:#181818;stroke-width:1.0;"/><polygon fill="none" points="1244.1513,1107.5483,1262.8213,1097.5283,1254.4813,1116.9983,1244.1513,1107.5483" style="stroke:#181818;stroke-width:1.0;"/></g><!--reverse link Property to Residency--><g id="link_Property_Residency"><path d="M1080.9013,879.2483 C1131.1613,913.6083 1188.2313,952.6183 1233.3913,983.4983 " fill="none" id="Property-backto-Residency" style="stroke:#181818;stroke-width:1.0;"/><polygon fill="none" points="1077.2513,885.2283,1064.6913,868.1683,1085.1513,873.6683,1077.2513,885.2283" style="stroke:#181818;stroke-width:1.0;"/></g><!--reverse link Property to Land--><g id="link_Property_Land"><path d="M1018.9413,894.7783 C1020.5713,898.3583 1022.1213,901.9383 1023.5713,905.4883 C1039.3013,944.0183 1049.3613,991.8383 1054.1813,1018.5283 " fill="none" id="Property-backto-Land" style="stroke:#181818;stroke-width:1.0;"/><polygon fill="none" points="1012.7813,898.1083,1010.2813,877.0683,1025.3513,891.9583,1012.7813,898.1083" style="stroke:#181818;stroke-width:1.0;"/></g><!--link StoreNetworkManager to StoreManager--><g id="link_StoreNetworkManager_StoreManager"><path codeLine="119" d="M157.5713,86.8483 C157.5713,110.0983 157.5713,147.8983 157.5713,171.1383 " fill="none" id="StoreNetworkManager-StoreManager" style="stroke:#181818;stroke-width:1.0;"/><polygon fill="#000000" points="165.5713,137.2656,170.2736,122.7935,160.869,122.7935,165.5713,137.2656" style="stroke:#000000;stroke-width:1.0;"/><text fill="#000000" font-family="sans-serif" font-size="20" lengthAdjust="spacing" textLength="86" x="178.5713" y="136.8242">manages</text><text fill="#000000" font-family="sans-serif" font-size="20" lengthAdjust="spacing" textLength="13" x="143.1494" y="113.4817">1</text><text fill="#000000" font-family="sans-serif" font-size="20" lengthAdjust="spacing" textLength="10" x="146.2901" y="159.1845">*</text></g><!--link Agency to Agent--><g id="link_Agency_Agent"><path codeLine="120" d="M644.5713,434.9783 C644.5713,476.5083 644.5713,526.8783 644.5713,554.2983 " fill="none" id="Agency-Agent" style="stroke:#181818;stroke-width:1.0;"/><polygon fill="#000000" points="652.5713,485.2656,657.2736,470.7935,647.869,470.7935,652.5713,485.2656" style="stroke:#000000;stroke-width:1.0;"/><text fill="#000000" font-family="sans-serif" font-size="20" lengthAdjust="spacing" textLength="33" x="665.5713" y="484.8242">has</text><text fill="#000000" font-family="sans-serif" font-size="20" lengthAdjust="spacing" textLength="13" x="630.9924" y="461.4731">1</text><text fill="#000000" font-family="sans-serif" font-size="20" lengthAdjust="spacing" textLength="10" x="633.2901" y="542.3855">*</text></g><!--link SystemAdministrator to Employee--><g id="link_SystemAdministrator_Employee"><path codeLine="121" d="M273.5913,596.6483 C263.3313,638.1683 239.9413,732.8083 229.6213,774.5583 " fill="none" id="SystemAdministrator-Employee" style="stroke:#181818;stroke-width:1.0;"/><polygon fill="#000000" points="262.6519,682.0319,270.6891,669.1107,261.5592,666.8543,262.6519,682.0319" style="stroke:#000000;stroke-width:1.0;"/><text fill="#000000" font-family="sans-serif" font-size="20" lengthAdjust="spacing" textLength="68" x="277.5713" y="681.8242">creates</text><text fill="#000000" font-family="sans-serif" font-size="20" lengthAdjust="spacing" textLength="13" x="258.0801" y="623.238">1</text><text fill="#000000" font-family="sans-serif" font-size="20" lengthAdjust="spacing" textLength="10" x="219.6341" y="762.584">*</text></g><!--link SystemAdministrator to Employee--><g id="link_SystemAdministrator_Employee"><path codeLine="130" d="M245.8613,596.9883 C225.1813,612.0083 200.2313,634.4483 188.5713,661.4883 C171.9413,700.0683 194.8713,748.2883 211.0413,774.9383 " fill="none" id="SystemAdministrator-Employee-1" style="stroke:#181818;stroke-width:1.0;"/><polygon fill="#000000" points="195.0351,682.1167,202.4289,668.8169,193.1994,667.011,195.0351,682.1167" style="stroke:#000000;stroke-width:1.0;"/><text fill="#000000" font-family="sans-serif" font-size="20" lengthAdjust="spacing" textLength="33" x="209.5713" y="681.8242">is a</text><text fill="#000000" font-family="sans-serif" font-size="20" lengthAdjust="spacing" textLength="13" x="224.7742" y="623.2336">1</text><text fill="#000000" font-family="sans-serif" font-size="20" lengthAdjust="spacing" textLength="13" x="192.6582" y="762.6608">1</text></g><!--link StoreNetworkManager to Employee--><g id="link_StoreNetworkManager_Employee"><path codeLine="122" d="M105.1813,86.8983 C64.0013,106.7683 13.5713,141.3383 13.5713,191.4883 C13.5713,191.4883 13.5713,191.4883 13.5713,576.4883 C13.5713,590.0683 150.2013,723.2783 203.5713,774.7883 " fill="none" id="StoreNetworkManager-Employee" style="stroke:#181818;stroke-width:1.0;"/><polygon fill="#000000" points="22.704,374.685,25.3098,359.6929,16,361.0245,22.704,374.685" style="stroke:#000000;stroke-width:1.0;"/><text fill="#000000" font-family="sans-serif" font-size="20" lengthAdjust="spacing" textLength="33" x="34.5713" y="374.3242">is a</text><text fill="#000000" font-family="sans-serif" font-size="20" lengthAdjust="spacing" textLength="13" x="79.2991" y="113.5427">1</text><text fill="#000000" font-family="sans-serif" font-size="20" lengthAdjust="spacing" textLength="13" x="183.5244" y="762.873">1</text></g><!--link StoreManager to Employee--><g id="link_StoreManager_Employee"><path codeLine="123" d="M155.3213,213.7483 C148.8413,276.3883 132.1813,472.2883 157.5713,631.4883 C166.2713,686.0183 195.8613,744.6983 212.6613,774.7283 " fill="none" id="StoreManager-Employee" style="stroke:#181818;stroke-width:1.0;"/><polygon fill="#000000" points="154.3848,485.2242,157.5911,470.3489,148.2353,471.3052,154.3848,485.2242" style="stroke:#000000;stroke-width:1.0;"/><text fill="#000000" font-family="sans-serif" font-size="20" lengthAdjust="spacing" textLength="45" x="166.5713" y="484.8242">is an</text><text fill="#000000" font-family="sans-serif" font-size="20" lengthAdjust="spacing" textLength="13" x="140.4072" y="240.3598">1</text><text fill="#000000" font-family="sans-serif" font-size="20" lengthAdjust="spacing" textLength="13" x="211.275" y="762.7976">1</text></g><!--link Client to Person--><g id="link_Client_Person"><path codeLine="124" d="M96.2513,817.4483 C104.8113,845.4283 123.2113,896.0783 152.5713,930.4883 C167.1213,947.5383 184.9713,963.0583 203.4313,976.6783 " fill="none" id="Client-Person" style="stroke:#181818;stroke-width:1.0;"/><polygon fill="#000000" points="165.0385,924.9022,160.8582,910.2708,153.0564,915.5223,165.0385,924.9022" style="stroke:#000000;stroke-width:1.0;"/><text fill="#000000" font-family="sans-serif" font-size="20" lengthAdjust="spacing" textLength="33" x="173.5713" y="925.8242">is a</text><text fill="#000000" font-family="sans-serif" font-size="20" lengthAdjust="spacing" textLength="13" x="98.7634" y="843.6853">1</text><text fill="#000000" font-family="sans-serif" font-size="20" lengthAdjust="spacing" textLength="13" x="182.5946" y="967.9955">1</text></g><!--link Employee to Person--><g id="link_Employee_Person"><path codeLine="125" d="M219.6613,817.1883 C214.1313,843.9983 207.6013,892.3983 221.5713,930.4883 C225.3113,940.6883 230.4913,950.5883 236.4913,959.9883 " fill="none" id="Employee-Person" style="stroke:#181818;stroke-width:1.0;"/><polygon fill="#000000" points="230.5077,926.2106,233.4837,911.2876,224.1438,912.3884,230.5077,926.2106" style="stroke:#000000;stroke-width:1.0;"/><text fill="#000000" font-family="sans-serif" font-size="20" lengthAdjust="spacing" textLength="45" x="242.5713" y="925.8242">is an</text><text fill="#000000" font-family="sans-serif" font-size="20" lengthAdjust="spacing" textLength="13" x="204.1654" y="843.7867">1</text><text fill="#000000" font-family="sans-serif" font-size="20" lengthAdjust="spacing" textLength="13" x="216.0475" y="948.1851">1</text></g><!--link Agent to Employee--><g id="link_Agent_Employee"><path codeLine="126" d="M613.1313,591.4783 C578.3313,608.1883 520.6513,636.1783 471.5713,661.4883 C396.1913,700.3583 309.1713,748.0683 261.1613,774.6383 " fill="none" id="Agent-Employee" style="stroke:#181818;stroke-width:1.0;"/><polygon fill="#000000" points="472.4747,677.9586,487.4833,675.4492,483.1419,667.1067,472.4747,677.9586" style="stroke:#000000;stroke-width:1.0;"/><text fill="#000000" font-family="sans-serif" font-size="20" lengthAdjust="spacing" textLength="45" x="492.5713" y="681.8242">is an</text><text fill="#000000" font-family="sans-serif" font-size="20" lengthAdjust="spacing" textLength="13" x="592.6619" y="588.7966">1</text><text fill="#000000" font-family="sans-serif" font-size="20" lengthAdjust="spacing" textLength="13" x="255.8719" y="762.6845">1</text></g><!--link Employee to Role--><g id="link_Employee_Role"><path codeLine="127" d="M234.7113,817.0883 C250.6113,846.5383 284.2513,901.1083 328.5713,930.4883 C371.5213,958.9583 398.4813,930.7583 440.5713,960.4883 C461.3813,975.1883 476.6913,1000.6083 485.5913,1018.5283 " fill="none" id="Employee-Role" style="stroke:#181818;stroke-width:1.0;"/><polygon fill="#000000" points="342.8093,923.2743,334.4687,910.5469,328.5806,917.8801,342.8093,923.2743" style="stroke:#000000;stroke-width:1.0;"/><text fill="#000000" font-family="sans-serif" font-size="20" lengthAdjust="spacing" textLength="118" x="349.5713" y="925.8242">has a role of</text><text fill="#000000" font-family="sans-serif" font-size="20" lengthAdjust="spacing" textLength="13" x="222.5531" y="844.0786">1</text><text fill="#000000" font-family="sans-serif" font-size="20" lengthAdjust="spacing" textLength="13" x="468.8181" y="1006.9521">1</text></g><!--link SystemAdministrator to Role--><g id="link_SystemAdministrator_Role"><path codeLine="128" d="M377.6513,596.9783 C413.3913,609.5183 450.3613,629.5683 472.5713,661.4883 C513.1713,719.8183 500.8313,949.4783 496.0613,1018.9683 " fill="none" id="SystemAdministrator-Role" style="stroke:#181818;stroke-width:1.0;"/><polygon fill="#000000" points="512.7326,803.9681,513.3502,788.7638,504.2953,791.3046,512.7326,803.9681" style="stroke:#000000;stroke-width:1.0;"/><text fill="#000000" font-family="sans-serif" font-size="20" lengthAdjust="spacing" textLength="50" x="523.5713" y="803.8242">has a</text><text fill="#000000" font-family="sans-serif" font-size="20" lengthAdjust="spacing" textLength="13" x="383.7459" y="623.2215">1</text><text fill="#000000" font-family="sans-serif" font-size="20" lengthAdjust="spacing" textLength="13" x="498.2086" y="1006.6988">1</text></g><!--link StoreNetworkManager to Role--><g id="link_StoreNetworkManager_Role"><path codeLine="129" d="M266.2013,69.7783 C513.3813,78.6983 1096.5713,108.5383 1096.5713,191.4883 C1096.5713,191.4883 1096.5713,191.4883 1096.5713,576.4883 C1096.5713,626.6283 1108.6513,652.7483 1071.5713,686.4883 C994.9913,756.1583 933.0913,670.0383 840.5713,716.4883 C752.6513,760.6283 758.3313,808.1883 686.5713,875.4883 C628.4513,929.9983 555.9313,989.6383 518.8613,1019.5683 " fill="none" id="StoreNetworkManager-Role" style="stroke:#181818;stroke-width:1.0;"/><polygon fill="#000000" points="1106.6279,484.9968,1107.4517,469.8022,1098.3632,472.2199,1106.6279,484.9968" style="stroke:#000000;stroke-width:1.0;"/><text fill="#000000" font-family="sans-serif" font-size="20" lengthAdjust="spacing" textLength="50" x="1117.5713" y="484.8242">has a</text><text fill="#000000" font-family="sans-serif" font-size="20" lengthAdjust="spacing" textLength="13" x="273.9366" y="65.6634">1</text><text fill="#000000" font-family="sans-serif" font-size="20" lengthAdjust="spacing" textLength="13" x="526.7512" y="1007.8528">1</text></g><!--link Agent to Owner--><g id="link_Agent_Owner"><path codeLine="131" d="M613.4013,594.3583 C591.0113,609.1383 562.5813,632.3983 549.5713,661.4883 C545.0313,671.6283 545.7913,676.0383 549.5713,686.4883 C555.4813,702.8083 563.6913,702.9683 574.5713,716.4883 C590.2613,735.9883 607.7513,758.5783 619.9613,774.5083 " fill="none" id="Agent-Owner" style="stroke:#181818;stroke-width:1.0;"/><polygon fill="#000000" points="557.8624,682.2603,562.0349,667.6267,552.6366,667.9689,557.8624,682.2603" style="stroke:#000000;stroke-width:1.0;"/><text fill="#000000" font-family="sans-serif" font-size="20" lengthAdjust="spacing" textLength="122" x="570.5713" y="681.8242">contacted by</text><text fill="#000000" font-family="sans-serif" font-size="20" lengthAdjust="spacing" textLength="13" x="592.6319" y="620.0612">1</text><text fill="#000000" font-family="sans-serif" font-size="20" lengthAdjust="spacing" textLength="13" x="601.572" y="762.9272">1</text></g><!--link Agent to Property--><g id="link_Agent_Property"><path codeLine="132" d="M656.8613,596.6283 C672.3013,620.5983 700.7913,660.6183 733.5713,686.4883 C770.6013,715.7183 816.7913,739.5983 857.8113,757.4383 " fill="none" id="Agent-Property" style="stroke:#181818;stroke-width:1.0;"/><polygon fill="#000000" points="747.8175,679.2641,739.4561,666.5503,733.58,673.8932,747.8175,679.2641" style="stroke:#000000;stroke-width:1.0;"/><text fill="#000000" font-family="sans-serif" font-size="20" lengthAdjust="spacing" textLength="93" x="754.5713" y="681.8242">publishes</text><text fill="#000000" font-family="sans-serif" font-size="20" lengthAdjust="spacing" textLength="10" x="648.456" y="623.2136">*</text><text fill="#000000" font-family="sans-serif" font-size="20" lengthAdjust="spacing" textLength="10" x="840.2344" y="750.263">*</text></g><!--link Agent to Property--><g id="link_Agent_Property"><path codeLine="133" d="M675.9413,584.0083 C718.9413,595.4283 797.1613,620.2983 852.5713,661.4883 C872.9113,676.6083 891.6413,696.3983 907.6013,716.1083 " fill="none" id="Agent-Property-1" style="stroke:#181818;stroke-width:1.0;"/><polygon fill="#000000" points="896.5208,678.2285,886.2783,666.9748,881.6197,675.1444,896.5208,678.2285" style="stroke:#000000;stroke-width:1.0;"/><text fill="#000000" font-family="sans-serif" font-size="20" lengthAdjust="spacing" textLength="160" x="902.5713" y="681.8242">sets commission</text><text fill="#000000" font-family="sans-serif" font-size="20" lengthAdjust="spacing" textLength="13" x="683.752" y="579.8327">1</text><text fill="#000000" font-family="sans-serif" font-size="20" lengthAdjust="spacing" textLength="10" x="892.4383" y="704.3158">*</text></g><!--link Owner to Property--><g id="link_Owner_Property"><path codeLine="134" d="M670.0413,795.9883 C714.4013,795.9883 793.4013,795.9883 857.8413,795.9883 " fill="none" id="Owner-Property" style="stroke:#181818;stroke-width:1.0;"/><polygon fill="#000000" points="744.3213,780.7656,729.8492,776.0633,729.8492,785.4679,744.3213,780.7656" style="stroke:#000000;stroke-width:1.0;"/><text fill="#000000" font-family="sans-serif" font-size="20" lengthAdjust="spacing" textLength="49" x="749.3213" y="788.3242">owns</text><text fill="#000000" font-family="sans-serif" font-size="20" lengthAdjust="spacing" textLength="13" x="677.5951" y="790.2961">1</text><text fill="#000000" font-family="sans-serif" font-size="20" lengthAdjust="spacing" textLength="10" x="839.9299" y="791.488">*</text></g><!--link Address to City--><g id="link_Address_City"><path codeLine="135" d="M560.5713,1316.5483 C560.5713,1345.8383 560.5713,1380.0783 560.5713,1401.2783 " fill="none" id="Address-City" style="stroke:#181818;stroke-width:1.0;"/><polygon fill="#000000" points="568.5713,1351.2656,563.869,1365.7378,573.2736,1365.7378,568.5713,1351.2656" style="stroke:#000000;stroke-width:1.0;"/><text fill="#000000" font-family="sans-serif" font-size="20" lengthAdjust="spacing" textLength="120" x="581.5713" y="1366.8242">is a part of a</text><text fill="#000000" font-family="sans-serif" font-size="20" lengthAdjust="spacing" textLength="13" x="546.7791" y="1344.1386">1</text><text fill="#000000" font-family="sans-serif" font-size="20" lengthAdjust="spacing" textLength="13" x="545.9057" y="1389.3604">1</text></g><!--link City to District--><g id="link_City_District"><path codeLine="136" d="M560.5713,1443.8483 C560.5713,1467.0983 560.5713,1504.8983 560.5713,1528.1383 " fill="none" id="City-District" style="stroke:#181818;stroke-width:1.0;"/><polygon fill="#000000" points="568.5713,1478.2656,563.869,1492.7378,573.2736,1492.7378,568.5713,1478.2656" style="stroke:#000000;stroke-width:1.0;"/><text fill="#000000" font-family="sans-serif" font-size="20" lengthAdjust="spacing" textLength="120" x="581.5713" y="1493.8242">is a part of a</text><text fill="#000000" font-family="sans-serif" font-size="20" lengthAdjust="spacing" textLength="13" x="546.1494" y="1470.4817">1</text><text fill="#000000" font-family="sans-serif" font-size="20" lengthAdjust="spacing" textLength="13" x="545.9057" y="1516.1845">1</text></g><!--link District to State--><g id="link_District_State"><path codeLine="137" d="M560.5713,1570.8483 C560.5713,1594.0983 560.5713,1631.8983 560.5713,1655.1383 " fill="none" id="District-State" style="stroke:#181818;stroke-width:1.0;"/><polygon fill="#000000" points="568.5713,1605.2656,563.869,1619.7378,573.2736,1619.7378,568.5713,1605.2656" style="stroke:#000000;stroke-width:1.0;"/><text fill="#000000" font-family="sans-serif" font-size="20" lengthAdjust="spacing" textLength="120" x="581.5713" y="1620.8242">is a part of a</text><text fill="#000000" font-family="sans-serif" font-size="20" lengthAdjust="spacing" textLength="13" x="546.1494" y="1597.4817">1</text><text fill="#000000" font-family="sans-serif" font-size="20" lengthAdjust="spacing" textLength="13" x="545.9057" y="1643.1845">1</text></g><!--link Client to Address--><g id="link_Client_Address"><path codeLine="138" d="M83.9913,817.3983 C67.5313,872.6683 30.8113,1027.2583 101.5713,1119.4883 C149.5613,1182.0383 377.4413,1228.6183 493.0113,1248.6583 " fill="none" id="Client-Address" style="stroke:#181818;stroke-width:1.0;"/><polygon fill="#000000" points="115.0765,1046.0702,108.5293,1032.3338,101.7057,1038.8055,115.0765,1046.0702" style="stroke:#000000;stroke-width:1.0;"/><text fill="#000000" font-family="sans-serif" font-size="20" lengthAdjust="spacing" textLength="62" x="122.5713" y="1047.8242">has an</text><text fill="#000000" font-family="sans-serif" font-size="20" lengthAdjust="spacing" textLength="13" x="68.1301" y="844.0427">1</text><text fill="#000000" font-family="sans-serif" font-size="20" lengthAdjust="spacing" textLength="10" x="475.0751" y="1242.4609">*</text></g><!--link Property to Photos--><g id="link_Property_Photos"><path codeLine="139" d="M960.5713,875.8883 C960.5713,926.0983 960.5713,987.3483 960.5713,1018.5683 " fill="none" id="Property-Photos" style="stroke:#181818;stroke-width:1.0;"/><polygon fill="#000000" points="968.5713,926.2656,973.2736,911.7935,963.869,911.7935,968.5713,926.2656" style="stroke:#000000;stroke-width:1.0;"/><text fill="#000000" font-family="sans-serif" font-size="20" lengthAdjust="spacing" textLength="33" x="981.5713" y="925.8242">has</text><text fill="#000000" font-family="sans-serif" font-size="20" lengthAdjust="spacing" textLength="13" x="947.0127" y="903.0886">1</text><text fill="#000000" font-family="sans-serif" font-size="20" lengthAdjust="spacing" textLength="10" x="949.2901" y="1006.5966">*</text></g><!--link PublishedProperty to Commission--><g id="link_PublishedProperty_Commission"><path codeLine="140" d="M1551.8713,605.0483 C1577.9913,617.9683 1603.5013,636.1883 1618.5713,661.4883 C1634.5213,688.2583 1630.7613,723.5783 1623.5513,751.1683 " fill="none" id="PublishedProperty-Commission" style="stroke:#181818;stroke-width:1.0;"/><polygon fill="#000000" points="1631.048,667.0833,1633.2001,682.1472,1641.6434,678.0053,1631.048,667.0833" style="stroke:#000000;stroke-width:1.0;"/><text fill="#000000" font-family="sans-serif" font-size="20" lengthAdjust="spacing" textLength="83" x="1647.5713" y="681.8242">is set for</text><text fill="#000000" font-family="sans-serif" font-size="20" lengthAdjust="spacing" textLength="13" x="1559.5851" y="602.8368">1</text><text fill="#000000" font-family="sans-serif" font-size="20" lengthAdjust="spacing" textLength="13" x="1611.9437" y="739.2976">1</text></g><!--link PublishedProperty to Commission--><g id="link_PublishedProperty_Commission"><path codeLine="147" d="M1498.6013,631.9083 C1523.3513,668.9483 1555.4613,717.0083 1578.4013,751.3383 " fill="none" id="PublishedProperty-Commission-1" style="stroke:#181818;stroke-width:1.0;"/><polygon fill="#000000" points="1547.0158,680.9174,1542.8854,666.2718,1535.0658,671.4967,1547.0158,680.9174" style="stroke:#000000;stroke-width:1.0;"/><text fill="#000000" font-family="sans-serif" font-size="20" lengthAdjust="spacing" textLength="50" x="1555.5713" y="681.8242">has a</text><text fill="#000000" font-family="sans-serif" font-size="20" lengthAdjust="spacing" textLength="13" x="1489.1313" y="659.1169">1</text><text fill="#000000" font-family="sans-serif" font-size="20" lengthAdjust="spacing" textLength="13" x="1559.9393" y="739.1444">1</text></g><!--link Residency to Equipment--><g id="link_Residency_Equipment"><path codeLine="143" d="M1314.5713,1096.4083 C1314.5713,1137.8783 1314.5713,1193.1383 1314.5713,1227.5083 " fill="none" id="Residency-Equipment" style="stroke:#181818;stroke-width:1.0;"/><polygon fill="#000000" points="1322.5713,1170.2656,1327.2736,1155.7935,1317.869,1155.7935,1322.5713,1170.2656" style="stroke:#000000;stroke-width:1.0;"/><text fill="#000000" font-family="sans-serif" font-size="20" lengthAdjust="spacing" textLength="33" x="1335.5713" y="1169.8242">has</text><text fill="#000000" font-family="sans-serif" font-size="20" lengthAdjust="spacing" textLength="13" x="1300.8197" y="1123.6169">1</text><text fill="#000000" font-family="sans-serif" font-size="20" lengthAdjust="spacing" textLength="10" x="1303.6494" y="1215.6843">*</text></g><!--link PublishedProperty to Property--><g id="link_PublishedProperty_Property"><path codeLine="144" d="M1371.3513,604.7483 C1295.5813,629.9183 1185.4513,669.8983 1094.5713,716.4883 C1084.3713,721.7183 1073.8713,727.3683 1063.4413,733.1683 " fill="none" id="PublishedProperty-Property" style="stroke:#181818;stroke-width:1.0;"/><polygon fill="#000000" points="1227.9549,671.1862,1212.7878,672.417,1216.4079,681.0969,1227.9549,671.1862" style="stroke:#000000;stroke-width:1.0;"/><text fill="#000000" font-family="sans-serif" font-size="20" lengthAdjust="spacing" textLength="120" x="1233.5713" y="681.8242">is a part of a</text><text fill="#000000" font-family="sans-serif" font-size="20" lengthAdjust="spacing" textLength="13" x="1350.6439" y="602.5129">1</text><text fill="#000000" font-family="sans-serif" font-size="20" lengthAdjust="spacing" textLength="13" x="1071.1314" y="724.2866">1</text></g><!--link Person to Address--><g id="link_Person_Address"><path codeLine="145" d="M402.7413,1119.8683 C434.2513,1147.7383 468.9913,1178.4783 497.8413,1203.9983 " fill="none" id="Person-Address" style="stroke:#181818;stroke-width:1.0;"/><polygon fill="#000000" points="473.5632,1167.5663,465.8394,1154.4553,459.6081,1161.4992,473.5632,1167.5663" style="stroke:#000000;stroke-width:1.0;"/><text fill="#000000" font-family="sans-serif" font-size="20" lengthAdjust="spacing" textLength="33" x="480.5713" y="1169.8242">has</text><text fill="#000000" font-family="sans-serif" font-size="20" lengthAdjust="spacing" textLength="13" x="396.8458" y="1147.0669">1</text><text fill="#000000" font-family="sans-serif" font-size="20" lengthAdjust="spacing" textLength="10" x="479.5867" y="1192.0684">*</text></g><!--link Property to Address--><g id="link_Property_Address"><path codeLine="146" d="M892.2613,875.9683 C811.4913,969.3683 679.1213,1122.4083 608.5013,1204.0683 " fill="none" id="Property-Address" style="stroke:#181818;stroke-width:1.0;"/><polygon fill="#000000" points="816.3381,1046.3166,829.3617,1038.4463,822.2484,1032.2943,816.3381,1046.3166" style="stroke:#000000;stroke-width:1.0;"/><text fill="#000000" font-family="sans-serif" font-size="20" lengthAdjust="spacing" textLength="62" x="834.5713" y="1047.8242">has an</text><text fill="#000000" font-family="sans-serif" font-size="20" lengthAdjust="spacing" textLength="13" x="872.8323" y="903.1755">1</text><text fill="#000000" font-family="sans-serif" font-size="20" lengthAdjust="spacing" textLength="13" x="600.5506" y="1192.1469">1</text></g><!--link StoreManager to Agency--><g id="link_StoreManager_Agency"><path codeLine="148" d="M215.3513,213.8983 C303.5313,245.0383 471.7313,304.4483 569.3413,338.9183 " fill="none" id="StoreManager-Agency" style="stroke:#181818;stroke-width:1.0;"/><polygon fill="#000000" points="373.1147,258.9297,361.0345,249.6764,357.9027,258.5442,373.1147,258.9297" style="stroke:#000000;stroke-width:1.0;"/><text fill="#000000" font-family="sans-serif" font-size="20" lengthAdjust="spacing" textLength="115" x="378.5713" y="263.8242">manages an</text><text fill="#000000" font-family="sans-serif" font-size="20" lengthAdjust="spacing" textLength="13" x="213.5688" y="240.5427">1</text><text fill="#000000" font-family="sans-serif" font-size="20" lengthAdjust="spacing" textLength="13" x="548.5514" y="331.5676">1</text></g><!--link House to SunExposure--><g id="link_House_SunExposure"><path codeLine="149" d="M1114.5713,1305.2083 C1114.5713,1336.4783 1114.5713,1377.1383 1114.5713,1401.1683 " fill="none" id="House-SunExposure" style="stroke:#181818;stroke-width:1.0;"/><polygon fill="#000000" points="1122.5713,1367.2656,1127.2736,1352.7935,1117.869,1352.7935,1122.5713,1367.2656" style="stroke:#000000;stroke-width:1.0;"/><text fill="#000000" font-family="sans-serif" font-size="20" lengthAdjust="spacing" textLength="106" x="1135.5713" y="1366.8242">has a value</text><text fill="#000000" font-family="sans-serif" font-size="20" lengthAdjust="spacing" textLength="13" x="1100.6979" y="1332.1586">1</text><text fill="#000000" font-family="sans-serif" font-size="20" lengthAdjust="spacing" textLength="13" x="1099.9057" y="1389.2222">1</text></g><!--link PublishedProperty to TransactionType--><g id="link_PublishedProperty_TransactionType"><path codeLine="150" d="M1393.2313,631.6083 C1385.6613,640.7583 1379.0813,650.7883 1374.5713,661.4883 C1358.8313,698.8783 1366.0113,747.5383 1372.1313,774.5783 " fill="none" id="PublishedProperty-TransactionType" style="stroke:#181818;stroke-width:1.0;"/><polygon fill="#000000" points="1381.4033,682.1799,1388.1681,668.5494,1378.8644,667.1763,1381.4033,682.1799" style="stroke:#000000;stroke-width:1.0;"/><text fill="#000000" font-family="sans-serif" font-size="20" lengthAdjust="spacing" textLength="106" x="1395.5713" y="681.8242">has a value</text><text fill="#000000" font-family="sans-serif" font-size="20" lengthAdjust="spacing" textLength="13" x="1371.1102" y="659.2059">1</text><text fill="#000000" font-family="sans-serif" font-size="20" lengthAdjust="spacing" textLength="13" x="1356.0717" y="762.6092">1</text></g><!--link Owner to Person--><g id="link_Owner_Person"><path codeLine="151" d="M622.7313,817.2883 C611.4213,834.1583 593.7813,858.1283 574.5713,875.4883 C549.0313,898.5683 483.1713,939.7883 423.9913,975.0683 " fill="none" id="Owner-Person" style="stroke:#181818;stroke-width:1.0;"/><polygon fill="#000000" points="536.3058,923.2399,550.564,917.9242,544.7165,910.5586,536.3058,923.2399" style="stroke:#000000;stroke-width:1.0;"/><text fill="#000000" font-family="sans-serif" font-size="20" lengthAdjust="spacing" textLength="33" x="555.5713" y="925.8242">is a</text><text fill="#000000" font-family="sans-serif" font-size="20" lengthAdjust="spacing" textLength="13" x="605.5007" y="843.9086">1</text><text fill="#000000" font-family="sans-serif" font-size="20" lengthAdjust="spacing" textLength="13" x="431.4815" y="966.5158">1</text></g><!--link Agency to Address--><g id="link_Agency_Address"><path codeLine="152" d="M720.0113,397.0283 C818.1813,439.6683 987.1213,528.2683 1071.5713,661.4883 C1126.1813,747.6283 1164.0113,1038.8383 1101.5713,1119.4883 C1043.7013,1194.2383 760.4413,1236.3083 628.4713,1252.1383 " fill="none" id="Agency-Address" style="stroke:#181818;stroke-width:1.0;"/><polygon fill="#000000" points="1135.7198,804.2202,1141.9358,790.3308,1132.5846,789.3297,1135.7198,804.2202" style="stroke:#000000;stroke-width:1.0;"/><text fill="#000000" font-family="sans-serif" font-size="20" lengthAdjust="spacing" textLength="62" x="1149.5713" y="803.8242">has an</text><text fill="#000000" font-family="sans-serif" font-size="20" lengthAdjust="spacing" textLength="13" x="727.5651" y="395.1555">1</text><text fill="#000000" font-family="sans-serif" font-size="20" lengthAdjust="spacing" textLength="13" x="636.1438" y="1246.4445">1</text></g><!--link UnregisteredUser to PublishedProperty--><g id="link_UnregisteredUser_PublishedProperty"><path codeLine="153" d="M1461.5713,387.7083 C1461.5713,417.9283 1461.5713,475.9383 1461.5713,519.3283 " fill="none" id="UnregisteredUser-PublishedProperty" style="stroke:#181818;stroke-width:1.0;"/><polygon fill="#000000" points="1469.5713,485.2656,1474.2736,470.7935,1464.869,470.7935,1469.5713,485.2656" style="stroke:#000000;stroke-width:1.0;"/><text fill="#000000" font-family="sans-serif" font-size="20" lengthAdjust="spacing" textLength="52" x="1482.5713" y="484.8242">views</text><text fill="#000000" font-family="sans-serif" font-size="20" lengthAdjust="spacing" textLength="13" x="1447.1494" y="414.3111">1</text><text fill="#000000" font-family="sans-serif" font-size="20" lengthAdjust="spacing" textLength="10" x="1450.9619" y="507.4386">*</text></g><!--SRC=[ZLNRRjim37ttLmXzAJ2WGBl7e1YGfYrMe3SitGSe5XCBaKHFafkcnVvzjEIBxBZfyX18r1597PB7RYjDoItN2lCj22PWpIlbRz7ufNm7zlqySos4QJIO5nOrC6yhI4vAdc_v1fP-hu1Po3qt6vK2NC45xgJPi3LNBZt95NTkxhsLgyh3NOuc13xFJdkCaWRylWI6rXUO5L80owNDAKHOQo2pS5dcfQS4hb5pQTW32b1P5WAmXP9W_4VsjpKyxGnObXXkTAbm3v2OvflXdMUm3ir7nkXdk8QmAEcafCGMt8h7Ig_01hFdRyaEA2CLxQ2WBD10Spe8bk-ZyxlhOOnmVIw41UTYq2aFpnPBiBxnKHFsjBwg797Nt8gc5XPCt08F2o4TLIs7MwhlWfxT95vQcKCIea2FBgMjoIh6TDu2-EWFqIO4lCjoGVNexoradMYtlQRm52fbU-cv7rI3ci5hIet1cmSZ7Fi5ZieVMEjGFx5oC8MeirXn1xM7i96cu2lf-Kh1FQvzxwAxrBaPCcl2iuXR41PHkw6H- -BG-imjTVDcIOC2rASzdzLAILU064OeM_CrKJ2qNCMwvQYrT4wYIIZjR8qNi3azbWOpR5-vgf82t7CZ9XxOpyEVIfOw341emNRxM3TbpnMgj4RBlVEWvq9BKnUKUxI3YgA51sueemFp8_WTskt4QMLktafqbKq3lLXk7CyzFVQ5kZev-MqiR2WuM12_NUCgcuZ1JYvEsDaPE_bsCiXindHOEFOZYqEP8eCcp5Z1w-E9vwROLb9cBASnyy7ZiKGkqYlICTxYlmGQGaQ9Ip5HhpfNxPNF8APvi3yUPyfDtGQH5CuihHcklw1dTEbBOaRWuvuFM3nuLfH_AWnzwQYDwDEtslSugbsiO3iNisu0tT3R2EN0ksGs2Hi3JM5nPuApAA1fShKsiYRtMlHgDZcxp88zmRMYEONjpX9yKDH9nyFMgTiyPjKmNZ-aJJn5nSz1Emq7OZPuKqTAY4z4iJKLxJ8xZOgTZaqhDQtZqrxwZy5wtJw6EffbNvq3ZkAaVChHcA3mFy7Y_t74HdCnCH1Hcdgn2kw7NDObxzMpTHc-0r-bCjBNyTsagoUbPgIRarICXNhGMEFSPknLmgwcEVi7]--></g></svg>