<?xml version="1.0" encoding="UTF-8" standalone="no"?><svg xmlns="http://www.w3.org/2000/svg" xmlns:xlink="http://www.w3.org/1999/xlink" contentStyleType="text/css" height="899px" preserveAspectRatio="none" style="width:842px;height:899px;background:#FFFFFF;" version="1.1" viewBox="0 0 842 899" width="842px" zoomAndPan="magnify"><defs/><g><text fill="#000000" font-family="sans-serif" font-size="14" font-weight="bold" lengthAdjust="spacing" textLength="155" x="336.75" y="23.5352">US009 Domain Model</text><!--class UserAccount--><g id="elem_UserAccount"><rect codeLine="11" fill="#F1F1F1" height="88.6641" id="UserAccount" rx="2.5" ry="2.5" style="stroke:#181818;stroke-width:0.5;" width="159" x="518" y="415.4883"/><text fill="#000000" font-family="sans-serif" font-size="20" lengthAdjust="spacing" textLength="120" x="537.5" y="439.8242">UserAccount</text><line style="stroke:#181818;stroke-width:0.5;" x1="519" x2="676" y1="449.043" y2="449.043"/><text fill="#000000" font-family="sans-serif" font-size="20" lengthAdjust="spacing" textLength="92" x="524" y="472.3789">password</text><text fill="#000000" font-family="sans-serif" font-size="20" lengthAdjust="spacing" textLength="147" x="524" y="495.9336">roleDescription</text></g><!--class Person--><g id="elem_Person"><rect codeLine="16" fill="#F1F1F1" height="159.3281" id="Person" rx="2.5" ry="2.5" style="stroke:#181818;stroke-width:0.5;" width="220" x="215.5" y="171.4883"/><text fill="#000000" font-family="sans-serif" font-size="20" lengthAdjust="spacing" textLength="64" x="293.5" y="195.8242">Person</text><line style="stroke:#181818;stroke-width:0.5;" x1="216.5" x2="434.5" y1="205.043" y2="205.043"/><text fill="#000000" font-family="sans-serif" font-size="20" lengthAdjust="spacing" textLength="53" x="221.5" y="228.3789">name</text><text fill="#000000" font-family="sans-serif" font-size="20" lengthAdjust="spacing" textLength="53" x="221.5" y="251.9336">email</text><text fill="#000000" font-family="sans-serif" font-size="20" lengthAdjust="spacing" textLength="208" x="221.5" y="275.4883">passportCardNumber</text><text fill="#000000" font-family="sans-serif" font-size="20" lengthAdjust="spacing" textLength="108" x="221.5" y="299.043">taxNumber</text><text fill="#000000" font-family="sans-serif" font-size="20" lengthAdjust="spacing" textLength="173" x="221.5" y="322.5977">telephoneNumber</text></g><!--class Client--><g id="elem_Client"><rect codeLine="24" fill="#F1F1F1" height="41.5547" id="Client" rx="2.5" ry="2.5" style="stroke:#181818;stroke-width:0.5;" width="62" x="173.5" y="438.9883"/><text fill="#000000" font-family="sans-serif" font-size="20" lengthAdjust="spacing" textLength="56" x="176.5" y="463.3242">Client</text><line style="stroke:#181818;stroke-width:0.5;" x1="174.5" x2="234.5" y1="472.543" y2="472.543"/></g><!--class Address--><g id="elem_Address"><rect codeLine="27" fill="#F1F1F1" height="88.6641" id="Address" rx="2.5" ry="2.5" style="stroke:#181818;stroke-width:0.5;" width="135" x="348" y="415.4883"/><text fill="#000000" font-family="sans-serif" font-size="20" lengthAdjust="spacing" textLength="79" x="376" y="439.8242">Address</text><line style="stroke:#181818;stroke-width:0.5;" x1="349" x2="482" y1="449.043" y2="449.043"/><text fill="#000000" font-family="sans-serif" font-size="20" lengthAdjust="spacing" textLength="123" x="354" y="472.3789">doorNumber</text><text fill="#000000" font-family="sans-serif" font-size="20" lengthAdjust="spacing" textLength="80" x="354" y="495.9336">zipCode</text></g><!--class City--><g id="elem_City"><rect codeLine="32" fill="#F1F1F1" height="41.5547" id="City" rx="2.5" ry="2.5" style="stroke:#181818;stroke-width:0.5;" width="43" x="728" y="229.9883"/><text fill="#000000" font-family="sans-serif" font-size="20" lengthAdjust="spacing" textLength="37" x="731" y="254.3242">City</text><line style="stroke:#181818;stroke-width:0.5;" x1="729" x2="770" y1="263.543" y2="263.543"/></g><!--class District--><g id="elem_District"><rect codeLine="35" fill="#F1F1F1" height="41.5547" id="District" rx="2.5" ry="2.5" style="stroke:#181818;stroke-width:0.5;" width="75" x="712" y="438.9883"/><text fill="#000000" font-family="sans-serif" font-size="20" lengthAdjust="spacing" textLength="69" x="715" y="463.3242">District</text><line style="stroke:#181818;stroke-width:0.5;" x1="713" x2="786" y1="472.543" y2="472.543"/></g><!--class State--><g id="elem_State"><rect codeLine="38" fill="#F1F1F1" height="41.5547" id="State" rx="2.5" ry="2.5" style="stroke:#181818;stroke-width:0.5;" width="53" x="486" y="664.9883"/><text fill="#000000" font-family="sans-serif" font-size="20" lengthAdjust="spacing" textLength="47" x="489" y="689.3242">State</text><line style="stroke:#181818;stroke-width:0.5;" x1="487" x2="538" y1="698.543" y2="698.543"/></g><!--class Street--><g id="elem_Street"><rect codeLine="41" fill="#F1F1F1" height="41.5547" id="Street" rx="2.5" ry="2.5" style="stroke:#181818;stroke-width:0.5;" width="61" x="719" y="44.4883"/><text fill="#000000" font-family="sans-serif" font-size="20" lengthAdjust="spacing" textLength="55" x="722" y="68.8242">Street</text><line style="stroke:#181818;stroke-width:0.5;" x1="720" x2="779" y1="78.043" y2="78.043"/></g><!--class Employee--><g id="elem_Employee"><rect codeLine="44" fill="#F1F1F1" height="41.5547" id="Employee" rx="2.5" ry="2.5" style="stroke:#181818;stroke-width:0.5;" width="99" x="330" y="534.4883"/><text fill="#000000" font-family="sans-serif" font-size="20" lengthAdjust="spacing" textLength="93" x="333" y="558.8242">Employee</text><line style="stroke:#181818;stroke-width:0.5;" x1="331" x2="428" y1="568.043" y2="568.043"/></g><!--class Agent--><g id="elem_Agent"><rect codeLine="47" fill="#F1F1F1" height="41.5547" id="Agent" rx="2.5" ry="2.5" style="stroke:#181818;stroke-width:0.5;" width="62" x="216.5" y="850.4883"/><text fill="#000000" font-family="sans-serif" font-size="20" lengthAdjust="spacing" textLength="56" x="219.5" y="874.8242">Agent</text><line style="stroke:#181818;stroke-width:0.5;" x1="217.5" x2="277.5" y1="884.043" y2="884.043"/></g><!--class VisitSchedule--><g id="elem_VisitSchedule"><rect codeLine="50" fill="#F1F1F1" height="159.3281" id="VisitSchedule" rx="2.5" ry="2.5" style="stroke:#181818;stroke-width:0.5;" width="185" x="7" y="606.4883"/><text fill="#000000" font-family="sans-serif" font-size="20" lengthAdjust="spacing" textLength="128" x="35.5" y="630.8242">VisitSchedule</text><line style="stroke:#181818;stroke-width:0.5;" x1="8" x2="191" y1="640.043" y2="640.043"/><text fill="#000000" font-family="sans-serif" font-size="20" lengthAdjust="spacing" textLength="53" x="13" y="663.3789">name</text><text fill="#000000" font-family="sans-serif" font-size="20" lengthAdjust="spacing" textLength="173" x="13" y="686.9336">telephoneNumber</text><text fill="#000000" font-family="sans-serif" font-size="20" lengthAdjust="spacing" textLength="42" x="13" y="710.4883">date</text><text fill="#000000" font-family="sans-serif" font-size="20" lengthAdjust="spacing" textLength="92" x="13" y="734.043">startTime</text><text fill="#000000" font-family="sans-serif" font-size="20" lengthAdjust="spacing" textLength="85" x="13" y="757.5977">endTime</text></g><!--reverse link Person to Client--><g id="link_Person_Client"><path d="M268.82,348.9583 C248.98,382.8883 228.6,417.7683 216.24,438.9083 " fill="none" id="Person-backto-Client" style="stroke:#181818;stroke-width:1.0;"/><polygon fill="none" points="262.51,345.8783,278.65,332.1483,274.6,352.9383,262.51,345.8783" style="stroke:#181818;stroke-width:1.0;"/></g><!--reverse link Person to Employee--><g id="link_Person_Employee"><path d="M310.79,352.0283 C307.86,399.8983 310.55,456.9883 330.5,504.4883 C335.25,515.8083 343.88,525.9783 352.59,534.1383 " fill="none" id="Person-backto-Employee" style="stroke:#181818;stroke-width:1.0;"/><polygon fill="none" points="303.8,351.6383,312.37,332.2583,317.76,352.7483,303.8,351.6383" style="stroke:#181818;stroke-width:1.0;"/></g><!--reverse link Employee to Agent--><g id="link_Employee_Agent"><path d="M396.1,596.6383 C416.26,652.4483 442.06,754.0783 394.5,820.4883 C368.29,857.0883 313.72,867.2183 278.94,869.8283 " fill="none" id="Employee-backto-Agent" style="stroke:#181818;stroke-width:1.0;"/><polygon fill="none" points="389.63,599.2983,388.97,578.1183,402.69,594.2683,389.63,599.2983" style="stroke:#181818;stroke-width:1.0;"/></g><!--link Person to UserAccount--><g id="link_Person_UserAccount"><path codeLine="58" d="M429.11,330.8383 C466.64,359.3983 507.67,390.6283 539.83,415.0983 " fill="none" id="Person-UserAccount" style="stroke:#181818;stroke-width:1.0;"/><polygon fill="#000000" points="508.8662,378.1104,500.1973,365.6042,494.502,373.0881,508.8662,378.1104" style="stroke:#000000;stroke-width:1.0;"/><text fill="#000000" font-family="sans-serif" font-size="20" lengthAdjust="spacing" textLength="33" x="515.5" y="380.8242">has</text><text fill="#000000" font-family="sans-serif" font-size="20" lengthAdjust="spacing" textLength="13" x="424.4554" y="358.0343">1</text><text fill="#000000" font-family="sans-serif" font-size="20" lengthAdjust="spacing" textLength="13" x="517.405" y="403.2173">1</text></g><!--link Person to Address--><g id="link_Person_Address"><path codeLine="59" d="M359.78,330.8383 C372.2,359.3983 385.78,390.6283 396.42,415.0983 " fill="none" id="Person-Address" style="stroke:#181818;stroke-width:1.0;"/><polygon fill="#000000" points="392.6902,380.602,391.2313,365.4552,382.6069,369.2055,392.6902,380.602" style="stroke:#000000;stroke-width:1.0;"/><text fill="#000000" font-family="sans-serif" font-size="20" lengthAdjust="spacing" textLength="33" x="402.5" y="380.8242">has</text><text fill="#000000" font-family="sans-serif" font-size="20" lengthAdjust="spacing" textLength="13" x="349.1673" y="358.0343">1</text><text fill="#000000" font-family="sans-serif" font-size="20" lengthAdjust="spacing" textLength="10" x="382.8833" y="403.2173">*</text></g><!--link Street to City--><g id="link_Street_City"><path codeLine="60" d="M749.5,86.8283 C749.5,122.0983 749.5,194.2183 749.5,229.5583 " fill="none" id="Street-City" style="stroke:#181818;stroke-width:1.0;"/><polygon fill="#000000" points="757.5,137.2656,762.2023,122.7935,752.7977,122.7935,757.5,137.2656" style="stroke:#000000;stroke-width:1.0;"/><text fill="#000000" font-family="sans-serif" font-size="20" lengthAdjust="spacing" textLength="64" x="770.5" y="136.8242">part of</text><text fill="#000000" font-family="sans-serif" font-size="20" lengthAdjust="spacing" textLength="10" x="738.4063" y="113.4573">*</text><text fill="#000000" font-family="sans-serif" font-size="20" lengthAdjust="spacing" textLength="13" x="734.8344" y="217.584">1</text></g><!--link District to State--><g id="link_District_State"><path codeLine="61" d="M728.05,481.2583 C683.04,523.7983 579.19,621.9583 534.07,664.5983 " fill="none" id="District-State" style="stroke:#181818;stroke-width:1.0;"/><polygon fill="#000000" points="668.6859,561.2608,682.4336,554.7374,675.9737,547.9025,668.6859,561.2608" style="stroke:#000000;stroke-width:1.0;"/><text fill="#000000" font-family="sans-serif" font-size="20" lengthAdjust="spacing" textLength="64" x="687.5" y="563.3242">part of</text><text fill="#000000" font-family="sans-serif" font-size="20" lengthAdjust="spacing" textLength="10" x="712.2641" y="507.872">*</text><text fill="#000000" font-family="sans-serif" font-size="20" lengthAdjust="spacing" textLength="13" x="524.9317" y="652.6343">1</text></g><!--link City to District--><g id="link_City_District"><path codeLine="62" d="M749.5,272.2083 C749.5,311.7883 749.5,399.0383 749.5,438.6783 " fill="none" id="City-District" style="stroke:#181818;stroke-width:1.0;"/><polygon fill="#000000" points="757.5,381.2656,762.2023,366.7935,752.7977,366.7935,757.5,381.2656" style="stroke:#000000;stroke-width:1.0;"/><text fill="#000000" font-family="sans-serif" font-size="20" lengthAdjust="spacing" textLength="64" x="770.5" y="380.8242">part of</text><text fill="#000000" font-family="sans-serif" font-size="20" lengthAdjust="spacing" textLength="10" x="738.4063" y="298.8111">*</text><text fill="#000000" font-family="sans-serif" font-size="20" lengthAdjust="spacing" textLength="13" x="734.8344" y="426.7348">1</text></g><!--link Address to State--><g id="link_Address_State"><path codeLine="63" d="M434.55,504.9783 C455.46,553.2683 488.13,628.6983 503.69,664.6383 " fill="none" id="Address-State" style="stroke:#181818;stroke-width:1.0;"/><polygon fill="#000000" points="475.6791,563.1068,474.2431,547.9578,465.613,551.6951,475.6791,563.1068" style="stroke:#000000;stroke-width:1.0;"/><text fill="#000000" font-family="sans-serif" font-size="20" lengthAdjust="spacing" textLength="33" x="485.5" y="563.3242">has</text><text fill="#000000" font-family="sans-serif" font-size="20" lengthAdjust="spacing" textLength="13" x="437.2649" y="522.8298">1</text><text fill="#000000" font-family="sans-serif" font-size="20" lengthAdjust="spacing" textLength="13" x="486.7668" y="652.6845">1</text></g><!--link Client to VisitSchedule--><g id="link_Client_VisitSchedule"><path codeLine="64" d="M195,481.2583 C181.85,509.3183 157.36,561.5583 136.47,606.1183 " fill="none" id="Client-VisitSchedule" style="stroke:#181818;stroke-width:1.0;"/><polygon fill="#000000" points="173.1044,563.0093,183.5048,551.9013,174.9894,547.9095,173.1044,563.0093" style="stroke:#000000;stroke-width:1.0;"/><text fill="#000000" font-family="sans-serif" font-size="20" lengthAdjust="spacing" textLength="63" x="189.5" y="563.3242">makes</text><text fill="#000000" font-family="sans-serif" font-size="20" lengthAdjust="spacing" textLength="13" x="178.5" y="507.872">1</text><text fill="#000000" font-family="sans-serif" font-size="20" lengthAdjust="spacing" textLength="10" x="129.3173" y="594.3267">*</text></g><!--link VisitSchedule to Agent--><g id="link_VisitSchedule_Agent"><path codeLine="65" d="M66.2,765.7383 C63.07,785.1083 64.72,804.7783 76.5,820.4883 C93.24,842.8283 171.38,858.5183 216.02,865.8383 " fill="none" id="VisitSchedule-Agent" style="stroke:#181818;stroke-width:1.0;"/><polygon fill="#000000" points="91.1519,812.71,81.7308,800.7602,76.5062,808.5799,91.1519,812.71" style="stroke:#000000;stroke-width:1.0;"/><text fill="#000000" font-family="sans-serif" font-size="20" lengthAdjust="spacing" textLength="292" x="97.5" y="815.8242">has the availability checked by</text><text fill="#000000" font-family="sans-serif" font-size="20" lengthAdjust="spacing" textLength="10" x="52.7889" y="793.2113">*</text><text fill="#000000" font-family="sans-serif" font-size="20" lengthAdjust="spacing" textLength="10" x="198.496" y="858.7402">*</text></g><!--SRC=[VLF1Rjim3BtxAuXS1WmeaFMs7WO4oGRiq650rjqPYOc9oA91qMlTOVy-HOvJ9OVwOebyV7nyjDEHOu-ANH1t90-UzZW4-oRHjlnASBziqWo1JgAuLgKZC1seolJeZdYWhOs1GCaPnaEe0Qb5ByyS3x37aEgC2vZIoanvDnXzTn9BusNpuGqJE9ADFO6ejTAqx0aSgyijohcZ7FQfQOmj2tZQBfUVOICTSeH7yHIQfhI1fqIwSaw6QF2tWVpqEVmiwij59T26abFkZIKs_-QwdwH9ubGHiQDoeCmVBYHzrhP6zJ-6RaTQmeOlzOq2zQr4EiSkvEl0bFNGYr7qRxqk-PNtIYbDtRs8LgIltA_pW1KPsrZLRZXbPvrLeQsXqTLTYMh0rwuFCXAze-XG2vxn5U0t9xQjQyaFWMvik_MXJ9KbbKCoLFl5iyFHbtFcdJJ0ujC2xkxAgzhb0xIOuCijwEDYzcu6JBEMp9dbv1Syv0sgWUmpP7Qi1XNBhb2bh49SgchGkNajUcQQv9mtN-czCYxZEZpI2NaTdnkV1Yohc0Yj9S0_-QF47OUJm8mlV_Lkp1Jb-Gy0]--></g></svg>