<?xml version="1.0" encoding="UTF-8" standalone="no"?><svg xmlns="http://www.w3.org/2000/svg" xmlns:xlink="http://www.w3.org/1999/xlink" contentStyleType="text/css" height="819px" preserveAspectRatio="none" style="width:591px;height:819px;background:#FFFFFF;" version="1.1" viewBox="0 0 591 819" width="591px" zoomAndPan="magnify"><defs/><g><text fill="#000000" font-family="sans-serif" font-size="14" font-weight="bold" lengthAdjust="spacing" textLength="155" x="211.48" y="23.5352">US009 Domain Model</text><!--class UserAccount--><g id="elem_UserAccount"><rect codeLine="10" fill="#F1F1F1" height="112.2188" id="UserAccount" rx="2.5" ry="2.5" style="stroke:#181818;stroke-width:0.5;" width="159" x="156.68" y="288.8183"/><text fill="#000000" font-family="sans-serif" font-size="20" lengthAdjust="spacing" textLength="120" x="176.18" y="313.1542">UserAccount</text><line style="stroke:#181818;stroke-width:0.5;" x1="157.68" x2="314.68" y1="322.373" y2="322.373"/><text fill="#000000" font-family="sans-serif" font-size="20" lengthAdjust="spacing" textLength="53" x="162.68" y="345.7089">email</text><text fill="#000000" font-family="sans-serif" font-size="20" lengthAdjust="spacing" textLength="92" x="162.68" y="369.2636">password</text><text fill="#000000" font-family="sans-serif" font-size="20" lengthAdjust="spacing" textLength="147" x="162.68" y="392.8183">roleDescription</text></g><!--class Person--><g id="elem_Person"><rect codeLine="16" fill="#F1F1F1" height="159.3281" id="Person" rx="2.5" ry="2.5" style="stroke:#181818;stroke-width:0.5;" width="220" x="271.18" y="44.4883"/><text fill="#000000" font-family="sans-serif" font-size="20" lengthAdjust="spacing" textLength="64" x="349.18" y="68.8242">Person</text><line style="stroke:#181818;stroke-width:0.5;" x1="272.18" x2="490.18" y1="78.043" y2="78.043"/><text fill="#000000" font-family="sans-serif" font-size="20" lengthAdjust="spacing" textLength="53" x="277.18" y="101.3789">name</text><text fill="#000000" font-family="sans-serif" font-size="20" lengthAdjust="spacing" textLength="53" x="277.18" y="124.9336">email</text><text fill="#000000" font-family="sans-serif" font-size="20" lengthAdjust="spacing" textLength="208" x="277.18" y="148.4883">passportCardNumber</text><text fill="#000000" font-family="sans-serif" font-size="20" lengthAdjust="spacing" textLength="108" x="277.18" y="172.043">taxNumber</text><text fill="#000000" font-family="sans-serif" font-size="20" lengthAdjust="spacing" textLength="173" x="277.18" y="195.5977">telephoneNumber</text></g><!--class Client--><g id="elem_Client"><rect codeLine="24" fill="#F1F1F1" height="41.5547" id="Client" rx="2.5" ry="2.5" style="stroke:#181818;stroke-width:0.5;" width="62" x="350.18" y="324.1483"/><text fill="#000000" font-family="sans-serif" font-size="20" lengthAdjust="spacing" textLength="56" x="353.18" y="348.4842">Client</text><line style="stroke:#181818;stroke-width:0.5;" x1="351.18" x2="411.18" y1="357.703" y2="357.703"/></g><!--class Employee--><g id="elem_Employee"><rect codeLine="44" fill="#F1F1F1" height="41.5547" id="Employee" rx="2.5" ry="2.5" style="stroke:#181818;stroke-width:0.5;" width="99" x="475.68" y="431.0383"/><text fill="#000000" font-family="sans-serif" font-size="20" lengthAdjust="spacing" textLength="93" x="478.68" y="455.3742">Employee</text><line style="stroke:#181818;stroke-width:0.5;" x1="476.68" x2="573.68" y1="464.593" y2="464.593"/></g><!--class Agent--><g id="elem_Agent"><rect codeLine="47" fill="#F1F1F1" height="41.5547" id="Agent" rx="2.5" ry="2.5" style="stroke:#181818;stroke-width:0.5;" width="62" x="281.18" y="770.4783"/><text fill="#000000" font-family="sans-serif" font-size="20" lengthAdjust="spacing" textLength="56" x="284.18" y="794.8142">Agent</text><line style="stroke:#181818;stroke-width:0.5;" x1="282.18" x2="342.18" y1="804.033" y2="804.033"/></g><!--class VisitSchedule--><g id="elem_VisitSchedule"><rect codeLine="50" fill="#F1F1F1" height="182.8828" id="VisitSchedule" rx="2.5" ry="2.5" style="stroke:#181818;stroke-width:0.5;" width="185" x="219.68" y="502.5883"/><text fill="#000000" font-family="sans-serif" font-size="20" lengthAdjust="spacing" textLength="128" x="248.18" y="526.9242">VisitSchedule</text><line style="stroke:#181818;stroke-width:0.5;" x1="220.68" x2="403.68" y1="536.143" y2="536.143"/><text fill="#000000" font-family="sans-serif" font-size="20" lengthAdjust="spacing" textLength="53" x="225.68" y="559.4789">name</text><text fill="#000000" font-family="sans-serif" font-size="20" lengthAdjust="spacing" textLength="173" x="225.68" y="583.0336">telephoneNumber</text><text fill="#000000" font-family="sans-serif" font-size="20" lengthAdjust="spacing" textLength="42" x="225.68" y="606.5883">date</text><text fill="#000000" font-family="sans-serif" font-size="20" lengthAdjust="spacing" textLength="92" x="225.68" y="630.143">startTime</text><text fill="#000000" font-family="sans-serif" font-size="20" lengthAdjust="spacing" textLength="85" x="225.68" y="653.6977">endTime</text><text fill="#000000" font-family="sans-serif" font-size="20" lengthAdjust="spacing" textLength="169" x="225.68" y="677.2523">approvedByAgent</text></g><!--reverse link Person to Client--><g id="link_Person_Client"><path d="M381.18,225.1183 C381.18,262.2783 381.18,300.9083 381.18,323.6683 " fill="none" id="Person-backto-Client" style="stroke:#181818;stroke-width:1.0;"/><polygon fill="none" points="374.18,225.1383,381.18,205.1383,388.18,225.1383,374.18,225.1383" style="stroke:#181818;stroke-width:1.0;"/></g><!--reverse link Person to Employee--><g id="link_Person_Employee"><path d="M424.46,223.0283 C456.78,296.1283 498.34,390.1283 516.28,430.6983 " fill="none" id="Person-backto-Employee" style="stroke:#181818;stroke-width:1.0;"/><polygon fill="none" points="417.73,226.1083,416.04,204.9883,430.53,220.4483,417.73,226.1083" style="stroke:#181818;stroke-width:1.0;"/></g><!--reverse link Employee to Agent--><g id="link_Employee_Agent"><path d="M539.79,492.6183 C559.22,553.2283 584.96,669.1183 528.18,740.4783 C505.42,769.0783 397.46,782.6483 343.31,787.7383 " fill="none" id="Employee-backto-Agent" style="stroke:#181818;stroke-width:1.0;"/><polygon fill="none" points="532.92,495.1683,533.08,473.9783,546.17,490.6383,532.92,495.1683" style="stroke:#181818;stroke-width:1.0;"/></g><!--link Person to UserAccount--><g id="link_Person_UserAccount"><path codeLine="59" d="M328.83,204.1383 C310.34,232.0383 289.94,262.8183 273,288.3683 " fill="none" id="Person-UserAccount" style="stroke:#181818;stroke-width:1.0;"/><polygon fill="#000000" points="312.7601,253.2638,324.6752,243.7989,316.8363,238.603,312.7601,253.2638" style="stroke:#000000;stroke-width:1.0;"/><text fill="#000000" font-family="sans-serif" font-size="20" lengthAdjust="spacing" textLength="33" x="330.18" y="254.1542">has</text><text fill="#000000" font-family="sans-serif" font-size="20" lengthAdjust="spacing" textLength="13" x="310.9565" y="231.0734">1</text><text fill="#000000" font-family="sans-serif" font-size="20" lengthAdjust="spacing" textLength="13" x="263.6953" y="276.4433">1</text></g><!--link Client to VisitSchedule--><g id="link_Client_VisitSchedule"><path codeLine="60" d="M375.53,366.1483 C367.26,395.7683 351.33,452.8183 337.52,502.2983 " fill="none" id="Client-VisitSchedule" style="stroke:#181818;stroke-width:1.0;"/><polygon fill="#000000" points="362.0288,459.801,370.4494,447.1263,361.3912,444.5974,362.0288,459.801" style="stroke:#000000;stroke-width:1.0;"/><text fill="#000000" font-family="sans-serif" font-size="20" lengthAdjust="spacing" textLength="63" x="377.18" y="459.6542">makes</text><text fill="#000000" font-family="sans-serif" font-size="20" lengthAdjust="spacing" textLength="13" x="359.7203" y="393.1155">1</text><text fill="#000000" font-family="sans-serif" font-size="20" lengthAdjust="spacing" textLength="10" x="329.1408" y="490.4301">*</text></g><!--link VisitSchedule to Agent--><g id="link_VisitSchedule_Agent"><path codeLine="61" d="M219.29,612.5283 C126.9,634.0283 6,675.8083 59.18,740.4783 C86.98,774.2683 219.87,785.4783 281.13,788.8883 " fill="none" id="VisitSchedule-Agent" style="stroke:#181818;stroke-width:1.0;"/><polygon fill="#000000" points="69.8272,735.805,69.4758,720.5921,60.601,723.704,69.8272,735.805" style="stroke:#000000;stroke-width:1.0;"/><text fill="#000000" font-family="sans-serif" font-size="20" lengthAdjust="spacing" textLength="188" x="80.18" y="735.8142">availability checked</text><text fill="#000000" font-family="sans-serif" font-size="20" lengthAdjust="spacing" textLength="10" x="201.7953" y="609.4213">*</text><text fill="#000000" font-family="sans-serif" font-size="20" lengthAdjust="spacing" textLength="10" x="263.2441" y="782.2514">*</text></g><!--link Agent to VisitSchedule--><g id="link_Agent_VisitSchedule"><path codeLine="62" d="M310.71,770.3983 C310.11,761.2883 309.48,750.3383 309.18,740.4783 C308.65,722.7983 308.63,703.9183 308.89,685.8083 " fill="none" id="Agent-VisitSchedule" style="stroke:#181818;stroke-width:1.0;"/><polygon fill="#000000" points="317.0079,720.2575,312.618,734.8274,322.0204,734.6251,317.0079,720.2575" style="stroke:#000000;stroke-width:1.0;"/><text fill="#000000" font-family="sans-serif" font-size="20" lengthAdjust="spacing" textLength="193" x="330.18" y="735.8142">confirms availability</text><text fill="#000000" font-family="sans-serif" font-size="20" lengthAdjust="spacing" textLength="10" x="298.9712" y="758.1127">*</text><text fill="#000000" font-family="sans-serif" font-size="20" lengthAdjust="spacing" textLength="10" x="298.2812" y="712.7491">*</text></g><!--SRC=[RPF1RXiX48RlFCN85qkL8hkzrGTBhfrAEQIgvAPt36ClCZ08PfCuKT-zBBlhi5QuB0mV_p_CBEbiV91HEalgZ1eq7cLh-ITvtfitX6zBaKO477bIJII7mB75QYT8TPOdtFF58aHKBFt9ra1gfAONuqzmb3RLEyhAb3RCqHnQnWT5lXWlHMCqWZ9HPQ4oTyWDwIG46yusJ_lbyZlio4dZuP4qMY6A63mbZ1kbgFKCxmBom0pPCWiPUA6eooAInHqc5KrWGrxy6nL-Oqpa-xDUEln4953ahOpwL-iE64kOvMkzGekX8Oz3x2g-jGPpPlZAwFM7LzvVp7jYetN4b7f_JHGhsJSJjlcobPpXo_l7ScTIhgNYAhHdoJXPHyGEc2_6qBqBbYw8dsKrv7Iganxv2lXhak6zQb2t5czATrkBSg-SL9aabf7_cB7ANb_dCeH8pwX_N8fxvzNd1RElCxYxAv-gsojeP8Ar62eyGbzcq-HW1KwUiIEdyOuS3lJNNO5ypasN1sDpbI5pvPMiHRzTyRS6-Jy-ckZIL60jobZCRwxH6VOz7w_Gz-ZgaBckpraulne6EcPax7GDbLPFg7Ai8gwdQcWmhyiwAfLqkXybZ_y0]--></g></svg>