<?xml version="1.0" encoding="UTF-8" standalone="no"?><svg xmlns="http://www.w3.org/2000/svg" xmlns:xlink="http://www.w3.org/1999/xlink" contentStyleType="text/css" height="819px" preserveAspectRatio="none" style="width:591px;height:819px;background:#FFFFFF;" version="1.1" viewBox="0 0 591 819" width="591px" zoomAndPan="magnify"><defs/><g><text fill="#000000" font-family="sans-serif" font-size="14" font-weight="bold" lengthAdjust="spacing" textLength="155" x="211.385" y="23.5352">US009 Domain Model</text><!--class UserAccount--><g id="elem_UserAccount"><rect codeLine="10" fill="#F1F1F1" height="112.2188" id="UserAccount" rx="2.5" ry="2.5" style="stroke:#181818;stroke-width:0.5;" width="159" x="155.58" y="288.4883"/><text fill="#000000" font-family="sans-serif" font-size="20" lengthAdjust="spacing" textLength="120" x="175.08" y="312.8242">UserAccount</text><line style="stroke:#181818;stroke-width:0.5;" x1="156.58" x2="313.58" y1="322.043" y2="322.043"/><text fill="#000000" font-family="sans-serif" font-size="20" lengthAdjust="spacing" textLength="53" x="161.58" y="345.3789">email</text><text fill="#000000" font-family="sans-serif" font-size="20" lengthAdjust="spacing" textLength="92" x="161.58" y="368.9336">password</text><text fill="#000000" font-family="sans-serif" font-size="20" lengthAdjust="spacing" textLength="147" x="161.58" y="392.4883">roleDescription</text></g><!--class Person--><g id="elem_Person"><rect codeLine="16" fill="#F1F1F1" height="159.3281" id="Person" rx="2.5" ry="2.5" style="stroke:#181818;stroke-width:0.5;" width="220" x="271.08" y="44.4883"/><text fill="#000000" font-family="sans-serif" font-size="20" lengthAdjust="spacing" textLength="64" x="349.08" y="68.8242">Person</text><line style="stroke:#181818;stroke-width:0.5;" x1="272.08" x2="490.08" y1="78.043" y2="78.043"/><text fill="#000000" font-family="sans-serif" font-size="20" lengthAdjust="spacing" textLength="53" x="277.08" y="101.3789">name</text><text fill="#000000" font-family="sans-serif" font-size="20" lengthAdjust="spacing" textLength="53" x="277.08" y="124.9336">email</text><text fill="#000000" font-family="sans-serif" font-size="20" lengthAdjust="spacing" textLength="208" x="277.08" y="148.4883">passportCardNumber</text><text fill="#000000" font-family="sans-serif" font-size="20" lengthAdjust="spacing" textLength="108" x="277.08" y="172.043">taxNumber</text><text fill="#000000" font-family="sans-serif" font-size="20" lengthAdjust="spacing" textLength="173" x="277.08" y="195.5977">telephoneNumber</text></g><!--class Client--><g id="elem_Client"><rect codeLine="24" fill="#F1F1F1" height="41.5547" id="Client" rx="2.5" ry="2.5" style="stroke:#181818;stroke-width:0.5;" width="62" x="350.08" y="323.4883"/><text fill="#000000" font-family="sans-serif" font-size="20" lengthAdjust="spacing" textLength="56" x="353.08" y="347.8242">Client</text><line style="stroke:#181818;stroke-width:0.5;" x1="351.08" x2="411.08" y1="357.043" y2="357.043"/></g><!--class Employee--><g id="elem_Employee"><rect codeLine="44" fill="#F1F1F1" height="41.5547" id="Employee" rx="2.5" ry="2.5" style="stroke:#181818;stroke-width:0.5;" width="99" x="475.58" y="430.4883"/><text fill="#000000" font-family="sans-serif" font-size="20" lengthAdjust="spacing" textLength="93" x="478.58" y="454.8242">Employee</text><line style="stroke:#181818;stroke-width:0.5;" x1="476.58" x2="573.58" y1="464.043" y2="464.043"/></g><!--class Agent--><g id="elem_Agent"><rect codeLine="47" fill="#F1F1F1" height="41.5547" id="Agent" rx="2.5" ry="2.5" style="stroke:#181818;stroke-width:0.5;" width="62" x="281.08" y="770.4883"/><text fill="#000000" font-family="sans-serif" font-size="20" lengthAdjust="spacing" textLength="56" x="284.08" y="794.8242">Agent</text><line style="stroke:#181818;stroke-width:0.5;" x1="282.08" x2="342.08" y1="804.043" y2="804.043"/></g><!--class VisitSchedule--><g id="elem_VisitSchedule"><rect codeLine="50" fill="#F1F1F1" height="182.8828" id="VisitSchedule" rx="2.5" ry="2.5" style="stroke:#181818;stroke-width:0.5;" width="186" x="219.08" y="502.4883"/><text fill="#000000" font-family="sans-serif" font-size="20" lengthAdjust="spacing" textLength="128" x="248.08" y="526.8242">VisitSchedule</text><line style="stroke:#181818;stroke-width:0.5;" x1="220.08" x2="404.08" y1="536.043" y2="536.043"/><text fill="#000000" font-family="sans-serif" font-size="20" lengthAdjust="spacing" textLength="53" x="225.08" y="559.3789">name</text><text fill="#000000" font-family="sans-serif" font-size="20" lengthAdjust="spacing" textLength="173" x="225.08" y="582.9336">telephoneNumber</text><text fill="#000000" font-family="sans-serif" font-size="20" lengthAdjust="spacing" textLength="42" x="225.08" y="606.4883">date</text><text fill="#000000" font-family="sans-serif" font-size="20" lengthAdjust="spacing" textLength="92" x="225.08" y="630.043">startTime</text><text fill="#000000" font-family="sans-serif" font-size="20" lengthAdjust="spacing" textLength="85" x="225.08" y="653.5977">endTime</text><text fill="#000000" font-family="sans-serif" font-size="20" lengthAdjust="spacing" textLength="174" x="225.08" y="677.1523">aprovatedByAgent</text></g><!--reverse link Person to Client--><g id="link_Person_Client"><path d="M381.08,225.3483 C381.08,262.3083 381.08,300.6283 381.08,323.2483 " fill="none" id="Person-backto-Client" style="stroke:#181818;stroke-width:1.0;"/><polygon fill="none" points="374.08,225.3883,381.08,205.3883,388.08,225.3883,374.08,225.3883" style="stroke:#181818;stroke-width:1.0;"/></g><!--reverse link Person to Employee--><g id="link_Person_Employee"><path d="M424.54,223.2383 C456.75,296.0383 498.05,389.3883 516.04,430.0483 " fill="none" id="Person-backto-Employee" style="stroke:#181818;stroke-width:1.0;"/><polygon fill="none" points="418.24,226.2883,416.55,205.1683,431.04,220.6283,418.24,226.2883" style="stroke:#181818;stroke-width:1.0;"/></g><!--reverse link Employee to Agent--><g id="link_Employee_Agent"><path d="M539.83,492.7383 C559.25,553.5183 584.77,669.1783 528.08,740.4883 C505.33,769.1083 397.37,782.7883 343.21,787.9383 " fill="none" id="Employee-backto-Agent" style="stroke:#181818;stroke-width:1.0;"/><polygon fill="none" points="533.3,495.2883,533.47,474.1083,546.55,490.7783,533.3,495.2883" style="stroke:#181818;stroke-width:1.0;"/></g><!--link Person to UserAccount--><g id="link_Person_UserAccount"><path codeLine="59" d="M328.37,203.8683 C309.75,231.7383 289.21,262.4783 272.16,287.9983 " fill="none" id="Person-UserAccount" style="stroke:#181818;stroke-width:1.0;"/><polygon fill="#000000" points="311.6356,252.9175,323.5854,243.4964,315.7657,238.2718,311.6356,252.9175" style="stroke:#000000;stroke-width:1.0;"/><text fill="#000000" font-family="sans-serif" font-size="20" lengthAdjust="spacing" textLength="33" x="329.08" y="253.8242">has</text><text fill="#000000" font-family="sans-serif" font-size="20" lengthAdjust="spacing" textLength="13" x="310.2816" y="231.0669">1</text><text fill="#000000" font-family="sans-serif" font-size="20" lengthAdjust="spacing" textLength="13" x="262.8869" y="276.0684">1</text></g><!--link Client to VisitSchedule--><g id="link_Client_VisitSchedule"><path codeLine="60" d="M375.43,365.7383 C367.16,395.4083 351.23,452.5483 337.42,502.1083 " fill="none" id="Client-VisitSchedule" style="stroke:#181818;stroke-width:1.0;"/><polygon fill="#000000" points="361.9321,459.4719,370.3473,446.7937,361.2881,444.2686,361.9321,459.4719" style="stroke:#000000;stroke-width:1.0;"/><text fill="#000000" font-family="sans-serif" font-size="20" lengthAdjust="spacing" textLength="63" x="377.08" y="459.3242">makes</text><text fill="#000000" font-family="sans-serif" font-size="20" lengthAdjust="spacing" textLength="13" x="359.7722" y="392.3477">1</text><text fill="#000000" font-family="sans-serif" font-size="20" lengthAdjust="spacing" textLength="10" x="329.0408" y="490.2329">*</text></g><!--link VisitSchedule to Agent--><g id="link_VisitSchedule_Agent"><path codeLine="61" d="M218.78,612.5883 C126.45,634.1183 6,675.8983 59.08,740.4883 C86.87,774.2983 219.76,785.6283 281.02,789.0983 " fill="none" id="VisitSchedule-Agent" style="stroke:#181818;stroke-width:1.0;"/><polygon fill="#000000" points="69.7404,735.8103,69.3624,720.5981,60.4931,723.7256,69.7404,735.8103" style="stroke:#000000;stroke-width:1.0;"/><text fill="#000000" font-family="sans-serif" font-size="20" lengthAdjust="spacing" textLength="188" x="80.08" y="735.8242">availability checked</text><text fill="#000000" font-family="sans-serif" font-size="20" lengthAdjust="spacing" textLength="10" x="200.9467" y="609.5168">*</text><text fill="#000000" font-family="sans-serif" font-size="20" lengthAdjust="spacing" textLength="10" x="263.1319" y="782.5052">*</text></g><!--link Agent to VisitSchedule--><g id="link_Agent_VisitSchedule"><path codeLine="62" d="M310.58,770.0683 C309.98,761.0083 309.37,750.2283 309.08,740.4883 C308.55,722.8083 308.54,703.9183 308.79,685.8083 " fill="none" id="Agent-VisitSchedule" style="stroke:#181818;stroke-width:1.0;"/><polygon fill="#000000" points="316.9101,720.2674,312.5162,734.8362,321.9187,734.6364,316.9101,720.2674" style="stroke:#000000;stroke-width:1.0;"/><text fill="#000000" font-family="sans-serif" font-size="20" lengthAdjust="spacing" textLength="193" x="330.08" y="735.8242">confirms availability</text><text fill="#000000" font-family="sans-serif" font-size="20" lengthAdjust="spacing" textLength="10" x="298.9144" y="758.0966">*</text><text fill="#000000" font-family="sans-serif" font-size="20" lengthAdjust="spacing" textLength="10" x="298.1812" y="712.7565">*</text></g><!--SRC=[RPF1Rjim38RlUWeYbm03YcIxBOS0MT81FNGOa7LtHM9Y8R9eK7JRjDYxJvRjL0wgYoNgq_zJf1NFBZIQTUt9dD62nQDklVoa87ltXl1jgUA8G4s1JCLK8mYtMEmqsfpr2VToyGYCHdGu-HA8bRRqui89Zjh7SiTu7UD6XDsX5Nmm5BBnKbNE8XZ79WdbUOrIaOrAYPDayxHVBh_3Zchj0ZoIHQzK5eEdYBmnXjeWyAuW3KoGpxCc0I_4DY-OFEum6dQDE0hgtwZm6pbIwCy6NUCd8WsnR3NRNsrzGCvXqQ_b2Zqs5GKSObVnhNUOCiDNmM0_lDB-OjuJ6siPO-pzBH4Nic-ksQRB5d9EBkyVovsBgPP6Yj1UjE1apOWTC5-CeVkwyNH1_2oh8QTJcVJ85y1V5vtiJOMszNXJkjjQv7kbfF8aYcRvuyOg1tkTwuRfEM7snoNRTsPzOZ3xEeExk_mfshs2IaTOgw748_HbDiqELb3hCtRaDDwHmu7-lYlGpwdh-k1yAZCaBZ-JjUgt2_xM8Ft8HyTrd0giLHwB-SqrEiE-wUCL-YPT7HBNDJe9fsSZGCU4ZAqkeTph2PMF5SJrL0aDvcLPHwMSJlUdfF4V]--></g></svg>