<?xml version="1.0" encoding="UTF-8" standalone="no"?><svg xmlns="http://www.w3.org/2000/svg" xmlns:xlink="http://www.w3.org/1999/xlink" contentStyleType="text/css" height="819px" preserveAspectRatio="none" style="width:591px;height:819px;background:#FFFFFF;" version="1.1" viewBox="0 0 591 819" width="591px" zoomAndPan="magnify"><defs/><g><text fill="#000000" font-family="sans-serif" font-size="14" font-weight="bold" lengthAdjust="spacing" textLength="155" x="211.425" y="23.5352">US009 Domain Model</text><!--class UserAccount--><g id="elem_UserAccount"><rect codeLine="10" fill="#F1F1F1" height="112.2188" id="UserAccount" rx="2.5" ry="2.5" style="stroke:#181818;stroke-width:0.5;" width="159" x="155.66" y="288.4883"/><text fill="#000000" font-family="sans-serif" font-size="20" lengthAdjust="spacing" textLength="120" x="175.16" y="312.8242">UserAccount</text><line style="stroke:#181818;stroke-width:0.5;" x1="156.66" x2="313.66" y1="322.043" y2="322.043"/><text fill="#000000" font-family="sans-serif" font-size="20" lengthAdjust="spacing" textLength="53" x="161.66" y="345.3789">email</text><text fill="#000000" font-family="sans-serif" font-size="20" lengthAdjust="spacing" textLength="92" x="161.66" y="368.9336">password</text><text fill="#000000" font-family="sans-serif" font-size="20" lengthAdjust="spacing" textLength="147" x="161.66" y="392.4883">roleDescription</text></g><!--class Person--><g id="elem_Person"><rect codeLine="16" fill="#F1F1F1" height="159.3281" id="Person" rx="2.5" ry="2.5" style="stroke:#181818;stroke-width:0.5;" width="220" x="271.16" y="44.4883"/><text fill="#000000" font-family="sans-serif" font-size="20" lengthAdjust="spacing" textLength="64" x="349.16" y="68.8242">Person</text><line style="stroke:#181818;stroke-width:0.5;" x1="272.16" x2="490.16" y1="78.043" y2="78.043"/><text fill="#000000" font-family="sans-serif" font-size="20" lengthAdjust="spacing" textLength="53" x="277.16" y="101.3789">name</text><text fill="#000000" font-family="sans-serif" font-size="20" lengthAdjust="spacing" textLength="53" x="277.16" y="124.9336">email</text><text fill="#000000" font-family="sans-serif" font-size="20" lengthAdjust="spacing" textLength="208" x="277.16" y="148.4883">passportCardNumber</text><text fill="#000000" font-family="sans-serif" font-size="20" lengthAdjust="spacing" textLength="108" x="277.16" y="172.043">taxNumber</text><text fill="#000000" font-family="sans-serif" font-size="20" lengthAdjust="spacing" textLength="173" x="277.16" y="195.5977">telephoneNumber</text></g><!--class Client--><g id="elem_Client"><rect codeLine="24" fill="#F1F1F1" height="41.5547" id="Client" rx="2.5" ry="2.5" style="stroke:#181818;stroke-width:0.5;" width="62" x="350.16" y="323.4883"/><text fill="#000000" font-family="sans-serif" font-size="20" lengthAdjust="spacing" textLength="56" x="353.16" y="347.8242">Client</text><line style="stroke:#181818;stroke-width:0.5;" x1="351.16" x2="411.16" y1="357.043" y2="357.043"/></g><!--class Employee--><g id="elem_Employee"><rect codeLine="44" fill="#F1F1F1" height="41.5547" id="Employee" rx="2.5" ry="2.5" style="stroke:#181818;stroke-width:0.5;" width="99" x="475.66" y="430.4883"/><text fill="#000000" font-family="sans-serif" font-size="20" lengthAdjust="spacing" textLength="93" x="478.66" y="454.8242">Employee</text><line style="stroke:#181818;stroke-width:0.5;" x1="476.66" x2="573.66" y1="464.043" y2="464.043"/></g><!--class Agent--><g id="elem_Agent"><rect codeLine="47" fill="#F1F1F1" height="41.5547" id="Agent" rx="2.5" ry="2.5" style="stroke:#181818;stroke-width:0.5;" width="62" x="281.16" y="770.4883"/><text fill="#000000" font-family="sans-serif" font-size="20" lengthAdjust="spacing" textLength="56" x="284.16" y="794.8242">Agent</text><line style="stroke:#181818;stroke-width:0.5;" x1="282.16" x2="342.16" y1="804.043" y2="804.043"/></g><!--class VisitSchedule--><g id="elem_VisitSchedule"><rect codeLine="50" fill="#F1F1F1" height="182.8828" id="VisitSchedule" rx="2.5" ry="2.5" style="stroke:#181818;stroke-width:0.5;" width="185" x="219.66" y="502.4883"/><text fill="#000000" font-family="sans-serif" font-size="20" lengthAdjust="spacing" textLength="128" x="248.16" y="526.8242">VisitSchedule</text><line style="stroke:#181818;stroke-width:0.5;" x1="220.66" x2="403.66" y1="536.043" y2="536.043"/><text fill="#000000" font-family="sans-serif" font-size="20" lengthAdjust="spacing" textLength="53" x="225.66" y="559.3789">name</text><text fill="#000000" font-family="sans-serif" font-size="20" lengthAdjust="spacing" textLength="173" x="225.66" y="582.9336">telephoneNumber</text><text fill="#000000" font-family="sans-serif" font-size="20" lengthAdjust="spacing" textLength="42" x="225.66" y="606.4883">date</text><text fill="#000000" font-family="sans-serif" font-size="20" lengthAdjust="spacing" textLength="92" x="225.66" y="630.043">startTime</text><text fill="#000000" font-family="sans-serif" font-size="20" lengthAdjust="spacing" textLength="85" x="225.66" y="653.5977">endTime</text><text fill="#000000" font-family="sans-serif" font-size="20" lengthAdjust="spacing" textLength="169" x="225.66" y="677.1523">approvedByAgent</text></g><!--reverse link Person to Client--><g id="link_Person_Client"><path d="M381.16,225.3483 C381.16,262.3083 381.16,300.6283 381.16,323.2483 " fill="none" id="Person-backto-Client" style="stroke:#181818;stroke-width:1.0;"/><polygon fill="none" points="374.16,225.3883,381.16,205.3883,388.16,225.3883,374.16,225.3883" style="stroke:#181818;stroke-width:1.0;"/></g><!--reverse link Person to Employee--><g id="link_Person_Employee"><path d="M424.63,223.2383 C456.83,296.0383 498.13,389.3883 516.12,430.0483 " fill="none" id="Person-backto-Employee" style="stroke:#181818;stroke-width:1.0;"/><polygon fill="none" points="418.32,226.2883,416.63,205.1683,431.13,220.6283,418.32,226.2883" style="stroke:#181818;stroke-width:1.0;"/></g><!--reverse link Employee to Agent--><g id="link_Employee_Agent"><path d="M539.91,492.7383 C559.34,553.5183 584.85,669.1783 528.16,740.4883 C505.41,769.1083 397.45,782.7883 343.29,787.9383 " fill="none" id="Employee-backto-Agent" style="stroke:#181818;stroke-width:1.0;"/><polygon fill="none" points="533.38,495.2883,533.55,474.1083,546.64,490.7783,533.38,495.2883" style="stroke:#181818;stroke-width:1.0;"/></g><!--link Person to UserAccount--><g id="link_Person_UserAccount"><path codeLine="59" d="M328.45,203.8683 C309.83,231.7383 289.29,262.4783 272.24,287.9983 " fill="none" id="Person-UserAccount" style="stroke:#181818;stroke-width:1.0;"/><polygon fill="#000000" points="311.7156,252.9175,323.6654,243.4964,315.8457,238.2718,311.7156,252.9175" style="stroke:#000000;stroke-width:1.0;"/><text fill="#000000" font-family="sans-serif" font-size="20" lengthAdjust="spacing" textLength="33" x="329.16" y="253.8242">has</text><text fill="#000000" font-family="sans-serif" font-size="20" lengthAdjust="spacing" textLength="13" x="310.3616" y="231.0669">1</text><text fill="#000000" font-family="sans-serif" font-size="20" lengthAdjust="spacing" textLength="13" x="262.9669" y="276.0684">1</text></g><!--link Client to VisitSchedule--><g id="link_Client_VisitSchedule"><path codeLine="60" d="M375.52,365.7383 C367.24,395.4083 351.31,452.5483 337.5,502.1083 " fill="none" id="Client-VisitSchedule" style="stroke:#181818;stroke-width:1.0;"/><polygon fill="#000000" points="362.0115,459.4717,370.4277,446.7941,361.3686,444.2684,362.0115,459.4717" style="stroke:#000000;stroke-width:1.0;"/><text fill="#000000" font-family="sans-serif" font-size="20" lengthAdjust="spacing" textLength="63" x="377.16" y="459.3242">makes</text><text fill="#000000" font-family="sans-serif" font-size="20" lengthAdjust="spacing" textLength="13" x="359.8644" y="392.3477">1</text><text fill="#000000" font-family="sans-serif" font-size="20" lengthAdjust="spacing" textLength="10" x="329.1208" y="490.2329">*</text></g><!--link VisitSchedule to Agent--><g id="link_VisitSchedule_Agent"><path codeLine="61" d="M219.28,612.4883 C126.89,633.9983 6,675.7983 59.16,740.4883 C86.95,774.2983 219.84,785.6283 281.11,789.0983 " fill="none" id="VisitSchedule-Agent" style="stroke:#181818;stroke-width:1.0;"/><polygon fill="#000000" points="69.8034,735.8163,69.4596,720.6033,60.5833,723.7108,69.8034,735.8163" style="stroke:#000000;stroke-width:1.0;"/><text fill="#000000" font-family="sans-serif" font-size="20" lengthAdjust="spacing" textLength="188" x="80.16" y="735.8242">availability checked</text><text fill="#000000" font-family="sans-serif" font-size="20" lengthAdjust="spacing" textLength="10" x="201.7861" y="609.3859">*</text><text fill="#000000" font-family="sans-serif" font-size="20" lengthAdjust="spacing" textLength="10" x="263.2241" y="782.5052">*</text></g><!--link Agent to VisitSchedule--><g id="link_Agent_VisitSchedule"><path codeLine="62" d="M310.66,770.0683 C310.06,761.0083 309.45,750.2283 309.16,740.4883 C308.63,722.8083 308.62,703.9183 308.87,685.8083 " fill="none" id="Agent-VisitSchedule" style="stroke:#181818;stroke-width:1.0;"/><polygon fill="#000000" points="316.9901,720.2674,312.5962,734.8362,321.9987,734.6364,316.9901,720.2674" style="stroke:#000000;stroke-width:1.0;"/><text fill="#000000" font-family="sans-serif" font-size="20" lengthAdjust="spacing" textLength="193" x="330.16" y="735.8242">confirms availability</text><text fill="#000000" font-family="sans-serif" font-size="20" lengthAdjust="spacing" textLength="10" x="298.9944" y="758.0966">*</text><text fill="#000000" font-family="sans-serif" font-size="20" lengthAdjust="spacing" textLength="10" x="298.2612" y="712.7565">*</text></g><!--SRC=[RPF1RXiX48RlFCN85qkL8hkzrGTBhfrAEQIgvAPt36ClCZ08PfCuKT-zBBlhi5QuB0mV_p_CBEbiV91HEalgZ1eq7cLh-ITvtfitX6zBaKO477bIJII7mB75QYT8TPOdtFF58aHKBFt9ra1gfAONuqzmb3RLEyhAb3RCqHnQnWT5lXWlHMCqWZ9HPQ4oTyWDwIG46yusJ_lbyZlio4dZuP4qMY6A63mbZ1kbgFKCxmBom0pPCWiPUA6eooAInHqc5KrWGrxy6nL-Oqpa-xDUEln4953ahOpwL-iE64kOvMkzGekX8Oz3x2g-jGPpPlZAwFM7LzvVp7jYetN4b7f_JHGhsJSJjlcobPpXo_l7ScTIhgNYAhHdoJXPHyGEc2_6qBqBbYw8dsKrv7Iganxv2lXhak6zQb2t5czATrkBSg-SL9aabf7_cB7ANb_dCeH8pwX_N8fxvzNd1RElCxYxAv-gsojeP8Ar62eyGbzcq-HW1KwUiIEdyOuS3lJNNO5ypasN1sDpbI5pvPMiHRzTyRS6-Jy-ckZIL60jobZCRwxH6VOz7w_Gz-ZgaBckpraulne6EcPax7GDbLPFg7Ai8gwdQcWmhyiwAfLqkXybZ_y0]--></g></svg>