<?xml version="1.0" encoding="UTF-8" standalone="no"?><svg xmlns="http://www.w3.org/2000/svg" xmlns:xlink="http://www.w3.org/1999/xlink" contentStyleType="text/css" height="1948px" preserveAspectRatio="none" style="width:1724px;height:1948px;background:#FFFFFF;" version="1.1" viewBox="0 0 1724 1948" width="1724px" zoomAndPan="magnify"><defs/><g><text fill="#000000" font-family="sans-serif" font-size="14" font-weight="bold" lengthAdjust="spacing" textLength="105" x="802.5" y="23.5352">Domain Model</text><!--class Client--><g id="elem_Client"><rect codeLine="11" fill="#F1F1F1" height="41.5547" id="Client" rx="2.5" ry="2.5" style="stroke:#181818;stroke-width:0.5;" width="62" x="909" y="358.9883"/><text fill="#000000" font-family="sans-serif" font-size="20" lengthAdjust="spacing" textLength="56" x="912" y="383.3242">Client</text><line style="stroke:#181818;stroke-width:0.5;" x1="910" x2="970" y1="392.543" y2="392.543"/></g><!--class Person--><g id="elem_Person"><rect codeLine="32" fill="#F1F1F1" height="159.3281" id="Person" rx="2.5" ry="2.5" style="stroke:#181818;stroke-width:0.5;" width="220" x="992" y="44.4883"/><text fill="#000000" font-family="sans-serif" font-size="20" lengthAdjust="spacing" textLength="64" x="1070" y="68.8242">Person</text><line style="stroke:#181818;stroke-width:0.5;" x1="993" x2="1211" y1="78.043" y2="78.043"/><text fill="#000000" font-family="sans-serif" font-size="20" lengthAdjust="spacing" textLength="53" x="998" y="101.3789">name</text><text fill="#000000" font-family="sans-serif" font-size="20" lengthAdjust="spacing" textLength="53" x="998" y="124.9336">email</text><text fill="#000000" font-family="sans-serif" font-size="20" lengthAdjust="spacing" textLength="208" x="998" y="148.4883">passportCardNumber</text><text fill="#000000" font-family="sans-serif" font-size="20" lengthAdjust="spacing" textLength="108" x="998" y="172.043">taxNumber</text><text fill="#000000" font-family="sans-serif" font-size="20" lengthAdjust="spacing" textLength="173" x="998" y="195.5977">telephoneNumber</text></g><!--class Owner--><g id="elem_Owner"><rect codeLine="14" fill="#F1F1F1" height="41.5547" id="Owner" rx="2.5" ry="2.5" style="stroke:#181818;stroke-width:0.5;" width="68" x="499" y="1308.4883"/><text fill="#000000" font-family="sans-serif" font-size="20" lengthAdjust="spacing" textLength="62" x="502" y="1332.8242">Owner</text><line style="stroke:#181818;stroke-width:0.5;" x1="500" x2="566" y1="1342.043" y2="1342.043"/></g><!--class Employee--><g id="elem_Employee"><rect codeLine="17" fill="#F1F1F1" height="41.5547" id="Employee" rx="2.5" ry="2.5" style="stroke:#181818;stroke-width:0.5;" width="99" x="1052.5" y="358.9883"/><text fill="#000000" font-family="sans-serif" font-size="20" lengthAdjust="spacing" textLength="93" x="1055.5" y="383.3242">Employee</text><line style="stroke:#181818;stroke-width:0.5;" x1="1053.5" x2="1150.5" y1="392.543" y2="392.543"/></g><!--class Agent--><g id="elem_Agent"><rect codeLine="20" fill="#F1F1F1" height="41.5547" id="Agent" rx="2.5" ry="2.5" style="stroke:#181818;stroke-width:0.5;" width="62" x="571" y="1181.4883"/><text fill="#000000" font-family="sans-serif" font-size="20" lengthAdjust="spacing" textLength="56" x="574" y="1205.8242">Agent</text><line style="stroke:#181818;stroke-width:0.5;" x1="572" x2="632" y1="1215.043" y2="1215.043"/></g><!--class Order--><g id="elem_Order"><rect codeLine="23" fill="#F1F1F1" height="65.1094" id="Order" rx="2.5" ry="2.5" style="stroke:#181818;stroke-width:0.5;" width="140" x="654" y="628.4883"/><text fill="#000000" font-family="sans-serif" font-size="20" lengthAdjust="spacing" textLength="56" x="696" y="652.8242">Order</text><line style="stroke:#181818;stroke-width:0.5;" x1="655" x2="793" y1="662.043" y2="662.043"/><text fill="#000000" font-family="sans-serif" font-size="20" lengthAdjust="spacing" textLength="128" x="660" y="685.3789">orderAmount</text></g><!--class UserAccount--><g id="elem_UserAccount"><rect codeLine="27" fill="#F1F1F1" height="88.6641" id="UserAccount" rx="2.5" ry="2.5" style="stroke:#181818;stroke-width:0.5;" width="159" x="622.5" y="335.4883"/><text fill="#000000" font-family="sans-serif" font-size="20" lengthAdjust="spacing" textLength="120" x="642" y="359.8242">UserAccount</text><line style="stroke:#181818;stroke-width:0.5;" x1="623.5" x2="780.5" y1="369.043" y2="369.043"/><text fill="#000000" font-family="sans-serif" font-size="20" lengthAdjust="spacing" textLength="92" x="628.5" y="392.3789">password</text><text fill="#000000" font-family="sans-serif" font-size="20" lengthAdjust="spacing" textLength="147" x="628.5" y="415.9336">roleDescription</text></g><!--class Agency--><g id="elem_Agency"><rect codeLine="40" fill="#F1F1F1" height="135.7734" id="Agency" rx="2.5" ry="2.5" style="stroke:#181818;stroke-width:0.5;" width="150" x="1212" y="960.4883"/><text fill="#000000" font-family="sans-serif" font-size="20" lengthAdjust="spacing" textLength="69" x="1252.5" y="984.8242">Agency</text><line style="stroke:#181818;stroke-width:0.5;" x1="1213" x2="1361" y1="994.043" y2="994.043"/><text fill="#000000" font-family="sans-serif" font-size="20" lengthAdjust="spacing" textLength="21" x="1218" y="1017.3789">ID</text><text fill="#000000" font-family="sans-serif" font-size="20" lengthAdjust="spacing" textLength="53" x="1218" y="1040.9336">name</text><text fill="#000000" font-family="sans-serif" font-size="20" lengthAdjust="spacing" textLength="132" x="1218" y="1064.4883">emailAddress</text><text fill="#000000" font-family="sans-serif" font-size="20" lengthAdjust="spacing" textLength="138" x="1218" y="1088.043">phoneNumber</text></g><!--class Property--><g id="elem_Property"><rect codeLine="47" fill="#F1F1F1" height="112.2188" id="Property" rx="2.5" ry="2.5" style="stroke:#181818;stroke-width:0.5;" width="205" x="165.5" y="1435.4883"/><text fill="#000000" font-family="sans-serif" font-size="20" lengthAdjust="spacing" textLength="80" x="228" y="1459.8242">Property</text><line style="stroke:#181818;stroke-width:0.5;" x1="166.5" x2="369.5" y1="1469.043" y2="1469.043"/><text fill="#000000" font-family="sans-serif" font-size="20" lengthAdjust="spacing" textLength="41" x="171.5" y="1492.3789">area</text><text fill="#000000" font-family="sans-serif" font-size="20" lengthAdjust="spacing" textLength="193" x="171.5" y="1515.9336">distanceFromCenter</text><text fill="#000000" font-family="sans-serif" font-size="20" lengthAdjust="spacing" textLength="48" x="171.5" y="1539.4883">price</text></g><!--class Photo--><g id="elem_Photo"><rect codeLine="53" fill="#F1F1F1" height="41.5547" id="Photo" rx="2.5" ry="2.5" style="stroke:#181818;stroke-width:0.5;" width="60" x="49" y="1667.4883"/><text fill="#000000" font-family="sans-serif" font-size="20" lengthAdjust="spacing" textLength="54" x="52" y="1691.8242">Photo</text><line style="stroke:#181818;stroke-width:0.5;" x1="50" x2="108" y1="1701.043" y2="1701.043"/></g><!--class Address--><g id="elem_Address"><rect codeLine="56" fill="#F1F1F1" height="88.6641" id="Address" rx="2.5" ry="2.5" style="stroke:#181818;stroke-width:0.5;" width="135" x="1329.5" y="1643.9883"/><text fill="#000000" font-family="sans-serif" font-size="20" lengthAdjust="spacing" textLength="79" x="1357.5" y="1668.3242">Address</text><line style="stroke:#181818;stroke-width:0.5;" x1="1330.5" x2="1463.5" y1="1677.543" y2="1677.543"/><text fill="#000000" font-family="sans-serif" font-size="20" lengthAdjust="spacing" textLength="123" x="1335.5" y="1700.8789">doorNumber</text><text fill="#000000" font-family="sans-serif" font-size="20" lengthAdjust="spacing" textLength="80" x="1335.5" y="1724.4336">zipCode</text></g><!--class City--><g id="elem_City"><rect codeLine="62" fill="#F1F1F1" height="41.5547" id="City" rx="2.5" ry="2.5" style="stroke:#181818;stroke-width:0.5;" width="43" x="1609.5" y="1308.4883"/><text fill="#000000" font-family="sans-serif" font-size="20" lengthAdjust="spacing" textLength="37" x="1612.5" y="1332.8242">City</text><line style="stroke:#181818;stroke-width:0.5;" x1="1610.5" x2="1651.5" y1="1342.043" y2="1342.043"/></g><!--class District--><g id="elem_District"><rect codeLine="65" fill="#F1F1F1" height="41.5547" id="District" rx="2.5" ry="2.5" style="stroke:#181818;stroke-width:0.5;" width="75" x="1593.5" y="1470.4883"/><text fill="#000000" font-family="sans-serif" font-size="20" lengthAdjust="spacing" textLength="69" x="1596.5" y="1494.8242">District</text><line style="stroke:#181818;stroke-width:0.5;" x1="1594.5" x2="1667.5" y1="1504.043" y2="1504.043"/></g><!--class State--><g id="elem_State"><rect codeLine="68" fill="#F1F1F1" height="41.5547" id="State" rx="2.5" ry="2.5" style="stroke:#181818;stroke-width:0.5;" width="53" x="1497.5" y="1864.4883"/><text fill="#000000" font-family="sans-serif" font-size="20" lengthAdjust="spacing" textLength="47" x="1500.5" y="1888.8242">State</text><line style="stroke:#181818;stroke-width:0.5;" x1="1498.5" x2="1549.5" y1="1898.043" y2="1898.043"/></g><!--class Street--><g id="elem_Street"><rect codeLine="71" fill="#F1F1F1" height="41.5547" id="Street" rx="2.5" ry="2.5" style="stroke:#181818;stroke-width:0.5;" width="61" x="1600.5" y="1007.4883"/><text fill="#000000" font-family="sans-serif" font-size="20" lengthAdjust="spacing" textLength="55" x="1603.5" y="1031.8242">Street</text><line style="stroke:#181818;stroke-width:0.5;" x1="1601.5" x2="1660.5" y1="1041.043" y2="1041.043"/></g><!--class Apartment--><g id="elem_Apartment"><rect codeLine="74" fill="#F1F1F1" height="41.5547" id="Apartment" rx="2.5" ry="2.5" style="stroke:#181818;stroke-width:0.5;" width="108" x="214" y="1864.4883"/><text fill="#000000" font-family="sans-serif" font-size="20" lengthAdjust="spacing" textLength="102" x="217" y="1888.8242">Apartment</text><line style="stroke:#181818;stroke-width:0.5;" x1="215" x2="321" y1="1898.043" y2="1898.043"/></g><!--class Residency--><g id="elem_Residency"><rect codeLine="84" fill="#F1F1F1" height="112.2188" id="Residency" rx="2.5" ry="2.5" style="stroke:#181818;stroke-width:0.5;" width="248" x="144" y="1632.4883"/><text fill="#000000" font-family="sans-serif" font-size="20" lengthAdjust="spacing" textLength="96" x="220" y="1656.8242">Residency</text><line style="stroke:#181818;stroke-width:0.5;" x1="145" x2="391" y1="1666.043" y2="1666.043"/><text fill="#000000" font-family="sans-serif" font-size="20" lengthAdjust="spacing" textLength="195" x="150" y="1689.3789">numberOfBedrooms</text><text fill="#000000" font-family="sans-serif" font-size="20" lengthAdjust="spacing" textLength="201" x="150" y="1712.9336">numberOfBathrooms</text><text fill="#000000" font-family="sans-serif" font-size="20" lengthAdjust="spacing" textLength="236" x="150" y="1736.4883">numberOfParkingSpaces</text></g><!--class House--><g id="elem_House"><rect codeLine="77" fill="#F1F1F1" height="112.2188" id="House" rx="2.5" ry="2.5" style="stroke:#181818;stroke-width:0.5;" width="245" x="357.5" y="1829.4883"/><text fill="#000000" font-family="sans-serif" font-size="20" lengthAdjust="spacing" textLength="60" x="450" y="1853.8242">House</text><line style="stroke:#181818;stroke-width:0.5;" x1="358.5" x2="601.5" y1="1863.043" y2="1863.043"/><text fill="#000000" font-family="sans-serif" font-size="20" lengthAdjust="spacing" textLength="94" x="363.5" y="1886.3789">basement</text><text fill="#000000" font-family="sans-serif" font-size="20" lengthAdjust="spacing" textLength="145" x="363.5" y="1909.9336">inhabitableLoft</text><text fill="#000000" font-family="sans-serif" font-size="20" lengthAdjust="spacing" textLength="233" x="363.5" y="1933.4883">sunExposureDescription</text></g><!--class Announcement--><g id="elem_Announcement"><rect codeLine="91" fill="#F1F1F1" height="182.8828" id="Announcement" rx="2.5" ry="2.5" style="stroke:#181818;stroke-width:0.5;" width="275" x="230.5" y="288.4883"/><text fill="#000000" font-family="sans-serif" font-size="20" lengthAdjust="spacing" textLength="144" x="296" y="312.8242">Announcement</text><line style="stroke:#181818;stroke-width:0.5;" x1="231.5" x2="504.5" y1="322.043" y2="322.043"/><text fill="#000000" font-family="sans-serif" font-size="20" lengthAdjust="spacing" textLength="140" x="236.5" y="345.3789">publishedDate</text><text fill="#000000" font-family="sans-serif" font-size="20" lengthAdjust="spacing" textLength="118" x="236.5" y="368.9336">publishedBy</text><text fill="#000000" font-family="sans-serif" font-size="20" lengthAdjust="spacing" textLength="110" x="236.5" y="392.4883">isPublished</text><text fill="#000000" font-family="sans-serif" font-size="20" lengthAdjust="spacing" textLength="263" x="236.5" y="416.043">transactionTypeDescription</text><text fill="#000000" font-family="sans-serif" font-size="20" lengthAdjust="spacing" textLength="192" x="236.5" y="439.5977">propertyDescription</text><text fill="#000000" font-family="sans-serif" font-size="20" lengthAdjust="spacing" textLength="169" x="236.5" y="463.1523">commissionValue</text></g><!--class Land--><g id="elem_Land"><rect codeLine="103" fill="#F1F1F1" height="41.5547" id="Land" rx="2.5" ry="2.5" style="stroke:#181818;stroke-width:0.5;" width="53" x="427.5" y="1667.4883"/><text fill="#000000" font-family="sans-serif" font-size="20" lengthAdjust="spacing" textLength="47" x="430.5" y="1691.8242">Land</text><line style="stroke:#181818;stroke-width:0.5;" x1="428.5" x2="479.5" y1="1701.043" y2="1701.043"/></g><!--class Equipment--><g id="elem_Equipment"><rect codeLine="106" fill="#F1F1F1" height="65.1094" id="Equipment" rx="2.5" ry="2.5" style="stroke:#181818;stroke-width:0.5;" width="172" x="7" y="1852.9883"/><text fill="#000000" font-family="sans-serif" font-size="20" lengthAdjust="spacing" textLength="104" x="41" y="1877.3242">Equipment</text><line style="stroke:#181818;stroke-width:0.5;" x1="8" x2="178" y1="1886.543" y2="1886.543"/><text fill="#000000" font-family="sans-serif" font-size="20" lengthAdjust="spacing" textLength="160" x="13" y="1909.8789">equipmentName</text></g><!--class SystemAdministrator--><g id="elem_SystemAdministrator"><rect codeLine="112" fill="#F1F1F1" height="41.5547" id="SystemAdministrator" rx="2.5" ry="2.5" style="stroke:#181818;stroke-width:0.5;" width="207" x="885.5" y="556.4883"/><text fill="#000000" font-family="sans-serif" font-size="20" lengthAdjust="spacing" textLength="201" x="888.5" y="580.8242">SystemAdministrator</text><line style="stroke:#181818;stroke-width:0.5;" x1="886.5" x2="1091.5" y1="590.043" y2="590.043"/></g><!--class StoreManager--><g id="elem_StoreManager"><rect codeLine="115" fill="#F1F1F1" height="41.5547" id="StoreManager" rx="2.5" ry="2.5" style="stroke:#181818;stroke-width:0.5;" width="137" x="1218.5" y="723.4883"/><text fill="#000000" font-family="sans-serif" font-size="20" lengthAdjust="spacing" textLength="131" x="1221.5" y="747.8242">StoreManager</text><line style="stroke:#181818;stroke-width:0.5;" x1="1219.5" x2="1354.5" y1="757.043" y2="757.043"/></g><!--class StoreNetworkManager--><g id="elem_StoreNetworkManager"><rect codeLine="118" fill="#F1F1F1" height="41.5547" id="StoreNetworkManager" rx="2.5" ry="2.5" style="stroke:#181818;stroke-width:0.5;" width="217" x="1127.5" y="556.4883"/><text fill="#000000" font-family="sans-serif" font-size="20" lengthAdjust="spacing" textLength="211" x="1130.5" y="580.8242">StoreNetworkManager</text><line style="stroke:#181818;stroke-width:0.5;" x1="1128.5" x2="1343.5" y1="590.043" y2="590.043"/></g><!--class UnregisteredUser--><g id="elem_UnregisteredUser"><rect codeLine="123" fill="#F1F1F1" height="41.5547" id="UnregisteredUser" rx="2.5" ry="2.5" style="stroke:#181818;stroke-width:0.5;" width="172" x="495" y="102.9883"/><text fill="#000000" font-family="sans-serif" font-size="20" lengthAdjust="spacing" textLength="166" x="498" y="127.3242">UnregisteredUser</text><line style="stroke:#181818;stroke-width:0.5;" x1="496" x2="666" y1="136.543" y2="136.543"/></g><!--reverse link Person to Client--><g id="link_Person_Client"><path d="M1040.08,222.0683 C1008.12,272.1783 971.95,328.8883 953.07,358.4983 " fill="none" id="Person-backto-Client" style="stroke:#181818;stroke-width:1.0;"/><polygon fill="none" points="1034.16,218.3383,1050.82,205.2383,1045.96,225.8683,1034.16,218.3383" style="stroke:#181818;stroke-width:1.0;"/></g><!--reverse link Person to Owner--><g id="link_Person_Owner"><path d="M1232.48,157.6983 C1337.96,192.8883 1469,260.4583 1469,378.9883 C1469,378.9883 1469,378.9883 1469,1203.4883 C1469,1296.3183 736.29,1322.7383 567.42,1327.5883 " fill="none" id="Person-backto-Owner" style="stroke:#181818;stroke-width:1.0;"/><polygon fill="none" points="1230.47,164.4083,1213.55,151.6483,1234.74,151.0683,1230.47,164.4083" style="stroke:#181818;stroke-width:1.0;"/></g><!--reverse link Person to Employee--><g id="link_Person_Employee"><path d="M1102,225.3683 C1102,274.6583 1102,329.5383 1102,358.4983 " fill="none" id="Person-backto-Employee" style="stroke:#181818;stroke-width:1.0;"/><polygon fill="none" points="1095,225.4783,1102,205.4783,1109,225.4783,1095,225.4783" style="stroke:#181818;stroke-width:1.0;"/></g><!--reverse link Employee to Agent--><g id="link_Employee_Agent"><path d="M1061.21,414.6783 C1039.94,431.9883 1013.34,453.2183 989,471.4883 C936.44,510.9383 902.57,500.5983 868,556.4883 C792.59,678.4283 871.76,741.7883 820,875.4883 C770.35,1003.7483 663.32,1132.5683 620.38,1181.2083 " fill="none" id="Employee-backto-Agent" style="stroke:#181818;stroke-width:1.0;"/><polygon fill="none" points="1056.58,409.4183,1076.49,402.1683,1065.45,420.2583,1056.58,409.4183" style="stroke:#181818;stroke-width:1.0;"/></g><!--reverse link Residency to Apartment--><g id="link_Residency_Apartment"><path d="M268,1766.2483 C268,1801.7083 268,1841.0083 268,1864.1883 " fill="none" id="Residency-backto-Apartment" style="stroke:#181818;stroke-width:1.0;"/><polygon fill="none" points="261,1766.3583,268,1746.3583,275,1766.3583,261,1766.3583" style="stroke:#181818;stroke-width:1.0;"/></g><!--reverse link Residency to House--><g id="link_Residency_House"><path d="M343.74,1759.1583 C368.67,1782.0883 396.04,1807.2583 419.67,1828.9883 " fill="none" id="Residency-backto-House" style="stroke:#181818;stroke-width:1.0;"/><polygon fill="none" points="339.28,1764.5583,329.3,1745.8683,348.76,1754.2583,339.28,1764.5583" style="stroke:#181818;stroke-width:1.0;"/></g><!--reverse link Property to Residency--><g id="link_Property_Residency"><path d="M268,1569.0683 C268,1590.0683 268,1612.4283 268,1631.9883 " fill="none" id="Property-backto-Residency" style="stroke:#181818;stroke-width:1.0;"/><polygon fill="none" points="261,1569.3583,268,1549.3583,275,1569.3583,261,1569.3583" style="stroke:#181818;stroke-width:1.0;"/></g><!--reverse link Property to Land--><g id="link_Property_Land"><path d="M342.66,1562.8583 C364.88,1584.6483 388.91,1609.0983 410,1632.4883 C419.99,1643.5683 430.45,1656.5783 438.66,1667.1683 " fill="none" id="Property-backto-Land" style="stroke:#181818;stroke-width:1.0;"/><polygon fill="none" points="337.8,1567.8883,328.34,1548.9283,347.56,1557.8483,337.8,1567.8883" style="stroke:#181818;stroke-width:1.0;"/></g><!--reverse link Employee to SystemAdministrator--><g id="link_Employee_SystemAdministrator"><path d="M1105.14,422.6883 C1105.39,453.9183 1101.09,496.2683 1080,526.4883 C1071.23,539.0583 1058.25,548.7883 1044.83,556.1883 " fill="none" id="Employee-backto-SystemAdministrator" style="stroke:#181818;stroke-width:1.0;"/><polygon fill="none" points="1098.15,423.1583,1104.32,402.8883,1112.14,422.5783,1098.15,423.1583" style="stroke:#181818;stroke-width:1.0;"/></g><!--link SystemAdministrator to Employee--><g id="link_SystemAdministrator_Employee"><path codeLine="133" d="M982.11,556.2983 C977.97,540.7483 974.76,519.0183 982,501.4883 C999.86,458.2383 1041.61,422.3483 1070.81,401.2883 " fill="none" id="SystemAdministrator-Employee" style="stroke:#181818;stroke-width:1.0;"/><polygon fill="#000000" points="993.9733,507.3221,982.7042,517.5477,990.8669,522.2185,993.9733,507.3221" style="stroke:#000000;stroke-width:1.0;"/><text fill="#000000" font-family="sans-serif" font-size="20" lengthAdjust="spacing" textLength="68" x="1003" y="521.8242">creates</text><text fill="#000000" font-family="sans-serif" font-size="20" lengthAdjust="spacing" textLength="13" x="965.6788" y="544.3855">1</text><text fill="#000000" font-family="sans-serif" font-size="20" lengthAdjust="spacing" textLength="10" x="1052.8934" y="427.9086">*</text></g><!--reverse link Employee to StoreManager--><g id="link_Employee_StoreManager"><path d="M1171.32,409.2583 C1231.44,437.4783 1315.83,486.7083 1362,556.4883 C1395.77,607.5283 1406.91,640.6583 1376,693.4883 C1368.57,706.1883 1356.6,715.9083 1343.82,723.2383 " fill="none" id="Employee-backto-StoreManager" style="stroke:#181818;stroke-width:1.0;"/><polygon fill="none" points="1168.67,415.7483,1153.34,401.1183,1174.45,402.9883,1168.67,415.7483" style="stroke:#181818;stroke-width:1.0;"/></g><!--reverse link Employee to StoreNetworkManager--><g id="link_Employee_StoreNetworkManager"><path d="M1127.85,418.6983 C1155.94,459.6883 1199.79,523.6583 1222.04,556.1183 " fill="none" id="Employee-backto-StoreNetworkManager" style="stroke:#181818;stroke-width:1.0;"/><polygon fill="none" points="1122.22,422.8783,1116.69,402.4183,1133.77,414.9583,1122.22,422.8783" style="stroke:#181818;stroke-width:1.0;"/></g><!--link UnregisteredUser to UserAccount--><g id="link_UnregisteredUser_UserAccount"><path codeLine="129" d="M590.7,145.3483 C610.21,186.3083 654.62,279.5283 681.06,335.0383 " fill="none" id="UnregisteredUser-UserAccount" style="stroke:#181818;stroke-width:1.0;"/><polygon fill="#000000" points="652.4404,253.488,650.4619,238.4003,641.9714,242.4448,652.4404,253.488" style="stroke:#000000;stroke-width:1.0;"/><text fill="#000000" font-family="sans-serif" font-size="20" lengthAdjust="spacing" textLength="190" x="662" y="253.8242">registers to become</text><text fill="#000000" font-family="sans-serif" font-size="20" lengthAdjust="spacing" textLength="13" x="578.4" y="171.9817">1</text><text fill="#000000" font-family="sans-serif" font-size="20" lengthAdjust="spacing" textLength="13" x="664.0297" y="323.1485">1</text></g><!--link Agent to Announcement--><g id="link_Agent_Announcement"><path codeLine="130" d="M570.74,1184.9483 C557.25,1176.4883 542.25,1165.0783 532,1151.4883 C446.52,1038.1183 495.32,973.8283 425,850.4883 C416.4,835.4083 406.5,836.5783 400,820.4883 C375.33,759.3883 369.37,581.5383 368.11,471.7083 " fill="none" id="Agent-Announcement" style="stroke:#181818;stroke-width:1.0;"/><polygon fill="#000000" points="405.8137,800.5702,405.2454,815.7764,414.292,813.2063,405.8137,800.5702" style="stroke:#000000;stroke-width:1.0;"/><text fill="#000000" font-family="sans-serif" font-size="20" lengthAdjust="spacing" textLength="93" x="421" y="815.8242">publishes</text><text fill="#000000" font-family="sans-serif" font-size="20" lengthAdjust="spacing" textLength="13" x="549.952" y="1175.3978">1</text><text fill="#000000" font-family="sans-serif" font-size="20" lengthAdjust="spacing" textLength="13" x="354.6407" y="498.6491">1</text></g><!--link Announcement to Agent--><g id="link_Announcement_Agent"><path codeLine="138" d="M505.83,469.0083 C535.42,498.5183 558,534.7183 558,576.4883 C558,576.4883 558,576.4883 558,1029.4883 C558,1085.7383 580.36,1149.1983 593.2,1181.0083 " fill="none" id="Announcement-Agent" style="stroke:#181818;stroke-width:1.0;"/><polygon fill="#000000" points="566.9744,816.2061,569.879,801.2689,560.5444,802.4144,566.9744,816.2061" style="stroke:#000000;stroke-width:1.0;"/><text fill="#000000" font-family="sans-serif" font-size="20" lengthAdjust="spacing" textLength="121" x="579" y="815.8242">requested to</text><text fill="#000000" font-family="sans-serif" font-size="20" lengthAdjust="spacing" textLength="10" x="513.641" y="469.602">*</text><text fill="#000000" font-family="sans-serif" font-size="20" lengthAdjust="spacing" textLength="13" x="576.4706" y="1169.4272">1</text></g><!--link StoreNetworkManager to StoreManager--><g id="link_StoreNetworkManager_StoreManager"><path codeLine="131" d="M1239.71,598.7683 C1244.24,622.0183 1252.72,661.0783 1264,693.4883 C1267.52,703.5983 1272.36,714.4283 1276.69,723.4183 " fill="none" id="StoreNetworkManager-StoreManager" style="stroke:#181818;stroke-width:1.0;"/><polygon fill="#000000" points="1274.2753,668.9352,1274.6673,653.7234,1265.6511,656.3982,1274.2753,668.9352" style="stroke:#000000;stroke-width:1.0;"/><text fill="#000000" font-family="sans-serif" font-size="20" lengthAdjust="spacing" textLength="86" x="1285" y="668.8242">manages</text><text fill="#000000" font-family="sans-serif" font-size="20" lengthAdjust="spacing" textLength="13" x="1226.0997" y="625.3842">1</text><text fill="#000000" font-family="sans-serif" font-size="20" lengthAdjust="spacing" textLength="10" x="1262.5754" y="711.1354">*</text></g><!--link Agency to Agent--><g id="link_Agency_Agent"><path codeLine="132" d="M1211.52,1053.8783 C1128.08,1080.2783 989.4,1122.4783 868,1151.4883 C783.91,1171.5883 683.28,1188.6183 633.33,1196.6183 " fill="none" id="Agency-Agent" style="stroke:#181818;stroke-width:1.0;"/><polygon fill="#000000" points="960.2332,1141.183,975.4105,1142.2796,973.1565,1133.1492,960.2332,1141.183" style="stroke:#000000;stroke-width:1.0;"/><text fill="#000000" font-family="sans-serif" font-size="20" lengthAdjust="spacing" textLength="33" x="981" y="1146.8242">has</text><text fill="#000000" font-family="sans-serif" font-size="20" lengthAdjust="spacing" textLength="13" x="1190.9625" y="1051.5307">1</text><text fill="#000000" font-family="sans-serif" font-size="20" lengthAdjust="spacing" textLength="10" x="640.8231" y="1189.4748">*</text></g><!--link Agent to Owner--><g id="link_Agent_Owner"><path codeLine="135" d="M590.76,1223.8483 C577.93,1247.0983 557.06,1284.8983 544.23,1308.1383 " fill="none" id="Agent-Owner" style="stroke:#181818;stroke-width:1.0;"/><polygon fill="#000000" points="577.1338,1273.2694,588.2445,1262.872,580.0111,1258.327,577.1338,1273.2694" style="stroke:#000000;stroke-width:1.0;"/><text fill="#000000" font-family="sans-serif" font-size="20" lengthAdjust="spacing" textLength="122" x="594" y="1273.8242">contacted by</text><text fill="#000000" font-family="sans-serif" font-size="20" lengthAdjust="spacing" textLength="13" x="573.8794" y="1250.4817">1</text><text fill="#000000" font-family="sans-serif" font-size="20" lengthAdjust="spacing" textLength="13" x="532.4421" y="1296.1845">1</text></g><!--link Owner to Property--><g id="link_Owner_Property"><path codeLine="136" d="M499.17,1350.9183 C464.15,1372.0583 407.91,1406.0183 359.67,1435.1383 " fill="none" id="Owner-Property" style="stroke:#181818;stroke-width:1.0;"/><polygon fill="#000000" points="448.1513,1397.4003,462.971,1393.9461,458.1103,1385.895,448.1513,1397.4003" style="stroke:#000000;stroke-width:1.0;"/><text fill="#000000" font-family="sans-serif" font-size="20" lengthAdjust="spacing" textLength="49" x="468" y="1400.8242">owns</text><text fill="#000000" font-family="sans-serif" font-size="20" lengthAdjust="spacing" textLength="13" x="477.8519" y="1349.4054">1</text><text fill="#000000" font-family="sans-serif" font-size="20" lengthAdjust="spacing" textLength="10" x="360.2329" y="1423.2255">*</text></g><!--link Owner to Announcement--><g id="link_Owner_Announcement"><path codeLine="137" d="M498.9,1323.2483 C441.56,1312.2783 332,1281.1583 332,1203.4883 C332,576.4883 332,576.4883 332,576.4883 C332,541.9783 337.49,504.5983 344.19,471.8583 " fill="none" id="Owner-Announcement" style="stroke:#181818;stroke-width:1.0;"/><polygon fill="#000000" points="338.5697,855.3945,336.5306,870.4742,345.7837,868.7928,338.5697,855.3945" style="stroke:#000000;stroke-width:1.0;"/><text fill="#000000" font-family="sans-serif" font-size="20" lengthAdjust="spacing" textLength="63" x="353" y="870.8242">makes</text><text fill="#000000" font-family="sans-serif" font-size="20" lengthAdjust="spacing" textLength="13" x="477.9069" y="1316.1901">1</text><text fill="#000000" font-family="sans-serif" font-size="20" lengthAdjust="spacing" textLength="10" x="332.0743" y="498.8101">*</text></g><!--link Announcement to Property--><g id="link_Announcement_Property"><path codeLine="139" d="M281.54,471.8783 C260.54,502.6983 244,538.9083 244,576.4883 C244,576.4883 244,576.4883 244,1330.4883 C244,1365.5983 249.72,1404.5683 255.58,1435.2583 " fill="none" id="Announcement-Property" style="stroke:#181818;stroke-width:1.0;"/><polygon fill="#000000" points="251.7845,926.2627,256.8749,911.9225,247.4738,911.6692,251.7845,926.2627" style="stroke:#000000;stroke-width:1.0;"/><text fill="#000000" font-family="sans-serif" font-size="20" lengthAdjust="spacing" textLength="33" x="265" y="925.8242">has</text><text fill="#000000" font-family="sans-serif" font-size="20" lengthAdjust="spacing" textLength="13" x="261.7133" y="498.8316">1</text><text fill="#000000" font-family="sans-serif" font-size="20" lengthAdjust="spacing" textLength="13" x="240.2741" y="1423.3601">1</text></g><!--link Announcement to Property--><g id="link_Announcement_Property"><path codeLine="145" d="M230.2,432.4983 C172.25,463.8683 118,510.7883 118,576.4883 C118,576.4883 118,576.4883 118,1330.4883 C118,1372.7483 146.2,1408.4483 178.15,1435.3183 " fill="none" id="Announcement-Property-1" style="stroke:#181818;stroke-width:1.0;"/><polygon fill="#000000" points="126.4147,910.2764,120.9686,924.4853,130.3605,924.9728,126.4147,910.2764" style="stroke:#000000;stroke-width:1.0;"/><text fill="#000000" font-family="sans-serif" font-size="20" lengthAdjust="spacing" textLength="64" x="139" y="925.8242">part of</text><text fill="#000000" font-family="sans-serif" font-size="20" lengthAdjust="spacing" textLength="13" x="209.3086" y="431.0953">1</text><text fill="#000000" font-family="sans-serif" font-size="20" lengthAdjust="spacing" textLength="13" x="153.4073" y="1423.4274">1</text></g><!--link Address to State--><g id="link_Address_State"><path codeLine="140" d="M1425.5,1733.2483 C1452.12,1774.1283 1490.68,1833.3183 1510.74,1864.1283 " fill="none" id="Address-State" style="stroke:#181818;stroke-width:1.0;"/><polygon fill="#000000" points="1480.366,1793.9692,1476.4082,1779.276,1468.5276,1784.4085,1480.366,1793.9692" style="stroke:#000000;stroke-width:1.0;"/><text fill="#000000" font-family="sans-serif" font-size="20" lengthAdjust="spacing" textLength="33" x="1489" y="1794.8242">has</text><text fill="#000000" font-family="sans-serif" font-size="20" lengthAdjust="spacing" textLength="13" x="1415.3188" y="1759.8496">1</text><text fill="#000000" font-family="sans-serif" font-size="20" lengthAdjust="spacing" textLength="13" x="1492.6765" y="1852.172">1</text></g><!--link City to District--><g id="link_City_District"><path codeLine="141" d="M1631,1350.7483 C1631,1381.4483 1631,1439.3883 1631,1470.1383 " fill="none" id="City-District" style="stroke:#181818;stroke-width:1.0;"/><polygon fill="#000000" points="1639,1401.2656,1643.7023,1386.7935,1634.2977,1386.7935,1639,1401.2656" style="stroke:#000000;stroke-width:1.0;"/><text fill="#000000" font-family="sans-serif" font-size="20" lengthAdjust="spacing" textLength="64" x="1652" y="1400.8242">part of</text><text fill="#000000" font-family="sans-serif" font-size="20" lengthAdjust="spacing" textLength="10" x="1619.9063" y="1377.3598">*</text><text fill="#000000" font-family="sans-serif" font-size="20" lengthAdjust="spacing" textLength="13" x="1616.3344" y="1458.1845">1</text></g><!--link District to State--><g id="link_District_State"><path codeLine="142" d="M1625.47,1512.7383 C1607.07,1580.1483 1548.01,1796.5383 1529.56,1864.1283 " fill="none" id="District-State" style="stroke:#181818;stroke-width:1.0;"/><polygon fill="#000000" points="1596.8935,1696.4833,1605.2405,1683.7601,1596.1679,1681.2837,1596.8935,1696.4833" style="stroke:#000000;stroke-width:1.0;"/><text fill="#000000" font-family="sans-serif" font-size="20" lengthAdjust="spacing" textLength="64" x="1612" y="1696.3242">part of</text><text fill="#000000" font-family="sans-serif" font-size="20" lengthAdjust="spacing" textLength="10" x="1613.1666" y="1539.3477">*</text><text fill="#000000" font-family="sans-serif" font-size="20" lengthAdjust="spacing" textLength="13" x="1516.3191" y="1852.172">1</text></g><!--link Property to Photo--><g id="link_Property_Photo"><path codeLine="143" d="M209.53,1547.9383 C183.45,1573.2283 152.66,1603.8583 126,1632.4883 C115.64,1643.6083 104.58,1656.5083 95.79,1667.0183 " fill="none" id="Property-Photo" style="stroke:#181818;stroke-width:1.0;"/><polygon fill="#000000" points="178.4743,1596.0507,191.8707,1588.8333,185.07,1582.3375,178.4743,1596.0507" style="stroke:#000000;stroke-width:1.0;"/><text fill="#000000" font-family="sans-serif" font-size="20" lengthAdjust="spacing" textLength="33" x="197" y="1597.8242">has</text><text fill="#000000" font-family="sans-serif" font-size="20" lengthAdjust="spacing" textLength="13" x="189.0178" y="1575.1504">1</text><text fill="#000000" font-family="sans-serif" font-size="20" lengthAdjust="spacing" textLength="41" x="53.8857" y="1655.4397">1...*</text></g><!--link Residency to Equipment--><g id="link_Residency_Equipment"><path codeLine="144" d="M218.32,1744.8483 C186.99,1779.7483 147.66,1823.5783 121.5,1852.7283 " fill="none" id="Residency-Equipment" style="stroke:#181818;stroke-width:1.0;"/><polygon fill="#000000" points="193.6566,1793.2194,206.8225,1785.5897,199.8234,1779.3081,193.6566,1793.2194" style="stroke:#000000;stroke-width:1.0;"/><text fill="#000000" font-family="sans-serif" font-size="20" lengthAdjust="spacing" textLength="33" x="212" y="1794.8242">has</text><text fill="#000000" font-family="sans-serif" font-size="20" lengthAdjust="spacing" textLength="13" x="198.8242" y="1772.05">1</text><text fill="#000000" font-family="sans-serif" font-size="20" lengthAdjust="spacing" textLength="10" x="115.9797" y="1840.6696">*</text></g><!--link Person to Address--><g id="link_Person_Address"><path codeLine="146" d="M1212.24,140.1983 C1341.99,165.0183 1540,227.6883 1540,378.9883 C1540,378.9883 1540,378.9883 1540,1492.4883 C1540,1553.3583 1494.12,1607.8383 1454.34,1643.6283 " fill="none" id="Person-Address" style="stroke:#181818;stroke-width:1.0;"/><polygon fill="#000000" points="1549.2719,926.1639,1551.6135,911.1282,1542.3286,912.6234,1549.2719,926.1639" style="stroke:#000000;stroke-width:1.0;"/><text fill="#000000" font-family="sans-serif" font-size="20" lengthAdjust="spacing" textLength="33" x="1561" y="925.8242">has</text><text fill="#000000" font-family="sans-serif" font-size="20" lengthAdjust="spacing" textLength="13" x="1220.0835" y="136.8583">1</text><text fill="#000000" font-family="sans-serif" font-size="20" lengthAdjust="spacing" textLength="10" x="1452.0274" y="1631.7517">*</text></g><!--link Property to Address--><g id="link_Property_Address"><path codeLine="147" d="M370.93,1510.2683 C598.45,1549.5583 1138.96,1642.9183 1329.28,1675.7883 " fill="none" id="Property-Address" style="stroke:#181818;stroke-width:1.0;"/><polygon fill="#000000" points="915.8833,1591.6272,902.4226,1584.5304,900.822,1593.7978,915.8833,1591.6272" style="stroke:#000000;stroke-width:1.0;"/><text fill="#000000" font-family="sans-serif" font-size="20" lengthAdjust="spacing" textLength="33" x="921" y="1597.8242">has</text><text fill="#000000" font-family="sans-serif" font-size="20" lengthAdjust="spacing" textLength="13" x="378.6243" y="1507.1279">1</text><text fill="#000000" font-family="sans-serif" font-size="20" lengthAdjust="spacing" textLength="13" x="1308.6261" y="1669.6745">1</text></g><!--link StoreManager to Agency--><g id="link_StoreManager_Agency"><path codeLine="148" d="M1287,765.7683 C1287,805.8683 1287,896.8783 1287,960.2383 " fill="none" id="StoreManager-Agency" style="stroke:#181818;stroke-width:1.0;"/><polygon fill="#000000" points="1295,871.2656,1299.7023,856.7935,1290.2977,856.7935,1295,871.2656" style="stroke:#000000;stroke-width:1.0;"/><text fill="#000000" font-family="sans-serif" font-size="20" lengthAdjust="spacing" textLength="86" x="1308" y="870.8242">manages</text><text fill="#000000" font-family="sans-serif" font-size="20" lengthAdjust="spacing" textLength="13" x="1272.5781" y="792.3842">1</text><text fill="#000000" font-family="sans-serif" font-size="20" lengthAdjust="spacing" textLength="13" x="1273.3297" y="948.3903">1</text></g><!--link Agency to Address--><g id="link_Agency_Address"><path codeLine="149" d="M1327.74,1096.9083 C1342.67,1127.6883 1356,1165.2883 1356,1201.4883 C1356,1201.4883 1356,1201.4883 1356,1492.4883 C1356,1545.2483 1370.55,1604.3483 1382.31,1643.5083 " fill="none" id="Agency-Address" style="stroke:#181818;stroke-width:1.0;"/><polygon fill="#000000" points="1364.7947,1337.7261,1368.0361,1322.8584,1358.678,1323.7926,1364.7947,1337.7261" style="stroke:#000000;stroke-width:1.0;"/><text fill="#000000" font-family="sans-serif" font-size="20" lengthAdjust="spacing" textLength="33" x="1377" y="1337.3242">has</text><text fill="#000000" font-family="sans-serif" font-size="20" lengthAdjust="spacing" textLength="13" x="1317.8965" y="1123.6479">1</text><text fill="#000000" font-family="sans-serif" font-size="20" lengthAdjust="spacing" textLength="13" x="1366.1977" y="1631.6141">1</text></g><!--link UnregisteredUser to Announcement--><g id="link_UnregisteredUser_Announcement"><path codeLine="150" d="M563.93,145.3483 C538.11,176.1283 487.56,236.4183 444.27,288.0383 " fill="none" id="UnregisteredUser-Announcement" style="stroke:#181818;stroke-width:1.0;"/><polygon fill="#000000" points="489.8595,252.3955,502.7618,244.328,495.5557,238.2849,489.8595,252.3955" style="stroke:#000000;stroke-width:1.0;"/><text fill="#000000" font-family="sans-serif" font-size="20" lengthAdjust="spacing" textLength="52" x="508" y="253.8242">views</text><text fill="#000000" font-family="sans-serif" font-size="20" lengthAdjust="spacing" textLength="13" x="545.7741" y="171.9817">1</text><text fill="#000000" font-family="sans-serif" font-size="20" lengthAdjust="spacing" textLength="10" x="439.9493" y="276.1573">*</text></g><!--link Client to Order--><g id="link_Client_Order"><path codeLine="151" d="M912.12,401.3083 C884.38,420.9283 840.13,450.6583 799,471.4883 C765.87,488.2683 742.03,470.8683 721,501.4883 C695.37,538.8083 703.92,593.6083 713.3,628.0183 " fill="none" id="Client-Order" style="stroke:#181818;stroke-width:1.0;"/><polygon fill="#000000" points="723.7252,520.2803,736.8027,512.5001,729.732,506.2992,723.7252,520.2803" style="stroke:#000000;stroke-width:1.0;"/><text fill="#000000" font-family="sans-serif" font-size="20" lengthAdjust="spacing" textLength="63" x="742" y="521.8242">makes</text><text fill="#000000" font-family="sans-serif" font-size="20" lengthAdjust="spacing" textLength="13" x="891.5994" y="427.933">1</text><text fill="#000000" font-family="sans-serif" font-size="20" lengthAdjust="spacing" textLength="10" x="700.4053" y="616.1961">*</text></g><!--link Order to Agent--><g id="link_Order_Agent"><path codeLine="152" d="M725.25,693.7283 C725.3,726.9783 721.77,779.8983 702,820.4883 C693.88,837.1583 681.63,834.0783 673,850.4883 C612.82,964.9483 603.56,1125.1283 602.21,1181.1683 " fill="none" id="Order-Agent" style="stroke:#181818;stroke-width:1.0;"/><polygon fill="#000000" points="679.042,871.0223,687.1433,858.1412,678.0247,855.8395,679.042,871.0223" style="stroke:#000000;stroke-width:1.0;"/><text fill="#000000" font-family="sans-serif" font-size="20" lengthAdjust="spacing" textLength="121" x="694" y="870.8242">requested to</text><text fill="#000000" font-family="sans-serif" font-size="20" lengthAdjust="spacing" textLength="10" x="714.582" y="720.9841">*</text><text fill="#000000" font-family="sans-serif" font-size="20" lengthAdjust="spacing" textLength="13" x="603.9294" y="1169.2222">1</text></g><!--link Street to City--><g id="link_Street_City"><path codeLine="153" d="M1631,1049.5683 C1631,1103.9083 1631,1253.4083 1631,1308.0983 " fill="none" id="Street-City" style="stroke:#181818;stroke-width:1.0;"/><polygon fill="#000000" points="1639,1210.7656,1643.7023,1196.2935,1634.2977,1196.2935,1639,1210.7656" style="stroke:#000000;stroke-width:1.0;"/><text fill="#000000" font-family="sans-serif" font-size="20" lengthAdjust="spacing" textLength="64" x="1652" y="1210.3242">part of</text><text fill="#000000" font-family="sans-serif" font-size="20" lengthAdjust="spacing" textLength="10" x="1619.8438" y="1076.554">*</text><text fill="#000000" font-family="sans-serif" font-size="20" lengthAdjust="spacing" textLength="13" x="1616.3344" y="1296.1343">1</text></g><!--link Person to UserAccount--><g id="link_Person_UserAccount"><path codeLine="154" d="M991.64,195.0683 C921.11,239.8583 831.83,296.5483 771.16,335.0683 " fill="none" id="Person-UserAccount" style="stroke:#181818;stroke-width:1.0;"/><polygon fill="#000000" points="926.2465,250.554,940.9843,246.7659,935.9431,238.8267,926.2465,250.554" style="stroke:#000000;stroke-width:1.0;"/><text fill="#000000" font-family="sans-serif" font-size="20" lengthAdjust="spacing" textLength="33" x="946" y="253.8242">has</text><text fill="#000000" font-family="sans-serif" font-size="20" lengthAdjust="spacing" textLength="13" x="971.1537" y="195.2283">1</text><text fill="#000000" font-family="sans-serif" font-size="20" lengthAdjust="spacing" textLength="13" x="767.3632" y="323.1829">1</text></g><!--SRC=[XLPRRziW57xthq1zgJIfLRV7Q9gK9QrMgPTesVQEuIH6CU02NffM_UyxWB5nd7PvIE3mSRvp9tOdL4CDbRLcE-24muQsjRlHogt52v0lLuLD42ArqgmoMW9nfeNifA5iHxUmTeSQY07cgDhMES1MbEkzK5koeRNDJrXDhPqxPqJPEhXbMWNYg-9ymDH2WJiqGBHnbIugmO4mOHXIXBK457DR54uuD62f9HMAt6iETL440hAe1IX7uDc1ufQim5YjNektTFwuLs2EZabsVYsRMXy0tjSmt-O42PzJ60xcjI3uqNuvbxfLRZZ_RL76c1UI26jGl4Tis1XTmn8iCw9nGglXNhB4WnIL41Q08QXx9Gq6Ra4DVsXb2IQ87NtETr13Ksa5dMpa5Jj4vRVB4nnppWrO6wbEQLWPtO1ndGvgW8O55nQhXC4DrjC28zSPqXZ18BjSQQVpF7HqKHdNscHEl8XcWJdtu9HruNdxoqlaHFqk4wqTTJ3Q6u0SCCSIT39FxK-mM7GXAZtgXsujd49ukqfgmMi86w4gMWf7onhkz2RARAkkdnjjMpFAyA2-LpYKtoYgAWJXSVCTkD5Qsh6GkcegNL63_RLTO-k2pQZcIc45ic1mLuLjMGjR0LzYgCQIxuVearqbIQmcGvMbp3ln2ziszodcEDf-B6TQIc4jRl_GkervJ6RTKSLFE3_qvrChci5cIDi7NwnlWvxrmJgGSow5yiL0dJOVzUmQp-6UAXnk_ySzWCDktNq8xvjT6TYY1M20-yOFX-SfsqyjMFJa76N7G7Bs-OnSN8IVV6BCIC9PWYrJ0lDp-biHnr9sAK_mh4-bHUWf9zB5JsUZMCo830lRCM1bPiZ0EICL3LfFH3p3fkZC2CFHu8B6gT5nF2C67oOiB7ofoWC2epZJbYfZHlHUsLE8iVkIxg8FcJJ0Kh2Y9oPc16anjCTehpjy3-JHysvMvNw4SKCIm8-dd2tD9mJugKFq1a6zC0B7UWPO8X_OBYylVKJy14s4mnp9Cv1wfRTxujwnVudsQz6zb7c0ezT9sTIk2MJKP14sH9yTFgYrgQvtssMI-hy2zY49yPz1XWiFDHcA8-wFgu9CoYA-7QCyXGoFqZIErxY9anF_0000]--></g></svg>