<?xml version="1.0" encoding="UTF-8" standalone="no"?><svg xmlns="http://www.w3.org/2000/svg" xmlns:xlink="http://www.w3.org/1999/xlink" contentStyleType="text/css" height="2113px" preserveAspectRatio="none" style="width:2097px;height:2113px;background:#FFFFFF;" version="1.1" viewBox="0 0 2097 2113" width="2097px" zoomAndPan="magnify"><defs/><g><text fill="#000000" font-family="sans-serif" font-size="14" font-weight="bold" lengthAdjust="spacing" textLength="105" x="989" y="23.5352">Domain Model</text><!--class Client--><g id="elem_Client"><rect codeLine="11" fill="#F1F1F1" height="41.5547" id="Client" rx="2.5" ry="2.5" style="stroke:#181818;stroke-width:0.5;" width="62" x="860.5" y="810.4883"/><text fill="#000000" font-family="sans-serif" font-size="20" lengthAdjust="spacing" textLength="56" x="863.5" y="834.8242">Client</text><line style="stroke:#181818;stroke-width:0.5;" x1="861.5" x2="921.5" y1="844.043" y2="844.043"/></g><!--class Person--><g id="elem_Person"><rect codeLine="38" fill="#F1F1F1" height="159.3281" id="Person" rx="2.5" ry="2.5" style="stroke:#181818;stroke-width:0.5;" width="220" x="781.5" y="44.4883"/><text fill="#000000" font-family="sans-serif" font-size="20" lengthAdjust="spacing" textLength="64" x="859.5" y="68.8242">Person</text><line style="stroke:#181818;stroke-width:0.5;" x1="782.5" x2="1000.5" y1="78.043" y2="78.043"/><text fill="#000000" font-family="sans-serif" font-size="20" lengthAdjust="spacing" textLength="53" x="787.5" y="101.3789">name</text><text fill="#000000" font-family="sans-serif" font-size="20" lengthAdjust="spacing" textLength="53" x="787.5" y="124.9336">email</text><text fill="#000000" font-family="sans-serif" font-size="20" lengthAdjust="spacing" textLength="208" x="787.5" y="148.4883">passportCardNumber</text><text fill="#000000" font-family="sans-serif" font-size="20" lengthAdjust="spacing" textLength="108" x="787.5" y="172.043">taxNumber</text><text fill="#000000" font-family="sans-serif" font-size="20" lengthAdjust="spacing" textLength="173" x="787.5" y="195.5977">telephoneNumber</text></g><!--class Owner--><g id="elem_Owner"><rect codeLine="14" fill="#F1F1F1" height="41.5547" id="Owner" rx="2.5" ry="2.5" style="stroke:#181818;stroke-width:0.5;" width="68" x="1401.5" y="1402.9883"/><text fill="#000000" font-family="sans-serif" font-size="20" lengthAdjust="spacing" textLength="62" x="1404.5" y="1427.3242">Owner</text><line style="stroke:#181818;stroke-width:0.5;" x1="1402.5" x2="1468.5" y1="1436.543" y2="1436.543"/></g><!--class Employee--><g id="elem_Employee"><rect codeLine="17" fill="#F1F1F1" height="41.5547" id="Employee" rx="2.5" ry="2.5" style="stroke:#181818;stroke-width:0.5;" width="99" x="491" y="358.9883"/><text fill="#000000" font-family="sans-serif" font-size="20" lengthAdjust="spacing" textLength="93" x="494" y="383.3242">Employee</text><line style="stroke:#181818;stroke-width:0.5;" x1="492" x2="589" y1="392.543" y2="392.543"/></g><!--class Agent--><g id="elem_Agent"><rect codeLine="20" fill="#F1F1F1" height="41.5547" id="Agent" rx="2.5" ry="2.5" style="stroke:#181818;stroke-width:0.5;" width="62" x="923.5" y="1205.4883"/><text fill="#000000" font-family="sans-serif" font-size="20" lengthAdjust="spacing" textLength="56" x="926.5" y="1229.8242">Agent</text><line style="stroke:#181818;stroke-width:0.5;" x1="924.5" x2="984.5" y1="1239.043" y2="1239.043"/></g><!--class Order--><g id="elem_Order"><rect codeLine="23" fill="#F1F1F1" height="182.8828" id="Order" rx="2.5" ry="2.5" style="stroke:#181818;stroke-width:0.5;" width="172" x="840.5" y="937.4883"/><text fill="#000000" font-family="sans-serif" font-size="20" lengthAdjust="spacing" textLength="56" x="898.5" y="961.8242">Order</text><line style="stroke:#181818;stroke-width:0.5;" x1="841.5" x2="1011.5" y1="971.043" y2="971.043"/><text fill="#000000" font-family="sans-serif" font-size="20" lengthAdjust="spacing" textLength="19" x="846.5" y="994.3789">id</text><text fill="#000000" font-family="sans-serif" font-size="20" lengthAdjust="spacing" textLength="160" x="846.5" y="1017.9336">announcementId</text><text fill="#000000" font-family="sans-serif" font-size="20" lengthAdjust="spacing" textLength="128" x="846.5" y="1041.4883">orderAmount</text><text fill="#000000" font-family="sans-serif" font-size="20" lengthAdjust="spacing" textLength="105" x="846.5" y="1065.043">clientEmail</text><text fill="#000000" font-family="sans-serif" font-size="20" lengthAdjust="spacing" textLength="42" x="846.5" y="1088.5977">date</text><text fill="#000000" font-family="sans-serif" font-size="20" lengthAdjust="spacing" textLength="99" x="846.5" y="1112.1523">orderState</text></g><!--class UserAccount--><g id="elem_UserAccount"><rect codeLine="32" fill="#F1F1F1" height="112.2188" id="UserAccount" rx="2.5" ry="2.5" style="stroke:#181818;stroke-width:0.5;" width="159" x="1263" y="323.9883"/><text fill="#000000" font-family="sans-serif" font-size="20" lengthAdjust="spacing" textLength="120" x="1282.5" y="348.3242">UserAccount</text><line style="stroke:#181818;stroke-width:0.5;" x1="1264" x2="1421" y1="357.543" y2="357.543"/><text fill="#000000" font-family="sans-serif" font-size="20" lengthAdjust="spacing" textLength="53" x="1269" y="380.8789">email</text><text fill="#000000" font-family="sans-serif" font-size="20" lengthAdjust="spacing" textLength="92" x="1269" y="404.4336">password</text><text fill="#000000" font-family="sans-serif" font-size="20" lengthAdjust="spacing" textLength="147" x="1269" y="427.9883">roleDescription</text></g><!--class Agency--><g id="elem_Agency"><rect codeLine="46" fill="#F1F1F1" height="135.7734" id="Agency" rx="2.5" ry="2.5" style="stroke:#181818;stroke-width:0.5;" width="150" x="491.5" y="960.9883"/><text fill="#000000" font-family="sans-serif" font-size="20" lengthAdjust="spacing" textLength="69" x="532" y="985.3242">Agency</text><line style="stroke:#181818;stroke-width:0.5;" x1="492.5" x2="640.5" y1="994.543" y2="994.543"/><text fill="#000000" font-family="sans-serif" font-size="20" lengthAdjust="spacing" textLength="21" x="497.5" y="1017.8789">ID</text><text fill="#000000" font-family="sans-serif" font-size="20" lengthAdjust="spacing" textLength="53" x="497.5" y="1041.4336">name</text><text fill="#000000" font-family="sans-serif" font-size="20" lengthAdjust="spacing" textLength="53" x="497.5" y="1064.9883">email</text><text fill="#000000" font-family="sans-serif" font-size="20" lengthAdjust="spacing" textLength="138" x="497.5" y="1088.543">phoneNumber</text></g><!--class Property--><g id="elem_Property"><rect codeLine="53" fill="#F1F1F1" height="112.2188" id="Property" rx="2.5" ry="2.5" style="stroke:#181818;stroke-width:0.5;" width="205" x="1464" y="1600.4883"/><text fill="#000000" font-family="sans-serif" font-size="20" lengthAdjust="spacing" textLength="80" x="1526.5" y="1624.8242">Property</text><line style="stroke:#181818;stroke-width:0.5;" x1="1465" x2="1668" y1="1634.043" y2="1634.043"/><text fill="#000000" font-family="sans-serif" font-size="20" lengthAdjust="spacing" textLength="41" x="1470" y="1657.3789">area</text><text fill="#000000" font-family="sans-serif" font-size="20" lengthAdjust="spacing" textLength="193" x="1470" y="1680.9336">distanceFromCenter</text><text fill="#000000" font-family="sans-serif" font-size="20" lengthAdjust="spacing" textLength="48" x="1470" y="1704.4883">price</text></g><!--class Photo--><g id="elem_Photo"><rect codeLine="59" fill="#F1F1F1" height="41.5547" id="Photo" rx="2.5" ry="2.5" style="stroke:#181818;stroke-width:0.5;" width="60" x="1536.5" y="1832.4883"/><text fill="#000000" font-family="sans-serif" font-size="20" lengthAdjust="spacing" textLength="54" x="1539.5" y="1856.8242">Photo</text><line style="stroke:#181818;stroke-width:0.5;" x1="1537.5" x2="1595.5" y1="1866.043" y2="1866.043"/></g><!--class Address--><g id="elem_Address"><rect codeLine="62" fill="#F1F1F1" height="88.6641" id="Address" rx="2.5" ry="2.5" style="stroke:#181818;stroke-width:0.5;" width="135" x="377" y="1808.9883"/><text fill="#000000" font-family="sans-serif" font-size="20" lengthAdjust="spacing" textLength="79" x="405" y="1833.3242">Address</text><line style="stroke:#181818;stroke-width:0.5;" x1="378" x2="511" y1="1842.543" y2="1842.543"/><text fill="#000000" font-family="sans-serif" font-size="20" lengthAdjust="spacing" textLength="123" x="383" y="1865.8789">doorNumber</text><text fill="#000000" font-family="sans-serif" font-size="20" lengthAdjust="spacing" textLength="80" x="383" y="1889.4336">zipCode</text></g><!--class City--><g id="elem_City"><rect codeLine="68" fill="#F1F1F1" height="41.5547" id="City" rx="2.5" ry="2.5" style="stroke:#181818;stroke-width:0.5;" width="43" x="24" y="1402.9883"/><text fill="#000000" font-family="sans-serif" font-size="20" lengthAdjust="spacing" textLength="37" x="27" y="1427.3242">City</text><line style="stroke:#181818;stroke-width:0.5;" x1="25" x2="66" y1="1436.543" y2="1436.543"/></g><!--class District--><g id="elem_District"><rect codeLine="71" fill="#F1F1F1" height="41.5547" id="District" rx="2.5" ry="2.5" style="stroke:#181818;stroke-width:0.5;" width="75" x="36" y="1635.4883"/><text fill="#000000" font-family="sans-serif" font-size="20" lengthAdjust="spacing" textLength="69" x="39" y="1659.8242">District</text><line style="stroke:#181818;stroke-width:0.5;" x1="37" x2="110" y1="1669.043" y2="1669.043"/></g><!--class State--><g id="elem_State"><rect codeLine="74" fill="#F1F1F1" height="41.5547" id="State" rx="2.5" ry="2.5" style="stroke:#181818;stroke-width:0.5;" width="53" x="137" y="2029.4883"/><text fill="#000000" font-family="sans-serif" font-size="20" lengthAdjust="spacing" textLength="47" x="140" y="2053.8242">State</text><line style="stroke:#181818;stroke-width:0.5;" x1="138" x2="189" y1="2063.043" y2="2063.043"/></g><!--class Street--><g id="elem_Street"><rect codeLine="77" fill="#F1F1F1" height="41.5547" id="Street" rx="2.5" ry="2.5" style="stroke:#181818;stroke-width:0.5;" width="61" x="7" y="1007.9883"/><text fill="#000000" font-family="sans-serif" font-size="20" lengthAdjust="spacing" textLength="55" x="10" y="1032.3242">Street</text><line style="stroke:#181818;stroke-width:0.5;" x1="8" x2="67" y1="1041.543" y2="1041.543"/></g><!--class Apartment--><g id="elem_Apartment"><rect codeLine="80" fill="#F1F1F1" height="41.5547" id="Apartment" rx="2.5" ry="2.5" style="stroke:#181818;stroke-width:0.5;" width="108" x="1701.5" y="2029.4883"/><text fill="#000000" font-family="sans-serif" font-size="20" lengthAdjust="spacing" textLength="102" x="1704.5" y="2053.8242">Apartment</text><line style="stroke:#181818;stroke-width:0.5;" x1="1702.5" x2="1808.5" y1="2063.043" y2="2063.043"/></g><!--class Residency--><g id="elem_Residency"><rect codeLine="90" fill="#F1F1F1" height="112.2188" id="Residency" rx="2.5" ry="2.5" style="stroke:#181818;stroke-width:0.5;" width="248" x="1631.5" y="1797.4883"/><text fill="#000000" font-family="sans-serif" font-size="20" lengthAdjust="spacing" textLength="96" x="1707.5" y="1821.8242">Residency</text><line style="stroke:#181818;stroke-width:0.5;" x1="1632.5" x2="1878.5" y1="1831.043" y2="1831.043"/><text fill="#000000" font-family="sans-serif" font-size="20" lengthAdjust="spacing" textLength="195" x="1637.5" y="1854.3789">numberOfBedrooms</text><text fill="#000000" font-family="sans-serif" font-size="20" lengthAdjust="spacing" textLength="201" x="1637.5" y="1877.9336">numberOfBathrooms</text><text fill="#000000" font-family="sans-serif" font-size="20" lengthAdjust="spacing" textLength="236" x="1637.5" y="1901.4883">numberOfParkingSpaces</text></g><!--class House--><g id="elem_House"><rect codeLine="83" fill="#F1F1F1" height="112.2188" id="House" rx="2.5" ry="2.5" style="stroke:#181818;stroke-width:0.5;" width="245" x="1845" y="1994.4883"/><text fill="#000000" font-family="sans-serif" font-size="20" lengthAdjust="spacing" textLength="60" x="1937.5" y="2018.8242">House</text><line style="stroke:#181818;stroke-width:0.5;" x1="1846" x2="2089" y1="2028.043" y2="2028.043"/><text fill="#000000" font-family="sans-serif" font-size="20" lengthAdjust="spacing" textLength="94" x="1851" y="2051.3789">basement</text><text fill="#000000" font-family="sans-serif" font-size="20" lengthAdjust="spacing" textLength="145" x="1851" y="2074.9336">inhabitableLoft</text><text fill="#000000" font-family="sans-serif" font-size="20" lengthAdjust="spacing" textLength="233" x="1851" y="2098.4883">sunExposureDescription</text></g><!--class Announcement--><g id="elem_Announcement"><rect codeLine="97" fill="#F1F1F1" height="182.8828" id="Announcement" rx="2.5" ry="2.5" style="stroke:#181818;stroke-width:0.5;" width="275" x="1457" y="288.4883"/><text fill="#000000" font-family="sans-serif" font-size="20" lengthAdjust="spacing" textLength="144" x="1522.5" y="312.8242">Announcement</text><line style="stroke:#181818;stroke-width:0.5;" x1="1458" x2="1731" y1="322.043" y2="322.043"/><text fill="#000000" font-family="sans-serif" font-size="20" lengthAdjust="spacing" textLength="140" x="1463" y="345.3789">publishedDate</text><text fill="#000000" font-family="sans-serif" font-size="20" lengthAdjust="spacing" textLength="118" x="1463" y="368.9336">publishedBy</text><text fill="#000000" font-family="sans-serif" font-size="20" lengthAdjust="spacing" textLength="110" x="1463" y="392.4883">isPublished</text><text fill="#000000" font-family="sans-serif" font-size="20" lengthAdjust="spacing" textLength="263" x="1463" y="416.043">transactionTypeDescription</text><text fill="#000000" font-family="sans-serif" font-size="20" lengthAdjust="spacing" textLength="192" x="1463" y="439.5977">propertyDescription</text><text fill="#000000" font-family="sans-serif" font-size="20" lengthAdjust="spacing" textLength="169" x="1463" y="463.1523">commissionValue</text></g><!--class Land--><g id="elem_Land"><rect codeLine="109" fill="#F1F1F1" height="41.5547" id="Land" rx="2.5" ry="2.5" style="stroke:#181818;stroke-width:0.5;" width="53" x="1448" y="1832.4883"/><text fill="#000000" font-family="sans-serif" font-size="20" lengthAdjust="spacing" textLength="47" x="1451" y="1856.8242">Land</text><line style="stroke:#181818;stroke-width:0.5;" x1="1449" x2="1500" y1="1866.043" y2="1866.043"/></g><!--class Equipment--><g id="elem_Equipment"><rect codeLine="112" fill="#F1F1F1" height="65.1094" id="Equipment" rx="2.5" ry="2.5" style="stroke:#181818;stroke-width:0.5;" width="172" x="1494.5" y="2017.9883"/><text fill="#000000" font-family="sans-serif" font-size="20" lengthAdjust="spacing" textLength="104" x="1528.5" y="2042.3242">Equipment</text><line style="stroke:#181818;stroke-width:0.5;" x1="1495.5" x2="1665.5" y1="2051.543" y2="2051.543"/><text fill="#000000" font-family="sans-serif" font-size="20" lengthAdjust="spacing" textLength="160" x="1500.5" y="2074.8789">equipmentName</text></g><!--class SystemAdministrator--><g id="elem_SystemAdministrator"><rect codeLine="118" fill="#F1F1F1" height="41.5547" id="SystemAdministrator" rx="2.5" ry="2.5" style="stroke:#181818;stroke-width:0.5;" width="207" x="230" y="556.4883"/><text fill="#000000" font-family="sans-serif" font-size="20" lengthAdjust="spacing" textLength="201" x="233" y="580.8242">SystemAdministrator</text><line style="stroke:#181818;stroke-width:0.5;" x1="231" x2="436" y1="590.043" y2="590.043"/></g><!--class StoreManager--><g id="elem_StoreManager"><rect codeLine="121" fill="#F1F1F1" height="41.5547" id="StoreManager" rx="2.5" ry="2.5" style="stroke:#181818;stroke-width:0.5;" width="137" x="498" y="683.4883"/><text fill="#000000" font-family="sans-serif" font-size="20" lengthAdjust="spacing" textLength="131" x="501" y="707.8242">StoreManager</text><line style="stroke:#181818;stroke-width:0.5;" x1="499" x2="634" y1="717.043" y2="717.043"/></g><!--class StoreNetworkManager--><g id="elem_StoreNetworkManager"><rect codeLine="124" fill="#F1F1F1" height="41.5547" id="StoreNetworkManager" rx="2.5" ry="2.5" style="stroke:#181818;stroke-width:0.5;" width="217" x="544" y="556.4883"/><text fill="#000000" font-family="sans-serif" font-size="20" lengthAdjust="spacing" textLength="211" x="547" y="580.8242">StoreNetworkManager</text><line style="stroke:#181818;stroke-width:0.5;" x1="545" x2="760" y1="590.043" y2="590.043"/></g><!--class UnregisteredUser--><g id="elem_UnregisteredUser"><rect codeLine="129" fill="#F1F1F1" height="41.5547" id="UnregisteredUser" rx="2.5" ry="2.5" style="stroke:#181818;stroke-width:0.5;" width="172" x="1393.5" y="102.9883"/><text fill="#000000" font-family="sans-serif" font-size="20" lengthAdjust="spacing" textLength="166" x="1396.5" y="127.3242">UnregisteredUser</text><line style="stroke:#181818;stroke-width:0.5;" x1="1394.5" x2="1564.5" y1="136.543" y2="136.543"/></g><!--class VisitSchedule--><g id="elem_VisitSchedule"><rect codeLine="132" fill="#F1F1F1" height="182.8828" id="VisitSchedule" rx="2.5" ry="2.5" style="stroke:#181818;stroke-width:0.5;" width="186" x="650.5" y="1332.4883"/><text fill="#000000" font-family="sans-serif" font-size="20" lengthAdjust="spacing" textLength="128" x="679.5" y="1356.8242">VisitSchedule</text><line style="stroke:#181818;stroke-width:0.5;" x1="651.5" x2="835.5" y1="1366.043" y2="1366.043"/><text fill="#000000" font-family="sans-serif" font-size="20" lengthAdjust="spacing" textLength="53" x="656.5" y="1389.3789">name</text><text fill="#000000" font-family="sans-serif" font-size="20" lengthAdjust="spacing" textLength="173" x="656.5" y="1412.9336">telephoneNumber</text><text fill="#000000" font-family="sans-serif" font-size="20" lengthAdjust="spacing" textLength="42" x="656.5" y="1436.4883">date</text><text fill="#000000" font-family="sans-serif" font-size="20" lengthAdjust="spacing" textLength="92" x="656.5" y="1460.043">startTime</text><text fill="#000000" font-family="sans-serif" font-size="20" lengthAdjust="spacing" textLength="85" x="656.5" y="1483.5977">endTime</text><text fill="#000000" font-family="sans-serif" font-size="20" lengthAdjust="spacing" textLength="174" x="656.5" y="1507.1523">aprovatedByAgent</text></g><!--class LegacySystem--><g id="elem_LegacySystem"><rect codeLine="141" fill="#F1F1F1" height="41.5547" id="LegacySystem" rx="2.5" ry="2.5" style="stroke:#181818;stroke-width:0.5;" width="139" x="230" y="683.4883"/><text fill="#000000" font-family="sans-serif" font-size="20" lengthAdjust="spacing" textLength="133" x="233" y="707.8242">LegacySystem</text><line style="stroke:#181818;stroke-width:0.5;" x1="231" x2="368" y1="717.043" y2="717.043"/></g><!--reverse link Person to Client--><g id="link_Person_Client"><path d="M891.5,225.3383 C891.5,272.0483 891.5,328.3583 891.5,378.9883 C891.5,378.9883 891.5,378.9883 891.5,705.4883 C891.5,742.3783 891.5,785.3983 891.5,810.1383 " fill="none" id="Person-backto-Client" style="stroke:#181818;stroke-width:1.0;"/><polygon fill="none" points="884.5,225.4483,891.5,205.4483,898.5,225.4483,884.5,225.4483" style="stroke:#181818;stroke-width:1.0;"/></g><!--reverse link Person to Owner--><g id="link_Person_Owner"><path d="M950.15,222.1383 C1021.83,343.7083 1143.67,559.7483 1225.5,755.4883 C1328.94,1002.9183 1410.14,1319.9583 1430.54,1402.5783 " fill="none" id="Person-backto-Owner" style="stroke:#181818;stroke-width:1.0;"/><polygon fill="none" points="944.24,225.8983,940.07,205.1183,956.29,218.7683,944.24,225.8983" style="stroke:#181818;stroke-width:1.0;"/></g><!--reverse link Person to Employee--><g id="link_Person_Employee"><path d="M765.05,216.4883 C693.99,267.9183 611.25,327.7883 568.81,358.4983 " fill="none" id="Person-backto-Employee" style="stroke:#181818;stroke-width:1.0;"/><polygon fill="none" points="760.83,210.9083,781.14,204.8483,769.04,222.2483,760.83,210.9083" style="stroke:#181818;stroke-width:1.0;"/></g><!--reverse link Employee to Agent--><g id="link_Employee_Agent"><path d="M609.68,410.1983 C666.62,438.4083 743.46,487.1083 778.5,556.4883 C902.79,802.5683 566.94,959.6883 738.5,1175.4883 C761.26,1204.1083 869.22,1217.7883 923.37,1222.9383 " fill="none" id="Employee-backto-Agent" style="stroke:#181818;stroke-width:1.0;"/><polygon fill="none" points="606.9,416.6283,591.84,401.7183,612.91,403.9783,606.9,416.6283" style="stroke:#181818;stroke-width:1.0;"/></g><!--reverse link Residency to Apartment--><g id="link_Residency_Apartment"><path d="M1755.5,1931.2483 C1755.5,1966.7083 1755.5,2006.0083 1755.5,2029.1883 " fill="none" id="Residency-backto-Apartment" style="stroke:#181818;stroke-width:1.0;"/><polygon fill="none" points="1748.5,1931.3583,1755.5,1911.3583,1762.5,1931.3583,1748.5,1931.3583" style="stroke:#181818;stroke-width:1.0;"/></g><!--reverse link Residency to House--><g id="link_Residency_House"><path d="M1831.24,1924.1583 C1856.17,1947.0883 1883.54,1972.2583 1907.17,1993.9883 " fill="none" id="Residency-backto-House" style="stroke:#181818;stroke-width:1.0;"/><polygon fill="none" points="1826.78,1929.5583,1816.8,1910.8683,1836.26,1919.2583,1826.78,1929.5583" style="stroke:#181818;stroke-width:1.0;"/></g><!--reverse link Property to Residency--><g id="link_Property_Residency"><path d="M1634.97,1728.1383 C1656.94,1750.7983 1680.95,1775.5683 1701.71,1796.9883 " fill="none" id="Property-backto-Residency" style="stroke:#181818;stroke-width:1.0;"/><polygon fill="none" points="1630.1,1733.1683,1621.21,1713.9283,1640.15,1723.4183,1630.1,1733.1683" style="stroke:#181818;stroke-width:1.0;"/></g><!--reverse link Property to Land--><g id="link_Property_Land"><path d="M1531.23,1732.2483 C1514.26,1768.2283 1495.22,1808.5783 1484.08,1832.1883 " fill="none" id="Property-backto-Land" style="stroke:#181818;stroke-width:1.0;"/><polygon fill="none" points="1524.87,1729.3183,1539.74,1714.2183,1537.53,1735.2883,1524.87,1729.3183" style="stroke:#181818;stroke-width:1.0;"/></g><!--reverse link Employee to SystemAdministrator--><g id="link_Employee_SystemAdministrator"><path d="M517.12,419.0283 C496.27,450.6783 463.4,495.4283 426.5,526.4883 C412.76,538.0583 395.91,548.0983 380.34,556.0783 " fill="none" id="Employee-backto-SystemAdministrator" style="stroke:#181818;stroke-width:1.0;"/><polygon fill="none" points="510.99,415.6083,527.66,402.5283,522.79,423.1483,510.99,415.6083" style="stroke:#181818;stroke-width:1.0;"/></g><!--link SystemAdministrator to Employee--><g id="link_SystemAdministrator_Employee"><path codeLine="151" d="M326.31,556.2983 C321.93,540.3383 318.85,518.0683 328.5,501.4883 C363.2,441.8383 439.66,409.2983 490.63,393.5283 " fill="none" id="SystemAdministrator-Employee" style="stroke:#181818;stroke-width:1.0;"/><polygon fill="#000000" points="342.1836,508.6356,328.5927,515.4796,335.2111,522.1611,342.1836,508.6356" style="stroke:#000000;stroke-width:1.0;"/><text fill="#000000" font-family="sans-serif" font-size="20" lengthAdjust="spacing" textLength="68" x="349.5" y="521.8242">creates</text><text fill="#000000" font-family="sans-serif" font-size="20" lengthAdjust="spacing" textLength="13" x="309.8019" y="544.3855">1</text><text fill="#000000" font-family="sans-serif" font-size="20" lengthAdjust="spacing" textLength="10" x="472.9139" y="390.2214">*</text></g><!--reverse link Employee to StoreManager--><g id="link_Employee_StoreManager"><path d="M531.85,422.3983 C524.04,466.4183 515.35,537.9083 526.5,598.4883 C532.15,629.1883 546.36,662.5283 556.23,683.2183 " fill="none" id="Employee-backto-StoreManager" style="stroke:#181818;stroke-width:1.0;"/><polygon fill="none" points="524.98,421.0783,535.62,402.7583,538.72,423.7183,524.98,421.0783" style="stroke:#181818;stroke-width:1.0;"/></g><!--reverse link Employee to StoreNetworkManager--><g id="link_Employee_StoreNetworkManager"><path d="M562.75,419.8183 C586.25,460.8483 622.4,523.9583 640.83,556.1183 " fill="none" id="Employee-backto-StoreNetworkManager" style="stroke:#181818;stroke-width:1.0;"/><polygon fill="none" points="556.68,423.3183,552.82,402.4883,568.83,416.3583,556.68,423.3183" style="stroke:#181818;stroke-width:1.0;"/></g><!--link UnregisteredUser to UserAccount--><g id="link_UnregisteredUser_UserAccount"><path codeLine="147" d="M1443.91,145.3383 C1414.71,164.1583 1375.08,194.9883 1355.5,233.4883 C1341.47,261.0683 1337.86,295.4083 1337.93,323.7983 " fill="none" id="UnregisteredUser-UserAccount" style="stroke:#181818;stroke-width:1.0;"/><polygon fill="#000000" points="1359.4151,253.1441,1370.8478,243.1018,1362.7616,238.2998,1359.4151,253.1441" style="stroke:#000000;stroke-width:1.0;"/><text fill="#000000" font-family="sans-serif" font-size="20" lengthAdjust="spacing" textLength="172" x="1376.5" y="253.8242">registers to create</text><text fill="#000000" font-family="sans-serif" font-size="20" lengthAdjust="spacing" textLength="13" x="1421.7028" y="171.9695">1</text><text fill="#000000" font-family="sans-serif" font-size="20" lengthAdjust="spacing" textLength="13" x="1323.5808" y="311.905">1</text></g><!--link Agent to Announcement--><g id="link_Agent_Announcement"><path codeLine="148" d="M985.85,1223.3883 C1074.14,1215.5983 1318.5,1180.4483 1318.5,1029.9883 C1318.5,576.4883 1318.5,576.4883 1318.5,576.4883 C1318.5,557.6983 1387.5,508.8183 1456.5,464.6483 " fill="none" id="Agent-Announcement" style="stroke:#181818;stroke-width:1.0;"/><polygon fill="#000000" points="1330.717,761.4673,1319.0924,771.2869,1327.0843,776.2443,1330.717,761.4673" style="stroke:#000000;stroke-width:1.0;"/><text fill="#000000" font-family="sans-serif" font-size="20" lengthAdjust="spacing" textLength="93" x="1339.5" y="775.8242">publishes</text><text fill="#000000" font-family="sans-serif" font-size="20" lengthAdjust="spacing" textLength="13" x="993.6566" y="1244.5598">1</text><text fill="#000000" font-family="sans-serif" font-size="20" lengthAdjust="spacing" textLength="13" x="1436.0492" y="488.9598">1</text></g><!--link Announcement to Agent--><g id="link_Announcement_Agent"><path codeLine="156" d="M1456.78,463.6283 C1451,466.3883 1445.22,469.0183 1439.5,471.4883 C1287.22,537.1083 1081.5,410.6783 1081.5,576.4883 C1081.5,576.4883 1081.5,576.4883 1081.5,1029.9883 C1081.5,1095.3883 1098.46,1122.9583 1059.5,1175.4883 C1041.82,1199.3283 1009.82,1212.2783 985.78,1218.9783 " fill="none" id="Announcement-Agent" style="stroke:#181818;stroke-width:1.0;"/><polygon fill="#000000" points="1085.2671,775.054,1096.9146,765.2617,1088.9344,760.2856,1085.2671,775.054" style="stroke:#000000;stroke-width:1.0;"/><text fill="#000000" font-family="sans-serif" font-size="20" lengthAdjust="spacing" textLength="121" x="1102.5" y="775.8242">requested to</text><text fill="#000000" font-family="sans-serif" font-size="20" lengthAdjust="spacing" textLength="10" x="1438.975" y="463.9277">*</text><text fill="#000000" font-family="sans-serif" font-size="20" lengthAdjust="spacing" textLength="13" x="993.5721" y="1211.4965">1</text></g><!--link StoreNetworkManager to StoreManager--><g id="link_StoreNetworkManager_StoreManager"><path codeLine="149" d="M638.49,598.8483 C622.5,622.0983 596.49,659.8983 580.5,683.1383 " fill="none" id="StoreNetworkManager-StoreManager" style="stroke:#181818;stroke-width:1.0;"/><polygon fill="#000000" points="620.9656,647.8565,633.0424,638.5988,625.2944,633.2683,620.9656,647.8565" style="stroke:#000000;stroke-width:1.0;"/><text fill="#000000" font-family="sans-serif" font-size="20" lengthAdjust="spacing" textLength="86" x="638.5" y="648.8242">manages</text><text fill="#000000" font-family="sans-serif" font-size="20" lengthAdjust="spacing" textLength="13" x="621.0034" y="625.4817">1</text><text fill="#000000" font-family="sans-serif" font-size="20" lengthAdjust="spacing" textLength="10" x="572.8063" y="671.1845">*</text></g><!--link Agency to Agent--><g id="link_Agency_Agent"><path codeLine="150" d="M583.21,1097.3883 C593.64,1125.7383 610.08,1156.4983 635.5,1175.4883 C680.69,1209.2483 851.97,1220.8283 923.17,1224.2383 " fill="none" id="Agency-Agent" style="stroke:#181818;stroke-width:1.0;"/><polygon fill="#000000" points="650.9952,1166.0623,639.0801,1156.5975,635.7924,1165.4086,650.9952,1166.0623" style="stroke:#000000;stroke-width:1.0;"/><text fill="#000000" font-family="sans-serif" font-size="20" lengthAdjust="spacing" textLength="33" x="656.5" y="1170.8242">has</text><text fill="#000000" font-family="sans-serif" font-size="20" lengthAdjust="spacing" textLength="13" x="571.1512" y="1124.126">1</text><text fill="#000000" font-family="sans-serif" font-size="20" lengthAdjust="spacing" textLength="10" x="905.6769" y="1245.5852">*</text></g><!--link Agent to Owner--><g id="link_Agent_Owner"><path codeLine="153" d="M985.66,1231.0783 C1030.89,1236.9783 1116.83,1250.8483 1185.5,1277.4883 C1271.41,1310.8183 1362.61,1371.1283 1407.38,1402.6083 " fill="none" id="Agent-Owner" style="stroke:#181818;stroke-width:1.0;"/><polygon fill="#000000" points="1251.9105,1293.2798,1240.2765,1283.4714,1236.7331,1292.1829,1251.9105,1293.2798" style="stroke:#000000;stroke-width:1.0;"/><text fill="#000000" font-family="sans-serif" font-size="20" lengthAdjust="spacing" textLength="122" x="1257.5" y="1297.8242">contacted by</text><text fill="#000000" font-family="sans-serif" font-size="20" lengthAdjust="spacing" textLength="13" x="993.0045" y="1264.101">1</text><text fill="#000000" font-family="sans-serif" font-size="20" lengthAdjust="spacing" textLength="13" x="1385.5086" y="1390.6468">1</text></g><!--link Owner to Property--><g id="link_Owner_Property"><path codeLine="154" d="M1442.07,1445.1383 C1451.93,1474.0283 1472.13,1528.3883 1497.5,1570.4883 C1503.58,1580.5783 1510.77,1590.7683 1518.16,1600.4183 " fill="none" id="Owner-Property" style="stroke:#181818;stroke-width:1.0;"/><polygon fill="#000000" points="1509.0202,1565.4495,1506.8747,1550.3846,1498.4295,1554.5229,1509.0202,1565.4495" style="stroke:#000000;stroke-width:1.0;"/><text fill="#000000" font-family="sans-serif" font-size="20" lengthAdjust="spacing" textLength="49" x="1518.5" y="1565.8242">owns</text><text fill="#000000" font-family="sans-serif" font-size="20" lengthAdjust="spacing" textLength="13" x="1429.0853" y="1471.7258">1</text><text fill="#000000" font-family="sans-serif" font-size="20" lengthAdjust="spacing" textLength="10" x="1501.3258" y="1588.1183">*</text></g><!--link Owner to Announcement--><g id="link_Owner_Announcement"><path codeLine="155" d="M1439.16,1402.5183 C1445.17,1367.0183 1456.5,1291.6683 1456.5,1227.4883 C1456.5,576.4883 1456.5,576.4883 1456.5,576.4883 C1456.5,538.2683 1474.32,502.2683 1497.16,471.8283 " fill="none" id="Owner-Announcement" style="stroke:#181818;stroke-width:1.0;"/><polygon fill="#000000" points="1464.9976,823.7811,1459.4043,837.9328,1468.7906,838.5177,1464.9976,823.7811" style="stroke:#000000;stroke-width:1.0;"/><text fill="#000000" font-family="sans-serif" font-size="20" lengthAdjust="spacing" textLength="63" x="1477.5" y="839.3242">makes</text><text fill="#000000" font-family="sans-serif" font-size="20" lengthAdjust="spacing" textLength="13" x="1425.4678" y="1390.9397">1</text><text fill="#000000" font-family="sans-serif" font-size="20" lengthAdjust="spacing" textLength="10" x="1479.6444" y="498.7779">*</text></g><!--link Announcement to Property--><g id="link_Announcement_Property"><path codeLine="157" d="M1594.5,471.5083 C1594.5,504.5483 1594.5,542.2083 1594.5,576.4883 C1594.5,576.4883 1594.5,576.4883 1594.5,1424.9883 C1594.5,1485.2583 1584.95,1553.7383 1577.01,1600.2883 " fill="none" id="Announcement-Property" style="stroke:#181818;stroke-width:1.0;"/><polygon fill="#000000" points="1602.3761,903.2647,1607.302,888.8671,1597.8986,888.7214,1602.3761,903.2647" style="stroke:#000000;stroke-width:1.0;"/><text fill="#000000" font-family="sans-serif" font-size="20" lengthAdjust="spacing" textLength="33" x="1615.5" y="902.8242">has</text><text fill="#000000" font-family="sans-serif" font-size="20" lengthAdjust="spacing" textLength="13" x="1581.0023" y="498.7574">1</text><text fill="#000000" font-family="sans-serif" font-size="20" lengthAdjust="spacing" textLength="13" x="1564.4987" y="1588.3938">1</text></g><!--link Announcement to Property--><g id="link_Announcement_Property"><path codeLine="163" d="M1659.18,471.6883 C1676,503.3283 1689.5,540.0683 1689.5,576.4883 C1689.5,576.4883 1689.5,576.4883 1689.5,1424.9883 C1689.5,1490.7583 1650.04,1555.9683 1615.82,1600.1583 " fill="none" id="Announcement-Property-1" style="stroke:#181818;stroke-width:1.0;"/><polygon fill="#000000" points="1697.8072,887.2715,1692.5527,901.5524,1701.9503,901.9135,1697.8072,887.2715" style="stroke:#000000;stroke-width:1.0;"/><text fill="#000000" font-family="sans-serif" font-size="20" lengthAdjust="spacing" textLength="64" x="1710.5" y="902.8242">part of</text><text fill="#000000" font-family="sans-serif" font-size="20" lengthAdjust="spacing" textLength="13" x="1650.4526" y="498.6276">1</text><text fill="#000000" font-family="sans-serif" font-size="20" lengthAdjust="spacing" textLength="13" x="1608.0387" y="1588.2479">1</text></g><!--link Address to State--><g id="link_Address_State"><path codeLine="158" d="M381.44,1898.2483 C321.41,1939.9083 233.94,2000.6083 190.32,2030.8783 " fill="none" id="Address-State" style="stroke:#181818;stroke-width:1.0;"/><polygon fill="#000000" points="322.9276,1956.8267,337.4981,1952.4389,332.1363,1944.7125,322.9276,1956.8267" style="stroke:#000000;stroke-width:1.0;"/><text fill="#000000" font-family="sans-serif" font-size="20" lengthAdjust="spacing" textLength="33" x="342.5" y="1959.8242">has</text><text fill="#000000" font-family="sans-serif" font-size="20" lengthAdjust="spacing" textLength="13" x="359.5276" y="1924.8496">1</text><text fill="#000000" font-family="sans-serif" font-size="20" lengthAdjust="spacing" textLength="13" x="198.0253" y="2020.1357">1</text></g><!--link City to District--><g id="link_City_District"><path codeLine="159" d="M47.98,1445.4483 C53.3,1489.1883 65.71,1591.3783 71.02,1635.0783 " fill="none" id="City-District" style="stroke:#181818;stroke-width:1.0;"/><polygon fill="#000000" points="72.4649,1566.2072,75.3873,1551.2736,66.0514,1552.4079,72.4649,1566.2072" style="stroke:#000000;stroke-width:1.0;"/><text fill="#000000" font-family="sans-serif" font-size="20" lengthAdjust="spacing" textLength="64" x="84.5" y="1565.8242">part of</text><text fill="#000000" font-family="sans-serif" font-size="20" lengthAdjust="spacing" textLength="10" x="37.4603" y="1471.6853">*</text><text fill="#000000" font-family="sans-serif" font-size="20" lengthAdjust="spacing" textLength="13" x="55.7189" y="1623.1092">1</text></g><!--link District to State--><g id="link_District_State"><path codeLine="160" d="M78.15,1677.7383 C93.63,1745.1483 143.31,1961.5383 158.82,2029.1283 " fill="none" id="District-State" style="stroke:#181818;stroke-width:1.0;"/><polygon fill="#000000" points="140.29,1861.5628,141.6349,1846.4054,132.4688,1848.5097,140.29,1861.5628" style="stroke:#000000;stroke-width:1.0;"/><text fill="#000000" font-family="sans-serif" font-size="20" lengthAdjust="spacing" textLength="64" x="151.5" y="1861.3242">part of</text><text fill="#000000" font-family="sans-serif" font-size="20" lengthAdjust="spacing" textLength="10" x="68.0734" y="1704.3477">*</text><text fill="#000000" font-family="sans-serif" font-size="20" lengthAdjust="spacing" textLength="13" x="142.9551" y="2017.172">1</text></g><!--link Property to Photo--><g id="link_Property_Photo"><path codeLine="161" d="M1566.5,1712.8483 C1566.5,1752.7083 1566.5,1804.1983 1566.5,1832.1883 " fill="none" id="Property-Photo" style="stroke:#181818;stroke-width:1.0;"/><polygon fill="#000000" points="1574.5,1763.2656,1579.2023,1748.7935,1569.7977,1748.7935,1574.5,1763.2656" style="stroke:#000000;stroke-width:1.0;"/><text fill="#000000" font-family="sans-serif" font-size="20" lengthAdjust="spacing" textLength="33" x="1587.5" y="1762.8242">has</text><text fill="#000000" font-family="sans-serif" font-size="20" lengthAdjust="spacing" textLength="13" x="1552.7484" y="1740.05">1</text><text fill="#000000" font-family="sans-serif" font-size="20" lengthAdjust="spacing" textLength="41" x="1520.2469" y="1820.2473">1...*</text></g><!--link Residency to Equipment--><g id="link_Residency_Equipment"><path codeLine="162" d="M1705.82,1909.8483 C1674.49,1944.7483 1635.16,1988.5783 1609,2017.7283 " fill="none" id="Residency-Equipment" style="stroke:#181818;stroke-width:1.0;"/><polygon fill="#000000" points="1681.1566,1958.2194,1694.3225,1950.5897,1687.3234,1944.3081,1681.1566,1958.2194" style="stroke:#000000;stroke-width:1.0;"/><text fill="#000000" font-family="sans-serif" font-size="20" lengthAdjust="spacing" textLength="33" x="1699.5" y="1959.8242">has</text><text fill="#000000" font-family="sans-serif" font-size="20" lengthAdjust="spacing" textLength="13" x="1686.3242" y="1937.05">1</text><text fill="#000000" font-family="sans-serif" font-size="20" lengthAdjust="spacing" textLength="10" x="1603.4797" y="2005.6696">*</text></g><!--link Person to Address--><g id="link_Person_Address"><path codeLine="164" d="M781.35,140.7183 C580.78,172.4683 176.5,252.1983 176.5,378.9883 C176.5,378.9883 176.5,378.9883 176.5,1657.4883 C176.5,1756.3183 297.13,1810.3083 376.53,1835.1383 " fill="none" id="Person-Address" style="stroke:#181818;stroke-width:1.0;"/><polygon fill="#000000" points="182.641,903.0466,190.5775,890.0633,181.4304,887.878,182.641,903.0466" style="stroke:#000000;stroke-width:1.0;"/><text fill="#000000" font-family="sans-serif" font-size="20" lengthAdjust="spacing" textLength="33" x="197.5" y="902.8242">has</text><text fill="#000000" font-family="sans-serif" font-size="20" lengthAdjust="spacing" textLength="13" x="760.5126" y="137.4132">1</text><text fill="#000000" font-family="sans-serif" font-size="20" lengthAdjust="spacing" textLength="10" x="359.005" y="1828.4419">*</text></g><!--link Property to Address--><g id="link_Property_Address"><path codeLine="165" d="M1463.96,1675.3083 C1237.96,1714.5883 702.08,1807.7183 512.44,1840.6783 " fill="none" id="Property-Address" style="stroke:#181818;stroke-width:1.0;"/><polygon fill="#000000" points="1073.6181,1756.6355,1088.6817,1758.7902,1087.0714,1749.5246,1073.6181,1756.6355" style="stroke:#000000;stroke-width:1.0;"/><text fill="#000000" font-family="sans-serif" font-size="20" lengthAdjust="spacing" textLength="33" x="1094.5" y="1762.8242">has</text><text fill="#000000" font-family="sans-serif" font-size="20" lengthAdjust="spacing" textLength="13" x="1442.9524" y="1672.1941">1</text><text fill="#000000" font-family="sans-serif" font-size="20" lengthAdjust="spacing" textLength="13" x="520.1166" y="1834.5532">1</text></g><!--link StoreManager to Agency--><g id="link_StoreManager_Agency"><path codeLine="166" d="M566.5,725.6583 C566.5,771.7883 566.5,886.6883 566.5,960.8083 " fill="none" id="StoreManager-Agency" style="stroke:#181818;stroke-width:1.0;"/><polygon fill="#000000" points="574.5,839.7656,579.2023,825.2935,569.7977,825.2935,574.5,839.7656" style="stroke:#000000;stroke-width:1.0;"/><text fill="#000000" font-family="sans-serif" font-size="20" lengthAdjust="spacing" textLength="86" x="587.5" y="839.3242">manages</text><text fill="#000000" font-family="sans-serif" font-size="20" lengthAdjust="spacing" textLength="13" x="552.0781" y="752.2502">1</text><text fill="#000000" font-family="sans-serif" font-size="20" lengthAdjust="spacing" textLength="13" x="552.8297" y="948.9675">1</text></g><!--link Agency to Address--><g id="link_Agency_Address"><path codeLine="167" d="M533.52,1097.0483 C518.28,1134.0183 503.5,1181.2683 503.5,1225.4883 C503.5,1225.4883 503.5,1225.4883 503.5,1657.4883 C503.5,1711.2483 482.7,1769.9183 465.8,1808.7083 " fill="none" id="Agency-Address" style="stroke:#181818;stroke-width:1.0;"/><polygon fill="#000000" points="510.7422,1432.2296,516.7942,1418.268,507.432,1417.3771,510.7422,1432.2296" style="stroke:#000000;stroke-width:1.0;"/><text fill="#000000" font-family="sans-serif" font-size="20" lengthAdjust="spacing" textLength="33" x="524.5" y="1431.8242">has</text><text fill="#000000" font-family="sans-serif" font-size="20" lengthAdjust="spacing" textLength="13" x="516.7571" y="1124.0045">1</text><text fill="#000000" font-family="sans-serif" font-size="20" lengthAdjust="spacing" textLength="13" x="454.9738" y="1796.8435">1</text></g><!--link UnregisteredUser to Announcement--><g id="link_UnregisteredUser_Announcement"><path codeLine="168" d="M1497.56,145.1283 C1515.27,165.8683 1541.82,199.8483 1557.5,233.4883 C1565.48,250.6183 1571.91,269.7083 1577.03,288.2883 " fill="none" id="UnregisteredUser-Announcement" style="stroke:#181818;stroke-width:1.0;"/><polygon fill="#000000" points="1579.3828,253.2602,1576.4701,238.3247,1568.2475,242.8891,1579.3828,253.2602" style="stroke:#000000;stroke-width:1.0;"/><text fill="#000000" font-family="sans-serif" font-size="20" lengthAdjust="spacing" textLength="52" x="1588.5" y="253.8242">views</text><text fill="#000000" font-family="sans-serif" font-size="20" lengthAdjust="spacing" textLength="13" x="1487.0888" y="171.7136">1</text><text fill="#000000" font-family="sans-serif" font-size="20" lengthAdjust="spacing" textLength="10" x="1565.2394" y="276.4272">*</text></g><!--link Client to Order--><g id="link_Client_Order"><path codeLine="169" d="M895.11,852.6783 C898.75,872.9683 904.61,905.7083 910.29,937.4283 " fill="none" id="Client-Order" style="stroke:#181818;stroke-width:1.0;"/><polygon fill="#000000" points="914.9105,903.1403,916.9875,888.0658,907.7303,889.7239,914.9105,903.1403" style="stroke:#000000;stroke-width:1.0;"/><text fill="#000000" font-family="sans-serif" font-size="20" lengthAdjust="spacing" textLength="63" x="926.5" y="902.8242">makes</text><text fill="#000000" font-family="sans-serif" font-size="20" lengthAdjust="spacing" textLength="13" x="881.4778" y="879.2745">1</text><text fill="#000000" font-family="sans-serif" font-size="20" lengthAdjust="spacing" textLength="10" x="898.5335" y="925.2574">*</text></g><!--link Order to Agent--><g id="link_Order_Agent"><path codeLine="170" d="M905.51,1120.8283 C904.62,1139.2983 906.25,1158.3183 912.5,1175.4883 C916.54,1186.5683 924.22,1196.8983 931.93,1205.2583 " fill="none" id="Order-Agent" style="stroke:#181818;stroke-width:1.0;"/><polygon fill="#000000" points="922.8891,1170.9005,923.0548,1155.6845,914.0795,1158.4931,922.8891,1170.9005" style="stroke:#000000;stroke-width:1.0;"/><text fill="#000000" font-family="sans-serif" font-size="20" lengthAdjust="spacing" textLength="121" x="933.5" y="1170.8242">requested to</text><text fill="#000000" font-family="sans-serif" font-size="20" lengthAdjust="spacing" textLength="10" x="893.6014" y="1147.7779">*</text><text fill="#000000" font-family="sans-serif" font-size="20" lengthAdjust="spacing" textLength="13" x="911.4808" y="1193.3353">1</text></g><!--link Street to City--><g id="link_Street_City"><path codeLine="171" d="M37.91,1050.2883 C39.29,1117.8783 43.71,1334.8183 45.08,1402.5683 " fill="none" id="Street-City" style="stroke:#181818;stroke-width:1.0;"/><polygon fill="#000000" points="50.6628,1234.764,55.0696,1220.1991,45.667,1220.3905,50.6628,1234.764" style="stroke:#000000;stroke-width:1.0;"/><text fill="#000000" font-family="sans-serif" font-size="20" lengthAdjust="spacing" textLength="64" x="63.5" y="1234.3242">part of</text><text fill="#000000" font-family="sans-serif" font-size="20" lengthAdjust="spacing" textLength="10" x="26.9059" y="1076.9086">*</text><text fill="#000000" font-family="sans-serif" font-size="20" lengthAdjust="spacing" textLength="13" x="30.3067" y="1390.5966">1</text></g><!--link Person to UserAccount--><g id="link_Person_UserAccount"><path codeLine="172" d="M1001.74,143.2483 C1071.44,158.7583 1160.81,186.2983 1228.5,233.4883 C1262.06,256.8883 1290.47,293.0683 1310.54,323.4983 " fill="none" id="Person-UserAccount" style="stroke:#181818;stroke-width:1.0;"/><polygon fill="#000000" points="1271.4091,250.2985,1261.2809,238.9419,1256.5399,247.064,1271.4091,250.2985" style="stroke:#000000;stroke-width:1.0;"/><text fill="#000000" font-family="sans-serif" font-size="20" lengthAdjust="spacing" textLength="33" x="1277.5" y="253.8242">has</text><text fill="#000000" font-family="sans-serif" font-size="20" lengthAdjust="spacing" textLength="13" x="1009.5835" y="140.1132">1</text><text fill="#000000" font-family="sans-serif" font-size="20" lengthAdjust="spacing" textLength="13" x="1292.8527" y="311.5684">1</text></g><!--link Client to VisitSchedule--><g id="link_Client_VisitSchedule"><path codeLine="173" d="M875.6,852.7483 C860.23,873.1683 837.16,906.0583 822.5,937.4883 C755.81,1080.4683 743.41,1121.3983 720.5,1277.4883 C717.9,1295.1983 718.44,1314.1083 720.6,1332.2283 " fill="none" id="Client-VisitSchedule" style="stroke:#181818;stroke-width:1.0;"/><polygon fill="#000000" points="748.0392,1170.8778,756.9651,1158.5537,748.0165,1155.6609,748.0392,1170.8778" style="stroke:#000000;stroke-width:1.0;"/><text fill="#000000" font-family="sans-serif" font-size="20" lengthAdjust="spacing" textLength="63" x="763.5" y="1170.8242">makes</text><text fill="#000000" font-family="sans-serif" font-size="20" lengthAdjust="spacing" textLength="13" x="857.7" y="879.3598">1</text><text fill="#000000" font-family="sans-serif" font-size="20" lengthAdjust="spacing" textLength="10" x="708.3767" y="1320.3625">*</text></g><!--link VisitSchedule to Agent--><g id="link_VisitSchedule_Agent"><path codeLine="174" d="M723.4,1332.1683 C723.75,1312.4683 728.25,1292.9283 740.5,1277.4883 C762.97,1249.1683 869.43,1235.3783 923.23,1230.1283 " fill="none" id="VisitSchedule-Agent" style="stroke:#181818;stroke-width:1.0;"/><polygon fill="#000000" points="755.6249,1286.6274,740.5974,1289.0211,744.8743,1297.3969,755.6249,1286.6274" style="stroke:#000000;stroke-width:1.0;"/><text fill="#000000" font-family="sans-serif" font-size="20" lengthAdjust="spacing" textLength="188" x="761.5" y="1297.8242">availability checked</text><text fill="#000000" font-family="sans-serif" font-size="20" lengthAdjust="spacing" textLength="10" x="722.1967" y="1320.2977">*</text><text fill="#000000" font-family="sans-serif" font-size="20" lengthAdjust="spacing" textLength="10" x="905.2959" y="1224.8542">*</text></g><!--link Agent to VisitSchedule--><g id="link_Agent_VisitSchedule"><path codeLine="175" d="M959.73,1247.6983 C962.68,1263.6583 964.11,1285.9383 954.5,1302.4883 C928.98,1346.4483 880.74,1375.7283 836.81,1394.3983 " fill="none" id="Agent-VisitSchedule" style="stroke:#181818;stroke-width:1.0;"/><polygon fill="#000000" points="965.362,1296.3976,978.261,1288.3248,971.0524,1282.2847,965.362,1296.3976" style="stroke:#000000;stroke-width:1.0;"/><text fill="#000000" font-family="sans-serif" font-size="20" lengthAdjust="spacing" textLength="193" x="983.5" y="1297.8242">confirms availability</text><text fill="#000000" font-family="sans-serif" font-size="20" lengthAdjust="spacing" textLength="10" x="949.7803" y="1274.2989">*</text><text fill="#000000" font-family="sans-serif" font-size="20" lengthAdjust="spacing" textLength="10" x="844.6441" y="1387.4866">*</text></g><!--link SystemAdministrator to LegacySystem--><g id="link_SystemAdministrator_LegacySystem"><path codeLine="176" d="M282.94,598.9283 C270.84,606.3583 259.42,616.0783 252.5,628.4883 C241.94,647.4083 257.27,668.2383 273.18,683.1383 " fill="none" id="SystemAdministrator-LegacySystem" style="stroke:#181818;stroke-width:1.0;"/><polygon fill="#000000" points="259.579,649.2124,265.9162,635.3779,256.5741,634.2952,259.579,649.2124" style="stroke:#000000;stroke-width:1.0;"/><text fill="#000000" font-family="sans-serif" font-size="20" lengthAdjust="spacing" textLength="245" x="273.5" y="648.8242">imports information from</text><text fill="#000000" font-family="sans-serif" font-size="20" lengthAdjust="spacing" textLength="13" x="257.4581" y="625.5792">1</text><text fill="#000000" font-family="sans-serif" font-size="20" lengthAdjust="spacing" textLength="13" x="251.7699" y="671.1845">1</text></g><!--SRC=[XLPBRziu4BxhLn2v10ZGeDkZKIpWnYasG9eQwsxlD3cs2FEXabGSjUX_to5fIgJbf3d4ul3ZFByPqXs4xgYbIXfs04uux6Wl_MUZ_KRy1FBXVUCoX2YZ3MkjKK2yxQ7OwIWxq3ri_221M62Uwhqi0Qwbt1o5tfCTbQxSOP8wj_JUYctluO4P7Gs_RwudZ1GQ_D01CTQtfca51yA4PMWYVYj0CNTDuuL71rP6KQ795yD1DaqqGEwa0Eq9l7ZGt94rM6Vqh-Pttlzwr63FjacnVwywQGQ0rpKizwM1Z2zDM0xsLqFmJ_3uGxKslMQWyEH34fa0MYeK-xXcqUzx34Z6DQSU9k36X-LeuJ-7PnaBXqao1EF13W57F1GNraXOWMDMT5uOFMd8KGMGfWekAEcm27VKygTURS56iQSlvGeaTAtHS99L6M93KlwmUjN6fQDhQpgm_dIOMg0f6y8XrHXyHbBUOPvE7dHMi28jwzPuKnPpoRa5vv8oRemjlFyfkZiaJW1dweXWTpoyGfketnUYM8PgRG5Am19vx5N9Zt_18NDZEaRKFwPtS0aH_DfI5tcI-ADRkXMURYKycbsIkLxVltJ6zROgxQH-L3XnkCggZadukli4t1gZN2salfrBrzHYa-utsF_W2bFBWjX9UTTlfN0jy5Kcy2ZvDAIOt3fB4eqirOwo4CGtxFqofbJZvFkvd1cbX7Eu_4vbd-gOtNgacby8Vcho7xte9fyXBvy2ItzFUZQ3yw2MN0aTo42ziMyr_WRtuGlLE27_Z7i2ZsrwU1C-zhksi4SFm08FlL_e-YwSy1k6oUmbdFNpUODMSmKRolfl8hUbvkCtnPG_8mmB5cVTPEmHzfGDAIlHX-lCk1yzECpcDShEdILNVrsHT-_YJpcu5YJZ7C6sPTZh7iZVJPglnQ6IP8kHJWwXbnAP3zvSLVLO41K_tCa2TaU1Z3ONfALHwuMg5zXSeSN9vN1axdIwPn23DooI6w_SxO3092wqPNOkY3bgTmbHXw_e8SLGI2Ci9oj5ObD5q2oczXmTTCV_a_4K-MbUbd74aKSo88p8qbgUaGW8au-O7O96OGBMUYPODZvPkxsz3Ha9KpmRd6PPMO7ShwFVi_3EuyjcFpQdAxzCS8ewAvlxDODKZPvWK_RPy0RNvhfURPTPwPy576CHqXEdmCKN1vd8aTRdh20pMgJxgwfJh71LfZfVTHEFl9YvLCsbmhLQdbsycLoap_X0m4jF1aSG5v-hurIuUTK0DjfEMELg1MztC_wK8msr21MUFGultfsnYeRRXkpmqO6A_WS0]--></g></svg>