<?xml version="1.0" encoding="UTF-8" standalone="no"?><svg xmlns="http://www.w3.org/2000/svg" xmlns:xlink="http://www.w3.org/1999/xlink" contentStyleType="text/css" height="998px" preserveAspectRatio="none" style="width:1955px;height:998px;background:#FFFFFF;" version="1.1" viewBox="0 0 1955 998" width="1955px" zoomAndPan="magnify"><defs/><g><!--class UserSession--><g id="elem_UserSession"><rect codeLine="8" fill="#F1F1F1" height="73.5547" id="UserSession" rx="2.5" ry="2.5" style="stroke:#181818;stroke-width:0.5;" width="168" x="19.5" y="643.21"/><ellipse cx="44.05" cy="660.21" fill="#ADD1B2" rx="12" ry="12" style="stroke:#181818;stroke-width:1.0;"/><path d="M46.8566,667.2901 Q46.173,667.6416 45.4211,667.8174 Q44.6691,667.9932 43.8391,667.9932 Q40.8898,667.9932 39.3371,666.0498 Q37.7844,664.1065 37.7844,660.4346 Q37.7844,656.753 39.3371,654.8096 Q40.8898,652.8662 43.8391,652.8662 Q44.6691,652.8662 45.4309,653.042 Q46.1926,653.2178 46.8566,653.5694 L46.8566,656.7725 Q46.1145,656.0889 45.4162,655.7715 Q44.718,655.4541 43.9758,655.4541 Q42.3938,655.4541 41.5881,656.709 Q40.7824,657.9639 40.7824,660.4346 Q40.7824,662.8955 41.5881,664.1504 Q42.3938,665.4053 43.9758,665.4053 Q44.718,665.4053 45.4162,665.0879 Q46.1145,664.7705 46.8566,664.087 Z " fill="#000000"/><text fill="#000000" font-family="sans-serif" font-size="20" lengthAdjust="spacing" textLength="115" x="60.95" y="667.7686">UserSession</text><line style="stroke:#181818;stroke-width:0.5;" x1="20.5" x2="186.5" y1="677.21" y2="677.21"/><line style="stroke:#181818;stroke-width:0.5;" x1="20.5" x2="186.5" y1="685.21" y2="685.21"/><text fill="#000000" font-family="sans-serif" font-size="20" lengthAdjust="spacing" textLength="156" x="25.5" y="708.5459">+getUserEmail()</text></g><!--class Employee--><g id="elem_Employee"><rect codeLine="12" fill="#F1F1F1" height="97.1094" id="Employee" rx="2.5" ry="2.5" style="stroke:#181818;stroke-width:0.5;" width="127" x="1065" y="30.56"/><ellipse cx="1081" cy="47.56" fill="#ADD1B2" rx="12" ry="12" style="stroke:#181818;stroke-width:1.0;"/><path d="M1083.8066,54.6401 Q1083.123,54.9916 1082.3711,55.1674 Q1081.6191,55.3432 1080.7891,55.3432 Q1077.8398,55.3432 1076.2871,53.3998 Q1074.7344,51.4565 1074.7344,47.7846 Q1074.7344,44.103 1076.2871,42.1596 Q1077.8398,40.2162 1080.7891,40.2162 Q1081.6191,40.2162 1082.3809,40.392 Q1083.1426,40.5678 1083.8066,40.9194 L1083.8066,44.1225 Q1083.0645,43.4389 1082.3662,43.1215 Q1081.668,42.8041 1080.9258,42.8041 Q1079.3438,42.8041 1078.5381,44.059 Q1077.7324,45.3139 1077.7324,47.7846 Q1077.7324,50.2455 1078.5381,51.5004 Q1079.3438,52.7553 1080.9258,52.7553 Q1081.668,52.7553 1082.3662,52.4379 Q1083.0645,52.1205 1083.8066,51.437 Z " fill="#000000"/><text fill="#000000" font-family="sans-serif" font-size="20" lengthAdjust="spacing" textLength="93" x="1096" y="55.1186">Employee</text><line style="stroke:#181818;stroke-width:0.5;" x1="1066" x2="1191" y1="64.56" y2="64.56"/><text fill="#000000" font-family="sans-serif" font-size="20" lengthAdjust="spacing" textLength="65" x="1071" y="87.8959">-name</text><text fill="#000000" font-family="sans-serif" font-size="20" lengthAdjust="spacing" textLength="65" x="1071" y="111.4506">-email</text><line style="stroke:#181818;stroke-width:0.5;" x1="1066" x2="1191" y1="119.6694" y2="119.6694"/></g><!--class Client--><g id="elem_Client"><rect codeLine="17" fill="#F1F1F1" height="97.1094" id="Client" rx="2.5" ry="2.5" style="stroke:#181818;stroke-width:0.5;" width="90" x="721.5" y="30.56"/><ellipse cx="737.5" cy="47.56" fill="#ADD1B2" rx="12" ry="12" style="stroke:#181818;stroke-width:1.0;"/><path d="M740.3066,54.6401 Q739.623,54.9916 738.8711,55.1674 Q738.1191,55.3432 737.2891,55.3432 Q734.3398,55.3432 732.7871,53.3998 Q731.2344,51.4565 731.2344,47.7846 Q731.2344,44.103 732.7871,42.1596 Q734.3398,40.2162 737.2891,40.2162 Q738.1191,40.2162 738.8809,40.392 Q739.6426,40.5678 740.3066,40.9194 L740.3066,44.1225 Q739.5645,43.4389 738.8662,43.1215 Q738.168,42.8041 737.4258,42.8041 Q735.8438,42.8041 735.0381,44.059 Q734.2324,45.3139 734.2324,47.7846 Q734.2324,50.2455 735.0381,51.5004 Q735.8438,52.7553 737.4258,52.7553 Q738.168,52.7553 738.8662,52.4379 Q739.5645,52.1205 740.3066,51.437 Z " fill="#000000"/><text fill="#000000" font-family="sans-serif" font-size="20" lengthAdjust="spacing" textLength="56" x="752.5" y="55.1186">Client</text><line style="stroke:#181818;stroke-width:0.5;" x1="722.5" x2="810.5" y1="64.56" y2="64.56"/><text fill="#000000" font-family="sans-serif" font-size="20" lengthAdjust="spacing" textLength="65" x="727.5" y="87.8959">-name</text><text fill="#000000" font-family="sans-serif" font-size="20" lengthAdjust="spacing" textLength="65" x="727.5" y="111.4506">-email</text><line style="stroke:#181818;stroke-width:0.5;" x1="722.5" x2="810.5" y1="119.6694" y2="119.6694"/></g><!--class Announcement--><g id="elem_Announcement"><rect codeLine="22" fill="#F1F1F1" height="97.1094" id="Announcement" rx="2.5" ry="2.5" style="stroke:#181818;stroke-width:0.5;" width="186" x="226.5" y="30.56"/><ellipse cx="246.1" cy="47.56" fill="#ADD1B2" rx="12" ry="12" style="stroke:#181818;stroke-width:1.0;"/><path d="M248.9066,54.6401 Q248.223,54.9916 247.4711,55.1674 Q246.7191,55.3432 245.8891,55.3432 Q242.9398,55.3432 241.3871,53.3998 Q239.8344,51.4565 239.8344,47.7846 Q239.8344,44.103 241.3871,42.1596 Q242.9398,40.2162 245.8891,40.2162 Q246.7191,40.2162 247.4809,40.392 Q248.2426,40.5678 248.9066,40.9194 L248.9066,44.1225 Q248.1645,43.4389 247.4662,43.1215 Q246.768,42.8041 246.0258,42.8041 Q244.4438,42.8041 243.6381,44.059 Q242.8324,45.3139 242.8324,47.7846 Q242.8324,50.2455 243.6381,51.5004 Q244.4438,52.7553 246.0258,52.7553 Q246.768,52.7553 247.4662,52.4379 Q248.1645,52.1205 248.9066,51.437 Z " fill="#000000"/><text fill="#000000" font-family="sans-serif" font-size="20" lengthAdjust="spacing" textLength="144" x="261.9" y="55.1186">Announcement</text><line style="stroke:#181818;stroke-width:0.5;" x1="227.5" x2="411.5" y1="64.56" y2="64.56"/><text fill="#000000" font-family="sans-serif" font-size="20" lengthAdjust="spacing" textLength="174" x="232.5" y="87.8959">-announcementID</text><text fill="#000000" font-family="sans-serif" font-size="20" lengthAdjust="spacing" textLength="118" x="232.5" y="111.4506">-agentEmail</text><line style="stroke:#181818;stroke-width:0.5;" x1="227.5" x2="411.5" y1="119.6694" y2="119.6694"/></g><!--class VisitSchedule--><g id="elem_VisitSchedule"><rect codeLine="27" fill="#F1F1F1" height="144.2188" id="VisitSchedule" rx="2.5" ry="2.5" style="stroke:#181818;stroke-width:0.5;" width="365" x="1460" y="7"/><ellipse cx="1574" cy="24" fill="#ADD1B2" rx="12" ry="12" style="stroke:#181818;stroke-width:1.0;"/><path d="M1576.8066,31.0801 Q1576.123,31.4316 1575.3711,31.6074 Q1574.6191,31.7832 1573.7891,31.7832 Q1570.8398,31.7832 1569.2871,29.8398 Q1567.7344,27.8965 1567.7344,24.2246 Q1567.7344,20.543 1569.2871,18.5996 Q1570.8398,16.6563 1573.7891,16.6563 Q1574.6191,16.6563 1575.3809,16.832 Q1576.1426,17.0078 1576.8066,17.3594 L1576.8066,20.5625 Q1576.0645,19.8789 1575.3662,19.5615 Q1574.668,19.2441 1573.9258,19.2441 Q1572.3438,19.2441 1571.5381,20.499 Q1570.7324,21.7539 1570.7324,24.2246 Q1570.7324,26.6855 1571.5381,27.9404 Q1572.3438,29.1953 1573.9258,29.1953 Q1574.668,29.1953 1575.3662,28.8779 Q1576.0645,28.5605 1576.8066,27.877 Z " fill="#000000"/><text fill="#000000" font-family="sans-serif" font-size="20" lengthAdjust="spacing" textLength="128" x="1596" y="31.5586">VisitSchedule</text><line style="stroke:#181818;stroke-width:0.5;" x1="1461" x2="1824" y1="41" y2="41"/><text fill="#000000" font-family="sans-serif" font-size="20" lengthAdjust="spacing" textLength="95" x="1466" y="64.3359">-visitDate</text><text fill="#000000" font-family="sans-serif" font-size="20" lengthAdjust="spacing" textLength="104" x="1466" y="87.8906">-startTime</text><text fill="#000000" font-family="sans-serif" font-size="20" lengthAdjust="spacing" textLength="97" x="1466" y="111.4453">-endTime</text><line style="stroke:#181818;stroke-width:0.5;" x1="1461" x2="1824" y1="119.6641" y2="119.6641"/><text fill="#000000" font-family="sans-serif" font-size="20" lengthAdjust="spacing" textLength="353" x="1466" y="143">+isOverlapping(startTime, endTime)</text></g><!--class AuthenticationRepository--><g id="elem_AuthenticationRepository"><rect codeLine="34" fill="#F1F1F1" height="167.7734" id="AuthenticationRepository" rx="2.5" ry="2.5" style="stroke:#181818;stroke-width:0.5;" width="445" x="7" y="823.88"/><ellipse cx="104.5" cy="840.88" fill="#ADD1B2" rx="12" ry="12" style="stroke:#181818;stroke-width:1.0;"/><path d="M107.3066,847.9601 Q106.623,848.3116 105.8711,848.4874 Q105.1191,848.6632 104.2891,848.6632 Q101.3398,848.6632 99.7871,846.7198 Q98.2344,844.7765 98.2344,841.1046 Q98.2344,837.423 99.7871,835.4796 Q101.3398,833.5363 104.2891,833.5363 Q105.1191,833.5363 105.8809,833.712 Q106.6426,833.8878 107.3066,834.2394 L107.3066,837.4425 Q106.5645,836.7589 105.8662,836.4415 Q105.168,836.1241 104.4258,836.1241 Q102.8438,836.1241 102.0381,837.379 Q101.2324,838.6339 101.2324,841.1046 Q101.2324,843.5655 102.0381,844.8204 Q102.8438,846.0753 104.4258,846.0753 Q105.168,846.0753 105.8662,845.7579 Q106.5645,845.4405 107.3066,844.757 Z " fill="#000000"/><text fill="#000000" font-family="sans-serif" font-size="20" lengthAdjust="spacing" textLength="241" x="126.5" y="848.4386">AuthenticationRepository</text><line style="stroke:#181818;stroke-width:0.5;" x1="8" x2="451" y1="857.88" y2="857.88"/><line style="stroke:#181818;stroke-width:0.5;" x1="8" x2="451" y1="865.88" y2="865.88"/><text fill="#000000" font-family="sans-serif" font-size="20" lengthAdjust="spacing" textLength="214" x="13" y="889.2159">+doLogin(email, pwd)</text><text fill="#000000" font-family="sans-serif" font-size="20" lengthAdjust="spacing" textLength="121" x="13" y="912.7706">+doLogout()</text><text fill="#000000" font-family="sans-serif" font-size="20" lengthAdjust="spacing" textLength="247" x="13" y="936.3253">+getCurrentUserSession()</text><text fill="#000000" font-family="sans-serif" font-size="20" lengthAdjust="spacing" textLength="291" x="13" y="959.88">+addUserRole(id, description)</text><text fill="#000000" font-family="sans-serif" font-size="20" lengthAdjust="spacing" textLength="433" x="13" y="983.4347">+addUserWithRole(name, email, pwd, roleId)</text></g><!--class AuthenticationController--><g id="elem_AuthenticationController"><rect codeLine="42" fill="#F1F1F1" height="73.5547" id="AuthenticationController" rx="2.5" ry="2.5" style="stroke:#181818;stroke-width:0.5;" width="269" x="222" y="643.21"/><ellipse cx="238" cy="660.21" fill="#ADD1B2" rx="12" ry="12" style="stroke:#181818;stroke-width:1.0;"/><path d="M240.8066,667.2901 Q240.123,667.6416 239.3711,667.8174 Q238.6191,667.9932 237.7891,667.9932 Q234.8398,667.9932 233.2871,666.0498 Q231.7344,664.1065 231.7344,660.4346 Q231.7344,656.753 233.2871,654.8096 Q234.8398,652.8662 237.7891,652.8662 Q238.6191,652.8662 239.3809,653.042 Q240.1426,653.2178 240.8066,653.5694 L240.8066,656.7725 Q240.0645,656.0889 239.3662,655.7715 Q238.668,655.4541 237.9258,655.4541 Q236.3438,655.4541 235.5381,656.709 Q234.7324,657.9639 234.7324,660.4346 Q234.7324,662.8955 235.5381,664.1504 Q236.3438,665.4053 237.9258,665.4053 Q238.668,665.4053 239.3662,665.0879 Q240.0645,664.7705 240.8066,664.087 Z " fill="#000000"/><text fill="#000000" font-family="sans-serif" font-size="20" lengthAdjust="spacing" textLength="235" x="253" y="667.7686">AuthenticationController</text><line style="stroke:#181818;stroke-width:0.5;" x1="223" x2="490" y1="677.21" y2="677.21"/><line style="stroke:#181818;stroke-width:0.5;" x1="223" x2="490" y1="685.21" y2="685.21"/><text fill="#000000" font-family="sans-serif" font-size="20" lengthAdjust="spacing" textLength="156" x="228" y="708.5459">+getUserEmail()</text></g><!--class VisitScheduleUI--><g id="elem_VisitScheduleUI"><rect codeLine="46" fill="#F1F1F1" height="120.6641" id="VisitScheduleUI" rx="2.5" ry="2.5" style="stroke:#181818;stroke-width:0.5;" width="442" x="223.5" y="403.66"/><ellipse cx="366" cy="420.66" fill="#ADD1B2" rx="12" ry="12" style="stroke:#181818;stroke-width:1.0;"/><path d="M368.8066,427.7401 Q368.123,428.0916 367.3711,428.2674 Q366.6191,428.4432 365.7891,428.4432 Q362.8398,428.4432 361.2871,426.4998 Q359.7344,424.5565 359.7344,420.8846 Q359.7344,417.203 361.2871,415.2596 Q362.8398,413.3162 365.7891,413.3162 Q366.6191,413.3162 367.3809,413.492 Q368.1426,413.6678 368.8066,414.0194 L368.8066,417.2225 Q368.0645,416.5389 367.3662,416.2215 Q366.668,415.9041 365.9258,415.9041 Q364.3438,415.9041 363.5381,417.159 Q362.7324,418.4139 362.7324,420.8846 Q362.7324,423.3455 363.5381,424.6004 Q364.3438,425.8553 365.9258,425.8553 Q366.668,425.8553 367.3662,425.5379 Q368.0645,425.2205 368.8066,424.537 Z " fill="#000000"/><text fill="#000000" font-family="sans-serif" font-size="20" lengthAdjust="spacing" textLength="148" x="388" y="428.2186">VisitScheduleUI</text><line style="stroke:#181818;stroke-width:0.5;" x1="224.5" x2="664.5" y1="437.66" y2="437.66"/><line style="stroke:#181818;stroke-width:0.5;" x1="224.5" x2="664.5" y1="445.66" y2="445.66"/><text fill="#000000" font-family="sans-serif" font-size="20" lengthAdjust="spacing" textLength="216" x="229.5" y="468.9959">+askToScheduleVisit()</text><text fill="#000000" font-family="sans-serif" font-size="20" lengthAdjust="spacing" textLength="430" x="229.5" y="492.5506">+requestData(visitDate, startTime, endTime)</text><text fill="#000000" font-family="sans-serif" font-size="20" lengthAdjust="spacing" textLength="287" x="229.5" y="516.1053">+showConfirmationMessage()</text></g><!--class VisitScheduleController--><g id="elem_VisitScheduleController"><rect codeLine="52" fill="#F1F1F1" height="167.7734" id="VisitScheduleController" rx="2.5" ry="2.5" style="stroke:#181818;stroke-width:0.5;" width="844" x="525.5" y="596.1"/><ellipse cx="831" cy="613.1" fill="#ADD1B2" rx="12" ry="12" style="stroke:#181818;stroke-width:1.0;"/><path d="M833.8066,620.1801 Q833.123,620.5316 832.3711,620.7074 Q831.6191,620.8832 830.7891,620.8832 Q827.8398,620.8832 826.2871,618.9398 Q824.7344,616.9965 824.7344,613.3246 Q824.7344,609.643 826.2871,607.6996 Q827.8398,605.7563 830.7891,605.7563 Q831.6191,605.7563 832.3809,605.932 Q833.1426,606.1078 833.8066,606.4594 L833.8066,609.6625 Q833.0645,608.9789 832.3662,608.6615 Q831.668,608.3441 830.9258,608.3441 Q829.3438,608.3441 828.5381,609.599 Q827.7324,610.8539 827.7324,613.3246 Q827.7324,615.7855 828.5381,617.0404 Q829.3438,618.2953 830.9258,618.2953 Q831.668,618.2953 832.3662,617.9779 Q833.0645,617.6605 833.8066,616.977 Z " fill="#000000"/><text fill="#000000" font-family="sans-serif" font-size="20" lengthAdjust="spacing" textLength="224" x="853" y="620.6586">VisitScheduleController</text><line style="stroke:#181818;stroke-width:0.5;" x1="526.5" x2="1368.5" y1="630.1" y2="630.1"/><line style="stroke:#181818;stroke-width:0.5;" x1="526.5" x2="1368.5" y1="638.1" y2="638.1"/><text fill="#000000" font-family="sans-serif" font-size="20" lengthAdjust="spacing" textLength="231" x="531.5" y="661.4359">+getCurrentUserName()</text><text fill="#000000" font-family="sans-serif" font-size="20" lengthAdjust="spacing" textLength="391" x="531.5" y="684.9906">+selectAnnouncement(announcementID)</text><text fill="#000000" font-family="sans-serif" font-size="20" lengthAdjust="spacing" textLength="779" x="531.5" y="708.5453">+isOverlappingWithExistingSchedules(clientEmail, visitDate, startTime, endTime)</text><text fill="#000000" font-family="sans-serif" font-size="20" lengthAdjust="spacing" textLength="832" x="531.5" y="732.1">+saveVisitSchedule(announcementID, clientEmail, visitDate, startTime, endTime, false)</text><text fill="#000000" font-family="sans-serif" font-size="20" lengthAdjust="spacing" textLength="464" x="531.5" y="755.6547">+getAllAnnouncementsSortedByDefaultCriteria()</text></g><!--class Repositories--><g id="elem_Repositories"><rect codeLine="60" fill="#F1F1F1" height="144.2188" id="Repositories" rx="2.5" ry="2.5" style="stroke:#181818;stroke-width:0.5;" width="318" x="788.5" y="391.88"/><ellipse cx="883.5" cy="408.88" fill="#ADD1B2" rx="12" ry="12" style="stroke:#181818;stroke-width:1.0;"/><path d="M886.3066,415.9601 Q885.623,416.3116 884.8711,416.4874 Q884.1191,416.6632 883.2891,416.6632 Q880.3398,416.6632 878.7871,414.7198 Q877.2344,412.7765 877.2344,409.1046 Q877.2344,405.423 878.7871,403.4796 Q880.3398,401.5363 883.2891,401.5363 Q884.1191,401.5363 884.8809,401.712 Q885.6426,401.8878 886.3066,402.2394 L886.3066,405.4425 Q885.5645,404.7589 884.8662,404.4415 Q884.168,404.1241 883.4258,404.1241 Q881.8438,404.1241 881.0381,405.379 Q880.2324,406.6339 880.2324,409.1046 Q880.2324,411.5655 881.0381,412.8204 Q881.8438,414.0753 883.4258,414.0753 Q884.168,414.0753 884.8662,413.7579 Q885.5645,413.4405 886.3066,412.757 Z " fill="#000000"/><text fill="#000000" font-family="sans-serif" font-size="20" lengthAdjust="spacing" textLength="119" x="905.5" y="416.4386">Repositories</text><line style="stroke:#181818;stroke-width:0.5;" x1="789.5" x2="1105.5" y1="425.88" y2="425.88"/><line style="stroke:#181818;stroke-width:0.5;" x1="789.5" x2="1105.5" y1="433.88" y2="433.88"/><text fill="#000000" font-family="sans-serif" font-size="20" lengthAdjust="spacing" textLength="218" x="794.5" y="457.2159">+getClientRepository()</text><text fill="#000000" font-family="sans-serif" font-size="20" lengthAdjust="spacing" textLength="306" x="794.5" y="480.7706">+getAnnouncementRepository()</text><text fill="#000000" font-family="sans-serif" font-size="20" lengthAdjust="spacing" textLength="255" x="794.5" y="504.3253">+getEmployeeRepository()</text><text fill="#000000" font-family="sans-serif" font-size="20" lengthAdjust="spacing" textLength="290" x="794.5" y="527.88">+getVisitScheduleRepository()</text></g><!--class AnnouncementRepository--><g id="elem_AnnouncementRepository"><rect codeLine="67" fill="#F1F1F1" height="120.6641" id="AnnouncementRepository" rx="2.5" ry="2.5" style="stroke:#181818;stroke-width:0.5;" width="516" x="61.5" y="211.22"/><ellipse cx="192" cy="228.22" fill="#ADD1B2" rx="12" ry="12" style="stroke:#181818;stroke-width:1.0;"/><path d="M194.8066,235.3001 Q194.123,235.6516 193.3711,235.8274 Q192.6191,236.0032 191.7891,236.0032 Q188.8398,236.0032 187.2871,234.0598 Q185.7344,232.1165 185.7344,228.4446 Q185.7344,224.763 187.2871,222.8196 Q188.8398,220.8763 191.7891,220.8763 Q192.6191,220.8763 193.3809,221.052 Q194.1426,221.2278 194.8066,221.5794 L194.8066,224.7825 Q194.0645,224.0989 193.3662,223.7815 Q192.668,223.4641 191.9258,223.4641 Q190.3438,223.4641 189.5381,224.719 Q188.7324,225.9739 188.7324,228.4446 Q188.7324,230.9055 189.5381,232.1604 Q190.3438,233.4153 191.9258,233.4153 Q192.668,233.4153 193.3662,233.0979 Q194.0645,232.7805 194.8066,232.097 Z " fill="#000000"/><text fill="#000000" font-family="sans-serif" font-size="20" lengthAdjust="spacing" textLength="246" x="214" y="235.7786">AnnouncementRepository</text><line style="stroke:#181818;stroke-width:0.5;" x1="62.5" x2="576.5" y1="245.22" y2="245.22"/><line style="stroke:#181818;stroke-width:0.5;" x1="62.5" x2="576.5" y1="253.22" y2="253.22"/><text fill="#000000" font-family="sans-serif" font-size="20" lengthAdjust="spacing" textLength="366" x="67.5" y="276.5559">+getAnnouncement(announcementID)</text><text fill="#000000" font-family="sans-serif" font-size="20" lengthAdjust="spacing" textLength="504" x="67.5" y="300.1106">+getAgentEmailFromAnnouncement(announcement)</text><text fill="#000000" font-family="sans-serif" font-size="20" lengthAdjust="spacing" textLength="464" x="67.5" y="323.6653">+getAllAnnouncementsSortedByDefaultCriteria()</text></g><!--class ClientRepository--><g id="elem_ClientRepository"><rect codeLine="73" fill="#F1F1F1" height="73.5547" id="ClientRepository" rx="2.5" ry="2.5" style="stroke:#181818;stroke-width:0.5;" width="308" x="612.5" y="234.77"/><ellipse cx="683" cy="251.77" fill="#ADD1B2" rx="12" ry="12" style="stroke:#181818;stroke-width:1.0;"/><path d="M685.8066,258.8501 Q685.123,259.2016 684.3711,259.3774 Q683.6191,259.5532 682.7891,259.5532 Q679.8398,259.5532 678.2871,257.6098 Q676.7344,255.6665 676.7344,251.9946 Q676.7344,248.313 678.2871,246.3696 Q679.8398,244.4262 682.7891,244.4262 Q683.6191,244.4262 684.3809,244.602 Q685.1426,244.7778 685.8066,245.1294 L685.8066,248.3325 Q685.0645,247.6489 684.3662,247.3315 Q683.668,247.0141 682.9258,247.0141 Q681.3438,247.0141 680.5381,248.269 Q679.7324,249.5239 679.7324,251.9946 Q679.7324,254.4555 680.5381,255.7104 Q681.3438,256.9653 682.9258,256.9653 Q683.668,256.9653 684.3662,256.6479 Q685.0645,256.3305 685.8066,255.647 Z " fill="#000000"/><text fill="#000000" font-family="sans-serif" font-size="20" lengthAdjust="spacing" textLength="158" x="705" y="259.3286">ClientRepository</text><line style="stroke:#181818;stroke-width:0.5;" x1="613.5" x2="919.5" y1="268.77" y2="268.77"/><line style="stroke:#181818;stroke-width:0.5;" x1="613.5" x2="919.5" y1="276.77" y2="276.77"/><text fill="#000000" font-family="sans-serif" font-size="20" lengthAdjust="spacing" textLength="296" x="618.5" y="300.1059">+getClientByEmail(clientEmail)</text></g><!--class EmployeeRepository--><g id="elem_EmployeeRepository"><rect codeLine="77" fill="#F1F1F1" height="73.5547" id="EmployeeRepository" rx="2.5" ry="2.5" style="stroke:#181818;stroke-width:0.5;" width="346" x="955.5" y="234.77"/><ellipse cx="1026.5" cy="251.77" fill="#ADD1B2" rx="12" ry="12" style="stroke:#181818;stroke-width:1.0;"/><path d="M1029.3066,258.8501 Q1028.623,259.2016 1027.8711,259.3774 Q1027.1191,259.5532 1026.2891,259.5532 Q1023.3398,259.5532 1021.7871,257.6098 Q1020.2344,255.6665 1020.2344,251.9946 Q1020.2344,248.313 1021.7871,246.3696 Q1023.3398,244.4262 1026.2891,244.4262 Q1027.1191,244.4262 1027.8809,244.602 Q1028.6426,244.7778 1029.3066,245.1294 L1029.3066,248.3325 Q1028.5645,247.6489 1027.8662,247.3315 Q1027.168,247.0141 1026.4258,247.0141 Q1024.8438,247.0141 1024.0381,248.269 Q1023.2324,249.5239 1023.2324,251.9946 Q1023.2324,254.4555 1024.0381,255.7104 Q1024.8438,256.9653 1026.4258,256.9653 Q1027.168,256.9653 1027.8662,256.6479 Q1028.5645,256.3305 1029.3066,255.647 Z " fill="#000000"/><text fill="#000000" font-family="sans-serif" font-size="20" lengthAdjust="spacing" textLength="195" x="1048.5" y="259.3286">EmployeeRepository</text><line style="stroke:#181818;stroke-width:0.5;" x1="956.5" x2="1300.5" y1="268.77" y2="268.77"/><line style="stroke:#181818;stroke-width:0.5;" x1="956.5" x2="1300.5" y1="276.77" y2="276.77"/><text fill="#000000" font-family="sans-serif" font-size="20" lengthAdjust="spacing" textLength="334" x="961.5" y="300.1059">+getEmployeeByEmail(agentEmail)</text></g><!--class VisitScheduleRepository--><g id="elem_VisitScheduleRepository"><rect codeLine="81" fill="#F1F1F1" height="97.1094" id="VisitScheduleRepository" rx="2.5" ry="2.5" style="stroke:#181818;stroke-width:0.5;" width="611" x="1337" y="223"/><ellipse cx="1523" cy="240" fill="#ADD1B2" rx="12" ry="12" style="stroke:#181818;stroke-width:1.0;"/><path d="M1525.8066,247.0801 Q1525.123,247.4316 1524.3711,247.6074 Q1523.6191,247.7832 1522.7891,247.7832 Q1519.8398,247.7832 1518.2871,245.8398 Q1516.7344,243.8965 1516.7344,240.2246 Q1516.7344,236.543 1518.2871,234.5996 Q1519.8398,232.6563 1522.7891,232.6563 Q1523.6191,232.6563 1524.3809,232.832 Q1525.1426,233.0078 1525.8066,233.3594 L1525.8066,236.5625 Q1525.0645,235.8789 1524.3662,235.5615 Q1523.668,235.2441 1522.9258,235.2441 Q1521.3438,235.2441 1520.5381,236.499 Q1519.7324,237.7539 1519.7324,240.2246 Q1519.7324,242.6855 1520.5381,243.9404 Q1521.3438,245.1953 1522.9258,245.1953 Q1523.668,245.1953 1524.3662,244.8779 Q1525.0645,244.5605 1525.8066,243.877 Z " fill="#000000"/><text fill="#000000" font-family="sans-serif" font-size="20" lengthAdjust="spacing" textLength="230" x="1545" y="247.5586">VisitScheduleRepository</text><line style="stroke:#181818;stroke-width:0.5;" x1="1338" x2="1947" y1="257" y2="257"/><line style="stroke:#181818;stroke-width:0.5;" x1="1338" x2="1947" y1="265" y2="265"/><text fill="#000000" font-family="sans-serif" font-size="20" lengthAdjust="spacing" textLength="599" x="1343" y="288.3359">+getVisitSchedulesByUserEmailAndDate(clientEmail, visitDate)</text><text fill="#000000" font-family="sans-serif" font-size="20" lengthAdjust="spacing" textLength="320" x="1343" y="311.8906">+addVisitSchedule(visitSchedule)</text></g><!--reverse link UserSession to AuthenticationRepository--><g id="link_UserSession_AuthenticationRepository"><path codeLine="86" d="M126.63,722.43 C142.43,750.74 163.91,789.23 183.16,823.72 " fill="none" id="UserSession-backto-AuthenticationRepository" style="stroke:#181818;stroke-width:1.0;"/><polygon fill="#181818" points="123.74,718.26,124.6142,728.07,126.1682,722.6308,131.6074,724.1848,123.74,718.26" style="stroke:#181818;stroke-width:1.0;"/></g><!--link AuthenticationController to AuthenticationRepository--><g id="link_AuthenticationController_AuthenticationRepository"><path codeLine="87" d="M336.1,717.26 C320.72,744.59 298.97,783.26 279.13,818.54 " fill="none" id="AuthenticationController-to-AuthenticationRepository" style="stroke:#181818;stroke-width:1.0;stroke-dasharray:7.0,7.0;"/><polygon fill="#181818" points="276.21,822.72,284.1151,816.8455,278.6661,818.3648,277.1467,812.9158,276.21,822.72" style="stroke:#181818;stroke-width:1.0;"/></g><!--link VisitScheduleUI to AuthenticationController--><g id="link_VisitScheduleUI_AuthenticationController"><path codeLine="88" d="M419.99,524.6 C405.23,560.49 386.8,605.3 373.61,637.38 " fill="none" id="VisitScheduleUI-to-AuthenticationController" style="stroke:#181818;stroke-width:1.0;stroke-dasharray:7.0,7.0;"/><polygon fill="#181818" points="371.37,641.82,378.4955,635.0209,373.2737,637.1966,371.098,631.9749,371.37,641.82" style="stroke:#181818;stroke-width:1.0;"/></g><!--link VisitScheduleUI to VisitScheduleController--><g id="link_VisitScheduleUI_VisitScheduleController"><path codeLine="89" d="M584.95,524.75 C634.93,546.01 692.23,570.39 746.3,593.39 " fill="none" id="VisitScheduleUI-to-VisitScheduleController" style="stroke:#181818;stroke-width:1.0;stroke-dasharray:7.0,7.0;"/><polygon fill="#181818" points="750.52,595.61,743.8153,588.3957,745.9221,593.6456,740.6722,595.7524,750.52,595.61" style="stroke:#181818;stroke-width:1.0;"/></g><!--reverse link Repositories to VisitScheduleController--><g id="link_Repositories_VisitScheduleController"><path codeLine="90" d="M947.5,542.37 C947.5,559.68 947.5,578.11 947.5,595.65 " fill="none" id="Repositories-backto-VisitScheduleController" style="stroke:#181818;stroke-width:1.0;"/><polygon fill="#181818" points="947.5,537.55,943.5,546.55,947.5,542.55,951.5,546.55,947.5,537.55" style="stroke:#181818;stroke-width:1.0;"/></g><!--reverse link ClientRepository to Repositories--><g id="link_ClientRepository_Repositories"><path codeLine="91" d="M804.96,313.02 C826.7,335.89 854.51,365.16 879.79,391.75 " fill="none" id="ClientRepository-backto-Repositories" style="stroke:#181818;stroke-width:1.0;"/><polygon fill="#181818" points="801.97,309.82,805.2813,319.0955,805.4186,313.4403,811.0738,313.5777,801.97,309.82" style="stroke:#181818;stroke-width:1.0;"/></g><!--reverse link AnnouncementRepository to Repositories--><g id="link_AnnouncementRepository_Repositories"><path codeLine="92" d="M522.14,334 C608.34,360.14 707.4,390.18 788.23,414.69 " fill="none" id="AnnouncementRepository-backto-Repositories" style="stroke:#181818;stroke-width:1.0;"/><polygon fill="#181818" points="517.48,332.29,524.9423,338.7177,522.2672,333.7333,527.2515,331.0582,517.48,332.29" style="stroke:#181818;stroke-width:1.0;"/></g><!--reverse link EmployeeRepository to Repositories--><g id="link_EmployeeRepository_Repositories"><path codeLine="93" d="M1090.04,313.02 C1068.3,335.89 1040.49,365.16 1015.21,391.75 " fill="none" id="EmployeeRepository-backto-Repositories" style="stroke:#181818;stroke-width:1.0;"/><polygon fill="#181818" points="1093.03,309.82,1083.9262,313.5777,1089.5814,313.4403,1089.7187,319.0955,1093.03,309.82" style="stroke:#181818;stroke-width:1.0;"/></g><!--reverse link VisitScheduleRepository to Repositories--><g id="link_VisitScheduleRepository_Repositories"><path codeLine="94" d="M1462.03,322 C1352.08,352.13 1212.86,390.28 1106.97,419.3 " fill="none" id="VisitScheduleRepository-backto-Repositories" style="stroke:#181818;stroke-width:1.0;"/><polygon fill="#181818" points="1466.57,320.49,1456.8343,319.0014,1461.7465,321.8068,1458.9412,326.719,1466.57,320.49" style="stroke:#181818;stroke-width:1.0;"/></g><!--reverse link Client to ClientRepository--><g id="link_Client_ClientRepository"><path codeLine="95" d="M766.5,133.59 C766.5,165.76 766.5,205.87 766.5,234.35 " fill="none" id="Client-backto-ClientRepository" style="stroke:#181818;stroke-width:1.0;"/><polygon fill="#181818" points="766.5,128.68,762.5,137.68,766.5,133.68,770.5,137.68,766.5,128.68" style="stroke:#181818;stroke-width:1.0;"/></g><!--reverse link Announcement to AnnouncementRepository--><g id="link_Announcement_AnnouncementRepository"><path codeLine="96" d="M319.5,133.39 C319.5,157.52 319.5,186.14 319.5,210.98 " fill="none" id="Announcement-backto-AnnouncementRepository" style="stroke:#181818;stroke-width:1.0;"/><polygon fill="#181818" points="319.5,128.68,315.5,137.68,319.5,133.68,323.5,137.68,319.5,128.68" style="stroke:#181818;stroke-width:1.0;"/></g><!--reverse link Employee to EmployeeRepository--><g id="link_Employee_EmployeeRepository"><path codeLine="97" d="M1128.5,133.59 C1128.5,165.76 1128.5,205.87 1128.5,234.35 " fill="none" id="Employee-backto-EmployeeRepository" style="stroke:#181818;stroke-width:1.0;"/><polygon fill="#181818" points="1128.5,128.68,1124.5,137.68,1128.5,133.68,1132.5,137.68,1128.5,128.68" style="stroke:#181818;stroke-width:1.0;"/></g><!--reverse link VisitSchedule to VisitScheduleRepository--><g id="link_VisitSchedule_VisitScheduleRepository"><path codeLine="98" d="M1642.5,157.45 C1642.5,179.53 1642.5,202.93 1642.5,222.69 " fill="none" id="VisitSchedule-backto-VisitScheduleRepository" style="stroke:#181818;stroke-width:1.0;"/><polygon fill="#181818" points="1642.5,152.57,1638.5,161.57,1642.5,157.57,1646.5,161.57,1642.5,152.57" style="stroke:#181818;stroke-width:1.0;"/></g><!--SRC=[fLLDZziW4BtxLt1qjCwgwhcgbA-L8lL3skosPsec3We65t1Ij-f_BpZ1XXYqaPfJ61upZpUFiJfItc29QoRA8n14O8zRffy4rplw6z3xTrcc70Ork3pY2dQwOu0ab1hpYe47K0TCn9do2kqnK_uEennqrm1g1ElimizRCgpKGcj9VxGQjgNWVN5Jkzz1hmha3fIYWgC_6JA_XmgqZMvgJ5a-o_uwwAPkcEW0hhWvuhY6wr-mu16wOXIulWEuu5oql8JQXsClk5sxO6LMc_3qDwgetfK782qRQPriT8srAwaqblg5ZXGu6LOFL7qzWMIuQOoq-G0j7Cgx_wBL1yE1bbWRjPwX4QQEa9tJZOXFeg8yxwzOeEPCPjw6Q7K-6mHUjLAQN9xwRXCJOgFFWa5EIM5ieqf96rioH7od-j2ZhBe56giMI9hmbYIfhum53OI1VAlbWS2lMmV7wlWYNBZ7EFOIVhQWhFeu7_fGe9YkFLuTnDdGsLDPzzG-6p5CfvCSejGzCRyOBHmN1Soy8zzXUUYiMSG2LjNDBwgq-U-Aghpi_RovI7pNlV090k8tfGjqVyhYyk97yomOys-bTa9g8CjkVPamAqarI8fz4GUtKb2-SZs9qSgUG_qAKO0R1z7DuEu18lhqfu_fXa6ySnOqZ8KdAUhaaVyIxrQbYO3Bxl9ol9v6vcOqWTjqASOnbte2qJG1GYsxuJKlEB6-IZXud2YXMK_-gYVYVoS-pEV9OPWbHytZuyVqgTj1CmMFcQBWn9J80kDRuYdWfCaMx9_E4eQTu2Bzdc1I7Pq0hrzI6xzb612wD2NAS23KOwRiGZ9JaJpaFm00]--></g></svg>