<?xml version="1.0" encoding="UTF-8" standalone="no"?><svg xmlns="http://www.w3.org/2000/svg" xmlns:xlink="http://www.w3.org/1999/xlink" contentStyleType="text/css" height="1999px" preserveAspectRatio="none" style="width:3171px;height:1999px;background:#FFFFFF;" version="1.1" viewBox="0 0 3171 1999" width="3171px" zoomAndPan="magnify"><defs/><g><rect fill="#FFFFFF" height="1803.625" style="stroke:#181818;stroke-width:1.0;" width="10" x="31" y="98.5547"/><rect fill="#FFFFFF" height="262.8828" style="stroke:#181818;stroke-width:1.0;" width="10" x="730" y="128.1094"/><rect fill="#FFFFFF" height="863.7578" style="stroke:#181818;stroke-width:1.0;" width="10" x="730" y="428.5469"/><rect fill="#FFFFFF" height="337.9922" style="stroke:#181818;stroke-width:1.0;" width="10" x="730" y="1329.8594"/><rect fill="#FFFFFF" height="187.7734" style="stroke:#181818;stroke-width:1.0;" width="10" x="730" y="1705.4063"/><rect fill="#FFFFFF" height="112.6641" style="stroke:#181818;stroke-width:1.0;" width="10" x="945.5" y="466.1016"/><rect fill="#FFFFFF" height="37.5547" style="stroke:#181818;stroke-width:1.0;" width="10" x="1235.5" y="503.6563"/><rect fill="#FFFFFF" height="187.7734" style="stroke:#181818;stroke-width:1.0;" width="10" x="1605" y="165.6641"/><rect fill="#FFFFFF" height="187.7734" style="stroke:#181818;stroke-width:1.0;" width="10" x="1605" y="616.3203"/><rect fill="#FFFFFF" height="413.1016" style="stroke:#181818;stroke-width:1.0;" width="10" x="1605" y="841.6484"/><rect fill="#FFFFFF" height="262.8828" style="stroke:#181818;stroke-width:1.0;" width="10" x="1605" y="1367.4141"/><rect fill="#FFFFFF" height="112.6641" style="stroke:#181818;stroke-width:1.0;" width="10" x="1605" y="1742.9609"/><rect fill="#FFFFFF" height="37.5547" style="stroke:#181818;stroke-width:1.0;" width="10" x="1954" y="203.2188"/><rect fill="#FFFFFF" height="37.5547" style="stroke:#181818;stroke-width:1.0;" width="10" x="1954" y="653.875"/><rect fill="#FFFFFF" height="37.5547" style="stroke:#181818;stroke-width:1.0;" width="10" x="1954" y="879.2031"/><rect fill="#FFFFFF" height="37.5547" style="stroke:#181818;stroke-width:1.0;" width="10" x="1954" y="1104.5313"/><rect fill="#FFFFFF" height="37.5547" style="stroke:#181818;stroke-width:1.0;" width="10" x="1954" y="1404.9688"/><rect fill="#FFFFFF" height="37.5547" style="stroke:#181818;stroke-width:1.0;" width="10" x="2223" y="278.3281"/><rect fill="#FFFFFF" height="112.6641" style="stroke:#181818;stroke-width:1.0;" width="10" x="2223" y="954.3125"/><rect fill="#FFFFFF" height="37.5547" style="stroke:#181818;stroke-width:1.0;" width="10" x="2449" y="728.9844"/><rect fill="#FFFFFF" height="37.5547" style="stroke:#181818;stroke-width:1.0;" width="10" x="2649.5" y="1179.6406"/><rect fill="#FFFFFF" height="37.5547" style="stroke:#181818;stroke-width:1.0;" width="10" x="2886" y="1480.0781"/><rect fill="#FFFFFF" height="37.5547" style="stroke:#181818;stroke-width:1.0;" width="10" x="2886" y="1780.5156"/><rect fill="#FFFFFF" height="37.5547" style="stroke:#181818;stroke-width:1.0;" width="10" x="3089" y="1555.1875"/><line style="stroke:#181818;stroke-width:0.5;stroke-dasharray:5.0,5.0;" x1="36" x2="36" y1="88.5547" y2="1911.1797"/><line style="stroke:#181818;stroke-width:0.5;stroke-dasharray:5.0,5.0;" x1="735" x2="735" y1="88.5547" y2="1911.1797"/><line style="stroke:#181818;stroke-width:0.5;stroke-dasharray:5.0,5.0;" x1="950" x2="950" y1="88.5547" y2="1911.1797"/><line style="stroke:#181818;stroke-width:0.5;stroke-dasharray:5.0,5.0;" x1="1240" x2="1240" y1="88.5547" y2="1911.1797"/><line style="stroke:#181818;stroke-width:0.5;stroke-dasharray:5.0,5.0;" x1="1610" x2="1610" y1="88.5547" y2="1911.1797"/><line style="stroke:#181818;stroke-width:0.5;stroke-dasharray:5.0,5.0;" x1="1959" x2="1959" y1="88.5547" y2="1911.1797"/><line style="stroke:#181818;stroke-width:0.5;stroke-dasharray:5.0,5.0;" x1="2228" x2="2228" y1="88.5547" y2="1911.1797"/><line style="stroke:#181818;stroke-width:0.5;stroke-dasharray:5.0,5.0;" x1="2454" x2="2454" y1="88.5547" y2="1911.1797"/><line style="stroke:#181818;stroke-width:0.5;stroke-dasharray:5.0,5.0;" x1="2654" x2="2654" y1="88.5547" y2="1911.1797"/><line style="stroke:#181818;stroke-width:0.5;stroke-dasharray:5.0,5.0;" x1="2891" x2="2891" y1="88.5547" y2="1911.1797"/><line style="stroke:#181818;stroke-width:0.5;stroke-dasharray:5.0,5.0;" x1="3094" x2="3094" y1="88.5547" y2="1911.1797"/><text fill="#000000" font-family="sans-serif" font-size="20" lengthAdjust="spacing" textLength="56" x="5" y="84.3359">Client</text><ellipse cx="36" cy="13.5" fill="#E3E3E3" rx="8" ry="8" style="stroke:#181818;stroke-width:0.5;"/><path d="M36,21.5 L36,48.5 M23,29.5 L49,29.5 M36,48.5 L23,63.5 M36,48.5 L49,63.5 " fill="none" style="stroke:#181818;stroke-width:0.5;"/><text fill="#000000" font-family="sans-serif" font-size="20" lengthAdjust="spacing" textLength="56" x="5" y="1929.5156">Client</text><ellipse cx="36" cy="1942.2344" fill="#E3E3E3" rx="8" ry="8" style="stroke:#181818;stroke-width:0.5;"/><path d="M36,1950.2344 L36,1977.2344 M23,1958.2344 L49,1958.2344 M36,1977.2344 L23,1992.2344 M36,1977.2344 L49,1992.2344 " fill="none" style="stroke:#181818;stroke-width:0.5;"/><rect fill="#E3E3E3" height="37.5547" rx="2.5" ry="2.5" style="stroke:#181818;stroke-width:0.5;" width="162" x="654" y="50"/><text fill="#000000" font-family="sans-serif" font-size="20" lengthAdjust="spacing" textLength="148" x="661" y="76.3359">VisitScheduleUI</text><rect fill="#E3E3E3" height="37.5547" rx="2.5" ry="2.5" style="stroke:#181818;stroke-width:0.5;" width="162" x="654" y="1910.1797"/><text fill="#000000" font-family="sans-serif" font-size="20" lengthAdjust="spacing" textLength="148" x="661" y="1936.5156">VisitScheduleUI</text><rect fill="#E3E3E3" height="37.5547" rx="2.5" ry="2.5" style="stroke:#181818;stroke-width:0.5;" width="249" x="826" y="50"/><text fill="#000000" font-family="sans-serif" font-size="20" lengthAdjust="spacing" textLength="235" x="833" y="76.3359">AuthenticationController</text><rect fill="#E3E3E3" height="37.5547" rx="2.5" ry="2.5" style="stroke:#181818;stroke-width:0.5;" width="249" x="826" y="1910.1797"/><text fill="#000000" font-family="sans-serif" font-size="20" lengthAdjust="spacing" textLength="235" x="833" y="1936.5156">AuthenticationController</text><rect fill="#E3E3E3" height="37.5547" rx="2.5" ry="2.5" style="stroke:#181818;stroke-width:0.5;" width="255" x="1113" y="50"/><text fill="#000000" font-family="sans-serif" font-size="20" lengthAdjust="spacing" textLength="241" x="1120" y="76.3359">AuthenticationRepository</text><rect fill="#E3E3E3" height="37.5547" rx="2.5" ry="2.5" style="stroke:#181818;stroke-width:0.5;" width="255" x="1113" y="1910.1797"/><text fill="#000000" font-family="sans-serif" font-size="20" lengthAdjust="spacing" textLength="241" x="1120" y="1936.5156">AuthenticationRepository</text><rect fill="#E3E3E3" height="37.5547" rx="2.5" ry="2.5" style="stroke:#181818;stroke-width:0.5;" width="238" x="1491" y="50"/><text fill="#000000" font-family="sans-serif" font-size="20" lengthAdjust="spacing" textLength="224" x="1498" y="76.3359">VisitScheduleController</text><rect fill="#E3E3E3" height="37.5547" rx="2.5" ry="2.5" style="stroke:#181818;stroke-width:0.5;" width="238" x="1491" y="1910.1797"/><text fill="#000000" font-family="sans-serif" font-size="20" lengthAdjust="spacing" textLength="224" x="1498" y="1936.5156">VisitScheduleController</text><rect fill="#E3E3E3" height="37.5547" rx="2.5" ry="2.5" style="stroke:#181818;stroke-width:0.5;" width="258" x="1830" y="50"/><text fill="#000000" font-family="sans-serif" font-size="20" lengthAdjust="spacing" textLength="244" x="1837" y="76.3359">Repositories:Repositories</text><rect fill="#E3E3E3" height="37.5547" rx="2.5" ry="2.5" style="stroke:#181818;stroke-width:0.5;" width="258" x="1830" y="1910.1797"/><text fill="#000000" font-family="sans-serif" font-size="20" lengthAdjust="spacing" textLength="244" x="1837" y="1936.5156">Repositories:Repositories</text><rect fill="#E3E3E3" height="37.5547" rx="2.5" ry="2.5" style="stroke:#181818;stroke-width:0.5;" width="260" x="2098" y="50"/><text fill="#000000" font-family="sans-serif" font-size="20" lengthAdjust="spacing" textLength="246" x="2105" y="76.3359">AnnouncementRepository</text><rect fill="#E3E3E3" height="37.5547" rx="2.5" ry="2.5" style="stroke:#181818;stroke-width:0.5;" width="260" x="2098" y="1910.1797"/><text fill="#000000" font-family="sans-serif" font-size="20" lengthAdjust="spacing" textLength="246" x="2105" y="1936.5156">AnnouncementRepository</text><rect fill="#E3E3E3" height="37.5547" rx="2.5" ry="2.5" style="stroke:#181818;stroke-width:0.5;" width="172" x="2368" y="50"/><text fill="#000000" font-family="sans-serif" font-size="20" lengthAdjust="spacing" textLength="158" x="2375" y="76.3359">ClientRepository</text><rect fill="#E3E3E3" height="37.5547" rx="2.5" ry="2.5" style="stroke:#181818;stroke-width:0.5;" width="172" x="2368" y="1910.1797"/><text fill="#000000" font-family="sans-serif" font-size="20" lengthAdjust="spacing" textLength="158" x="2375" y="1936.5156">ClientRepository</text><rect fill="#E3E3E3" height="37.5547" rx="2.5" ry="2.5" style="stroke:#181818;stroke-width:0.5;" width="209" x="2550" y="50"/><text fill="#000000" font-family="sans-serif" font-size="20" lengthAdjust="spacing" textLength="195" x="2557" y="76.3359">EmployeeRepository</text><rect fill="#E3E3E3" height="37.5547" rx="2.5" ry="2.5" style="stroke:#181818;stroke-width:0.5;" width="209" x="2550" y="1910.1797"/><text fill="#000000" font-family="sans-serif" font-size="20" lengthAdjust="spacing" textLength="195" x="2557" y="1936.5156">EmployeeRepository</text><rect fill="#E3E3E3" height="37.5547" rx="2.5" ry="2.5" style="stroke:#181818;stroke-width:0.5;" width="244" x="2769" y="50"/><text fill="#000000" font-family="sans-serif" font-size="20" lengthAdjust="spacing" textLength="230" x="2776" y="76.3359">VisitScheduleRepository</text><rect fill="#E3E3E3" height="37.5547" rx="2.5" ry="2.5" style="stroke:#181818;stroke-width:0.5;" width="244" x="2769" y="1910.1797"/><text fill="#000000" font-family="sans-serif" font-size="20" lengthAdjust="spacing" textLength="230" x="2776" y="1936.5156">VisitScheduleRepository</text><rect fill="#E3E3E3" height="37.5547" rx="2.5" ry="2.5" style="stroke:#181818;stroke-width:0.5;" width="142" x="3023" y="50"/><text fill="#000000" font-family="sans-serif" font-size="20" lengthAdjust="spacing" textLength="128" x="3030" y="76.3359">VisitSchedule</text><rect fill="#E3E3E3" height="37.5547" rx="2.5" ry="2.5" style="stroke:#181818;stroke-width:0.5;" width="142" x="3023" y="1910.1797"/><text fill="#000000" font-family="sans-serif" font-size="20" lengthAdjust="spacing" textLength="128" x="3030" y="1936.5156">VisitSchedule</text><rect fill="#FFFFFF" height="1803.625" style="stroke:#181818;stroke-width:1.0;" width="10" x="31" y="98.5547"/><rect fill="#FFFFFF" height="262.8828" style="stroke:#181818;stroke-width:1.0;" width="10" x="730" y="128.1094"/><rect fill="#FFFFFF" height="863.7578" style="stroke:#181818;stroke-width:1.0;" width="10" x="730" y="428.5469"/><rect fill="#FFFFFF" height="337.9922" style="stroke:#181818;stroke-width:1.0;" width="10" x="730" y="1329.8594"/><rect fill="#FFFFFF" height="187.7734" style="stroke:#181818;stroke-width:1.0;" width="10" x="730" y="1705.4063"/><rect fill="#FFFFFF" height="112.6641" style="stroke:#181818;stroke-width:1.0;" width="10" x="945.5" y="466.1016"/><rect fill="#FFFFFF" height="37.5547" style="stroke:#181818;stroke-width:1.0;" width="10" x="1235.5" y="503.6563"/><rect fill="#FFFFFF" height="187.7734" style="stroke:#181818;stroke-width:1.0;" width="10" x="1605" y="165.6641"/><rect fill="#FFFFFF" height="187.7734" style="stroke:#181818;stroke-width:1.0;" width="10" x="1605" y="616.3203"/><rect fill="#FFFFFF" height="413.1016" style="stroke:#181818;stroke-width:1.0;" width="10" x="1605" y="841.6484"/><rect fill="#FFFFFF" height="262.8828" style="stroke:#181818;stroke-width:1.0;" width="10" x="1605" y="1367.4141"/><rect fill="#FFFFFF" height="112.6641" style="stroke:#181818;stroke-width:1.0;" width="10" x="1605" y="1742.9609"/><rect fill="#FFFFFF" height="37.5547" style="stroke:#181818;stroke-width:1.0;" width="10" x="1954" y="203.2188"/><rect fill="#FFFFFF" height="37.5547" style="stroke:#181818;stroke-width:1.0;" width="10" x="1954" y="653.875"/><rect fill="#FFFFFF" height="37.5547" style="stroke:#181818;stroke-width:1.0;" width="10" x="1954" y="879.2031"/><rect fill="#FFFFFF" height="37.5547" style="stroke:#181818;stroke-width:1.0;" width="10" x="1954" y="1104.5313"/><rect fill="#FFFFFF" height="37.5547" style="stroke:#181818;stroke-width:1.0;" width="10" x="1954" y="1404.9688"/><rect fill="#FFFFFF" height="37.5547" style="stroke:#181818;stroke-width:1.0;" width="10" x="2223" y="278.3281"/><rect fill="#FFFFFF" height="112.6641" style="stroke:#181818;stroke-width:1.0;" width="10" x="2223" y="954.3125"/><rect fill="#FFFFFF" height="37.5547" style="stroke:#181818;stroke-width:1.0;" width="10" x="2449" y="728.9844"/><rect fill="#FFFFFF" height="37.5547" style="stroke:#181818;stroke-width:1.0;" width="10" x="2649.5" y="1179.6406"/><rect fill="#FFFFFF" height="37.5547" style="stroke:#181818;stroke-width:1.0;" width="10" x="2886" y="1480.0781"/><rect fill="#FFFFFF" height="37.5547" style="stroke:#181818;stroke-width:1.0;" width="10" x="2886" y="1780.5156"/><rect fill="#FFFFFF" height="37.5547" style="stroke:#181818;stroke-width:1.0;" width="10" x="3089" y="1555.1875"/><polygon fill="#181818" points="718,124.1094,728,128.1094,718,132.1094,722,128.1094" style="stroke:#181818;stroke-width:1.0;"/><line style="stroke:#181818;stroke-width:1.0;" x1="41" x2="724" y1="128.1094" y2="128.1094"/><text fill="#000000" font-family="sans-serif" font-size="20" font-weight="bold" lengthAdjust="spacing" textLength="13" x="48" y="121.8906">1</text><text fill="#000000" font-family="sans-serif" font-size="20" lengthAdjust="spacing" textLength="200" x="65" y="121.8906">askToScheduleVisit()</text><polygon fill="#181818" points="1593,161.6641,1603,165.6641,1593,169.6641,1597,165.6641" style="stroke:#181818;stroke-width:1.0;"/><line style="stroke:#181818;stroke-width:1.0;" x1="740" x2="1599" y1="165.6641" y2="165.6641"/><text fill="#000000" font-family="sans-serif" font-size="20" font-weight="bold" lengthAdjust="spacing" textLength="13" x="747" y="159.4453">2</text><text fill="#000000" font-family="sans-serif" font-size="20" lengthAdjust="spacing" textLength="448" x="764" y="159.4453">getAllAnnouncementsSortedByDefaultCriteria()</text><polygon fill="#181818" points="1942,199.2188,1952,203.2188,1942,207.2188,1946,203.2188" style="stroke:#181818;stroke-width:1.0;"/><line style="stroke:#181818;stroke-width:1.0;" x1="1615" x2="1948" y1="203.2188" y2="203.2188"/><text fill="#000000" font-family="sans-serif" font-size="20" font-weight="bold" lengthAdjust="spacing" textLength="13" x="1622" y="197">3</text><text fill="#000000" font-family="sans-serif" font-size="20" lengthAdjust="spacing" textLength="290" x="1639" y="197">getAnnouncementRepository()</text><polygon fill="#181818" points="1626,236.7734,1616,240.7734,1626,244.7734,1622,240.7734" style="stroke:#181818;stroke-width:1.0;"/><line style="stroke:#181818;stroke-width:1.0;stroke-dasharray:2.0,2.0;" x1="1620" x2="1958" y1="240.7734" y2="240.7734"/><text fill="#000000" font-family="sans-serif" font-size="20" font-weight="bold" lengthAdjust="spacing" textLength="13" x="1632" y="234.5547">4</text><text fill="#000000" font-family="sans-serif" font-size="20" lengthAdjust="spacing" textLength="246" x="1649" y="234.5547">AnnouncementRepository</text><polygon fill="#181818" points="2211,274.3281,2221,278.3281,2211,282.3281,2215,278.3281" style="stroke:#181818;stroke-width:1.0;"/><line style="stroke:#181818;stroke-width:1.0;" x1="1615" x2="2217" y1="278.3281" y2="278.3281"/><text fill="#000000" font-family="sans-serif" font-size="20" font-weight="bold" lengthAdjust="spacing" textLength="13" x="1622" y="272.1094">5</text><text fill="#000000" font-family="sans-serif" font-size="20" lengthAdjust="spacing" textLength="448" x="1639" y="272.1094">getAllAnnouncementsSortedByDefaultCriteria()</text><polygon fill="#181818" points="1626,311.8828,1616,315.8828,1626,319.8828,1622,315.8828" style="stroke:#181818;stroke-width:1.0;"/><line style="stroke:#181818;stroke-width:1.0;stroke-dasharray:2.0,2.0;" x1="1620" x2="2227" y1="315.8828" y2="315.8828"/><text fill="#000000" font-family="sans-serif" font-size="20" font-weight="bold" lengthAdjust="spacing" textLength="13" x="1632" y="309.6641">6</text><text fill="#000000" font-family="sans-serif" font-size="20" lengthAdjust="spacing" textLength="151" x="1649" y="309.6641">announcements</text><polygon fill="#181818" points="751,349.4375,741,353.4375,751,357.4375,747,353.4375" style="stroke:#181818;stroke-width:1.0;"/><line style="stroke:#181818;stroke-width:1.0;stroke-dasharray:2.0,2.0;" x1="745" x2="1609" y1="353.4375" y2="353.4375"/><text fill="#000000" font-family="sans-serif" font-size="20" font-weight="bold" lengthAdjust="spacing" textLength="13" x="757" y="347.2188">7</text><text fill="#000000" font-family="sans-serif" font-size="20" lengthAdjust="spacing" textLength="151" x="774" y="347.2188">announcements</text><polygon fill="#181818" points="52,386.9922,42,390.9922,52,394.9922,48,390.9922" style="stroke:#181818;stroke-width:1.0;"/><line style="stroke:#181818;stroke-width:1.0;stroke-dasharray:2.0,2.0;" x1="46" x2="734" y1="390.9922" y2="390.9922"/><text fill="#000000" font-family="sans-serif" font-size="20" font-weight="bold" lengthAdjust="spacing" textLength="13" x="58" y="384.7734">8</text><text fill="#000000" font-family="sans-serif" font-size="20" lengthAdjust="spacing" textLength="368" x="75" y="384.7734">showAnnouncements(announcements)</text><polygon fill="#181818" points="718,424.5469,728,428.5469,718,432.5469,722,428.5469" style="stroke:#181818;stroke-width:1.0;"/><line style="stroke:#181818;stroke-width:1.0;" x1="41" x2="724" y1="428.5469" y2="428.5469"/><text fill="#000000" font-family="sans-serif" font-size="20" font-weight="bold" lengthAdjust="spacing" textLength="13" x="48" y="422.3281">9</text><text fill="#000000" font-family="sans-serif" font-size="20" lengthAdjust="spacing" textLength="213" x="65" y="422.3281">selectAnnouncement()</text><polygon fill="#181818" points="933.5,462.1016,943.5,466.1016,933.5,470.1016,937.5,466.1016" style="stroke:#181818;stroke-width:1.0;"/><line style="stroke:#181818;stroke-width:1.0;" x1="740" x2="939.5" y1="466.1016" y2="466.1016"/><text fill="#000000" font-family="sans-serif" font-size="20" font-weight="bold" lengthAdjust="spacing" textLength="26" x="747" y="459.8828">10</text><text fill="#000000" font-family="sans-serif" font-size="20" lengthAdjust="spacing" textLength="140" x="777" y="459.8828">getUserEmail()</text><polygon fill="#181818" points="1223.5,499.6563,1233.5,503.6563,1223.5,507.6563,1227.5,503.6563" style="stroke:#181818;stroke-width:1.0;"/><line style="stroke:#181818;stroke-width:1.0;" x1="955.5" x2="1229.5" y1="503.6563" y2="503.6563"/><text fill="#000000" font-family="sans-serif" font-size="20" font-weight="bold" lengthAdjust="spacing" textLength="26" x="962.5" y="497.4375">11</text><text fill="#000000" font-family="sans-serif" font-size="20" lengthAdjust="spacing" textLength="231" x="992.5" y="497.4375">getCurrentUserSession()</text><polygon fill="#181818" points="966.5,537.2109,956.5,541.2109,966.5,545.2109,962.5,541.2109" style="stroke:#181818;stroke-width:1.0;"/><line style="stroke:#181818;stroke-width:1.0;stroke-dasharray:2.0,2.0;" x1="960.5" x2="1239.5" y1="541.2109" y2="541.2109"/><text fill="#000000" font-family="sans-serif" font-size="20" font-weight="bold" lengthAdjust="spacing" textLength="26" x="972.5" y="534.9922">12</text><text fill="#000000" font-family="sans-serif" font-size="20" lengthAdjust="spacing" textLength="113" x="1002.5" y="534.9922">userSession</text><polygon fill="#181818" points="751,574.7656,741,578.7656,751,582.7656,747,578.7656" style="stroke:#181818;stroke-width:1.0;"/><line style="stroke:#181818;stroke-width:1.0;stroke-dasharray:2.0,2.0;" x1="745" x2="949.5" y1="578.7656" y2="578.7656"/><text fill="#000000" font-family="sans-serif" font-size="20" font-weight="bold" lengthAdjust="spacing" textLength="26" x="757" y="572.5469">13</text><text fill="#000000" font-family="sans-serif" font-size="20" lengthAdjust="spacing" textLength="105" x="787" y="572.5469">clientEmail</text><polygon fill="#181818" points="1593,612.3203,1603,616.3203,1593,620.3203,1597,616.3203" style="stroke:#181818;stroke-width:1.0;"/><line style="stroke:#181818;stroke-width:1.0;" x1="740" x2="1599" y1="616.3203" y2="616.3203"/><text fill="#000000" font-family="sans-serif" font-size="20" font-weight="bold" lengthAdjust="spacing" textLength="26" x="747" y="610.1016">14</text><text fill="#000000" font-family="sans-serif" font-size="20" lengthAdjust="spacing" textLength="215" x="777" y="610.1016">getCurrentUserName()</text><polygon fill="#181818" points="1942,649.875,1952,653.875,1942,657.875,1946,653.875" style="stroke:#181818;stroke-width:1.0;"/><line style="stroke:#181818;stroke-width:1.0;" x1="1615" x2="1948" y1="653.875" y2="653.875"/><text fill="#000000" font-family="sans-serif" font-size="20" font-weight="bold" lengthAdjust="spacing" textLength="26" x="1622" y="647.6563">15</text><text fill="#000000" font-family="sans-serif" font-size="20" lengthAdjust="spacing" textLength="202" x="1652" y="647.6563">getClientRepository()</text><polygon fill="#181818" points="1626,687.4297,1616,691.4297,1626,695.4297,1622,691.4297" style="stroke:#181818;stroke-width:1.0;"/><line style="stroke:#181818;stroke-width:1.0;stroke-dasharray:2.0,2.0;" x1="1620" x2="1958" y1="691.4297" y2="691.4297"/><text fill="#000000" font-family="sans-serif" font-size="20" font-weight="bold" lengthAdjust="spacing" textLength="26" x="1632" y="685.2109">16</text><text fill="#000000" font-family="sans-serif" font-size="20" lengthAdjust="spacing" textLength="158" x="1662" y="685.2109">ClientRepository</text><polygon fill="#181818" points="2437,724.9844,2447,728.9844,2437,732.9844,2441,728.9844" style="stroke:#181818;stroke-width:1.0;"/><line style="stroke:#181818;stroke-width:1.0;" x1="1615" x2="2443" y1="728.9844" y2="728.9844"/><text fill="#000000" font-family="sans-serif" font-size="20" font-weight="bold" lengthAdjust="spacing" textLength="26" x="1622" y="722.7656">17</text><text fill="#000000" font-family="sans-serif" font-size="20" lengthAdjust="spacing" textLength="280" x="1652" y="722.7656">getClientByEmail(clientEmail)</text><polygon fill="#181818" points="1626,762.5391,1616,766.5391,1626,770.5391,1622,766.5391" style="stroke:#181818;stroke-width:1.0;"/><line style="stroke:#181818;stroke-width:1.0;stroke-dasharray:2.0,2.0;" x1="1620" x2="2453" y1="766.5391" y2="766.5391"/><text fill="#000000" font-family="sans-serif" font-size="20" font-weight="bold" lengthAdjust="spacing" textLength="26" x="1632" y="760.3203">18</text><text fill="#000000" font-family="sans-serif" font-size="20" lengthAdjust="spacing" textLength="52" x="1662" y="760.3203">client</text><polygon fill="#181818" points="751,800.0938,741,804.0938,751,808.0938,747,804.0938" style="stroke:#181818;stroke-width:1.0;"/><line style="stroke:#181818;stroke-width:1.0;stroke-dasharray:2.0,2.0;" x1="745" x2="1609" y1="804.0938" y2="804.0938"/><text fill="#000000" font-family="sans-serif" font-size="20" font-weight="bold" lengthAdjust="spacing" textLength="26" x="757" y="797.875">19</text><text fill="#000000" font-family="sans-serif" font-size="20" lengthAdjust="spacing" textLength="108" x="787" y="797.875">clientName</text><polygon fill="#181818" points="1593,837.6484,1603,841.6484,1593,845.6484,1597,841.6484" style="stroke:#181818;stroke-width:1.0;"/><line style="stroke:#181818;stroke-width:1.0;" x1="740" x2="1599" y1="841.6484" y2="841.6484"/><text fill="#000000" font-family="sans-serif" font-size="20" font-weight="bold" lengthAdjust="spacing" textLength="26" x="747" y="835.4297">20</text><text fill="#000000" font-family="sans-serif" font-size="20" lengthAdjust="spacing" textLength="375" x="777" y="835.4297">selectAnnouncement(announcementID)</text><polygon fill="#181818" points="1942,875.2031,1952,879.2031,1942,883.2031,1946,879.2031" style="stroke:#181818;stroke-width:1.0;"/><line style="stroke:#181818;stroke-width:1.0;" x1="1615" x2="1948" y1="879.2031" y2="879.2031"/><text fill="#000000" font-family="sans-serif" font-size="20" font-weight="bold" lengthAdjust="spacing" textLength="26" x="1622" y="872.9844">21</text><text fill="#000000" font-family="sans-serif" font-size="20" lengthAdjust="spacing" textLength="290" x="1652" y="872.9844">getAnnouncementRepository()</text><polygon fill="#181818" points="1626,912.7578,1616,916.7578,1626,920.7578,1622,916.7578" style="stroke:#181818;stroke-width:1.0;"/><line style="stroke:#181818;stroke-width:1.0;stroke-dasharray:2.0,2.0;" x1="1620" x2="1958" y1="916.7578" y2="916.7578"/><text fill="#000000" font-family="sans-serif" font-size="20" font-weight="bold" lengthAdjust="spacing" textLength="26" x="1632" y="910.5391">22</text><text fill="#000000" font-family="sans-serif" font-size="20" lengthAdjust="spacing" textLength="246" x="1662" y="910.5391">AnnouncementRepository</text><polygon fill="#181818" points="2211,950.3125,2221,954.3125,2211,958.3125,2215,954.3125" style="stroke:#181818;stroke-width:1.0;"/><line style="stroke:#181818;stroke-width:1.0;" x1="1615" x2="2217" y1="954.3125" y2="954.3125"/><text fill="#000000" font-family="sans-serif" font-size="20" font-weight="bold" lengthAdjust="spacing" textLength="26" x="1622" y="948.0938">23</text><text fill="#000000" font-family="sans-serif" font-size="20" lengthAdjust="spacing" textLength="350" x="1652" y="948.0938">getAnnouncement(announcementID)</text><polygon fill="#181818" points="1626,987.8672,1616,991.8672,1626,995.8672,1622,991.8672" style="stroke:#181818;stroke-width:1.0;"/><line style="stroke:#181818;stroke-width:1.0;stroke-dasharray:2.0,2.0;" x1="1620" x2="2222" y1="991.8672" y2="991.8672"/><text fill="#000000" font-family="sans-serif" font-size="20" font-weight="bold" lengthAdjust="spacing" textLength="26" x="1632" y="985.6484">24</text><text fill="#000000" font-family="sans-serif" font-size="20" lengthAdjust="spacing" textLength="141" x="1662" y="985.6484">announcement</text><polygon fill="#181818" points="2211,1025.4219,2221,1029.4219,2211,1033.4219,2215,1029.4219" style="stroke:#181818;stroke-width:1.0;"/><line style="stroke:#181818;stroke-width:1.0;" x1="1615" x2="2217" y1="1029.4219" y2="1029.4219"/><text fill="#000000" font-family="sans-serif" font-size="20" font-weight="bold" lengthAdjust="spacing" textLength="26" x="1622" y="1023.2031">25</text><text fill="#000000" font-family="sans-serif" font-size="20" lengthAdjust="spacing" textLength="488" x="1652" y="1023.2031">getAgentEmailFromAnnouncement(announcement)</text><polygon fill="#181818" points="1626,1062.9766,1616,1066.9766,1626,1070.9766,1622,1066.9766" style="stroke:#181818;stroke-width:1.0;"/><line style="stroke:#181818;stroke-width:1.0;stroke-dasharray:2.0,2.0;" x1="1620" x2="2227" y1="1066.9766" y2="1066.9766"/><text fill="#000000" font-family="sans-serif" font-size="20" font-weight="bold" lengthAdjust="spacing" textLength="26" x="1632" y="1060.7578">26</text><text fill="#000000" font-family="sans-serif" font-size="20" lengthAdjust="spacing" textLength="106" x="1662" y="1060.7578">agentEmail</text><polygon fill="#181818" points="1942,1100.5313,1952,1104.5313,1942,1108.5313,1946,1104.5313" style="stroke:#181818;stroke-width:1.0;"/><line style="stroke:#181818;stroke-width:1.0;" x1="1615" x2="1948" y1="1104.5313" y2="1104.5313"/><text fill="#000000" font-family="sans-serif" font-size="20" font-weight="bold" lengthAdjust="spacing" textLength="26" x="1622" y="1098.3125">27</text><text fill="#000000" font-family="sans-serif" font-size="20" lengthAdjust="spacing" textLength="239" x="1652" y="1098.3125">getEmployeeRepository()</text><polygon fill="#181818" points="1626,1138.0859,1616,1142.0859,1626,1146.0859,1622,1142.0859" style="stroke:#181818;stroke-width:1.0;"/><line style="stroke:#181818;stroke-width:1.0;stroke-dasharray:2.0,2.0;" x1="1620" x2="1958" y1="1142.0859" y2="1142.0859"/><text fill="#000000" font-family="sans-serif" font-size="20" font-weight="bold" lengthAdjust="spacing" textLength="26" x="1632" y="1135.8672">28</text><text fill="#000000" font-family="sans-serif" font-size="20" lengthAdjust="spacing" textLength="195" x="1662" y="1135.8672">EmployeeRepository</text><polygon fill="#181818" points="2637.5,1175.6406,2647.5,1179.6406,2637.5,1183.6406,2641.5,1179.6406" style="stroke:#181818;stroke-width:1.0;"/><line style="stroke:#181818;stroke-width:1.0;" x1="1615" x2="2643.5" y1="1179.6406" y2="1179.6406"/><text fill="#000000" font-family="sans-serif" font-size="20" font-weight="bold" lengthAdjust="spacing" textLength="26" x="1622" y="1173.4219">29</text><text fill="#000000" font-family="sans-serif" font-size="20" lengthAdjust="spacing" textLength="318" x="1652" y="1173.4219">getEmployeeByEmail(agentEmail)</text><polygon fill="#181818" points="1626,1213.1953,1616,1217.1953,1626,1221.1953,1622,1217.1953" style="stroke:#181818;stroke-width:1.0;"/><line style="stroke:#181818;stroke-width:1.0;stroke-dasharray:2.0,2.0;" x1="1620" x2="2653.5" y1="1217.1953" y2="1217.1953"/><text fill="#000000" font-family="sans-serif" font-size="20" font-weight="bold" lengthAdjust="spacing" textLength="26" x="1632" y="1210.9766">30</text><text fill="#000000" font-family="sans-serif" font-size="20" lengthAdjust="spacing" textLength="53" x="1662" y="1210.9766">agent</text><polygon fill="#181818" points="751,1250.75,741,1254.75,751,1258.75,747,1254.75" style="stroke:#181818;stroke-width:1.0;"/><line style="stroke:#181818;stroke-width:1.0;stroke-dasharray:2.0,2.0;" x1="745" x2="1609" y1="1254.75" y2="1254.75"/><text fill="#000000" font-family="sans-serif" font-size="20" font-weight="bold" lengthAdjust="spacing" textLength="26" x="757" y="1248.5313">31</text><text fill="#000000" font-family="sans-serif" font-size="20" lengthAdjust="spacing" textLength="226" x="787" y="1248.5313">announcement selected</text><polygon fill="#181818" points="52,1288.3047,42,1292.3047,52,1296.3047,48,1292.3047" style="stroke:#181818;stroke-width:1.0;"/><line style="stroke:#181818;stroke-width:1.0;stroke-dasharray:2.0,2.0;" x1="46" x2="734" y1="1292.3047" y2="1292.3047"/><text fill="#000000" font-family="sans-serif" font-size="20" font-weight="bold" lengthAdjust="spacing" textLength="26" x="58" y="1286.0859">32</text><text fill="#000000" font-family="sans-serif" font-size="20" lengthAdjust="spacing" textLength="414" x="88" y="1286.0859">requestData(visitDate, startTime, endTime)</text><polygon fill="#181818" points="718,1325.8594,728,1329.8594,718,1333.8594,722,1329.8594" style="stroke:#181818;stroke-width:1.0;"/><line style="stroke:#181818;stroke-width:1.0;" x1="41" x2="724" y1="1329.8594" y2="1329.8594"/><text fill="#000000" font-family="sans-serif" font-size="20" font-weight="bold" lengthAdjust="spacing" textLength="26" x="48" y="1323.6406">33</text><text fill="#000000" font-family="sans-serif" font-size="20" lengthAdjust="spacing" textLength="415" x="78" y="1323.6406">provideData(visitDate, startTime, endTime)</text><polygon fill="#181818" points="1593,1363.4141,1603,1367.4141,1593,1371.4141,1597,1367.4141" style="stroke:#181818;stroke-width:1.0;"/><line style="stroke:#181818;stroke-width:1.0;" x1="740" x2="1599" y1="1367.4141" y2="1367.4141"/><text fill="#000000" font-family="sans-serif" font-size="20" font-weight="bold" lengthAdjust="spacing" textLength="26" x="747" y="1361.1953">34</text><text fill="#000000" font-family="sans-serif" font-size="20" lengthAdjust="spacing" textLength="763" x="777" y="1361.1953">isOverlappingWithExistingSchedules(clientEmail, visitDate, startTime, endTime)</text><polygon fill="#181818" points="1942,1400.9688,1952,1404.9688,1942,1408.9688,1946,1404.9688" style="stroke:#181818;stroke-width:1.0;"/><line style="stroke:#181818;stroke-width:1.0;" x1="1615" x2="1948" y1="1404.9688" y2="1404.9688"/><text fill="#000000" font-family="sans-serif" font-size="20" font-weight="bold" lengthAdjust="spacing" textLength="26" x="1622" y="1398.75">35</text><text fill="#000000" font-family="sans-serif" font-size="20" lengthAdjust="spacing" textLength="274" x="1652" y="1398.75">getVisitScheduleRepository()</text><polygon fill="#181818" points="1626,1438.5234,1616,1442.5234,1626,1446.5234,1622,1442.5234" style="stroke:#181818;stroke-width:1.0;"/><line style="stroke:#181818;stroke-width:1.0;stroke-dasharray:2.0,2.0;" x1="1620" x2="1958" y1="1442.5234" y2="1442.5234"/><text fill="#000000" font-family="sans-serif" font-size="20" font-weight="bold" lengthAdjust="spacing" textLength="26" x="1632" y="1436.3047">36</text><text fill="#000000" font-family="sans-serif" font-size="20" lengthAdjust="spacing" textLength="230" x="1662" y="1436.3047">VisitScheduleRepository</text><polygon fill="#181818" points="2874,1476.0781,2884,1480.0781,2874,1484.0781,2878,1480.0781" style="stroke:#181818;stroke-width:1.0;"/><line style="stroke:#181818;stroke-width:1.0;" x1="1615" x2="2880" y1="1480.0781" y2="1480.0781"/><text fill="#000000" font-family="sans-serif" font-size="20" font-weight="bold" lengthAdjust="spacing" textLength="26" x="1622" y="1473.8594">37</text><text fill="#000000" font-family="sans-serif" font-size="20" lengthAdjust="spacing" textLength="583" x="1652" y="1473.8594">getVisitSchedulesByUserEmailAndDate(clientEmail, visitDate)</text><polygon fill="#181818" points="1626,1513.6328,1616,1517.6328,1626,1521.6328,1622,1517.6328" style="stroke:#181818;stroke-width:1.0;"/><line style="stroke:#181818;stroke-width:1.0;stroke-dasharray:2.0,2.0;" x1="1620" x2="2890" y1="1517.6328" y2="1517.6328"/><text fill="#000000" font-family="sans-serif" font-size="20" font-weight="bold" lengthAdjust="spacing" textLength="26" x="1632" y="1511.4141">38</text><text fill="#000000" font-family="sans-serif" font-size="20" lengthAdjust="spacing" textLength="135" x="1662" y="1511.4141">visitSchedules</text><polygon fill="#181818" points="3077,1551.1875,3087,1555.1875,3077,1559.1875,3081,1555.1875" style="stroke:#181818;stroke-width:1.0;"/><line style="stroke:#181818;stroke-width:1.0;" x1="1615" x2="3083" y1="1555.1875" y2="1555.1875"/><text fill="#000000" font-family="sans-serif" font-size="20" font-weight="bold" lengthAdjust="spacing" textLength="26" x="1622" y="1548.9688">39</text><text fill="#000000" font-family="sans-serif" font-size="20" lengthAdjust="spacing" textLength="337" x="1652" y="1548.9688">isOverlapping(startTime, endTime)</text><polygon fill="#181818" points="1626,1588.7422,1616,1592.7422,1626,1596.7422,1622,1592.7422" style="stroke:#181818;stroke-width:1.0;"/><line style="stroke:#181818;stroke-width:1.0;stroke-dasharray:2.0,2.0;" x1="1620" x2="3093" y1="1592.7422" y2="1592.7422"/><text fill="#000000" font-family="sans-serif" font-size="20" font-weight="bold" lengthAdjust="spacing" textLength="26" x="1632" y="1586.5234">40</text><text fill="#000000" font-family="sans-serif" font-size="20" lengthAdjust="spacing" textLength="194" x="1662" y="1586.5234">isOverlapping result</text><polygon fill="#181818" points="751,1626.2969,741,1630.2969,751,1634.2969,747,1630.2969" style="stroke:#181818;stroke-width:1.0;"/><line style="stroke:#181818;stroke-width:1.0;stroke-dasharray:2.0,2.0;" x1="745" x2="1609" y1="1630.2969" y2="1630.2969"/><text fill="#000000" font-family="sans-serif" font-size="20" font-weight="bold" lengthAdjust="spacing" textLength="26" x="757" y="1624.0781">41</text><text fill="#000000" font-family="sans-serif" font-size="20" lengthAdjust="spacing" textLength="130" x="787" y="1624.0781">overlapResult</text><polygon fill="#181818" points="52,1663.8516,42,1667.8516,52,1671.8516,48,1667.8516" style="stroke:#181818;stroke-width:1.0;"/><line style="stroke:#181818;stroke-width:1.0;stroke-dasharray:2.0,2.0;" x1="46" x2="734" y1="1667.8516" y2="1667.8516"/><text fill="#000000" font-family="sans-serif" font-size="20" font-weight="bold" lengthAdjust="spacing" textLength="26" x="58" y="1661.6328">42</text><text fill="#000000" font-family="sans-serif" font-size="20" lengthAdjust="spacing" textLength="635" x="88" y="1661.6328">displayConfirmation(overlapResult, visitDate, startTime, endTime)</text><polygon fill="#181818" points="718,1701.4063,728,1705.4063,718,1709.4063,722,1705.4063" style="stroke:#181818;stroke-width:1.0;"/><line style="stroke:#181818;stroke-width:1.0;" x1="41" x2="724" y1="1705.4063" y2="1705.4063"/><text fill="#000000" font-family="sans-serif" font-size="20" font-weight="bold" lengthAdjust="spacing" textLength="26" x="48" y="1699.1875">43</text><text fill="#000000" font-family="sans-serif" font-size="20" lengthAdjust="spacing" textLength="256" x="78" y="1699.1875">confirmAndSendMessage()</text><polygon fill="#181818" points="1593,1738.9609,1603,1742.9609,1593,1746.9609,1597,1742.9609" style="stroke:#181818;stroke-width:1.0;"/><line style="stroke:#181818;stroke-width:1.0;" x1="740" x2="1599" y1="1742.9609" y2="1742.9609"/><text fill="#000000" font-family="sans-serif" font-size="20" font-weight="bold" lengthAdjust="spacing" textLength="26" x="747" y="1736.7422">44</text><text fill="#000000" font-family="sans-serif" font-size="20" lengthAdjust="spacing" textLength="816" x="777" y="1736.7422">saveVisitSchedule(announcementID, clientEmail, visitDate, startTime, endTime, false)</text><polygon fill="#181818" points="2874,1776.5156,2884,1780.5156,2874,1784.5156,2878,1780.5156" style="stroke:#181818;stroke-width:1.0;"/><line style="stroke:#181818;stroke-width:1.0;" x1="1615" x2="2880" y1="1780.5156" y2="1780.5156"/><text fill="#000000" font-family="sans-serif" font-size="20" font-weight="bold" lengthAdjust="spacing" textLength="26" x="1622" y="1774.2969">45</text><text fill="#000000" font-family="sans-serif" font-size="20" lengthAdjust="spacing" textLength="304" x="1652" y="1774.2969">addVisitSchedule(visitSchedule)</text><polygon fill="#181818" points="1626,1814.0703,1616,1818.0703,1626,1822.0703,1622,1818.0703" style="stroke:#181818;stroke-width:1.0;"/><line style="stroke:#181818;stroke-width:1.0;stroke-dasharray:2.0,2.0;" x1="1620" x2="2890" y1="1818.0703" y2="1818.0703"/><text fill="#000000" font-family="sans-serif" font-size="20" font-weight="bold" lengthAdjust="spacing" textLength="26" x="1632" y="1811.8516">46</text><text fill="#000000" font-family="sans-serif" font-size="20" lengthAdjust="spacing" textLength="285" x="1662" y="1811.8516">Confirmation of the operation</text><polygon fill="#181818" points="751,1851.625,741,1855.625,751,1859.625,747,1855.625" style="stroke:#181818;stroke-width:1.0;"/><line style="stroke:#181818;stroke-width:1.0;" x1="745" x2="1609" y1="1855.625" y2="1855.625"/><text fill="#000000" font-family="sans-serif" font-size="20" font-weight="bold" lengthAdjust="spacing" textLength="26" x="757" y="1849.4063">47</text><text fill="#000000" font-family="sans-serif" font-size="20" lengthAdjust="spacing" textLength="251" x="787" y="1849.4063">confirmMessageToAgent()</text><polygon fill="#181818" points="52,1889.1797,42,1893.1797,52,1897.1797,48,1893.1797" style="stroke:#181818;stroke-width:1.0;"/><line style="stroke:#181818;stroke-width:1.0;stroke-dasharray:2.0,2.0;" x1="46" x2="734" y1="1893.1797" y2="1893.1797"/><text fill="#000000" font-family="sans-serif" font-size="20" font-weight="bold" lengthAdjust="spacing" textLength="26" x="58" y="1886.9609">48</text><text fill="#000000" font-family="sans-serif" font-size="20" lengthAdjust="spacing" textLength="271" x="88" y="1886.9609">showConfirmationMessage()</text><!--SRC=[xLWxRzim4DxrAuXC3c03HSUWA90u2P2XBH0dxSnAPvim9QeavLJzzJr9baLIf1vkndg99FA-UtrtF4OTM9PJILCkuWCa984jBRX-59dUi3z0Fdw8LBk5f28JyLwA58YM1HWhEOqFT0SRNN8W4c9DinqtDwWzJSGRotPaIxc2AAA55bcH_WI9px4MabojEODCNn6gIFCOeQncCSjffidLTwQOtiHxI0eEhq_rljSdUyzjeVSeo6AgcSZMw8KKd8EiDzkBGuBFa0jK9cJf4UmM1-npL7UljimPYu6wCLzgAVE3OswMYIAB8KMpN6EzIxPu4rv7qFreYpoaEHSbW2FK_pmG54Ssi3O0K8krBpLls95gQEaIDN_9wZCIWzpWviEBQBVNG8lhYE3lB8ZygTvnDyfqIKBP7UXRpirWgesG6fAxyhwfaRLa6YIZ9qmBryXtksQWeoupjITjthmPu9O2Ynhc3WjuvNeL84ShdC2m0ji7FzYbiRFS6x6p-WMqzrocfXa-JmTq8Iy-hLOpyPpSLzogR6geUOETKBnPeLbOYDUH0ONqZ7giLi2nmPeGWwoscrUJdLS5yY6bZFkuwxJ9Sxnjd1woou1r8IMkLgese1Jk22Oxr5wjT8UKhNm-5frMRyh7DBhEjh6FwrJKeOi6CGVQYX6OhpI5TseVRlT-vyRHEnmkQnakZ6dxNTbGqeXnm8UWCOx2kdRx6Xi5bf1PlZvmNoDeOAeKHkCTm0cdfuRDBl1q__zCyPmfKy8rznXnw1BKR-eB0OpPlsjv_OWpTD2RwylisrcDQTuvDvLF_MdFuT8qFerpoZDM1hmAAh5zwGFQ7hNDfmlZW6CZrZafywgkzOHy6i4VcqfEtGMIQDva8k5N0KhVKqqNnsfQnYTO4gLn7dzXAJv2bbGFlHd5cL1oAOuiWIb04wTnfhuTGNAQvtY5_C7q_k4tKngVs-bUcSV6aapG-g-zDN1xUUVc6heZNTPT0sWUXzHTUHuIRxEa2cKWmW5_nmpt54hOkgDbMgXiPgh4UBIRNOOjXaXZkNc-Z0xu5TA21QVmBXHonmljgttHG3vtQDDhFc4gvxJ4NLicqtfqNLXuexKqt0hY1XWfj469BpYIO-URVWjNz0XMMfrpVqccb_so-TVJ9TKVPYPD4ji-YweUNMCadLmJPig8s1AyVH2HWxHlRJFAmtRPpDufRI-Ydc1EsPjtupMjxLXWS-Sl]--></g></svg>