<?xml version="1.0" encoding="UTF-8" standalone="no"?><svg xmlns="http://www.w3.org/2000/svg" xmlns:xlink="http://www.w3.org/1999/xlink" contentStyleType="text/css" height="1272px" preserveAspectRatio="none" style="width:3900px;height:1272px;background:#FFFFFF;" version="1.1" viewBox="0 0 3900 1272" width="3900px" zoomAndPan="magnify"><defs/><g><rect fill="#FFFFFF" height="1075.4219" style="stroke:#181818;stroke-width:1.0;" width="10" x="121.5" y="98.5547"/><rect fill="#FFFFFF" height="227.3281" style="stroke:#181818;stroke-width:1.0;" width="10" x="1195.5" y="128.1094"/><rect fill="#FFFFFF" height="85.1094" style="stroke:#181818;stroke-width:1.0;" width="10" x="1195.5" y="392.9922"/><rect fill="#FFFFFF" height="667.3203" style="stroke:#181818;stroke-width:1.0;" width="10" x="1195.5" y="507.6563"/><rect fill="#FFFFFF" height="42.5547" style="stroke:#181818;stroke-width:1.0;" width="10" x="1200.5" y="995.7578"/><rect fill="#FFFFFF" height="57.5547" style="stroke:#181818;stroke-width:1.0;" width="10" x="1200.5" y="1116.4219"/><rect fill="#FFFFFF" height="119.6641" style="stroke:#181818;stroke-width:1.0;" width="10" x="2374.5" y="198.2188"/><rect fill="#FFFFFF" height="372.4375" style="stroke:#181818;stroke-width:1.0;" width="10" x="2374.5" y="577.7656"/><rect fill="#FFFFFF" height="559.6563" style="stroke:#181818;stroke-width:1.0;" width="10" x="3538.5" y="615.3203"/><rect fill="#FFFFFF" height="48.5547" style="stroke:#181818;stroke-width:1.0;" width="10" x="3543.5" y="660.875"/><rect fill="#FFFFFF" height="48.5547" style="stroke:#181818;stroke-width:1.0;" width="10" x="3543.5" y="761.9844"/><rect fill="#FFFFFF" height="42.5547" style="stroke:#181818;stroke-width:1.0;" width="10" x="3543.5" y="863.0938"/><rect fill="#FFFFFF" height="37.5547" style="stroke:#181818;stroke-width:1.0;" width="10" x="3783.5" y="235.7734"/><rect fill="none" height="138.2188" style="stroke:#000000;stroke-width:1.5;" width="2809" x="1085" y="143.1094"/><rect fill="none" height="63.1094" style="stroke:#000000;stroke-width:1.5;" width="1306" x="10" y="407.9922"/><rect fill="none" height="390.9922" style="stroke:#000000;stroke-width:1.5;" width="2704.5" x="1085" y="522.6563"/><rect fill="none" height="113.6641" style="stroke:#000000;stroke-width:1.5;" width="1725.5" x="10" y="1053.3125"/><line style="stroke:#181818;stroke-width:0.5;stroke-dasharray:5.0,5.0;" x1="126" x2="126" y1="88.5547" y2="1183.9766"/><line style="stroke:#181818;stroke-width:0.5;stroke-dasharray:5.0,5.0;" x1="1200" x2="1200" y1="88.5547" y2="1183.9766"/><line style="stroke:#181818;stroke-width:0.5;stroke-dasharray:5.0,5.0;" x1="2379" x2="2379" y1="88.5547" y2="1183.9766"/><line style="stroke:#181818;stroke-width:0.5;stroke-dasharray:5.0,5.0;" x1="3543" x2="3543" y1="88.5547" y2="1183.9766"/><line style="stroke:#181818;stroke-width:0.5;stroke-dasharray:5.0,5.0;" x1="3788" x2="3788" y1="88.5547" y2="1183.9766"/><text fill="#000000" font-family="sans-serif" font-size="20" lengthAdjust="spacing" textLength="207" x="20" y="84.3359">System Administrator</text><ellipse cx="126.5" cy="13.5" fill="#E3E3E3" rx="8" ry="8" style="stroke:#181818;stroke-width:0.5;"/><path d="M126.5,21.5 L126.5,48.5 M113.5,29.5 L139.5,29.5 M126.5,48.5 L113.5,63.5 M126.5,48.5 L139.5,63.5 " fill="none" style="stroke:#181818;stroke-width:0.5;"/><text fill="#000000" font-family="sans-serif" font-size="20" lengthAdjust="spacing" textLength="207" x="20" y="1202.3125">System Administrator</text><ellipse cx="126.5" cy="1215.0313" fill="#E3E3E3" rx="8" ry="8" style="stroke:#181818;stroke-width:0.5;"/><path d="M126.5,1223.0313 L126.5,1250.0313 M113.5,1231.0313 L139.5,1231.0313 M126.5,1250.0313 L113.5,1265.0313 M126.5,1250.0313 L139.5,1265.0313 " fill="none" style="stroke:#181818;stroke-width:0.5;"/><rect fill="#E3E3E3" height="37.5547" rx="2.5" ry="2.5" style="stroke:#181818;stroke-width:0.5;" width="211" x="1095" y="50"/><text fill="#000000" font-family="sans-serif" font-size="20" lengthAdjust="spacing" textLength="197" x="1102" y="76.3359">:RegisterEmployeeUI</text><rect fill="#E3E3E3" height="37.5547" rx="2.5" ry="2.5" style="stroke:#181818;stroke-width:0.5;" width="211" x="1095" y="1182.9766"/><text fill="#000000" font-family="sans-serif" font-size="20" lengthAdjust="spacing" textLength="197" x="1102" y="1209.3125">:RegisterEmployeeUI</text><rect fill="#E3E3E3" height="37.5547" rx="2.5" ry="2.5" style="stroke:#181818;stroke-width:0.5;" width="287" x="2236" y="50"/><text fill="#000000" font-family="sans-serif" font-size="20" lengthAdjust="spacing" textLength="273" x="2243" y="76.3359">:RegisterEmployeeController</text><rect fill="#E3E3E3" height="37.5547" rx="2.5" ry="2.5" style="stroke:#181818;stroke-width:0.5;" width="287" x="2236" y="1182.9766"/><text fill="#000000" font-family="sans-serif" font-size="20" lengthAdjust="spacing" textLength="273" x="2243" y="1209.3125">:RegisterEmployeeController</text><rect fill="#E3E3E3" height="37.5547" rx="2.5" ry="2.5" style="stroke:#181818;stroke-width:0.5;" width="215" x="3436" y="50"/><text fill="#000000" font-family="sans-serif" font-size="20" lengthAdjust="spacing" textLength="201" x="3443" y="76.3359">:EmployeeRepository</text><rect fill="#E3E3E3" height="37.5547" rx="2.5" ry="2.5" style="stroke:#181818;stroke-width:0.5;" width="215" x="3436" y="1182.9766"/><text fill="#000000" font-family="sans-serif" font-size="20" lengthAdjust="spacing" textLength="201" x="3443" y="1209.3125">:EmployeeRepository</text><rect fill="#E3E3E3" height="37.5547" rx="2.5" ry="2.5" style="stroke:#181818;stroke-width:0.5;" width="191" x="3693" y="50"/><text fill="#000000" font-family="sans-serif" font-size="20" lengthAdjust="spacing" textLength="177" x="3700" y="76.3359">:AgencyRepository</text><rect fill="#E3E3E3" height="37.5547" rx="2.5" ry="2.5" style="stroke:#181818;stroke-width:0.5;" width="191" x="3693" y="1182.9766"/><text fill="#000000" font-family="sans-serif" font-size="20" lengthAdjust="spacing" textLength="177" x="3700" y="1209.3125">:AgencyRepository</text><rect fill="#FFFFFF" height="1075.4219" style="stroke:#181818;stroke-width:1.0;" width="10" x="121.5" y="98.5547"/><rect fill="#FFFFFF" height="227.3281" style="stroke:#181818;stroke-width:1.0;" width="10" x="1195.5" y="128.1094"/><rect fill="#FFFFFF" height="85.1094" style="stroke:#181818;stroke-width:1.0;" width="10" x="1195.5" y="392.9922"/><rect fill="#FFFFFF" height="667.3203" style="stroke:#181818;stroke-width:1.0;" width="10" x="1195.5" y="507.6563"/><rect fill="#FFFFFF" height="42.5547" style="stroke:#181818;stroke-width:1.0;" width="10" x="1200.5" y="995.7578"/><rect fill="#FFFFFF" height="57.5547" style="stroke:#181818;stroke-width:1.0;" width="10" x="1200.5" y="1116.4219"/><rect fill="#FFFFFF" height="119.6641" style="stroke:#181818;stroke-width:1.0;" width="10" x="2374.5" y="198.2188"/><rect fill="#FFFFFF" height="372.4375" style="stroke:#181818;stroke-width:1.0;" width="10" x="2374.5" y="577.7656"/><rect fill="#FFFFFF" height="559.6563" style="stroke:#181818;stroke-width:1.0;" width="10" x="3538.5" y="615.3203"/><rect fill="#FFFFFF" height="48.5547" style="stroke:#181818;stroke-width:1.0;" width="10" x="3543.5" y="660.875"/><rect fill="#FFFFFF" height="48.5547" style="stroke:#181818;stroke-width:1.0;" width="10" x="3543.5" y="761.9844"/><rect fill="#FFFFFF" height="42.5547" style="stroke:#181818;stroke-width:1.0;" width="10" x="3543.5" y="863.0938"/><rect fill="#FFFFFF" height="37.5547" style="stroke:#181818;stroke-width:1.0;" width="10" x="3783.5" y="235.7734"/><polygon fill="#181818" points="1183.5,124.1094,1193.5,128.1094,1183.5,132.1094,1187.5,128.1094" style="stroke:#181818;stroke-width:1.0;"/><line style="stroke:#181818;stroke-width:1.0;" x1="131.5" x2="1189.5" y1="128.1094" y2="128.1094"/><text fill="#000000" font-family="sans-serif" font-size="20" font-weight="bold" lengthAdjust="spacing" textLength="13" x="138.5" y="121.8906">1</text><text fill="#000000" font-family="sans-serif" font-size="20" lengthAdjust="spacing" textLength="346" x="155.5" y="121.8906">requests to register a new employee</text><path d="M1085,143.1094 L1293,143.1094 L1293,158.6641 L1283,168.6641 L1085,168.6641 L1085,143.1094 " fill="#EEEEEE" style="stroke:#000000;stroke-width:1.5;"/><rect fill="none" height="138.2188" style="stroke:#000000;stroke-width:1.5;" width="2809" x="1085" y="143.1094"/><text fill="#000000" font-family="sans-serif" font-size="20" font-weight="bold" lengthAdjust="spacing" textLength="163" x="1100" y="163.4453">Get Agency List</text><polygon fill="#181818" points="2362.5,194.2188,2372.5,198.2188,2362.5,202.2188,2366.5,198.2188" style="stroke:#181818;stroke-width:1.0;"/><line style="stroke:#181818;stroke-width:1.0;" x1="1205.5" x2="2368.5" y1="198.2188" y2="198.2188"/><text fill="#000000" font-family="sans-serif" font-size="20" font-weight="bold" lengthAdjust="spacing" textLength="13" x="1212.5" y="192">2</text><text fill="#000000" font-family="sans-serif" font-size="20" lengthAdjust="spacing" textLength="130" x="1229.5" y="192">getAgencies()</text><polygon fill="#181818" points="3771.5,231.7734,3781.5,235.7734,3771.5,239.7734,3775.5,235.7734" style="stroke:#181818;stroke-width:1.0;"/><line style="stroke:#181818;stroke-width:1.0;" x1="2384.5" x2="3777.5" y1="235.7734" y2="235.7734"/><text fill="#000000" font-family="sans-serif" font-size="20" font-weight="bold" lengthAdjust="spacing" textLength="13" x="2391.5" y="229.5547">3</text><text fill="#000000" font-family="sans-serif" font-size="20" lengthAdjust="spacing" textLength="156" x="2408.5" y="229.5547">getAllAgencies()</text><polygon fill="#181818" points="2395.5,269.3281,2385.5,273.3281,2395.5,277.3281,2391.5,273.3281" style="stroke:#181818;stroke-width:1.0;"/><line style="stroke:#181818;stroke-width:1.0;stroke-dasharray:2.0,2.0;" x1="2389.5" x2="3787.5" y1="273.3281" y2="273.3281"/><text fill="#000000" font-family="sans-serif" font-size="20" font-weight="bold" lengthAdjust="spacing" textLength="13" x="2401.5" y="267.1094">4</text><text fill="#000000" font-family="sans-serif" font-size="20" lengthAdjust="spacing" textLength="100" x="2418.5" y="267.1094">agencyList</text><polygon fill="#181818" points="1216.5,313.8828,1206.5,317.8828,1216.5,321.8828,1212.5,317.8828" style="stroke:#181818;stroke-width:1.0;"/><line style="stroke:#181818;stroke-width:1.0;stroke-dasharray:2.0,2.0;" x1="1210.5" x2="2378.5" y1="317.8828" y2="317.8828"/><text fill="#000000" font-family="sans-serif" font-size="20" font-weight="bold" lengthAdjust="spacing" textLength="13" x="1222.5" y="311.6641">5</text><text fill="#000000" font-family="sans-serif" font-size="20" lengthAdjust="spacing" textLength="100" x="1239.5" y="311.6641">agencyList</text><polygon fill="#181818" points="142.5,351.4375,132.5,355.4375,142.5,359.4375,138.5,355.4375" style="stroke:#181818;stroke-width:1.0;"/><line style="stroke:#181818;stroke-width:1.0;stroke-dasharray:2.0,2.0;" x1="136.5" x2="1199.5" y1="355.4375" y2="355.4375"/><text fill="#000000" font-family="sans-serif" font-size="20" font-weight="bold" lengthAdjust="spacing" textLength="13" x="148.5" y="349.2188">6</text><text fill="#000000" font-family="sans-serif" font-size="20" lengthAdjust="spacing" textLength="244" x="165.5" y="349.2188">shows the list of agencies</text><polygon fill="#181818" points="1183.5,388.9922,1193.5,392.9922,1183.5,396.9922,1187.5,392.9922" style="stroke:#181818;stroke-width:1.0;"/><line style="stroke:#181818;stroke-width:1.0;" x1="131.5" x2="1189.5" y1="392.9922" y2="392.9922"/><text fill="#000000" font-family="sans-serif" font-size="20" font-weight="bold" lengthAdjust="spacing" textLength="13" x="138.5" y="386.7734">7</text><text fill="#000000" font-family="sans-serif" font-size="20" lengthAdjust="spacing" textLength="296" x="155.5" y="386.7734">selects the agency from the list</text><path d="M10,407.9922 L295,407.9922 L295,423.5469 L285,433.5469 L10,433.5469 L10,407.9922 " fill="#EEEEEE" style="stroke:#000000;stroke-width:1.5;"/><rect fill="none" height="63.1094" style="stroke:#000000;stroke-width:1.5;" width="1306" x="10" y="407.9922"/><text fill="#000000" font-family="sans-serif" font-size="20" font-weight="bold" lengthAdjust="spacing" textLength="240" x="25" y="428.3281">Provide Employee Data</text><polygon fill="#181818" points="142.5,459.1016,132.5,463.1016,142.5,467.1016,138.5,463.1016" style="stroke:#181818;stroke-width:1.0;"/><line style="stroke:#181818;stroke-width:1.0;stroke-dasharray:2.0,2.0;" x1="136.5" x2="1194.5" y1="463.1016" y2="463.1016"/><text fill="#000000" font-family="sans-serif" font-size="20" font-weight="bold" lengthAdjust="spacing" textLength="13" x="148.5" y="456.8828">8</text><text fill="#000000" font-family="sans-serif" font-size="20" lengthAdjust="spacing" textLength="1023" x="165.5" y="456.8828">requests the name, passport card number, tax number, address, email address, contact telephone number</text><polygon fill="#181818" points="1183.5,503.6563,1193.5,507.6563,1183.5,511.6563,1187.5,507.6563" style="stroke:#181818;stroke-width:1.0;"/><line style="stroke:#181818;stroke-width:1.0;" x1="131.5" x2="1189.5" y1="507.6563" y2="507.6563"/><text fill="#000000" font-family="sans-serif" font-size="20" font-weight="bold" lengthAdjust="spacing" textLength="13" x="138.5" y="501.4375">9</text><text fill="#000000" font-family="sans-serif" font-size="20" lengthAdjust="spacing" textLength="266" x="155.5" y="501.4375">provides the necessary data</text><path d="M1085,522.6563 L1374,522.6563 L1374,538.2109 L1364,548.2109 L1085,548.2109 L1085,522.6563 " fill="#EEEEEE" style="stroke:#000000;stroke-width:1.5;"/><rect fill="none" height="390.9922" style="stroke:#000000;stroke-width:1.5;" width="2704.5" x="1085" y="522.6563"/><text fill="#000000" font-family="sans-serif" font-size="20" font-weight="bold" lengthAdjust="spacing" textLength="244" x="1100" y="542.9922">Register New Employee</text><polygon fill="#181818" points="2362.5,573.7656,2372.5,577.7656,2362.5,581.7656,2366.5,577.7656" style="stroke:#181818;stroke-width:1.0;"/><line style="stroke:#181818;stroke-width:1.0;" x1="1205.5" x2="2368.5" y1="577.7656" y2="577.7656"/><text fill="#000000" font-family="sans-serif" font-size="20" font-weight="bold" lengthAdjust="spacing" textLength="26" x="1212.5" y="571.5469">10</text><text fill="#000000" font-family="sans-serif" font-size="20" lengthAdjust="spacing" textLength="1120" x="1242.5" y="571.5469">registerEmployee(role, name, passportCardNumber, taxNumber, address, email, telephoneNumber, selectedAgency)</text><polygon fill="#181818" points="3526.5,611.3203,3536.5,615.3203,3526.5,619.3203,3530.5,615.3203" style="stroke:#181818;stroke-width:1.0;"/><line style="stroke:#181818;stroke-width:1.0;" x1="2384.5" x2="3532.5" y1="615.3203" y2="615.3203"/><text fill="#000000" font-family="sans-serif" font-size="20" font-weight="bold" lengthAdjust="spacing" textLength="26" x="2391.5" y="609.1016">11</text><text fill="#000000" font-family="sans-serif" font-size="20" lengthAdjust="spacing" textLength="1105" x="2421.5" y="609.1016">createEmployee(role, name, passportCardNumber, taxNumber, address, email, telephoneNumber, selectedAgency)</text><line style="stroke:#181818;stroke-width:1.0;" x1="3548.5" x2="3595.5" y1="647.875" y2="647.875"/><line style="stroke:#181818;stroke-width:1.0;" x1="3595.5" x2="3595.5" y1="647.875" y2="660.875"/><line style="stroke:#181818;stroke-width:1.0;" x1="3554.5" x2="3595.5" y1="660.875" y2="660.875"/><polygon fill="#181818" points="3564.5,656.875,3554.5,660.875,3564.5,664.875,3560.5,660.875" style="stroke:#181818;stroke-width:1.0;"/><text fill="#000000" font-family="sans-serif" font-size="20" font-weight="bold" lengthAdjust="spacing" textLength="26" x="3560.5" y="641.6563">12</text><text fill="#000000" font-family="sans-serif" font-size="20" lengthAdjust="spacing" textLength="133" x="3590.5" y="641.6563">validateData()</text><line style="stroke:#181818;stroke-width:1.0;stroke-dasharray:2.0,2.0;" x1="3553.5" x2="3595.5" y1="708.4297" y2="708.4297"/><line style="stroke:#181818;stroke-width:1.0;stroke-dasharray:2.0,2.0;" x1="3595.5" x2="3595.5" y1="708.4297" y2="721.4297"/><line style="stroke:#181818;stroke-width:1.0;stroke-dasharray:2.0,2.0;" x1="3548.5" x2="3595.5" y1="721.4297" y2="721.4297"/><polygon fill="#181818" points="3558.5,717.4297,3548.5,721.4297,3558.5,725.4297,3554.5,721.4297" style="stroke:#181818;stroke-width:1.0;"/><text fill="#000000" font-family="sans-serif" font-size="20" font-weight="bold" lengthAdjust="spacing" textLength="26" x="3560.5" y="702.2109">13</text><text fill="#000000" font-family="sans-serif" font-size="20" lengthAdjust="spacing" textLength="153" x="3590.5" y="702.2109">validationResult</text><line style="stroke:#181818;stroke-width:1.0;" x1="3548.5" x2="3595.5" y1="748.9844" y2="748.9844"/><line style="stroke:#181818;stroke-width:1.0;" x1="3595.5" x2="3595.5" y1="748.9844" y2="761.9844"/><line style="stroke:#181818;stroke-width:1.0;" x1="3554.5" x2="3595.5" y1="761.9844" y2="761.9844"/><polygon fill="#181818" points="3564.5,757.9844,3554.5,761.9844,3564.5,765.9844,3560.5,761.9844" style="stroke:#181818;stroke-width:1.0;"/><text fill="#000000" font-family="sans-serif" font-size="20" font-weight="bold" lengthAdjust="spacing" textLength="26" x="3560.5" y="742.7656">14</text><text fill="#000000" font-family="sans-serif" font-size="20" lengthAdjust="spacing" textLength="187" x="3590.5" y="742.7656">generatePassword()</text><line style="stroke:#181818;stroke-width:1.0;stroke-dasharray:2.0,2.0;" x1="3553.5" x2="3595.5" y1="809.5391" y2="809.5391"/><line style="stroke:#181818;stroke-width:1.0;stroke-dasharray:2.0,2.0;" x1="3595.5" x2="3595.5" y1="809.5391" y2="822.5391"/><line style="stroke:#181818;stroke-width:1.0;stroke-dasharray:2.0,2.0;" x1="3548.5" x2="3595.5" y1="822.5391" y2="822.5391"/><polygon fill="#181818" points="3558.5,818.5391,3548.5,822.5391,3558.5,826.5391,3554.5,822.5391" style="stroke:#181818;stroke-width:1.0;"/><text fill="#000000" font-family="sans-serif" font-size="20" font-weight="bold" lengthAdjust="spacing" textLength="26" x="3560.5" y="803.3203">15</text><text fill="#000000" font-family="sans-serif" font-size="20" lengthAdjust="spacing" textLength="186" x="3590.5" y="803.3203">generatedPassword</text><line style="stroke:#181818;stroke-width:1.0;" x1="3548.5" x2="3595.5" y1="850.0938" y2="850.0938"/><line style="stroke:#181818;stroke-width:1.0;" x1="3595.5" x2="3595.5" y1="850.0938" y2="863.0938"/><line style="stroke:#181818;stroke-width:1.0;" x1="3554.5" x2="3595.5" y1="863.0938" y2="863.0938"/><polygon fill="#181818" points="3564.5,859.0938,3554.5,863.0938,3564.5,867.0938,3560.5,863.0938" style="stroke:#181818;stroke-width:1.0;"/><text fill="#000000" font-family="sans-serif" font-size="20" font-weight="bold" lengthAdjust="spacing" textLength="26" x="3560.5" y="843.875">16</text><text fill="#000000" font-family="sans-serif" font-size="20" lengthAdjust="spacing" textLength="149" x="3590.5" y="843.875">saveEmployee()</text><polygon fill="#181818" points="2395.5,901.6484,2385.5,905.6484,2395.5,909.6484,2391.5,905.6484" style="stroke:#181818;stroke-width:1.0;"/><line style="stroke:#181818;stroke-width:1.0;stroke-dasharray:2.0,2.0;" x1="2389.5" x2="3537.5" y1="905.6484" y2="905.6484"/><text fill="#000000" font-family="sans-serif" font-size="20" font-weight="bold" lengthAdjust="spacing" textLength="26" x="2401.5" y="899.4297">17</text><text fill="#000000" font-family="sans-serif" font-size="20" lengthAdjust="spacing" textLength="73" x="2431.5" y="899.4297">success</text><polygon fill="#181818" points="1216.5,946.2031,1206.5,950.2031,1216.5,954.2031,1212.5,950.2031" style="stroke:#181818;stroke-width:1.0;"/><line style="stroke:#181818;stroke-width:1.0;stroke-dasharray:2.0,2.0;" x1="1210.5" x2="2378.5" y1="950.2031" y2="950.2031"/><text fill="#000000" font-family="sans-serif" font-size="20" font-weight="bold" lengthAdjust="spacing" textLength="26" x="1222.5" y="943.9844">18</text><text fill="#000000" font-family="sans-serif" font-size="20" lengthAdjust="spacing" textLength="73" x="1252.5" y="943.9844">success</text><line style="stroke:#181818;stroke-width:1.0;" x1="1205.5" x2="1252.5" y1="982.7578" y2="982.7578"/><line style="stroke:#181818;stroke-width:1.0;" x1="1252.5" x2="1252.5" y1="982.7578" y2="995.7578"/><line style="stroke:#181818;stroke-width:1.0;" x1="1211.5" x2="1252.5" y1="995.7578" y2="995.7578"/><polygon fill="#181818" points="1221.5,991.7578,1211.5,995.7578,1221.5,999.7578,1217.5,995.7578" style="stroke:#181818;stroke-width:1.0;"/><text fill="#000000" font-family="sans-serif" font-size="20" font-weight="bold" lengthAdjust="spacing" textLength="26" x="1217.5" y="976.5391">19</text><text fill="#000000" font-family="sans-serif" font-size="20" lengthAdjust="spacing" textLength="239" x="1247.5" y="976.5391">displaySuccessMessage()</text><polygon fill="#181818" points="142.5,1034.3125,132.5,1038.3125,142.5,1042.3125,138.5,1038.3125" style="stroke:#181818;stroke-width:1.0;"/><line style="stroke:#181818;stroke-width:1.0;stroke-dasharray:2.0,2.0;" x1="136.5" x2="1194.5" y1="1038.3125" y2="1038.3125"/><text fill="#000000" font-family="sans-serif" font-size="20" font-weight="bold" lengthAdjust="spacing" textLength="26" x="148.5" y="1032.0938">20</text><text fill="#000000" font-family="sans-serif" font-size="20" lengthAdjust="spacing" textLength="261" x="178.5" y="1032.0938">operation success message</text><path d="M10,1053.3125 L305,1053.3125 L305,1068.8672 L295,1078.8672 L10,1078.8672 L10,1053.3125 " fill="#EEEEEE" style="stroke:#000000;stroke-width:1.5;"/><rect fill="none" height="113.6641" style="stroke:#000000;stroke-width:1.5;" width="1725.5" x="10" y="1053.3125"/><text fill="#000000" font-family="sans-serif" font-size="20" font-weight="bold" lengthAdjust="spacing" textLength="250" x="25" y="1073.6484">Send Password by Email</text><line style="stroke:#181818;stroke-width:1.0;" x1="1205.5" x2="1252.5" y1="1103.4219" y2="1103.4219"/><line style="stroke:#181818;stroke-width:1.0;" x1="1252.5" x2="1252.5" y1="1103.4219" y2="1116.4219"/><line style="stroke:#181818;stroke-width:1.0;" x1="1211.5" x2="1252.5" y1="1116.4219" y2="1116.4219"/><polygon fill="#181818" points="1221.5,1112.4219,1211.5,1116.4219,1221.5,1120.4219,1217.5,1116.4219" style="stroke:#181818;stroke-width:1.0;"/><text fill="#000000" font-family="sans-serif" font-size="20" font-weight="bold" lengthAdjust="spacing" textLength="26" x="1217.5" y="1097.2031">21</text><text fill="#000000" font-family="sans-serif" font-size="20" lengthAdjust="spacing" textLength="476" x="1247.5" y="1097.2031">sendPasswordByEmail(email, generatedPassword)</text><polygon fill="#181818" points="142.5,1154.9766,132.5,1158.9766,142.5,1162.9766,138.5,1158.9766" style="stroke:#181818;stroke-width:1.0;"/><line style="stroke:#181818;stroke-width:1.0;stroke-dasharray:2.0,2.0;" x1="136.5" x2="1199.5" y1="1158.9766" y2="1158.9766"/><text fill="#000000" font-family="sans-serif" font-size="20" font-weight="bold" lengthAdjust="spacing" textLength="26" x="148.5" y="1152.7578">22</text><text fill="#000000" font-family="sans-serif" font-size="20" lengthAdjust="spacing" textLength="372" x="178.5" y="1152.7578">password sent to the employee's email</text><!--SRC=[lLLDRzim3BtxLn2zB0DIODWnXm5Tzu42NL0awmzWBSOHAakU92VpVlqeox8TnrqH55XEYiJtz1v5qkvPwWejbihapoH0q0vhvRyPxRVo3y773vbB8L0QRVAzDIM1jpMDJYhCdx6WhMyKWQNSeoxKEC3jKPYZr0NiK3dACgozqNNvH9RNkJSMhhQDyrJ2ZIYbbivRvDqhG0UkSUrcnbnUvh92xU5gjQ62myX-BIjb6gB7kpRwyUwLk5isPurI5DblVsxk9uWKkQ7AECaocZPol3r1t1IaysOIFsos7kK1FGrcihI2wqyi6bQSk5yrEU_06rv7qO2WwGZKNJtmiCsiiAQku3lvxYguPqm6_6C-PWtMcBSWtvvBSeltxN7FqffljzfOnWoYEwHIBu77_iB127ezt8xjRgzCq1oUjCYoA25bOuGROQBWO8_Z-WokkC3CaHEt9r2C0BEBU5OzHeUadQNTaUAAZU1uAUouo7kokPm_M7EGWlgIW2_eiS_ygRJXMPbGOqbBxXVdAcCzv6W5n3vOWiVV_Hg5iEJSabyUfHh-vboyh0SyYwxsHbE7Y1bypMeLPNTIA6TAj0s887x6PUeSM7C99gldzMKd3RRWxcAJfrPlsUbwCBgUzRaSVAM0-3eaOh6yMhxZ7cLfkIME-__2JaP5UtGYx5pe0PNaPw1GHuiBoLvaaqPloF4ydtRUnVBO8_50fWTEsj5OyNQ9YL4aoZThT7WONlfoVLqnkpeFRV5FDJFJAi5cHrKN8wIh53RR6FeZD5yHb9vqtldyC5L85BzbkWJA29ssUspQBQk3b5HuQbWw5_2eQxkXf_lCVsxQa4LNwMSlCybbk6f-qbNfLcRtuIiMnapwTBrpiPLc9zNeR_-1_0i0]--></g></svg>