<?xml version="1.0" encoding="UTF-8" standalone="no"?><svg xmlns="http://www.w3.org/2000/svg" xmlns:xlink="http://www.w3.org/1999/xlink" contentStyleType="text/css" height="2341px" preserveAspectRatio="none" style="width:3919px;height:2341px;background:#FFFFFF;" version="1.1" viewBox="0 0 3919 2341" width="3919px" zoomAndPan="magnify"><defs/><g><!--class Employee--><g id="elem_Employee"><rect codeLine="11" fill="#F1F1F1" height="285.5469" id="Employee" rx="2.5" ry="2.5" style="stroke:#181818;stroke-width:0.5;" width="338" x="2476" y="1772"/><ellipse cx="2594" cy="1789" fill="#ADD1B2" rx="12" ry="12" style="stroke:#181818;stroke-width:1.0;"/><path d="M2596.8066,1796.0801 Q2596.123,1796.4316 2595.3711,1796.6074 Q2594.6191,1796.7832 2593.7891,1796.7832 Q2590.8398,1796.7832 2589.2871,1794.8398 Q2587.7344,1792.8965 2587.7344,1789.2246 Q2587.7344,1785.543 2589.2871,1783.5996 Q2590.8398,1781.6563 2593.7891,1781.6563 Q2594.6191,1781.6563 2595.3809,1781.832 Q2596.1426,1782.0078 2596.8066,1782.3594 L2596.8066,1785.5625 Q2596.0645,1784.8789 2595.3662,1784.5615 Q2594.668,1784.2441 2593.9258,1784.2441 Q2592.3438,1784.2441 2591.5381,1785.499 Q2590.7324,1786.7539 2590.7324,1789.2246 Q2590.7324,1791.6855 2591.5381,1792.9404 Q2592.3438,1794.1953 2593.9258,1794.1953 Q2594.668,1794.1953 2595.3662,1793.8779 Q2596.0645,1793.5605 2596.8066,1792.877 Z " fill="#000000"/><text fill="#000000" font-family="sans-serif" font-size="20" lengthAdjust="spacing" textLength="93" x="2616" y="1796.5586">Employee</text><line style="stroke:#181818;stroke-width:0.5;" x1="2477" x2="2813" y1="1806" y2="1806"/><text fill="#000000" font-family="sans-serif" font-size="20" lengthAdjust="spacing" textLength="125" x="2482" y="1829.3359">extends User</text><line style="stroke:#181818;stroke-width:0.5;" x1="2477" x2="2813" y1="1837.5547" y2="1837.5547"/><text fill="#000000" font-family="sans-serif" font-size="20" lengthAdjust="spacing" textLength="253" x="2482" y="1860.8906">+addRole(role: Role): void</text><text fill="#000000" font-family="sans-serif" font-size="20" lengthAdjust="spacing" textLength="287" x="2482" y="1884.4453">+removeRole(role: Role): void</text><text fill="#000000" font-family="sans-serif" font-size="20" lengthAdjust="spacing" textLength="285" x="2482" y="1908">+hasRole(role: Role): boolean</text><text fill="#000000" font-family="sans-serif" font-size="20" lengthAdjust="spacing" textLength="269" x="2482" y="1931.5547">+equals(o: Object): boolean</text><text fill="#000000" font-family="sans-serif" font-size="20" lengthAdjust="spacing" textLength="162" x="2482" y="1955.1094">+hashCode(): int</text><text fill="#000000" font-family="sans-serif" font-size="20" lengthAdjust="spacing" textLength="326" x="2482" y="1978.6641">+hasEmail(email: String): boolean</text><text fill="#000000" font-family="sans-serif" font-size="20" lengthAdjust="spacing" textLength="186" x="2482" y="2002.2188">+clone(): Employee</text><text fill="#000000" font-family="sans-serif" font-size="20" lengthAdjust="spacing" textLength="250" x="2482" y="2025.7734">+getNumberOfRoles(): int</text><text fill="#000000" font-family="sans-serif" font-size="20" lengthAdjust="spacing" textLength="173" x="2482" y="2049.3281">+toString(): String</text></g><!--class EmployeeRepository--><g id="elem_EmployeeRepository"><rect codeLine="27" fill="#F1F1F1" height="214.8828" id="EmployeeRepository" rx="2.5" ry="2.5" style="stroke:#181818;stroke-width:0.5;" width="592" x="2349" y="889"/><ellipse cx="2543" cy="906" fill="#ADD1B2" rx="12" ry="12" style="stroke:#181818;stroke-width:1.0;"/><path d="M2545.8066,913.0801 Q2545.123,913.4316 2544.3711,913.6074 Q2543.6191,913.7832 2542.7891,913.7832 Q2539.8398,913.7832 2538.2871,911.8398 Q2536.7344,909.8965 2536.7344,906.2246 Q2536.7344,902.543 2538.2871,900.5996 Q2539.8398,898.6563 2542.7891,898.6563 Q2543.6191,898.6563 2544.3809,898.832 Q2545.1426,899.0078 2545.8066,899.3594 L2545.8066,902.5625 Q2545.0645,901.8789 2544.3662,901.5615 Q2543.668,901.2441 2542.9258,901.2441 Q2541.3438,901.2441 2540.5381,902.499 Q2539.7324,903.7539 2539.7324,906.2246 Q2539.7324,908.6855 2540.5381,909.9404 Q2541.3438,911.1953 2542.9258,911.1953 Q2543.668,911.1953 2544.3662,910.8779 Q2545.0645,910.5605 2545.8066,909.877 Z " fill="#000000"/><text fill="#000000" font-family="sans-serif" font-size="20" lengthAdjust="spacing" textLength="195" x="2565" y="913.5586">EmployeeRepository</text><line style="stroke:#181818;stroke-width:0.5;" x1="2350" x2="2940" y1="923" y2="923"/><text fill="#000000" font-family="sans-serif" font-size="20" lengthAdjust="spacing" textLength="361" x="2355" y="946.3359">-employeeList: ArrayList&lt;Employee&gt;</text><line style="stroke:#181818;stroke-width:0.5;" x1="2350" x2="2940" y1="954.5547" y2="954.5547"/><text fill="#000000" font-family="sans-serif" font-size="20" lengthAdjust="spacing" textLength="447" x="2355" y="977.8906">+addEmployee(employee: Employee): boolean</text><text fill="#000000" font-family="sans-serif" font-size="20" lengthAdjust="spacing" textLength="547" x="2355" y="1001.4453">+getEmployeeByEmail(employeeEmail: String): Employee</text><text fill="#000000" font-family="sans-serif" font-size="20" lengthAdjust="spacing" textLength="580" x="2355" y="1025">+getAgentsByAgencyId(agencyId: int): ArrayList&lt;Employee&gt;</text><text fill="#000000" font-family="sans-serif" font-size="20" lengthAdjust="spacing" textLength="389" x="2355" y="1048.5547">+employeeExists(email: String): boolean</text><text fill="#000000" font-family="sans-serif" font-size="20" lengthAdjust="spacing" textLength="409" x="2355" y="1072.1094">+getEmployeeList(): ArrayList&lt;Employee&gt;</text><text fill="#000000" font-family="sans-serif" font-size="20" lengthAdjust="spacing" textLength="318" x="2355" y="1095.6641">+add(employee: Employee): void</text></g><!--class AgencyRepository--><g id="elem_AgencyRepository"><rect codeLine="38" fill="#F1F1F1" height="144.2188" id="AgencyRepository" rx="2.5" ry="2.5" style="stroke:#181818;stroke-width:0.5;" width="422" x="1892" y="924.5"/><ellipse cx="2013" cy="941.5" fill="#ADD1B2" rx="12" ry="12" style="stroke:#181818;stroke-width:1.0;"/><path d="M2015.8066,948.5801 Q2015.123,948.9316 2014.3711,949.1074 Q2013.6191,949.2832 2012.7891,949.2832 Q2009.8398,949.2832 2008.2871,947.3398 Q2006.7344,945.3965 2006.7344,941.7246 Q2006.7344,938.043 2008.2871,936.0996 Q2009.8398,934.1563 2012.7891,934.1563 Q2013.6191,934.1563 2014.3809,934.332 Q2015.1426,934.5078 2015.8066,934.8594 L2015.8066,938.0625 Q2015.0645,937.3789 2014.3662,937.0615 Q2013.668,936.7441 2012.9258,936.7441 Q2011.3438,936.7441 2010.5381,937.999 Q2009.7324,939.2539 2009.7324,941.7246 Q2009.7324,944.1855 2010.5381,945.4404 Q2011.3438,946.6953 2012.9258,946.6953 Q2013.668,946.6953 2014.3662,946.3779 Q2015.0645,946.0605 2015.8066,945.377 Z " fill="#000000"/><text fill="#000000" font-family="sans-serif" font-size="20" lengthAdjust="spacing" textLength="171" x="2035" y="949.0586">AgencyRepository</text><line style="stroke:#181818;stroke-width:0.5;" x1="1893" x2="2313" y1="958.5" y2="958.5"/><text fill="#000000" font-family="sans-serif" font-size="20" lengthAdjust="spacing" textLength="242" x="1898" y="981.8359">-agencies: List&lt;Agency&gt;</text><line style="stroke:#181818;stroke-width:0.5;" x1="1893" x2="2313" y1="990.0547" y2="990.0547"/><text fill="#000000" font-family="sans-serif" font-size="20" lengthAdjust="spacing" textLength="410" x="1898" y="1013.3906">+add(agency: Agency): Optional&lt;Agency&gt;</text><text fill="#000000" font-family="sans-serif" font-size="20" lengthAdjust="spacing" textLength="293" x="1898" y="1036.9453">+getAgencies(): List&lt;Agency&gt;</text><text fill="#000000" font-family="sans-serif" font-size="20" lengthAdjust="spacing" textLength="307" x="1898" y="1060.5">+getAgencyById(id: int): Agency</text></g><!--class RoleRepository--><g id="elem_RoleRepository"><rect codeLine="46" fill="#F1F1F1" height="120.6641" id="RoleRepository" rx="2.5" ry="2.5" style="stroke:#181818;stroke-width:0.5;" width="515" x="3397.5" y="936"/><ellipse cx="3578.5" cy="953" fill="#ADD1B2" rx="12" ry="12" style="stroke:#181818;stroke-width:1.0;"/><path d="M3581.3066,960.0801 Q3580.623,960.4316 3579.8711,960.6074 Q3579.1191,960.7832 3578.2891,960.7832 Q3575.3398,960.7832 3573.7871,958.8398 Q3572.2344,956.8965 3572.2344,953.2246 Q3572.2344,949.543 3573.7871,947.5996 Q3575.3398,945.6563 3578.2891,945.6563 Q3579.1191,945.6563 3579.8809,945.832 Q3580.6426,946.0078 3581.3066,946.3594 L3581.3066,949.5625 Q3580.5645,948.8789 3579.8662,948.5615 Q3579.168,948.2441 3578.4258,948.2441 Q3576.8438,948.2441 3576.0381,949.499 Q3575.2324,950.7539 3575.2324,953.2246 Q3575.2324,955.6855 3576.0381,956.9404 Q3576.8438,958.1953 3578.4258,958.1953 Q3579.168,958.1953 3579.8662,957.8779 Q3580.5645,957.5605 3581.3066,956.877 Z " fill="#000000"/><text fill="#000000" font-family="sans-serif" font-size="20" lengthAdjust="spacing" textLength="144" x="3600.5" y="960.5586">RoleRepository</text><line style="stroke:#181818;stroke-width:0.5;" x1="3398.5" x2="3911.5" y1="970" y2="970"/><text fill="#000000" font-family="sans-serif" font-size="20" lengthAdjust="spacing" textLength="179" x="3403.5" y="993.3359">-roles: List&lt;Role&gt;</text><line style="stroke:#181818;stroke-width:0.5;" x1="3398.5" x2="3911.5" y1="1001.5547" y2="1001.5547"/><text fill="#000000" font-family="sans-serif" font-size="20" lengthAdjust="spacing" textLength="319" x="3403.5" y="1024.8906">+getRolesToCreate(): List&lt;Role&gt;</text><text fill="#000000" font-family="sans-serif" font-size="20" lengthAdjust="spacing" textLength="503" x="3403.5" y="1048.4453">+getRoleByValue(value: int): Role- roles: List&lt;Role&gt;</text></g><!--class AuthenticationRepository--><g id="elem_AuthenticationRepository"><rect codeLine="55" fill="#F1F1F1" height="73.5547" id="AuthenticationRepository" rx="2.5" ry="2.5" style="stroke:#181818;stroke-width:0.5;" width="386" x="2976" y="959.5"/><ellipse cx="3044" cy="976.5" fill="#ADD1B2" rx="12" ry="12" style="stroke:#181818;stroke-width:1.0;"/><path d="M3046.8066,983.5801 Q3046.123,983.9316 3045.3711,984.1074 Q3044.6191,984.2832 3043.7891,984.2832 Q3040.8398,984.2832 3039.2871,982.3398 Q3037.7344,980.3965 3037.7344,976.7246 Q3037.7344,973.043 3039.2871,971.0996 Q3040.8398,969.1563 3043.7891,969.1563 Q3044.6191,969.1563 3045.3809,969.332 Q3046.1426,969.5078 3046.8066,969.8594 L3046.8066,973.0625 Q3046.0645,972.3789 3045.3662,972.0615 Q3044.668,971.7441 3043.9258,971.7441 Q3042.3438,971.7441 3041.5381,972.999 Q3040.7324,974.2539 3040.7324,976.7246 Q3040.7324,979.1855 3041.5381,980.4404 Q3042.3438,981.6953 3043.9258,981.6953 Q3044.668,981.6953 3045.3662,981.3779 Q3046.0645,981.0605 3046.8066,980.377 Z " fill="#000000"/><text fill="#000000" font-family="sans-serif" font-size="20" lengthAdjust="spacing" textLength="241" x="3066" y="984.0586">AuthenticationRepository</text><line style="stroke:#181818;stroke-width:0.5;" x1="2977" x2="3361" y1="993.5" y2="993.5"/><line style="stroke:#181818;stroke-width:0.5;" x1="2977" x2="3361" y1="1001.5" y2="1001.5"/><text fill="#000000" font-family="sans-serif" font-size="20" lengthAdjust="spacing" textLength="374" x="2982" y="1024.8359">+getCurrentUserSession(): UserSession</text></g><!--class Repositories--><g id="elem_Repositories"><rect codeLine="61" fill="#F1F1F1" height="167.7734" id="Repositories" rx="2.5" ry="2.5" style="stroke:#181818;stroke-width:0.5;" width="566" x="2481" y="636"/><ellipse cx="2700" cy="653" fill="#ADD1B2" rx="12" ry="12" style="stroke:#181818;stroke-width:1.0;"/><path d="M2702.8066,660.0801 Q2702.123,660.4316 2701.3711,660.6074 Q2700.6191,660.7832 2699.7891,660.7832 Q2696.8398,660.7832 2695.2871,658.8398 Q2693.7344,656.8965 2693.7344,653.2246 Q2693.7344,649.543 2695.2871,647.5996 Q2696.8398,645.6563 2699.7891,645.6563 Q2700.6191,645.6563 2701.3809,645.832 Q2702.1426,646.0078 2702.8066,646.3594 L2702.8066,649.5625 Q2702.0645,648.8789 2701.3662,648.5615 Q2700.668,648.2441 2699.9258,648.2441 Q2698.3438,648.2441 2697.5381,649.499 Q2696.7324,650.7539 2696.7324,653.2246 Q2696.7324,655.6855 2697.5381,656.9404 Q2698.3438,658.1953 2699.9258,658.1953 Q2700.668,658.1953 2701.3662,657.8779 Q2702.0645,657.5605 2702.8066,656.877 Z " fill="#000000"/><text fill="#000000" font-family="sans-serif" font-size="20" lengthAdjust="spacing" textLength="119" x="2722" y="660.5586">Repositories</text><line style="stroke:#181818;stroke-width:0.5;" x1="2482" x2="3046" y1="670" y2="670"/><line style="stroke:#181818;stroke-width:0.5;" x1="2482" x2="3046" y1="678" y2="678"/><text fill="#000000" font-family="sans-serif" font-size="20" lengthAdjust="spacing" textLength="270" x="2487" y="701.3359">+getInstance(): Repositories</text><text fill="#000000" font-family="sans-serif" font-size="20" lengthAdjust="spacing" textLength="554" x="2487" y="724.8906">+getAuthenticationRepository(): AuthenticationRepository</text><text fill="#000000" font-family="sans-serif" font-size="20" lengthAdjust="spacing" textLength="432" x="2487" y="748.4453">+EmployeeRepository(): EmployeeRepository</text><text fill="#000000" font-family="sans-serif" font-size="20" lengthAdjust="spacing" textLength="384" x="2487" y="772">+AgencyRepository(): AgencyRepository</text><text fill="#000000" font-family="sans-serif" font-size="20" lengthAdjust="spacing" textLength="330" x="2487" y="795.5547">+RoleRepository(): RoleRepository</text></g><!--class RegisterEmployeeController--><g id="elem_RegisterEmployeeController"><rect codeLine="71" fill="#F1F1F1" height="309.1016" id="RegisterEmployeeController" rx="2.5" ry="2.5" style="stroke:#181818;stroke-width:0.5;" width="1264" x="2132" y="136.5"/><ellipse cx="2626" cy="153.5" fill="#ADD1B2" rx="12" ry="12" style="stroke:#181818;stroke-width:1.0;"/><path d="M2628.8066,160.5801 Q2628.123,160.9316 2627.3711,161.1074 Q2626.6191,161.2832 2625.7891,161.2832 Q2622.8398,161.2832 2621.2871,159.3398 Q2619.7344,157.3965 2619.7344,153.7246 Q2619.7344,150.043 2621.2871,148.0996 Q2622.8398,146.1563 2625.7891,146.1563 Q2626.6191,146.1563 2627.3809,146.332 Q2628.1426,146.5078 2628.8066,146.8594 L2628.8066,150.0625 Q2628.0645,149.3789 2627.3662,149.0615 Q2626.668,148.7441 2625.9258,148.7441 Q2624.3438,148.7441 2623.5381,149.999 Q2622.7324,151.2539 2622.7324,153.7246 Q2622.7324,156.1855 2623.5381,157.4404 Q2624.3438,158.6953 2625.9258,158.6953 Q2626.668,158.6953 2627.3662,158.3779 Q2628.0645,158.0605 2628.8066,157.377 Z " fill="#000000"/><text fill="#000000" font-family="sans-serif" font-size="20" lengthAdjust="spacing" textLength="267" x="2648" y="161.0586">RegisterEmployeeController</text><line style="stroke:#181818;stroke-width:0.5;" x1="2133" x2="3395" y1="170.5" y2="170.5"/><text fill="#000000" font-family="sans-serif" font-size="20" lengthAdjust="spacing" textLength="414" x="2138" y="193.8359">-employeeRepository: EmployeeRepository</text><text fill="#000000" font-family="sans-serif" font-size="20" lengthAdjust="spacing" textLength="307" x="2138" y="217.3906">-roleRepository: RoleRepository</text><text fill="#000000" font-family="sans-serif" font-size="20" lengthAdjust="spacing" textLength="394" x="2138" y="240.9453">-passwordGenerator: PasswordGenerator</text><text fill="#000000" font-family="sans-serif" font-size="20" lengthAdjust="spacing" textLength="503" x="2138" y="264.5">-authenticationRepository: AuthenticationRepository</text><line style="stroke:#181818;stroke-width:0.5;" x1="2133" x2="3395" y1="272.7188" y2="272.7188"/><text fill="#000000" font-family="sans-serif" font-size="20" lengthAdjust="spacing" textLength="297" x="2138" y="296.0547">+RegisterEmployeeController()</text><text fill="#000000" font-family="sans-serif" font-size="20" lengthAdjust="spacing" textLength="319" x="2138" y="319.6094">+getRolesToCreate(): List&lt;Role&gt;</text><text fill="#000000" font-family="sans-serif" font-size="20" lengthAdjust="spacing" textLength="306" x="2138" y="343.1641">+getRoleByVale(value: int): Role</text><text fill="#000000" font-family="sans-serif" font-size="20" lengthAdjust="spacing" textLength="1252" x="2138" y="366.7188">+registerEmployee(name: String, email: String, passportCardNumber: int, taxNumber: int,telephoneNumber: int, address: Address</text><text fill="#000000" font-family="sans-serif" font-size="20" lengthAdjust="spacing" textLength="417" x="2138" y="390.2734">agency: Agency, roles: Set&lt;Role&gt;): boolean</text><text fill="#000000" font-family="sans-serif" font-size="20" lengthAdjust="spacing" textLength="271" x="2138" y="413.8281">+generatePassword(): String</text><text fill="#000000" font-family="sans-serif" font-size="20" lengthAdjust="spacing" textLength="703" x="2138" y="437.3828">+createUser(String name, String email, String password, String role): void</text></g><!--class Address--><g id="elem_Address"><rect codeLine="86" fill="#F1F1F1" height="167.7734" id="Address" rx="2.5" ry="2.5" style="stroke:#181818;stroke-width:0.5;" width="165" x="2562.5" y="2154.5"/><ellipse cx="2601.9" cy="2171.5" fill="#ADD1B2" rx="12" ry="12" style="stroke:#181818;stroke-width:1.0;"/><path d="M2604.7066,2178.5801 Q2604.023,2178.9316 2603.2711,2179.1074 Q2602.5191,2179.2832 2601.6891,2179.2832 Q2598.7398,2179.2832 2597.1871,2177.3398 Q2595.6344,2175.3965 2595.6344,2171.7246 Q2595.6344,2168.043 2597.1871,2166.0996 Q2598.7398,2164.1563 2601.6891,2164.1563 Q2602.5191,2164.1563 2603.2809,2164.332 Q2604.0426,2164.5078 2604.7066,2164.8594 L2604.7066,2168.0625 Q2603.9645,2167.3789 2603.2662,2167.0615 Q2602.568,2166.7441 2601.8258,2166.7441 Q2600.2438,2166.7441 2599.4381,2167.999 Q2598.6324,2169.2539 2598.6324,2171.7246 Q2598.6324,2174.1855 2599.4381,2175.4404 Q2600.2438,2176.6953 2601.8258,2176.6953 Q2602.568,2176.6953 2603.2662,2176.3779 Q2603.9645,2176.0605 2604.7066,2175.377 Z " fill="#000000"/><text fill="#000000" font-family="sans-serif" font-size="20" lengthAdjust="spacing" textLength="79" x="2622.1" y="2179.0586">Address</text><line style="stroke:#181818;stroke-width:0.5;" x1="2563.5" x2="2726.5" y1="2188.5" y2="2188.5"/><text fill="#000000" font-family="sans-serif" font-size="20" lengthAdjust="spacing" textLength="140" x="2568.5" y="2211.8359">-street : String</text><text fill="#000000" font-family="sans-serif" font-size="20" lengthAdjust="spacing" textLength="119" x="2568.5" y="2235.3906">-city : String</text><text fill="#000000" font-family="sans-serif" font-size="20" lengthAdjust="spacing" textLength="153" x="2568.5" y="2258.9453">-district : String</text><text fill="#000000" font-family="sans-serif" font-size="20" lengthAdjust="spacing" textLength="132" x="2568.5" y="2282.5">-state : String</text><text fill="#000000" font-family="sans-serif" font-size="20" lengthAdjust="spacing" textLength="135" x="2568.5" y="2306.0547">-zipCode : int</text><line style="stroke:#181818;stroke-width:0.5;" x1="2563.5" x2="2726.5" y1="2314.2734" y2="2314.2734"/></g><!--class Role--><g id="elem_Role"><rect codeLine="94" fill="#F1F1F1" height="191.3281" id="Role" rx="2.5" ry="2.5" style="stroke:#181818;stroke-width:0.5;" width="304" x="3133" y="2143"/><ellipse cx="3259.5" cy="2160" fill="#ADD1B2" rx="12" ry="12" style="stroke:#181818;stroke-width:1.0;"/><path d="M3262.3066,2167.0801 Q3261.623,2167.4316 3260.8711,2167.6074 Q3260.1191,2167.7832 3259.2891,2167.7832 Q3256.3398,2167.7832 3254.7871,2165.8398 Q3253.2344,2163.8965 3253.2344,2160.2246 Q3253.2344,2156.543 3254.7871,2154.5996 Q3256.3398,2152.6563 3259.2891,2152.6563 Q3260.1191,2152.6563 3260.8809,2152.832 Q3261.6426,2153.0078 3262.3066,2153.3594 L3262.3066,2156.5625 Q3261.5645,2155.8789 3260.8662,2155.5615 Q3260.168,2155.2441 3259.4258,2155.2441 Q3257.8438,2155.2441 3257.0381,2156.499 Q3256.2324,2157.7539 3256.2324,2160.2246 Q3256.2324,2162.6855 3257.0381,2163.9404 Q3257.8438,2165.1953 3259.4258,2165.1953 Q3260.168,2165.1953 3260.8662,2164.8779 Q3261.5645,2164.5605 3262.3066,2163.877 Z " fill="#000000"/><text fill="#000000" font-family="sans-serif" font-size="20" lengthAdjust="spacing" textLength="42" x="3281.5" y="2167.5586">Role</text><line style="stroke:#181818;stroke-width:0.5;" x1="3134" x2="3436" y1="2177" y2="2177"/><text fill="#000000" font-family="sans-serif" font-size="20" lengthAdjust="spacing" textLength="79" x="3139" y="2200.3359">-ADMIN</text><text fill="#000000" font-family="sans-serif" font-size="20" lengthAdjust="spacing" textLength="79" x="3139" y="2223.8906">-AGENT</text><text fill="#000000" font-family="sans-serif" font-size="20" lengthAdjust="spacing" textLength="292" x="3139" y="2247.4453">-STORE_NETWORK_MANAGER</text><text fill="#000000" font-family="sans-serif" font-size="20" lengthAdjust="spacing" textLength="184" x="3139" y="2271">-STORE_MANAGER</text><text fill="#000000" font-family="sans-serif" font-size="20" lengthAdjust="spacing" textLength="82" x="3139" y="2294.5547">-CLIENT</text><line style="stroke:#181818;stroke-width:0.5;" x1="3134" x2="3436" y1="2302.7734" y2="2302.7734"/><text fill="#000000" font-family="sans-serif" font-size="20" lengthAdjust="spacing" textLength="150" x="3139" y="2326.1094">+getValue(): int</text></g><!--class Agency--><g id="elem_Agency"><rect codeLine="104" fill="#F1F1F1" height="497.5391" id="Agency" rx="2.5" ry="2.5" style="stroke:#181818;stroke-width:0.5;" width="474" x="2042" y="1189"/><ellipse cx="2240" cy="1206" fill="#ADD1B2" rx="12" ry="12" style="stroke:#181818;stroke-width:1.0;"/><path d="M2242.8066,1213.0801 Q2242.123,1213.4316 2241.3711,1213.6074 Q2240.6191,1213.7832 2239.7891,1213.7832 Q2236.8398,1213.7832 2235.2871,1211.8398 Q2233.7344,1209.8965 2233.7344,1206.2246 Q2233.7344,1202.543 2235.2871,1200.5996 Q2236.8398,1198.6563 2239.7891,1198.6563 Q2240.6191,1198.6563 2241.3809,1198.832 Q2242.1426,1199.0078 2242.8066,1199.3594 L2242.8066,1202.5625 Q2242.0645,1201.8789 2241.3662,1201.5615 Q2240.668,1201.2441 2239.9258,1201.2441 Q2238.3438,1201.2441 2237.5381,1202.499 Q2236.7324,1203.7539 2236.7324,1206.2246 Q2236.7324,1208.6855 2237.5381,1209.9404 Q2238.3438,1211.1953 2239.9258,1211.1953 Q2240.668,1211.1953 2241.3662,1210.8779 Q2242.0645,1210.5605 2242.8066,1209.877 Z " fill="#000000"/><text fill="#000000" font-family="sans-serif" font-size="20" lengthAdjust="spacing" textLength="69" x="2262" y="1213.5586">Agency</text><line style="stroke:#181818;stroke-width:0.5;" x1="2043" x2="2515" y1="1223" y2="1223"/><text fill="#000000" font-family="sans-serif" font-size="20" lengthAdjust="spacing" textLength="68" x="2048" y="1246.3359">-id: int</text><text fill="#000000" font-family="sans-serif" font-size="20" lengthAdjust="spacing" textLength="133" x="2048" y="1269.8906">-name: String</text><text fill="#000000" font-family="sans-serif" font-size="20" lengthAdjust="spacing" textLength="212" x="2048" y="1293.4453">-emailAddress: String</text><text fill="#000000" font-family="sans-serif" font-size="20" lengthAdjust="spacing" textLength="187" x="2048" y="1317">-phoneNumber: int</text><text fill="#000000" font-family="sans-serif" font-size="20" lengthAdjust="spacing" textLength="179" x="2048" y="1340.5547">-address: Address</text><text fill="#000000" font-family="sans-serif" font-size="20" lengthAdjust="spacing" textLength="297" x="2048" y="1364.1094">-agents: ArrayList&lt;Employee&gt;</text><line style="stroke:#181818;stroke-width:0.5;" x1="2043" x2="2515" y1="1372.3281" y2="1372.3281"/><text fill="#000000" font-family="sans-serif" font-size="20" lengthAdjust="spacing" textLength="116" x="2048" y="1395.6641">+getId(): int</text><text fill="#000000" font-family="sans-serif" font-size="20" lengthAdjust="spacing" textLength="230" x="2048" y="1419.2188">+getAddress(): Address</text><text fill="#000000" font-family="sans-serif" font-size="20" lengthAdjust="spacing" textLength="357" x="2048" y="1442.7734">+setAddress(address: Address): void</text><text fill="#000000" font-family="sans-serif" font-size="20" lengthAdjust="spacing" textLength="348" x="2048" y="1466.3281">+getAgents(): ArrayList&lt;Employee&gt;</text><text fill="#000000" font-family="sans-serif" font-size="20" lengthAdjust="spacing" textLength="462" x="2048" y="1489.8828">+setAgents(agents: ArrayList&lt;Employee&gt;): void</text><text fill="#000000" font-family="sans-serif" font-size="20" lengthAdjust="spacing" textLength="184" x="2048" y="1513.4375">+getName(): String</text><text fill="#000000" font-family="sans-serif" font-size="20" lengthAdjust="spacing" textLength="260" x="2048" y="1536.9922">+getEmailAddress(): String</text><text fill="#000000" font-family="sans-serif" font-size="20" lengthAdjust="spacing" textLength="233" x="2048" y="1560.5469">+getPhoneNumber(): int</text><text fill="#000000" font-family="sans-serif" font-size="20" lengthAdjust="spacing" textLength="288" x="2048" y="1584.1016">+setName(name: String): void</text><text fill="#000000" font-family="sans-serif" font-size="20" lengthAdjust="spacing" textLength="443" x="2048" y="1607.6563">+setEmailAddress(emailAddress: String): void</text><text fill="#000000" font-family="sans-serif" font-size="20" lengthAdjust="spacing" textLength="422" x="2048" y="1631.2109">+setPhoneNumber(phoneNumber: int): void</text><text fill="#000000" font-family="sans-serif" font-size="20" lengthAdjust="spacing" textLength="173" x="2048" y="1654.7656">+toString(): String</text><text fill="#000000" font-family="sans-serif" font-size="20" lengthAdjust="spacing" textLength="162" x="2048" y="1678.3203">+clone(): Agency</text></g><!--class RegisterEmployeeUI--><g id="elem_RegisterEmployeeUI"><rect codeLine="127" fill="#F1F1F1" height="568.2031" id="RegisterEmployeeUI" rx="2.5" ry="2.5" style="stroke:#181818;stroke-width:0.5;" width="2090" x="7" y="7"/><ellipse cx="952" cy="24" fill="#ADD1B2" rx="12" ry="12" style="stroke:#181818;stroke-width:1.0;"/><path d="M954.8066,31.0801 Q954.123,31.4316 953.3711,31.6074 Q952.6191,31.7832 951.7891,31.7832 Q948.8398,31.7832 947.2871,29.8398 Q945.7344,27.8965 945.7344,24.2246 Q945.7344,20.543 947.2871,18.5996 Q948.8398,16.6563 951.7891,16.6563 Q952.6191,16.6563 953.3809,16.832 Q954.1426,17.0078 954.8066,17.3594 L954.8066,20.5625 Q954.0645,19.8789 953.3662,19.5615 Q952.668,19.2441 951.9258,19.2441 Q950.3438,19.2441 949.5381,20.499 Q948.7324,21.7539 948.7324,24.2246 Q948.7324,26.6855 949.5381,27.9404 Q950.3438,29.1953 951.9258,29.1953 Q952.668,29.1953 953.3662,28.8779 Q954.0645,28.5605 954.8066,27.877 Z " fill="#000000"/><text fill="#000000" font-family="sans-serif" font-size="20" lengthAdjust="spacing" textLength="191" x="974" y="31.5586">RegisterEmployeeUI</text><line style="stroke:#181818;stroke-width:0.5;" x1="8" x2="2096" y1="41" y2="41"/><text fill="#000000" font-family="sans-serif" font-size="20" lengthAdjust="spacing" textLength="383" x="13" y="64.3359">-controller: RegisterEmployeeController</text><line style="stroke:#181818;stroke-width:0.5;" x1="8" x2="2096" y1="72.5547" y2="72.5547"/><text fill="#000000" font-family="sans-serif" font-size="20" lengthAdjust="spacing" textLength="62" x="13" y="95.8906">+run()</text><text fill="#000000" font-family="sans-serif" font-size="20" lengthAdjust="spacing" textLength="465" x="13" y="119.4453">-selectRoles(scanner: Scanner): ArrayList&lt;Role&gt;</text><text fill="#000000" font-family="sans-serif" font-size="20" lengthAdjust="spacing" textLength="369" x="13" y="143">-inputRoleValue(scanner: Scanner): int</text><text fill="#000000" font-family="sans-serif" font-size="20" lengthAdjust="spacing" textLength="329" x="13" y="166.5547">-getIntInput(scanner: Scanner): int</text><text fill="#000000" font-family="sans-serif" font-size="20" lengthAdjust="spacing" textLength="264" x="13" y="190.1094">-selectRole(value: int): Role</text><text fill="#000000" font-family="sans-serif" font-size="20" lengthAdjust="spacing" textLength="180" x="13" y="213.6641">-showRoles(): void</text><text fill="#000000" font-family="sans-serif" font-size="20" lengthAdjust="spacing" textLength="466" x="13" y="237.2188">-inputAddMoreRoles(scanner: Scanner): boolean</text><text fill="#000000" font-family="sans-serif" font-size="20" lengthAdjust="spacing" textLength="392" x="13" y="260.7734">-selectAgency(scanner: Scanner): Agency</text><text fill="#000000" font-family="sans-serif" font-size="20" lengthAdjust="spacing" textLength="194" x="13" y="284.3281">-listAgencies(): void</text><text fill="#000000" font-family="sans-serif" font-size="20" lengthAdjust="spacing" textLength="303" x="13" y="307.8828">-getAgencyById(id: int): Agency</text><text fill="#000000" font-family="sans-serif" font-size="20" lengthAdjust="spacing" textLength="361" x="13" y="331.4375">-inputName(scanner: Scanner): String</text><text fill="#000000" font-family="sans-serif" font-size="20" lengthAdjust="spacing" textLength="358" x="13" y="354.9922">-inputEmail(scanner: Scanner): String</text><text fill="#000000" font-family="sans-serif" font-size="20" lengthAdjust="spacing" textLength="354" x="13" y="378.5469">-isValidEmail(email: String): boolean</text><text fill="#000000" font-family="sans-serif" font-size="20" lengthAdjust="spacing" textLength="480" x="13" y="402.1016">-inputPassportCardNumber(scanner: Scanner): int</text><text fill="#000000" font-family="sans-serif" font-size="20" lengthAdjust="spacing" textLength="388" x="13" y="425.6563">-inputTaxNumber(scanner: Scanner): int</text><text fill="#000000" font-family="sans-serif" font-size="20" lengthAdjust="spacing" textLength="453" x="13" y="449.2109">-inputTelephoneNumber(scanner: Scanner): int</text><text fill="#000000" font-family="sans-serif" font-size="20" lengthAdjust="spacing" textLength="407" x="13" y="472.7656">-inputAddress(scanner: Scanner): Address</text><text fill="#000000" font-family="sans-serif" font-size="20" lengthAdjust="spacing" textLength="1831" x="13" y="496.3203">-displayConfirmation(name: String, email: String, passportCardNumber: int, taxNumber: int, telephoneNumber: int, address: Address, agency: Agency, selectedRoles: ArrayList&lt;Role&gt;): String</text><text fill="#000000" font-family="sans-serif" font-size="20" lengthAdjust="spacing" textLength="469" x="13" y="519.875">-formatPhoneNumber(phoneNumber: int): String</text><text fill="#000000" font-family="sans-serif" font-size="20" lengthAdjust="spacing" textLength="2078" x="13" y="543.4297">-processRegistration(password: String, answer: String, name: String, email: String, passportCardNumber: int, taxNumber: int, telephoneNumber: int, address: Address, agency: Agency, selectedRoles: List&lt;Role&gt;): void</text><text fill="#000000" font-family="sans-serif" font-size="20" lengthAdjust="spacing" textLength="867" x="13" y="566.9844">-writePasswordToFile(name: String, email: String, password: String, fileName: String): void</text></g><!--link Repositories to Repositories--><g id="link_Repositories_Repositories"><path codeLine="155" d="M3047.47,703.94 C3068.85,707.52 3082,712.87 3082,720 C3082,726.4 3071.39,731.38 3053.73,734.91 " fill="none" id="Repositories-to-Repositories" style="stroke:#181818;stroke-width:1.0;"/><polygon fill="#181818" points="3048.96,735.79,3058.5333,738.1033,3053.8782,734.8893,3057.0922,730.2341,3048.96,735.79" style="stroke:#181818;stroke-width:1.0;"/><text fill="#000000" font-family="sans-serif" font-size="20" lengthAdjust="spacing" textLength="89" x="3088" y="727.8359">instances</text></g><!--link RegisterEmployeeUI to RegisterEmployeeController--><g id="link_RegisterEmployeeUI_RegisterEmployeeController"><path codeLine="156" d="M2097.49,291 C2107.29,291 2116.53,291 2125.14,291 " fill="none" id="RegisterEmployeeUI-to-RegisterEmployeeController" style="stroke:#181818;stroke-width:1.0;stroke-dasharray:7.0,7.0;"/><polygon fill="#181818" points="2130.07,291,2121.07,287,2125.07,291,2121.07,295,2130.07,291" style="stroke:#181818;stroke-width:1.0;"/></g><!--link RegisterEmployeeController to Repositories--><g id="link_RegisterEmployeeController_Repositories"><path codeLine="157" d="M2764,445.86 C2764,507.4 2764,576.14 2764,629.26 " fill="none" id="RegisterEmployeeController-to-Repositories" style="stroke:#181818;stroke-width:1.0;stroke-dasharray:7.0,7.0;"/><polygon fill="#181818" points="2764,634.15,2768,625.15,2764,629.15,2760,625.15,2764,634.15" style="stroke:#181818;stroke-width:1.0;"/></g><!--link Repositories to AuthenticationRepository--><g id="link_Repositories_AuthenticationRepository"><path codeLine="158" d="M2887.16,804.48 C2961.15,854.62 3051.91,916.14 3110.1,955.58 " fill="none" id="Repositories-to-AuthenticationRepository" style="stroke:#181818;stroke-width:1.0;"/><polygon fill="#181818" points="3114.02,958.24,3108.8032,949.8863,3109.8774,955.4402,3104.3235,956.5144,3114.02,958.24" style="stroke:#181818;stroke-width:1.0;"/><text fill="#000000" font-family="sans-serif" font-size="20" lengthAdjust="spacing" textLength="33" x="2968" y="854.3359">has</text><text fill="#000000" font-family="sans-serif" font-size="20" lengthAdjust="spacing" textLength="13" x="2883.0918" y="831.1943">1</text><text fill="#000000" font-family="sans-serif" font-size="20" lengthAdjust="spacing" textLength="13" x="3092.2944" y="947.408">1</text></g><!--link Repositories to EmployeeRepository--><g id="link_Repositories_EmployeeRepository"><path codeLine="159" d="M2727.81,804.48 C2717.13,829.11 2705.26,856.49 2693.92,882.65 " fill="none" id="Repositories-to-EmployeeRepository" style="stroke:#181818;stroke-width:1.0;"/><polygon fill="#181818" points="2691.96,887.18,2699.2244,880.5295,2693.9588,882.5969,2691.8915,877.3314,2691.96,887.18" style="stroke:#181818;stroke-width:1.0;"/><text fill="#000000" font-family="sans-serif" font-size="20" lengthAdjust="spacing" textLength="33" x="2713" y="854.3359">has</text><text fill="#000000" font-family="sans-serif" font-size="20" lengthAdjust="spacing" textLength="13" x="2711.5415" y="831.1943">1</text><text fill="#000000" font-family="sans-serif" font-size="20" lengthAdjust="spacing" textLength="13" x="2681.0381" y="876.9043">1</text></g><!--link Repositories to AgencyRepository--><g id="link_Repositories_AgencyRepository"><path codeLine="160" d="M2549.09,804.38 C2440.31,846.59 2331,889 2331,889 C2331,889 2300.49,903.25 2261.79,921.33 " fill="none" id="Repositories-to-AgencyRepository" style="stroke:#181818;stroke-width:1.0;"/><polygon fill="#181818" points="2257.4,923.38,2267.2472,923.1971,2261.9306,921.2648,2263.8628,915.9482,2257.4,923.38" style="stroke:#181818;stroke-width:1.0;"/><text fill="#000000" font-family="sans-serif" font-size="20" lengthAdjust="spacing" textLength="33" x="2473" y="854.3359">has</text><text fill="#000000" font-family="sans-serif" font-size="20" lengthAdjust="spacing" textLength="13" x="2519.1383" y="831.0867">1</text><text fill="#000000" font-family="sans-serif" font-size="20" lengthAdjust="spacing" textLength="13" x="2256.9961" y="912.3676">1</text></g><!--link Repositories to RoleRepository--><g id="link_Repositories_RoleRepository"><path codeLine="161" d="M3047.21,798.24 C3209.01,842.37 3380,889 3380,889 C3380,889 3434.14,909.97 3494.37,933.29 " fill="none" id="Repositories-to-RoleRepository" style="stroke:#181818;stroke-width:1.0;"/><polygon fill="#181818" points="3498.81,935.01,3491.8686,928.023,3494.1492,933.1998,3488.9724,935.4804,3498.81,935.01" style="stroke:#181818;stroke-width:1.0;"/><text fill="#000000" font-family="sans-serif" font-size="20" lengthAdjust="spacing" textLength="33" x="3263" y="854.3359">has</text><text fill="#000000" font-family="sans-serif" font-size="20" lengthAdjust="spacing" textLength="13" x="3054.9054" y="796.3591">1</text><text fill="#000000" font-family="sans-serif" font-size="20" lengthAdjust="spacing" textLength="13" x="3468.572" y="923.5716">1</text></g><!--link RegisterEmployeeController to EmployeeRepository--><g id="link_RegisterEmployeeController_EmployeeRepository"><path codeLine="162" d="M2629.35,445.89 C2549.2,537.48 2463,636 2463,636 C2463,636 2450,834 2450,834 C2450,834 2450,859 2450,859 C2450,859 2465.25,869.67 2487.22,885.05 " fill="none" id="RegisterEmployeeController-to-EmployeeRepository" style="stroke:#181818;stroke-width:1.0;stroke-dasharray:7.0,7.0;"/><polygon fill="#181818" points="2491.07,887.75,2485.9927,879.3107,2486.9745,884.8817,2481.4035,885.8635,2491.07,887.75" style="stroke:#181818;stroke-width:1.0;"/></g><!--link RegisterEmployeeController to RoleRepository--><g id="link_RegisterEmployeeController_RoleRepository"><path codeLine="163" d="M2965.76,445.89 C3085.84,537.48 3215,636 3215,636 C3215,636 3450.63,828.52 3577.03,931.79 " fill="none" id="RegisterEmployeeController-to-RoleRepository" style="stroke:#181818;stroke-width:1.0;stroke-dasharray:7.0,7.0;"/><polygon fill="#181818" points="3580.68,934.77,3576.2332,925.9822,3576.8051,931.61,3571.1773,932.182,3580.68,934.77" style="stroke:#181818;stroke-width:1.0;"/></g><!--link RegisterEmployeeController to AgencyRepository--><g id="link_RegisterEmployeeController_AgencyRepository"><path codeLine="164" d="M2619.35,445.95 C2481.63,592.53 2280.11,807 2174.15,919.77 " fill="none" id="RegisterEmployeeController-to-AgencyRepository" style="stroke:#181818;stroke-width:1.0;stroke-dasharray:7.0,7.0;"/><polygon fill="#181818" points="2170.84,923.3,2179.9131,919.4687,2174.2592,919.6519,2174.0761,913.998,2170.84,923.3" style="stroke:#181818;stroke-width:1.0;"/></g><!--link RegisterEmployeeController to AuthenticationRepository--><g id="link_RegisterEmployeeController_AuthenticationRepository"><path codeLine="165" d="M2951.89,445.89 C3063.72,537.48 3184,636 3184,636 C3184,636 3197,834 3197,834 C3197,834 3197,859 3197,859 C3197,859 3185.94,912.92 3177.72,952.98 " fill="none" id="RegisterEmployeeController-to-AuthenticationRepository" style="stroke:#181818;stroke-width:1.0;stroke-dasharray:7.0,7.0;"/><polygon fill="#181818" points="3176.73,957.8,3182.4489,949.7816,3177.7298,952.901,3174.6104,948.1819,3176.73,957.8" style="stroke:#181818;stroke-width:1.0;"/></g><!--link EmployeeRepository to Employee--><g id="link_EmployeeRepository_Employee"><path codeLine="166" d="M2645,1104.43 C2645,1267.84 2645,1580.21 2645,1765.51 " fill="none" id="EmployeeRepository-to-Employee" style="stroke:#181818;stroke-width:1.0;"/><polygon fill="#181818" points="2645,1770.27,2649,1761.27,2645,1765.27,2641,1761.27,2645,1770.27" style="stroke:#181818;stroke-width:1.0;"/><text fill="#000000" font-family="sans-serif" font-size="20" lengthAdjust="spacing" textLength="33" x="2646" y="1445.8359">has</text><text fill="#000000" font-family="sans-serif" font-size="20" lengthAdjust="spacing" textLength="13" x="2631.6039" y="1131.0642">1</text><text fill="#000000" font-family="sans-serif" font-size="20" lengthAdjust="spacing" textLength="10" x="2634.7266" y="1759.6822">*</text></g><!--link AgencyRepository to Agency--><g id="link_AgencyRepository_Agency"><path codeLine="167" d="M2131.47,1068.6 C2144.34,1100.74 2160.41,1140.86 2177.16,1182.69 " fill="none" id="AgencyRepository-to-Agency" style="stroke:#181818;stroke-width:1.0;"/><polygon fill="#181818" points="2178.97,1187.2,2179.3414,1177.3581,2177.113,1182.5576,2171.9136,1180.3293,2178.97,1187.2" style="stroke:#181818;stroke-width:1.0;"/><text fill="#000000" font-family="sans-serif" font-size="20" lengthAdjust="spacing" textLength="33" x="2166" y="1154.3359">has</text><text fill="#000000" font-family="sans-serif" font-size="20" lengthAdjust="spacing" textLength="13" x="2120.6327" y="1096.1818">1</text><text fill="#000000" font-family="sans-serif" font-size="20" lengthAdjust="spacing" textLength="10" x="2166.1021" y="1176.4021">*</text></g><!--link RoleRepository to Role--><g id="link_RoleRepository_Role"><path codeLine="168" d="M3637.15,1057.31 C3578.17,1254.97 3389.07,1888.73 3315.08,2136.69 " fill="none" id="RoleRepository-to-Role" style="stroke:#181818;stroke-width:1.0;"/><polygon fill="#181818" points="3313.68,2141.38,3320.0811,2133.8949,3315.1063,2136.5877,3312.4135,2131.6129,3313.68,2141.38" style="stroke:#181818;stroke-width:1.0;"/><text fill="#000000" font-family="sans-serif" font-size="20" lengthAdjust="spacing" textLength="33" x="3441" y="1737.3359">has</text><text fill="#000000" font-family="sans-serif" font-size="20" lengthAdjust="spacing" textLength="13" x="3621.6389" y="1084.1488">1</text><text fill="#000000" font-family="sans-serif" font-size="20" lengthAdjust="spacing" textLength="10" x="3305.1027" y="2130.6349">*</text></g><!--link Employee to Address--><g id="link_Employee_Address"><path codeLine="170" d="M2645,2058.42 C2645,2088.87 2645,2120.21 2645,2147.99 " fill="none" id="Employee-to-Address" style="stroke:#181818;stroke-width:1.0;"/><polygon fill="#181818" points="2645,2152.71,2649,2143.71,2645,2147.71,2641,2143.71,2645,2152.71" style="stroke:#181818;stroke-width:1.0;"/><text fill="#000000" font-family="sans-serif" font-size="20" lengthAdjust="spacing" textLength="33" x="2646" y="2108.3359">has</text><text fill="#000000" font-family="sans-serif" font-size="20" lengthAdjust="spacing" textLength="13" x="2631.7055" y="2084.7986">1</text><text fill="#000000" font-family="sans-serif" font-size="20" lengthAdjust="spacing" textLength="13" x="2631.4414" y="2142.3693">1</text></g><!--link Employee to Role--><g id="link_Employee_Role"><path codeLine="171" d="M2814.41,2001.1 C2911.26,2049.76 3031.96,2110.39 3126.87,2158.07 " fill="none" id="Employee-to-Role" style="stroke:#181818;stroke-width:1.0;"/><polygon fill="#181818" points="3131.16,2160.22,3124.9087,2152.6094,3126.6907,2157.9782,3121.3219,2159.7602,3131.16,2160.22" style="stroke:#181818;stroke-width:1.0;"/><text fill="#000000" font-family="sans-serif" font-size="20" lengthAdjust="spacing" textLength="33" x="3023" y="2108.3359">has</text><text fill="#000000" font-family="sans-serif" font-size="20" lengthAdjust="spacing" textLength="13" x="2821.8312" y="2000.6044">1</text><text fill="#000000" font-family="sans-serif" font-size="20" lengthAdjust="spacing" textLength="13" x="3111.8089" y="2152.9256">1</text></g><!--link Agency to Employee--><g id="link_Agency_Employee"><path codeLine="172" d="M2470.31,1687.28 C2491.17,1714.35 2511.88,1741.23 2531.36,1766.52 " fill="none" id="Agency-to-Employee" style="stroke:#181818;stroke-width:1.0;"/><polygon fill="#181818" points="2534.32,1770.36,2532.0048,1760.7871,2531.2721,1766.3963,2525.6629,1765.6637,2534.32,1770.36" style="stroke:#181818;stroke-width:1.0;"/><text fill="#000000" font-family="sans-serif" font-size="20" lengthAdjust="spacing" textLength="33" x="2507" y="1737.3359">has</text><text fill="#000000" font-family="sans-serif" font-size="20" lengthAdjust="spacing" textLength="13" x="2462.219" y="1713.5564">1</text><text fill="#000000" font-family="sans-serif" font-size="20" lengthAdjust="spacing" textLength="10" x="2519.3227" y="1759.9328">*</text></g><!--SRC=[pLTBZzis4BxhLn2vL5lRYxH7erZ0wpg1qQozi9ts672biQskBAealRjAaF_UuKiYzR1pwA51i9PcFixZut264izPKL9EJpbBdY4bAUpfEPSVM26tsLSWlxwFVX8EGqwiOCcHinCGoSyGDPgI9i_q05jPvK0u998MXzm7Y2DDsMjM7CYUviBNv5a1iYg1b2olr8lliLOoBbc4_nfLabCXPbBoxEaiOPcmGaVyFegqXYnEPSug0F8jWZS9HIh8Pm4yYaQ4fkc6vH1p_3Cbwl5cIbvObgAEmuczmA3wI4LNzyJmbnQeXd_Ec5xCfcJzz3VI42XnxN7EKeXHcXNII1OdckKngBzJiiLiYaEmACbPeLUuV51s0Bawdvw0h_Sg0j4ObCoOK1Bp57rNj8MKRA1a8fECLqZEX80LVyg4d98PvxHIZxyv-9tbpBt7Ra4JL10oXkVazvNBpxmlMdc6ISqEK4XnNwdVf5gcCRKFEhsR_jX6TVoBDzI82rnwWIaZyQ15JBO_ILq5tnsV9iuMcphc3CIKQBC6uoYq6KtjKhIuBcN62fhNm9e9PKI569XfjDMzOYXhkD729ZXL6QtGLD6wk9HQHuNsT17js9m3bL2xD8WQS5_zIVCpn2_ghtEg57rslQARdUKHjpLBg4gqYUXRD4BBypFdg5KdSmj284BvzrvzK_LYP8QOzSj2OAz9TDI-MYk7NEkD7z15e-ufyO-VZsplVrnlWuyADoAsh7c88CC3aWZSUPjZ8qPsS-2OBo4Jw4JH6naYUU2ZunCH9JfyPJpz20LmYj8fUMoB58uEC7M1Grms6aublb7wAtNN87JXzTITWl2MaxYW9t1dVqo2LZ0cAkCI9ycSyjGqK6rlJ2Hzyzybv50UiUy683o-76iIqpOFw3yypMDt4BPWi_2wZyv7imgEPQz9epRHBAZAZusGg5p65c5IgT_StjK2xasffZ-PG5Nbu3uI8Jc099vJ9KqoMRLbAPBAiwI3nRCceItycfLggX4pWuB-uppFVdzOhjppnyLgPv-tk_LcyMMrsFsrtlpnvM6sGkKcq8Mo-QUbMgpVT6CoBUccvTfiXtDkMwHzyml4YZIrCxUxWQfT1LRSKmfQhEVNm0YjOrwcBk1QPCte_k5P717HwDe-tMutHhJteQ7Ms3Em2x5sBA-Giw1OhNpX4TUdVspO2rCMrgQ_6Q5NqRBUjqUT5Rw_ziw5u9vxab7KrwtEE6rrcizBxCWH3jMaxclJ2-rRJLf-nk66AmIsbyGqlrWaj2ZKqgrv27RFT4AiuA8yQxmfzvurYjg9Bgu2_oDw6DHuxscfg3wor_fIgHcp_f7y1yPXC6pNw9m7Gs1lWeRQ2TxkHN3JiUwkt71iFBg0UgpRxRGeS_sy21F8QfPUleTRQu-T0JBCirwmSuFb6YwSE5VGxb3qSMlRX-xXPKuhBC5znazwGlytqv7ys7WSTwQZgGlGtrwYK-V-dkoPYlZASQxH9MS9EZI7ZvjCtO1iqgE5UDLSsVV_5HS13VOOlFAikIlis8Si_u7hJPZp7jUiUdeiThNWBZsv2-_MAWrphnPHJ-ExlRlKwIxSOMzlGqTX5Ez-UKSc68hw7RfQOcZuqJoyhkSJzygApaVS5NphkygXB-RSSqM_nb9uNR-2xdnqNCCFNTnxwAjp_xbXrsRTeSx76gNZ9oJDnocLHTNkmmqoPyXYUY6U3UlsGjJ_0W00]--></g></svg>