<?xml version="1.0" encoding="UTF-8" standalone="no"?><svg xmlns="http://www.w3.org/2000/svg" xmlns:xlink="http://www.w3.org/1999/xlink" contentStyleType="text/css" height="1658px" preserveAspectRatio="none" style="width:2456px;height:1658px;background:#FFFFFF;" version="1.1" viewBox="0 0 2456 1658" width="2456px" zoomAndPan="magnify"><defs/><g><rect fill="#FFFFFF" height="1453.6328" style="stroke:#181818;stroke-width:1.0;" width="10" x="106.5" y="98.5547"/><rect fill="#FFFFFF" height="337.9922" style="stroke:#181818;stroke-width:1.0;" width="10" x="701.5" y="128.1094"/><rect fill="#FFFFFF" height="337.9922" style="stroke:#181818;stroke-width:1.0;" width="10" x="701.5" y="503.6563"/><rect fill="#FFFFFF" height="61.1094" style="stroke:#181818;stroke-width:1.0;" width="10" x="701.5" y="879.2031"/><rect fill="#FFFFFF" height="583.3203" style="stroke:#181818;stroke-width:1.0;" width="10" x="701.5" y="977.8672"/><rect fill="#FFFFFF" height="42.5547" style="stroke:#181818;stroke-width:1.0;" width="10" x="706.5" y="1370.9688"/><rect fill="#FFFFFF" height="102.1094" style="stroke:#181818;stroke-width:1.0;" width="10" x="706.5" y="1459.0781"/><rect fill="#FFFFFF" height="42.5547" style="stroke:#181818;stroke-width:1.0;" width="10" x="711.5" y="1509.6328"/><rect fill="#FFFFFF" height="262.8828" style="stroke:#181818;stroke-width:1.0;" width="10" x="1403.5" y="165.6641"/><rect fill="#FFFFFF" height="262.8828" style="stroke:#181818;stroke-width:1.0;" width="10" x="1403.5" y="541.2109"/><rect fill="#FFFFFF" height="286.4375" style="stroke:#181818;stroke-width:1.0;" width="10" x="1403.5" y="1038.9766"/><rect fill="#FFFFFF" height="37.5547" style="stroke:#181818;stroke-width:1.0;" width="10" x="1626.5" y="203.2188"/><rect fill="#FFFFFF" height="37.5547" style="stroke:#181818;stroke-width:1.0;" width="10" x="1626.5" y="578.7656"/><rect fill="#FFFFFF" height="37.5547" style="stroke:#181818;stroke-width:1.0;" width="10" x="1626.5" y="1076.5313"/><rect fill="#FFFFFF" height="37.5547" style="stroke:#181818;stroke-width:1.0;" width="10" x="1775.5" y="278.3281"/><rect fill="#FFFFFF" height="37.5547" style="stroke:#181818;stroke-width:1.0;" width="10" x="1775.5" y="653.875"/><rect fill="#FFFFFF" height="37.5547" style="stroke:#181818;stroke-width:1.0;" width="10" x="1775.5" y="1151.6406"/><rect fill="#FFFFFF" height="37.5547" style="stroke:#181818;stroke-width:1.0;" width="10" x="1937" y="353.4375"/><rect fill="#FFFFFF" height="37.5547" style="stroke:#181818;stroke-width:1.0;" width="10" x="2124.5" y="728.9844"/><rect fill="#FFFFFF" height="37.5547" style="stroke:#181818;stroke-width:1.0;" width="10" x="2337.5" y="1250.3047"/><line style="stroke:#181818;stroke-width:0.5;stroke-dasharray:5.0,5.0;" x1="111" x2="111" y1="88.5547" y2="1570.1875"/><line style="stroke:#181818;stroke-width:0.5;stroke-dasharray:5.0,5.0;" x1="706" x2="706" y1="88.5547" y2="1570.1875"/><line style="stroke:#181818;stroke-width:0.5;stroke-dasharray:5.0,5.0;" x1="1408" x2="1408" y1="88.5547" y2="1570.1875"/><line style="stroke:#181818;stroke-width:0.5;stroke-dasharray:5.0,5.0;" x1="1631" x2="1631" y1="88.5547" y2="1570.1875"/><line style="stroke:#181818;stroke-width:0.5;stroke-dasharray:5.0,5.0;" x1="1780" x2="1780" y1="88.5547" y2="1570.1875"/><line style="stroke:#181818;stroke-width:0.5;stroke-dasharray:5.0,5.0;" x1="1942" x2="1942" y1="88.5547" y2="1570.1875"/><line style="stroke:#181818;stroke-width:0.5;stroke-dasharray:5.0,5.0;" x1="2129" x2="2129" y1="88.5547" y2="1570.1875"/><line style="stroke:#181818;stroke-width:0.5;stroke-dasharray:5.0,5.0;" x1="2342" x2="2342" y1="88.5547" y2="1570.1875"/><text fill="#000000" font-family="sans-serif" font-size="20" lengthAdjust="spacing" textLength="207" x="5" y="84.3359">System Administrator</text><ellipse cx="111.5" cy="13.5" fill="#E3E3E3" rx="8" ry="8" style="stroke:#181818;stroke-width:0.5;"/><path d="M111.5,21.5 L111.5,48.5 M98.5,29.5 L124.5,29.5 M111.5,48.5 L98.5,63.5 M111.5,48.5 L124.5,63.5 " fill="none" style="stroke:#181818;stroke-width:0.5;"/><text fill="#000000" font-family="sans-serif" font-size="20" lengthAdjust="spacing" textLength="207" x="5" y="1588.5234">System Administrator</text><ellipse cx="111.5" cy="1601.2422" fill="#E3E3E3" rx="8" ry="8" style="stroke:#181818;stroke-width:0.5;"/><path d="M111.5,1609.2422 L111.5,1636.2422 M98.5,1617.2422 L124.5,1617.2422 M111.5,1636.2422 L98.5,1651.2422 M111.5,1636.2422 L124.5,1651.2422 " fill="none" style="stroke:#181818;stroke-width:0.5;"/><rect fill="#E3E3E3" height="37.5547" rx="2.5" ry="2.5" style="stroke:#181818;stroke-width:0.5;" width="211" x="601" y="50"/><text fill="#000000" font-family="sans-serif" font-size="20" lengthAdjust="spacing" textLength="197" x="608" y="76.3359">:RegisterEmployeeUI</text><rect fill="#E3E3E3" height="37.5547" rx="2.5" ry="2.5" style="stroke:#181818;stroke-width:0.5;" width="211" x="601" y="1569.1875"/><text fill="#000000" font-family="sans-serif" font-size="20" lengthAdjust="spacing" textLength="197" x="608" y="1595.5234">:RegisterEmployeeUI</text><rect fill="#E3E3E3" height="37.5547" rx="2.5" ry="2.5" style="stroke:#181818;stroke-width:0.5;" width="287" x="1265" y="50"/><text fill="#000000" font-family="sans-serif" font-size="20" lengthAdjust="spacing" textLength="273" x="1272" y="76.3359">:RegisterEmployeeController</text><rect fill="#E3E3E3" height="37.5547" rx="2.5" ry="2.5" style="stroke:#181818;stroke-width:0.5;" width="287" x="1265" y="1569.1875"/><text fill="#000000" font-family="sans-serif" font-size="20" lengthAdjust="spacing" textLength="273" x="1272" y="1595.5234">:RegisterEmployeeController</text><rect fill="#E3E3E3" height="37.5547" rx="2.5" ry="2.5" style="stroke:#181818;stroke-width:0.5;" width="139" x="1562" y="50"/><text fill="#000000" font-family="sans-serif" font-size="20" lengthAdjust="spacing" textLength="125" x="1569" y="76.3359">:Repositories</text><rect fill="#E3E3E3" height="37.5547" rx="2.5" ry="2.5" style="stroke:#181818;stroke-width:0.5;" width="139" x="1562" y="1569.1875"/><text fill="#000000" font-family="sans-serif" font-size="20" lengthAdjust="spacing" textLength="125" x="1569" y="1595.5234">:Repositories</text><rect fill="#E3E3E3" height="61.1094" rx="2.5" ry="2.5" style="stroke:#181818;stroke-width:0.5;" width="139" x="1711" y="26.4453"/><text fill="#000000" font-family="sans-serif" font-size="20" lengthAdjust="spacing" textLength="114" x="1723.5" y="52.7813">repositories</text><text fill="#000000" font-family="sans-serif" font-size="20" lengthAdjust="spacing" textLength="125" x="1718" y="76.3359">:Repositories</text><rect fill="#E3E3E3" height="61.1094" rx="2.5" ry="2.5" style="stroke:#181818;stroke-width:0.5;" width="139" x="1711" y="1569.1875"/><text fill="#000000" font-family="sans-serif" font-size="20" lengthAdjust="spacing" textLength="114" x="1723.5" y="1595.5234">repositories</text><text fill="#000000" font-family="sans-serif" font-size="20" lengthAdjust="spacing" textLength="125" x="1718" y="1619.0781">:Repositories</text><rect fill="#E3E3E3" height="37.5547" rx="2.5" ry="2.5" style="stroke:#181818;stroke-width:0.5;" width="164" x="1860" y="50"/><text fill="#000000" font-family="sans-serif" font-size="20" lengthAdjust="spacing" textLength="150" x="1867" y="76.3359">:RoleRepository</text><rect fill="#E3E3E3" height="37.5547" rx="2.5" ry="2.5" style="stroke:#181818;stroke-width:0.5;" width="164" x="1860" y="1569.1875"/><text fill="#000000" font-family="sans-serif" font-size="20" lengthAdjust="spacing" textLength="150" x="1867" y="1595.5234">:RoleRepository</text><rect fill="#E3E3E3" height="37.5547" rx="2.5" ry="2.5" style="stroke:#181818;stroke-width:0.5;" width="191" x="2034" y="50"/><text fill="#000000" font-family="sans-serif" font-size="20" lengthAdjust="spacing" textLength="177" x="2041" y="76.3359">:AgencyRepository</text><rect fill="#E3E3E3" height="37.5547" rx="2.5" ry="2.5" style="stroke:#181818;stroke-width:0.5;" width="191" x="2034" y="1569.1875"/><text fill="#000000" font-family="sans-serif" font-size="20" lengthAdjust="spacing" textLength="177" x="2041" y="1595.5234">:AgencyRepository</text><rect fill="#E3E3E3" height="37.5547" rx="2.5" ry="2.5" style="stroke:#181818;stroke-width:0.5;" width="215" x="2235" y="50"/><text fill="#000000" font-family="sans-serif" font-size="20" lengthAdjust="spacing" textLength="201" x="2242" y="76.3359">:EmployeeRepository</text><rect fill="#E3E3E3" height="37.5547" rx="2.5" ry="2.5" style="stroke:#181818;stroke-width:0.5;" width="215" x="2235" y="1569.1875"/><text fill="#000000" font-family="sans-serif" font-size="20" lengthAdjust="spacing" textLength="201" x="2242" y="1595.5234">:EmployeeRepository</text><rect fill="#FFFFFF" height="1453.6328" style="stroke:#181818;stroke-width:1.0;" width="10" x="106.5" y="98.5547"/><rect fill="#FFFFFF" height="337.9922" style="stroke:#181818;stroke-width:1.0;" width="10" x="701.5" y="128.1094"/><rect fill="#FFFFFF" height="337.9922" style="stroke:#181818;stroke-width:1.0;" width="10" x="701.5" y="503.6563"/><rect fill="#FFFFFF" height="61.1094" style="stroke:#181818;stroke-width:1.0;" width="10" x="701.5" y="879.2031"/><rect fill="#FFFFFF" height="583.3203" style="stroke:#181818;stroke-width:1.0;" width="10" x="701.5" y="977.8672"/><rect fill="#FFFFFF" height="42.5547" style="stroke:#181818;stroke-width:1.0;" width="10" x="706.5" y="1370.9688"/><rect fill="#FFFFFF" height="102.1094" style="stroke:#181818;stroke-width:1.0;" width="10" x="706.5" y="1459.0781"/><rect fill="#FFFFFF" height="42.5547" style="stroke:#181818;stroke-width:1.0;" width="10" x="711.5" y="1509.6328"/><rect fill="#FFFFFF" height="262.8828" style="stroke:#181818;stroke-width:1.0;" width="10" x="1403.5" y="165.6641"/><rect fill="#FFFFFF" height="262.8828" style="stroke:#181818;stroke-width:1.0;" width="10" x="1403.5" y="541.2109"/><rect fill="#FFFFFF" height="286.4375" style="stroke:#181818;stroke-width:1.0;" width="10" x="1403.5" y="1038.9766"/><rect fill="#FFFFFF" height="37.5547" style="stroke:#181818;stroke-width:1.0;" width="10" x="1626.5" y="203.2188"/><rect fill="#FFFFFF" height="37.5547" style="stroke:#181818;stroke-width:1.0;" width="10" x="1626.5" y="578.7656"/><rect fill="#FFFFFF" height="37.5547" style="stroke:#181818;stroke-width:1.0;" width="10" x="1626.5" y="1076.5313"/><rect fill="#FFFFFF" height="37.5547" style="stroke:#181818;stroke-width:1.0;" width="10" x="1775.5" y="278.3281"/><rect fill="#FFFFFF" height="37.5547" style="stroke:#181818;stroke-width:1.0;" width="10" x="1775.5" y="653.875"/><rect fill="#FFFFFF" height="37.5547" style="stroke:#181818;stroke-width:1.0;" width="10" x="1775.5" y="1151.6406"/><rect fill="#FFFFFF" height="37.5547" style="stroke:#181818;stroke-width:1.0;" width="10" x="1937" y="353.4375"/><rect fill="#FFFFFF" height="37.5547" style="stroke:#181818;stroke-width:1.0;" width="10" x="2124.5" y="728.9844"/><rect fill="#FFFFFF" height="37.5547" style="stroke:#181818;stroke-width:1.0;" width="10" x="2337.5" y="1250.3047"/><polygon fill="#181818" points="689.5,124.1094,699.5,128.1094,689.5,132.1094,693.5,128.1094" style="stroke:#181818;stroke-width:1.0;"/><line style="stroke:#181818;stroke-width:1.0;" x1="116.5" x2="695.5" y1="128.1094" y2="128.1094"/><text fill="#000000" font-family="sans-serif" font-size="20" font-weight="bold" lengthAdjust="spacing" textLength="13" x="123.5" y="121.8906">1</text><text fill="#000000" font-family="sans-serif" font-size="20" lengthAdjust="spacing" textLength="346" x="140.5" y="121.8906">requests to register a new employee</text><polygon fill="#181818" points="1391.5,161.6641,1401.5,165.6641,1391.5,169.6641,1395.5,165.6641" style="stroke:#181818;stroke-width:1.0;"/><line style="stroke:#181818;stroke-width:1.0;" x1="711.5" x2="1397.5" y1="165.6641" y2="165.6641"/><text fill="#000000" font-family="sans-serif" font-size="20" font-weight="bold" lengthAdjust="spacing" textLength="13" x="718.5" y="159.4453">2</text><text fill="#000000" font-family="sans-serif" font-size="20" lengthAdjust="spacing" textLength="183" x="735.5" y="159.4453">getRolesToCreate()</text><polygon fill="#181818" points="1614.5,199.2188,1624.5,203.2188,1614.5,207.2188,1618.5,203.2188" style="stroke:#181818;stroke-width:1.0;"/><line style="stroke:#181818;stroke-width:1.0;" x1="1413.5" x2="1620.5" y1="203.2188" y2="203.2188"/><text fill="#000000" font-family="sans-serif" font-size="20" font-weight="bold" lengthAdjust="spacing" textLength="13" x="1420.5" y="197">3</text><text fill="#000000" font-family="sans-serif" font-size="20" lengthAdjust="spacing" textLength="123" x="1437.5" y="197">getInstance()</text><polygon fill="#181818" points="1424.5,236.7734,1414.5,240.7734,1424.5,244.7734,1420.5,240.7734" style="stroke:#181818;stroke-width:1.0;"/><line style="stroke:#181818;stroke-width:1.0;stroke-dasharray:2.0,2.0;" x1="1418.5" x2="1630.5" y1="240.7734" y2="240.7734"/><text fill="#000000" font-family="sans-serif" font-size="20" font-weight="bold" lengthAdjust="spacing" textLength="13" x="1430.5" y="234.5547">4</text><text fill="#000000" font-family="sans-serif" font-size="20" lengthAdjust="spacing" textLength="114" x="1447.5" y="234.5547">repositories</text><polygon fill="#181818" points="1763.5,274.3281,1773.5,278.3281,1763.5,282.3281,1767.5,278.3281" style="stroke:#181818;stroke-width:1.0;"/><line style="stroke:#181818;stroke-width:1.0;" x1="1413.5" x2="1769.5" y1="278.3281" y2="278.3281"/><text fill="#000000" font-family="sans-serif" font-size="20" font-weight="bold" lengthAdjust="spacing" textLength="13" x="1420.5" y="272.1094">5</text><text fill="#000000" font-family="sans-serif" font-size="20" lengthAdjust="spacing" textLength="188" x="1437.5" y="272.1094">getRoleRepository()</text><polygon fill="#181818" points="1424.5,311.8828,1414.5,315.8828,1424.5,319.8828,1420.5,315.8828" style="stroke:#181818;stroke-width:1.0;"/><line style="stroke:#181818;stroke-width:1.0;stroke-dasharray:2.0,2.0;" x1="1418.5" x2="1779.5" y1="315.8828" y2="315.8828"/><text fill="#000000" font-family="sans-serif" font-size="20" font-weight="bold" lengthAdjust="spacing" textLength="13" x="1430.5" y="309.6641">6</text><text fill="#000000" font-family="sans-serif" font-size="20" lengthAdjust="spacing" textLength="139" x="1447.5" y="309.6641">roleRepository</text><polygon fill="#181818" points="1925,349.4375,1935,353.4375,1925,357.4375,1929,353.4375" style="stroke:#181818;stroke-width:1.0;"/><line style="stroke:#181818;stroke-width:1.0;" x1="1413.5" x2="1931" y1="353.4375" y2="353.4375"/><text fill="#000000" font-family="sans-serif" font-size="20" font-weight="bold" lengthAdjust="spacing" textLength="13" x="1420.5" y="347.2188">7</text><text fill="#000000" font-family="sans-serif" font-size="20" lengthAdjust="spacing" textLength="183" x="1437.5" y="347.2188">getRolesToCreate()</text><polygon fill="#181818" points="1424.5,386.9922,1414.5,390.9922,1424.5,394.9922,1420.5,390.9922" style="stroke:#181818;stroke-width:1.0;"/><line style="stroke:#181818;stroke-width:1.0;stroke-dasharray:2.0,2.0;" x1="1418.5" x2="1941" y1="390.9922" y2="390.9922"/><text fill="#000000" font-family="sans-serif" font-size="20" font-weight="bold" lengthAdjust="spacing" textLength="13" x="1430.5" y="384.7734">8</text><text fill="#000000" font-family="sans-serif" font-size="20" lengthAdjust="spacing" textLength="71" x="1447.5" y="384.7734">roleList</text><polygon fill="#181818" points="722.5,424.5469,712.5,428.5469,722.5,432.5469,718.5,428.5469" style="stroke:#181818;stroke-width:1.0;"/><line style="stroke:#181818;stroke-width:1.0;stroke-dasharray:2.0,2.0;" x1="716.5" x2="1407.5" y1="428.5469" y2="428.5469"/><text fill="#000000" font-family="sans-serif" font-size="20" font-weight="bold" lengthAdjust="spacing" textLength="13" x="728.5" y="422.3281">9</text><text fill="#000000" font-family="sans-serif" font-size="20" lengthAdjust="spacing" textLength="71" x="745.5" y="422.3281">roleList</text><polygon fill="#181818" points="127.5,462.1016,117.5,466.1016,127.5,470.1016,123.5,466.1016" style="stroke:#181818;stroke-width:1.0;"/><line style="stroke:#181818;stroke-width:1.0;stroke-dasharray:2.0,2.0;" x1="121.5" x2="705.5" y1="466.1016" y2="466.1016"/><text fill="#000000" font-family="sans-serif" font-size="20" font-weight="bold" lengthAdjust="spacing" textLength="26" x="133.5" y="459.8828">10</text><text fill="#000000" font-family="sans-serif" font-size="20" lengthAdjust="spacing" textLength="365" x="163.5" y="459.8828">requests the role of the new employee</text><polygon fill="#181818" points="689.5,499.6563,699.5,503.6563,689.5,507.6563,693.5,503.6563" style="stroke:#181818;stroke-width:1.0;"/><line style="stroke:#181818;stroke-width:1.0;" x1="116.5" x2="695.5" y1="503.6563" y2="503.6563"/><text fill="#000000" font-family="sans-serif" font-size="20" font-weight="bold" lengthAdjust="spacing" textLength="26" x="123.5" y="497.4375">11</text><text fill="#000000" font-family="sans-serif" font-size="20" lengthAdjust="spacing" textLength="366" x="153.5" y="497.4375">provides the role of the new employee</text><polygon fill="#181818" points="1391.5,537.2109,1401.5,541.2109,1391.5,545.2109,1395.5,541.2109" style="stroke:#181818;stroke-width:1.0;"/><line style="stroke:#181818;stroke-width:1.0;" x1="711.5" x2="1397.5" y1="541.2109" y2="541.2109"/><text fill="#000000" font-family="sans-serif" font-size="20" font-weight="bold" lengthAdjust="spacing" textLength="26" x="718.5" y="534.9922">12</text><text fill="#000000" font-family="sans-serif" font-size="20" lengthAdjust="spacing" textLength="130" x="748.5" y="534.9922">getAgencies()</text><polygon fill="#181818" points="1614.5,574.7656,1624.5,578.7656,1614.5,582.7656,1618.5,578.7656" style="stroke:#181818;stroke-width:1.0;"/><line style="stroke:#181818;stroke-width:1.0;" x1="1413.5" x2="1620.5" y1="578.7656" y2="578.7656"/><text fill="#000000" font-family="sans-serif" font-size="20" font-weight="bold" lengthAdjust="spacing" textLength="26" x="1420.5" y="572.5469">13</text><text fill="#000000" font-family="sans-serif" font-size="20" lengthAdjust="spacing" textLength="123" x="1450.5" y="572.5469">getInstance()</text><polygon fill="#181818" points="1424.5,612.3203,1414.5,616.3203,1424.5,620.3203,1420.5,616.3203" style="stroke:#181818;stroke-width:1.0;"/><line style="stroke:#181818;stroke-width:1.0;stroke-dasharray:2.0,2.0;" x1="1418.5" x2="1630.5" y1="616.3203" y2="616.3203"/><text fill="#000000" font-family="sans-serif" font-size="20" font-weight="bold" lengthAdjust="spacing" textLength="26" x="1430.5" y="610.1016">14</text><text fill="#000000" font-family="sans-serif" font-size="20" lengthAdjust="spacing" textLength="114" x="1460.5" y="610.1016">repositories</text><polygon fill="#181818" points="1763.5,649.875,1773.5,653.875,1763.5,657.875,1767.5,653.875" style="stroke:#181818;stroke-width:1.0;"/><line style="stroke:#181818;stroke-width:1.0;" x1="1413.5" x2="1769.5" y1="653.875" y2="653.875"/><text fill="#000000" font-family="sans-serif" font-size="20" font-weight="bold" lengthAdjust="spacing" textLength="26" x="1420.5" y="647.6563">15</text><text fill="#000000" font-family="sans-serif" font-size="20" lengthAdjust="spacing" textLength="215" x="1450.5" y="647.6563">getAgencyRepository()</text><polygon fill="#181818" points="1424.5,687.4297,1414.5,691.4297,1424.5,695.4297,1420.5,691.4297" style="stroke:#181818;stroke-width:1.0;"/><line style="stroke:#181818;stroke-width:1.0;stroke-dasharray:2.0,2.0;" x1="1418.5" x2="1779.5" y1="691.4297" y2="691.4297"/><text fill="#000000" font-family="sans-serif" font-size="20" font-weight="bold" lengthAdjust="spacing" textLength="26" x="1430.5" y="685.2109">16</text><text fill="#000000" font-family="sans-serif" font-size="20" lengthAdjust="spacing" textLength="168" x="1460.5" y="685.2109">agencyRepository</text><polygon fill="#181818" points="2112.5,724.9844,2122.5,728.9844,2112.5,732.9844,2116.5,728.9844" style="stroke:#181818;stroke-width:1.0;"/><line style="stroke:#181818;stroke-width:1.0;" x1="1413.5" x2="2118.5" y1="728.9844" y2="728.9844"/><text fill="#000000" font-family="sans-serif" font-size="20" font-weight="bold" lengthAdjust="spacing" textLength="26" x="1420.5" y="722.7656">17</text><text fill="#000000" font-family="sans-serif" font-size="20" lengthAdjust="spacing" textLength="130" x="1450.5" y="722.7656">getAgencies()</text><polygon fill="#181818" points="1424.5,762.5391,1414.5,766.5391,1424.5,770.5391,1420.5,766.5391" style="stroke:#181818;stroke-width:1.0;"/><line style="stroke:#181818;stroke-width:1.0;stroke-dasharray:2.0,2.0;" x1="1418.5" x2="2128.5" y1="766.5391" y2="766.5391"/><text fill="#000000" font-family="sans-serif" font-size="20" font-weight="bold" lengthAdjust="spacing" textLength="26" x="1430.5" y="760.3203">18</text><text fill="#000000" font-family="sans-serif" font-size="20" lengthAdjust="spacing" textLength="100" x="1460.5" y="760.3203">agencyList</text><polygon fill="#181818" points="722.5,800.0938,712.5,804.0938,722.5,808.0938,718.5,804.0938" style="stroke:#181818;stroke-width:1.0;"/><line style="stroke:#181818;stroke-width:1.0;stroke-dasharray:2.0,2.0;" x1="716.5" x2="1407.5" y1="804.0938" y2="804.0938"/><text fill="#000000" font-family="sans-serif" font-size="20" font-weight="bold" lengthAdjust="spacing" textLength="26" x="728.5" y="797.875">19</text><text fill="#000000" font-family="sans-serif" font-size="20" lengthAdjust="spacing" textLength="100" x="758.5" y="797.875">agencyList</text><polygon fill="#181818" points="127.5,837.6484,117.5,841.6484,127.5,845.6484,123.5,841.6484" style="stroke:#181818;stroke-width:1.0;"/><line style="stroke:#181818;stroke-width:1.0;stroke-dasharray:2.0,2.0;" x1="121.5" x2="705.5" y1="841.6484" y2="841.6484"/><text fill="#000000" font-family="sans-serif" font-size="20" font-weight="bold" lengthAdjust="spacing" textLength="26" x="133.5" y="835.4297">20</text><text fill="#000000" font-family="sans-serif" font-size="20" lengthAdjust="spacing" textLength="244" x="163.5" y="835.4297">shows the list of agencies</text><polygon fill="#181818" points="689.5,875.2031,699.5,879.2031,689.5,883.2031,693.5,879.2031" style="stroke:#181818;stroke-width:1.0;"/><line style="stroke:#181818;stroke-width:1.0;" x1="116.5" x2="695.5" y1="879.2031" y2="879.2031"/><text fill="#000000" font-family="sans-serif" font-size="20" font-weight="bold" lengthAdjust="spacing" textLength="26" x="123.5" y="872.9844">21</text><text fill="#000000" font-family="sans-serif" font-size="20" lengthAdjust="spacing" textLength="296" x="153.5" y="872.9844">selects the agency from the list</text><polygon fill="#181818" points="127.5,936.3125,117.5,940.3125,127.5,944.3125,123.5,940.3125" style="stroke:#181818;stroke-width:1.0;"/><line style="stroke:#181818;stroke-width:1.0;stroke-dasharray:2.0,2.0;" x1="121.5" x2="705.5" y1="940.3125" y2="940.3125"/><text fill="#000000" font-family="sans-serif" font-size="20" font-weight="bold" lengthAdjust="spacing" textLength="26" x="133.5" y="922.3164">22</text><text fill="#000000" font-family="sans-serif" font-size="20" lengthAdjust="spacing" textLength="531" x="163.5" y="910.5391">requests the name, passport card number, tax number,</text><text fill="#000000" font-family="sans-serif" font-size="20" lengthAdjust="spacing" textLength="486" x="163.5" y="934.0938">address, email address, contact telephone number</text><polygon fill="#181818" points="689.5,973.8672,699.5,977.8672,689.5,981.8672,693.5,977.8672" style="stroke:#181818;stroke-width:1.0;"/><line style="stroke:#181818;stroke-width:1.0;" x1="116.5" x2="695.5" y1="977.8672" y2="977.8672"/><text fill="#000000" font-family="sans-serif" font-size="20" font-weight="bold" lengthAdjust="spacing" textLength="26" x="123.5" y="971.6484">23</text><text fill="#000000" font-family="sans-serif" font-size="20" lengthAdjust="spacing" textLength="266" x="153.5" y="971.6484">provides the necessary data</text><polygon fill="#181818" points="1391.5,1034.9766,1401.5,1038.9766,1391.5,1042.9766,1395.5,1038.9766" style="stroke:#181818;stroke-width:1.0;"/><line style="stroke:#181818;stroke-width:1.0;" x1="711.5" x2="1397.5" y1="1038.9766" y2="1038.9766"/><text fill="#000000" font-family="sans-serif" font-size="20" font-weight="bold" lengthAdjust="spacing" textLength="26" x="718.5" y="1020.9805">24</text><text fill="#000000" font-family="sans-serif" font-size="20" lengthAdjust="spacing" textLength="637" x="748.5" y="1009.2031">registerEmployee(name, email, passportCardNumber, taxNumber,</text><text fill="#000000" font-family="sans-serif" font-size="20" lengthAdjust="spacing" textLength="487" x="748.5" y="1032.7578">address, telephoneNumber, selectedAgency, roles)</text><polygon fill="#181818" points="1614.5,1072.5313,1624.5,1076.5313,1614.5,1080.5313,1618.5,1076.5313" style="stroke:#181818;stroke-width:1.0;"/><line style="stroke:#181818;stroke-width:1.0;" x1="1413.5" x2="1620.5" y1="1076.5313" y2="1076.5313"/><text fill="#000000" font-family="sans-serif" font-size="20" font-weight="bold" lengthAdjust="spacing" textLength="26" x="1420.5" y="1070.3125">25</text><text fill="#000000" font-family="sans-serif" font-size="20" lengthAdjust="spacing" textLength="123" x="1450.5" y="1070.3125">getInstance()</text><polygon fill="#181818" points="1424.5,1110.0859,1414.5,1114.0859,1424.5,1118.0859,1420.5,1114.0859" style="stroke:#181818;stroke-width:1.0;"/><line style="stroke:#181818;stroke-width:1.0;stroke-dasharray:2.0,2.0;" x1="1418.5" x2="1630.5" y1="1114.0859" y2="1114.0859"/><text fill="#000000" font-family="sans-serif" font-size="20" font-weight="bold" lengthAdjust="spacing" textLength="26" x="1430.5" y="1107.8672">26</text><text fill="#000000" font-family="sans-serif" font-size="20" lengthAdjust="spacing" textLength="114" x="1460.5" y="1107.8672">repositories</text><polygon fill="#181818" points="1763.5,1147.6406,1773.5,1151.6406,1763.5,1155.6406,1767.5,1151.6406" style="stroke:#181818;stroke-width:1.0;"/><line style="stroke:#181818;stroke-width:1.0;" x1="1413.5" x2="1769.5" y1="1151.6406" y2="1151.6406"/><text fill="#000000" font-family="sans-serif" font-size="20" font-weight="bold" lengthAdjust="spacing" textLength="26" x="1420.5" y="1145.4219">27</text><text fill="#000000" font-family="sans-serif" font-size="20" lengthAdjust="spacing" textLength="239" x="1450.5" y="1145.4219">getEmployeeRepository()</text><polygon fill="#181818" points="1424.5,1185.1953,1414.5,1189.1953,1424.5,1193.1953,1420.5,1189.1953" style="stroke:#181818;stroke-width:1.0;"/><line style="stroke:#181818;stroke-width:1.0;stroke-dasharray:2.0,2.0;" x1="1418.5" x2="1779.5" y1="1189.1953" y2="1189.1953"/><text fill="#000000" font-family="sans-serif" font-size="20" font-weight="bold" lengthAdjust="spacing" textLength="26" x="1430.5" y="1182.9766">28</text><text fill="#000000" font-family="sans-serif" font-size="20" lengthAdjust="spacing" textLength="195" x="1460.5" y="1182.9766">employeeRepository</text><polygon fill="#181818" points="2325.5,1246.3047,2335.5,1250.3047,2325.5,1254.3047,2329.5,1250.3047" style="stroke:#181818;stroke-width:1.0;"/><line style="stroke:#181818;stroke-width:1.0;" x1="1413.5" x2="2331.5" y1="1250.3047" y2="1250.3047"/><text fill="#000000" font-family="sans-serif" font-size="20" font-weight="bold" lengthAdjust="spacing" textLength="26" x="1420.5" y="1232.3086">29</text><text fill="#000000" font-family="sans-serif" font-size="20" lengthAdjust="spacing" textLength="601" x="1450.5" y="1220.5313">addEmployee(name, email, passportCardNumber, taxNumber,</text><text fill="#000000" font-family="sans-serif" font-size="20" lengthAdjust="spacing" textLength="487" x="1450.5" y="1244.0859">address, telephoneNumber, selectedAgency, roles)</text><polygon fill="#181818" points="1424.5,1283.8594,1414.5,1287.8594,1424.5,1291.8594,1420.5,1287.8594" style="stroke:#181818;stroke-width:1.0;"/><line style="stroke:#181818;stroke-width:1.0;stroke-dasharray:2.0,2.0;" x1="1418.5" x2="2341.5" y1="1287.8594" y2="1287.8594"/><text fill="#000000" font-family="sans-serif" font-size="20" font-weight="bold" lengthAdjust="spacing" textLength="26" x="1430.5" y="1281.6406">30</text><text fill="#000000" font-family="sans-serif" font-size="20" lengthAdjust="spacing" textLength="73" x="1460.5" y="1281.6406">success</text><polygon fill="#181818" points="722.5,1321.4141,712.5,1325.4141,722.5,1329.4141,718.5,1325.4141" style="stroke:#181818;stroke-width:1.0;"/><line style="stroke:#181818;stroke-width:1.0;stroke-dasharray:2.0,2.0;" x1="716.5" x2="1407.5" y1="1325.4141" y2="1325.4141"/><text fill="#000000" font-family="sans-serif" font-size="20" font-weight="bold" lengthAdjust="spacing" textLength="26" x="728.5" y="1319.1953">31</text><text fill="#000000" font-family="sans-serif" font-size="20" lengthAdjust="spacing" textLength="73" x="758.5" y="1319.1953">success</text><line style="stroke:#181818;stroke-width:1.0;" x1="711.5" x2="758.5" y1="1357.9688" y2="1357.9688"/><line style="stroke:#181818;stroke-width:1.0;" x1="758.5" x2="758.5" y1="1357.9688" y2="1370.9688"/><line style="stroke:#181818;stroke-width:1.0;" x1="717.5" x2="758.5" y1="1370.9688" y2="1370.9688"/><polygon fill="#181818" points="727.5,1366.9688,717.5,1370.9688,727.5,1374.9688,723.5,1370.9688" style="stroke:#181818;stroke-width:1.0;"/><text fill="#000000" font-family="sans-serif" font-size="20" font-weight="bold" lengthAdjust="spacing" textLength="26" x="723.5" y="1351.75">32</text><text fill="#000000" font-family="sans-serif" font-size="20" lengthAdjust="spacing" textLength="239" x="753.5" y="1351.75">displaySuccessMessage()</text><polygon fill="#181818" points="127.5,1409.5234,117.5,1413.5234,127.5,1417.5234,123.5,1413.5234" style="stroke:#181818;stroke-width:1.0;"/><line style="stroke:#181818;stroke-width:1.0;stroke-dasharray:2.0,2.0;" x1="121.5" x2="700.5" y1="1413.5234" y2="1413.5234"/><text fill="#000000" font-family="sans-serif" font-size="20" font-weight="bold" lengthAdjust="spacing" textLength="26" x="133.5" y="1407.3047">33</text><text fill="#000000" font-family="sans-serif" font-size="20" lengthAdjust="spacing" textLength="261" x="163.5" y="1407.3047">operation success message</text><line style="stroke:#181818;stroke-width:1.0;" x1="711.5" x2="758.5" y1="1446.0781" y2="1446.0781"/><line style="stroke:#181818;stroke-width:1.0;" x1="758.5" x2="758.5" y1="1446.0781" y2="1459.0781"/><line style="stroke:#181818;stroke-width:1.0;" x1="717.5" x2="758.5" y1="1459.0781" y2="1459.0781"/><polygon fill="#181818" points="727.5,1455.0781,717.5,1459.0781,727.5,1463.0781,723.5,1459.0781" style="stroke:#181818;stroke-width:1.0;"/><text fill="#000000" font-family="sans-serif" font-size="20" font-weight="bold" lengthAdjust="spacing" textLength="26" x="723.5" y="1439.8594">34</text><text fill="#000000" font-family="sans-serif" font-size="20" lengthAdjust="spacing" textLength="187" x="753.5" y="1439.8594">generatePassword()</text><line style="stroke:#181818;stroke-width:1.0;" x1="716.5" x2="763.5" y1="1496.6328" y2="1496.6328"/><line style="stroke:#181818;stroke-width:1.0;" x1="763.5" x2="763.5" y1="1496.6328" y2="1509.6328"/><line style="stroke:#181818;stroke-width:1.0;" x1="722.5" x2="763.5" y1="1509.6328" y2="1509.6328"/><polygon fill="#181818" points="732.5,1505.6328,722.5,1509.6328,732.5,1513.6328,728.5,1509.6328" style="stroke:#181818;stroke-width:1.0;"/><text fill="#000000" font-family="sans-serif" font-size="20" font-weight="bold" lengthAdjust="spacing" textLength="26" x="728.5" y="1490.4141">35</text><text fill="#000000" font-family="sans-serif" font-size="20" lengthAdjust="spacing" textLength="476" x="758.5" y="1490.4141">sendPasswordByEmail(email, generatedPassword)</text><polygon fill="#181818" points="122.5,1548.1875,112.5,1552.1875,122.5,1556.1875,118.5,1552.1875" style="stroke:#181818;stroke-width:1.0;"/><line style="stroke:#181818;stroke-width:1.0;stroke-dasharray:2.0,2.0;" x1="116.5" x2="705.5" y1="1552.1875" y2="1552.1875"/><text fill="#000000" font-family="sans-serif" font-size="20" font-weight="bold" lengthAdjust="spacing" textLength="26" x="128.5" y="1545.9688">36</text><text fill="#000000" font-family="sans-serif" font-size="20" lengthAdjust="spacing" textLength="372" x="158.5" y="1545.9688">password sent to the employee's email</text><!--SRC=[rLOzRzim4DtrAmvPcW8EK7JCK20rKY10MWHnicLXnRDCX29Laewh_leUHOcaPDb2bmBPPEgz-thlJDbNeHfcM2rr-OeSE6xPNhflMhcD-8Fm-LDX1mZKMkboPtIDuCmUipSDArzPXHlNIWI3fMEgaZd0xXZN1w4gs39fiIZOtccrht-YeUVIQGCNczOwhE66rq89wmoZqmjW5cnhkyE2OZbHYeOf1nVNZrWH3CrjtKZT8ZxVTUZdkmNScfepMaeCqTTFZ_T7Z4PRGUa5sWuJ3zgDy9rHxMEAoHWlwZZ0m_tDqpI9bfZYXZJzqGHvKw4gsmas7KxGGviJV7xSZLoyCOTfjiNm15TVQ8PmJJh-sgDr5focvp13OA3m0DW7It5ewWMnYEldIUmAdM_7FkcrGK9SVapWRkH51oJ2p703_qvPCb8veiufKSn5kEfByNqaCGgEvqCDHNd1KXS9cjVIYLfqo2pR29xd2_3OTOzR65MqH149Lsd8Fjaz2JDgAp92gYZd33O8uNKZL3H0BlqEEoBeRVSy4ZyBvEK_Cb1Zz9lWk13bh8KwbvDkxzOzqzrTz0-R44uxA8K-FQliNwB8y9c5GhwfCNBUs4Rp-5D6iZjz2FfBOdZzML_bediiIhf80ZaaXItTFJ7OiN7EU5Yn6bTqJLdRQEEWP8P3k7vMuDZluVb5CSuDMhiYVp8X8VuiwTAWXE2egcQd5VQKVri2XIL5OwO5pXmxOtqpkRCkGmDTKQcFDRNn8tKnF6PTn7A7Ts6go8F0gsujxNjThkEhRd6zy8XoUi7oyDxvdFztESQtzgYWR8VjllI-oZiP4yShF0DF-zjZkB2DPEqcGBzxrrOZjUUNJZT8tss2HEwJG1seqpt9Kb7hdeGFDCQ3DdmkI_nFK7o0VMrl_VWlUn66AF7zOgrD3_HHdV_8yHiw-EE33UfEwyv-na-dlm00]--></g></svg>