<?xml version="1.0" encoding="UTF-8" standalone="no"?><svg xmlns="http://www.w3.org/2000/svg" xmlns:xlink="http://www.w3.org/1999/xlink" contentStyleType="text/css" height="1027px" preserveAspectRatio="none" style="width:1357px;height:1027px;background:#FFFFFF;" version="1.1" viewBox="0 0 1357 1027" width="1357px" zoomAndPan="magnify"><defs/><g><!--class ApplicationSession--><g id="elem_ApplicationSession"><rect codeLine="9" fill="#F1F1F1" height="97.1094" id="ApplicationSession" rx="2.5" ry="2.5" style="stroke:#181818;stroke-width:0.5;" width="216" x="290.5" y="213"/><ellipse cx="306.5" cy="230" fill="#ADD1B2" rx="12" ry="12" style="stroke:#181818;stroke-width:1.0;"/><path d="M309.3066,237.0801 Q308.623,237.4316 307.8711,237.6074 Q307.1191,237.7832 306.2891,237.7832 Q303.3398,237.7832 301.7871,235.8398 Q300.2344,233.8965 300.2344,230.2246 Q300.2344,226.543 301.7871,224.5996 Q303.3398,222.6563 306.2891,222.6563 Q307.1191,222.6563 307.8809,222.832 Q308.6426,223.0078 309.3066,223.3594 L309.3066,226.5625 Q308.5645,225.8789 307.8662,225.5615 Q307.168,225.2441 306.4258,225.2441 Q304.8438,225.2441 304.0381,226.499 Q303.2324,227.7539 303.2324,230.2246 Q303.2324,232.6855 304.0381,233.9404 Q304.8438,235.1953 306.4258,235.1953 Q307.168,235.1953 307.8662,234.8779 Q308.5645,234.5605 309.3066,233.877 Z " fill="#000000"/><text fill="#000000" font-family="sans-serif" font-size="20" lengthAdjust="spacing" textLength="182" x="321.5" y="237.5586">ApplicationSession</text><line style="stroke:#181818;stroke-width:0.5;" x1="291.5" x2="505.5" y1="247" y2="247"/><line style="stroke:#181818;stroke-width:0.5;" x1="291.5" x2="505.5" y1="255" y2="255"/><text fill="#000000" font-family="sans-serif" font-size="20" lengthAdjust="spacing" textLength="196" x="296.5" y="278.3359">+static getInstance()</text><text fill="#000000" font-family="sans-serif" font-size="20" lengthAdjust="spacing" textLength="204" x="296.5" y="301.8906">+getCurrentSession()</text></g><!--class UserSession--><g id="elem_UserSession"><rect codeLine="14" fill="#F1F1F1" height="73.5547" id="UserSession" rx="2.5" ry="2.5" style="stroke:#181818;stroke-width:0.5;" width="168" x="184.5" y="453.5"/><ellipse cx="209.05" cy="470.5" fill="#ADD1B2" rx="12" ry="12" style="stroke:#181818;stroke-width:1.0;"/><path d="M211.8566,477.5801 Q211.173,477.9316 210.4211,478.1074 Q209.6691,478.2832 208.8391,478.2832 Q205.8898,478.2832 204.3371,476.3398 Q202.7844,474.3965 202.7844,470.7246 Q202.7844,467.043 204.3371,465.0996 Q205.8898,463.1563 208.8391,463.1563 Q209.6691,463.1563 210.4309,463.332 Q211.1926,463.5078 211.8566,463.8594 L211.8566,467.0625 Q211.1145,466.3789 210.4162,466.0615 Q209.718,465.7441 208.9758,465.7441 Q207.3938,465.7441 206.5881,466.999 Q205.7824,468.2539 205.7824,470.7246 Q205.7824,473.1855 206.5881,474.4404 Q207.3938,475.6953 208.9758,475.6953 Q209.718,475.6953 210.4162,475.3779 Q211.1145,475.0605 211.8566,474.377 Z " fill="#000000"/><text fill="#000000" font-family="sans-serif" font-size="20" lengthAdjust="spacing" textLength="115" x="225.95" y="478.0586">UserSession</text><line style="stroke:#181818;stroke-width:0.5;" x1="185.5" x2="351.5" y1="487.5" y2="487.5"/><line style="stroke:#181818;stroke-width:0.5;" x1="185.5" x2="351.5" y1="495.5" y2="495.5"/><text fill="#000000" font-family="sans-serif" font-size="20" lengthAdjust="spacing" textLength="156" x="190.5" y="518.8359">+getUserEmail()</text></g><!--class SystemAdministrator--><g id="elem_SystemAdministrator"><rect codeLine="18" fill="#F1F1F1" height="144.2188" id="SystemAdministrator" rx="2.5" ry="2.5" style="stroke:#181818;stroke-width:0.5;" width="235" x="628" y="876"/><ellipse cx="644" cy="893" fill="#ADD1B2" rx="12" ry="12" style="stroke:#181818;stroke-width:1.0;"/><path d="M646.8066,900.0801 Q646.123,900.4316 645.3711,900.6074 Q644.6191,900.7832 643.7891,900.7832 Q640.8398,900.7832 639.2871,898.8398 Q637.7344,896.8965 637.7344,893.2246 Q637.7344,889.543 639.2871,887.5996 Q640.8398,885.6563 643.7891,885.6563 Q644.6191,885.6563 645.3809,885.832 Q646.1426,886.0078 646.8066,886.3594 L646.8066,889.5625 Q646.0645,888.8789 645.3662,888.5615 Q644.668,888.2441 643.9258,888.2441 Q642.3438,888.2441 641.5381,889.499 Q640.7324,890.7539 640.7324,893.2246 Q640.7324,895.6855 641.5381,896.9404 Q642.3438,898.1953 643.9258,898.1953 Q644.668,898.1953 645.3662,897.8779 Q646.0645,897.5605 646.8066,896.877 Z " fill="#000000"/><text fill="#000000" font-family="sans-serif" font-size="20" lengthAdjust="spacing" textLength="201" x="659" y="900.5586">SystemAdministrator</text><line style="stroke:#181818;stroke-width:0.5;" x1="629" x2="862" y1="910" y2="910"/><text fill="#000000" font-family="sans-serif" font-size="20" lengthAdjust="spacing" textLength="133" x="634" y="933.3359">-name: String</text><text fill="#000000" font-family="sans-serif" font-size="20" lengthAdjust="spacing" textLength="133" x="634" y="956.8906">-email: String</text><text fill="#000000" font-family="sans-serif" font-size="20" lengthAdjust="spacing" textLength="158" x="634" y="980.4453">-position: String</text><text fill="#000000" font-family="sans-serif" font-size="20" lengthAdjust="spacing" textLength="140" x="634" y="1004">-phone: String</text><line style="stroke:#181818;stroke-width:0.5;" x1="629" x2="862" y1="1012.2188" y2="1012.2188"/></g><!--class Employee--><g id="elem_Employee"><rect codeLine="25" fill="#F1F1F1" height="144.2188" id="Employee" rx="2.5" ry="2.5" style="stroke:#181818;stroke-width:0.5;" width="170" x="660.5" y="671"/><ellipse cx="695.85" cy="688" fill="#ADD1B2" rx="12" ry="12" style="stroke:#181818;stroke-width:1.0;"/><path d="M698.6566,695.0801 Q697.973,695.4316 697.2211,695.6074 Q696.4691,695.7832 695.6391,695.7832 Q692.6898,695.7832 691.1371,693.8398 Q689.5844,691.8965 689.5844,688.2246 Q689.5844,684.543 691.1371,682.5996 Q692.6898,680.6563 695.6391,680.6563 Q696.4691,680.6563 697.2309,680.832 Q697.9926,681.0078 698.6566,681.3594 L698.6566,684.5625 Q697.9145,683.8789 697.2162,683.5615 Q696.518,683.2441 695.7758,683.2441 Q694.1938,683.2441 693.3881,684.499 Q692.5824,685.7539 692.5824,688.2246 Q692.5824,690.6855 693.3881,691.9404 Q694.1938,693.1953 695.7758,693.1953 Q696.518,693.1953 697.2162,692.8779 Q697.9145,692.5605 698.6566,691.877 Z " fill="#000000"/><text fill="#000000" font-family="sans-serif" font-size="20" lengthAdjust="spacing" textLength="93" x="715.15" y="695.5586">Employee</text><line style="stroke:#181818;stroke-width:0.5;" x1="661.5" x2="829.5" y1="705" y2="705"/><text fill="#000000" font-family="sans-serif" font-size="20" lengthAdjust="spacing" textLength="133" x="666.5" y="728.3359">-name: String</text><text fill="#000000" font-family="sans-serif" font-size="20" lengthAdjust="spacing" textLength="133" x="666.5" y="751.8906">-email: String</text><text fill="#000000" font-family="sans-serif" font-size="20" lengthAdjust="spacing" textLength="158" x="666.5" y="775.4453">-position: String</text><text fill="#000000" font-family="sans-serif" font-size="20" lengthAdjust="spacing" textLength="140" x="666.5" y="799">-phone: String</text><line style="stroke:#181818;stroke-width:0.5;" x1="661.5" x2="829.5" y1="807.2188" y2="807.2188"/></g><!--class Organization--><g id="elem_Organization"><rect codeLine="32" fill="#F1F1F1" height="191.3281" id="Organization" rx="2.5" ry="2.5" style="stroke:#181818;stroke-width:0.5;" width="692" x="399.5" y="395"/><ellipse cx="679" cy="412" fill="#ADD1B2" rx="12" ry="12" style="stroke:#181818;stroke-width:1.0;"/><path d="M681.8066,419.0801 Q681.123,419.4316 680.3711,419.6074 Q679.6191,419.7832 678.7891,419.7832 Q675.8398,419.7832 674.2871,417.8398 Q672.7344,415.8965 672.7344,412.2246 Q672.7344,408.543 674.2871,406.5996 Q675.8398,404.6563 678.7891,404.6563 Q679.6191,404.6563 680.3809,404.832 Q681.1426,405.0078 681.8066,405.3594 L681.8066,408.5625 Q681.0645,407.8789 680.3662,407.5615 Q679.668,407.2441 678.9258,407.2441 Q677.3438,407.2441 676.5381,408.499 Q675.7324,409.7539 675.7324,412.2246 Q675.7324,414.6855 676.5381,415.9404 Q677.3438,417.1953 678.9258,417.1953 Q679.668,417.1953 680.3662,416.8779 Q681.0645,416.5605 681.8066,415.877 Z " fill="#000000"/><text fill="#000000" font-family="sans-serif" font-size="20" lengthAdjust="spacing" textLength="124" x="701" y="419.5586">Organization</text><line style="stroke:#181818;stroke-width:0.5;" x1="400.5" x2="1090.5" y1="429" y2="429"/><text fill="#000000" font-family="sans-serif" font-size="20" lengthAdjust="spacing" textLength="127" x="405.5" y="452.3359">-String name</text><text fill="#000000" font-family="sans-serif" font-size="20" lengthAdjust="spacing" textLength="180" x="405.5" y="475.8906">-String vatNumber</text><text fill="#000000" font-family="sans-serif" font-size="20" lengthAdjust="spacing" textLength="147" x="405.5" y="499.4453">-String website</text><text fill="#000000" font-family="sans-serif" font-size="20" lengthAdjust="spacing" textLength="134" x="405.5" y="523">-String phone</text><text fill="#000000" font-family="sans-serif" font-size="20" lengthAdjust="spacing" textLength="127" x="405.5" y="546.5547">-String email</text><line style="stroke:#181818;stroke-width:0.5;" x1="400.5" x2="1090.5" y1="554.7734" y2="554.7734"/><text fill="#000000" font-family="sans-serif" font-size="20" lengthAdjust="spacing" textLength="680" x="405.5" y="578.1094">+registerEmployee(employee: Employee, admin: SystemAdministrator)</text></g><!--class OrganizationRepository--><g id="elem_OrganizationRepository"><rect codeLine="42" fill="#F1F1F1" height="73.5547" id="OrganizationRepository" rx="2.5" ry="2.5" style="stroke:#181818;stroke-width:0.5;" width="456" x="844.5" y="224.5"/><ellipse cx="955" cy="241.5" fill="#ADD1B2" rx="12" ry="12" style="stroke:#181818;stroke-width:1.0;"/><path d="M957.8066,248.5801 Q957.123,248.9316 956.3711,249.1074 Q955.6191,249.2832 954.7891,249.2832 Q951.8398,249.2832 950.2871,247.3398 Q948.7344,245.3965 948.7344,241.7246 Q948.7344,238.043 950.2871,236.0996 Q951.8398,234.1563 954.7891,234.1563 Q955.6191,234.1563 956.3809,234.332 Q957.1426,234.5078 957.8066,234.8594 L957.8066,238.0625 Q957.0645,237.3789 956.3662,237.0615 Q955.668,236.7441 954.9258,236.7441 Q953.3438,236.7441 952.5381,237.999 Q951.7324,239.2539 951.7324,241.7246 Q951.7324,244.1855 952.5381,245.4404 Q953.3438,246.6953 954.9258,246.6953 Q955.668,246.6953 956.3662,246.3779 Q957.0645,246.0605 957.8066,245.377 Z " fill="#000000"/><text fill="#000000" font-family="sans-serif" font-size="20" lengthAdjust="spacing" textLength="226" x="977" y="249.0586">OrganizationRepository</text><line style="stroke:#181818;stroke-width:0.5;" x1="845.5" x2="1299.5" y1="258.5" y2="258.5"/><line style="stroke:#181818;stroke-width:0.5;" x1="845.5" x2="1299.5" y1="266.5" y2="266.5"/><text fill="#000000" font-family="sans-serif" font-size="20" lengthAdjust="spacing" textLength="444" x="850.5" y="289.8359">+getOrganizationByAdminEmail(email: String)</text></g><!--class Repositories--><g id="elem_Repositories"><rect codeLine="46" fill="#F1F1F1" height="120.6641" id="Repositories" rx="2.5" ry="2.5" style="stroke:#181818;stroke-width:0.5;" width="298" x="926.5" y="7"/><ellipse cx="1011.5" cy="24" fill="#ADD1B2" rx="12" ry="12" style="stroke:#181818;stroke-width:1.0;"/><path d="M1014.3066,31.0801 Q1013.623,31.4316 1012.8711,31.6074 Q1012.1191,31.7832 1011.2891,31.7832 Q1008.3398,31.7832 1006.7871,29.8398 Q1005.2344,27.8965 1005.2344,24.2246 Q1005.2344,20.543 1006.7871,18.5996 Q1008.3398,16.6563 1011.2891,16.6563 Q1012.1191,16.6563 1012.8809,16.832 Q1013.6426,17.0078 1014.3066,17.3594 L1014.3066,20.5625 Q1013.5645,19.8789 1012.8662,19.5615 Q1012.168,19.2441 1011.4258,19.2441 Q1009.8438,19.2441 1009.0381,20.499 Q1008.2324,21.7539 1008.2324,24.2246 Q1008.2324,26.6855 1009.0381,27.9404 Q1009.8438,29.1953 1011.4258,29.1953 Q1012.168,29.1953 1012.8662,28.8779 Q1013.5645,28.5605 1014.3066,27.877 Z " fill="#000000"/><text fill="#000000" font-family="sans-serif" font-size="20" lengthAdjust="spacing" textLength="119" x="1033.5" y="31.5586">Repositories</text><line style="stroke:#181818;stroke-width:0.5;" x1="927.5" x2="1223.5" y1="41" y2="41"/><line style="stroke:#181818;stroke-width:0.5;" x1="927.5" x2="1223.5" y1="49" y2="49"/><text fill="#000000" font-family="sans-serif" font-size="20" lengthAdjust="spacing" textLength="145" x="932.5" y="72.3359">-Repositories()</text><text fill="#000000" font-family="sans-serif" font-size="20" lengthAdjust="spacing" textLength="276" x="932.5" y="95.8906">+getInstance() : Repositories</text><text fill="#000000" font-family="sans-serif" font-size="20" lengthAdjust="spacing" textLength="286" x="932.5" y="119.4453">+getOrganizationRepository()</text></g><!--class RegisterEmployeeController--><g id="elem_RegisterEmployeeController"><rect codeLine="52" fill="#F1F1F1" height="120.6641" id="RegisterEmployeeController" rx="2.5" ry="2.5" style="stroke:#181818;stroke-width:0.5;" width="769" x="7" y="7"/><ellipse cx="253.5" cy="24" fill="#ADD1B2" rx="12" ry="12" style="stroke:#181818;stroke-width:1.0;"/><path d="M256.3066,31.0801 Q255.623,31.4316 254.8711,31.6074 Q254.1191,31.7832 253.2891,31.7832 Q250.3398,31.7832 248.7871,29.8398 Q247.2344,27.8965 247.2344,24.2246 Q247.2344,20.543 248.7871,18.5996 Q250.3398,16.6563 253.2891,16.6563 Q254.1191,16.6563 254.8809,16.832 Q255.6426,17.0078 256.3066,17.3594 L256.3066,20.5625 Q255.5645,19.8789 254.8662,19.5615 Q254.168,19.2441 253.4258,19.2441 Q251.8438,19.2441 251.0381,20.499 Q250.2324,21.7539 250.2324,24.2246 Q250.2324,26.6855 251.0381,27.9404 Q251.8438,29.1953 253.4258,29.1953 Q254.168,29.1953 254.8662,28.8779 Q255.5645,28.5605 256.3066,27.877 Z " fill="#000000"/><text fill="#000000" font-family="sans-serif" font-size="20" lengthAdjust="spacing" textLength="267" x="275.5" y="31.5586">RegisterEmployeeController</text><line style="stroke:#181818;stroke-width:0.5;" x1="8" x2="775" y1="41" y2="41"/><line style="stroke:#181818;stroke-width:0.5;" x1="8" x2="775" y1="49" y2="49"/><text fill="#000000" font-family="sans-serif" font-size="20" lengthAdjust="spacing" textLength="757" x="13" y="72.3359">+RegisterEmployeeController(organizationRepository: OrganizationRepository)</text><text fill="#000000" font-family="sans-serif" font-size="20" lengthAdjust="spacing" textLength="748" x="13" y="95.8906">+registerEmployee(name: String, email: String, position: String, phone: String)</text><text fill="#000000" font-family="sans-serif" font-size="20" lengthAdjust="spacing" textLength="440" x="13" y="119.4453">-getOrganizationByAdminEmail(email: String)</text></g><!--link Repositories to Repositories--><g id="link_Repositories_Repositories"><path codeLine="58" d="M1224.95,50.27 C1245.66,53.11 1259.5,58.85 1259.5,67.5 C1259.5,75.27 1248.33,80.7 1231.04,83.78 " fill="none" id="Repositories-to-Repositories" style="stroke:#181818;stroke-width:1.0;"/><polygon fill="#181818" points="1226.44,84.5,1235.9503,87.0601,1231.3799,83.7268,1234.7132,79.1564,1226.44,84.5" style="stroke:#181818;stroke-width:1.0;"/><text fill="#000000" font-family="sans-serif" font-size="20" lengthAdjust="spacing" textLength="79" x="1265.5" y="75.3359">instance</text></g><!--link ApplicationSession to ApplicationSession--><g id="link_ApplicationSession_ApplicationSession"><path codeLine="59" d="M507,245.31 C527.24,247.31 541.5,252.7 541.5,261.5 C541.5,269.34 530.19,274.47 513.42,276.91 " fill="none" id="ApplicationSession-to-ApplicationSession" style="stroke:#181818;stroke-width:1.0;"/><polygon fill="#181818" points="508.5,277.5,517.9236,280.3628,513.462,276.8851,516.9398,272.4236,508.5,277.5" style="stroke:#181818;stroke-width:1.0;"/><text fill="#000000" font-family="sans-serif" font-size="20" lengthAdjust="spacing" textLength="79" x="547.5" y="269.3359">instance</text></g><!--link RegisterEmployeeController to Repositories--><g id="link_RegisterEmployeeController_Repositories"><path codeLine="61" d="M776.48,67.5 C827.01,67.5 876.26,67.5 919.74,67.5 " fill="none" id="RegisterEmployeeController-to-Repositories" style="stroke:#181818;stroke-width:1.0;stroke-dasharray:7.0,7.0;"/><polygon fill="#181818" points="924.59,67.5,915.59,63.5,919.59,67.5,915.59,71.5,924.59,67.5" style="stroke:#181818;stroke-width:1.0;"/><text fill="#000000" font-family="sans-serif" font-size="20" lengthAdjust="spacing" textLength="114" x="794.25" y="59.8359">repositories</text></g><!--link Repositories to OrganizationRepository--><g id="link_Repositories_OrganizationRepository"><path codeLine="63" d="M1062.65,128.46 C1060.79,157.49 1060.63,191.67 1062.37,217.97 " fill="none" id="Repositories-to-OrganizationRepository" style="stroke:#181818;stroke-width:1.0;"/><polygon fill="#181818" points="1062.71,222.63,1066.0303,213.3577,1062.3385,217.6438,1058.0524,213.952,1062.71,222.63" style="stroke:#181818;stroke-width:1.0;"/><text fill="#000000" font-family="sans-serif" font-size="20" lengthAdjust="spacing" textLength="13" x="1047.0391" y="212.1641">1</text></g><!--link Repositories to OrganizationRepository--><g id="link_Repositories_OrganizationRepository"><path codeLine="67" d="M1087.18,128.46 C1088.22,157.49 1087.29,191.67 1084.6,217.97 " fill="none" id="Repositories-to-OrganizationRepository-1" style="stroke:#181818;stroke-width:1.0;"/><polygon fill="#181818" points="1084.08,222.64,1089.0333,214.1274,1084.6228,217.6695,1081.0806,213.259,1084.08,222.64" style="stroke:#181818;stroke-width:1.0;"/><text fill="#000000" font-family="sans-serif" font-size="20" lengthAdjust="spacing" textLength="13" x="1071.7656" y="212.1641">1</text></g><!--link RegisterEmployeeController to OrganizationRepository--><g id="link_RegisterEmployeeController_OrganizationRepository"><path codeLine="65" d="M606.5,128.45 C664.98,144.75 712.5,158 712.5,158 C712.5,158 835.91,193.14 938.22,222.27 " fill="none" id="RegisterEmployeeController-to-OrganizationRepository" style="stroke:#181818;stroke-width:1.0;stroke-dasharray:7.0,7.0;"/><polygon fill="#181818" points="942.85,223.59,935.2729,217.2981,938.0376,222.2334,933.1023,224.998,942.85,223.59" style="stroke:#181818;stroke-width:1.0;"/><text fill="#000000" font-family="sans-serif" font-size="20" lengthAdjust="spacing" textLength="222" x="799.5" y="178.3359">organizationRepository</text></g><!--link OrganizationRepository to Organization--><g id="link_OrganizationRepository_Organization"><path codeLine="69" d="M1019.96,298.97 C983.99,323.94 934.45,358.33 887.36,391.03 " fill="none" id="OrganizationRepository-to-Organization" style="stroke:#181818;stroke-width:1.0;"/><polygon fill="#181818" points="883.46,393.73,893.1309,391.8661,887.5622,390.8713,888.557,385.3026,883.46,393.73" style="stroke:#181818;stroke-width:1.0;"/><text fill="#000000" font-family="sans-serif" font-size="20" lengthAdjust="spacing" textLength="10" x="882.3048" y="382.711">*</text></g><!--link ApplicationSession to UserSession--><g id="link_ApplicationSession_UserSession"><path codeLine="70" d="M371.09,310.36 C347.8,351.03 314.7,408.82 292.46,447.66 " fill="none" id="ApplicationSession-to-UserSession" style="stroke:#181818;stroke-width:1.0;"/><polygon fill="#181818" points="290.01,451.94,297.9606,446.1273,292.4999,447.6041,291.0231,442.1434,290.01,451.94" style="stroke:#181818;stroke-width:1.0;"/><text fill="#000000" font-family="sans-serif" font-size="20" lengthAdjust="spacing" textLength="113" x="354.5" y="360.3359">userSession</text><text fill="#000000" font-family="sans-serif" font-size="20" lengthAdjust="spacing" textLength="13" x="278.7109" y="441.293">1</text></g><!--link RegisterEmployeeController to Organization--><g id="link_RegisterEmployeeController_Organization"><path codeLine="72" d="M491.26,128.32 C557.56,168.07 632.5,213 632.5,213 C632.5,213 672.13,309.98 704.46,389.07 " fill="none" id="RegisterEmployeeController-to-Organization" style="stroke:#181818;stroke-width:1.0;stroke-dasharray:7.0,7.0;"/><polygon fill="#181818" points="706.2,393.33,706.5087,383.486,704.3135,388.6995,699.1,386.5044,706.2,393.33" style="stroke:#181818;stroke-width:1.0;"/><text fill="#000000" font-family="sans-serif" font-size="20" lengthAdjust="spacing" textLength="120" x="670.5" y="269.3359">organization</text><text fill="#000000" font-family="sans-serif" font-size="20" lengthAdjust="spacing" textLength="13" x="690.3071" y="382.8618">1</text></g><!--link RegisterEmployeeController to ApplicationSession--><g id="link_RegisterEmployeeController_ApplicationSession"><path codeLine="73" d="M393.69,128.46 C394.59,153.31 395.64,181.92 396.52,206.15 " fill="none" id="RegisterEmployeeController-to-ApplicationSession" style="stroke:#181818;stroke-width:1.0;stroke-dasharray:7.0,7.0;"/><polygon fill="#181818" points="396.7,211.02,400.3632,201.8777,396.5144,206.0234,392.3687,202.1747,396.7,211.02" style="stroke:#181818;stroke-width:1.0;"/></g><!--link RegisterEmployeeController to UserSession--><g id="link_RegisterEmployeeController_UserSession"><path codeLine="74" d="M342.41,128.11 C309.63,167.91 272.5,213 272.5,213 C272.5,213 270.24,369.09 269.12,446.71 " fill="none" id="RegisterEmployeeController-to-UserSession" style="stroke:#181818;stroke-width:1.0;stroke-dasharray:7.0,7.0;"/><polygon fill="#181818" points="269.05,451.55,273.1782,442.6081,269.1214,446.5505,265.179,442.4938,269.05,451.55" style="stroke:#181818;stroke-width:1.0;"/></g><!--link Organization to Employee--><g id="link_Organization_Employee"><path codeLine="75" d="M745.5,586.2 C745.5,612 745.5,639.65 745.5,664.38 " fill="none" id="Organization-to-Employee" style="stroke:#181818;stroke-width:1.0;"/><polygon fill="#181818" points="745.5,669.09,749.5,660.09,745.5,664.09,741.5,660.09,745.5,669.09" style="stroke:#181818;stroke-width:1.0;"/><text fill="#000000" font-family="sans-serif" font-size="20" lengthAdjust="spacing" textLength="81" x="746.5" y="636.3359">employs</text><text fill="#000000" font-family="sans-serif" font-size="20" lengthAdjust="spacing" textLength="13" x="732.0023" y="613.7521">1</text><text fill="#000000" font-family="sans-serif" font-size="20" lengthAdjust="spacing" textLength="10" x="735.0078" y="658.6936">*</text></g><!--link Employee to SystemAdministrator--><g id="link_Employee_SystemAdministrator"><path codeLine="76" d="M745.5,815.28 C745.5,827.95 745.5,841.31 745.5,854.47 " fill="none" id="Employee-to-SystemAdministrator" style="stroke:#181818;stroke-width:1.0;"/><polygon fill="none" points="752.5,854.03,745.5,874.03,738.5,854.03,752.5,854.03" style="stroke:#181818;stroke-width:1.0;"/></g><!--SRC=[jLJBRjim4BppAnQvr6xj8ErHXm1ka0Av942DVW1DRsJ2V0WarK19- - -bA9aYPIb63lN5qkpEpkvmHNlaggA6Ig7P4VUmnsTQ2_T3AxVbhmZVRiWdUye1gPLc1wCbWZCraY5IKNQa9MvT8n0CCaTLAT84Uw1x_S9L2SzKs3GYk4BNL0YL5atxaYh6e3PEauJ51BLsuvpXkzhX0zCgz7j3I8Z0fge4PzHn7q1h_H-y4V2_Bs2TXncKw1wKVrOC5yi-vB6xsXZqqtSa7_bxAldBeXdNyeGMlfUKYpHtsrY7ShENN77h37NQz9mrA2gnWArlNPKzX2r_X5NQyhRzCNpGQg17mNjP2TqW_b-L9rDInL-3hL6fImg2EVARkiTQxj3ay0lklEOeDmZcK6YNz4ORBBsHhTFTd0li7ueu-WfewtSnPVvoUeQV6ERNfabFDCtuteGwtG5d1YObOncEDjgIWkc23Ki7HPOqtS3GuY9JpEsuyn-iqKAWYOFCfopqPFrYnfhbt16aAxRAjsjrjbYhVAUMlKiVipipUdsR6ry0xwqb4r-_pvv04mvvnzFhCocJ7joeBozrzVLgnittTRpGp7uMe6VhVK1yfdgWVSvfaoxsvTExi81wUBiuthYvqM2NwESzNM8ahMRJXqvESyVhiu3kOh4aGklrdzkfEuNy0m00]--></g></svg>