<?xml version="1.0" encoding="UTF-8" standalone="no"?><svg xmlns="http://www.w3.org/2000/svg" xmlns:xlink="http://www.w3.org/1999/xlink" contentStyleType="text/css" height="1069px" preserveAspectRatio="none" style="width:1314px;height:1069px;background:#FFFFFF;" version="1.1" viewBox="0 0 1314 1069" width="1314px" zoomAndPan="magnify"><defs/><g><!--class ApplicationSession--><g id="elem_ApplicationSession"><rect codeLine="6" fill="#F1F1F1" height="97.1094" id="ApplicationSession" rx="2.5" ry="2.5" style="stroke:#181818;stroke-width:0.5;" width="216" x="7" y="7"/><ellipse cx="23" cy="24" fill="#ADD1B2" rx="12" ry="12" style="stroke:#181818;stroke-width:1.0;"/><path d="M25.8066,31.0801 Q25.123,31.4316 24.3711,31.6074 Q23.6191,31.7832 22.7891,31.7832 Q19.8398,31.7832 18.2871,29.8398 Q16.7344,27.8965 16.7344,24.2246 Q16.7344,20.543 18.2871,18.5996 Q19.8398,16.6563 22.7891,16.6563 Q23.6191,16.6563 24.3809,16.832 Q25.1426,17.0078 25.8066,17.3594 L25.8066,20.5625 Q25.0645,19.8789 24.3662,19.5615 Q23.668,19.2441 22.9258,19.2441 Q21.3438,19.2441 20.5381,20.499 Q19.7324,21.7539 19.7324,24.2246 Q19.7324,26.6855 20.5381,27.9404 Q21.3438,29.1953 22.9258,29.1953 Q23.668,29.1953 24.3662,28.8779 Q25.0645,28.5605 25.8066,27.877 Z " fill="#000000"/><text fill="#000000" font-family="sans-serif" font-size="20" lengthAdjust="spacing" textLength="182" x="38" y="31.5586">ApplicationSession</text><line style="stroke:#181818;stroke-width:0.5;" x1="8" x2="222" y1="41" y2="41"/><line style="stroke:#181818;stroke-width:0.5;" x1="8" x2="222" y1="49" y2="49"/><text fill="#000000" font-family="sans-serif" font-size="20" lengthAdjust="spacing" textLength="196" x="13" y="72.3359">+static getInstance()</text><text fill="#000000" font-family="sans-serif" font-size="20" lengthAdjust="spacing" textLength="204" x="13" y="95.8906">+getCurrentSession()</text></g><!--class UserSession--><g id="elem_UserSession"><rect codeLine="11" fill="#F1F1F1" height="73.5547" id="UserSession" rx="2.5" ry="2.5" style="stroke:#181818;stroke-width:0.5;" width="168" x="367" y="18.5"/><ellipse cx="391.55" cy="35.5" fill="#ADD1B2" rx="12" ry="12" style="stroke:#181818;stroke-width:1.0;"/><path d="M394.3566,42.5801 Q393.673,42.9316 392.9211,43.1074 Q392.1691,43.2832 391.3391,43.2832 Q388.3898,43.2832 386.8371,41.3398 Q385.2844,39.3965 385.2844,35.7246 Q385.2844,32.043 386.8371,30.0996 Q388.3898,28.1563 391.3391,28.1563 Q392.1691,28.1563 392.9309,28.332 Q393.6926,28.5078 394.3566,28.8594 L394.3566,32.0625 Q393.6145,31.3789 392.9162,31.0615 Q392.218,30.7441 391.4758,30.7441 Q389.8938,30.7441 389.0881,31.999 Q388.2824,33.2539 388.2824,35.7246 Q388.2824,38.1855 389.0881,39.4404 Q389.8938,40.6953 391.4758,40.6953 Q392.218,40.6953 392.9162,40.3779 Q393.6145,40.0605 394.3566,39.377 Z " fill="#000000"/><text fill="#000000" font-family="sans-serif" font-size="20" lengthAdjust="spacing" textLength="115" x="408.45" y="43.0586">UserSession</text><line style="stroke:#181818;stroke-width:0.5;" x1="368" x2="534" y1="52.5" y2="52.5"/><line style="stroke:#181818;stroke-width:0.5;" x1="368" x2="534" y1="60.5" y2="60.5"/><text fill="#000000" font-family="sans-serif" font-size="20" lengthAdjust="spacing" textLength="156" x="373" y="83.8359">+getUserEmail()</text></g><!--class RegisterNewEmployeeController--><g id="elem_RegisterNewEmployeeController"><rect codeLine="15" fill="#F1F1F1" height="97.1094" id="RegisterNewEmployeeController" rx="2.5" ry="2.5" style="stroke:#181818;stroke-width:0.5;" width="667" x="369.5" y="165"/><ellipse cx="544.5" cy="182" fill="#ADD1B2" rx="12" ry="12" style="stroke:#181818;stroke-width:1.0;"/><path d="M547.3066,189.0801 Q546.623,189.4316 545.8711,189.6074 Q545.1191,189.7832 544.2891,189.7832 Q541.3398,189.7832 539.7871,187.8398 Q538.2344,185.8965 538.2344,182.2246 Q538.2344,178.543 539.7871,176.5996 Q541.3398,174.6563 544.2891,174.6563 Q545.1191,174.6563 545.8809,174.832 Q546.6426,175.0078 547.3066,175.3594 L547.3066,178.5625 Q546.5645,177.8789 545.8662,177.5615 Q545.168,177.2441 544.4258,177.2441 Q542.8438,177.2441 542.0381,178.499 Q541.2324,179.7539 541.2324,182.2246 Q541.2324,184.6855 542.0381,185.9404 Q542.8438,187.1953 544.4258,187.1953 Q545.168,187.1953 545.8662,186.8779 Q546.5645,186.5605 547.3066,185.877 Z " fill="#000000"/><text fill="#000000" font-family="sans-serif" font-size="20" lengthAdjust="spacing" textLength="308" x="566.5" y="189.5586">RegisterNewEmployeeController</text><line style="stroke:#181818;stroke-width:0.5;" x1="370.5" x2="1035.5" y1="199" y2="199"/><line style="stroke:#181818;stroke-width:0.5;" x1="370.5" x2="1035.5" y1="207" y2="207"/><text fill="#000000" font-family="sans-serif" font-size="20" lengthAdjust="spacing" textLength="638" x="375.5" y="230.3359">+createEmployee(name, passportCardNumber, taxNumber, email,</text><text fill="#000000" font-family="sans-serif" font-size="20" lengthAdjust="spacing" textLength="655" x="375.5" y="253.8906">telephoneNumber, doorNumber, zipCode, state, city, district, street)</text></g><!--class UserRepository--><g id="elem_UserRepository"><rect codeLine="19" fill="#F1F1F1" height="73.5547" id="UserRepository" rx="2.5" ry="2.5" style="stroke:#181818;stroke-width:0.5;" width="265" x="570.5" y="600"/><ellipse cx="626" cy="617" fill="#ADD1B2" rx="12" ry="12" style="stroke:#181818;stroke-width:1.0;"/><path d="M628.8066,624.0801 Q628.123,624.4316 627.3711,624.6074 Q626.6191,624.7832 625.7891,624.7832 Q622.8398,624.7832 621.2871,622.8398 Q619.7344,620.8965 619.7344,617.2246 Q619.7344,613.543 621.2871,611.5996 Q622.8398,609.6563 625.7891,609.6563 Q626.6191,609.6563 627.3809,609.832 Q628.1426,610.0078 628.8066,610.3594 L628.8066,613.5625 Q628.0645,612.8789 627.3662,612.5615 Q626.668,612.2441 625.9258,612.2441 Q624.3438,612.2441 623.5381,613.499 Q622.7324,614.7539 622.7324,617.2246 Q622.7324,619.6855 623.5381,620.9404 Q624.3438,622.1953 625.9258,622.1953 Q626.668,622.1953 627.3662,621.8779 Q628.0645,621.5605 628.8066,620.877 Z " fill="#000000"/><text fill="#000000" font-family="sans-serif" font-size="20" lengthAdjust="spacing" textLength="145" x="648" y="624.5586">UserRepository</text><line style="stroke:#181818;stroke-width:0.5;" x1="571.5" x2="834.5" y1="634" y2="634"/><line style="stroke:#181818;stroke-width:0.5;" x1="571.5" x2="834.5" y1="642" y2="642"/><text fill="#000000" font-family="sans-serif" font-size="20" lengthAdjust="spacing" textLength="253" x="576.5" y="665.3359">+addEmployee(employee)</text></g><!--class Repositories--><g id="elem_Repositories"><rect codeLine="23" fill="#F1F1F1" height="120.6641" id="Repositories" rx="2.5" ry="2.5" style="stroke:#181818;stroke-width:0.5;" width="380" x="513" y="347"/><ellipse cx="639" cy="364" fill="#ADD1B2" rx="12" ry="12" style="stroke:#181818;stroke-width:1.0;"/><path d="M641.8066,371.0801 Q641.123,371.4316 640.3711,371.6074 Q639.6191,371.7832 638.7891,371.7832 Q635.8398,371.7832 634.2871,369.8398 Q632.7344,367.8965 632.7344,364.2246 Q632.7344,360.543 634.2871,358.5996 Q635.8398,356.6563 638.7891,356.6563 Q639.6191,356.6563 640.3809,356.832 Q641.1426,357.0078 641.8066,357.3594 L641.8066,360.5625 Q641.0645,359.8789 640.3662,359.5615 Q639.668,359.2441 638.9258,359.2441 Q637.3438,359.2441 636.5381,360.499 Q635.7324,361.7539 635.7324,364.2246 Q635.7324,366.6855 636.5381,367.9404 Q637.3438,369.1953 638.9258,369.1953 Q639.668,369.1953 640.3662,368.8779 Q641.0645,368.5605 641.8066,367.877 Z " fill="#000000"/><text fill="#000000" font-family="sans-serif" font-size="20" lengthAdjust="spacing" textLength="119" x="661" y="371.5586">Repositories</text><line style="stroke:#181818;stroke-width:0.5;" x1="514" x2="892" y1="381" y2="381"/><line style="stroke:#181818;stroke-width:0.5;" x1="514" x2="892" y1="389" y2="389"/><text fill="#000000" font-family="sans-serif" font-size="20" lengthAdjust="spacing" textLength="145" x="519" y="412.3359">-Repositories()</text><text fill="#000000" font-family="sans-serif" font-size="20" lengthAdjust="spacing" textLength="276" x="519" y="435.8906">+getInstance() : Repositories</text><text fill="#000000" font-family="sans-serif" font-size="20" lengthAdjust="spacing" textLength="368" x="519" y="459.4453">+getUserRepository() : UserRepository</text></g><!--class RegisterNewEmployeeUI--><g id="elem_RegisterNewEmployeeUI"><rect codeLine="32" fill="#F1F1F1" height="50" id="RegisterNewEmployeeUI" rx="2.5" ry="2.5" style="stroke:#181818;stroke-width:0.5;" width="266" x="570" y="30.5"/><ellipse cx="586" cy="47.5" fill="#ADD1B2" rx="12" ry="12" style="stroke:#181818;stroke-width:1.0;"/><path d="M588.8066,54.5801 Q588.123,54.9316 587.3711,55.1074 Q586.6191,55.2832 585.7891,55.2832 Q582.8398,55.2832 581.2871,53.3398 Q579.7344,51.3965 579.7344,47.7246 Q579.7344,44.043 581.2871,42.0996 Q582.8398,40.1563 585.7891,40.1563 Q586.6191,40.1563 587.3809,40.332 Q588.1426,40.5078 588.8066,40.8594 L588.8066,44.0625 Q588.0645,43.3789 587.3662,43.0615 Q586.668,42.7441 585.9258,42.7441 Q584.3438,42.7441 583.5381,43.999 Q582.7324,45.2539 582.7324,47.7246 Q582.7324,50.1855 583.5381,51.4404 Q584.3438,52.6953 585.9258,52.6953 Q586.668,52.6953 587.3662,52.3779 Q588.0645,52.0605 588.8066,51.377 Z " fill="#000000"/><text fill="#000000" font-family="sans-serif" font-size="20" lengthAdjust="spacing" textLength="232" x="601" y="55.0586">RegisterNewEmployeeUI</text><line style="stroke:#181818;stroke-width:0.5;" x1="571" x2="835" y1="64.5" y2="64.5"/><line style="stroke:#181818;stroke-width:0.5;" x1="571" x2="835" y1="72.5" y2="72.5"/></g><!--class Employee--><g id="elem_Employee"><rect codeLine="54" fill="#F1F1F1" height="50" id="Employee" rx="2.5" ry="2.5" style="stroke:#181818;stroke-width:0.5;" width="127" x="639.5" y="841.5"/><ellipse cx="655.5" cy="858.5" fill="#ADD1B2" rx="12" ry="12" style="stroke:#181818;stroke-width:1.0;"/><path d="M658.3066,865.5801 Q657.623,865.9316 656.8711,866.1074 Q656.1191,866.2832 655.2891,866.2832 Q652.3398,866.2832 650.7871,864.3398 Q649.2344,862.3965 649.2344,858.7246 Q649.2344,855.043 650.7871,853.0996 Q652.3398,851.1563 655.2891,851.1563 Q656.1191,851.1563 656.8809,851.332 Q657.6426,851.5078 658.3066,851.8594 L658.3066,855.0625 Q657.5645,854.3789 656.8662,854.0615 Q656.168,853.7441 655.4258,853.7441 Q653.8438,853.7441 653.0381,854.999 Q652.2324,856.2539 652.2324,858.7246 Q652.2324,861.1855 653.0381,862.4404 Q653.8438,863.6953 655.4258,863.6953 Q656.168,863.6953 656.8662,863.3779 Q657.5645,863.0605 658.3066,862.377 Z " fill="#000000"/><text fill="#000000" font-family="sans-serif" font-size="20" lengthAdjust="spacing" textLength="93" x="670.5" y="866.0586">Employee</text><line style="stroke:#181818;stroke-width:0.5;" x1="640.5" x2="765.5" y1="875.5" y2="875.5"/><line style="stroke:#181818;stroke-width:0.5;" x1="640.5" x2="765.5" y1="883.5" y2="883.5"/></g><!--class SystemAdministrator--><g id="elem_SystemAdministrator"><rect codeLine="43" fill="#F1F1F1" height="50" id="SystemAdministrator" rx="2.5" ry="2.5" style="stroke:#181818;stroke-width:0.5;" width="235" x="300.5" y="612"/><ellipse cx="316.5" cy="629" fill="#ADD1B2" rx="12" ry="12" style="stroke:#181818;stroke-width:1.0;"/><path d="M319.3066,636.0801 Q318.623,636.4316 317.8711,636.6074 Q317.1191,636.7832 316.2891,636.7832 Q313.3398,636.7832 311.7871,634.8398 Q310.2344,632.8965 310.2344,629.2246 Q310.2344,625.543 311.7871,623.5996 Q313.3398,621.6563 316.2891,621.6563 Q317.1191,621.6563 317.8809,621.832 Q318.6426,622.0078 319.3066,622.3594 L319.3066,625.5625 Q318.5645,624.8789 317.8662,624.5615 Q317.168,624.2441 316.4258,624.2441 Q314.8438,624.2441 314.0381,625.499 Q313.2324,626.7539 313.2324,629.2246 Q313.2324,631.6855 314.0381,632.9404 Q314.8438,634.1953 316.4258,634.1953 Q317.168,634.1953 317.8662,633.8779 Q318.5645,633.5605 319.3066,632.877 Z " fill="#000000"/><text fill="#000000" font-family="sans-serif" font-size="20" lengthAdjust="spacing" textLength="201" x="331.5" y="636.5586">SystemAdministrator</text><line style="stroke:#181818;stroke-width:0.5;" x1="301.5" x2="534.5" y1="646" y2="646"/><line style="stroke:#181818;stroke-width:0.5;" x1="301.5" x2="534.5" y1="654" y2="654"/></g><!--class User--><g id="elem_User"><rect codeLine="46" fill="#F1F1F1" height="167.7734" id="User" rx="2.5" ry="2.5" style="stroke:#181818;stroke-width:0.5;" width="232" x="871" y="553"/><ellipse cx="961" cy="570" fill="#ADD1B2" rx="12" ry="12" style="stroke:#181818;stroke-width:1.0;"/><path d="M963.8066,577.0801 Q963.123,577.4316 962.3711,577.6074 Q961.6191,577.7832 960.7891,577.7832 Q957.8398,577.7832 956.2871,575.8398 Q954.7344,573.8965 954.7344,570.2246 Q954.7344,566.543 956.2871,564.5996 Q957.8398,562.6563 960.7891,562.6563 Q961.6191,562.6563 962.3809,562.832 Q963.1426,563.0078 963.8066,563.3594 L963.8066,566.5625 Q963.0645,565.8789 962.3662,565.5615 Q961.668,565.2441 960.9258,565.2441 Q959.3438,565.2441 958.5381,566.499 Q957.7324,567.7539 957.7324,570.2246 Q957.7324,572.6855 958.5381,573.9404 Q959.3438,575.1953 960.9258,575.1953 Q961.668,575.1953 962.3662,574.8779 Q963.0645,574.5605 963.8066,573.877 Z " fill="#000000"/><text fill="#000000" font-family="sans-serif" font-size="20" lengthAdjust="spacing" textLength="43" x="983" y="577.5586">User</text><line style="stroke:#181818;stroke-width:0.5;" x1="872" x2="1102" y1="587" y2="587"/><text fill="#000000" font-family="sans-serif" font-size="20" lengthAdjust="spacing" textLength="65" x="877" y="610.3359">-name</text><text fill="#000000" font-family="sans-serif" font-size="20" lengthAdjust="spacing" textLength="220" x="877" y="633.8906">-passportCardNumber</text><text fill="#000000" font-family="sans-serif" font-size="20" lengthAdjust="spacing" textLength="120" x="877" y="657.4453">-taxNumber</text><text fill="#000000" font-family="sans-serif" font-size="20" lengthAdjust="spacing" textLength="65" x="877" y="681">-email</text><text fill="#000000" font-family="sans-serif" font-size="20" lengthAdjust="spacing" textLength="185" x="877" y="704.5547">-telephoneNumber</text><line style="stroke:#181818;stroke-width:0.5;" x1="872" x2="1102" y1="712.7734" y2="712.7734"/></g><!--class Address--><g id="elem_Address"><rect codeLine="57" fill="#F1F1F1" height="97.1094" id="Address" rx="2.5" ry="2.5" style="stroke:#181818;stroke-width:0.5;" width="147" x="839.5" y="818"/><ellipse cx="870.8" cy="835" fill="#ADD1B2" rx="12" ry="12" style="stroke:#181818;stroke-width:1.0;"/><path d="M873.6066,842.0801 Q872.923,842.4316 872.1711,842.6074 Q871.4191,842.7832 870.5891,842.7832 Q867.6398,842.7832 866.0871,840.8398 Q864.5344,838.8965 864.5344,835.2246 Q864.5344,831.543 866.0871,829.5996 Q867.6398,827.6563 870.5891,827.6563 Q871.4191,827.6563 872.1809,827.832 Q872.9426,828.0078 873.6066,828.3594 L873.6066,831.5625 Q872.8645,830.8789 872.1662,830.5615 Q871.468,830.2441 870.7258,830.2441 Q869.1438,830.2441 868.3381,831.499 Q867.5324,832.7539 867.5324,835.2246 Q867.5324,837.6855 868.3381,838.9404 Q869.1438,840.1953 870.7258,840.1953 Q871.468,840.1953 872.1662,839.8779 Q872.8645,839.5605 873.6066,838.877 Z " fill="#000000"/><text fill="#000000" font-family="sans-serif" font-size="20" lengthAdjust="spacing" textLength="79" x="889.2" y="842.5586">Address</text><line style="stroke:#181818;stroke-width:0.5;" x1="840.5" x2="985.5" y1="852" y2="852"/><text fill="#000000" font-family="sans-serif" font-size="20" lengthAdjust="spacing" textLength="135" x="845.5" y="875.3359">-doorNumber</text><text fill="#000000" font-family="sans-serif" font-size="20" lengthAdjust="spacing" textLength="92" x="845.5" y="898.8906">-zipCode</text><line style="stroke:#181818;stroke-width:0.5;" x1="840.5" x2="985.5" y1="907.1094" y2="907.1094"/></g><!--class Street--><g id="elem_Street"><rect codeLine="62" fill="#F1F1F1" height="50" id="Street" rx="2.5" ry="2.5" style="stroke:#181818;stroke-width:0.5;" width="89" x="1176.5" y="382.5"/><ellipse cx="1192.5" cy="399.5" fill="#ADD1B2" rx="12" ry="12" style="stroke:#181818;stroke-width:1.0;"/><path d="M1195.3066,406.5801 Q1194.623,406.9316 1193.8711,407.1074 Q1193.1191,407.2832 1192.2891,407.2832 Q1189.3398,407.2832 1187.7871,405.3398 Q1186.2344,403.3965 1186.2344,399.7246 Q1186.2344,396.043 1187.7871,394.0996 Q1189.3398,392.1563 1192.2891,392.1563 Q1193.1191,392.1563 1193.8809,392.332 Q1194.6426,392.5078 1195.3066,392.8594 L1195.3066,396.0625 Q1194.5645,395.3789 1193.8662,395.0615 Q1193.168,394.7441 1192.4258,394.7441 Q1190.8438,394.7441 1190.0381,395.999 Q1189.2324,397.2539 1189.2324,399.7246 Q1189.2324,402.1855 1190.0381,403.4404 Q1190.8438,404.6953 1192.4258,404.6953 Q1193.168,404.6953 1193.8662,404.3779 Q1194.5645,404.0605 1195.3066,403.377 Z " fill="#000000"/><text fill="#000000" font-family="sans-serif" font-size="20" lengthAdjust="spacing" textLength="55" x="1207.5" y="407.0586">Street</text><line style="stroke:#181818;stroke-width:0.5;" x1="1177.5" x2="1264.5" y1="416.5" y2="416.5"/><line style="stroke:#181818;stroke-width:0.5;" x1="1177.5" x2="1264.5" y1="424.5" y2="424.5"/></g><!--class City--><g id="elem_City"><rect codeLine="65" fill="#F1F1F1" height="50" id="City" rx="2.5" ry="2.5" style="stroke:#181818;stroke-width:0.5;" width="71" x="1185.5" y="612"/><ellipse cx="1201.5" cy="629" fill="#ADD1B2" rx="12" ry="12" style="stroke:#181818;stroke-width:1.0;"/><path d="M1204.3066,636.0801 Q1203.623,636.4316 1202.8711,636.6074 Q1202.1191,636.7832 1201.2891,636.7832 Q1198.3398,636.7832 1196.7871,634.8398 Q1195.2344,632.8965 1195.2344,629.2246 Q1195.2344,625.543 1196.7871,623.5996 Q1198.3398,621.6563 1201.2891,621.6563 Q1202.1191,621.6563 1202.8809,621.832 Q1203.6426,622.0078 1204.3066,622.3594 L1204.3066,625.5625 Q1203.5645,624.8789 1202.8662,624.5615 Q1202.168,624.2441 1201.4258,624.2441 Q1199.8438,624.2441 1199.0381,625.499 Q1198.2324,626.7539 1198.2324,629.2246 Q1198.2324,631.6855 1199.0381,632.9404 Q1199.8438,634.1953 1201.4258,634.1953 Q1202.168,634.1953 1202.8662,633.8779 Q1203.5645,633.5605 1204.3066,632.877 Z " fill="#000000"/><text fill="#000000" font-family="sans-serif" font-size="20" lengthAdjust="spacing" textLength="37" x="1216.5" y="636.5586">City</text><line style="stroke:#181818;stroke-width:0.5;" x1="1186.5" x2="1255.5" y1="646" y2="646"/><line style="stroke:#181818;stroke-width:0.5;" x1="1186.5" x2="1255.5" y1="654" y2="654"/></g><!--class District--><g id="elem_District"><rect codeLine="68" fill="#F1F1F1" height="50" id="District" rx="2.5" ry="2.5" style="stroke:#181818;stroke-width:0.5;" width="103" x="1169.5" y="841.5"/><ellipse cx="1185.5" cy="858.5" fill="#ADD1B2" rx="12" ry="12" style="stroke:#181818;stroke-width:1.0;"/><path d="M1188.3066,865.5801 Q1187.623,865.9316 1186.8711,866.1074 Q1186.1191,866.2832 1185.2891,866.2832 Q1182.3398,866.2832 1180.7871,864.3398 Q1179.2344,862.3965 1179.2344,858.7246 Q1179.2344,855.043 1180.7871,853.0996 Q1182.3398,851.1563 1185.2891,851.1563 Q1186.1191,851.1563 1186.8809,851.332 Q1187.6426,851.5078 1188.3066,851.8594 L1188.3066,855.0625 Q1187.5645,854.3789 1186.8662,854.0615 Q1186.168,853.7441 1185.4258,853.7441 Q1183.8438,853.7441 1183.0381,854.999 Q1182.2324,856.2539 1182.2324,858.7246 Q1182.2324,861.1855 1183.0381,862.4404 Q1183.8438,863.6953 1185.4258,863.6953 Q1186.168,863.6953 1186.8662,863.3779 Q1187.5645,863.0605 1188.3066,862.377 Z " fill="#000000"/><text fill="#000000" font-family="sans-serif" font-size="20" lengthAdjust="spacing" textLength="69" x="1200.5" y="866.0586">District</text><line style="stroke:#181818;stroke-width:0.5;" x1="1170.5" x2="1271.5" y1="875.5" y2="875.5"/><line style="stroke:#181818;stroke-width:0.5;" x1="1170.5" x2="1271.5" y1="883.5" y2="883.5"/></g><!--class State--><g id="elem_State"><rect codeLine="71" fill="#F1F1F1" height="50" id="State" rx="2.5" ry="2.5" style="stroke:#181818;stroke-width:0.5;" width="81" x="1026.5" y="1012"/><ellipse cx="1042.5" cy="1029" fill="#ADD1B2" rx="12" ry="12" style="stroke:#181818;stroke-width:1.0;"/><path d="M1045.3066,1036.0801 Q1044.623,1036.4316 1043.8711,1036.6074 Q1043.1191,1036.7832 1042.2891,1036.7832 Q1039.3398,1036.7832 1037.7871,1034.8398 Q1036.2344,1032.8965 1036.2344,1029.2246 Q1036.2344,1025.543 1037.7871,1023.5996 Q1039.3398,1021.6563 1042.2891,1021.6563 Q1043.1191,1021.6563 1043.8809,1021.832 Q1044.6426,1022.0078 1045.3066,1022.3594 L1045.3066,1025.5625 Q1044.5645,1024.8789 1043.8662,1024.5615 Q1043.168,1024.2441 1042.4258,1024.2441 Q1040.8438,1024.2441 1040.0381,1025.499 Q1039.2324,1026.7539 1039.2324,1029.2246 Q1039.2324,1031.6855 1040.0381,1032.9404 Q1040.8438,1034.1953 1042.4258,1034.1953 Q1043.168,1034.1953 1043.8662,1033.8779 Q1044.5645,1033.5605 1045.3066,1032.877 Z " fill="#000000"/><text fill="#000000" font-family="sans-serif" font-size="20" lengthAdjust="spacing" textLength="47" x="1057.5" y="1036.5586">State</text><line style="stroke:#181818;stroke-width:0.5;" x1="1027.5" x2="1106.5" y1="1046" y2="1046"/><line style="stroke:#181818;stroke-width:0.5;" x1="1027.5" x2="1106.5" y1="1054" y2="1054"/></g><!--class Role--><g id="elem_Role"><rect codeLine="74" fill="#F1F1F1" height="120.6641" id="Role" rx="2.5" ry="2.5" style="stroke:#181818;stroke-width:0.5;" width="112" x="1022" y="806"/><ellipse cx="1054.2" cy="823" fill="#ADD1B2" rx="12" ry="12" style="stroke:#181818;stroke-width:1.0;"/><path d="M1057.0066,830.0801 Q1056.323,830.4316 1055.5711,830.6074 Q1054.8191,830.7832 1053.9891,830.7832 Q1051.0398,830.7832 1049.4871,828.8398 Q1047.9344,826.8965 1047.9344,823.2246 Q1047.9344,819.543 1049.4871,817.5996 Q1051.0398,815.6563 1053.9891,815.6563 Q1054.8191,815.6563 1055.5809,815.832 Q1056.3426,816.0078 1057.0066,816.3594 L1057.0066,819.5625 Q1056.2645,818.8789 1055.5662,818.5615 Q1054.868,818.2441 1054.1258,818.2441 Q1052.5438,818.2441 1051.7381,819.499 Q1050.9324,820.7539 1050.9324,823.2246 Q1050.9324,825.6855 1051.7381,826.9404 Q1052.5438,828.1953 1054.1258,828.1953 Q1054.868,828.1953 1055.5662,827.8779 Q1056.2645,827.5605 1057.0066,826.877 Z " fill="#000000"/><text fill="#000000" font-family="sans-serif" font-size="20" lengthAdjust="spacing" textLength="42" x="1072.8" y="830.5586">Role</text><line style="stroke:#181818;stroke-width:0.5;" x1="1023" x2="1133" y1="840" y2="840"/><text fill="#000000" font-family="sans-serif" font-size="20" lengthAdjust="spacing" textLength="67" x="1028" y="863.3359">ADMIN</text><text fill="#000000" font-family="sans-serif" font-size="20" lengthAdjust="spacing" textLength="100" x="1028" y="886.8906">EMPLOYEE</text><text fill="#000000" font-family="sans-serif" font-size="20" lengthAdjust="spacing" textLength="70" x="1028" y="910.4453">CLIENT</text><line style="stroke:#181818;stroke-width:0.5;" x1="1023" x2="1133" y1="918.6641" y2="918.6641"/></g><!--link ApplicationSession to ApplicationSession--><g id="link_ApplicationSession_ApplicationSession"><path codeLine="29" d="M223.5,41.45 C243.74,43.18 258,47.86 258,55.5 C258,62.3 246.69,66.76 229.92,68.88 " fill="none" id="ApplicationSession-to-ApplicationSession" style="stroke:#181818;stroke-width:1.0;"/><polygon fill="#181818" points="225,69.39,234.3725,72.416,229.972,68.8614,233.5267,64.4609,225,69.39" style="stroke:#181818;stroke-width:1.0;"/><text fill="#000000" font-family="sans-serif" font-size="20" lengthAdjust="spacing" textLength="79" x="264" y="63.3359">instance</text></g><!--link Repositories to Repositories--><g id="link_Repositories_Repositories"><path codeLine="30" d="M893.41,391.25 C914.43,394.34 928,399.75 928,407.5 C928,414.46 917.05,419.54 899.58,422.73 " fill="none" id="Repositories-to-Repositories" style="stroke:#181818;stroke-width:1.0;"/><polygon fill="#181818" points="894.9,423.5,904.4235,426.0107,899.8358,422.7011,903.1453,418.1134,894.9,423.5" style="stroke:#181818;stroke-width:1.0;"/><text fill="#000000" font-family="sans-serif" font-size="20" lengthAdjust="spacing" textLength="79" x="934" y="415.3359">instance</text></g><!--link RegisterNewEmployeeUI to RegisterNewEmployeeController--><g id="link_RegisterNewEmployeeUI_RegisterNewEmployeeController"><path codeLine="35" d="M703,80.88 C703,101.58 703,132.06 703,158.47 " fill="none" id="RegisterNewEmployeeUI-to-RegisterNewEmployeeController" style="stroke:#181818;stroke-width:1.0;stroke-dasharray:7.0,7.0;"/><polygon fill="#181818" points="703,163.23,707,154.23,703,158.23,699,154.23,703,163.23" style="stroke:#181818;stroke-width:1.0;"/></g><!--link RegisterNewEmployeeController to Repositories--><g id="link_RegisterNewEmployeeController_Repositories"><path codeLine="37" d="M703,262.45 C703,286.01 703,314.75 703,340.36 " fill="none" id="RegisterNewEmployeeController-to-Repositories" style="stroke:#181818;stroke-width:1.0;stroke-dasharray:7.0,7.0;"/><polygon fill="#181818" points="703,345.28,707,336.28,703,340.28,699,336.28,703,345.28" style="stroke:#181818;stroke-width:1.0;"/><text fill="#000000" font-family="sans-serif" font-size="20" lengthAdjust="spacing" textLength="114" x="704" y="312.3359">repositories</text></g><!--link Repositories to UserRepository--><g id="link_Repositories_UserRepository"><path codeLine="39" d="M703,468.27 C703,507.56 703,558.03 703,593.3 " fill="none" id="Repositories-to-UserRepository" style="stroke:#181818;stroke-width:1.0;"/><polygon fill="#181818" points="703,598.19,707,589.19,703,593.19,699,589.19,703,598.19" style="stroke:#181818;stroke-width:1.0;"/><text fill="#000000" font-family="sans-serif" font-size="20" lengthAdjust="spacing" textLength="13" x="688.8828" y="587.7344">1</text></g><!--link UserRepository to Employee--><g id="link_UserRepository_Employee"><path codeLine="41" d="M703,674.3 C703,718.72 703,793.13 703,834.82 " fill="none" id="UserRepository-to-Employee" style="stroke:#181818;stroke-width:1.0;"/><polygon fill="#181818" points="703,839.71,707,830.71,703,834.71,699,830.71,703,839.71" style="stroke:#181818;stroke-width:1.0;"/><text fill="#000000" font-family="sans-serif" font-size="20" lengthAdjust="spacing" textLength="10" x="691.8438" y="829.1147">*</text></g><!--reverse link User to Employee--><g id="link_User_Employee"><path d="M866.13,734.82 C817.35,773.9 765.15,815.71 733.29,841.23 " fill="none" id="User-backto-Employee" style="stroke:#181818;stroke-width:1.0;"/><polygon fill="none" points="861.69,729.41,881.68,722.37,870.45,740.33,861.69,729.41" style="stroke:#181818;stroke-width:1.0;"/></g><!--link SystemAdministrator to Employee--><g id="link_SystemAdministrator_Employee"><path codeLine="80" d="M448.35,662.35 C497.73,701.97 590,776 590,776 C590,776 638.67,814.54 672.12,841.04 " fill="none" id="SystemAdministrator-Employee" style="stroke:#181818;stroke-width:1.0;"/><polygon fill="#000000" points="604.2514,768.7693,595.8767,756.0643,590.0083,763.4132,604.2514,768.7693" style="stroke:#000000;stroke-width:1.0;"/><text fill="#000000" font-family="sans-serif" font-size="20" lengthAdjust="spacing" textLength="83" x="611" y="771.3359">registers</text><text fill="#000000" font-family="sans-serif" font-size="20" lengthAdjust="spacing" textLength="13" x="440.2691" y="689.3435">1</text><text fill="#000000" font-family="sans-serif" font-size="20" lengthAdjust="spacing" textLength="13" x="650.9431" y="829.3516">1</text></g><!--link User to Address--><g id="link_User_Address"><path codeLine="81" d="M959.87,721.42 C949.31,753.88 937.59,789.9 928.51,817.81 " fill="none" id="User-Address" style="stroke:#181818;stroke-width:1.0;"/><polygon fill="#000000" points="955.5249,771.3848,964.4739,759.0776,955.5308,756.1679,955.5249,771.3848" style="stroke:#000000;stroke-width:1.0;"/><text fill="#000000" font-family="sans-serif" font-size="20" lengthAdjust="spacing" textLength="33" x="971" y="771.3359">has</text><text fill="#000000" font-family="sans-serif" font-size="20" lengthAdjust="spacing" textLength="13" x="944.2952" y="748.1297">1</text><text fill="#000000" font-family="sans-serif" font-size="20" lengthAdjust="spacing" textLength="10" x="919.988" y="805.713">*</text></g><!--link User to Role--><g id="link_User_Role"><path codeLine="82" d="M1020.37,721.42 C1031.53,749.32 1043.74,779.84 1054.04,805.59 " fill="none" id="User-Role" style="stroke:#181818;stroke-width:1.0;"/><polygon fill="#000000" points="1050.9713,771.2051,1049.9621,756.0217,1041.2303,759.5146,1050.9713,771.2051" style="stroke:#000000;stroke-width:1.0;"/><text fill="#000000" font-family="sans-serif" font-size="20" lengthAdjust="spacing" textLength="50" x="1061" y="771.3359">has a</text><text fill="#000000" font-family="sans-serif" font-size="20" lengthAdjust="spacing" textLength="13" x="1009.4272" y="748.1297">1</text><text fill="#000000" font-family="sans-serif" font-size="20" lengthAdjust="spacing" textLength="13" x="1037.5181" y="793.605">1</text></g><!--link Address to State--><g id="link_Address_State"><path codeLine="83" d="M956.72,915.33 C985.53,946.86 1022.04,986.81 1044.97,1011.89 " fill="none" id="Address-State" style="stroke:#181818;stroke-width:1.0;"/><polygon fill="#000000" points="1030.397,975.6826,1024.1047,961.8276,1017.1627,968.1722,1030.397,975.6826" style="stroke:#000000;stroke-width:1.0;"/><text fill="#000000" font-family="sans-serif" font-size="20" lengthAdjust="spacing" textLength="64" x="1038" y="977.3359">part of</text><text fill="#000000" font-family="sans-serif" font-size="20" lengthAdjust="spacing" textLength="13" x="948.4888" y="942.4242">1</text><text fill="#000000" font-family="sans-serif" font-size="20" lengthAdjust="spacing" textLength="13" x="1025.3724" y="999.824">1</text></g><!--link Street to City--><g id="link_Street_City"><path codeLine="84" d="M1221,432.85 C1221,476.63 1221,568.17 1221,611.83 " fill="none" id="Street-City" style="stroke:#181818;stroke-width:1.0;"/><polygon fill="#000000" points="1229,518.7773,1233.7023,504.3052,1224.2977,504.3052,1229,518.7773" style="stroke:#000000;stroke-width:1.0;"/><text fill="#000000" font-family="sans-serif" font-size="20" lengthAdjust="spacing" textLength="64" x="1242" y="518.3359">part of</text><text fill="#000000" font-family="sans-serif" font-size="20" lengthAdjust="spacing" textLength="13" x="1206.6594" y="459.8435">1</text><text fill="#000000" font-family="sans-serif" font-size="20" lengthAdjust="spacing" textLength="13" x="1206.4969" y="599.7501">1</text></g><!--link City to District--><g id="link_City_District"><path codeLine="85" d="M1221,662.35 C1221,706.13 1221,797.67 1221,841.33 " fill="none" id="City-District" style="stroke:#181818;stroke-width:1.0;"/><polygon fill="#000000" points="1229,771.7773,1233.7023,757.3052,1224.2977,757.3052,1229,771.7773" style="stroke:#000000;stroke-width:1.0;"/><text fill="#000000" font-family="sans-serif" font-size="20" lengthAdjust="spacing" textLength="64" x="1242" y="771.3359">part of</text><text fill="#000000" font-family="sans-serif" font-size="20" lengthAdjust="spacing" textLength="13" x="1206.6594" y="689.3435">1</text><text fill="#000000" font-family="sans-serif" font-size="20" lengthAdjust="spacing" textLength="13" x="1206.4969" y="829.2501">1</text></g><!--link District to State--><g id="link_District_State"><path codeLine="86" d="M1198.94,891.64 C1169.74,923.58 1118.57,979.57 1089.27,1011.63 " fill="none" id="District-State" style="stroke:#181818;stroke-width:1.0;"/><polygon fill="#000000" points="1136.6028,975.6824,1149.8374,968.1724,1142.8955,961.8276,1136.6028,975.6824" style="stroke:#000000;stroke-width:1.0;"/><text fill="#000000" font-family="sans-serif" font-size="20" lengthAdjust="spacing" textLength="64" x="1155" y="977.3359">part of</text><text fill="#000000" font-family="sans-serif" font-size="20" lengthAdjust="spacing" textLength="13" x="1179.6925" y="919.0516">1</text><text fill="#000000" font-family="sans-serif" font-size="20" lengthAdjust="spacing" textLength="13" x="1079.7197" y="999.9613">1</text></g><!--SRC=[VLF1Rjim3BtxAuISkYqfkXrpA12u7X2WpOPaFGpeHPMOH8Wi2PA2rXtsxwCKoPRJhBw8udiKoKVQ7OGorD9MQdO0JZXiwL7wxrhvZNW3ykscSfb236K7keEDxoGG2ynJjPDG4DoUSlqYr8vigNGb8eK2tnaWHiikN0gCIUhSmdihdeyUbaohcFgcgY925iP8mQWN281pU90_5S7l2t4UtOpim2yLseh1rQS4eQy-MWlOo2a8aR_voKS7zlmj30ZkfgL2bjmrx8JpO5VmqhH6wWwWHdcibX9i7yqiK0-PSALe2rCKp3cZhQ-fvQjZ-mnsIZnzpIQ4L5Fof3n8C7kj82DSQvljDs5gpV6rq2mUJFWE6LYJ5Sm7jmNmPysjmMWdlBPTNo7bl2yFaZ5gCqK8S2bcDdAMoWvga_c8DDPog28InwwG-i9ePxX1QdPxQUfp8bBUQbHj3Xav2_B_1_cun5QnZilGzVNjnzE_65Win-c1KL6s5Eki3MnXydLoBbDrDiz8-pmXELzkRzDX8Us2jqA5tQ18FZKtR4K_rx2UoNo_emde5pNTuxPcRBomGvPS585N3uhtQNl2WdEBu-mh6JOzETAw3n6RkD_b6pN-0UNzBlqBfMyJVfRIiTOIKjR5tSDo5QtcuUVzZzzD4o_r_R9P_GeHbwGCavdDuf6R3DCyZT-HspYcdeNpIPtEoPw-W_48zPmmYcYMfI343kOu7-k9tY8d2L5GWX0b8mfJu5cOajEBzL6gVm00]--></g></svg>