<?xml version="1.0" encoding="UTF-8" standalone="no"?><svg xmlns="http://www.w3.org/2000/svg" xmlns:xlink="http://www.w3.org/1999/xlink" contentStyleType="text/css" height="461px" preserveAspectRatio="none" style="width:1118px;height:461px;background:#FFFFFF;" version="1.1" viewBox="0 0 1118 461" width="1118px" zoomAndPan="magnify"><defs/><g><rect fill="#FFFFFF" height="227.3281" style="stroke:#181818;stroke-width:1.0;" width="10" x="493.5" y="128.1094"/><rect fill="#FFFFFF" height="119.6641" style="stroke:#181818;stroke-width:1.0;" width="10" x="752.5" y="198.2188"/><rect fill="#FFFFFF" height="37.5547" style="stroke:#181818;stroke-width:1.0;" width="10" x="1001.5" y="235.7734"/><rect fill="none" height="138.2188" style="stroke:#000000;stroke-width:1.5;" width="729" x="383" y="143.1094"/><line style="stroke:#181818;stroke-width:0.5;stroke-dasharray:5.0,5.0;" x1="111" x2="111" y1="88.5547" y2="373.4375"/><line style="stroke:#181818;stroke-width:0.5;stroke-dasharray:5.0,5.0;" x1="498" x2="498" y1="88.5547" y2="373.4375"/><line style="stroke:#181818;stroke-width:0.5;stroke-dasharray:5.0,5.0;" x1="757" x2="757" y1="88.5547" y2="373.4375"/><line style="stroke:#181818;stroke-width:0.5;stroke-dasharray:5.0,5.0;" x1="1006" x2="1006" y1="88.5547" y2="373.4375"/><text fill="#000000" font-family="sans-serif" font-size="20" lengthAdjust="spacing" textLength="207" x="5" y="84.3359">System Administrator</text><ellipse cx="111.5" cy="13.5" fill="#E3E3E3" rx="8" ry="8" style="stroke:#181818;stroke-width:0.5;"/><path d="M111.5,21.5 L111.5,48.5 M98.5,29.5 L124.5,29.5 M111.5,48.5 L98.5,63.5 M111.5,48.5 L124.5,63.5 " fill="none" style="stroke:#181818;stroke-width:0.5;"/><text fill="#000000" font-family="sans-serif" font-size="20" lengthAdjust="spacing" textLength="207" x="5" y="391.7734">System Administrator</text><ellipse cx="111.5" cy="404.4922" fill="#E3E3E3" rx="8" ry="8" style="stroke:#181818;stroke-width:0.5;"/><path d="M111.5,412.4922 L111.5,439.4922 M98.5,420.4922 L124.5,420.4922 M111.5,439.4922 L98.5,454.4922 M111.5,439.4922 L124.5,454.4922 " fill="none" style="stroke:#181818;stroke-width:0.5;"/><rect fill="#E3E3E3" height="37.5547" rx="2.5" ry="2.5" style="stroke:#181818;stroke-width:0.5;" width="211" x="393" y="50"/><text fill="#000000" font-family="sans-serif" font-size="20" lengthAdjust="spacing" textLength="197" x="400" y="76.3359">:RegisterEmployeeUI</text><rect fill="#E3E3E3" height="37.5547" rx="2.5" ry="2.5" style="stroke:#181818;stroke-width:0.5;" width="211" x="393" y="372.4375"/><text fill="#000000" font-family="sans-serif" font-size="20" lengthAdjust="spacing" textLength="197" x="400" y="398.7734">:RegisterEmployeeUI</text><rect fill="#E3E3E3" height="37.5547" rx="2.5" ry="2.5" style="stroke:#181818;stroke-width:0.5;" width="287" x="614" y="50"/><text fill="#000000" font-family="sans-serif" font-size="20" lengthAdjust="spacing" textLength="273" x="621" y="76.3359">:RegisterEmployeeController</text><rect fill="#E3E3E3" height="37.5547" rx="2.5" ry="2.5" style="stroke:#181818;stroke-width:0.5;" width="287" x="614" y="372.4375"/><text fill="#000000" font-family="sans-serif" font-size="20" lengthAdjust="spacing" textLength="273" x="621" y="398.7734">:RegisterEmployeeController</text><rect fill="#E3E3E3" height="37.5547" rx="2.5" ry="2.5" style="stroke:#181818;stroke-width:0.5;" width="191" x="911" y="50"/><text fill="#000000" font-family="sans-serif" font-size="20" lengthAdjust="spacing" textLength="177" x="918" y="76.3359">:AgencyRepository</text><rect fill="#E3E3E3" height="37.5547" rx="2.5" ry="2.5" style="stroke:#181818;stroke-width:0.5;" width="191" x="911" y="372.4375"/><text fill="#000000" font-family="sans-serif" font-size="20" lengthAdjust="spacing" textLength="177" x="918" y="398.7734">:AgencyRepository</text><rect fill="#FFFFFF" height="227.3281" style="stroke:#181818;stroke-width:1.0;" width="10" x="493.5" y="128.1094"/><rect fill="#FFFFFF" height="119.6641" style="stroke:#181818;stroke-width:1.0;" width="10" x="752.5" y="198.2188"/><rect fill="#FFFFFF" height="37.5547" style="stroke:#181818;stroke-width:1.0;" width="10" x="1001.5" y="235.7734"/><polygon fill="#181818" points="481.5,124.1094,491.5,128.1094,481.5,132.1094,485.5,128.1094" style="stroke:#181818;stroke-width:1.0;"/><line style="stroke:#181818;stroke-width:1.0;" x1="111.5" x2="487.5" y1="128.1094" y2="128.1094"/><text fill="#000000" font-family="sans-serif" font-size="20" font-weight="bold" lengthAdjust="spacing" textLength="13" x="118.5" y="121.8906">1</text><text fill="#000000" font-family="sans-serif" font-size="20" lengthAdjust="spacing" textLength="346" x="135.5" y="121.8906">requests to register a new employee</text><path d="M383,143.1094 L591,143.1094 L591,158.6641 L581,168.6641 L383,168.6641 L383,143.1094 " fill="#EEEEEE" style="stroke:#000000;stroke-width:1.5;"/><rect fill="none" height="138.2188" style="stroke:#000000;stroke-width:1.5;" width="729" x="383" y="143.1094"/><text fill="#000000" font-family="sans-serif" font-size="20" font-weight="bold" lengthAdjust="spacing" textLength="163" x="398" y="163.4453">Get Agency List</text><polygon fill="#181818" points="740.5,194.2188,750.5,198.2188,740.5,202.2188,744.5,198.2188" style="stroke:#181818;stroke-width:1.0;"/><line style="stroke:#181818;stroke-width:1.0;" x1="503.5" x2="746.5" y1="198.2188" y2="198.2188"/><text fill="#000000" font-family="sans-serif" font-size="20" font-weight="bold" lengthAdjust="spacing" textLength="13" x="510.5" y="192">2</text><text fill="#000000" font-family="sans-serif" font-size="20" lengthAdjust="spacing" textLength="130" x="527.5" y="192">getAgencies()</text><polygon fill="#181818" points="989.5,231.7734,999.5,235.7734,989.5,239.7734,993.5,235.7734" style="stroke:#181818;stroke-width:1.0;"/><line style="stroke:#181818;stroke-width:1.0;" x1="762.5" x2="995.5" y1="235.7734" y2="235.7734"/><text fill="#000000" font-family="sans-serif" font-size="20" font-weight="bold" lengthAdjust="spacing" textLength="13" x="769.5" y="229.5547">3</text><text fill="#000000" font-family="sans-serif" font-size="20" lengthAdjust="spacing" textLength="156" x="786.5" y="229.5547">getAllAgencies()</text><polygon fill="#181818" points="773.5,269.3281,763.5,273.3281,773.5,277.3281,769.5,273.3281" style="stroke:#181818;stroke-width:1.0;"/><line style="stroke:#181818;stroke-width:1.0;stroke-dasharray:2.0,2.0;" x1="767.5" x2="1005.5" y1="273.3281" y2="273.3281"/><text fill="#000000" font-family="sans-serif" font-size="20" font-weight="bold" lengthAdjust="spacing" textLength="13" x="779.5" y="267.1094">4</text><text fill="#000000" font-family="sans-serif" font-size="20" lengthAdjust="spacing" textLength="100" x="796.5" y="267.1094">agencyList</text><polygon fill="#181818" points="514.5,313.8828,504.5,317.8828,514.5,321.8828,510.5,317.8828" style="stroke:#181818;stroke-width:1.0;"/><line style="stroke:#181818;stroke-width:1.0;stroke-dasharray:2.0,2.0;" x1="508.5" x2="756.5" y1="317.8828" y2="317.8828"/><text fill="#000000" font-family="sans-serif" font-size="20" font-weight="bold" lengthAdjust="spacing" textLength="13" x="520.5" y="311.6641">5</text><text fill="#000000" font-family="sans-serif" font-size="20" lengthAdjust="spacing" textLength="100" x="537.5" y="311.6641">agencyList</text><polygon fill="#181818" points="122.5,351.4375,112.5,355.4375,122.5,359.4375,118.5,355.4375" style="stroke:#181818;stroke-width:1.0;"/><line style="stroke:#181818;stroke-width:1.0;stroke-dasharray:2.0,2.0;" x1="116.5" x2="497.5" y1="355.4375" y2="355.4375"/><text fill="#000000" font-family="sans-serif" font-size="20" font-weight="bold" lengthAdjust="spacing" textLength="13" x="128.5" y="349.2188">6</text><text fill="#000000" font-family="sans-serif" font-size="20" lengthAdjust="spacing" textLength="244" x="145.5" y="349.2188">shows the list of agencies</text><!--SRC=[XPBFJiCm3CRlUGfh9pXC0eux84qJJ9DssjW3cDRheYLnILocylIuwVv424HFhVtzFd-sceusj1ZHEwwEL4DDU-oSl7AGhVqYU7emwI81pu6hGsHF8B6ZejDYTSI6jj8xWaYLO6XSAKW7hFbaGmDxT8cCmKuuTFwT8ZpgLoKSORBjav27UUrji4aYQdK2c23rAHUDkecjR8j1O3BRKACoYY- -TTmJxLPPlLlzerleUf6Tez5zyRPP_o3c3OMgtr3BoMg8FkjkHMCkYM3whFDWfbj_T9GaWR2-Z_C08T09w3nsMDD-ej2Gq3IHknQM96TVM2jZG1_rKzSXbVes9BblATtTv_RL9UVEfQnLvfRmJ3ht5rmkCpGAT7gRZhbwJLRJRpo5sfWnmkKQ1LSmO-1XFTLTBpZJluDFUhW3WLC2U3_ochgazMZV]--></g></svg>