<?xml version="1.0" encoding="UTF-8" standalone="no"?><svg xmlns="http://www.w3.org/2000/svg" xmlns:xlink="http://www.w3.org/1999/xlink" contentStyleType="text/css" height="1560px" preserveAspectRatio="none" style="width:2427px;height:1560px;background:#FFFFFF;" version="1.1" viewBox="0 0 2427 1560" width="2427px" zoomAndPan="magnify"><defs/><g><rect fill="#FFFFFF" height="1355.4141" style="stroke:#181818;stroke-width:1.0;" width="10" x="106.5" y="98.5547"/><rect fill="#FFFFFF" height="37.5547" style="stroke:#181818;stroke-width:1.0;" width="10" x="701.5" y="128.1094"/><rect fill="#FFFFFF" height="337.9922" style="stroke:#181818;stroke-width:1.0;" width="10" x="701.5" y="203.2188"/><rect fill="#FFFFFF" height="61.1094" style="stroke:#181818;stroke-width:1.0;" width="10" x="701.5" y="578.7656"/><rect fill="#FFFFFF" height="785.5391" style="stroke:#181818;stroke-width:1.0;" width="10" x="701.5" y="677.4297"/><rect fill="#FFFFFF" height="42.5547" style="stroke:#181818;stroke-width:1.0;" width="10" x="706.5" y="1323.3047"/><rect fill="#FFFFFF" height="42.5547" style="stroke:#181818;stroke-width:1.0;" width="10" x="706.5" y="1411.4141"/><rect fill="#FFFFFF" height="262.8828" style="stroke:#181818;stroke-width:1.0;" width="10" x="1387.5" y="240.7734"/><rect fill="#FFFFFF" height="539.2109" style="stroke:#181818;stroke-width:1.0;" width="10" x="1387.5" y="738.5391"/><rect fill="#FFFFFF" height="37.5547" style="stroke:#181818;stroke-width:1.0;" width="10" x="1610.5" y="278.3281"/><rect fill="#FFFFFF" height="37.5547" style="stroke:#181818;stroke-width:1.0;" width="10" x="1610.5" y="776.0938"/><rect fill="#FFFFFF" height="37.5547" style="stroke:#181818;stroke-width:1.0;" width="10" x="1759.5" y="353.4375"/><rect fill="#FFFFFF" height="37.5547" style="stroke:#181818;stroke-width:1.0;" width="10" x="1759.5" y="851.2031"/><rect fill="#FFFFFF" height="37.5547" style="stroke:#181818;stroke-width:1.0;" width="10" x="1951.5" y="428.5469"/><rect fill="#FFFFFF" height="513.1016" style="stroke:#181818;stroke-width:1.0;" width="10" x="2181.5" y="949.8672"/><rect fill="#FFFFFF" height="48.5547" style="stroke:#181818;stroke-width:1.0;" width="10" x="2186.5" y="995.4219"/><rect fill="#FFFFFF" height="48.5547" style="stroke:#181818;stroke-width:1.0;" width="10" x="2186.5" y="1096.5313"/><rect fill="#FFFFFF" height="42.5547" style="stroke:#181818;stroke-width:1.0;" width="10" x="2186.5" y="1197.6406"/><line style="stroke:#181818;stroke-width:0.5;stroke-dasharray:5.0,5.0;" x1="111" x2="111" y1="88.5547" y2="1471.9688"/><line style="stroke:#181818;stroke-width:0.5;stroke-dasharray:5.0,5.0;" x1="706" x2="706" y1="88.5547" y2="1471.9688"/><line style="stroke:#181818;stroke-width:0.5;stroke-dasharray:5.0,5.0;" x1="1392" x2="1392" y1="88.5547" y2="1471.9688"/><line style="stroke:#181818;stroke-width:0.5;stroke-dasharray:5.0,5.0;" x1="1615" x2="1615" y1="88.5547" y2="1471.9688"/><line style="stroke:#181818;stroke-width:0.5;stroke-dasharray:5.0,5.0;" x1="1764" x2="1764" y1="88.5547" y2="1471.9688"/><line style="stroke:#181818;stroke-width:0.5;stroke-dasharray:5.0,5.0;" x1="1956" x2="1956" y1="88.5547" y2="1471.9688"/><line style="stroke:#181818;stroke-width:0.5;stroke-dasharray:5.0,5.0;" x1="2186" x2="2186" y1="88.5547" y2="1471.9688"/><text fill="#000000" font-family="sans-serif" font-size="20" lengthAdjust="spacing" textLength="207" x="5" y="84.3359">System Administrator</text><ellipse cx="111.5" cy="13.5" fill="#E3E3E3" rx="8" ry="8" style="stroke:#181818;stroke-width:0.5;"/><path d="M111.5,21.5 L111.5,48.5 M98.5,29.5 L124.5,29.5 M111.5,48.5 L98.5,63.5 M111.5,48.5 L124.5,63.5 " fill="none" style="stroke:#181818;stroke-width:0.5;"/><text fill="#000000" font-family="sans-serif" font-size="20" lengthAdjust="spacing" textLength="207" x="5" y="1490.3047">System Administrator</text><ellipse cx="111.5" cy="1503.0234" fill="#E3E3E3" rx="8" ry="8" style="stroke:#181818;stroke-width:0.5;"/><path d="M111.5,1511.0234 L111.5,1538.0234 M98.5,1519.0234 L124.5,1519.0234 M111.5,1538.0234 L98.5,1553.0234 M111.5,1538.0234 L124.5,1553.0234 " fill="none" style="stroke:#181818;stroke-width:0.5;"/><rect fill="#E3E3E3" height="37.5547" rx="2.5" ry="2.5" style="stroke:#181818;stroke-width:0.5;" width="211" x="601" y="50"/><text fill="#000000" font-family="sans-serif" font-size="20" lengthAdjust="spacing" textLength="197" x="608" y="76.3359">:RegisterEmployeeUI</text><rect fill="#E3E3E3" height="37.5547" rx="2.5" ry="2.5" style="stroke:#181818;stroke-width:0.5;" width="211" x="601" y="1470.9688"/><text fill="#000000" font-family="sans-serif" font-size="20" lengthAdjust="spacing" textLength="197" x="608" y="1497.3047">:RegisterEmployeeUI</text><rect fill="#E3E3E3" height="37.5547" rx="2.5" ry="2.5" style="stroke:#181818;stroke-width:0.5;" width="287" x="1249" y="50"/><text fill="#000000" font-family="sans-serif" font-size="20" lengthAdjust="spacing" textLength="273" x="1256" y="76.3359">:RegisterEmployeeController</text><rect fill="#E3E3E3" height="37.5547" rx="2.5" ry="2.5" style="stroke:#181818;stroke-width:0.5;" width="287" x="1249" y="1470.9688"/><text fill="#000000" font-family="sans-serif" font-size="20" lengthAdjust="spacing" textLength="273" x="1256" y="1497.3047">:RegisterEmployeeController</text><rect fill="#E3E3E3" height="37.5547" rx="2.5" ry="2.5" style="stroke:#181818;stroke-width:0.5;" width="139" x="1546" y="50"/><text fill="#000000" font-family="sans-serif" font-size="20" lengthAdjust="spacing" textLength="125" x="1553" y="76.3359">:Repositories</text><rect fill="#E3E3E3" height="37.5547" rx="2.5" ry="2.5" style="stroke:#181818;stroke-width:0.5;" width="139" x="1546" y="1470.9688"/><text fill="#000000" font-family="sans-serif" font-size="20" lengthAdjust="spacing" textLength="125" x="1553" y="1497.3047">:Repositories</text><rect fill="#E3E3E3" height="61.1094" rx="2.5" ry="2.5" style="stroke:#181818;stroke-width:0.5;" width="139" x="1695" y="26.4453"/><text fill="#000000" font-family="sans-serif" font-size="20" lengthAdjust="spacing" textLength="114" x="1707.5" y="52.7813">repositories</text><text fill="#000000" font-family="sans-serif" font-size="20" lengthAdjust="spacing" textLength="125" x="1702" y="76.3359">:Repositories</text><rect fill="#E3E3E3" height="61.1094" rx="2.5" ry="2.5" style="stroke:#181818;stroke-width:0.5;" width="139" x="1695" y="1470.9688"/><text fill="#000000" font-family="sans-serif" font-size="20" lengthAdjust="spacing" textLength="114" x="1707.5" y="1497.3047">repositories</text><text fill="#000000" font-family="sans-serif" font-size="20" lengthAdjust="spacing" textLength="125" x="1702" y="1520.8594">:Repositories</text><rect fill="#E3E3E3" height="37.5547" rx="2.5" ry="2.5" style="stroke:#181818;stroke-width:0.5;" width="225" x="1844" y="50"/><text fill="#000000" font-family="sans-serif" font-size="20" lengthAdjust="spacing" textLength="211" x="1851" y="76.3359">:AgencyListRepository</text><rect fill="#E3E3E3" height="37.5547" rx="2.5" ry="2.5" style="stroke:#181818;stroke-width:0.5;" width="225" x="1844" y="1470.9688"/><text fill="#000000" font-family="sans-serif" font-size="20" lengthAdjust="spacing" textLength="211" x="1851" y="1497.3047">:AgencyListRepository</text><rect fill="#E3E3E3" height="37.5547" rx="2.5" ry="2.5" style="stroke:#181818;stroke-width:0.5;" width="215" x="2079" y="50"/><text fill="#000000" font-family="sans-serif" font-size="20" lengthAdjust="spacing" textLength="201" x="2086" y="76.3359">:EmployeeRepository</text><rect fill="#E3E3E3" height="37.5547" rx="2.5" ry="2.5" style="stroke:#181818;stroke-width:0.5;" width="215" x="2079" y="1470.9688"/><text fill="#000000" font-family="sans-serif" font-size="20" lengthAdjust="spacing" textLength="201" x="2086" y="1497.3047">:EmployeeRepository</text><rect fill="#FFFFFF" height="1355.4141" style="stroke:#181818;stroke-width:1.0;" width="10" x="106.5" y="98.5547"/><rect fill="#FFFFFF" height="37.5547" style="stroke:#181818;stroke-width:1.0;" width="10" x="701.5" y="128.1094"/><rect fill="#FFFFFF" height="337.9922" style="stroke:#181818;stroke-width:1.0;" width="10" x="701.5" y="203.2188"/><rect fill="#FFFFFF" height="61.1094" style="stroke:#181818;stroke-width:1.0;" width="10" x="701.5" y="578.7656"/><rect fill="#FFFFFF" height="785.5391" style="stroke:#181818;stroke-width:1.0;" width="10" x="701.5" y="677.4297"/><rect fill="#FFFFFF" height="42.5547" style="stroke:#181818;stroke-width:1.0;" width="10" x="706.5" y="1323.3047"/><rect fill="#FFFFFF" height="42.5547" style="stroke:#181818;stroke-width:1.0;" width="10" x="706.5" y="1411.4141"/><rect fill="#FFFFFF" height="262.8828" style="stroke:#181818;stroke-width:1.0;" width="10" x="1387.5" y="240.7734"/><rect fill="#FFFFFF" height="539.2109" style="stroke:#181818;stroke-width:1.0;" width="10" x="1387.5" y="738.5391"/><rect fill="#FFFFFF" height="37.5547" style="stroke:#181818;stroke-width:1.0;" width="10" x="1610.5" y="278.3281"/><rect fill="#FFFFFF" height="37.5547" style="stroke:#181818;stroke-width:1.0;" width="10" x="1610.5" y="776.0938"/><rect fill="#FFFFFF" height="37.5547" style="stroke:#181818;stroke-width:1.0;" width="10" x="1759.5" y="353.4375"/><rect fill="#FFFFFF" height="37.5547" style="stroke:#181818;stroke-width:1.0;" width="10" x="1759.5" y="851.2031"/><rect fill="#FFFFFF" height="37.5547" style="stroke:#181818;stroke-width:1.0;" width="10" x="1951.5" y="428.5469"/><rect fill="#FFFFFF" height="513.1016" style="stroke:#181818;stroke-width:1.0;" width="10" x="2181.5" y="949.8672"/><rect fill="#FFFFFF" height="48.5547" style="stroke:#181818;stroke-width:1.0;" width="10" x="2186.5" y="995.4219"/><rect fill="#FFFFFF" height="48.5547" style="stroke:#181818;stroke-width:1.0;" width="10" x="2186.5" y="1096.5313"/><rect fill="#FFFFFF" height="42.5547" style="stroke:#181818;stroke-width:1.0;" width="10" x="2186.5" y="1197.6406"/><polygon fill="#181818" points="689.5,124.1094,699.5,128.1094,689.5,132.1094,693.5,128.1094" style="stroke:#181818;stroke-width:1.0;"/><line style="stroke:#181818;stroke-width:1.0;" x1="116.5" x2="695.5" y1="128.1094" y2="128.1094"/><text fill="#000000" font-family="sans-serif" font-size="20" font-weight="bold" lengthAdjust="spacing" textLength="13" x="123.5" y="121.8906">1</text><text fill="#000000" font-family="sans-serif" font-size="20" lengthAdjust="spacing" textLength="346" x="140.5" y="121.8906">requests to register a new employee</text><polygon fill="#181818" points="127.5,161.6641,117.5,165.6641,127.5,169.6641,123.5,165.6641" style="stroke:#181818;stroke-width:1.0;"/><line style="stroke:#181818;stroke-width:1.0;stroke-dasharray:2.0,2.0;" x1="121.5" x2="705.5" y1="165.6641" y2="165.6641"/><text fill="#000000" font-family="sans-serif" font-size="20" font-weight="bold" lengthAdjust="spacing" textLength="13" x="133.5" y="159.4453">2</text><text fill="#000000" font-family="sans-serif" font-size="20" lengthAdjust="spacing" textLength="365" x="150.5" y="159.4453">requests the role of the new employee</text><polygon fill="#181818" points="689.5,199.2188,699.5,203.2188,689.5,207.2188,693.5,203.2188" style="stroke:#181818;stroke-width:1.0;"/><line style="stroke:#181818;stroke-width:1.0;" x1="116.5" x2="695.5" y1="203.2188" y2="203.2188"/><text fill="#000000" font-family="sans-serif" font-size="20" font-weight="bold" lengthAdjust="spacing" textLength="13" x="123.5" y="197">3</text><text fill="#000000" font-family="sans-serif" font-size="20" lengthAdjust="spacing" textLength="366" x="140.5" y="197">provides the role of the new employee</text><polygon fill="#181818" points="1375.5,236.7734,1385.5,240.7734,1375.5,244.7734,1379.5,240.7734" style="stroke:#181818;stroke-width:1.0;"/><line style="stroke:#181818;stroke-width:1.0;" x1="711.5" x2="1381.5" y1="240.7734" y2="240.7734"/><text fill="#000000" font-family="sans-serif" font-size="20" font-weight="bold" lengthAdjust="spacing" textLength="13" x="718.5" y="234.5547">4</text><text fill="#000000" font-family="sans-serif" font-size="20" lengthAdjust="spacing" textLength="130" x="735.5" y="234.5547">getAgencies()</text><polygon fill="#181818" points="1598.5,274.3281,1608.5,278.3281,1598.5,282.3281,1602.5,278.3281" style="stroke:#181818;stroke-width:1.0;"/><line style="stroke:#181818;stroke-width:1.0;" x1="1397.5" x2="1604.5" y1="278.3281" y2="278.3281"/><text fill="#000000" font-family="sans-serif" font-size="20" font-weight="bold" lengthAdjust="spacing" textLength="13" x="1404.5" y="272.1094">5</text><text fill="#000000" font-family="sans-serif" font-size="20" lengthAdjust="spacing" textLength="123" x="1421.5" y="272.1094">getInstance()</text><polygon fill="#181818" points="1408.5,311.8828,1398.5,315.8828,1408.5,319.8828,1404.5,315.8828" style="stroke:#181818;stroke-width:1.0;"/><line style="stroke:#181818;stroke-width:1.0;stroke-dasharray:2.0,2.0;" x1="1402.5" x2="1614.5" y1="315.8828" y2="315.8828"/><text fill="#000000" font-family="sans-serif" font-size="20" font-weight="bold" lengthAdjust="spacing" textLength="13" x="1414.5" y="309.6641">6</text><text fill="#000000" font-family="sans-serif" font-size="20" lengthAdjust="spacing" textLength="114" x="1431.5" y="309.6641">repositories</text><polygon fill="#181818" points="1747.5,349.4375,1757.5,353.4375,1747.5,357.4375,1751.5,353.4375" style="stroke:#181818;stroke-width:1.0;"/><line style="stroke:#181818;stroke-width:1.0;" x1="1397.5" x2="1753.5" y1="353.4375" y2="353.4375"/><text fill="#000000" font-family="sans-serif" font-size="20" font-weight="bold" lengthAdjust="spacing" textLength="13" x="1404.5" y="347.2188">7</text><text fill="#000000" font-family="sans-serif" font-size="20" lengthAdjust="spacing" textLength="277" x="1421.5" y="347.2188">getTaskCategoryRepository()</text><polygon fill="#181818" points="1408.5,386.9922,1398.5,390.9922,1408.5,394.9922,1404.5,390.9922" style="stroke:#181818;stroke-width:1.0;"/><line style="stroke:#181818;stroke-width:1.0;stroke-dasharray:2.0,2.0;" x1="1402.5" x2="1763.5" y1="390.9922" y2="390.9922"/><text fill="#000000" font-family="sans-serif" font-size="20" font-weight="bold" lengthAdjust="spacing" textLength="13" x="1414.5" y="384.7734">8</text><text fill="#000000" font-family="sans-serif" font-size="20" lengthAdjust="spacing" textLength="227" x="1431.5" y="384.7734">taskCategoryRepository</text><polygon fill="#181818" points="1939.5,424.5469,1949.5,428.5469,1939.5,432.5469,1943.5,428.5469" style="stroke:#181818;stroke-width:1.0;"/><line style="stroke:#181818;stroke-width:1.0;" x1="1397.5" x2="1945.5" y1="428.5469" y2="428.5469"/><text fill="#000000" font-family="sans-serif" font-size="20" font-weight="bold" lengthAdjust="spacing" textLength="13" x="1404.5" y="422.3281">9</text><text fill="#000000" font-family="sans-serif" font-size="20" lengthAdjust="spacing" textLength="156" x="1421.5" y="422.3281">getAllAgencies()</text><polygon fill="#181818" points="1408.5,462.1016,1398.5,466.1016,1408.5,470.1016,1404.5,466.1016" style="stroke:#181818;stroke-width:1.0;"/><line style="stroke:#181818;stroke-width:1.0;stroke-dasharray:2.0,2.0;" x1="1402.5" x2="1955.5" y1="466.1016" y2="466.1016"/><text fill="#000000" font-family="sans-serif" font-size="20" font-weight="bold" lengthAdjust="spacing" textLength="26" x="1414.5" y="459.8828">10</text><text fill="#000000" font-family="sans-serif" font-size="20" lengthAdjust="spacing" textLength="100" x="1444.5" y="459.8828">agencyList</text><polygon fill="#181818" points="722.5,499.6563,712.5,503.6563,722.5,507.6563,718.5,503.6563" style="stroke:#181818;stroke-width:1.0;"/><line style="stroke:#181818;stroke-width:1.0;stroke-dasharray:2.0,2.0;" x1="716.5" x2="1391.5" y1="503.6563" y2="503.6563"/><text fill="#000000" font-family="sans-serif" font-size="20" font-weight="bold" lengthAdjust="spacing" textLength="26" x="728.5" y="497.4375">11</text><text fill="#000000" font-family="sans-serif" font-size="20" lengthAdjust="spacing" textLength="100" x="758.5" y="497.4375">agencyList</text><polygon fill="#181818" points="127.5,537.2109,117.5,541.2109,127.5,545.2109,123.5,541.2109" style="stroke:#181818;stroke-width:1.0;"/><line style="stroke:#181818;stroke-width:1.0;stroke-dasharray:2.0,2.0;" x1="121.5" x2="705.5" y1="541.2109" y2="541.2109"/><text fill="#000000" font-family="sans-serif" font-size="20" font-weight="bold" lengthAdjust="spacing" textLength="26" x="133.5" y="534.9922">12</text><text fill="#000000" font-family="sans-serif" font-size="20" lengthAdjust="spacing" textLength="244" x="163.5" y="534.9922">shows the list of agencies</text><polygon fill="#181818" points="689.5,574.7656,699.5,578.7656,689.5,582.7656,693.5,578.7656" style="stroke:#181818;stroke-width:1.0;"/><line style="stroke:#181818;stroke-width:1.0;" x1="116.5" x2="695.5" y1="578.7656" y2="578.7656"/><text fill="#000000" font-family="sans-serif" font-size="20" font-weight="bold" lengthAdjust="spacing" textLength="26" x="123.5" y="572.5469">13</text><text fill="#000000" font-family="sans-serif" font-size="20" lengthAdjust="spacing" textLength="296" x="153.5" y="572.5469">selects the agency from the list</text><polygon fill="#181818" points="127.5,635.875,117.5,639.875,127.5,643.875,123.5,639.875" style="stroke:#181818;stroke-width:1.0;"/><line style="stroke:#181818;stroke-width:1.0;stroke-dasharray:2.0,2.0;" x1="121.5" x2="705.5" y1="639.875" y2="639.875"/><text fill="#000000" font-family="sans-serif" font-size="20" font-weight="bold" lengthAdjust="spacing" textLength="26" x="133.5" y="621.8789">14</text><text fill="#000000" font-family="sans-serif" font-size="20" lengthAdjust="spacing" textLength="531" x="163.5" y="610.1016">requests the name, passport card number, tax number,</text><text fill="#000000" font-family="sans-serif" font-size="20" lengthAdjust="spacing" textLength="486" x="163.5" y="633.6563">address, email address, contact telephone number</text><polygon fill="#181818" points="689.5,673.4297,699.5,677.4297,689.5,681.4297,693.5,677.4297" style="stroke:#181818;stroke-width:1.0;"/><line style="stroke:#181818;stroke-width:1.0;" x1="116.5" x2="695.5" y1="677.4297" y2="677.4297"/><text fill="#000000" font-family="sans-serif" font-size="20" font-weight="bold" lengthAdjust="spacing" textLength="26" x="123.5" y="671.2109">15</text><text fill="#000000" font-family="sans-serif" font-size="20" lengthAdjust="spacing" textLength="266" x="153.5" y="671.2109">provides the necessary data</text><polygon fill="#181818" points="1375.5,734.5391,1385.5,738.5391,1375.5,742.5391,1379.5,738.5391" style="stroke:#181818;stroke-width:1.0;"/><line style="stroke:#181818;stroke-width:1.0;" x1="711.5" x2="1381.5" y1="738.5391" y2="738.5391"/><text fill="#000000" font-family="sans-serif" font-size="20" font-weight="bold" lengthAdjust="spacing" textLength="26" x="718.5" y="720.543">16</text><text fill="#000000" font-family="sans-serif" font-size="20" lengthAdjust="spacing" textLength="621" x="748.5" y="708.7656">registerEmployee(role, name, passportCardNumber, taxNumber,</text><text fill="#000000" font-family="sans-serif" font-size="20" lengthAdjust="spacing" textLength="493" x="748.5" y="732.3203">address, email, telephoneNumber, selectedAgency)</text><polygon fill="#181818" points="1598.5,772.0938,1608.5,776.0938,1598.5,780.0938,1602.5,776.0938" style="stroke:#181818;stroke-width:1.0;"/><line style="stroke:#181818;stroke-width:1.0;" x1="1397.5" x2="1604.5" y1="776.0938" y2="776.0938"/><text fill="#000000" font-family="sans-serif" font-size="20" font-weight="bold" lengthAdjust="spacing" textLength="26" x="1404.5" y="769.875">17</text><text fill="#000000" font-family="sans-serif" font-size="20" lengthAdjust="spacing" textLength="123" x="1434.5" y="769.875">getInstance()</text><polygon fill="#181818" points="1408.5,809.6484,1398.5,813.6484,1408.5,817.6484,1404.5,813.6484" style="stroke:#181818;stroke-width:1.0;"/><line style="stroke:#181818;stroke-width:1.0;stroke-dasharray:2.0,2.0;" x1="1402.5" x2="1614.5" y1="813.6484" y2="813.6484"/><text fill="#000000" font-family="sans-serif" font-size="20" font-weight="bold" lengthAdjust="spacing" textLength="26" x="1414.5" y="807.4297">18</text><text fill="#000000" font-family="sans-serif" font-size="20" lengthAdjust="spacing" textLength="114" x="1444.5" y="807.4297">repositories</text><polygon fill="#181818" points="1747.5,847.2031,1757.5,851.2031,1747.5,855.2031,1751.5,851.2031" style="stroke:#181818;stroke-width:1.0;"/><line style="stroke:#181818;stroke-width:1.0;" x1="1397.5" x2="1753.5" y1="851.2031" y2="851.2031"/><text fill="#000000" font-family="sans-serif" font-size="20" font-weight="bold" lengthAdjust="spacing" textLength="26" x="1404.5" y="844.9844">19</text><text fill="#000000" font-family="sans-serif" font-size="20" lengthAdjust="spacing" textLength="277" x="1434.5" y="844.9844">getTaskCategoryRepository()</text><polygon fill="#181818" points="1408.5,884.7578,1398.5,888.7578,1408.5,892.7578,1404.5,888.7578" style="stroke:#181818;stroke-width:1.0;"/><line style="stroke:#181818;stroke-width:1.0;stroke-dasharray:2.0,2.0;" x1="1402.5" x2="1763.5" y1="888.7578" y2="888.7578"/><text fill="#000000" font-family="sans-serif" font-size="20" font-weight="bold" lengthAdjust="spacing" textLength="26" x="1414.5" y="882.5391">20</text><text fill="#000000" font-family="sans-serif" font-size="20" lengthAdjust="spacing" textLength="227" x="1444.5" y="882.5391">taskCategoryRepository</text><polygon fill="#181818" points="2169.5,945.8672,2179.5,949.8672,2169.5,953.8672,2173.5,949.8672" style="stroke:#181818;stroke-width:1.0;"/><line style="stroke:#181818;stroke-width:1.0;" x1="1397.5" x2="2175.5" y1="949.8672" y2="949.8672"/><text fill="#000000" font-family="sans-serif" font-size="20" font-weight="bold" lengthAdjust="spacing" textLength="26" x="1404.5" y="931.8711">21</text><text fill="#000000" font-family="sans-serif" font-size="20" lengthAdjust="spacing" textLength="606" x="1434.5" y="920.0938">createEmployee(role, name, passportCardNumber, taxNumber,</text><text fill="#000000" font-family="sans-serif" font-size="20" lengthAdjust="spacing" textLength="493" x="1434.5" y="943.6484">address, email, telephoneNumber, selectedAgency)</text><line style="stroke:#181818;stroke-width:1.0;" x1="2191.5" x2="2238.5" y1="982.4219" y2="982.4219"/><line style="stroke:#181818;stroke-width:1.0;" x1="2238.5" x2="2238.5" y1="982.4219" y2="995.4219"/><line style="stroke:#181818;stroke-width:1.0;" x1="2197.5" x2="2238.5" y1="995.4219" y2="995.4219"/><polygon fill="#181818" points="2207.5,991.4219,2197.5,995.4219,2207.5,999.4219,2203.5,995.4219" style="stroke:#181818;stroke-width:1.0;"/><text fill="#000000" font-family="sans-serif" font-size="20" font-weight="bold" lengthAdjust="spacing" textLength="26" x="2203.5" y="976.2031">22</text><text fill="#000000" font-family="sans-serif" font-size="20" lengthAdjust="spacing" textLength="133" x="2233.5" y="976.2031">validateData()</text><line style="stroke:#181818;stroke-width:1.0;stroke-dasharray:2.0,2.0;" x1="2196.5" x2="2238.5" y1="1042.9766" y2="1042.9766"/><line style="stroke:#181818;stroke-width:1.0;stroke-dasharray:2.0,2.0;" x1="2238.5" x2="2238.5" y1="1042.9766" y2="1055.9766"/><line style="stroke:#181818;stroke-width:1.0;stroke-dasharray:2.0,2.0;" x1="2191.5" x2="2238.5" y1="1055.9766" y2="1055.9766"/><polygon fill="#181818" points="2201.5,1051.9766,2191.5,1055.9766,2201.5,1059.9766,2197.5,1055.9766" style="stroke:#181818;stroke-width:1.0;"/><text fill="#000000" font-family="sans-serif" font-size="20" font-weight="bold" lengthAdjust="spacing" textLength="26" x="2203.5" y="1036.7578">23</text><text fill="#000000" font-family="sans-serif" font-size="20" lengthAdjust="spacing" textLength="153" x="2233.5" y="1036.7578">validationResult</text><line style="stroke:#181818;stroke-width:1.0;" x1="2191.5" x2="2238.5" y1="1083.5313" y2="1083.5313"/><line style="stroke:#181818;stroke-width:1.0;" x1="2238.5" x2="2238.5" y1="1083.5313" y2="1096.5313"/><line style="stroke:#181818;stroke-width:1.0;" x1="2197.5" x2="2238.5" y1="1096.5313" y2="1096.5313"/><polygon fill="#181818" points="2207.5,1092.5313,2197.5,1096.5313,2207.5,1100.5313,2203.5,1096.5313" style="stroke:#181818;stroke-width:1.0;"/><text fill="#000000" font-family="sans-serif" font-size="20" font-weight="bold" lengthAdjust="spacing" textLength="26" x="2203.5" y="1077.3125">24</text><text fill="#000000" font-family="sans-serif" font-size="20" lengthAdjust="spacing" textLength="187" x="2233.5" y="1077.3125">generatePassword()</text><line style="stroke:#181818;stroke-width:1.0;stroke-dasharray:2.0,2.0;" x1="2196.5" x2="2238.5" y1="1144.0859" y2="1144.0859"/><line style="stroke:#181818;stroke-width:1.0;stroke-dasharray:2.0,2.0;" x1="2238.5" x2="2238.5" y1="1144.0859" y2="1157.0859"/><line style="stroke:#181818;stroke-width:1.0;stroke-dasharray:2.0,2.0;" x1="2191.5" x2="2238.5" y1="1157.0859" y2="1157.0859"/><polygon fill="#181818" points="2201.5,1153.0859,2191.5,1157.0859,2201.5,1161.0859,2197.5,1157.0859" style="stroke:#181818;stroke-width:1.0;"/><text fill="#000000" font-family="sans-serif" font-size="20" font-weight="bold" lengthAdjust="spacing" textLength="26" x="2203.5" y="1137.8672">25</text><text fill="#000000" font-family="sans-serif" font-size="20" lengthAdjust="spacing" textLength="186" x="2233.5" y="1137.8672">generatedPassword</text><line style="stroke:#181818;stroke-width:1.0;" x1="2191.5" x2="2238.5" y1="1184.6406" y2="1184.6406"/><line style="stroke:#181818;stroke-width:1.0;" x1="2238.5" x2="2238.5" y1="1184.6406" y2="1197.6406"/><line style="stroke:#181818;stroke-width:1.0;" x1="2197.5" x2="2238.5" y1="1197.6406" y2="1197.6406"/><polygon fill="#181818" points="2207.5,1193.6406,2197.5,1197.6406,2207.5,1201.6406,2203.5,1197.6406" style="stroke:#181818;stroke-width:1.0;"/><text fill="#000000" font-family="sans-serif" font-size="20" font-weight="bold" lengthAdjust="spacing" textLength="26" x="2203.5" y="1178.4219">26</text><text fill="#000000" font-family="sans-serif" font-size="20" lengthAdjust="spacing" textLength="149" x="2233.5" y="1178.4219">saveEmployee()</text><polygon fill="#181818" points="1408.5,1236.1953,1398.5,1240.1953,1408.5,1244.1953,1404.5,1240.1953" style="stroke:#181818;stroke-width:1.0;"/><line style="stroke:#181818;stroke-width:1.0;stroke-dasharray:2.0,2.0;" x1="1402.5" x2="2180.5" y1="1240.1953" y2="1240.1953"/><text fill="#000000" font-family="sans-serif" font-size="20" font-weight="bold" lengthAdjust="spacing" textLength="26" x="1414.5" y="1233.9766">27</text><text fill="#000000" font-family="sans-serif" font-size="20" lengthAdjust="spacing" textLength="73" x="1444.5" y="1233.9766">success</text><polygon fill="#181818" points="722.5,1273.75,712.5,1277.75,722.5,1281.75,718.5,1277.75" style="stroke:#181818;stroke-width:1.0;"/><line style="stroke:#181818;stroke-width:1.0;stroke-dasharray:2.0,2.0;" x1="716.5" x2="1391.5" y1="1277.75" y2="1277.75"/><text fill="#000000" font-family="sans-serif" font-size="20" font-weight="bold" lengthAdjust="spacing" textLength="26" x="728.5" y="1271.5313">28</text><text fill="#000000" font-family="sans-serif" font-size="20" lengthAdjust="spacing" textLength="73" x="758.5" y="1271.5313">success</text><line style="stroke:#181818;stroke-width:1.0;" x1="711.5" x2="758.5" y1="1310.3047" y2="1310.3047"/><line style="stroke:#181818;stroke-width:1.0;" x1="758.5" x2="758.5" y1="1310.3047" y2="1323.3047"/><line style="stroke:#181818;stroke-width:1.0;" x1="717.5" x2="758.5" y1="1323.3047" y2="1323.3047"/><polygon fill="#181818" points="727.5,1319.3047,717.5,1323.3047,727.5,1327.3047,723.5,1323.3047" style="stroke:#181818;stroke-width:1.0;"/><text fill="#000000" font-family="sans-serif" font-size="20" font-weight="bold" lengthAdjust="spacing" textLength="26" x="723.5" y="1304.0859">29</text><text fill="#000000" font-family="sans-serif" font-size="20" lengthAdjust="spacing" textLength="239" x="753.5" y="1304.0859">displaySuccessMessage()</text><polygon fill="#181818" points="127.5,1361.8594,117.5,1365.8594,127.5,1369.8594,123.5,1365.8594" style="stroke:#181818;stroke-width:1.0;"/><line style="stroke:#181818;stroke-width:1.0;stroke-dasharray:2.0,2.0;" x1="121.5" x2="700.5" y1="1365.8594" y2="1365.8594"/><text fill="#000000" font-family="sans-serif" font-size="20" font-weight="bold" lengthAdjust="spacing" textLength="26" x="133.5" y="1359.6406">30</text><text fill="#000000" font-family="sans-serif" font-size="20" lengthAdjust="spacing" textLength="261" x="163.5" y="1359.6406">operation success message</text><line style="stroke:#181818;stroke-width:1.0;" x1="711.5" x2="758.5" y1="1398.4141" y2="1398.4141"/><line style="stroke:#181818;stroke-width:1.0;" x1="758.5" x2="758.5" y1="1398.4141" y2="1411.4141"/><line style="stroke:#181818;stroke-width:1.0;" x1="717.5" x2="758.5" y1="1411.4141" y2="1411.4141"/><polygon fill="#181818" points="727.5,1407.4141,717.5,1411.4141,727.5,1415.4141,723.5,1411.4141" style="stroke:#181818;stroke-width:1.0;"/><text fill="#000000" font-family="sans-serif" font-size="20" font-weight="bold" lengthAdjust="spacing" textLength="26" x="723.5" y="1392.1953">31</text><text fill="#000000" font-family="sans-serif" font-size="20" lengthAdjust="spacing" textLength="476" x="753.5" y="1392.1953">sendPasswordByEmail(email, generatedPassword)</text><polygon fill="#181818" points="122.5,1449.9688,112.5,1453.9688,122.5,1457.9688,118.5,1453.9688" style="stroke:#181818;stroke-width:1.0;"/><line style="stroke:#181818;stroke-width:1.0;stroke-dasharray:2.0,2.0;" x1="116.5" x2="700.5" y1="1453.9688" y2="1453.9688"/><text fill="#000000" font-family="sans-serif" font-size="20" font-weight="bold" lengthAdjust="spacing" textLength="26" x="128.5" y="1447.75">32</text><text fill="#000000" font-family="sans-serif" font-size="20" lengthAdjust="spacing" textLength="372" x="158.5" y="1447.75">password sent to the employee's email</text><!--SRC=[xLOzRzim4DtrAuWiTG4RA3fc292wAM0WBO8usR9SnRDCc29L7crN_VKzYP95VIHECdJgHb7llNkyEvv4EsKAS91hc-vG2eaRs6l_pHg_LdzGVFwKK0iHkJKstJgRe_1kZz6R0j8TPBZsfKRXCFLWCXq3Q0lI7fN9n0OqOPB0tbkppt-YutNghHCNwv8yvk9QvieeyWvuzq802IgftanOowjK5M2ykBYynunXw6xoGjiIyN5LenzNPt1BFfopMcDGNpxStuuOXIN5uHLIZJbjb6jLdOozzoakOZoPiS3TxVN38CXrXYOjRzbQfrvZmujgSy1e3p30nzjrCjK1F7PPIzgLM5nnTiGbL-ZN7icJy9RN8Ji2XC6Zm4Qiq-5y9inQCFaa54jikUAMosutzRed8h4dCp9IE7jG4i-eZAnSrKLZVeQ-pXQdUVQnmzKbJMeCOoUA5wWhGzoeASRKgKedKmgBnaMLYgxOyOadfLfJLKC45mz0koNZCmPsbDXJtJn9pUYY-abQ73_Gse1TLpLvqtegTL7p9H5bqUKSJdqR1ujv8MHRusbyAD6uhsXhZw4TD3EgTe36vTbc8jGyUG8v11KR7bOdiJUrj84SvppNY0hhl4Z1IH7crPnJ_xjTFncGqY7HdDiLb1QdnvId30SKdbqLMskmeRpjJXXCMGrSAIHuUE4ckC6GcrMtQJuunf9FyQCxHBiS7cBUcMuX8RSeGvd_NxKNhreya3bmwf0n_xem_Qz2pzBOuW6quWR3hznairUAFAkYhBb7uh-8E4DliiDdGVxyunsdvsYTVB-bLacsKk_sH73eQlXwFytrf7rQNUJde_TdvWIy6vWDHYegD9Jh0FrUZOcivsnwojcYIWZNg0qYya0T3gOe5A4v9V1BULErugnfo562pnee6c2bwgi_a6hEjT_w3nGwVMWcUZpzr_m5]--></g></svg>