<?xml version="1.0" encoding="UTF-8" standalone="no"?><svg xmlns="http://www.w3.org/2000/svg" xmlns:xlink="http://www.w3.org/1999/xlink" contentStyleType="text/css" height="1492px" preserveAspectRatio="none" style="width:2137px;height:1492px;background:#FFFFFF;" version="1.1" viewBox="0 0 2137 1492" width="2137px" zoomAndPan="magnify"><defs/><g><!--class Employee--><g id="elem_Employee"><rect codeLine="8" fill="#F1F1F1" height="120.6641" id="Employee" rx="2.5" ry="2.5" style="stroke:#181818;stroke-width:0.5;" width="297" x="741" y="1112"/><ellipse cx="838.5" cy="1129" fill="#C2C2C2" rx="12" ry="12" style="stroke:#181818;stroke-width:1.0;"/><path d="M841.3066,1136.0801 Q840.623,1136.4316 839.8711,1136.6074 Q839.1191,1136.7832 838.2891,1136.7832 Q835.3398,1136.7832 833.7871,1134.8398 Q832.2344,1132.8965 832.2344,1129.2246 Q832.2344,1125.543 833.7871,1123.5996 Q835.3398,1121.6563 838.2891,1121.6563 Q839.1191,1121.6563 839.8809,1121.832 Q840.6426,1122.0078 841.3066,1122.3594 L841.3066,1125.5625 Q840.5645,1124.8789 839.8662,1124.5615 Q839.168,1124.2441 838.4258,1124.2441 Q836.8438,1124.2441 836.0381,1125.499 Q835.2324,1126.7539 835.2324,1129.2246 Q835.2324,1131.6855 836.0381,1132.9404 Q836.8438,1134.1953 838.4258,1134.1953 Q839.168,1134.1953 839.8662,1133.8779 Q840.5645,1133.5605 841.3066,1132.877 Z " fill="#000000"/><text fill="#000000" font-family="sans-serif" font-size="20" lengthAdjust="spacing" textLength="93" x="860.5" y="1136.5586">Employee</text><line style="stroke:#181818;stroke-width:0.5;" x1="742" x2="1037" y1="1146" y2="1146"/><text fill="#000000" font-family="sans-serif" font-size="20" lengthAdjust="spacing" textLength="125" x="747" y="1169.3359">extends User</text><line style="stroke:#181818;stroke-width:0.5;" x1="742" x2="1037" y1="1177.5547" y2="1177.5547"/><text fill="#000000" font-family="sans-serif" font-size="20" lengthAdjust="spacing" textLength="253" x="747" y="1200.8906">+addRole(role: Role): void</text><text fill="#000000" font-family="sans-serif" font-size="20" lengthAdjust="spacing" textLength="285" x="747" y="1224.4453">+hasRole(role: Role): boolean</text></g><!--class EmployeeRepository--><g id="elem_EmployeeRepository"><rect codeLine="14" fill="#F1F1F1" height="97.1094" id="EmployeeRepository" rx="2.5" ry="2.5" style="stroke:#181818;stroke-width:0.5;" width="459" x="660" y="654"/><ellipse cx="787.5" cy="671" fill="#C2C2C2" rx="12" ry="12" style="stroke:#181818;stroke-width:1.0;"/><path d="M790.3066,678.0801 Q789.623,678.4316 788.8711,678.6074 Q788.1191,678.7832 787.2891,678.7832 Q784.3398,678.7832 782.7871,676.8398 Q781.2344,674.8965 781.2344,671.2246 Q781.2344,667.543 782.7871,665.5996 Q784.3398,663.6563 787.2891,663.6563 Q788.1191,663.6563 788.8809,663.832 Q789.6426,664.0078 790.3066,664.3594 L790.3066,667.5625 Q789.5645,666.8789 788.8662,666.5615 Q788.168,666.2441 787.4258,666.2441 Q785.8438,666.2441 785.0381,667.499 Q784.2324,668.7539 784.2324,671.2246 Q784.2324,673.6855 785.0381,674.9404 Q785.8438,676.1953 787.4258,676.1953 Q788.168,676.1953 788.8662,675.8779 Q789.5645,675.5605 790.3066,674.877 Z " fill="#000000"/><text fill="#000000" font-family="sans-serif" font-size="20" lengthAdjust="spacing" textLength="195" x="809.5" y="678.5586">EmployeeRepository</text><line style="stroke:#181818;stroke-width:0.5;" x1="661" x2="1118" y1="688" y2="688"/><text fill="#000000" font-family="sans-serif" font-size="20" lengthAdjust="spacing" textLength="361" x="666" y="711.3359">-employeeList: ArrayList&lt;Employee&gt;</text><line style="stroke:#181818;stroke-width:0.5;" x1="661" x2="1118" y1="719.5547" y2="719.5547"/><text fill="#000000" font-family="sans-serif" font-size="20" lengthAdjust="spacing" textLength="447" x="666" y="742.8906">+addEmployee(employee: Employee): boolean</text></g><!--class AgencyRepository--><g id="elem_AgencyRepository"><rect codeLine="19" fill="#F1F1F1" height="97.1094" id="AgencyRepository" rx="2.5" ry="2.5" style="stroke:#181818;stroke-width:0.5;" width="305" x="320" y="654"/><ellipse cx="382.5" cy="671" fill="#C2C2C2" rx="12" ry="12" style="stroke:#181818;stroke-width:1.0;"/><path d="M385.3066,678.0801 Q384.623,678.4316 383.8711,678.6074 Q383.1191,678.7832 382.2891,678.7832 Q379.3398,678.7832 377.7871,676.8398 Q376.2344,674.8965 376.2344,671.2246 Q376.2344,667.543 377.7871,665.5996 Q379.3398,663.6563 382.2891,663.6563 Q383.1191,663.6563 383.8809,663.832 Q384.6426,664.0078 385.3066,664.3594 L385.3066,667.5625 Q384.5645,666.8789 383.8662,666.5615 Q383.168,666.2441 382.4258,666.2441 Q380.8438,666.2441 380.0381,667.499 Q379.2324,668.7539 379.2324,671.2246 Q379.2324,673.6855 380.0381,674.9404 Q380.8438,676.1953 382.4258,676.1953 Q383.168,676.1953 383.8662,675.8779 Q384.5645,675.5605 385.3066,674.877 Z " fill="#000000"/><text fill="#000000" font-family="sans-serif" font-size="20" lengthAdjust="spacing" textLength="171" x="404.5" y="678.5586">AgencyRepository</text><line style="stroke:#181818;stroke-width:0.5;" x1="321" x2="624" y1="688" y2="688"/><text fill="#000000" font-family="sans-serif" font-size="20" lengthAdjust="spacing" textLength="242" x="326" y="711.3359">-agencies: List&lt;Agency&gt;</text><line style="stroke:#181818;stroke-width:0.5;" x1="321" x2="624" y1="719.5547" y2="719.5547"/><text fill="#000000" font-family="sans-serif" font-size="20" lengthAdjust="spacing" textLength="293" x="326" y="742.8906">+getAgencies(): List&lt;Agency&gt;</text></g><!--class RoleRepository--><g id="elem_RoleRepository"><rect codeLine="24" fill="#F1F1F1" height="97.1094" id="RoleRepository" rx="2.5" ry="2.5" style="stroke:#181818;stroke-width:0.5;" width="331" x="1576" y="654"/><ellipse cx="1665" cy="671" fill="#C2C2C2" rx="12" ry="12" style="stroke:#181818;stroke-width:1.0;"/><path d="M1667.8066,678.0801 Q1667.123,678.4316 1666.3711,678.6074 Q1665.6191,678.7832 1664.7891,678.7832 Q1661.8398,678.7832 1660.2871,676.8398 Q1658.7344,674.8965 1658.7344,671.2246 Q1658.7344,667.543 1660.2871,665.5996 Q1661.8398,663.6563 1664.7891,663.6563 Q1665.6191,663.6563 1666.3809,663.832 Q1667.1426,664.0078 1667.8066,664.3594 L1667.8066,667.5625 Q1667.0645,666.8789 1666.3662,666.5615 Q1665.668,666.2441 1664.9258,666.2441 Q1663.3438,666.2441 1662.5381,667.499 Q1661.7324,668.7539 1661.7324,671.2246 Q1661.7324,673.6855 1662.5381,674.9404 Q1663.3438,676.1953 1664.9258,676.1953 Q1665.668,676.1953 1666.3662,675.8779 Q1667.0645,675.5605 1667.8066,674.877 Z " fill="#000000"/><text fill="#000000" font-family="sans-serif" font-size="20" lengthAdjust="spacing" textLength="144" x="1687" y="678.5586">RoleRepository</text><line style="stroke:#181818;stroke-width:0.5;" x1="1577" x2="1906" y1="688" y2="688"/><text fill="#000000" font-family="sans-serif" font-size="20" lengthAdjust="spacing" textLength="179" x="1582" y="711.3359">-roles: List&lt;Role&gt;</text><line style="stroke:#181818;stroke-width:0.5;" x1="1577" x2="1906" y1="719.5547" y2="719.5547"/><text fill="#000000" font-family="sans-serif" font-size="20" lengthAdjust="spacing" textLength="319" x="1582" y="742.8906">+getRolesToCreate(): List&lt;Role&gt;</text></g><!--class AuthenticationRepository--><g id="elem_AuthenticationRepository"><rect codeLine="29" fill="#F1F1F1" height="73.5547" id="AuthenticationRepository" rx="2.5" ry="2.5" style="stroke:#181818;stroke-width:0.5;" width="386" x="1154.5" y="665.5"/><ellipse cx="1222.5" cy="682.5" fill="#C2C2C2" rx="12" ry="12" style="stroke:#181818;stroke-width:1.0;"/><path d="M1225.3066,689.5801 Q1224.623,689.9316 1223.8711,690.1074 Q1223.1191,690.2832 1222.2891,690.2832 Q1219.3398,690.2832 1217.7871,688.3398 Q1216.2344,686.3965 1216.2344,682.7246 Q1216.2344,679.043 1217.7871,677.0996 Q1219.3398,675.1563 1222.2891,675.1563 Q1223.1191,675.1563 1223.8809,675.332 Q1224.6426,675.5078 1225.3066,675.8594 L1225.3066,679.0625 Q1224.5645,678.3789 1223.8662,678.0615 Q1223.168,677.7441 1222.4258,677.7441 Q1220.8438,677.7441 1220.0381,678.999 Q1219.2324,680.2539 1219.2324,682.7246 Q1219.2324,685.1855 1220.0381,686.4404 Q1220.8438,687.6953 1222.4258,687.6953 Q1223.168,687.6953 1223.8662,687.3779 Q1224.5645,687.0605 1225.3066,686.377 Z " fill="#000000"/><text fill="#000000" font-family="sans-serif" font-size="20" lengthAdjust="spacing" textLength="241" x="1244.5" y="690.0586">AuthenticationRepository</text><line style="stroke:#181818;stroke-width:0.5;" x1="1155.5" x2="1539.5" y1="699.5" y2="699.5"/><line style="stroke:#181818;stroke-width:0.5;" x1="1155.5" x2="1539.5" y1="707.5" y2="707.5"/><text fill="#000000" font-family="sans-serif" font-size="20" lengthAdjust="spacing" textLength="374" x="1160.5" y="730.8359">+getCurrentUserSession(): UserSession</text></g><!--class Repositories--><g id="elem_Repositories"><rect codeLine="33" fill="#F1F1F1" height="167.7734" id="Repositories" rx="2.5" ry="2.5" style="stroke:#181818;stroke-width:0.5;" width="566" x="659.5" y="342"/><ellipse cx="878.5" cy="359" fill="#C2C2C2" rx="12" ry="12" style="stroke:#181818;stroke-width:1.0;"/><path d="M881.3066,366.0801 Q880.623,366.4316 879.8711,366.6074 Q879.1191,366.7832 878.2891,366.7832 Q875.3398,366.7832 873.7871,364.8398 Q872.2344,362.8965 872.2344,359.2246 Q872.2344,355.543 873.7871,353.5996 Q875.3398,351.6563 878.2891,351.6563 Q879.1191,351.6563 879.8809,351.832 Q880.6426,352.0078 881.3066,352.3594 L881.3066,355.5625 Q880.5645,354.8789 879.8662,354.5615 Q879.168,354.2441 878.4258,354.2441 Q876.8438,354.2441 876.0381,355.499 Q875.2324,356.7539 875.2324,359.2246 Q875.2324,361.6855 876.0381,362.9404 Q876.8438,364.1953 878.4258,364.1953 Q879.168,364.1953 879.8662,363.8779 Q880.5645,363.5605 881.3066,362.877 Z " fill="#000000"/><text fill="#000000" font-family="sans-serif" font-size="20" lengthAdjust="spacing" textLength="119" x="900.5" y="366.5586">Repositories</text><line style="stroke:#181818;stroke-width:0.5;" x1="660.5" x2="1224.5" y1="376" y2="376"/><line style="stroke:#181818;stroke-width:0.5;" x1="660.5" x2="1224.5" y1="384" y2="384"/><text fill="#000000" font-family="sans-serif" font-size="20" lengthAdjust="spacing" textLength="270" x="665.5" y="407.3359">+getInstance(): Repositories</text><text fill="#000000" font-family="sans-serif" font-size="20" lengthAdjust="spacing" textLength="554" x="665.5" y="430.8906">+getAuthenticationRepository(): AuthenticationRepository</text><text fill="#000000" font-family="sans-serif" font-size="20" lengthAdjust="spacing" textLength="432" x="665.5" y="454.4453">+EmployeeRepository(): EmployeeRepository</text><text fill="#000000" font-family="sans-serif" font-size="20" lengthAdjust="spacing" textLength="384" x="665.5" y="478">+AgencyRepository(): AgencyRepository</text><text fill="#000000" font-family="sans-serif" font-size="20" lengthAdjust="spacing" textLength="330" x="665.5" y="501.5547">+RoleRepository(): RoleRepository</text></g><!--class RegisterEmployeeController--><g id="elem_RegisterEmployeeController"><rect codeLine="41" fill="#F1F1F1" height="214.8828" id="RegisterEmployeeController" rx="2.5" ry="2.5" style="stroke:#181818;stroke-width:0.5;" width="1693" x="437" y="7"/><ellipse cx="1145.5" cy="24" fill="#C2C2C2" rx="12" ry="12" style="stroke:#181818;stroke-width:1.0;"/><path d="M1148.3066,31.0801 Q1147.623,31.4316 1146.8711,31.6074 Q1146.1191,31.7832 1145.2891,31.7832 Q1142.3398,31.7832 1140.7871,29.8398 Q1139.2344,27.8965 1139.2344,24.2246 Q1139.2344,20.543 1140.7871,18.5996 Q1142.3398,16.6563 1145.2891,16.6563 Q1146.1191,16.6563 1146.8809,16.832 Q1147.6426,17.0078 1148.3066,17.3594 L1148.3066,20.5625 Q1147.5645,19.8789 1146.8662,19.5615 Q1146.168,19.2441 1145.4258,19.2441 Q1143.8438,19.2441 1143.0381,20.499 Q1142.2324,21.7539 1142.2324,24.2246 Q1142.2324,26.6855 1143.0381,27.9404 Q1143.8438,29.1953 1145.4258,29.1953 Q1146.168,29.1953 1146.8662,28.8779 Q1147.5645,28.5605 1148.3066,27.877 Z " fill="#000000"/><text fill="#000000" font-family="sans-serif" font-size="20" lengthAdjust="spacing" textLength="267" x="1167.5" y="31.5586">RegisterEmployeeController</text><line style="stroke:#181818;stroke-width:0.5;" x1="438" x2="2129" y1="41" y2="41"/><text fill="#000000" font-family="sans-serif" font-size="20" lengthAdjust="spacing" textLength="414" x="443" y="64.3359">-employeeRepository: EmployeeRepository</text><text fill="#000000" font-family="sans-serif" font-size="20" lengthAdjust="spacing" textLength="307" x="443" y="87.8906">-roleRepository: RoleRepository</text><text fill="#000000" font-family="sans-serif" font-size="20" lengthAdjust="spacing" textLength="394" x="443" y="111.4453">-passwordGenerator: PasswordGenerator</text><text fill="#000000" font-family="sans-serif" font-size="20" lengthAdjust="spacing" textLength="503" x="443" y="135">-authenticationRepository: AuthenticationRepository</text><line style="stroke:#181818;stroke-width:0.5;" x1="438" x2="2129" y1="143.2188" y2="143.2188"/><text fill="#000000" font-family="sans-serif" font-size="20" lengthAdjust="spacing" textLength="297" x="443" y="166.5547">+RegisterEmployeeController()</text><text fill="#000000" font-family="sans-serif" font-size="20" lengthAdjust="spacing" textLength="319" x="443" y="190.1094">+getRolesToCreate(): List&lt;Role&gt;</text><text fill="#000000" font-family="sans-serif" font-size="20" lengthAdjust="spacing" textLength="1681" x="443" y="213.6641">+registerEmployee(name: String, email: String, passportCardNumber: int, taxNumber: int,telephoneNumber: int, address: Address, agency: Agency, roles: Set&lt;Role&gt;): boolean</text></g><!--class PasswordGenerator--><g id="elem_PasswordGenerator"><rect codeLine="51" fill="#F1F1F1" height="285.5469" id="PasswordGenerator" rx="2.5" ry="2.5" style="stroke:#181818;stroke-width:0.5;" width="428" x="1521.5" y="283"/><ellipse cx="1639" cy="300" fill="#C2C2C2" rx="12" ry="12" style="stroke:#181818;stroke-width:1.0;"/><path d="M1641.8066,307.0801 Q1641.123,307.4316 1640.3711,307.6074 Q1639.6191,307.7832 1638.7891,307.7832 Q1635.8398,307.7832 1634.2871,305.8398 Q1632.7344,303.8965 1632.7344,300.2246 Q1632.7344,296.543 1634.2871,294.5996 Q1635.8398,292.6563 1638.7891,292.6563 Q1639.6191,292.6563 1640.3809,292.832 Q1641.1426,293.0078 1641.8066,293.3594 L1641.8066,296.5625 Q1641.0645,295.8789 1640.3662,295.5615 Q1639.668,295.2441 1638.9258,295.2441 Q1637.3438,295.2441 1636.5381,296.499 Q1635.7324,297.7539 1635.7324,300.2246 Q1635.7324,302.6855 1636.5381,303.9404 Q1637.3438,305.1953 1638.9258,305.1953 Q1639.668,305.1953 1640.3662,304.8779 Q1641.0645,304.5605 1641.8066,303.877 Z " fill="#000000"/><text fill="#000000" font-family="sans-serif" font-size="20" lengthAdjust="spacing" textLength="184" x="1661" y="307.5586">PasswordGenerator</text><line style="stroke:#181818;stroke-width:0.5;" x1="1522.5" x2="1948.5" y1="317" y2="317"/><text fill="#000000" font-family="sans-serif" font-size="20" lengthAdjust="spacing" textLength="240" x="1527.5" y="340.3359">PASSWORD_LENGTH : int</text><text fill="#000000" font-family="sans-serif" font-size="20" lengthAdjust="spacing" textLength="275" x="1527.5" y="363.8906">NUM_CAPITAL_LETTERS : int</text><text fill="#000000" font-family="sans-serif" font-size="20" lengthAdjust="spacing" textLength="164" x="1527.5" y="387.4453">NUM_DIGITS : int</text><text fill="#000000" font-family="sans-serif" font-size="20" lengthAdjust="spacing" textLength="250" x="1527.5" y="411">CAPITAL_LETTERS : String</text><text fill="#000000" font-family="sans-serif" font-size="20" lengthAdjust="spacing" textLength="139" x="1527.5" y="434.5547">DIGITS : String</text><text fill="#000000" font-family="sans-serif" font-size="20" lengthAdjust="spacing" textLength="285" x="1527.5" y="458.1094">LOWERCASE_LETTERS : String</text><text fill="#000000" font-family="sans-serif" font-size="20" lengthAdjust="spacing" textLength="236" x="1527.5" y="481.6641">random : SecureRandom</text><line style="stroke:#181818;stroke-width:0.5;" x1="1522.5" x2="1948.5" y1="489.8828" y2="489.8828"/><text fill="#000000" font-family="sans-serif" font-size="20" lengthAdjust="spacing" textLength="277" x="1527.5" y="513.2188">+generatePassword() : String</text><text fill="#000000" font-family="sans-serif" font-size="20" lengthAdjust="spacing" textLength="416" x="1527.5" y="536.7734">+randomCharacter(String characters) : char</text><text fill="#000000" font-family="sans-serif" font-size="20" lengthAdjust="spacing" textLength="337" x="1527.5" y="560.3281">+shuffleString(String input) : String</text></g><!--class Address--><g id="elem_Address"><rect codeLine="64" fill="#F1F1F1" height="167.7734" id="Address" rx="2.5" ry="2.5" style="stroke:#181818;stroke-width:0.5;" width="165" x="807" y="1318"/><ellipse cx="846.4" cy="1335" fill="#C2C2C2" rx="12" ry="12" style="stroke:#181818;stroke-width:1.0;"/><path d="M849.2066,1342.0801 Q848.523,1342.4316 847.7711,1342.6074 Q847.0191,1342.7832 846.1891,1342.7832 Q843.2398,1342.7832 841.6871,1340.8398 Q840.1344,1338.8965 840.1344,1335.2246 Q840.1344,1331.543 841.6871,1329.5996 Q843.2398,1327.6563 846.1891,1327.6563 Q847.0191,1327.6563 847.7809,1327.832 Q848.5426,1328.0078 849.2066,1328.3594 L849.2066,1331.5625 Q848.4645,1330.8789 847.7662,1330.5615 Q847.068,1330.2441 846.3258,1330.2441 Q844.7438,1330.2441 843.9381,1331.499 Q843.1324,1332.7539 843.1324,1335.2246 Q843.1324,1337.6855 843.9381,1338.9404 Q844.7438,1340.1953 846.3258,1340.1953 Q847.068,1340.1953 847.7662,1339.8779 Q848.4645,1339.5605 849.2066,1338.877 Z " fill="#000000"/><text fill="#000000" font-family="sans-serif" font-size="20" lengthAdjust="spacing" textLength="79" x="866.6" y="1342.5586">Address</text><line style="stroke:#181818;stroke-width:0.5;" x1="808" x2="971" y1="1352" y2="1352"/><text fill="#000000" font-family="sans-serif" font-size="20" lengthAdjust="spacing" textLength="140" x="813" y="1375.3359">-street : String</text><text fill="#000000" font-family="sans-serif" font-size="20" lengthAdjust="spacing" textLength="119" x="813" y="1398.8906">-city : String</text><text fill="#000000" font-family="sans-serif" font-size="20" lengthAdjust="spacing" textLength="153" x="813" y="1422.4453">-district : String</text><text fill="#000000" font-family="sans-serif" font-size="20" lengthAdjust="spacing" textLength="132" x="813" y="1446">-state : String</text><text fill="#000000" font-family="sans-serif" font-size="20" lengthAdjust="spacing" textLength="135" x="813" y="1469.5547">-zipCode : int</text><line style="stroke:#181818;stroke-width:0.5;" x1="808" x2="971" y1="1477.7734" y2="1477.7734"/></g><!--class Role--><g id="elem_Role"><rect codeLine="72" fill="#F1F1F1" height="167.7734" id="Role" rx="2.5" ry="2.5" style="stroke:#181818;stroke-width:0.5;" width="304" x="1298.5" y="1318"/><ellipse cx="1425" cy="1335" fill="#ABABAB" rx="12" ry="12" style="stroke:#181818;stroke-width:1.0;"/><path d="M1429.7227,1342.5 L1420.6406,1342.5 L1420.6406,1327.9199 L1429.7227,1327.9199 L1429.7227,1330.459 L1423.5215,1330.459 L1423.5215,1333.6035 L1429.1367,1333.6035 L1429.1367,1336.1426 L1423.5215,1336.1426 L1423.5215,1339.9609 L1429.7227,1339.9609 Z " fill="#000000"/><text fill="#000000" font-family="sans-serif" font-size="20" lengthAdjust="spacing" textLength="42" x="1447" y="1342.5586">Role</text><line style="stroke:#181818;stroke-width:0.5;" x1="1299.5" x2="1601.5" y1="1352" y2="1352"/><text fill="#000000" font-family="sans-serif" font-size="20" lengthAdjust="spacing" textLength="79" x="1304.5" y="1375.3359">-ADMIN</text><text fill="#000000" font-family="sans-serif" font-size="20" lengthAdjust="spacing" textLength="79" x="1304.5" y="1398.8906">-AGENT</text><text fill="#000000" font-family="sans-serif" font-size="20" lengthAdjust="spacing" textLength="292" x="1304.5" y="1422.4453">-STORE_NETWORK_MANAGER</text><text fill="#000000" font-family="sans-serif" font-size="20" lengthAdjust="spacing" textLength="184" x="1304.5" y="1446">-STORE_MANAGER</text><text fill="#000000" font-family="sans-serif" font-size="20" lengthAdjust="spacing" textLength="82" x="1304.5" y="1469.5547">-CLIENT</text><line style="stroke:#181818;stroke-width:0.5;" x1="1299.5" x2="1601.5" y1="1477.7734" y2="1477.7734"/></g><!--class Agency--><g id="elem_Agency"><rect codeLine="80" fill="#F1F1F1" height="191.3281" id="Agency" rx="2.5" ry="2.5" style="stroke:#181818;stroke-width:0.5;" width="309" x="462" y="836"/><ellipse cx="577.5" cy="853" fill="#C2C2C2" rx="12" ry="12" style="stroke:#181818;stroke-width:1.0;"/><path d="M580.3066,860.0801 Q579.623,860.4316 578.8711,860.6074 Q578.1191,860.7832 577.2891,860.7832 Q574.3398,860.7832 572.7871,858.8398 Q571.2344,856.8965 571.2344,853.2246 Q571.2344,849.543 572.7871,847.5996 Q574.3398,845.6563 577.2891,845.6563 Q578.1191,845.6563 578.8809,845.832 Q579.6426,846.0078 580.3066,846.3594 L580.3066,849.5625 Q579.5645,848.8789 578.8662,848.5615 Q578.168,848.2441 577.4258,848.2441 Q575.8438,848.2441 575.0381,849.499 Q574.2324,850.7539 574.2324,853.2246 Q574.2324,855.6855 575.0381,856.9404 Q575.8438,858.1953 577.4258,858.1953 Q578.168,858.1953 578.8662,857.8779 Q579.5645,857.5605 580.3066,856.877 Z " fill="#000000"/><text fill="#000000" font-family="sans-serif" font-size="20" lengthAdjust="spacing" textLength="69" x="599.5" y="860.5586">Agency</text><line style="stroke:#181818;stroke-width:0.5;" x1="463" x2="770" y1="870" y2="870"/><text fill="#000000" font-family="sans-serif" font-size="20" lengthAdjust="spacing" textLength="68" x="468" y="893.3359">-id: int</text><text fill="#000000" font-family="sans-serif" font-size="20" lengthAdjust="spacing" textLength="133" x="468" y="916.8906">-name: String</text><text fill="#000000" font-family="sans-serif" font-size="20" lengthAdjust="spacing" textLength="212" x="468" y="940.4453">-emailAddress: String</text><text fill="#000000" font-family="sans-serif" font-size="20" lengthAdjust="spacing" textLength="187" x="468" y="964">-phoneNumber: int</text><text fill="#000000" font-family="sans-serif" font-size="20" lengthAdjust="spacing" textLength="179" x="468" y="987.5547">-address: Address</text><text fill="#000000" font-family="sans-serif" font-size="20" lengthAdjust="spacing" textLength="297" x="468" y="1011.1094">-agents: ArrayList&lt;Employee&gt;</text><line style="stroke:#181818;stroke-width:0.5;" x1="463" x2="770" y1="1019.3281" y2="1019.3281"/></g><!--class RegisterEmployeeUI--><g id="elem_RegisterEmployeeUI"><rect codeLine="89" fill="#F1F1F1" height="97.1094" id="RegisterEmployeeUI" rx="2.5" ry="2.5" style="stroke:#181818;stroke-width:0.5;" width="395" x="7" y="66"/><ellipse cx="104.5" cy="83" fill="#C2C2C2" rx="12" ry="12" style="stroke:#181818;stroke-width:1.0;"/><path d="M107.3066,90.0801 Q106.623,90.4316 105.8711,90.6074 Q105.1191,90.7832 104.2891,90.7832 Q101.3398,90.7832 99.7871,88.8398 Q98.2344,86.8965 98.2344,83.2246 Q98.2344,79.543 99.7871,77.5996 Q101.3398,75.6563 104.2891,75.6563 Q105.1191,75.6563 105.8809,75.832 Q106.6426,76.0078 107.3066,76.3594 L107.3066,79.5625 Q106.5645,78.8789 105.8662,78.5615 Q105.168,78.2441 104.4258,78.2441 Q102.8438,78.2441 102.0381,79.499 Q101.2324,80.7539 101.2324,83.2246 Q101.2324,85.6855 102.0381,86.9404 Q102.8438,88.1953 104.4258,88.1953 Q105.168,88.1953 105.8662,87.8779 Q106.5645,87.5605 107.3066,86.877 Z " fill="#000000"/><text fill="#000000" font-family="sans-serif" font-size="20" lengthAdjust="spacing" textLength="191" x="126.5" y="90.5586">RegisterEmployeeUI</text><line style="stroke:#181818;stroke-width:0.5;" x1="8" x2="401" y1="100" y2="100"/><text fill="#000000" font-family="sans-serif" font-size="20" lengthAdjust="spacing" textLength="383" x="13" y="123.3359">-controller: RegisterEmployeeController</text><line style="stroke:#181818;stroke-width:0.5;" x1="8" x2="401" y1="131.5547" y2="131.5547"/><text fill="#000000" font-family="sans-serif" font-size="20" lengthAdjust="spacing" textLength="62" x="13" y="154.8906">+run()</text></g><!--link Repositories to Repositories--><g id="link_Repositories_Repositories"><path codeLine="94" d="M1225.97,401.67 C1247.35,407.09 1260.5,415.2 1260.5,426 C1260.5,435.7 1249.89,443.24 1232.23,448.6 " fill="none" id="Repositories-to-Repositories" style="stroke:#181818;stroke-width:1.0;"/><polygon fill="#181818" points="1227.43,449.93,1237.1738,451.3648,1232.2462,448.5866,1235.0244,443.659,1227.43,449.93" style="stroke:#181818;stroke-width:1.0;"/><text fill="#000000" font-family="sans-serif" font-size="20" lengthAdjust="spacing" textLength="89" x="1266.5" y="433.8359">instances</text></g><!--link RegisterEmployeeUI to RegisterEmployeeController--><g id="link_RegisterEmployeeUI_RegisterEmployeeController"><path codeLine="95" d="M402.33,114.5 C411.66,114.5 420.98,114.5 430.3,114.5 " fill="none" id="RegisterEmployeeUI-to-RegisterEmployeeController" style="stroke:#181818;stroke-width:1.0;stroke-dasharray:7.0,7.0;"/><polygon fill="#181818" points="435.24,114.5,426.24,110.5,430.24,114.5,426.24,118.5,435.24,114.5" style="stroke:#181818;stroke-width:1.0;"/></g><!--link RegisterEmployeeController to Repositories--><g id="link_RegisterEmployeeController_Repositories"><path codeLine="96" d="M1165.67,222.45 C1124.32,259.97 1078.4,301.66 1039.01,337.41 " fill="none" id="RegisterEmployeeController-to-Repositories" style="stroke:#181818;stroke-width:1.0;stroke-dasharray:7.0,7.0;"/><polygon fill="#181818" points="1035.36,340.72,1044.7125,337.6329,1039.0623,337.3595,1039.3357,331.7092,1035.36,340.72" style="stroke:#181818;stroke-width:1.0;"/></g><!--link Repositories to AuthenticationRepository--><g id="link_Repositories_AuthenticationRepository"><path codeLine="97" d="M1043.06,510.49 C1089.36,547.24 1145.84,589.74 1199.5,624 C1220.57,637.45 1244.23,650.63 1266.35,662.2 " fill="none" id="Repositories-to-AuthenticationRepository" style="stroke:#181818;stroke-width:1.0;"/><polygon fill="#181818" points="1270.59,664.4,1264.4465,656.7021,1266.1527,662.0955,1260.7593,663.8017,1270.59,664.4" style="stroke:#181818;stroke-width:1.0;"/><text fill="#000000" font-family="sans-serif" font-size="20" lengthAdjust="spacing" textLength="33" x="1200.5" y="619.3359">has</text><text fill="#000000" font-family="sans-serif" font-size="20" lengthAdjust="spacing" textLength="13" x="1037.2615" y="537.2051">1</text><text fill="#000000" font-family="sans-serif" font-size="20" lengthAdjust="spacing" textLength="13" x="1245.3488" y="653.4197">1</text></g><!--link Repositories to EmployeeRepository--><g id="link_Repositories_EmployeeRepository"><path codeLine="98" d="M926.38,510.48 C917.8,554.94 907.48,608.36 899.95,647.38 " fill="none" id="Repositories-to-EmployeeRepository" style="stroke:#181818;stroke-width:1.0;"/><polygon fill="#181818" points="899.05,652.03,904.6968,643.9607,900.0059,647.1222,896.8444,642.4313,899.05,652.03" style="stroke:#181818;stroke-width:1.0;"/><text fill="#000000" font-family="sans-serif" font-size="20" lengthAdjust="spacing" textLength="33" x="909.5" y="619.3359">has</text><text fill="#000000" font-family="sans-serif" font-size="20" lengthAdjust="spacing" textLength="13" x="911.6482" y="537.1943">1</text><text fill="#000000" font-family="sans-serif" font-size="20" lengthAdjust="spacing" textLength="13" x="886.1309" y="641.7589">1</text></g><!--link Repositories to AgencyRepository--><g id="link_Repositories_AgencyRepository"><path codeLine="99" d="M799.57,510.48 C721.55,556.04 627.45,611 560.25,650.25 " fill="none" id="Repositories-to-AgencyRepository" style="stroke:#181818;stroke-width:1.0;"/><polygon fill="#181818" points="555.96,652.76,565.7488,651.6743,560.2773,650.238,561.7136,644.7665,555.96,652.76" style="stroke:#181818;stroke-width:1.0;"/><text fill="#000000" font-family="sans-serif" font-size="20" lengthAdjust="spacing" textLength="33" x="639.5" y="619.3359">has</text><text fill="#000000" font-family="sans-serif" font-size="20" lengthAdjust="spacing" textLength="13" x="775.1293" y="537.1943">1</text><text fill="#000000" font-family="sans-serif" font-size="20" lengthAdjust="spacing" textLength="13" x="551.8155" y="641.7589">1</text></g><!--link Repositories to RoleRepository--><g id="link_Repositories_RoleRepository"><path codeLine="100" d="M1116,510.45 C1202.12,549.28 1308.64,593.52 1407.5,624 C1472.47,644.03 1491.23,638.83 1557.5,654 C1561.4,654.89 1565.35,655.81 1569.33,656.74 " fill="none" id="Repositories-to-RoleRepository" style="stroke:#181818;stroke-width:1.0;"/><polygon fill="#181818" points="1574.13,657.88,1566.2981,651.9083,1569.2654,656.7245,1564.4492,659.6918,1574.13,657.88" style="stroke:#181818;stroke-width:1.0;"/><text fill="#000000" font-family="sans-serif" font-size="20" lengthAdjust="spacing" textLength="33" x="1408.5" y="619.3359">has</text><text fill="#000000" font-family="sans-serif" font-size="20" lengthAdjust="spacing" textLength="13" x="1115.7859" y="537.162">1</text><text fill="#000000" font-family="sans-serif" font-size="20" lengthAdjust="spacing" textLength="13" x="1554.7986" y="652.0385">1</text></g><!--link RegisterEmployeeController to EmployeeRepository--><g id="link_RegisterEmployeeController_EmployeeRepository"><path codeLine="101" d="M741.53,222.37 C695.61,240.22 659.71,260.41 641.5,283 C546.33,401.09 537.8,502.45 628.5,624 C635.86,633.87 651.04,642.93 670.55,651.11 " fill="none" id="RegisterEmployeeController-to-EmployeeRepository" style="stroke:#181818;stroke-width:1.0;stroke-dasharray:7.0,7.0;"/><polygon fill="#181818" points="675.05,652.93,668.2244,645.83,670.4195,651.0435,665.206,653.2387,675.05,652.93" style="stroke:#181818;stroke-width:1.0;"/></g><!--link RegisterEmployeeController to RoleRepository--><g id="link_RegisterEmployeeController_RoleRepository"><path codeLine="102" d="M1358.77,222.4 C1365.52,232.35 1372.18,242.33 1378.5,252 C1387.34,265.53 1390.44,268.47 1397.5,283 C1456.76,404.92 1415.25,466.1 1503.5,569 C1532.7,603.04 1572.92,630.05 1612,650.56 " fill="none" id="RegisterEmployeeController-to-RoleRepository" style="stroke:#181818;stroke-width:1.0;stroke-dasharray:7.0,7.0;"/><polygon fill="#181818" points="1616.41,652.84,1610.2564,645.1502,1611.9697,650.5413,1606.5786,652.2546,1616.41,652.84" style="stroke:#181818;stroke-width:1.0;"/></g><!--link RegisterEmployeeController to AgencyRepository--><g id="link_RegisterEmployeeController_AgencyRepository"><path codeLine="103" d="M667.3,222.4 C617.92,240.09 578.84,260.23 557.5,283 C463.29,383.55 461.07,558.67 466.93,647.1 " fill="none" id="RegisterEmployeeController-to-AgencyRepository" style="stroke:#181818;stroke-width:1.0;stroke-dasharray:7.0,7.0;"/><polygon fill="#181818" points="467.28,652.06,470.6267,642.7972,466.9227,647.0728,462.6472,643.3688,467.28,652.06" style="stroke:#181818;stroke-width:1.0;"/></g><!--link RegisterEmployeeController to AuthenticationRepository--><g id="link_RegisterEmployeeController_AuthenticationRepository"><path codeLine="104" d="M1340.69,222.27 C1349.07,241.98 1356.54,262.75 1361.5,283 C1394.92,419.55 1372.39,458.45 1375.5,599 C1375.75,610.11 1377.42,613.06 1375.5,624 C1373.46,635.65 1369.82,647.86 1365.82,659.05 " fill="none" id="RegisterEmployeeController-to-AuthenticationRepository" style="stroke:#181818;stroke-width:1.0;stroke-dasharray:7.0,7.0;"/><polygon fill="#181818" points="1364.09,663.74,1370.9577,656.6806,1365.8205,659.049,1363.4521,653.9118,1364.09,663.74" style="stroke:#181818;stroke-width:1.0;"/></g><!--link EmployeeRepository to Employee--><g id="link_EmployeeRepository_Employee"><path codeLine="105" d="M889.5,751.38 C889.5,835.42 889.5,1009.57 889.5,1105.15 " fill="none" id="EmployeeRepository-to-Employee" style="stroke:#181818;stroke-width:1.0;"/><polygon fill="#181818" points="889.5,1110.09,893.5,1101.09,889.5,1105.09,885.5,1101.09,889.5,1110.09" style="stroke:#181818;stroke-width:1.0;"/><text fill="#000000" font-family="sans-serif" font-size="20" lengthAdjust="spacing" textLength="33" x="890.5" y="939.3359">has</text><text fill="#000000" font-family="sans-serif" font-size="20" lengthAdjust="spacing" textLength="13" x="875.6672" y="778.4807">1</text><text fill="#000000" font-family="sans-serif" font-size="20" lengthAdjust="spacing" textLength="10" x="878.9219" y="1099.6273">*</text></g><!--link AgencyRepository to Agency--><g id="link_AgencyRepository_Agency"><path codeLine="106" d="M502.86,751.36 C517.48,774.41 535.59,802.96 553.03,830.44 " fill="none" id="AgencyRepository-to-Agency" style="stroke:#181818;stroke-width:1.0;"/><polygon fill="#181818" points="555.69,834.65,554.2499,824.907,553.013,830.427,547.4931,829.1901,555.69,834.65" style="stroke:#181818;stroke-width:1.0;"/><text fill="#000000" font-family="sans-serif" font-size="20" lengthAdjust="spacing" textLength="33" x="537.5" y="801.3359">has</text><text fill="#000000" font-family="sans-serif" font-size="20" lengthAdjust="spacing" textLength="13" x="492.9171" y="778.4581">1</text><text fill="#000000" font-family="sans-serif" font-size="20" lengthAdjust="spacing" textLength="10" x="541.3311" y="823.732">*</text></g><!--link RoleRepository to Role--><g id="link_RoleRepository_Role"><path codeLine="107" d="M1721.5,751.44 C1673.26,867.07 1549.91,1162.71 1487.65,1311.96 " fill="none" id="RoleRepository-to-Role" style="stroke:#181818;stroke-width:1.0;"/><polygon fill="#181818" points="1485.86,1316.24,1493.0034,1309.4598,1487.776,1311.6217,1485.6141,1306.3942,1485.86,1316.24" style="stroke:#181818;stroke-width:1.0;"/><text fill="#000000" font-family="sans-serif" font-size="20" lengthAdjust="spacing" textLength="33" x="1594.5" y="1077.3359">has</text><text fill="#000000" font-family="sans-serif" font-size="20" lengthAdjust="spacing" textLength="13" x="1705.1047" y="778.5483">1</text><text fill="#000000" font-family="sans-serif" font-size="20" lengthAdjust="spacing" textLength="10" x="1477.8392" y="1305.7715">*</text></g><!--link Employee to Address--><g id="link_Employee_Address"><path codeLine="108" d="M889.5,1233.27 C889.5,1257.16 889.5,1285.18 889.5,1311.41 " fill="none" id="Employee-to-Address" style="stroke:#181818;stroke-width:1.0;"/><polygon fill="#181818" points="889.5,1316.17,893.5,1307.17,889.5,1311.17,885.5,1307.17,889.5,1316.17" style="stroke:#181818;stroke-width:1.0;"/><text fill="#000000" font-family="sans-serif" font-size="20" lengthAdjust="spacing" textLength="33" x="890.5" y="1283.3359">has</text><text fill="#000000" font-family="sans-serif" font-size="20" lengthAdjust="spacing" textLength="13" x="875.8297" y="1260.1047">1</text><text fill="#000000" font-family="sans-serif" font-size="20" lengthAdjust="spacing" textLength="13" x="875.9414" y="1305.815">1</text></g><!--link Employee to Role--><g id="link_Employee_Role"><path codeLine="109" d="M1037.26,1233.42 C1115.88,1265.3 1212.59,1304.52 1292.68,1337 " fill="none" id="Employee-to-Role" style="stroke:#181818;stroke-width:1.0;"/><polygon fill="#181818" points="1297.01,1338.76,1290.1844,1331.66,1292.3795,1336.8735,1287.166,1339.0687,1297.01,1338.76" style="stroke:#181818;stroke-width:1.0;"/><text fill="#000000" font-family="sans-serif" font-size="20" lengthAdjust="spacing" textLength="33" x="1171.5" y="1283.3359">has</text><text fill="#000000" font-family="sans-serif" font-size="20" lengthAdjust="spacing" textLength="13" x="1038.1653" y="1259.9286">1</text><text fill="#000000" font-family="sans-serif" font-size="20" lengthAdjust="spacing" textLength="13" x="1277.7283" y="1332.0922">1</text></g><!--link Agency to Employee--><g id="link_Agency_Employee"><path codeLine="110" d="M724.79,1027.3 C755.47,1054.16 788.13,1082.76 816.22,1107.34 " fill="none" id="Agency-to-Employee" style="stroke:#181818;stroke-width:1.0;"/><polygon fill="#181818" points="819.91,1110.57,815.7708,1101.6332,816.1471,1107.2775,810.5028,1107.6538,819.91,1110.57" style="stroke:#181818;stroke-width:1.0;"/><text fill="#000000" font-family="sans-serif" font-size="20" lengthAdjust="spacing" textLength="33" x="786.5" y="1077.3359">has</text><text fill="#000000" font-family="sans-serif" font-size="20" lengthAdjust="spacing" textLength="13" x="719.2652" y="1054.5241">1</text><text fill="#000000" font-family="sans-serif" font-size="20" lengthAdjust="spacing" textLength="10" x="802.5462" y="1099.5827">*</text></g><!--link RegisterEmployeeController to PasswordGenerator--><g id="link_RegisterEmployeeController_PasswordGenerator"><path codeLine="111" d="M1450.43,222.42 C1465.39,232.33 1480.26,242.29 1494.5,252 C1507.27,260.71 1520.36,269.75 1533.52,278.94 " fill="none" id="RegisterEmployeeController-to-PasswordGenerator" style="stroke:#181818;stroke-width:1.0;stroke-dasharray:7.0,7.0;"/><polygon fill="#181818" points="1537.53,281.73,1532.4527,273.2907,1533.4345,278.8617,1527.8635,279.8435,1537.53,281.73" style="stroke:#181818;stroke-width:1.0;"/></g><!--SRC=[XLLBR-8m4BxdLrWzqGMgxXxHgbAKicoqb5OaLO_8JGQmcjYHxMoRLllVTvp4a1TmWNY-p_FoFDGRuncLD4r4z0OnYM5ByqJ_4bm7x1F8Zrj7MGf91HVHNeeKY9OvD92CHczq1u4k4Y0I8atvBcaIr9x6uftn7TdIH3MHX77GHGOa4qbX3aEOa5eqv552bNArbkmrr-17WfVEtZfEYP1vcYMY021V3dneuB4YpmgaCoOqZjSYWP74dnandzSpybUm6B4zLNtiLU0_vSw_hkurP48nBMI1LgO4Ql6IAJqZhfIqC9y_BVskCcwF8ykV7HGE6NDtmAEYOueQ8GCr8wM5YcFqxq2xDJQwxg07bIQkZa8JiDLcu5gN-LIXy2HG3GU55U7eOQxtm3MBg6Q27nL_EMDKuULI8cgI7u1Io31w6iU6N_OgUa-gspvNM4XHQRi9b-0fmuPy2dF6_TSp_BxK6NTJN-hjo9nnEvkbeor9CxuTfW-ajULXYs7Y4v0OBI5JwFamw1SoPSj2po8oCZJuBcIy00wIedH6dheYmwCdydGcWuICJqSokZRuXT91Xkne676QOYS4sD1yDy5UeYmv7aqq6Ku0ZyfubQUlWE4mhYT4qu_cMKC2sLvmQ96mwIJM6ePKVKog_YdiQqvi-GTGUpZKYBtqcJSZvCaDWfV7zVrcELyjmj-aj5aYg-U7ZUS- -Q6xH30Cv-kWWzxx2pzi2llqAWCbU60tPCl7b_dQSuFvy1L9UInI8uCebx0kZoM2JrI60JQiqNNxwhYww-rnt4RuKACA8v4LA7F1d2gwskVRRG8Lov9nMkUweVWuCwgNg58u9KfB0DrsO4eYfekkBCQgaIpgSN5CQEWAFrdcYHZg1ADnu7bQDeirxDu_-2lxlPYlmlex21_Nyyrg7kBJ_jayk2i4rosiBVEMlhdScThM2ekFJpmbpKglHMMvkxPCMr2td6jnjwQj6ErgDRnzJiwXPx_S0T6XYMTdHXKk1fdZ33VgMWDxUjSUuCRRQdWhPy3YpTqv8sT6vSrDsr3RYwllLsIAhfZ_KnCCNSD5V_hUm7w_SAEtf2_mEnlOii_6FB09BcMflHKki7kRxHB_r7uOIDyXzc_7xDPHzrBNv5QWpKyxQKsUWMhMGNthVQecEKTfgAYjdd7wGchwczRv3m00]--></g></svg>