<?xml version="1.0" encoding="UTF-8" standalone="no"?><svg xmlns="http://www.w3.org/2000/svg" xmlns:xlink="http://www.w3.org/1999/xlink" contentStyleType="text/css" height="1084px" preserveAspectRatio="none" style="width:1020px;height:1084px;background:#FFFFFF;" version="1.1" viewBox="0 0 1020 1084" width="1020px" zoomAndPan="magnify"><defs/><g><!--class RegisterEmployeeController--><g id="elem_RegisterEmployeeController"><rect codeLine="6" fill="#F1F1F1" height="97.1094" id="RegisterEmployeeController" rx="2.5" ry="2.5" style="stroke:#181818;stroke-width:0.5;" width="720" x="49.5" y="118"/><ellipse cx="271.5" cy="135" fill="#ADD1B2" rx="12" ry="12" style="stroke:#181818;stroke-width:1.0;"/><path d="M274.3066,142.0801 Q273.623,142.4316 272.8711,142.6074 Q272.1191,142.7832 271.2891,142.7832 Q268.3398,142.7832 266.7871,140.8398 Q265.2344,138.8965 265.2344,135.2246 Q265.2344,131.543 266.7871,129.5996 Q268.3398,127.6563 271.2891,127.6563 Q272.1191,127.6563 272.8809,127.832 Q273.6426,128.0078 274.3066,128.3594 L274.3066,131.5625 Q273.5645,130.8789 272.8662,130.5615 Q272.168,130.2441 271.4258,130.2441 Q269.8438,130.2441 269.0381,131.499 Q268.2324,132.7539 268.2324,135.2246 Q268.2324,137.6855 269.0381,138.9404 Q269.8438,140.1953 271.4258,140.1953 Q272.168,140.1953 272.8662,139.8779 Q273.5645,139.5605 274.3066,138.877 Z " fill="#000000"/><text fill="#000000" font-family="sans-serif" font-size="20" lengthAdjust="spacing" textLength="267" x="293.5" y="142.5586">RegisterEmployeeController</text><line style="stroke:#181818;stroke-width:0.5;" x1="50.5" x2="768.5" y1="152" y2="152"/><line style="stroke:#181818;stroke-width:0.5;" x1="50.5" x2="768.5" y1="160" y2="160"/><text fill="#000000" font-family="sans-serif" font-size="20" lengthAdjust="spacing" textLength="702" x="55.5" y="183.3359">+registerEmployee(role, name, passportCardNumber, taxNumber, email,</text><text fill="#000000" font-family="sans-serif" font-size="20" lengthAdjust="spacing" textLength="655" x="55.5" y="206.8906">telephoneNumber, doorNumber, zipCode, state, city, district, street)</text></g><!--class EmployeeRepository--><g id="elem_EmployeeRepository"><rect codeLine="10" fill="#F1F1F1" height="73.5547" id="EmployeeRepository" rx="2.5" ry="2.5" style="stroke:#181818;stroke-width:0.5;" width="265" x="277" y="615"/><ellipse cx="309.2" cy="632" fill="#ADD1B2" rx="12" ry="12" style="stroke:#181818;stroke-width:1.0;"/><path d="M312.0066,639.0801 Q311.323,639.4316 310.5711,639.6074 Q309.8191,639.7832 308.9891,639.7832 Q306.0398,639.7832 304.4871,637.8398 Q302.9344,635.8965 302.9344,632.2246 Q302.9344,628.543 304.4871,626.5996 Q306.0398,624.6563 308.9891,624.6563 Q309.8191,624.6563 310.5809,624.832 Q311.3426,625.0078 312.0066,625.3594 L312.0066,628.5625 Q311.2645,627.8789 310.5662,627.5615 Q309.868,627.2441 309.1258,627.2441 Q307.5438,627.2441 306.7381,628.499 Q305.9324,629.7539 305.9324,632.2246 Q305.9324,634.6855 306.7381,635.9404 Q307.5438,637.1953 309.1258,637.1953 Q309.868,637.1953 310.5662,636.8779 Q311.2645,636.5605 312.0066,635.877 Z " fill="#000000"/><text fill="#000000" font-family="sans-serif" font-size="20" lengthAdjust="spacing" textLength="195" x="327.8" y="639.5586">EmployeeRepository</text><line style="stroke:#181818;stroke-width:0.5;" x1="278" x2="541" y1="649" y2="649"/><line style="stroke:#181818;stroke-width:0.5;" x1="278" x2="541" y1="657" y2="657"/><text fill="#000000" font-family="sans-serif" font-size="20" lengthAdjust="spacing" textLength="253" x="283" y="680.3359">+addEmployee(employee)</text></g><!--class Repositories--><g id="elem_Repositories"><rect codeLine="14" fill="#F1F1F1" height="120.6641" id="Repositories" rx="2.5" ry="2.5" style="stroke:#181818;stroke-width:0.5;" width="480" x="169.5" y="362"/><ellipse cx="345.5" cy="379" fill="#ADD1B2" rx="12" ry="12" style="stroke:#181818;stroke-width:1.0;"/><path d="M348.3066,386.0801 Q347.623,386.4316 346.8711,386.6074 Q346.1191,386.7832 345.2891,386.7832 Q342.3398,386.7832 340.7871,384.8398 Q339.2344,382.8965 339.2344,379.2246 Q339.2344,375.543 340.7871,373.5996 Q342.3398,371.6563 345.2891,371.6563 Q346.1191,371.6563 346.8809,371.832 Q347.6426,372.0078 348.3066,372.3594 L348.3066,375.5625 Q347.5645,374.8789 346.8662,374.5615 Q346.168,374.2441 345.4258,374.2441 Q343.8438,374.2441 343.0381,375.499 Q342.2324,376.7539 342.2324,379.2246 Q342.2324,381.6855 343.0381,382.9404 Q343.8438,384.1953 345.4258,384.1953 Q346.168,384.1953 346.8662,383.8779 Q347.5645,383.5605 348.3066,382.877 Z " fill="#000000"/><text fill="#000000" font-family="sans-serif" font-size="20" lengthAdjust="spacing" textLength="119" x="367.5" y="386.5586">Repositories</text><line style="stroke:#181818;stroke-width:0.5;" x1="170.5" x2="648.5" y1="396" y2="396"/><line style="stroke:#181818;stroke-width:0.5;" x1="170.5" x2="648.5" y1="404" y2="404"/><text fill="#000000" font-family="sans-serif" font-size="20" lengthAdjust="spacing" textLength="145" x="175.5" y="427.3359">-Repositories()</text><text fill="#000000" font-family="sans-serif" font-size="20" lengthAdjust="spacing" textLength="276" x="175.5" y="450.8906">+getInstance() : Repositories</text><text fill="#000000" font-family="sans-serif" font-size="20" lengthAdjust="spacing" textLength="468" x="175.5" y="474.4453">+getEmployeeRepository() : EmployeeRepository</text></g><!--class RegisterEmployeeUI--><g id="elem_RegisterEmployeeUI"><rect codeLine="22" fill="#F1F1F1" height="50" id="RegisterEmployeeUI" rx="2.5" ry="2.5" style="stroke:#181818;stroke-width:0.5;" width="225" x="297" y="7"/><ellipse cx="313" cy="24" fill="#ADD1B2" rx="12" ry="12" style="stroke:#181818;stroke-width:1.0;"/><path d="M315.8066,31.0801 Q315.123,31.4316 314.3711,31.6074 Q313.6191,31.7832 312.7891,31.7832 Q309.8398,31.7832 308.2871,29.8398 Q306.7344,27.8965 306.7344,24.2246 Q306.7344,20.543 308.2871,18.5996 Q309.8398,16.6563 312.7891,16.6563 Q313.6191,16.6563 314.3809,16.832 Q315.1426,17.0078 315.8066,17.3594 L315.8066,20.5625 Q315.0645,19.8789 314.3662,19.5615 Q313.668,19.2441 312.9258,19.2441 Q311.3438,19.2441 310.5381,20.499 Q309.7324,21.7539 309.7324,24.2246 Q309.7324,26.6855 310.5381,27.9404 Q311.3438,29.1953 312.9258,29.1953 Q313.668,29.1953 314.3662,28.8779 Q315.0645,28.5605 315.8066,27.877 Z " fill="#000000"/><text fill="#000000" font-family="sans-serif" font-size="20" lengthAdjust="spacing" textLength="191" x="328" y="31.5586">RegisterEmployeeUI</text><line style="stroke:#181818;stroke-width:0.5;" x1="298" x2="521" y1="41" y2="41"/><line style="stroke:#181818;stroke-width:0.5;" x1="298" x2="521" y1="49" y2="49"/></g><!--class Employee--><g id="elem_Employee"><rect codeLine="44" fill="#F1F1F1" height="50" id="Employee" rx="2.5" ry="2.5" style="stroke:#181818;stroke-width:0.5;" width="127" x="346" y="856.5"/><ellipse cx="362" cy="873.5" fill="#ADD1B2" rx="12" ry="12" style="stroke:#181818;stroke-width:1.0;"/><path d="M364.8066,880.5801 Q364.123,880.9316 363.3711,881.1074 Q362.6191,881.2832 361.7891,881.2832 Q358.8398,881.2832 357.2871,879.3398 Q355.7344,877.3965 355.7344,873.7246 Q355.7344,870.043 357.2871,868.0996 Q358.8398,866.1563 361.7891,866.1563 Q362.6191,866.1563 363.3809,866.332 Q364.1426,866.5078 364.8066,866.8594 L364.8066,870.0625 Q364.0645,869.3789 363.3662,869.0615 Q362.668,868.7441 361.9258,868.7441 Q360.3438,868.7441 359.5381,869.999 Q358.7324,871.2539 358.7324,873.7246 Q358.7324,876.1855 359.5381,877.4404 Q360.3438,878.6953 361.9258,878.6953 Q362.668,878.6953 363.3662,878.3779 Q364.0645,878.0605 364.8066,877.377 Z " fill="#000000"/><text fill="#000000" font-family="sans-serif" font-size="20" lengthAdjust="spacing" textLength="93" x="377" y="881.0586">Employee</text><line style="stroke:#181818;stroke-width:0.5;" x1="347" x2="472" y1="890.5" y2="890.5"/><line style="stroke:#181818;stroke-width:0.5;" x1="347" x2="472" y1="898.5" y2="898.5"/></g><!--class SystemAdministrator--><g id="elem_SystemAdministrator"><rect codeLine="33" fill="#F1F1F1" height="50" id="SystemAdministrator" rx="2.5" ry="2.5" style="stroke:#181818;stroke-width:0.5;" width="235" x="7" y="627"/><ellipse cx="23" cy="644" fill="#ADD1B2" rx="12" ry="12" style="stroke:#181818;stroke-width:1.0;"/><path d="M25.8066,651.0801 Q25.123,651.4316 24.3711,651.6074 Q23.6191,651.7832 22.7891,651.7832 Q19.8398,651.7832 18.2871,649.8398 Q16.7344,647.8965 16.7344,644.2246 Q16.7344,640.543 18.2871,638.5996 Q19.8398,636.6563 22.7891,636.6563 Q23.6191,636.6563 24.3809,636.832 Q25.1426,637.0078 25.8066,637.3594 L25.8066,640.5625 Q25.0645,639.8789 24.3662,639.5615 Q23.668,639.2441 22.9258,639.2441 Q21.3438,639.2441 20.5381,640.499 Q19.7324,641.7539 19.7324,644.2246 Q19.7324,646.6855 20.5381,647.9404 Q21.3438,649.1953 22.9258,649.1953 Q23.668,649.1953 24.3662,648.8779 Q25.0645,648.5605 25.8066,647.877 Z " fill="#000000"/><text fill="#000000" font-family="sans-serif" font-size="20" lengthAdjust="spacing" textLength="201" x="38" y="651.5586">SystemAdministrator</text><line style="stroke:#181818;stroke-width:0.5;" x1="8" x2="241" y1="661" y2="661"/><line style="stroke:#181818;stroke-width:0.5;" x1="8" x2="241" y1="669" y2="669"/></g><!--class User--><g id="elem_User"><rect codeLine="36" fill="#F1F1F1" height="167.7734" id="User" rx="2.5" ry="2.5" style="stroke:#181818;stroke-width:0.5;" width="232" x="577.5" y="568"/><ellipse cx="667.5" cy="585" fill="#ADD1B2" rx="12" ry="12" style="stroke:#181818;stroke-width:1.0;"/><path d="M670.3066,592.0801 Q669.623,592.4316 668.8711,592.6074 Q668.1191,592.7832 667.2891,592.7832 Q664.3398,592.7832 662.7871,590.8398 Q661.2344,588.8965 661.2344,585.2246 Q661.2344,581.543 662.7871,579.5996 Q664.3398,577.6563 667.2891,577.6563 Q668.1191,577.6563 668.8809,577.832 Q669.6426,578.0078 670.3066,578.3594 L670.3066,581.5625 Q669.5645,580.8789 668.8662,580.5615 Q668.168,580.2441 667.4258,580.2441 Q665.8438,580.2441 665.0381,581.499 Q664.2324,582.7539 664.2324,585.2246 Q664.2324,587.6855 665.0381,588.9404 Q665.8438,590.1953 667.4258,590.1953 Q668.168,590.1953 668.8662,589.8779 Q669.5645,589.5605 670.3066,588.877 Z " fill="#000000"/><text fill="#000000" font-family="sans-serif" font-size="20" lengthAdjust="spacing" textLength="43" x="689.5" y="592.5586">User</text><line style="stroke:#181818;stroke-width:0.5;" x1="578.5" x2="808.5" y1="602" y2="602"/><text fill="#000000" font-family="sans-serif" font-size="20" lengthAdjust="spacing" textLength="65" x="583.5" y="625.3359">-name</text><text fill="#000000" font-family="sans-serif" font-size="20" lengthAdjust="spacing" textLength="220" x="583.5" y="648.8906">-passportCardNumber</text><text fill="#000000" font-family="sans-serif" font-size="20" lengthAdjust="spacing" textLength="120" x="583.5" y="672.4453">-taxNumber</text><text fill="#000000" font-family="sans-serif" font-size="20" lengthAdjust="spacing" textLength="65" x="583.5" y="696">-email</text><text fill="#000000" font-family="sans-serif" font-size="20" lengthAdjust="spacing" textLength="185" x="583.5" y="719.5547">-telephoneNumber</text><line style="stroke:#181818;stroke-width:0.5;" x1="578.5" x2="808.5" y1="727.7734" y2="727.7734"/></g><!--class Address--><g id="elem_Address"><rect codeLine="47" fill="#F1F1F1" height="97.1094" id="Address" rx="2.5" ry="2.5" style="stroke:#181818;stroke-width:0.5;" width="147" x="546" y="833"/><ellipse cx="577.3" cy="850" fill="#ADD1B2" rx="12" ry="12" style="stroke:#181818;stroke-width:1.0;"/><path d="M580.1066,857.0801 Q579.423,857.4316 578.6711,857.6074 Q577.9191,857.7832 577.0891,857.7832 Q574.1398,857.7832 572.5871,855.8398 Q571.0344,853.8965 571.0344,850.2246 Q571.0344,846.543 572.5871,844.5996 Q574.1398,842.6563 577.0891,842.6563 Q577.9191,842.6563 578.6809,842.832 Q579.4426,843.0078 580.1066,843.3594 L580.1066,846.5625 Q579.3645,845.8789 578.6662,845.5615 Q577.968,845.2441 577.2258,845.2441 Q575.6438,845.2441 574.8381,846.499 Q574.0324,847.7539 574.0324,850.2246 Q574.0324,852.6855 574.8381,853.9404 Q575.6438,855.1953 577.2258,855.1953 Q577.968,855.1953 578.6662,854.8779 Q579.3645,854.5605 580.1066,853.877 Z " fill="#000000"/><text fill="#000000" font-family="sans-serif" font-size="20" lengthAdjust="spacing" textLength="79" x="595.7" y="857.5586">Address</text><line style="stroke:#181818;stroke-width:0.5;" x1="547" x2="692" y1="867" y2="867"/><text fill="#000000" font-family="sans-serif" font-size="20" lengthAdjust="spacing" textLength="135" x="552" y="890.3359">-doorNumber</text><text fill="#000000" font-family="sans-serif" font-size="20" lengthAdjust="spacing" textLength="92" x="552" y="913.8906">-zipCode</text><line style="stroke:#181818;stroke-width:0.5;" x1="547" x2="692" y1="922.1094" y2="922.1094"/></g><!--class Street--><g id="elem_Street"><rect codeLine="52" fill="#F1F1F1" height="50" id="Street" rx="2.5" ry="2.5" style="stroke:#181818;stroke-width:0.5;" width="89" x="883" y="397.5"/><ellipse cx="899" cy="414.5" fill="#ADD1B2" rx="12" ry="12" style="stroke:#181818;stroke-width:1.0;"/><path d="M901.8066,421.5801 Q901.123,421.9316 900.3711,422.1074 Q899.6191,422.2832 898.7891,422.2832 Q895.8398,422.2832 894.2871,420.3398 Q892.7344,418.3965 892.7344,414.7246 Q892.7344,411.043 894.2871,409.0996 Q895.8398,407.1563 898.7891,407.1563 Q899.6191,407.1563 900.3809,407.332 Q901.1426,407.5078 901.8066,407.8594 L901.8066,411.0625 Q901.0645,410.3789 900.3662,410.0615 Q899.668,409.7441 898.9258,409.7441 Q897.3438,409.7441 896.5381,410.999 Q895.7324,412.2539 895.7324,414.7246 Q895.7324,417.1855 896.5381,418.4404 Q897.3438,419.6953 898.9258,419.6953 Q899.668,419.6953 900.3662,419.3779 Q901.0645,419.0605 901.8066,418.377 Z " fill="#000000"/><text fill="#000000" font-family="sans-serif" font-size="20" lengthAdjust="spacing" textLength="55" x="914" y="422.0586">Street</text><line style="stroke:#181818;stroke-width:0.5;" x1="884" x2="971" y1="431.5" y2="431.5"/><line style="stroke:#181818;stroke-width:0.5;" x1="884" x2="971" y1="439.5" y2="439.5"/></g><!--class City--><g id="elem_City"><rect codeLine="55" fill="#F1F1F1" height="50" id="City" rx="2.5" ry="2.5" style="stroke:#181818;stroke-width:0.5;" width="71" x="892" y="627"/><ellipse cx="908" cy="644" fill="#ADD1B2" rx="12" ry="12" style="stroke:#181818;stroke-width:1.0;"/><path d="M910.8066,651.0801 Q910.123,651.4316 909.3711,651.6074 Q908.6191,651.7832 907.7891,651.7832 Q904.8398,651.7832 903.2871,649.8398 Q901.7344,647.8965 901.7344,644.2246 Q901.7344,640.543 903.2871,638.5996 Q904.8398,636.6563 907.7891,636.6563 Q908.6191,636.6563 909.3809,636.832 Q910.1426,637.0078 910.8066,637.3594 L910.8066,640.5625 Q910.0645,639.8789 909.3662,639.5615 Q908.668,639.2441 907.9258,639.2441 Q906.3438,639.2441 905.5381,640.499 Q904.7324,641.7539 904.7324,644.2246 Q904.7324,646.6855 905.5381,647.9404 Q906.3438,649.1953 907.9258,649.1953 Q908.668,649.1953 909.3662,648.8779 Q910.0645,648.5605 910.8066,647.877 Z " fill="#000000"/><text fill="#000000" font-family="sans-serif" font-size="20" lengthAdjust="spacing" textLength="37" x="923" y="651.5586">City</text><line style="stroke:#181818;stroke-width:0.5;" x1="893" x2="962" y1="661" y2="661"/><line style="stroke:#181818;stroke-width:0.5;" x1="893" x2="962" y1="669" y2="669"/></g><!--class District--><g id="elem_District"><rect codeLine="58" fill="#F1F1F1" height="50" id="District" rx="2.5" ry="2.5" style="stroke:#181818;stroke-width:0.5;" width="103" x="876" y="856.5"/><ellipse cx="892" cy="873.5" fill="#ADD1B2" rx="12" ry="12" style="stroke:#181818;stroke-width:1.0;"/><path d="M894.8066,880.5801 Q894.123,880.9316 893.3711,881.1074 Q892.6191,881.2832 891.7891,881.2832 Q888.8398,881.2832 887.2871,879.3398 Q885.7344,877.3965 885.7344,873.7246 Q885.7344,870.043 887.2871,868.0996 Q888.8398,866.1563 891.7891,866.1563 Q892.6191,866.1563 893.3809,866.332 Q894.1426,866.5078 894.8066,866.8594 L894.8066,870.0625 Q894.0645,869.3789 893.3662,869.0615 Q892.668,868.7441 891.9258,868.7441 Q890.3438,868.7441 889.5381,869.999 Q888.7324,871.2539 888.7324,873.7246 Q888.7324,876.1855 889.5381,877.4404 Q890.3438,878.6953 891.9258,878.6953 Q892.668,878.6953 893.3662,878.3779 Q894.0645,878.0605 894.8066,877.377 Z " fill="#000000"/><text fill="#000000" font-family="sans-serif" font-size="20" lengthAdjust="spacing" textLength="69" x="907" y="881.0586">District</text><line style="stroke:#181818;stroke-width:0.5;" x1="877" x2="978" y1="890.5" y2="890.5"/><line style="stroke:#181818;stroke-width:0.5;" x1="877" x2="978" y1="898.5" y2="898.5"/></g><!--class State--><g id="elem_State"><rect codeLine="61" fill="#F1F1F1" height="50" id="State" rx="2.5" ry="2.5" style="stroke:#181818;stroke-width:0.5;" width="81" x="733" y="1027"/><ellipse cx="749" cy="1044" fill="#ADD1B2" rx="12" ry="12" style="stroke:#181818;stroke-width:1.0;"/><path d="M751.8066,1051.0801 Q751.123,1051.4316 750.3711,1051.6074 Q749.6191,1051.7832 748.7891,1051.7832 Q745.8398,1051.7832 744.2871,1049.8398 Q742.7344,1047.8965 742.7344,1044.2246 Q742.7344,1040.543 744.2871,1038.5996 Q745.8398,1036.6563 748.7891,1036.6563 Q749.6191,1036.6563 750.3809,1036.832 Q751.1426,1037.0078 751.8066,1037.3594 L751.8066,1040.5625 Q751.0645,1039.8789 750.3662,1039.5615 Q749.668,1039.2441 748.9258,1039.2441 Q747.3438,1039.2441 746.5381,1040.499 Q745.7324,1041.7539 745.7324,1044.2246 Q745.7324,1046.6855 746.5381,1047.9404 Q747.3438,1049.1953 748.9258,1049.1953 Q749.668,1049.1953 750.3662,1048.8779 Q751.0645,1048.5605 751.8066,1047.877 Z " fill="#000000"/><text fill="#000000" font-family="sans-serif" font-size="20" lengthAdjust="spacing" textLength="47" x="764" y="1051.5586">State</text><line style="stroke:#181818;stroke-width:0.5;" x1="734" x2="813" y1="1061" y2="1061"/><line style="stroke:#181818;stroke-width:0.5;" x1="734" x2="813" y1="1069" y2="1069"/></g><!--class Role--><g id="elem_Role"><rect codeLine="64" fill="#F1F1F1" height="120.6641" id="Role" rx="2.5" ry="2.5" style="stroke:#181818;stroke-width:0.5;" width="112" x="728.5" y="821"/><ellipse cx="760.7" cy="838" fill="#ADD1B2" rx="12" ry="12" style="stroke:#181818;stroke-width:1.0;"/><path d="M763.5066,845.0801 Q762.823,845.4316 762.0711,845.6074 Q761.3191,845.7832 760.4891,845.7832 Q757.5398,845.7832 755.9871,843.8398 Q754.4344,841.8965 754.4344,838.2246 Q754.4344,834.543 755.9871,832.5996 Q757.5398,830.6563 760.4891,830.6563 Q761.3191,830.6563 762.0809,830.832 Q762.8426,831.0078 763.5066,831.3594 L763.5066,834.5625 Q762.7645,833.8789 762.0662,833.5615 Q761.368,833.2441 760.6258,833.2441 Q759.0438,833.2441 758.2381,834.499 Q757.4324,835.7539 757.4324,838.2246 Q757.4324,840.6855 758.2381,841.9404 Q759.0438,843.1953 760.6258,843.1953 Q761.368,843.1953 762.0662,842.8779 Q762.7645,842.5605 763.5066,841.877 Z " fill="#000000"/><text fill="#000000" font-family="sans-serif" font-size="20" lengthAdjust="spacing" textLength="42" x="779.3" y="845.5586">Role</text><line style="stroke:#181818;stroke-width:0.5;" x1="729.5" x2="839.5" y1="855" y2="855"/><text fill="#000000" font-family="sans-serif" font-size="20" lengthAdjust="spacing" textLength="67" x="734.5" y="878.3359">ADMIN</text><text fill="#000000" font-family="sans-serif" font-size="20" lengthAdjust="spacing" textLength="100" x="734.5" y="901.8906">EMPLOYEE</text><text fill="#000000" font-family="sans-serif" font-size="20" lengthAdjust="spacing" textLength="70" x="734.5" y="925.4453">CLIENT</text><line style="stroke:#181818;stroke-width:0.5;" x1="729.5" x2="839.5" y1="933.6641" y2="933.6641"/></g><!--link Repositories to Repositories--><g id="link_Repositories_Repositories"><path codeLine="20" d="M649.93,409.06 C671.18,411.89 684.5,416.37 684.5,422.5 C684.5,428.01 673.75,432.18 656.15,435.03 " fill="none" id="Repositories-to-Repositories" style="stroke:#181818;stroke-width:1.0;"/><polygon fill="#181818" points="651.43,435.72,660.9171,438.3648,656.3766,434.9909,659.7505,430.4503,651.43,435.72" style="stroke:#181818;stroke-width:1.0;"/><text fill="#000000" font-family="sans-serif" font-size="20" lengthAdjust="spacing" textLength="79" x="690.5" y="430.3359">instance</text></g><!--link RegisterEmployeeUI to RegisterEmployeeController--><g id="link_RegisterEmployeeUI_RegisterEmployeeController"><path codeLine="25" d="M409.5,57.3 C409.5,72.47 409.5,92.63 409.5,111.43 " fill="none" id="RegisterEmployeeUI-to-RegisterEmployeeController" style="stroke:#181818;stroke-width:1.0;stroke-dasharray:7.0,7.0;"/><polygon fill="#181818" points="409.5,116.23,413.5,107.23,409.5,111.23,405.5,107.23,409.5,116.23" style="stroke:#181818;stroke-width:1.0;"/></g><!--link RegisterEmployeeController to Repositories--><g id="link_RegisterEmployeeController_Repositories"><path codeLine="27" d="M409.5,215.28 C409.5,254.86 409.5,311.54 409.5,355.47 " fill="none" id="RegisterEmployeeController-to-Repositories" style="stroke:#181818;stroke-width:1.0;stroke-dasharray:7.0,7.0;"/><polygon fill="#181818" points="409.5,360.34,413.5,351.34,409.5,355.34,405.5,351.34,409.5,360.34" style="stroke:#181818;stroke-width:1.0;"/><text fill="#000000" font-family="sans-serif" font-size="20" lengthAdjust="spacing" textLength="114" x="410.5" y="296.3359">repositories</text></g><!--link Repositories to EmployeeRepository--><g id="link_Repositories_EmployeeRepository"><path codeLine="29" d="M409.5,483.27 C409.5,522.56 409.5,573.03 409.5,608.3 " fill="none" id="Repositories-to-EmployeeRepository" style="stroke:#181818;stroke-width:1.0;"/><polygon fill="#181818" points="409.5,613.19,413.5,604.19,409.5,608.19,405.5,604.19,409.5,613.19" style="stroke:#181818;stroke-width:1.0;"/><text fill="#000000" font-family="sans-serif" font-size="20" lengthAdjust="spacing" textLength="13" x="395.3828" y="602.7344">1</text></g><!--link EmployeeRepository to Employee--><g id="link_EmployeeRepository_Employee"><path codeLine="31" d="M409.5,689.3 C409.5,733.72 409.5,808.13 409.5,849.82 " fill="none" id="EmployeeRepository-to-Employee" style="stroke:#181818;stroke-width:1.0;"/><polygon fill="#181818" points="409.5,854.71,413.5,845.71,409.5,849.71,405.5,845.71,409.5,854.71" style="stroke:#181818;stroke-width:1.0;"/><text fill="#000000" font-family="sans-serif" font-size="20" lengthAdjust="spacing" textLength="10" x="398.3438" y="844.1147">*</text></g><!--reverse link User to Employee--><g id="link_User_Employee"><path d="M572.63,749.82 C523.85,788.9 471.65,830.71 439.79,856.23 " fill="none" id="User-backto-Employee" style="stroke:#181818;stroke-width:1.0;"/><polygon fill="none" points="568.19,744.41,588.18,737.37,576.95,755.33,568.19,744.41" style="stroke:#181818;stroke-width:1.0;"/></g><!--link SystemAdministrator to Employee--><g id="link_SystemAdministrator_Employee"><path codeLine="70" d="M154.85,677.35 C204.23,716.97 296.5,791 296.5,791 C296.5,791 345.17,829.54 378.62,856.04 " fill="none" id="SystemAdministrator-Employee" style="stroke:#181818;stroke-width:1.0;"/><polygon fill="#000000" points="310.7514,783.7693,302.3767,771.0643,296.5083,778.4132,310.7514,783.7693" style="stroke:#000000;stroke-width:1.0;"/><text fill="#000000" font-family="sans-serif" font-size="20" lengthAdjust="spacing" textLength="83" x="317.5" y="786.3359">registers</text><text fill="#000000" font-family="sans-serif" font-size="20" lengthAdjust="spacing" textLength="13" x="146.7691" y="704.3435">1</text><text fill="#000000" font-family="sans-serif" font-size="20" lengthAdjust="spacing" textLength="13" x="357.4431" y="844.3516">1</text></g><!--link User to Address--><g id="link_User_Address"><path codeLine="71" d="M666.37,736.42 C655.81,768.88 644.09,804.9 635.01,832.81 " fill="none" id="User-Address" style="stroke:#181818;stroke-width:1.0;"/><polygon fill="#000000" points="662.0249,786.3848,670.9739,774.0776,662.0308,771.1679,662.0249,786.3848" style="stroke:#000000;stroke-width:1.0;"/><text fill="#000000" font-family="sans-serif" font-size="20" lengthAdjust="spacing" textLength="33" x="677.5" y="786.3359">has</text><text fill="#000000" font-family="sans-serif" font-size="20" lengthAdjust="spacing" textLength="13" x="650.7952" y="763.1297">1</text><text fill="#000000" font-family="sans-serif" font-size="20" lengthAdjust="spacing" textLength="10" x="626.488" y="820.713">*</text></g><!--link User to Role--><g id="link_User_Role"><path codeLine="72" d="M726.87,736.42 C738.03,764.32 750.24,794.84 760.54,820.59 " fill="none" id="User-Role" style="stroke:#181818;stroke-width:1.0;"/><polygon fill="#000000" points="757.4713,786.2051,756.4621,771.0217,747.7303,774.5146,757.4713,786.2051" style="stroke:#000000;stroke-width:1.0;"/><text fill="#000000" font-family="sans-serif" font-size="20" lengthAdjust="spacing" textLength="33" x="767.5" y="786.3359">has</text><text fill="#000000" font-family="sans-serif" font-size="20" lengthAdjust="spacing" textLength="13" x="715.9272" y="763.1297">1</text><text fill="#000000" font-family="sans-serif" font-size="20" lengthAdjust="spacing" textLength="13" x="744.0181" y="808.605">1</text></g><!--link Address to State--><g id="link_Address_State"><path codeLine="73" d="M663.22,930.33 C692.03,961.86 728.54,1001.81 751.47,1026.89 " fill="none" id="Address-State" style="stroke:#181818;stroke-width:1.0;"/><polygon fill="#000000" points="726.103,978.8721,732.3953,992.7271,739.3373,986.3825,726.103,978.8721" style="stroke:#000000;stroke-width:1.0;"/><text fill="#000000" font-family="sans-serif" font-size="20" lengthAdjust="spacing" textLength="64" x="744.5" y="992.3359">part of</text><text fill="#000000" font-family="sans-serif" font-size="20" lengthAdjust="spacing" textLength="13" x="654.9888" y="957.4242">1</text><text fill="#000000" font-family="sans-serif" font-size="20" lengthAdjust="spacing" textLength="13" x="731.8724" y="1014.824">1</text></g><!--link Street to City--><g id="link_Street_City"><path codeLine="74" d="M927.5,447.85 C927.5,491.63 927.5,583.17 927.5,626.83 " fill="none" id="Street-City" style="stroke:#181818;stroke-width:1.0;"/><polygon fill="#000000" points="935.5,533.7773,940.2023,519.3052,930.7977,519.3052,935.5,533.7773" style="stroke:#000000;stroke-width:1.0;"/><text fill="#000000" font-family="sans-serif" font-size="20" lengthAdjust="spacing" textLength="64" x="948.5" y="533.3359">part of</text><text fill="#000000" font-family="sans-serif" font-size="20" lengthAdjust="spacing" textLength="13" x="913.1594" y="474.8435">1</text><text fill="#000000" font-family="sans-serif" font-size="20" lengthAdjust="spacing" textLength="13" x="912.9969" y="614.7501">1</text></g><!--link City to District--><g id="link_City_District"><path codeLine="75" d="M927.5,677.35 C927.5,721.13 927.5,812.67 927.5,856.33 " fill="none" id="City-District" style="stroke:#181818;stroke-width:1.0;"/><polygon fill="#000000" points="935.5,786.7773,940.2023,772.3052,930.7977,772.3052,935.5,786.7773" style="stroke:#000000;stroke-width:1.0;"/><text fill="#000000" font-family="sans-serif" font-size="20" lengthAdjust="spacing" textLength="64" x="948.5" y="786.3359">part of</text><text fill="#000000" font-family="sans-serif" font-size="20" lengthAdjust="spacing" textLength="13" x="913.1594" y="704.3435">1</text><text fill="#000000" font-family="sans-serif" font-size="20" lengthAdjust="spacing" textLength="13" x="912.9969" y="844.2501">1</text></g><!--link District to State--><g id="link_District_State"><path codeLine="76" d="M905.44,906.64 C876.24,938.58 825.07,994.57 795.77,1026.63 " fill="none" id="District-State" style="stroke:#181818;stroke-width:1.0;"/><polygon fill="#000000" points="843.1028,990.6824,856.3374,983.1724,849.3955,976.8276,843.1028,990.6824" style="stroke:#000000;stroke-width:1.0;"/><text fill="#000000" font-family="sans-serif" font-size="20" lengthAdjust="spacing" textLength="64" x="861.5" y="992.3359">part of</text><text fill="#000000" font-family="sans-serif" font-size="20" lengthAdjust="spacing" textLength="13" x="886.1925" y="934.0516">1</text><text fill="#000000" font-family="sans-serif" font-size="20" lengthAdjust="spacing" textLength="13" x="786.2197" y="1014.9613">1</text></g><!--SRC=[VLF1Rjim3BtxAuIUaYqEsXs38K2GPa20DXkIzL1W5zLY4Y6oP4WCMdVOluzM95kUq_bWItoFuXFvx4vILzpoKfdY1889sFEpmcz6uqw-0_jocxb8OHKlJlm0EwmLC0i5SdrGa13SaGlpAlM1xRboAQAa1gmhO9LHTRD9i49nvnQ8LhwS4TQ5qRxqRPPvX6tX81s2NPMLCZN0aiHPenHOzZjZz7mcCNtAY72OCCrBUbTqI6KiBhaLctFv0dR2aB_59PHSgWdxfH4KL4UZ8IB261lNxx9Q6a6dEUH8dq9YJGogQcM1JTW2u3Zx4rL7ALkeZ9DeRDsgvKAqGY4iaimsGu8BENalE1g7Wmw0Qqs2T06ZCPlrI1rbgCIJX-56GgzuJjFK-RolQCPagFdHW9xM9DkVDOXFf_F_p7EOainwUidjAR7fXV_HJhflxcwkNJExCXjF_zJHuzrsDSaf5wAKkfar9_BbSXVuoRKkpBtTmdBekG2qnWjxxxw8zGquz1A3DmGjsh8jOI641TUvfNDk20JxTXaxxzVqZ2KvEjtV1s-diLrZ_ZImfVyiL5tSFwutVhLw_F7m_Ncryflbmtgr-TbaN6jbCw4yxmrgrlxDZiqpVzF8elc4cyxOaGzW-ZHw8XQRai1U_uocOv6PFVkQXJOabAOD7MEU-ROaU6nBocbRzN6fUVON]--></g></svg>