<?xml version="1.0" encoding="UTF-8" standalone="no"?><svg xmlns="http://www.w3.org/2000/svg" xmlns:xlink="http://www.w3.org/1999/xlink" contentStyleType="text/css" height="1285px" preserveAspectRatio="none" style="width:3397px;height:1285px;background:#FFFFFF;" version="1.1" viewBox="0 0 3397 1285" width="3397px" zoomAndPan="magnify"><defs/><g><text fill="#000000" font-family="sans-serif" font-size="14" font-weight="bold" lengthAdjust="spacing" textLength="408" x="1493.5" y="28.5352">Sequence Diagram (SD) - US003: Register New Employee</text><rect fill="#FFFFFF" height="1052.5313" style="stroke:#181818;stroke-width:1.0;" width="10" x="106.5" y="136.043"/><rect fill="#FFFFFF" height="1013.9766" style="stroke:#181818;stroke-width:1.0;" width="10" x="1093.5" y="165.5977"/><rect fill="#FFFFFF" height="985.4219" style="stroke:#181818;stroke-width:1.0;" width="10" x="2035.5" y="203.1523"/><rect fill="#FFFFFF" height="37.5547" style="stroke:#181818;stroke-width:1.0;" width="10" x="2040.5" y="428.4805"/><rect fill="#FFFFFF" height="609.875" style="stroke:#181818;stroke-width:1.0;" width="10" x="2040.5" y="578.6992"/><rect fill="#FFFFFF" height="262.8828" style="stroke:#181818;stroke-width:1.0;" width="10" x="2045.5" y="879.1367"/><rect fill="#FFFFFF" height="37.5547" style="stroke:#181818;stroke-width:1.0;" width="10" x="2550.5" y="991.8008"/><rect fill="#FFFFFF" height="37.5547" style="stroke:#181818;stroke-width:1.0;" width="10" x="2750" y="240.707"/><rect fill="#FFFFFF" height="37.5547" style="stroke:#181818;stroke-width:1.0;" width="10" x="2884" y="916.6914"/><rect fill="#FFFFFF" height="37.5547" style="stroke:#181818;stroke-width:1.0;" width="10" x="2985.5" y="616.2539"/><rect fill="#FFFFFF" height="37.5547" style="stroke:#181818;stroke-width:1.0;" width="10" x="3140.5" y="691.3633"/><rect fill="#FFFFFF" height="37.5547" style="stroke:#181818;stroke-width:1.0;" width="10" x="3316" y="1066.9102"/><line style="stroke:#181818;stroke-width:0.5;stroke-dasharray:5.0,5.0;" x1="111" x2="111" y1="126.043" y2="1197.5742"/><line style="stroke:#181818;stroke-width:0.5;stroke-dasharray:5.0,5.0;" x1="1098.5" x2="1098.5" y1="126.043" y2="1197.5742"/><line style="stroke:#181818;stroke-width:0.5;stroke-dasharray:5.0,5.0;" x1="2040.5" x2="2040.5" y1="126.043" y2="1197.5742"/><line style="stroke:#181818;stroke-width:0.5;stroke-dasharray:5.0,5.0;" x1="2555" x2="2555" y1="126.043" y2="1197.5742"/><line style="stroke:#181818;stroke-width:0.5;stroke-dasharray:5.0,5.0;" x1="2755" x2="2755" y1="126.043" y2="1197.5742"/><line style="stroke:#181818;stroke-width:0.5;stroke-dasharray:5.0,5.0;" x1="2889" x2="2889" y1="126.043" y2="1197.5742"/><line style="stroke:#181818;stroke-width:0.5;stroke-dasharray:5.0,5.0;" x1="2990" x2="2990" y1="126.043" y2="1197.5742"/><line style="stroke:#181818;stroke-width:0.5;stroke-dasharray:5.0,5.0;" x1="3145" x2="3145" y1="126.043" y2="1197.5742"/><line style="stroke:#181818;stroke-width:0.5;stroke-dasharray:5.0,5.0;" x1="3321" x2="3321" y1="126.043" y2="1197.5742"/><text fill="#000000" font-family="sans-serif" font-size="20" lengthAdjust="spacing" textLength="207" x="5" y="121.8242">System Administrator</text><ellipse cx="111.5" cy="50.9883" fill="#E2E2F0" rx="8" ry="8" style="stroke:#181818;stroke-width:0.5;"/><path d="M111.5,58.9883 L111.5,85.9883 M98.5,66.9883 L124.5,66.9883 M111.5,85.9883 L98.5,100.9883 M111.5,85.9883 L124.5,100.9883 " fill="none" style="stroke:#181818;stroke-width:0.5;"/><text fill="#000000" font-family="sans-serif" font-size="20" lengthAdjust="spacing" textLength="207" x="5" y="1215.9102">System Administrator</text><ellipse cx="111.5" cy="1228.6289" fill="#E2E2F0" rx="8" ry="8" style="stroke:#181818;stroke-width:0.5;"/><path d="M111.5,1236.6289 L111.5,1263.6289 M98.5,1244.6289 L124.5,1244.6289 M111.5,1263.6289 L98.5,1278.6289 M111.5,1263.6289 L124.5,1278.6289 " fill="none" style="stroke:#181818;stroke-width:0.5;"/><rect fill="#E2E2F0" height="37.5547" rx="2.5" ry="2.5" style="stroke:#181818;stroke-width:0.5;" width="252" x="972.5" y="87.4883"/><text fill="#000000" font-family="sans-serif" font-size="20" lengthAdjust="spacing" textLength="238" x="979.5" y="113.8242">:RegisterNewEmployeeUI</text><rect fill="#E2E2F0" height="37.5547" rx="2.5" ry="2.5" style="stroke:#181818;stroke-width:0.5;" width="252" x="972.5" y="1196.5742"/><text fill="#000000" font-family="sans-serif" font-size="20" lengthAdjust="spacing" textLength="238" x="979.5" y="1222.9102">:RegisterNewEmployeeUI</text><rect fill="#E2E2F0" height="37.5547" rx="2.5" ry="2.5" style="stroke:#181818;stroke-width:0.5;" width="328" x="1876.5" y="87.4883"/><text fill="#000000" font-family="sans-serif" font-size="20" lengthAdjust="spacing" textLength="314" x="1883.5" y="113.8242">:RegisterNewEmployeeController</text><rect fill="#E2E2F0" height="37.5547" rx="2.5" ry="2.5" style="stroke:#181818;stroke-width:0.5;" width="328" x="1876.5" y="1196.5742"/><text fill="#000000" font-family="sans-serif" font-size="20" lengthAdjust="spacing" textLength="314" x="1883.5" y="1222.9102">:RegisterNewEmployeeController</text><rect fill="#E2E2F0" height="37.5547" rx="2.5" ry="2.5" style="stroke:#181818;stroke-width:0.5;" width="215" x="2448" y="87.4883"/><text fill="#000000" font-family="sans-serif" font-size="20" lengthAdjust="spacing" textLength="201" x="2455" y="113.8242">:EmployeeRepository</text><rect fill="#E2E2F0" height="37.5547" rx="2.5" ry="2.5" style="stroke:#181818;stroke-width:0.5;" width="215" x="2448" y="1196.5742"/><text fill="#000000" font-family="sans-serif" font-size="20" lengthAdjust="spacing" textLength="201" x="2455" y="1222.9102">:EmployeeRepository</text><rect fill="#E2E2F0" height="37.5547" rx="2.5" ry="2.5" style="stroke:#181818;stroke-width:0.5;" width="164" x="2673" y="87.4883"/><text fill="#000000" font-family="sans-serif" font-size="20" lengthAdjust="spacing" textLength="150" x="2680" y="113.8242">:RoleRepository</text><rect fill="#E2E2F0" height="37.5547" rx="2.5" ry="2.5" style="stroke:#181818;stroke-width:0.5;" width="164" x="2673" y="1196.5742"/><text fill="#000000" font-family="sans-serif" font-size="20" lengthAdjust="spacing" textLength="150" x="2680" y="1222.9102">:RoleRepository</text><rect fill="#E2E2F0" height="37.5547" rx="2.5" ry="2.5" style="stroke:#181818;stroke-width:0.5;" width="84" x="2847" y="87.4883"/><text fill="#000000" font-family="sans-serif" font-size="20" lengthAdjust="spacing" textLength="70" x="2854" y="113.8242">:Person</text><rect fill="#E2E2F0" height="37.5547" rx="2.5" ry="2.5" style="stroke:#181818;stroke-width:0.5;" width="84" x="2847" y="1196.5742"/><text fill="#000000" font-family="sans-serif" font-size="20" lengthAdjust="spacing" textLength="70" x="2854" y="1222.9102">:Person</text><rect fill="#E2E2F0" height="37.5547" rx="2.5" ry="2.5" style="stroke:#181818;stroke-width:0.5;" width="99" x="2941" y="87.4883"/><text fill="#000000" font-family="sans-serif" font-size="20" lengthAdjust="spacing" textLength="85" x="2948" y="113.8242">:Address</text><rect fill="#E2E2F0" height="37.5547" rx="2.5" ry="2.5" style="stroke:#181818;stroke-width:0.5;" width="99" x="2941" y="1196.5742"/><text fill="#000000" font-family="sans-serif" font-size="20" lengthAdjust="spacing" textLength="85" x="2948" y="1222.9102">:Address</text><rect fill="#E2E2F0" height="37.5547" rx="2.5" ry="2.5" style="stroke:#181818;stroke-width:0.5;" width="191" x="3050" y="87.4883"/><text fill="#000000" font-family="sans-serif" font-size="20" lengthAdjust="spacing" textLength="177" x="3057" y="113.8242">:AgencyRepository</text><rect fill="#E2E2F0" height="37.5547" rx="2.5" ry="2.5" style="stroke:#181818;stroke-width:0.5;" width="191" x="3050" y="1196.5742"/><text fill="#000000" font-family="sans-serif" font-size="20" lengthAdjust="spacing" textLength="177" x="3057" y="1222.9102">:AgencyRepository</text><rect fill="#E2E2F0" height="37.5547" rx="2.5" ry="2.5" style="stroke:#181818;stroke-width:0.5;" width="140" x="3251" y="87.4883"/><text fill="#000000" font-family="sans-serif" font-size="20" lengthAdjust="spacing" textLength="126" x="3258" y="113.8242">:EmailService</text><rect fill="#E2E2F0" height="37.5547" rx="2.5" ry="2.5" style="stroke:#181818;stroke-width:0.5;" width="140" x="3251" y="1196.5742"/><text fill="#000000" font-family="sans-serif" font-size="20" lengthAdjust="spacing" textLength="126" x="3258" y="1222.9102">:EmailService</text><rect fill="#FFFFFF" height="1052.5313" style="stroke:#181818;stroke-width:1.0;" width="10" x="106.5" y="136.043"/><rect fill="#FFFFFF" height="1013.9766" style="stroke:#181818;stroke-width:1.0;" width="10" x="1093.5" y="165.5977"/><rect fill="#FFFFFF" height="985.4219" style="stroke:#181818;stroke-width:1.0;" width="10" x="2035.5" y="203.1523"/><rect fill="#FFFFFF" height="37.5547" style="stroke:#181818;stroke-width:1.0;" width="10" x="2040.5" y="428.4805"/><rect fill="#FFFFFF" height="609.875" style="stroke:#181818;stroke-width:1.0;" width="10" x="2040.5" y="578.6992"/><rect fill="#FFFFFF" height="262.8828" style="stroke:#181818;stroke-width:1.0;" width="10" x="2045.5" y="879.1367"/><rect fill="#FFFFFF" height="37.5547" style="stroke:#181818;stroke-width:1.0;" width="10" x="2550.5" y="991.8008"/><rect fill="#FFFFFF" height="37.5547" style="stroke:#181818;stroke-width:1.0;" width="10" x="2750" y="240.707"/><rect fill="#FFFFFF" height="37.5547" style="stroke:#181818;stroke-width:1.0;" width="10" x="2884" y="916.6914"/><rect fill="#FFFFFF" height="37.5547" style="stroke:#181818;stroke-width:1.0;" width="10" x="2985.5" y="616.2539"/><rect fill="#FFFFFF" height="37.5547" style="stroke:#181818;stroke-width:1.0;" width="10" x="3140.5" y="691.3633"/><rect fill="#FFFFFF" height="37.5547" style="stroke:#181818;stroke-width:1.0;" width="10" x="3316" y="1066.9102"/><polygon fill="#181818" points="1081.5,161.5977,1091.5,165.5977,1081.5,169.5977,1085.5,165.5977" style="stroke:#181818;stroke-width:1.0;"/><line style="stroke:#181818;stroke-width:1.0;" x1="116.5" x2="1087.5" y1="165.5977" y2="165.5977"/><text fill="#000000" font-family="sans-serif" font-size="20" font-weight="bold" lengthAdjust="spacing" textLength="13" x="123.5" y="159.3789">1</text><text fill="#000000" font-family="sans-serif" font-size="20" lengthAdjust="spacing" textLength="195" x="140.5" y="159.3789">initiateRegistration()</text><polygon fill="#181818" points="2023.5,199.1523,2033.5,203.1523,2023.5,207.1523,2027.5,203.1523" style="stroke:#181818;stroke-width:1.0;"/><line style="stroke:#181818;stroke-width:1.0;" x1="1103.5" x2="2029.5" y1="203.1523" y2="203.1523"/><text fill="#000000" font-family="sans-serif" font-size="20" font-weight="bold" lengthAdjust="spacing" textLength="13" x="1110.5" y="196.9336">2</text><text fill="#000000" font-family="sans-serif" font-size="20" lengthAdjust="spacing" textLength="221" x="1127.5" y="196.9336">registerNewEmployee()</text><polygon fill="#181818" points="2738,236.707,2748,240.707,2738,244.707,2742,240.707" style="stroke:#181818;stroke-width:1.0;"/><line style="stroke:#181818;stroke-width:1.0;" x1="2045.5" x2="2744" y1="240.707" y2="240.707"/><text fill="#000000" font-family="sans-serif" font-size="20" font-weight="bold" lengthAdjust="spacing" textLength="13" x="2052.5" y="234.4883">3</text><text fill="#000000" font-family="sans-serif" font-size="20" lengthAdjust="spacing" textLength="162" x="2069.5" y="234.4883">getRoleOptions()</text><polygon fill="#181818" points="2056.5,274.2617,2046.5,278.2617,2056.5,282.2617,2052.5,278.2617" style="stroke:#181818;stroke-width:1.0;"/><line style="stroke:#181818;stroke-width:1.0;stroke-dasharray:2.0,2.0;" x1="2050.5" x2="2754" y1="278.2617" y2="278.2617"/><text fill="#000000" font-family="sans-serif" font-size="20" font-weight="bold" lengthAdjust="spacing" textLength="13" x="2062.5" y="272.043">4</text><text fill="#000000" font-family="sans-serif" font-size="20" lengthAdjust="spacing" textLength="113" x="2079.5" y="272.043">roleOptions</text><polygon fill="#181818" points="1114.5,311.8164,1104.5,315.8164,1114.5,319.8164,1110.5,315.8164" style="stroke:#181818;stroke-width:1.0;"/><line style="stroke:#181818;stroke-width:1.0;" x1="1108.5" x2="2034.5" y1="315.8164" y2="315.8164"/><text fill="#000000" font-family="sans-serif" font-size="20" font-weight="bold" lengthAdjust="spacing" textLength="13" x="1120.5" y="309.5977">5</text><text fill="#000000" font-family="sans-serif" font-size="20" lengthAdjust="spacing" textLength="314" x="1137.5" y="309.5977">displayRoleOptions(roleOptions)</text><polygon fill="#181818" points="127.5,349.3711,117.5,353.3711,127.5,357.3711,123.5,353.3711" style="stroke:#181818;stroke-width:1.0;"/><line style="stroke:#181818;stroke-width:1.0;stroke-dasharray:2.0,2.0;" x1="121.5" x2="1092.5" y1="353.3711" y2="353.3711"/><text fill="#000000" font-family="sans-serif" font-size="20" font-weight="bold" lengthAdjust="spacing" textLength="13" x="133.5" y="347.1523">6</text><text fill="#000000" font-family="sans-serif" font-size="20" lengthAdjust="spacing" textLength="111" x="150.5" y="347.1523">selectRole()</text><polygon fill="#181818" points="1081.5,386.9258,1091.5,390.9258,1081.5,394.9258,1085.5,390.9258" style="stroke:#181818;stroke-width:1.0;"/><line style="stroke:#181818;stroke-width:1.0;" x1="116.5" x2="1087.5" y1="390.9258" y2="390.9258"/><text fill="#000000" font-family="sans-serif" font-size="20" font-weight="bold" lengthAdjust="spacing" textLength="13" x="123.5" y="384.707">7</text><text fill="#000000" font-family="sans-serif" font-size="20" lengthAdjust="spacing" textLength="166" x="140.5" y="384.707">provideRole(role)</text><polygon fill="#181818" points="2028.5,424.4805,2038.5,428.4805,2028.5,432.4805,2032.5,428.4805" style="stroke:#181818;stroke-width:1.0;"/><line style="stroke:#181818;stroke-width:1.0;" x1="1103.5" x2="2034.5" y1="428.4805" y2="428.4805"/><text fill="#000000" font-family="sans-serif" font-size="20" font-weight="bold" lengthAdjust="spacing" textLength="13" x="1110.5" y="422.2617">8</text><text fill="#000000" font-family="sans-serif" font-size="20" lengthAdjust="spacing" textLength="121" x="1127.5" y="422.2617">setRole(role)</text><polygon fill="#181818" points="1114.5,462.0352,1104.5,466.0352,1114.5,470.0352,1110.5,466.0352" style="stroke:#181818;stroke-width:1.0;"/><line style="stroke:#181818;stroke-width:1.0;" x1="1108.5" x2="2034.5" y1="466.0352" y2="466.0352"/><text fill="#000000" font-family="sans-serif" font-size="20" font-weight="bold" lengthAdjust="spacing" textLength="13" x="1120.5" y="459.8164">9</text><text fill="#000000" font-family="sans-serif" font-size="20" lengthAdjust="spacing" textLength="279" x="1137.5" y="459.8164">requestPersonalInformation()</text><polygon fill="#181818" points="127.5,499.5898,117.5,503.5898,127.5,507.5898,123.5,503.5898" style="stroke:#181818;stroke-width:1.0;"/><line style="stroke:#181818;stroke-width:1.0;stroke-dasharray:2.0,2.0;" x1="121.5" x2="1092.5" y1="503.5898" y2="503.5898"/><text fill="#000000" font-family="sans-serif" font-size="20" font-weight="bold" lengthAdjust="spacing" textLength="26" x="133.5" y="497.3711">10</text><text fill="#000000" font-family="sans-serif" font-size="20" lengthAdjust="spacing" textLength="256" x="163.5" y="497.3711">enterPersonalInformation()</text><polygon fill="#181818" points="1081.5,537.1445,1091.5,541.1445,1081.5,545.1445,1085.5,541.1445" style="stroke:#181818;stroke-width:1.0;"/><line style="stroke:#181818;stroke-width:1.0;" x1="116.5" x2="1087.5" y1="541.1445" y2="541.1445"/><text fill="#000000" font-family="sans-serif" font-size="20" font-weight="bold" lengthAdjust="spacing" textLength="26" x="123.5" y="534.9258">11</text><text fill="#000000" font-family="sans-serif" font-size="20" lengthAdjust="spacing" textLength="923" x="153.5" y="534.9258">providePersonalInformation(name, passportCardNumber, taxNumber, email, telephoneNumber)</text><polygon fill="#181818" points="2028.5,574.6992,2038.5,578.6992,2028.5,582.6992,2032.5,578.6992" style="stroke:#181818;stroke-width:1.0;"/><line style="stroke:#181818;stroke-width:1.0;" x1="1103.5" x2="2034.5" y1="578.6992" y2="578.6992"/><text fill="#000000" font-family="sans-serif" font-size="20" font-weight="bold" lengthAdjust="spacing" textLength="26" x="1110.5" y="572.4805">12</text><text fill="#000000" font-family="sans-serif" font-size="20" lengthAdjust="spacing" textLength="878" x="1140.5" y="572.4805">setPersonalInformation(name, passportCardNumber, taxNumber, email, telephoneNumber)</text><polygon fill="#181818" points="2973.5,612.2539,2983.5,616.2539,2973.5,620.2539,2977.5,616.2539" style="stroke:#181818;stroke-width:1.0;"/><line style="stroke:#181818;stroke-width:1.0;" x1="2050.5" x2="2979.5" y1="616.2539" y2="616.2539"/><text fill="#000000" font-family="sans-serif" font-size="20" font-weight="bold" lengthAdjust="spacing" textLength="26" x="2057.5" y="610.0352">13</text><text fill="#000000" font-family="sans-serif" font-size="20" lengthAdjust="spacing" textLength="432" x="2087.5" y="610.0352">createAddress(street, doorNumber, zipCode)</text><polygon fill="#181818" points="2061.5,649.8086,2051.5,653.8086,2061.5,657.8086,2057.5,653.8086" style="stroke:#181818;stroke-width:1.0;"/><line style="stroke:#181818;stroke-width:1.0;stroke-dasharray:2.0,2.0;" x1="2055.5" x2="2989.5" y1="653.8086" y2="653.8086"/><text fill="#000000" font-family="sans-serif" font-size="20" font-weight="bold" lengthAdjust="spacing" textLength="26" x="2067.5" y="647.5898">14</text><text fill="#000000" font-family="sans-serif" font-size="20" lengthAdjust="spacing" textLength="76" x="2097.5" y="647.5898">address</text><polygon fill="#181818" points="3128.5,687.3633,3138.5,691.3633,3128.5,695.3633,3132.5,691.3633" style="stroke:#181818;stroke-width:1.0;"/><line style="stroke:#181818;stroke-width:1.0;" x1="2050.5" x2="3134.5" y1="691.3633" y2="691.3633"/><text fill="#000000" font-family="sans-serif" font-size="20" font-weight="bold" lengthAdjust="spacing" textLength="26" x="2057.5" y="685.1445">15</text><text fill="#000000" font-family="sans-serif" font-size="20" lengthAdjust="spacing" textLength="129" x="2087.5" y="685.1445">listAgencies()</text><polygon fill="#181818" points="2061.5,724.918,2051.5,728.918,2061.5,732.918,2057.5,728.918" style="stroke:#181818;stroke-width:1.0;"/><line style="stroke:#181818;stroke-width:1.0;stroke-dasharray:2.0,2.0;" x1="2055.5" x2="3144.5" y1="728.918" y2="728.918"/><text fill="#000000" font-family="sans-serif" font-size="20" font-weight="bold" lengthAdjust="spacing" textLength="26" x="2067.5" y="722.6992">16</text><text fill="#000000" font-family="sans-serif" font-size="20" lengthAdjust="spacing" textLength="100" x="2097.5" y="722.6992">agencyList</text><polygon fill="#181818" points="1114.5,762.4727,1104.5,766.4727,1114.5,770.4727,1110.5,766.4727" style="stroke:#181818;stroke-width:1.0;"/><line style="stroke:#181818;stroke-width:1.0;" x1="1108.5" x2="2039.5" y1="766.4727" y2="766.4727"/><text fill="#000000" font-family="sans-serif" font-size="20" font-weight="bold" lengthAdjust="spacing" textLength="26" x="1120.5" y="760.2539">17</text><text fill="#000000" font-family="sans-serif" font-size="20" lengthAdjust="spacing" textLength="286" x="1150.5" y="760.2539">displayAgencyList(agencyList)</text><polygon fill="#181818" points="127.5,800.0273,117.5,804.0273,127.5,808.0273,123.5,804.0273" style="stroke:#181818;stroke-width:1.0;"/><line style="stroke:#181818;stroke-width:1.0;stroke-dasharray:2.0,2.0;" x1="121.5" x2="1092.5" y1="804.0273" y2="804.0273"/><text fill="#000000" font-family="sans-serif" font-size="20" font-weight="bold" lengthAdjust="spacing" textLength="26" x="133.5" y="797.8086">18</text><text fill="#000000" font-family="sans-serif" font-size="20" lengthAdjust="spacing" textLength="138" x="163.5" y="797.8086">selectAgency()</text><polygon fill="#181818" points="1081.5,837.582,1091.5,841.582,1081.5,845.582,1085.5,841.582" style="stroke:#181818;stroke-width:1.0;"/><line style="stroke:#181818;stroke-width:1.0;" x1="116.5" x2="1087.5" y1="841.582" y2="841.582"/><text fill="#000000" font-family="sans-serif" font-size="20" font-weight="bold" lengthAdjust="spacing" textLength="26" x="123.5" y="835.3633">19</text><text fill="#000000" font-family="sans-serif" font-size="20" lengthAdjust="spacing" textLength="222" x="153.5" y="835.3633">provideAgency(agency)</text><polygon fill="#181818" points="2033.5,875.1367,2043.5,879.1367,2033.5,883.1367,2037.5,879.1367" style="stroke:#181818;stroke-width:1.0;"/><line style="stroke:#181818;stroke-width:1.0;" x1="1103.5" x2="2039.5" y1="879.1367" y2="879.1367"/><text fill="#000000" font-family="sans-serif" font-size="20" font-weight="bold" lengthAdjust="spacing" textLength="26" x="1110.5" y="872.918">20</text><text fill="#000000" font-family="sans-serif" font-size="20" lengthAdjust="spacing" textLength="177" x="1140.5" y="872.918">setAgency(agency)</text><polygon fill="#181818" points="2872,912.6914,2882,916.6914,2872,920.6914,2876,916.6914" style="stroke:#181818;stroke-width:1.0;"/><line style="stroke:#181818;stroke-width:1.0;" x1="2055.5" x2="2878" y1="916.6914" y2="916.6914"/><text fill="#000000" font-family="sans-serif" font-size="20" font-weight="bold" lengthAdjust="spacing" textLength="26" x="2062.5" y="910.4727">21</text><text fill="#000000" font-family="sans-serif" font-size="20" lengthAdjust="spacing" textLength="779" x="2092.5" y="910.4727">createPerson(name, passportCardNumber, taxNumber, email, telephoneNumber)</text><polygon fill="#181818" points="2066.5,950.2461,2056.5,954.2461,2066.5,958.2461,2062.5,954.2461" style="stroke:#181818;stroke-width:1.0;"/><line style="stroke:#181818;stroke-width:1.0;stroke-dasharray:2.0,2.0;" x1="2060.5" x2="2888" y1="954.2461" y2="954.2461"/><text fill="#000000" font-family="sans-serif" font-size="20" font-weight="bold" lengthAdjust="spacing" textLength="26" x="2072.5" y="948.0273">22</text><text fill="#000000" font-family="sans-serif" font-size="20" lengthAdjust="spacing" textLength="66" x="2102.5" y="948.0273">person</text><polygon fill="#181818" points="2538.5,987.8008,2548.5,991.8008,2538.5,995.8008,2542.5,991.8008" style="stroke:#181818;stroke-width:1.0;"/><line style="stroke:#181818;stroke-width:1.0;" x1="2055.5" x2="2544.5" y1="991.8008" y2="991.8008"/><text fill="#000000" font-family="sans-serif" font-size="20" font-weight="bold" lengthAdjust="spacing" textLength="26" x="2062.5" y="985.582">23</text><text fill="#000000" font-family="sans-serif" font-size="20" lengthAdjust="spacing" textLength="446" x="2092.5" y="985.582">createEmployee(person, role, address, agency)</text><polygon fill="#181818" points="2066.5,1025.3555,2056.5,1029.3555,2066.5,1033.3555,2062.5,1029.3555" style="stroke:#181818;stroke-width:1.0;"/><line style="stroke:#181818;stroke-width:1.0;stroke-dasharray:2.0,2.0;" x1="2060.5" x2="2554.5" y1="1029.3555" y2="1029.3555"/><text fill="#000000" font-family="sans-serif" font-size="20" font-weight="bold" lengthAdjust="spacing" textLength="26" x="2072.5" y="1023.1367">24</text><text fill="#000000" font-family="sans-serif" font-size="20" lengthAdjust="spacing" textLength="131" x="2102.5" y="1023.1367">newEmployee</text><polygon fill="#181818" points="3304,1062.9102,3314,1066.9102,3304,1070.9102,3308,1066.9102" style="stroke:#181818;stroke-width:1.0;"/><line style="stroke:#181818;stroke-width:1.0;" x1="2055.5" x2="3310" y1="1066.9102" y2="1066.9102"/><text fill="#000000" font-family="sans-serif" font-size="20" font-weight="bold" lengthAdjust="spacing" textLength="26" x="2062.5" y="1060.6914">25</text><text fill="#000000" font-family="sans-serif" font-size="20" lengthAdjust="spacing" textLength="340" x="2092.5" y="1060.6914">sendPassword(newEmployee.email)</text><polygon fill="#181818" points="2066.5,1100.4648,2056.5,1104.4648,2066.5,1108.4648,2062.5,1104.4648" style="stroke:#181818;stroke-width:1.0;"/><line style="stroke:#181818;stroke-width:1.0;stroke-dasharray:2.0,2.0;" x1="2060.5" x2="3320" y1="1104.4648" y2="1104.4648"/><text fill="#000000" font-family="sans-serif" font-size="20" font-weight="bold" lengthAdjust="spacing" textLength="26" x="2072.5" y="1098.2461">26</text><text fill="#000000" font-family="sans-serif" font-size="20" lengthAdjust="spacing" textLength="155" x="2102.5" y="1098.2461">successMessage</text><polygon fill="#181818" points="1114.5,1138.0195,1104.5,1142.0195,1114.5,1146.0195,1110.5,1142.0195" style="stroke:#181818;stroke-width:1.0;"/><line style="stroke:#181818;stroke-width:1.0;" x1="1108.5" x2="2039.5" y1="1142.0195" y2="1142.0195"/><text fill="#000000" font-family="sans-serif" font-size="20" font-weight="bold" lengthAdjust="spacing" textLength="26" x="1120.5" y="1135.8008">27</text><text fill="#000000" font-family="sans-serif" font-size="20" lengthAdjust="spacing" textLength="394" x="1150.5" y="1135.8008">displaySuccessMessage(successMessage)</text><polygon fill="#181818" points="127.5,1175.5742,117.5,1179.5742,127.5,1183.5742,123.5,1179.5742" style="stroke:#181818;stroke-width:1.0;"/><line style="stroke:#181818;stroke-width:1.0;stroke-dasharray:2.0,2.0;" x1="121.5" x2="1097.5" y1="1179.5742" y2="1179.5742"/><text fill="#000000" font-family="sans-serif" font-size="20" font-weight="bold" lengthAdjust="spacing" textLength="26" x="133.5" y="1173.3555">28</text><text fill="#000000" font-family="sans-serif" font-size="20" lengthAdjust="spacing" textLength="155" x="163.5" y="1173.3555">successMessage</text><!--SRC=[hLLDZzem4BtpAonEGGeLQcySAY5sAo5jjojIVe0R3y72iLFRGDbVtuaT9qv8j9SzW9APz-RZpTWnPouhgcafL7u6HXWSwKNO7qhQZBy3-RgQcG0XfP8gFsbL0ZbIOI1oLJG_qm8oUnT0DEIMoaB407EYJDsuB1hgp7ABq0p-Na3cG9uuBMfSaZqjo98SijNgsvhieU36WYQlS2FFPINK7P1BSwiqcMTtz9Lamqek4QOfMkU46c-POMBBSrvHQSby7K9Xf13ei7Fem-vZw1O5qKe8y0csl_Sl0r90xg5IXcCbTuUCpSCqIWpHmJH0le4sIZg4VnpuDunfCARftJqF4GMgV1zawumFlL0kCj1NdaFJ1HfGzujLybB-0UrcmA_KGYEs-oVBxwWcMHESX-Nez4hYOBYIoQBZeEGp12AyLX89-b7o6E_qdZaiSe9Ao2l0rc-_gZg3YIcjb2rw6QNhE3C6ZvmsbUk6SLC9UeyJHG4MhXF4UWdMn8300r2ZiPw-BfLMLyx0-UeGYu4CnhVJ-2RQTv5qVN2CzUj0nKuUbIw3pb5BZZee42GgFSuSBNSCAca9AHvxOogbxPPgzkeM8oMM_WkFKAyDMb2GwgGaUFj8qv-UOKAwvd1Wqbm3kflt17SKmAQ4AQL3w7TURHMBnn2ELeWIBHHjN97o0TqbRuyR4WIkkpDmwArjT2OZV9p9ML-GtalMqKPtTzEoaYx0nEPwxDGoD5uVPMIK0__48Fp0spdurqyQUND5DYaYwIhlY6Hhe6rPyMtT5jTUI9wVkjiZ3IDFoKEhlJk_5p8gHdOtNLnHZnlLXJqxVILxGtbkIhCaYl35YT8heRwmFIrAQYvvZZN_n1zMtS_hRlYntSbwfAGVuyFBPZebVWJ-0m00]--></g></svg>