<?xml version="1.0" encoding="UTF-8" standalone="no"?><svg xmlns="http://www.w3.org/2000/svg" xmlns:xlink="http://www.w3.org/1999/xlink" contentStyleType="text/css" height="727px" preserveAspectRatio="none" style="width:3026px;height:727px;background:#FFFFFF;" version="1.1" viewBox="0 0 3026 727" width="3026px" zoomAndPan="magnify"><defs/><g><rect fill="#FFFFFF" height="531.6563" style="stroke:#181818;stroke-width:1.0;" width="10" x="426.5" y="98.5547"/><rect fill="#FFFFFF" height="42.5547" style="stroke:#181818;stroke-width:1.0;" width="10" x="431.5" y="578.6563"/><rect fill="#FFFFFF" height="372.4375" style="stroke:#181818;stroke-width:1.0;" width="10" x="1605.5" y="160.6641"/><rect fill="#FFFFFF" height="431.9922" style="stroke:#181818;stroke-width:1.0;" width="10" x="2769.5" y="198.2188"/><rect fill="#FFFFFF" height="48.5547" style="stroke:#181818;stroke-width:1.0;" width="10" x="2774.5" y="243.7734"/><rect fill="#FFFFFF" height="48.5547" style="stroke:#181818;stroke-width:1.0;" width="10" x="2774.5" y="344.8828"/><rect fill="#FFFFFF" height="42.5547" style="stroke:#181818;stroke-width:1.0;" width="10" x="2774.5" y="445.9922"/><rect fill="none" height="390.9922" style="stroke:#000000;stroke-width:1.5;" width="2704.5" x="316" y="105.5547"/><line style="stroke:#181818;stroke-width:0.5;stroke-dasharray:5.0,5.0;" x1="111" x2="111" y1="88.5547" y2="639.2109"/><line style="stroke:#181818;stroke-width:0.5;stroke-dasharray:5.0,5.0;" x1="431" x2="431" y1="88.5547" y2="639.2109"/><line style="stroke:#181818;stroke-width:0.5;stroke-dasharray:5.0,5.0;" x1="1610" x2="1610" y1="88.5547" y2="639.2109"/><line style="stroke:#181818;stroke-width:0.5;stroke-dasharray:5.0,5.0;" x1="2774" x2="2774" y1="88.5547" y2="639.2109"/><text fill="#000000" font-family="sans-serif" font-size="20" lengthAdjust="spacing" textLength="207" x="5" y="84.3359">System Administrator</text><ellipse cx="111.5" cy="13.5" fill="#E3E3E3" rx="8" ry="8" style="stroke:#181818;stroke-width:0.5;"/><path d="M111.5,21.5 L111.5,48.5 M98.5,29.5 L124.5,29.5 M111.5,48.5 L98.5,63.5 M111.5,48.5 L124.5,63.5 " fill="none" style="stroke:#181818;stroke-width:0.5;"/><text fill="#000000" font-family="sans-serif" font-size="20" lengthAdjust="spacing" textLength="207" x="5" y="657.5469">System Administrator</text><ellipse cx="111.5" cy="670.2656" fill="#E3E3E3" rx="8" ry="8" style="stroke:#181818;stroke-width:0.5;"/><path d="M111.5,678.2656 L111.5,705.2656 M98.5,686.2656 L124.5,686.2656 M111.5,705.2656 L98.5,720.2656 M111.5,705.2656 L124.5,720.2656 " fill="none" style="stroke:#181818;stroke-width:0.5;"/><rect fill="#E3E3E3" height="37.5547" rx="2.5" ry="2.5" style="stroke:#181818;stroke-width:0.5;" width="211" x="326" y="50"/><text fill="#000000" font-family="sans-serif" font-size="20" lengthAdjust="spacing" textLength="197" x="333" y="76.3359">:RegisterEmployeeUI</text><rect fill="#E3E3E3" height="37.5547" rx="2.5" ry="2.5" style="stroke:#181818;stroke-width:0.5;" width="211" x="326" y="638.2109"/><text fill="#000000" font-family="sans-serif" font-size="20" lengthAdjust="spacing" textLength="197" x="333" y="664.5469">:RegisterEmployeeUI</text><rect fill="#E3E3E3" height="37.5547" rx="2.5" ry="2.5" style="stroke:#181818;stroke-width:0.5;" width="287" x="1467" y="50"/><text fill="#000000" font-family="sans-serif" font-size="20" lengthAdjust="spacing" textLength="273" x="1474" y="76.3359">:RegisterEmployeeController</text><rect fill="#E3E3E3" height="37.5547" rx="2.5" ry="2.5" style="stroke:#181818;stroke-width:0.5;" width="287" x="1467" y="638.2109"/><text fill="#000000" font-family="sans-serif" font-size="20" lengthAdjust="spacing" textLength="273" x="1474" y="664.5469">:RegisterEmployeeController</text><rect fill="#E3E3E3" height="37.5547" rx="2.5" ry="2.5" style="stroke:#181818;stroke-width:0.5;" width="215" x="2667" y="50"/><text fill="#000000" font-family="sans-serif" font-size="20" lengthAdjust="spacing" textLength="201" x="2674" y="76.3359">:EmployeeRepository</text><rect fill="#E3E3E3" height="37.5547" rx="2.5" ry="2.5" style="stroke:#181818;stroke-width:0.5;" width="215" x="2667" y="638.2109"/><text fill="#000000" font-family="sans-serif" font-size="20" lengthAdjust="spacing" textLength="201" x="2674" y="664.5469">:EmployeeRepository</text><rect fill="#FFFFFF" height="531.6563" style="stroke:#181818;stroke-width:1.0;" width="10" x="426.5" y="98.5547"/><rect fill="#FFFFFF" height="42.5547" style="stroke:#181818;stroke-width:1.0;" width="10" x="431.5" y="578.6563"/><rect fill="#FFFFFF" height="372.4375" style="stroke:#181818;stroke-width:1.0;" width="10" x="1605.5" y="160.6641"/><rect fill="#FFFFFF" height="431.9922" style="stroke:#181818;stroke-width:1.0;" width="10" x="2769.5" y="198.2188"/><rect fill="#FFFFFF" height="48.5547" style="stroke:#181818;stroke-width:1.0;" width="10" x="2774.5" y="243.7734"/><rect fill="#FFFFFF" height="48.5547" style="stroke:#181818;stroke-width:1.0;" width="10" x="2774.5" y="344.8828"/><rect fill="#FFFFFF" height="42.5547" style="stroke:#181818;stroke-width:1.0;" width="10" x="2774.5" y="445.9922"/><path d="M316,105.5547 L605,105.5547 L605,121.1094 L595,131.1094 L316,131.1094 L316,105.5547 " fill="#EEEEEE" style="stroke:#000000;stroke-width:1.5;"/><rect fill="none" height="390.9922" style="stroke:#000000;stroke-width:1.5;" width="2704.5" x="316" y="105.5547"/><text fill="#000000" font-family="sans-serif" font-size="20" font-weight="bold" lengthAdjust="spacing" textLength="244" x="331" y="125.8906">Register New Employee</text><polygon fill="#181818" points="1593.5,156.6641,1603.5,160.6641,1593.5,164.6641,1597.5,160.6641" style="stroke:#181818;stroke-width:1.0;"/><line style="stroke:#181818;stroke-width:1.0;" x1="436.5" x2="1599.5" y1="160.6641" y2="160.6641"/><text fill="#000000" font-family="sans-serif" font-size="20" font-weight="bold" lengthAdjust="spacing" textLength="26" x="443.5" y="154.4453">10</text><text fill="#000000" font-family="sans-serif" font-size="20" lengthAdjust="spacing" textLength="1120" x="473.5" y="154.4453">registerEmployee(role, name, passportCardNumber, taxNumber, address, email, telephoneNumber, selectedAgency)</text><polygon fill="#181818" points="2757.5,194.2188,2767.5,198.2188,2757.5,202.2188,2761.5,198.2188" style="stroke:#181818;stroke-width:1.0;"/><line style="stroke:#181818;stroke-width:1.0;" x1="1615.5" x2="2763.5" y1="198.2188" y2="198.2188"/><text fill="#000000" font-family="sans-serif" font-size="20" font-weight="bold" lengthAdjust="spacing" textLength="26" x="1622.5" y="192">11</text><text fill="#000000" font-family="sans-serif" font-size="20" lengthAdjust="spacing" textLength="1105" x="1652.5" y="192">createEmployee(role, name, passportCardNumber, taxNumber, address, email, telephoneNumber, selectedAgency)</text><line style="stroke:#181818;stroke-width:1.0;" x1="2779.5" x2="2826.5" y1="230.7734" y2="230.7734"/><line style="stroke:#181818;stroke-width:1.0;" x1="2826.5" x2="2826.5" y1="230.7734" y2="243.7734"/><line style="stroke:#181818;stroke-width:1.0;" x1="2785.5" x2="2826.5" y1="243.7734" y2="243.7734"/><polygon fill="#181818" points="2795.5,239.7734,2785.5,243.7734,2795.5,247.7734,2791.5,243.7734" style="stroke:#181818;stroke-width:1.0;"/><text fill="#000000" font-family="sans-serif" font-size="20" font-weight="bold" lengthAdjust="spacing" textLength="26" x="2791.5" y="224.5547">12</text><text fill="#000000" font-family="sans-serif" font-size="20" lengthAdjust="spacing" textLength="133" x="2821.5" y="224.5547">validateData()</text><line style="stroke:#181818;stroke-width:1.0;stroke-dasharray:2.0,2.0;" x1="2784.5" x2="2826.5" y1="291.3281" y2="291.3281"/><line style="stroke:#181818;stroke-width:1.0;stroke-dasharray:2.0,2.0;" x1="2826.5" x2="2826.5" y1="291.3281" y2="304.3281"/><line style="stroke:#181818;stroke-width:1.0;stroke-dasharray:2.0,2.0;" x1="2779.5" x2="2826.5" y1="304.3281" y2="304.3281"/><polygon fill="#181818" points="2789.5,300.3281,2779.5,304.3281,2789.5,308.3281,2785.5,304.3281" style="stroke:#181818;stroke-width:1.0;"/><text fill="#000000" font-family="sans-serif" font-size="20" font-weight="bold" lengthAdjust="spacing" textLength="26" x="2791.5" y="285.1094">13</text><text fill="#000000" font-family="sans-serif" font-size="20" lengthAdjust="spacing" textLength="153" x="2821.5" y="285.1094">validationResult</text><line style="stroke:#181818;stroke-width:1.0;" x1="2779.5" x2="2826.5" y1="331.8828" y2="331.8828"/><line style="stroke:#181818;stroke-width:1.0;" x1="2826.5" x2="2826.5" y1="331.8828" y2="344.8828"/><line style="stroke:#181818;stroke-width:1.0;" x1="2785.5" x2="2826.5" y1="344.8828" y2="344.8828"/><polygon fill="#181818" points="2795.5,340.8828,2785.5,344.8828,2795.5,348.8828,2791.5,344.8828" style="stroke:#181818;stroke-width:1.0;"/><text fill="#000000" font-family="sans-serif" font-size="20" font-weight="bold" lengthAdjust="spacing" textLength="26" x="2791.5" y="325.6641">14</text><text fill="#000000" font-family="sans-serif" font-size="20" lengthAdjust="spacing" textLength="187" x="2821.5" y="325.6641">generatePassword()</text><line style="stroke:#181818;stroke-width:1.0;stroke-dasharray:2.0,2.0;" x1="2784.5" x2="2826.5" y1="392.4375" y2="392.4375"/><line style="stroke:#181818;stroke-width:1.0;stroke-dasharray:2.0,2.0;" x1="2826.5" x2="2826.5" y1="392.4375" y2="405.4375"/><line style="stroke:#181818;stroke-width:1.0;stroke-dasharray:2.0,2.0;" x1="2779.5" x2="2826.5" y1="405.4375" y2="405.4375"/><polygon fill="#181818" points="2789.5,401.4375,2779.5,405.4375,2789.5,409.4375,2785.5,405.4375" style="stroke:#181818;stroke-width:1.0;"/><text fill="#000000" font-family="sans-serif" font-size="20" font-weight="bold" lengthAdjust="spacing" textLength="26" x="2791.5" y="386.2188">15</text><text fill="#000000" font-family="sans-serif" font-size="20" lengthAdjust="spacing" textLength="186" x="2821.5" y="386.2188">generatedPassword</text><line style="stroke:#181818;stroke-width:1.0;" x1="2779.5" x2="2826.5" y1="432.9922" y2="432.9922"/><line style="stroke:#181818;stroke-width:1.0;" x1="2826.5" x2="2826.5" y1="432.9922" y2="445.9922"/><line style="stroke:#181818;stroke-width:1.0;" x1="2785.5" x2="2826.5" y1="445.9922" y2="445.9922"/><polygon fill="#181818" points="2795.5,441.9922,2785.5,445.9922,2795.5,449.9922,2791.5,445.9922" style="stroke:#181818;stroke-width:1.0;"/><text fill="#000000" font-family="sans-serif" font-size="20" font-weight="bold" lengthAdjust="spacing" textLength="26" x="2791.5" y="426.7734">16</text><text fill="#000000" font-family="sans-serif" font-size="20" lengthAdjust="spacing" textLength="149" x="2821.5" y="426.7734">saveEmployee()</text><polygon fill="#181818" points="1626.5,484.5469,1616.5,488.5469,1626.5,492.5469,1622.5,488.5469" style="stroke:#181818;stroke-width:1.0;"/><line style="stroke:#181818;stroke-width:1.0;stroke-dasharray:2.0,2.0;" x1="1620.5" x2="2768.5" y1="488.5469" y2="488.5469"/><text fill="#000000" font-family="sans-serif" font-size="20" font-weight="bold" lengthAdjust="spacing" textLength="26" x="1632.5" y="482.3281">17</text><text fill="#000000" font-family="sans-serif" font-size="20" lengthAdjust="spacing" textLength="73" x="1662.5" y="482.3281">success</text><polygon fill="#181818" points="447.5,529.1016,437.5,533.1016,447.5,537.1016,443.5,533.1016" style="stroke:#181818;stroke-width:1.0;"/><line style="stroke:#181818;stroke-width:1.0;stroke-dasharray:2.0,2.0;" x1="441.5" x2="1609.5" y1="533.1016" y2="533.1016"/><text fill="#000000" font-family="sans-serif" font-size="20" font-weight="bold" lengthAdjust="spacing" textLength="26" x="453.5" y="526.8828">18</text><text fill="#000000" font-family="sans-serif" font-size="20" lengthAdjust="spacing" textLength="73" x="483.5" y="526.8828">success</text><line style="stroke:#181818;stroke-width:1.0;" x1="436.5" x2="483.5" y1="565.6563" y2="565.6563"/><line style="stroke:#181818;stroke-width:1.0;" x1="483.5" x2="483.5" y1="565.6563" y2="578.6563"/><line style="stroke:#181818;stroke-width:1.0;" x1="442.5" x2="483.5" y1="578.6563" y2="578.6563"/><polygon fill="#181818" points="452.5,574.6563,442.5,578.6563,452.5,582.6563,448.5,578.6563" style="stroke:#181818;stroke-width:1.0;"/><text fill="#000000" font-family="sans-serif" font-size="20" font-weight="bold" lengthAdjust="spacing" textLength="26" x="448.5" y="559.4375">19</text><text fill="#000000" font-family="sans-serif" font-size="20" lengthAdjust="spacing" textLength="239" x="478.5" y="559.4375">displaySuccessMessage()</text><polygon fill="#181818" points="122.5,617.2109,112.5,621.2109,122.5,625.2109,118.5,621.2109" style="stroke:#181818;stroke-width:1.0;"/><line style="stroke:#181818;stroke-width:1.0;stroke-dasharray:2.0,2.0;" x1="116.5" x2="425.5" y1="621.2109" y2="621.2109"/><text fill="#000000" font-family="sans-serif" font-size="20" font-weight="bold" lengthAdjust="spacing" textLength="26" x="128.5" y="614.9922">20</text><text fill="#000000" font-family="sans-serif" font-size="20" lengthAdjust="spacing" textLength="261" x="158.5" y="614.9922">operation success message</text><!--SRC=[lPHHYnCn4CVVzrCCVJgXmkdZFGX7LIZe8Qtz06CojmrDCY6JRLq_lTEikTigAkU12xliJlx_cLycoSh1nOGPWsTp80kMxd7mvJt7idNV25vVTz8a43YosMSE12KFD1j9Q0xOqxQCdY2JAHXxFnV87YsVNEpX7hrGr-5GE0xX2sLuTQsVfd26nNQKGW5kRN3HISceqGMWW8nIWvscAywuXB70ucP3lSeelml9yqYqMrVrRlqNtKhdbzbxchAlFcy-_EHeoWqb5gSOOrNEmvNQ7R7GkM3NPnuIj4fmHwS7TGTwxTRmyaqj1JVQeqkWAwMX9KGC-ameaZYN5MPxLtkqX89VsojQcqba2HJGUHqYJsdFaPf0D60AsTkUeXbVrEeFg7MkDLHH56a-9qKpcLJt_y4kMtiUkW3x5VI8tbbrliM2LqzCzjjiZkE6H8z0DLdwTpoT8-a6fa_Qj1Dd-tp4bj6sbCzc53m-hlJJ-NviPXcCqNN_8mr5stNJZbEZdeL7symoRSxff5IDTP8yZjj9-b5l_SqewSN9E-lLqFuHQkDqRfIkPIi2ORBEYwdrEm00]--></g></svg>