<?xml version="1.0" encoding="UTF-8" standalone="no"?><svg xmlns="http://www.w3.org/2000/svg" xmlns:xlink="http://www.w3.org/1999/xlink" contentStyleType="text/css" height="1188px" preserveAspectRatio="none" style="width:3888px;height:1188px;background:#FFFFFF;" version="1.1" viewBox="0 0 3888 1188" width="3888px" zoomAndPan="magnify"><defs/><g><rect fill="#FFFFFF" height="984.3125" style="stroke:#181818;stroke-width:1.0;" width="10" x="106.5" y="98.5547"/><rect fill="#FFFFFF" height="37.5547" style="stroke:#181818;stroke-width:1.0;" width="10" x="1193.5" y="128.1094"/><rect fill="#FFFFFF" height="187.7734" style="stroke:#181818;stroke-width:1.0;" width="10" x="1193.5" y="203.2188"/><rect fill="#FFFFFF" height="37.5547" style="stroke:#181818;stroke-width:1.0;" width="10" x="1193.5" y="428.5469"/><rect fill="#FFFFFF" height="588.2109" style="stroke:#181818;stroke-width:1.0;" width="10" x="1193.5" y="503.6563"/><rect fill="#FFFFFF" height="42.5547" style="stroke:#181818;stroke-width:1.0;" width="10" x="1198.5" y="952.2031"/><rect fill="#FFFFFF" height="42.5547" style="stroke:#181818;stroke-width:1.0;" width="10" x="1198.5" y="1040.3125"/><rect fill="#FFFFFF" height="112.6641" style="stroke:#181818;stroke-width:1.0;" width="10" x="2372.5" y="240.7734"/><rect fill="#FFFFFF" height="365.4375" style="stroke:#181818;stroke-width:1.0;" width="10" x="2372.5" y="541.2109"/><rect fill="#FFFFFF" height="513.1016" style="stroke:#181818;stroke-width:1.0;" width="10" x="3536.5" y="578.7656"/><rect fill="#FFFFFF" height="48.5547" style="stroke:#181818;stroke-width:1.0;" width="10" x="3541.5" y="624.3203"/><rect fill="#FFFFFF" height="48.5547" style="stroke:#181818;stroke-width:1.0;" width="10" x="3541.5" y="725.4297"/><rect fill="#FFFFFF" height="42.5547" style="stroke:#181818;stroke-width:1.0;" width="10" x="3541.5" y="826.5391"/><rect fill="#FFFFFF" height="37.5547" style="stroke:#181818;stroke-width:1.0;" width="10" x="3781.5" y="278.3281"/><line style="stroke:#181818;stroke-width:0.5;stroke-dasharray:5.0,5.0;" x1="111" x2="111" y1="88.5547" y2="1100.8672"/><line style="stroke:#181818;stroke-width:0.5;stroke-dasharray:5.0,5.0;" x1="1198" x2="1198" y1="88.5547" y2="1100.8672"/><line style="stroke:#181818;stroke-width:0.5;stroke-dasharray:5.0,5.0;" x1="2377" x2="2377" y1="88.5547" y2="1100.8672"/><line style="stroke:#181818;stroke-width:0.5;stroke-dasharray:5.0,5.0;" x1="3541" x2="3541" y1="88.5547" y2="1100.8672"/><line style="stroke:#181818;stroke-width:0.5;stroke-dasharray:5.0,5.0;" x1="3786" x2="3786" y1="88.5547" y2="1100.8672"/><text fill="#000000" font-family="sans-serif" font-size="20" lengthAdjust="spacing" textLength="207" x="5" y="84.3359">System Administrator</text><ellipse cx="111.5" cy="13.5" fill="#E3E3E3" rx="8" ry="8" style="stroke:#181818;stroke-width:0.5;"/><path d="M111.5,21.5 L111.5,48.5 M98.5,29.5 L124.5,29.5 M111.5,48.5 L98.5,63.5 M111.5,48.5 L124.5,63.5 " fill="none" style="stroke:#181818;stroke-width:0.5;"/><text fill="#000000" font-family="sans-serif" font-size="20" lengthAdjust="spacing" textLength="207" x="5" y="1119.2031">System Administrator</text><ellipse cx="111.5" cy="1131.9219" fill="#E3E3E3" rx="8" ry="8" style="stroke:#181818;stroke-width:0.5;"/><path d="M111.5,1139.9219 L111.5,1166.9219 M98.5,1147.9219 L124.5,1147.9219 M111.5,1166.9219 L98.5,1181.9219 M111.5,1166.9219 L124.5,1181.9219 " fill="none" style="stroke:#181818;stroke-width:0.5;"/><rect fill="#E3E3E3" height="37.5547" rx="2.5" ry="2.5" style="stroke:#181818;stroke-width:0.5;" width="211" x="1093" y="50"/><text fill="#000000" font-family="sans-serif" font-size="20" lengthAdjust="spacing" textLength="197" x="1100" y="76.3359">:RegisterEmployeeUI</text><rect fill="#E3E3E3" height="37.5547" rx="2.5" ry="2.5" style="stroke:#181818;stroke-width:0.5;" width="211" x="1093" y="1099.8672"/><text fill="#000000" font-family="sans-serif" font-size="20" lengthAdjust="spacing" textLength="197" x="1100" y="1126.2031">:RegisterEmployeeUI</text><rect fill="#E3E3E3" height="37.5547" rx="2.5" ry="2.5" style="stroke:#181818;stroke-width:0.5;" width="287" x="2234" y="50"/><text fill="#000000" font-family="sans-serif" font-size="20" lengthAdjust="spacing" textLength="273" x="2241" y="76.3359">:RegisterEmployeeController</text><rect fill="#E3E3E3" height="37.5547" rx="2.5" ry="2.5" style="stroke:#181818;stroke-width:0.5;" width="287" x="2234" y="1099.8672"/><text fill="#000000" font-family="sans-serif" font-size="20" lengthAdjust="spacing" textLength="273" x="2241" y="1126.2031">:RegisterEmployeeController</text><rect fill="#E3E3E3" height="37.5547" rx="2.5" ry="2.5" style="stroke:#181818;stroke-width:0.5;" width="215" x="3434" y="50"/><text fill="#000000" font-family="sans-serif" font-size="20" lengthAdjust="spacing" textLength="201" x="3441" y="76.3359">:EmployeeRepository</text><rect fill="#E3E3E3" height="37.5547" rx="2.5" ry="2.5" style="stroke:#181818;stroke-width:0.5;" width="215" x="3434" y="1099.8672"/><text fill="#000000" font-family="sans-serif" font-size="20" lengthAdjust="spacing" textLength="201" x="3441" y="1126.2031">:EmployeeRepository</text><rect fill="#E3E3E3" height="37.5547" rx="2.5" ry="2.5" style="stroke:#181818;stroke-width:0.5;" width="191" x="3691" y="50"/><text fill="#000000" font-family="sans-serif" font-size="20" lengthAdjust="spacing" textLength="177" x="3698" y="76.3359">:AgencyRepository</text><rect fill="#E3E3E3" height="37.5547" rx="2.5" ry="2.5" style="stroke:#181818;stroke-width:0.5;" width="191" x="3691" y="1099.8672"/><text fill="#000000" font-family="sans-serif" font-size="20" lengthAdjust="spacing" textLength="177" x="3698" y="1126.2031">:AgencyRepository</text><rect fill="#FFFFFF" height="984.3125" style="stroke:#181818;stroke-width:1.0;" width="10" x="106.5" y="98.5547"/><rect fill="#FFFFFF" height="37.5547" style="stroke:#181818;stroke-width:1.0;" width="10" x="1193.5" y="128.1094"/><rect fill="#FFFFFF" height="187.7734" style="stroke:#181818;stroke-width:1.0;" width="10" x="1193.5" y="203.2188"/><rect fill="#FFFFFF" height="37.5547" style="stroke:#181818;stroke-width:1.0;" width="10" x="1193.5" y="428.5469"/><rect fill="#FFFFFF" height="588.2109" style="stroke:#181818;stroke-width:1.0;" width="10" x="1193.5" y="503.6563"/><rect fill="#FFFFFF" height="42.5547" style="stroke:#181818;stroke-width:1.0;" width="10" x="1198.5" y="952.2031"/><rect fill="#FFFFFF" height="42.5547" style="stroke:#181818;stroke-width:1.0;" width="10" x="1198.5" y="1040.3125"/><rect fill="#FFFFFF" height="112.6641" style="stroke:#181818;stroke-width:1.0;" width="10" x="2372.5" y="240.7734"/><rect fill="#FFFFFF" height="365.4375" style="stroke:#181818;stroke-width:1.0;" width="10" x="2372.5" y="541.2109"/><rect fill="#FFFFFF" height="513.1016" style="stroke:#181818;stroke-width:1.0;" width="10" x="3536.5" y="578.7656"/><rect fill="#FFFFFF" height="48.5547" style="stroke:#181818;stroke-width:1.0;" width="10" x="3541.5" y="624.3203"/><rect fill="#FFFFFF" height="48.5547" style="stroke:#181818;stroke-width:1.0;" width="10" x="3541.5" y="725.4297"/><rect fill="#FFFFFF" height="42.5547" style="stroke:#181818;stroke-width:1.0;" width="10" x="3541.5" y="826.5391"/><rect fill="#FFFFFF" height="37.5547" style="stroke:#181818;stroke-width:1.0;" width="10" x="3781.5" y="278.3281"/><polygon fill="#181818" points="1181.5,124.1094,1191.5,128.1094,1181.5,132.1094,1185.5,128.1094" style="stroke:#181818;stroke-width:1.0;"/><line style="stroke:#181818;stroke-width:1.0;" x1="116.5" x2="1187.5" y1="128.1094" y2="128.1094"/><text fill="#000000" font-family="sans-serif" font-size="20" font-weight="bold" lengthAdjust="spacing" textLength="13" x="123.5" y="121.8906">1</text><text fill="#000000" font-family="sans-serif" font-size="20" lengthAdjust="spacing" textLength="346" x="140.5" y="121.8906">requests to register a new employee</text><polygon fill="#181818" points="127.5,161.6641,117.5,165.6641,127.5,169.6641,123.5,165.6641" style="stroke:#181818;stroke-width:1.0;"/><line style="stroke:#181818;stroke-width:1.0;stroke-dasharray:2.0,2.0;" x1="121.5" x2="1197.5" y1="165.6641" y2="165.6641"/><text fill="#000000" font-family="sans-serif" font-size="20" font-weight="bold" lengthAdjust="spacing" textLength="13" x="133.5" y="159.4453">2</text><text fill="#000000" font-family="sans-serif" font-size="20" lengthAdjust="spacing" textLength="365" x="150.5" y="159.4453">requests the role of the new employee</text><polygon fill="#181818" points="1181.5,199.2188,1191.5,203.2188,1181.5,207.2188,1185.5,203.2188" style="stroke:#181818;stroke-width:1.0;"/><line style="stroke:#181818;stroke-width:1.0;" x1="116.5" x2="1187.5" y1="203.2188" y2="203.2188"/><text fill="#000000" font-family="sans-serif" font-size="20" font-weight="bold" lengthAdjust="spacing" textLength="13" x="123.5" y="197">3</text><text fill="#000000" font-family="sans-serif" font-size="20" lengthAdjust="spacing" textLength="366" x="140.5" y="197">provides the role of the new employee</text><polygon fill="#181818" points="2360.5,236.7734,2370.5,240.7734,2360.5,244.7734,2364.5,240.7734" style="stroke:#181818;stroke-width:1.0;"/><line style="stroke:#181818;stroke-width:1.0;" x1="1203.5" x2="2366.5" y1="240.7734" y2="240.7734"/><text fill="#000000" font-family="sans-serif" font-size="20" font-weight="bold" lengthAdjust="spacing" textLength="13" x="1210.5" y="234.5547">4</text><text fill="#000000" font-family="sans-serif" font-size="20" lengthAdjust="spacing" textLength="130" x="1227.5" y="234.5547">getAgencies()</text><polygon fill="#181818" points="3769.5,274.3281,3779.5,278.3281,3769.5,282.3281,3773.5,278.3281" style="stroke:#181818;stroke-width:1.0;"/><line style="stroke:#181818;stroke-width:1.0;" x1="2382.5" x2="3775.5" y1="278.3281" y2="278.3281"/><text fill="#000000" font-family="sans-serif" font-size="20" font-weight="bold" lengthAdjust="spacing" textLength="13" x="2389.5" y="272.1094">5</text><text fill="#000000" font-family="sans-serif" font-size="20" lengthAdjust="spacing" textLength="156" x="2406.5" y="272.1094">getAllAgencies()</text><polygon fill="#181818" points="2393.5,311.8828,2383.5,315.8828,2393.5,319.8828,2389.5,315.8828" style="stroke:#181818;stroke-width:1.0;"/><line style="stroke:#181818;stroke-width:1.0;stroke-dasharray:2.0,2.0;" x1="2387.5" x2="3785.5" y1="315.8828" y2="315.8828"/><text fill="#000000" font-family="sans-serif" font-size="20" font-weight="bold" lengthAdjust="spacing" textLength="13" x="2399.5" y="309.6641">6</text><text fill="#000000" font-family="sans-serif" font-size="20" lengthAdjust="spacing" textLength="100" x="2416.5" y="309.6641">agencyList</text><polygon fill="#181818" points="1214.5,349.4375,1204.5,353.4375,1214.5,357.4375,1210.5,353.4375" style="stroke:#181818;stroke-width:1.0;"/><line style="stroke:#181818;stroke-width:1.0;stroke-dasharray:2.0,2.0;" x1="1208.5" x2="2376.5" y1="353.4375" y2="353.4375"/><text fill="#000000" font-family="sans-serif" font-size="20" font-weight="bold" lengthAdjust="spacing" textLength="13" x="1220.5" y="347.2188">7</text><text fill="#000000" font-family="sans-serif" font-size="20" lengthAdjust="spacing" textLength="100" x="1237.5" y="347.2188">agencyList</text><polygon fill="#181818" points="127.5,386.9922,117.5,390.9922,127.5,394.9922,123.5,390.9922" style="stroke:#181818;stroke-width:1.0;"/><line style="stroke:#181818;stroke-width:1.0;stroke-dasharray:2.0,2.0;" x1="121.5" x2="1197.5" y1="390.9922" y2="390.9922"/><text fill="#000000" font-family="sans-serif" font-size="20" font-weight="bold" lengthAdjust="spacing" textLength="13" x="133.5" y="384.7734">8</text><text fill="#000000" font-family="sans-serif" font-size="20" lengthAdjust="spacing" textLength="244" x="150.5" y="384.7734">shows the list of agencies</text><polygon fill="#181818" points="1181.5,424.5469,1191.5,428.5469,1181.5,432.5469,1185.5,428.5469" style="stroke:#181818;stroke-width:1.0;"/><line style="stroke:#181818;stroke-width:1.0;" x1="116.5" x2="1187.5" y1="428.5469" y2="428.5469"/><text fill="#000000" font-family="sans-serif" font-size="20" font-weight="bold" lengthAdjust="spacing" textLength="13" x="123.5" y="422.3281">9</text><text fill="#000000" font-family="sans-serif" font-size="20" lengthAdjust="spacing" textLength="296" x="140.5" y="422.3281">selects the agency from the list</text><polygon fill="#181818" points="127.5,462.1016,117.5,466.1016,127.5,470.1016,123.5,466.1016" style="stroke:#181818;stroke-width:1.0;"/><line style="stroke:#181818;stroke-width:1.0;stroke-dasharray:2.0,2.0;" x1="121.5" x2="1197.5" y1="466.1016" y2="466.1016"/><text fill="#000000" font-family="sans-serif" font-size="20" font-weight="bold" lengthAdjust="spacing" textLength="26" x="133.5" y="459.8828">10</text><text fill="#000000" font-family="sans-serif" font-size="20" lengthAdjust="spacing" textLength="1023" x="163.5" y="459.8828">requests the name, passport card number, tax number, address, email address, contact telephone number</text><polygon fill="#181818" points="1181.5,499.6563,1191.5,503.6563,1181.5,507.6563,1185.5,503.6563" style="stroke:#181818;stroke-width:1.0;"/><line style="stroke:#181818;stroke-width:1.0;" x1="116.5" x2="1187.5" y1="503.6563" y2="503.6563"/><text fill="#000000" font-family="sans-serif" font-size="20" font-weight="bold" lengthAdjust="spacing" textLength="26" x="123.5" y="497.4375">11</text><text fill="#000000" font-family="sans-serif" font-size="20" lengthAdjust="spacing" textLength="266" x="153.5" y="497.4375">provides the necessary data</text><polygon fill="#181818" points="2360.5,537.2109,2370.5,541.2109,2360.5,545.2109,2364.5,541.2109" style="stroke:#181818;stroke-width:1.0;"/><line style="stroke:#181818;stroke-width:1.0;" x1="1203.5" x2="2366.5" y1="541.2109" y2="541.2109"/><text fill="#000000" font-family="sans-serif" font-size="20" font-weight="bold" lengthAdjust="spacing" textLength="26" x="1210.5" y="534.9922">12</text><text fill="#000000" font-family="sans-serif" font-size="20" lengthAdjust="spacing" textLength="1120" x="1240.5" y="534.9922">registerEmployee(role, name, passportCardNumber, taxNumber, address, email, telephoneNumber, selectedAgency)</text><polygon fill="#181818" points="3524.5,574.7656,3534.5,578.7656,3524.5,582.7656,3528.5,578.7656" style="stroke:#181818;stroke-width:1.0;"/><line style="stroke:#181818;stroke-width:1.0;" x1="2382.5" x2="3530.5" y1="578.7656" y2="578.7656"/><text fill="#000000" font-family="sans-serif" font-size="20" font-weight="bold" lengthAdjust="spacing" textLength="26" x="2389.5" y="572.5469">13</text><text fill="#000000" font-family="sans-serif" font-size="20" lengthAdjust="spacing" textLength="1105" x="2419.5" y="572.5469">createEmployee(role, name, passportCardNumber, taxNumber, address, email, telephoneNumber, selectedAgency)</text><line style="stroke:#181818;stroke-width:1.0;" x1="3546.5" x2="3593.5" y1="611.3203" y2="611.3203"/><line style="stroke:#181818;stroke-width:1.0;" x1="3593.5" x2="3593.5" y1="611.3203" y2="624.3203"/><line style="stroke:#181818;stroke-width:1.0;" x1="3552.5" x2="3593.5" y1="624.3203" y2="624.3203"/><polygon fill="#181818" points="3562.5,620.3203,3552.5,624.3203,3562.5,628.3203,3558.5,624.3203" style="stroke:#181818;stroke-width:1.0;"/><text fill="#000000" font-family="sans-serif" font-size="20" font-weight="bold" lengthAdjust="spacing" textLength="26" x="3558.5" y="605.1016">14</text><text fill="#000000" font-family="sans-serif" font-size="20" lengthAdjust="spacing" textLength="133" x="3588.5" y="605.1016">validateData()</text><line style="stroke:#181818;stroke-width:1.0;stroke-dasharray:2.0,2.0;" x1="3551.5" x2="3593.5" y1="671.875" y2="671.875"/><line style="stroke:#181818;stroke-width:1.0;stroke-dasharray:2.0,2.0;" x1="3593.5" x2="3593.5" y1="671.875" y2="684.875"/><line style="stroke:#181818;stroke-width:1.0;stroke-dasharray:2.0,2.0;" x1="3546.5" x2="3593.5" y1="684.875" y2="684.875"/><polygon fill="#181818" points="3556.5,680.875,3546.5,684.875,3556.5,688.875,3552.5,684.875" style="stroke:#181818;stroke-width:1.0;"/><text fill="#000000" font-family="sans-serif" font-size="20" font-weight="bold" lengthAdjust="spacing" textLength="26" x="3558.5" y="665.6563">15</text><text fill="#000000" font-family="sans-serif" font-size="20" lengthAdjust="spacing" textLength="153" x="3588.5" y="665.6563">validationResult</text><line style="stroke:#181818;stroke-width:1.0;" x1="3546.5" x2="3593.5" y1="712.4297" y2="712.4297"/><line style="stroke:#181818;stroke-width:1.0;" x1="3593.5" x2="3593.5" y1="712.4297" y2="725.4297"/><line style="stroke:#181818;stroke-width:1.0;" x1="3552.5" x2="3593.5" y1="725.4297" y2="725.4297"/><polygon fill="#181818" points="3562.5,721.4297,3552.5,725.4297,3562.5,729.4297,3558.5,725.4297" style="stroke:#181818;stroke-width:1.0;"/><text fill="#000000" font-family="sans-serif" font-size="20" font-weight="bold" lengthAdjust="spacing" textLength="26" x="3558.5" y="706.2109">16</text><text fill="#000000" font-family="sans-serif" font-size="20" lengthAdjust="spacing" textLength="187" x="3588.5" y="706.2109">generatePassword()</text><line style="stroke:#181818;stroke-width:1.0;stroke-dasharray:2.0,2.0;" x1="3551.5" x2="3593.5" y1="772.9844" y2="772.9844"/><line style="stroke:#181818;stroke-width:1.0;stroke-dasharray:2.0,2.0;" x1="3593.5" x2="3593.5" y1="772.9844" y2="785.9844"/><line style="stroke:#181818;stroke-width:1.0;stroke-dasharray:2.0,2.0;" x1="3546.5" x2="3593.5" y1="785.9844" y2="785.9844"/><polygon fill="#181818" points="3556.5,781.9844,3546.5,785.9844,3556.5,789.9844,3552.5,785.9844" style="stroke:#181818;stroke-width:1.0;"/><text fill="#000000" font-family="sans-serif" font-size="20" font-weight="bold" lengthAdjust="spacing" textLength="26" x="3558.5" y="766.7656">17</text><text fill="#000000" font-family="sans-serif" font-size="20" lengthAdjust="spacing" textLength="186" x="3588.5" y="766.7656">generatedPassword</text><line style="stroke:#181818;stroke-width:1.0;" x1="3546.5" x2="3593.5" y1="813.5391" y2="813.5391"/><line style="stroke:#181818;stroke-width:1.0;" x1="3593.5" x2="3593.5" y1="813.5391" y2="826.5391"/><line style="stroke:#181818;stroke-width:1.0;" x1="3552.5" x2="3593.5" y1="826.5391" y2="826.5391"/><polygon fill="#181818" points="3562.5,822.5391,3552.5,826.5391,3562.5,830.5391,3558.5,826.5391" style="stroke:#181818;stroke-width:1.0;"/><text fill="#000000" font-family="sans-serif" font-size="20" font-weight="bold" lengthAdjust="spacing" textLength="26" x="3558.5" y="807.3203">18</text><text fill="#000000" font-family="sans-serif" font-size="20" lengthAdjust="spacing" textLength="149" x="3588.5" y="807.3203">saveEmployee()</text><polygon fill="#181818" points="2393.5,865.0938,2383.5,869.0938,2393.5,873.0938,2389.5,869.0938" style="stroke:#181818;stroke-width:1.0;"/><line style="stroke:#181818;stroke-width:1.0;stroke-dasharray:2.0,2.0;" x1="2387.5" x2="3535.5" y1="869.0938" y2="869.0938"/><text fill="#000000" font-family="sans-serif" font-size="20" font-weight="bold" lengthAdjust="spacing" textLength="26" x="2399.5" y="862.875">19</text><text fill="#000000" font-family="sans-serif" font-size="20" lengthAdjust="spacing" textLength="73" x="2429.5" y="862.875">success</text><polygon fill="#181818" points="1214.5,902.6484,1204.5,906.6484,1214.5,910.6484,1210.5,906.6484" style="stroke:#181818;stroke-width:1.0;"/><line style="stroke:#181818;stroke-width:1.0;stroke-dasharray:2.0,2.0;" x1="1208.5" x2="2376.5" y1="906.6484" y2="906.6484"/><text fill="#000000" font-family="sans-serif" font-size="20" font-weight="bold" lengthAdjust="spacing" textLength="26" x="1220.5" y="900.4297">20</text><text fill="#000000" font-family="sans-serif" font-size="20" lengthAdjust="spacing" textLength="73" x="1250.5" y="900.4297">success</text><line style="stroke:#181818;stroke-width:1.0;" x1="1203.5" x2="1250.5" y1="939.2031" y2="939.2031"/><line style="stroke:#181818;stroke-width:1.0;" x1="1250.5" x2="1250.5" y1="939.2031" y2="952.2031"/><line style="stroke:#181818;stroke-width:1.0;" x1="1209.5" x2="1250.5" y1="952.2031" y2="952.2031"/><polygon fill="#181818" points="1219.5,948.2031,1209.5,952.2031,1219.5,956.2031,1215.5,952.2031" style="stroke:#181818;stroke-width:1.0;"/><text fill="#000000" font-family="sans-serif" font-size="20" font-weight="bold" lengthAdjust="spacing" textLength="26" x="1215.5" y="932.9844">21</text><text fill="#000000" font-family="sans-serif" font-size="20" lengthAdjust="spacing" textLength="239" x="1245.5" y="932.9844">displaySuccessMessage()</text><polygon fill="#181818" points="127.5,990.7578,117.5,994.7578,127.5,998.7578,123.5,994.7578" style="stroke:#181818;stroke-width:1.0;"/><line style="stroke:#181818;stroke-width:1.0;stroke-dasharray:2.0,2.0;" x1="121.5" x2="1192.5" y1="994.7578" y2="994.7578"/><text fill="#000000" font-family="sans-serif" font-size="20" font-weight="bold" lengthAdjust="spacing" textLength="26" x="133.5" y="988.5391">22</text><text fill="#000000" font-family="sans-serif" font-size="20" lengthAdjust="spacing" textLength="261" x="163.5" y="988.5391">operation success message</text><line style="stroke:#181818;stroke-width:1.0;" x1="1203.5" x2="1250.5" y1="1027.3125" y2="1027.3125"/><line style="stroke:#181818;stroke-width:1.0;" x1="1250.5" x2="1250.5" y1="1027.3125" y2="1040.3125"/><line style="stroke:#181818;stroke-width:1.0;" x1="1209.5" x2="1250.5" y1="1040.3125" y2="1040.3125"/><polygon fill="#181818" points="1219.5,1036.3125,1209.5,1040.3125,1219.5,1044.3125,1215.5,1040.3125" style="stroke:#181818;stroke-width:1.0;"/><text fill="#000000" font-family="sans-serif" font-size="20" font-weight="bold" lengthAdjust="spacing" textLength="26" x="1215.5" y="1021.0938">23</text><text fill="#000000" font-family="sans-serif" font-size="20" lengthAdjust="spacing" textLength="476" x="1245.5" y="1021.0938">sendPasswordByEmail(email, generatedPassword)</text><polygon fill="#181818" points="122.5,1078.8672,112.5,1082.8672,122.5,1086.8672,118.5,1082.8672" style="stroke:#181818;stroke-width:1.0;"/><line style="stroke:#181818;stroke-width:1.0;stroke-dasharray:2.0,2.0;" x1="116.5" x2="1192.5" y1="1082.8672" y2="1082.8672"/><text fill="#000000" font-family="sans-serif" font-size="20" font-weight="bold" lengthAdjust="spacing" textLength="26" x="128.5" y="1076.6484">24</text><text fill="#000000" font-family="sans-serif" font-size="20" lengthAdjust="spacing" textLength="372" x="158.5" y="1076.6484">password sent to the employee's email</text><!--SRC=[lLN1Rjim3BtxAuHSbW49CEpOGu6kxO02NJ4awmTm4kC8aILFb9DvNp_QicF5IPQcXzqKvV7nyP6KQQDj2HuAu-G6bL2uWig4hyw6fVw3ulEdZ7g8A9nrSkrTWIBu2fD_If0Ro74PQeF2emnWSvC2Q0tAxRJDnGeCOPP15PojYf_e-Io3ysAoh2bW8UvKeQscu85l9m98K4tjPSPSGKjTWWrYShF0d67e7ulIk1hnzQb5lpvTmDrpSTuPWv7z_iVYUHJH8nTOEj8ieswHwVKeuYv7A-iHVhXiQzHR23WKa_KdCRzbqUA6ZVjL8GKImV4vYXOWBEu4Tga77YupuwWv1- -9KeerDy9nDzogFH-GA3oWEH9IUhVL2Y-m74cvRRta-1n3Mxj6cduSSAtJMOjXxE1E5s7CgQ3Kn2HaFcI3zlQPxKeBI-DYohwwq_WexjXHMhjTDC9mH6C4T2elsaXeU1LYS4mgLhmzUxAhcccXm1al6b7fV10Il19nWMOYmE_z6PJoI3JZFe4smq_9Ky_vH61HvTfPx2Ak6mQBajd0rq91W7-CW1yjtRGPezceYdikucMeuULa2RD1SW-8ngAAFJuxOUc-iYJfaJ7_Lz31av4T23eMk0MZsLPyO6kdRoGvowATNI3nMvus-2evN0lo8upVsPoTy-hzadecrLEzMnF1TkZWs_LqGqcLRCRtVFR3X-84V7WbEepIL1gebn7whLcE_43PwTLsPMC8zwXF8eeOEbx791MXtHlufNviHd7Q3UIHmHS5b1smOGtD1wVPxlvf_q1nqiTYaf_xpzXV]--></g></svg>