<?xml version="1.0" encoding="UTF-8" standalone="no"?><svg xmlns="http://www.w3.org/2000/svg" xmlns:xlink="http://www.w3.org/1999/xlink" contentStyleType="text/css" height="1374px" preserveAspectRatio="none" style="width:2255px;height:1374px;background:#FFFFFF;" version="1.1" viewBox="0 0 2255 1374" width="2255px" zoomAndPan="magnify"><defs/><g><!--class Employee--><g id="elem_Employee"><rect codeLine="8" fill="#F1F1F1" height="120.6641" id="Employee" rx="2.5" ry="2.5" style="stroke:#181818;stroke-width:0.5;" width="297" x="1082" y="994"/><ellipse cx="1179.5" cy="1011" fill="#C2C2C2" rx="12" ry="12" style="stroke:#181818;stroke-width:1.0;"/><path d="M1182.3066,1018.0801 Q1181.623,1018.4316 1180.8711,1018.6074 Q1180.1191,1018.7832 1179.2891,1018.7832 Q1176.3398,1018.7832 1174.7871,1016.8398 Q1173.2344,1014.8965 1173.2344,1011.2246 Q1173.2344,1007.543 1174.7871,1005.5996 Q1176.3398,1003.6563 1179.2891,1003.6563 Q1180.1191,1003.6563 1180.8809,1003.832 Q1181.6426,1004.0078 1182.3066,1004.3594 L1182.3066,1007.5625 Q1181.5645,1006.8789 1180.8662,1006.5615 Q1180.168,1006.2441 1179.4258,1006.2441 Q1177.8438,1006.2441 1177.0381,1007.499 Q1176.2324,1008.7539 1176.2324,1011.2246 Q1176.2324,1013.6855 1177.0381,1014.9404 Q1177.8438,1016.1953 1179.4258,1016.1953 Q1180.168,1016.1953 1180.8662,1015.8779 Q1181.5645,1015.5605 1182.3066,1014.877 Z " fill="#000000"/><text fill="#000000" font-family="sans-serif" font-size="20" lengthAdjust="spacing" textLength="93" x="1201.5" y="1018.5586">Employee</text><line style="stroke:#181818;stroke-width:0.5;" x1="1083" x2="1378" y1="1028" y2="1028"/><text fill="#000000" font-family="sans-serif" font-size="20" lengthAdjust="spacing" textLength="125" x="1088" y="1051.3359">extends User</text><line style="stroke:#181818;stroke-width:0.5;" x1="1083" x2="1378" y1="1059.5547" y2="1059.5547"/><text fill="#000000" font-family="sans-serif" font-size="20" lengthAdjust="spacing" textLength="253" x="1088" y="1082.8906">+addRole(role: Role): void</text><text fill="#000000" font-family="sans-serif" font-size="20" lengthAdjust="spacing" textLength="285" x="1088" y="1106.4453">+hasRole(role: Role): boolean</text></g><!--class EmployeeRepository--><g id="elem_EmployeeRepository"><rect codeLine="14" fill="#F1F1F1" height="97.1094" id="EmployeeRepository" rx="2.5" ry="2.5" style="stroke:#181818;stroke-width:0.5;" width="459" x="1001" y="536"/><ellipse cx="1128.5" cy="553" fill="#C2C2C2" rx="12" ry="12" style="stroke:#181818;stroke-width:1.0;"/><path d="M1131.3066,560.0801 Q1130.623,560.4316 1129.8711,560.6074 Q1129.1191,560.7832 1128.2891,560.7832 Q1125.3398,560.7832 1123.7871,558.8398 Q1122.2344,556.8965 1122.2344,553.2246 Q1122.2344,549.543 1123.7871,547.5996 Q1125.3398,545.6563 1128.2891,545.6563 Q1129.1191,545.6563 1129.8809,545.832 Q1130.6426,546.0078 1131.3066,546.3594 L1131.3066,549.5625 Q1130.5645,548.8789 1129.8662,548.5615 Q1129.168,548.2441 1128.4258,548.2441 Q1126.8438,548.2441 1126.0381,549.499 Q1125.2324,550.7539 1125.2324,553.2246 Q1125.2324,555.6855 1126.0381,556.9404 Q1126.8438,558.1953 1128.4258,558.1953 Q1129.168,558.1953 1129.8662,557.8779 Q1130.5645,557.5605 1131.3066,556.877 Z " fill="#000000"/><text fill="#000000" font-family="sans-serif" font-size="20" lengthAdjust="spacing" textLength="195" x="1150.5" y="560.5586">EmployeeRepository</text><line style="stroke:#181818;stroke-width:0.5;" x1="1002" x2="1459" y1="570" y2="570"/><text fill="#000000" font-family="sans-serif" font-size="20" lengthAdjust="spacing" textLength="361" x="1007" y="593.3359">-employeeList: ArrayList&lt;Employee&gt;</text><line style="stroke:#181818;stroke-width:0.5;" x1="1002" x2="1459" y1="601.5547" y2="601.5547"/><text fill="#000000" font-family="sans-serif" font-size="20" lengthAdjust="spacing" textLength="447" x="1007" y="624.8906">+addEmployee(employee: Employee): boolean</text></g><!--class AgencyRepository--><g id="elem_AgencyRepository"><rect codeLine="19" fill="#F1F1F1" height="97.1094" id="AgencyRepository" rx="2.5" ry="2.5" style="stroke:#181818;stroke-width:0.5;" width="305" x="661" y="536"/><ellipse cx="723.5" cy="553" fill="#C2C2C2" rx="12" ry="12" style="stroke:#181818;stroke-width:1.0;"/><path d="M726.3066,560.0801 Q725.623,560.4316 724.8711,560.6074 Q724.1191,560.7832 723.2891,560.7832 Q720.3398,560.7832 718.7871,558.8398 Q717.2344,556.8965 717.2344,553.2246 Q717.2344,549.543 718.7871,547.5996 Q720.3398,545.6563 723.2891,545.6563 Q724.1191,545.6563 724.8809,545.832 Q725.6426,546.0078 726.3066,546.3594 L726.3066,549.5625 Q725.5645,548.8789 724.8662,548.5615 Q724.168,548.2441 723.4258,548.2441 Q721.8438,548.2441 721.0381,549.499 Q720.2324,550.7539 720.2324,553.2246 Q720.2324,555.6855 721.0381,556.9404 Q721.8438,558.1953 723.4258,558.1953 Q724.168,558.1953 724.8662,557.8779 Q725.5645,557.5605 726.3066,556.877 Z " fill="#000000"/><text fill="#000000" font-family="sans-serif" font-size="20" lengthAdjust="spacing" textLength="171" x="745.5" y="560.5586">AgencyRepository</text><line style="stroke:#181818;stroke-width:0.5;" x1="662" x2="965" y1="570" y2="570"/><text fill="#000000" font-family="sans-serif" font-size="20" lengthAdjust="spacing" textLength="242" x="667" y="593.3359">-agencies: List&lt;Agency&gt;</text><line style="stroke:#181818;stroke-width:0.5;" x1="662" x2="965" y1="601.5547" y2="601.5547"/><text fill="#000000" font-family="sans-serif" font-size="20" lengthAdjust="spacing" textLength="293" x="667" y="624.8906">+getAgencies(): List&lt;Agency&gt;</text></g><!--class RoleRepository--><g id="elem_RoleRepository"><rect codeLine="24" fill="#F1F1F1" height="97.1094" id="RoleRepository" rx="2.5" ry="2.5" style="stroke:#181818;stroke-width:0.5;" width="331" x="1917" y="536"/><ellipse cx="2006" cy="553" fill="#C2C2C2" rx="12" ry="12" style="stroke:#181818;stroke-width:1.0;"/><path d="M2008.8066,560.0801 Q2008.123,560.4316 2007.3711,560.6074 Q2006.6191,560.7832 2005.7891,560.7832 Q2002.8398,560.7832 2001.2871,558.8398 Q1999.7344,556.8965 1999.7344,553.2246 Q1999.7344,549.543 2001.2871,547.5996 Q2002.8398,545.6563 2005.7891,545.6563 Q2006.6191,545.6563 2007.3809,545.832 Q2008.1426,546.0078 2008.8066,546.3594 L2008.8066,549.5625 Q2008.0645,548.8789 2007.3662,548.5615 Q2006.668,548.2441 2005.9258,548.2441 Q2004.3438,548.2441 2003.5381,549.499 Q2002.7324,550.7539 2002.7324,553.2246 Q2002.7324,555.6855 2003.5381,556.9404 Q2004.3438,558.1953 2005.9258,558.1953 Q2006.668,558.1953 2007.3662,557.8779 Q2008.0645,557.5605 2008.8066,556.877 Z " fill="#000000"/><text fill="#000000" font-family="sans-serif" font-size="20" lengthAdjust="spacing" textLength="144" x="2028" y="560.5586">RoleRepository</text><line style="stroke:#181818;stroke-width:0.5;" x1="1918" x2="2247" y1="570" y2="570"/><text fill="#000000" font-family="sans-serif" font-size="20" lengthAdjust="spacing" textLength="179" x="1923" y="593.3359">-roles: List&lt;Role&gt;</text><line style="stroke:#181818;stroke-width:0.5;" x1="1918" x2="2247" y1="601.5547" y2="601.5547"/><text fill="#000000" font-family="sans-serif" font-size="20" lengthAdjust="spacing" textLength="319" x="1923" y="624.8906">+getRolesToCreate(): List&lt;Role&gt;</text></g><!--class AuthenticationRepository--><g id="elem_AuthenticationRepository"><rect codeLine="29" fill="#F1F1F1" height="73.5547" id="AuthenticationRepository" rx="2.5" ry="2.5" style="stroke:#181818;stroke-width:0.5;" width="386" x="1495.5" y="547.5"/><ellipse cx="1563.5" cy="564.5" fill="#C2C2C2" rx="12" ry="12" style="stroke:#181818;stroke-width:1.0;"/><path d="M1566.3066,571.5801 Q1565.623,571.9316 1564.8711,572.1074 Q1564.1191,572.2832 1563.2891,572.2832 Q1560.3398,572.2832 1558.7871,570.3398 Q1557.2344,568.3965 1557.2344,564.7246 Q1557.2344,561.043 1558.7871,559.0996 Q1560.3398,557.1563 1563.2891,557.1563 Q1564.1191,557.1563 1564.8809,557.332 Q1565.6426,557.5078 1566.3066,557.8594 L1566.3066,561.0625 Q1565.5645,560.3789 1564.8662,560.0615 Q1564.168,559.7441 1563.4258,559.7441 Q1561.8438,559.7441 1561.0381,560.999 Q1560.2324,562.2539 1560.2324,564.7246 Q1560.2324,567.1855 1561.0381,568.4404 Q1561.8438,569.6953 1563.4258,569.6953 Q1564.168,569.6953 1564.8662,569.3779 Q1565.5645,569.0605 1566.3066,568.377 Z " fill="#000000"/><text fill="#000000" font-family="sans-serif" font-size="20" lengthAdjust="spacing" textLength="241" x="1585.5" y="572.0586">AuthenticationRepository</text><line style="stroke:#181818;stroke-width:0.5;" x1="1496.5" x2="1880.5" y1="581.5" y2="581.5"/><line style="stroke:#181818;stroke-width:0.5;" x1="1496.5" x2="1880.5" y1="589.5" y2="589.5"/><text fill="#000000" font-family="sans-serif" font-size="20" lengthAdjust="spacing" textLength="374" x="1501.5" y="612.8359">+getCurrentUserSession(): UserSession</text></g><!--class Repositories--><g id="elem_Repositories"><rect codeLine="33" fill="#F1F1F1" height="167.7734" id="Repositories" rx="2.5" ry="2.5" style="stroke:#181818;stroke-width:0.5;" width="566" x="1000.5" y="283"/><ellipse cx="1219.5" cy="300" fill="#C2C2C2" rx="12" ry="12" style="stroke:#181818;stroke-width:1.0;"/><path d="M1222.3066,307.0801 Q1221.623,307.4316 1220.8711,307.6074 Q1220.1191,307.7832 1219.2891,307.7832 Q1216.3398,307.7832 1214.7871,305.8398 Q1213.2344,303.8965 1213.2344,300.2246 Q1213.2344,296.543 1214.7871,294.5996 Q1216.3398,292.6563 1219.2891,292.6563 Q1220.1191,292.6563 1220.8809,292.832 Q1221.6426,293.0078 1222.3066,293.3594 L1222.3066,296.5625 Q1221.5645,295.8789 1220.8662,295.5615 Q1220.168,295.2441 1219.4258,295.2441 Q1217.8438,295.2441 1217.0381,296.499 Q1216.2324,297.7539 1216.2324,300.2246 Q1216.2324,302.6855 1217.0381,303.9404 Q1217.8438,305.1953 1219.4258,305.1953 Q1220.168,305.1953 1220.8662,304.8779 Q1221.5645,304.5605 1222.3066,303.877 Z " fill="#000000"/><text fill="#000000" font-family="sans-serif" font-size="20" lengthAdjust="spacing" textLength="119" x="1241.5" y="307.5586">Repositories</text><line style="stroke:#181818;stroke-width:0.5;" x1="1001.5" x2="1565.5" y1="317" y2="317"/><line style="stroke:#181818;stroke-width:0.5;" x1="1001.5" x2="1565.5" y1="325" y2="325"/><text fill="#000000" font-family="sans-serif" font-size="20" lengthAdjust="spacing" textLength="270" x="1006.5" y="348.3359">+getInstance(): Repositories</text><text fill="#000000" font-family="sans-serif" font-size="20" lengthAdjust="spacing" textLength="554" x="1006.5" y="371.8906">+getAuthenticationRepository(): AuthenticationRepository</text><text fill="#000000" font-family="sans-serif" font-size="20" lengthAdjust="spacing" textLength="432" x="1006.5" y="395.4453">+EmployeeRepository(): EmployeeRepository</text><text fill="#000000" font-family="sans-serif" font-size="20" lengthAdjust="spacing" textLength="384" x="1006.5" y="419">+AgencyRepository(): AgencyRepository</text><text fill="#000000" font-family="sans-serif" font-size="20" lengthAdjust="spacing" textLength="330" x="1006.5" y="442.5547">+RoleRepository(): RoleRepository</text></g><!--class RegisterEmployeeController--><g id="elem_RegisterEmployeeController"><rect codeLine="41" fill="#F1F1F1" height="214.8828" id="RegisterEmployeeController" rx="2.5" ry="2.5" style="stroke:#181818;stroke-width:0.5;" width="1693" x="437" y="7"/><ellipse cx="1145.5" cy="24" fill="#C2C2C2" rx="12" ry="12" style="stroke:#181818;stroke-width:1.0;"/><path d="M1148.3066,31.0801 Q1147.623,31.4316 1146.8711,31.6074 Q1146.1191,31.7832 1145.2891,31.7832 Q1142.3398,31.7832 1140.7871,29.8398 Q1139.2344,27.8965 1139.2344,24.2246 Q1139.2344,20.543 1140.7871,18.5996 Q1142.3398,16.6563 1145.2891,16.6563 Q1146.1191,16.6563 1146.8809,16.832 Q1147.6426,17.0078 1148.3066,17.3594 L1148.3066,20.5625 Q1147.5645,19.8789 1146.8662,19.5615 Q1146.168,19.2441 1145.4258,19.2441 Q1143.8438,19.2441 1143.0381,20.499 Q1142.2324,21.7539 1142.2324,24.2246 Q1142.2324,26.6855 1143.0381,27.9404 Q1143.8438,29.1953 1145.4258,29.1953 Q1146.168,29.1953 1146.8662,28.8779 Q1147.5645,28.5605 1148.3066,27.877 Z " fill="#000000"/><text fill="#000000" font-family="sans-serif" font-size="20" lengthAdjust="spacing" textLength="267" x="1167.5" y="31.5586">RegisterEmployeeController</text><line style="stroke:#181818;stroke-width:0.5;" x1="438" x2="2129" y1="41" y2="41"/><text fill="#000000" font-family="sans-serif" font-size="20" lengthAdjust="spacing" textLength="414" x="443" y="64.3359">-employeeRepository: EmployeeRepository</text><text fill="#000000" font-family="sans-serif" font-size="20" lengthAdjust="spacing" textLength="307" x="443" y="87.8906">-roleRepository: RoleRepository</text><text fill="#000000" font-family="sans-serif" font-size="20" lengthAdjust="spacing" textLength="394" x="443" y="111.4453">-passwordGenerator: PasswordGenerator</text><text fill="#000000" font-family="sans-serif" font-size="20" lengthAdjust="spacing" textLength="503" x="443" y="135">-authenticationRepository: AuthenticationRepository</text><line style="stroke:#181818;stroke-width:0.5;" x1="438" x2="2129" y1="143.2188" y2="143.2188"/><text fill="#000000" font-family="sans-serif" font-size="20" lengthAdjust="spacing" textLength="297" x="443" y="166.5547">+RegisterEmployeeController()</text><text fill="#000000" font-family="sans-serif" font-size="20" lengthAdjust="spacing" textLength="319" x="443" y="190.1094">+getRolesToCreate(): List&lt;Role&gt;</text><text fill="#000000" font-family="sans-serif" font-size="20" lengthAdjust="spacing" textLength="1681" x="443" y="213.6641">+registerEmployee(name: String, email: String, passportCardNumber: int, taxNumber: int,telephoneNumber: int, address: Address, agency: Agency, roles: Set&lt;Role&gt;): boolean</text></g><!--class Address--><g id="elem_Address"><rect codeLine="51" fill="#F1F1F1" height="167.7734" id="Address" rx="2.5" ry="2.5" style="stroke:#181818;stroke-width:0.5;" width="165" x="1148" y="1200"/><ellipse cx="1187.4" cy="1217" fill="#C2C2C2" rx="12" ry="12" style="stroke:#181818;stroke-width:1.0;"/><path d="M1190.2066,1224.0801 Q1189.523,1224.4316 1188.7711,1224.6074 Q1188.0191,1224.7832 1187.1891,1224.7832 Q1184.2398,1224.7832 1182.6871,1222.8398 Q1181.1344,1220.8965 1181.1344,1217.2246 Q1181.1344,1213.543 1182.6871,1211.5996 Q1184.2398,1209.6563 1187.1891,1209.6563 Q1188.0191,1209.6563 1188.7809,1209.832 Q1189.5426,1210.0078 1190.2066,1210.3594 L1190.2066,1213.5625 Q1189.4645,1212.8789 1188.7662,1212.5615 Q1188.068,1212.2441 1187.3258,1212.2441 Q1185.7438,1212.2441 1184.9381,1213.499 Q1184.1324,1214.7539 1184.1324,1217.2246 Q1184.1324,1219.6855 1184.9381,1220.9404 Q1185.7438,1222.1953 1187.3258,1222.1953 Q1188.068,1222.1953 1188.7662,1221.8779 Q1189.4645,1221.5605 1190.2066,1220.877 Z " fill="#000000"/><text fill="#000000" font-family="sans-serif" font-size="20" lengthAdjust="spacing" textLength="79" x="1207.6" y="1224.5586">Address</text><line style="stroke:#181818;stroke-width:0.5;" x1="1149" x2="1312" y1="1234" y2="1234"/><text fill="#000000" font-family="sans-serif" font-size="20" lengthAdjust="spacing" textLength="140" x="1154" y="1257.3359">-street : String</text><text fill="#000000" font-family="sans-serif" font-size="20" lengthAdjust="spacing" textLength="119" x="1154" y="1280.8906">-city : String</text><text fill="#000000" font-family="sans-serif" font-size="20" lengthAdjust="spacing" textLength="153" x="1154" y="1304.4453">-district : String</text><text fill="#000000" font-family="sans-serif" font-size="20" lengthAdjust="spacing" textLength="132" x="1154" y="1328">-state : String</text><text fill="#000000" font-family="sans-serif" font-size="20" lengthAdjust="spacing" textLength="135" x="1154" y="1351.5547">-zipCode : int</text><line style="stroke:#181818;stroke-width:0.5;" x1="1149" x2="1312" y1="1359.7734" y2="1359.7734"/></g><!--class Role--><g id="elem_Role"><rect codeLine="59" fill="#F1F1F1" height="167.7734" id="Role" rx="2.5" ry="2.5" style="stroke:#181818;stroke-width:0.5;" width="304" x="1639.5" y="1200"/><ellipse cx="1766" cy="1217" fill="#ABABAB" rx="12" ry="12" style="stroke:#181818;stroke-width:1.0;"/><path d="M1770.7227,1224.5 L1761.6406,1224.5 L1761.6406,1209.9199 L1770.7227,1209.9199 L1770.7227,1212.459 L1764.5215,1212.459 L1764.5215,1215.6035 L1770.1367,1215.6035 L1770.1367,1218.1426 L1764.5215,1218.1426 L1764.5215,1221.9609 L1770.7227,1221.9609 Z " fill="#000000"/><text fill="#000000" font-family="sans-serif" font-size="20" lengthAdjust="spacing" textLength="42" x="1788" y="1224.5586">Role</text><line style="stroke:#181818;stroke-width:0.5;" x1="1640.5" x2="1942.5" y1="1234" y2="1234"/><text fill="#000000" font-family="sans-serif" font-size="20" lengthAdjust="spacing" textLength="79" x="1645.5" y="1257.3359">-ADMIN</text><text fill="#000000" font-family="sans-serif" font-size="20" lengthAdjust="spacing" textLength="79" x="1645.5" y="1280.8906">-AGENT</text><text fill="#000000" font-family="sans-serif" font-size="20" lengthAdjust="spacing" textLength="292" x="1645.5" y="1304.4453">-STORE_NETWORK_MANAGER</text><text fill="#000000" font-family="sans-serif" font-size="20" lengthAdjust="spacing" textLength="184" x="1645.5" y="1328">-STORE_MANAGER</text><text fill="#000000" font-family="sans-serif" font-size="20" lengthAdjust="spacing" textLength="82" x="1645.5" y="1351.5547">-CLIENT</text><line style="stroke:#181818;stroke-width:0.5;" x1="1640.5" x2="1942.5" y1="1359.7734" y2="1359.7734"/></g><!--class Agency--><g id="elem_Agency"><rect codeLine="67" fill="#F1F1F1" height="191.3281" id="Agency" rx="2.5" ry="2.5" style="stroke:#181818;stroke-width:0.5;" width="309" x="803" y="718"/><ellipse cx="918.5" cy="735" fill="#C2C2C2" rx="12" ry="12" style="stroke:#181818;stroke-width:1.0;"/><path d="M921.3066,742.0801 Q920.623,742.4316 919.8711,742.6074 Q919.1191,742.7832 918.2891,742.7832 Q915.3398,742.7832 913.7871,740.8398 Q912.2344,738.8965 912.2344,735.2246 Q912.2344,731.543 913.7871,729.5996 Q915.3398,727.6563 918.2891,727.6563 Q919.1191,727.6563 919.8809,727.832 Q920.6426,728.0078 921.3066,728.3594 L921.3066,731.5625 Q920.5645,730.8789 919.8662,730.5615 Q919.168,730.2441 918.4258,730.2441 Q916.8438,730.2441 916.0381,731.499 Q915.2324,732.7539 915.2324,735.2246 Q915.2324,737.6855 916.0381,738.9404 Q916.8438,740.1953 918.4258,740.1953 Q919.168,740.1953 919.8662,739.8779 Q920.5645,739.5605 921.3066,738.877 Z " fill="#000000"/><text fill="#000000" font-family="sans-serif" font-size="20" lengthAdjust="spacing" textLength="69" x="940.5" y="742.5586">Agency</text><line style="stroke:#181818;stroke-width:0.5;" x1="804" x2="1111" y1="752" y2="752"/><text fill="#000000" font-family="sans-serif" font-size="20" lengthAdjust="spacing" textLength="68" x="809" y="775.3359">-id: int</text><text fill="#000000" font-family="sans-serif" font-size="20" lengthAdjust="spacing" textLength="133" x="809" y="798.8906">-name: String</text><text fill="#000000" font-family="sans-serif" font-size="20" lengthAdjust="spacing" textLength="212" x="809" y="822.4453">-emailAddress: String</text><text fill="#000000" font-family="sans-serif" font-size="20" lengthAdjust="spacing" textLength="187" x="809" y="846">-phoneNumber: int</text><text fill="#000000" font-family="sans-serif" font-size="20" lengthAdjust="spacing" textLength="179" x="809" y="869.5547">-address: Address</text><text fill="#000000" font-family="sans-serif" font-size="20" lengthAdjust="spacing" textLength="297" x="809" y="893.1094">-agents: ArrayList&lt;Employee&gt;</text><line style="stroke:#181818;stroke-width:0.5;" x1="804" x2="1111" y1="901.3281" y2="901.3281"/></g><!--class RegisterEmployeeUI--><g id="elem_RegisterEmployeeUI"><rect codeLine="76" fill="#F1F1F1" height="97.1094" id="RegisterEmployeeUI" rx="2.5" ry="2.5" style="stroke:#181818;stroke-width:0.5;" width="395" x="7" y="66"/><ellipse cx="104.5" cy="83" fill="#C2C2C2" rx="12" ry="12" style="stroke:#181818;stroke-width:1.0;"/><path d="M107.3066,90.0801 Q106.623,90.4316 105.8711,90.6074 Q105.1191,90.7832 104.2891,90.7832 Q101.3398,90.7832 99.7871,88.8398 Q98.2344,86.8965 98.2344,83.2246 Q98.2344,79.543 99.7871,77.5996 Q101.3398,75.6563 104.2891,75.6563 Q105.1191,75.6563 105.8809,75.832 Q106.6426,76.0078 107.3066,76.3594 L107.3066,79.5625 Q106.5645,78.8789 105.8662,78.5615 Q105.168,78.2441 104.4258,78.2441 Q102.8438,78.2441 102.0381,79.499 Q101.2324,80.7539 101.2324,83.2246 Q101.2324,85.6855 102.0381,86.9404 Q102.8438,88.1953 104.4258,88.1953 Q105.168,88.1953 105.8662,87.8779 Q106.5645,87.5605 107.3066,86.877 Z " fill="#000000"/><text fill="#000000" font-family="sans-serif" font-size="20" lengthAdjust="spacing" textLength="191" x="126.5" y="90.5586">RegisterEmployeeUI</text><line style="stroke:#181818;stroke-width:0.5;" x1="8" x2="401" y1="100" y2="100"/><text fill="#000000" font-family="sans-serif" font-size="20" lengthAdjust="spacing" textLength="383" x="13" y="123.3359">-controller: RegisterEmployeeController</text><line style="stroke:#181818;stroke-width:0.5;" x1="8" x2="401" y1="131.5547" y2="131.5547"/><text fill="#000000" font-family="sans-serif" font-size="20" lengthAdjust="spacing" textLength="62" x="13" y="154.8906">+run()</text></g><!--link Repositories to Repositories--><g id="link_Repositories_Repositories"><path codeLine="81" d="M1566.97,350.94 C1588.35,354.52 1601.5,359.87 1601.5,367 C1601.5,373.4 1590.89,378.38 1573.23,381.91 " fill="none" id="Repositories-to-Repositories" style="stroke:#181818;stroke-width:1.0;"/><polygon fill="#181818" points="1568.46,382.79,1578.0333,385.1033,1573.3782,381.8893,1576.5922,377.2341,1568.46,382.79" style="stroke:#181818;stroke-width:1.0;"/><text fill="#000000" font-family="sans-serif" font-size="20" lengthAdjust="spacing" textLength="89" x="1607.5" y="374.8359">instances</text></g><!--link RegisterEmployeeUI to RegisterEmployeeController--><g id="link_RegisterEmployeeUI_RegisterEmployeeController"><path codeLine="82" d="M402.33,114.5 C411.66,114.5 420.98,114.5 430.3,114.5 " fill="none" id="RegisterEmployeeUI-to-RegisterEmployeeController" style="stroke:#181818;stroke-width:1.0;stroke-dasharray:7.0,7.0;"/><polygon fill="#181818" points="435.24,114.5,426.24,110.5,430.24,114.5,426.24,118.5,435.24,114.5" style="stroke:#181818;stroke-width:1.0;"/></g><!--link RegisterEmployeeController to Repositories--><g id="link_RegisterEmployeeController_Repositories"><path codeLine="83" d="M1283.5,222.46 C1283.5,240.46 1283.5,258.98 1283.5,276.48 " fill="none" id="RegisterEmployeeController-to-Repositories" style="stroke:#181818;stroke-width:1.0;stroke-dasharray:7.0,7.0;"/><polygon fill="#181818" points="1283.5,281.37,1287.5,272.37,1283.5,276.37,1279.5,272.37,1283.5,281.37" style="stroke:#181818;stroke-width:1.0;"/></g><!--link Repositories to AuthenticationRepository--><g id="link_Repositories_AuthenticationRepository"><path codeLine="84" d="M1438.29,451.45 C1471.95,469.5 1507.39,488.44 1540.5,506 C1564.1,518.52 1589.88,532.06 1613.22,544.27 " fill="none" id="Repositories-to-AuthenticationRepository" style="stroke:#181818;stroke-width:1.0;"/><polygon fill="#181818" points="1617.44,546.48,1611.3161,538.7665,1613.0086,544.1642,1607.6109,545.8567,1617.44,546.48" style="stroke:#181818;stroke-width:1.0;"/><text fill="#000000" font-family="sans-serif" font-size="20" lengthAdjust="spacing" textLength="33" x="1541.5" y="501.3359">has</text><text fill="#000000" font-family="sans-serif" font-size="20" lengthAdjust="spacing" textLength="13" x="1436.6435" y="478.162">1</text><text fill="#000000" font-family="sans-serif" font-size="20" lengthAdjust="spacing" textLength="13" x="1592.6797" y="535.2109">1</text></g><!--link Repositories to EmployeeRepository--><g id="link_Repositories_EmployeeRepository"><path codeLine="85" d="M1263.01,451.32 C1256.56,477.52 1249.62,505.76 1243.81,529.38 " fill="none" id="Repositories-to-EmployeeRepository" style="stroke:#181818;stroke-width:1.0;"/><polygon fill="#181818" points="1242.64,534.13,1248.6819,526.3521,1243.8392,529.2759,1240.9154,524.4333,1242.64,534.13" style="stroke:#181818;stroke-width:1.0;"/><text fill="#000000" font-family="sans-serif" font-size="20" lengthAdjust="spacing" textLength="33" x="1256.5" y="501.3359">has</text><text fill="#000000" font-family="sans-serif" font-size="20" lengthAdjust="spacing" textLength="13" x="1247.9436" y="478.0221">1</text><text fill="#000000" font-family="sans-serif" font-size="20" lengthAdjust="spacing" textLength="13" x="1229.9895" y="523.8496">1</text></g><!--link Repositories to AgencyRepository--><g id="link_Repositories_AgencyRepository"><path codeLine="86" d="M1101.45,451.47 C1041.54,478.94 976.79,508.63 923.89,532.88 " fill="none" id="Repositories-to-AgencyRepository" style="stroke:#181818;stroke-width:1.0;"/><polygon fill="#181818" points="919.53,534.88,929.3781,534.76,924.074,532.7938,926.0402,527.4896,919.53,534.88" style="stroke:#181818;stroke-width:1.0;"/><text fill="#000000" font-family="sans-serif" font-size="20" lengthAdjust="spacing" textLength="33" x="1035.5" y="501.3359">has</text><text fill="#000000" font-family="sans-serif" font-size="20" lengthAdjust="spacing" textLength="13" x="1074.0141" y="478.1835">1</text><text fill="#000000" font-family="sans-serif" font-size="20" lengthAdjust="spacing" textLength="13" x="918.3503" y="523.7475">1</text></g><!--link Repositories to RoleRepository--><g id="link_Repositories_RoleRepository"><path codeLine="87" d="M1566.88,444.43 C1681.6,475.37 1810.31,510.09 1910.44,537.09 " fill="none" id="Repositories-to-RoleRepository" style="stroke:#181818;stroke-width:1.0;"/><polygon fill="#181818" points="1915.22,538.38,1907.5694,532.1778,1910.3919,537.0801,1905.4896,539.9027,1915.22,538.38" style="stroke:#181818;stroke-width:1.0;"/><text fill="#000000" font-family="sans-serif" font-size="20" lengthAdjust="spacing" textLength="33" x="1778.5" y="501.3359">has</text><text fill="#000000" font-family="sans-serif" font-size="20" lengthAdjust="spacing" textLength="13" x="1574.5799" y="442.5276">1</text><text fill="#000000" font-family="sans-serif" font-size="20" lengthAdjust="spacing" textLength="13" x="1895.8822" y="532.5332">1</text></g><!--link RegisterEmployeeController to EmployeeRepository--><g id="link_RegisterEmployeeController_EmployeeRepository"><path codeLine="88" d="M1034.59,222.31 C1014.08,239.81 996.06,259.93 982.5,283 C932.26,368.45 924.77,427.66 985.5,506 C993.06,515.76 1001.86,524.31 1011.52,531.81 " fill="none" id="RegisterEmployeeController-to-EmployeeRepository" style="stroke:#181818;stroke-width:1.0;stroke-dasharray:7.0,7.0;"/><polygon fill="#181818" points="1015.44,534.73,1010.6203,526.141,1011.4331,531.7392,1005.835,532.552,1015.44,534.73" style="stroke:#181818;stroke-width:1.0;"/></g><!--link RegisterEmployeeController to RoleRepository--><g id="link_RegisterEmployeeController_RoleRepository"><path codeLine="89" d="M1640.96,222.41 C1662.44,231.68 1683.45,241.54 1703.5,252 C1842.1,324.3 1972,457.35 2037.72,530.99 " fill="none" id="RegisterEmployeeController-to-RoleRepository" style="stroke:#181818;stroke-width:1.0;stroke-dasharray:7.0,7.0;"/><polygon fill="#181818" points="2040.95,534.63,2037.9782,525.2402,2037.6353,530.8867,2031.9888,530.5438,2040.95,534.63" style="stroke:#181818;stroke-width:1.0;"/></g><!--link RegisterEmployeeController to AgencyRepository--><g id="link_RegisterEmployeeController_AgencyRepository"><path codeLine="90" d="M1007.43,222.27 C980.69,239.87 955.69,260.03 934.5,283 C869.31,353.69 837.22,464 823.1,529.48 " fill="none" id="RegisterEmployeeController-to-AgencyRepository" style="stroke:#181818;stroke-width:1.0;stroke-dasharray:7.0,7.0;"/><polygon fill="#181818" points="822.1,534.19,827.8683,526.2071,823.1301,529.2973,820.0399,524.559,822.1,534.19" style="stroke:#181818;stroke-width:1.0;"/></g><!--link RegisterEmployeeController to AuthenticationRepository--><g id="link_RegisterEmployeeController_AuthenticationRepository"><path codeLine="91" d="M1642.7,222.28 C1665.79,239.57 1686.54,259.66 1703.5,283 C1759.28,359.75 1728.35,478.87 1705.68,541.6 " fill="none" id="RegisterEmployeeController-to-AuthenticationRepository" style="stroke:#181818;stroke-width:1.0;stroke-dasharray:7.0,7.0;"/><polygon fill="#181818" points="1704.04,546.07,1710.9077,539.0106,1705.7705,541.379,1703.4021,536.2418,1704.04,546.07" style="stroke:#181818;stroke-width:1.0;"/></g><!--link EmployeeRepository to Employee--><g id="link_EmployeeRepository_Employee"><path codeLine="92" d="M1230.5,633.38 C1230.5,717.42 1230.5,891.57 1230.5,987.15 " fill="none" id="EmployeeRepository-to-Employee" style="stroke:#181818;stroke-width:1.0;"/><polygon fill="#181818" points="1230.5,992.09,1234.5,983.09,1230.5,987.09,1226.5,983.09,1230.5,992.09" style="stroke:#181818;stroke-width:1.0;"/><text fill="#000000" font-family="sans-serif" font-size="20" lengthAdjust="spacing" textLength="33" x="1231.5" y="821.3359">has</text><text fill="#000000" font-family="sans-serif" font-size="20" lengthAdjust="spacing" textLength="13" x="1216.6672" y="660.4807">1</text><text fill="#000000" font-family="sans-serif" font-size="20" lengthAdjust="spacing" textLength="10" x="1219.9219" y="981.6273">*</text></g><!--link AgencyRepository to Agency--><g id="link_AgencyRepository_Agency"><path codeLine="93" d="M843.86,633.36 C858.48,656.41 876.59,684.96 894.03,712.44 " fill="none" id="AgencyRepository-to-Agency" style="stroke:#181818;stroke-width:1.0;"/><polygon fill="#181818" points="896.69,716.65,895.2499,706.907,894.013,712.427,888.4931,711.1901,896.69,716.65" style="stroke:#181818;stroke-width:1.0;"/><text fill="#000000" font-family="sans-serif" font-size="20" lengthAdjust="spacing" textLength="33" x="878.5" y="683.3359">has</text><text fill="#000000" font-family="sans-serif" font-size="20" lengthAdjust="spacing" textLength="13" x="833.9171" y="660.4581">1</text><text fill="#000000" font-family="sans-serif" font-size="20" lengthAdjust="spacing" textLength="10" x="882.3311" y="705.732">*</text></g><!--link RoleRepository to Role--><g id="link_RoleRepository_Role"><path codeLine="94" d="M2062.5,633.44 C2014.26,749.07 1890.91,1044.71 1828.65,1193.96 " fill="none" id="RoleRepository-to-Role" style="stroke:#181818;stroke-width:1.0;"/><polygon fill="#181818" points="1826.86,1198.24,1834.0034,1191.4598,1828.776,1193.6217,1826.6141,1188.3942,1826.86,1198.24" style="stroke:#181818;stroke-width:1.0;"/><text fill="#000000" font-family="sans-serif" font-size="20" lengthAdjust="spacing" textLength="33" x="1934.5" y="959.3359">has</text><text fill="#000000" font-family="sans-serif" font-size="20" lengthAdjust="spacing" textLength="13" x="2046.1047" y="660.5483">1</text><text fill="#000000" font-family="sans-serif" font-size="20" lengthAdjust="spacing" textLength="10" x="1818.8392" y="1187.7715">*</text></g><!--link Employee to Address--><g id="link_Employee_Address"><path codeLine="95" d="M1230.5,1115.27 C1230.5,1139.16 1230.5,1167.18 1230.5,1193.41 " fill="none" id="Employee-to-Address" style="stroke:#181818;stroke-width:1.0;"/><polygon fill="#181818" points="1230.5,1198.17,1234.5,1189.17,1230.5,1193.17,1226.5,1189.17,1230.5,1198.17" style="stroke:#181818;stroke-width:1.0;"/><text fill="#000000" font-family="sans-serif" font-size="20" lengthAdjust="spacing" textLength="33" x="1231.5" y="1165.3359">has</text><text fill="#000000" font-family="sans-serif" font-size="20" lengthAdjust="spacing" textLength="13" x="1216.8297" y="1142.1047">1</text><text fill="#000000" font-family="sans-serif" font-size="20" lengthAdjust="spacing" textLength="13" x="1216.9414" y="1187.815">1</text></g><!--link Employee to Role--><g id="link_Employee_Role"><path codeLine="96" d="M1378.26,1115.42 C1456.88,1147.3 1553.59,1186.52 1633.68,1219 " fill="none" id="Employee-to-Role" style="stroke:#181818;stroke-width:1.0;"/><polygon fill="#181818" points="1638.01,1220.76,1631.1844,1213.66,1633.3795,1218.8735,1628.166,1221.0687,1638.01,1220.76" style="stroke:#181818;stroke-width:1.0;"/><text fill="#000000" font-family="sans-serif" font-size="20" lengthAdjust="spacing" textLength="33" x="1512.5" y="1165.3359">has</text><text fill="#000000" font-family="sans-serif" font-size="20" lengthAdjust="spacing" textLength="13" x="1379.1653" y="1141.9286">1</text><text fill="#000000" font-family="sans-serif" font-size="20" lengthAdjust="spacing" textLength="13" x="1618.7283" y="1214.0922">1</text></g><!--link Agency to Employee--><g id="link_Agency_Employee"><path codeLine="97" d="M1065.79,909.3 C1096.47,936.16 1129.13,964.76 1157.22,989.34 " fill="none" id="Agency-to-Employee" style="stroke:#181818;stroke-width:1.0;"/><polygon fill="#181818" points="1160.91,992.57,1156.7708,983.6332,1157.1471,989.2775,1151.5028,989.6538,1160.91,992.57" style="stroke:#181818;stroke-width:1.0;"/><text fill="#000000" font-family="sans-serif" font-size="20" lengthAdjust="spacing" textLength="33" x="1127.5" y="959.3359">has</text><text fill="#000000" font-family="sans-serif" font-size="20" lengthAdjust="spacing" textLength="13" x="1060.2652" y="936.5241">1</text><text fill="#000000" font-family="sans-serif" font-size="20" lengthAdjust="spacing" textLength="10" x="1143.5462" y="981.5827">*</text></g><!--SRC=[XLLDRzim3BtxLmWzfKjIT3i6Gm4ZoufWRJeaANOiL9jrXDgI8SbhtMB_VPHj9PRyaKiYyJtnaPH8grV6Soffbehe5M8ImmijKlrJSBrZ7q2-NGVAKaWck8WEKcH0j2oWXUGqUgK9x7IP0f4GQSgJj4rG1ngBDyOJya9JrKPIna6NEP1SfANPz652Qj6oHobLAjHQikT2mpeIl0hsEWWgXAooF1Kb0FaCu5q3ZnLvL223AQ5nl1KfJ2J-B8XPNYx8Ny5Yn0vKTR5dWV-K1_zytrl8XM9Qo19LvWGQynrJUa52AMbfbjyj_QOMjzk9vI-E3ll4mWHuL7fIr1WPg0Mf56gEyP-03XjiSkcXHvScBy-XITXwCt3ZoopLNYmbK0r7XpNX566X3y0rYwXcWfySVmPJTB4if4JK57y7IY73-6bjMt7PenWzgK-lkSA755NQRRW2XuGDUGWBfjtRC_okDPZwfQ_yUhPWwbQp2jInjFDBi7mWhTOIMmmBduB4R0cPGoU6thYGAHs5ZY8oSXHy4pA-1GwIedL1VlicmwC3THgf827JuKmcbmO_ytIG8JqF4qupx8GTDZHFPjXBbAMdhSacnmcmf3BU5DapO3gCwndHzBszrv12VX0S718sdSItXYdLYrdTFwMzpPbz_Zje8knjnFgmkIci6r5Q0cXYOsoi4TEbRuinKScY3XTVjWRV-C7ofOYD6KCtui2BhBfVAnp-k5zlxFfsjTatwzt-ORjwsgpsVnwslvxkmms2MmTpRSkxjJdi3Hghmk8wWdhNlfp6LDrGQ2lhGFuDD6R_6gmPTRNg7vY3hVEuhiPMT7ntYv7kmbac2nmxnfqpO-OtximnqTRpHWKzYbStOo8ZtNrrvGgvKLnylI1p3CNy3pKTXeRVfk5pFP-aCoSwtvKpVE-ZOTcZEVSChtDLSWVP6NPd69_Z3usqdl8TS_zogcwJTQTqRMuDslguHMlp3DImZkwT-wcRP8pISj6eZWJz7m00]--></g></svg>