<?xml version="1.0" encoding="UTF-8" standalone="no"?><svg xmlns="http://www.w3.org/2000/svg" xmlns:xlink="http://www.w3.org/1999/xlink" contentStyleType="text/css" height="1492px" preserveAspectRatio="none" style="width:2137px;height:1492px;background:#FFFFFF;" version="1.1" viewBox="0 0 2137 1492" width="2137px" zoomAndPan="magnify"><defs/><g><!--class Employee--><g id="elem_Employee"><rect codeLine="8" fill="#F1F1F1" height="120.6641" id="Employee" rx="2.5" ry="2.5" style="stroke:#181818;stroke-width:0.5;" width="297" x="741" y="1111.86"/><ellipse cx="838.5" cy="1128.86" fill="#C2C2C2" rx="12" ry="12" style="stroke:#181818;stroke-width:1.0;"/><path d="M841.3066,1135.9401 Q840.623,1136.2916 839.8711,1136.4674 Q839.1191,1136.6432 838.2891,1136.6432 Q835.3398,1136.6432 833.7871,1134.6998 Q832.2344,1132.7565 832.2344,1129.0846 Q832.2344,1125.403 833.7871,1123.4596 Q835.3398,1121.5163 838.2891,1121.5163 Q839.1191,1121.5163 839.8809,1121.692 Q840.6426,1121.8678 841.3066,1122.2194 L841.3066,1125.4225 Q840.5645,1124.7389 839.8662,1124.4215 Q839.168,1124.1041 838.4258,1124.1041 Q836.8438,1124.1041 836.0381,1125.359 Q835.2324,1126.6139 835.2324,1129.0846 Q835.2324,1131.5455 836.0381,1132.8004 Q836.8438,1134.0553 838.4258,1134.0553 Q839.168,1134.0553 839.8662,1133.7379 Q840.5645,1133.4205 841.3066,1132.737 Z " fill="#000000"/><text fill="#000000" font-family="sans-serif" font-size="20" lengthAdjust="spacing" textLength="93" x="860.5" y="1136.4186">Employee</text><line style="stroke:#181818;stroke-width:0.5;" x1="742" x2="1037" y1="1145.86" y2="1145.86"/><text fill="#000000" font-family="sans-serif" font-size="20" lengthAdjust="spacing" textLength="125" x="747" y="1169.1959">extends User</text><line style="stroke:#181818;stroke-width:0.5;" x1="742" x2="1037" y1="1177.4147" y2="1177.4147"/><text fill="#000000" font-family="sans-serif" font-size="20" lengthAdjust="spacing" textLength="253" x="747" y="1200.7506">+addRole(role: Role): void</text><text fill="#000000" font-family="sans-serif" font-size="20" lengthAdjust="spacing" textLength="285" x="747" y="1224.3053">+hasRole(role: Role): boolean</text></g><!--class EmployeeRepository--><g id="elem_EmployeeRepository"><rect codeLine="14" fill="#F1F1F1" height="97.1094" id="EmployeeRepository" rx="2.5" ry="2.5" style="stroke:#181818;stroke-width:0.5;" width="459" x="660" y="653.42"/><ellipse cx="787.5" cy="670.42" fill="#C2C2C2" rx="12" ry="12" style="stroke:#181818;stroke-width:1.0;"/><path d="M790.3066,677.5001 Q789.623,677.8516 788.8711,678.0274 Q788.1191,678.2032 787.2891,678.2032 Q784.3398,678.2032 782.7871,676.2598 Q781.2344,674.3165 781.2344,670.6446 Q781.2344,666.963 782.7871,665.0196 Q784.3398,663.0763 787.2891,663.0763 Q788.1191,663.0763 788.8809,663.252 Q789.6426,663.4278 790.3066,663.7794 L790.3066,666.9825 Q789.5645,666.2989 788.8662,665.9815 Q788.168,665.6641 787.4258,665.6641 Q785.8438,665.6641 785.0381,666.919 Q784.2324,668.1739 784.2324,670.6446 Q784.2324,673.1055 785.0381,674.3604 Q785.8438,675.6153 787.4258,675.6153 Q788.168,675.6153 788.8662,675.2979 Q789.5645,674.9805 790.3066,674.297 Z " fill="#000000"/><text fill="#000000" font-family="sans-serif" font-size="20" lengthAdjust="spacing" textLength="195" x="809.5" y="677.9786">EmployeeRepository</text><line style="stroke:#181818;stroke-width:0.5;" x1="661" x2="1118" y1="687.42" y2="687.42"/><text fill="#000000" font-family="sans-serif" font-size="20" lengthAdjust="spacing" textLength="361" x="666" y="710.7559">-employeeList: ArrayList&lt;Employee&gt;</text><line style="stroke:#181818;stroke-width:0.5;" x1="661" x2="1118" y1="718.9747" y2="718.9747"/><text fill="#000000" font-family="sans-serif" font-size="20" lengthAdjust="spacing" textLength="447" x="666" y="742.3106">+addEmployee(employee: Employee): boolean</text></g><!--class AgencyRepository--><g id="elem_AgencyRepository"><rect codeLine="19" fill="#F1F1F1" height="97.1094" id="AgencyRepository" rx="2.5" ry="2.5" style="stroke:#181818;stroke-width:0.5;" width="305" x="320" y="653.42"/><ellipse cx="382.5" cy="670.42" fill="#C2C2C2" rx="12" ry="12" style="stroke:#181818;stroke-width:1.0;"/><path d="M385.3066,677.5001 Q384.623,677.8516 383.8711,678.0274 Q383.1191,678.2032 382.2891,678.2032 Q379.3398,678.2032 377.7871,676.2598 Q376.2344,674.3165 376.2344,670.6446 Q376.2344,666.963 377.7871,665.0196 Q379.3398,663.0763 382.2891,663.0763 Q383.1191,663.0763 383.8809,663.252 Q384.6426,663.4278 385.3066,663.7794 L385.3066,666.9825 Q384.5645,666.2989 383.8662,665.9815 Q383.168,665.6641 382.4258,665.6641 Q380.8438,665.6641 380.0381,666.919 Q379.2324,668.1739 379.2324,670.6446 Q379.2324,673.1055 380.0381,674.3604 Q380.8438,675.6153 382.4258,675.6153 Q383.168,675.6153 383.8662,675.2979 Q384.5645,674.9805 385.3066,674.297 Z " fill="#000000"/><text fill="#000000" font-family="sans-serif" font-size="20" lengthAdjust="spacing" textLength="171" x="404.5" y="677.9786">AgencyRepository</text><line style="stroke:#181818;stroke-width:0.5;" x1="321" x2="624" y1="687.42" y2="687.42"/><text fill="#000000" font-family="sans-serif" font-size="20" lengthAdjust="spacing" textLength="242" x="326" y="710.7559">-agencies: List&lt;Agency&gt;</text><line style="stroke:#181818;stroke-width:0.5;" x1="321" x2="624" y1="718.9747" y2="718.9747"/><text fill="#000000" font-family="sans-serif" font-size="20" lengthAdjust="spacing" textLength="293" x="326" y="742.3106">+getAgencies(): List&lt;Agency&gt;</text></g><!--class RoleRepository--><g id="elem_RoleRepository"><rect codeLine="24" fill="#F1F1F1" height="97.1094" id="RoleRepository" rx="2.5" ry="2.5" style="stroke:#181818;stroke-width:0.5;" width="331" x="1574" y="653.42"/><ellipse cx="1663" cy="670.42" fill="#C2C2C2" rx="12" ry="12" style="stroke:#181818;stroke-width:1.0;"/><path d="M1665.8066,677.5001 Q1665.123,677.8516 1664.3711,678.0274 Q1663.6191,678.2032 1662.7891,678.2032 Q1659.8398,678.2032 1658.2871,676.2598 Q1656.7344,674.3165 1656.7344,670.6446 Q1656.7344,666.963 1658.2871,665.0196 Q1659.8398,663.0763 1662.7891,663.0763 Q1663.6191,663.0763 1664.3809,663.252 Q1665.1426,663.4278 1665.8066,663.7794 L1665.8066,666.9825 Q1665.0645,666.2989 1664.3662,665.9815 Q1663.668,665.6641 1662.9258,665.6641 Q1661.3438,665.6641 1660.5381,666.919 Q1659.7324,668.1739 1659.7324,670.6446 Q1659.7324,673.1055 1660.5381,674.3604 Q1661.3438,675.6153 1662.9258,675.6153 Q1663.668,675.6153 1664.3662,675.2979 Q1665.0645,674.9805 1665.8066,674.297 Z " fill="#000000"/><text fill="#000000" font-family="sans-serif" font-size="20" lengthAdjust="spacing" textLength="144" x="1685" y="677.9786">RoleRepository</text><line style="stroke:#181818;stroke-width:0.5;" x1="1575" x2="1904" y1="687.42" y2="687.42"/><text fill="#000000" font-family="sans-serif" font-size="20" lengthAdjust="spacing" textLength="179" x="1580" y="710.7559">-roles: List&lt;Role&gt;</text><line style="stroke:#181818;stroke-width:0.5;" x1="1575" x2="1904" y1="718.9747" y2="718.9747"/><text fill="#000000" font-family="sans-serif" font-size="20" lengthAdjust="spacing" textLength="319" x="1580" y="742.3106">+getRolesToCreate(): List&lt;Role&gt;</text></g><!--class AuthenticationRepository--><g id="elem_AuthenticationRepository"><rect codeLine="29" fill="#F1F1F1" height="73.5547" id="AuthenticationRepository" rx="2.5" ry="2.5" style="stroke:#181818;stroke-width:0.5;" width="386" x="1153.5" y="665.2"/><ellipse cx="1221.5" cy="682.2" fill="#C2C2C2" rx="12" ry="12" style="stroke:#181818;stroke-width:1.0;"/><path d="M1224.3066,689.2801 Q1223.623,689.6316 1222.8711,689.8074 Q1222.1191,689.9832 1221.2891,689.9832 Q1218.3398,689.9832 1216.7871,688.0398 Q1215.2344,686.0965 1215.2344,682.4246 Q1215.2344,678.743 1216.7871,676.7996 Q1218.3398,674.8562 1221.2891,674.8562 Q1222.1191,674.8562 1222.8809,675.032 Q1223.6426,675.2078 1224.3066,675.5594 L1224.3066,678.7625 Q1223.5645,678.0789 1222.8662,677.7615 Q1222.168,677.4441 1221.4258,677.4441 Q1219.8438,677.4441 1219.0381,678.699 Q1218.2324,679.9539 1218.2324,682.4246 Q1218.2324,684.8855 1219.0381,686.1404 Q1219.8438,687.3953 1221.4258,687.3953 Q1222.168,687.3953 1222.8662,687.0779 Q1223.5645,686.7605 1224.3066,686.077 Z " fill="#000000"/><text fill="#000000" font-family="sans-serif" font-size="20" lengthAdjust="spacing" textLength="241" x="1243.5" y="689.7586">AuthenticationRepository</text><line style="stroke:#181818;stroke-width:0.5;" x1="1154.5" x2="1538.5" y1="699.2" y2="699.2"/><line style="stroke:#181818;stroke-width:0.5;" x1="1154.5" x2="1538.5" y1="707.2" y2="707.2"/><text fill="#000000" font-family="sans-serif" font-size="20" lengthAdjust="spacing" textLength="374" x="1159.5" y="730.5359">+getCurrentUserSession(): UserSession</text></g><!--class Repositories--><g id="elem_Repositories"><rect codeLine="33" fill="#F1F1F1" height="167.7734" id="Repositories" rx="2.5" ry="2.5" style="stroke:#181818;stroke-width:0.5;" width="566" x="659.5" y="341.76"/><ellipse cx="878.5" cy="358.76" fill="#C2C2C2" rx="12" ry="12" style="stroke:#181818;stroke-width:1.0;"/><path d="M881.3066,365.8401 Q880.623,366.1916 879.8711,366.3674 Q879.1191,366.5432 878.2891,366.5432 Q875.3398,366.5432 873.7871,364.5998 Q872.2344,362.6565 872.2344,358.9846 Q872.2344,355.303 873.7871,353.3596 Q875.3398,351.4163 878.2891,351.4163 Q879.1191,351.4163 879.8809,351.592 Q880.6426,351.7678 881.3066,352.1194 L881.3066,355.3225 Q880.5645,354.6389 879.8662,354.3215 Q879.168,354.0041 878.4258,354.0041 Q876.8438,354.0041 876.0381,355.259 Q875.2324,356.5139 875.2324,358.9846 Q875.2324,361.4455 876.0381,362.7004 Q876.8438,363.9553 878.4258,363.9553 Q879.168,363.9553 879.8662,363.6379 Q880.5645,363.3205 881.3066,362.637 Z " fill="#000000"/><text fill="#000000" font-family="sans-serif" font-size="20" lengthAdjust="spacing" textLength="119" x="900.5" y="366.3186">Repositories</text><line style="stroke:#181818;stroke-width:0.5;" x1="660.5" x2="1224.5" y1="375.76" y2="375.76"/><line style="stroke:#181818;stroke-width:0.5;" x1="660.5" x2="1224.5" y1="383.76" y2="383.76"/><text fill="#000000" font-family="sans-serif" font-size="20" lengthAdjust="spacing" textLength="270" x="665.5" y="407.0959">+getInstance(): Repositories</text><text fill="#000000" font-family="sans-serif" font-size="20" lengthAdjust="spacing" textLength="554" x="665.5" y="430.6506">+getAuthenticationRepository(): AuthenticationRepository</text><text fill="#000000" font-family="sans-serif" font-size="20" lengthAdjust="spacing" textLength="432" x="665.5" y="454.2053">+EmployeeRepository(): EmployeeRepository</text><text fill="#000000" font-family="sans-serif" font-size="20" lengthAdjust="spacing" textLength="384" x="665.5" y="477.76">+AgencyRepository(): AgencyRepository</text><text fill="#000000" font-family="sans-serif" font-size="20" lengthAdjust="spacing" textLength="330" x="665.5" y="501.3147">+RoleRepository(): RoleRepository</text></g><!--class RegisterEmployeeController--><g id="elem_RegisterEmployeeController"><rect codeLine="41" fill="#F1F1F1" height="214.8828" id="RegisterEmployeeController" rx="2.5" ry="2.5" style="stroke:#181818;stroke-width:0.5;" width="1693" x="437" y="7"/><ellipse cx="1145.5" cy="24" fill="#C2C2C2" rx="12" ry="12" style="stroke:#181818;stroke-width:1.0;"/><path d="M1148.3066,31.0801 Q1147.623,31.4316 1146.8711,31.6074 Q1146.1191,31.7832 1145.2891,31.7832 Q1142.3398,31.7832 1140.7871,29.8398 Q1139.2344,27.8965 1139.2344,24.2246 Q1139.2344,20.543 1140.7871,18.5996 Q1142.3398,16.6563 1145.2891,16.6563 Q1146.1191,16.6563 1146.8809,16.832 Q1147.6426,17.0078 1148.3066,17.3594 L1148.3066,20.5625 Q1147.5645,19.8789 1146.8662,19.5615 Q1146.168,19.2441 1145.4258,19.2441 Q1143.8438,19.2441 1143.0381,20.499 Q1142.2324,21.7539 1142.2324,24.2246 Q1142.2324,26.6855 1143.0381,27.9404 Q1143.8438,29.1953 1145.4258,29.1953 Q1146.168,29.1953 1146.8662,28.8779 Q1147.5645,28.5605 1148.3066,27.877 Z " fill="#000000"/><text fill="#000000" font-family="sans-serif" font-size="20" lengthAdjust="spacing" textLength="267" x="1167.5" y="31.5586">RegisterEmployeeController</text><line style="stroke:#181818;stroke-width:0.5;" x1="438" x2="2129" y1="41" y2="41"/><text fill="#000000" font-family="sans-serif" font-size="20" lengthAdjust="spacing" textLength="414" x="443" y="64.3359">-employeeRepository: EmployeeRepository</text><text fill="#000000" font-family="sans-serif" font-size="20" lengthAdjust="spacing" textLength="307" x="443" y="87.8906">-roleRepository: RoleRepository</text><text fill="#000000" font-family="sans-serif" font-size="20" lengthAdjust="spacing" textLength="394" x="443" y="111.4453">-passwordGenerator: PasswordGenerator</text><text fill="#000000" font-family="sans-serif" font-size="20" lengthAdjust="spacing" textLength="503" x="443" y="135">-authenticationRepository: AuthenticationRepository</text><line style="stroke:#181818;stroke-width:0.5;" x1="438" x2="2129" y1="143.2188" y2="143.2188"/><text fill="#000000" font-family="sans-serif" font-size="20" lengthAdjust="spacing" textLength="297" x="443" y="166.5547">+RegisterEmployeeController()</text><text fill="#000000" font-family="sans-serif" font-size="20" lengthAdjust="spacing" textLength="319" x="443" y="190.1094">+getRolesToCreate(): List&lt;Role&gt;</text><text fill="#000000" font-family="sans-serif" font-size="20" lengthAdjust="spacing" textLength="1681" x="443" y="213.6641">+registerEmployee(name: String, email: String, passportCardNumber: int, taxNumber: int,telephoneNumber: int, address: Address, agency: Agency, roles: Set&lt;Role&gt;): boolean</text></g><!--class PasswordGenerator--><g id="elem_PasswordGenerator"><rect codeLine="51" fill="#F1F1F1" height="285.5469" id="PasswordGenerator" rx="2.5" ry="2.5" style="stroke:#181818;stroke-width:0.5;" width="428" x="1521.5" y="282.88"/><ellipse cx="1639" cy="299.88" fill="#C2C2C2" rx="12" ry="12" style="stroke:#181818;stroke-width:1.0;"/><path d="M1641.8066,306.9601 Q1641.123,307.3116 1640.3711,307.4874 Q1639.6191,307.6632 1638.7891,307.6632 Q1635.8398,307.6632 1634.2871,305.7198 Q1632.7344,303.7765 1632.7344,300.1046 Q1632.7344,296.423 1634.2871,294.4796 Q1635.8398,292.5362 1638.7891,292.5362 Q1639.6191,292.5362 1640.3809,292.712 Q1641.1426,292.8878 1641.8066,293.2394 L1641.8066,296.4425 Q1641.0645,295.7589 1640.3662,295.4415 Q1639.668,295.1241 1638.9258,295.1241 Q1637.3438,295.1241 1636.5381,296.379 Q1635.7324,297.6339 1635.7324,300.1046 Q1635.7324,302.5655 1636.5381,303.8204 Q1637.3438,305.0753 1638.9258,305.0753 Q1639.668,305.0753 1640.3662,304.7579 Q1641.0645,304.4405 1641.8066,303.757 Z " fill="#000000"/><text fill="#000000" font-family="sans-serif" font-size="20" lengthAdjust="spacing" textLength="184" x="1661" y="307.4386">PasswordGenerator</text><line style="stroke:#181818;stroke-width:0.5;" x1="1522.5" x2="1948.5" y1="316.88" y2="316.88"/><text fill="#000000" font-family="sans-serif" font-size="20" lengthAdjust="spacing" textLength="240" x="1527.5" y="340.2159">PASSWORD_LENGTH : int</text><text fill="#000000" font-family="sans-serif" font-size="20" lengthAdjust="spacing" textLength="275" x="1527.5" y="363.7706">NUM_CAPITAL_LETTERS : int</text><text fill="#000000" font-family="sans-serif" font-size="20" lengthAdjust="spacing" textLength="164" x="1527.5" y="387.3253">NUM_DIGITS : int</text><text fill="#000000" font-family="sans-serif" font-size="20" lengthAdjust="spacing" textLength="250" x="1527.5" y="410.88">CAPITAL_LETTERS : String</text><text fill="#000000" font-family="sans-serif" font-size="20" lengthAdjust="spacing" textLength="139" x="1527.5" y="434.4347">DIGITS : String</text><text fill="#000000" font-family="sans-serif" font-size="20" lengthAdjust="spacing" textLength="285" x="1527.5" y="457.9894">LOWERCASE_LETTERS : String</text><text fill="#000000" font-family="sans-serif" font-size="20" lengthAdjust="spacing" textLength="236" x="1527.5" y="481.5441">random : SecureRandom</text><line style="stroke:#181818;stroke-width:0.5;" x1="1522.5" x2="1948.5" y1="489.7628" y2="489.7628"/><text fill="#000000" font-family="sans-serif" font-size="20" lengthAdjust="spacing" textLength="277" x="1527.5" y="513.0987">+generatePassword() : String</text><text fill="#000000" font-family="sans-serif" font-size="20" lengthAdjust="spacing" textLength="416" x="1527.5" y="536.6534">+randomCharacter(String characters) : char</text><text fill="#000000" font-family="sans-serif" font-size="20" lengthAdjust="spacing" textLength="337" x="1527.5" y="560.2081">+shuffleString(String input) : String</text></g><!--class Address--><g id="elem_Address"><rect codeLine="64" fill="#F1F1F1" height="167.7734" id="Address" rx="2.5" ry="2.5" style="stroke:#181818;stroke-width:0.5;" width="165" x="807" y="1317.53"/><ellipse cx="846.4" cy="1334.53" fill="#C2C2C2" rx="12" ry="12" style="stroke:#181818;stroke-width:1.0;"/><path d="M849.2066,1341.6101 Q848.523,1341.9616 847.7711,1342.1374 Q847.0191,1342.3132 846.1891,1342.3132 Q843.2398,1342.3132 841.6871,1340.3698 Q840.1344,1338.4265 840.1344,1334.7546 Q840.1344,1331.073 841.6871,1329.1296 Q843.2398,1327.1863 846.1891,1327.1863 Q847.0191,1327.1863 847.7809,1327.362 Q848.5426,1327.5378 849.2066,1327.8894 L849.2066,1331.0925 Q848.4645,1330.4089 847.7662,1330.0915 Q847.068,1329.7741 846.3258,1329.7741 Q844.7438,1329.7741 843.9381,1331.029 Q843.1324,1332.2839 843.1324,1334.7546 Q843.1324,1337.2155 843.9381,1338.4704 Q844.7438,1339.7253 846.3258,1339.7253 Q847.068,1339.7253 847.7662,1339.4079 Q848.4645,1339.0905 849.2066,1338.407 Z " fill="#000000"/><text fill="#000000" font-family="sans-serif" font-size="20" lengthAdjust="spacing" textLength="79" x="866.6" y="1342.0886">Address</text><line style="stroke:#181818;stroke-width:0.5;" x1="808" x2="971" y1="1351.53" y2="1351.53"/><text fill="#000000" font-family="sans-serif" font-size="20" lengthAdjust="spacing" textLength="140" x="813" y="1374.8659">-street : String</text><text fill="#000000" font-family="sans-serif" font-size="20" lengthAdjust="spacing" textLength="119" x="813" y="1398.4206">-city : String</text><text fill="#000000" font-family="sans-serif" font-size="20" lengthAdjust="spacing" textLength="153" x="813" y="1421.9753">-district : String</text><text fill="#000000" font-family="sans-serif" font-size="20" lengthAdjust="spacing" textLength="132" x="813" y="1445.53">-state : String</text><text fill="#000000" font-family="sans-serif" font-size="20" lengthAdjust="spacing" textLength="135" x="813" y="1469.0847">-zipCode : int</text><line style="stroke:#181818;stroke-width:0.5;" x1="808" x2="971" y1="1477.3034" y2="1477.3034"/></g><!--class Role--><g id="elem_Role"><rect codeLine="72" fill="#F1F1F1" height="167.7734" id="Role" rx="2.5" ry="2.5" style="stroke:#181818;stroke-width:0.5;" width="304" x="1297.5" y="1317.53"/><ellipse cx="1424" cy="1334.53" fill="#ABABAB" rx="12" ry="12" style="stroke:#181818;stroke-width:1.0;"/><path d="M1428.7227,1342.03 L1419.6406,1342.03 L1419.6406,1327.4499 L1428.7227,1327.4499 L1428.7227,1329.989 L1422.5215,1329.989 L1422.5215,1333.1335 L1428.1367,1333.1335 L1428.1367,1335.6726 L1422.5215,1335.6726 L1422.5215,1339.4909 L1428.7227,1339.4909 Z " fill="#000000"/><text fill="#000000" font-family="sans-serif" font-size="20" lengthAdjust="spacing" textLength="42" x="1446" y="1342.0886">Role</text><line style="stroke:#181818;stroke-width:0.5;" x1="1298.5" x2="1600.5" y1="1351.53" y2="1351.53"/><text fill="#000000" font-family="sans-serif" font-size="20" lengthAdjust="spacing" textLength="79" x="1303.5" y="1374.8659">-ADMIN</text><text fill="#000000" font-family="sans-serif" font-size="20" lengthAdjust="spacing" textLength="79" x="1303.5" y="1398.4206">-AGENT</text><text fill="#000000" font-family="sans-serif" font-size="20" lengthAdjust="spacing" textLength="292" x="1303.5" y="1421.9753">-STORE_NETWORK_MANAGER</text><text fill="#000000" font-family="sans-serif" font-size="20" lengthAdjust="spacing" textLength="184" x="1303.5" y="1445.53">-STORE_MANAGER</text><text fill="#000000" font-family="sans-serif" font-size="20" lengthAdjust="spacing" textLength="82" x="1303.5" y="1469.0847">-CLIENT</text><line style="stroke:#181818;stroke-width:0.5;" x1="1298.5" x2="1600.5" y1="1477.3034" y2="1477.3034"/></g><!--class Agency--><g id="elem_Agency"><rect codeLine="80" fill="#F1F1F1" height="191.3281" id="Agency" rx="2.5" ry="2.5" style="stroke:#181818;stroke-width:0.5;" width="309" x="462" y="835.53"/><ellipse cx="577.5" cy="852.53" fill="#C2C2C2" rx="12" ry="12" style="stroke:#181818;stroke-width:1.0;"/><path d="M580.3066,859.6101 Q579.623,859.9616 578.8711,860.1374 Q578.1191,860.3132 577.2891,860.3132 Q574.3398,860.3132 572.7871,858.3698 Q571.2344,856.4265 571.2344,852.7546 Q571.2344,849.073 572.7871,847.1296 Q574.3398,845.1863 577.2891,845.1863 Q578.1191,845.1863 578.8809,845.362 Q579.6426,845.5378 580.3066,845.8894 L580.3066,849.0925 Q579.5645,848.4089 578.8662,848.0915 Q578.168,847.7741 577.4258,847.7741 Q575.8438,847.7741 575.0381,849.029 Q574.2324,850.2839 574.2324,852.7546 Q574.2324,855.2155 575.0381,856.4704 Q575.8438,857.7253 577.4258,857.7253 Q578.168,857.7253 578.8662,857.4079 Q579.5645,857.0905 580.3066,856.407 Z " fill="#000000"/><text fill="#000000" font-family="sans-serif" font-size="20" lengthAdjust="spacing" textLength="69" x="599.5" y="860.0886">Agency</text><line style="stroke:#181818;stroke-width:0.5;" x1="463" x2="770" y1="869.53" y2="869.53"/><text fill="#000000" font-family="sans-serif" font-size="20" lengthAdjust="spacing" textLength="68" x="468" y="892.8659">-id: int</text><text fill="#000000" font-family="sans-serif" font-size="20" lengthAdjust="spacing" textLength="133" x="468" y="916.4206">-name: String</text><text fill="#000000" font-family="sans-serif" font-size="20" lengthAdjust="spacing" textLength="212" x="468" y="939.9753">-emailAddress: String</text><text fill="#000000" font-family="sans-serif" font-size="20" lengthAdjust="spacing" textLength="187" x="468" y="963.53">-phoneNumber: int</text><text fill="#000000" font-family="sans-serif" font-size="20" lengthAdjust="spacing" textLength="179" x="468" y="987.0847">-address: Address</text><text fill="#000000" font-family="sans-serif" font-size="20" lengthAdjust="spacing" textLength="297" x="468" y="1010.6394">-agents: ArrayList&lt;Employee&gt;</text><line style="stroke:#181818;stroke-width:0.5;" x1="463" x2="770" y1="1018.8581" y2="1018.8581"/></g><!--class RegisterEmployeeUI--><g id="elem_RegisterEmployeeUI"><rect codeLine="89" fill="#F1F1F1" height="97.1094" id="RegisterEmployeeUI" rx="2.5" ry="2.5" style="stroke:#181818;stroke-width:0.5;" width="395" x="7" y="65.88"/><ellipse cx="104.5" cy="82.88" fill="#C2C2C2" rx="12" ry="12" style="stroke:#181818;stroke-width:1.0;"/><path d="M107.3066,89.9601 Q106.623,90.3116 105.8711,90.4874 Q105.1191,90.6632 104.2891,90.6632 Q101.3398,90.6632 99.7871,88.7198 Q98.2344,86.7765 98.2344,83.1046 Q98.2344,79.423 99.7871,77.4796 Q101.3398,75.5362 104.2891,75.5362 Q105.1191,75.5362 105.8809,75.712 Q106.6426,75.8878 107.3066,76.2394 L107.3066,79.4425 Q106.5645,78.7589 105.8662,78.4415 Q105.168,78.1241 104.4258,78.1241 Q102.8438,78.1241 102.0381,79.379 Q101.2324,80.6339 101.2324,83.1046 Q101.2324,85.5655 102.0381,86.8204 Q102.8438,88.0753 104.4258,88.0753 Q105.168,88.0753 105.8662,87.7579 Q106.5645,87.4405 107.3066,86.757 Z " fill="#000000"/><text fill="#000000" font-family="sans-serif" font-size="20" lengthAdjust="spacing" textLength="191" x="126.5" y="90.4386">RegisterEmployeeUI</text><line style="stroke:#181818;stroke-width:0.5;" x1="8" x2="401" y1="99.88" y2="99.88"/><text fill="#000000" font-family="sans-serif" font-size="20" lengthAdjust="spacing" textLength="383" x="13" y="123.2159">-controller: RegisterEmployeeController</text><line style="stroke:#181818;stroke-width:0.5;" x1="8" x2="401" y1="131.4347" y2="131.4347"/><text fill="#000000" font-family="sans-serif" font-size="20" lengthAdjust="spacing" textLength="62" x="13" y="154.7706">+run()</text></g><!--link Repositories to Repositories--><g id="link_Repositories_Repositories"><path codeLine="94" d="M1225.97,401.35 C1247.35,406.76 1260.5,414.86 1260.5,425.65 C1260.5,435.51 1249.52,443.13 1231.3,448.5 " fill="none" id="Repositories-to-Repositories" style="stroke:#181818;stroke-width:1.0;"/><polygon fill="#181818" points="1226.97,449.95,1236.7098,451.4117,1231.7898,448.6199,1234.5816,443.6999,1226.97,449.95" style="stroke:#181818;stroke-width:1.0;"/><text fill="#000000" font-family="sans-serif" font-size="20" lengthAdjust="spacing" textLength="89" x="1266.5" y="433.4859">instances</text></g><!--link RegisterEmployeeUI to RegisterEmployeeController--><g id="link_RegisterEmployeeUI_RegisterEmployeeController"><path codeLine="95" d="M402.33,114.44 C411.84,114.44 421.34,114.44 430.84,114.44 " fill="none" id="RegisterEmployeeUI-to-RegisterEmployeeController" style="stroke:#181818;stroke-width:1.0;stroke-dasharray:7.0,7.0;"/><polygon fill="#181818" points="435.75,114.44,426.75,110.44,430.75,114.44,426.75,118.44,435.75,114.44" style="stroke:#181818;stroke-width:1.0;"/></g><!--link RegisterEmployeeController to Repositories--><g id="link_RegisterEmployeeController_Repositories"><path codeLine="96" d="M1165.67,222.28 C1124.16,259.93 1078.02,301.76 1038.53,337.57 " fill="none" id="RegisterEmployeeController-to-Repositories" style="stroke:#181818;stroke-width:1.0;stroke-dasharray:7.0,7.0;"/><polygon fill="#181818" points="1035.24,340.47,1044.5931,337.3847,1038.9429,337.1102,1039.2174,331.46,1035.24,340.47" style="stroke:#181818;stroke-width:1.0;"/></g><!--link Repositories to AuthenticationRepository--><g id="link_Repositories_AuthenticationRepository"><path codeLine="97" d="M1043.12,509.96 C1089.43,546.65 1145.9,589.11 1199.5,623.42 C1220.85,637.09 1244.86,650.51 1267.19,662.25 " fill="none" id="Repositories-to-AuthenticationRepository" style="stroke:#181818;stroke-width:1.0;"/><polygon fill="#181818" points="1271.22,664.88,1265.0961,657.1665,1266.7886,662.5642,1261.3909,664.2567,1271.22,664.88" style="stroke:#181818;stroke-width:1.0;"/><text fill="#000000" font-family="sans-serif" font-size="20" lengthAdjust="spacing" textLength="33" x="1200.5" y="618.7559">has</text><text fill="#000000" font-family="sans-serif" font-size="20" lengthAdjust="spacing" textLength="13" x="1037.6202" y="536.9532">1</text><text fill="#000000" font-family="sans-serif" font-size="20" lengthAdjust="spacing" textLength="13" x="1245.3359" y="652.9109">1</text></g><!--link Repositories to EmployeeRepository--><g id="link_Repositories_EmployeeRepository"><path codeLine="98" d="M926.45,509.7 C917.8,554.49 907.38,608.45 899.81,647.63 " fill="none" id="Repositories-to-EmployeeRepository" style="stroke:#181818;stroke-width:1.0;"/><polygon fill="#181818" points="898.71,652.3,904.3568,644.2307,899.6659,647.3922,896.5044,642.7013,898.71,652.3" style="stroke:#181818;stroke-width:1.0;"/><text fill="#000000" font-family="sans-serif" font-size="20" lengthAdjust="spacing" textLength="33" x="909.5" y="618.7559">has</text><text fill="#000000" font-family="sans-serif" font-size="20" lengthAdjust="spacing" textLength="13" x="911.5826" y="536.9719">1</text><text fill="#000000" font-family="sans-serif" font-size="20" lengthAdjust="spacing" textLength="13" x="886.0911" y="641.2129">1</text></g><!--link Repositories to AgencyRepository--><g id="link_Repositories_AgencyRepository"><path codeLine="99" d="M799.89,509.89 C721.54,555.62 626.9,610.86 559.57,650.16 " fill="none" id="Repositories-to-AgencyRepository" style="stroke:#181818;stroke-width:1.0;"/><polygon fill="#181818" points="555.77,652.96,565.5573,651.8601,560.0837,650.4318,561.5121,644.9582,555.77,652.96" style="stroke:#181818;stroke-width:1.0;"/><text fill="#000000" font-family="sans-serif" font-size="20" lengthAdjust="spacing" textLength="33" x="639.5" y="618.7559">has</text><text fill="#000000" font-family="sans-serif" font-size="20" lengthAdjust="spacing" textLength="13" x="775.0078" y="536.8776">1</text><text fill="#000000" font-family="sans-serif" font-size="20" lengthAdjust="spacing" textLength="13" x="551.9516" y="641.2015">1</text></g><!--link Repositories to RoleRepository--><g id="link_Repositories_RoleRepository"><path codeLine="100" d="M1116.03,509.94 C1202.15,548.71 1308.67,592.91 1407.5,623.42 C1472.04,643.36 1490.67,638.26 1556.5,653.42 C1560.26,654.29 1564.06,655.18 1567.89,656.08 " fill="none" id="Repositories-to-RoleRepository" style="stroke:#181818;stroke-width:1.0;"/><polygon fill="#181818" points="1572.52,657.42,1564.6715,651.4701,1567.6522,656.278,1562.8443,659.2586,1572.52,657.42" style="stroke:#181818;stroke-width:1.0;"/><text fill="#000000" font-family="sans-serif" font-size="20" lengthAdjust="spacing" textLength="33" x="1408.5" y="618.7559">has</text><text fill="#000000" font-family="sans-serif" font-size="20" lengthAdjust="spacing" textLength="13" x="1116.3402" y="536.9316">1</text><text fill="#000000" font-family="sans-serif" font-size="20" lengthAdjust="spacing" textLength="13" x="1553.2435" y="651.4028">1</text></g><!--link RegisterEmployeeController to EmployeeRepository--><g id="link_RegisterEmployeeController_EmployeeRepository"><path codeLine="101" d="M742.44,222.37 C696.58,240.2 660.71,260.35 642.5,282.88 C547.27,400.68 537.92,502.01 628.5,623.42 C635.93,633.38 651.31,642.52 671.06,650.75 " fill="none" id="RegisterEmployeeController-to-EmployeeRepository" style="stroke:#181818;stroke-width:1.0;stroke-dasharray:7.0,7.0;"/><polygon fill="#181818" points="675.45,652.94,668.6056,645.8581,670.8146,651.0658,665.6068,653.2748,675.45,652.94" style="stroke:#181818;stroke-width:1.0;"/></g><!--link RegisterEmployeeController to RoleRepository--><g id="link_RegisterEmployeeController_RoleRepository"><path codeLine="102" d="M1358.77,222.29 C1365.52,232.24 1372.18,242.21 1378.5,251.88 C1387.34,265.4 1390.41,268.36 1397.5,282.88 C1456.96,404.67 1416.38,465.46 1504.5,568.42 C1533.65,602.48 1573.85,629.6 1612.76,650.21 " fill="none" id="RegisterEmployeeController-to-RoleRepository" style="stroke:#181818;stroke-width:1.0;stroke-dasharray:7.0,7.0;"/><polygon fill="#181818" points="1616.99,652.95,1610.8661,645.2365,1612.5586,650.6342,1607.1609,652.3267,1616.99,652.95" style="stroke:#181818;stroke-width:1.0;"/></g><!--link RegisterEmployeeController to AgencyRepository--><g id="link_RegisterEmployeeController_AgencyRepository"><path codeLine="103" d="M668.59,222.26 C619.09,239.96 579.89,260.1 558.5,282.88 C464.02,383.47 461.49,558.95 467.13,647.14 " fill="none" id="RegisterEmployeeController-to-AgencyRepository" style="stroke:#181818;stroke-width:1.0;stroke-dasharray:7.0,7.0;"/><polygon fill="#181818" points="467.53,652.08,470.9295,642.8364,467.2012,647.0908,462.9468,643.3625,467.53,652.08" style="stroke:#181818;stroke-width:1.0;"/></g><!--link RegisterEmployeeController to AuthenticationRepository--><g id="link_RegisterEmployeeController_AuthenticationRepository"><path codeLine="104" d="M1340.69,222.16 C1349.07,241.87 1356.54,262.63 1361.5,282.88 C1394.89,419.23 1372.39,458.08 1375.5,598.42 C1375.75,609.53 1377.48,612.49 1375.5,623.42 C1373.32,635.46 1369.39,648.06 1365.11,659.52 " fill="none" id="RegisterEmployeeController-to-AuthenticationRepository" style="stroke:#181818;stroke-width:1.0;stroke-dasharray:7.0,7.0;"/><polygon fill="#181818" points="1362.99,664.05,1369.947,657.0786,1364.7801,659.3814,1362.4773,654.2145,1362.99,664.05" style="stroke:#181818;stroke-width:1.0;"/></g><!--link EmployeeRepository to Employee--><g id="link_EmployeeRepository_Employee"><path codeLine="105" d="M889.5,750.89 C889.5,835.24 889.5,1010.36 889.5,1105.77 " fill="none" id="EmployeeRepository-to-Employee" style="stroke:#181818;stroke-width:1.0;"/><polygon fill="#181818" points="889.5,1110.66,893.5,1101.66,889.5,1105.66,885.5,1101.66,889.5,1110.66" style="stroke:#181818;stroke-width:1.0;"/><text fill="#000000" font-family="sans-serif" font-size="20" lengthAdjust="spacing" textLength="33" x="890.5" y="939.0359">has</text><text fill="#000000" font-family="sans-serif" font-size="20" lengthAdjust="spacing" textLength="13" x="875.6672" y="778.0022">1</text><text fill="#000000" font-family="sans-serif" font-size="20" lengthAdjust="spacing" textLength="10" x="878.9219" y="1099.6993">*</text></g><!--link AgencyRepository to Agency--><g id="link_AgencyRepository_Agency"><path codeLine="106" d="M502.86,750.89 C517.53,774.03 535.7,802.71 553.19,830.29 " fill="none" id="AgencyRepository-to-Agency" style="stroke:#181818;stroke-width:1.0;"/><polygon fill="#181818" points="556.21,834.07,554.7699,824.327,553.533,829.847,548.0131,828.6101,556.21,834.07" style="stroke:#181818;stroke-width:1.0;"/><text fill="#000000" font-family="sans-serif" font-size="20" lengthAdjust="spacing" textLength="33" x="537.5" y="800.8659">has</text><text fill="#000000" font-family="sans-serif" font-size="20" lengthAdjust="spacing" textLength="13" x="492.9171" y="778.0022">1</text><text fill="#000000" font-family="sans-serif" font-size="20" lengthAdjust="spacing" textLength="10" x="541.2112" y="823.1872">*</text></g><!--link RoleRepository to Role--><g id="link_RoleRepository_Role"><path codeLine="107" d="M1719.57,750.92 C1671.45,866.65 1548.33,1162.73 1486.34,1311.82 " fill="none" id="RoleRepository-to-Role" style="stroke:#181818;stroke-width:1.0;"/><polygon fill="#181818" points="1484.16,1316.06,1491.3213,1309.2986,1486.0881,1311.4467,1483.94,1306.2136,1484.16,1316.06" style="stroke:#181818;stroke-width:1.0;"/><text fill="#000000" font-family="sans-serif" font-size="20" lengthAdjust="spacing" textLength="33" x="1592.5" y="1077.1959">has</text><text fill="#000000" font-family="sans-serif" font-size="20" lengthAdjust="spacing" textLength="13" x="1703.1837" y="778.036">1</text><text fill="#000000" font-family="sans-serif" font-size="20" lengthAdjust="spacing" textLength="10" x="1476.7089" y="1305.1821">*</text></g><!--link Employee to Address--><g id="link_Employee_Address"><path codeLine="108" d="M889.5,1232.89 C889.5,1256.85 889.5,1284.98 889.5,1311.27 " fill="none" id="Employee-to-Address" style="stroke:#181818;stroke-width:1.0;"/><polygon fill="#181818" points="889.5,1316.2,893.5,1307.2,889.5,1311.2,885.5,1307.2,889.5,1316.2" style="stroke:#181818;stroke-width:1.0;"/><text fill="#000000" font-family="sans-serif" font-size="20" lengthAdjust="spacing" textLength="33" x="890.5" y="1282.8659">has</text><text fill="#000000" font-family="sans-serif" font-size="20" lengthAdjust="spacing" textLength="13" x="875.8297" y="1259.7">1</text><text fill="#000000" font-family="sans-serif" font-size="20" lengthAdjust="spacing" textLength="13" x="875.9414" y="1305.3341">1</text></g><!--link Employee to Role--><g id="link_Employee_Role"><path codeLine="109" d="M1036.63,1232.89 C1115.11,1264.74 1211.73,1303.94 1291.76,1336.41 " fill="none" id="Employee-to-Role" style="stroke:#181818;stroke-width:1.0;"/><polygon fill="#181818" points="1296,1338.54,1289.1744,1331.44,1291.3695,1336.6535,1286.156,1338.8487,1296,1338.54" style="stroke:#181818;stroke-width:1.0;"/><text fill="#000000" font-family="sans-serif" font-size="20" lengthAdjust="spacing" textLength="33" x="1170.5" y="1282.8659">has</text><text fill="#000000" font-family="sans-serif" font-size="20" lengthAdjust="spacing" textLength="13" x="1038.1325" y="1259.7">1</text><text fill="#000000" font-family="sans-serif" font-size="20" lengthAdjust="spacing" textLength="13" x="1276.2984" y="1331.2867">1</text></g><!--link Agency to Employee--><g id="link_Agency_Employee"><path codeLine="110" d="M725.18,1027.34 C755.95,1054.28 788.69,1082.94 816.78,1107.53 " fill="none" id="Agency-to-Employee" style="stroke:#181818;stroke-width:1.0;"/><polygon fill="#181818" points="820.25,1111.44,816.1108,1102.5032,816.4871,1108.1475,810.8428,1108.5238,820.25,1111.44" style="stroke:#181818;stroke-width:1.0;"/><text fill="#000000" font-family="sans-serif" font-size="20" lengthAdjust="spacing" textLength="33" x="786.5" y="1077.1959">has</text><text fill="#000000" font-family="sans-serif" font-size="20" lengthAdjust="spacing" textLength="13" x="719.3645" y="1054.2643">1</text><text fill="#000000" font-family="sans-serif" font-size="20" lengthAdjust="spacing" textLength="10" x="802.7805" y="1099.4539">*</text></g><!--link RegisterEmployeeController to PasswordGenerator--><g id="link_RegisterEmployeeController_PasswordGenerator"><path codeLine="111" d="M1450.42,222.32 C1465.39,232.22 1480.26,242.18 1494.5,251.88 C1507.38,260.65 1520.59,269.77 1533.87,279.03 " fill="none" id="RegisterEmployeeController-to-PasswordGenerator" style="stroke:#181818;stroke-width:1.0;stroke-dasharray:7.0,7.0;"/><polygon fill="#181818" points="1537.76,282.44,1532.663,274.0126,1533.6578,279.5813,1528.0891,280.5761,1537.76,282.44" style="stroke:#181818;stroke-width:1.0;"/></g><!--SRC=[XLLBR-8m4BxdLrWzqGMgxXxHgbAKicoqb5OaLO_8JGQmcjYHxMoRLllVTvp4a1TmWNY-p_FoFDGRuncLD4r4z0OnYM5ByqJ_4bm7x1F8Zrj7MGf91HVHNeeKY9OvD92CHczq1u4k4Y0I8atvBcaIr9x6uftn7TdIH3MHX77GHGOa4qbX3aEOa5eqv552bNArbkmrr-17WfVEtZfEYP1vcYMY021V3dneuB4YpmgaCoOqZjSYWP74dnandzSpybUm6B4zLNtiLU0_vSw_hkurP48nBMI1LgO4Ql6IAJqZhfIqC9y_BVskCcwF8ykV7HGE6NDtmAEYOueQ8GCr8wM5YcFqxq2xDJQwxg07bIQkZa8JiDLcu5gN-LIXy2HG3GU55U7eOQxtm3MBg6Q27nL_EMDKuULI8cgI7u1Io31w6iU6N_OgUa-gspvNM4XHQRi9b-0fmuPy2dF6_TSp_BxK6NTJN-hjo9nnEvkbeor9CxuTfW-ajULXYs7Y4v0OBI5JwFamw1SoPSj2po8oCZJuBcIy00wIedH6dheYmwCdydGcWuICJqSokZRuXT91Xkne676QOYS4sD1yDy5UeYmv7aqq6Ku0ZyfubQUlWE4mhYT4qu_cMKC2sLvmQ96mwIJM6ePKVKog_YdiQqvi-GTGUpZKYBtqcJSZvCaDWfV7zVrcELyjmj-aj5aYg-U7ZUS- -Q6xH30Cv-kWWzxx2pzi2llqAWCbU60tPCl7b_dQSuFvy1L9UInI8uCebx0kZoM2JrI60JQiqNNxwhYww-rnt4RuKACA8v4LA7F1d2gwskVRRG8Lov9nMkUweVWuCwgNg58u9KfB0DrsO4eYfekkBCQgaIpgSN5CQEWAFrdcYHZg1ADnu7bQDeirxDu_-2lxlPYlmlex21_Nyyrg7kBJ_jayk2i4rosiBVEMlhdScThM2ekFJpmbpKglHMMvkxPCMr2td6jnjwQj6ErgDRnzJiwXPx_S0T6XYMTdHXKk1fdZ33VgMWDxUjSUuCRRQdWhPy3YpTqv8sT6vSrDsr3RYwllLsIAhfZ_KnCCNSD5V_hUm7w_SAEtf2_mEnlOii_6FB09BcMflHKki7kRxHB_r7uOIDyXzc_7xDPHzrBNv5QWpKyxQKsUWMhMGNthVQecEKTfgAYjdd7wGchwczRv3m00]--></g></svg>