<?xml version="1.0" encoding="UTF-8" standalone="no"?><svg xmlns="http://www.w3.org/2000/svg" xmlns:xlink="http://www.w3.org/1999/xlink" contentStyleType="text/css" height="534px" preserveAspectRatio="none" style="width:1221px;height:534px;background:#FFFFFF;" version="1.1" viewBox="0 0 1221 534" width="1221px" zoomAndPan="magnify"><defs/><g><text fill="#000000" font-family="sans-serif" font-size="14" font-weight="bold" lengthAdjust="spacing" textLength="363" x="428" y="28.5352">System Sequence Diagram (SSD) - Alternative One</text><rect fill="#FFFFFF" height="301.4375" style="stroke:#181818;stroke-width:1.0;" width="10" x="31" y="136.043"/><rect fill="#FFFFFF" height="37.5547" style="stroke:#181818;stroke-width:1.0;" width="10" x="1166" y="165.5977"/><rect fill="#FFFFFF" height="37.5547" style="stroke:#181818;stroke-width:1.0;" width="10" x="1166" y="240.707"/><rect fill="#FFFFFF" height="37.5547" style="stroke:#181818;stroke-width:1.0;" width="10" x="1166" y="315.8164"/><rect fill="#FFFFFF" height="37.5547" style="stroke:#181818;stroke-width:1.0;" width="10" x="1166" y="390.9258"/><line style="stroke:#181818;stroke-width:0.5;stroke-dasharray:5.0,5.0;" x1="36" x2="36" y1="126.043" y2="446.4805"/><line style="stroke:#181818;stroke-width:0.5;stroke-dasharray:5.0,5.0;" x1="1171" x2="1171" y1="126.043" y2="446.4805"/><text fill="#000000" font-family="sans-serif" font-size="20" lengthAdjust="spacing" textLength="56" x="5" y="121.8242">Agent</text><ellipse cx="36" cy="50.9883" fill="#E3E3E3" rx="8" ry="8" style="stroke:#181818;stroke-width:0.5;"/><path d="M36,58.9883 L36,85.9883 M23,66.9883 L49,66.9883 M36,85.9883 L23,100.9883 M36,85.9883 L49,100.9883 " fill="none" style="stroke:#181818;stroke-width:0.5;"/><text fill="#000000" font-family="sans-serif" font-size="20" lengthAdjust="spacing" textLength="56" x="5" y="464.8164">Agent</text><ellipse cx="36" cy="477.5352" fill="#E3E3E3" rx="8" ry="8" style="stroke:#181818;stroke-width:0.5;"/><path d="M36,485.5352 L36,512.5352 M23,493.5352 L49,493.5352 M36,512.5352 L23,527.5352 M36,512.5352 L49,527.5352 " fill="none" style="stroke:#181818;stroke-width:0.5;"/><rect fill="#E3E3E3" height="37.5547" rx="2.5" ry="2.5" style="stroke:#181818;stroke-width:0.5;" width="88" x="1127" y="87.4883"/><text fill="#000000" font-family="sans-serif" font-size="20" lengthAdjust="spacing" textLength="74" x="1134" y="113.8242">:System</text><rect fill="#E3E3E3" height="37.5547" rx="2.5" ry="2.5" style="stroke:#181818;stroke-width:0.5;" width="88" x="1127" y="445.4805"/><text fill="#000000" font-family="sans-serif" font-size="20" lengthAdjust="spacing" textLength="74" x="1134" y="471.8164">:System</text><rect fill="#FFFFFF" height="301.4375" style="stroke:#181818;stroke-width:1.0;" width="10" x="31" y="136.043"/><rect fill="#FFFFFF" height="37.5547" style="stroke:#181818;stroke-width:1.0;" width="10" x="1166" y="165.5977"/><rect fill="#FFFFFF" height="37.5547" style="stroke:#181818;stroke-width:1.0;" width="10" x="1166" y="240.707"/><rect fill="#FFFFFF" height="37.5547" style="stroke:#181818;stroke-width:1.0;" width="10" x="1166" y="315.8164"/><rect fill="#FFFFFF" height="37.5547" style="stroke:#181818;stroke-width:1.0;" width="10" x="1166" y="390.9258"/><polygon fill="#181818" points="1154,161.5977,1164,165.5977,1154,169.5977,1158,165.5977" style="stroke:#181818;stroke-width:1.0;"/><line style="stroke:#181818;stroke-width:1.0;" x1="41" x2="1160" y1="165.5977" y2="165.5977"/><text fill="#000000" font-family="sans-serif" font-size="20" font-weight="bold" lengthAdjust="spacing" textLength="13" x="48" y="159.3789">1</text><text fill="#000000" font-family="sans-serif" font-size="20" lengthAdjust="spacing" textLength="460" x="65" y="159.3789">ask to list Announcements with purchase orders</text><polygon fill="#181818" points="52,199.1523,42,203.1523,52,207.1523,48,203.1523" style="stroke:#181818;stroke-width:1.0;"/><line style="stroke:#181818;stroke-width:1.0;stroke-dasharray:2.0,2.0;" x1="46" x2="1170" y1="203.1523" y2="203.1523"/><text fill="#000000" font-family="sans-serif" font-size="20" font-weight="bold" lengthAdjust="spacing" textLength="13" x="58" y="196.9336">2</text><text fill="#000000" font-family="sans-serif" font-size="20" lengthAdjust="spacing" textLength="1084" x="75" y="196.9336">displays list of Announcements with purchase orders grouped by property from the oldest to the most recent one</text><polygon fill="#181818" points="1154,236.707,1164,240.707,1154,244.707,1158,240.707" style="stroke:#181818;stroke-width:1.0;"/><line style="stroke:#181818;stroke-width:1.0;" x1="41" x2="1160" y1="240.707" y2="240.707"/><text fill="#000000" font-family="sans-serif" font-size="20" font-weight="bold" lengthAdjust="spacing" textLength="13" x="48" y="234.4883">3</text><text fill="#000000" font-family="sans-serif" font-size="20" lengthAdjust="spacing" textLength="205" x="65" y="234.4883">select Announcement</text><polygon fill="#181818" points="52,274.2617,42,278.2617,52,282.2617,48,278.2617" style="stroke:#181818;stroke-width:1.0;"/><line style="stroke:#181818;stroke-width:1.0;stroke-dasharray:2.0,2.0;" x1="46" x2="1170" y1="278.2617" y2="278.2617"/><text fill="#000000" font-family="sans-serif" font-size="20" font-weight="bold" lengthAdjust="spacing" textLength="13" x="58" y="272.043">4</text><text fill="#000000" font-family="sans-serif" font-size="20" lengthAdjust="spacing" textLength="904" x="75" y="272.043">display the list of purchase orders sorted by the amount offered, the highest offer appear first.</text><polygon fill="#181818" points="1154,311.8164,1164,315.8164,1154,319.8164,1158,315.8164" style="stroke:#181818;stroke-width:1.0;"/><line style="stroke:#181818;stroke-width:1.0;" x1="41" x2="1160" y1="315.8164" y2="315.8164"/><text fill="#000000" font-family="sans-serif" font-size="20" font-weight="bold" lengthAdjust="spacing" textLength="13" x="48" y="309.5977">5</text><text fill="#000000" font-family="sans-serif" font-size="20" lengthAdjust="spacing" textLength="206" x="65" y="309.5977">select purchase order</text><polygon fill="#181818" points="52,349.3711,42,353.3711,52,357.3711,48,353.3711" style="stroke:#181818;stroke-width:1.0;"/><line style="stroke:#181818;stroke-width:1.0;stroke-dasharray:2.0,2.0;" x1="46" x2="1170" y1="353.3711" y2="353.3711"/><text fill="#000000" font-family="sans-serif" font-size="20" font-weight="bold" lengthAdjust="spacing" textLength="13" x="58" y="347.1523">6</text><text fill="#000000" font-family="sans-serif" font-size="20" lengthAdjust="spacing" textLength="357" x="75" y="347.1523">displays option list (Accept or Reject)</text><polygon fill="#181818" points="1154,386.9258,1164,390.9258,1154,394.9258,1158,390.9258" style="stroke:#181818;stroke-width:1.0;"/><line style="stroke:#181818;stroke-width:1.0;" x1="41" x2="1160" y1="390.9258" y2="390.9258"/><text fill="#000000" font-family="sans-serif" font-size="20" font-weight="bold" lengthAdjust="spacing" textLength="13" x="48" y="384.707">7</text><text fill="#000000" font-family="sans-serif" font-size="20" lengthAdjust="spacing" textLength="298" x="65" y="384.707">select option (Accept or Reject)</text><polygon fill="#181818" points="52,424.4805,42,428.4805,52,432.4805,48,428.4805" style="stroke:#181818;stroke-width:1.0;"/><line style="stroke:#181818;stroke-width:1.0;stroke-dasharray:2.0,2.0;" x1="46" x2="1170" y1="428.4805" y2="428.4805"/><text fill="#000000" font-family="sans-serif" font-size="20" font-weight="bold" lengthAdjust="spacing" textLength="13" x="58" y="422.2617">8</text><text fill="#000000" font-family="sans-serif" font-size="20" lengthAdjust="spacing" textLength="267" x="75" y="422.2617">system send email to client.</text><!--SRC=[dLB9Rjmm3BtxAuWv9K2d27gSGu41WbuBr5_0IBIjZYIg8ft0-VhIMv05GPluH4cFRo4jbv0BLaoHtOKyUEfmZFg3ixRXaU3RJICx119dTaFbHA1rf6Sl1Tq5UsfrYWILd6BkutE03EZv8UGUEen2JQD13TfEefIWfJyZPKTm6x2VuLTjUtiDHpX7fPfHmpt1psnjE2hdCTrHjTefLpYSUyfw01HOgiO4DRXGC2iSJgl2yhoMIr-uHwKDty3sBKSuVjzTdQpf0ieGWoYSS-RHF2O32Jm47Q2CrGqe15mzLLc8diXtjPrz8pqQ_ofq0X-aH9na5U3kFpIWhpmMMzJT1ALoeQeJTBOIqC4mqPCncUNvbDXgMyOinZQysOMd9uDl7Bx9BnHjbIzSVJJZ5d7niwTy7KcuwffeHc4oiHdNKIN_PRaRGZ-GR9U0fH1Mw48L_VewrJz3mPRgfOlFxuwB1ivhkAkpSrJCPuLVzDjKhZyzz8ts7SQFE9NrIYXxe8GXpl-7Yy5UtvtUNm00]--></g></svg>