<?xml version="1.0" encoding="UTF-8" standalone="no"?><svg xmlns="http://www.w3.org/2000/svg" xmlns:xlink="http://www.w3.org/1999/xlink" contentStyleType="text/css" height="932px" preserveAspectRatio="none" style="width:674px;height:932px;background:#FFFFFF;" version="1.1" viewBox="0 0 674 932" width="674px" zoomAndPan="magnify"><defs/><g><text fill="#000000" font-family="sans-serif" font-size="14" font-weight="bold" lengthAdjust="spacing" textLength="365" x="155.5" y="28.5352">System Sequence Diagram (SSD) - Alternative Two</text><rect fill="#FFFFFF" height="699.0938" style="stroke:#181818;stroke-width:1.0;" width="10" x="49" y="136.043"/><rect fill="#FFFFFF" height="37.5547" style="stroke:#181818;stroke-width:1.0;" width="10" x="608" y="165.5977"/><rect fill="#FFFFFF" height="37.5547" style="stroke:#181818;stroke-width:1.0;" width="10" x="608" y="240.707"/><rect fill="#FFFFFF" height="37.5547" style="stroke:#181818;stroke-width:1.0;" width="10" x="608" y="315.8164"/><rect fill="#FFFFFF" height="37.5547" style="stroke:#181818;stroke-width:1.0;" width="10" x="608" y="438.0352"/><rect fill="#FFFFFF" height="78.6641" style="stroke:#181818;stroke-width:1.0;" width="10" x="608" y="513.1445"/><rect fill="#FFFFFF" height="44.5547" style="stroke:#181818;stroke-width:1.0;" width="10" x="608" y="631.3633"/><rect fill="#FFFFFF" height="37.5547" style="stroke:#181818;stroke-width:1.0;" width="10" x="608" y="713.4727"/><rect fill="#FFFFFF" height="37.5547" style="stroke:#181818;stroke-width:1.0;" width="10" x="608" y="788.582"/><rect fill="none" height="111.2188" style="stroke:#000000;stroke-width:1.5;" width="657" x="10" y="528.1445"/><line style="stroke:#181818;stroke-width:0.5;stroke-dasharray:5.0,5.0;" x1="54" x2="54" y1="126.043" y2="844.1367"/><line style="stroke:#181818;stroke-width:0.5;stroke-dasharray:5.0,5.0;" x1="613" x2="613" y1="126.043" y2="844.1367"/><text fill="#000000" font-family="sans-serif" font-size="20" lengthAdjust="spacing" textLength="62" x="20" y="121.8242">Owner</text><ellipse cx="54" cy="50.9883" fill="#E3E3E3" rx="8" ry="8" style="stroke:#181818;stroke-width:0.5;"/><path d="M54,58.9883 L54,85.9883 M41,66.9883 L67,66.9883 M54,85.9883 L41,100.9883 M54,85.9883 L67,100.9883 " fill="none" style="stroke:#181818;stroke-width:0.5;"/><text fill="#000000" font-family="sans-serif" font-size="20" lengthAdjust="spacing" textLength="62" x="20" y="862.4727">Owner</text><ellipse cx="54" cy="875.1914" fill="#E3E3E3" rx="8" ry="8" style="stroke:#181818;stroke-width:0.5;"/><path d="M54,883.1914 L54,910.1914 M41,891.1914 L67,891.1914 M54,910.1914 L41,925.1914 M54,910.1914 L67,925.1914 " fill="none" style="stroke:#181818;stroke-width:0.5;"/><rect fill="#E3E3E3" height="37.5547" rx="2.5" ry="2.5" style="stroke:#181818;stroke-width:0.5;" width="88" x="569" y="87.4883"/><text fill="#000000" font-family="sans-serif" font-size="20" lengthAdjust="spacing" textLength="74" x="576" y="113.8242">:System</text><rect fill="#E3E3E3" height="37.5547" rx="2.5" ry="2.5" style="stroke:#181818;stroke-width:0.5;" width="88" x="569" y="843.1367"/><text fill="#000000" font-family="sans-serif" font-size="20" lengthAdjust="spacing" textLength="74" x="576" y="869.4727">:System</text><rect fill="#FFFFFF" height="699.0938" style="stroke:#181818;stroke-width:1.0;" width="10" x="49" y="136.043"/><rect fill="#FFFFFF" height="37.5547" style="stroke:#181818;stroke-width:1.0;" width="10" x="608" y="165.5977"/><rect fill="#FFFFFF" height="37.5547" style="stroke:#181818;stroke-width:1.0;" width="10" x="608" y="240.707"/><rect fill="#FFFFFF" height="37.5547" style="stroke:#181818;stroke-width:1.0;" width="10" x="608" y="315.8164"/><rect fill="#FFFFFF" height="37.5547" style="stroke:#181818;stroke-width:1.0;" width="10" x="608" y="438.0352"/><rect fill="#FFFFFF" height="78.6641" style="stroke:#181818;stroke-width:1.0;" width="10" x="608" y="513.1445"/><rect fill="#FFFFFF" height="44.5547" style="stroke:#181818;stroke-width:1.0;" width="10" x="608" y="631.3633"/><rect fill="#FFFFFF" height="37.5547" style="stroke:#181818;stroke-width:1.0;" width="10" x="608" y="713.4727"/><rect fill="#FFFFFF" height="37.5547" style="stroke:#181818;stroke-width:1.0;" width="10" x="608" y="788.582"/><polygon fill="#181818" points="596,161.5977,606,165.5977,596,169.5977,600,165.5977" style="stroke:#181818;stroke-width:1.0;"/><line style="stroke:#181818;stroke-width:1.0;" x1="59" x2="602" y1="165.5977" y2="165.5977"/><text fill="#000000" font-family="sans-serif" font-size="20" font-weight="bold" lengthAdjust="spacing" textLength="13" x="66" y="159.3789">1</text><text fill="#000000" font-family="sans-serif" font-size="20" lengthAdjust="spacing" textLength="224" x="83" y="159.3789">displays list of Agencys</text><polygon fill="#181818" points="70,199.1523,60,203.1523,70,207.1523,66,203.1523" style="stroke:#181818;stroke-width:1.0;"/><line style="stroke:#181818;stroke-width:1.0;stroke-dasharray:2.0,2.0;" x1="64" x2="612" y1="203.1523" y2="203.1523"/><text fill="#000000" font-family="sans-serif" font-size="20" font-weight="bold" lengthAdjust="spacing" textLength="13" x="76" y="196.9336">2</text><text fill="#000000" font-family="sans-serif" font-size="20" lengthAdjust="spacing" textLength="237" x="93" y="196.9336">submits selected Agency</text><polygon fill="#181818" points="596,236.707,606,240.707,596,244.707,600,240.707" style="stroke:#181818;stroke-width:1.0;"/><line style="stroke:#181818;stroke-width:1.0;" x1="59" x2="602" y1="240.707" y2="240.707"/><text fill="#000000" font-family="sans-serif" font-size="20" font-weight="bold" lengthAdjust="spacing" textLength="13" x="66" y="234.4883">3</text><text fill="#000000" font-family="sans-serif" font-size="20" lengthAdjust="spacing" textLength="201" x="83" y="234.4883">displays list of Agent</text><polygon fill="#181818" points="70,274.2617,60,278.2617,70,282.2617,66,278.2617" style="stroke:#181818;stroke-width:1.0;"/><line style="stroke:#181818;stroke-width:1.0;stroke-dasharray:2.0,2.0;" x1="64" x2="612" y1="278.2617" y2="278.2617"/><text fill="#000000" font-family="sans-serif" font-size="20" font-weight="bold" lengthAdjust="spacing" textLength="13" x="76" y="272.043">4</text><text fill="#000000" font-family="sans-serif" font-size="20" lengthAdjust="spacing" textLength="224" x="93" y="272.043">submits selected Agent</text><polygon fill="#181818" points="596,311.8164,606,315.8164,596,319.8164,600,315.8164" style="stroke:#181818;stroke-width:1.0;"/><line style="stroke:#181818;stroke-width:1.0;" x1="59" x2="602" y1="315.8164" y2="315.8164"/><text fill="#000000" font-family="sans-serif" font-size="20" font-weight="bold" lengthAdjust="spacing" textLength="13" x="66" y="309.5977">5</text><text fill="#000000" font-family="sans-serif" font-size="20" lengthAdjust="spacing" textLength="513" x="83" y="309.5977">Submit a request for listing a property for sale or rent</text><polygon fill="#181818" points="70,349.3711,60,353.3711,70,357.3711,66,353.3711" style="stroke:#181818;stroke-width:1.0;"/><line style="stroke:#181818;stroke-width:1.0;stroke-dasharray:2.0,2.0;" x1="64" x2="612" y1="353.3711" y2="353.3711"/><text fill="#000000" font-family="sans-serif" font-size="20" font-weight="bold" lengthAdjust="spacing" textLength="13" x="76" y="347.1523">6</text><text fill="#000000" font-family="sans-serif" font-size="20" lengthAdjust="spacing" textLength="198" x="93" y="347.1523">requests Owner data</text><polygon fill="#181818" points="596,434.0352,606,438.0352,596,442.0352,600,438.0352" style="stroke:#181818;stroke-width:1.0;"/><line style="stroke:#181818;stroke-width:1.0;" x1="59" x2="602" y1="438.0352" y2="438.0352"/><text fill="#000000" font-family="sans-serif" font-size="20" font-weight="bold" lengthAdjust="spacing" textLength="13" x="66" y="408.2617">7</text><text fill="#000000" font-family="sans-serif" font-size="20" lengthAdjust="spacing" textLength="492" x="83" y="384.707">types requested data (name, citizen's card number,</text><text fill="#000000" font-family="sans-serif" font-size="20" lengthAdjust="spacing" textLength="352" x="83" y="408.2617">tax number, address, email address,</text><text fill="#000000" font-family="sans-serif" font-size="20" lengthAdjust="spacing" textLength="264" x="83" y="431.8164">contact telephone number).</text><polygon fill="#181818" points="70,471.5898,60,475.5898,70,479.5898,66,475.5898" style="stroke:#181818;stroke-width:1.0;"/><line style="stroke:#181818;stroke-width:1.0;stroke-dasharray:2.0,2.0;" x1="64" x2="612" y1="475.5898" y2="475.5898"/><text fill="#000000" font-family="sans-serif" font-size="20" font-weight="bold" lengthAdjust="spacing" textLength="13" x="76" y="469.3711">8</text><text fill="#000000" font-family="sans-serif" font-size="20" lengthAdjust="spacing" textLength="232" x="93" y="469.3711">requests type of request</text><polygon fill="#181818" points="596,509.1445,606,513.1445,596,517.1445,600,513.1445" style="stroke:#181818;stroke-width:1.0;"/><line style="stroke:#181818;stroke-width:1.0;" x1="59" x2="602" y1="513.1445" y2="513.1445"/><text fill="#000000" font-family="sans-serif" font-size="20" font-weight="bold" lengthAdjust="spacing" textLength="13" x="66" y="506.9258">9</text><text fill="#000000" font-family="sans-serif" font-size="20" lengthAdjust="spacing" textLength="335" x="83" y="506.9258">types requested data (Sale or Rent)</text><path d="M10,528.1445 L82,528.1445 L82,543.6992 L72,553.6992 L10,553.6992 L10,528.1445 " fill="#EEEEEE" style="stroke:#000000;stroke-width:1.5;"/><rect fill="none" height="111.2188" style="stroke:#000000;stroke-width:1.5;" width="657" x="10" y="528.1445"/><text fill="#000000" font-family="sans-serif" font-size="20" font-weight="bold" lengthAdjust="spacing" textLength="27" x="25" y="548.4805">alt</text><text fill="#000000" font-family="sans-serif" font-size="20" font-weight="bold" lengthAdjust="spacing" textLength="83" x="97" y="549.4805">[if Rent]</text><polygon fill="#181818" points="70,587.8086,60,591.8086,70,595.8086,66,591.8086" style="stroke:#181818;stroke-width:1.0;"/><line style="stroke:#181818;stroke-width:1.0;" x1="64" x2="612" y1="591.8086" y2="591.8086"/><text fill="#000000" font-family="sans-serif" font-size="20" font-weight="bold" lengthAdjust="spacing" textLength="26" x="76" y="585.5898">10</text><text fill="#000000" font-family="sans-serif" font-size="20" lengthAdjust="spacing" textLength="242" x="106" y="585.5898">request contract duration</text><line style="stroke:#000000;stroke-width:1.0;stroke-dasharray:2.0,2.0;" x1="10" x2="667" y1="600.8086" y2="600.8086"/><polygon fill="#181818" points="596,627.3633,606,631.3633,596,635.3633,600,631.3633" style="stroke:#181818;stroke-width:1.0;"/><line style="stroke:#181818;stroke-width:1.0;" x1="59" x2="602" y1="631.3633" y2="631.3633"/><text fill="#000000" font-family="sans-serif" font-size="20" font-weight="bold" lengthAdjust="spacing" textLength="26" x="66" y="625.1445">11</text><text fill="#000000" font-family="sans-serif" font-size="20" lengthAdjust="spacing" textLength="201" x="96" y="625.1445">types requested data</text><polygon fill="#181818" points="70,671.918,60,675.918,70,679.918,66,675.918" style="stroke:#181818;stroke-width:1.0;"/><line style="stroke:#181818;stroke-width:1.0;stroke-dasharray:2.0,2.0;" x1="64" x2="612" y1="675.918" y2="675.918"/><text fill="#000000" font-family="sans-serif" font-size="20" font-weight="bold" lengthAdjust="spacing" textLength="26" x="76" y="669.6992">12</text><text fill="#000000" font-family="sans-serif" font-size="20" lengthAdjust="spacing" textLength="242" x="106" y="669.6992">requests type of property</text><polygon fill="#181818" points="596,709.4727,606,713.4727,596,717.4727,600,713.4727" style="stroke:#181818;stroke-width:1.0;"/><line style="stroke:#181818;stroke-width:1.0;" x1="59" x2="602" y1="713.4727" y2="713.4727"/><text fill="#000000" font-family="sans-serif" font-size="20" font-weight="bold" lengthAdjust="spacing" textLength="26" x="66" y="707.2539">13</text><text fill="#000000" font-family="sans-serif" font-size="20" lengthAdjust="spacing" textLength="465" x="96" y="707.2539">types requested data (Apartement, House, Land)</text><polygon fill="#181818" points="70,747.0273,60,751.0273,70,755.0273,66,751.0273" style="stroke:#181818;stroke-width:1.0;"/><line style="stroke:#181818;stroke-width:1.0;stroke-dasharray:2.0,2.0;" x1="64" x2="612" y1="751.0273" y2="751.0273"/><text fill="#000000" font-family="sans-serif" font-size="20" font-weight="bold" lengthAdjust="spacing" textLength="26" x="76" y="744.8086">14</text><text fill="#000000" font-family="sans-serif" font-size="20" lengthAdjust="spacing" textLength="243" x="106" y="744.8086">requests data of property</text><polygon fill="#181818" points="596,784.582,606,788.582,596,792.582,600,788.582" style="stroke:#181818;stroke-width:1.0;"/><line style="stroke:#181818;stroke-width:1.0;" x1="59" x2="602" y1="788.582" y2="788.582"/><text fill="#000000" font-family="sans-serif" font-size="20" font-weight="bold" lengthAdjust="spacing" textLength="26" x="66" y="782.3633">15</text><text fill="#000000" font-family="sans-serif" font-size="20" lengthAdjust="spacing" textLength="206" x="96" y="782.3633">Select requested data</text><polygon fill="#181818" points="70,822.1367,60,826.1367,70,830.1367,66,826.1367" style="stroke:#181818;stroke-width:1.0;"/><line style="stroke:#181818;stroke-width:1.0;stroke-dasharray:2.0,2.0;" x1="64" x2="612" y1="826.1367" y2="826.1367"/><text fill="#000000" font-family="sans-serif" font-size="20" font-weight="bold" lengthAdjust="spacing" textLength="26" x="76" y="819.918">16</text><text fill="#000000" font-family="sans-serif" font-size="20" lengthAdjust="spacing" textLength="256" x="106" y="819.918">displays operation success</text><!--SRC=[hPHDYzim48Rl_XL3Bjr0KagFEHG2I-cXi53tk9TPQPo8o99N6c_g_lgEv8yknExYfRvOacTUFvftf7Wnhi60jVNgGXeqLTXQ_keTb-OtmUTFHHn3eFREgtFmDG67bbvzQL1Ty4GbTvOWa69q9_iw89vH-wjn9wZGHYeADYoXPHUPQYZfkIMd2EuDdbBuNLdURs4FHyiK7B9v8VXvzKM1BNlNrayKPApO1zWyN1s53M24F2haXsoKQT0nR0xz7_BdVfZpp0io3V4534-UmlxBI7K0RM9ZiOjWJMJm5HnFWjd5d3B9ZBgZpf2-5wLUyX3RfzfmX4XMQYDbxdLoXgP5eHkWMHx-9yqj3CpIy6eOABCEe1WkzWbG9NOaicGpGXDyGu6xl1nHt9PtU8jt3dZG7mm6ZOphQRbhA8vIgTD51UuSrhG3PLYQtNs8e31ew1ji1u-EyTSqGwq3nRW3gj7OlzD7f-Iq20cm5BGvUqT3plRZ-xUQS9F3myBIVbTlk1oC-256REVn-bNBOAeSTWiyy4wua2eGKWbq6-IqUZUbt3AdLSftm0BxFFeKFQldzBgoZitvl_hec6uTggLQE_ZcsoXDzHsTpXLU57yBDaklW9qzfFcGpzLoJLjE5qy2oGRBBQAKz7-n0FK7]--></g></svg>