<?xml version="1.0" encoding="UTF-8" standalone="no"?><svg xmlns="http://www.w3.org/2000/svg" xmlns:xlink="http://www.w3.org/1999/xlink" contentStyleType="text/css" height="905px" preserveAspectRatio="none" style="width:1108px;height:905px;background:#FFFFFF;" version="1.1" viewBox="0 0 1108 905" width="1108px" zoomAndPan="magnify"><defs/><g><text fill="#000000" font-family="sans-serif" font-size="14" font-weight="bold" lengthAdjust="spacing" textLength="105" x="494.75" y="23.5352">Domain Model</text><!--class Agent--><g id="elem_Agent"><rect codeLine="14" fill="#F1F1F1" height="41.5547" id="Agent" rx="2.5" ry="2.5" style="stroke:#181818;stroke-width:0.5;" width="62" x="46" y="229.4883"/><text fill="#000000" font-family="sans-serif" font-size="20" lengthAdjust="spacing" textLength="56" x="49" y="253.8242">Agent</text><line style="stroke:#181818;stroke-width:0.5;" x1="47" x2="107" y1="263.043" y2="263.043"/></g><!--class Property--><g id="elem_Property"><rect codeLine="17" fill="#F1F1F1" height="112.2188" id="Property" rx="2.5" ry="2.5" style="stroke:#181818;stroke-width:0.5;" width="205" x="280.5" y="194.4883"/><text fill="#000000" font-family="sans-serif" font-size="20" lengthAdjust="spacing" textLength="80" x="343" y="218.8242">Property</text><line style="stroke:#181818;stroke-width:0.5;" x1="281.5" x2="484.5" y1="228.043" y2="228.043"/><text fill="#000000" font-family="sans-serif" font-size="20" lengthAdjust="spacing" textLength="41" x="286.5" y="251.3789">area</text><text fill="#000000" font-family="sans-serif" font-size="20" lengthAdjust="spacing" textLength="193" x="286.5" y="274.9336">distanceFromCenter</text><text fill="#000000" font-family="sans-serif" font-size="20" lengthAdjust="spacing" textLength="48" x="286.5" y="298.4883">price</text></g><!--class Photos--><g id="elem_Photos"><rect codeLine="23" fill="#F1F1F1" height="41.5547" id="Photos" rx="2.5" ry="2.5" style="stroke:#181818;stroke-width:0.5;" width="70" x="181" y="426.4883"/><text fill="#000000" font-family="sans-serif" font-size="20" lengthAdjust="spacing" textLength="64" x="184" y="450.8242">Photos</text><line style="stroke:#181818;stroke-width:0.5;" x1="182" x2="250" y1="460.043" y2="460.043"/></g><!--class Address--><g id="elem_Address"><rect codeLine="26" fill="#F1F1F1" height="88.6641" id="Address" rx="2.5" ry="2.5" style="stroke:#181818;stroke-width:0.5;" width="135" x="604.5" y="205.9883"/><text fill="#000000" font-family="sans-serif" font-size="20" lengthAdjust="spacing" textLength="79" x="632.5" y="230.3242">Address</text><line style="stroke:#181818;stroke-width:0.5;" x1="605.5" x2="738.5" y1="239.543" y2="239.543"/><text fill="#000000" font-family="sans-serif" font-size="20" lengthAdjust="spacing" textLength="123" x="610.5" y="262.8789">doorNumber</text><text fill="#000000" font-family="sans-serif" font-size="20" lengthAdjust="spacing" textLength="80" x="610.5" y="286.4336">zipCode</text></g><!--class Apartment--><g id="elem_Apartment"><rect codeLine="31" fill="#F1F1F1" height="41.5547" id="Apartment" rx="2.5" ry="2.5" style="stroke:#181818;stroke-width:0.5;" width="108" x="188" y="611.9883"/><text fill="#000000" font-family="sans-serif" font-size="20" lengthAdjust="spacing" textLength="102" x="191" y="636.3242">Apartment</text><line style="stroke:#181818;stroke-width:0.5;" x1="189" x2="295" y1="645.543" y2="645.543"/></g><!--class Residency--><g id="elem_Residency"><rect codeLine="39" fill="#F1F1F1" height="112.2188" id="Residency" rx="2.5" ry="2.5" style="stroke:#181818;stroke-width:0.5;" width="248" x="286" y="391.4883"/><text fill="#000000" font-family="sans-serif" font-size="20" lengthAdjust="spacing" textLength="96" x="362" y="415.8242">Residency</text><line style="stroke:#181818;stroke-width:0.5;" x1="287" x2="533" y1="425.043" y2="425.043"/><text fill="#000000" font-family="sans-serif" font-size="20" lengthAdjust="spacing" textLength="195" x="292" y="448.3789">numberOfBedrooms</text><text fill="#000000" font-family="sans-serif" font-size="20" lengthAdjust="spacing" textLength="201" x="292" y="471.9336">numberOfBathrooms</text><text fill="#000000" font-family="sans-serif" font-size="20" lengthAdjust="spacing" textLength="236" x="292" y="495.4883">numberOfParkingSpaces</text></g><!--class House--><g id="elem_House"><rect codeLine="34" fill="#F1F1F1" height="88.6641" id="House" rx="2.5" ry="2.5" style="stroke:#181818;stroke-width:0.5;" width="157" x="331.5" y="588.4883"/><text fill="#000000" font-family="sans-serif" font-size="20" lengthAdjust="spacing" textLength="60" x="380" y="612.8242">House</text><line style="stroke:#181818;stroke-width:0.5;" x1="332.5" x2="487.5" y1="622.043" y2="622.043"/><text fill="#000000" font-family="sans-serif" font-size="20" lengthAdjust="spacing" textLength="94" x="337.5" y="645.3789">basement</text><text fill="#000000" font-family="sans-serif" font-size="20" lengthAdjust="spacing" textLength="145" x="337.5" y="668.9336">inhabitableLoft</text></g><!--class Announcement--><g id="elem_Announcement"><rect codeLine="46" fill="#F1F1F1" height="65.1094" id="Announcement" rx="2.5" ry="2.5" style="stroke:#181818;stroke-width:0.5;" width="152" x="723" y="44.4883"/><text fill="#000000" font-family="sans-serif" font-size="20" lengthAdjust="spacing" textLength="144" x="727" y="68.8242">Announcement</text><line style="stroke:#181818;stroke-width:0.5;" x1="724" x2="874" y1="78.043" y2="78.043"/><text fill="#000000" font-family="sans-serif" font-size="20" lengthAdjust="spacing" textLength="140" x="729" y="101.3789">publishedDate</text></g><!--class Commission--><g id="elem_Commission"><rect codeLine="51" fill="#F1F1F1" height="88.6641" id="Commission" rx="2.5" ry="2.5" style="stroke:#181818;stroke-width:0.5;" width="126" x="775" y="205.9883"/><text fill="#000000" font-family="sans-serif" font-size="20" lengthAdjust="spacing" textLength="120" x="778" y="230.3242">Commission</text><line style="stroke:#181818;stroke-width:0.5;" x1="776" x2="900" y1="239.543" y2="239.543"/><text fill="#000000" font-family="sans-serif" font-size="20" lengthAdjust="spacing" textLength="106" x="781" y="262.8789">percentage</text><text fill="#000000" font-family="sans-serif" font-size="20" lengthAdjust="spacing" textLength="50" x="781" y="286.4336">value</text></g><!--class Land--><g id="elem_Land"><rect codeLine="62" fill="#F1F1F1" height="41.5547" id="Land" rx="2.5" ry="2.5" style="stroke:#181818;stroke-width:0.5;" width="53" x="569.5" y="426.4883"/><text fill="#000000" font-family="sans-serif" font-size="20" lengthAdjust="spacing" textLength="47" x="572.5" y="450.8242">Land</text><line style="stroke:#181818;stroke-width:0.5;" x1="570.5" x2="621.5" y1="460.043" y2="460.043"/></g><!--class Equipment--><g id="elem_Equipment"><rect codeLine="65" fill="#F1F1F1" height="65.1094" id="Equipment" rx="2.5" ry="2.5" style="stroke:#181818;stroke-width:0.5;" width="172" x="524" y="600.4883"/><text fill="#000000" font-family="sans-serif" font-size="20" lengthAdjust="spacing" textLength="104" x="558" y="624.8242">Equipment</text><line style="stroke:#181818;stroke-width:0.5;" x1="525" x2="695" y1="634.043" y2="634.043"/><text fill="#000000" font-family="sans-serif" font-size="20" lengthAdjust="spacing" textLength="160" x="530" y="657.3789">equipmentName</text></g><!--class SunExposure--><g id="elem_SunExposure"><rect codeLine="70" fill="#F1F1F1" height="135.7734" id="SunExposure" rx="2.5" ry="2.5" style="stroke:#181818;stroke-width:0.5;" width="130" x="345" y="762.4883"/><text fill="#000000" font-family="sans-serif" font-size="20" lengthAdjust="spacing" textLength="124" x="348" y="786.8242">SunExposure</text><line style="stroke:#181818;stroke-width:0.5;" x1="346" x2="474" y1="796.043" y2="796.043"/><text fill="#000000" font-family="sans-serif" font-size="20" lengthAdjust="spacing" textLength="72" x="351" y="819.3789">NORTH</text><text fill="#000000" font-family="sans-serif" font-size="20" lengthAdjust="spacing" textLength="69" x="351" y="842.9336">SOUTH</text><text fill="#000000" font-family="sans-serif" font-size="20" lengthAdjust="spacing" textLength="49" x="351" y="866.4883">EAST</text><text fill="#000000" font-family="sans-serif" font-size="20" lengthAdjust="spacing" textLength="52" x="351" y="890.043">WEST</text></g><!--class TransactionType--><g id="elem_TransactionType"><rect codeLine="77" fill="#F1F1F1" height="112.2188" id="TransactionType" rx="2.5" ry="2.5" style="stroke:#181818;stroke-width:0.5;" width="165" x="936.5" y="194.4883"/><text fill="#000000" font-family="sans-serif" font-size="20" lengthAdjust="spacing" textLength="159" x="939.5" y="218.8242">TransactionType</text><line style="stroke:#181818;stroke-width:0.5;" x1="937.5" x2="1100.5" y1="228.043" y2="228.043"/><text fill="#000000" font-family="sans-serif" font-size="20" lengthAdjust="spacing" textLength="52" x="942.5" y="251.3789">RENT</text><text fill="#000000" font-family="sans-serif" font-size="20" lengthAdjust="spacing" textLength="47" x="942.5" y="274.9336">SALE</text><text fill="#000000" font-family="sans-serif" font-size="20" lengthAdjust="spacing" textLength="38" x="942.5" y="298.4883">BUY</text></g><!--class Owner--><g id="elem_Owner"><rect fill="#F1F1F1" height="41.5547" id="Owner" rx="2.5" ry="2.5" style="stroke:#181818;stroke-width:0.5;" width="68" x="7" y="426.4883"/><text fill="#000000" font-family="sans-serif" font-size="20" lengthAdjust="spacing" textLength="62" x="10" y="450.8242">Owner</text><line style="stroke:#181818;stroke-width:0.5;" x1="8" x2="74" y1="460.043" y2="460.043"/></g><!--reverse link Residency to Apartment--><g id="link_Residency_Apartment"><path d="M345.47,518.9683 C315.02,552.2283 280.97,589.4283 260.52,611.7583 " fill="none" id="Residency-backto-Apartment" style="stroke:#181818;stroke-width:1.0;"/><polygon fill="none" points="339.9,514.6883,358.57,504.6583,350.23,524.1383,339.9,514.6883" style="stroke:#181818;stroke-width:1.0;"/></g><!--reverse link Residency to House--><g id="link_Residency_House"><path d="M410,524.9183 C410,546.4383 410,569.1183 410,588.0383 " fill="none" id="Residency-backto-House" style="stroke:#181818;stroke-width:1.0;"/><polygon fill="none" points="403,525.0583,410,505.0583,417,525.0583,403,525.0583" style="stroke:#181818;stroke-width:1.0;"/></g><!--reverse link Property to Residency--><g id="link_Property_Residency"><path d="M393.6,328.0683 C396.51,349.0683 399.61,371.4283 402.32,390.9883 " fill="none" id="Property-backto-Residency" style="stroke:#181818;stroke-width:1.0;"/><polygon fill="none" points="386.68,329.1183,390.87,308.3483,400.55,327.1983,386.68,329.1183" style="stroke:#181818;stroke-width:1.0;"/></g><!--reverse link Property to Land--><g id="link_Property_Land"><path d="M472.03,320.3583 C498.37,342.1183 526.66,366.9283 551,391.4883 C561.68,402.2683 572.49,415.3883 580.83,426.1083 " fill="none" id="Property-backto-Land" style="stroke:#181818;stroke-width:1.0;"/><polygon fill="none" points="467.75,325.8983,456.67,307.8283,476.6,315.0483,467.75,325.8983" style="stroke:#181818;stroke-width:1.0;"/></g><!--link Agent to Owner--><g id="link_Agent_Owner"><path codeLine="85" d="M64.58,271.9183 C55.2,288.6083 43.09,313.1683 38,336.4883 C31.27,367.2883 34.46,404.0783 37.58,426.3483 " fill="none" id="Agent-Owner" style="stroke:#181818;stroke-width:1.0;"/><polygon fill="#000000" points="44.6222,357.1461,51.7467,343.7,42.4826,342.0804,44.6222,357.1461" style="stroke:#000000;stroke-width:1.0;"/><text fill="#000000" font-family="sans-serif" font-size="20" lengthAdjust="spacing" textLength="122" x="59" y="356.8242">contacted by</text><text fill="#000000" font-family="sans-serif" font-size="20" lengthAdjust="spacing" textLength="13" x="47.4413" y="298.567">1</text><text fill="#000000" font-family="sans-serif" font-size="20" lengthAdjust="spacing" textLength="13" x="22.038" y="414.4483">1</text></g><!--link Agent to Property--><g id="link_Agent_Property"><path codeLine="86" d="M108.33,268.2983 C117.24,272.4883 127.13,276.3483 136.75,278.4883 C161.69,284.0383 226.34,281.1683 251.75,278.4883 C261.02,277.5083 270.59,276.1583 280.16,274.5583 " fill="none" id="Agent-Property" style="stroke:#181818;stroke-width:1.0;"/><polygon fill="#000000" points="152.7447,266.5569,138.4534,261.3308,138.111,270.7292,152.7447,266.5569" style="stroke:#000000;stroke-width:1.0;"/><text fill="#000000" font-family="sans-serif" font-size="20" lengthAdjust="spacing" textLength="93" x="157.75" y="273.8242">publishes</text><text fill="#000000" font-family="sans-serif" font-size="20" lengthAdjust="spacing" textLength="10" x="115.8231" y="266.0388">*</text><text fill="#000000" font-family="sans-serif" font-size="20" lengthAdjust="spacing" textLength="10" x="262.5775" y="271.7899">*</text></g><!--link Agent to Property--><g id="link_Agent_Property"><path codeLine="87" d="M108.31,250.4883 C148.45,250.4883 220.03,250.4883 280.05,250.4883 " fill="none" id="Agent-Property-1" style="stroke:#181818;stroke-width:1.0;"/><text fill="#000000" font-family="sans-serif" font-size="20" lengthAdjust="spacing" textLength="38" x="172.25" y="218.8242">sets</text><polygon fill="#000000" points="142.25,234.8203,127.7779,230.118,127.7779,239.5226,142.25,234.8203" style="stroke:#000000;stroke-width:1.0;"/><text fill="#000000" font-family="sans-serif" font-size="20" lengthAdjust="spacing" textLength="116" x="146.25" y="242.3789">commission</text><text fill="#000000" font-family="sans-serif" font-size="20" lengthAdjust="spacing" textLength="13" x="116.1083" y="244.5555">1</text><text fill="#000000" font-family="sans-serif" font-size="20" lengthAdjust="spacing" textLength="10" x="262.4598" y="246.0274">*</text></g><!--link Property to Photos--><g id="link_Property_Photos"><path codeLine="91" d="M335.59,306.8483 C301.45,346.7083 257.35,398.1983 233.38,426.1883 " fill="none" id="Property-Photos" style="stroke:#181818;stroke-width:1.0;"/><polygon fill="#000000" points="312.7961,355.3417,325.7815,347.4088,318.6386,341.2912,312.7961,355.3417" style="stroke:#000000;stroke-width:1.0;"/><text fill="#000000" font-family="sans-serif" font-size="20" lengthAdjust="spacing" textLength="33" x="331" y="356.8242">has</text><text fill="#000000" font-family="sans-serif" font-size="20" lengthAdjust="spacing" textLength="13" x="316.3567" y="334.05">1</text><text fill="#000000" font-family="sans-serif" font-size="20" lengthAdjust="spacing" textLength="35" x="198.3492" y="414.2473">1..*</text></g><!--link Announcement to Commission--><g id="link_Announcement_Commission"><path codeLine="92" d="M745.99,109.6083 C727.6,124.8683 713.84,144.2383 724,164.4883 C727.16,170.7783 750.11,188.3183 774.6,205.8483 " fill="none" id="Announcement-Commission" style="stroke:#181818;stroke-width:1.0;"/><polygon fill="#000000" points="729.7204,144.5973,729.3369,159.8094,738.3516,157.1295,729.7204,144.5973" style="stroke:#000000;stroke-width:1.0;"/><text fill="#000000" font-family="sans-serif" font-size="20" lengthAdjust="spacing" textLength="83" x="745" y="159.8242">is set for</text><text fill="#000000" font-family="sans-serif" font-size="20" lengthAdjust="spacing" textLength="13" x="722.3898" y="136.8428">1</text><text fill="#000000" font-family="sans-serif" font-size="20" lengthAdjust="spacing" textLength="13" x="753.9547" y="196.0926">1</text></g><!--link Announcement to Commission--><g id="link_Announcement_Commission"><path codeLine="96" d="M820.29,109.9683 C825.38,119.1383 830.15,129.3883 833,139.4883 C839,160.7383 840.6,185.2083 840.56,205.6583 " fill="none" id="Announcement-Commission-1" style="stroke:#181818;stroke-width:1.0;"/><polygon fill="#000000" points="847.6579,160.092,849.259,144.9595,840.0586,146.9084,847.6579,160.092" style="stroke:#000000;stroke-width:1.0;"/><text fill="#000000" font-family="sans-serif" font-size="20" lengthAdjust="spacing" textLength="50" x="859" y="159.8242">has a</text><text fill="#000000" font-family="sans-serif" font-size="20" lengthAdjust="spacing" textLength="13" x="809.832" y="136.9875">1</text><text fill="#000000" font-family="sans-serif" font-size="20" lengthAdjust="spacing" textLength="13" x="826.9813" y="193.7862">1</text></g><!--link Residency to Equipment--><g id="link_Residency_Equipment"><path codeLine="93" d="M470.28,503.7883 C504.55,535.2383 546.26,573.5083 575.14,600.0083 " fill="none" id="Residency-Equipment" style="stroke:#181818;stroke-width:1.0;"/><polygon fill="#000000" points="541.8945,551.6744,534.4105,538.4251,528.0521,545.3545,541.8945,551.6744" style="stroke:#000000;stroke-width:1.0;"/><text fill="#000000" font-family="sans-serif" font-size="20" lengthAdjust="spacing" textLength="33" x="549" y="553.8242">has</text><text fill="#000000" font-family="sans-serif" font-size="20" lengthAdjust="spacing" textLength="13" x="463.4983" y="530.983">1</text><text fill="#000000" font-family="sans-serif" font-size="20" lengthAdjust="spacing" textLength="10" x="557.7908" y="588.1843">*</text></g><!--link Announcement to Property--><g id="link_Announcement_Property"><path codeLine="94" d="M722.73,103.7883 C692.69,114.3283 658.03,126.9683 627,139.4883 C580.14,158.3983 529.06,181.0883 485.8,200.9383 " fill="none" id="Announcement-Property" style="stroke:#181818;stroke-width:1.0;"/><polygon fill="#000000" points="642.4019,149.2306,627.2278,150.3703,630.7957,159.0718,642.4019,149.2306" style="stroke:#000000;stroke-width:1.0;"/><text fill="#000000" font-family="sans-serif" font-size="20" lengthAdjust="spacing" textLength="64" x="648" y="159.8242">part of</text><text fill="#000000" font-family="sans-serif" font-size="20" lengthAdjust="spacing" textLength="13" x="702.0996" y="101.5552">1</text><text fill="#000000" font-family="sans-serif" font-size="20" lengthAdjust="spacing" textLength="13" x="493.4852" y="192.9935">1</text></g><!--link Property to Address--><g id="link_Property_Address"><path codeLine="95" d="M485.7,250.4883 C525.13,250.4883 569.09,250.4883 604.41,250.4883 " fill="none" id="Property-Address" style="stroke:#181818;stroke-width:1.0;"/><polygon fill="#000000" points="519,235.2656,504.5279,230.5633,504.5279,239.9679,519,235.2656" style="stroke:#000000;stroke-width:1.0;"/><text fill="#000000" font-family="sans-serif" font-size="20" lengthAdjust="spacing" textLength="62" x="524" y="242.8242">has an</text><text fill="#000000" font-family="sans-serif" font-size="20" lengthAdjust="spacing" textLength="13" x="493.3781" y="246.0274">1</text><text fill="#000000" font-family="sans-serif" font-size="20" lengthAdjust="spacing" textLength="13" x="583.3064" y="245.6151">1</text></g><!--link House to SunExposure--><g id="link_House_SunExposure"><path codeLine="97" d="M410,677.8583 C410,702.7383 410,734.3983 410,762.3383 " fill="none" id="House-SunExposure" style="stroke:#181818;stroke-width:1.0;"/><polygon fill="#000000" points="418,728.2656,422.7023,713.7935,413.2977,713.7935,418,728.2656" style="stroke:#000000;stroke-width:1.0;"/><text fill="#000000" font-family="sans-serif" font-size="20" lengthAdjust="spacing" textLength="131" x="431" y="727.8242">has a value of</text><text fill="#000000" font-family="sans-serif" font-size="20" lengthAdjust="spacing" textLength="13" x="396.1672" y="704.4737">1</text><text fill="#000000" font-family="sans-serif" font-size="20" lengthAdjust="spacing" textLength="13" x="396.3297" y="750.5006">1</text></g><!--link Announcement to TransactionType--><g id="link_Announcement_TransactionType"><path codeLine="98" d="M870.69,109.8683 C886.91,118.4583 903.59,128.4783 918,139.4883 C938.6,155.2283 958.52,175.4583 975.14,194.2683 " fill="none" id="Announcement-TransactionType" style="stroke:#181818;stroke-width:1.0;"/><polygon fill="#000000" points="959.2225,157.2936,950.9213,144.5404,945.0105,151.8553,959.2225,157.2936" style="stroke:#000000;stroke-width:1.0;"/><text fill="#000000" font-family="sans-serif" font-size="20" lengthAdjust="spacing" textLength="131" x="966" y="159.8242">has a value of</text><text fill="#000000" font-family="sans-serif" font-size="20" lengthAdjust="spacing" textLength="13" x="868.8945" y="136.8703">1</text><text fill="#000000" font-family="sans-serif" font-size="20" lengthAdjust="spacing" textLength="13" x="956.0024" y="182.3713">1</text></g><!--SRC=[ZLHTQzim57tNhn1xCGnQsZsMCN1RbmxI9CGfOx0NMRg9HMrTJvBNfc7_VTToR2jjnkO7Mxewz-ZSBxidRHfXHLsXV0B55Mn4M_axD3xNhy0_NJ0tG7YD1cLfiGRkRGlHIIFaazX2xdSLS0lI2xEjOe0hXS9dRRPy8oeNdyXAE9TwRtNHUlWgqOIBBrWoOIfjmEyQu6XzYQpK2hZKLj8LOLq3cPLZp6jF0cwn5jhm1rHGCPQ46tXMDnNk0FOi-SrORqktO3pViz6mjDY0zRizu_G82o8ib7OKaOGxYls6NC06SsErXCYvH8ykfakLik1SpwOGxRojYuFpgsvkI604fbXztGc25mz6ERu2Hz4PkOiexx5rS0hHSHR2GSSGDjgKej1U51NCSECdYj5ff3aEsmIHYyqrA8jOksEZyELxwr9OAjOsfpu0AiCKap7OKk8wKJrvqnQLTYMeM-4XM9BHTBsRF6-mhhLp6it13wma4cgoiFqbgZRaxb3TDNK7oHZZI3fGkanNwuTilkwtzul7FEkNitH-6_N1J1Xr8XdZUVQprSqK0mpRkQY3Y0CiRqtsqg1hBNNPVB5QtxDyyKZlBCtNx5j6hv5oROLnGdeAiDE-PwjEPvxECdRz-3sG9iiXCOCa_k7o0pyx2v_ZYAzuAHmN_0lhUpe2BfuDM7x5QR8yNKX3NkmctCSUHv-9QYY8EwPxWtBW7VzXv5WeGYShoWqudup4v1WehhXsv49S7YFWm7mPCtUXd8IyITg0V9-Uy_DEQfZ70HItOfoUgT4E4ZtVeEMVsJGc0veunqxu5ssKJHfhZXjYFDRPvwR_GnpAP_vB9v-AtVyD8bJKWWCgZ4eduE_S9_DwvCd-0000]--></g></svg>