<?xml version="1.0" encoding="UTF-8" standalone="no"?><svg xmlns="http://www.w3.org/2000/svg" xmlns:xlink="http://www.w3.org/1999/xlink" contentStyleType="text/css" height="905px" preserveAspectRatio="none" style="width:1107px;height:905px;background:#FFFFFF;" version="1.1" viewBox="0 0 1107 905" width="1107px" zoomAndPan="magnify"><defs/><g><text fill="#000000" font-family="sans-serif" font-size="14" font-weight="bold" lengthAdjust="spacing" textLength="105" x="494.25" y="23.5352">Domain Model</text><!--class Agent--><g id="elem_Agent"><rect codeLine="14" fill="#F1F1F1" height="41.5547" id="Agent" rx="2.5" ry="2.5" style="stroke:#181818;stroke-width:0.5;" width="62" x="46" y="229.9283"/><text fill="#000000" font-family="sans-serif" font-size="20" lengthAdjust="spacing" textLength="56" x="49" y="254.2642">Agent</text><line style="stroke:#181818;stroke-width:0.5;" x1="47" x2="107" y1="263.483" y2="263.483"/></g><!--class Property--><g id="elem_Property"><rect codeLine="17" fill="#F1F1F1" height="112.2188" id="Property" rx="2.5" ry="2.5" style="stroke:#181818;stroke-width:0.5;" width="205" x="280.5" y="194.5883"/><text fill="#000000" font-family="sans-serif" font-size="20" lengthAdjust="spacing" textLength="80" x="343" y="218.9242">Property</text><line style="stroke:#181818;stroke-width:0.5;" x1="281.5" x2="484.5" y1="228.143" y2="228.143"/><text fill="#000000" font-family="sans-serif" font-size="20" lengthAdjust="spacing" textLength="41" x="286.5" y="251.4789">area</text><text fill="#000000" font-family="sans-serif" font-size="20" lengthAdjust="spacing" textLength="193" x="286.5" y="275.0336">distanceFromCenter</text><text fill="#000000" font-family="sans-serif" font-size="20" lengthAdjust="spacing" textLength="48" x="286.5" y="298.5883">price</text></g><!--class Photos--><g id="elem_Photos"><rect codeLine="23" fill="#F1F1F1" height="41.5547" id="Photos" rx="2.5" ry="2.5" style="stroke:#181818;stroke-width:0.5;" width="70" x="181" y="427.1483"/><text fill="#000000" font-family="sans-serif" font-size="20" lengthAdjust="spacing" textLength="64" x="184" y="451.4842">Photos</text><line style="stroke:#181818;stroke-width:0.5;" x1="182" x2="250" y1="460.703" y2="460.703"/></g><!--class Address--><g id="elem_Address"><rect codeLine="26" fill="#F1F1F1" height="88.6641" id="Address" rx="2.5" ry="2.5" style="stroke:#181818;stroke-width:0.5;" width="135" x="603.5" y="206.3683"/><text fill="#000000" font-family="sans-serif" font-size="20" lengthAdjust="spacing" textLength="79" x="631.5" y="230.7042">Address</text><line style="stroke:#181818;stroke-width:0.5;" x1="604.5" x2="737.5" y1="239.923" y2="239.923"/><text fill="#000000" font-family="sans-serif" font-size="20" lengthAdjust="spacing" textLength="123" x="609.5" y="263.2589">doorNumber</text><text fill="#000000" font-family="sans-serif" font-size="20" lengthAdjust="spacing" textLength="80" x="609.5" y="286.8136">zipCode</text></g><!--class Apartment--><g id="elem_Apartment"><rect codeLine="31" fill="#F1F1F1" height="41.5547" id="Apartment" rx="2.5" ry="2.5" style="stroke:#181818;stroke-width:0.5;" width="108" x="188" y="612.5883"/><text fill="#000000" font-family="sans-serif" font-size="20" lengthAdjust="spacing" textLength="102" x="191" y="636.9242">Apartment</text><line style="stroke:#181818;stroke-width:0.5;" x1="189" x2="295" y1="646.143" y2="646.143"/></g><!--class Residency--><g id="elem_Residency"><rect codeLine="39" fill="#F1F1F1" height="112.2188" id="Residency" rx="2.5" ry="2.5" style="stroke:#181818;stroke-width:0.5;" width="248" x="286" y="391.8083"/><text fill="#000000" font-family="sans-serif" font-size="20" lengthAdjust="spacing" textLength="96" x="362" y="416.1442">Residency</text><line style="stroke:#181818;stroke-width:0.5;" x1="287" x2="533" y1="425.363" y2="425.363"/><text fill="#000000" font-family="sans-serif" font-size="20" lengthAdjust="spacing" textLength="195" x="292" y="448.6989">numberOfBedrooms</text><text fill="#000000" font-family="sans-serif" font-size="20" lengthAdjust="spacing" textLength="201" x="292" y="472.2536">numberOfBathrooms</text><text fill="#000000" font-family="sans-serif" font-size="20" lengthAdjust="spacing" textLength="236" x="292" y="495.8083">numberOfParkingSpaces</text></g><!--class House--><g id="elem_House"><rect codeLine="34" fill="#F1F1F1" height="88.6641" id="House" rx="2.5" ry="2.5" style="stroke:#181818;stroke-width:0.5;" width="157" x="331.5" y="589.0283"/><text fill="#000000" font-family="sans-serif" font-size="20" lengthAdjust="spacing" textLength="60" x="380" y="613.3642">House</text><line style="stroke:#181818;stroke-width:0.5;" x1="332.5" x2="487.5" y1="622.583" y2="622.583"/><text fill="#000000" font-family="sans-serif" font-size="20" lengthAdjust="spacing" textLength="94" x="337.5" y="645.9189">basement</text><text fill="#000000" font-family="sans-serif" font-size="20" lengthAdjust="spacing" textLength="145" x="337.5" y="669.4736">inhabitableLoft</text></g><!--class PublishedProperty--><g id="elem_PublishedProperty"><rect codeLine="46" fill="#F1F1F1" height="65.1094" id="PublishedProperty" rx="2.5" ry="2.5" style="stroke:#181818;stroke-width:0.5;" width="180" x="708" y="44.4883"/><text fill="#000000" font-family="sans-serif" font-size="20" lengthAdjust="spacing" textLength="174" x="711" y="68.8242">PublishedProperty</text><line style="stroke:#181818;stroke-width:0.5;" x1="709" x2="887" y1="78.043" y2="78.043"/><text fill="#000000" font-family="sans-serif" font-size="20" lengthAdjust="spacing" textLength="140" x="714" y="101.3789">publishedDate</text></g><!--class Commission--><g id="elem_Commission"><rect codeLine="51" fill="#F1F1F1" height="88.6641" id="Commission" rx="2.5" ry="2.5" style="stroke:#181818;stroke-width:0.5;" width="126" x="774" y="206.3683"/><text fill="#000000" font-family="sans-serif" font-size="20" lengthAdjust="spacing" textLength="120" x="777" y="230.7042">Commission</text><line style="stroke:#181818;stroke-width:0.5;" x1="775" x2="899" y1="239.923" y2="239.923"/><text fill="#000000" font-family="sans-serif" font-size="20" lengthAdjust="spacing" textLength="106" x="780" y="263.2589">percentage</text><text fill="#000000" font-family="sans-serif" font-size="20" lengthAdjust="spacing" textLength="50" x="780" y="286.8136">value</text></g><!--class Land--><g id="elem_Land"><rect codeLine="62" fill="#F1F1F1" height="41.5547" id="Land" rx="2.5" ry="2.5" style="stroke:#181818;stroke-width:0.5;" width="53" x="568.5" y="427.1483"/><text fill="#000000" font-family="sans-serif" font-size="20" lengthAdjust="spacing" textLength="47" x="571.5" y="451.4842">Land</text><line style="stroke:#181818;stroke-width:0.5;" x1="569.5" x2="620.5" y1="460.703" y2="460.703"/></g><!--class Equipment--><g id="elem_Equipment"><rect codeLine="65" fill="#F1F1F1" height="65.1094" id="Equipment" rx="2.5" ry="2.5" style="stroke:#181818;stroke-width:0.5;" width="172" x="524" y="600.8083"/><text fill="#000000" font-family="sans-serif" font-size="20" lengthAdjust="spacing" textLength="104" x="558" y="625.1442">Equipment</text><line style="stroke:#181818;stroke-width:0.5;" x1="525" x2="695" y1="634.363" y2="634.363"/><text fill="#000000" font-family="sans-serif" font-size="20" lengthAdjust="spacing" textLength="160" x="530" y="657.6989">equipmentName</text></g><!--class SunExposure--><g id="elem_SunExposure"><rect codeLine="70" fill="#F1F1F1" height="135.7734" id="SunExposure" rx="2.5" ry="2.5" style="stroke:#181818;stroke-width:0.5;" width="130" x="345" y="762.6983"/><text fill="#000000" font-family="sans-serif" font-size="20" lengthAdjust="spacing" textLength="124" x="348" y="787.0342">SunExposure</text><line style="stroke:#181818;stroke-width:0.5;" x1="346" x2="474" y1="796.253" y2="796.253"/><text fill="#000000" font-family="sans-serif" font-size="20" lengthAdjust="spacing" textLength="72" x="351" y="819.5889">NORTH</text><text fill="#000000" font-family="sans-serif" font-size="20" lengthAdjust="spacing" textLength="69" x="351" y="843.1436">SOUTH</text><text fill="#000000" font-family="sans-serif" font-size="20" lengthAdjust="spacing" textLength="49" x="351" y="866.6983">EAST</text><text fill="#000000" font-family="sans-serif" font-size="20" lengthAdjust="spacing" textLength="52" x="351" y="890.253">WEST</text></g><!--class TransactionType--><g id="elem_TransactionType"><rect codeLine="77" fill="#F1F1F1" height="112.2188" id="TransactionType" rx="2.5" ry="2.5" style="stroke:#181818;stroke-width:0.5;" width="165" x="935.5" y="194.5883"/><text fill="#000000" font-family="sans-serif" font-size="20" lengthAdjust="spacing" textLength="159" x="938.5" y="218.9242">TransactionType</text><line style="stroke:#181818;stroke-width:0.5;" x1="936.5" x2="1099.5" y1="228.143" y2="228.143"/><text fill="#000000" font-family="sans-serif" font-size="20" lengthAdjust="spacing" textLength="52" x="941.5" y="251.4789">RENT</text><text fill="#000000" font-family="sans-serif" font-size="20" lengthAdjust="spacing" textLength="47" x="941.5" y="275.0336">SALE</text><text fill="#000000" font-family="sans-serif" font-size="20" lengthAdjust="spacing" textLength="38" x="941.5" y="298.5883">BUY</text></g><!--class Owner--><g id="elem_Owner"><rect fill="#F1F1F1" height="41.5547" id="Owner" rx="2.5" ry="2.5" style="stroke:#181818;stroke-width:0.5;" width="68" x="7" y="427.1483"/><text fill="#000000" font-family="sans-serif" font-size="20" lengthAdjust="spacing" textLength="62" x="10" y="451.4842">Owner</text><line style="stroke:#181818;stroke-width:0.5;" x1="8" x2="74" y1="460.703" y2="460.703"/></g><!--reverse link Residency to Apartment--><g id="link_Residency_Apartment"><path d="M345.03,519.8583 C314.65,553.0383 280.76,590.0483 260.42,612.2483 " fill="none" id="Residency-backto-Apartment" style="stroke:#181818;stroke-width:1.0;"/><polygon fill="none" points="339.47,515.4783,358.14,505.4583,349.79,524.9383,339.47,515.4783" style="stroke:#181818;stroke-width:1.0;"/></g><!--reverse link Residency to House--><g id="link_Residency_House"><path d="M410,525.4583 C410,547.0183 410,569.7383 410,588.6583 " fill="none" id="Residency-backto-House" style="stroke:#181818;stroke-width:1.0;"/><polygon fill="none" points="403,525.4583,410,505.4583,417,525.4583,403,525.4583" style="stroke:#181818;stroke-width:1.0;"/></g><!--reverse link Property to Residency--><g id="link_Property_Residency"><path d="M393.51,327.6983 C396.45,348.9183 399.58,371.5683 402.32,391.3583 " fill="none" id="Property-backto-Residency" style="stroke:#181818;stroke-width:1.0;"/><polygon fill="none" points="386.47,328.8883,390.66,308.1183,400.34,326.9783,386.47,328.8883" style="stroke:#181818;stroke-width:1.0;"/></g><!--reverse link Property to Land--><g id="link_Property_Land"><path d="M472.2,320.4383 C498.55,342.2183 526.8,367.0883 551,391.8083 C561.62,402.6583 572.27,415.9283 580.44,426.7283 " fill="none" id="Property-backto-Land" style="stroke:#181818;stroke-width:1.0;"/><polygon fill="none" points="468.17,325.3683,457.09,307.3083,477.01,314.5183,468.17,325.3683" style="stroke:#181818;stroke-width:1.0;"/></g><!--link Agent to Owner--><g id="link_Agent_Owner"><path codeLine="85" d="M64.77,271.8183 C55.36,288.5383 43.13,313.3083 38,336.8083 C31.27,367.6383 34.46,404.4683 37.58,426.7583 " fill="none" id="Agent-Owner" style="stroke:#181818;stroke-width:1.0;"/><polygon fill="#000000" points="44.6172,357.4652,51.7502,344.0237,42.4872,342.3981,44.6172,357.4652" style="stroke:#000000;stroke-width:1.0;"/><text fill="#000000" font-family="sans-serif" font-size="20" lengthAdjust="spacing" textLength="122" x="59" y="357.1442">contacted by</text><text fill="#000000" font-family="sans-serif" font-size="20" lengthAdjust="spacing" textLength="13" x="47.4387" y="298.76">1</text><text fill="#000000" font-family="sans-serif" font-size="20" lengthAdjust="spacing" textLength="13" x="22.038" y="414.7943">1</text></g><!--link Agent to Property--><g id="link_Agent_Property"><path codeLine="86" d="M108.33,268.5083 C117.24,272.6983 127.13,276.5583 136.75,278.6983 C161.69,284.2583 226.34,281.3883 251.75,278.6983 C261.02,277.7283 270.59,276.3683 280.16,274.7783 " fill="none" id="Agent-Property" style="stroke:#181818;stroke-width:1.0;"/><polygon fill="#000000" points="152.7447,266.7673,138.4536,261.5405,138.1107,270.9388,152.7447,266.7673" style="stroke:#000000;stroke-width:1.0;"/><text fill="#000000" font-family="sans-serif" font-size="20" lengthAdjust="spacing" textLength="93" x="157.75" y="274.0342">publishes</text><text fill="#000000" font-family="sans-serif" font-size="20" lengthAdjust="spacing" textLength="10" x="115.8231" y="266.2013">*</text><text fill="#000000" font-family="sans-serif" font-size="20" lengthAdjust="spacing" textLength="10" x="262.5775" y="272.0183">*</text></g><!--link Agent to Property--><g id="link_Agent_Property"><path codeLine="87" d="M108.31,250.6983 C148.45,250.6983 220.03,250.6983 280.05,250.6983 " fill="none" id="Agent-Property-1" style="stroke:#181818;stroke-width:1.0;"/><text fill="#000000" font-family="sans-serif" font-size="20" lengthAdjust="spacing" textLength="38" x="172.25" y="219.0342">sets</text><polygon fill="#000000" points="142.25,235.0303,127.7779,230.328,127.7779,239.7326,142.25,235.0303" style="stroke:#000000;stroke-width:1.0;"/><text fill="#000000" font-family="sans-serif" font-size="20" lengthAdjust="spacing" textLength="116" x="146.25" y="242.5889">commission</text><text fill="#000000" font-family="sans-serif" font-size="20" lengthAdjust="spacing" textLength="13" x="116.1083" y="244.718">1</text><text fill="#000000" font-family="sans-serif" font-size="20" lengthAdjust="spacing" textLength="10" x="262.4598" y="246.2452">*</text></g><!--link Property to Photos--><g id="link_Property_Photos"><path codeLine="91" d="M335.59,307.1183 C301.26,347.2483 256.85,399.1683 232.98,427.0683 " fill="none" id="Property-Photos" style="stroke:#181818;stroke-width:1.0;"/><polygon fill="#000000" points="312.7996,355.6648,325.7804,347.7242,318.6339,341.6108,312.7996,355.6648" style="stroke:#000000;stroke-width:1.0;"/><text fill="#000000" font-family="sans-serif" font-size="20" lengthAdjust="spacing" textLength="33" x="331" y="357.1442">has</text><text fill="#000000" font-family="sans-serif" font-size="20" lengthAdjust="spacing" textLength="13" x="316.3567" y="334.3396">1</text><text fill="#000000" font-family="sans-serif" font-size="20" lengthAdjust="spacing" textLength="35" x="197.8403" y="414.7827">1..*</text></g><!--link PublishedProperty to Commission--><g id="link_PublishedProperty_Commission"><path codeLine="92" d="M744.51,110.0883 C726.36,125.2883 712.93,144.5083 723,164.5883 C726.15,170.8883 749.11,188.4483 773.6,205.9983 " fill="none" id="PublishedProperty-Commission" style="stroke:#181818;stroke-width:1.0;"/><polygon fill="#000000" points="728.678,144.71,728.3787,159.924,737.3784,157.1943,728.678,144.71" style="stroke:#000000;stroke-width:1.0;"/><text fill="#000000" font-family="sans-serif" font-size="20" lengthAdjust="spacing" textLength="83" x="744" y="159.9242">is set for</text><text fill="#000000" font-family="sans-serif" font-size="20" lengthAdjust="spacing" textLength="13" x="721.5742" y="136.848">1</text><text fill="#000000" font-family="sans-serif" font-size="20" lengthAdjust="spacing" textLength="13" x="752.9547" y="196.2175">1</text></g><!--link PublishedProperty to Commission--><g id="link_PublishedProperty_Commission"><path codeLine="96" d="M819.29,110.0483 C824.38,119.2283 829.15,129.4883 832,139.5883 C838.03,160.9583 839.62,185.5683 839.56,206.0983 " fill="none" id="PublishedProperty-Commission-1" style="stroke:#181818;stroke-width:1.0;"/><polygon fill="#000000" points="846.6519,160.1932,848.2645,145.062,839.0626,147.0039,846.6519,160.1932" style="stroke:#000000;stroke-width:1.0;"/><text fill="#000000" font-family="sans-serif" font-size="20" lengthAdjust="spacing" textLength="50" x="858" y="159.9242">has a</text><text fill="#000000" font-family="sans-serif" font-size="20" lengthAdjust="spacing" textLength="13" x="808.7396" y="136.8013">1</text><text fill="#000000" font-family="sans-serif" font-size="20" lengthAdjust="spacing" textLength="13" x="825.9813" y="194.235">1</text></g><!--link Residency to Equipment--><g id="link_Residency_Equipment"><path codeLine="93" d="M470.55,504.4583 C504.81,535.8783 546.43,574.0583 575.24,600.4783 " fill="none" id="Residency-Equipment" style="stroke:#181818;stroke-width:1.0;"/><polygon fill="#000000" points="541.8957,552.2131,534.4087,538.9655,528.0518,545.8963,541.8957,552.2131" style="stroke:#000000;stroke-width:1.0;"/><text fill="#000000" font-family="sans-serif" font-size="20" lengthAdjust="spacing" textLength="33" x="549" y="554.3642">has</text><text fill="#000000" font-family="sans-serif" font-size="20" lengthAdjust="spacing" textLength="13" x="463.4617" y="531.2665">1</text><text fill="#000000" font-family="sans-serif" font-size="20" lengthAdjust="spacing" textLength="10" x="557.9093" y="588.6819">*</text></g><!--link PublishedProperty to Property--><g id="link_PublishedProperty_Property"><path codeLine="94" d="M707.76,108.7683 C681.25,118.2183 652.31,128.9483 626,139.5883 C579.52,158.3983 528.9,180.9883 485.95,200.7983 " fill="none" id="PublishedProperty-Property" style="stroke:#181818;stroke-width:1.0;"/><polygon fill="#000000" points="641.3892,149.2998,626.2199,150.5026,629.824,159.1892,641.3892,149.2998" style="stroke:#000000;stroke-width:1.0;"/><text fill="#000000" font-family="sans-serif" font-size="20" lengthAdjust="spacing" textLength="64" x="647" y="159.9242">part of</text><text fill="#000000" font-family="sans-serif" font-size="20" lengthAdjust="spacing" textLength="13" x="687.051" y="106.738">1</text><text fill="#000000" font-family="sans-serif" font-size="20" lengthAdjust="spacing" textLength="13" x="493.6457" y="192.8366">1</text></g><!--link Property to Address--><g id="link_Property_Address"><path codeLine="95" d="M485.75,250.6983 C524.85,250.6983 568.37,250.6983 603.4,250.6983 " fill="none" id="Property-Address" style="stroke:#181818;stroke-width:1.0;"/><polygon fill="#000000" points="518.5,235.4756,504.0279,230.7733,504.0279,240.1779,518.5,235.4756" style="stroke:#000000;stroke-width:1.0;"/><text fill="#000000" font-family="sans-serif" font-size="20" lengthAdjust="spacing" textLength="62" x="523.5" y="243.0342">has an</text><text fill="#000000" font-family="sans-serif" font-size="20" lengthAdjust="spacing" textLength="13" x="493.4316" y="246.2452">1</text><text fill="#000000" font-family="sans-serif" font-size="20" lengthAdjust="spacing" textLength="13" x="582.2953" y="245.8065">1</text></g><!--link House to SunExposure--><g id="link_House_SunExposure"><path codeLine="97" d="M410,678.1783 C410,703.0183 410,734.6283 410,762.5283 " fill="none" id="House-SunExposure" style="stroke:#181818;stroke-width:1.0;"/><polygon fill="#000000" points="418,728.4756,422.7023,714.0035,413.2977,714.0035,418,728.4756" style="stroke:#000000;stroke-width:1.0;"/><text fill="#000000" font-family="sans-serif" font-size="20" lengthAdjust="spacing" textLength="131" x="431" y="728.0342">has a value of</text><text fill="#000000" font-family="sans-serif" font-size="20" lengthAdjust="spacing" textLength="13" x="396.1266" y="705.1192">1</text><text fill="#000000" font-family="sans-serif" font-size="20" lengthAdjust="spacing" textLength="13" x="396.3297" y="750.6885">1</text></g><!--link PublishedProperty to TransactionType--><g id="link_PublishedProperty_TransactionType"><path codeLine="98" d="M869.69,109.9483 C885.91,118.5483 902.59,128.5683 917,139.5883 C937.5,155.2783 957.32,175.3983 973.9,194.1483 " fill="none" id="PublishedProperty-TransactionType" style="stroke:#181818;stroke-width:1.0;"/><polygon fill="#000000" points="958.2226,157.3934,949.921,144.6405,944.0105,151.9556,958.2226,157.3934" style="stroke:#000000;stroke-width:1.0;"/><text fill="#000000" font-family="sans-serif" font-size="20" lengthAdjust="spacing" textLength="131" x="965" y="159.9242">has a value of</text><text fill="#000000" font-family="sans-serif" font-size="20" lengthAdjust="spacing" textLength="13" x="867.8945" y="136.9641">1</text><text fill="#000000" font-family="sans-serif" font-size="20" lengthAdjust="spacing" textLength="13" x="954.7331" y="182.2245">1</text></g><!--SRC=[ZLHDRvmm4BtxLrYv85LAbFGOLPL8GfHAczresQYgr8iniuiLy53RD26h_lSEPW6JhDfm07lyvisR3sEVbAw54LM9yWbodiDMDAMxHUrIzGhyypcp0uHNg54M1YlWpZGGdDH2FeaTfAujWHkGJkXT6G9i8N9yLdh7jwAquOaiXRMnSqPbZODl4hKFVCwY2LCg3QwjWQDn1R92vS2bCf92-7K5PCujOquv4d23bL2QtsCE9MEHZy2JgYwn1TYpw0zZlItUWNPypqR3Wy4QZ6ltZDCZ30Y_o9MbZ2JSKkxNv0B6cskZ90JE1Jgq8LsSvmQixTboHBDigkpW_AhgQn8OW2bNLtM2uCM1pYrVWwNij6m3oZjiB1n3T9oPiD0n-8tIXSYK4ra92zowYM9q6cdcQMilShMzWjmWLdPk5AvuRtqGXfgrIsaEWDembQJ9IcKBoESHwi5y8nnuIpIQhjh9_HghIbchK1_ym4XAZoRDRt-Bil45FBHuGoD2MiPGKGUA7-BrvZvPRlhjtUenJVhb8bxU1CEm43e_Kf7nFFdLgBghRgy5XkrIL5x40POsEdcfqJQ6HcsvMc_kMBfwf7SIfnlsFQ7NIBanGbiX7INOQT-pTQSpZHS9kthyuKcZToNa9nSd_FJKV-OPN_92M2xuLzOFTW1SFMim_9BJzN8Ka6vwrawuJpsEFXFLq10xftk3ik0i_wdbs2X2Hskg3LWNZSJaw2akkRBaGbmE0-30V14oTwaSXRmfse1yNvwpiqwglvGZw5_5dARjeDFnBHh-XKqNPa0JyJWE7-8EwagtdEEMQEUulahz3-FGIFrnnNpgVV-72531H0ueVtCw5Vy9SBJMCtVs5m00]--></g></svg>