<?xml version="1.0" encoding="UTF-8" standalone="no"?><svg xmlns="http://www.w3.org/2000/svg" xmlns:xlink="http://www.w3.org/1999/xlink" contentStyleType="text/css" height="706px" preserveAspectRatio="none" style="width:922px;height:706px;background:#FFFFFF;" version="1.1" viewBox="0 0 922 706" width="922px" zoomAndPan="magnify"><defs/><g><text fill="#000000" font-family="sans-serif" font-size="14" font-weight="bold" lengthAdjust="spacing" textLength="415" x="254.5" y="28.5352">System Sequence Diagram (SSD) - US002 - Publish a Sale</text><rect fill="#FFFFFF" height="473.7656" style="stroke:#181818;stroke-width:1.0;" width="10" x="46" y="136.043"/><rect fill="#FFFFFF" height="61.1094" style="stroke:#181818;stroke-width:1.0;" width="10" x="856" y="165.5977"/><rect fill="#FFFFFF" height="37.5547" style="stroke:#181818;stroke-width:1.0;" width="10" x="856" y="264.2617"/><rect fill="#FFFFFF" height="78.6641" style="stroke:#181818;stroke-width:1.0;" width="10" x="856" y="339.3711"/><rect fill="#FFFFFF" height="63.1094" style="stroke:#181818;stroke-width:1.0;" width="10" x="856" y="455.5898"/><rect fill="#FFFFFF" height="44.5547" style="stroke:#181818;stroke-width:1.0;" width="10" x="856" y="556.2539"/><rect fill="none" height="209.8828" style="stroke:#000000;stroke-width:1.5;" width="905" x="10" y="354.3711"/><line style="stroke:#181818;stroke-width:0.5;stroke-dasharray:5.0,5.0;" x1="51" x2="51" y1="126.043" y2="618.8086"/><line style="stroke:#181818;stroke-width:0.5;stroke-dasharray:5.0,5.0;" x1="861" x2="861" y1="126.043" y2="618.8086"/><text fill="#000000" font-family="sans-serif" font-size="20" lengthAdjust="spacing" textLength="56" x="20" y="121.8242">Agent</text><ellipse cx="51" cy="50.9883" fill="#E3E3E3" rx="8" ry="8" style="stroke:#181818;stroke-width:0.5;"/><path d="M51,58.9883 L51,85.9883 M38,66.9883 L64,66.9883 M51,85.9883 L38,100.9883 M51,85.9883 L64,100.9883 " fill="none" style="stroke:#181818;stroke-width:0.5;"/><text fill="#000000" font-family="sans-serif" font-size="20" lengthAdjust="spacing" textLength="56" x="20" y="637.1445">Agent</text><ellipse cx="51" cy="649.8633" fill="#E3E3E3" rx="8" ry="8" style="stroke:#181818;stroke-width:0.5;"/><path d="M51,657.8633 L51,684.8633 M38,665.8633 L64,665.8633 M51,684.8633 L38,699.8633 M51,684.8633 L64,699.8633 " fill="none" style="stroke:#181818;stroke-width:0.5;"/><rect fill="#E3E3E3" height="37.5547" rx="2.5" ry="2.5" style="stroke:#181818;stroke-width:0.5;" width="88" x="817" y="87.4883"/><text fill="#000000" font-family="sans-serif" font-size="20" lengthAdjust="spacing" textLength="74" x="824" y="113.8242">:System</text><rect fill="#E3E3E3" height="37.5547" rx="2.5" ry="2.5" style="stroke:#181818;stroke-width:0.5;" width="88" x="817" y="617.8086"/><text fill="#000000" font-family="sans-serif" font-size="20" lengthAdjust="spacing" textLength="74" x="824" y="644.1445">:System</text><rect fill="#FFFFFF" height="473.7656" style="stroke:#181818;stroke-width:1.0;" width="10" x="46" y="136.043"/><rect fill="#FFFFFF" height="61.1094" style="stroke:#181818;stroke-width:1.0;" width="10" x="856" y="165.5977"/><rect fill="#FFFFFF" height="37.5547" style="stroke:#181818;stroke-width:1.0;" width="10" x="856" y="264.2617"/><rect fill="#FFFFFF" height="78.6641" style="stroke:#181818;stroke-width:1.0;" width="10" x="856" y="339.3711"/><rect fill="#FFFFFF" height="63.1094" style="stroke:#181818;stroke-width:1.0;" width="10" x="856" y="455.5898"/><rect fill="#FFFFFF" height="44.5547" style="stroke:#181818;stroke-width:1.0;" width="10" x="856" y="556.2539"/><polygon fill="#181818" points="844,161.5977,854,165.5977,844,169.5977,848,165.5977" style="stroke:#181818;stroke-width:1.0;"/><line style="stroke:#181818;stroke-width:1.0;" x1="56" x2="850" y1="165.5977" y2="165.5977"/><text fill="#000000" font-family="sans-serif" font-size="20" font-weight="bold" lengthAdjust="spacing" textLength="13" x="63" y="159.3789">1</text><text fill="#000000" font-family="sans-serif" font-size="20" lengthAdjust="spacing" textLength="540" x="80" y="159.3789">asks to create a new sale for publish from existing order</text><polygon fill="#181818" points="67,222.707,57,226.707,67,230.707,63,226.707" style="stroke:#181818;stroke-width:1.0;"/><line style="stroke:#181818;stroke-width:1.0;stroke-dasharray:2.0,2.0;" x1="61" x2="860" y1="226.707" y2="226.707"/><text fill="#000000" font-family="sans-serif" font-size="20" font-weight="bold" lengthAdjust="spacing" textLength="13" x="73" y="208.7109">2</text><text fill="#000000" font-family="sans-serif" font-size="20" lengthAdjust="spacing" textLength="634" x="90" y="196.9336">Lists Announcements assigned to Agent that are not published yet</text><text fill="#000000" font-family="sans-serif" font-size="20" lengthAdjust="spacing" textLength="212" x="90" y="220.4883">and asks to select one</text><polygon fill="#181818" points="844,260.2617,854,264.2617,844,268.2617,848,264.2617" style="stroke:#181818;stroke-width:1.0;"/><line style="stroke:#181818;stroke-width:1.0;" x1="56" x2="850" y1="264.2617" y2="264.2617"/><text fill="#000000" font-family="sans-serif" font-size="20" font-weight="bold" lengthAdjust="spacing" textLength="13" x="63" y="258.043">3</text><text fill="#000000" font-family="sans-serif" font-size="20" lengthAdjust="spacing" textLength="329" x="80" y="258.043">selects an Announcement by its ID</text><polygon fill="#181818" points="67,297.8164,57,301.8164,67,305.8164,63,301.8164" style="stroke:#181818;stroke-width:1.0;"/><line style="stroke:#181818;stroke-width:1.0;stroke-dasharray:2.0,2.0;" x1="61" x2="860" y1="301.8164" y2="301.8164"/><text fill="#000000" font-family="sans-serif" font-size="20" font-weight="bold" lengthAdjust="spacing" textLength="13" x="73" y="295.5977">4</text><text fill="#000000" font-family="sans-serif" font-size="20" lengthAdjust="spacing" textLength="682" x="90" y="295.5977">asks to set a Commission, either through a fixed amount or percentage</text><polygon fill="#181818" points="844,335.3711,854,339.3711,844,343.3711,848,339.3711" style="stroke:#181818;stroke-width:1.0;"/><line style="stroke:#181818;stroke-width:1.0;" x1="56" x2="850" y1="339.3711" y2="339.3711"/><text fill="#000000" font-family="sans-serif" font-size="20" font-weight="bold" lengthAdjust="spacing" textLength="13" x="63" y="333.1523">5</text><text fill="#000000" font-family="sans-serif" font-size="20" lengthAdjust="spacing" textLength="299" x="80" y="333.1523">selects the type of Commission</text><path d="M10,354.3711 L82,354.3711 L82,369.9258 L72,379.9258 L10,379.9258 L10,354.3711 " fill="#EEEEEE" style="stroke:#000000;stroke-width:1.5;"/><rect fill="none" height="209.8828" style="stroke:#000000;stroke-width:1.5;" width="905" x="10" y="354.3711"/><text fill="#000000" font-family="sans-serif" font-size="20" font-weight="bold" lengthAdjust="spacing" textLength="27" x="25" y="374.707">alt</text><text fill="#000000" font-family="sans-serif" font-size="20" font-weight="bold" lengthAdjust="spacing" textLength="157" x="97" y="375.707">[Fixed Amount]</text><polygon fill="#181818" points="67,414.0352,57,418.0352,67,422.0352,63,418.0352" style="stroke:#181818;stroke-width:1.0;"/><line style="stroke:#181818;stroke-width:1.0;stroke-dasharray:2.0,2.0;" x1="61" x2="860" y1="418.0352" y2="418.0352"/><text fill="#000000" font-family="sans-serif" font-size="20" font-weight="bold" lengthAdjust="spacing" textLength="13" x="73" y="411.8164">6</text><text fill="#000000" font-family="sans-serif" font-size="20" lengthAdjust="spacing" textLength="292" x="90" y="411.8164">asks to type the Fixed Amount</text><polygon fill="#181818" points="844,451.5898,854,455.5898,844,459.5898,848,455.5898" style="stroke:#181818;stroke-width:1.0;"/><line style="stroke:#181818;stroke-width:1.0;" x1="56" x2="850" y1="455.5898" y2="455.5898"/><text fill="#000000" font-family="sans-serif" font-size="20" font-weight="bold" lengthAdjust="spacing" textLength="13" x="63" y="449.3711">7</text><text fill="#000000" font-family="sans-serif" font-size="20" lengthAdjust="spacing" textLength="228" x="80" y="449.3711">types the Fixed Amount</text><line style="stroke:#000000;stroke-width:1.0;stroke-dasharray:2.0,2.0;" x1="10" x2="915" y1="464.5898" y2="464.5898"/><text fill="#000000" font-family="sans-serif" font-size="20" font-weight="bold" lengthAdjust="spacing" textLength="128" x="15" y="483.9258">[Percentage]</text><polygon fill="#181818" points="67,514.6992,57,518.6992,67,522.6992,63,518.6992" style="stroke:#181818;stroke-width:1.0;"/><line style="stroke:#181818;stroke-width:1.0;stroke-dasharray:2.0,2.0;" x1="61" x2="860" y1="518.6992" y2="518.6992"/><text fill="#000000" font-family="sans-serif" font-size="20" font-weight="bold" lengthAdjust="spacing" textLength="13" x="73" y="512.4805">8</text><text fill="#000000" font-family="sans-serif" font-size="20" lengthAdjust="spacing" textLength="317" x="90" y="512.4805">asks to type the Percentage value</text><polygon fill="#181818" points="844,552.2539,854,556.2539,844,560.2539,848,556.2539" style="stroke:#181818;stroke-width:1.0;"/><line style="stroke:#181818;stroke-width:1.0;" x1="56" x2="850" y1="556.2539" y2="556.2539"/><text fill="#000000" font-family="sans-serif" font-size="20" font-weight="bold" lengthAdjust="spacing" textLength="13" x="63" y="550.0352">9</text><text fill="#000000" font-family="sans-serif" font-size="20" lengthAdjust="spacing" textLength="253" x="80" y="550.0352">types the Percentage value</text><polygon fill="#181818" points="67,596.8086,57,600.8086,67,604.8086,63,600.8086" style="stroke:#181818;stroke-width:1.0;"/><line style="stroke:#181818;stroke-width:1.0;stroke-dasharray:2.0,2.0;" x1="61" x2="860" y1="600.8086" y2="600.8086"/><text fill="#000000" font-family="sans-serif" font-size="20" font-weight="bold" lengthAdjust="spacing" textLength="26" x="73" y="594.5898">10</text><text fill="#000000" font-family="sans-serif" font-size="20" lengthAdjust="spacing" textLength="746" x="103" y="594.5898">publishes the Announcement, notifies the owner and shows operation success</text><!--SRC=[dPF1Yjim48RlUeeXbxImWR3770fBmqAXXmNJMoyJUMoBs2DN6c_MVVgER2Vnrg5awuk5DFF_tun6yUYunO1DxUsHSiYfmAwMPy-IkTy4ZriJpo7GUFQs2huXaD3HxAH5UyIICkbhWa1MaCjw7X0hpFt9SGa5rf6C4ISQclLHg86CVdN4bc3li4pXdx9i_nasy2FRRX_r_z8TQXShGCXGTGrsuhbh3XHqRSK7M3sLnB82Z32iZFgAiwv55bZjHgFXU5mEUUuLXQPuC_nWy-KCjTFWOmJnO0EbE0Ic4qG5W48Tsucfq8O0lRaegJmVSeMwQ9_D9isDoey-E_Yk6GhBx3ijlT7Dg8xHbQpteAvZd5GeW860lPmjzRmd-Sd8-OKnKgrj1yzaSbhOBsiRuzMHto70eGUdsz_sTzLmTLT8-EgRnca5dX-0d5GK53_uhamNLxWtvSP6hHHJsqV1geXEpSU0LHQaRmbyCJDSqc8jy3nuFWsU1lJxHmc3PX9V9Dt0IzjBn2GHRslyhK3w2E3bse9xuQufy8frH_yBU5Dd0ScvCUiRM9hYSWsCink0D8qw1r7dPq1Mb_7EKYTc8sRMIzwrMIzfhUV2XMO2lep-UwrxflJyR4QbUVv3UbQkSDEHFx7Ex518vKyHl0ufIYekTjPIZBT6zGy0]--></g></svg>