<?xml version="1.0" encoding="UTF-8" standalone="no"?><svg xmlns="http://www.w3.org/2000/svg" xmlns:xlink="http://www.w3.org/1999/xlink" contentStyleType="text/css" height="704px" preserveAspectRatio="none" style="width:373px;height:704px;background:#FFFFFF;" version="1.1" viewBox="0 0 373 704" width="373px" zoomAndPan="magnify"><defs/><g><!--class LegacySystem--><g id="elem_LegacySystem"><rect codeLine="9" fill="#F1F1F1" height="73.5547" id="LegacySystem" rx="2.5" ry="2.5" style="stroke:#181818;stroke-width:0.5;" width="346" x="13.5" y="624"/><ellipse cx="115.5" cy="641" fill="#C2C2C2" rx="12" ry="12" style="stroke:#181818;stroke-width:1.0;"/><path d="M118.3066,648.0801 Q117.623,648.4316 116.8711,648.6074 Q116.1191,648.7832 115.2891,648.7832 Q112.3398,648.7832 110.7871,646.8398 Q109.2344,644.8965 109.2344,641.2246 Q109.2344,637.543 110.7871,635.5996 Q112.3398,633.6563 115.2891,633.6563 Q116.1191,633.6563 116.8809,633.832 Q117.6426,634.0078 118.3066,634.3594 L118.3066,637.5625 Q117.5645,636.8789 116.8662,636.5615 Q116.168,636.2441 115.4258,636.2441 Q113.8438,636.2441 113.0381,637.499 Q112.2324,638.7539 112.2324,641.2246 Q112.2324,643.6855 113.0381,644.9404 Q113.8438,646.1953 115.4258,646.1953 Q116.168,646.1953 116.8662,645.8779 Q117.5645,645.5605 118.3066,644.877 Z " fill="#000000"/><text fill="#000000" font-family="sans-serif" font-size="20" lengthAdjust="spacing" textLength="133" x="137.5" y="648.5586">LegacySystem</text><line style="stroke:#181818;stroke-width:0.5;" x1="14.5" x2="358.5" y1="658" y2="658"/><line style="stroke:#181818;stroke-width:0.5;" x1="14.5" x2="358.5" y1="666" y2="666"/><text fill="#000000" font-family="sans-serif" font-size="20" lengthAdjust="spacing" textLength="334" x="19.5" y="689.3359">+loadData(location) : importResult</text></g><!--class SystemAdministrator--><g id="elem_SystemAdministrator"><rect codeLine="13" fill="#F1F1F1" height="97.1094" id="SystemAdministrator" rx="2.5" ry="2.5" style="stroke:#181818;stroke-width:0.5;" width="235" x="69" y="7"/><ellipse cx="85" cy="24" fill="#C2C2C2" rx="12" ry="12" style="stroke:#181818;stroke-width:1.0;"/><path d="M87.8066,31.0801 Q87.123,31.4316 86.3711,31.6074 Q85.6191,31.7832 84.7891,31.7832 Q81.8398,31.7832 80.2871,29.8398 Q78.7344,27.8965 78.7344,24.2246 Q78.7344,20.543 80.2871,18.5996 Q81.8398,16.6563 84.7891,16.6563 Q85.6191,16.6563 86.3809,16.832 Q87.1426,17.0078 87.8066,17.3594 L87.8066,20.5625 Q87.0645,19.8789 86.3662,19.5615 Q85.668,19.2441 84.9258,19.2441 Q83.3438,19.2441 82.5381,20.499 Q81.7324,21.7539 81.7324,24.2246 Q81.7324,26.6855 82.5381,27.9404 Q83.3438,29.1953 84.9258,29.1953 Q85.668,29.1953 86.3662,28.8779 Q87.0645,28.5605 87.8066,27.877 Z " fill="#000000"/><text fill="#000000" font-family="sans-serif" font-size="20" lengthAdjust="spacing" textLength="201" x="100" y="31.5586">SystemAdministrator</text><line style="stroke:#181818;stroke-width:0.5;" x1="70" x2="303" y1="41" y2="41"/><text fill="#000000" font-family="sans-serif" font-size="20" lengthAdjust="spacing" textLength="65" x="75" y="64.3359">-name</text><text fill="#000000" font-family="sans-serif" font-size="20" lengthAdjust="spacing" textLength="65" x="75" y="87.8906">-email</text><line style="stroke:#181818;stroke-width:0.5;" x1="70" x2="303" y1="96.1094" y2="96.1094"/></g><!--class ImportInformationController--><g id="elem_ImportInformationController"><rect codeLine="18" fill="#F1F1F1" height="144.2188" id="ImportInformationController" rx="2.5" ry="2.5" style="stroke:#181818;stroke-width:0.5;" width="359" x="7" y="395"/><ellipse cx="46.4" cy="412" fill="#C2C2C2" rx="12" ry="12" style="stroke:#181818;stroke-width:1.0;"/><path d="M49.2066,419.0801 Q48.523,419.4316 47.7711,419.6074 Q47.0191,419.7832 46.1891,419.7832 Q43.2398,419.7832 41.6871,417.8398 Q40.1344,415.8965 40.1344,412.2246 Q40.1344,408.543 41.6871,406.5996 Q43.2398,404.6563 46.1891,404.6563 Q47.0191,404.6563 47.7809,404.832 Q48.5426,405.0078 49.2066,405.3594 L49.2066,408.5625 Q48.4645,407.8789 47.7662,407.5615 Q47.068,407.2441 46.3258,407.2441 Q44.7438,407.2441 43.9381,408.499 Q43.1324,409.7539 43.1324,412.2246 Q43.1324,414.6855 43.9381,415.9404 Q44.7438,417.1953 46.3258,417.1953 Q47.068,417.1953 47.7662,416.8779 Q48.4645,416.5605 49.2066,415.877 Z " fill="#000000"/><text fill="#000000" font-family="sans-serif" font-size="20" lengthAdjust="spacing" textLength="273" x="66.6" y="419.5586">ImportInformationController</text><line style="stroke:#181818;stroke-width:0.5;" x1="8" x2="365" y1="429" y2="429"/><line style="stroke:#181818;stroke-width:0.5;" x1="8" x2="365" y1="437" y2="437"/><text fill="#000000" font-family="sans-serif" font-size="20" lengthAdjust="spacing" textLength="161" x="13" y="460.3359">+initiateImport()</text><text fill="#000000" font-family="sans-serif" font-size="20" lengthAdjust="spacing" textLength="311" x="13" y="483.8906">+requestFileLocation() : location</text><text fill="#000000" font-family="sans-serif" font-size="20" lengthAdjust="spacing" textLength="205" x="13" y="507.4453">+importFile(location)</text><text fill="#000000" font-family="sans-serif" font-size="20" lengthAdjust="spacing" textLength="347" x="13" y="531">+displayImportResult(importResult)</text></g><!--class ImportInformationUI--><g id="elem_ImportInformationUI"><rect codeLine="25" fill="#F1F1F1" height="120.6641" id="ImportInformationUI" rx="2.5" ry="2.5" style="stroke:#181818;stroke-width:0.5;" width="359" x="7" y="189"/><ellipse cx="83.5" cy="206" fill="#C2C2C2" rx="12" ry="12" style="stroke:#181818;stroke-width:1.0;"/><path d="M86.3066,213.0801 Q85.623,213.4316 84.8711,213.6074 Q84.1191,213.7832 83.2891,213.7832 Q80.3398,213.7832 78.7871,211.8398 Q77.2344,209.8965 77.2344,206.2246 Q77.2344,202.543 78.7871,200.5996 Q80.3398,198.6563 83.2891,198.6563 Q84.1191,198.6563 84.8809,198.832 Q85.6426,199.0078 86.3066,199.3594 L86.3066,202.5625 Q85.5645,201.8789 84.8662,201.5615 Q84.168,201.2441 83.4258,201.2441 Q81.8438,201.2441 81.0381,202.499 Q80.2324,203.7539 80.2324,206.2246 Q80.2324,208.6855 81.0381,209.9404 Q81.8438,211.1953 83.4258,211.1953 Q84.168,211.1953 84.8662,210.8779 Q85.5645,210.5605 86.3066,209.877 Z " fill="#000000"/><text fill="#000000" font-family="sans-serif" font-size="20" lengthAdjust="spacing" textLength="197" x="105.5" y="213.5586">ImportInformationUI</text><line style="stroke:#181818;stroke-width:0.5;" x1="8" x2="365" y1="223" y2="223"/><line style="stroke:#181818;stroke-width:0.5;" x1="8" x2="365" y1="231" y2="231"/><text fill="#000000" font-family="sans-serif" font-size="20" lengthAdjust="spacing" textLength="187" x="13" y="254.3359">+askToImportFile()</text><text fill="#000000" font-family="sans-serif" font-size="20" lengthAdjust="spacing" textLength="303" x="13" y="277.8906">+askForFileLocation() : location</text><text fill="#000000" font-family="sans-serif" font-size="20" lengthAdjust="spacing" textLength="347" x="13" y="301.4453">+displayImportResult(importResult)</text></g><!--link ImportInformationUI to ImportInformationController--><g id="link_ImportInformationUI_ImportInformationController"><path codeLine="32" d="M186.5,310.24 C186.5,334.36 186.5,362.5 186.5,388.19 " fill="none" id="ImportInformationUI-to-ImportInformationController" style="stroke:#181818;stroke-width:1.0;stroke-dasharray:7.0,7.0;"/><polygon fill="#181818" points="186.5,393.15,190.5,384.15,186.5,388.15,182.5,384.15,186.5,393.15" style="stroke:#181818;stroke-width:1.0;"/><text fill="#000000" font-family="sans-serif" font-size="20" lengthAdjust="spacing" textLength="43" x="187.5" y="360.3359">calls</text></g><!--link ImportInformationController to LegacySystem--><g id="link_ImportInformationController_LegacySystem"><path codeLine="34" d="M186.5,539.49 C186.5,565.71 186.5,594.54 186.5,617.42 " fill="none" id="ImportInformationController-to-LegacySystem" style="stroke:#181818;stroke-width:1.0;"/><polygon fill="#181818" points="186.5,622.2,190.5,613.2,186.5,617.2,182.5,613.2,186.5,622.2" style="stroke:#181818;stroke-width:1.0;"/><text fill="#000000" font-family="sans-serif" font-size="20" lengthAdjust="spacing" textLength="43" x="187.5" y="589.3359">uses</text></g><!--link SystemAdministrator to ImportInformationUI--><g id="link_SystemAdministrator_ImportInformationUI"><path codeLine="36" d="M186.5,104.45 C186.5,130 186.5,161.66 186.5,188.79 " fill="none" id="SystemAdministrator-ImportInformationUI" style="stroke:#181818;stroke-width:1.0;"/><text fill="#000000" font-family="sans-serif" font-size="20" lengthAdjust="spacing" textLength="82" x="187.5" y="154.3359">interacts</text></g><!--SRC=[ZPB1JiCm38RlUGhVs8GwJHntc3I19bNQYS43cDJheZfnILoXWdXtsj9jHPg0djhu_-tlTveg5sgCw5biHGKKTC26TIj1z-wTu6vfqaa2NeBOOnHFeB6XIQL6Ms59UssP899L32LF1Uc8XRovKC81EKqhx09fMnFKmct_CQbPnfGsgj6zD4gvbJ10BOsvOJeeg41qvL6XSFrG9y6OmGCxAj6s-pOfUVWmq3stm8B50ohEkh3Og-Um0kThYVf8gOjjFa_-R-Ucy2wuf15LujWcWu2UnbVowFZYoeTUUJX8zCE0-swFKPWfdY6wXkgmIpDeP_FnED9hGqctZcatqirwl1FgoJsuUjKbn5WgNAePstoIPpODD_-5ypa_ys6gdYI_Z9bVphSI_-Bx5uIvDd-nMF-wlnLOP4vNp1DHbgr_NlqAcaITwTfzPjdLHNI_H52AQ3MPBm00]--></g></svg>