<?xml version="1.0" encoding="UTF-8" standalone="no"?><svg xmlns="http://www.w3.org/2000/svg" xmlns:xlink="http://www.w3.org/1999/xlink" contentStyleType="text/css" height="657px" preserveAspectRatio="none" style="width:406px;height:657px;background:#FFFFFF;" version="1.1" viewBox="0 0 406 657" width="406px" zoomAndPan="magnify"><defs/><g><!--class SystemAdministrator--><g id="elem_SystemAdministrator"><rect codeLine="13" fill="#F1F1F1" height="97.1094" id="SystemAdministrator" rx="2.5" ry="2.5" style="stroke:#181818;stroke-width:0.5;" width="235" x="85.5" y="7"/><ellipse cx="101.5" cy="24" fill="#C2C2C2" rx="12" ry="12" style="stroke:#181818;stroke-width:1.0;"/><path d="M104.3066,31.0801 Q103.623,31.4316 102.8711,31.6074 Q102.1191,31.7832 101.2891,31.7832 Q98.3398,31.7832 96.7871,29.8398 Q95.2344,27.8965 95.2344,24.2246 Q95.2344,20.543 96.7871,18.5996 Q98.3398,16.6563 101.2891,16.6563 Q102.1191,16.6563 102.8809,16.832 Q103.6426,17.0078 104.3066,17.3594 L104.3066,20.5625 Q103.5645,19.8789 102.8662,19.5615 Q102.168,19.2441 101.4258,19.2441 Q99.8438,19.2441 99.0381,20.499 Q98.2324,21.7539 98.2324,24.2246 Q98.2324,26.6855 99.0381,27.9404 Q99.8438,29.1953 101.4258,29.1953 Q102.168,29.1953 102.8662,28.8779 Q103.5645,28.5605 104.3066,27.877 Z " fill="#000000"/><text fill="#000000" font-family="sans-serif" font-size="20" lengthAdjust="spacing" textLength="201" x="116.5" y="31.5586">SystemAdministrator</text><line style="stroke:#181818;stroke-width:0.5;" x1="86.5" x2="319.5" y1="41" y2="41"/><text fill="#000000" font-family="sans-serif" font-size="20" lengthAdjust="spacing" textLength="65" x="91.5" y="64.3359">-name</text><text fill="#000000" font-family="sans-serif" font-size="20" lengthAdjust="spacing" textLength="65" x="91.5" y="87.8906">-email</text><line style="stroke:#181818;stroke-width:0.5;" x1="86.5" x2="319.5" y1="96.1094" y2="96.1094"/></g><!--class ImportController--><g id="elem_ImportController"><rect codeLine="18" fill="#F1F1F1" height="120.6641" id="ImportController" rx="2.5" ry="2.5" style="stroke:#181818;stroke-width:0.5;" width="270" x="68" y="371.22"/><ellipse cx="118" cy="388.22" fill="#C2C2C2" rx="12" ry="12" style="stroke:#181818;stroke-width:1.0;"/><path d="M120.8066,395.3001 Q120.123,395.6516 119.3711,395.8274 Q118.6191,396.0032 117.7891,396.0032 Q114.8398,396.0032 113.2871,394.0598 Q111.7344,392.1165 111.7344,388.4446 Q111.7344,384.763 113.2871,382.8196 Q114.8398,380.8763 117.7891,380.8763 Q118.6191,380.8763 119.3809,381.052 Q120.1426,381.2278 120.8066,381.5794 L120.8066,384.7825 Q120.0645,384.0989 119.3662,383.7815 Q118.668,383.4641 117.9258,383.4641 Q116.3438,383.4641 115.5381,384.719 Q114.7324,385.9739 114.7324,388.4446 Q114.7324,390.9055 115.5381,392.1604 Q116.3438,393.4153 117.9258,393.4153 Q118.668,393.4153 119.3662,393.0979 Q120.0645,392.7805 120.8066,392.097 Z " fill="#000000"/><text fill="#000000" font-family="sans-serif" font-size="20" lengthAdjust="spacing" textLength="161" x="140" y="395.7786">ImportController</text><line style="stroke:#181818;stroke-width:0.5;" x1="69" x2="337" y1="405.22" y2="405.22"/><text fill="#000000" font-family="sans-serif" font-size="20" lengthAdjust="spacing" textLength="258" x="74" y="428.5559">-AnnouncementRepository</text><line style="stroke:#181818;stroke-width:0.5;" x1="69" x2="337" y1="436.7747" y2="436.7747"/><text fill="#000000" font-family="sans-serif" font-size="20" lengthAdjust="spacing" textLength="139" x="74" y="460.1106">+importData()</text><text fill="#000000" font-family="sans-serif" font-size="20" lengthAdjust="spacing" textLength="119" x="74" y="483.6653">+checkFile()</text></g><!--class ImportUI--><g id="elem_ImportUI"><rect codeLine="24" fill="#F1F1F1" height="97.1094" id="ImportUI" rx="2.5" ry="2.5" style="stroke:#181818;stroke-width:0.5;" width="185" x="110.5" y="189.11"/><ellipse cx="156.2" cy="206.11" fill="#C2C2C2" rx="12" ry="12" style="stroke:#181818;stroke-width:1.0;"/><path d="M159.0066,213.1901 Q158.323,213.5416 157.5711,213.7174 Q156.8191,213.8932 155.9891,213.8932 Q153.0398,213.8932 151.4871,211.9498 Q149.9344,210.0065 149.9344,206.3346 Q149.9344,202.653 151.4871,200.7096 Q153.0398,198.7663 155.9891,198.7663 Q156.8191,198.7663 157.5809,198.942 Q158.3426,199.1178 159.0066,199.4694 L159.0066,202.6725 Q158.2645,201.9889 157.5662,201.6715 Q156.868,201.3541 156.1258,201.3541 Q154.5438,201.3541 153.7381,202.609 Q152.9324,203.8639 152.9324,206.3346 Q152.9324,208.7955 153.7381,210.0504 Q154.5438,211.3053 156.1258,211.3053 Q156.868,211.3053 157.5662,210.9879 Q158.2645,210.6705 159.0066,209.987 Z " fill="#000000"/><text fill="#000000" font-family="sans-serif" font-size="20" lengthAdjust="spacing" textLength="85" x="177.8" y="213.6686">ImportUI</text><line style="stroke:#181818;stroke-width:0.5;" x1="111.5" x2="294.5" y1="223.11" y2="223.11"/><text fill="#000000" font-family="sans-serif" font-size="20" lengthAdjust="spacing" textLength="173" x="116.5" y="246.4459">-ImportController</text><line style="stroke:#181818;stroke-width:0.5;" x1="111.5" x2="294.5" y1="254.6647" y2="254.6647"/><text fill="#000000" font-family="sans-serif" font-size="20" lengthAdjust="spacing" textLength="119" x="116.5" y="278.0006">+selectFile()</text></g><!--class AnnouncementRepository--><g id="elem_AnnouncementRepository"><rect codeLine="29" fill="#F1F1F1" height="73.5547" id="AnnouncementRepository" rx="2.5" ry="2.5" style="stroke:#181818;stroke-width:0.5;" width="392" x="7" y="576.89"/><ellipse cx="75.5" cy="593.89" fill="#C2C2C2" rx="12" ry="12" style="stroke:#181818;stroke-width:1.0;"/><path d="M78.3066,600.9701 Q77.623,601.3216 76.8711,601.4974 Q76.1191,601.6732 75.2891,601.6732 Q72.3398,601.6732 70.7871,599.7298 Q69.2344,597.7865 69.2344,594.1146 Q69.2344,590.433 70.7871,588.4896 Q72.3398,586.5463 75.2891,586.5463 Q76.1191,586.5463 76.8809,586.722 Q77.6426,586.8978 78.3066,587.2494 L78.3066,590.4525 Q77.5645,589.7689 76.8662,589.4515 Q76.168,589.1341 75.4258,589.1341 Q73.8438,589.1341 73.0381,590.389 Q72.2324,591.6439 72.2324,594.1146 Q72.2324,596.5755 73.0381,597.8304 Q73.8438,599.0853 75.4258,599.0853 Q76.168,599.0853 76.8662,598.7679 Q77.5645,598.4505 78.3066,597.767 Z " fill="#000000"/><text fill="#000000" font-family="sans-serif" font-size="20" lengthAdjust="spacing" textLength="246" x="97.5" y="601.4486">AnnouncementRepository</text><line style="stroke:#181818;stroke-width:0.5;" x1="8" x2="398" y1="610.89" y2="610.89"/><line style="stroke:#181818;stroke-width:0.5;" x1="8" x2="398" y1="618.89" y2="618.89"/><text fill="#000000" font-family="sans-serif" font-size="20" lengthAdjust="spacing" textLength="380" x="13" y="642.2259">-addAnnouncementFromImportedFile()</text></g><!--link ImportUI to ImportController--><g id="link_ImportUI_ImportController"><path codeLine="34" d="M203,286.59 C203,310.33 203,339.35 203,365.1 " fill="none" id="ImportUI-to-ImportController" style="stroke:#181818;stroke-width:1.0;stroke-dasharray:7.0,7.0;"/><polygon fill="#181818" points="203,369.88,207,360.88,203,364.88,199,360.88,203,369.88" style="stroke:#181818;stroke-width:1.0;"/><text fill="#000000" font-family="sans-serif" font-size="20" lengthAdjust="spacing" textLength="43" x="204" y="336.5559">calls</text></g><!--link SystemAdministrator to ImportUI--><g id="link_SystemAdministrator_ImportUI"><path codeLine="38" d="M203,104.35 C203,130.4 203,162.56 203,188.65 " fill="none" id="SystemAdministrator-ImportUI" style="stroke:#181818;stroke-width:1.0;"/><text fill="#000000" font-family="sans-serif" font-size="20" lengthAdjust="spacing" textLength="82" x="204" y="154.4459">interacts</text></g><!--link ImportController to AnnouncementRepository--><g id="link_ImportController_AnnouncementRepository"><path codeLine="40" d="M203,492.28 C203,517.95 203,547.35 203,570.67 " fill="none" id="ImportController-to-AnnouncementRepository" style="stroke:#181818;stroke-width:1.0;stroke-dasharray:7.0,7.0;"/><polygon fill="#181818" points="203,575.47,207,566.47,203,570.47,199,566.47,203,575.47" style="stroke:#181818;stroke-width:1.0;"/><text fill="#000000" font-family="sans-serif" font-size="20" lengthAdjust="spacing" textLength="43" x="204" y="542.2259">uses</text></g><!--SRC=[TP7FJiCm3CRlUGhV1aAT4CST9asWIPCuCV409l6wQ4vS9QvGGRmxQRi_PK1EIUplvyzsFlZOOCB0OW_amD4EMzQrHDtw3uA7UvDFAH0aYjqd2GIQMff46hG7h6ch7HCaiegnvcb2tgEJTnzhs27dQOHz9EqQWaQuwn-Jc6NCUQMQ_5khjB4I1rFtnioOTWega7ozLt2-B-ebbiWWWcUgqNRRBYi5-3GpAESEMD0zeU9DQHVx_5jOW0-D97sXN1etiozZHiAeNRdWey-QK2KLKC-f86AWuvK2UZPdrMQ0FPRv9M6cYsGLexJHKg1OQZMIVG5sPlGrMXYStHw_x9xiOUsPoiyL_NLpfbwNEuepSPd7jVfl2sSMEZVDM9T5ZtXo5v8vMvZFbx-xNO15vbpMC8OsSISf3AEUP5NLykU25j1cAgg_PbvLbxRBig9IGglvv6I2xHtzq-Enm3S0]--></g></svg>