<?xml version="1.0" encoding="UTF-8" standalone="no"?><svg xmlns="http://www.w3.org/2000/svg" xmlns:xlink="http://www.w3.org/1999/xlink" contentStyleType="text/css" height="657px" preserveAspectRatio="none" style="width:406px;height:657px;background:#FFFFFF;" version="1.1" viewBox="0 0 406 657" width="406px" zoomAndPan="magnify"><defs/><g><!--class SystemAdministrator--><g id="elem_SystemAdministrator"><rect codeLine="13" fill="#F1F1F1" height="97.1094" id="SystemAdministrator" rx="2.5" ry="2.5" style="stroke:#181818;stroke-width:0.5;" width="235" x="85.5" y="7"/><ellipse cx="101.5" cy="24" fill="#C2C2C2" rx="12" ry="12" style="stroke:#181818;stroke-width:1.0;"/><path d="M104.3066,31.0801 Q103.623,31.4316 102.8711,31.6074 Q102.1191,31.7832 101.2891,31.7832 Q98.3398,31.7832 96.7871,29.8398 Q95.2344,27.8965 95.2344,24.2246 Q95.2344,20.543 96.7871,18.5996 Q98.3398,16.6563 101.2891,16.6563 Q102.1191,16.6563 102.8809,16.832 Q103.6426,17.0078 104.3066,17.3594 L104.3066,20.5625 Q103.5645,19.8789 102.8662,19.5615 Q102.168,19.2441 101.4258,19.2441 Q99.8438,19.2441 99.0381,20.499 Q98.2324,21.7539 98.2324,24.2246 Q98.2324,26.6855 99.0381,27.9404 Q99.8438,29.1953 101.4258,29.1953 Q102.168,29.1953 102.8662,28.8779 Q103.5645,28.5605 104.3066,27.877 Z " fill="#000000"/><text fill="#000000" font-family="sans-serif" font-size="20" lengthAdjust="spacing" textLength="201" x="116.5" y="31.5586">SystemAdministrator</text><line style="stroke:#181818;stroke-width:0.5;" x1="86.5" x2="319.5" y1="41" y2="41"/><text fill="#000000" font-family="sans-serif" font-size="20" lengthAdjust="spacing" textLength="65" x="91.5" y="64.3359">-name</text><text fill="#000000" font-family="sans-serif" font-size="20" lengthAdjust="spacing" textLength="65" x="91.5" y="87.8906">-email</text><line style="stroke:#181818;stroke-width:0.5;" x1="86.5" x2="319.5" y1="96.1094" y2="96.1094"/></g><!--class ImportController--><g id="elem_ImportController"><rect codeLine="18" fill="#F1F1F1" height="120.6641" id="ImportController" rx="2.5" ry="2.5" style="stroke:#181818;stroke-width:0.5;" width="270" x="68" y="371"/><ellipse cx="118" cy="388" fill="#C2C2C2" rx="12" ry="12" style="stroke:#181818;stroke-width:1.0;"/><path d="M120.8066,395.0801 Q120.123,395.4316 119.3711,395.6074 Q118.6191,395.7832 117.7891,395.7832 Q114.8398,395.7832 113.2871,393.8398 Q111.7344,391.8965 111.7344,388.2246 Q111.7344,384.543 113.2871,382.5996 Q114.8398,380.6563 117.7891,380.6563 Q118.6191,380.6563 119.3809,380.832 Q120.1426,381.0078 120.8066,381.3594 L120.8066,384.5625 Q120.0645,383.8789 119.3662,383.5615 Q118.668,383.2441 117.9258,383.2441 Q116.3438,383.2441 115.5381,384.499 Q114.7324,385.7539 114.7324,388.2246 Q114.7324,390.6855 115.5381,391.9404 Q116.3438,393.1953 117.9258,393.1953 Q118.668,393.1953 119.3662,392.8779 Q120.0645,392.5605 120.8066,391.877 Z " fill="#000000"/><text fill="#000000" font-family="sans-serif" font-size="20" lengthAdjust="spacing" textLength="161" x="140" y="395.5586">ImportController</text><line style="stroke:#181818;stroke-width:0.5;" x1="69" x2="337" y1="405" y2="405"/><text fill="#000000" font-family="sans-serif" font-size="20" lengthAdjust="spacing" textLength="258" x="74" y="428.3359">-AnnouncementRepository</text><line style="stroke:#181818;stroke-width:0.5;" x1="69" x2="337" y1="436.5547" y2="436.5547"/><text fill="#000000" font-family="sans-serif" font-size="20" lengthAdjust="spacing" textLength="139" x="74" y="459.8906">+importData()</text><text fill="#000000" font-family="sans-serif" font-size="20" lengthAdjust="spacing" textLength="119" x="74" y="483.4453">+checkFile()</text></g><!--class ImportUI--><g id="elem_ImportUI"><rect codeLine="24" fill="#F1F1F1" height="97.1094" id="ImportUI" rx="2.5" ry="2.5" style="stroke:#181818;stroke-width:0.5;" width="185" x="110.5" y="189"/><ellipse cx="156.2" cy="206" fill="#C2C2C2" rx="12" ry="12" style="stroke:#181818;stroke-width:1.0;"/><path d="M159.0066,213.0801 Q158.323,213.4316 157.5711,213.6074 Q156.8191,213.7832 155.9891,213.7832 Q153.0398,213.7832 151.4871,211.8398 Q149.9344,209.8965 149.9344,206.2246 Q149.9344,202.543 151.4871,200.5996 Q153.0398,198.6563 155.9891,198.6563 Q156.8191,198.6563 157.5809,198.832 Q158.3426,199.0078 159.0066,199.3594 L159.0066,202.5625 Q158.2645,201.8789 157.5662,201.5615 Q156.868,201.2441 156.1258,201.2441 Q154.5438,201.2441 153.7381,202.499 Q152.9324,203.7539 152.9324,206.2246 Q152.9324,208.6855 153.7381,209.9404 Q154.5438,211.1953 156.1258,211.1953 Q156.868,211.1953 157.5662,210.8779 Q158.2645,210.5605 159.0066,209.877 Z " fill="#000000"/><text fill="#000000" font-family="sans-serif" font-size="20" lengthAdjust="spacing" textLength="85" x="177.8" y="213.5586">ImportUI</text><line style="stroke:#181818;stroke-width:0.5;" x1="111.5" x2="294.5" y1="223" y2="223"/><text fill="#000000" font-family="sans-serif" font-size="20" lengthAdjust="spacing" textLength="173" x="116.5" y="246.3359">-ImportController</text><line style="stroke:#181818;stroke-width:0.5;" x1="111.5" x2="294.5" y1="254.5547" y2="254.5547"/><text fill="#000000" font-family="sans-serif" font-size="20" lengthAdjust="spacing" textLength="119" x="116.5" y="277.8906">+selectFile()</text></g><!--class AnnouncementRepository--><g id="elem_AnnouncementRepository"><rect codeLine="29" fill="#F1F1F1" height="73.5547" id="AnnouncementRepository" rx="2.5" ry="2.5" style="stroke:#181818;stroke-width:0.5;" width="392" x="7" y="577"/><ellipse cx="75.5" cy="594" fill="#C2C2C2" rx="12" ry="12" style="stroke:#181818;stroke-width:1.0;"/><path d="M78.3066,601.0801 Q77.623,601.4316 76.8711,601.6074 Q76.1191,601.7832 75.2891,601.7832 Q72.3398,601.7832 70.7871,599.8398 Q69.2344,597.8965 69.2344,594.2246 Q69.2344,590.543 70.7871,588.5996 Q72.3398,586.6563 75.2891,586.6563 Q76.1191,586.6563 76.8809,586.832 Q77.6426,587.0078 78.3066,587.3594 L78.3066,590.5625 Q77.5645,589.8789 76.8662,589.5615 Q76.168,589.2441 75.4258,589.2441 Q73.8438,589.2441 73.0381,590.499 Q72.2324,591.7539 72.2324,594.2246 Q72.2324,596.6855 73.0381,597.9404 Q73.8438,599.1953 75.4258,599.1953 Q76.168,599.1953 76.8662,598.8779 Q77.5645,598.5605 78.3066,597.877 Z " fill="#000000"/><text fill="#000000" font-family="sans-serif" font-size="20" lengthAdjust="spacing" textLength="246" x="97.5" y="601.5586">AnnouncementRepository</text><line style="stroke:#181818;stroke-width:0.5;" x1="8" x2="398" y1="611" y2="611"/><line style="stroke:#181818;stroke-width:0.5;" x1="8" x2="398" y1="619" y2="619"/><text fill="#000000" font-family="sans-serif" font-size="20" lengthAdjust="spacing" textLength="380" x="13" y="642.3359">-addAnnouncementFromImportedFile()</text></g><!--link ImportUI to ImportController--><g id="link_ImportUI_ImportController"><path codeLine="34" d="M203,286.45 C203,310.01 203,338.75 203,364.36 " fill="none" id="ImportUI-to-ImportController" style="stroke:#181818;stroke-width:1.0;stroke-dasharray:7.0,7.0;"/><polygon fill="#181818" points="203,369.28,207,360.28,203,364.28,199,360.28,203,369.28" style="stroke:#181818;stroke-width:1.0;"/><text fill="#000000" font-family="sans-serif" font-size="20" lengthAdjust="spacing" textLength="43" x="204" y="336.3359">calls</text></g><!--link SystemAdministrator to ImportUI--><g id="link_SystemAdministrator_ImportUI"><path codeLine="38" d="M203,104.26 C203,130.3 203,162.44 203,188.51 " fill="none" id="SystemAdministrator-ImportUI" style="stroke:#181818;stroke-width:1.0;"/><text fill="#000000" font-family="sans-serif" font-size="20" lengthAdjust="spacing" textLength="82" x="204" y="154.3359">interacts</text></g><!--link ImportController to AnnouncementRepository--><g id="link_ImportController_AnnouncementRepository"><path codeLine="40" d="M203,492.35 C203,517.87 203,547.05 203,570.32 " fill="none" id="ImportController-to-AnnouncementRepository" style="stroke:#181818;stroke-width:1.0;stroke-dasharray:7.0,7.0;"/><polygon fill="#181818" points="203,575.21,207,566.21,203,570.21,199,566.21,203,575.21" style="stroke:#181818;stroke-width:1.0;"/><text fill="#000000" font-family="sans-serif" font-size="20" lengthAdjust="spacing" textLength="43" x="204" y="542.3359">uses</text></g><!--SRC=[TP7FJiCm3CRlUGhV1aAT4CST9asWIPCuCV409l6wQ4vS9QvGGRmxQRi_PK1EIUplvyzsFlZOOCB0OW_amD4EMzQrHDtw3uA7UvDFAH0aYjqd2GIQMff46hG7h6ch7HCaiegnvcb2tgEJTnzhs27dQOHz9EqQWaQuwn-Jc6NCUQMQ_5khjB4I1rFtnioOTWega7ozLt2-B-ebbiWWWcUgqNRRBYi5-3GpAESEMD0zeU9DQHVx_5jOW0-D97sXN1etiozZHiAeNRdWey-QK2KLKC-f86AWuvK2UZPdrMQ0FPRv9M6cYsGLexJHKg1OQZMIVG5sPlGrMXYStHw_x9xiOUsPoiyL_NLpfbwNEuepSPd7jVfl2sSMEZVDM9T5ZtXo5v8vMvZFbx-xNO15vbpMC8OsSISf3AEUP5NLykU25j1cAgg_PbvLbxRBig9IGglvv6I2xHtzq-Enm3S0]--></g></svg>