<?xml version="1.0" encoding="UTF-8" standalone="no"?><svg xmlns="http://www.w3.org/2000/svg" xmlns:xlink="http://www.w3.org/1999/xlink" contentStyleType="text/css" height="2010px" preserveAspectRatio="none" style="width:2972px;height:2010px;background:#FFFFFF;" version="1.1" viewBox="0 0 2972 2010" width="2972px" zoomAndPan="magnify"><defs/><g><text fill="#000000" font-family="sans-serif" font-size="14" font-weight="bold" lengthAdjust="spacing" textLength="187" x="1393.75" y="28.5352">Sequence Diagram - US16</text><rect fill="#FFFFFF" height="1777.625" style="stroke:#181818;stroke-width:1.0;" width="10" x="46" y="136.043"/><rect fill="#FFFFFF" height="1105.6406" style="stroke:#181818;stroke-width:1.0;" width="10" x="676" y="165.5977"/><rect fill="#FFFFFF" height="233.8828" style="stroke:#181818;stroke-width:1.0;" width="10" x="681" y="286.2617"/><rect fill="#FFFFFF" height="488.2109" style="stroke:#181818;stroke-width:1.0;" width="10" x="681" y="557.6992"/><rect fill="#FFFFFF" height="37.5547" style="stroke:#181818;stroke-width:1.0;" width="10" x="1026.5" y="203.1523"/><rect fill="#FFFFFF" height="153.7734" style="stroke:#181818;stroke-width:1.0;" width="10" x="1368" y="328.8164"/><rect fill="#FFFFFF" height="413.1016" style="stroke:#181818;stroke-width:1.0;" width="10" x="1368" y="595.2539"/><rect fill="#FFFFFF" height="413.1016" style="stroke:#181818;stroke-width:1.0;" width="10" x="1368" y="1447.0117"/><rect fill="#FFFFFF" height="37.5547" style="stroke:#181818;stroke-width:1.0;" width="10" x="1696" y="632.8086"/><rect fill="#FFFFFF" height="37.5547" style="stroke:#181818;stroke-width:1.0;" width="10" x="1696" y="1083.4648"/><rect fill="#FFFFFF" height="37.5547" style="stroke:#181818;stroke-width:1.0;" width="10" x="1696" y="1484.5664"/><rect fill="#FFFFFF" height="37.5547" style="stroke:#181818;stroke-width:1.0;" width="10" x="1900.5" y="1158.5742"/><rect fill="#FFFFFF" height="37.5547" style="stroke:#181818;stroke-width:1.0;" width="10" x="2143" y="707.918"/><rect fill="#FFFFFF" height="37.5547" style="stroke:#181818;stroke-width:1.0;" width="10" x="2143" y="1559.6758"/><rect fill="#FFFFFF" height="37.5547" style="stroke:#181818;stroke-width:1.0;" width="10" x="2397.5" y="933.2461"/><rect fill="#FFFFFF" height="37.5547" style="stroke:#181818;stroke-width:1.0;" width="10" x="2397.5" y="1785.0039"/><rect fill="#FFFFFF" height="37.5547" style="stroke:#181818;stroke-width:1.0;" width="10" x="2639.5" y="407.4805"/><rect fill="#FFFFFF" height="37.5547" style="stroke:#181818;stroke-width:1.0;" width="10" x="2639.5" y="1334.3477"/><rect fill="#FFFFFF" height="37.5547" style="stroke:#181818;stroke-width:1.0;" width="10" x="2847.5" y="783.0273"/><rect fill="#FFFFFF" height="37.5547" style="stroke:#181818;stroke-width:1.0;" width="10" x="2847.5" y="858.1367"/><rect fill="#FFFFFF" height="37.5547" style="stroke:#181818;stroke-width:1.0;" width="10" x="2847.5" y="1634.7852"/><rect fill="#FFFFFF" height="37.5547" style="stroke:#181818;stroke-width:1.0;" width="10" x="2847.5" y="1709.8945"/><rect fill="none" height="1561.8516" style="stroke:#000000;stroke-width:1.5;" width="2955.5" x="10" y="343.8164"/><line style="stroke:#181818;stroke-width:0.5;stroke-dasharray:5.0,5.0;" x1="51" x2="51" y1="126.043" y2="1922.668"/><line style="stroke:#181818;stroke-width:0.5;stroke-dasharray:5.0,5.0;" x1="681" x2="681" y1="126.043" y2="1922.668"/><line style="stroke:#181818;stroke-width:0.5;stroke-dasharray:5.0,5.0;" x1="1031" x2="1031" y1="126.043" y2="1922.668"/><line style="stroke:#181818;stroke-width:0.5;stroke-dasharray:5.0,5.0;" x1="1373" x2="1373" y1="126.043" y2="1922.668"/><line style="stroke:#181818;stroke-width:0.5;stroke-dasharray:5.0,5.0;" x1="1700.5" x2="1700.5" y1="126.043" y2="1922.668"/><line style="stroke:#181818;stroke-width:0.5;stroke-dasharray:5.0,5.0;" x1="1905.5" x2="1905.5" y1="126.043" y2="1922.668"/><line style="stroke:#181818;stroke-width:0.5;stroke-dasharray:5.0,5.0;" x1="2147.5" x2="2147.5" y1="126.043" y2="1922.668"/><line style="stroke:#181818;stroke-width:0.5;stroke-dasharray:5.0,5.0;" x1="2402.5" x2="2402.5" y1="126.043" y2="1922.668"/><line style="stroke:#181818;stroke-width:0.5;stroke-dasharray:5.0,5.0;" x1="2644.5" x2="2644.5" y1="126.043" y2="1922.668"/><line style="stroke:#181818;stroke-width:0.5;stroke-dasharray:5.0,5.0;" x1="2852.5" x2="2852.5" y1="126.043" y2="1922.668"/><text fill="#000000" font-family="sans-serif" font-size="20" lengthAdjust="spacing" textLength="56" x="20" y="121.8242">Agent</text><ellipse cx="51" cy="50.9883" fill="#E3E3E3" rx="8" ry="8" style="stroke:#181818;stroke-width:0.5;"/><path d="M51,58.9883 L51,85.9883 M38,66.9883 L64,66.9883 M51,85.9883 L38,100.9883 M51,85.9883 L64,100.9883 " fill="none" style="stroke:#181818;stroke-width:0.5;"/><text fill="#000000" font-family="sans-serif" font-size="20" lengthAdjust="spacing" textLength="56" x="20" y="1941.0039">Agent</text><ellipse cx="51" cy="1953.7227" fill="#E3E3E3" rx="8" ry="8" style="stroke:#181818;stroke-width:0.5;"/><path d="M51,1961.7227 L51,1988.7227 M38,1969.7227 L64,1969.7227 M51,1988.7227 L38,2003.7227 M51,1988.7227 L64,2003.7227 " fill="none" style="stroke:#181818;stroke-width:0.5;"/><rect fill="#E3E3E3" height="37.5547" rx="2.5" ry="2.5" style="stroke:#181818;stroke-width:0.5;" width="330" x="516" y="87.4883"/><text fill="#000000" font-family="sans-serif" font-size="20" lengthAdjust="spacing" textLength="316" x="523" y="113.8242">VisitScheduleRequestsWindow:UI</text><rect fill="#E3E3E3" height="37.5547" rx="2.5" ry="2.5" style="stroke:#181818;stroke-width:0.5;" width="330" x="516" y="1921.668"/><text fill="#000000" font-family="sans-serif" font-size="20" lengthAdjust="spacing" textLength="316" x="523" y="1948.0039">VisitScheduleRequestsWindow:UI</text><rect fill="#E3E3E3" height="37.5547" rx="2.5" ry="2.5" style="stroke:#181818;stroke-width:0.5;" width="351" x="856" y="87.4883"/><text fill="#000000" font-family="sans-serif" font-size="20" lengthAdjust="spacing" textLength="337" x="863" y="113.8242">AuthenticationController:AuthCTRL</text><rect fill="#E3E3E3" height="37.5547" rx="2.5" ry="2.5" style="stroke:#181818;stroke-width:0.5;" width="351" x="856" y="1921.668"/><text fill="#000000" font-family="sans-serif" font-size="20" lengthAdjust="spacing" textLength="337" x="863" y="1948.0039">AuthenticationController:AuthCTRL</text><rect fill="#E3E3E3" height="37.5547" rx="2.5" ry="2.5" style="stroke:#181818;stroke-width:0.5;" width="308" x="1219" y="87.4883"/><text fill="#000000" font-family="sans-serif" font-size="20" lengthAdjust="spacing" textLength="294" x="1226" y="113.8242">VisitScheduleController:VCTRL</text><rect fill="#E3E3E3" height="37.5547" rx="2.5" ry="2.5" style="stroke:#181818;stroke-width:0.5;" width="308" x="1219" y="1921.668"/><text fill="#000000" font-family="sans-serif" font-size="20" lengthAdjust="spacing" textLength="294" x="1226" y="1948.0039">VisitScheduleController:VCTRL</text><rect fill="#E3E3E3" height="61.1094" rx="2.5" ry="2.5" style="stroke:#181818;stroke-width:0.5;" width="139" x="1631.5" y="63.9336"/><text fill="#000000" font-family="sans-serif" font-size="20" lengthAdjust="spacing" textLength="114" x="1644" y="90.2695">repositories</text><text fill="#000000" font-family="sans-serif" font-size="20" lengthAdjust="spacing" textLength="125" x="1638.5" y="113.8242">:Repositories</text><rect fill="#E3E3E3" height="61.1094" rx="2.5" ry="2.5" style="stroke:#181818;stroke-width:0.5;" width="139" x="1631.5" y="1921.668"/><text fill="#000000" font-family="sans-serif" font-size="20" lengthAdjust="spacing" textLength="114" x="1644" y="1948.0039">repositories</text><text fill="#000000" font-family="sans-serif" font-size="20" lengthAdjust="spacing" textLength="125" x="1638.5" y="1971.5586">:Repositories</text><rect fill="#E3E3E3" height="37.5547" rx="2.5" ry="2.5" style="stroke:#181818;stroke-width:0.5;" width="250" x="1780.5" y="87.4883"/><text fill="#000000" font-family="sans-serif" font-size="20" lengthAdjust="spacing" textLength="236" x="1787.5" y="113.8242">:VisitScheduleRepository</text><rect fill="#E3E3E3" height="37.5547" rx="2.5" ry="2.5" style="stroke:#181818;stroke-width:0.5;" width="250" x="1780.5" y="1921.668"/><text fill="#000000" font-family="sans-serif" font-size="20" lengthAdjust="spacing" textLength="236" x="1787.5" y="1948.0039">:VisitScheduleRepository</text><rect fill="#E3E3E3" height="37.5547" rx="2.5" ry="2.5" style="stroke:#181818;stroke-width:0.5;" width="215" x="2040.5" y="87.4883"/><text fill="#000000" font-family="sans-serif" font-size="20" lengthAdjust="spacing" textLength="201" x="2047.5" y="113.8242">:EmployeeRepository</text><rect fill="#E3E3E3" height="37.5547" rx="2.5" ry="2.5" style="stroke:#181818;stroke-width:0.5;" width="215" x="2040.5" y="1921.668"/><text fill="#000000" font-family="sans-serif" font-size="20" lengthAdjust="spacing" textLength="201" x="2047.5" y="1948.0039">:EmployeeRepository</text><rect fill="#E3E3E3" height="37.5547" rx="2.5" ry="2.5" style="stroke:#181818;stroke-width:0.5;" width="274" x="2265.5" y="87.4883"/><text fill="#000000" font-family="sans-serif" font-size="20" lengthAdjust="spacing" textLength="260" x="2272.5" y="113.8242">EmailSender:EMAILSENDER</text><rect fill="#E3E3E3" height="37.5547" rx="2.5" ry="2.5" style="stroke:#181818;stroke-width:0.5;" width="274" x="2265.5" y="1921.668"/><text fill="#000000" font-family="sans-serif" font-size="20" lengthAdjust="spacing" textLength="260" x="2272.5" y="1948.0039">EmailSender:EMAILSENDER</text><rect fill="#E3E3E3" height="37.5547" rx="2.5" ry="2.5" style="stroke:#181818;stroke-width:0.5;" width="190" x="2549.5" y="87.4883"/><text fill="#000000" font-family="sans-serif" font-size="20" lengthAdjust="spacing" textLength="176" x="2556.5" y="113.8242">VisitSchedule:Visit</text><rect fill="#E3E3E3" height="37.5547" rx="2.5" ry="2.5" style="stroke:#181818;stroke-width:0.5;" width="190" x="2549.5" y="1921.668"/><text fill="#000000" font-family="sans-serif" font-size="20" lengthAdjust="spacing" textLength="176" x="2556.5" y="1948.0039">VisitSchedule:Visit</text><rect fill="#E3E3E3" height="37.5547" rx="2.5" ry="2.5" style="stroke:#181818;stroke-width:0.5;" width="206" x="2749.5" y="87.4883"/><text fill="#000000" font-family="sans-serif" font-size="20" lengthAdjust="spacing" textLength="192" x="2756.5" y="113.8242">Employee:Employee</text><rect fill="#E3E3E3" height="37.5547" rx="2.5" ry="2.5" style="stroke:#181818;stroke-width:0.5;" width="206" x="2749.5" y="1921.668"/><text fill="#000000" font-family="sans-serif" font-size="20" lengthAdjust="spacing" textLength="192" x="2756.5" y="1948.0039">Employee:Employee</text><rect fill="#FFFFFF" height="1777.625" style="stroke:#181818;stroke-width:1.0;" width="10" x="46" y="136.043"/><rect fill="#FFFFFF" height="1105.6406" style="stroke:#181818;stroke-width:1.0;" width="10" x="676" y="165.5977"/><rect fill="#FFFFFF" height="233.8828" style="stroke:#181818;stroke-width:1.0;" width="10" x="681" y="286.2617"/><rect fill="#FFFFFF" height="488.2109" style="stroke:#181818;stroke-width:1.0;" width="10" x="681" y="557.6992"/><rect fill="#FFFFFF" height="37.5547" style="stroke:#181818;stroke-width:1.0;" width="10" x="1026.5" y="203.1523"/><rect fill="#FFFFFF" height="153.7734" style="stroke:#181818;stroke-width:1.0;" width="10" x="1368" y="328.8164"/><rect fill="#FFFFFF" height="413.1016" style="stroke:#181818;stroke-width:1.0;" width="10" x="1368" y="595.2539"/><rect fill="#FFFFFF" height="413.1016" style="stroke:#181818;stroke-width:1.0;" width="10" x="1368" y="1447.0117"/><rect fill="#FFFFFF" height="37.5547" style="stroke:#181818;stroke-width:1.0;" width="10" x="1696" y="632.8086"/><rect fill="#FFFFFF" height="37.5547" style="stroke:#181818;stroke-width:1.0;" width="10" x="1696" y="1083.4648"/><rect fill="#FFFFFF" height="37.5547" style="stroke:#181818;stroke-width:1.0;" width="10" x="1696" y="1484.5664"/><rect fill="#FFFFFF" height="37.5547" style="stroke:#181818;stroke-width:1.0;" width="10" x="1900.5" y="1158.5742"/><rect fill="#FFFFFF" height="37.5547" style="stroke:#181818;stroke-width:1.0;" width="10" x="2143" y="707.918"/><rect fill="#FFFFFF" height="37.5547" style="stroke:#181818;stroke-width:1.0;" width="10" x="2143" y="1559.6758"/><rect fill="#FFFFFF" height="37.5547" style="stroke:#181818;stroke-width:1.0;" width="10" x="2397.5" y="933.2461"/><rect fill="#FFFFFF" height="37.5547" style="stroke:#181818;stroke-width:1.0;" width="10" x="2397.5" y="1785.0039"/><rect fill="#FFFFFF" height="37.5547" style="stroke:#181818;stroke-width:1.0;" width="10" x="2639.5" y="407.4805"/><rect fill="#FFFFFF" height="37.5547" style="stroke:#181818;stroke-width:1.0;" width="10" x="2639.5" y="1334.3477"/><rect fill="#FFFFFF" height="37.5547" style="stroke:#181818;stroke-width:1.0;" width="10" x="2847.5" y="783.0273"/><rect fill="#FFFFFF" height="37.5547" style="stroke:#181818;stroke-width:1.0;" width="10" x="2847.5" y="858.1367"/><rect fill="#FFFFFF" height="37.5547" style="stroke:#181818;stroke-width:1.0;" width="10" x="2847.5" y="1634.7852"/><rect fill="#FFFFFF" height="37.5547" style="stroke:#181818;stroke-width:1.0;" width="10" x="2847.5" y="1709.8945"/><polygon fill="#181818" points="664,161.5977,674,165.5977,664,169.5977,668,165.5977" style="stroke:#181818;stroke-width:1.0;"/><line style="stroke:#181818;stroke-width:1.0;" x1="56" x2="670" y1="165.5977" y2="165.5977"/><text fill="#000000" font-family="sans-serif" font-size="20" font-weight="bold" lengthAdjust="spacing" textLength="13" x="63" y="159.3789">1</text><text fill="#000000" font-family="sans-serif" font-size="20" lengthAdjust="spacing" textLength="358" x="80" y="159.3789">asks to respond to a booking request</text><polygon fill="#181818" points="1014.5,199.1523,1024.5,203.1523,1014.5,207.1523,1018.5,203.1523" style="stroke:#181818;stroke-width:1.0;"/><line style="stroke:#181818;stroke-width:1.0;" x1="686" x2="1020.5" y1="203.1523" y2="203.1523"/><text fill="#000000" font-family="sans-serif" font-size="20" font-weight="bold" lengthAdjust="spacing" textLength="13" x="693" y="196.9336">2</text><text fill="#000000" font-family="sans-serif" font-size="20" lengthAdjust="spacing" textLength="140" x="710" y="196.9336">getUserEmail()</text><polygon fill="#181818" points="697,236.707,687,240.707,697,244.707,693,240.707" style="stroke:#181818;stroke-width:1.0;"/><line style="stroke:#181818;stroke-width:1.0;stroke-dasharray:2.0,2.0;" x1="691" x2="1030.5" y1="240.707" y2="240.707"/><text fill="#000000" font-family="sans-serif" font-size="20" font-weight="bold" lengthAdjust="spacing" textLength="13" x="703" y="234.4883">3</text><text fill="#000000" font-family="sans-serif" font-size="20" lengthAdjust="spacing" textLength="94" x="720" y="234.4883">userEmail</text><line style="stroke:#181818;stroke-width:1.0;" x1="686" x2="733" y1="273.2617" y2="273.2617"/><line style="stroke:#181818;stroke-width:1.0;" x1="733" x2="733" y1="273.2617" y2="286.2617"/><line style="stroke:#181818;stroke-width:1.0;" x1="692" x2="733" y1="286.2617" y2="286.2617"/><polygon fill="#181818" points="702,282.2617,692,286.2617,702,290.2617,698,286.2617" style="stroke:#181818;stroke-width:1.0;"/><text fill="#000000" font-family="sans-serif" font-size="20" font-weight="bold" lengthAdjust="spacing" textLength="13" x="698" y="267.043">4</text><text fill="#000000" font-family="sans-serif" font-size="20" lengthAdjust="spacing" textLength="141" x="715" y="267.043">onBtRespond()</text><polygon fill="#181818" points="1356,324.8164,1366,328.8164,1356,332.8164,1360,328.8164" style="stroke:#181818;stroke-width:1.0;"/><line style="stroke:#181818;stroke-width:1.0;" x1="691" x2="1362" y1="328.8164" y2="328.8164"/><text fill="#000000" font-family="sans-serif" font-size="20" font-weight="bold" lengthAdjust="spacing" textLength="13" x="698" y="322.5977">5</text><text fill="#000000" font-family="sans-serif" font-size="20" lengthAdjust="spacing" textLength="504" x="715" y="322.5977">respondToBookingRequest(visitSchedule, userEmail)</text><path d="M10,343.8164 L89,343.8164 L89,359.3711 L79,369.3711 L10,369.3711 L10,343.8164 " fill="#EEEEEE" style="stroke:#000000;stroke-width:1.5;"/><rect fill="none" height="1561.8516" style="stroke:#000000;stroke-width:1.5;" width="2955.5" x="10" y="343.8164"/><text fill="#000000" font-family="sans-serif" font-size="20" font-weight="bold" lengthAdjust="spacing" textLength="34" x="25" y="364.1523">opt</text><text fill="#000000" font-family="sans-serif" font-size="20" font-weight="bold" lengthAdjust="spacing" textLength="78" x="104" y="365.1523">[Reject]</text><polygon fill="#181818" points="2627.5,403.4805,2637.5,407.4805,2627.5,411.4805,2631.5,407.4805" style="stroke:#181818;stroke-width:1.0;"/><line style="stroke:#181818;stroke-width:1.0;" x1="1378" x2="2633.5" y1="407.4805" y2="407.4805"/><text fill="#000000" font-family="sans-serif" font-size="20" font-weight="bold" lengthAdjust="spacing" textLength="13" x="1385" y="401.2617">6</text><text fill="#000000" font-family="sans-serif" font-size="20" lengthAdjust="spacing" textLength="259" x="1402" y="401.2617">setApprovedByAgent(false)</text><polygon fill="#181818" points="1389,441.0352,1379,445.0352,1389,449.0352,1385,445.0352" style="stroke:#181818;stroke-width:1.0;"/><line style="stroke:#181818;stroke-width:1.0;stroke-dasharray:2.0,2.0;" x1="1383" x2="2643.5" y1="445.0352" y2="445.0352"/><text fill="#000000" font-family="sans-serif" font-size="20" font-weight="bold" lengthAdjust="spacing" textLength="13" x="1395" y="438.8164">7</text><text fill="#000000" font-family="sans-serif" font-size="20" lengthAdjust="spacing" textLength="122" x="1412" y="438.8164">confirmation</text><polygon fill="#181818" points="702,478.5898,692,482.5898,702,486.5898,698,482.5898" style="stroke:#181818;stroke-width:1.0;"/><line style="stroke:#181818;stroke-width:1.0;stroke-dasharray:2.0,2.0;" x1="696" x2="1372" y1="482.5898" y2="482.5898"/><text fill="#000000" font-family="sans-serif" font-size="20" font-weight="bold" lengthAdjust="spacing" textLength="13" x="708" y="476.3711">8</text><text fill="#000000" font-family="sans-serif" font-size="20" lengthAdjust="spacing" textLength="161" x="725" y="476.3711">visitDisapproved</text><polygon fill="#181818" points="67,516.1445,57,520.1445,67,524.1445,63,520.1445" style="stroke:#181818;stroke-width:1.0;"/><line style="stroke:#181818;stroke-width:1.0;" x1="61" x2="675" y1="520.1445" y2="520.1445"/><text fill="#000000" font-family="sans-serif" font-size="20" font-weight="bold" lengthAdjust="spacing" textLength="13" x="73" y="513.9258">9</text><text fill="#000000" font-family="sans-serif" font-size="20" lengthAdjust="spacing" textLength="258" x="90" y="513.9258">Enter a reason for rejection</text><polygon fill="#181818" points="669,553.6992,679,557.6992,669,561.6992,673,557.6992" style="stroke:#181818;stroke-width:1.0;"/><line style="stroke:#181818;stroke-width:1.0;" x1="56" x2="675" y1="557.6992" y2="557.6992"/><text fill="#000000" font-family="sans-serif" font-size="20" font-weight="bold" lengthAdjust="spacing" textLength="26" x="63" y="551.4805">10</text><text fill="#000000" font-family="sans-serif" font-size="20" lengthAdjust="spacing" textLength="566" x="93" y="551.4805">Write a message to the user with the reason of the rejection</text><polygon fill="#181818" points="1356,591.2539,1366,595.2539,1356,599.2539,1360,595.2539" style="stroke:#181818;stroke-width:1.0;"/><line style="stroke:#181818;stroke-width:1.0;" x1="691" x2="1362" y1="595.2539" y2="595.2539"/><text fill="#000000" font-family="sans-serif" font-size="20" font-weight="bold" lengthAdjust="spacing" textLength="26" x="698" y="589.0352">11</text><text fill="#000000" font-family="sans-serif" font-size="20" lengthAdjust="spacing" textLength="549" x="728" y="589.0352">respondToBookingRequestByEmail(visitSchedule, reason)</text><polygon fill="#181818" points="1684,628.8086,1694,632.8086,1684,636.8086,1688,632.8086" style="stroke:#181818;stroke-width:1.0;"/><line style="stroke:#181818;stroke-width:1.0;" x1="1378" x2="1690" y1="632.8086" y2="632.8086"/><text fill="#000000" font-family="sans-serif" font-size="20" font-weight="bold" lengthAdjust="spacing" textLength="26" x="1385" y="626.5898">12</text><text fill="#000000" font-family="sans-serif" font-size="20" lengthAdjust="spacing" textLength="239" x="1415" y="626.5898">getEmployeeRepository()</text><polygon fill="#181818" points="1389,666.3633,1379,670.3633,1389,674.3633,1385,670.3633" style="stroke:#181818;stroke-width:1.0;"/><line style="stroke:#181818;stroke-width:1.0;stroke-dasharray:2.0,2.0;" x1="1383" x2="1700" y1="670.3633" y2="670.3633"/><text fill="#000000" font-family="sans-serif" font-size="20" font-weight="bold" lengthAdjust="spacing" textLength="26" x="1395" y="664.1445">13</text><text fill="#000000" font-family="sans-serif" font-size="20" lengthAdjust="spacing" textLength="195" x="1425" y="664.1445">employeeRepository</text><polygon fill="#181818" points="2131,703.918,2141,707.918,2131,711.918,2135,707.918" style="stroke:#181818;stroke-width:1.0;"/><line style="stroke:#181818;stroke-width:1.0;" x1="1378" x2="2137" y1="707.918" y2="707.918"/><text fill="#000000" font-family="sans-serif" font-size="20" font-weight="bold" lengthAdjust="spacing" textLength="26" x="1385" y="701.6992">14</text><text fill="#000000" font-family="sans-serif" font-size="20" lengthAdjust="spacing" textLength="496" x="1415" y="701.6992">getEmployeeByEmail(visitSchedule.getAgentEmail())</text><polygon fill="#181818" points="1389,741.4727,1379,745.4727,1389,749.4727,1385,745.4727" style="stroke:#181818;stroke-width:1.0;"/><line style="stroke:#181818;stroke-width:1.0;stroke-dasharray:2.0,2.0;" x1="1383" x2="2147" y1="745.4727" y2="745.4727"/><text fill="#000000" font-family="sans-serif" font-size="20" font-weight="bold" lengthAdjust="spacing" textLength="26" x="1395" y="739.2539">15</text><text fill="#000000" font-family="sans-serif" font-size="20" lengthAdjust="spacing" textLength="93" x="1425" y="739.2539">employee</text><polygon fill="#181818" points="2835.5,779.0273,2845.5,783.0273,2835.5,787.0273,2839.5,783.0273" style="stroke:#181818;stroke-width:1.0;"/><line style="stroke:#181818;stroke-width:1.0;" x1="1378" x2="2841.5" y1="783.0273" y2="783.0273"/><text fill="#000000" font-family="sans-serif" font-size="20" font-weight="bold" lengthAdjust="spacing" textLength="26" x="1385" y="776.8086">16</text><text fill="#000000" font-family="sans-serif" font-size="20" lengthAdjust="spacing" textLength="100" x="1415" y="776.8086">getName()</text><polygon fill="#181818" points="1389,816.582,1379,820.582,1389,824.582,1385,820.582" style="stroke:#181818;stroke-width:1.0;"/><line style="stroke:#181818;stroke-width:1.0;stroke-dasharray:2.0,2.0;" x1="1383" x2="2851.5" y1="820.582" y2="820.582"/><text fill="#000000" font-family="sans-serif" font-size="20" font-weight="bold" lengthAdjust="spacing" textLength="26" x="1395" y="814.3633">17</text><text fill="#000000" font-family="sans-serif" font-size="20" lengthAdjust="spacing" textLength="109" x="1425" y="814.3633">agentName</text><polygon fill="#181818" points="2835.5,854.1367,2845.5,858.1367,2835.5,862.1367,2839.5,858.1367" style="stroke:#181818;stroke-width:1.0;"/><line style="stroke:#181818;stroke-width:1.0;" x1="1378" x2="2841.5" y1="858.1367" y2="858.1367"/><text fill="#000000" font-family="sans-serif" font-size="20" font-weight="bold" lengthAdjust="spacing" textLength="26" x="1385" y="851.918">18</text><text fill="#000000" font-family="sans-serif" font-size="20" lengthAdjust="spacing" textLength="223" x="1415" y="851.918">getTelephoneNumber()</text><polygon fill="#181818" points="1389,891.6914,1379,895.6914,1389,899.6914,1385,895.6914" style="stroke:#181818;stroke-width:1.0;"/><line style="stroke:#181818;stroke-width:1.0;stroke-dasharray:2.0,2.0;" x1="1383" x2="2851.5" y1="895.6914" y2="895.6914"/><text fill="#000000" font-family="sans-serif" font-size="20" font-weight="bold" lengthAdjust="spacing" textLength="26" x="1395" y="889.4727">19</text><text fill="#000000" font-family="sans-serif" font-size="20" lengthAdjust="spacing" textLength="111" x="1425" y="889.4727">agentPhone</text><polygon fill="#181818" points="2385.5,929.2461,2395.5,933.2461,2385.5,937.2461,2389.5,933.2461" style="stroke:#181818;stroke-width:1.0;"/><line style="stroke:#181818;stroke-width:1.0;" x1="1378" x2="2391.5" y1="933.2461" y2="933.2461"/><text fill="#000000" font-family="sans-serif" font-size="20" font-weight="bold" lengthAdjust="spacing" textLength="26" x="1385" y="927.0273">20</text><text fill="#000000" font-family="sans-serif" font-size="20" lengthAdjust="spacing" textLength="527" x="1415" y="927.0273">respondToBookingRequestEmail(visitSchedule, reason)</text><polygon fill="#181818" points="1389,966.8008,1379,970.8008,1389,974.8008,1385,970.8008" style="stroke:#181818;stroke-width:1.0;"/><line style="stroke:#181818;stroke-width:1.0;stroke-dasharray:2.0,2.0;" x1="1383" x2="2401.5" y1="970.8008" y2="970.8008"/><text fill="#000000" font-family="sans-serif" font-size="20" font-weight="bold" lengthAdjust="spacing" textLength="26" x="1395" y="964.582">21</text><text fill="#000000" font-family="sans-serif" font-size="20" lengthAdjust="spacing" textLength="94" x="1425" y="964.582">emailSent</text><polygon fill="#181818" points="702,1004.3555,692,1008.3555,702,1012.3555,698,1008.3555" style="stroke:#181818;stroke-width:1.0;"/><line style="stroke:#181818;stroke-width:1.0;stroke-dasharray:2.0,2.0;" x1="696" x2="1372" y1="1008.3555" y2="1008.3555"/><text fill="#000000" font-family="sans-serif" font-size="20" font-weight="bold" lengthAdjust="spacing" textLength="26" x="708" y="1002.1367">22</text><text fill="#000000" font-family="sans-serif" font-size="20" lengthAdjust="spacing" textLength="220" x="738" y="1002.1367">emailSentConfirmation</text><polygon fill="#181818" points="67,1041.9102,57,1045.9102,67,1049.9102,63,1045.9102" style="stroke:#181818;stroke-width:1.0;"/><line style="stroke:#181818;stroke-width:1.0;stroke-dasharray:2.0,2.0;" x1="61" x2="675" y1="1045.9102" y2="1045.9102"/><text fill="#000000" font-family="sans-serif" font-size="20" font-weight="bold" lengthAdjust="spacing" textLength="26" x="73" y="1039.6914">23</text><text fill="#000000" font-family="sans-serif" font-size="20" lengthAdjust="spacing" textLength="183" x="103" y="1039.6914">Confirm email sent</text><polygon fill="#181818" points="1684,1079.4648,1694,1083.4648,1684,1087.4648,1688,1083.4648" style="stroke:#181818;stroke-width:1.0;"/><line style="stroke:#181818;stroke-width:1.0;" x1="1373" x2="1690" y1="1083.4648" y2="1083.4648"/><text fill="#000000" font-family="sans-serif" font-size="20" font-weight="bold" lengthAdjust="spacing" textLength="26" x="1380" y="1077.2461">24</text><text fill="#000000" font-family="sans-serif" font-size="20" lengthAdjust="spacing" textLength="274" x="1410" y="1077.2461">getVisitScheduleRepository()</text><polygon fill="#181818" points="1384,1117.0195,1374,1121.0195,1384,1125.0195,1380,1121.0195" style="stroke:#181818;stroke-width:1.0;"/><line style="stroke:#181818;stroke-width:1.0;stroke-dasharray:2.0,2.0;" x1="1378" x2="1700" y1="1121.0195" y2="1121.0195"/><text fill="#000000" font-family="sans-serif" font-size="20" font-weight="bold" lengthAdjust="spacing" textLength="26" x="1390" y="1114.8008">25</text><text fill="#000000" font-family="sans-serif" font-size="20" lengthAdjust="spacing" textLength="227" x="1420" y="1114.8008">visitScheduleRepository</text><polygon fill="#181818" points="1888.5,1154.5742,1898.5,1158.5742,1888.5,1162.5742,1892.5,1158.5742" style="stroke:#181818;stroke-width:1.0;"/><line style="stroke:#181818;stroke-width:1.0;" x1="1373" x2="1894.5" y1="1158.5742" y2="1158.5742"/><text fill="#000000" font-family="sans-serif" font-size="20" font-weight="bold" lengthAdjust="spacing" textLength="26" x="1380" y="1152.3555">26</text><text fill="#000000" font-family="sans-serif" font-size="20" lengthAdjust="spacing" textLength="338" x="1410" y="1152.3555">removeVisitSchedule(visitSchedule)</text><polygon fill="#181818" points="1384,1192.1289,1374,1196.1289,1384,1200.1289,1380,1196.1289" style="stroke:#181818;stroke-width:1.0;"/><line style="stroke:#181818;stroke-width:1.0;stroke-dasharray:2.0,2.0;" x1="1378" x2="1904.5" y1="1196.1289" y2="1196.1289"/><text fill="#000000" font-family="sans-serif" font-size="20" font-weight="bold" lengthAdjust="spacing" textLength="26" x="1390" y="1189.9102">27</text><text fill="#000000" font-family="sans-serif" font-size="20" lengthAdjust="spacing" textLength="128" x="1420" y="1189.9102">visitRemoved</text><polygon fill="#181818" points="697,1229.6836,687,1233.6836,697,1237.6836,693,1233.6836" style="stroke:#181818;stroke-width:1.0;"/><line style="stroke:#181818;stroke-width:1.0;stroke-dasharray:2.0,2.0;" x1="691" x2="1372" y1="1233.6836" y2="1233.6836"/><text fill="#000000" font-family="sans-serif" font-size="20" font-weight="bold" lengthAdjust="spacing" textLength="26" x="703" y="1227.4648">28</text><text fill="#000000" font-family="sans-serif" font-size="20" lengthAdjust="spacing" textLength="254" x="733" y="1227.4648">visitRemovedConfirmation</text><polygon fill="#181818" points="67,1267.2383,57,1271.2383,67,1275.2383,63,1271.2383" style="stroke:#181818;stroke-width:1.0;"/><line style="stroke:#181818;stroke-width:1.0;stroke-dasharray:2.0,2.0;" x1="61" x2="680" y1="1271.2383" y2="1271.2383"/><text fill="#000000" font-family="sans-serif" font-size="20" font-weight="bold" lengthAdjust="spacing" textLength="26" x="73" y="1265.0195">29</text><text fill="#000000" font-family="sans-serif" font-size="20" lengthAdjust="spacing" textLength="459" x="103" y="1265.0195">Confirm the booking request has been removed</text><line style="stroke:#000000;stroke-width:1.0;stroke-dasharray:2.0,2.0;" x1="10" x2="2965.5" y1="1280.2383" y2="1280.2383"/><text fill="#000000" font-family="sans-serif" font-size="20" font-weight="bold" lengthAdjust="spacing" textLength="84" x="15" y="1299.5742">[Accept]</text><polygon fill="#181818" points="2627.5,1330.3477,2637.5,1334.3477,2627.5,1338.3477,2631.5,1334.3477" style="stroke:#181818;stroke-width:1.0;"/><line style="stroke:#181818;stroke-width:1.0;" x1="1373" x2="2633.5" y1="1334.3477" y2="1334.3477"/><text fill="#000000" font-family="sans-serif" font-size="20" font-weight="bold" lengthAdjust="spacing" textLength="26" x="1380" y="1328.1289">30</text><text fill="#000000" font-family="sans-serif" font-size="20" lengthAdjust="spacing" textLength="252" x="1410" y="1328.1289">setApprovedByAgent(true)</text><polygon fill="#181818" points="1384,1367.9023,1374,1371.9023,1384,1375.9023,1380,1371.9023" style="stroke:#181818;stroke-width:1.0;"/><line style="stroke:#181818;stroke-width:1.0;stroke-dasharray:2.0,2.0;" x1="1378" x2="2643.5" y1="1371.9023" y2="1371.9023"/><text fill="#000000" font-family="sans-serif" font-size="20" font-weight="bold" lengthAdjust="spacing" textLength="26" x="1390" y="1365.6836">31</text><text fill="#000000" font-family="sans-serif" font-size="20" lengthAdjust="spacing" textLength="122" x="1420" y="1365.6836">confirmation</text><polygon fill="#181818" points="692,1405.457,682,1409.457,692,1413.457,688,1409.457" style="stroke:#181818;stroke-width:1.0;"/><line style="stroke:#181818;stroke-width:1.0;stroke-dasharray:2.0,2.0;" x1="686" x2="1372" y1="1409.457" y2="1409.457"/><text fill="#000000" font-family="sans-serif" font-size="20" font-weight="bold" lengthAdjust="spacing" textLength="26" x="698" y="1403.2383">32</text><text fill="#000000" font-family="sans-serif" font-size="20" lengthAdjust="spacing" textLength="133" x="728" y="1403.2383">visitApproved</text><polygon fill="#181818" points="1356,1443.0117,1366,1447.0117,1356,1451.0117,1360,1447.0117" style="stroke:#181818;stroke-width:1.0;"/><line style="stroke:#181818;stroke-width:1.0;" x1="681" x2="1362" y1="1447.0117" y2="1447.0117"/><text fill="#000000" font-family="sans-serif" font-size="20" font-weight="bold" lengthAdjust="spacing" textLength="26" x="688" y="1440.793">33</text><text fill="#000000" font-family="sans-serif" font-size="20" lengthAdjust="spacing" textLength="638" x="718" y="1440.793">respondToBookingRequestByEmail(visitSchedule, "Visit approved")</text><polygon fill="#181818" points="1684,1480.5664,1694,1484.5664,1684,1488.5664,1688,1484.5664" style="stroke:#181818;stroke-width:1.0;"/><line style="stroke:#181818;stroke-width:1.0;" x1="1378" x2="1690" y1="1484.5664" y2="1484.5664"/><text fill="#000000" font-family="sans-serif" font-size="20" font-weight="bold" lengthAdjust="spacing" textLength="26" x="1385" y="1478.3477">34</text><text fill="#000000" font-family="sans-serif" font-size="20" lengthAdjust="spacing" textLength="239" x="1415" y="1478.3477">getEmployeeRepository()</text><polygon fill="#181818" points="1389,1518.1211,1379,1522.1211,1389,1526.1211,1385,1522.1211" style="stroke:#181818;stroke-width:1.0;"/><line style="stroke:#181818;stroke-width:1.0;stroke-dasharray:2.0,2.0;" x1="1383" x2="1700" y1="1522.1211" y2="1522.1211"/><text fill="#000000" font-family="sans-serif" font-size="20" font-weight="bold" lengthAdjust="spacing" textLength="26" x="1395" y="1515.9023">35</text><text fill="#000000" font-family="sans-serif" font-size="20" lengthAdjust="spacing" textLength="195" x="1425" y="1515.9023">employeeRepository</text><polygon fill="#181818" points="2131,1555.6758,2141,1559.6758,2131,1563.6758,2135,1559.6758" style="stroke:#181818;stroke-width:1.0;"/><line style="stroke:#181818;stroke-width:1.0;" x1="1378" x2="2137" y1="1559.6758" y2="1559.6758"/><text fill="#000000" font-family="sans-serif" font-size="20" font-weight="bold" lengthAdjust="spacing" textLength="26" x="1385" y="1553.457">36</text><text fill="#000000" font-family="sans-serif" font-size="20" lengthAdjust="spacing" textLength="496" x="1415" y="1553.457">getEmployeeByEmail(visitSchedule.getAgentEmail())</text><polygon fill="#181818" points="1389,1593.2305,1379,1597.2305,1389,1601.2305,1385,1597.2305" style="stroke:#181818;stroke-width:1.0;"/><line style="stroke:#181818;stroke-width:1.0;stroke-dasharray:2.0,2.0;" x1="1383" x2="2147" y1="1597.2305" y2="1597.2305"/><text fill="#000000" font-family="sans-serif" font-size="20" font-weight="bold" lengthAdjust="spacing" textLength="26" x="1395" y="1591.0117">37</text><text fill="#000000" font-family="sans-serif" font-size="20" lengthAdjust="spacing" textLength="93" x="1425" y="1591.0117">employee</text><polygon fill="#181818" points="2835.5,1630.7852,2845.5,1634.7852,2835.5,1638.7852,2839.5,1634.7852" style="stroke:#181818;stroke-width:1.0;"/><line style="stroke:#181818;stroke-width:1.0;" x1="1378" x2="2841.5" y1="1634.7852" y2="1634.7852"/><text fill="#000000" font-family="sans-serif" font-size="20" font-weight="bold" lengthAdjust="spacing" textLength="26" x="1385" y="1628.5664">38</text><text fill="#000000" font-family="sans-serif" font-size="20" lengthAdjust="spacing" textLength="100" x="1415" y="1628.5664">getName()</text><polygon fill="#181818" points="1389,1668.3398,1379,1672.3398,1389,1676.3398,1385,1672.3398" style="stroke:#181818;stroke-width:1.0;"/><line style="stroke:#181818;stroke-width:1.0;stroke-dasharray:2.0,2.0;" x1="1383" x2="2851.5" y1="1672.3398" y2="1672.3398"/><text fill="#000000" font-family="sans-serif" font-size="20" font-weight="bold" lengthAdjust="spacing" textLength="26" x="1395" y="1666.1211">39</text><text fill="#000000" font-family="sans-serif" font-size="20" lengthAdjust="spacing" textLength="109" x="1425" y="1666.1211">agentName</text><polygon fill="#181818" points="2835.5,1705.8945,2845.5,1709.8945,2835.5,1713.8945,2839.5,1709.8945" style="stroke:#181818;stroke-width:1.0;"/><line style="stroke:#181818;stroke-width:1.0;" x1="1378" x2="2841.5" y1="1709.8945" y2="1709.8945"/><text fill="#000000" font-family="sans-serif" font-size="20" font-weight="bold" lengthAdjust="spacing" textLength="26" x="1385" y="1703.6758">40</text><text fill="#000000" font-family="sans-serif" font-size="20" lengthAdjust="spacing" textLength="223" x="1415" y="1703.6758">getTelephoneNumber()</text><polygon fill="#181818" points="1389,1743.4492,1379,1747.4492,1389,1751.4492,1385,1747.4492" style="stroke:#181818;stroke-width:1.0;"/><line style="stroke:#181818;stroke-width:1.0;stroke-dasharray:2.0,2.0;" x1="1383" x2="2851.5" y1="1747.4492" y2="1747.4492"/><text fill="#000000" font-family="sans-serif" font-size="20" font-weight="bold" lengthAdjust="spacing" textLength="26" x="1395" y="1741.2305">41</text><text fill="#000000" font-family="sans-serif" font-size="20" lengthAdjust="spacing" textLength="111" x="1425" y="1741.2305">agentPhone</text><polygon fill="#181818" points="2385.5,1781.0039,2395.5,1785.0039,2385.5,1789.0039,2389.5,1785.0039" style="stroke:#181818;stroke-width:1.0;"/><line style="stroke:#181818;stroke-width:1.0;" x1="1378" x2="2391.5" y1="1785.0039" y2="1785.0039"/><text fill="#000000" font-family="sans-serif" font-size="20" font-weight="bold" lengthAdjust="spacing" textLength="26" x="1385" y="1778.7852">42</text><text fill="#000000" font-family="sans-serif" font-size="20" lengthAdjust="spacing" textLength="616" x="1415" y="1778.7852">respondToBookingRequestEmail(visitSchedule, "Visit approved")</text><polygon fill="#181818" points="1389,1818.5586,1379,1822.5586,1389,1826.5586,1385,1822.5586" style="stroke:#181818;stroke-width:1.0;"/><line style="stroke:#181818;stroke-width:1.0;stroke-dasharray:2.0,2.0;" x1="1383" x2="2401.5" y1="1822.5586" y2="1822.5586"/><text fill="#000000" font-family="sans-serif" font-size="20" font-weight="bold" lengthAdjust="spacing" textLength="26" x="1395" y="1816.3398">43</text><text fill="#000000" font-family="sans-serif" font-size="20" lengthAdjust="spacing" textLength="94" x="1425" y="1816.3398">emailSent</text><polygon fill="#181818" points="692,1856.1133,682,1860.1133,692,1864.1133,688,1860.1133" style="stroke:#181818;stroke-width:1.0;"/><line style="stroke:#181818;stroke-width:1.0;stroke-dasharray:2.0,2.0;" x1="686" x2="1372" y1="1860.1133" y2="1860.1133"/><text fill="#000000" font-family="sans-serif" font-size="20" font-weight="bold" lengthAdjust="spacing" textLength="26" x="698" y="1853.8945">44</text><text fill="#000000" font-family="sans-serif" font-size="20" lengthAdjust="spacing" textLength="220" x="728" y="1853.8945">emailSentConfirmation</text><polygon fill="#181818" points="67,1893.668,57,1897.668,67,1901.668,63,1897.668" style="stroke:#181818;stroke-width:1.0;"/><line style="stroke:#181818;stroke-width:1.0;stroke-dasharray:2.0,2.0;" x1="61" x2="680" y1="1897.668" y2="1897.668"/><text fill="#000000" font-family="sans-serif" font-size="20" font-weight="bold" lengthAdjust="spacing" textLength="26" x="73" y="1891.4492">45</text><text fill="#000000" font-family="sans-serif" font-size="20" lengthAdjust="spacing" textLength="183" x="103" y="1891.4492">Confirm email sent</text><!--SRC=[xLUxRjim5Dtr5HUP7A0fsWuTD1Im4nKmaAQ15JjB5qQwjbbBf4fI3jolBr-og4TI8qKx5F5YKkAvvrpUbortb5L4aBBWsGvpo75Dwa9zvaobz2V2XtUHR8v0oHdFjeAN24hK6BofIBOZ6qpLeK0Gc2d2DaLuG6v9pXyfsy2Q51AZYDIAixfyG155YYeDI_57ZIn3kA9aOp0Ni4pVVzH7CyK5d4qtoDGP40bs5Md3YcQq8ap1sOfAgj9iYtbTuC9OaahUKwP9u-NSefRpBcHQgwssGpEYA6UNscF1Ym95R5vStYsk7PVVF4CNG5T7t6e84bXn3UE2elp6uaMmjP15SlkrYuXxRdd0mJ6a8u2ah0f-mFxPP7WqAGajKcIvbfrycSwlq-JcAbcuu-t-6R-TEgV5hFhsdPAZ96VPRsnKwPuezD6Cx1TSVD9nWbWVtKbGNEUIh3ZBpPB00-SxaqB2nRSreKCRQPW6D-6AOODgAL5ODoVd0LqJqAXPmKN3MZU0ACSHWADOpcFWRAOMJbfekzMnSYAy_3i-Sz9zPaxsuJs-QNa3Mow18bufME1tNL8HwC_A2VxaRZm6YMfQLOBlCPyTx1LER86TszEjCHiVPy4ihSjUOyRPcehILe4z4VWUuhfNPJsuef9uzW7IoJTFVMICk1WIfb3eM0eaaZDOwyeMrhqHTdETvb4tDUu5rUy8b2YbxZacDNGXspk4HwgsTkVDyxNVXGm3-wU4R7PmcTIBdEFfttRh-p5UfW31PkMmH2Szl2rM-yYYWbZX0Dk_inPxfBR5tw4UTUQjFc1lsfTCJrJIMawUajKNauofQVg24NH3IknxtxO8o-Lt8HqnAWrqmDU1ZbFUOO7LbZEyiTFdXUotniAfz6qtXIVpw_Ji2fkp4ndOxmJ5DNWraDatq2lj8_3okSxGhU-cm3NSevmPtQ260fgw6ocE9mRUwHMo7pTmGfcuUMeZLEgErb7I3Ko_tDF0MZegQ65D3fjaEj3HwQyUzcTnC0smDpbXgqVn0oBplkPZ4K8zHc2QPLYTF7hChy9_CtccfuwT5tLrzpi7cjbszjhVN_lxt-Zllycp_wFJwxyOqIy0]--></g></svg>