<?xml version="1.0" encoding="UTF-8" standalone="no"?><svg xmlns="http://www.w3.org/2000/svg" xmlns:xlink="http://www.w3.org/1999/xlink" contentStyleType="text/css" height="1469px" preserveAspectRatio="none" style="width:1169px;height:1469px;background:#FFFFFF;" version="1.1" viewBox="0 0 1169 1469" width="1169px" zoomAndPan="magnify"><defs/><g><text fill="#000000" font-family="sans-serif" font-size="14" font-weight="bold" lengthAdjust="spacing" textLength="160" x="497.5" y="23.5352">Class Diagram - US16</text><!--class UserSession--><g id="elem_UserSession"><rect codeLine="9" fill="#F1F1F1" height="73.5547" id="UserSession" rx="2.5" ry="2.5" style="stroke:#181818;stroke-width:0.5;" width="168" x="7" y="967.9883"/><ellipse cx="31.55" cy="984.9883" fill="#ADD1B2" rx="12" ry="12" style="stroke:#181818;stroke-width:1.0;"/><path d="M34.3566,992.0684 Q33.673,992.4199 32.9211,992.5957 Q32.1691,992.7715 31.3391,992.7715 Q28.3898,992.7715 26.8371,990.8281 Q25.2844,988.8848 25.2844,985.2129 Q25.2844,981.5313 26.8371,979.5879 Q28.3898,977.6445 31.3391,977.6445 Q32.1691,977.6445 32.9309,977.8203 Q33.6926,977.9961 34.3566,978.3477 L34.3566,981.5508 Q33.6145,980.8672 32.9162,980.5498 Q32.218,980.2324 31.4758,980.2324 Q29.8938,980.2324 29.0881,981.4873 Q28.2824,982.7422 28.2824,985.2129 Q28.2824,987.6738 29.0881,988.9287 Q29.8938,990.1836 31.4758,990.1836 Q32.218,990.1836 32.9162,989.8662 Q33.6145,989.5488 34.3566,988.8652 Z " fill="#000000"/><text fill="#000000" font-family="sans-serif" font-size="20" lengthAdjust="spacing" textLength="115" x="48.45" y="992.5469">UserSession</text><line style="stroke:#181818;stroke-width:0.5;" x1="8" x2="174" y1="1001.9883" y2="1001.9883"/><line style="stroke:#181818;stroke-width:0.5;" x1="8" x2="174" y1="1009.9883" y2="1009.9883"/><text fill="#000000" font-family="sans-serif" font-size="20" lengthAdjust="spacing" textLength="156" x="13" y="1033.3242">+getUserEmail()</text></g><!--class Person--><g id="elem_Person"><rect codeLine="13" fill="#F1F1F1" height="120.6641" id="Person" rx="2.5" ry="2.5" style="stroke:#181818;stroke-width:0.5;" width="236" x="924" y="44.4883"/><ellipse cx="1005.5" cy="61.4883" fill="#A9DCDF" rx="12" ry="12" style="stroke:#181818;stroke-width:1.0;"/><path d="M1005.5156,56.2949 L1004.1582,62.2617 L1006.8828,62.2617 Z M1003.7578,53.6582 L1007.2832,53.6582 L1011.2188,68.2383 L1008.3379,68.2383 L1007.4395,64.6348 L1003.582,64.6348 L1002.7031,68.2383 L999.8223,68.2383 Z " fill="#000000"/><text fill="#000000" font-family="sans-serif" font-size="20" font-style="italic" lengthAdjust="spacing" textLength="64" x="1027.5" y="69.0469">Person</text><line style="stroke:#181818;stroke-width:0.5;" x1="925" x2="1159" y1="78.4883" y2="78.4883"/><text fill="#000000" font-family="sans-serif" font-size="20" lengthAdjust="spacing" textLength="139" x="930" y="101.8242">-name : String</text><text fill="#000000" font-family="sans-serif" font-size="20" lengthAdjust="spacing" textLength="139" x="930" y="125.3789">-email : String</text><text fill="#000000" font-family="sans-serif" font-size="20" lengthAdjust="spacing" textLength="224" x="930" y="148.9336">-phoneNumber : String</text><line style="stroke:#181818;stroke-width:0.5;" x1="925" x2="1159" y1="157.1523" y2="157.1523"/></g><!--class Employee--><g id="elem_Employee"><rect codeLine="19" fill="#F1F1F1" height="50" id="Employee" rx="2.5" ry="2.5" style="stroke:#181818;stroke-width:0.5;" width="127" x="978.5" y="331.4883"/><ellipse cx="994.5" cy="348.4883" fill="#ADD1B2" rx="12" ry="12" style="stroke:#181818;stroke-width:1.0;"/><path d="M997.3066,355.5684 Q996.623,355.9199 995.8711,356.0957 Q995.1191,356.2715 994.2891,356.2715 Q991.3398,356.2715 989.7871,354.3281 Q988.2344,352.3848 988.2344,348.7129 Q988.2344,345.0313 989.7871,343.0879 Q991.3398,341.1445 994.2891,341.1445 Q995.1191,341.1445 995.8809,341.3203 Q996.6426,341.4961 997.3066,341.8477 L997.3066,345.0508 Q996.5645,344.3672 995.8662,344.0498 Q995.168,343.7324 994.4258,343.7324 Q992.8438,343.7324 992.0381,344.9873 Q991.2324,346.2422 991.2324,348.7129 Q991.2324,351.1738 992.0381,352.4287 Q992.8438,353.6836 994.4258,353.6836 Q995.168,353.6836 995.8662,353.3662 Q996.5645,353.0488 997.3066,352.3652 Z " fill="#000000"/><text fill="#000000" font-family="sans-serif" font-size="20" lengthAdjust="spacing" textLength="93" x="1009.5" y="356.0469">Employee</text><line style="stroke:#181818;stroke-width:0.5;" x1="979.5" x2="1104.5" y1="365.4883" y2="365.4883"/><line style="stroke:#181818;stroke-width:0.5;" x1="979.5" x2="1104.5" y1="373.4883" y2="373.4883"/></g><!--class VisitSchedule--><g id="elem_VisitSchedule"><rect codeLine="23" fill="#F1F1F1" height="261.9922" id="VisitSchedule" rx="2.5" ry="2.5" style="stroke:#181818;stroke-width:0.5;" width="288" x="537" y="225.4883"/><ellipse cx="612.5" cy="242.4883" fill="#ADD1B2" rx="12" ry="12" style="stroke:#181818;stroke-width:1.0;"/><path d="M615.3066,249.5684 Q614.623,249.9199 613.8711,250.0957 Q613.1191,250.2715 612.2891,250.2715 Q609.3398,250.2715 607.7871,248.3281 Q606.2344,246.3848 606.2344,242.7129 Q606.2344,239.0313 607.7871,237.0879 Q609.3398,235.1445 612.2891,235.1445 Q613.1191,235.1445 613.8809,235.3203 Q614.6426,235.4961 615.3066,235.8477 L615.3066,239.0508 Q614.5645,238.3672 613.8662,238.0498 Q613.168,237.7324 612.4258,237.7324 Q610.8438,237.7324 610.0381,238.9873 Q609.2324,240.2422 609.2324,242.7129 Q609.2324,245.1738 610.0381,246.4287 Q610.8438,247.6836 612.4258,247.6836 Q613.168,247.6836 613.8662,247.3662 Q614.5645,247.0488 615.3066,246.3652 Z " fill="#000000"/><text fill="#000000" font-family="sans-serif" font-size="20" lengthAdjust="spacing" textLength="128" x="634.5" y="250.0469">VisitSchedule</text><line style="stroke:#181818;stroke-width:0.5;" x1="538" x2="824" y1="259.4883" y2="259.4883"/><text fill="#000000" font-family="sans-serif" font-size="20" lengthAdjust="spacing" textLength="74" x="543" y="282.8242">-id : int</text><text fill="#000000" font-family="sans-serif" font-size="20" lengthAdjust="spacing" textLength="158" x="543" y="306.3789">-propertyID : int</text><text fill="#000000" font-family="sans-serif" font-size="20" lengthAdjust="spacing" textLength="207" x="543" y="329.9336">-visitDate : LocalDate</text><text fill="#000000" font-family="sans-serif" font-size="20" lengthAdjust="spacing" textLength="221" x="543" y="353.4883">-startTime : LocalTime</text><text fill="#000000" font-family="sans-serif" font-size="20" lengthAdjust="spacing" textLength="214" x="543" y="377.043">-endTime : LocalTime</text><text fill="#000000" font-family="sans-serif" font-size="20" lengthAdjust="spacing" textLength="276" x="543" y="400.5977">-approvedByAgent : boolean</text><text fill="#000000" font-family="sans-serif" font-size="20" lengthAdjust="spacing" textLength="192" x="543" y="424.1523">-agentEmail : String</text><text fill="#000000" font-family="sans-serif" font-size="20" lengthAdjust="spacing" textLength="252" x="543" y="447.707">-adressOfProperty : String</text><text fill="#000000" font-family="sans-serif" font-size="20" lengthAdjust="spacing" textLength="230" x="543" y="471.2617">-requesterEmail : String</text><line style="stroke:#181818;stroke-width:0.5;" x1="538" x2="824" y1="479.4805" y2="479.4805"/></g><!--class AuthenticationRepository--><g id="elem_AuthenticationRepository"><rect codeLine="35" fill="#F1F1F1" height="167.7734" id="AuthenticationRepository" rx="2.5" ry="2.5" style="stroke:#181818;stroke-width:0.5;" width="275" x="120.5" y="1160.4883"/><ellipse cx="136.5" cy="1177.4883" fill="#ADD1B2" rx="12" ry="12" style="stroke:#181818;stroke-width:1.0;"/><path d="M139.3066,1184.5684 Q138.623,1184.9199 137.8711,1185.0957 Q137.1191,1185.2715 136.2891,1185.2715 Q133.3398,1185.2715 131.7871,1183.3281 Q130.2344,1181.3848 130.2344,1177.7129 Q130.2344,1174.0313 131.7871,1172.0879 Q133.3398,1170.1445 136.2891,1170.1445 Q137.1191,1170.1445 137.8809,1170.3203 Q138.6426,1170.4961 139.3066,1170.8477 L139.3066,1174.0508 Q138.5645,1173.3672 137.8662,1173.0498 Q137.168,1172.7324 136.4258,1172.7324 Q134.8438,1172.7324 134.0381,1173.9873 Q133.2324,1175.2422 133.2324,1177.7129 Q133.2324,1180.1738 134.0381,1181.4287 Q134.8438,1182.6836 136.4258,1182.6836 Q137.168,1182.6836 137.8662,1182.3662 Q138.5645,1182.0488 139.3066,1181.3652 Z " fill="#000000"/><text fill="#000000" font-family="sans-serif" font-size="20" lengthAdjust="spacing" textLength="241" x="151.5" y="1185.0469">AuthenticationRepository</text><line style="stroke:#181818;stroke-width:0.5;" x1="121.5" x2="394.5" y1="1194.4883" y2="1194.4883"/><line style="stroke:#181818;stroke-width:0.5;" x1="121.5" x2="394.5" y1="1202.4883" y2="1202.4883"/><text fill="#000000" font-family="sans-serif" font-size="20" lengthAdjust="spacing" textLength="108" x="126.5" y="1225.8242">+doLogin()</text><text fill="#000000" font-family="sans-serif" font-size="20" lengthAdjust="spacing" textLength="121" x="126.5" y="1249.3789">+doLogout()</text><text fill="#000000" font-family="sans-serif" font-size="20" lengthAdjust="spacing" textLength="247" x="126.5" y="1272.9336">+getCurrentUserSession()</text><text fill="#000000" font-family="sans-serif" font-size="20" lengthAdjust="spacing" textLength="152" x="126.5" y="1296.4883">+addUserRole()</text><text fill="#000000" font-family="sans-serif" font-size="20" lengthAdjust="spacing" textLength="194" x="126.5" y="1320.043">+addUserWithRole()</text></g><!--class AuthenticationController--><g id="elem_AuthenticationController"><rect codeLine="43" fill="#F1F1F1" height="97.1094" id="AuthenticationController" rx="2.5" ry="2.5" style="stroke:#181818;stroke-width:0.5;" width="427" x="210.5" y="956.4883"/><ellipse cx="302" cy="973.4883" fill="#ADD1B2" rx="12" ry="12" style="stroke:#181818;stroke-width:1.0;"/><path d="M304.8066,980.5684 Q304.123,980.9199 303.3711,981.0957 Q302.6191,981.2715 301.7891,981.2715 Q298.8398,981.2715 297.2871,979.3281 Q295.7344,977.3848 295.7344,973.7129 Q295.7344,970.0313 297.2871,968.0879 Q298.8398,966.1445 301.7891,966.1445 Q302.6191,966.1445 303.3809,966.3203 Q304.1426,966.4961 304.8066,966.8477 L304.8066,970.0508 Q304.0645,969.3672 303.3662,969.0498 Q302.668,968.7324 301.9258,968.7324 Q300.3438,968.7324 299.5381,969.9873 Q298.7324,971.2422 298.7324,973.7129 Q298.7324,976.1738 299.5381,977.4287 Q300.3438,978.6836 301.9258,978.6836 Q302.668,978.6836 303.3662,978.3662 Q304.0645,978.0488 304.8066,977.3652 Z " fill="#000000"/><text fill="#000000" font-family="sans-serif" font-size="20" lengthAdjust="spacing" textLength="235" x="324" y="981.0469">AuthenticationController</text><line style="stroke:#181818;stroke-width:0.5;" x1="211.5" x2="636.5" y1="990.4883" y2="990.4883"/><text fill="#000000" font-family="sans-serif" font-size="20" lengthAdjust="spacing" textLength="415" x="216.5" y="1013.8242">-authRepository : AuthenticationRepository</text><line style="stroke:#181818;stroke-width:0.5;" x1="211.5" x2="636.5" y1="1022.043" y2="1022.043"/><text fill="#000000" font-family="sans-serif" font-size="20" lengthAdjust="spacing" textLength="156" x="216.5" y="1045.3789">+getUserEmail()</text></g><!--class VisitScheduleRequestsWindow--><g id="elem_VisitScheduleRequestsWindow"><rect codeLine="48" fill="#F1F1F1" height="120.6641" id="VisitScheduleRequestsWindow" rx="2.5" ry="2.5" style="stroke:#181818;stroke-width:0.5;" width="324" x="307" y="728.4883"/><ellipse cx="323" cy="745.4883" fill="#ADD1B2" rx="12" ry="12" style="stroke:#181818;stroke-width:1.0;"/><path d="M325.8066,752.5684 Q325.123,752.9199 324.3711,753.0957 Q323.6191,753.2715 322.7891,753.2715 Q319.8398,753.2715 318.2871,751.3281 Q316.7344,749.3848 316.7344,745.7129 Q316.7344,742.0313 318.2871,740.0879 Q319.8398,738.1445 322.7891,738.1445 Q323.6191,738.1445 324.3809,738.3203 Q325.1426,738.4961 325.8066,738.8477 L325.8066,742.0508 Q325.0645,741.3672 324.3662,741.0498 Q323.668,740.7324 322.9258,740.7324 Q321.3438,740.7324 320.5381,741.9873 Q319.7324,743.2422 319.7324,745.7129 Q319.7324,748.1738 320.5381,749.4287 Q321.3438,750.6836 322.9258,750.6836 Q323.668,750.6836 324.3662,750.3662 Q325.0645,750.0488 325.8066,749.3652 Z " fill="#000000"/><text fill="#000000" font-family="sans-serif" font-size="20" lengthAdjust="spacing" textLength="290" x="338" y="753.0469">VisitScheduleRequestsWindow</text><line style="stroke:#181818;stroke-width:0.5;" x1="308" x2="630" y1="762.4883" y2="762.4883"/><line style="stroke:#181818;stroke-width:0.5;" x1="308" x2="630" y1="770.4883" y2="770.4883"/><text fill="#000000" font-family="sans-serif" font-size="20" lengthAdjust="spacing" textLength="289" x="313" y="793.8242">+respondToBookingRequest()</text><text fill="#000000" font-family="sans-serif" font-size="20" lengthAdjust="spacing" textLength="296" x="313" y="817.3789">+updateBookingRequestsList()</text><text fill="#000000" font-family="sans-serif" font-size="20" lengthAdjust="spacing" textLength="221" x="313" y="840.9336">+sendEmailResponse()</text></g><!--class VisitScheduleController--><g id="elem_VisitScheduleController"><rect codeLine="54" fill="#F1F1F1" height="191.3281" id="VisitScheduleController" rx="2.5" ry="2.5" style="stroke:#181818;stroke-width:0.5;" width="376" x="673" y="909.4883"/><ellipse cx="744.5" cy="926.4883" fill="#ADD1B2" rx="12" ry="12" style="stroke:#181818;stroke-width:1.0;"/><path d="M747.3066,933.5684 Q746.623,933.9199 745.8711,934.0957 Q745.1191,934.2715 744.2891,934.2715 Q741.3398,934.2715 739.7871,932.3281 Q738.2344,930.3848 738.2344,926.7129 Q738.2344,923.0313 739.7871,921.0879 Q741.3398,919.1445 744.2891,919.1445 Q745.1191,919.1445 745.8809,919.3203 Q746.6426,919.4961 747.3066,919.8477 L747.3066,923.0508 Q746.5645,922.3672 745.8662,922.0498 Q745.168,921.7324 744.4258,921.7324 Q742.8438,921.7324 742.0381,922.9873 Q741.2324,924.2422 741.2324,926.7129 Q741.2324,929.1738 742.0381,930.4287 Q742.8438,931.6836 744.4258,931.6836 Q745.168,931.6836 745.8662,931.3662 Q746.5645,931.0488 747.3066,930.3652 Z " fill="#000000"/><text fill="#000000" font-family="sans-serif" font-size="20" lengthAdjust="spacing" textLength="224" x="766.5" y="934.0469">VisitScheduleController</text><line style="stroke:#181818;stroke-width:0.5;" x1="674" x2="1048" y1="943.4883" y2="943.4883"/><text fill="#000000" font-family="sans-serif" font-size="20" lengthAdjust="spacing" textLength="263" x="679" y="966.8242">-repositories : Repositories</text><text fill="#000000" font-family="sans-serif" font-size="20" lengthAdjust="spacing" textLength="268" x="679" y="990.3789">-emailSender : EmailSender</text><line style="stroke:#181818;stroke-width:0.5;" x1="674" x2="1048" y1="998.5977" y2="998.5977"/><text fill="#000000" font-family="sans-serif" font-size="20" lengthAdjust="spacing" textLength="150" x="679" y="1021.9336">+approveVisit()</text><text fill="#000000" font-family="sans-serif" font-size="20" lengthAdjust="spacing" textLength="179" x="679" y="1045.4883">+disapproveVisit()</text><text fill="#000000" font-family="sans-serif" font-size="20" lengthAdjust="spacing" textLength="143" x="679" y="1069.043">+removeVisit()</text><text fill="#000000" font-family="sans-serif" font-size="20" lengthAdjust="spacing" textLength="364" x="679" y="1092.5977">+respondToBookingRequestByEmail()</text></g><!--class Repositories--><g id="elem_Repositories"><rect codeLine="64" fill="#F1F1F1" height="97.1094" id="Repositories" rx="2.5" ry="2.5" style="stroke:#181818;stroke-width:0.5;" width="302" x="710" y="740.4883"/><ellipse cx="797" cy="757.4883" fill="#ADD1B2" rx="12" ry="12" style="stroke:#181818;stroke-width:1.0;"/><path d="M799.8066,764.5684 Q799.123,764.9199 798.3711,765.0957 Q797.6191,765.2715 796.7891,765.2715 Q793.8398,765.2715 792.2871,763.3281 Q790.7344,761.3848 790.7344,757.7129 Q790.7344,754.0313 792.2871,752.0879 Q793.8398,750.1445 796.7891,750.1445 Q797.6191,750.1445 798.3809,750.3203 Q799.1426,750.4961 799.8066,750.8477 L799.8066,754.0508 Q799.0645,753.3672 798.3662,753.0498 Q797.668,752.7324 796.9258,752.7324 Q795.3438,752.7324 794.5381,753.9873 Q793.7324,755.2422 793.7324,757.7129 Q793.7324,760.1738 794.5381,761.4287 Q795.3438,762.6836 796.9258,762.6836 Q797.668,762.6836 798.3662,762.3662 Q799.0645,762.0488 799.8066,761.3652 Z " fill="#000000"/><text fill="#000000" font-family="sans-serif" font-size="20" lengthAdjust="spacing" textLength="119" x="819" y="765.0469">Repositories</text><line style="stroke:#181818;stroke-width:0.5;" x1="711" x2="1011" y1="774.4883" y2="774.4883"/><line style="stroke:#181818;stroke-width:0.5;" x1="711" x2="1011" y1="782.4883" y2="782.4883"/><text fill="#000000" font-family="sans-serif" font-size="20" lengthAdjust="spacing" textLength="290" x="716" y="805.8242">+getVisitScheduleRepository()</text><text fill="#000000" font-family="sans-serif" font-size="20" lengthAdjust="spacing" textLength="255" x="716" y="829.3789">+getEmployeeRepository()</text></g><!--class VisitScheduleRepository--><g id="elem_VisitScheduleRepository"><rect codeLine="71" fill="#F1F1F1" height="120.6641" id="VisitScheduleRepository" rx="2.5" ry="2.5" style="stroke:#181818;stroke-width:0.5;" width="411" x="475.5" y="547.4883"/><ellipse cx="561.5" cy="564.4883" fill="#ADD1B2" rx="12" ry="12" style="stroke:#181818;stroke-width:1.0;"/><path d="M564.3066,571.5684 Q563.623,571.9199 562.8711,572.0957 Q562.1191,572.2715 561.2891,572.2715 Q558.3398,572.2715 556.7871,570.3281 Q555.2344,568.3848 555.2344,564.7129 Q555.2344,561.0313 556.7871,559.0879 Q558.3398,557.1445 561.2891,557.1445 Q562.1191,557.1445 562.8809,557.3203 Q563.6426,557.4961 564.3066,557.8477 L564.3066,561.0508 Q563.5645,560.3672 562.8662,560.0498 Q562.168,559.7324 561.4258,559.7324 Q559.8438,559.7324 559.0381,560.9873 Q558.2324,562.2422 558.2324,564.7129 Q558.2324,567.1738 559.0381,568.4287 Q559.8438,569.6836 561.4258,569.6836 Q562.168,569.6836 562.8662,569.3662 Q563.5645,569.0488 564.3066,568.3652 Z " fill="#000000"/><text fill="#000000" font-family="sans-serif" font-size="20" lengthAdjust="spacing" textLength="230" x="583.5" y="572.0469">VisitScheduleRepository</text><line style="stroke:#181818;stroke-width:0.5;" x1="476.5" x2="885.5" y1="581.4883" y2="581.4883"/><line style="stroke:#181818;stroke-width:0.5;" x1="476.5" x2="885.5" y1="589.4883" y2="589.4883"/><text fill="#000000" font-family="sans-serif" font-size="20" lengthAdjust="spacing" textLength="399" x="481.5" y="612.8242">+getVisitSchedulesByUserEmailAndDate()</text><text fill="#000000" font-family="sans-serif" font-size="20" lengthAdjust="spacing" textLength="376" x="481.5" y="636.3789">+getVisitSchedulesByAgentAndPeriod()</text><text fill="#000000" font-family="sans-serif" font-size="20" lengthAdjust="spacing" textLength="270" x="481.5" y="659.9336">+removeVisitScheduleById()</text></g><!--class Utils--><g id="elem_Utils"><rect codeLine="77" fill="#F1F1F1" height="73.5547" id="Utils" rx="2.5" ry="2.5" style="stroke:#181818;stroke-width:0.5;" width="141" x="790.5" y="1388.4883"/><ellipse cx="835.3" cy="1405.4883" fill="#ADD1B2" rx="12" ry="12" style="stroke:#181818;stroke-width:1.0;"/><path d="M838.1066,1412.5684 Q837.423,1412.9199 836.6711,1413.0957 Q835.9191,1413.2715 835.0891,1413.2715 Q832.1398,1413.2715 830.5871,1411.3281 Q829.0344,1409.3848 829.0344,1405.7129 Q829.0344,1402.0313 830.5871,1400.0879 Q832.1398,1398.1445 835.0891,1398.1445 Q835.9191,1398.1445 836.6809,1398.3203 Q837.4426,1398.4961 838.1066,1398.8477 L838.1066,1402.0508 Q837.3645,1401.3672 836.6662,1401.0498 Q835.968,1400.7324 835.2258,1400.7324 Q833.6438,1400.7324 832.8381,1401.9873 Q832.0324,1403.2422 832.0324,1405.7129 Q832.0324,1408.1738 832.8381,1409.4287 Q833.6438,1410.6836 835.2258,1410.6836 Q835.968,1410.6836 836.6662,1410.3662 Q837.3645,1410.0488 838.1066,1409.3652 Z " fill="#000000"/><text fill="#000000" font-family="sans-serif" font-size="20" lengthAdjust="spacing" textLength="43" x="856.7" y="1413.0469">Utils</text><line style="stroke:#181818;stroke-width:0.5;" x1="791.5" x2="930.5" y1="1422.4883" y2="1422.4883"/><line style="stroke:#181818;stroke-width:0.5;" x1="791.5" x2="930.5" y1="1430.4883" y2="1430.4883"/><text fill="#000000" font-family="sans-serif" font-size="20" lengthAdjust="spacing" textLength="129" x="796.5" y="1453.8242">+sendEmail()</text></g><!--class EmployeeRepository--><g id="elem_EmployeeRepository"><rect codeLine="81" fill="#F1F1F1" height="73.5547" id="EmployeeRepository" rx="2.5" ry="2.5" style="stroke:#181818;stroke-width:0.5;" width="240" x="922" y="570.9883"/><ellipse cx="942.95" cy="587.9883" fill="#ADD1B2" rx="12" ry="12" style="stroke:#181818;stroke-width:1.0;"/><path d="M945.7566,595.0684 Q945.073,595.4199 944.3211,595.5957 Q943.5691,595.7715 942.7391,595.7715 Q939.7898,595.7715 938.2371,593.8281 Q936.6844,591.8848 936.6844,588.2129 Q936.6844,584.5313 938.2371,582.5879 Q939.7898,580.6445 942.7391,580.6445 Q943.5691,580.6445 944.3309,580.8203 Q945.0926,580.9961 945.7566,581.3477 L945.7566,584.5508 Q945.0145,583.8672 944.3162,583.5498 Q943.618,583.2324 942.8758,583.2324 Q941.2938,583.2324 940.4881,584.4873 Q939.6824,585.7422 939.6824,588.2129 Q939.6824,590.6738 940.4881,591.9287 Q941.2938,593.1836 942.8758,593.1836 Q943.618,593.1836 944.3162,592.8662 Q945.0145,592.5488 945.7566,591.8652 Z " fill="#000000"/><text fill="#000000" font-family="sans-serif" font-size="20" lengthAdjust="spacing" textLength="195" x="959.05" y="595.5469">EmployeeRepository</text><line style="stroke:#181818;stroke-width:0.5;" x1="923" x2="1161" y1="604.9883" y2="604.9883"/><line style="stroke:#181818;stroke-width:0.5;" x1="923" x2="1161" y1="612.9883" y2="612.9883"/><text fill="#000000" font-family="sans-serif" font-size="20" lengthAdjust="spacing" textLength="228" x="928" y="636.3242">+getEmployeeByEmail()</text></g><!--class EmailSender--><g id="elem_EmailSender"><rect codeLine="85" fill="#F1F1F1" height="73.5547" id="EmailSender" rx="2.5" ry="2.5" style="stroke:#181818;stroke-width:0.5;" width="354" x="684" y="1207.4883"/><ellipse cx="797" cy="1224.4883" fill="#ADD1B2" rx="12" ry="12" style="stroke:#181818;stroke-width:1.0;"/><path d="M799.8066,1231.5684 Q799.123,1231.9199 798.3711,1232.0957 Q797.6191,1232.2715 796.7891,1232.2715 Q793.8398,1232.2715 792.2871,1230.3281 Q790.7344,1228.3848 790.7344,1224.7129 Q790.7344,1221.0313 792.2871,1219.0879 Q793.8398,1217.1445 796.7891,1217.1445 Q797.6191,1217.1445 798.3809,1217.3203 Q799.1426,1217.4961 799.8066,1217.8477 L799.8066,1221.0508 Q799.0645,1220.3672 798.3662,1220.0498 Q797.668,1219.7324 796.9258,1219.7324 Q795.3438,1219.7324 794.5381,1220.9873 Q793.7324,1222.2422 793.7324,1224.7129 Q793.7324,1227.1738 794.5381,1228.4287 Q795.3438,1229.6836 796.9258,1229.6836 Q797.668,1229.6836 798.3662,1229.3662 Q799.0645,1229.0488 799.8066,1228.3652 Z " fill="#000000"/><text fill="#000000" font-family="sans-serif" font-size="20" lengthAdjust="spacing" textLength="119" x="819" y="1232.0469">EmailSender</text><line style="stroke:#181818;stroke-width:0.5;" x1="685" x2="1037" y1="1241.4883" y2="1241.4883"/><line style="stroke:#181818;stroke-width:0.5;" x1="685" x2="1037" y1="1249.4883" y2="1249.4883"/><text fill="#000000" font-family="sans-serif" font-size="20" lengthAdjust="spacing" textLength="342" x="690" y="1272.8242">+respondToBookingRequestEmail()</text></g><!--reverse link Person to Employee--><g id="link_Person_Employee"><path d="M1042,187.1683 C1042,237.2683 1042,298.0983 1042,331.1883 " fill="none" id="Person-backto-Employee" style="stroke:#181818;stroke-width:1.0;"/><polygon fill="none" points="1035,187.2683,1042,167.2683,1049,187.2583,1035,187.2683" style="stroke:#181818;stroke-width:1.0;"/></g><!--reverse link UserSession to AuthenticationRepository--><g id="link_UserSession_AuthenticationRepository"><path codeLine="89" d="M120.24,1047.5783 C142.07,1078.6083 172.61,1122.0483 199.39,1160.1383 " fill="none" id="UserSession-backto-AuthenticationRepository" style="stroke:#181818;stroke-width:1.0;"/><polygon fill="#181818" points="117.42,1043.5583,119.3224,1053.2217,120.295,1047.6491,125.8676,1048.6217,117.42,1043.5583" style="stroke:#181818;stroke-width:1.0;"/></g><!--link AuthenticationController to AuthenticationRepository--><g id="link_AuthenticationController_AuthenticationRepository"><path codeLine="90" d="M390.61,1053.7683 C370.3,1082.8183 343.74,1120.8083 319.73,1155.1683 " fill="none" id="AuthenticationController-to-AuthenticationRepository" style="stroke:#181818;stroke-width:1.0;stroke-dasharray:7.0,7.0;"/><polygon fill="#181818" points="317.07,1158.9683,325.4974,1153.8713,319.9287,1154.8661,318.9339,1149.2974,317.07,1158.9683" style="stroke:#181818;stroke-width:1.0;"/></g><!--link VisitScheduleRequestsWindow to AuthenticationController--><g id="link_VisitScheduleRequestsWindow_AuthenticationController"><path codeLine="91" d="M456.41,849.8883 C449.77,881.4183 441.71,919.7683 435.29,950.3183 " fill="none" id="VisitScheduleRequestsWindow-to-AuthenticationController" style="stroke:#181818;stroke-width:1.0;stroke-dasharray:7.0,7.0;"/><polygon fill="#181818" points="434.34,954.8383,440.1036,946.852,435.3672,949.9449,432.2742,945.2085,434.34,954.8383" style="stroke:#181818;stroke-width:1.0;"/></g><!--link VisitScheduleRequestsWindow to VisitScheduleController--><g id="link_VisitScheduleRequestsWindow_VisitScheduleController"><path codeLine="92" d="M578.72,849.8883 C610.64,867.3183 646.39,886.8283 681.42,905.9583 " fill="none" id="VisitScheduleRequestsWindow-to-VisitScheduleController" style="stroke:#181818;stroke-width:1.0;"/><polygon fill="#181818" points="685.71,908.2983,679.7154,900.4839,681.3178,905.909,675.8926,907.5114,685.71,908.2983" style="stroke:#181818;stroke-width:1.0;"/></g><!--reverse link Repositories to VisitScheduleController--><g id="link_Repositories_VisitScheduleController"><path codeLine="93" d="M861,844.0383 C861,863.7883 861,886.7583 861,909.0183 " fill="none" id="Repositories-backto-VisitScheduleController" style="stroke:#181818;stroke-width:1.0;"/><polygon fill="#181818" points="861,839.2583,857,848.2583,861,844.2583,865,848.2583,861,839.2583" style="stroke:#181818;stroke-width:1.0;"/></g><!--reverse link VisitScheduleRepository to Repositories--><g id="link_VisitScheduleRepository_Repositories"><path codeLine="94" d="M745.59,673.2183 C767.76,695.2683 792.17,719.5483 812.81,740.0683 " fill="none" id="VisitScheduleRepository-backto-Repositories" style="stroke:#181818;stroke-width:1.0;"/><polygon fill="#181818" points="742.26,669.9083,745.8141,679.0935,745.8027,673.4367,751.4595,673.4252,742.26,669.9083" style="stroke:#181818;stroke-width:1.0;"/></g><!--reverse link EmployeeRepository to Repositories--><g id="link_EmployeeRepository_Repositories"><path codeLine="95" d="M1001.08,649.4583 C973.82,676.4083 937.9,711.9383 909.25,740.2683 " fill="none" id="EmployeeRepository-backto-Repositories" style="stroke:#181818;stroke-width:1.0;"/><polygon fill="#181818" points="1004.3,646.2783,995.0864,649.758,1000.7431,649.7923,1000.7088,655.4491,1004.3,646.2783" style="stroke:#181818;stroke-width:1.0;"/></g><!--reverse link VisitSchedule to VisitScheduleRepository--><g id="link_VisitSchedule_VisitScheduleRepository"><path codeLine="96" d="M681,494.0483 C681,512.6683 681,530.9383 681,547.1783 " fill="none" id="VisitSchedule-backto-VisitScheduleRepository" style="stroke:#181818;stroke-width:1.0;"/><polygon fill="#181818" points="681,489.2283,677,498.2283,681,494.2283,685,498.2283,681,489.2283" style="stroke:#181818;stroke-width:1.0;"/></g><!--reverse link Employee to EmployeeRepository--><g id="link_Employee_EmployeeRepository"><path codeLine="97" d="M1042,388.1083 C1042,434.3083 1042,521.6883 1042,570.9183 " fill="none" id="Employee-backto-EmployeeRepository" style="stroke:#181818;stroke-width:1.0;"/><polygon fill="#181818" points="1042,383.3783,1038,392.3783,1042,388.3783,1046,392.3783,1042,383.3783" style="stroke:#181818;stroke-width:1.0;"/></g><!--link VisitScheduleController to EmailSender--><g id="link_VisitScheduleController_EmailSender"><path codeLine="98" d="M861,1100.8783 C861,1135.4483 861,1172.8283 861,1200.6483 " fill="none" id="VisitScheduleController-to-EmailSender" style="stroke:#181818;stroke-width:1.0;"/><polygon fill="#181818" points="861,1205.6283,865,1196.6283,861,1200.6283,857,1196.6283,861,1205.6283" style="stroke:#181818;stroke-width:1.0;"/></g><!--link EmailSender to Utils--><g id="link_EmailSender_Utils"><path codeLine="99" d="M861,1281.7083 C861,1310.6083 861,1351.1583 861,1381.6583 " fill="none" id="EmailSender-to-Utils" style="stroke:#181818;stroke-width:1.0;"/><polygon fill="#181818" points="861,1386.4983,865,1377.4983,861,1381.4983,857,1377.4983,861,1386.4983" style="stroke:#181818;stroke-width:1.0;"/></g><!--SRC=[VLN1Rjim3BthAtJSCAJeTjYX60eaJGO42BOYNjUpOh6E45do9BgRD_JVHxcM8pjsVRB8Hv6FZxJzIPbAE55gcvz0SWbFejRurHhCr5_WdwwPZn1UYVma2iYmqS0Tv2XCeI41-AEGzhSo1NyIsgSUhGnWKm6lh6x2WINEN0llbuXE7Mg4RMvDc_kQCLH8gUw2dw-LA09wmH-oZvyPQwFuWmUNWVVA6lwFSNe-5831kYc5qk_UinV6nC6Z4pc-PkBtu7mFNt0ZIk0tFAFyfkXi48B7nkfe3NohomEui-ibLh8fAsqR00v_48nCqX2am_nKNc6M7q7Mn2iMe2HTfmp6DCvMuB3PhWVcvn2x5XXgtTbSwF3U-JmAXpzKsVl2UwHYv8n7L9Jg6UIgMHPWa107QpK84_t1kfdgX92EUlxzwRuhTUntyAi6Zvq84yrQrdYaorKka9JRGsM9d7LDr53QdIsK8VdEHrjZF9F4TxLpT4EYVtGAAODrJrH6faU5nyuyKyaT3RwpMfF2KHr1WAJ0czdQvwPlGlhzQt_yepAqC94qzRIof9PTMKlBKNIeIAAk92a-zFcTEWCyITtctRSNUPZDFq7JHHuAF97S9yTq9pBAqOx_vdpgUlmwJMsUNZVbfymEoalJ9FTLapIoOvAMbkpygC5HbMHaueOEdE7UQOd6CpdEuLTDh_JIoB2EIR8nj5qnWj5NGLavqOc8NJLRcGhtW4htF7k9KyGbhwJaw1nqCiQT1Nrx19FGz8FxPR6OtuRPnRgwkfsFUcjDBWFFjxuPk5ZSpiq_6qnJ83G7d9kE43FObWavBZ337y55sgGX_MybW2wlPdDx7JYdEvgA7NpjMB7_]--></g></svg>