<?xml version="1.0" encoding="UTF-8" standalone="no"?><svg xmlns="http://www.w3.org/2000/svg" xmlns:xlink="http://www.w3.org/1999/xlink" contentStyleType="text/css" height="1523px" preserveAspectRatio="none" style="width:1133px;height:1523px;background:#FFFFFF;" version="1.1" viewBox="0 0 1133 1523" width="1133px" zoomAndPan="magnify"><defs/><g><text fill="#000000" font-family="sans-serif" font-size="14" font-weight="bold" lengthAdjust="spacing" textLength="160" x="479.5" y="23.5352">Class Diagram - US16</text><!--class UserSession--><g id="elem_UserSession"><rect codeLine="9" fill="#F1F1F1" height="73.5547" id="UserSession" rx="2.5" ry="2.5" style="stroke:#181818;stroke-width:0.5;" width="168" x="7" y="1019.9883"/><ellipse cx="31.55" cy="1036.9883" fill="#ADD1B2" rx="12" ry="12" style="stroke:#181818;stroke-width:1.0;"/><path d="M34.3566,1044.0684 Q33.673,1044.4199 32.9211,1044.5957 Q32.1691,1044.7715 31.3391,1044.7715 Q28.3898,1044.7715 26.8371,1042.8281 Q25.2844,1040.8848 25.2844,1037.2129 Q25.2844,1033.5313 26.8371,1031.5879 Q28.3898,1029.6445 31.3391,1029.6445 Q32.1691,1029.6445 32.9309,1029.8203 Q33.6926,1029.9961 34.3566,1030.3477 L34.3566,1033.5508 Q33.6145,1032.8672 32.9162,1032.5498 Q32.218,1032.2324 31.4758,1032.2324 Q29.8938,1032.2324 29.0881,1033.4873 Q28.2824,1034.7422 28.2824,1037.2129 Q28.2824,1039.6738 29.0881,1040.9287 Q29.8938,1042.1836 31.4758,1042.1836 Q32.218,1042.1836 32.9162,1041.8662 Q33.6145,1041.5488 34.3566,1040.8652 Z " fill="#000000"/><text fill="#000000" font-family="sans-serif" font-size="20" lengthAdjust="spacing" textLength="115" x="48.45" y="1044.5469">UserSession</text><line style="stroke:#181818;stroke-width:0.5;" x1="8" x2="174" y1="1053.9883" y2="1053.9883"/><line style="stroke:#181818;stroke-width:0.5;" x1="8" x2="174" y1="1061.9883" y2="1061.9883"/><text fill="#000000" font-family="sans-serif" font-size="20" lengthAdjust="spacing" textLength="156" x="13" y="1085.3242">+getUserEmail()</text></g><!--class Person--><g id="elem_Person"><rect codeLine="13" fill="#F1F1F1" height="120.6641" id="Person" rx="2.5" ry="2.5" style="stroke:#181818;stroke-width:0.5;" width="236" x="888" y="44.4883"/><ellipse cx="969.5" cy="61.4883" fill="#A9DCDF" rx="12" ry="12" style="stroke:#181818;stroke-width:1.0;"/><path d="M969.5156,56.2949 L968.1582,62.2617 L970.8828,62.2617 Z M967.7578,53.6582 L971.2832,53.6582 L975.2188,68.2383 L972.3379,68.2383 L971.4395,64.6348 L967.582,64.6348 L966.7031,68.2383 L963.8223,68.2383 Z " fill="#000000"/><text fill="#000000" font-family="sans-serif" font-size="20" font-style="italic" lengthAdjust="spacing" textLength="64" x="991.5" y="69.0469">Person</text><line style="stroke:#181818;stroke-width:0.5;" x1="889" x2="1123" y1="78.4883" y2="78.4883"/><text fill="#000000" font-family="sans-serif" font-size="20" lengthAdjust="spacing" textLength="139" x="894" y="101.8242">-name : String</text><text fill="#000000" font-family="sans-serif" font-size="20" lengthAdjust="spacing" textLength="139" x="894" y="125.3789">-email : String</text><text fill="#000000" font-family="sans-serif" font-size="20" lengthAdjust="spacing" textLength="224" x="894" y="148.9336">-phoneNumber : String</text><line style="stroke:#181818;stroke-width:0.5;" x1="889" x2="1123" y1="157.1523" y2="157.1523"/></g><!--class Employee--><g id="elem_Employee"><rect codeLine="19" fill="#F1F1F1" height="50" id="Employee" rx="2.5" ry="2.5" style="stroke:#181818;stroke-width:0.5;" width="127" x="942.5" y="332.4883"/><ellipse cx="958.5" cy="349.4883" fill="#ADD1B2" rx="12" ry="12" style="stroke:#181818;stroke-width:1.0;"/><path d="M961.3066,356.5684 Q960.623,356.9199 959.8711,357.0957 Q959.1191,357.2715 958.2891,357.2715 Q955.3398,357.2715 953.7871,355.3281 Q952.2344,353.3848 952.2344,349.7129 Q952.2344,346.0313 953.7871,344.0879 Q955.3398,342.1445 958.2891,342.1445 Q959.1191,342.1445 959.8809,342.3203 Q960.6426,342.4961 961.3066,342.8477 L961.3066,346.0508 Q960.5645,345.3672 959.8662,345.0498 Q959.168,344.7324 958.4258,344.7324 Q956.8438,344.7324 956.0381,345.9873 Q955.2324,347.2422 955.2324,349.7129 Q955.2324,352.1738 956.0381,353.4287 Q956.8438,354.6836 958.4258,354.6836 Q959.168,354.6836 959.8662,354.3662 Q960.5645,354.0488 961.3066,353.3652 Z " fill="#000000"/><text fill="#000000" font-family="sans-serif" font-size="20" lengthAdjust="spacing" textLength="93" x="973.5" y="357.0469">Employee</text><line style="stroke:#181818;stroke-width:0.5;" x1="943.5" x2="1068.5" y1="366.4883" y2="366.4883"/><line style="stroke:#181818;stroke-width:0.5;" x1="943.5" x2="1068.5" y1="374.4883" y2="374.4883"/></g><!--class VisitSchedule--><g id="elem_VisitSchedule"><rect codeLine="23" fill="#F1F1F1" height="261.9922" id="VisitSchedule" rx="2.5" ry="2.5" style="stroke:#181818;stroke-width:0.5;" width="288" x="501" y="226.4883"/><ellipse cx="576.5" cy="243.4883" fill="#ADD1B2" rx="12" ry="12" style="stroke:#181818;stroke-width:1.0;"/><path d="M579.3066,250.5684 Q578.623,250.9199 577.8711,251.0957 Q577.1191,251.2715 576.2891,251.2715 Q573.3398,251.2715 571.7871,249.3281 Q570.2344,247.3848 570.2344,243.7129 Q570.2344,240.0313 571.7871,238.0879 Q573.3398,236.1445 576.2891,236.1445 Q577.1191,236.1445 577.8809,236.3203 Q578.6426,236.4961 579.3066,236.8477 L579.3066,240.0508 Q578.5645,239.3672 577.8662,239.0498 Q577.168,238.7324 576.4258,238.7324 Q574.8438,238.7324 574.0381,239.9873 Q573.2324,241.2422 573.2324,243.7129 Q573.2324,246.1738 574.0381,247.4287 Q574.8438,248.6836 576.4258,248.6836 Q577.168,248.6836 577.8662,248.3662 Q578.5645,248.0488 579.3066,247.3652 Z " fill="#000000"/><text fill="#000000" font-family="sans-serif" font-size="20" lengthAdjust="spacing" textLength="128" x="598.5" y="251.0469">VisitSchedule</text><line style="stroke:#181818;stroke-width:0.5;" x1="502" x2="788" y1="260.4883" y2="260.4883"/><text fill="#000000" font-family="sans-serif" font-size="20" lengthAdjust="spacing" textLength="74" x="507" y="283.8242">-id : int</text><text fill="#000000" font-family="sans-serif" font-size="20" lengthAdjust="spacing" textLength="158" x="507" y="307.3789">-propertyID : int</text><text fill="#000000" font-family="sans-serif" font-size="20" lengthAdjust="spacing" textLength="207" x="507" y="330.9336">-visitDate : LocalDate</text><text fill="#000000" font-family="sans-serif" font-size="20" lengthAdjust="spacing" textLength="221" x="507" y="354.4883">-startTime : LocalTime</text><text fill="#000000" font-family="sans-serif" font-size="20" lengthAdjust="spacing" textLength="214" x="507" y="378.043">-endTime : LocalTime</text><text fill="#000000" font-family="sans-serif" font-size="20" lengthAdjust="spacing" textLength="276" x="507" y="401.5977">-approvedByAgent : boolean</text><text fill="#000000" font-family="sans-serif" font-size="20" lengthAdjust="spacing" textLength="192" x="507" y="425.1523">-agentEmail : String</text><text fill="#000000" font-family="sans-serif" font-size="20" lengthAdjust="spacing" textLength="252" x="507" y="448.707">-adressOfProperty : String</text><text fill="#000000" font-family="sans-serif" font-size="20" lengthAdjust="spacing" textLength="230" x="507" y="472.2617">-requesterEmail : String</text><line style="stroke:#181818;stroke-width:0.5;" x1="502" x2="788" y1="480.4805" y2="480.4805"/></g><!--class AuthenticationRepository--><g id="elem_AuthenticationRepository"><rect codeLine="35" fill="#F1F1F1" height="167.7734" id="AuthenticationRepository" rx="2.5" ry="2.5" style="stroke:#181818;stroke-width:0.5;" width="275" x="47.5" y="1213.4883"/><ellipse cx="63.5" cy="1230.4883" fill="#ADD1B2" rx="12" ry="12" style="stroke:#181818;stroke-width:1.0;"/><path d="M66.3066,1237.5684 Q65.623,1237.9199 64.8711,1238.0957 Q64.1191,1238.2715 63.2891,1238.2715 Q60.3398,1238.2715 58.7871,1236.3281 Q57.2344,1234.3848 57.2344,1230.7129 Q57.2344,1227.0313 58.7871,1225.0879 Q60.3398,1223.1445 63.2891,1223.1445 Q64.1191,1223.1445 64.8809,1223.3203 Q65.6426,1223.4961 66.3066,1223.8477 L66.3066,1227.0508 Q65.5645,1226.3672 64.8662,1226.0498 Q64.168,1225.7324 63.4258,1225.7324 Q61.8438,1225.7324 61.0381,1226.9873 Q60.2324,1228.2422 60.2324,1230.7129 Q60.2324,1233.1738 61.0381,1234.4287 Q61.8438,1235.6836 63.4258,1235.6836 Q64.168,1235.6836 64.8662,1235.3662 Q65.5645,1235.0488 66.3066,1234.3652 Z " fill="#000000"/><text fill="#000000" font-family="sans-serif" font-size="20" lengthAdjust="spacing" textLength="241" x="78.5" y="1238.0469">AuthenticationRepository</text><line style="stroke:#181818;stroke-width:0.5;" x1="48.5" x2="321.5" y1="1247.4883" y2="1247.4883"/><line style="stroke:#181818;stroke-width:0.5;" x1="48.5" x2="321.5" y1="1255.4883" y2="1255.4883"/><text fill="#000000" font-family="sans-serif" font-size="20" lengthAdjust="spacing" textLength="108" x="53.5" y="1278.8242">+doLogin()</text><text fill="#000000" font-family="sans-serif" font-size="20" lengthAdjust="spacing" textLength="121" x="53.5" y="1302.3789">+doLogout()</text><text fill="#000000" font-family="sans-serif" font-size="20" lengthAdjust="spacing" textLength="247" x="53.5" y="1325.9336">+getCurrentUserSession()</text><text fill="#000000" font-family="sans-serif" font-size="20" lengthAdjust="spacing" textLength="152" x="53.5" y="1349.4883">+addUserRole()</text><text fill="#000000" font-family="sans-serif" font-size="20" lengthAdjust="spacing" textLength="194" x="53.5" y="1373.043">+addUserWithRole()</text></g><!--class AuthenticationController--><g id="elem_AuthenticationController"><rect codeLine="43" fill="#F1F1F1" height="97.1094" id="AuthenticationController" rx="2.5" ry="2.5" style="stroke:#181818;stroke-width:0.5;" width="427" x="210.5" y="1008.4883"/><ellipse cx="302" cy="1025.4883" fill="#ADD1B2" rx="12" ry="12" style="stroke:#181818;stroke-width:1.0;"/><path d="M304.8066,1032.5684 Q304.123,1032.9199 303.3711,1033.0957 Q302.6191,1033.2715 301.7891,1033.2715 Q298.8398,1033.2715 297.2871,1031.3281 Q295.7344,1029.3848 295.7344,1025.7129 Q295.7344,1022.0313 297.2871,1020.0879 Q298.8398,1018.1445 301.7891,1018.1445 Q302.6191,1018.1445 303.3809,1018.3203 Q304.1426,1018.4961 304.8066,1018.8477 L304.8066,1022.0508 Q304.0645,1021.3672 303.3662,1021.0498 Q302.668,1020.7324 301.9258,1020.7324 Q300.3438,1020.7324 299.5381,1021.9873 Q298.7324,1023.2422 298.7324,1025.7129 Q298.7324,1028.1738 299.5381,1029.4287 Q300.3438,1030.6836 301.9258,1030.6836 Q302.668,1030.6836 303.3662,1030.3662 Q304.0645,1030.0488 304.8066,1029.3652 Z " fill="#000000"/><text fill="#000000" font-family="sans-serif" font-size="20" lengthAdjust="spacing" textLength="235" x="324" y="1033.0469">AuthenticationController</text><line style="stroke:#181818;stroke-width:0.5;" x1="211.5" x2="636.5" y1="1042.4883" y2="1042.4883"/><text fill="#000000" font-family="sans-serif" font-size="20" lengthAdjust="spacing" textLength="415" x="216.5" y="1065.8242">-authRepository : AuthenticationRepository</text><line style="stroke:#181818;stroke-width:0.5;" x1="211.5" x2="636.5" y1="1074.043" y2="1074.043"/><text fill="#000000" font-family="sans-serif" font-size="20" lengthAdjust="spacing" textLength="156" x="216.5" y="1097.3789">+getUserEmail()</text></g><!--class VisitScheduleRequestsWindow--><g id="elem_VisitScheduleRequestsWindow"><rect codeLine="48" fill="#F1F1F1" height="120.6641" id="VisitScheduleRequestsWindow" rx="2.5" ry="2.5" style="stroke:#181818;stroke-width:0.5;" width="324" x="329" y="779.4883"/><ellipse cx="345" cy="796.4883" fill="#ADD1B2" rx="12" ry="12" style="stroke:#181818;stroke-width:1.0;"/><path d="M347.8066,803.5684 Q347.123,803.9199 346.3711,804.0957 Q345.6191,804.2715 344.7891,804.2715 Q341.8398,804.2715 340.2871,802.3281 Q338.7344,800.3848 338.7344,796.7129 Q338.7344,793.0313 340.2871,791.0879 Q341.8398,789.1445 344.7891,789.1445 Q345.6191,789.1445 346.3809,789.3203 Q347.1426,789.4961 347.8066,789.8477 L347.8066,793.0508 Q347.0645,792.3672 346.3662,792.0498 Q345.668,791.7324 344.9258,791.7324 Q343.3438,791.7324 342.5381,792.9873 Q341.7324,794.2422 341.7324,796.7129 Q341.7324,799.1738 342.5381,800.4287 Q343.3438,801.6836 344.9258,801.6836 Q345.668,801.6836 346.3662,801.3662 Q347.0645,801.0488 347.8066,800.3652 Z " fill="#000000"/><text fill="#000000" font-family="sans-serif" font-size="20" lengthAdjust="spacing" textLength="290" x="360" y="804.0469">VisitScheduleRequestsWindow</text><line style="stroke:#181818;stroke-width:0.5;" x1="330" x2="652" y1="813.4883" y2="813.4883"/><line style="stroke:#181818;stroke-width:0.5;" x1="330" x2="652" y1="821.4883" y2="821.4883"/><text fill="#000000" font-family="sans-serif" font-size="20" lengthAdjust="spacing" textLength="289" x="335" y="844.8242">+respondToBookingRequest()</text><text fill="#000000" font-family="sans-serif" font-size="20" lengthAdjust="spacing" textLength="296" x="335" y="868.3789">+updateBookingRequestsList()</text><text fill="#000000" font-family="sans-serif" font-size="20" lengthAdjust="spacing" textLength="221" x="335" y="891.9336">+sendEmailResponse()</text></g><!--class VisitScheduleController--><g id="elem_VisitScheduleController"><rect codeLine="54" fill="#F1F1F1" height="191.3281" id="VisitScheduleController" rx="2.5" ry="2.5" style="stroke:#181818;stroke-width:0.5;" width="376" x="673" y="961.4883"/><ellipse cx="744.5" cy="978.4883" fill="#ADD1B2" rx="12" ry="12" style="stroke:#181818;stroke-width:1.0;"/><path d="M747.3066,985.5684 Q746.623,985.9199 745.8711,986.0957 Q745.1191,986.2715 744.2891,986.2715 Q741.3398,986.2715 739.7871,984.3281 Q738.2344,982.3848 738.2344,978.7129 Q738.2344,975.0313 739.7871,973.0879 Q741.3398,971.1445 744.2891,971.1445 Q745.1191,971.1445 745.8809,971.3203 Q746.6426,971.4961 747.3066,971.8477 L747.3066,975.0508 Q746.5645,974.3672 745.8662,974.0498 Q745.168,973.7324 744.4258,973.7324 Q742.8438,973.7324 742.0381,974.9873 Q741.2324,976.2422 741.2324,978.7129 Q741.2324,981.1738 742.0381,982.4287 Q742.8438,983.6836 744.4258,983.6836 Q745.168,983.6836 745.8662,983.3662 Q746.5645,983.0488 747.3066,982.3652 Z " fill="#000000"/><text fill="#000000" font-family="sans-serif" font-size="20" lengthAdjust="spacing" textLength="224" x="766.5" y="986.0469">VisitScheduleController</text><line style="stroke:#181818;stroke-width:0.5;" x1="674" x2="1048" y1="995.4883" y2="995.4883"/><text fill="#000000" font-family="sans-serif" font-size="20" lengthAdjust="spacing" textLength="263" x="679" y="1018.8242">-repositories : Repositories</text><text fill="#000000" font-family="sans-serif" font-size="20" lengthAdjust="spacing" textLength="268" x="679" y="1042.3789">-emailSender : EmailSender</text><line style="stroke:#181818;stroke-width:0.5;" x1="674" x2="1048" y1="1050.5977" y2="1050.5977"/><text fill="#000000" font-family="sans-serif" font-size="20" lengthAdjust="spacing" textLength="150" x="679" y="1073.9336">+approveVisit()</text><text fill="#000000" font-family="sans-serif" font-size="20" lengthAdjust="spacing" textLength="179" x="679" y="1097.4883">+disapproveVisit()</text><text fill="#000000" font-family="sans-serif" font-size="20" lengthAdjust="spacing" textLength="143" x="679" y="1121.043">+removeVisit()</text><text fill="#000000" font-family="sans-serif" font-size="20" lengthAdjust="spacing" textLength="364" x="679" y="1144.5977">+respondToBookingRequestByEmail()</text></g><!--class Repositories--><g id="elem_Repositories"><rect codeLine="64" fill="#F1F1F1" height="97.1094" id="Repositories" rx="2.5" ry="2.5" style="stroke:#181818;stroke-width:0.5;" width="302" x="710" y="791.4883"/><ellipse cx="797" cy="808.4883" fill="#ADD1B2" rx="12" ry="12" style="stroke:#181818;stroke-width:1.0;"/><path d="M799.8066,815.5684 Q799.123,815.9199 798.3711,816.0957 Q797.6191,816.2715 796.7891,816.2715 Q793.8398,816.2715 792.2871,814.3281 Q790.7344,812.3848 790.7344,808.7129 Q790.7344,805.0313 792.2871,803.0879 Q793.8398,801.1445 796.7891,801.1445 Q797.6191,801.1445 798.3809,801.3203 Q799.1426,801.4961 799.8066,801.8477 L799.8066,805.0508 Q799.0645,804.3672 798.3662,804.0498 Q797.668,803.7324 796.9258,803.7324 Q795.3438,803.7324 794.5381,804.9873 Q793.7324,806.2422 793.7324,808.7129 Q793.7324,811.1738 794.5381,812.4287 Q795.3438,813.6836 796.9258,813.6836 Q797.668,813.6836 798.3662,813.3662 Q799.0645,813.0488 799.8066,812.3652 Z " fill="#000000"/><text fill="#000000" font-family="sans-serif" font-size="20" lengthAdjust="spacing" textLength="119" x="819" y="816.0469">Repositories</text><line style="stroke:#181818;stroke-width:0.5;" x1="711" x2="1011" y1="825.4883" y2="825.4883"/><line style="stroke:#181818;stroke-width:0.5;" x1="711" x2="1011" y1="833.4883" y2="833.4883"/><text fill="#000000" font-family="sans-serif" font-size="20" lengthAdjust="spacing" textLength="290" x="716" y="856.8242">+getVisitScheduleRepository()</text><text fill="#000000" font-family="sans-serif" font-size="20" lengthAdjust="spacing" textLength="255" x="716" y="880.3789">+getEmployeeRepository()</text></g><!--class VisitScheduleRepository--><g id="elem_VisitScheduleRepository"><rect codeLine="71" fill="#F1F1F1" height="120.6641" id="VisitScheduleRepository" rx="2.5" ry="2.5" style="stroke:#181818;stroke-width:0.5;" width="411" x="439.5" y="573.4883"/><ellipse cx="525.5" cy="590.4883" fill="#ADD1B2" rx="12" ry="12" style="stroke:#181818;stroke-width:1.0;"/><path d="M528.3066,597.5684 Q527.623,597.9199 526.8711,598.0957 Q526.1191,598.2715 525.2891,598.2715 Q522.3398,598.2715 520.7871,596.3281 Q519.2344,594.3848 519.2344,590.7129 Q519.2344,587.0313 520.7871,585.0879 Q522.3398,583.1445 525.2891,583.1445 Q526.1191,583.1445 526.8809,583.3203 Q527.6426,583.4961 528.3066,583.8477 L528.3066,587.0508 Q527.5645,586.3672 526.8662,586.0498 Q526.168,585.7324 525.4258,585.7324 Q523.8438,585.7324 523.0381,586.9873 Q522.2324,588.2422 522.2324,590.7129 Q522.2324,593.1738 523.0381,594.4287 Q523.8438,595.6836 525.4258,595.6836 Q526.168,595.6836 526.8662,595.3662 Q527.5645,595.0488 528.3066,594.3652 Z " fill="#000000"/><text fill="#000000" font-family="sans-serif" font-size="20" lengthAdjust="spacing" textLength="230" x="547.5" y="598.0469">VisitScheduleRepository</text><line style="stroke:#181818;stroke-width:0.5;" x1="440.5" x2="849.5" y1="607.4883" y2="607.4883"/><line style="stroke:#181818;stroke-width:0.5;" x1="440.5" x2="849.5" y1="615.4883" y2="615.4883"/><text fill="#000000" font-family="sans-serif" font-size="20" lengthAdjust="spacing" textLength="399" x="445.5" y="638.8242">+getVisitSchedulesByUserEmailAndDate()</text><text fill="#000000" font-family="sans-serif" font-size="20" lengthAdjust="spacing" textLength="376" x="445.5" y="662.3789">+getVisitSchedulesByAgentAndPeriod()</text><text fill="#000000" font-family="sans-serif" font-size="20" lengthAdjust="spacing" textLength="270" x="445.5" y="685.9336">+removeVisitScheduleById()</text></g><!--class Utils--><g id="elem_Utils"><rect codeLine="77" fill="#F1F1F1" height="73.5547" id="Utils" rx="2.5" ry="2.5" style="stroke:#181818;stroke-width:0.5;" width="141" x="790.5" y="1442.4883"/><ellipse cx="835.3" cy="1459.4883" fill="#ADD1B2" rx="12" ry="12" style="stroke:#181818;stroke-width:1.0;"/><path d="M838.1066,1466.5684 Q837.423,1466.9199 836.6711,1467.0957 Q835.9191,1467.2715 835.0891,1467.2715 Q832.1398,1467.2715 830.5871,1465.3281 Q829.0344,1463.3848 829.0344,1459.7129 Q829.0344,1456.0313 830.5871,1454.0879 Q832.1398,1452.1445 835.0891,1452.1445 Q835.9191,1452.1445 836.6809,1452.3203 Q837.4426,1452.4961 838.1066,1452.8477 L838.1066,1456.0508 Q837.3645,1455.3672 836.6662,1455.0498 Q835.968,1454.7324 835.2258,1454.7324 Q833.6438,1454.7324 832.8381,1455.9873 Q832.0324,1457.2422 832.0324,1459.7129 Q832.0324,1462.1738 832.8381,1463.4287 Q833.6438,1464.6836 835.2258,1464.6836 Q835.968,1464.6836 836.6662,1464.3662 Q837.3645,1464.0488 838.1066,1463.3652 Z " fill="#000000"/><text fill="#000000" font-family="sans-serif" font-size="20" lengthAdjust="spacing" textLength="43" x="856.7" y="1467.0469">Utils</text><line style="stroke:#181818;stroke-width:0.5;" x1="791.5" x2="930.5" y1="1476.4883" y2="1476.4883"/><line style="stroke:#181818;stroke-width:0.5;" x1="791.5" x2="930.5" y1="1484.4883" y2="1484.4883"/><text fill="#000000" font-family="sans-serif" font-size="20" lengthAdjust="spacing" textLength="129" x="796.5" y="1507.8242">+sendEmail()</text></g><!--class EmployeeRepository--><g id="elem_EmployeeRepository"><rect codeLine="81" fill="#F1F1F1" height="73.5547" id="EmployeeRepository" rx="2.5" ry="2.5" style="stroke:#181818;stroke-width:0.5;" width="240" x="886" y="596.9883"/><ellipse cx="906.95" cy="613.9883" fill="#ADD1B2" rx="12" ry="12" style="stroke:#181818;stroke-width:1.0;"/><path d="M909.7566,621.0684 Q909.073,621.4199 908.3211,621.5957 Q907.5691,621.7715 906.7391,621.7715 Q903.7898,621.7715 902.2371,619.8281 Q900.6844,617.8848 900.6844,614.2129 Q900.6844,610.5313 902.2371,608.5879 Q903.7898,606.6445 906.7391,606.6445 Q907.5691,606.6445 908.3309,606.8203 Q909.0926,606.9961 909.7566,607.3477 L909.7566,610.5508 Q909.0145,609.8672 908.3162,609.5498 Q907.618,609.2324 906.8758,609.2324 Q905.2938,609.2324 904.4881,610.4873 Q903.6824,611.7422 903.6824,614.2129 Q903.6824,616.6738 904.4881,617.9287 Q905.2938,619.1836 906.8758,619.1836 Q907.618,619.1836 908.3162,618.8662 Q909.0145,618.5488 909.7566,617.8652 Z " fill="#000000"/><text fill="#000000" font-family="sans-serif" font-size="20" lengthAdjust="spacing" textLength="195" x="923.05" y="621.5469">EmployeeRepository</text><line style="stroke:#181818;stroke-width:0.5;" x1="887" x2="1125" y1="630.9883" y2="630.9883"/><line style="stroke:#181818;stroke-width:0.5;" x1="887" x2="1125" y1="638.9883" y2="638.9883"/><text fill="#000000" font-family="sans-serif" font-size="20" lengthAdjust="spacing" textLength="228" x="892" y="662.3242">+getEmployeeByEmail()</text></g><!--class EmailSender--><g id="elem_EmailSender"><rect codeLine="85" fill="#F1F1F1" height="73.5547" id="EmailSender" rx="2.5" ry="2.5" style="stroke:#181818;stroke-width:0.5;" width="354" x="684" y="1260.4883"/><ellipse cx="797" cy="1277.4883" fill="#ADD1B2" rx="12" ry="12" style="stroke:#181818;stroke-width:1.0;"/><path d="M799.8066,1284.5684 Q799.123,1284.9199 798.3711,1285.0957 Q797.6191,1285.2715 796.7891,1285.2715 Q793.8398,1285.2715 792.2871,1283.3281 Q790.7344,1281.3848 790.7344,1277.7129 Q790.7344,1274.0313 792.2871,1272.0879 Q793.8398,1270.1445 796.7891,1270.1445 Q797.6191,1270.1445 798.3809,1270.3203 Q799.1426,1270.4961 799.8066,1270.8477 L799.8066,1274.0508 Q799.0645,1273.3672 798.3662,1273.0498 Q797.668,1272.7324 796.9258,1272.7324 Q795.3438,1272.7324 794.5381,1273.9873 Q793.7324,1275.2422 793.7324,1277.7129 Q793.7324,1280.1738 794.5381,1281.4287 Q795.3438,1282.6836 796.9258,1282.6836 Q797.668,1282.6836 798.3662,1282.3662 Q799.0645,1282.0488 799.8066,1281.3652 Z " fill="#000000"/><text fill="#000000" font-family="sans-serif" font-size="20" lengthAdjust="spacing" textLength="119" x="819" y="1285.0469">EmailSender</text><line style="stroke:#181818;stroke-width:0.5;" x1="685" x2="1037" y1="1294.4883" y2="1294.4883"/><line style="stroke:#181818;stroke-width:0.5;" x1="685" x2="1037" y1="1302.4883" y2="1302.4883"/><text fill="#000000" font-family="sans-serif" font-size="20" lengthAdjust="spacing" textLength="342" x="690" y="1325.8242">+respondToBookingRequestEmail()</text></g><!--reverse link Person to Employee--><g id="link_Person_Employee"><path d="M1006,187.1783 C1006,237.5083 1006,298.7183 1006,332.0183 " fill="none" id="Person-backto-Employee" style="stroke:#181818;stroke-width:1.0;"/><polygon fill="none" points="999,187.1883,1006,167.1883,1013,187.1883,999,187.1883" style="stroke:#181818;stroke-width:1.0;"/></g><!--reverse link UserSession to AuthenticationRepository--><g id="link_UserSession_AuthenticationRepository"><path codeLine="89" d="M107.62,1100.1483 C119.92,1131.3583 137.08,1174.8983 152.11,1213.0383 " fill="none" id="UserSession-backto-AuthenticationRepository" style="stroke:#181818;stroke-width:1.0;stroke-dasharray:7.0,7.0;"/><polygon fill="#181818" points="105.93,1095.8783,105.496,1105.7176,107.7574,1100.5324,112.9426,1102.7938,105.93,1095.8783" style="stroke:#181818;stroke-width:1.0;"/></g><!--link AuthenticationController to AuthenticationRepository--><g id="link_AuthenticationController_AuthenticationRepository"><path codeLine="90" d="M375.92,1105.9683 C346.32,1135.5083 307.48,1174.2683 272.56,1209.1083 " fill="none" id="AuthenticationController-to-AuthenticationRepository" style="stroke:#181818;stroke-width:1.0;stroke-dasharray:7.0,7.0;"/><polygon fill="#181818" points="269.4,1212.2683,278.5924,1208.7327,272.9355,1208.7327,272.9355,1203.0759,269.4,1212.2683" style="stroke:#181818;stroke-width:1.0;"/></g><!--link VisitScheduleRequestsWindow to AuthenticationController--><g id="link_VisitScheduleRequestsWindow_AuthenticationController"><path codeLine="91" d="M472.34,900.8783 C462.43,932.6783 450.35,971.4483 440.74,1002.2683 " fill="none" id="VisitScheduleRequestsWindow-to-AuthenticationController" style="stroke:#181818;stroke-width:1.0;stroke-dasharray:7.0,7.0;"/><polygon fill="#181818" points="439.3,1006.8783,445.7948,999.4744,440.7865,1002.1044,438.1565,997.096,439.3,1006.8783" style="stroke:#181818;stroke-width:1.0;"/></g><!--link VisitScheduleRequestsWindow to VisitScheduleController--><g id="link_VisitScheduleRequestsWindow_VisitScheduleController"><path codeLine="92" d="M594.07,900.8783 C624.61,918.6283 658.89,938.5483 692.45,958.0483 " fill="none" id="VisitScheduleRequestsWindow-to-VisitScheduleController" style="stroke:#181818;stroke-width:1.0;stroke-dasharray:7.0,7.0;"/><polygon fill="#181818" points="696.52,960.4083,690.7384,952.435,692.1938,957.9014,686.7274,959.3568,696.52,960.4083" style="stroke:#181818;stroke-width:1.0;"/></g><!--reverse link Repositories to VisitScheduleController--><g id="link_Repositories_VisitScheduleController"><path codeLine="93" d="M861,895.3283 C861,915.2983 861,938.5283 861,961.0183 " fill="none" id="Repositories-backto-VisitScheduleController" style="stroke:#181818;stroke-width:1.0;stroke-dasharray:7.0,7.0;"/><polygon fill="#181818" points="861,890.4883,857,899.4883,861,895.4883,865,899.4883,861,890.4883" style="stroke:#181818;stroke-width:1.0;"/></g><!--reverse link VisitScheduleRepository to Repositories--><g id="link_VisitScheduleRepository_Repositories"><path codeLine="94" d="M712.96,699.1683 C744.48,728.9383 781.3,763.7183 810.33,791.1383 " fill="none" id="VisitScheduleRepository-backto-Repositories" style="stroke:#181818;stroke-width:1.0;"/><polygon fill="#181818" points="709.45,695.8583,713.2445,704.9468,713.0843,699.2922,718.7389,699.132,709.45,695.8583" style="stroke:#181818;stroke-width:1.0;"/><text fill="#000000" font-family="sans-serif" font-size="20" lengthAdjust="spacing" textLength="33" x="767" y="744.8242">has</text></g><!--reverse link EmployeeRepository to Repositories--><g id="link_EmployeeRepository_Repositories"><path codeLine="95" d="M976.37,676.6783 C952.72,709.9483 919.58,756.5683 894.89,791.3083 " fill="none" id="EmployeeRepository-backto-Repositories" style="stroke:#181818;stroke-width:1.0;"/><polygon fill="#181818" points="979.2,672.6883,970.7323,677.718,976.3087,676.7676,977.2591,682.344,979.2,672.6883" style="stroke:#181818;stroke-width:1.0;"/><text fill="#000000" font-family="sans-serif" font-size="20" lengthAdjust="spacing" textLength="33" x="943" y="744.8242">has</text></g><!--reverse link VisitSchedule to VisitScheduleRepository--><g id="link_VisitSchedule_VisitScheduleRepository"><path codeLine="96" d="M645,495.1283 C645,522.5483 645,549.9983 645,573.1083 " fill="none" id="VisitSchedule-backto-VisitScheduleRepository" style="stroke:#181818;stroke-width:1.0;"/><polygon fill="#181818" points="645,490.4183,641,499.4183,645,495.4183,649,499.4183,645,490.4183" style="stroke:#181818;stroke-width:1.0;"/><text fill="#000000" font-family="sans-serif" font-size="20" lengthAdjust="spacing" textLength="33" x="646" y="538.8242">has</text></g><!--reverse link Employee to EmployeeRepository--><g id="link_Employee_EmployeeRepository"><path codeLine="97" d="M1006,389.0983 C1006,440.0883 1006,542.1483 1006,596.6783 " fill="none" id="Employee-backto-EmployeeRepository" style="stroke:#181818;stroke-width:1.0;"/><polygon fill="#181818" points="1006,384.3583,1002,393.3583,1006,389.3583,1010,393.3583,1006,384.3583" style="stroke:#181818;stroke-width:1.0;"/><text fill="#000000" font-family="sans-serif" font-size="20" lengthAdjust="spacing" textLength="33" x="1007" y="538.8242">has</text></g><!--link VisitScheduleController to EmailSender--><g id="link_VisitScheduleController_EmailSender"><path codeLine="98" d="M861,1152.9383 C861,1187.9583 861,1225.8983 861,1253.9783 " fill="none" id="VisitScheduleController-to-EmailSender" style="stroke:#181818;stroke-width:1.0;stroke-dasharray:7.0,7.0;"/><polygon fill="#181818" points="861,1258.6583,865,1249.6583,861,1253.6583,857,1249.6583,861,1258.6583" style="stroke:#181818;stroke-width:1.0;"/></g><!--link EmailSender to Utils--><g id="link_EmailSender_Utils"><path codeLine="99" d="M861,1334.9183 C861,1364.0683 861,1405.0183 861,1435.7283 " fill="none" id="EmailSender-to-Utils" style="stroke:#181818;stroke-width:1.0;stroke-dasharray:7.0,7.0;"/><polygon fill="#181818" points="861,1440.5983,865,1431.5983,861,1435.5983,857,1431.5983,861,1440.5983" style="stroke:#181818;stroke-width:1.0;"/></g><!--SRC=[XLN1Rjim3BthAtJSC2JeTjYXA0OaRGOKABOYNjUpOh6EK5do9BgRD_JVHxbM8ZjMcrD4FlAHV6JY7vLfX1ErjkKZI2xXGRGQlrg3XVeB_DCPyn726r4-YWeAx3Hm1oKAKsb807ulfFsjJCKVXFQfHoi3s3N06wkxy629izJ2-nMYKxiMuRgqfkS-OmmL4jLbyFCh9Qg0Nl2xukDdnleeVkV15U2zieR_Ovm-7oh0ODtKGkbtxzapOsBdqOaINvZuBJX_W2-u4JNmSruGlwa66uJWgR7PMmFVsde7xkXwZfLiwaRR3e337mGZ4ng239YVoYiioZt8blgA1IX9wPJ1IEDi0mwxwwkH-Id4NWaCjTxOKkZmVV1v50v_gFhW2zzZAqPcFA8XgYUGwsvLWK52xApL84pq1-jcRX92EfhvzuVReTIfty6l5ZmE8imCQzNYdfAhKY0fjuN6KdFMTL53QMzifGp9TtpQ5kER9BvidQCCYVxHAQGCrYsrCZ7TAzmFvambbxJupcfD2aTr106I0i-pjUUsRqRwxSjy_BqoT32nQPffOqajkxQMZgCQKB69jf6a-DZdRzGHu4dgddVR9_AGvPzfqyK-57XgSfiyqvieYADV_ytnDSpuPPjwdeDkoi-P7TIdfjdUrrqooA6JjBJavYS3ZgeaAnClTEGCUUSbckxabCElkuFIAoF3EIPaKsX_OWIZNmLbvSma8dRTNSjKk3jK-j3dGU8KSTfNKd9qZYOPuuw2lhw2IMZwWtknNEQl8NjOo-MNVDHhPt8QUCpwPc1c_zbecq93EM1kEouMY_5AdlEzy6n6b0no_ASGG3cgSUOUEaCpatKo_VHsqoK8ldxTs7y0]--></g></svg>