<?xml version="1.0" encoding="UTF-8" standalone="no"?><svg xmlns="http://www.w3.org/2000/svg" xmlns:xlink="http://www.w3.org/1999/xlink" contentStyleType="text/css" height="1055px" preserveAspectRatio="none" style="width:790px;height:1055px;background:#FFFFFF;" version="1.1" viewBox="0 0 790 1055" width="790px" zoomAndPan="magnify"><defs/><g><text fill="#000000" font-family="sans-serif" font-size="14" font-weight="bold" lengthAdjust="spacing" textLength="105" x="335.5" y="23.5352">Domain Model</text><!--class StoreManager--><g id="elem_StoreManager"><rect codeLine="14" fill="#F1F1F1" height="41.5547" id="StoreManager" rx="2.5" ry="2.5" style="stroke:#181818;stroke-width:0.5;" width="137" x="188.5" y="367.4883"/><text fill="#000000" font-family="sans-serif" font-size="20" lengthAdjust="spacing" textLength="131" x="191.5" y="391.8242">StoreManager</text><line style="stroke:#181818;stroke-width:0.5;" x1="189.5" x2="324.5" y1="401.043" y2="401.043"/></g><!--class Employee--><g id="elem_Employee"><rect codeLine="18" fill="#F1F1F1" height="41.5547" id="Employee" rx="2.5" ry="2.5" style="stroke:#181818;stroke-width:0.5;" width="99" x="207.5" y="264.4883"/><text fill="#000000" font-family="sans-serif" font-size="20" lengthAdjust="spacing" textLength="93" x="210.5" y="288.8242">Employee</text><line style="stroke:#181818;stroke-width:0.5;" x1="208.5" x2="305.5" y1="298.043" y2="298.043"/></g><!--class Person--><g id="elem_Person"><rect codeLine="36" fill="#F1F1F1" height="159.3281" id="Person" rx="2.5" ry="2.5" style="stroke:#181818;stroke-width:0.5;" width="220" x="563" y="44.4883"/><text fill="#000000" font-family="sans-serif" font-size="20" lengthAdjust="spacing" textLength="64" x="641" y="68.8242">Person</text><line style="stroke:#181818;stroke-width:0.5;" x1="564" x2="782" y1="78.043" y2="78.043"/><text fill="#000000" font-family="sans-serif" font-size="20" lengthAdjust="spacing" textLength="53" x="569" y="101.3789">name</text><text fill="#000000" font-family="sans-serif" font-size="20" lengthAdjust="spacing" textLength="53" x="569" y="124.9336">email</text><text fill="#000000" font-family="sans-serif" font-size="20" lengthAdjust="spacing" textLength="208" x="569" y="148.4883">passportCardNumber</text><text fill="#000000" font-family="sans-serif" font-size="20" lengthAdjust="spacing" textLength="108" x="569" y="172.043">taxNumber</text><text fill="#000000" font-family="sans-serif" font-size="20" lengthAdjust="spacing" textLength="173" x="569" y="195.5977">telephoneNumber</text></g><!--class Owner--><g id="elem_Owner"><rect codeLine="22" fill="#F1F1F1" height="41.5547" id="Owner" rx="2.5" ry="2.5" style="stroke:#181818;stroke-width:0.5;" width="68" x="498" y="785.4883"/><text fill="#000000" font-family="sans-serif" font-size="20" lengthAdjust="spacing" textLength="62" x="501" y="809.8242">Owner</text><line style="stroke:#181818;stroke-width:0.5;" x1="499" x2="565" y1="819.043" y2="819.043"/></g><!--class Client--><g id="elem_Client"><rect codeLine="24" fill="#F1F1F1" height="41.5547" id="Client" rx="2.5" ry="2.5" style="stroke:#181818;stroke-width:0.5;" width="62" x="657" y="785.4883"/><text fill="#000000" font-family="sans-serif" font-size="20" lengthAdjust="spacing" textLength="56" x="660" y="809.8242">Client</text><line style="stroke:#181818;stroke-width:0.5;" x1="658" x2="718" y1="819.043" y2="819.043"/></g><!--class Agency--><g id="elem_Agency"><rect codeLine="26" fill="#F1F1F1" height="135.7734" id="Agency" rx="2.5" ry="2.5" style="stroke:#181818;stroke-width:0.5;" width="150" x="58" y="912.4883"/><text fill="#000000" font-family="sans-serif" font-size="20" lengthAdjust="spacing" textLength="69" x="98.5" y="936.8242">Agency</text><line style="stroke:#181818;stroke-width:0.5;" x1="59" x2="207" y1="946.043" y2="946.043"/><text fill="#000000" font-family="sans-serif" font-size="20" lengthAdjust="spacing" textLength="21" x="64" y="969.3789">ID</text><text fill="#000000" font-family="sans-serif" font-size="20" lengthAdjust="spacing" textLength="53" x="64" y="992.9336">name</text><text fill="#000000" font-family="sans-serif" font-size="20" lengthAdjust="spacing" textLength="53" x="64" y="1016.4883">email</text><text fill="#000000" font-family="sans-serif" font-size="20" lengthAdjust="spacing" textLength="138" x="64" y="1040.043">phoneNumber</text></g><!--class Agent--><g id="elem_Agent"><rect codeLine="33" fill="#F1F1F1" height="41.5547" id="Agent" rx="2.5" ry="2.5" style="stroke:#181818;stroke-width:0.5;" width="62" x="7" y="785.4883"/><text fill="#000000" font-family="sans-serif" font-size="20" lengthAdjust="spacing" textLength="56" x="10" y="809.8242">Agent</text><line style="stroke:#181818;stroke-width:0.5;" x1="8" x2="68" y1="819.043" y2="819.043"/></g><!--class Deal--><g id="elem_Deal"><rect codeLine="44" fill="#F1F1F1" height="206.4375" id="Deal" rx="2.5" ry="2.5" style="stroke:#181818;stroke-width:0.5;" width="248" x="133" y="494.4883"/><text fill="#000000" font-family="sans-serif" font-size="20" lengthAdjust="spacing" textLength="43" x="235.5" y="518.8242">Deal</text><line style="stroke:#181818;stroke-width:0.5;" x1="134" x2="380" y1="528.043" y2="528.043"/><text fill="#000000" font-family="sans-serif" font-size="20" lengthAdjust="spacing" textLength="46" x="139" y="551.3789">Price</text><text fill="#000000" font-family="sans-serif" font-size="20" lengthAdjust="spacing" textLength="147" x="139" y="574.9336">RequestedPrice</text><text fill="#000000" font-family="sans-serif" font-size="20" lengthAdjust="spacing" textLength="44" x="139" y="598.4883">Area</text><text fill="#000000" font-family="sans-serif" font-size="20" lengthAdjust="spacing" textLength="193" x="139" y="622.043">distanceFromCenter</text><text fill="#000000" font-family="sans-serif" font-size="20" lengthAdjust="spacing" textLength="195" x="139" y="645.5977">numberOfBedrooms</text><text fill="#000000" font-family="sans-serif" font-size="20" lengthAdjust="spacing" textLength="201" x="139" y="669.1523">numberOfBathrooms</text><text fill="#000000" font-family="sans-serif" font-size="20" lengthAdjust="spacing" textLength="236" x="139" y="692.707">numberOfParkingSpaces</text></g><!--reverse link Employee to StoreManager--><g id="link_Employee_StoreManager"><path d="M257,328.0583 C257,341.5183 257,355.8583 257,367.0783 " fill="none" id="Employee-backto-StoreManager" style="stroke:#181818;stroke-width:1.0;"/><polygon fill="none" points="250,328.4383,257,308.4383,264,328.4383,250,328.4383" style="stroke:#181818;stroke-width:1.0;"/></g><!--reverse link Person to Employee--><g id="link_Person_Employee"><path d="M542.69,174.9483 C462.68,205.6283 364.77,243.1683 306.83,265.3883 " fill="none" id="Person-backto-Employee" style="stroke:#181818;stroke-width:1.0;"/><polygon fill="none" points="540.02,168.4783,561.2,167.8583,545.03,181.5483,540.02,168.4783" style="stroke:#181818;stroke-width:1.0;"/></g><!--reverse link Person to Owner--><g id="link_Person_Owner"><path d="M673,225.0483 C673,244.7583 673,265.2683 673,284.4883 C673,284.4883 673,284.4883 673,598.4883 C673,668.9483 693.98,699.6583 651,755.4883 C630.63,781.9483 593.66,794.5383 566.31,800.4483 " fill="none" id="Person-backto-Owner" style="stroke:#181818;stroke-width:1.0;"/><polygon fill="none" points="666,225.1983,673,205.1983,680,225.1983,666,225.1983" style="stroke:#181818;stroke-width:1.0;"/></g><!--reverse link Person to Client--><g id="link_Person_Client"><path d="M731.78,223.7583 C739.06,243.2483 744,264.0183 744,284.4883 C744,284.4883 744,284.4883 744,598.4883 C744,669.0383 713.31,748.5683 697.37,785.1183 " fill="none" id="Person-backto-Client" style="stroke:#181818;stroke-width:1.0;"/><polygon fill="none" points="725.35,226.5283,724.05,205.3783,738.26,221.0983,725.35,226.5283" style="stroke:#181818;stroke-width:1.0;"/></g><!--reverse link Employee to Agent--><g id="link_Employee_Agent"><path d="M214.06,320.7283 C199.09,334.1683 183.04,350.4483 171,367.4883 C135.38,417.8783 27.67,695.7083 21,730.4883 C17.43,749.1083 23.05,770.1483 28.76,785.1883 " fill="none" id="Employee-backto-Agent" style="stroke:#181818;stroke-width:1.0;"/><polygon fill="none" points="209.35,315.5483,229.09,307.8483,218.46,326.1783,209.35,315.5483" style="stroke:#181818;stroke-width:1.0;"/></g><!--link StoreManager to Deal--><g id="link_StoreManager_Deal"><path codeLine="54" d="M257,409.7083 C257,429.7583 257,462.0283 257,494.1483 " fill="none" id="StoreManager-Deal" style="stroke:#181818;stroke-width:1.0;"/><polygon fill="#000000" points="265,460.2656,269.7023,445.7935,260.2977,445.7935,265,460.2656" style="stroke:#000000;stroke-width:1.0;"/><text fill="#000000" font-family="sans-serif" font-size="20" lengthAdjust="spacing" textLength="81" x="278" y="459.8242">analyses</text><text fill="#000000" font-family="sans-serif" font-size="20" lengthAdjust="spacing" textLength="13" x="242.5781" y="436.3111">1</text><text fill="#000000" font-family="sans-serif" font-size="20" lengthAdjust="spacing" textLength="10" x="246.6484" y="482.4137">*</text></g><!--link Agent to Agency--><g id="link_Agent_Agency"><path codeLine="55" d="M49.27,827.8983 C60.77,848.7183 79.25,882.1683 95.92,912.3583 " fill="none" id="Agent-Agency" style="stroke:#181818;stroke-width:1.0;"/><polygon fill="#000000" points="81.1321,863.2628,84.013,878.2045,92.2453,873.6575,81.1321,863.2628" style="stroke:#000000;stroke-width:1.0;"/><text fill="#000000" font-family="sans-serif" font-size="20" lengthAdjust="spacing" textLength="33" x="98" y="877.8242">has</text><text fill="#000000" font-family="sans-serif" font-size="20" lengthAdjust="spacing" textLength="10" x="40.6416" y="854.5427">*</text><text fill="#000000" font-family="sans-serif" font-size="20" lengthAdjust="spacing" textLength="13" x="78.1534" y="900.0274">1</text></g><!--link Deal to Agent--><g id="link_Deal_Agent"><path codeLine="56" d="M132.52,643.6183 C94.35,663.9983 56.73,692.2883 35,730.4883 C25.59,747.0283 27.89,769.0983 31.6,785.0083 " fill="none" id="Deal-Agent" style="stroke:#181818;stroke-width:1.0;"/><polygon fill="#000000" points="47.6477,736.7542,35.4126,745.8017,43.0673,751.2653,47.6477,736.7542" style="stroke:#000000;stroke-width:1.0;"/><text fill="#000000" font-family="sans-serif" font-size="20" lengthAdjust="spacing" textLength="145" x="56" y="750.8242">responsible for</text><text fill="#000000" font-family="sans-serif" font-size="20" lengthAdjust="spacing" textLength="13" x="111.9477" y="641.9597">1</text><text fill="#000000" font-family="sans-serif" font-size="20" lengthAdjust="spacing" textLength="13" x="15.4556" y="773.4272">1</text></g><!--link Deal to Client--><g id="link_Deal_Client"><path codeLine="57" d="M381.16,668.0083 C434.29,696.6183 497.45,729.1483 556,755.4883 C589.75,770.6683 629.61,785.3383 656.63,794.8183 " fill="none" id="Deal-Client" style="stroke:#181818;stroke-width:1.0;"/><polygon fill="#000000" points="556.733,739.9203,567.9128,750.2434,571.8454,741.7006,556.733,739.9203" style="stroke:#000000;stroke-width:1.0;"/><text fill="#000000" font-family="sans-serif" font-size="20" lengthAdjust="spacing" textLength="140" x="577" y="750.8242">participated in</text><text fill="#000000" font-family="sans-serif" font-size="20" lengthAdjust="spacing" textLength="13" x="389.1221" y="667.9443">1</text><text fill="#000000" font-family="sans-serif" font-size="20" lengthAdjust="spacing" textLength="13" x="635.8193" y="786.4785">1</text></g><!--link Deal to Agency--><g id="link_Deal_Agency"><path codeLine="58" d="M223.82,700.6783 C217.89,718.9383 211.76,737.7783 206,755.4883 C188.85,808.1883 169.41,867.8583 154.9,912.3483 " fill="none" id="Deal-Agency" style="stroke:#181818;stroke-width:1.0;"/><polygon fill="#000000" points="202.5232,814.3726,211.475,802.0673,202.5326,799.1557,202.5232,814.3726" style="stroke:#000000;stroke-width:1.0;"/><text fill="#000000" font-family="sans-serif" font-size="20" lengthAdjust="spacing" textLength="101" x="218" y="814.3242">belongs to</text><text fill="#000000" font-family="sans-serif" font-size="20" lengthAdjust="spacing" textLength="10" x="211.1355" y="728.0825">*</text><text fill="#000000" font-family="sans-serif" font-size="20" lengthAdjust="spacing" textLength="13" x="143.4881" y="900.5116">1</text></g><!--link Deal to Owner--><g id="link_Deal_Owner"><path codeLine="59" d="M256.02,700.6183 C260.41,720.9483 268.6,740.5883 283,755.4883 C312.26,785.7683 436.47,798.6983 497.65,803.3083 " fill="none" id="Deal-Owner" style="stroke:#181818;stroke-width:1.0;"/><polygon fill="#000000" points="283.6373,740.1366,295.1173,750.1248,298.7957,741.4694,283.6373,740.1366" style="stroke:#000000;stroke-width:1.0;"/><text fill="#000000" font-family="sans-serif" font-size="20" lengthAdjust="spacing" textLength="140" x="304" y="750.8242">participated in</text><text fill="#000000" font-family="sans-serif" font-size="20" lengthAdjust="spacing" textLength="13" x="242.4707" y="728.3767">1</text><text fill="#000000" font-family="sans-serif" font-size="20" lengthAdjust="spacing" textLength="13" x="477.1183" y="797.0298">1</text></g><!--SRC=[TLB1Rjim3BthAuXS1WmeqErO30MoP0Lww1eiNy18Z2r45Zs9HfiL-_VHifqvgEkBARx7fmVgvPEFBIPi0jiJEN1qn2x80qVP-py4NszDdYZGS6HR9su897KqGrgq9wneB-T0aCWAnYhC2Rb6noy-Ld34aCcOJu6E0iAGV5KBEDzFUOvcDcG3vhmMIVxG2JrQZiNJhJ6rTmJM9wkNbBeXgTbbOyIBMjXoWpx24piAnXGTs0idUiAeFXFGgr1q6NuqRU0pqPinVoVYrBkGTfGonpdb-INEH4RyWcw2foWVmkkAeZs_6T3lSLj-4Hig1QdlKAgsvaW_k-P0oLoDoeBv2s6o-f6eSbfEii7aHks-BVWwFr6WnTktX66GtYLl1-rVzBkZBEJ-jzQ9i1JEPms2fGUDp4QDZ_gno3uVlvDBp4s-RgBKxxixJ9gAQgyvezmRkdhCrPSLtDp0wlEgM8GxK22SCsMuDyFAUgodA7DOlv9gpF3Db8b9OOH5qKIwgPZzGUDqvBJ079_vJhUQn5lVegu1D7OJTU7E0mMELUw3V_zES4ZLaju_]--></g></svg>