<?xml version="1.0" encoding="UTF-8" standalone="no"?><svg xmlns="http://www.w3.org/2000/svg" xmlns:xlink="http://www.w3.org/1999/xlink" contentStyleType="text/css" height="581px" preserveAspectRatio="none" style="width:1011px;height:581px;background:#FFFFFF;" version="1.1" viewBox="0 0 1011 581" width="1011px" zoomAndPan="magnify"><defs/><g><text fill="#000000" font-family="sans-serif" font-size="14" font-weight="bold" lengthAdjust="spacing" textLength="363" x="323" y="28.5352">System Sequence Diagram (SSD) - Alternative One</text><rect fill="#FFFFFF" height="37.5547" style="stroke:#181818;stroke-width:1.0;" width="10" x="34" y="203.1523"/><rect fill="#FFFFFF" height="37.5547" style="stroke:#181818;stroke-width:1.0;" width="10" x="34" y="278.2617"/><rect fill="#FFFFFF" height="348.5469" style="stroke:#181818;stroke-width:1.0;" width="10" x="453" y="136.043"/><rect fill="#FFFFFF" height="37.5547" style="stroke:#181818;stroke-width:1.0;" width="10" x="956" y="438.0352"/><line style="stroke:#181818;stroke-width:0.5;stroke-dasharray:5.0,5.0;" x1="39" x2="39" y1="126.043" y2="493.5898"/><line style="stroke:#181818;stroke-width:0.5;stroke-dasharray:5.0,5.0;" x1="458" x2="458" y1="126.043" y2="493.5898"/><line style="stroke:#181818;stroke-width:0.5;stroke-dasharray:5.0,5.0;" x1="961" x2="961" y1="126.043" y2="493.5898"/><text fill="#000000" font-family="sans-serif" font-size="20" lengthAdjust="spacing" textLength="62" x="5" y="121.8242">Owner</text><ellipse cx="39" cy="50.9883" fill="#E3E3E3" rx="8" ry="8" style="stroke:#181818;stroke-width:0.5;"/><path d="M39,58.9883 L39,85.9883 M26,66.9883 L52,66.9883 M39,85.9883 L26,100.9883 M39,85.9883 L52,100.9883 " fill="none" style="stroke:#181818;stroke-width:0.5;"/><text fill="#000000" font-family="sans-serif" font-size="20" lengthAdjust="spacing" textLength="62" x="5" y="511.9258">Owner</text><ellipse cx="39" cy="524.6445" fill="#E3E3E3" rx="8" ry="8" style="stroke:#181818;stroke-width:0.5;"/><path d="M39,532.6445 L39,559.6445 M26,540.6445 L52,540.6445 M39,559.6445 L26,574.6445 M39,559.6445 L52,574.6445 " fill="none" style="stroke:#181818;stroke-width:0.5;"/><text fill="#000000" font-family="sans-serif" font-size="20" lengthAdjust="spacing" textLength="56" x="427" y="121.8242">Agent</text><ellipse cx="458" cy="50.9883" fill="#E3E3E3" rx="8" ry="8" style="stroke:#181818;stroke-width:0.5;"/><path d="M458,58.9883 L458,85.9883 M445,66.9883 L471,66.9883 M458,85.9883 L445,100.9883 M458,85.9883 L471,100.9883 " fill="none" style="stroke:#181818;stroke-width:0.5;"/><text fill="#000000" font-family="sans-serif" font-size="20" lengthAdjust="spacing" textLength="56" x="427" y="511.9258">Agent</text><ellipse cx="458" cy="524.6445" fill="#E3E3E3" rx="8" ry="8" style="stroke:#181818;stroke-width:0.5;"/><path d="M458,532.6445 L458,559.6445 M445,540.6445 L471,540.6445 M458,559.6445 L445,574.6445 M458,559.6445 L471,574.6445 " fill="none" style="stroke:#181818;stroke-width:0.5;"/><rect fill="#E3E3E3" height="37.5547" rx="2.5" ry="2.5" style="stroke:#181818;stroke-width:0.5;" width="88" x="917" y="87.4883"/><text fill="#000000" font-family="sans-serif" font-size="20" lengthAdjust="spacing" textLength="74" x="924" y="113.8242">:System</text><rect fill="#E3E3E3" height="37.5547" rx="2.5" ry="2.5" style="stroke:#181818;stroke-width:0.5;" width="88" x="917" y="492.5898"/><text fill="#000000" font-family="sans-serif" font-size="20" lengthAdjust="spacing" textLength="74" x="924" y="518.9258">:System</text><rect fill="#FFFFFF" height="37.5547" style="stroke:#181818;stroke-width:1.0;" width="10" x="34" y="203.1523"/><rect fill="#FFFFFF" height="37.5547" style="stroke:#181818;stroke-width:1.0;" width="10" x="34" y="278.2617"/><rect fill="#FFFFFF" height="348.5469" style="stroke:#181818;stroke-width:1.0;" width="10" x="453" y="136.043"/><rect fill="#FFFFFF" height="37.5547" style="stroke:#181818;stroke-width:1.0;" width="10" x="956" y="438.0352"/><polygon fill="#181818" points="441,161.5977,451,165.5977,441,169.5977,445,165.5977" style="stroke:#181818;stroke-width:1.0;"/><line style="stroke:#181818;stroke-width:1.0;" x1="39" x2="447" y1="165.5977" y2="165.5977"/><text fill="#000000" font-family="sans-serif" font-size="20" font-weight="bold" lengthAdjust="spacing" textLength="13" x="46" y="159.3789">1</text><text fill="#000000" font-family="sans-serif" font-size="20" lengthAdjust="spacing" textLength="373" x="63" y="159.3789">Calls the Agent with a property for sale</text><polygon fill="#181818" points="55,199.1523,45,203.1523,55,207.1523,51,203.1523" style="stroke:#181818;stroke-width:1.0;"/><line style="stroke:#181818;stroke-width:1.0;" x1="49" x2="452" y1="203.1523" y2="203.1523"/><text fill="#000000" font-family="sans-serif" font-size="20" font-weight="bold" lengthAdjust="spacing" textLength="13" x="61" y="196.9336">2</text><text fill="#000000" font-family="sans-serif" font-size="20" lengthAdjust="spacing" textLength="251" x="78" y="196.9336">Requests Type of Property</text><polygon fill="#181818" points="441,236.707,451,240.707,441,244.707,445,240.707" style="stroke:#181818;stroke-width:1.0;"/><line style="stroke:#181818;stroke-width:1.0;" x1="39" x2="447" y1="240.707" y2="240.707"/><text fill="#000000" font-family="sans-serif" font-size="20" font-weight="bold" lengthAdjust="spacing" textLength="13" x="46" y="234.4883">3</text><text fill="#000000" font-family="sans-serif" font-size="20" lengthAdjust="spacing" textLength="230" x="63" y="234.4883">Selects Type of Property</text><polygon fill="#181818" points="441,274.2617,451,278.2617,441,282.2617,445,278.2617" style="stroke:#181818;stroke-width:1.0;"/><line style="stroke:#181818;stroke-width:1.0;" x1="44" x2="447" y1="278.2617" y2="278.2617"/><text fill="#000000" font-family="sans-serif" font-size="20" font-weight="bold" lengthAdjust="spacing" textLength="13" x="51" y="272.043">4</text><text fill="#000000" font-family="sans-serif" font-size="20" lengthAdjust="spacing" textLength="201" x="68" y="272.043">types requested data</text><polygon fill="#181818" points="50,311.8164,40,315.8164,50,319.8164,46,315.8164" style="stroke:#181818;stroke-width:1.0;"/><line style="stroke:#181818;stroke-width:1.0;" x1="44" x2="452" y1="315.8164" y2="315.8164"/><text fill="#000000" font-family="sans-serif" font-size="20" font-weight="bold" lengthAdjust="spacing" textLength="13" x="56" y="309.5977">5</text><text fill="#000000" font-family="sans-serif" font-size="20" lengthAdjust="spacing" textLength="135" x="73" y="309.5977">Requests data</text><polygon fill="#181818" points="949,372.9258,959,376.9258,949,380.9258,953,376.9258" style="stroke:#181818;stroke-width:1.0;"/><line style="stroke:#181818;stroke-width:1.0;stroke-dasharray:2.0,2.0;" x1="463" x2="955" y1="376.9258" y2="376.9258"/><text fill="#000000" font-family="sans-serif" font-size="20" font-weight="bold" lengthAdjust="spacing" textLength="13" x="470" y="358.9297">6</text><text fill="#000000" font-family="sans-serif" font-size="20" lengthAdjust="spacing" textLength="295" x="487" y="347.1523">Tells System that they received</text><text fill="#000000" font-family="sans-serif" font-size="20" lengthAdjust="spacing" textLength="278" x="487" y="370.707">a call with a property for sale</text><polygon fill="#181818" points="944,434.0352,954,438.0352,944,442.0352,948,438.0352" style="stroke:#181818;stroke-width:1.0;"/><line style="stroke:#181818;stroke-width:1.0;" x1="463" x2="950" y1="438.0352" y2="438.0352"/><text fill="#000000" font-family="sans-serif" font-size="20" font-weight="bold" lengthAdjust="spacing" textLength="13" x="470" y="420.0391">7</text><text fill="#000000" font-family="sans-serif" font-size="20" lengthAdjust="spacing" textLength="451" x="487" y="408.2617">types requested data (dimensions, description,</text><text fill="#000000" font-family="sans-serif" font-size="20" lengthAdjust="spacing" textLength="108" x="487" y="431.8164">value, cost)</text><polygon fill="#181818" points="474,471.5898,464,475.5898,474,479.5898,470,475.5898" style="stroke:#181818;stroke-width:1.0;"/><line style="stroke:#181818;stroke-width:1.0;stroke-dasharray:2.0,2.0;" x1="468" x2="960" y1="475.5898" y2="475.5898"/><text fill="#000000" font-family="sans-serif" font-size="20" font-weight="bold" lengthAdjust="spacing" textLength="13" x="480" y="469.3711">8</text><text fill="#000000" font-family="sans-serif" font-size="20" lengthAdjust="spacing" textLength="256" x="497" y="469.3711">displays operation success</text><!--SRC=[ZLB1QkCm4BtxAnwvf8K4bZtci51Qzjgbxd4lKtbYYyYIgnadUB- -aks4P76WFesbDs_UUoCvMDzHfDO5S-0A5U-fT_exU2tjFyRF7uMS8MY33wQ9eMLexFdgfYDpe9fB7HmZib7ojRi6I4DLE5bVOqzEk2ZKQeAMWoYtAFcpPsyOBvRg37yeovT7RF7abACdjKV6gqzjr6lmVVl1CTL6GyJgzUGvha22iJeVFzNiTJmUgoBfK6jiHrwnsas3n-kf7EdiaPHdV87qZOpO_fhEiCCpEIVGPaRXPBK1eOkXuwW3zccqKBAUkzTBb5DVefouTtZBvaK5xqF727lycSb6-8LYChUigcINCh_3KF6tE3JrIjhTA2Q_15Awg-2-YKlRyjYvCNNEgz_XdNEaywysf3dU8RyYJcklyDSJJ8hzVjR5EbFF3DihJ_56rVe_MUV5tnYwo5hA0m-LRTcB3LusYKfCj9sclqrIUIJNymOcY3xU1dSzQ45bPQLpD0YoByfqaDuO5YcM5Ny1]--></g></svg>