<?xml version="1.0" encoding="UTF-8" standalone="no"?><svg xmlns="http://www.w3.org/2000/svg" xmlns:xlink="http://www.w3.org/1999/xlink" contentStyleType="text/css" height="534px" preserveAspectRatio="none" style="width:976px;height:534px;background:#FFFFFF;" version="1.1" viewBox="0 0 976 534" width="976px" zoomAndPan="magnify"><defs/><g><text fill="#000000" font-family="sans-serif" font-size="14" font-weight="bold" lengthAdjust="spacing" textLength="365" x="304.5" y="28.5352">System Sequence Diagram (SSD) - Alternative Two</text><rect fill="#FFFFFF" height="301.4375" style="stroke:#181818;stroke-width:1.0;" width="10" x="31" y="136.043"/><rect fill="#FFFFFF" height="37.5547" style="stroke:#181818;stroke-width:1.0;" width="10" x="921" y="165.5977"/><rect fill="#FFFFFF" height="37.5547" style="stroke:#181818;stroke-width:1.0;" width="10" x="921" y="240.707"/><rect fill="#FFFFFF" height="37.5547" style="stroke:#181818;stroke-width:1.0;" width="10" x="921" y="315.8164"/><rect fill="#FFFFFF" height="37.5547" style="stroke:#181818;stroke-width:1.0;" width="10" x="921" y="390.9258"/><line style="stroke:#181818;stroke-width:0.5;stroke-dasharray:5.0,5.0;" x1="36" x2="36" y1="126.043" y2="446.4805"/><line style="stroke:#181818;stroke-width:0.5;stroke-dasharray:5.0,5.0;" x1="926" x2="926" y1="126.043" y2="446.4805"/><text fill="#000000" font-family="sans-serif" font-size="20" lengthAdjust="spacing" textLength="56" x="5" y="121.8242">Agent</text><ellipse cx="36" cy="50.9883" fill="#E3E3E3" rx="8" ry="8" style="stroke:#181818;stroke-width:0.5;"/><path d="M36,58.9883 L36,85.9883 M23,66.9883 L49,66.9883 M36,85.9883 L23,100.9883 M36,85.9883 L49,100.9883 " fill="none" style="stroke:#181818;stroke-width:0.5;"/><text fill="#000000" font-family="sans-serif" font-size="20" lengthAdjust="spacing" textLength="56" x="5" y="464.8164">Agent</text><ellipse cx="36" cy="477.5352" fill="#E3E3E3" rx="8" ry="8" style="stroke:#181818;stroke-width:0.5;"/><path d="M36,485.5352 L36,512.5352 M23,493.5352 L49,493.5352 M36,512.5352 L23,527.5352 M36,512.5352 L49,527.5352 " fill="none" style="stroke:#181818;stroke-width:0.5;"/><rect fill="#E3E3E3" height="37.5547" rx="2.5" ry="2.5" style="stroke:#181818;stroke-width:0.5;" width="88" x="882" y="87.4883"/><text fill="#000000" font-family="sans-serif" font-size="20" lengthAdjust="spacing" textLength="74" x="889" y="113.8242">:System</text><rect fill="#E3E3E3" height="37.5547" rx="2.5" ry="2.5" style="stroke:#181818;stroke-width:0.5;" width="88" x="882" y="445.4805"/><text fill="#000000" font-family="sans-serif" font-size="20" lengthAdjust="spacing" textLength="74" x="889" y="471.8164">:System</text><rect fill="#FFFFFF" height="301.4375" style="stroke:#181818;stroke-width:1.0;" width="10" x="31" y="136.043"/><rect fill="#FFFFFF" height="37.5547" style="stroke:#181818;stroke-width:1.0;" width="10" x="921" y="165.5977"/><rect fill="#FFFFFF" height="37.5547" style="stroke:#181818;stroke-width:1.0;" width="10" x="921" y="240.707"/><rect fill="#FFFFFF" height="37.5547" style="stroke:#181818;stroke-width:1.0;" width="10" x="921" y="315.8164"/><rect fill="#FFFFFF" height="37.5547" style="stroke:#181818;stroke-width:1.0;" width="10" x="921" y="390.9258"/><polygon fill="#181818" points="909,161.5977,919,165.5977,909,169.5977,913,165.5977" style="stroke:#181818;stroke-width:1.0;"/><line style="stroke:#181818;stroke-width:1.0;" x1="41" x2="915" y1="165.5977" y2="165.5977"/><text fill="#000000" font-family="sans-serif" font-size="20" font-weight="bold" lengthAdjust="spacing" textLength="13" x="48" y="159.3789">1</text><text fill="#000000" font-family="sans-serif" font-size="20" lengthAdjust="spacing" textLength="348" x="65" y="159.3789">asks to create a new sale for publish</text><polygon fill="#181818" points="52,199.1523,42,203.1523,52,207.1523,48,203.1523" style="stroke:#181818;stroke-width:1.0;"/><line style="stroke:#181818;stroke-width:1.0;stroke-dasharray:2.0,2.0;" x1="46" x2="925" y1="203.1523" y2="203.1523"/><text fill="#000000" font-family="sans-serif" font-size="20" font-weight="bold" lengthAdjust="spacing" textLength="13" x="58" y="196.9336">2</text><text fill="#000000" font-family="sans-serif" font-size="20" lengthAdjust="spacing" textLength="447" x="75" y="196.9336">shows property type list and asks to select one</text><polygon fill="#181818" points="909,236.707,919,240.707,909,244.707,913,240.707" style="stroke:#181818;stroke-width:1.0;"/><line style="stroke:#181818;stroke-width:1.0;" x1="41" x2="915" y1="240.707" y2="240.707"/><text fill="#000000" font-family="sans-serif" font-size="20" font-weight="bold" lengthAdjust="spacing" textLength="13" x="48" y="234.4883">3</text><text fill="#000000" font-family="sans-serif" font-size="20" lengthAdjust="spacing" textLength="217" x="65" y="234.4883">selects a property type</text><polygon fill="#181818" points="52,274.2617,42,278.2617,52,282.2617,48,278.2617" style="stroke:#181818;stroke-width:1.0;"/><line style="stroke:#181818;stroke-width:1.0;stroke-dasharray:2.0,2.0;" x1="46" x2="925" y1="278.2617" y2="278.2617"/><text fill="#000000" font-family="sans-serif" font-size="20" font-weight="bold" lengthAdjust="spacing" textLength="13" x="58" y="272.043">4</text><text fill="#000000" font-family="sans-serif" font-size="20" lengthAdjust="spacing" textLength="130" x="75" y="272.043">requests data</text><polygon fill="#181818" points="909,311.8164,919,315.8164,909,319.8164,913,315.8164" style="stroke:#181818;stroke-width:1.0;"/><line style="stroke:#181818;stroke-width:1.0;" x1="41" x2="915" y1="315.8164" y2="315.8164"/><text fill="#000000" font-family="sans-serif" font-size="20" font-weight="bold" lengthAdjust="spacing" textLength="13" x="48" y="309.5977">5</text><text fill="#000000" font-family="sans-serif" font-size="20" lengthAdjust="spacing" textLength="844" x="65" y="309.5977">types requested data (number of Bathrooms, location, \price, distance from City Centre)</text><polygon fill="#181818" points="52,349.3711,42,353.3711,52,357.3711,48,353.3711" style="stroke:#181818;stroke-width:1.0;"/><line style="stroke:#181818;stroke-width:1.0;stroke-dasharray:2.0,2.0;" x1="46" x2="925" y1="353.3711" y2="353.3711"/><text fill="#000000" font-family="sans-serif" font-size="20" font-weight="bold" lengthAdjust="spacing" textLength="13" x="58" y="347.1523">6</text><text fill="#000000" font-family="sans-serif" font-size="20" lengthAdjust="spacing" textLength="386" x="75" y="347.1523">shows property type and requested data</text><polygon fill="#181818" points="909,386.9258,919,390.9258,909,394.9258,913,390.9258" style="stroke:#181818;stroke-width:1.0;"/><line style="stroke:#181818;stroke-width:1.0;" x1="41" x2="915" y1="390.9258" y2="390.9258"/><text fill="#000000" font-family="sans-serif" font-size="20" font-weight="bold" lengthAdjust="spacing" textLength="13" x="48" y="384.707">7</text><text fill="#000000" font-family="sans-serif" font-size="20" lengthAdjust="spacing" textLength="151" x="65" y="384.707">publishes order</text><polygon fill="#181818" points="52,424.4805,42,428.4805,52,432.4805,48,428.4805" style="stroke:#181818;stroke-width:1.0;"/><line style="stroke:#181818;stroke-width:1.0;stroke-dasharray:2.0,2.0;" x1="46" x2="925" y1="428.4805" y2="428.4805"/><text fill="#000000" font-family="sans-serif" font-size="20" font-weight="bold" lengthAdjust="spacing" textLength="13" x="58" y="422.2617">8</text><text fill="#000000" font-family="sans-serif" font-size="20" lengthAdjust="spacing" textLength="489" x="75" y="422.2617">Shows operation success and requests commission</text><!--SRC=[hPBBJiD034Nt-OghhgZKIeXb5qWyn0-49HjtugIZ9kCmTgZAr-CaBIg2JILcPMdiUuyVke-ffqnTAs7F5IgkQMZjHPALyPDnTrleEGMT90cxB1t3yi0NFps5FJLSsh5bP0v6gMal4tH7bHnYQb1JgrmK5irJowCQToZvVU0K6C-HcZ7zfYoVbrZZeJNEYIn-C5uFKXGqcAIXstBsE9XaB1uQJhO0AQQeS4EB8VQK38lDx31zp-5K5p_8-9HVmDyKOdr_9jfumLvXWf1vp2KaFa39eMjtxOTj6tKtrNxhdGrmUYUjjSlE-XkVWnmKVPQUinrXnvxXGWPArRUbSkiZX2IUf2h-q-4tybodplh3u6h8FAv3NQWYe-iGHZyz2uptv0gucJS6gV58vWSadQxW5-UBbRJ2MvzZu1Kg7mIDPr3xZU4fEl-J6sHU_ikSnn7_9BkkjzFElJ_9bH_WjKpbn3GIJNr3Xn1OzP9B4QJhegh__mtt1G00]--></g></svg>