<?xml version="1.0" encoding="UTF-8" standalone="no"?><svg xmlns="http://www.w3.org/2000/svg" xmlns:xlink="http://www.w3.org/1999/xlink" contentStyleType="text/css" height="468px" preserveAspectRatio="none" style="width:1011px;height:468px;background:#FFFFFF;" version="1.1" viewBox="0 0 1011 468" width="1011px" zoomAndPan="magnify"><defs/><g><text fill="#000000" font-family="sans-serif" font-size="14" font-weight="bold" lengthAdjust="spacing" textLength="363" x="323" y="28.5352">System Sequence Diagram (SSD) - Alternative One</text><rect fill="#FFFFFF" height="235.8828" style="stroke:#181818;stroke-width:1.0;" width="10" x="453" y="136.043"/><rect fill="#FFFFFF" height="98.6641" style="stroke:#181818;stroke-width:1.0;" width="10" x="956" y="165.5977"/><rect fill="#FFFFFF" height="37.5547" style="stroke:#181818;stroke-width:1.0;" width="10" x="956" y="325.3711"/><line style="stroke:#181818;stroke-width:0.5;stroke-dasharray:5.0,5.0;" x1="39" x2="39" y1="126.043" y2="380.9258"/><line style="stroke:#181818;stroke-width:0.5;stroke-dasharray:5.0,5.0;" x1="458" x2="458" y1="126.043" y2="380.9258"/><line style="stroke:#181818;stroke-width:0.5;stroke-dasharray:5.0,5.0;" x1="961" x2="961" y1="126.043" y2="380.9258"/><text fill="#000000" font-family="sans-serif" font-size="20" lengthAdjust="spacing" textLength="62" x="5" y="121.8242">Owner</text><ellipse cx="39" cy="50.9883" fill="#E3E3E3" rx="8" ry="8" style="stroke:#181818;stroke-width:0.5;"/><path d="M39,58.9883 L39,85.9883 M26,66.9883 L52,66.9883 M39,85.9883 L26,100.9883 M39,85.9883 L52,100.9883 " fill="none" style="stroke:#181818;stroke-width:0.5;"/><text fill="#000000" font-family="sans-serif" font-size="20" lengthAdjust="spacing" textLength="62" x="5" y="399.2617">Owner</text><ellipse cx="39" cy="411.9805" fill="#E3E3E3" rx="8" ry="8" style="stroke:#181818;stroke-width:0.5;"/><path d="M39,419.9805 L39,446.9805 M26,427.9805 L52,427.9805 M39,446.9805 L26,461.9805 M39,446.9805 L52,461.9805 " fill="none" style="stroke:#181818;stroke-width:0.5;"/><text fill="#000000" font-family="sans-serif" font-size="20" lengthAdjust="spacing" textLength="56" x="427" y="121.8242">Agent</text><ellipse cx="458" cy="50.9883" fill="#E3E3E3" rx="8" ry="8" style="stroke:#181818;stroke-width:0.5;"/><path d="M458,58.9883 L458,85.9883 M445,66.9883 L471,66.9883 M458,85.9883 L445,100.9883 M458,85.9883 L471,100.9883 " fill="none" style="stroke:#181818;stroke-width:0.5;"/><text fill="#000000" font-family="sans-serif" font-size="20" lengthAdjust="spacing" textLength="56" x="427" y="399.2617">Agent</text><ellipse cx="458" cy="411.9805" fill="#E3E3E3" rx="8" ry="8" style="stroke:#181818;stroke-width:0.5;"/><path d="M458,419.9805 L458,446.9805 M445,427.9805 L471,427.9805 M458,446.9805 L445,461.9805 M458,446.9805 L471,461.9805 " fill="none" style="stroke:#181818;stroke-width:0.5;"/><rect fill="#E3E3E3" height="37.5547" rx="2.5" ry="2.5" style="stroke:#181818;stroke-width:0.5;" width="88" x="917" y="87.4883"/><text fill="#000000" font-family="sans-serif" font-size="20" lengthAdjust="spacing" textLength="74" x="924" y="113.8242">:System</text><rect fill="#E3E3E3" height="37.5547" rx="2.5" ry="2.5" style="stroke:#181818;stroke-width:0.5;" width="88" x="917" y="379.9258"/><text fill="#000000" font-family="sans-serif" font-size="20" lengthAdjust="spacing" textLength="74" x="924" y="406.2617">:System</text><rect fill="#FFFFFF" height="235.8828" style="stroke:#181818;stroke-width:1.0;" width="10" x="453" y="136.043"/><rect fill="#FFFFFF" height="98.6641" style="stroke:#181818;stroke-width:1.0;" width="10" x="956" y="165.5977"/><rect fill="#FFFFFF" height="37.5547" style="stroke:#181818;stroke-width:1.0;" width="10" x="956" y="325.3711"/><polygon fill="#181818" points="441,161.5977,451,165.5977,441,169.5977,445,165.5977" style="stroke:#181818;stroke-width:1.0;"/><line style="stroke:#181818;stroke-width:1.0;" x1="39" x2="447" y1="165.5977" y2="165.5977"/><text fill="#000000" font-family="sans-serif" font-size="20" font-weight="bold" lengthAdjust="spacing" textLength="13" x="46" y="159.3789">1</text><text fill="#000000" font-family="sans-serif" font-size="20" lengthAdjust="spacing" textLength="373" x="63" y="159.3789">Calls the Agent with a property for sale</text><polygon fill="#181818" points="944,222.707,954,226.707,944,230.707,948,226.707" style="stroke:#181818;stroke-width:1.0;"/><line style="stroke:#181818;stroke-width:1.0;stroke-dasharray:2.0,2.0;" x1="463" x2="950" y1="226.707" y2="226.707"/><text fill="#000000" font-family="sans-serif" font-size="20" font-weight="bold" lengthAdjust="spacing" textLength="13" x="470" y="208.7109">2</text><text fill="#000000" font-family="sans-serif" font-size="20" lengthAdjust="spacing" textLength="295" x="487" y="196.9336">Tells System that they received</text><text fill="#000000" font-family="sans-serif" font-size="20" lengthAdjust="spacing" textLength="278" x="487" y="220.4883">a call with a property for sale</text><polygon fill="#181818" points="474,260.2617,464,264.2617,474,268.2617,470,264.2617" style="stroke:#181818;stroke-width:1.0;"/><line style="stroke:#181818;stroke-width:1.0;stroke-dasharray:2.0,2.0;" x1="468" x2="960" y1="264.2617" y2="264.2617"/><text fill="#000000" font-family="sans-serif" font-size="20" font-weight="bold" lengthAdjust="spacing" textLength="13" x="480" y="258.043">3</text><text fill="#000000" font-family="sans-serif" font-size="20" lengthAdjust="spacing" textLength="130" x="497" y="258.043">requests data</text><polygon fill="#181818" points="944,321.3711,954,325.3711,944,329.3711,948,325.3711" style="stroke:#181818;stroke-width:1.0;"/><line style="stroke:#181818;stroke-width:1.0;" x1="463" x2="950" y1="325.3711" y2="325.3711"/><text fill="#000000" font-family="sans-serif" font-size="20" font-weight="bold" lengthAdjust="spacing" textLength="13" x="470" y="307.375">4</text><text fill="#000000" font-family="sans-serif" font-size="20" lengthAdjust="spacing" textLength="451" x="487" y="295.5977">types requested data (dimensions, description,</text><text fill="#000000" font-family="sans-serif" font-size="20" lengthAdjust="spacing" textLength="108" x="487" y="319.1523">value, cost)</text><polygon fill="#181818" points="474,358.9258,464,362.9258,474,366.9258,470,362.9258" style="stroke:#181818;stroke-width:1.0;"/><line style="stroke:#181818;stroke-width:1.0;stroke-dasharray:2.0,2.0;" x1="468" x2="960" y1="362.9258" y2="362.9258"/><text fill="#000000" font-family="sans-serif" font-size="20" font-weight="bold" lengthAdjust="spacing" textLength="13" x="480" y="356.707">5</text><text fill="#000000" font-family="sans-serif" font-size="20" lengthAdjust="spacing" textLength="256" x="497" y="356.707">displays operation success</text><!--SRC=[VPAnRiCm34HtVmMHAG5YeEYOeK3Ge6i6T-p2IemjH9PKaKxWVdqbsIuyDFL4KSTtHy5yDIvWnDvwTIKDcYuuM7dpJXhpJV3yLF4YWTuxhxheUmA90wrk0gehjjJ8Q0aYAK7NshM0EzJ-RbmB5xHCLIL6ahGPMQY7Xhu6SehWPB3DyctJd7PGmz4AHOTYRWHdbyPm4E-6_fDYgfNu29lptL7S03AKQcaVMt9IsgMgKWunoWHq0fl3P5okfxBWp0s5Pdq5wIj4g5-c7XpW5Qrba6vMmTr81mWX-a1HHhWaQyQqUfx-9IuMkJdDrOavBt-0TyhG-IWTIZOOypjIMbp3XqDGoVYnMo7FW7eLD-Q7PM7GA5X4clvBjGebOo1U0FdFI0JOQjEJO-CTxnEALJH1qccVCjxG3hG7vLbsZzV_8wGs72oE37ahp3ZWGIbYVf3u1m00]--></g></svg>