<?xml version="1.0" encoding="UTF-8" standalone="no"?><svg xmlns="http://www.w3.org/2000/svg" xmlns:xlink="http://www.w3.org/1999/xlink" contentStyleType="text/css" height="619px" preserveAspectRatio="none" style="width:1011px;height:619px;background:#FFFFFF;" version="1.1" viewBox="0 0 1011 619" width="1011px" zoomAndPan="magnify"><defs/><g><text fill="#000000" font-family="sans-serif" font-size="14" font-weight="bold" lengthAdjust="spacing" textLength="363" x="323" y="28.5352">System Sequence Diagram (SSD) - Alternative One</text><rect fill="#FFFFFF" height="37.5547" style="stroke:#181818;stroke-width:1.0;" width="10" x="34" y="203.1523"/><rect fill="#FFFFFF" height="37.5547" style="stroke:#181818;stroke-width:1.0;" width="10" x="34" y="278.2617"/><rect fill="#FFFFFF" height="386.1016" style="stroke:#181818;stroke-width:1.0;" width="10" x="453" y="136.043"/><rect fill="#FFFFFF" height="37.5547" style="stroke:#181818;stroke-width:1.0;" width="10" x="956" y="376.9258"/><rect fill="#FFFFFF" height="37.5547" style="stroke:#181818;stroke-width:1.0;" width="10" x="956" y="475.5898"/><line style="stroke:#181818;stroke-width:0.5;stroke-dasharray:5.0,5.0;" x1="39" x2="39" y1="126.043" y2="531.1445"/><line style="stroke:#181818;stroke-width:0.5;stroke-dasharray:5.0,5.0;" x1="458" x2="458" y1="126.043" y2="531.1445"/><line style="stroke:#181818;stroke-width:0.5;stroke-dasharray:5.0,5.0;" x1="961" x2="961" y1="126.043" y2="531.1445"/><text fill="#000000" font-family="sans-serif" font-size="20" lengthAdjust="spacing" textLength="62" x="5" y="121.8242">Owner</text><ellipse cx="39" cy="50.9883" fill="#E3E3E3" rx="8" ry="8" style="stroke:#181818;stroke-width:0.5;"/><path d="M39,58.9883 L39,85.9883 M26,66.9883 L52,66.9883 M39,85.9883 L26,100.9883 M39,85.9883 L52,100.9883 " fill="none" style="stroke:#181818;stroke-width:0.5;"/><text fill="#000000" font-family="sans-serif" font-size="20" lengthAdjust="spacing" textLength="62" x="5" y="549.4805">Owner</text><ellipse cx="39" cy="562.1992" fill="#E3E3E3" rx="8" ry="8" style="stroke:#181818;stroke-width:0.5;"/><path d="M39,570.1992 L39,597.1992 M26,578.1992 L52,578.1992 M39,597.1992 L26,612.1992 M39,597.1992 L52,612.1992 " fill="none" style="stroke:#181818;stroke-width:0.5;"/><text fill="#000000" font-family="sans-serif" font-size="20" lengthAdjust="spacing" textLength="56" x="427" y="121.8242">Agent</text><ellipse cx="458" cy="50.9883" fill="#E3E3E3" rx="8" ry="8" style="stroke:#181818;stroke-width:0.5;"/><path d="M458,58.9883 L458,85.9883 M445,66.9883 L471,66.9883 M458,85.9883 L445,100.9883 M458,85.9883 L471,100.9883 " fill="none" style="stroke:#181818;stroke-width:0.5;"/><text fill="#000000" font-family="sans-serif" font-size="20" lengthAdjust="spacing" textLength="56" x="427" y="549.4805">Agent</text><ellipse cx="458" cy="562.1992" fill="#E3E3E3" rx="8" ry="8" style="stroke:#181818;stroke-width:0.5;"/><path d="M458,570.1992 L458,597.1992 M445,578.1992 L471,578.1992 M458,597.1992 L445,612.1992 M458,597.1992 L471,612.1992 " fill="none" style="stroke:#181818;stroke-width:0.5;"/><rect fill="#E3E3E3" height="37.5547" rx="2.5" ry="2.5" style="stroke:#181818;stroke-width:0.5;" width="88" x="917" y="87.4883"/><text fill="#000000" font-family="sans-serif" font-size="20" lengthAdjust="spacing" textLength="74" x="924" y="113.8242">:System</text><rect fill="#E3E3E3" height="37.5547" rx="2.5" ry="2.5" style="stroke:#181818;stroke-width:0.5;" width="88" x="917" y="530.1445"/><text fill="#000000" font-family="sans-serif" font-size="20" lengthAdjust="spacing" textLength="74" x="924" y="556.4805">:System</text><rect fill="#FFFFFF" height="37.5547" style="stroke:#181818;stroke-width:1.0;" width="10" x="34" y="203.1523"/><rect fill="#FFFFFF" height="37.5547" style="stroke:#181818;stroke-width:1.0;" width="10" x="34" y="278.2617"/><rect fill="#FFFFFF" height="386.1016" style="stroke:#181818;stroke-width:1.0;" width="10" x="453" y="136.043"/><rect fill="#FFFFFF" height="37.5547" style="stroke:#181818;stroke-width:1.0;" width="10" x="956" y="376.9258"/><rect fill="#FFFFFF" height="37.5547" style="stroke:#181818;stroke-width:1.0;" width="10" x="956" y="475.5898"/><polygon fill="#181818" points="441,161.5977,451,165.5977,441,169.5977,445,165.5977" style="stroke:#181818;stroke-width:1.0;"/><line style="stroke:#181818;stroke-width:1.0;" x1="39" x2="447" y1="165.5977" y2="165.5977"/><text fill="#000000" font-family="sans-serif" font-size="20" font-weight="bold" lengthAdjust="spacing" textLength="13" x="46" y="159.3789">1</text><text fill="#000000" font-family="sans-serif" font-size="20" lengthAdjust="spacing" textLength="373" x="63" y="159.3789">Calls the Agent with a property for sale</text><polygon fill="#181818" points="55,199.1523,45,203.1523,55,207.1523,51,203.1523" style="stroke:#181818;stroke-width:1.0;"/><line style="stroke:#181818;stroke-width:1.0;" x1="49" x2="452" y1="203.1523" y2="203.1523"/><text fill="#000000" font-family="sans-serif" font-size="20" font-weight="bold" lengthAdjust="spacing" textLength="13" x="61" y="196.9336">2</text><text fill="#000000" font-family="sans-serif" font-size="20" lengthAdjust="spacing" textLength="251" x="78" y="196.9336">Requests Type of Property</text><polygon fill="#181818" points="441,236.707,451,240.707,441,244.707,445,240.707" style="stroke:#181818;stroke-width:1.0;"/><line style="stroke:#181818;stroke-width:1.0;" x1="39" x2="447" y1="240.707" y2="240.707"/><text fill="#000000" font-family="sans-serif" font-size="20" font-weight="bold" lengthAdjust="spacing" textLength="13" x="46" y="234.4883">3</text><text fill="#000000" font-family="sans-serif" font-size="20" lengthAdjust="spacing" textLength="230" x="63" y="234.4883">Selects Type of Property</text><polygon fill="#181818" points="441,274.2617,451,278.2617,441,282.2617,445,278.2617" style="stroke:#181818;stroke-width:1.0;"/><line style="stroke:#181818;stroke-width:1.0;" x1="44" x2="447" y1="278.2617" y2="278.2617"/><text fill="#000000" font-family="sans-serif" font-size="20" font-weight="bold" lengthAdjust="spacing" textLength="13" x="51" y="272.043">4</text><text fill="#000000" font-family="sans-serif" font-size="20" lengthAdjust="spacing" textLength="201" x="68" y="272.043">types requested data</text><polygon fill="#181818" points="50,311.8164,40,315.8164,50,319.8164,46,315.8164" style="stroke:#181818;stroke-width:1.0;"/><line style="stroke:#181818;stroke-width:1.0;" x1="44" x2="452" y1="315.8164" y2="315.8164"/><text fill="#000000" font-family="sans-serif" font-size="20" font-weight="bold" lengthAdjust="spacing" textLength="13" x="56" y="309.5977">5</text><text fill="#000000" font-family="sans-serif" font-size="20" lengthAdjust="spacing" textLength="135" x="73" y="309.5977">Requests data</text><polygon fill="#181818" points="944,372.9258,954,376.9258,944,380.9258,948,376.9258" style="stroke:#181818;stroke-width:1.0;"/><line style="stroke:#181818;stroke-width:1.0;stroke-dasharray:2.0,2.0;" x1="463" x2="950" y1="376.9258" y2="376.9258"/><text fill="#000000" font-family="sans-serif" font-size="20" font-weight="bold" lengthAdjust="spacing" textLength="13" x="470" y="358.9297">6</text><text fill="#000000" font-family="sans-serif" font-size="20" lengthAdjust="spacing" textLength="295" x="487" y="347.1523">Tells System that they received</text><text fill="#000000" font-family="sans-serif" font-size="20" lengthAdjust="spacing" textLength="278" x="487" y="370.707">a call with a property for sale</text><polygon fill="#181818" points="474,410.4805,464,414.4805,474,418.4805,470,414.4805" style="stroke:#181818;stroke-width:1.0;"/><line style="stroke:#181818;stroke-width:1.0;stroke-dasharray:2.0,2.0;" x1="468" x2="960" y1="414.4805" y2="414.4805"/><text fill="#000000" font-family="sans-serif" font-size="20" font-weight="bold" lengthAdjust="spacing" textLength="13" x="480" y="408.2617">7</text><text fill="#000000" font-family="sans-serif" font-size="20" lengthAdjust="spacing" textLength="130" x="497" y="408.2617">requests data</text><polygon fill="#181818" points="944,471.5898,954,475.5898,944,479.5898,948,475.5898" style="stroke:#181818;stroke-width:1.0;"/><line style="stroke:#181818;stroke-width:1.0;" x1="463" x2="950" y1="475.5898" y2="475.5898"/><text fill="#000000" font-family="sans-serif" font-size="20" font-weight="bold" lengthAdjust="spacing" textLength="13" x="470" y="457.5938">8</text><text fill="#000000" font-family="sans-serif" font-size="20" lengthAdjust="spacing" textLength="451" x="487" y="445.8164">types requested data (dimensions, description,</text><text fill="#000000" font-family="sans-serif" font-size="20" lengthAdjust="spacing" textLength="108" x="487" y="469.3711">value, cost)</text><polygon fill="#181818" points="474,509.1445,464,513.1445,474,517.1445,470,513.1445" style="stroke:#181818;stroke-width:1.0;"/><line style="stroke:#181818;stroke-width:1.0;stroke-dasharray:2.0,2.0;" x1="468" x2="960" y1="513.1445" y2="513.1445"/><text fill="#000000" font-family="sans-serif" font-size="20" font-weight="bold" lengthAdjust="spacing" textLength="13" x="480" y="506.9258">9</text><text fill="#000000" font-family="sans-serif" font-size="20" lengthAdjust="spacing" textLength="256" x="497" y="506.9258">displays operation success</text><!--SRC=[bLAnRkCm3Dtz5GzPBW4IeBWnGu6YHTSUwewty6J65Y9BFf5EuFlwasp7o90KhIQAudjyZvGShUyeKkk2ENA5YW_KEtqDNalxZ_7peP1B2ThWWsbYQ1aQUxvwwSWSgUPI1yU8R9HyxQuBfA4gdAslSI0dN1HgDPMMWoYtAFblpzumNYpLkNnTbYyRxF3abACdjIV6cqymwZNullt3CSL6GyJgxUmvha22CRgadshsEgR7g4Wwr1hRaLUizbFZyNaAHpfx8kMvla0w8oDsZrCEUpoJSm9jvYgShJOWT35q77N08RKMIjOp-iSjoWcNA2VkFTwpUL71nz0nmW6_PhAnVA6OpDrMLR9BCx_3KF6NE3HX9Urk59D_0YdTLN3Vn0AxtNO69kIy-Zq-E8zqlcf3ciSxv5_4QUqLVdk2IMF_VDPBiyiwSt8ctLtPZ9y9lSOk5XUXjoQ4TMLRzcA3bssY4XDjf-csJRfFv7hUmWJHpRT4LbOwHuCWEwLC1-cDOP4xYly3]--></g></svg>