<?xml version="1.0" encoding="UTF-8" standalone="no"?><svg xmlns="http://www.w3.org/2000/svg" xmlns:xlink="http://www.w3.org/1999/xlink" contentStyleType="text/css" height="482px" preserveAspectRatio="none" style="width:936px;height:482px;background:#FFFFFF;" version="1.1" viewBox="0 0 936 482" width="936px" zoomAndPan="magnify"><defs/><g><text fill="#000000" font-family="sans-serif" font-size="14" font-weight="bold" lengthAdjust="spacing" textLength="478" x="228" y="28.5352">System Sequence Diagram (SSD) - US008 - Post an announcement</text><rect fill="#FFFFFF" height="249.8828" style="stroke:#181818;stroke-width:1.0;" width="10" x="31" y="136.043"/><rect fill="#FFFFFF" height="61.1094" style="stroke:#181818;stroke-width:1.0;" width="10" x="881" y="165.5977"/><rect fill="#FFFFFF" height="37.5547" style="stroke:#181818;stroke-width:1.0;" width="10" x="881" y="264.2617"/><rect fill="#FFFFFF" height="37.5547" style="stroke:#181818;stroke-width:1.0;" width="10" x="881" y="339.3711"/><line style="stroke:#181818;stroke-width:0.5;stroke-dasharray:5.0,5.0;" x1="36" x2="36" y1="126.043" y2="394.9258"/><line style="stroke:#181818;stroke-width:0.5;stroke-dasharray:5.0,5.0;" x1="886" x2="886" y1="126.043" y2="394.9258"/><text fill="#000000" font-family="sans-serif" font-size="20" lengthAdjust="spacing" textLength="56" x="5" y="121.8242">Agent</text><ellipse cx="36" cy="50.9883" fill="#E3E3E3" rx="8" ry="8" style="stroke:#181818;stroke-width:0.5;"/><path d="M36,58.9883 L36,85.9883 M23,66.9883 L49,66.9883 M36,85.9883 L23,100.9883 M36,85.9883 L49,100.9883 " fill="none" style="stroke:#181818;stroke-width:0.5;"/><text fill="#000000" font-family="sans-serif" font-size="20" lengthAdjust="spacing" textLength="56" x="5" y="413.2617">Agent</text><ellipse cx="36" cy="425.9805" fill="#E3E3E3" rx="8" ry="8" style="stroke:#181818;stroke-width:0.5;"/><path d="M36,433.9805 L36,460.9805 M23,441.9805 L49,441.9805 M36,460.9805 L23,475.9805 M36,460.9805 L49,475.9805 " fill="none" style="stroke:#181818;stroke-width:0.5;"/><rect fill="#E3E3E3" height="37.5547" rx="2.5" ry="2.5" style="stroke:#181818;stroke-width:0.5;" width="88" x="842" y="87.4883"/><text fill="#000000" font-family="sans-serif" font-size="20" lengthAdjust="spacing" textLength="74" x="849" y="113.8242">:System</text><rect fill="#E3E3E3" height="37.5547" rx="2.5" ry="2.5" style="stroke:#181818;stroke-width:0.5;" width="88" x="842" y="393.9258"/><text fill="#000000" font-family="sans-serif" font-size="20" lengthAdjust="spacing" textLength="74" x="849" y="420.2617">:System</text><rect fill="#FFFFFF" height="249.8828" style="stroke:#181818;stroke-width:1.0;" width="10" x="31" y="136.043"/><rect fill="#FFFFFF" height="61.1094" style="stroke:#181818;stroke-width:1.0;" width="10" x="881" y="165.5977"/><rect fill="#FFFFFF" height="37.5547" style="stroke:#181818;stroke-width:1.0;" width="10" x="881" y="264.2617"/><rect fill="#FFFFFF" height="37.5547" style="stroke:#181818;stroke-width:1.0;" width="10" x="881" y="339.3711"/><polygon fill="#181818" points="869,161.5977,879,165.5977,869,169.5977,873,165.5977" style="stroke:#181818;stroke-width:1.0;"/><line style="stroke:#181818;stroke-width:1.0;" x1="41" x2="875" y1="165.5977" y2="165.5977"/><text fill="#000000" font-family="sans-serif" font-size="20" font-weight="bold" lengthAdjust="spacing" textLength="13" x="48" y="159.3789">1</text><text fill="#000000" font-family="sans-serif" font-size="20" lengthAdjust="spacing" textLength="540" x="65" y="159.3789">asks to create a new sale for publish from existing order</text><polygon fill="#181818" points="52,222.707,42,226.707,52,230.707,48,226.707" style="stroke:#181818;stroke-width:1.0;"/><line style="stroke:#181818;stroke-width:1.0;stroke-dasharray:2.0,2.0;" x1="46" x2="885" y1="226.707" y2="226.707"/><text fill="#000000" font-family="sans-serif" font-size="20" font-weight="bold" lengthAdjust="spacing" textLength="13" x="58" y="208.7109">2</text><text fill="#000000" font-family="sans-serif" font-size="20" lengthAdjust="spacing" textLength="634" x="75" y="196.9336">Lists Announcements assigned to Agent that are not published yet</text><text fill="#000000" font-family="sans-serif" font-size="20" lengthAdjust="spacing" textLength="212" x="75" y="220.4883">and asks to select one</text><polygon fill="#181818" points="869,260.2617,879,264.2617,869,268.2617,873,264.2617" style="stroke:#181818;stroke-width:1.0;"/><line style="stroke:#181818;stroke-width:1.0;" x1="41" x2="875" y1="264.2617" y2="264.2617"/><text fill="#000000" font-family="sans-serif" font-size="20" font-weight="bold" lengthAdjust="spacing" textLength="13" x="48" y="258.043">3</text><text fill="#000000" font-family="sans-serif" font-size="20" lengthAdjust="spacing" textLength="244" x="65" y="258.043">selects an Announcement</text><polygon fill="#181818" points="52,297.8164,42,301.8164,52,305.8164,48,301.8164" style="stroke:#181818;stroke-width:1.0;"/><line style="stroke:#181818;stroke-width:1.0;stroke-dasharray:2.0,2.0;" x1="46" x2="885" y1="301.8164" y2="301.8164"/><text fill="#000000" font-family="sans-serif" font-size="20" font-weight="bold" lengthAdjust="spacing" textLength="13" x="58" y="295.5977">4</text><text fill="#000000" font-family="sans-serif" font-size="20" lengthAdjust="spacing" textLength="612" x="75" y="295.5977">validates Commission and sets it to the selected Announcement</text><polygon fill="#181818" points="869,335.3711,879,339.3711,869,343.3711,873,339.3711" style="stroke:#181818;stroke-width:1.0;"/><line style="stroke:#181818;stroke-width:1.0;" x1="41" x2="875" y1="339.3711" y2="339.3711"/><text fill="#000000" font-family="sans-serif" font-size="20" font-weight="bold" lengthAdjust="spacing" textLength="13" x="48" y="333.1523">5</text><text fill="#000000" font-family="sans-serif" font-size="20" lengthAdjust="spacing" textLength="370" x="65" y="333.1523">confirms the Published Announcement</text><polygon fill="#181818" points="52,372.9258,42,376.9258,52,380.9258,48,376.9258" style="stroke:#181818;stroke-width:1.0;"/><line style="stroke:#181818;stroke-width:1.0;stroke-dasharray:2.0,2.0;" x1="46" x2="885" y1="376.9258" y2="376.9258"/><text fill="#000000" font-family="sans-serif" font-size="20" font-weight="bold" lengthAdjust="spacing" textLength="13" x="58" y="370.707">6</text><text fill="#000000" font-family="sans-serif" font-size="20" lengthAdjust="spacing" textLength="799" x="75" y="370.707">publishes the Announcement, sets the Published Date and shows operation success</text><!--SRC=[bP51Q-D038Nl_XKYfnOs4FQqv50e3NlQGy7qjXTrBDj3F99t93TDVtrbEmuktKCB1W_epNlVq-WnSeyPKoVXI1LKLEFGsMzXA-CRmSzTeOi4ah24DaiYi3pGQj9ZE693fPqxWap1a9jkBT0MApb5Rg36JgaeB9fBoxCQ9IZftq0S20uHcr5-KvQ7MzZ2KxdR_VB_ewW1idyiWmiJiHK53YOyf6VAVWuc6JRtZKysW0hJgV1qYo7so0QR_HmtZUVZT2- -eD55Nqm_sDujQ7iN7nLC86GQTGXC9r1q-jeJ- -6vYzf2xMi1UergOqd9bKDTlPUmY-VMxUUSFVpn6mwxwgMUgB5XVmrFdNNMelVF12osHFhyJFQNaQiherBdomTXAYhw5F-vswpNSRLhX2-Hls0NAzSeF4XAqPbbVA3AJTqnsiXZBLqodFP3mfVmWd0TSzB9v_5Q-zkeoyPce_Nr7pFjH__3zCvZarPE2j9JHXlRwH02gVuF_Xq0]--></g></svg>