<?xml version="1.0" encoding="UTF-8" standalone="no"?><svg xmlns="http://www.w3.org/2000/svg" xmlns:xlink="http://www.w3.org/1999/xlink" contentStyleType="text/css" height="1167px" preserveAspectRatio="none" style="width:1762px;height:1167px;background:#FFFFFF;" version="1.1" viewBox="0 0 1762 1167" width="1762px" zoomAndPan="magnify"><defs/><g><rect fill="#FFFFFF" height="971.5313" style="stroke:#181818;stroke-width:1.0;" width="10" x="102" y="98.5547"/><rect fill="#FFFFFF" height="361.5469" style="stroke:#181818;stroke-width:1.0;" width="10" x="633" y="128.1094"/><rect fill="#FFFFFF" height="211.3281" style="stroke:#181818;stroke-width:1.0;" width="10" x="633" y="568.3203"/><rect fill="#FFFFFF" height="211.3281" style="stroke:#181818;stroke-width:1.0;" width="10" x="633" y="842.7578"/><rect fill="#FFFFFF" height="262.8828" style="stroke:#181818;stroke-width:1.0;" width="10" x="1000" y="165.6641"/><rect fill="#FFFFFF" height="112.6641" style="stroke:#181818;stroke-width:1.0;" width="10" x="1000" y="605.875"/><rect fill="#FFFFFF" height="112.6641" style="stroke:#181818;stroke-width:1.0;" width="10" x="1000" y="880.3125"/><rect fill="#FFFFFF" height="37.5547" style="stroke:#181818;stroke-width:1.0;" width="10" x="1267" y="203.2188"/><rect fill="#FFFFFF" height="37.5547" style="stroke:#181818;stroke-width:1.0;" width="10" x="1416" y="278.3281"/><rect fill="#FFFFFF" height="37.5547" style="stroke:#181818;stroke-width:1.0;" width="10" x="1618" y="353.4375"/><rect fill="#FFFFFF" height="37.5547" style="stroke:#181818;stroke-width:1.0;" width="10" x="1618" y="643.4297"/><rect fill="#FFFFFF" height="37.5547" style="stroke:#181818;stroke-width:1.0;" width="10" x="1618" y="917.8672"/><rect fill="none" height="557.4297" style="stroke:#000000;stroke-width:1.5;" width="1745.5" x="10" y="504.6563"/><line style="stroke:#181818;stroke-width:0.5;stroke-dasharray:5.0,5.0;" x1="107" x2="107" y1="88.5547" y2="1079.0859"/><line style="stroke:#181818;stroke-width:0.5;stroke-dasharray:5.0,5.0;" x1="637.5" x2="637.5" y1="88.5547" y2="1079.0859"/><line style="stroke:#181818;stroke-width:0.5;stroke-dasharray:5.0,5.0;" x1="1004.5" x2="1004.5" y1="88.5547" y2="1079.0859"/><line style="stroke:#181818;stroke-width:0.5;stroke-dasharray:5.0,5.0;" x1="1271.5" x2="1271.5" y1="88.5547" y2="1079.0859"/><line style="stroke:#181818;stroke-width:0.5;stroke-dasharray:5.0,5.0;" x1="1420.5" x2="1420.5" y1="88.5547" y2="1079.0859"/><line style="stroke:#181818;stroke-width:0.5;stroke-dasharray:5.0,5.0;" x1="1622.5" x2="1622.5" y1="88.5547" y2="1079.0859"/><text fill="#000000" font-family="sans-serif" font-size="20" lengthAdjust="spacing" textLength="168" x="20" y="84.3359">Network Manager</text><ellipse cx="107" cy="13.5" fill="#E3E3E3" rx="8" ry="8" style="stroke:#181818;stroke-width:0.5;"/><path d="M107,21.5 L107,48.5 M94,29.5 L120,29.5 M107,48.5 L94,63.5 M107,48.5 L120,63.5 " fill="none" style="stroke:#181818;stroke-width:0.5;"/><text fill="#000000" font-family="sans-serif" font-size="20" lengthAdjust="spacing" textLength="168" x="20" y="1097.4219">Network Manager</text><ellipse cx="107" cy="1110.1406" fill="#E3E3E3" rx="8" ry="8" style="stroke:#181818;stroke-width:0.5;"/><path d="M107,1118.1406 L107,1145.1406 M94,1126.1406 L120,1126.1406 M107,1145.1406 L94,1160.1406 M107,1145.1406 L120,1160.1406 " fill="none" style="stroke:#181818;stroke-width:0.5;"/><rect fill="#E3E3E3" height="37.5547" rx="2.5" ry="2.5" style="stroke:#181818;stroke-width:0.5;" width="295" x="490.5" y="50"/><text fill="#000000" font-family="sans-serif" font-size="20" lengthAdjust="spacing" textLength="281" x="497.5" y="76.3359">:NetworkManagerSortWindow</text><rect fill="#E3E3E3" height="37.5547" rx="2.5" ry="2.5" style="stroke:#181818;stroke-width:0.5;" width="295" x="490.5" y="1078.0859"/><text fill="#000000" font-family="sans-serif" font-size="20" lengthAdjust="spacing" textLength="281" x="497.5" y="1104.4219">:NetworkManagerSortWindow</text><rect fill="#E3E3E3" height="37.5547" rx="2.5" ry="2.5" style="stroke:#181818;stroke-width:0.5;" width="375" x="817.5" y="50"/><text fill="#000000" font-family="sans-serif" font-size="20" lengthAdjust="spacing" textLength="361" x="824.5" y="76.3359">:PropertyOrderManagementController</text><rect fill="#E3E3E3" height="37.5547" rx="2.5" ry="2.5" style="stroke:#181818;stroke-width:0.5;" width="375" x="817.5" y="1078.0859"/><text fill="#000000" font-family="sans-serif" font-size="20" lengthAdjust="spacing" textLength="361" x="824.5" y="1104.4219">:PropertyOrderManagementController</text><rect fill="#E3E3E3" height="37.5547" rx="2.5" ry="2.5" style="stroke:#181818;stroke-width:0.5;" width="139" x="1202.5" y="50"/><text fill="#000000" font-family="sans-serif" font-size="20" lengthAdjust="spacing" textLength="125" x="1209.5" y="76.3359">:Repositories</text><rect fill="#E3E3E3" height="37.5547" rx="2.5" ry="2.5" style="stroke:#181818;stroke-width:0.5;" width="139" x="1202.5" y="1078.0859"/><text fill="#000000" font-family="sans-serif" font-size="20" lengthAdjust="spacing" textLength="125" x="1209.5" y="1104.4219">:Repositories</text><rect fill="#E3E3E3" height="61.1094" rx="2.5" ry="2.5" style="stroke:#181818;stroke-width:0.5;" width="139" x="1351.5" y="26.4453"/><text fill="#000000" font-family="sans-serif" font-size="20" lengthAdjust="spacing" textLength="114" x="1364" y="52.7813">repositories</text><text fill="#000000" font-family="sans-serif" font-size="20" lengthAdjust="spacing" textLength="125" x="1358.5" y="76.3359">:Repositories</text><rect fill="#E3E3E3" height="61.1094" rx="2.5" ry="2.5" style="stroke:#181818;stroke-width:0.5;" width="139" x="1351.5" y="1078.0859"/><text fill="#000000" font-family="sans-serif" font-size="20" lengthAdjust="spacing" textLength="114" x="1364" y="1104.4219">repositories</text><text fill="#000000" font-family="sans-serif" font-size="20" lengthAdjust="spacing" textLength="125" x="1358.5" y="1127.9766">:Repositories</text><rect fill="#E3E3E3" height="61.1094" rx="2.5" ry="2.5" style="stroke:#181818;stroke-width:0.5;" width="245" x="1500.5" y="26.4453"/><text fill="#000000" font-family="sans-serif" font-size="20" lengthAdjust="spacing" textLength="231" x="1507.5" y="52.7813">PropertyDealRepository:</text><text fill="#000000" font-family="sans-serif" font-size="20" lengthAdjust="spacing" textLength="182" x="1532" y="76.3359">PropertyRepository</text><rect fill="#E3E3E3" height="61.1094" rx="2.5" ry="2.5" style="stroke:#181818;stroke-width:0.5;" width="245" x="1500.5" y="1078.0859"/><text fill="#000000" font-family="sans-serif" font-size="20" lengthAdjust="spacing" textLength="231" x="1507.5" y="1104.4219">PropertyDealRepository:</text><text fill="#000000" font-family="sans-serif" font-size="20" lengthAdjust="spacing" textLength="182" x="1532" y="1127.9766">PropertyRepository</text><rect fill="#FFFFFF" height="971.5313" style="stroke:#181818;stroke-width:1.0;" width="10" x="102" y="98.5547"/><rect fill="#FFFFFF" height="361.5469" style="stroke:#181818;stroke-width:1.0;" width="10" x="633" y="128.1094"/><rect fill="#FFFFFF" height="211.3281" style="stroke:#181818;stroke-width:1.0;" width="10" x="633" y="568.3203"/><rect fill="#FFFFFF" height="211.3281" style="stroke:#181818;stroke-width:1.0;" width="10" x="633" y="842.7578"/><rect fill="#FFFFFF" height="262.8828" style="stroke:#181818;stroke-width:1.0;" width="10" x="1000" y="165.6641"/><rect fill="#FFFFFF" height="112.6641" style="stroke:#181818;stroke-width:1.0;" width="10" x="1000" y="605.875"/><rect fill="#FFFFFF" height="112.6641" style="stroke:#181818;stroke-width:1.0;" width="10" x="1000" y="880.3125"/><rect fill="#FFFFFF" height="37.5547" style="stroke:#181818;stroke-width:1.0;" width="10" x="1267" y="203.2188"/><rect fill="#FFFFFF" height="37.5547" style="stroke:#181818;stroke-width:1.0;" width="10" x="1416" y="278.3281"/><rect fill="#FFFFFF" height="37.5547" style="stroke:#181818;stroke-width:1.0;" width="10" x="1618" y="353.4375"/><rect fill="#FFFFFF" height="37.5547" style="stroke:#181818;stroke-width:1.0;" width="10" x="1618" y="643.4297"/><rect fill="#FFFFFF" height="37.5547" style="stroke:#181818;stroke-width:1.0;" width="10" x="1618" y="917.8672"/><polygon fill="#181818" points="621,124.1094,631,128.1094,621,132.1094,625,128.1094" style="stroke:#181818;stroke-width:1.0;"/><line style="stroke:#181818;stroke-width:1.0;" x1="112" x2="627" y1="128.1094" y2="128.1094"/><text fill="#000000" font-family="sans-serif" font-size="20" font-weight="bold" lengthAdjust="spacing" textLength="13" x="119" y="121.8906">1</text><text fill="#000000" font-family="sans-serif" font-size="20" lengthAdjust="spacing" textLength="242" x="136" y="121.8906">Ask to list all deals made</text><polygon fill="#181818" points="988,161.6641,998,165.6641,988,169.6641,992,165.6641" style="stroke:#181818;stroke-width:1.0;"/><line style="stroke:#181818;stroke-width:1.0;" x1="643" x2="994" y1="165.6641" y2="165.6641"/><text fill="#000000" font-family="sans-serif" font-size="20" font-weight="bold" lengthAdjust="spacing" textLength="13" x="650" y="159.4453">2</text><text fill="#000000" font-family="sans-serif" font-size="20" lengthAdjust="spacing" textLength="265" x="667" y="159.4453">getPropertiesDealSortByID()</text><polygon fill="#181818" points="1255,199.2188,1265,203.2188,1255,207.2188,1259,203.2188" style="stroke:#181818;stroke-width:1.0;"/><line style="stroke:#181818;stroke-width:1.0;" x1="1010" x2="1261" y1="203.2188" y2="203.2188"/><text fill="#000000" font-family="sans-serif" font-size="20" font-weight="bold" lengthAdjust="spacing" textLength="13" x="1017" y="197">3</text><text fill="#000000" font-family="sans-serif" font-size="20" lengthAdjust="spacing" textLength="123" x="1034" y="197">getInstance()</text><polygon fill="#181818" points="1021,236.7734,1011,240.7734,1021,244.7734,1017,240.7734" style="stroke:#181818;stroke-width:1.0;"/><line style="stroke:#181818;stroke-width:1.0;stroke-dasharray:2.0,2.0;" x1="1015" x2="1271" y1="240.7734" y2="240.7734"/><text fill="#000000" font-family="sans-serif" font-size="20" font-weight="bold" lengthAdjust="spacing" textLength="13" x="1027" y="234.5547">4</text><text fill="#000000" font-family="sans-serif" font-size="20" lengthAdjust="spacing" textLength="114" x="1044" y="234.5547">repositories</text><polygon fill="#181818" points="1404,274.3281,1414,278.3281,1404,282.3281,1408,278.3281" style="stroke:#181818;stroke-width:1.0;"/><line style="stroke:#181818;stroke-width:1.0;" x1="1010" x2="1410" y1="278.3281" y2="278.3281"/><text fill="#000000" font-family="sans-serif" font-size="20" font-weight="bold" lengthAdjust="spacing" textLength="13" x="1017" y="272.1094">5</text><text fill="#000000" font-family="sans-serif" font-size="20" lengthAdjust="spacing" textLength="269" x="1034" y="272.1094">getPropertyDealRepository()</text><polygon fill="#181818" points="1021,311.8828,1011,315.8828,1021,319.8828,1017,315.8828" style="stroke:#181818;stroke-width:1.0;"/><line style="stroke:#181818;stroke-width:1.0;stroke-dasharray:2.0,2.0;" x1="1015" x2="1420" y1="315.8828" y2="315.8828"/><text fill="#000000" font-family="sans-serif" font-size="20" font-weight="bold" lengthAdjust="spacing" textLength="13" x="1027" y="309.6641">6</text><text fill="#000000" font-family="sans-serif" font-size="20" lengthAdjust="spacing" textLength="255" x="1044" y="309.6641">getPropertyDealRepository</text><polygon fill="#181818" points="1606,349.4375,1616,353.4375,1606,357.4375,1610,353.4375" style="stroke:#181818;stroke-width:1.0;"/><line style="stroke:#181818;stroke-width:1.0;stroke-dasharray:2.0,2.0;" x1="1010" x2="1612" y1="353.4375" y2="353.4375"/><text fill="#000000" font-family="sans-serif" font-size="20" font-weight="bold" lengthAdjust="spacing" textLength="13" x="1017" y="347.2188">7</text><text fill="#000000" font-family="sans-serif" font-size="20" lengthAdjust="spacing" textLength="265" x="1034" y="347.2188">getPropertiesDealSortByID()</text><polygon fill="#181818" points="1021,386.9922,1011,390.9922,1021,394.9922,1017,390.9922" style="stroke:#181818;stroke-width:1.0;"/><line style="stroke:#181818;stroke-width:1.0;stroke-dasharray:2.0,2.0;" x1="1015" x2="1622" y1="390.9922" y2="390.9922"/><text fill="#000000" font-family="sans-serif" font-size="20" font-weight="bold" lengthAdjust="spacing" textLength="13" x="1027" y="384.7734">8</text><text fill="#000000" font-family="sans-serif" font-size="20" lengthAdjust="spacing" textLength="251" x="1044" y="384.7734">getPropertiesDealSortByID</text><polygon fill="#181818" points="654,424.5469,644,428.5469,654,432.5469,650,428.5469" style="stroke:#181818;stroke-width:1.0;"/><line style="stroke:#181818;stroke-width:1.0;stroke-dasharray:2.0,2.0;" x1="648" x2="1004" y1="428.5469" y2="428.5469"/><text fill="#000000" font-family="sans-serif" font-size="20" font-weight="bold" lengthAdjust="spacing" textLength="13" x="660" y="422.3281">9</text><text fill="#000000" font-family="sans-serif" font-size="20" lengthAdjust="spacing" textLength="251" x="677" y="422.3281">getPropertiesDealSortByID</text><polygon fill="#181818" points="123,485.6563,113,489.6563,123,493.6563,119,489.6563" style="stroke:#181818;stroke-width:1.0;"/><line style="stroke:#181818;stroke-width:1.0;" x1="117" x2="637" y1="489.6563" y2="489.6563"/><text fill="#000000" font-family="sans-serif" font-size="20" font-weight="bold" lengthAdjust="spacing" textLength="26" x="129" y="471.6602">10</text><text fill="#000000" font-family="sans-serif" font-size="20" lengthAdjust="spacing" textLength="418" x="159" y="459.8828">Display list of all properties with deal made</text><text fill="#000000" font-family="sans-serif" font-size="20" lengthAdjust="spacing" textLength="117" x="165" y="483.4375">sorted by ID</text><path d="M10,504.6563 L82,504.6563 L82,520.2109 L72,530.2109 L10,530.2109 L10,504.6563 " fill="#EEEEEE" style="stroke:#000000;stroke-width:1.5;"/><rect fill="none" height="557.4297" style="stroke:#000000;stroke-width:1.5;" width="1745.5" x="10" y="504.6563"/><text fill="#000000" font-family="sans-serif" font-size="20" font-weight="bold" lengthAdjust="spacing" textLength="27" x="25" y="524.9922">alt</text><text fill="#000000" font-family="sans-serif" font-size="20" font-weight="bold" lengthAdjust="spacing" textLength="156" x="97" y="525.9922">[Selection Sort]</text><polygon fill="#181818" points="621,564.3203,631,568.3203,621,572.3203,625,568.3203" style="stroke:#181818;stroke-width:1.0;"/><line style="stroke:#181818;stroke-width:1.0;" x1="112" x2="627" y1="568.3203" y2="568.3203"/><text fill="#000000" font-family="sans-serif" font-size="20" font-weight="bold" lengthAdjust="spacing" textLength="26" x="119" y="562.1016">11</text><text fill="#000000" font-family="sans-serif" font-size="20" lengthAdjust="spacing" textLength="472" x="149" y="562.1016">Select Selection sort descending/ascending order</text><polygon fill="#181818" points="988,601.875,998,605.875,988,609.875,992,605.875" style="stroke:#181818;stroke-width:1.0;"/><line style="stroke:#181818;stroke-width:1.0;" x1="643" x2="994" y1="605.875" y2="605.875"/><text fill="#000000" font-family="sans-serif" font-size="20" font-weight="bold" lengthAdjust="spacing" textLength="26" x="650" y="599.6563">12</text><text fill="#000000" font-family="sans-serif" font-size="20" lengthAdjust="spacing" textLength="308" x="680" y="599.6563">getPropertiesDealSelectionSort()</text><polygon fill="#181818" points="1606,639.4297,1616,643.4297,1606,647.4297,1610,643.4297" style="stroke:#181818;stroke-width:1.0;"/><line style="stroke:#181818;stroke-width:1.0;" x1="1010" x2="1612" y1="643.4297" y2="643.4297"/><text fill="#000000" font-family="sans-serif" font-size="20" font-weight="bold" lengthAdjust="spacing" textLength="26" x="1017" y="637.2109">13</text><text fill="#000000" font-family="sans-serif" font-size="20" lengthAdjust="spacing" textLength="308" x="1047" y="637.2109">getPropertiesDealSelectionSort()</text><polygon fill="#181818" points="1021,676.9844,1011,680.9844,1021,684.9844,1017,680.9844" style="stroke:#181818;stroke-width:1.0;"/><line style="stroke:#181818;stroke-width:1.0;stroke-dasharray:2.0,2.0;" x1="1015" x2="1622" y1="680.9844" y2="680.9844"/><text fill="#000000" font-family="sans-serif" font-size="20" font-weight="bold" lengthAdjust="spacing" textLength="26" x="1027" y="674.7656">14</text><text fill="#000000" font-family="sans-serif" font-size="20" lengthAdjust="spacing" textLength="264" x="1057" y="674.7656">PropertiesDealSelectionSort</text><polygon fill="#181818" points="654,714.5391,644,718.5391,654,722.5391,650,718.5391" style="stroke:#181818;stroke-width:1.0;"/><line style="stroke:#181818;stroke-width:1.0;stroke-dasharray:2.0,2.0;" x1="648" x2="1004" y1="718.5391" y2="718.5391"/><text fill="#000000" font-family="sans-serif" font-size="20" font-weight="bold" lengthAdjust="spacing" textLength="26" x="660" y="712.3203">15</text><text fill="#000000" font-family="sans-serif" font-size="20" lengthAdjust="spacing" textLength="264" x="690" y="712.3203">PropertiesDealSelectionSort</text><polygon fill="#181818" points="123,775.6484,113,779.6484,123,783.6484,119,779.6484" style="stroke:#181818;stroke-width:1.0;"/><line style="stroke:#181818;stroke-width:1.0;" x1="117" x2="637" y1="779.6484" y2="779.6484"/><text fill="#000000" font-family="sans-serif" font-size="20" font-weight="bold" lengthAdjust="spacing" textLength="26" x="129" y="761.6523">16</text><text fill="#000000" font-family="sans-serif" font-size="20" lengthAdjust="spacing" textLength="454" x="159" y="749.875">Displays the list of all properties sorted by area</text><text fill="#000000" font-family="sans-serif" font-size="20" lengthAdjust="spacing" textLength="243" x="165" y="773.4297">using Selection algorithm</text><line style="stroke:#000000;stroke-width:1.0;stroke-dasharray:2.0,2.0;" x1="10" x2="1755.5" y1="788.6484" y2="788.6484"/><text fill="#000000" font-family="sans-serif" font-size="20" font-weight="bold" lengthAdjust="spacing" textLength="155" x="15" y="807.9844">[Insertion Sort]</text><polygon fill="#181818" points="621,838.7578,631,842.7578,621,846.7578,625,842.7578" style="stroke:#181818;stroke-width:1.0;"/><line style="stroke:#181818;stroke-width:1.0;" x1="112" x2="627" y1="842.7578" y2="842.7578"/><text fill="#000000" font-family="sans-serif" font-size="20" font-weight="bold" lengthAdjust="spacing" textLength="26" x="119" y="836.5391">17</text><text fill="#000000" font-family="sans-serif" font-size="20" lengthAdjust="spacing" textLength="470" x="149" y="836.5391">Select Insertion sort descending/ascending order</text><polygon fill="#181818" points="988,876.3125,998,880.3125,988,884.3125,992,880.3125" style="stroke:#181818;stroke-width:1.0;"/><line style="stroke:#181818;stroke-width:1.0;" x1="643" x2="994" y1="880.3125" y2="880.3125"/><text fill="#000000" font-family="sans-serif" font-size="20" font-weight="bold" lengthAdjust="spacing" textLength="26" x="650" y="874.0938">18</text><text fill="#000000" font-family="sans-serif" font-size="20" lengthAdjust="spacing" textLength="306" x="680" y="874.0938">getPropertiesDealInsertionSort()</text><polygon fill="#181818" points="1606,913.8672,1616,917.8672,1606,921.8672,1610,917.8672" style="stroke:#181818;stroke-width:1.0;"/><line style="stroke:#181818;stroke-width:1.0;" x1="1010" x2="1612" y1="917.8672" y2="917.8672"/><text fill="#000000" font-family="sans-serif" font-size="20" font-weight="bold" lengthAdjust="spacing" textLength="26" x="1017" y="911.6484">19</text><text fill="#000000" font-family="sans-serif" font-size="20" lengthAdjust="spacing" textLength="306" x="1047" y="911.6484">getPropertiesDealInsertionSort()</text><polygon fill="#181818" points="1021,951.4219,1011,955.4219,1021,959.4219,1017,955.4219" style="stroke:#181818;stroke-width:1.0;"/><line style="stroke:#181818;stroke-width:1.0;stroke-dasharray:2.0,2.0;" x1="1015" x2="1622" y1="955.4219" y2="955.4219"/><text fill="#000000" font-family="sans-serif" font-size="20" font-weight="bold" lengthAdjust="spacing" textLength="26" x="1027" y="949.2031">20</text><text fill="#000000" font-family="sans-serif" font-size="20" lengthAdjust="spacing" textLength="262" x="1057" y="949.2031">PropertiesDealInsertionSort</text><polygon fill="#181818" points="654,988.9766,644,992.9766,654,996.9766,650,992.9766" style="stroke:#181818;stroke-width:1.0;"/><line style="stroke:#181818;stroke-width:1.0;stroke-dasharray:2.0,2.0;" x1="648" x2="1004" y1="992.9766" y2="992.9766"/><text fill="#000000" font-family="sans-serif" font-size="20" font-weight="bold" lengthAdjust="spacing" textLength="26" x="660" y="986.7578">21</text><text fill="#000000" font-family="sans-serif" font-size="20" lengthAdjust="spacing" textLength="262" x="690" y="986.7578">PropertiesDealInsertionSort</text><polygon fill="#181818" points="123,1050.0859,113,1054.0859,123,1058.0859,119,1054.0859" style="stroke:#181818;stroke-width:1.0;"/><line style="stroke:#181818;stroke-width:1.0;" x1="117" x2="637" y1="1054.0859" y2="1054.0859"/><text fill="#000000" font-family="sans-serif" font-size="20" font-weight="bold" lengthAdjust="spacing" textLength="26" x="129" y="1036.0898">22</text><text fill="#000000" font-family="sans-serif" font-size="20" lengthAdjust="spacing" textLength="454" x="159" y="1024.3125">Displays the list of all properties sorted by area</text><text fill="#000000" font-family="sans-serif" font-size="20" lengthAdjust="spacing" textLength="241" x="165" y="1047.8672">using Insertion algorithm</text><!--SRC=[hPLDZzem48Rl_XKZBjiUKAiUELJQBgg4jD3LibKlN6QJWLWuTcIRqlJNTvmGua32KYqtPC_xpCSxCMuhTO4MSsMIBQMGqXftodytsY_bNu8lduLhGY0tsYIPDJc1jpkARWfCjhYXfIyLWQN4ezweEC1bc9gzr1jOet8a1EwyqRlybQmGTvbC2TR6-5VpHs3YZONHWlpUs2tCKJFPZW0TBEQ2SLucia3jOJGv11rYbiRwNr9peYhwv-ma-icQWgmlVzYKRAt9IVi7RjOQfGv97bwU7q-4prGO9xaiIQwAEHwKInawvLww4XifLleSyFHu_z9LDCLD2LMBdwnqSz4UreIpOt7N0OPfD46L8ZuG8inP_aPFOQfYCOVnLvuOJE3URS4RKD9vGALu9TWno36bLiAZ5HpCaZ0j5cseGNE7eOMGx5ivctxusAggoOfAmSgU6TQWcNQyFmd5qhw1Ypx2-53J168B13Tn4GLDLS6OJZydXiH5LIQAIj6c7LJ6DTJAEcT8UkRbjIFjsGBHXnjVOLMdm1vkq8-RBRc6mgNKIxAOJs0gNQ6mhFVAhAlLAeu4s4kVLQjMRTfAWsCUFqYl9J0JOYYlhlAm9CNlZ6JBGsPE5QrmVHU511WpN48wPTC_OVCBJ7WB1CIR_SPYDz2GTdYxhxHq2DOt_yksNW3_bx7NSPhFFtBMWSzeoDxMJRI4mFxkN1X_Qn6g3N-gFiixMOZ_B80VX82vP7KRSaEhZz1RM3q8Uw_L7V0xh1xYtChgrg81gtNw3m00]--></g></svg>