<?xml version="1.0" encoding="UTF-8" standalone="no"?><svg xmlns="http://www.w3.org/2000/svg" xmlns:xlink="http://www.w3.org/1999/xlink" contentStyleType="text/css" height="1467px" preserveAspectRatio="none" style="width:2189px;height:1467px;background:#FFFFFF;" version="1.1" viewBox="0 0 2189 1467" width="2189px" zoomAndPan="magnify"><defs/><g><rect fill="#FFFFFF" height="1271.9688" style="stroke:#181818;stroke-width:1.0;" width="10" x="102" y="98.5547"/><rect fill="#FFFFFF" height="37.5547" style="stroke:#181818;stroke-width:1.0;" width="10" x="633" y="128.1094"/><rect fill="#FFFFFF" height="586.875" style="stroke:#181818;stroke-width:1.0;" width="10" x="633" y="203.2188"/><rect fill="#FFFFFF" height="211.3281" style="stroke:#181818;stroke-width:1.0;" width="10" x="633" y="868.7578"/><rect fill="#FFFFFF" height="211.3281" style="stroke:#181818;stroke-width:1.0;" width="10" x="633" y="1143.1953"/><rect fill="#FFFFFF" height="112.6641" style="stroke:#181818;stroke-width:1.0;" width="10" x="1000" y="616.3203"/><rect fill="#FFFFFF" height="112.6641" style="stroke:#181818;stroke-width:1.0;" width="10" x="1000" y="906.3125"/><rect fill="#FFFFFF" height="112.6641" style="stroke:#181818;stroke-width:1.0;" width="10" x="1000" y="1180.75"/><rect fill="#FFFFFF" height="337.9922" style="stroke:#181818;stroke-width:1.0;" width="10" x="1285" y="240.7734"/><rect fill="#FFFFFF" height="262.8828" style="stroke:#181818;stroke-width:1.0;" width="10" x="1454" y="278.3281"/><rect fill="#FFFFFF" height="112.6641" style="stroke:#181818;stroke-width:1.0;" width="10" x="1730" y="315.8828"/><rect fill="#FFFFFF" height="37.5547" style="stroke:#181818;stroke-width:1.0;" width="10" x="2045" y="353.4375"/><rect fill="#FFFFFF" height="37.5547" style="stroke:#181818;stroke-width:1.0;" width="10" x="2045" y="466.1016"/><rect fill="#FFFFFF" height="37.5547" style="stroke:#181818;stroke-width:1.0;" width="10" x="2045" y="653.875"/><rect fill="#FFFFFF" height="37.5547" style="stroke:#181818;stroke-width:1.0;" width="10" x="2045" y="943.8672"/><rect fill="#FFFFFF" height="37.5547" style="stroke:#181818;stroke-width:1.0;" width="10" x="2045" y="1218.3047"/><rect fill="none" height="557.4297" style="stroke:#000000;stroke-width:1.5;" width="2172.5" x="10" y="805.0938"/><line style="stroke:#181818;stroke-width:0.5;stroke-dasharray:5.0,5.0;" x1="107" x2="107" y1="88.5547" y2="1379.5234"/><line style="stroke:#181818;stroke-width:0.5;stroke-dasharray:5.0,5.0;" x1="637.5" x2="637.5" y1="88.5547" y2="1379.5234"/><line style="stroke:#181818;stroke-width:0.5;stroke-dasharray:5.0,5.0;" x1="1004.5" x2="1004.5" y1="88.5547" y2="1379.5234"/><line style="stroke:#181818;stroke-width:0.5;stroke-dasharray:5.0,5.0;" x1="1289.5" x2="1289.5" y1="88.5547" y2="1379.5234"/><line style="stroke:#181818;stroke-width:0.5;stroke-dasharray:5.0,5.0;" x1="1458.5" x2="1458.5" y1="88.5547" y2="1379.5234"/><line style="stroke:#181818;stroke-width:0.5;stroke-dasharray:5.0,5.0;" x1="1734.5" x2="1734.5" y1="88.5547" y2="1379.5234"/><line style="stroke:#181818;stroke-width:0.5;stroke-dasharray:5.0,5.0;" x1="2049.5" x2="2049.5" y1="88.5547" y2="1379.5234"/><text fill="#000000" font-family="sans-serif" font-size="20" lengthAdjust="spacing" textLength="168" x="20" y="84.3359">Network Manager</text><ellipse cx="107" cy="13.5" fill="#E3E3E3" rx="8" ry="8" style="stroke:#181818;stroke-width:0.5;"/><path d="M107,21.5 L107,48.5 M94,29.5 L120,29.5 M107,48.5 L94,63.5 M107,48.5 L120,63.5 " fill="none" style="stroke:#181818;stroke-width:0.5;"/><text fill="#000000" font-family="sans-serif" font-size="20" lengthAdjust="spacing" textLength="168" x="20" y="1397.8594">Network Manager</text><ellipse cx="107" cy="1410.5781" fill="#E3E3E3" rx="8" ry="8" style="stroke:#181818;stroke-width:0.5;"/><path d="M107,1418.5781 L107,1445.5781 M94,1426.5781 L120,1426.5781 M107,1445.5781 L94,1460.5781 M107,1445.5781 L120,1460.5781 " fill="none" style="stroke:#181818;stroke-width:0.5;"/><rect fill="#E3E3E3" height="37.5547" rx="2.5" ry="2.5" style="stroke:#181818;stroke-width:0.5;" width="295" x="490.5" y="50"/><text fill="#000000" font-family="sans-serif" font-size="20" lengthAdjust="spacing" textLength="281" x="497.5" y="76.3359">:NetworkManagerSortWindow</text><rect fill="#E3E3E3" height="37.5547" rx="2.5" ry="2.5" style="stroke:#181818;stroke-width:0.5;" width="295" x="490.5" y="1378.5234"/><text fill="#000000" font-family="sans-serif" font-size="20" lengthAdjust="spacing" textLength="281" x="497.5" y="1404.8594">:NetworkManagerSortWindow</text><rect fill="#E3E3E3" height="37.5547" rx="2.5" ry="2.5" style="stroke:#181818;stroke-width:0.5;" width="375" x="817.5" y="50"/><text fill="#000000" font-family="sans-serif" font-size="20" lengthAdjust="spacing" textLength="361" x="824.5" y="76.3359">:PropertyOrderManagementController</text><rect fill="#E3E3E3" height="37.5547" rx="2.5" ry="2.5" style="stroke:#181818;stroke-width:0.5;" width="375" x="817.5" y="1378.5234"/><text fill="#000000" font-family="sans-serif" font-size="20" lengthAdjust="spacing" textLength="361" x="824.5" y="1404.8594">:PropertyOrderManagementController</text><rect fill="#E3E3E3" height="37.5547" rx="2.5" ry="2.5" style="stroke:#181818;stroke-width:0.5;" width="175" x="1202.5" y="50"/><text fill="#000000" font-family="sans-serif" font-size="20" lengthAdjust="spacing" textLength="161" x="1209.5" y="76.3359">ImportController</text><rect fill="#E3E3E3" height="37.5547" rx="2.5" ry="2.5" style="stroke:#181818;stroke-width:0.5;" width="175" x="1202.5" y="1378.5234"/><text fill="#000000" font-family="sans-serif" font-size="20" lengthAdjust="spacing" textLength="161" x="1209.5" y="1404.8594">ImportController</text><rect fill="#E3E3E3" height="37.5547" rx="2.5" ry="2.5" style="stroke:#181818;stroke-width:0.5;" width="117" x="1400.5" y="50"/><text fill="#000000" font-family="sans-serif" font-size="20" lengthAdjust="spacing" textLength="103" x="1407.5" y="76.3359">CSVImport</text><rect fill="#E3E3E3" height="37.5547" rx="2.5" ry="2.5" style="stroke:#181818;stroke-width:0.5;" width="117" x="1400.5" y="1378.5234"/><text fill="#000000" font-family="sans-serif" font-size="20" lengthAdjust="spacing" textLength="103" x="1407.5" y="1404.8594">CSVImport</text><rect fill="#E3E3E3" height="61.1094" rx="2.5" ry="2.5" style="stroke:#181818;stroke-width:0.5;" width="139" x="1665.5" y="26.4453"/><text fill="#000000" font-family="sans-serif" font-size="20" lengthAdjust="spacing" textLength="114" x="1678" y="52.7813">repositories</text><text fill="#000000" font-family="sans-serif" font-size="20" lengthAdjust="spacing" textLength="125" x="1672.5" y="76.3359">:Repositories</text><rect fill="#E3E3E3" height="61.1094" rx="2.5" ry="2.5" style="stroke:#181818;stroke-width:0.5;" width="139" x="1665.5" y="1378.5234"/><text fill="#000000" font-family="sans-serif" font-size="20" lengthAdjust="spacing" textLength="114" x="1678" y="1404.8594">repositories</text><text fill="#000000" font-family="sans-serif" font-size="20" lengthAdjust="spacing" textLength="125" x="1672.5" y="1428.4141">:Repositories</text><rect fill="#E3E3E3" height="61.1094" rx="2.5" ry="2.5" style="stroke:#181818;stroke-width:0.5;" width="245" x="1927.5" y="26.4453"/><text fill="#000000" font-family="sans-serif" font-size="20" lengthAdjust="spacing" textLength="231" x="1934.5" y="52.7813">PropertyDealRepository:</text><text fill="#000000" font-family="sans-serif" font-size="20" lengthAdjust="spacing" textLength="182" x="1959" y="76.3359">PropertyRepository</text><rect fill="#E3E3E3" height="61.1094" rx="2.5" ry="2.5" style="stroke:#181818;stroke-width:0.5;" width="245" x="1927.5" y="1378.5234"/><text fill="#000000" font-family="sans-serif" font-size="20" lengthAdjust="spacing" textLength="231" x="1934.5" y="1404.8594">PropertyDealRepository:</text><text fill="#000000" font-family="sans-serif" font-size="20" lengthAdjust="spacing" textLength="182" x="1959" y="1428.4141">PropertyRepository</text><rect fill="#FFFFFF" height="1271.9688" style="stroke:#181818;stroke-width:1.0;" width="10" x="102" y="98.5547"/><rect fill="#FFFFFF" height="37.5547" style="stroke:#181818;stroke-width:1.0;" width="10" x="633" y="128.1094"/><rect fill="#FFFFFF" height="586.875" style="stroke:#181818;stroke-width:1.0;" width="10" x="633" y="203.2188"/><rect fill="#FFFFFF" height="211.3281" style="stroke:#181818;stroke-width:1.0;" width="10" x="633" y="868.7578"/><rect fill="#FFFFFF" height="211.3281" style="stroke:#181818;stroke-width:1.0;" width="10" x="633" y="1143.1953"/><rect fill="#FFFFFF" height="112.6641" style="stroke:#181818;stroke-width:1.0;" width="10" x="1000" y="616.3203"/><rect fill="#FFFFFF" height="112.6641" style="stroke:#181818;stroke-width:1.0;" width="10" x="1000" y="906.3125"/><rect fill="#FFFFFF" height="112.6641" style="stroke:#181818;stroke-width:1.0;" width="10" x="1000" y="1180.75"/><rect fill="#FFFFFF" height="337.9922" style="stroke:#181818;stroke-width:1.0;" width="10" x="1285" y="240.7734"/><rect fill="#FFFFFF" height="262.8828" style="stroke:#181818;stroke-width:1.0;" width="10" x="1454" y="278.3281"/><rect fill="#FFFFFF" height="112.6641" style="stroke:#181818;stroke-width:1.0;" width="10" x="1730" y="315.8828"/><rect fill="#FFFFFF" height="37.5547" style="stroke:#181818;stroke-width:1.0;" width="10" x="2045" y="353.4375"/><rect fill="#FFFFFF" height="37.5547" style="stroke:#181818;stroke-width:1.0;" width="10" x="2045" y="466.1016"/><rect fill="#FFFFFF" height="37.5547" style="stroke:#181818;stroke-width:1.0;" width="10" x="2045" y="653.875"/><rect fill="#FFFFFF" height="37.5547" style="stroke:#181818;stroke-width:1.0;" width="10" x="2045" y="943.8672"/><rect fill="#FFFFFF" height="37.5547" style="stroke:#181818;stroke-width:1.0;" width="10" x="2045" y="1218.3047"/><polygon fill="#181818" points="621,124.1094,631,128.1094,621,132.1094,625,128.1094" style="stroke:#181818;stroke-width:1.0;"/><line style="stroke:#181818;stroke-width:1.0;" x1="112" x2="627" y1="128.1094" y2="128.1094"/><text fill="#000000" font-family="sans-serif" font-size="20" font-weight="bold" lengthAdjust="spacing" textLength="13" x="119" y="121.8906">1</text><text fill="#000000" font-family="sans-serif" font-size="20" lengthAdjust="spacing" textLength="242" x="136" y="121.8906">Ask to list all deals made</text><polygon fill="#181818" points="123,161.6641,113,165.6641,123,169.6641,119,165.6641" style="stroke:#181818;stroke-width:1.0;"/><line style="stroke:#181818;stroke-width:1.0;" x1="117" x2="637" y1="165.6641" y2="165.6641"/><text fill="#000000" font-family="sans-serif" font-size="20" font-weight="bold" lengthAdjust="spacing" textLength="13" x="129" y="159.4453">2</text><text fill="#000000" font-family="sans-serif" font-size="20" lengthAdjust="spacing" textLength="264" x="146" y="159.4453">displays options import file</text><polygon fill="#181818" points="621,199.2188,631,203.2188,621,207.2188,625,203.2188" style="stroke:#181818;stroke-width:1.0;"/><line style="stroke:#181818;stroke-width:1.0;" x1="112" x2="627" y1="203.2188" y2="203.2188"/><text fill="#000000" font-family="sans-serif" font-size="20" font-weight="bold" lengthAdjust="spacing" textLength="13" x="119" y="197">3</text><text fill="#000000" font-family="sans-serif" font-size="20" lengthAdjust="spacing" textLength="198" x="136" y="197">Selects file to import</text><polygon fill="#181818" points="1273,236.7734,1283,240.7734,1273,244.7734,1277,240.7734" style="stroke:#181818;stroke-width:1.0;"/><line style="stroke:#181818;stroke-width:1.0;" x1="643" x2="1279" y1="240.7734" y2="240.7734"/><text fill="#000000" font-family="sans-serif" font-size="20" font-weight="bold" lengthAdjust="spacing" textLength="13" x="650" y="234.5547">4</text><text fill="#000000" font-family="sans-serif" font-size="20" lengthAdjust="spacing" textLength="108" x="667" y="234.5547">onBtImport</text><polygon fill="#181818" points="1442,274.3281,1452,278.3281,1442,282.3281,1446,278.3281" style="stroke:#181818;stroke-width:1.0;"/><line style="stroke:#181818;stroke-width:1.0;" x1="1295" x2="1448" y1="278.3281" y2="278.3281"/><text fill="#000000" font-family="sans-serif" font-size="20" font-weight="bold" lengthAdjust="spacing" textLength="13" x="1302" y="272.1094">5</text><text fill="#000000" font-family="sans-serif" font-size="20" lengthAdjust="spacing" textLength="123" x="1319" y="272.1094">importData()</text><polygon fill="#181818" points="1718,311.8828,1728,315.8828,1718,319.8828,1722,315.8828" style="stroke:#181818;stroke-width:1.0;"/><line style="stroke:#181818;stroke-width:1.0;" x1="1464" x2="1724" y1="315.8828" y2="315.8828"/><text fill="#000000" font-family="sans-serif" font-size="20" font-weight="bold" lengthAdjust="spacing" textLength="13" x="1471" y="309.6641">6</text><text fill="#000000" font-family="sans-serif" font-size="20" lengthAdjust="spacing" textLength="123" x="1488" y="309.6641">getInstance()</text><polygon fill="#181818" points="2033,349.4375,2043,353.4375,2033,357.4375,2037,353.4375" style="stroke:#181818;stroke-width:1.0;"/><line style="stroke:#181818;stroke-width:1.0;" x1="1740" x2="2039" y1="353.4375" y2="353.4375"/><text fill="#000000" font-family="sans-serif" font-size="20" font-weight="bold" lengthAdjust="spacing" textLength="13" x="1747" y="347.2188">7</text><text fill="#000000" font-family="sans-serif" font-size="20" lengthAdjust="spacing" textLength="269" x="1764" y="347.2188">getPropertyDealRepository()</text><polygon fill="#181818" points="1751,386.9922,1741,390.9922,1751,394.9922,1747,390.9922" style="stroke:#181818;stroke-width:1.0;"/><line style="stroke:#181818;stroke-width:1.0;" x1="1745" x2="2049" y1="390.9922" y2="390.9922"/><text fill="#000000" font-family="sans-serif" font-size="20" font-weight="bold" lengthAdjust="spacing" textLength="13" x="1757" y="384.7734">8</text><text fill="#000000" font-family="sans-serif" font-size="20" lengthAdjust="spacing" textLength="225" x="1774" y="384.7734">PropertyDealRepository</text><polygon fill="#181818" points="1475,424.5469,1465,428.5469,1475,432.5469,1471,428.5469" style="stroke:#181818;stroke-width:1.0;"/><line style="stroke:#181818;stroke-width:1.0;" x1="1469" x2="1734" y1="428.5469" y2="428.5469"/><text fill="#000000" font-family="sans-serif" font-size="20" font-weight="bold" lengthAdjust="spacing" textLength="13" x="1481" y="422.3281">9</text><text fill="#000000" font-family="sans-serif" font-size="20" lengthAdjust="spacing" textLength="225" x="1498" y="422.3281">PropertyDealRepository</text><polygon fill="#181818" points="2033,462.1016,2043,466.1016,2033,470.1016,2037,466.1016" style="stroke:#181818;stroke-width:1.0;"/><line style="stroke:#181818;stroke-width:1.0;" x1="1464" x2="2039" y1="466.1016" y2="466.1016"/><text fill="#000000" font-family="sans-serif" font-size="20" font-weight="bold" lengthAdjust="spacing" textLength="26" x="1471" y="459.8828">10</text><text fill="#000000" font-family="sans-serif" font-size="20" lengthAdjust="spacing" textLength="117" x="1501" y="459.8828">importCSV()</text><polygon fill="#181818" points="1475,499.6563,1465,503.6563,1475,507.6563,1471,503.6563" style="stroke:#181818;stroke-width:1.0;"/><line style="stroke:#181818;stroke-width:1.0;" x1="1469" x2="2049" y1="503.6563" y2="503.6563"/><text fill="#000000" font-family="sans-serif" font-size="20" font-weight="bold" lengthAdjust="spacing" textLength="26" x="1481" y="497.4375">11</text><text fill="#000000" font-family="sans-serif" font-size="20" lengthAdjust="spacing" textLength="73" x="1511" y="497.4375">success</text><polygon fill="#181818" points="1306,537.2109,1296,541.2109,1306,545.2109,1302,541.2109" style="stroke:#181818;stroke-width:1.0;"/><line style="stroke:#181818;stroke-width:1.0;" x1="1300" x2="1458" y1="541.2109" y2="541.2109"/><text fill="#000000" font-family="sans-serif" font-size="20" font-weight="bold" lengthAdjust="spacing" textLength="26" x="1312" y="534.9922">12</text><text fill="#000000" font-family="sans-serif" font-size="20" lengthAdjust="spacing" textLength="73" x="1342" y="534.9922">success</text><polygon fill="#181818" points="654,574.7656,644,578.7656,654,582.7656,650,578.7656" style="stroke:#181818;stroke-width:1.0;"/><line style="stroke:#181818;stroke-width:1.0;" x1="648" x2="1289" y1="578.7656" y2="578.7656"/><text fill="#000000" font-family="sans-serif" font-size="20" font-weight="bold" lengthAdjust="spacing" textLength="26" x="660" y="572.5469">13</text><text fill="#000000" font-family="sans-serif" font-size="20" lengthAdjust="spacing" textLength="73" x="690" y="572.5469">success</text><polygon fill="#181818" points="988,612.3203,998,616.3203,988,620.3203,992,616.3203" style="stroke:#181818;stroke-width:1.0;"/><line style="stroke:#181818;stroke-width:1.0;" x1="643" x2="994" y1="616.3203" y2="616.3203"/><text fill="#000000" font-family="sans-serif" font-size="20" font-weight="bold" lengthAdjust="spacing" textLength="26" x="650" y="610.1016">14</text><text fill="#000000" font-family="sans-serif" font-size="20" lengthAdjust="spacing" textLength="265" x="680" y="610.1016">getPropertiesDealSortByID()</text><polygon fill="#181818" points="2033,649.875,2043,653.875,2033,657.875,2037,653.875" style="stroke:#181818;stroke-width:1.0;"/><line style="stroke:#181818;stroke-width:1.0;stroke-dasharray:2.0,2.0;" x1="1010" x2="2039" y1="653.875" y2="653.875"/><text fill="#000000" font-family="sans-serif" font-size="20" font-weight="bold" lengthAdjust="spacing" textLength="26" x="1017" y="647.6563">15</text><text fill="#000000" font-family="sans-serif" font-size="20" lengthAdjust="spacing" textLength="265" x="1047" y="647.6563">getPropertiesDealSortByID()</text><polygon fill="#181818" points="1021,687.4297,1011,691.4297,1021,695.4297,1017,691.4297" style="stroke:#181818;stroke-width:1.0;"/><line style="stroke:#181818;stroke-width:1.0;stroke-dasharray:2.0,2.0;" x1="1015" x2="2049" y1="691.4297" y2="691.4297"/><text fill="#000000" font-family="sans-serif" font-size="20" font-weight="bold" lengthAdjust="spacing" textLength="26" x="1027" y="685.2109">16</text><text fill="#000000" font-family="sans-serif" font-size="20" lengthAdjust="spacing" textLength="251" x="1057" y="685.2109">getPropertiesDealSortByID</text><polygon fill="#181818" points="654,724.9844,644,728.9844,654,732.9844,650,728.9844" style="stroke:#181818;stroke-width:1.0;"/><line style="stroke:#181818;stroke-width:1.0;stroke-dasharray:2.0,2.0;" x1="648" x2="1004" y1="728.9844" y2="728.9844"/><text fill="#000000" font-family="sans-serif" font-size="20" font-weight="bold" lengthAdjust="spacing" textLength="26" x="660" y="722.7656">17</text><text fill="#000000" font-family="sans-serif" font-size="20" lengthAdjust="spacing" textLength="251" x="690" y="722.7656">getPropertiesDealSortByID</text><polygon fill="#181818" points="123,786.0938,113,790.0938,123,794.0938,119,790.0938" style="stroke:#181818;stroke-width:1.0;"/><line style="stroke:#181818;stroke-width:1.0;" x1="117" x2="637" y1="790.0938" y2="790.0938"/><text fill="#000000" font-family="sans-serif" font-size="20" font-weight="bold" lengthAdjust="spacing" textLength="26" x="129" y="772.0977">18</text><text fill="#000000" font-family="sans-serif" font-size="20" lengthAdjust="spacing" textLength="418" x="159" y="760.3203">Display list of all properties with deal made</text><text fill="#000000" font-family="sans-serif" font-size="20" lengthAdjust="spacing" textLength="117" x="165" y="783.875">sorted by ID</text><path d="M10,805.0938 L82,805.0938 L82,820.6484 L72,830.6484 L10,830.6484 L10,805.0938 " fill="#EEEEEE" style="stroke:#000000;stroke-width:1.5;"/><rect fill="none" height="557.4297" style="stroke:#000000;stroke-width:1.5;" width="2172.5" x="10" y="805.0938"/><text fill="#000000" font-family="sans-serif" font-size="20" font-weight="bold" lengthAdjust="spacing" textLength="27" x="25" y="825.4297">alt</text><text fill="#000000" font-family="sans-serif" font-size="20" font-weight="bold" lengthAdjust="spacing" textLength="156" x="97" y="826.4297">[Selection Sort]</text><polygon fill="#181818" points="621,864.7578,631,868.7578,621,872.7578,625,868.7578" style="stroke:#181818;stroke-width:1.0;"/><line style="stroke:#181818;stroke-width:1.0;" x1="112" x2="627" y1="868.7578" y2="868.7578"/><text fill="#000000" font-family="sans-serif" font-size="20" font-weight="bold" lengthAdjust="spacing" textLength="26" x="119" y="862.5391">19</text><text fill="#000000" font-family="sans-serif" font-size="20" lengthAdjust="spacing" textLength="472" x="149" y="862.5391">Select Selection sort descending/ascending order</text><polygon fill="#181818" points="988,902.3125,998,906.3125,988,910.3125,992,906.3125" style="stroke:#181818;stroke-width:1.0;"/><line style="stroke:#181818;stroke-width:1.0;" x1="643" x2="994" y1="906.3125" y2="906.3125"/><text fill="#000000" font-family="sans-serif" font-size="20" font-weight="bold" lengthAdjust="spacing" textLength="26" x="650" y="900.0938">20</text><text fill="#000000" font-family="sans-serif" font-size="20" lengthAdjust="spacing" textLength="308" x="680" y="900.0938">getPropertiesDealSelectionSort()</text><polygon fill="#181818" points="2033,939.8672,2043,943.8672,2033,947.8672,2037,943.8672" style="stroke:#181818;stroke-width:1.0;"/><line style="stroke:#181818;stroke-width:1.0;" x1="1010" x2="2039" y1="943.8672" y2="943.8672"/><text fill="#000000" font-family="sans-serif" font-size="20" font-weight="bold" lengthAdjust="spacing" textLength="26" x="1017" y="937.6484">21</text><text fill="#000000" font-family="sans-serif" font-size="20" lengthAdjust="spacing" textLength="308" x="1047" y="937.6484">getPropertiesDealSelectionSort()</text><polygon fill="#181818" points="1021,977.4219,1011,981.4219,1021,985.4219,1017,981.4219" style="stroke:#181818;stroke-width:1.0;"/><line style="stroke:#181818;stroke-width:1.0;stroke-dasharray:2.0,2.0;" x1="1015" x2="2049" y1="981.4219" y2="981.4219"/><text fill="#000000" font-family="sans-serif" font-size="20" font-weight="bold" lengthAdjust="spacing" textLength="26" x="1027" y="975.2031">22</text><text fill="#000000" font-family="sans-serif" font-size="20" lengthAdjust="spacing" textLength="264" x="1057" y="975.2031">PropertiesDealSelectionSort</text><polygon fill="#181818" points="654,1014.9766,644,1018.9766,654,1022.9766,650,1018.9766" style="stroke:#181818;stroke-width:1.0;"/><line style="stroke:#181818;stroke-width:1.0;stroke-dasharray:2.0,2.0;" x1="648" x2="1004" y1="1018.9766" y2="1018.9766"/><text fill="#000000" font-family="sans-serif" font-size="20" font-weight="bold" lengthAdjust="spacing" textLength="26" x="660" y="1012.7578">23</text><text fill="#000000" font-family="sans-serif" font-size="20" lengthAdjust="spacing" textLength="264" x="690" y="1012.7578">PropertiesDealSelectionSort</text><polygon fill="#181818" points="123,1076.0859,113,1080.0859,123,1084.0859,119,1080.0859" style="stroke:#181818;stroke-width:1.0;"/><line style="stroke:#181818;stroke-width:1.0;" x1="117" x2="637" y1="1080.0859" y2="1080.0859"/><text fill="#000000" font-family="sans-serif" font-size="20" font-weight="bold" lengthAdjust="spacing" textLength="26" x="129" y="1062.0898">24</text><text fill="#000000" font-family="sans-serif" font-size="20" lengthAdjust="spacing" textLength="454" x="159" y="1050.3125">Displays the list of all properties sorted by area</text><text fill="#000000" font-family="sans-serif" font-size="20" lengthAdjust="spacing" textLength="243" x="165" y="1073.8672">using Selection algorithm</text><line style="stroke:#000000;stroke-width:1.0;stroke-dasharray:2.0,2.0;" x1="10" x2="2182.5" y1="1089.0859" y2="1089.0859"/><text fill="#000000" font-family="sans-serif" font-size="20" font-weight="bold" lengthAdjust="spacing" textLength="155" x="15" y="1108.4219">[Insertion Sort]</text><polygon fill="#181818" points="621,1139.1953,631,1143.1953,621,1147.1953,625,1143.1953" style="stroke:#181818;stroke-width:1.0;"/><line style="stroke:#181818;stroke-width:1.0;" x1="112" x2="627" y1="1143.1953" y2="1143.1953"/><text fill="#000000" font-family="sans-serif" font-size="20" font-weight="bold" lengthAdjust="spacing" textLength="26" x="119" y="1136.9766">25</text><text fill="#000000" font-family="sans-serif" font-size="20" lengthAdjust="spacing" textLength="470" x="149" y="1136.9766">Select Insertion sort descending/ascending order</text><polygon fill="#181818" points="988,1176.75,998,1180.75,988,1184.75,992,1180.75" style="stroke:#181818;stroke-width:1.0;"/><line style="stroke:#181818;stroke-width:1.0;" x1="643" x2="994" y1="1180.75" y2="1180.75"/><text fill="#000000" font-family="sans-serif" font-size="20" font-weight="bold" lengthAdjust="spacing" textLength="26" x="650" y="1174.5313">26</text><text fill="#000000" font-family="sans-serif" font-size="20" lengthAdjust="spacing" textLength="306" x="680" y="1174.5313">getPropertiesDealInsertionSort()</text><polygon fill="#181818" points="2033,1214.3047,2043,1218.3047,2033,1222.3047,2037,1218.3047" style="stroke:#181818;stroke-width:1.0;"/><line style="stroke:#181818;stroke-width:1.0;" x1="1010" x2="2039" y1="1218.3047" y2="1218.3047"/><text fill="#000000" font-family="sans-serif" font-size="20" font-weight="bold" lengthAdjust="spacing" textLength="26" x="1017" y="1212.0859">27</text><text fill="#000000" font-family="sans-serif" font-size="20" lengthAdjust="spacing" textLength="306" x="1047" y="1212.0859">getPropertiesDealInsertionSort()</text><polygon fill="#181818" points="1021,1251.8594,1011,1255.8594,1021,1259.8594,1017,1255.8594" style="stroke:#181818;stroke-width:1.0;"/><line style="stroke:#181818;stroke-width:1.0;stroke-dasharray:2.0,2.0;" x1="1015" x2="2049" y1="1255.8594" y2="1255.8594"/><text fill="#000000" font-family="sans-serif" font-size="20" font-weight="bold" lengthAdjust="spacing" textLength="26" x="1027" y="1249.6406">28</text><text fill="#000000" font-family="sans-serif" font-size="20" lengthAdjust="spacing" textLength="262" x="1057" y="1249.6406">PropertiesDealInsertionSort</text><polygon fill="#181818" points="654,1289.4141,644,1293.4141,654,1297.4141,650,1293.4141" style="stroke:#181818;stroke-width:1.0;"/><line style="stroke:#181818;stroke-width:1.0;stroke-dasharray:2.0,2.0;" x1="648" x2="1004" y1="1293.4141" y2="1293.4141"/><text fill="#000000" font-family="sans-serif" font-size="20" font-weight="bold" lengthAdjust="spacing" textLength="26" x="660" y="1287.1953">29</text><text fill="#000000" font-family="sans-serif" font-size="20" lengthAdjust="spacing" textLength="262" x="690" y="1287.1953">PropertiesDealInsertionSort</text><polygon fill="#181818" points="123,1350.5234,113,1354.5234,123,1358.5234,119,1354.5234" style="stroke:#181818;stroke-width:1.0;"/><line style="stroke:#181818;stroke-width:1.0;" x1="117" x2="637" y1="1354.5234" y2="1354.5234"/><text fill="#000000" font-family="sans-serif" font-size="20" font-weight="bold" lengthAdjust="spacing" textLength="26" x="129" y="1336.5273">30</text><text fill="#000000" font-family="sans-serif" font-size="20" lengthAdjust="spacing" textLength="454" x="159" y="1324.75">Displays the list of all properties sorted by area</text><text fill="#000000" font-family="sans-serif" font-size="20" lengthAdjust="spacing" textLength="241" x="165" y="1348.3047">using Insertion algorithm</text><!--SRC=[hPPDRzim38Rl-XL4BziEnOOTVHZGDYWGeCcAfjiklIWsamYH9KDYrcM_VfGSVyLsww7DAPRvFfJuCbJyNfb2Efbhc-unWmmtyg3frXfQgRy8Nxy8NuL0RerDTyxc2EGEs7fJo7GljxYYeqPmc98qMzqEy3kPsMTbjh2HsgCGya3M7F8rEY4-x5I6iB6MrlQFa2bP1nTBf6Vhzh2GXidk0gI7vK8mZbIg2ca8Bf9Jq2bcPHtzKeOJnUWVyxFeUsSBT7JyxZ9qfIP7GpTyM6UrFYMvUNouwmhdUS7aix3pnQxaPlMp32YHrLCto65XlUBJAlHF9dbeFKRP_TtLOrTHdM26KjVXn-J9L2-QnPBGMnQXlkgt90pL5Ci5N7xZIa42LtuFP44hJo2rvbPWfo2N6JOIBgdWO9QmC85C-KBBemTRaBB6WugdX8rYyrdVbWa1_6dbMw7cHl4nE2GkjJ6g8mmBPSxpaZF4cckQ3mXxxiJNFG13Qs-OLcvX9ab-_DJbDGx6zKR4X60JYxT8S-EvyrCyLqSZurAC3PgUCH4mx6yFD-1gXFVMMziRHaTTowbHz6dVxMfD9DPdxnHji09b_JdkRIUk4oNW3scAtayzPcUB0-qsWZlhZg4sYoq_8kytQ_Kh2xC8sft1eo6KEqoww-DyndLgDX7cbX1HSZdOObD9WzKPAlM47OfNgXxqbrLzfb1uAzK4Ic1M3g1oQDbDd5j5JO1dHRiun-8OUpBWcSUttFe8p8GsbEUYfjDCub46gzBDthngXGGOCtoA9kERxREile4D5upeZB5N_AoW8MtVrDBJoPQEmORg_xAjBu3_ozXfdEPkgPtrG3iSixTnKpgKmFuUV2X_Ov7KMxvEQPTtiY3_0m6UrG7pajLDo3jQNKFVm-fHs5kjxe3VOFKOvxsiRYmQiTfa_m00]--></g></svg>