<?xml version="1.0" encoding="UTF-8" standalone="no"?><svg xmlns="http://www.w3.org/2000/svg" xmlns:xlink="http://www.w3.org/1999/xlink" contentStyleType="text/css" height="869px" preserveAspectRatio="none" style="width:1088px;height:869px;background:#FFFFFF;" version="1.1" viewBox="0 0 1088 869" width="1088px" zoomAndPan="magnify"><defs/><g><!--class ImportController--><g id="elem_ImportController"><rect codeLine="8" fill="#F1F1F1" height="73.5547" id="ImportController" rx="2.5" ry="2.5" style="stroke:#181818;stroke-width:0.5;" width="369" x="68.5" y="354"/><ellipse cx="168" cy="371" fill="#ADD1B2" rx="12" ry="12" style="stroke:#181818;stroke-width:1.0;"/><path d="M170.8066,378.0801 Q170.123,378.4316 169.3711,378.6074 Q168.6191,378.7832 167.7891,378.7832 Q164.8398,378.7832 163.2871,376.8398 Q161.7344,374.8965 161.7344,371.2246 Q161.7344,367.543 163.2871,365.5996 Q164.8398,363.6563 167.7891,363.6563 Q168.6191,363.6563 169.3809,363.832 Q170.1426,364.0078 170.8066,364.3594 L170.8066,367.5625 Q170.0645,366.8789 169.3662,366.5615 Q168.668,366.2441 167.9258,366.2441 Q166.3438,366.2441 165.5381,367.499 Q164.7324,368.7539 164.7324,371.2246 Q164.7324,373.6855 165.5381,374.9404 Q166.3438,376.1953 167.9258,376.1953 Q168.668,376.1953 169.3662,375.8779 Q170.0645,375.5605 170.8066,374.877 Z " fill="#000000"/><text fill="#000000" font-family="sans-serif" font-size="20" lengthAdjust="spacing" textLength="161" x="190" y="378.5586">ImportController</text><line style="stroke:#181818;stroke-width:0.5;" x1="69.5" x2="436.5" y1="388" y2="388"/><line style="stroke:#181818;stroke-width:0.5;" x1="69.5" x2="436.5" y1="396" y2="396"/><text fill="#000000" font-family="sans-serif" font-size="20" lengthAdjust="spacing" textLength="357" x="74.5" y="419.3359">+importData(location) : importResult</text></g><!--class PropertyOrderManagementController--><g id="elem_PropertyOrderManagementController"><rect codeLine="12" fill="#F1F1F1" height="73.5547" id="PropertyOrderManagementController" rx="2.5" ry="2.5" style="stroke:#181818;stroke-width:0.5;" width="449" x="472.5" y="354"/><ellipse cx="515.5" cy="371" fill="#ADD1B2" rx="12" ry="12" style="stroke:#181818;stroke-width:1.0;"/><path d="M518.3066,378.0801 Q517.623,378.4316 516.8711,378.6074 Q516.1191,378.7832 515.2891,378.7832 Q512.3398,378.7832 510.7871,376.8398 Q509.2344,374.8965 509.2344,371.2246 Q509.2344,367.543 510.7871,365.5996 Q512.3398,363.6563 515.2891,363.6563 Q516.1191,363.6563 516.8809,363.832 Q517.6426,364.0078 518.3066,364.3594 L518.3066,367.5625 Q517.5645,366.8789 516.8662,366.5615 Q516.168,366.2441 515.4258,366.2441 Q513.8438,366.2441 513.0381,367.499 Q512.2324,368.7539 512.2324,371.2246 Q512.2324,373.6855 513.0381,374.9404 Q513.8438,376.1953 515.4258,376.1953 Q516.168,376.1953 516.8662,375.8779 Q517.5645,375.5605 518.3066,374.877 Z " fill="#000000"/><text fill="#000000" font-family="sans-serif" font-size="20" lengthAdjust="spacing" textLength="355" x="536.5" y="378.5586">PropertyOrderManagementController</text><line style="stroke:#181818;stroke-width:0.5;" x1="473.5" x2="920.5" y1="388" y2="388"/><text fill="#000000" font-family="sans-serif" font-size="20" lengthAdjust="spacing" textLength="437" x="478.5" y="411.3359">-PropertyDealRepository : PropertyRepository</text><line style="stroke:#181818;stroke-width:0.5;" x1="473.5" x2="920.5" y1="419.5547" y2="419.5547"/></g><!--class CSVImport--><g id="elem_CSVImport"><rect codeLine="17" fill="#F1F1F1" height="97.1094" id="CSVImport" rx="2.5" ry="2.5" style="stroke:#181818;stroke-width:0.5;" width="406" x="7" y="501"/><ellipse cx="154" cy="518" fill="#ADD1B2" rx="12" ry="12" style="stroke:#181818;stroke-width:1.0;"/><path d="M156.8066,525.0801 Q156.123,525.4316 155.3711,525.6074 Q154.6191,525.7832 153.7891,525.7832 Q150.8398,525.7832 149.2871,523.8398 Q147.7344,521.8965 147.7344,518.2246 Q147.7344,514.543 149.2871,512.5996 Q150.8398,510.6563 153.7891,510.6563 Q154.6191,510.6563 155.3809,510.832 Q156.1426,511.0078 156.8066,511.3594 L156.8066,514.5625 Q156.0645,513.8789 155.3662,513.5615 Q154.668,513.2441 153.9258,513.2441 Q152.3438,513.2441 151.5381,514.499 Q150.7324,515.7539 150.7324,518.2246 Q150.7324,520.6855 151.5381,521.9404 Q152.3438,523.1953 153.9258,523.1953 Q154.668,523.1953 155.3662,522.8779 Q156.0645,522.5605 156.8066,521.877 Z " fill="#000000"/><text fill="#000000" font-family="sans-serif" font-size="20" lengthAdjust="spacing" textLength="103" x="176" y="525.5586">CSVImport</text><line style="stroke:#181818;stroke-width:0.5;" x1="8" x2="412" y1="535" y2="535"/><text fill="#000000" font-family="sans-serif" font-size="20" lengthAdjust="spacing" textLength="394" x="13" y="558.3359">-PropertyRepository : PropertyRepository</text><line style="stroke:#181818;stroke-width:0.5;" x1="8" x2="412" y1="566.5547" y2="566.5547"/><text fill="#000000" font-family="sans-serif" font-size="20" lengthAdjust="spacing" textLength="139" x="13" y="589.8906">+importData()</text></g><!--class Repositories--><g id="elem_Repositories"><rect codeLine="23" fill="#F1F1F1" height="120.6641" id="Repositories" rx="2.5" ry="2.5" style="stroke:#181818;stroke-width:0.5;" width="497" x="448.5" y="489"/><ellipse cx="633" cy="506" fill="#ADD1B2" rx="12" ry="12" style="stroke:#181818;stroke-width:1.0;"/><path d="M635.8066,513.0801 Q635.123,513.4316 634.3711,513.6074 Q633.6191,513.7832 632.7891,513.7832 Q629.8398,513.7832 628.2871,511.8398 Q626.7344,509.8965 626.7344,506.2246 Q626.7344,502.543 628.2871,500.5996 Q629.8398,498.6563 632.7891,498.6563 Q633.6191,498.6563 634.3809,498.832 Q635.1426,499.0078 635.8066,499.3594 L635.8066,502.5625 Q635.0645,501.8789 634.3662,501.5615 Q633.668,501.2441 632.9258,501.2441 Q631.3438,501.2441 630.5381,502.499 Q629.7324,503.7539 629.7324,506.2246 Q629.7324,508.6855 630.5381,509.9404 Q631.3438,511.1953 632.9258,511.1953 Q633.668,511.1953 634.3662,510.8779 Q635.0645,510.5605 635.8066,509.877 Z " fill="#000000"/><text fill="#000000" font-family="sans-serif" font-size="20" lengthAdjust="spacing" textLength="119" x="655" y="513.5586">Repositories</text><line style="stroke:#181818;stroke-width:0.5;" x1="449.5" x2="944.5" y1="523" y2="523"/><line style="stroke:#181818;stroke-width:0.5;" x1="449.5" x2="944.5" y1="531" y2="531"/><text fill="#000000" font-family="sans-serif" font-size="20" lengthAdjust="spacing" textLength="149" x="454.5" y="554.3359">+Repositories()</text><text fill="#000000" font-family="sans-serif" font-size="20" lengthAdjust="spacing" textLength="276" x="454.5" y="577.8906">+getInstance() : Repositories</text><text fill="#000000" font-family="sans-serif" font-size="20" lengthAdjust="spacing" textLength="485" x="454.5" y="601.4453">+getPropertyDealRepository() : PropertyRepository</text></g><!--class PropertyRepository--><g id="elem_PropertyRepository"><rect codeLine="29" fill="#F1F1F1" height="167.7734" id="PropertyRepository" rx="2.5" ry="2.5" style="stroke:#181818;stroke-width:0.5;" width="686" x="354" y="695"/><ellipse cx="601.5" cy="712" fill="#ADD1B2" rx="12" ry="12" style="stroke:#181818;stroke-width:1.0;"/><path d="M604.3066,719.0801 Q603.623,719.4316 602.8711,719.6074 Q602.1191,719.7832 601.2891,719.7832 Q598.3398,719.7832 596.7871,717.8398 Q595.2344,715.8965 595.2344,712.2246 Q595.2344,708.543 596.7871,706.5996 Q598.3398,704.6563 601.2891,704.6563 Q602.1191,704.6563 602.8809,704.832 Q603.6426,705.0078 604.3066,705.3594 L604.3066,708.5625 Q603.5645,707.8789 602.8662,707.5615 Q602.168,707.2441 601.4258,707.2441 Q599.8438,707.2441 599.0381,708.499 Q598.2324,709.7539 598.2324,712.2246 Q598.2324,714.6855 599.0381,715.9404 Q599.8438,717.1953 601.4258,717.1953 Q602.168,717.1953 602.8662,716.8779 Q603.5645,716.5605 604.3066,715.877 Z " fill="#000000"/><text fill="#000000" font-family="sans-serif" font-size="20" lengthAdjust="spacing" textLength="182" x="623.5" y="719.5586">PropertyRepository</text><line style="stroke:#181818;stroke-width:0.5;" x1="355" x2="1039" y1="729" y2="729"/><line style="stroke:#181818;stroke-width:0.5;" x1="355" x2="1039" y1="737" y2="737"/><text fill="#000000" font-family="sans-serif" font-size="20" lengthAdjust="spacing" textLength="539" x="360" y="760.3359">+getPropertiesSelectionSortByID() : ArrayList&lt;Property&gt;</text><text fill="#000000" font-family="sans-serif" font-size="20" lengthAdjust="spacing" textLength="674" x="360" y="783.8906">+getPropertiesSelectionSortByAreaDescending() : ArrayList&lt;Property&gt;</text><text fill="#000000" font-family="sans-serif" font-size="20" lengthAdjust="spacing" textLength="662" x="360" y="807.4453">+getPropertiesSelectionSortByAreaAscending() : ArrayList&lt;Property&gt;</text><text fill="#000000" font-family="sans-serif" font-size="20" lengthAdjust="spacing" textLength="660" x="360" y="831">+getPropertiesInsertionSortByAreaAscending() : ArrayList&lt;Property&gt;</text><text fill="#000000" font-family="sans-serif" font-size="20" lengthAdjust="spacing" textLength="672" x="360" y="854.5547">+getPropertiesInsertionSortByAreaDescending() : ArrayList&lt;Property&gt;</text></g><!--class NetworkManagerSortWindow--><g id="elem_NetworkManagerSortWindow"><rect codeLine="38" fill="#F1F1F1" height="285.5469" id="NetworkManagerSortWindow" rx="2.5" ry="2.5" style="stroke:#181818;stroke-width:0.5;" width="367" x="290.5" y="7"/><ellipse cx="332.6" cy="24" fill="#ADD1B2" rx="12" ry="12" style="stroke:#181818;stroke-width:1.0;"/><path d="M335.4066,31.0801 Q334.723,31.4316 333.9711,31.6074 Q333.2191,31.7832 332.3891,31.7832 Q329.4398,31.7832 327.8871,29.8398 Q326.3344,27.8965 326.3344,24.2246 Q326.3344,20.543 327.8871,18.5996 Q329.4398,16.6563 332.3891,16.6563 Q333.2191,16.6563 333.9809,16.832 Q334.7426,17.0078 335.4066,17.3594 L335.4066,20.5625 Q334.6645,19.8789 333.9662,19.5615 Q333.268,19.2441 332.5258,19.2441 Q330.9438,19.2441 330.1381,20.499 Q329.3324,21.7539 329.3324,24.2246 Q329.3324,26.6855 330.1381,27.9404 Q330.9438,29.1953 332.5258,29.1953 Q333.268,29.1953 333.9662,28.8779 Q334.6645,28.5605 335.4066,27.877 Z " fill="#000000"/><text fill="#000000" font-family="sans-serif" font-size="20" lengthAdjust="spacing" textLength="275" x="353.4" y="31.5586">NetworkManagerSortWindow</text><line style="stroke:#181818;stroke-width:0.5;" x1="291.5" x2="656.5" y1="41" y2="41"/><text fill="#000000" font-family="sans-serif" font-size="20" lengthAdjust="spacing" textLength="303" x="296.5" y="64.3359">-controller : StatisticsController</text><text fill="#000000" font-family="sans-serif" font-size="20" lengthAdjust="spacing" textLength="348" x="296.5" y="87.8906">-btDescendingSortSelection : Button</text><text fill="#000000" font-family="sans-serif" font-size="20" lengthAdjust="spacing" textLength="336" x="296.5" y="111.4453">-btAscendingSortSelection : Button</text><text fill="#000000" font-family="sans-serif" font-size="20" lengthAdjust="spacing" textLength="346" x="296.5" y="135">-btDescendingSortInsertion : Button</text><text fill="#000000" font-family="sans-serif" font-size="20" lengthAdjust="spacing" textLength="328" x="296.5" y="158.5547">-btAscendingSortInsertion: Button</text><text fill="#000000" font-family="sans-serif" font-size="20" lengthAdjust="spacing" textLength="177" x="296.5" y="182.1094">-btImport : Button</text><text fill="#000000" font-family="sans-serif" font-size="20" lengthAdjust="spacing" textLength="355" x="296.5" y="205.6641">+onbtDescendingSortSelection : void</text><text fill="#000000" font-family="sans-serif" font-size="20" lengthAdjust="spacing" textLength="343" x="296.5" y="229.2188">+onbtAscendingSortSelection : void</text><text fill="#000000" font-family="sans-serif" font-size="20" lengthAdjust="spacing" textLength="353" x="296.5" y="252.7734">+onbtDescendingSortInsertion : void</text><text fill="#000000" font-family="sans-serif" font-size="20" lengthAdjust="spacing" textLength="335" x="296.5" y="276.3281">+onbtAscendingSortInsertion: void</text><line style="stroke:#181818;stroke-width:0.5;" x1="291.5" x2="656.5" y1="284.5469" y2="284.5469"/></g><!--link NetworkManagerSortWindow to PropertyOrderManagementController--><g id="link_NetworkManagerSortWindow_PropertyOrderManagementController"><path codeLine="52" d="M606.94,293.48 C625.87,313.76 643.94,333.13 658.86,349.12 " fill="none" id="NetworkManagerSortWindow-to-PropertyOrderManagementController" style="stroke:#181818;stroke-width:1.0;stroke-dasharray:7.0,7.0;"/><polygon fill="#181818" points="661.95,352.43,658.7321,343.1217,658.5379,348.7752,652.8844,348.581,661.95,352.43" style="stroke:#181818;stroke-width:1.0;"/></g><!--link PropertyOrderManagementController to Repositories--><g id="link_PropertyOrderManagementController_Repositories"><path codeLine="53" d="M697,428.3 C697,444.44 697,463.97 697,482.55 " fill="none" id="PropertyOrderManagementController-to-Repositories" style="stroke:#181818;stroke-width:1.0;stroke-dasharray:7.0,7.0;"/><polygon fill="#181818" points="697,487.29,701,478.29,697,482.29,693,478.29,697,487.29" style="stroke:#181818;stroke-width:1.0;"/></g><!--link NetworkManagerSortWindow to ImportController--><g id="link_NetworkManagerSortWindow_ImportController"><path codeLine="54" d="M342.25,293.48 C323.49,313.76 305.59,333.13 290.8,349.12 " fill="none" id="NetworkManagerSortWindow-to-ImportController" style="stroke:#181818;stroke-width:1.0;stroke-dasharray:7.0,7.0;"/><polygon fill="#181818" points="287.74,352.43,296.79,348.5445,291.1373,348.7615,290.9204,343.1088,287.74,352.43" style="stroke:#181818;stroke-width:1.0;"/></g><!--link ImportController to CSVImport--><g id="link_ImportController_CSVImport"><path codeLine="55" d="M243.03,428.3 C237.63,447.94 230.86,472.59 224.85,494.45 " fill="none" id="ImportController-to-CSVImport" style="stroke:#181818;stroke-width:1.0;stroke-dasharray:7.0,7.0;"/><polygon fill="#181818" points="223.58,499.08,229.8301,491.4684,224.9101,494.2602,222.1183,489.3402,223.58,499.08" style="stroke:#181818;stroke-width:1.0;"/></g><!--link ImportController to Repositories--><g id="link_ImportController_Repositories"><path codeLine="56" d="M356.54,428.49 C405.49,445.75 465.31,466.84 521.08,486.49 " fill="none" id="ImportController-to-Repositories" style="stroke:#181818;stroke-width:1.0;stroke-dasharray:7.0,7.0;"/><polygon fill="#181818" points="525.73,488.13,518.5658,481.3717,521.0129,486.4719,515.9128,488.919,525.73,488.13" style="stroke:#181818;stroke-width:1.0;"/></g><!--link Repositories to Repositories--><g id="link_Repositories_Repositories"><path codeLine="58" d="M945.81,536.19 C967.16,539.02 980.5,543.46 980.5,549.5 C980.5,554.93 969.74,559.06 952.06,561.9 " fill="none" id="Repositories-to-Repositories" style="stroke:#181818;stroke-width:1.0;"/><polygon fill="#181818" points="947.31,562.59,956.7971,565.2348,952.2566,561.8609,955.6305,557.3203,947.31,562.59" style="stroke:#181818;stroke-width:1.0;"/><text fill="#000000" font-family="sans-serif" font-size="20" lengthAdjust="spacing" textLength="89" x="986.5" y="557.3359">instances</text></g><!--link Repositories to PropertyRepository--><g id="link_Repositories_PropertyRepository"><path codeLine="59" d="M697,610.27 C697,634.16 697,662.18 697,688.41 " fill="none" id="Repositories-to-PropertyRepository" style="stroke:#181818;stroke-width:1.0;"/><polygon fill="#181818" points="697,693.17,701,684.17,697,688.17,693,684.17,697,693.17" style="stroke:#181818;stroke-width:1.0;"/><text fill="#000000" font-family="sans-serif" font-size="20" lengthAdjust="spacing" textLength="33" x="698" y="660.3359">has</text></g><!--SRC=[jPJRIWCn48RlynIvLAHIl1GHLejGy4GNz7hCJcjecYp9rBAAx-vasptrZE9UxMR-V9b_TZ9XgcqE7cR6gIbcCiCnp0tTEKkf_aHvqHUXaiWSr1Gcc59XK7fK17PYi2K8xv2vXROJEGOJsX6ZBLAHeyoTAU97AwOCX90GUVqs9nmgPykZ-uAVCYQ7iznvkkMal3C6lVmIafypgSl000XEs02GTlPKNgwMHnZOYlYkAC_UvUYfUF8P-WUmR6M6TXFRguG313F2t0LDpXVChGBDecZmj-dBCiyroY52wQHbv3GYLynQfZ5KfjjhB2xN9aX36_X_A3o91MXhQiLsMwL-IreRPMjYN-j8FYL5mmt1zK_Pnqqn79JSn7iexdMWgufoVNXluX4661JQZ5lfRvpa5nYkP7pv1ymHhfgwFo8jd9yk6zL7oAksVBrMxQMQjhsKAN7l1z8gDDsybBrHSsXar3NYNJTp8cShNNASh8khJUx7rR9rrVB6T3UVERilwm-diqQN72VRdVKUN2lhKXNlvQw_8i_FhmzF675u1aLEv_hkFN5zCegDKHbLzMZQ7kuS9pepfzVhXkDmNGsQiAdSElBU8OWV]--></g></svg>