<?xml version="1.0" encoding="UTF-8" standalone="no"?><svg xmlns="http://www.w3.org/2000/svg" xmlns:xlink="http://www.w3.org/1999/xlink" contentStyleType="text/css" height="963px" preserveAspectRatio="none" style="width:1258px;height:963px;background:#FFFFFF;" version="1.1" viewBox="0 0 1258 963" width="1258px" zoomAndPan="magnify"><defs/><g><!--class ImportController--><g id="elem_ImportController"><rect codeLine="8" fill="#F1F1F1" height="73.5547" id="ImportController" rx="2.5" ry="2.5" style="stroke:#181818;stroke-width:0.5;" width="369" x="47.5" y="401"/><ellipse cx="147" cy="418" fill="#ADD1B2" rx="12" ry="12" style="stroke:#181818;stroke-width:1.0;"/><path d="M149.8066,425.0801 Q149.123,425.4316 148.3711,425.6074 Q147.6191,425.7832 146.7891,425.7832 Q143.8398,425.7832 142.2871,423.8398 Q140.7344,421.8965 140.7344,418.2246 Q140.7344,414.543 142.2871,412.5996 Q143.8398,410.6563 146.7891,410.6563 Q147.6191,410.6563 148.3809,410.832 Q149.1426,411.0078 149.8066,411.3594 L149.8066,414.5625 Q149.0645,413.8789 148.3662,413.5615 Q147.668,413.2441 146.9258,413.2441 Q145.3438,413.2441 144.5381,414.499 Q143.7324,415.7539 143.7324,418.2246 Q143.7324,420.6855 144.5381,421.9404 Q145.3438,423.1953 146.9258,423.1953 Q147.668,423.1953 148.3662,422.8779 Q149.0645,422.5605 149.8066,421.877 Z " fill="#000000"/><text fill="#000000" font-family="sans-serif" font-size="20" lengthAdjust="spacing" textLength="161" x="169" y="425.5586">ImportController</text><line style="stroke:#181818;stroke-width:0.5;" x1="48.5" x2="415.5" y1="435" y2="435"/><line style="stroke:#181818;stroke-width:0.5;" x1="48.5" x2="415.5" y1="443" y2="443"/><text fill="#000000" font-family="sans-serif" font-size="20" lengthAdjust="spacing" textLength="357" x="53.5" y="466.3359">+importData(location) : importResult</text></g><!--class PropertyOrderManagementController--><g id="elem_PropertyOrderManagementController"><rect codeLine="12" fill="#F1F1F1" height="73.5547" id="PropertyOrderManagementController" rx="2.5" ry="2.5" style="stroke:#181818;stroke-width:0.5;" width="449" x="472.5" y="401"/><ellipse cx="515.5" cy="418" fill="#ADD1B2" rx="12" ry="12" style="stroke:#181818;stroke-width:1.0;"/><path d="M518.3066,425.0801 Q517.623,425.4316 516.8711,425.6074 Q516.1191,425.7832 515.2891,425.7832 Q512.3398,425.7832 510.7871,423.8398 Q509.2344,421.8965 509.2344,418.2246 Q509.2344,414.543 510.7871,412.5996 Q512.3398,410.6563 515.2891,410.6563 Q516.1191,410.6563 516.8809,410.832 Q517.6426,411.0078 518.3066,411.3594 L518.3066,414.5625 Q517.5645,413.8789 516.8662,413.5615 Q516.168,413.2441 515.4258,413.2441 Q513.8438,413.2441 513.0381,414.499 Q512.2324,415.7539 512.2324,418.2246 Q512.2324,420.6855 513.0381,421.9404 Q513.8438,423.1953 515.4258,423.1953 Q516.168,423.1953 516.8662,422.8779 Q517.5645,422.5605 518.3066,421.877 Z " fill="#000000"/><text fill="#000000" font-family="sans-serif" font-size="20" lengthAdjust="spacing" textLength="355" x="536.5" y="425.5586">PropertyOrderManagementController</text><line style="stroke:#181818;stroke-width:0.5;" x1="473.5" x2="920.5" y1="435" y2="435"/><text fill="#000000" font-family="sans-serif" font-size="20" lengthAdjust="spacing" textLength="437" x="478.5" y="458.3359">-PropertyDealRepository : PropertyRepository</text><line style="stroke:#181818;stroke-width:0.5;" x1="473.5" x2="920.5" y1="466.5547" y2="466.5547"/></g><!--class CSVImport--><g id="elem_CSVImport"><rect codeLine="17" fill="#F1F1F1" height="97.1094" id="CSVImport" rx="2.5" ry="2.5" style="stroke:#181818;stroke-width:0.5;" width="406" x="7" y="595"/><ellipse cx="154" cy="612" fill="#ADD1B2" rx="12" ry="12" style="stroke:#181818;stroke-width:1.0;"/><path d="M156.8066,619.0801 Q156.123,619.4316 155.3711,619.6074 Q154.6191,619.7832 153.7891,619.7832 Q150.8398,619.7832 149.2871,617.8398 Q147.7344,615.8965 147.7344,612.2246 Q147.7344,608.543 149.2871,606.5996 Q150.8398,604.6563 153.7891,604.6563 Q154.6191,604.6563 155.3809,604.832 Q156.1426,605.0078 156.8066,605.3594 L156.8066,608.5625 Q156.0645,607.8789 155.3662,607.5615 Q154.668,607.2441 153.9258,607.2441 Q152.3438,607.2441 151.5381,608.499 Q150.7324,609.7539 150.7324,612.2246 Q150.7324,614.6855 151.5381,615.9404 Q152.3438,617.1953 153.9258,617.1953 Q154.668,617.1953 155.3662,616.8779 Q156.0645,616.5605 156.8066,615.877 Z " fill="#000000"/><text fill="#000000" font-family="sans-serif" font-size="20" lengthAdjust="spacing" textLength="103" x="176" y="619.5586">CSVImport</text><line style="stroke:#181818;stroke-width:0.5;" x1="8" x2="412" y1="629" y2="629"/><text fill="#000000" font-family="sans-serif" font-size="20" lengthAdjust="spacing" textLength="394" x="13" y="652.3359">-PropertyRepository : PropertyRepository</text><line style="stroke:#181818;stroke-width:0.5;" x1="8" x2="412" y1="660.5547" y2="660.5547"/><text fill="#000000" font-family="sans-serif" font-size="20" lengthAdjust="spacing" textLength="139" x="13" y="683.8906">+importData()</text></g><!--class Repositories--><g id="elem_Repositories"><rect codeLine="23" fill="#F1F1F1" height="120.6641" id="Repositories" rx="2.5" ry="2.5" style="stroke:#181818;stroke-width:0.5;" width="497" x="448.5" y="583"/><ellipse cx="633" cy="600" fill="#ADD1B2" rx="12" ry="12" style="stroke:#181818;stroke-width:1.0;"/><path d="M635.8066,607.0801 Q635.123,607.4316 634.3711,607.6074 Q633.6191,607.7832 632.7891,607.7832 Q629.8398,607.7832 628.2871,605.8398 Q626.7344,603.8965 626.7344,600.2246 Q626.7344,596.543 628.2871,594.5996 Q629.8398,592.6563 632.7891,592.6563 Q633.6191,592.6563 634.3809,592.832 Q635.1426,593.0078 635.8066,593.3594 L635.8066,596.5625 Q635.0645,595.8789 634.3662,595.5615 Q633.668,595.2441 632.9258,595.2441 Q631.3438,595.2441 630.5381,596.499 Q629.7324,597.7539 629.7324,600.2246 Q629.7324,602.6855 630.5381,603.9404 Q631.3438,605.1953 632.9258,605.1953 Q633.668,605.1953 634.3662,604.8779 Q635.0645,604.5605 635.8066,603.877 Z " fill="#000000"/><text fill="#000000" font-family="sans-serif" font-size="20" lengthAdjust="spacing" textLength="119" x="655" y="607.5586">Repositories</text><line style="stroke:#181818;stroke-width:0.5;" x1="449.5" x2="944.5" y1="617" y2="617"/><line style="stroke:#181818;stroke-width:0.5;" x1="449.5" x2="944.5" y1="625" y2="625"/><text fill="#000000" font-family="sans-serif" font-size="20" lengthAdjust="spacing" textLength="149" x="454.5" y="648.3359">+Repositories()</text><text fill="#000000" font-family="sans-serif" font-size="20" lengthAdjust="spacing" textLength="276" x="454.5" y="671.8906">+getInstance() : Repositories</text><text fill="#000000" font-family="sans-serif" font-size="20" lengthAdjust="spacing" textLength="485" x="454.5" y="695.4453">+getPropertyDealRepository() : PropertyRepository</text></g><!--class PropertyRepository--><g id="elem_PropertyRepository"><rect codeLine="29" fill="#F1F1F1" height="167.7734" id="PropertyRepository" rx="2.5" ry="2.5" style="stroke:#181818;stroke-width:0.5;" width="686" x="354" y="789"/><ellipse cx="601.5" cy="806" fill="#ADD1B2" rx="12" ry="12" style="stroke:#181818;stroke-width:1.0;"/><path d="M604.3066,813.0801 Q603.623,813.4316 602.8711,813.6074 Q602.1191,813.7832 601.2891,813.7832 Q598.3398,813.7832 596.7871,811.8398 Q595.2344,809.8965 595.2344,806.2246 Q595.2344,802.543 596.7871,800.5996 Q598.3398,798.6563 601.2891,798.6563 Q602.1191,798.6563 602.8809,798.832 Q603.6426,799.0078 604.3066,799.3594 L604.3066,802.5625 Q603.5645,801.8789 602.8662,801.5615 Q602.168,801.2441 601.4258,801.2441 Q599.8438,801.2441 599.0381,802.499 Q598.2324,803.7539 598.2324,806.2246 Q598.2324,808.6855 599.0381,809.9404 Q599.8438,811.1953 601.4258,811.1953 Q602.168,811.1953 602.8662,810.8779 Q603.5645,810.5605 604.3066,809.877 Z " fill="#000000"/><text fill="#000000" font-family="sans-serif" font-size="20" lengthAdjust="spacing" textLength="182" x="623.5" y="813.5586">PropertyRepository</text><line style="stroke:#181818;stroke-width:0.5;" x1="355" x2="1039" y1="823" y2="823"/><line style="stroke:#181818;stroke-width:0.5;" x1="355" x2="1039" y1="831" y2="831"/><text fill="#000000" font-family="sans-serif" font-size="20" lengthAdjust="spacing" textLength="539" x="360" y="854.3359">+getPropertiesSelectionSortByID() : ArrayList&lt;Property&gt;</text><text fill="#000000" font-family="sans-serif" font-size="20" lengthAdjust="spacing" textLength="674" x="360" y="877.8906">+getPropertiesSelectionSortByAreaDescending() : ArrayList&lt;Property&gt;</text><text fill="#000000" font-family="sans-serif" font-size="20" lengthAdjust="spacing" textLength="662" x="360" y="901.4453">+getPropertiesSelectionSortByAreaAscending() : ArrayList&lt;Property&gt;</text><text fill="#000000" font-family="sans-serif" font-size="20" lengthAdjust="spacing" textLength="660" x="360" y="925">+getPropertiesInsertionSortByAreaAscending() : ArrayList&lt;Property&gt;</text><text fill="#000000" font-family="sans-serif" font-size="20" lengthAdjust="spacing" textLength="672" x="360" y="948.5547">+getPropertiesInsertionSortByAreaDescending() : ArrayList&lt;Property&gt;</text></g><!--class NetworkManagerSortWindow--><g id="elem_NetworkManagerSortWindow"><rect codeLine="38" fill="#F1F1F1" height="285.5469" id="NetworkManagerSortWindow" rx="2.5" ry="2.5" style="stroke:#181818;stroke-width:0.5;" width="367" x="716.5" y="7"/><ellipse cx="758.6" cy="24" fill="#ADD1B2" rx="12" ry="12" style="stroke:#181818;stroke-width:1.0;"/><path d="M761.4066,31.0801 Q760.723,31.4316 759.9711,31.6074 Q759.2191,31.7832 758.3891,31.7832 Q755.4398,31.7832 753.8871,29.8398 Q752.3344,27.8965 752.3344,24.2246 Q752.3344,20.543 753.8871,18.5996 Q755.4398,16.6563 758.3891,16.6563 Q759.2191,16.6563 759.9809,16.832 Q760.7426,17.0078 761.4066,17.3594 L761.4066,20.5625 Q760.6645,19.8789 759.9662,19.5615 Q759.268,19.2441 758.5258,19.2441 Q756.9438,19.2441 756.1381,20.499 Q755.3324,21.7539 755.3324,24.2246 Q755.3324,26.6855 756.1381,27.9404 Q756.9438,29.1953 758.5258,29.1953 Q759.268,29.1953 759.9662,28.8779 Q760.6645,28.5605 761.4066,27.877 Z " fill="#000000"/><text fill="#000000" font-family="sans-serif" font-size="20" lengthAdjust="spacing" textLength="275" x="779.4" y="31.5586">NetworkManagerSortWindow</text><line style="stroke:#181818;stroke-width:0.5;" x1="717.5" x2="1082.5" y1="41" y2="41"/><text fill="#000000" font-family="sans-serif" font-size="20" lengthAdjust="spacing" textLength="303" x="722.5" y="64.3359">-controller : StatisticsController</text><text fill="#000000" font-family="sans-serif" font-size="20" lengthAdjust="spacing" textLength="348" x="722.5" y="87.8906">-btDescendingSortSelection : Button</text><text fill="#000000" font-family="sans-serif" font-size="20" lengthAdjust="spacing" textLength="336" x="722.5" y="111.4453">-btAscendingSortSelection : Button</text><text fill="#000000" font-family="sans-serif" font-size="20" lengthAdjust="spacing" textLength="346" x="722.5" y="135">-btDescendingSortInsertion : Button</text><text fill="#000000" font-family="sans-serif" font-size="20" lengthAdjust="spacing" textLength="328" x="722.5" y="158.5547">-btAscendingSortInsertion: Button</text><text fill="#000000" font-family="sans-serif" font-size="20" lengthAdjust="spacing" textLength="177" x="722.5" y="182.1094">-btImport : Button</text><text fill="#000000" font-family="sans-serif" font-size="20" lengthAdjust="spacing" textLength="355" x="722.5" y="205.6641">+onbtDescendingSortSelection : void</text><text fill="#000000" font-family="sans-serif" font-size="20" lengthAdjust="spacing" textLength="343" x="722.5" y="229.2188">+onbtAscendingSortSelection : void</text><text fill="#000000" font-family="sans-serif" font-size="20" lengthAdjust="spacing" textLength="353" x="722.5" y="252.7734">+onbtDescendingSortInsertion : void</text><text fill="#000000" font-family="sans-serif" font-size="20" lengthAdjust="spacing" textLength="335" x="722.5" y="276.3281">+onbtAscendingSortInsertion: void</text><line style="stroke:#181818;stroke-width:0.5;" x1="717.5" x2="1082.5" y1="284.5469" y2="284.5469"/></g><!--class ImportCSV--><g id="elem_ImportCSV"><rect codeLine="53" fill="#F1F1F1" height="167.7734" id="ImportCSV" rx="2.5" ry="2.5" style="stroke:#181818;stroke-width:0.5;" width="295" x="956.5" y="354"/><ellipse cx="1048" cy="371" fill="#ADD1B2" rx="12" ry="12" style="stroke:#181818;stroke-width:1.0;"/><path d="M1050.8066,378.0801 Q1050.123,378.4316 1049.3711,378.6074 Q1048.6191,378.7832 1047.7891,378.7832 Q1044.8398,378.7832 1043.2871,376.8398 Q1041.7344,374.8965 1041.7344,371.2246 Q1041.7344,367.543 1043.2871,365.5996 Q1044.8398,363.6563 1047.7891,363.6563 Q1048.6191,363.6563 1049.3809,363.832 Q1050.1426,364.0078 1050.8066,364.3594 L1050.8066,367.5625 Q1050.0645,366.8789 1049.3662,366.5615 Q1048.668,366.2441 1047.9258,366.2441 Q1046.3438,366.2441 1045.5381,367.499 Q1044.7324,368.7539 1044.7324,371.2246 Q1044.7324,373.6855 1045.5381,374.9404 Q1046.3438,376.1953 1047.9258,376.1953 Q1048.668,376.1953 1049.3662,375.8779 Q1050.0645,375.5605 1050.8066,374.877 Z " fill="#000000"/><text fill="#000000" font-family="sans-serif" font-size="20" lengthAdjust="spacing" textLength="103" x="1070" y="378.5586">ImportCSV</text><line style="stroke:#181818;stroke-width:0.5;" x1="957.5" x2="1250.5" y1="388" y2="388"/><text fill="#000000" font-family="sans-serif" font-size="20" lengthAdjust="spacing" textLength="283" x="962.5" y="411.3359">-controller : ImportController</text><text fill="#000000" font-family="sans-serif" font-size="20" lengthAdjust="spacing" textLength="177" x="962.5" y="434.8906">-btImport : Button</text><text fill="#000000" font-family="sans-serif" font-size="20" lengthAdjust="spacing" textLength="165" x="962.5" y="458.4453">-btDeals : Button</text><line style="stroke:#181818;stroke-width:0.5;" x1="957.5" x2="1250.5" y1="466.6641" y2="466.6641"/><text fill="#000000" font-family="sans-serif" font-size="20" lengthAdjust="spacing" textLength="197" x="962.5" y="490">+onBtImport() : void</text><text fill="#000000" font-family="sans-serif" font-size="20" lengthAdjust="spacing" textLength="185" x="962.5" y="513.5547">+onBtDeals() : void</text></g><!--link NetworkManagerSortWindow to ImportCSV--><g id="link_NetworkManagerSortWindow_ImportCSV"><path codeLine="62" d="M1001.4,293.16 C1014.93,312.13 1028.47,331.11 1041.08,348.78 " fill="none" id="NetworkManagerSortWindow-to-ImportCSV" style="stroke:#181818;stroke-width:1.0;stroke-dasharray:7.0,7.0;"/><polygon fill="#181818" points="1043.73,352.5,1041.7666,342.8488,1040.8292,348.4275,1035.2506,347.4901,1043.73,352.5" style="stroke:#181818;stroke-width:1.0;"/></g><!--link NetworkManagerSortWindow to PropertyOrderManagementController--><g id="link_NetworkManagerSortWindow_PropertyOrderManagementController"><path codeLine="63" d="M799.09,293.16 C772.49,330.64 745.83,368.2 726.43,395.54 " fill="none" id="NetworkManagerSortWindow-to-PropertyOrderManagementController" style="stroke:#181818;stroke-width:1.0;stroke-dasharray:7.0,7.0;"/><polygon fill="#181818" points="723.77,399.28,732.2494,394.2701,726.6708,395.2075,725.7334,389.6288,723.77,399.28" style="stroke:#181818;stroke-width:1.0;"/></g><!--link PropertyOrderManagementController to Repositories--><g id="link_PropertyOrderManagementController_Repositories"><path codeLine="64" d="M697,475.38 C697,503.36 697,542.79 697,576.31 " fill="none" id="PropertyOrderManagementController-to-Repositories" style="stroke:#181818;stroke-width:1.0;stroke-dasharray:7.0,7.0;"/><polygon fill="#181818" points="697,580.99,701,571.99,697,575.99,693,571.99,697,580.99" style="stroke:#181818;stroke-width:1.0;"/></g><!--link ImportController to CSVImport--><g id="link_ImportController_CSVImport"><path codeLine="66" d="M228.07,475.38 C224.67,506.83 219.71,552.73 215.84,588.47 " fill="none" id="ImportController-to-CSVImport" style="stroke:#181818;stroke-width:1.0;stroke-dasharray:7.0,7.0;"/><polygon fill="#181818" points="215.34,593.06,220.2933,584.5474,215.8828,588.0895,212.3406,583.679,215.34,593.06" style="stroke:#181818;stroke-width:1.0;"/></g><!--link ImportController to Repositories--><g id="link_ImportController_Repositories"><path codeLine="67" d="M315.4,475.5 C381.76,504.54 476.15,545.85 554.45,580.11 " fill="none" id="ImportController-to-Repositories" style="stroke:#181818;stroke-width:1.0;stroke-dasharray:7.0,7.0;"/><polygon fill="#181818" points="558.67,581.96,552.0195,574.6956,554.0869,579.9612,548.8214,582.0285,558.67,581.96" style="stroke:#181818;stroke-width:1.0;"/></g><!--link Repositories to Repositories--><g id="link_Repositories_Repositories"><path codeLine="69" d="M945.81,630.19 C967.16,633.02 980.5,637.46 980.5,643.5 C980.5,648.93 969.74,653.06 952.06,655.9 " fill="none" id="Repositories-to-Repositories" style="stroke:#181818;stroke-width:1.0;"/><polygon fill="#181818" points="947.31,656.59,956.7971,659.2348,952.2566,655.8609,955.6305,651.3203,947.31,656.59" style="stroke:#181818;stroke-width:1.0;"/><text fill="#000000" font-family="sans-serif" font-size="20" lengthAdjust="spacing" textLength="89" x="986.5" y="651.3359">instances</text></g><!--link Repositories to PropertyRepository--><g id="link_Repositories_PropertyRepository"><path codeLine="70" d="M697,704.27 C697,728.16 697,756.18 697,782.41 " fill="none" id="Repositories-to-PropertyRepository" style="stroke:#181818;stroke-width:1.0;"/><polygon fill="#181818" points="697,787.17,701,778.17,697,782.17,693,778.17,697,787.17" style="stroke:#181818;stroke-width:1.0;"/><text fill="#000000" font-family="sans-serif" font-size="20" lengthAdjust="spacing" textLength="33" x="698" y="754.3359">has</text></g><!--SRC=[jLN1JkCm4BtdAtm4eIAqHxH2IgcGAh6xY4ZisJX3iUhQaJq5PH7_lcCdiPCcj1M8d5g_v-TvuycBMqjTSSitoeWrbAo49xvLU6Cq5l8Vi1yNcUiehE9YpLTGOAs0MH38zKf1Z-2UUMbUfLwn9wvS7r5I0zOLiCgesl_fOK9nvt94An-t24jXT3Zw8gCdO6ovgOp5QohA6gN0ihUCqNF6P00M7Fa96U0eZJvbb-toFJYoahrtAdVML62n_cDBiB-u9YiRq6FPMKTS05VtK1adqTYQT3iWBMP9_hfuQEhSKJca49pqZ9nwoLOpqYIupdH_ZSXXRGMur8xkGy29Rq2V4ndJjW9_egnHsnBsjYj9fnIWQ22e_mNvcDVBHT3DhUNrhNJuirEvEhmtjy0Nu0JeaaRfQphv9sIea_x7DyWSuIhr_JVWgx7hPb2j5_ahDRrUxNY9DBQNh42QVOTIk3JD3UqHqw5U8_Q8TistY4PtlFmusb0kcjml5scxhEQD6Mu-CtfVrIz6becN7qVxkEezShsg0-jzb4Z5GtCRunlPZQn4cpOTkql1EKQejdcxBKnEB3g2OMF2VAaV3H0xFxzA1lRJ3cPcTZXLlSuWaB9HddjApCzfUAWm2CRPR0ZxBq2RXcxCdCpbP-wo_m00]--></g></svg>