<?xml version="1.0" encoding="UTF-8" standalone="no"?><svg xmlns="http://www.w3.org/2000/svg" xmlns:xlink="http://www.w3.org/1999/xlink" contentStyleType="text/css" height="757px" preserveAspectRatio="none" style="width:1059px;height:757px;background:#FFFFFF;" version="1.1" viewBox="0 0 1059 757" width="1059px" zoomAndPan="magnify"><defs/><g><!--class Repositories--><g id="elem_Repositories"><rect codeLine="12" fill="#F1F1F1" height="144.2188" id="Repositories" rx="2.5" ry="2.5" style="stroke:#181818;stroke-width:0.5;" width="313" x="349" y="212"/><ellipse cx="441.5" cy="229" fill="#ADD1B2" rx="12" ry="12" style="stroke:#181818;stroke-width:1.0;"/><path d="M444.3066,236.0801 Q443.623,236.4316 442.8711,236.6074 Q442.1191,236.7832 441.2891,236.7832 Q438.3398,236.7832 436.7871,234.8398 Q435.2344,232.8965 435.2344,229.2246 Q435.2344,225.543 436.7871,223.5996 Q438.3398,221.6563 441.2891,221.6563 Q442.1191,221.6563 442.8809,221.832 Q443.6426,222.0078 444.3066,222.3594 L444.3066,225.5625 Q443.5645,224.8789 442.8662,224.5615 Q442.168,224.2441 441.4258,224.2441 Q439.8438,224.2441 439.0381,225.499 Q438.2324,226.7539 438.2324,229.2246 Q438.2324,231.6855 439.0381,232.9404 Q439.8438,234.1953 441.4258,234.1953 Q442.168,234.1953 442.8662,233.8779 Q443.5645,233.5605 444.3066,232.877 Z " fill="#000000"/><text fill="#000000" font-family="sans-serif" font-size="20" lengthAdjust="spacing" textLength="119" x="463.5" y="236.5586">Repositories</text><line style="stroke:#181818;stroke-width:0.5;" x1="350" x2="661" y1="246" y2="246"/><line style="stroke:#181818;stroke-width:0.5;" x1="350" x2="661" y1="254" y2="254"/><text fill="#000000" font-family="sans-serif" font-size="20" lengthAdjust="spacing" textLength="149" x="355" y="277.3359">+Repositories()</text><text fill="#000000" font-family="sans-serif" font-size="20" lengthAdjust="spacing" textLength="139" x="355" y="300.8906">+getInstance()</text><text fill="#000000" font-family="sans-serif" font-size="20" lengthAdjust="spacing" textLength="301" x="355" y="324.4453">+getAuthenticationRepository()</text><text fill="#000000" font-family="sans-serif" font-size="20" lengthAdjust="spacing" textLength="205" x="355" y="348">+getUserRepository()</text></g><!--class RegisterUserController--><g id="elem_RegisterUserController"><rect codeLine="19" fill="#F1F1F1" height="144.2188" id="RegisterUserController" rx="2.5" ry="2.5" style="stroke:#181818;stroke-width:0.5;" width="313" x="349" y="7"/><ellipse cx="392.9" cy="24" fill="#ADD1B2" rx="12" ry="12" style="stroke:#181818;stroke-width:1.0;"/><path d="M395.7066,31.0801 Q395.023,31.4316 394.2711,31.6074 Q393.5191,31.7832 392.6891,31.7832 Q389.7398,31.7832 388.1871,29.8398 Q386.6344,27.8965 386.6344,24.2246 Q386.6344,20.543 388.1871,18.5996 Q389.7398,16.6563 392.6891,16.6563 Q393.5191,16.6563 394.2809,16.832 Q395.0426,17.0078 395.7066,17.3594 L395.7066,20.5625 Q394.9645,19.8789 394.2662,19.5615 Q393.568,19.2441 392.8258,19.2441 Q391.2438,19.2441 390.4381,20.499 Q389.6324,21.7539 389.6324,24.2246 Q389.6324,26.6855 390.4381,27.9404 Q391.2438,29.1953 392.8258,29.1953 Q393.568,29.1953 394.2662,28.8779 Q394.9645,28.5605 395.7066,27.877 Z " fill="#000000"/><text fill="#000000" font-family="sans-serif" font-size="20" lengthAdjust="spacing" textLength="217" x="414.1" y="31.5586">RegisterUserController</text><line style="stroke:#181818;stroke-width:0.5;" x1="350" x2="661" y1="41" y2="41"/><line style="stroke:#181818;stroke-width:0.5;" x1="350" x2="661" y1="49" y2="49"/><text fill="#000000" font-family="sans-serif" font-size="20" lengthAdjust="spacing" textLength="301" x="355" y="72.3359">+getAuthenticationRepository()</text><text fill="#000000" font-family="sans-serif" font-size="20" lengthAdjust="spacing" textLength="205" x="355" y="95.8906">+getUserRepository()</text><text fill="#000000" font-family="sans-serif" font-size="20" lengthAdjust="spacing" textLength="131" x="355" y="119.4453">+createUser()</text><text fill="#000000" font-family="sans-serif" font-size="20" lengthAdjust="spacing" textLength="110" x="355" y="143">+addUser()</text></g><!--class RegisterUserUI--><g id="elem_RegisterUserUI"><rect codeLine="26" fill="#F1F1F1" height="97.1094" id="RegisterUserUI" rx="2.5" ry="2.5" style="stroke:#181818;stroke-width:0.5;" width="175" x="139" y="30.5"/><ellipse cx="155" cy="47.5" fill="#ADD1B2" rx="12" ry="12" style="stroke:#181818;stroke-width:1.0;"/><path d="M157.8066,54.5801 Q157.123,54.9316 156.3711,55.1074 Q155.6191,55.2832 154.7891,55.2832 Q151.8398,55.2832 150.2871,53.3398 Q148.7344,51.3965 148.7344,47.7246 Q148.7344,44.043 150.2871,42.0996 Q151.8398,40.1563 154.7891,40.1563 Q155.6191,40.1563 156.3809,40.332 Q157.1426,40.5078 157.8066,40.8594 L157.8066,44.0625 Q157.0645,43.3789 156.3662,43.0615 Q155.668,42.7441 154.9258,42.7441 Q153.3438,42.7441 152.5381,43.999 Q151.7324,45.2539 151.7324,47.7246 Q151.7324,50.1855 152.5381,51.4404 Q153.3438,52.6953 154.9258,52.6953 Q155.668,52.6953 156.3662,52.3779 Q157.0645,52.0605 157.8066,51.377 Z " fill="#000000"/><text fill="#000000" font-family="sans-serif" font-size="20" lengthAdjust="spacing" textLength="141" x="170" y="55.0586">RegisterUserUI</text><line style="stroke:#181818;stroke-width:0.5;" x1="140" x2="313" y1="64.5" y2="64.5"/><line style="stroke:#181818;stroke-width:0.5;" x1="140" x2="313" y1="72.5" y2="72.5"/><text fill="#000000" font-family="sans-serif" font-size="20" lengthAdjust="spacing" textLength="131" x="145" y="95.8359">+createUser()</text><text fill="#000000" font-family="sans-serif" font-size="20" lengthAdjust="spacing" textLength="156" x="145" y="119.3906">+getController()</text></g><!--class AuthenticationRepository--><g id="elem_AuthenticationRepository"><rect codeLine="31" fill="#F1F1F1" height="73.5547" id="AuthenticationRepository" rx="2.5" ry="2.5" style="stroke:#181818;stroke-width:0.5;" width="275" x="777" y="558.5"/><ellipse cx="793" cy="575.5" fill="#ADD1B2" rx="12" ry="12" style="stroke:#181818;stroke-width:1.0;"/><path d="M795.8066,582.5801 Q795.123,582.9316 794.3711,583.1074 Q793.6191,583.2832 792.7891,583.2832 Q789.8398,583.2832 788.2871,581.3398 Q786.7344,579.3965 786.7344,575.7246 Q786.7344,572.043 788.2871,570.0996 Q789.8398,568.1563 792.7891,568.1563 Q793.6191,568.1563 794.3809,568.332 Q795.1426,568.5078 795.8066,568.8594 L795.8066,572.0625 Q795.0645,571.3789 794.3662,571.0615 Q793.668,570.7441 792.9258,570.7441 Q791.3438,570.7441 790.5381,571.999 Q789.7324,573.2539 789.7324,575.7246 Q789.7324,578.1855 790.5381,579.4404 Q791.3438,580.6953 792.9258,580.6953 Q793.668,580.6953 794.3662,580.3779 Q795.0645,580.0605 795.8066,579.377 Z " fill="#000000"/><text fill="#000000" font-family="sans-serif" font-size="20" lengthAdjust="spacing" textLength="241" x="808" y="583.0586">AuthenticationRepository</text><line style="stroke:#181818;stroke-width:0.5;" x1="778" x2="1051" y1="592.5" y2="592.5"/><line style="stroke:#181818;stroke-width:0.5;" x1="778" x2="1051" y1="600.5" y2="600.5"/><text fill="#000000" font-family="sans-serif" font-size="20" lengthAdjust="spacing" textLength="131" x="783" y="623.8359">+createUser()</text></g><!--class UserRepository--><g id="elem_UserRepository"><rect codeLine="35" fill="#F1F1F1" height="73.5547" id="UserRepository" rx="2.5" ry="2.5" style="stroke:#181818;stroke-width:0.5;" width="179" x="7" y="558.5"/><ellipse cx="23" cy="575.5" fill="#ADD1B2" rx="12" ry="12" style="stroke:#181818;stroke-width:1.0;"/><path d="M25.8066,582.5801 Q25.123,582.9316 24.3711,583.1074 Q23.6191,583.2832 22.7891,583.2832 Q19.8398,583.2832 18.2871,581.3398 Q16.7344,579.3965 16.7344,575.7246 Q16.7344,572.043 18.2871,570.0996 Q19.8398,568.1563 22.7891,568.1563 Q23.6191,568.1563 24.3809,568.332 Q25.1426,568.5078 25.8066,568.8594 L25.8066,572.0625 Q25.0645,571.3789 24.3662,571.0615 Q23.668,570.7441 22.9258,570.7441 Q21.3438,570.7441 20.5381,571.999 Q19.7324,573.2539 19.7324,575.7246 Q19.7324,578.1855 20.5381,579.4404 Q21.3438,580.6953 22.9258,580.6953 Q23.668,580.6953 24.3662,580.3779 Q25.0645,580.0605 25.8066,579.377 Z " fill="#000000"/><text fill="#000000" font-family="sans-serif" font-size="20" lengthAdjust="spacing" textLength="145" x="38" y="583.0586">UserRepository</text><line style="stroke:#181818;stroke-width:0.5;" x1="8" x2="185" y1="592.5" y2="592.5"/><line style="stroke:#181818;stroke-width:0.5;" x1="8" x2="185" y1="600.5" y2="600.5"/><text fill="#000000" font-family="sans-serif" font-size="20" lengthAdjust="spacing" textLength="110" x="13" y="623.8359">+addUser()</text></g><!--class User--><g id="elem_User"><rect codeLine="39" fill="#F1F1F1" height="309.1016" id="User" rx="2.5" ry="2.5" style="stroke:#181818;stroke-width:0.5;" width="276" x="255.5" y="441"/><ellipse cx="367.5" cy="458" fill="#ADD1B2" rx="12" ry="12" style="stroke:#181818;stroke-width:1.0;"/><path d="M370.3066,465.0801 Q369.623,465.4316 368.8711,465.6074 Q368.1191,465.7832 367.2891,465.7832 Q364.3398,465.7832 362.7871,463.8398 Q361.2344,461.8965 361.2344,458.2246 Q361.2344,454.543 362.7871,452.5996 Q364.3398,450.6563 367.2891,450.6563 Q368.1191,450.6563 368.8809,450.832 Q369.6426,451.0078 370.3066,451.3594 L370.3066,454.5625 Q369.5645,453.8789 368.8662,453.5615 Q368.168,453.2441 367.4258,453.2441 Q365.8438,453.2441 365.0381,454.499 Q364.2324,455.7539 364.2324,458.2246 Q364.2324,460.6855 365.0381,461.9404 Q365.8438,463.1953 367.4258,463.1953 Q368.168,463.1953 368.8662,462.8779 Q369.5645,462.5605 370.3066,461.877 Z " fill="#000000"/><text fill="#000000" font-family="sans-serif" font-size="20" lengthAdjust="spacing" textLength="43" x="389.5" y="465.5586">User</text><line style="stroke:#181818;stroke-width:0.5;" x1="256.5" x2="530.5" y1="475" y2="475"/><text fill="#000000" font-family="sans-serif" font-size="20" lengthAdjust="spacing" textLength="127" x="261.5" y="498.3359">-String name</text><text fill="#000000" font-family="sans-serif" font-size="20" lengthAdjust="spacing" textLength="127" x="261.5" y="521.8906">-String email</text><text fill="#000000" font-family="sans-serif" font-size="20" lengthAdjust="spacing" textLength="166" x="261.5" y="545.4453">-String password</text><text fill="#000000" font-family="sans-serif" font-size="20" lengthAdjust="spacing" textLength="251" x="261.5" y="569">-int passportCardNumber</text><text fill="#000000" font-family="sans-serif" font-size="20" lengthAdjust="spacing" textLength="151" x="261.5" y="592.5547">-int taxNumber</text><text fill="#000000" font-family="sans-serif" font-size="20" lengthAdjust="spacing" textLength="216" x="261.5" y="616.1094">-int telephoneNumber</text><line style="stroke:#181818;stroke-width:0.5;" x1="256.5" x2="530.5" y1="624.3281" y2="624.3281"/><text fill="#000000" font-family="sans-serif" font-size="20" lengthAdjust="spacing" textLength="114" x="261.5" y="647.6641">+setName()</text><text fill="#000000" font-family="sans-serif" font-size="20" lengthAdjust="spacing" textLength="111" x="261.5" y="671.2188">+setEmail()</text><text fill="#000000" font-family="sans-serif" font-size="20" lengthAdjust="spacing" textLength="148" x="261.5" y="694.7734">+setPassword()</text><text fill="#000000" font-family="sans-serif" font-size="20" lengthAdjust="spacing" textLength="264" x="261.5" y="718.3281">+setPassportCardNumber()</text><text fill="#000000" font-family="sans-serif" font-size="20" lengthAdjust="spacing" textLength="237" x="261.5" y="741.8828">+setTelephoneNumber()</text></g><!--class Address--><g id="elem_Address"><rect codeLine="54" fill="#F1F1F1" height="144.2188" id="Address" rx="2.5" ry="2.5" style="stroke:#181818;stroke-width:0.5;" width="140" x="601.5" y="523.5"/><ellipse cx="629.65" cy="540.5" fill="#ADD1B2" rx="12" ry="12" style="stroke:#181818;stroke-width:1.0;"/><path d="M632.4566,547.5801 Q631.773,547.9316 631.0211,548.1074 Q630.2691,548.2832 629.4391,548.2832 Q626.4898,548.2832 624.9371,546.3398 Q623.3844,544.3965 623.3844,540.7246 Q623.3844,537.043 624.9371,535.0996 Q626.4898,533.1563 629.4391,533.1563 Q630.2691,533.1563 631.0309,533.332 Q631.7926,533.5078 632.4566,533.8594 L632.4566,537.0625 Q631.7145,536.3789 631.0162,536.0615 Q630.318,535.7441 629.5758,535.7441 Q627.9938,535.7441 627.1881,536.999 Q626.3824,538.2539 626.3824,540.7246 Q626.3824,543.1855 627.1881,544.4404 Q627.9938,545.6953 629.5758,545.6953 Q630.318,545.6953 631.0162,545.3779 Q631.7145,545.0605 632.4566,544.377 Z " fill="#000000"/><text fill="#000000" font-family="sans-serif" font-size="20" lengthAdjust="spacing" textLength="79" x="647.35" y="548.0586">Address</text><line style="stroke:#181818;stroke-width:0.5;" x1="602.5" x2="740.5" y1="557.5" y2="557.5"/><text fill="#000000" font-family="sans-serif" font-size="20" lengthAdjust="spacing" textLength="128" x="607.5" y="580.8359">-String street</text><text fill="#000000" font-family="sans-serif" font-size="20" lengthAdjust="spacing" textLength="107" x="607.5" y="604.3906">-String city</text><text fill="#000000" font-family="sans-serif" font-size="20" lengthAdjust="spacing" textLength="120" x="607.5" y="627.9453">-String state</text><text fill="#000000" font-family="sans-serif" font-size="20" lengthAdjust="spacing" textLength="123" x="607.5" y="651.5">-int zipCode</text><line style="stroke:#181818;stroke-width:0.5;" x1="602.5" x2="740.5" y1="659.7188" y2="659.7188"/></g><!--link Repositories to Repositories--><g id="link_Repositories_Repositories"><path codeLine="62" d="M662.16,267 C683.09,269.88 697,275.54 697,284 C697,291.6 685.77,296.94 668.31,300.04 " fill="none" id="Repositories-to-Repositories" style="stroke:#181818;stroke-width:1.0;"/><polygon fill="#181818" points="663.65,300.77,673.1592,303.3343,668.5902,299.999,671.9255,295.43,663.65,300.77" style="stroke:#181818;stroke-width:1.0;"/><text fill="#000000" font-family="sans-serif" font-size="20" lengthAdjust="spacing" textLength="89" x="703" y="291.8359">instances</text></g><!--link RegisterUserUI to RegisterUserController--><g id="link_RegisterUserUI_RegisterUserController"><path codeLine="64" d="M314.5,79 C317.66,79 319.5,79 319.5,79 C319.5,79 329.23,79 342.4,79 " fill="none" id="RegisterUserUI-to-RegisterUserController" style="stroke:#181818;stroke-width:1.0;stroke-dasharray:7.0,7.0;"/><polygon fill="#181818" points="347.16,79,338.16,75,342.16,79,338.16,83,347.16,79" style="stroke:#181818;stroke-width:1.0;"/></g><!--link RegisterUserController to Repositories--><g id="link_RegisterUserController_Repositories"><path codeLine="66" d="M505.5,151.28 C505.5,168.68 505.5,187.39 505.5,205.08 " fill="none" id="RegisterUserController-to-Repositories" style="stroke:#181818;stroke-width:1.0;stroke-dasharray:7.0,7.0;"/><polygon fill="#181818" points="505.5,210.03,509.5,201.03,505.5,205.03,501.5,201.03,505.5,210.03" style="stroke:#181818;stroke-width:1.0;"/></g><!--link Repositories to AuthenticationRepository--><g id="link_Repositories_AuthenticationRepository"><path codeLine="68" d="M621.72,356.38 C688.6,397.46 759.5,441 759.5,441 C759.5,441 827.48,508.32 873.4,553.79 " fill="none" id="Repositories-to-AuthenticationRepository" style="stroke:#181818;stroke-width:1.0;"/><polygon fill="#181818" points="876.69,557.06,873.1173,547.882,873.1402,553.5388,867.4834,553.5617,876.69,557.06" style="stroke:#181818;stroke-width:1.0;"/><text fill="#000000" font-family="sans-serif" font-size="20" lengthAdjust="spacing" textLength="33" x="705.5" y="406.3359">has</text><text fill="#000000" font-family="sans-serif" font-size="20" lengthAdjust="spacing" textLength="13" x="618.8348" y="383.4641">1</text><text fill="#000000" font-family="sans-serif" font-size="20" lengthAdjust="spacing" textLength="13" x="857.3398" y="546.1406">1</text></g><!--link Repositories to UserRepository--><g id="link_Repositories_UserRepository"><path codeLine="70" d="M382.87,356.38 C312.3,397.46 237.5,441 237.5,441 C237.5,441 175.91,508.05 134.15,553.52 " fill="none" id="Repositories-to-UserRepository" style="stroke:#181818;stroke-width:1.0;"/><polygon fill="#181818" points="130.94,557.01,139.9743,553.088,134.3225,553.3278,134.0827,547.676,130.94,557.01" style="stroke:#181818;stroke-width:1.0;"/><text fill="#000000" font-family="sans-serif" font-size="20" lengthAdjust="spacing" textLength="33" x="333.5" y="406.3359">has</text><text fill="#000000" font-family="sans-serif" font-size="20" lengthAdjust="spacing" textLength="13" x="357.9658" y="383.4641">1</text><text fill="#000000" font-family="sans-serif" font-size="20" lengthAdjust="spacing" textLength="13" x="121.5469" y="546.1406">1</text></g><!--link UserRepository to User--><g id="link_UserRepository_User"><path codeLine="72" d="M186.42,595.5 C206.15,595.5 227.53,595.5 248.8,595.5 " fill="none" id="UserRepository-to-User" style="stroke:#181818;stroke-width:1.0;"/><polygon fill="#181818" points="253.59,595.5,244.59,591.5,248.59,595.5,244.59,599.5,253.59,595.5" style="stroke:#181818;stroke-width:1.0;"/><text fill="#000000" font-family="sans-serif" font-size="20" lengthAdjust="spacing" textLength="33" x="204.25" y="587.8359">has</text><text fill="#000000" font-family="sans-serif" font-size="20" lengthAdjust="spacing" textLength="13" x="194.1035" y="590.9594">1</text><text fill="#000000" font-family="sans-serif" font-size="20" lengthAdjust="spacing" textLength="10" x="237.7059" y="591.2547">*</text></g><!--link User to Address--><g id="link_User_Address"><path codeLine="74" d="M531.69,595.5 C553.45,595.5 575.24,595.5 594.92,595.5 " fill="none" id="User-to-Address" style="stroke:#181818;stroke-width:1.0;"/><polygon fill="#181818" points="599.72,595.5,590.72,591.5,594.72,595.5,590.72,599.5,599.72,595.5" style="stroke:#181818;stroke-width:1.0;"/><text fill="#000000" font-family="sans-serif" font-size="20" lengthAdjust="spacing" textLength="33" x="550" y="587.8359">has</text><text fill="#000000" font-family="sans-serif" font-size="20" lengthAdjust="spacing" textLength="13" x="539.6027" y="591.2194">1</text><text fill="#000000" font-family="sans-serif" font-size="20" lengthAdjust="spacing" textLength="13" x="580.3241" y="590.6673">1</text></g><!--SRC=[dL91Rjim4Bph5KGkIHlOI7li8K1Wj80lGH0t3s38jKIO8edb2ebYzEzTIfPDAd4EqKNWp2ndj9guCov8bAtrQWTQQDZApj8VxsXZta3ylAakuwGHhNTUDUXR48GTL2ScIBMJDMoejo0G54bNsrmG6wdzYt6rs4eRSyOQ1zG74C7RFXronoFfaNoLJIahOxmZGlFS4QoLTqFUcwgwjB0bGLwWgHiIsgGuXeUhOKOyGl3Ha4S3KUmhmSzrZbrz6x4QQEqYVuY23Bhhg057Hac-qntd-apo504Buj_9kZQH09DYnIj6RotW5EABjm-4Gf04YPiGgVNX-A7zqvfjox5q-obLFdWkrlu3y-DG6NH_DbKwZ-n2RFX_SaMSRA54e9N6bb3WuHUF-e0QHmCKk2ahYVg-Qvy1CvBawtiCB8J6EyYOQn61xZd1jCbq_ftyS-3Xu3x7IlkS_LjwCPKjM6k466ThY8G0L6BAK3zNyVApRtepOUKrfCkhekkBsxBxlrW-zZicPT6DvUsPifRAhCJBPNdzpFpYnuLOS8BqFbSdJjJ8pmRBIato6JeCiFxxgCzLHow565S-qVpy1m00]--></g></svg>