<?xml version="1.0" encoding="UTF-8" standalone="no"?><svg xmlns="http://www.w3.org/2000/svg" xmlns:xlink="http://www.w3.org/1999/xlink" contentStyleType="text/css" height="757px" preserveAspectRatio="none" style="width:1057px;height:757px;background:#FFFFFF;" version="1.1" viewBox="0 0 1057 757" width="1057px" zoomAndPan="magnify"><defs/><g><!--class Repositories--><g id="elem_Repositories"><rect codeLine="12" fill="#F1F1F1" height="144.2188" id="Repositories" rx="2.5" ry="2.5" style="stroke:#181818;stroke-width:0.5;" width="313" x="348" y="212.22"/><ellipse cx="440.5" cy="229.22" fill="#ADD1B2" rx="12" ry="12" style="stroke:#181818;stroke-width:1.0;"/><path d="M443.3066,236.3001 Q442.623,236.6516 441.8711,236.8274 Q441.1191,237.0032 440.2891,237.0032 Q437.3398,237.0032 435.7871,235.0598 Q434.2344,233.1165 434.2344,229.4446 Q434.2344,225.763 435.7871,223.8196 Q437.3398,221.8762 440.2891,221.8762 Q441.1191,221.8762 441.8809,222.052 Q442.6426,222.2278 443.3066,222.5794 L443.3066,225.7825 Q442.5645,225.0989 441.8662,224.7815 Q441.168,224.4641 440.4258,224.4641 Q438.8438,224.4641 438.0381,225.719 Q437.2324,226.9739 437.2324,229.4446 Q437.2324,231.9055 438.0381,233.1604 Q438.8438,234.4153 440.4258,234.4153 Q441.168,234.4153 441.8662,234.0979 Q442.5645,233.7805 443.3066,233.097 Z " fill="#000000"/><text fill="#000000" font-family="sans-serif" font-size="20" lengthAdjust="spacing" textLength="119" x="462.5" y="236.7786">Repositories</text><line style="stroke:#181818;stroke-width:0.5;" x1="349" x2="660" y1="246.22" y2="246.22"/><line style="stroke:#181818;stroke-width:0.5;" x1="349" x2="660" y1="254.22" y2="254.22"/><text fill="#000000" font-family="sans-serif" font-size="20" lengthAdjust="spacing" textLength="149" x="354" y="277.5559">+Repositories()</text><text fill="#000000" font-family="sans-serif" font-size="20" lengthAdjust="spacing" textLength="139" x="354" y="301.1106">+getInstance()</text><text fill="#000000" font-family="sans-serif" font-size="20" lengthAdjust="spacing" textLength="301" x="354" y="324.6653">+getAuthenticationRepository()</text><text fill="#000000" font-family="sans-serif" font-size="20" lengthAdjust="spacing" textLength="205" x="354" y="348.22">+getUserRepository()</text></g><!--class RegisterUserController--><g id="elem_RegisterUserController"><rect codeLine="19" fill="#F1F1F1" height="144.2188" id="RegisterUserController" rx="2.5" ry="2.5" style="stroke:#181818;stroke-width:0.5;" width="313" x="348" y="7"/><ellipse cx="391.9" cy="24" fill="#ADD1B2" rx="12" ry="12" style="stroke:#181818;stroke-width:1.0;"/><path d="M394.7066,31.0801 Q394.023,31.4316 393.2711,31.6074 Q392.5191,31.7832 391.6891,31.7832 Q388.7398,31.7832 387.1871,29.8398 Q385.6344,27.8965 385.6344,24.2246 Q385.6344,20.543 387.1871,18.5996 Q388.7398,16.6563 391.6891,16.6563 Q392.5191,16.6563 393.2809,16.832 Q394.0426,17.0078 394.7066,17.3594 L394.7066,20.5625 Q393.9645,19.8789 393.2662,19.5615 Q392.568,19.2441 391.8258,19.2441 Q390.2438,19.2441 389.4381,20.499 Q388.6324,21.7539 388.6324,24.2246 Q388.6324,26.6855 389.4381,27.9404 Q390.2438,29.1953 391.8258,29.1953 Q392.568,29.1953 393.2662,28.8779 Q393.9645,28.5605 394.7066,27.877 Z " fill="#000000"/><text fill="#000000" font-family="sans-serif" font-size="20" lengthAdjust="spacing" textLength="217" x="413.1" y="31.5586">RegisterUserController</text><line style="stroke:#181818;stroke-width:0.5;" x1="349" x2="660" y1="41" y2="41"/><line style="stroke:#181818;stroke-width:0.5;" x1="349" x2="660" y1="49" y2="49"/><text fill="#000000" font-family="sans-serif" font-size="20" lengthAdjust="spacing" textLength="301" x="354" y="72.3359">+getAuthenticationRepository()</text><text fill="#000000" font-family="sans-serif" font-size="20" lengthAdjust="spacing" textLength="205" x="354" y="95.8906">+getUserRepository()</text><text fill="#000000" font-family="sans-serif" font-size="20" lengthAdjust="spacing" textLength="131" x="354" y="119.4453">+createUser()</text><text fill="#000000" font-family="sans-serif" font-size="20" lengthAdjust="spacing" textLength="110" x="354" y="143">+addUser()</text></g><!--class RegisterUserUI--><g id="elem_RegisterUserUI"><rect codeLine="26" fill="#F1F1F1" height="97.1094" id="RegisterUserUI" rx="2.5" ry="2.5" style="stroke:#181818;stroke-width:0.5;" width="175" x="138" y="30.56"/><ellipse cx="154" cy="47.56" fill="#ADD1B2" rx="12" ry="12" style="stroke:#181818;stroke-width:1.0;"/><path d="M156.8066,54.6401 Q156.123,54.9916 155.3711,55.1674 Q154.6191,55.3432 153.7891,55.3432 Q150.8398,55.3432 149.2871,53.3998 Q147.7344,51.4565 147.7344,47.7846 Q147.7344,44.103 149.2871,42.1596 Q150.8398,40.2162 153.7891,40.2162 Q154.6191,40.2162 155.3809,40.392 Q156.1426,40.5678 156.8066,40.9194 L156.8066,44.1225 Q156.0645,43.4389 155.3662,43.1215 Q154.668,42.8041 153.9258,42.8041 Q152.3438,42.8041 151.5381,44.059 Q150.7324,45.3139 150.7324,47.7846 Q150.7324,50.2455 151.5381,51.5004 Q152.3438,52.7553 153.9258,52.7553 Q154.668,52.7553 155.3662,52.4379 Q156.0645,52.1205 156.8066,51.437 Z " fill="#000000"/><text fill="#000000" font-family="sans-serif" font-size="20" lengthAdjust="spacing" textLength="141" x="169" y="55.1186">RegisterUserUI</text><line style="stroke:#181818;stroke-width:0.5;" x1="139" x2="312" y1="64.56" y2="64.56"/><line style="stroke:#181818;stroke-width:0.5;" x1="139" x2="312" y1="72.56" y2="72.56"/><text fill="#000000" font-family="sans-serif" font-size="20" lengthAdjust="spacing" textLength="131" x="144" y="95.8959">+createUser()</text><text fill="#000000" font-family="sans-serif" font-size="20" lengthAdjust="spacing" textLength="156" x="144" y="119.4506">+getController()</text></g><!--class AuthenticationRepository--><g id="elem_AuthenticationRepository"><rect codeLine="31" fill="#F1F1F1" height="73.5547" id="AuthenticationRepository" rx="2.5" ry="2.5" style="stroke:#181818;stroke-width:0.5;" width="275" x="775" y="559.21"/><ellipse cx="791" cy="576.21" fill="#ADD1B2" rx="12" ry="12" style="stroke:#181818;stroke-width:1.0;"/><path d="M793.8066,583.2901 Q793.123,583.6416 792.3711,583.8174 Q791.6191,583.9932 790.7891,583.9932 Q787.8398,583.9932 786.2871,582.0498 Q784.7344,580.1065 784.7344,576.4346 Q784.7344,572.753 786.2871,570.8096 Q787.8398,568.8662 790.7891,568.8662 Q791.6191,568.8662 792.3809,569.042 Q793.1426,569.2178 793.8066,569.5694 L793.8066,572.7725 Q793.0645,572.0889 792.3662,571.7715 Q791.668,571.4541 790.9258,571.4541 Q789.3438,571.4541 788.5381,572.709 Q787.7324,573.9639 787.7324,576.4346 Q787.7324,578.8955 788.5381,580.1504 Q789.3438,581.4053 790.9258,581.4053 Q791.668,581.4053 792.3662,581.0879 Q793.0645,580.7705 793.8066,580.087 Z " fill="#000000"/><text fill="#000000" font-family="sans-serif" font-size="20" lengthAdjust="spacing" textLength="241" x="806" y="583.7686">AuthenticationRepository</text><line style="stroke:#181818;stroke-width:0.5;" x1="776" x2="1049" y1="593.21" y2="593.21"/><line style="stroke:#181818;stroke-width:0.5;" x1="776" x2="1049" y1="601.21" y2="601.21"/><text fill="#000000" font-family="sans-serif" font-size="20" lengthAdjust="spacing" textLength="131" x="781" y="624.5459">+createUser()</text></g><!--class UserRepository--><g id="elem_UserRepository"><rect codeLine="35" fill="#F1F1F1" height="73.5547" id="UserRepository" rx="2.5" ry="2.5" style="stroke:#181818;stroke-width:0.5;" width="179" x="7" y="559.21"/><ellipse cx="23" cy="576.21" fill="#ADD1B2" rx="12" ry="12" style="stroke:#181818;stroke-width:1.0;"/><path d="M25.8066,583.2901 Q25.123,583.6416 24.3711,583.8174 Q23.6191,583.9932 22.7891,583.9932 Q19.8398,583.9932 18.2871,582.0498 Q16.7344,580.1065 16.7344,576.4346 Q16.7344,572.753 18.2871,570.8096 Q19.8398,568.8662 22.7891,568.8662 Q23.6191,568.8662 24.3809,569.042 Q25.1426,569.2178 25.8066,569.5694 L25.8066,572.7725 Q25.0645,572.0889 24.3662,571.7715 Q23.668,571.4541 22.9258,571.4541 Q21.3438,571.4541 20.5381,572.709 Q19.7324,573.9639 19.7324,576.4346 Q19.7324,578.8955 20.5381,580.1504 Q21.3438,581.4053 22.9258,581.4053 Q23.668,581.4053 24.3662,581.0879 Q25.0645,580.7705 25.8066,580.087 Z " fill="#000000"/><text fill="#000000" font-family="sans-serif" font-size="20" lengthAdjust="spacing" textLength="145" x="38" y="583.7686">UserRepository</text><line style="stroke:#181818;stroke-width:0.5;" x1="8" x2="185" y1="593.21" y2="593.21"/><line style="stroke:#181818;stroke-width:0.5;" x1="8" x2="185" y1="601.21" y2="601.21"/><text fill="#000000" font-family="sans-serif" font-size="20" lengthAdjust="spacing" textLength="110" x="13" y="624.5459">+addUser()</text></g><!--class User--><g id="elem_User"><rect codeLine="39" fill="#F1F1F1" height="309.1016" id="User" rx="2.5" ry="2.5" style="stroke:#181818;stroke-width:0.5;" width="276" x="255.5" y="441.44"/><ellipse cx="367.5" cy="458.44" fill="#ADD1B2" rx="12" ry="12" style="stroke:#181818;stroke-width:1.0;"/><path d="M370.3066,465.5201 Q369.623,465.8716 368.8711,466.0474 Q368.1191,466.2232 367.2891,466.2232 Q364.3398,466.2232 362.7871,464.2798 Q361.2344,462.3365 361.2344,458.6646 Q361.2344,454.983 362.7871,453.0396 Q364.3398,451.0962 367.2891,451.0962 Q368.1191,451.0962 368.8809,451.272 Q369.6426,451.4478 370.3066,451.7994 L370.3066,455.0025 Q369.5645,454.3189 368.8662,454.0015 Q368.168,453.6841 367.4258,453.6841 Q365.8438,453.6841 365.0381,454.939 Q364.2324,456.1939 364.2324,458.6646 Q364.2324,461.1255 365.0381,462.3804 Q365.8438,463.6353 367.4258,463.6353 Q368.168,463.6353 368.8662,463.3179 Q369.5645,463.0005 370.3066,462.317 Z " fill="#000000"/><text fill="#000000" font-family="sans-serif" font-size="20" lengthAdjust="spacing" textLength="43" x="389.5" y="465.9986">User</text><line style="stroke:#181818;stroke-width:0.5;" x1="256.5" x2="530.5" y1="475.44" y2="475.44"/><text fill="#000000" font-family="sans-serif" font-size="20" lengthAdjust="spacing" textLength="127" x="261.5" y="498.7759">-String name</text><text fill="#000000" font-family="sans-serif" font-size="20" lengthAdjust="spacing" textLength="127" x="261.5" y="522.3306">-String email</text><text fill="#000000" font-family="sans-serif" font-size="20" lengthAdjust="spacing" textLength="166" x="261.5" y="545.8853">-String password</text><text fill="#000000" font-family="sans-serif" font-size="20" lengthAdjust="spacing" textLength="251" x="261.5" y="569.44">-int passportCardNumber</text><text fill="#000000" font-family="sans-serif" font-size="20" lengthAdjust="spacing" textLength="151" x="261.5" y="592.9947">-int taxNumber</text><text fill="#000000" font-family="sans-serif" font-size="20" lengthAdjust="spacing" textLength="216" x="261.5" y="616.5494">-int telephoneNumber</text><line style="stroke:#181818;stroke-width:0.5;" x1="256.5" x2="530.5" y1="624.7681" y2="624.7681"/><text fill="#000000" font-family="sans-serif" font-size="20" lengthAdjust="spacing" textLength="114" x="261.5" y="648.1041">+setName()</text><text fill="#000000" font-family="sans-serif" font-size="20" lengthAdjust="spacing" textLength="111" x="261.5" y="671.6587">+setEmail()</text><text fill="#000000" font-family="sans-serif" font-size="20" lengthAdjust="spacing" textLength="148" x="261.5" y="695.2134">+setPassword()</text><text fill="#000000" font-family="sans-serif" font-size="20" lengthAdjust="spacing" textLength="264" x="261.5" y="718.7681">+setPassportCardNumber()</text><text fill="#000000" font-family="sans-serif" font-size="20" lengthAdjust="spacing" textLength="237" x="261.5" y="742.3228">+setTelephoneNumber()</text></g><!--class Address--><g id="elem_Address"><rect codeLine="54" fill="#F1F1F1" height="144.2188" id="Address" rx="2.5" ry="2.5" style="stroke:#181818;stroke-width:0.5;" width="140" x="600.5" y="523.88"/><ellipse cx="628.65" cy="540.88" fill="#ADD1B2" rx="12" ry="12" style="stroke:#181818;stroke-width:1.0;"/><path d="M631.4566,547.9601 Q630.773,548.3116 630.0211,548.4874 Q629.2691,548.6632 628.4391,548.6632 Q625.4898,548.6632 623.9371,546.7198 Q622.3844,544.7765 622.3844,541.1046 Q622.3844,537.423 623.9371,535.4796 Q625.4898,533.5363 628.4391,533.5363 Q629.2691,533.5363 630.0309,533.712 Q630.7926,533.8878 631.4566,534.2394 L631.4566,537.4425 Q630.7145,536.7589 630.0162,536.4415 Q629.318,536.1241 628.5758,536.1241 Q626.9938,536.1241 626.1881,537.379 Q625.3824,538.6339 625.3824,541.1046 Q625.3824,543.5655 626.1881,544.8204 Q626.9938,546.0753 628.5758,546.0753 Q629.318,546.0753 630.0162,545.7579 Q630.7145,545.4405 631.4566,544.757 Z " fill="#000000"/><text fill="#000000" font-family="sans-serif" font-size="20" lengthAdjust="spacing" textLength="79" x="646.35" y="548.4386">Address</text><line style="stroke:#181818;stroke-width:0.5;" x1="601.5" x2="739.5" y1="557.88" y2="557.88"/><text fill="#000000" font-family="sans-serif" font-size="20" lengthAdjust="spacing" textLength="128" x="606.5" y="581.2159">-String street</text><text fill="#000000" font-family="sans-serif" font-size="20" lengthAdjust="spacing" textLength="107" x="606.5" y="604.7706">-String city</text><text fill="#000000" font-family="sans-serif" font-size="20" lengthAdjust="spacing" textLength="120" x="606.5" y="628.3253">-String state</text><text fill="#000000" font-family="sans-serif" font-size="20" lengthAdjust="spacing" textLength="123" x="606.5" y="651.88">-int zipCode</text><line style="stroke:#181818;stroke-width:0.5;" x1="601.5" x2="739.5" y1="660.0988" y2="660.0988"/></g><!--link Repositories to Repositories--><g id="link_Repositories_Repositories"><path codeLine="62" d="M661.16,267.31 C682.09,270.19 696,275.86 696,284.33 C696,292 684.58,297.38 666.85,300.46 " fill="none" id="Repositories-to-Repositories" style="stroke:#181818;stroke-width:1.0;"/><polygon fill="#181818" points="662.16,301.35,671.6692,303.9143,667.1002,300.579,670.4355,296.01,662.16,301.35" style="stroke:#181818;stroke-width:1.0;"/><text fill="#000000" font-family="sans-serif" font-size="20" lengthAdjust="spacing" textLength="89" x="702" y="292.1659">instances</text></g><!--link RegisterUserUI to RegisterUserController--><g id="link_RegisterUserUI_RegisterUserController"><path codeLine="64" d="M313.5,79.11 C316.66,79.11 318.5,79.11 318.5,79.11 C318.5,79.11 328.41,79.11 341.76,79.11 " fill="none" id="RegisterUserUI-to-RegisterUserController" style="stroke:#181818;stroke-width:1.0;stroke-dasharray:7.0,7.0;"/><polygon fill="#181818" points="346.67,79.11,337.67,75.11,341.67,79.11,337.67,83.11,346.67,79.11" style="stroke:#181818;stroke-width:1.0;"/></g><!--link RegisterUserController to Repositories--><g id="link_RegisterUserController_Repositories"><path codeLine="66" d="M504.5,151.47 C504.5,169.2 504.5,188.27 504.5,206.25 " fill="none" id="RegisterUserController-to-Repositories" style="stroke:#181818;stroke-width:1.0;stroke-dasharray:7.0,7.0;"/><polygon fill="#181818" points="504.5,210.8,508.5,201.8,504.5,205.8,500.5,201.8,504.5,210.8" style="stroke:#181818;stroke-width:1.0;"/></g><!--link Repositories to AuthenticationRepository--><g id="link_Repositories_AuthenticationRepository"><path codeLine="68" d="M620.26,356.76 C686.88,397.86 757.5,441.44 757.5,441.44 C757.5,441.44 826.14,509.44 872.07,554.93 " fill="none" id="Repositories-to-AuthenticationRepository" style="stroke:#181818;stroke-width:1.0;"/><polygon fill="#181818" points="875.16,557.99,871.5873,548.812,871.6102,554.4688,865.9534,554.4917,875.16,557.99" style="stroke:#181818;stroke-width:1.0;"/><text fill="#000000" font-family="sans-serif" font-size="20" lengthAdjust="spacing" textLength="33" x="703.5" y="406.7759">has</text><text fill="#000000" font-family="sans-serif" font-size="20" lengthAdjust="spacing" textLength="13" x="617.3324" y="383.8589">1</text><text fill="#000000" font-family="sans-serif" font-size="20" lengthAdjust="spacing" textLength="13" x="855.7969" y="547.0381">1</text></g><!--link Repositories to UserRepository--><g id="link_Repositories_UserRepository"><path codeLine="70" d="M382.79,356.76 C312.75,397.86 238.5,441.44 238.5,441.44 C238.5,441.44 175.87,509.16 133.8,554.66 " fill="none" id="Repositories-to-UserRepository" style="stroke:#181818;stroke-width:1.0;"/><polygon fill="#181818" points="130.79,557.99,139.84,554.1045,134.1873,554.3215,133.9704,548.6688,130.79,557.99" style="stroke:#181818;stroke-width:1.0;"/><text fill="#000000" font-family="sans-serif" font-size="20" lengthAdjust="spacing" textLength="33" x="333.5" y="406.7759">has</text><text fill="#000000" font-family="sans-serif" font-size="20" lengthAdjust="spacing" textLength="13" x="357.9706" y="383.8589">1</text><text fill="#000000" font-family="sans-serif" font-size="20" lengthAdjust="spacing" textLength="13" x="121.3945" y="547.0381">1</text></g><!--link UserRepository to User--><g id="link_UserRepository_User"><path codeLine="72" d="M186.42,595.99 C206.32,595.99 227.9,595.99 249.35,595.99 " fill="none" id="UserRepository-to-User" style="stroke:#181818;stroke-width:1.0;"/><polygon fill="#181818" points="254.1,595.99,245.1,591.99,249.1,595.99,245.1,599.99,254.1,595.99" style="stroke:#181818;stroke-width:1.0;"/><text fill="#000000" font-family="sans-serif" font-size="20" lengthAdjust="spacing" textLength="33" x="204.25" y="588.3259">has</text><text fill="#000000" font-family="sans-serif" font-size="20" lengthAdjust="spacing" textLength="13" x="194.1035" y="591.4318">1</text><text fill="#000000" font-family="sans-serif" font-size="20" lengthAdjust="spacing" textLength="10" x="237.7059" y="591.7472">*</text></g><!--link User to Address--><g id="link_User_Address"><path codeLine="74" d="M531.59,595.99 C553.09,595.99 574.59,595.99 594.04,595.99 " fill="none" id="User-to-Address" style="stroke:#181818;stroke-width:1.0;"/><polygon fill="#181818" points="599.01,595.99,590.01,591.99,594.01,595.99,590.01,599.99,599.01,595.99" style="stroke:#181818;stroke-width:1.0;"/><text fill="#000000" font-family="sans-serif" font-size="20" lengthAdjust="spacing" textLength="33" x="549.5" y="588.3259">has</text><text fill="#000000" font-family="sans-serif" font-size="20" lengthAdjust="spacing" textLength="13" x="539.4973" y="591.7122">1</text><text fill="#000000" font-family="sans-serif" font-size="20" lengthAdjust="spacing" textLength="13" x="579.4313" y="591.2213">1</text></g><!--SRC=[dL91Rjim4Bph5KGkIHlOI7li8K1Wj80lGH0t3s38jKIO8edb2ebYzEzTIfPDAd4EqKNWp2ndj9guCov8bAtrQWTQQDZApj8VxsXZta3ylAakuwGHhNTUDUXR48GTL2ScIBMJDMoejo0G54bNsrmG6wdzYt6rs4eRSyOQ1zG74C7RFXronoFfaNoLJIahOxmZGlFS4QoLTqFUcwgwjB0bGLwWgHiIsgGuXeUhOKOyGl3Ha4S3KUmhmSzrZbrz6x4QQEqYVuY23Bhhg057Hac-qntd-apo504Buj_9kZQH09DYnIj6RotW5EABjm-4Gf04YPiGgVNX-A7zqvfjox5q-obLFdWkrlu3y-DG6NH_DbKwZ-n2RFX_SaMSRA54e9N6bb3WuHUF-e0QHmCKk2ahYVg-Qvy1CvBawtiCB8J6EyYOQn61xZd1jCbq_ftyS-3Xu3x7IlkS_LjwCPKjM6k466ThY8G0L6BAK3zNyVApRtepOUKrfCkhekkBsxBxlrW-zZicPT6DvUsPifRAhCJBPNdzpFpYnuLOS8BqFbSdJjJ8pmRBIato6JeCiFxxgCzLHow565S-qVpy1m00]--></g></svg>