<?xml version="1.0" encoding="UTF-8" standalone="no"?><svg xmlns="http://www.w3.org/2000/svg" xmlns:xlink="http://www.w3.org/1999/xlink" contentStyleType="text/css" height="781px" preserveAspectRatio="none" style="width:975px;height:781px;background:#FFFFFF;" version="1.1" viewBox="0 0 975 781" width="975px" zoomAndPan="magnify"><defs/><g><text fill="#000000" font-family="sans-serif" font-size="14" font-weight="bold" lengthAdjust="spacing" textLength="415" x="281" y="28.5352">System Sequence Diagram (SSD) - US002 - Publish a Sale</text><rect fill="#FFFFFF" height="548.875" style="stroke:#181818;stroke-width:1.0;" width="10" x="46" y="136.043"/><rect fill="#FFFFFF" height="61.1094" style="stroke:#181818;stroke-width:1.0;" width="10" x="909" y="165.5977"/><rect fill="#FFFFFF" height="37.5547" style="stroke:#181818;stroke-width:1.0;" width="10" x="909" y="264.2617"/><rect fill="#FFFFFF" height="78.6641" style="stroke:#181818;stroke-width:1.0;" width="10" x="909" y="339.3711"/><rect fill="#FFFFFF" height="63.1094" style="stroke:#181818;stroke-width:1.0;" width="10" x="909" y="455.5898"/><rect fill="#FFFFFF" height="44.5547" style="stroke:#181818;stroke-width:1.0;" width="10" x="909" y="556.2539"/><rect fill="#FFFFFF" height="37.5547" style="stroke:#181818;stroke-width:1.0;" width="10" x="909" y="638.3633"/><rect fill="none" height="209.8828" style="stroke:#000000;stroke-width:1.5;" width="958" x="10" y="354.3711"/><line style="stroke:#181818;stroke-width:0.5;stroke-dasharray:5.0,5.0;" x1="51" x2="51" y1="126.043" y2="693.918"/><line style="stroke:#181818;stroke-width:0.5;stroke-dasharray:5.0,5.0;" x1="914" x2="914" y1="126.043" y2="693.918"/><text fill="#000000" font-family="sans-serif" font-size="20" lengthAdjust="spacing" textLength="56" x="20" y="121.8242">Agent</text><ellipse cx="51" cy="50.9883" fill="#E3E3E3" rx="8" ry="8" style="stroke:#181818;stroke-width:0.5;"/><path d="M51,58.9883 L51,85.9883 M38,66.9883 L64,66.9883 M51,85.9883 L38,100.9883 M51,85.9883 L64,100.9883 " fill="none" style="stroke:#181818;stroke-width:0.5;"/><text fill="#000000" font-family="sans-serif" font-size="20" lengthAdjust="spacing" textLength="56" x="20" y="712.2539">Agent</text><ellipse cx="51" cy="724.9727" fill="#E3E3E3" rx="8" ry="8" style="stroke:#181818;stroke-width:0.5;"/><path d="M51,732.9727 L51,759.9727 M38,740.9727 L64,740.9727 M51,759.9727 L38,774.9727 M51,759.9727 L64,774.9727 " fill="none" style="stroke:#181818;stroke-width:0.5;"/><rect fill="#E3E3E3" height="37.5547" rx="2.5" ry="2.5" style="stroke:#181818;stroke-width:0.5;" width="88" x="870" y="87.4883"/><text fill="#000000" font-family="sans-serif" font-size="20" lengthAdjust="spacing" textLength="74" x="877" y="113.8242">:System</text><rect fill="#E3E3E3" height="37.5547" rx="2.5" ry="2.5" style="stroke:#181818;stroke-width:0.5;" width="88" x="870" y="692.918"/><text fill="#000000" font-family="sans-serif" font-size="20" lengthAdjust="spacing" textLength="74" x="877" y="719.2539">:System</text><rect fill="#FFFFFF" height="548.875" style="stroke:#181818;stroke-width:1.0;" width="10" x="46" y="136.043"/><rect fill="#FFFFFF" height="61.1094" style="stroke:#181818;stroke-width:1.0;" width="10" x="909" y="165.5977"/><rect fill="#FFFFFF" height="37.5547" style="stroke:#181818;stroke-width:1.0;" width="10" x="909" y="264.2617"/><rect fill="#FFFFFF" height="78.6641" style="stroke:#181818;stroke-width:1.0;" width="10" x="909" y="339.3711"/><rect fill="#FFFFFF" height="63.1094" style="stroke:#181818;stroke-width:1.0;" width="10" x="909" y="455.5898"/><rect fill="#FFFFFF" height="44.5547" style="stroke:#181818;stroke-width:1.0;" width="10" x="909" y="556.2539"/><rect fill="#FFFFFF" height="37.5547" style="stroke:#181818;stroke-width:1.0;" width="10" x="909" y="638.3633"/><polygon fill="#181818" points="897,161.5977,907,165.5977,897,169.5977,901,165.5977" style="stroke:#181818;stroke-width:1.0;"/><line style="stroke:#181818;stroke-width:1.0;" x1="56" x2="903" y1="165.5977" y2="165.5977"/><text fill="#000000" font-family="sans-serif" font-size="20" font-weight="bold" lengthAdjust="spacing" textLength="13" x="63" y="159.3789">1</text><text fill="#000000" font-family="sans-serif" font-size="20" lengthAdjust="spacing" textLength="540" x="80" y="159.3789">asks to create a new sale for publish from existing order</text><polygon fill="#181818" points="67,222.707,57,226.707,67,230.707,63,226.707" style="stroke:#181818;stroke-width:1.0;"/><line style="stroke:#181818;stroke-width:1.0;stroke-dasharray:2.0,2.0;" x1="61" x2="913" y1="226.707" y2="226.707"/><text fill="#000000" font-family="sans-serif" font-size="20" font-weight="bold" lengthAdjust="spacing" textLength="13" x="73" y="208.7109">2</text><text fill="#000000" font-family="sans-serif" font-size="20" lengthAdjust="spacing" textLength="634" x="90" y="196.9336">Lists Announcements assigned to Agent that are not published yet</text><text fill="#000000" font-family="sans-serif" font-size="20" lengthAdjust="spacing" textLength="212" x="90" y="220.4883">and asks to select one</text><polygon fill="#181818" points="897,260.2617,907,264.2617,897,268.2617,901,264.2617" style="stroke:#181818;stroke-width:1.0;"/><line style="stroke:#181818;stroke-width:1.0;" x1="56" x2="903" y1="264.2617" y2="264.2617"/><text fill="#000000" font-family="sans-serif" font-size="20" font-weight="bold" lengthAdjust="spacing" textLength="13" x="63" y="258.043">3</text><text fill="#000000" font-family="sans-serif" font-size="20" lengthAdjust="spacing" textLength="329" x="80" y="258.043">selects an Announcement by its ID</text><polygon fill="#181818" points="67,297.8164,57,301.8164,67,305.8164,63,301.8164" style="stroke:#181818;stroke-width:1.0;"/><line style="stroke:#181818;stroke-width:1.0;stroke-dasharray:2.0,2.0;" x1="61" x2="913" y1="301.8164" y2="301.8164"/><text fill="#000000" font-family="sans-serif" font-size="20" font-weight="bold" lengthAdjust="spacing" textLength="13" x="73" y="295.5977">4</text><text fill="#000000" font-family="sans-serif" font-size="20" lengthAdjust="spacing" textLength="682" x="90" y="295.5977">asks to set a Commission, either through a fixed amount or percentage</text><polygon fill="#181818" points="897,335.3711,907,339.3711,897,343.3711,901,339.3711" style="stroke:#181818;stroke-width:1.0;"/><line style="stroke:#181818;stroke-width:1.0;" x1="56" x2="903" y1="339.3711" y2="339.3711"/><text fill="#000000" font-family="sans-serif" font-size="20" font-weight="bold" lengthAdjust="spacing" textLength="13" x="63" y="333.1523">5</text><text fill="#000000" font-family="sans-serif" font-size="20" lengthAdjust="spacing" textLength="299" x="80" y="333.1523">selects the type of Commission</text><path d="M10,354.3711 L82,354.3711 L82,369.9258 L72,379.9258 L10,379.9258 L10,354.3711 " fill="#EEEEEE" style="stroke:#000000;stroke-width:1.5;"/><rect fill="none" height="209.8828" style="stroke:#000000;stroke-width:1.5;" width="958" x="10" y="354.3711"/><text fill="#000000" font-family="sans-serif" font-size="20" font-weight="bold" lengthAdjust="spacing" textLength="27" x="25" y="374.707">alt</text><text fill="#000000" font-family="sans-serif" font-size="20" font-weight="bold" lengthAdjust="spacing" textLength="157" x="97" y="375.707">[Fixed Amount]</text><polygon fill="#181818" points="67,414.0352,57,418.0352,67,422.0352,63,418.0352" style="stroke:#181818;stroke-width:1.0;"/><line style="stroke:#181818;stroke-width:1.0;stroke-dasharray:2.0,2.0;" x1="61" x2="913" y1="418.0352" y2="418.0352"/><text fill="#000000" font-family="sans-serif" font-size="20" font-weight="bold" lengthAdjust="spacing" textLength="13" x="73" y="411.8164">6</text><text fill="#000000" font-family="sans-serif" font-size="20" lengthAdjust="spacing" textLength="292" x="90" y="411.8164">asks to type the Fixed Amount</text><polygon fill="#181818" points="897,451.5898,907,455.5898,897,459.5898,901,455.5898" style="stroke:#181818;stroke-width:1.0;"/><line style="stroke:#181818;stroke-width:1.0;" x1="56" x2="903" y1="455.5898" y2="455.5898"/><text fill="#000000" font-family="sans-serif" font-size="20" font-weight="bold" lengthAdjust="spacing" textLength="13" x="63" y="449.3711">7</text><text fill="#000000" font-family="sans-serif" font-size="20" lengthAdjust="spacing" textLength="228" x="80" y="449.3711">types the Fixed Amount</text><line style="stroke:#000000;stroke-width:1.0;stroke-dasharray:2.0,2.0;" x1="10" x2="968" y1="464.5898" y2="464.5898"/><text fill="#000000" font-family="sans-serif" font-size="20" font-weight="bold" lengthAdjust="spacing" textLength="128" x="15" y="483.9258">[Percentage]</text><polygon fill="#181818" points="67,514.6992,57,518.6992,67,522.6992,63,518.6992" style="stroke:#181818;stroke-width:1.0;"/><line style="stroke:#181818;stroke-width:1.0;stroke-dasharray:2.0,2.0;" x1="61" x2="913" y1="518.6992" y2="518.6992"/><text fill="#000000" font-family="sans-serif" font-size="20" font-weight="bold" lengthAdjust="spacing" textLength="13" x="73" y="512.4805">8</text><text fill="#000000" font-family="sans-serif" font-size="20" lengthAdjust="spacing" textLength="317" x="90" y="512.4805">asks to type the Percentage value</text><polygon fill="#181818" points="897,552.2539,907,556.2539,897,560.2539,901,556.2539" style="stroke:#181818;stroke-width:1.0;"/><line style="stroke:#181818;stroke-width:1.0;" x1="56" x2="903" y1="556.2539" y2="556.2539"/><text fill="#000000" font-family="sans-serif" font-size="20" font-weight="bold" lengthAdjust="spacing" textLength="13" x="63" y="550.0352">9</text><text fill="#000000" font-family="sans-serif" font-size="20" lengthAdjust="spacing" textLength="253" x="80" y="550.0352">types the Percentage value</text><polygon fill="#181818" points="67,596.8086,57,600.8086,67,604.8086,63,600.8086" style="stroke:#181818;stroke-width:1.0;"/><line style="stroke:#181818;stroke-width:1.0;stroke-dasharray:2.0,2.0;" x1="61" x2="913" y1="600.8086" y2="600.8086"/><text fill="#000000" font-family="sans-serif" font-size="20" font-weight="bold" lengthAdjust="spacing" textLength="26" x="73" y="594.5898">10</text><text fill="#000000" font-family="sans-serif" font-size="20" lengthAdjust="spacing" textLength="612" x="103" y="594.5898">validates Commission and sets it to the selected Announcement</text><polygon fill="#181818" points="897,634.3633,907,638.3633,897,642.3633,901,638.3633" style="stroke:#181818;stroke-width:1.0;"/><line style="stroke:#181818;stroke-width:1.0;" x1="56" x2="903" y1="638.3633" y2="638.3633"/><text fill="#000000" font-family="sans-serif" font-size="20" font-weight="bold" lengthAdjust="spacing" textLength="26" x="63" y="632.1445">11</text><text fill="#000000" font-family="sans-serif" font-size="20" lengthAdjust="spacing" textLength="370" x="93" y="632.1445">confirms the Published Announcement</text><polygon fill="#181818" points="67,671.918,57,675.918,67,679.918,63,675.918" style="stroke:#181818;stroke-width:1.0;"/><line style="stroke:#181818;stroke-width:1.0;stroke-dasharray:2.0,2.0;" x1="61" x2="913" y1="675.918" y2="675.918"/><text fill="#000000" font-family="sans-serif" font-size="20" font-weight="bold" lengthAdjust="spacing" textLength="26" x="73" y="669.6992">12</text><text fill="#000000" font-family="sans-serif" font-size="20" lengthAdjust="spacing" textLength="799" x="103" y="669.6992">publishes the Announcement, sets the Published Date and shows operation success</text><!--SRC=[dPF1Rjim38RlVWeYfmreWA3770OK2meCsA60qLilZ4pRGcpAawYctjEFikF4cOCXgoyM9FB_FufKE5Zkq6FRE7EW0WegCJRox5Xo-vlWSPE5AGHQnyxKthK4uYFDJZeq1wmebxuXy6G4kMhc0Q76mXqjLr1Y4oZBn8g6vdqGQY6dNv7O4EmiLYdyIvxlli8QNlFDvb7_Bt7Vs503Gewgcs4Knx7TazUr4UTXzLGHomemmB3Ar5UiiHsom6ex6Wt7utB8i-yeT8hFXX-ilqrGMmq-1107nbEAGs0wGb00ADMnEp6LUY507pP8Ai_vGg7EsfFPINEjygFF5dvgXi8okwYbjxePr37OYhKFwZh6IOq2w0dOoMIfvpt96oCNPyP0ZLuxEAQie8NzihOnNXtv2W7sFLZT_h6xguQBkqB2TzUsLYjm_01afIQl-Dx5AZMkj1_AZQrQAQPU7tcZ8Zer_mUiiY1zH-3AcU6I5Xk1vy7pQV3CGBz_b31e9l55qWsyjBr4J1BXjiRV2gIF05ukLt0lt2K5th69z5d0cpeBI2vkTbqpRA5nOTO0ICEeOn1qV0PYDHbRbYvYDc7tTTiuBgrlJx3diRyIkcT0fnSp2itJ7qRQQ_tTyCvJ9RKx1d0wf2YfkX2DeH1kmVy1]--></g></svg>