<?xml version="1.0" encoding="UTF-8" standalone="no"?><svg xmlns="http://www.w3.org/2000/svg" xmlns:xlink="http://www.w3.org/1999/xlink" contentStyleType="text/css" height="543px" preserveAspectRatio="none" style="width:452px;height:543px;background:#FFFFFF;" version="1.1" viewBox="0 0 452 543" width="452px" zoomAndPan="magnify"><defs/><g><text fill="#000000" font-family="sans-serif" font-size="14" font-weight="bold" lengthAdjust="spacing" textLength="105" x="166.75" y="23.5352">Domain Model</text><!--class NetworkManager--><g id="elem_NetworkManager"><rect codeLine="14" fill="#F1F1F1" height="41.5547" id="NetworkManager" rx="2.5" ry="2.5" style="stroke:#181818;stroke-width:0.5;" width="168" x="277.5" y="147.4883"/><text fill="#000000" font-family="sans-serif" font-size="20" lengthAdjust="spacing" textLength="162" x="280.5" y="171.8242">NetworkManager</text><line style="stroke:#181818;stroke-width:0.5;" x1="278.5" x2="444.5" y1="181.043" y2="181.043"/></g><!--class Employee--><g id="elem_Employee"><rect fill="#F1F1F1" height="41.5547" id="Employee" rx="2.5" ry="2.5" style="stroke:#181818;stroke-width:0.5;" width="99" x="312" y="44.4883"/><text fill="#000000" font-family="sans-serif" font-size="20" lengthAdjust="spacing" textLength="93" x="315" y="68.8242">Employee</text><line style="stroke:#181818;stroke-width:0.5;" x1="313" x2="410" y1="78.043" y2="78.043"/></g><!--class Deal--><g id="elem_Deal"><rect codeLine="19" fill="#F1F1F1" height="65.1094" id="Deal" rx="2.5" ry="2.5" style="stroke:#181818;stroke-width:0.5;" width="94" x="149.5" y="274.4883"/><text fill="#000000" font-family="sans-serif" font-size="20" lengthAdjust="spacing" textLength="43" x="175" y="298.8242">Deal</text><line style="stroke:#181818;stroke-width:0.5;" x1="150.5" x2="242.5" y1="308.043" y2="308.043"/><text fill="#000000" font-family="sans-serif" font-size="20" lengthAdjust="spacing" textLength="82" x="155.5" y="331.3789">property</text></g><!--class Announcement--><g id="elem_Announcement"><rect fill="#F1F1F1" height="41.5547" id="Announcement" rx="2.5" ry="2.5" style="stroke:#181818;stroke-width:0.5;" width="150" x="92.5" y="147.4883"/><text fill="#000000" font-family="sans-serif" font-size="20" lengthAdjust="spacing" textLength="144" x="95.5" y="171.8242">Announcement</text><line style="stroke:#181818;stroke-width:0.5;" x1="93.5" x2="241.5" y1="181.043" y2="181.043"/></g><!--class Property--><g id="elem_Property"><rect codeLine="23" fill="#F1F1F1" height="112.2188" id="Property" rx="2.5" ry="2.5" style="stroke:#181818;stroke-width:0.5;" width="205" x="7" y="424.4883"/><text fill="#000000" font-family="sans-serif" font-size="20" lengthAdjust="spacing" textLength="80" x="69.5" y="448.8242">Property</text><line style="stroke:#181818;stroke-width:0.5;" x1="8" x2="211" y1="458.043" y2="458.043"/><text fill="#000000" font-family="sans-serif" font-size="20" lengthAdjust="spacing" textLength="41" x="13" y="481.3789">area</text><text fill="#000000" font-family="sans-serif" font-size="20" lengthAdjust="spacing" textLength="193" x="13" y="504.9336">distanceFromCenter</text><text fill="#000000" font-family="sans-serif" font-size="20" lengthAdjust="spacing" textLength="48" x="13" y="528.4883">price</text></g><!--class Agency--><g id="elem_Agency"><rect fill="#F1F1F1" height="41.5547" id="Agency" rx="2.5" ry="2.5" style="stroke:#181818;stroke-width:0.5;" width="75" x="247" y="459.4883"/><text fill="#000000" font-family="sans-serif" font-size="20" lengthAdjust="spacing" textLength="69" x="250" y="483.8242">Agency</text><line style="stroke:#181818;stroke-width:0.5;" x1="248" x2="321" y1="493.043" y2="493.043"/></g><!--reverse link Employee to NetworkManager--><g id="link_Employee_NetworkManager"><path d="M361.5,108.0583 C361.5,121.5183 361.5,135.8583 361.5,147.0783 " fill="none" id="Employee-backto-NetworkManager" style="stroke:#181818;stroke-width:1.0;"/><polygon fill="none" points="354.5,108.4383,361.5,88.4383,368.5,108.4383,354.5,108.4383" style="stroke:#181818;stroke-width:1.0;"/></g><!--reverse link Announcement to Deal--><g id="link_Announcement_Deal"><path d="M176.28,210.8183 C180.61,231.1783 185.74,255.3583 189.76,274.2483 " fill="none" id="Announcement-backto-Deal" style="stroke:#181818;stroke-width:1.0;"/><polygon fill="none" points="169.47,212.4183,172.16,191.4083,183.16,209.5083,169.47,212.4183" style="stroke:#181818;stroke-width:1.0;"/></g><!--link NetworkManager to Deal--><g id="link_NetworkManager_Deal"><path codeLine="30" d="M336.8,189.9283 C309.83,212.2383 266.3,248.2483 234.87,274.2483 " fill="none" id="NetworkManager-Deal" style="stroke:#181818;stroke-width:1.0;"/><polygon fill="#000000" points="300.3358,237.3649,314.4842,231.7635,308.4897,224.517,300.3358,237.3649" style="stroke:#000000;stroke-width:1.0;"/><text fill="#000000" font-family="sans-serif" font-size="20" lengthAdjust="spacing" textLength="37" x="319.5" y="239.8242">sort</text><text fill="#000000" font-family="sans-serif" font-size="20" lengthAdjust="spacing" textLength="13" x="316.975" y="216.5792">1</text><text fill="#000000" font-family="sans-serif" font-size="20" lengthAdjust="spacing" textLength="10" x="231.2312" y="262.1934">*</text></g><!--link Deal to Agency--><g id="link_Deal_Agency"><path codeLine="31" d="M219.35,339.8483 C225.6,349.1883 232.13,359.5583 237.5,369.4883 C253.8,399.6283 268.62,436.6083 277.09,459.0983 " fill="none" id="Deal-Agency" style="stroke:#181818;stroke-width:1.0;"/><polygon fill="#000000" points="259.9864,389.466,257.9117,374.3912,249.4472,378.4896,259.9864,389.466" style="stroke:#000000;stroke-width:1.0;"/><text fill="#000000" font-family="sans-serif" font-size="20" lengthAdjust="spacing" textLength="101" x="269.5" y="389.8242">belongs to</text><text fill="#000000" font-family="sans-serif" font-size="20" lengthAdjust="spacing" textLength="10" x="212.418" y="366.8469">*</text><text fill="#000000" font-family="sans-serif" font-size="20" lengthAdjust="spacing" textLength="13" x="260.5256" y="447.1343">1</text></g><!--link Deal to Property--><g id="link_Deal_Property"><path codeLine="32" d="M180.34,339.8483 C168.35,363.4783 151.7,396.2983 137.55,424.1883 " fill="none" id="Deal-Property" style="stroke:#181818;stroke-width:1.0;"/><polygon fill="#000000" points="167.8804,389.3999,178.6218,378.6214,170.2349,374.3663,167.8804,389.3999" style="stroke:#000000;stroke-width:1.0;"/><text fill="#000000" font-family="sans-serif" font-size="20" lengthAdjust="spacing" textLength="44" x="184.5" y="389.8242">have</text><text fill="#000000" font-family="sans-serif" font-size="20" lengthAdjust="spacing" textLength="13" x="163.4453" y="366.8469">1</text><text fill="#000000" font-family="sans-serif" font-size="20" lengthAdjust="spacing" textLength="13" x="127.1764" y="412.2816">1</text></g><!--SRC=[NP31QiCm38RlUWgHos1GQ7VSOL3M5NRe6FG9N5jDJ6mfsCgwhEpTvwHDAVD9rl_zqezowxapoSGWjYM7Zewc3xeLrht_8NnQGfuHZC9YcoIHK5DFTqfdR6jgskiG21DPDLo7Uo0tnid9Sur74p81F0GwAgfWydMZwFpeyi9mPxB1vBnMJVxGAxrRuIdJ4g3nZj3wPCkIgOwaZRWCe5vBX8r4unbtuYW0J7FmW_GagTqPBaaJqhSIkunliGio49q1Vc5cDsJ2ZLWpIy-M8h6U0SlhadIKT1WT5yFdjNFHJI8p5SxdSWfBstAqrsAdTFLxIzE-Vw6gLOMB1LQFrIN2CsP9YYym_SRsg1PeNHFReUW72i9r7YyvKwiRDQSgN6E-g11_]--></g></svg>