<?xml version="1.0" encoding="UTF-8" standalone="no"?><svg xmlns="http://www.w3.org/2000/svg" xmlns:xlink="http://www.w3.org/1999/xlink" contentStyleType="text/css" height="1212px" preserveAspectRatio="none" style="width:1186px;height:1212px;background:#FFFFFF;" version="1.1" viewBox="0 0 1186 1212" width="1186px" zoomAndPan="magnify"><defs><filter height="300%" id="f3xawa7sz3lei" width="300%" x="-1" y="-1"><feGaussianBlur result="blurOut" stdDeviation="2.0"/><feColorMatrix in="blurOut" result="blurOut2" type="matrix" values="0 0 0 0 0 0 0 0 0 0 0 0 0 0 0 0 0 0 .4 0"/><feOffset dx="4.0" dy="4.0" in="blurOut2" result="blurOut3"/><feBlend in="SourceGraphic" in2="blurOut3" mode="normal"/></filter></defs><g><text fill="#000000" font-family="sans-serif" font-size="14" font-weight="bold" lengthAdjust="spacing" textLength="105" x="533.75" y="23.5352">Domain Model</text><!--class StoreNetworkManager--><g id="elem_StoreNetworkManager"><rect codeLine="15" fill="#F1F1F1" filter="url(#f3xawa7sz3lei)" height="41.5547" id="StoreNetworkManager" rx="2.5" ry="2.5" style="stroke:#181818;stroke-width:0.5;" width="217" x="7" y="114.9883"/><text fill="#000000" font-family="sans-serif" font-size="20" lengthAdjust="spacing" textLength="211" x="10" y="139.3242">StoreNetworkManager</text><line style="stroke:#181818;stroke-width:0.5;" x1="8" x2="223" y1="148.543" y2="148.543"/></g><!--class SystemAdministrator--><g id="elem_SystemAdministrator"><rect codeLine="18" fill="#F1F1F1" filter="url(#f3xawa7sz3lei)" height="88.6641" id="SystemAdministrator" rx="2.5" ry="2.5" style="stroke:#181818;stroke-width:0.5;" width="207" x="285" y="91.4883"/><text fill="#000000" font-family="sans-serif" font-size="20" lengthAdjust="spacing" textLength="201" x="288" y="115.8242">SystemAdministrator</text><line style="stroke:#181818;stroke-width:0.5;" x1="286" x2="491" y1="125.043" y2="125.043"/><text fill="#000000" font-family="sans-serif" font-size="20" lengthAdjust="spacing" textLength="97" x="291" y="148.3789">userName</text><text fill="#000000" font-family="sans-serif" font-size="20" lengthAdjust="spacing" textLength="92" x="291" y="171.9336">password</text></g><!--class StoreManager--><g id="elem_StoreManager"><rect codeLine="23" fill="#F1F1F1" filter="url(#f3xawa7sz3lei)" height="41.5547" id="StoreManager" rx="2.5" ry="2.5" style="stroke:#181818;stroke-width:0.5;" width="137" x="205" y="1158.4883"/><text fill="#000000" font-family="sans-serif" font-size="20" lengthAdjust="spacing" textLength="131" x="208" y="1182.8242">StoreManager</text><line style="stroke:#181818;stroke-width:0.5;" x1="206" x2="341" y1="1192.043" y2="1192.043"/></g><!--class Property--><g id="elem_Property"><rect codeLine="26" fill="#F1F1F1" filter="url(#f3xawa7sz3lei)" height="182.8828" id="Property" rx="2.5" ry="2.5" style="stroke:#181818;stroke-width:0.5;" width="205" x="607" y="312.4883"/><text fill="#000000" font-family="sans-serif" font-size="20" lengthAdjust="spacing" textLength="80" x="669.5" y="336.8242">Property</text><line style="stroke:#181818;stroke-width:0.5;" x1="608" x2="811" y1="346.043" y2="346.043"/><text fill="#000000" font-family="sans-serif" font-size="20" lengthAdjust="spacing" textLength="147" x="613" y="369.3789">typeOfBusiness</text><text fill="#000000" font-family="sans-serif" font-size="20" lengthAdjust="spacing" textLength="144" x="613" y="392.9336">typeOfProperty</text><text fill="#000000" font-family="sans-serif" font-size="20" lengthAdjust="spacing" textLength="41" x="613" y="416.4883">area</text><text fill="#000000" font-family="sans-serif" font-size="20" lengthAdjust="spacing" textLength="76" x="613" y="440.043">location</text><text fill="#000000" font-family="sans-serif" font-size="20" lengthAdjust="spacing" textLength="193" x="613" y="463.5977">distanceFromCenter</text><text fill="#000000" font-family="sans-serif" font-size="20" lengthAdjust="spacing" textLength="48" x="613" y="487.1523">price</text></g><!--class Agent--><g id="elem_Agent"><rect codeLine="35" fill="#F1F1F1" filter="url(#f3xawa7sz3lei)" height="182.8828" id="Agent" rx="2.5" ry="2.5" style="stroke:#181818;stroke-width:0.5;" width="199" x="454" y="704.4883"/><text fill="#000000" font-family="sans-serif" font-size="20" lengthAdjust="spacing" textLength="56" x="525.5" y="728.8242">Agent</text><line style="stroke:#181818;stroke-width:0.5;" x1="455" x2="652" y1="738.043" y2="738.043"/><text fill="#000000" font-family="sans-serif" font-size="20" lengthAdjust="spacing" textLength="53" x="460" y="761.3789">name</text><text fill="#000000" font-family="sans-serif" font-size="20" lengthAdjust="spacing" textLength="187" x="460" y="784.9336">citizenCardNumber</text><text fill="#000000" font-family="sans-serif" font-size="20" lengthAdjust="spacing" textLength="108" x="460" y="808.4883">taxNumber</text><text fill="#000000" font-family="sans-serif" font-size="20" lengthAdjust="spacing" textLength="76" x="460" y="832.043">address</text><text fill="#000000" font-family="sans-serif" font-size="20" lengthAdjust="spacing" textLength="53" x="460" y="855.5977">email</text><text fill="#000000" font-family="sans-serif" font-size="20" lengthAdjust="spacing" textLength="173" x="460" y="879.1523">telephoneNumber</text></g><!--class Agency--><g id="elem_Agency"><rect codeLine="44" fill="#F1F1F1" filter="url(#f3xawa7sz3lei)" height="41.5547" id="Agency" rx="2.5" ry="2.5" style="stroke:#181818;stroke-width:0.5;" width="75" x="236" y="774.9883"/><text fill="#000000" font-family="sans-serif" font-size="20" lengthAdjust="spacing" textLength="69" x="239" y="799.3242">Agency</text><line style="stroke:#181818;stroke-width:0.5;" x1="237" x2="310" y1="808.543" y2="808.543"/></g><!--class Buyer--><g id="elem_Buyer"><rect codeLine="47" fill="#F1F1F1" filter="url(#f3xawa7sz3lei)" height="41.5547" id="Buyer" rx="2.5" ry="2.5" style="stroke:#181818;stroke-width:0.5;" width="59" x="966" y="114.9883"/><text fill="#000000" font-family="sans-serif" font-size="20" lengthAdjust="spacing" textLength="53" x="969" y="139.3242">Buyer</text><line style="stroke:#181818;stroke-width:0.5;" x1="967" x2="1024" y1="148.543" y2="148.543"/></g><!--class Seller--><g id="elem_Seller"><rect codeLine="50" fill="#F1F1F1" filter="url(#f3xawa7sz3lei)" height="182.8828" id="Seller" rx="2.5" ry="2.5" style="stroke:#181818;stroke-width:0.5;" width="199" x="556" y="44.4883"/><text fill="#000000" font-family="sans-serif" font-size="20" lengthAdjust="spacing" textLength="53" x="629" y="68.8242">Seller</text><line style="stroke:#181818;stroke-width:0.5;" x1="557" x2="754" y1="78.043" y2="78.043"/><text fill="#000000" font-family="sans-serif" font-size="20" lengthAdjust="spacing" textLength="53" x="562" y="101.3789">name</text><text fill="#000000" font-family="sans-serif" font-size="20" lengthAdjust="spacing" textLength="187" x="562" y="124.9336">citizenCardNumber</text><text fill="#000000" font-family="sans-serif" font-size="20" lengthAdjust="spacing" textLength="108" x="562" y="148.4883">taxNumber</text><text fill="#000000" font-family="sans-serif" font-size="20" lengthAdjust="spacing" textLength="76" x="562" y="172.043">address</text><text fill="#000000" font-family="sans-serif" font-size="20" lengthAdjust="spacing" textLength="53" x="562" y="195.5977">email</text><text fill="#000000" font-family="sans-serif" font-size="20" lengthAdjust="spacing" textLength="173" x="562" y="219.1523">telephoneNumber</text></g><!--class UnregisteredUser--><g id="elem_UnregisteredUser"><rect codeLine="60" fill="#F1F1F1" filter="url(#f3xawa7sz3lei)" height="41.5547" id="UnregisteredUser" rx="2.5" ry="2.5" style="stroke:#181818;stroke-width:0.5;" width="172" x="786.5" y="774.9883"/><text fill="#000000" font-family="sans-serif" font-size="20" lengthAdjust="spacing" textLength="166" x="789.5" y="799.3242">UnregisteredUser</text><line style="stroke:#181818;stroke-width:0.5;" x1="787.5" x2="957.5" y1="808.543" y2="808.543"/></g><!--class PublishedProperty--><g id="elem_PublishedProperty"><rect codeLine="63" fill="#F1F1F1" filter="url(#f3xawa7sz3lei)" height="41.5547" id="PublishedProperty" rx="2.5" ry="2.5" style="stroke:#181818;stroke-width:0.5;" width="180" x="782.5" y="1158.4883"/><text fill="#000000" font-family="sans-serif" font-size="20" lengthAdjust="spacing" textLength="174" x="785.5" y="1182.8242">PublishedProperty</text><line style="stroke:#181818;stroke-width:0.5;" x1="783.5" x2="961.5" y1="1192.043" y2="1192.043"/></g><!--link SystemAdministrator to Agent--><g id="link_SystemAdministrator_Agent"><path codeLine="66" d="M395.13,180.6483 C402.54,233.2483 413.5,324.3683 413.5,402.9883 C413.5,402.9883 413.5,402.9883 413.5,643.4883 C413.5,673.7483 428.75,700.5383 449.18,722.8483 " fill="none" id="SystemAdministrator-to-Agent" style="stroke:#181818;stroke-width:1.0;"/><polygon fill="#181818" points="452.58,726.4383,449.3245,717.143,449.1532,722.7973,443.4989,722.6259,452.58,726.4383" style="stroke:#181818;stroke-width:1.0;"/><text fill="#000000" font-family="sans-serif" font-size="20" lengthAdjust="spacing" textLength="68" x="414.5" y="576.8242">creates</text><text fill="#000000" font-family="sans-serif" font-size="20" lengthAdjust="spacing" textLength="13" x="382.1475" y="207.5906">1</text><text fill="#000000" font-family="sans-serif" font-size="20" lengthAdjust="spacing" textLength="10" x="435.9179" y="718.0276">*</text></g><!--link SystemAdministrator to Agency--><g id="link_SystemAdministrator_Agency"><path codeLine="67" d="M356.47,180.6183 C322.44,231.3683 273.5,318.9683 273.5,402.9883 C273.5,402.9883 273.5,402.9883 273.5,643.4883 C273.5,687.2583 273.5,738.1383 273.5,768.3983 " fill="none" id="SystemAdministrator-to-Agency" style="stroke:#181818;stroke-width:1.0;"/><polygon fill="#181818" points="273.5,773.3783,277.5,764.3783,273.5,768.3783,269.5,764.3783,273.5,773.3783" style="stroke:#181818;stroke-width:1.0;"/><text fill="#000000" font-family="sans-serif" font-size="20" lengthAdjust="spacing" textLength="68" x="274.5" y="576.8242">creates</text><text fill="#000000" font-family="sans-serif" font-size="20" lengthAdjust="spacing" textLength="13" x="338.2925" y="207.5565">1</text><text fill="#000000" font-family="sans-serif" font-size="20" lengthAdjust="spacing" textLength="10" x="262.1563" y="762.5973">*</text></g><!--link Buyer to Agent--><g id="link_Buyer_Agent"><path codeLine="68" d="M977.42,157.3683 C941.7,199.8383 865.5,302.2383 865.5,402.9883 C865.5,402.9883 865.5,402.9883 865.5,643.4883 C865.5,655.2383 749.53,708.9683 659,749.1283 " fill="none" id="Buyer-to-Agent" style="stroke:#181818;stroke-width:1.0;"/><polygon fill="#181818" points="654.46,751.1383,664.3089,751.144,659.0302,749.1102,661.064,743.8316,654.46,751.1383" style="stroke:#181818;stroke-width:1.0;"/><text fill="#000000" font-family="sans-serif" font-size="20" lengthAdjust="spacing" textLength="205" x="866.5" y="576.8242">contacts for purchase</text><text fill="#000000" font-family="sans-serif" font-size="20" lengthAdjust="spacing" textLength="10" x="962.3712" y="184.0061">*</text><text fill="#000000" font-family="sans-serif" font-size="20" lengthAdjust="spacing" textLength="10" x="661.0869" y="743.8531">*</text></g><!--link Buyer to PublishedProperty--><g id="link_Buyer_PublishedProperty"><path codeLine="69" d="M1013.58,157.3683 C1049.3,199.8383 1125.5,302.2383 1125.5,402.9883 C1125.5,402.9883 1125.5,402.9883 1125.5,1097.4883 C1125.5,1131.7483 1040.28,1153.5283 968.76,1165.7683 " fill="none" id="Buyer-to-PublishedProperty" style="stroke:#181818;stroke-width:1.0;"/><polygon fill="#181818" points="964.26,1166.5283,973.7986,1168.9808,969.1908,1165.6993,972.4723,1161.0915,964.26,1166.5283" style="stroke:#181818;stroke-width:1.0;"/><text fill="#000000" font-family="sans-serif" font-size="20" lengthAdjust="spacing" textLength="52" x="1126.5" y="803.8242">views</text><text fill="#000000" font-family="sans-serif" font-size="20" lengthAdjust="spacing" textLength="10" x="1006.4413" y="184.0061">*</text><text fill="#000000" font-family="sans-serif" font-size="20" lengthAdjust="spacing" textLength="10" x="970.3618" y="1161.2248">*</text></g><!--link Seller to Agent--><g id="link_Seller_Agent"><path codeLine="70" d="M601.81,227.9083 C577.24,277.8483 553.5,341.9083 553.5,402.9883 C553.5,402.9883 553.5,402.9883 553.5,643.4883 C553.5,661.0883 553.5,679.8483 553.5,697.9483 " fill="none" id="Seller-to-Agent" style="stroke:#181818;stroke-width:1.0;"/><polygon fill="#181818" points="553.5,702.5483,557.5,693.5483,553.5,697.5483,549.5,693.5483,553.5,702.5483" style="stroke:#181818;stroke-width:1.0;"/><text fill="#000000" font-family="sans-serif" font-size="20" lengthAdjust="spacing" textLength="156" x="554.5" y="576.8242">contacts for sale</text><text fill="#000000" font-family="sans-serif" font-size="20" lengthAdjust="spacing" textLength="10" x="587.5" y="254.8638">*</text><text fill="#000000" font-family="sans-serif" font-size="20" lengthAdjust="spacing" textLength="10" x="543.1016" y="692.1789">*</text></g><!--link StoreNetworkManager to Agency--><g id="link_StoreNetworkManager_Agency"><path codeLine="71" d="M115.5,157.3483 C115.5,201.8783 115.5,311.3183 115.5,402.9883 C115.5,402.9883 115.5,402.9883 115.5,643.4883 C115.5,707.2083 183.29,752.4583 230.06,776.0883 " fill="none" id="StoreNetworkManager-to-Agency" style="stroke:#181818;stroke-width:1.0;"/><polygon fill="#181818" points="234.3,778.1883,228.0196,770.6016,229.8222,775.9636,224.4602,777.7662,234.3,778.1883" style="stroke:#181818;stroke-width:1.0;"/><text fill="#000000" font-family="sans-serif" font-size="20" lengthAdjust="spacing" textLength="86" x="116.5" y="576.8242">manages</text><text fill="#000000" font-family="sans-serif" font-size="20" lengthAdjust="spacing" textLength="13" x="101.0781" y="183.9817">1</text><text fill="#000000" font-family="sans-serif" font-size="20" lengthAdjust="spacing" textLength="10" x="218.0291" y="770.1953">*</text></g><!--link Agency to StoreManager--><g id="link_Agency_StoreManager"><path codeLine="72" d="M273.5,817.0883 C273.5,846.0983 273.5,901.4083 273.5,948.4883 C273.5,948.4883 273.5,948.4883 273.5,1097.4883 C273.5,1115.5783 273.5,1135.9383 273.5,1151.7183 " fill="none" id="Agency-to-StoreManager" style="stroke:#181818;stroke-width:1.0;"/><polygon fill="#181818" points="273.5,1156.6683,277.5,1147.6683,273.5,1151.6683,269.5,1147.6683,273.5,1156.6683" style="stroke:#181818;stroke-width:1.0;"/><text fill="#000000" font-family="sans-serif" font-size="20" lengthAdjust="spacing" textLength="118" x="274.5" y="1030.8242">managed by</text><text fill="#000000" font-family="sans-serif" font-size="20" lengthAdjust="spacing" textLength="13" x="258.9969" y="844.0786">1</text><text fill="#000000" font-family="sans-serif" font-size="20" lengthAdjust="spacing" textLength="13" x="258.8344" y="1146.2348">1</text></g><!--link Agent to PublishedProperty--><g id="link_Agent_PublishedProperty"><path codeLine="73" d="M616.2,887.5783 C624.66,906.8583 630.5,927.6883 630.5,948.4883 C630.5,948.4883 630.5,948.4883 630.5,1097.4883 C630.5,1129.6883 708.53,1151.4383 775.97,1164.2183 " fill="none" id="Agent-to-PublishedProperty" style="stroke:#181818;stroke-width:1.0;"/><polygon fill="#181818" points="780.56,1165.0783,772.4435,1159.4996,775.6443,1164.1637,770.9802,1167.3646,780.56,1165.0783" style="stroke:#181818;stroke-width:1.0;"/><text fill="#000000" font-family="sans-serif" font-size="20" lengthAdjust="spacing" textLength="93" x="631.5" y="1030.8242">publishes</text><text fill="#000000" font-family="sans-serif" font-size="20" lengthAdjust="spacing" textLength="10" x="610.6177" y="914.8328">*</text><text fill="#000000" font-family="sans-serif" font-size="20" lengthAdjust="spacing" textLength="10" x="764.433" y="1159.6917">*</text></g><!--link Agency to Agent--><g id="link_Agency_Agent"><path codeLine="74" d="M311.26,795.9883 C346.05,795.9883 399.35,795.9883 447.11,795.9883 " fill="none" id="Agency-to-Agent" style="stroke:#181818;stroke-width:1.0;"/><polygon fill="#181818" points="451.99,795.9883,442.99,791.9883,446.99,795.9883,442.99,799.9883,451.99,795.9883" style="stroke:#181818;stroke-width:1.0;"/><text fill="#000000" font-family="sans-serif" font-size="20" lengthAdjust="spacing" textLength="33" x="366" y="788.3242">has</text><text fill="#000000" font-family="sans-serif" font-size="20" lengthAdjust="spacing" textLength="13" x="318.8672" y="790.4336">1</text><text fill="#000000" font-family="sans-serif" font-size="20" lengthAdjust="spacing" textLength="10" x="436.1279" y="791.5392">*</text></g><!--link Seller to Property--><g id="link_Seller_Property"><path codeLine="75" d="M673.93,227.7883 C679.05,253.0083 684.63,280.4883 689.82,306.0383 " fill="none" id="Seller-to-Property" style="stroke:#181818;stroke-width:1.0;"/><polygon fill="#181818" points="690.76,310.6683,692.9065,301.0562,689.7739,305.7665,685.0636,302.6339,690.76,310.6683" style="stroke:#181818;stroke-width:1.0;"/><text fill="#000000" font-family="sans-serif" font-size="20" lengthAdjust="spacing" textLength="49" x="685.5" y="277.8242">owns</text><text fill="#000000" font-family="sans-serif" font-size="20" lengthAdjust="spacing" textLength="10" x="664.9163" y="254.735">*</text><text fill="#000000" font-family="sans-serif" font-size="20" lengthAdjust="spacing" textLength="10" x="679.1921" y="300.2761">*</text></g><!--link UnregisteredUser to PublishedProperty--><g id="link_UnregisteredUser_PublishedProperty"><path codeLine="76" d="M872.5,817.0883 C872.5,846.0983 872.5,901.4083 872.5,948.4883 C872.5,948.4883 872.5,948.4883 872.5,1097.4883 C872.5,1115.5783 872.5,1135.9383 872.5,1151.7183 " fill="none" id="UnregisteredUser-to-PublishedProperty" style="stroke:#181818;stroke-width:1.0;"/><polygon fill="#181818" points="872.5,1156.6683,876.5,1147.6683,872.5,1151.6683,868.5,1147.6683,872.5,1156.6683" style="stroke:#181818;stroke-width:1.0;"/><text fill="#000000" font-family="sans-serif" font-size="20" lengthAdjust="spacing" textLength="52" x="873.5" y="1030.8242">views</text><text fill="#000000" font-family="sans-serif" font-size="20" lengthAdjust="spacing" textLength="10" x="861.3438" y="844.0786">*</text><text fill="#000000" font-family="sans-serif" font-size="20" lengthAdjust="spacing" textLength="10" x="861.2188" y="1146.2348">*</text></g><!--SRC=[jLLDRzim3BthLn2v61WmODrn60QatOeLMDjXHN-08Z6s45doABcPr-s_ZvATsCu7aCjoiac-nyT7oGaRunf9ihPURL23nhLiRRprBZwPtmZltucmAu7QEwygyZN2Mjg0arGZrKQM-1GxYq2eedIbdHQ4Icg_DQw4I2sAOinOup1s3OAdMFa9H5aPmZ96CgisuftoBajwDmMNvDlcpbL8Xbig5doIkl6sIoz259NH27B76aH-LuOKoytFDR8C7KHXSHqXUY1JLX6qIMCPxqGqaOVyx6jf7DnxZLQ8h1MUeYTymBZrjBcNZWsXL_5td-r2n7gfQ-DCY2Iv-5K0G1kG7cIDwRdXGaRh2Ifn7fDz9zyWnIupG1hoSNtT1funX4beLvP3ab3c1rwspAEa5yrYadMtlDWRT14fXnio2iT-ov9JVJCtQ6NN8Y_4tKZI3ssz6e1H_fgyIQrf9mdPCTlNeCMcyWw7obaRrKtcl6wxkObeBT9_4p8sUdQ49Lk3XFevpBrlLzQ42lMu1CwTM2yihXRmDlq-mUBDeZSHFe3YHQIpTo54THDCDYIdJX7plPKg1bWpKzEIgYHVqvEGeo4O_c9mowgonHUr299lpObJVtQAEkU360BJCdwSddNOLsjOTQ9lVy4CpH2RzvZFmAxCfnpeHXQ_TK4S7e7BBHJ5sTNsNvC4_r8trdU8ZDhruQ_EZkjnw_O-pkKzakPC0lriCV0cf7xXk0bOytXd6QwEToYAmTPX3UVwz4CT51-RDbfV75lNe-OOLY8TVwL3PCTkh4dq7_yaRlWnWy-pHtVp43npWCKa0Ia5VTaqibk2AFRhoF4ywq4mKK-FwBdq_2wC2-cPlth-u1y6b_o75UVhwnFVfDE7sawSBI7-0G00]--></g></svg>