<?xml version="1.0" encoding="UTF-8" standalone="no"?><svg xmlns="http://www.w3.org/2000/svg" xmlns:xlink="http://www.w3.org/1999/xlink" contentStyleType="text/css" height="757px" preserveAspectRatio="none" style="width:1102px;height:757px;background:#FFFFFF;" version="1.1" viewBox="0 0 1102 757" width="1102px" zoomAndPan="magnify"><defs><filter height="300%" id="fb3va4l79ly0o" width="300%" x="-1" y="-1"><feGaussianBlur result="blurOut" stdDeviation="2.0"/><feColorMatrix in="blurOut" result="blurOut2" type="matrix" values="0 0 0 0 0 0 0 0 0 0 0 0 0 0 0 0 0 0 .4 0"/><feOffset dx="4.0" dy="4.0" in="blurOut2" result="blurOut3"/><feBlend in="SourceGraphic" in2="blurOut3" mode="normal"/></filter></defs><g><text fill="#000000" font-family="sans-serif" font-size="14" font-weight="bold" lengthAdjust="spacing" textLength="105" x="491.75" y="23.5352">Domain Model</text><!--class StoreNetworkManager--><g id="elem_StoreNetworkManager"><rect codeLine="15" fill="#F1F1F1" filter="url(#fb3va4l79ly0o)" height="33.5547" id="StoreNetworkManager" rx="2.5" ry="2.5" style="stroke:#181818;stroke-width:0.5;" width="217" x="7" y="44.4883"/><text fill="#000000" font-family="sans-serif" font-size="20" lengthAdjust="spacing" textLength="211" x="10" y="68.8242">StoreNetworkManager</text></g><!--class SystemAdministrator--><g id="elem_SystemAdministrator"><rect codeLine="18" fill="#F1F1F1" filter="url(#fb3va4l79ly0o)" height="33.5547" id="SystemAdministrator" rx="2.5" ry="2.5" style="stroke:#181818;stroke-width:0.5;" width="207" x="285" y="44.4883"/><text fill="#000000" font-family="sans-serif" font-size="20" lengthAdjust="spacing" textLength="201" x="288" y="68.8242">SystemAdministrator</text></g><!--class Manager--><g id="elem_Manager"><rect codeLine="21" fill="#F1F1F1" filter="url(#fb3va4l79ly0o)" height="33.5547" id="Manager" rx="2.5" ry="2.5" style="stroke:#181818;stroke-width:0.5;" width="88" x="229.5" y="711.4883"/><text fill="#000000" font-family="sans-serif" font-size="20" lengthAdjust="spacing" textLength="82" x="232.5" y="735.8242">Manager</text></g><!--class Property--><g id="elem_Property"><rect codeLine="24" fill="#F1F1F1" filter="url(#fb3va4l79ly0o)" height="33.5547" id="Property" rx="2.5" ry="2.5" style="stroke:#181818;stroke-width:0.5;" width="86" x="606.5" y="163.4883"/><text fill="#000000" font-family="sans-serif" font-size="20" lengthAdjust="spacing" textLength="80" x="609.5" y="187.8242">Property</text></g><!--class Agent--><g id="elem_Agent"><rect codeLine="27" fill="#F1F1F1" filter="url(#fb3va4l79ly0o)" height="33.5547" id="Agent" rx="2.5" ry="2.5" style="stroke:#181818;stroke-width:0.5;" width="62" x="522.5" y="406.4883"/><text fill="#000000" font-family="sans-serif" font-size="20" lengthAdjust="spacing" textLength="56" x="525.5" y="430.8242">Agent</text></g><!--class Agency--><g id="elem_Agency"><rect codeLine="30" fill="#F1F1F1" filter="url(#fb3va4l79ly0o)" height="33.5547" id="Agency" rx="2.5" ry="2.5" style="stroke:#181818;stroke-width:0.5;" width="75" x="236" y="406.4883"/><text fill="#000000" font-family="sans-serif" font-size="20" lengthAdjust="spacing" textLength="69" x="239" y="430.8242">Agency</text></g><!--class Buyer--><g id="elem_Buyer"><rect codeLine="33" fill="#F1F1F1" filter="url(#fb3va4l79ly0o)" height="33.5547" id="Buyer" rx="2.5" ry="2.5" style="stroke:#181818;stroke-width:0.5;" width="59" x="882" y="44.4883"/><text fill="#000000" font-family="sans-serif" font-size="20" lengthAdjust="spacing" textLength="53" x="885" y="68.8242">Buyer</text></g><!--class Seller--><g id="elem_Seller"><rect codeLine="36" fill="#F1F1F1" filter="url(#fb3va4l79ly0o)" height="33.5547" id="Seller" rx="2.5" ry="2.5" style="stroke:#181818;stroke-width:0.5;" width="59" x="574" y="44.4883"/><text fill="#000000" font-family="sans-serif" font-size="20" lengthAdjust="spacing" textLength="53" x="577" y="68.8242">Seller</text></g><!--class UnregisteredUser--><g id="elem_UnregisteredUser"><rect codeLine="39" fill="#F1F1F1" filter="url(#fb3va4l79ly0o)" height="33.5547" id="UnregisteredUser" rx="2.5" ry="2.5" style="stroke:#181818;stroke-width:0.5;" width="172" x="757.5" y="406.4883"/><text fill="#000000" font-family="sans-serif" font-size="20" lengthAdjust="spacing" textLength="166" x="760.5" y="430.8242">UnregisteredUser</text></g><!--class PublishedSale--><g id="elem_PublishedSale"><rect codeLine="42" fill="#F1F1F1" filter="url(#fb3va4l79ly0o)" height="33.5547" id="PublishedSale" rx="2.5" ry="2.5" style="stroke:#181818;stroke-width:0.5;" width="139" x="774" y="711.4883"/><text fill="#000000" font-family="sans-serif" font-size="20" lengthAdjust="spacing" textLength="133" x="777" y="735.8242">PublishedSale</text></g><!--link SystemAdministrator to Agent--><g id="link_SystemAdministrator_Agent"><path codeLine="45" d="M394.3,78.9183 C401.68,101.3383 413.5,142.9283 413.5,179.4883 C413.5,179.4883 413.5,179.4883 413.5,345.4883 C413.5,392.3183 474.39,410.8683 515.86,418.0783 " fill="none" id="SystemAdministrator-to-Agent" style="stroke:#181818;stroke-width:1.0;"/><polygon fill="#181818" points="520.59,418.8483,512.3624,413.4347,515.6569,418.0332,511.0583,421.3277,520.59,418.8483" style="stroke:#181818;stroke-width:1.0;"/><text fill="#000000" font-family="sans-serif" font-size="20" lengthAdjust="spacing" textLength="68" x="414.5" y="278.8242">creates</text><text fill="#000000" font-family="sans-serif" font-size="20" lengthAdjust="spacing" textLength="13" x="381.1294" y="105.4278">1</text><text fill="#000000" font-family="sans-serif" font-size="20" lengthAdjust="spacing" textLength="10" x="504.5684" y="412.26">*</text></g><!--link SystemAdministrator to Agency--><g id="link_SystemAdministrator_Agency"><path codeLine="46" d="M354.62,78.8583 C320.7,97.8983 273.5,132.7783 273.5,179.4883 C273.5,179.4883 273.5,179.4883 273.5,345.4883 C273.5,363.8483 273.5,384.6783 273.5,400.0383 " fill="none" id="SystemAdministrator-to-Agency" style="stroke:#181818;stroke-width:1.0;"/><polygon fill="#181818" points="273.5,404.7483,277.5,395.7483,273.5,399.7483,269.5,395.7483,273.5,404.7483" style="stroke:#181818;stroke-width:1.0;"/><text fill="#000000" font-family="sans-serif" font-size="20" lengthAdjust="spacing" textLength="68" x="274.5" y="278.8242">creates</text><text fill="#000000" font-family="sans-serif" font-size="20" lengthAdjust="spacing" textLength="13" x="331.7774" y="105.3532">1</text><text fill="#000000" font-family="sans-serif" font-size="20" lengthAdjust="spacing" textLength="10" x="262.0313" y="394.3146">*</text></g><!--link Buyer to Agent--><g id="link_Buyer_Agent"><path codeLine="47" d="M881.68,73.8283 C843.29,90.5883 781.5,125.8983 781.5,179.4883 C781.5,179.4883 781.5,179.4883 781.5,345.4883 C781.5,385.2583 655.43,408.4583 590.78,417.7383 " fill="none" id="Buyer-to-Agent" style="stroke:#181818;stroke-width:1.0;"/><polygon fill="#181818" points="586.22,418.3883,595.6909,421.0906,591.1709,417.6892,594.5723,413.1692,586.22,418.3883" style="stroke:#181818;stroke-width:1.0;"/><text fill="#000000" font-family="sans-serif" font-size="20" lengthAdjust="spacing" textLength="205" x="782.5" y="278.8242">contacts for purchase</text><text fill="#000000" font-family="sans-serif" font-size="20" lengthAdjust="spacing" textLength="10" x="864.0631" y="70.4573">*</text><text fill="#000000" font-family="sans-serif" font-size="20" lengthAdjust="spacing" textLength="10" x="592.6431" y="411.4583">*</text></g><!--link Buyer to PublishedSale--><g id="link_Buyer_PublishedSale"><path codeLine="48" d="M941.32,73.8283 C979.71,90.5883 1041.5,125.8983 1041.5,179.4883 C1041.5,179.4883 1041.5,179.4883 1041.5,650.4883 C1041.5,677.7983 975.23,699.2783 919.37,712.5383 " fill="none" id="Buyer-to-PublishedSale" style="stroke:#181818;stroke-width:1.0;"/><polygon fill="#181818" points="914.78,713.6083,924.4557,715.4469,919.6478,712.4663,922.6285,707.6584,914.78,713.6083" style="stroke:#181818;stroke-width:1.0;"/><text fill="#000000" font-family="sans-serif" font-size="20" lengthAdjust="spacing" textLength="52" x="1042.5" y="431.3242">views</text><text fill="#000000" font-family="sans-serif" font-size="20" lengthAdjust="spacing" textLength="10" x="948.9369" y="70.4573">*</text><text fill="#000000" font-family="sans-serif" font-size="20" lengthAdjust="spacing" textLength="10" x="921.0248" y="707.6614">*</text></g><!--link Seller to Agent--><g id="link_Seller_Agent"><path codeLine="49" d="M591.4,78.9783 C576.6,100.8183 553.5,141.0483 553.5,179.4883 C553.5,179.4883 553.5,179.4883 553.5,345.4883 C553.5,363.8483 553.5,384.6783 553.5,400.0383 " fill="none" id="Seller-to-Agent" style="stroke:#181818;stroke-width:1.0;"/><polygon fill="#181818" points="553.5,404.7483,557.5,395.7483,553.5,399.7483,549.5,395.7483,553.5,404.7483" style="stroke:#181818;stroke-width:1.0;"/><text fill="#000000" font-family="sans-serif" font-size="20" lengthAdjust="spacing" textLength="156" x="554.5" y="278.8242">contacts for sale</text><text fill="#000000" font-family="sans-serif" font-size="20" lengthAdjust="spacing" textLength="10" x="577.2319" y="105.5024">*</text><text fill="#000000" font-family="sans-serif" font-size="20" lengthAdjust="spacing" textLength="10" x="542.0313" y="394.3146">*</text></g><!--link StoreNetworkManager to Agency--><g id="link_StoreNetworkManager_Agency"><path codeLine="50" d="M115.5,78.7683 C115.5,101.3683 115.5,143.5383 115.5,179.4883 C115.5,179.4883 115.5,179.4883 115.5,345.4883 C115.5,396.3483 182.46,413.6183 229.2,419.4783 " fill="none" id="StoreNetworkManager-to-Agency" style="stroke:#181818;stroke-width:1.0;"/><polygon fill="#181818" points="234.15,420.0583,225.6798,415.0327,229.1843,419.4732,224.7438,422.9777,234.15,420.0583" style="stroke:#181818;stroke-width:1.0;"/><text fill="#000000" font-family="sans-serif" font-size="20" lengthAdjust="spacing" textLength="86" x="116.5" y="278.8242">manages</text><text fill="#000000" font-family="sans-serif" font-size="20" lengthAdjust="spacing" textLength="13" x="100.9156" y="105.2412">1</text><text fill="#000000" font-family="sans-serif" font-size="20" lengthAdjust="spacing" textLength="10" x="218.0291" y="414.0359">*</text></g><!--link Agency to Manager--><g id="link_Agency_Manager"><path codeLine="51" d="M273.5,440.7083 C273.5,456.2983 273.5,480.4983 273.5,501.4883 C273.5,501.4883 273.5,501.4883 273.5,650.4883 C273.5,668.8483 273.5,689.6783 273.5,705.0383 " fill="none" id="Agency-to-Manager" style="stroke:#181818;stroke-width:1.0;"/><polygon fill="#181818" points="273.5,709.7483,277.5,700.7483,273.5,704.7483,269.5,700.7483,273.5,709.7483" style="stroke:#181818;stroke-width:1.0;"/><text fill="#000000" font-family="sans-serif" font-size="20" lengthAdjust="spacing" textLength="118" x="274.5" y="583.8242">managed by</text><text fill="#000000" font-family="sans-serif" font-size="20" lengthAdjust="spacing" textLength="13" x="258.8344" y="467.5318">1</text><text fill="#000000" font-family="sans-serif" font-size="20" lengthAdjust="spacing" textLength="13" x="258.5906" y="699.3146">1</text></g><!--link Agent to PublishedSale--><g id="link_Agent_PublishedSale"><path codeLine="52" d="M584.88,438.2483 C608.38,450.9183 636.5,472.1983 636.5,501.4883 C636.5,501.4883 636.5,501.4883 636.5,650.4883 C636.5,679.4483 708.58,701.0383 767.67,713.8783 " fill="none" id="Agent-to-PublishedSale" style="stroke:#181818;stroke-width:1.0;"/><polygon fill="#181818" points="772.23,714.8583,764.2633,709.0677,767.3402,713.8145,762.5933,716.8914,772.23,714.8583" style="stroke:#181818;stroke-width:1.0;"/><text fill="#000000" font-family="sans-serif" font-size="20" lengthAdjust="spacing" textLength="93" x="637.5" y="583.8242">publishes</text><text fill="#000000" font-family="sans-serif" font-size="20" lengthAdjust="spacing" textLength="10" x="592.3834" y="435.3597">*</text><text fill="#000000" font-family="sans-serif" font-size="20" lengthAdjust="spacing" textLength="10" x="755.9973" y="708.9962">*</text></g><!--link Agency to Agent--><g id="link_Agency_Agent"><path codeLine="53" d="M311.26,423.4883 C364.91,423.4883 462.6,423.4883 516.06,423.4883 " fill="none" id="Agency-to-Agent" style="stroke:#181818;stroke-width:1.0;"/><polygon fill="#181818" points="520.85,423.4883,511.85,419.4883,515.85,423.4883,511.85,427.4883,520.85,423.4883" style="stroke:#181818;stroke-width:1.0;"/><text fill="#000000" font-family="sans-serif" font-size="20" lengthAdjust="spacing" textLength="33" x="400.25" y="415.8242">has</text><text fill="#000000" font-family="sans-serif" font-size="20" lengthAdjust="spacing" textLength="13" x="318.8672" y="417.9336">1</text><text fill="#000000" font-family="sans-serif" font-size="20" lengthAdjust="spacing" textLength="10" x="504.4544" y="445.4492">*</text></g><!--link Seller to Property--><g id="link_Seller_Property"><path codeLine="54" d="M609.9,78.7583 C617.96,99.2783 631.87,134.6383 640.87,157.5383 " fill="none" id="Seller-to-Property" style="stroke:#181818;stroke-width:1.0;"/><polygon fill="#181818" points="642.6,161.9483,643.0237,152.1085,640.7678,157.2961,635.5802,155.0401,642.6,161.9483" style="stroke:#181818;stroke-width:1.0;"/><text fill="#000000" font-family="sans-serif" font-size="20" lengthAdjust="spacing" textLength="49" x="632.5" y="128.8242">owns</text><text fill="#000000" font-family="sans-serif" font-size="20" lengthAdjust="spacing" textLength="10" x="600.2412" y="105.2288">*</text><text fill="#000000" font-family="sans-serif" font-size="20" lengthAdjust="spacing" textLength="10" x="629.8289" y="151.431">*</text></g><!--link UnregisteredUser to PublishedSale--><g id="link_UnregisteredUser_PublishedSale"><path codeLine="55" d="M843.5,440.7083 C843.5,456.2983 843.5,480.4983 843.5,501.4883 C843.5,501.4883 843.5,501.4883 843.5,650.4883 C843.5,668.8483 843.5,689.6783 843.5,705.0383 " fill="none" id="UnregisteredUser-to-PublishedSale" style="stroke:#181818;stroke-width:1.0;"/><polygon fill="#181818" points="843.5,709.7483,847.5,700.7483,843.5,704.7483,839.5,700.7483,843.5,709.7483" style="stroke:#181818;stroke-width:1.0;"/><text fill="#000000" font-family="sans-serif" font-size="20" lengthAdjust="spacing" textLength="52" x="844.5" y="583.8242">views</text><text fill="#000000" font-family="sans-serif" font-size="20" lengthAdjust="spacing" textLength="10" x="832.2188" y="467.5318">*</text><text fill="#000000" font-family="sans-serif" font-size="20" lengthAdjust="spacing" textLength="10" x="832.0313" y="699.3146">*</text></g><!--SRC=[ZLJRRjim37tNLmXvCJ1WGDl7OHYGhHjMe5s71Vq0HM9i8RBaING3x_BlesGxiHm7YvyiaeSyFAGKzjesmelQEBa7nHNiH6lmYxEuqR-0tzsmC8RmsbadA-zgu3jX0anSZP1xKS86EmFSWqHXIpCD29LGxg1joT6tm8gJnsWBs3N0dSVAJI3IY13MY5vlMuG7wMoYT3C5bzwrpOEjm6igAOdmOkh6cIuU6Akq0Yx6fA4_I-qbiKt_DH0B5LXXO8SS7VUwh90h7RlIpZBKI3tUkrfeov-S0iDOeietw3ny0pmultyIblJmlzdVexSB2FLQrThgW5vGyCHx7l_TkmOyTXFJkWIBixES1dnikxmc69CPNgo7aig31_KIydhjrkXGWTe80yc-m9YlRbVyRVm-yDMRLS-8l-FIWuXoNWcHtGIJI2VNKcBQH24ny1rbQbelAq6BjmZ96Y3eguO3CKeIN9K-48uj3F5Y1tNo1pOOfc7qEwAFWOflEzPN_W_rPZZdgNFg94JUt91gM1kAS0SRs7pYrwd6YekJxEz3X7wk6-CwYAYn1jsRaS3pmHwbowazUqMU2FhPGY3nXNebkmvGKsiNCzoUZuqLWvo3yfVgz4tDWiy5EybUdClMet8CCH6Mdfc0fDWdesFwztzYRluZW-VUisiu1sSA49b88Bfu7pQrZ4DWnN4SoPvwdHbZwhJVmsfUSkVhVnf8d_chQ-aApenhUd4n7r_lU1HMpRajx1PZ_m00]--></g></svg>