<?xml version="1.0" encoding="UTF-8" standalone="no"?><svg xmlns="http://www.w3.org/2000/svg" xmlns:xlink="http://www.w3.org/1999/xlink" contentStyleType="text/css" height="1376px" preserveAspectRatio="none" style="width:1186px;height:1376px;background:#FFFFFF;" version="1.1" viewBox="0 0 1186 1376" width="1186px" zoomAndPan="magnify"><defs><filter height="300%" id="fem3ta8jt679q" width="300%" x="-1" y="-1"><feGaussianBlur result="blurOut" stdDeviation="2.0"/><feColorMatrix in="blurOut" result="blurOut2" type="matrix" values="0 0 0 0 0 0 0 0 0 0 0 0 0 0 0 0 0 0 .4 0"/><feOffset dx="4.0" dy="4.0" in="blurOut2" result="blurOut3"/><feBlend in="SourceGraphic" in2="blurOut3" mode="normal"/></filter></defs><g><text fill="#000000" font-family="sans-serif" font-size="14" font-weight="bold" lengthAdjust="spacing" textLength="105" x="533.75" y="23.5352">Domain Model</text><!--class StoreNetworkManager--><g id="elem_StoreNetworkManager"><rect codeLine="15" fill="#F1F1F1" filter="url(#fem3ta8jt679q)" height="88.6641" id="StoreNetworkManager" rx="2.5" ry="2.5" style="stroke:#181818;stroke-width:0.5;" width="217" x="7" y="91.4883"/><text fill="#000000" font-family="sans-serif" font-size="20" lengthAdjust="spacing" textLength="211" x="10" y="115.8242">StoreNetworkManager</text><line style="stroke:#181818;stroke-width:0.5;" x1="8" x2="223" y1="125.043" y2="125.043"/><text fill="#000000" font-family="sans-serif" font-size="20" lengthAdjust="spacing" textLength="53" x="13" y="148.3789">name</text><text fill="#000000" font-family="sans-serif" font-size="20" lengthAdjust="spacing" textLength="83" x="13" y="171.9336">agencies</text></g><!--class SystemAdministrator--><g id="elem_SystemAdministrator"><rect codeLine="20" fill="#F1F1F1" filter="url(#fem3ta8jt679q)" height="88.6641" id="SystemAdministrator" rx="2.5" ry="2.5" style="stroke:#181818;stroke-width:0.5;" width="207" x="285" y="91.4883"/><text fill="#000000" font-family="sans-serif" font-size="20" lengthAdjust="spacing" textLength="201" x="288" y="115.8242">SystemAdministrator</text><line style="stroke:#181818;stroke-width:0.5;" x1="286" x2="491" y1="125.043" y2="125.043"/><text fill="#000000" font-family="sans-serif" font-size="20" lengthAdjust="spacing" textLength="97" x="291" y="148.3789">userName</text><text fill="#000000" font-family="sans-serif" font-size="20" lengthAdjust="spacing" textLength="92" x="291" y="171.9336">password</text></g><!--class StoreManager--><g id="elem_StoreManager"><rect codeLine="25" fill="#F1F1F1" filter="url(#fem3ta8jt679q)" height="88.6641" id="StoreManager" rx="2.5" ry="2.5" style="stroke:#181818;stroke-width:0.5;" width="137" x="205" y="1216.9883"/><text fill="#000000" font-family="sans-serif" font-size="20" lengthAdjust="spacing" textLength="131" x="208" y="1241.3242">StoreManager</text><line style="stroke:#181818;stroke-width:0.5;" x1="206" x2="341" y1="1250.543" y2="1250.543"/><text fill="#000000" font-family="sans-serif" font-size="20" lengthAdjust="spacing" textLength="53" x="211" y="1273.8789">name</text><text fill="#000000" font-family="sans-serif" font-size="20" lengthAdjust="spacing" textLength="66" x="211" y="1297.4336">agency</text></g><!--class Property--><g id="elem_Property"><rect codeLine="30" fill="#F1F1F1" filter="url(#fem3ta8jt679q)" height="182.8828" id="Property" rx="2.5" ry="2.5" style="stroke:#181818;stroke-width:0.5;" width="205" x="607" y="312.4883"/><text fill="#000000" font-family="sans-serif" font-size="20" lengthAdjust="spacing" textLength="80" x="669.5" y="336.8242">Property</text><line style="stroke:#181818;stroke-width:0.5;" x1="608" x2="811" y1="346.043" y2="346.043"/><text fill="#000000" font-family="sans-serif" font-size="20" lengthAdjust="spacing" textLength="147" x="613" y="369.3789">typeOfBusiness</text><text fill="#000000" font-family="sans-serif" font-size="20" lengthAdjust="spacing" textLength="144" x="613" y="392.9336">typeOfProperty</text><text fill="#000000" font-family="sans-serif" font-size="20" lengthAdjust="spacing" textLength="41" x="613" y="416.4883">area</text><text fill="#000000" font-family="sans-serif" font-size="20" lengthAdjust="spacing" textLength="76" x="613" y="440.043">location</text><text fill="#000000" font-family="sans-serif" font-size="20" lengthAdjust="spacing" textLength="193" x="613" y="463.5977">distanceFromCenter</text><text fill="#000000" font-family="sans-serif" font-size="20" lengthAdjust="spacing" textLength="48" x="613" y="487.1523">price</text></g><!--class Agent--><g id="elem_Agent"><rect codeLine="39" fill="#F1F1F1" filter="url(#fem3ta8jt679q)" height="182.8828" id="Agent" rx="2.5" ry="2.5" style="stroke:#181818;stroke-width:0.5;" width="199" x="454" y="704.4883"/><text fill="#000000" font-family="sans-serif" font-size="20" lengthAdjust="spacing" textLength="56" x="525.5" y="728.8242">Agent</text><line style="stroke:#181818;stroke-width:0.5;" x1="455" x2="652" y1="738.043" y2="738.043"/><text fill="#000000" font-family="sans-serif" font-size="20" lengthAdjust="spacing" textLength="53" x="460" y="761.3789">name</text><text fill="#000000" font-family="sans-serif" font-size="20" lengthAdjust="spacing" textLength="187" x="460" y="784.9336">citizenCardNumber</text><text fill="#000000" font-family="sans-serif" font-size="20" lengthAdjust="spacing" textLength="108" x="460" y="808.4883">taxNumber</text><text fill="#000000" font-family="sans-serif" font-size="20" lengthAdjust="spacing" textLength="76" x="460" y="832.043">address</text><text fill="#000000" font-family="sans-serif" font-size="20" lengthAdjust="spacing" textLength="53" x="460" y="855.5977">email</text><text fill="#000000" font-family="sans-serif" font-size="20" lengthAdjust="spacing" textLength="173" x="460" y="879.1523">telephoneNumber</text></g><!--class Agency--><g id="elem_Agency"><rect codeLine="48" fill="#F1F1F1" filter="url(#fem3ta8jt679q)" height="88.6641" id="Agency" rx="2.5" ry="2.5" style="stroke:#181818;stroke-width:0.5;" width="142" x="202.5" y="751.4883"/><text fill="#000000" font-family="sans-serif" font-size="20" lengthAdjust="spacing" textLength="69" x="239" y="775.8242">Agency</text><line style="stroke:#181818;stroke-width:0.5;" x1="203.5" x2="343.5" y1="785.043" y2="785.043"/><text fill="#000000" font-family="sans-serif" font-size="20" lengthAdjust="spacing" textLength="63" x="208.5" y="808.3789">agents</text><text fill="#000000" font-family="sans-serif" font-size="20" lengthAdjust="spacing" textLength="130" x="208.5" y="831.9336">storeManager</text></g><!--class Buyer--><g id="elem_Buyer"><rect codeLine="53" fill="#F1F1F1" filter="url(#fem3ta8jt679q)" height="182.8828" id="Buyer" rx="2.5" ry="2.5" style="stroke:#181818;stroke-width:0.5;" width="199" x="915" y="44.4883"/><text fill="#000000" font-family="sans-serif" font-size="20" lengthAdjust="spacing" textLength="53" x="988" y="68.8242">Buyer</text><line style="stroke:#181818;stroke-width:0.5;" x1="916" x2="1113" y1="78.043" y2="78.043"/><text fill="#000000" font-family="sans-serif" font-size="20" lengthAdjust="spacing" textLength="53" x="921" y="101.3789">name</text><text fill="#000000" font-family="sans-serif" font-size="20" lengthAdjust="spacing" textLength="187" x="921" y="124.9336">citizenCardNumber</text><text fill="#000000" font-family="sans-serif" font-size="20" lengthAdjust="spacing" textLength="108" x="921" y="148.4883">taxNumber</text><text fill="#000000" font-family="sans-serif" font-size="20" lengthAdjust="spacing" textLength="76" x="921" y="172.043">address</text><text fill="#000000" font-family="sans-serif" font-size="20" lengthAdjust="spacing" textLength="53" x="921" y="195.5977">email</text><text fill="#000000" font-family="sans-serif" font-size="20" lengthAdjust="spacing" textLength="173" x="921" y="219.1523">telephoneNumber</text></g><!--class PropertyOwner--><g id="elem_PropertyOwner"><rect codeLine="62" fill="#F1F1F1" filter="url(#fem3ta8jt679q)" height="182.8828" id="PropertyOwner" rx="2.5" ry="2.5" style="stroke:#181818;stroke-width:0.5;" width="199" x="569" y="44.4883"/><text fill="#000000" font-family="sans-serif" font-size="20" lengthAdjust="spacing" textLength="142" x="597.5" y="68.8242">PropertyOwner</text><line style="stroke:#181818;stroke-width:0.5;" x1="570" x2="767" y1="78.043" y2="78.043"/><text fill="#000000" font-family="sans-serif" font-size="20" lengthAdjust="spacing" textLength="53" x="575" y="101.3789">name</text><text fill="#000000" font-family="sans-serif" font-size="20" lengthAdjust="spacing" textLength="187" x="575" y="124.9336">citizenCardNumber</text><text fill="#000000" font-family="sans-serif" font-size="20" lengthAdjust="spacing" textLength="108" x="575" y="148.4883">taxNumber</text><text fill="#000000" font-family="sans-serif" font-size="20" lengthAdjust="spacing" textLength="76" x="575" y="172.043">address</text><text fill="#000000" font-family="sans-serif" font-size="20" lengthAdjust="spacing" textLength="53" x="575" y="195.5977">email</text><text fill="#000000" font-family="sans-serif" font-size="20" lengthAdjust="spacing" textLength="173" x="575" y="219.1523">telephoneNumber</text></g><!--class UnregisteredUser--><g id="elem_UnregisteredUser"><rect codeLine="72" fill="#F1F1F1" filter="url(#fem3ta8jt679q)" height="41.5547" id="UnregisteredUser" rx="2.5" ry="2.5" style="stroke:#181818;stroke-width:0.5;" width="172" x="786.5" y="774.9883"/><text fill="#000000" font-family="sans-serif" font-size="20" lengthAdjust="spacing" textLength="166" x="789.5" y="799.3242">UnregisteredUser</text><line style="stroke:#181818;stroke-width:0.5;" x1="787.5" x2="957.5" y1="808.543" y2="808.543"/></g><!--class PublishedProperty--><g id="elem_PublishedProperty"><rect codeLine="75" fill="#F1F1F1" filter="url(#fem3ta8jt679q)" height="206.4375" id="PublishedProperty" rx="2.5" ry="2.5" style="stroke:#181818;stroke-width:0.5;" width="205" x="770" y="1158.4883"/><text fill="#000000" font-family="sans-serif" font-size="20" lengthAdjust="spacing" textLength="174" x="785.5" y="1182.8242">PublishedProperty</text><line style="stroke:#181818;stroke-width:0.5;" x1="771" x2="974" y1="1192.043" y2="1192.043"/><text fill="#000000" font-family="sans-serif" font-size="20" lengthAdjust="spacing" textLength="147" x="776" y="1215.3789">typeOfBuisness</text><text fill="#000000" font-family="sans-serif" font-size="20" lengthAdjust="spacing" textLength="144" x="776" y="1238.9336">typeOfProperty</text><text fill="#000000" font-family="sans-serif" font-size="20" lengthAdjust="spacing" textLength="41" x="776" y="1262.4883">area</text><text fill="#000000" font-family="sans-serif" font-size="20" lengthAdjust="spacing" textLength="76" x="776" y="1286.043">location</text><text fill="#000000" font-family="sans-serif" font-size="20" lengthAdjust="spacing" textLength="193" x="776" y="1309.5977">distanceFromCenter</text><text fill="#000000" font-family="sans-serif" font-size="20" lengthAdjust="spacing" textLength="48" x="776" y="1333.1523">price</text><text fill="#000000" font-family="sans-serif" font-size="20" lengthAdjust="spacing" textLength="66" x="776" y="1356.707">photos</text></g><!--link SystemAdministrator to Agent--><g id="link_SystemAdministrator_Agent"><path codeLine="85" d="M395.13,180.6483 C402.54,233.2483 413.5,324.3683 413.5,402.9883 C413.5,402.9883 413.5,402.9883 413.5,643.4883 C413.5,673.7483 428.75,700.5383 449.18,722.8483 " fill="none" id="SystemAdministrator-to-Agent" style="stroke:#181818;stroke-width:1.0;"/><polygon fill="#181818" points="452.58,726.4383,449.3245,717.143,449.1532,722.7973,443.4989,722.6259,452.58,726.4383" style="stroke:#181818;stroke-width:1.0;"/><text fill="#000000" font-family="sans-serif" font-size="20" lengthAdjust="spacing" textLength="68" x="414.5" y="576.8242">creates</text><text fill="#000000" font-family="sans-serif" font-size="20" lengthAdjust="spacing" textLength="13" x="382.1475" y="207.5906">1</text><text fill="#000000" font-family="sans-serif" font-size="20" lengthAdjust="spacing" textLength="10" x="435.9179" y="718.0276">*</text></g><!--link SystemAdministrator to Agency--><g id="link_SystemAdministrator_Agency"><path codeLine="86" d="M356.47,180.6183 C322.44,231.3683 273.5,318.9683 273.5,402.9883 C273.5,402.9883 273.5,402.9883 273.5,643.4883 C273.5,677.3783 273.5,715.5283 273.5,745.0683 " fill="none" id="SystemAdministrator-to-Agency" style="stroke:#181818;stroke-width:1.0;"/><polygon fill="#181818" points="273.5,749.7183,277.5,740.7183,273.5,744.7183,269.5,740.7183,273.5,749.7183" style="stroke:#181818;stroke-width:1.0;"/><text fill="#000000" font-family="sans-serif" font-size="20" lengthAdjust="spacing" textLength="68" x="274.5" y="576.8242">creates</text><text fill="#000000" font-family="sans-serif" font-size="20" lengthAdjust="spacing" textLength="13" x="338.2925" y="207.5565">1</text><text fill="#000000" font-family="sans-serif" font-size="20" lengthAdjust="spacing" textLength="10" x="262.7656" y="739.3664">*</text></g><!--link Buyer to Agent--><g id="link_Buyer_Agent"><path codeLine="87" d="M933.68,227.7583 C898.65,276.2683 865.5,339.0683 865.5,402.9883 C865.5,402.9883 865.5,402.9883 865.5,643.4883 C865.5,655.2383 749.53,708.9683 659,749.1283 " fill="none" id="Buyer-to-Agent" style="stroke:#181818;stroke-width:1.0;"/><polygon fill="#181818" points="654.46,751.1383,664.3089,751.144,659.0302,749.1102,661.064,743.8316,654.46,751.1383" style="stroke:#181818;stroke-width:1.0;"/><text fill="#000000" font-family="sans-serif" font-size="20" lengthAdjust="spacing" textLength="205" x="866.5" y="576.8242">contacts for purchase</text><text fill="#000000" font-family="sans-serif" font-size="20" lengthAdjust="spacing" textLength="10" x="917.3776" y="254.7028">*</text><text fill="#000000" font-family="sans-serif" font-size="20" lengthAdjust="spacing" textLength="10" x="661.0869" y="743.8531">*</text></g><!--link Buyer to PublishedProperty--><g id="link_Buyer_PublishedProperty"><path codeLine="88" d="M1073.25,227.9383 C1099.88,277.6283 1125.5,341.4383 1125.5,402.9883 C1125.5,402.9883 1125.5,402.9883 1125.5,1097.4883 C1125.5,1170.5283 1050.07,1212.3983 981.58,1235.3683 " fill="none" id="Buyer-to-PublishedProperty" style="stroke:#181818;stroke-width:1.0;"/><polygon fill="#181818" points="976.84,1236.9183,986.6378,1237.92,981.5919,1235.3629,984.1491,1230.317,976.84,1236.9183" style="stroke:#181818;stroke-width:1.0;"/><text fill="#000000" font-family="sans-serif" font-size="20" lengthAdjust="spacing" textLength="52" x="1126.5" y="803.8242">views</text><text fill="#000000" font-family="sans-serif" font-size="20" lengthAdjust="spacing" textLength="10" x="1067.0293" y="254.5717">*</text><text fill="#000000" font-family="sans-serif" font-size="20" lengthAdjust="spacing" textLength="10" x="982.9867" y="1231.2359">*</text></g><!--link PropertyOwner to Agent--><g id="link_PropertyOwner_Agent"><path codeLine="89" d="M607.46,227.9683 C579.94,277.5383 553.5,341.2283 553.5,402.9883 C553.5,402.9883 553.5,402.9883 553.5,643.4883 C553.5,661.0883 553.5,679.8483 553.5,697.9483 " fill="none" id="PropertyOwner-to-Agent" style="stroke:#181818;stroke-width:1.0;"/><polygon fill="#181818" points="553.5,702.5483,557.5,693.5483,553.5,697.5483,549.5,693.5483,553.5,702.5483" style="stroke:#181818;stroke-width:1.0;"/><text fill="#000000" font-family="sans-serif" font-size="20" lengthAdjust="spacing" textLength="204" x="554.5" y="576.8242">contacts for sale/rent</text><text fill="#000000" font-family="sans-serif" font-size="20" lengthAdjust="spacing" textLength="10" x="592.8166" y="254.6038">*</text><text fill="#000000" font-family="sans-serif" font-size="20" lengthAdjust="spacing" textLength="10" x="543.1016" y="692.1789">*</text></g><!--link StoreNetworkManager to Agency--><g id="link_StoreNetworkManager_Agency"><path codeLine="90" d="M115.5,180.7583 C115.5,233.4783 115.5,324.7083 115.5,402.9883 C115.5,402.9883 115.5,402.9883 115.5,643.4883 C115.5,693.1383 156.64,731.5583 196.94,757.2983 " fill="none" id="StoreNetworkManager-to-Agency" style="stroke:#181818;stroke-width:1.0;"/><polygon fill="#181818" points="201.07,759.8783,195.558,751.7163,196.83,757.2283,191.318,758.5003,201.07,759.8783" style="stroke:#181818;stroke-width:1.0;"/><text fill="#000000" font-family="sans-serif" font-size="20" lengthAdjust="spacing" textLength="86" x="116.5" y="576.8242">manages</text><text fill="#000000" font-family="sans-serif" font-size="20" lengthAdjust="spacing" textLength="13" x="101.6672" y="207.3609">1</text><text fill="#000000" font-family="sans-serif" font-size="20" lengthAdjust="spacing" textLength="10" x="184.5081" y="752.2329">*</text></g><!--link Agency to StoreManager--><g id="link_Agency_StoreManager"><path codeLine="91" d="M273.5,840.7483 C273.5,870.9983 273.5,912.1883 273.5,948.4883 C273.5,948.4883 273.5,948.4883 273.5,1097.4883 C273.5,1135.2983 273.5,1178.0283 273.5,1210.2583 " fill="none" id="Agency-to-StoreManager" style="stroke:#181818;stroke-width:1.0;"/><polygon fill="#181818" points="273.5,1215.0483,277.5,1206.0483,273.5,1210.0483,269.5,1206.0483,273.5,1215.0483" style="stroke:#181818;stroke-width:1.0;"/><text fill="#000000" font-family="sans-serif" font-size="20" lengthAdjust="spacing" textLength="118" x="274.5" y="1030.8242">managed by</text><text fill="#000000" font-family="sans-serif" font-size="20" lengthAdjust="spacing" textLength="13" x="259.6672" y="867.3496">1</text><text fill="#000000" font-family="sans-serif" font-size="20" lengthAdjust="spacing" textLength="13" x="259.5453" y="1204.6715">1</text></g><!--link Agent to PublishedProperty--><g id="link_Agent_PublishedProperty"><path codeLine="92" d="M616.2,887.5783 C624.66,906.8583 630.5,927.6883 630.5,948.4883 C630.5,948.4883 630.5,948.4883 630.5,1097.4883 C630.5,1166.6983 699.43,1208.4583 763.71,1232.3583 " fill="none" id="Agent-to-PublishedProperty" style="stroke:#181818;stroke-width:1.0;"/><polygon fill="#181818" points="768.1,1233.9583,761.0155,1227.1165,763.4027,1232.245,758.2742,1234.6322,768.1,1233.9583" style="stroke:#181818;stroke-width:1.0;"/><text fill="#000000" font-family="sans-serif" font-size="20" lengthAdjust="spacing" textLength="93" x="631.5" y="1030.8242">publishes</text><text fill="#000000" font-family="sans-serif" font-size="20" lengthAdjust="spacing" textLength="10" x="610.6177" y="914.8328">*</text><text fill="#000000" font-family="sans-serif" font-size="20" lengthAdjust="spacing" textLength="10" x="751.9277" y="1228.1106">*</text></g><!--link Agency to Agent--><g id="link_Agency_Agent"><path codeLine="93" d="M344.88,795.9883 C376,795.9883 413.12,795.9883 447.37,795.9883 " fill="none" id="Agency-to-Agent" style="stroke:#181818;stroke-width:1.0;"/><polygon fill="#181818" points="452.22,795.9883,443.22,791.9883,447.22,795.9883,443.22,799.9883,452.22,795.9883" style="stroke:#181818;stroke-width:1.0;"/><text fill="#000000" font-family="sans-serif" font-size="20" lengthAdjust="spacing" textLength="33" x="382.75" y="788.3242">has</text><text fill="#000000" font-family="sans-serif" font-size="20" lengthAdjust="spacing" textLength="13" x="352.5463" y="791.236">1</text><text fill="#000000" font-family="sans-serif" font-size="20" lengthAdjust="spacing" textLength="10" x="436.036" y="791.5044">*</text></g><!--link PropertyOwner to Property--><g id="link_PropertyOwner_Property"><path codeLine="94" d="M682.5,227.7883 C686.37,252.8983 690.58,280.2483 694.51,305.7183 " fill="none" id="PropertyOwner-to-Property" style="stroke:#181818;stroke-width:1.0;"/><polygon fill="#181818" points="695.27,310.6483,697.8612,301.1464,694.5129,305.7059,689.9534,302.3577,695.27,310.6483" style="stroke:#181818;stroke-width:1.0;"/><text fill="#000000" font-family="sans-serif" font-size="20" lengthAdjust="spacing" textLength="49" x="691.5" y="277.8242">owns</text><text fill="#000000" font-family="sans-serif" font-size="20" lengthAdjust="spacing" textLength="10" x="673.1609" y="254.735">*</text><text fill="#000000" font-family="sans-serif" font-size="20" lengthAdjust="spacing" textLength="10" x="683.9859" y="300.2761">*</text></g><!--link UnregisteredUser to PublishedProperty--><g id="link_UnregisteredUser_PublishedProperty"><path codeLine="95" d="M872.5,817.0883 C872.5,846.0983 872.5,901.4083 872.5,948.4883 C872.5,948.4883 872.5,948.4883 872.5,1097.4883 C872.5,1115.1583 872.5,1133.9083 872.5,1152.1583 " fill="none" id="UnregisteredUser-to-PublishedProperty" style="stroke:#181818;stroke-width:1.0;"/><polygon fill="#181818" points="872.5,1156.8083,876.5,1147.8083,872.5,1151.8083,868.5,1147.8083,872.5,1156.8083" style="stroke:#181818;stroke-width:1.0;"/><text fill="#000000" font-family="sans-serif" font-size="20" lengthAdjust="spacing" textLength="52" x="873.5" y="1030.8242">views</text><text fill="#000000" font-family="sans-serif" font-size="20" lengthAdjust="spacing" textLength="10" x="861.3438" y="844.0786">*</text><text fill="#000000" font-family="sans-serif" font-size="20" lengthAdjust="spacing" textLength="10" x="862.1328" y="1146.2374">*</text></g><!--SRC=[jLNRRjim37tNLmXvCJ1WMBl7OHYGTYjMO6s75Vq0HM9Y8RBaINGpx_BlesGxlcR8m-edcUGX3mzfEUorBOKNXN5o3uehs8hAu8sp-AX_0dzxmK8NmWjddSozAu1lXGamS9L2xiKE7h4sm3r857PdXW4X5yeTjDrnz1MmhFSORG7h4hZpcBi1H1eHmXhHwqs5S2kTJPGkXk2TTrLvQtFmcafA8hoOkdIcZY-CPRbMm4MNDR3qBhMNH3UT2o0QAh3Cm1OvEkxrBaUkT6nBEyjG8pNvqHL2Mtxd51Z64bV-YCx3FU31-VsTi2I8_yKuFLOKa0vaib9JsJz7J1qGYhKgjDK1lQ0K2LC5yFSjhAH0oga6g5Zf7oNgFlIhToLuh9kmACV3zgeAf4O80rCNrkJm8DA1raAafkEB8e9Hv1jQWMkm23wPIwybzFNML1yddAH66fsz5bxTLyMc1QBuCNWJIlcE4f2sfea10sNkBBIHepAoRIgsZ0qo38JfWw-gUgRJ2t3gD7mus1SirzTxiXvsD1Jme9v2BDbJgJP6XnpKylXr-C_ZJwVSeKkhlR3KV7Mvug_Zyu6lNgsQDU7lkAHQyJiy4oBh0IQDDRcM4jCT9YG6lgLCPULbBkZAMeJCn2BuiuP3OAE9dbKf20DlF3dOmcrmigCY-GDh3SCmEWw_TdwCLdnJiuR36VsKhMrSOzm8ARJOSPkrJ-OEDh3fzfslAijEJhkvR2FyKr4QLmCGggj3b_A4tkMSteDNv8cWxnK4cefGpsJN0OeubLCPBkVpP5chRZkDKtMQfYR1Sz7w2MHpwHhK64DCXAMVM41IxDhecFxzxvYRVnl1nzxPjJ05ZnGWCf50TF4cR6ZfXi2oupYIFVKwCSRKmqqzvHv_4lr0cioV7VtvfiOr_SznFBx6yKLODUMsi5kC_GK0]--></g></svg>