<?xml version="1.0" encoding="UTF-8" standalone="no"?><svg xmlns="http://www.w3.org/2000/svg" xmlns:xlink="http://www.w3.org/1999/xlink" contentStyleType="text/css" height="1947px" preserveAspectRatio="none" style="width:1167px;height:1947px;background:#FFFFFF;" version="1.1" viewBox="0 0 1167 1947" width="1167px" zoomAndPan="magnify"><defs/><g><text fill="#000000" font-family="sans-serif" font-size="14" font-weight="bold" lengthAdjust="spacing" textLength="105" x="524.25" y="23.5352">Domain Model</text><!--class Client--><g id="elem_Client"><rect codeLine="15" fill="#F1F1F1" height="41.5547" id="Client" rx="2.5" ry="2.5" style="stroke:#181818;stroke-width:0.5;" width="62" x="832.5" y="269.4883"/><text fill="#000000" font-family="sans-serif" font-size="20" lengthAdjust="spacing" textLength="56" x="835.5" y="293.8242">Client</text><line style="stroke:#181818;stroke-width:0.5;" x1="833.5" x2="893.5" y1="303.043" y2="303.043"/></g><polygon fill="none" points="865.4684,311.043,874.3234,330.2936,860.3858,331.614" style="stroke:#181818;stroke-width:1.0;"/><line style="stroke:#181818;stroke-width:1.0;" x1="867.3546" x2="867.5" y1="330.9538" y2="332.4883"/><line style="stroke:#181818;stroke-width:1.0;" x1="844.2354" x2="825.33" y1="269.4883" y2="249.0983"/><!--class User--><g id="elem_User"><rect codeLine="18" fill="#F1F1F1" height="41.5547" id="User" rx="2.5" ry="2.5" style="stroke:#181818;stroke-width:0.5;" width="49" x="671" y="44.4883"/><text fill="#000000" font-family="sans-serif" font-size="20" lengthAdjust="spacing" textLength="43" x="674" y="68.8242">User</text><line style="stroke:#181818;stroke-width:0.5;" x1="672" x2="719" y1="78.043" y2="78.043"/></g><polygon fill="none" points="693.5316,86.043,698.6142,106.614,684.6766,105.2936" style="stroke:#181818;stroke-width:1.0;"/><line style="stroke:#181818;stroke-width:1.0;" x1="691.6454" x2="691.5" y1="105.9538" y2="107.4883"/><!--class RegisteredUser--><g id="elem_RegisteredUser"><rect codeLine="21" fill="#F1F1F1" height="41.5547" id="RegisteredUser" rx="2.5" ry="2.5" style="stroke:#181818;stroke-width:0.5;" width="151" x="824" y="709.9883"/><text fill="#000000" font-family="sans-serif" font-size="20" lengthAdjust="spacing" textLength="145" x="827" y="734.3242">RegisteredUser</text><line style="stroke:#181818;stroke-width:0.5;" x1="825" x2="974" y1="743.543" y2="743.543"/></g><!--class UnregisteredUser--><g id="elem_UnregisteredUser"><rect codeLine="24" fill="#F1F1F1" height="41.5547" id="UnregisteredUser" rx="2.5" ry="2.5" style="stroke:#181818;stroke-width:0.5;" width="172" x="987.5" y="567.4883"/><text fill="#000000" font-family="sans-serif" font-size="20" lengthAdjust="spacing" textLength="166" x="990.5" y="591.8242">UnregisteredUser</text><line style="stroke:#181818;stroke-width:0.5;" x1="988.5" x2="1158.5" y1="601.043" y2="601.043"/></g><!--class PropertyOwner--><g id="elem_PropertyOwner"><rect codeLine="27" fill="#F1F1F1" height="182.8828" id="PropertyOwner" rx="2.5" ry="2.5" style="stroke:#181818;stroke-width:0.5;" width="199" x="590" y="639.4883"/><text fill="#000000" font-family="sans-serif" font-size="20" lengthAdjust="spacing" textLength="142" x="618.5" y="663.8242">PropertyOwner</text><line style="stroke:#181818;stroke-width:0.5;" x1="591" x2="788" y1="673.043" y2="673.043"/><text fill="#000000" font-family="sans-serif" font-size="20" lengthAdjust="spacing" textLength="53" x="596" y="696.3789">name</text><text fill="#000000" font-family="sans-serif" font-size="20" lengthAdjust="spacing" textLength="187" x="596" y="719.9336">citizenCardNumber</text><text fill="#000000" font-family="sans-serif" font-size="20" lengthAdjust="spacing" textLength="108" x="596" y="743.4883">taxNumber</text><text fill="#000000" font-family="sans-serif" font-size="20" lengthAdjust="spacing" textLength="76" x="596" y="767.043">address</text><text fill="#000000" font-family="sans-serif" font-size="20" lengthAdjust="spacing" textLength="53" x="596" y="790.5977">email</text><text fill="#000000" font-family="sans-serif" font-size="20" lengthAdjust="spacing" textLength="173" x="596" y="814.1523">telephoneNumber</text></g><!--class Employee--><g id="elem_Employee"><rect codeLine="36" fill="#F1F1F1" height="206.4375" id="Employee" rx="2.5" ry="2.5" style="stroke:#181818;stroke-width:0.5;" width="199" x="354" y="187.4883"/><text fill="#000000" font-family="sans-serif" font-size="20" lengthAdjust="spacing" textLength="93" x="407" y="211.8242">Employee</text><line style="stroke:#181818;stroke-width:0.5;" x1="355" x2="552" y1="221.043" y2="221.043"/><text fill="#000000" font-family="sans-serif" font-size="20" lengthAdjust="spacing" textLength="53" x="360" y="244.3789">name</text><text fill="#000000" font-family="sans-serif" font-size="20" lengthAdjust="spacing" textLength="187" x="360" y="267.9336">citizenCardNumber</text><text fill="#000000" font-family="sans-serif" font-size="20" lengthAdjust="spacing" textLength="108" x="360" y="291.4883">taxNumber</text><text fill="#000000" font-family="sans-serif" font-size="20" lengthAdjust="spacing" textLength="76" x="360" y="315.043">address</text><text fill="#000000" font-family="sans-serif" font-size="20" lengthAdjust="spacing" textLength="53" x="360" y="338.5977">email</text><text fill="#000000" font-family="sans-serif" font-size="20" lengthAdjust="spacing" textLength="170" x="360" y="362.1523">contactTelephone</text><text fill="#000000" font-family="sans-serif" font-size="20" lengthAdjust="spacing" textLength="66" x="360" y="385.707">agency</text></g><polygon fill="none" points="411.806,393.9258,410.8057,415.0918,397.8248,409.8483" style="stroke:#181818;stroke-width:1.0;"/><line style="stroke:#181818;stroke-width:1.0;" x1="404.3153" x2="403.5" y1="412.47" y2="414.4883"/><polygon fill="none" points="354,279.7799,333.3554,284.5548,334.8837,270.6385" style="stroke:#181818;stroke-width:1.0;"/><line style="stroke:#181818;stroke-width:1.0;" x1="334.1195" x2="333.77" y1="277.5967" y2="277.5583"/><line style="stroke:#181818;stroke-width:1.0;" x1="354" x2="333.81" y1="262.8341" y2="257.1783"/><line style="stroke:#181818;stroke-width:1.0;" x1="553" x2="573.2" y1="213.6101" y2="197.9583"/><!--class Agent--><g id="elem_Agent"><rect codeLine="46" fill="#F1F1F1" height="182.8828" id="Agent" rx="2.5" ry="2.5" style="stroke:#181818;stroke-width:0.5;" width="199" x="542" y="907.4883"/><text fill="#000000" font-family="sans-serif" font-size="20" lengthAdjust="spacing" textLength="56" x="613.5" y="931.8242">Agent</text><line style="stroke:#181818;stroke-width:0.5;" x1="543" x2="740" y1="941.043" y2="941.043"/><text fill="#000000" font-family="sans-serif" font-size="20" lengthAdjust="spacing" textLength="53" x="548" y="964.3789">name</text><text fill="#000000" font-family="sans-serif" font-size="20" lengthAdjust="spacing" textLength="187" x="548" y="987.9336">citizenCardNumber</text><text fill="#000000" font-family="sans-serif" font-size="20" lengthAdjust="spacing" textLength="108" x="548" y="1011.4883">taxNumber</text><text fill="#000000" font-family="sans-serif" font-size="20" lengthAdjust="spacing" textLength="76" x="548" y="1035.043">address</text><text fill="#000000" font-family="sans-serif" font-size="20" lengthAdjust="spacing" textLength="53" x="548" y="1058.5977">email</text><text fill="#000000" font-family="sans-serif" font-size="20" lengthAdjust="spacing" textLength="173" x="548" y="1082.1523">telephoneNumber</text></g><!--class StoreManager--><g id="elem_StoreManager"><rect codeLine="55" fill="#F1F1F1" height="41.5547" id="StoreManager" rx="2.5" ry="2.5" style="stroke:#181818;stroke-width:0.5;" width="137" x="118" y="977.9883"/><text fill="#000000" font-family="sans-serif" font-size="20" lengthAdjust="spacing" textLength="131" x="121" y="1002.3242">StoreManager</text><line style="stroke:#181818;stroke-width:0.5;" x1="119" x2="254" y1="1011.543" y2="1011.543"/></g><!--class StoreNetworkManager--><g id="elem_StoreNetworkManager"><rect codeLine="58" fill="#F1F1F1" height="41.5547" id="StoreNetworkManager" rx="2.5" ry="2.5" style="stroke:#181818;stroke-width:0.5;" width="217" x="290" y="977.9883"/><text fill="#000000" font-family="sans-serif" font-size="20" lengthAdjust="spacing" textLength="211" x="293" y="1002.3242">StoreNetworkManager</text><line style="stroke:#181818;stroke-width:0.5;" x1="291" x2="506" y1="1011.543" y2="1011.543"/></g><!--class SystemAdministrator--><g id="elem_SystemAdministrator"><rect codeLine="61" fill="#F1F1F1" height="88.6641" id="SystemAdministrator" rx="2.5" ry="2.5" style="stroke:#181818;stroke-width:0.5;" width="207" x="7" y="245.9883"/><text fill="#000000" font-family="sans-serif" font-size="20" lengthAdjust="spacing" textLength="201" x="10" y="270.3242">SystemAdministrator</text><line style="stroke:#181818;stroke-width:0.5;" x1="8" x2="213" y1="279.543" y2="279.543"/><text fill="#000000" font-family="sans-serif" font-size="20" lengthAdjust="spacing" textLength="97" x="13" y="302.8789">userName</text><text fill="#000000" font-family="sans-serif" font-size="20" lengthAdjust="spacing" textLength="92" x="13" y="326.4336">password</text></g><!--class PropertyOrder--><g id="elem_PropertyOrder"><rect codeLine="66" fill="#F1F1F1" height="41.5547" id="PropertyOrder" rx="2.5" ry="2.5" style="stroke:#181818;stroke-width:0.5;" width="142" x="675.5" y="1347.4883"/><text fill="#000000" font-family="sans-serif" font-size="20" lengthAdjust="spacing" textLength="136" x="678.5" y="1371.8242">PropertyOrder</text><line style="stroke:#181818;stroke-width:0.5;" x1="676.5" x2="816.5" y1="1381.043" y2="1381.043"/></g><!--class Property--><g id="elem_Property"><rect codeLine="69" fill="#F1F1F1" height="182.8828" id="Property" rx="2.5" ry="2.5" style="stroke:#181818;stroke-width:0.5;" width="205" x="718" y="1470.4883"/><text fill="#000000" font-family="sans-serif" font-size="20" lengthAdjust="spacing" textLength="80" x="780.5" y="1494.8242">Property</text><line style="stroke:#181818;stroke-width:0.5;" x1="719" x2="922" y1="1504.043" y2="1504.043"/><text fill="#000000" font-family="sans-serif" font-size="20" lengthAdjust="spacing" textLength="147" x="724" y="1527.3789">typeOfBusiness</text><text fill="#000000" font-family="sans-serif" font-size="20" lengthAdjust="spacing" textLength="144" x="724" y="1550.9336">typeOfProperty</text><text fill="#000000" font-family="sans-serif" font-size="20" lengthAdjust="spacing" textLength="41" x="724" y="1574.4883">area</text><text fill="#000000" font-family="sans-serif" font-size="20" lengthAdjust="spacing" textLength="76" x="724" y="1598.043">location</text><text fill="#000000" font-family="sans-serif" font-size="20" lengthAdjust="spacing" textLength="193" x="724" y="1621.5977">distanceFromCenter</text><text fill="#000000" font-family="sans-serif" font-size="20" lengthAdjust="spacing" textLength="48" x="724" y="1645.1523">price</text></g><polygon fill="none" points="814.8384,1653.3711,820.5891,1673.7654,806.6159,1672.9003" style="stroke:#181818;stroke-width:1.0;"/><line style="stroke:#181818;stroke-width:1.0;" x1="813.6025" x2="813.5" y1="1673.3329" y2="1674.9883"/><line style="stroke:#181818;stroke-width:1.0;" x1="718" x2="691.89" y1="1531.0216" y2="1523.1483"/><line style="stroke:#181818;stroke-width:1.0;" x1="923" x2="949.11" y1="1531.0216" y2="1523.1483"/><!--class Apartment--><g id="elem_Apartment"><rect codeLine="78" fill="#F1F1F1" height="135.7734" id="Apartment" rx="2.5" ry="2.5" style="stroke:#181818;stroke-width:0.5;" width="248" x="413.5" y="1769.4883"/><text fill="#000000" font-family="sans-serif" font-size="20" lengthAdjust="spacing" textLength="102" x="486.5" y="1793.8242">Apartment</text><line style="stroke:#181818;stroke-width:0.5;" x1="414.5" x2="660.5" y1="1803.043" y2="1803.043"/><text fill="#000000" font-family="sans-serif" font-size="20" lengthAdjust="spacing" textLength="195" x="419.5" y="1826.3789">numberOfBedrooms</text><text fill="#000000" font-family="sans-serif" font-size="20" lengthAdjust="spacing" textLength="201" x="419.5" y="1849.9336">numberOfBathrooms</text><text fill="#000000" font-family="sans-serif" font-size="20" lengthAdjust="spacing" textLength="236" x="419.5" y="1873.4883">numberOfParkingSpaces</text><text fill="#000000" font-family="sans-serif" font-size="20" lengthAdjust="spacing" textLength="189" x="419.5" y="1897.043">availableEquipment</text></g><!--class House--><g id="elem_House"><rect codeLine="85" fill="#F1F1F1" height="206.4375" id="House" rx="2.5" ry="2.5" style="stroke:#181818;stroke-width:0.5;" width="248" x="696.5" y="1734.4883"/><text fill="#000000" font-family="sans-serif" font-size="20" lengthAdjust="spacing" textLength="60" x="790.5" y="1758.8242">House</text><line style="stroke:#181818;stroke-width:0.5;" x1="697.5" x2="943.5" y1="1768.043" y2="1768.043"/><text fill="#000000" font-family="sans-serif" font-size="20" lengthAdjust="spacing" textLength="195" x="702.5" y="1791.3789">numberOfBedrooms</text><text fill="#000000" font-family="sans-serif" font-size="20" lengthAdjust="spacing" textLength="201" x="702.5" y="1814.9336">numberOfBathrooms</text><text fill="#000000" font-family="sans-serif" font-size="20" lengthAdjust="spacing" textLength="236" x="702.5" y="1838.4883">numberOfParkingSpaces</text><text fill="#000000" font-family="sans-serif" font-size="20" lengthAdjust="spacing" textLength="189" x="702.5" y="1862.043">availableEquipment</text><text fill="#000000" font-family="sans-serif" font-size="20" lengthAdjust="spacing" textLength="94" x="702.5" y="1885.5977">basement</text><text fill="#000000" font-family="sans-serif" font-size="20" lengthAdjust="spacing" textLength="145" x="702.5" y="1909.1523">inhabitableLoft</text><text fill="#000000" font-family="sans-serif" font-size="20" lengthAdjust="spacing" textLength="123" x="702.5" y="1932.707">sunExposure</text></g><!--class Land--><g id="elem_Land"><rect codeLine="95" fill="#F1F1F1" height="41.5547" id="Land" rx="2.5" ry="2.5" style="stroke:#181818;stroke-width:0.5;" width="53" x="980" y="1816.4883"/><text fill="#000000" font-family="sans-serif" font-size="20" lengthAdjust="spacing" textLength="47" x="983" y="1840.8242">Land</text><line style="stroke:#181818;stroke-width:0.5;" x1="981" x2="1032" y1="1850.043" y2="1850.043"/></g><!--link SystemAdministrator to Employee--><g id="link_SystemAdministrator_Employee"><path codeLine="99" d="M214.49,257.5183 C220.21,256.3383 225.9,255.3083 231.5,254.4883 C268.88,248.9983 279.04,249.6183 316.5,254.4883 C322.19,255.2283 327.98,256.1383 333.81,257.1783 " fill="none" id="SystemAdministrator-Employee" style="stroke:#181818;stroke-width:1.0;"/><text fill="#000000" font-family="sans-serif" font-size="20" lengthAdjust="spacing" textLength="83" x="232.5" y="246.8242">registers</text><text fill="#000000" font-family="sans-serif" font-size="20" lengthAdjust="spacing" textLength="13" x="221.9135" y="250.8963">1</text><text fill="#000000" font-family="sans-serif" font-size="20" lengthAdjust="spacing" textLength="10" x="315.822" y="250.6473">*</text></g><!--reverse link Employee to SystemAdministrator--><g id="link_Employee_SystemAdministrator"><path codeLine="117" d="M333.77,277.5583 C294.84,276.6783 251.93,276.8183 214.27,277.9883 " fill="none" id="Employee-backto-SystemAdministrator" style="stroke:#181818;stroke-width:1.0;"/></g><!--link PropertyOwner to PropertyOrder--><g id="link_PropertyOwner_PropertyOrder"><path codeLine="100" d="M744.77,822.7183 C770.06,872.6083 794.5,936.6683 794.5,997.9883 C794.5,997.9883 794.5,997.9883 794.5,1274.9883 C794.5,1299.7983 780.73,1324.5583 767.94,1342.2183 " fill="none" id="PropertyOwner-to-PropertyOrder" style="stroke:#181818;stroke-width:1.0;"/><polygon fill="#181818" points="765.28,1345.7883,773.8607,1340.9539,768.264,1341.7763,767.4416,1336.1796,765.28,1345.7883" style="stroke:#181818;stroke-width:1.0;"/><text fill="#000000" font-family="sans-serif" font-size="20" lengthAdjust="spacing" textLength="224" x="795.5" y="1171.8242">requests advertisement</text><text fill="#000000" font-family="sans-serif" font-size="20" lengthAdjust="spacing" textLength="13" x="735.3515" y="849.6598">1</text><text fill="#000000" font-family="sans-serif" font-size="20" lengthAdjust="spacing" textLength="10" x="757.5071" y="1335.4272">*</text></g><!--link PropertyOwner to Agent--><g id="link_PropertyOwner_Agent"><path codeLine="101" d="M673.12,822.7883 C668.56,848.0083 663.61,875.4883 658.99,901.0383 " fill="none" id="PropertyOwner-to-Agent" style="stroke:#181818;stroke-width:1.0;"/><polygon fill="#181818" points="658.16,905.6583,663.6929,897.5105,659.0469,900.7376,655.8198,896.0915,658.16,905.6583" style="stroke:#181818;stroke-width:1.0;"/><text fill="#000000" font-family="sans-serif" font-size="20" lengthAdjust="spacing" textLength="79" x="667.5" y="872.8242">contacts</text><text fill="#000000" font-family="sans-serif" font-size="20" lengthAdjust="spacing" textLength="13" x="658.4398" y="849.735">1</text><text fill="#000000" font-family="sans-serif" font-size="20" lengthAdjust="spacing" textLength="13" x="645.6781" y="895.2761">1</text></g><!--link Agent to PropertyOrder--><g id="link_Agent_PropertyOrder"><path codeLine="102" d="M659.84,1090.8583 C669.24,1133.8383 681.63,1185.6683 695.5,1231.4883 C707.25,1270.3083 724.37,1314.0283 735.47,1341.1683 " fill="none" id="Agent-to-PropertyOrder" style="stroke:#181818;stroke-width:1.0;"/><polygon fill="#181818" points="737.3,1345.6383,737.5827,1335.7935,735.4013,1341.0128,730.1819,1338.8314,737.3,1345.6383" style="stroke:#181818;stroke-width:1.0;"/><text fill="#000000" font-family="sans-serif" font-size="20" lengthAdjust="spacing" textLength="71" x="696.5" y="1226.8242">reviews</text><text fill="#000000" font-family="sans-serif" font-size="20" lengthAdjust="spacing" textLength="13" x="647.7095" y="1117.8101">1</text><text fill="#000000" font-family="sans-serif" font-size="20" lengthAdjust="spacing" textLength="10" x="724.5601" y="1335.4645">*</text></g><!--link Agent to Property--><g id="link_Agent_Property"><path codeLine="103" d="M570.47,1090.5783 C558.84,1113.0183 550.5,1137.8683 550.5,1162.9883 C550.5,1162.9883 550.5,1162.9883 550.5,1369.4883 C550.5,1445.3683 622.33,1493.9183 691.89,1523.1483 " fill="none" id="Agent-to-Property" style="stroke:#181818;stroke-width:1.0;"/><polygon fill="#181818" points="696.35,1524.9883,689.5432,1517.8702,691.7245,1523.0896,686.5052,1525.2709,696.35,1524.9883" style="stroke:#181818;stroke-width:1.0;"/><text fill="#000000" font-family="sans-serif" font-size="20" lengthAdjust="spacing" textLength="93" x="551.5" y="1281.8242">publishes</text><text fill="#000000" font-family="sans-serif" font-size="20" lengthAdjust="spacing" textLength="13" x="551.5341" y="1117.8328">1</text><text fill="#000000" font-family="sans-serif" font-size="20" lengthAdjust="spacing" textLength="10" x="679.9652" y="1518.994">*</text></g><!--link UnregisteredUser to Property--><g id="link_UnregisteredUser_Property"><path codeLine="104" d="M1075.62,609.7783 C1080.18,655.2383 1090.5,768.7283 1090.5,863.9883 C1090.5,863.9883 1090.5,863.9883 1090.5,1369.4883 C1090.5,1445.3683 1018.67,1493.9183 949.11,1523.1483 " fill="none" id="UnregisteredUser-to-Property" style="stroke:#181818;stroke-width:1.0;"/><polygon fill="#181818" points="944.65,1524.9883,954.4948,1525.2709,949.2755,1523.0896,951.4568,1517.8702,944.65,1524.9883" style="stroke:#181818;stroke-width:1.0;"/><text fill="#000000" font-family="sans-serif" font-size="20" lengthAdjust="spacing" textLength="68" x="1091.5" y="1171.8242">can list</text><text fill="#000000" font-family="sans-serif" font-size="20" lengthAdjust="spacing" textLength="13" x="1061.6619" y="636.3964">1</text><text fill="#000000" font-family="sans-serif" font-size="20" lengthAdjust="spacing" textLength="10" x="951.0348" y="1518.994">*</text></g><!--reverse link Client to RegisteredUser--><g id="link_Client_RegisteredUser"><path codeLine="106" d="M867.5,332.4883 C867.5,332.4883 891.35,628.7283 897.87,709.7283 " fill="none" id="Client-backto-RegisteredUser" style="stroke:#181818;stroke-width:1.0;"/></g><!--reverse link Client to UnregisteredUser--><g id="link_Client_UnregisteredUser"><path codeLine="107" d="M867.5,332.4883 C867.5,332.4883 1008.11,506.5383 1056.99,567.0483 " fill="none" id="Client-backto-UnregisteredUser" style="stroke:#181818;stroke-width:1.0;"/></g><!--reverse link Client to PropertyOwner--><g id="link_Client_PropertyOwner"><path codeLine="108" d="M867.5,332.4883 C867.5,332.4883 782.65,521.9783 730.11,639.2883 " fill="none" id="Client-backto-PropertyOwner" style="stroke:#181818;stroke-width:1.0;"/></g><!--reverse link User to Client--><g id="link_User_Client"><path codeLine="109" d="M691.5,107.4883 C691.5,107.4883 774.66,195.4783 825.33,249.0983 " fill="none" id="User-backto-Client" style="stroke:#181818;stroke-width:1.0;"/></g><!--reverse link User to Employee--><g id="link_User_Employee"><path codeLine="110" d="M691.5,107.4883 C691.5,107.4883 632.46,152.6383 573.2,197.9583 " fill="none" id="User-backto-Employee" style="stroke:#181818;stroke-width:1.0;"/></g><!--reverse link Employee to Agent--><g id="link_Employee_Agent"><path codeLine="111" d="M403.5,414.4883 C403.5,414.4883 527.5,413.2683 527.5,474.4883 C527.5,474.4883 527.5,474.4883 527.5,731.9883 C527.5,793.7883 553.82,857.6083 581.16,907.2383 " fill="none" id="Employee-backto-Agent" style="stroke:#181818;stroke-width:1.0;"/></g><!--reverse link Employee to StoreManager--><g id="link_Employee_StoreManager"><path codeLine="112" d="M403.5,414.4883 C403.5,414.4883 186.5,424.4583 186.5,474.4883 C186.5,474.4883 186.5,474.4883 186.5,731.9883 C186.5,823.6583 186.5,933.0983 186.5,977.6283 " fill="none" id="Employee-backto-StoreManager" style="stroke:#181818;stroke-width:1.0;"/></g><!--reverse link Employee to StoreNetworkManager--><g id="link_Employee_StoreNetworkManager"><path codeLine="113" d="M403.5,414.4883 C403.5,414.4883 398.5,447.7283 398.5,474.4883 C398.5,474.4883 398.5,474.4883 398.5,731.9883 C398.5,823.6583 398.5,933.0983 398.5,977.6283 " fill="none" id="Employee-backto-StoreNetworkManager" style="stroke:#181818;stroke-width:1.0;"/></g><!--reverse link Property to House--><g id="link_Property_House"><path codeLine="114" d="M813.5,1674.9883 C813.5,1674.9883 814.68,1702.1583 816.07,1734.2083 " fill="none" id="Property-backto-House" style="stroke:#181818;stroke-width:1.0;"/></g><!--reverse link Property to Apartment--><g id="link_Property_Apartment"><path codeLine="115" d="M813.5,1674.9883 C813.5,1674.9883 736.04,1702.0883 679.5,1734.4883 C661.46,1744.8283 642.91,1756.9383 625.41,1769.1283 " fill="none" id="Property-backto-Apartment" style="stroke:#181818;stroke-width:1.0;"/></g><!--reverse link Property to Land--><g id="link_Property_Land"><path codeLine="116" d="M813.5,1674.9883 C813.5,1674.9883 911.39,1684.7583 962.5,1734.4883 C985.58,1756.9483 997.27,1793.5083 1002.61,1816.2183 " fill="none" id="Property-backto-Land" style="stroke:#181818;stroke-width:1.0;"/></g><!--SRC=[jLJ9Rjim4BtpAmXV0XG8qFPO50NIr443P4FTVC1O74k4AL8PZkAeoxztH4csfDYtnXUBRzvmriUujRu2WjA5R8j66zn0xVWgU5xPNwW_lbTneEWo-90L54hKJ3MEB1LaMyXnnOr3JPWn-DoD2R404tRMvte3Bg8wEvYSzSXDXJeG5s7aapc8yOAPxBfclCw2JocDCyefrDMrBv2iXCmatwCtLy4rxK6fiy8Qr31S6bKwPvOoIJTzboXPcAZE76vOSz1ayuAriMrPDdZ5bgN8Rw44w_LjCEYKIgdgIsVHys_rTm0U8zBe-0Dp6na9pSpmwEcKwO52XSJD_Swtk9QVXnBJHsPP6k8lWSnTNQwH4ihmCZg1COGnfc-Kb5t7GOTL4Jpsp7suPLcvq23-jqWoDOQCVmu1EsgEFciEKI_orBUtBcx5WV0Ml8GVjpZ1TyYxGDiZraRcKbwOqdgP486GKwQrpEckJxOIedYR8sCZStISNR7jSjvlljPHThCleuC6MbSb8QGFqIYa5MmFHh9fL_vAz7WfxUjRKf7DSDHPKGANX-wcZaX8D1H26QSWSF4QVG0IGUKhaJXs5dYMJiFQuVAfjbLx-I7Uzo1zUTjOBRo6YFk3zGMiHV_2kWcR3ekrNxvK8TOqQiODU9DceOuCLIy-BFHv9_R5kyLU2VgJ7iGPrKIDdSVvbqIV33pvFDKOESgEFWjk-tnFN23_IGFYs0icgWxeAAUZF5lSpRapil2gUkriBAIfywTcS9gwI1hWvVsCh5JtgkdFVzgRPs_OnFZg6PkvJcfNANXhwP_D4J2qNkrdaE1Kv1Hhhnsh-eHrAkxz4BfhqyhEiBriPdYxGREiZgoIKly0]--></g></svg>