<?xml version="1.0" encoding="UTF-8" standalone="no"?><svg xmlns="http://www.w3.org/2000/svg" xmlns:xlink="http://www.w3.org/1999/xlink" contentStyleType="text/css" height="644px" preserveAspectRatio="none" style="width:641px;height:644px;background:#FFFFFF;" version="1.1" viewBox="0 0 641 644" width="641px" zoomAndPan="magnify"><defs><filter height="300%" id="f1l8jhsqzzvipk" width="300%" x="-1" y="-1"><feGaussianBlur result="blurOut" stdDeviation="2.0"/><feColorMatrix in="blurOut" result="blurOut2" type="matrix" values="0 0 0 0 0 0 0 0 0 0 0 0 0 0 0 0 0 0 .4 0"/><feOffset dx="4.0" dy="4.0" in="blurOut2" result="blurOut3"/><feBlend in="SourceGraphic" in2="blurOut3" mode="normal"/></filter></defs><g><text fill="#000000" font-family="sans-serif" font-size="14" font-weight="bold" lengthAdjust="spacing" textLength="105" x="261.25" y="23.5352">Domain Model</text><!--class StoreNetworkManager--><g id="elem_StoreNetworkManager"><rect codeLine="15" fill="#F1F1F1" filter="url(#f1l8jhsqzzvipk)" height="33.5547" id="StoreNetworkManager" rx="2.5" ry="2.5" style="stroke:#181818;stroke-width:0.5;" width="217" x="7" y="44.4883"/><text fill="#000000" font-family="sans-serif" font-size="20" lengthAdjust="spacing" textLength="211" x="10" y="68.8242">StoreNetworkManager</text></g><!--class Manager--><g id="elem_Manager"><rect codeLine="18" fill="#F1F1F1" filter="url(#f1l8jhsqzzvipk)" height="33.5547" id="Manager" rx="2.5" ry="2.5" style="stroke:#181818;stroke-width:0.5;" width="88" x="105.5" y="598.4883"/><text fill="#000000" font-family="sans-serif" font-size="20" lengthAdjust="spacing" textLength="82" x="108.5" y="622.8242">Manager</text></g><!--class Property--><g id="elem_Property"><rect codeLine="21" fill="#F1F1F1" filter="url(#f1l8jhsqzzvipk)" height="33.5547" id="Property" rx="2.5" ry="2.5" style="stroke:#181818;stroke-width:0.5;" width="86" x="543.5" y="321.4883"/><text fill="#000000" font-family="sans-serif" font-size="20" lengthAdjust="spacing" textLength="80" x="546.5" y="345.8242">Property</text></g><!--class Agent--><g id="elem_Agent"><rect codeLine="24" fill="#F1F1F1" filter="url(#f1l8jhsqzzvipk)" height="33.5547" id="Agent" rx="2.5" ry="2.5" style="stroke:#181818;stroke-width:0.5;" width="62" x="239.5" y="321.4883"/><text fill="#000000" font-family="sans-serif" font-size="20" lengthAdjust="spacing" textLength="56" x="242.5" y="345.8242">Agent</text></g><!--class Agency--><g id="elem_Agency"><rect codeLine="27" fill="#F1F1F1" filter="url(#f1l8jhsqzzvipk)" height="33.5547" id="Agency" rx="2.5" ry="2.5" style="stroke:#181818;stroke-width:0.5;" width="75" x="112" y="321.4883"/><text fill="#000000" font-family="sans-serif" font-size="20" lengthAdjust="spacing" textLength="69" x="115" y="345.8242">Agency</text></g><!--class Buyer--><g id="elem_Buyer"><rect codeLine="30" fill="#F1F1F1" filter="url(#f1l8jhsqzzvipk)" height="33.5547" id="Buyer" rx="2.5" ry="2.5" style="stroke:#181818;stroke-width:0.5;" width="59" x="259" y="44.4883"/><text fill="#000000" font-family="sans-serif" font-size="20" lengthAdjust="spacing" textLength="53" x="262" y="68.8242">Buyer</text></g><!--class Seller--><g id="elem_Seller"><rect codeLine="33" fill="#F1F1F1" filter="url(#f1l8jhsqzzvipk)" height="33.5547" id="Seller" rx="2.5" ry="2.5" style="stroke:#181818;stroke-width:0.5;" width="59" x="483" y="44.4883"/><text fill="#000000" font-family="sans-serif" font-size="20" lengthAdjust="spacing" textLength="53" x="486" y="68.8242">Seller</text></g><!--class UnregisteredUser--><g id="elem_UnregisteredUser"><rect codeLine="36" fill="#F1F1F1" filter="url(#f1l8jhsqzzvipk)" height="33.5547" id="UnregisteredUser" rx="2.5" ry="2.5" style="stroke:#181818;stroke-width:0.5;" width="172" x="336.5" y="321.4883"/><text fill="#000000" font-family="sans-serif" font-size="20" lengthAdjust="spacing" textLength="166" x="339.5" y="345.8242">UnregisteredUser</text></g><!--class PublishedSale--><g id="elem_PublishedSale"><rect codeLine="39" fill="#F1F1F1" filter="url(#f1l8jhsqzzvipk)" height="33.5547" id="PublishedSale" rx="2.5" ry="2.5" style="stroke:#181818;stroke-width:0.5;" width="139" x="297" y="598.4883"/><text fill="#000000" font-family="sans-serif" font-size="20" lengthAdjust="spacing" textLength="133" x="300" y="622.8242">PublishedSale</text></g><!--link Buyer to Agent--><g id="link_Buyer_Agent"><path codeLine="42" d="M273.17,78.8183 C273.17,78.8183 273.17,314.6583 273.17,314.6583 " fill="none" id="Buyer-to-Agent" style="stroke:#181818;stroke-width:1.0;"/><polygon fill="#181818" points="273.17,319.6583,277.17,310.6583,273.17,314.6583,269.17,310.6583,273.17,319.6583" style="stroke:#181818;stroke-width:1.0;"/><text fill="#000000" font-family="sans-serif" font-size="20" lengthAdjust="spacing" textLength="205" x="67.17" y="217.0742">contacts for purchase</text><text fill="#000000" font-family="sans-serif" font-size="20" lengthAdjust="spacing" textLength="10" x="258.2146" y="105.3034">*</text><text fill="#000000" font-family="sans-serif" font-size="20" lengthAdjust="spacing" textLength="10" x="262.4856" y="309.1852">*</text></g><!--link Seller to Agent--><g id="link_Seller_Agent"><path codeLine="43" d="M495.75,78.8083 C495.75,116.0683 495.75,200.4883 495.75,200.4883 C495.75,200.4883 287.33,200.4883 287.33,200.4883 C287.33,200.4883 287.33,314.4983 287.33,314.4983 " fill="none" id="Seller-to-Agent" style="stroke:#181818;stroke-width:1.0;"/><polygon fill="#181818" points="287.33,319.4983,291.33,310.4983,287.33,314.4983,283.33,310.4983,287.33,319.4983" style="stroke:#181818;stroke-width:1.0;"/><text fill="#000000" font-family="sans-serif" font-size="20" lengthAdjust="spacing" textLength="156" x="396.38" y="195.8242">contacts for sale</text><text fill="#000000" font-family="sans-serif" font-size="20" lengthAdjust="spacing" textLength="10" x="480.4484" y="105.291">*</text><text fill="#000000" font-family="sans-serif" font-size="20" lengthAdjust="spacing" textLength="10" x="280.6572" y="309.3342">*</text></g><!--link StoreNetworkManager to Agency--><g id="link_StoreNetworkManager_Agency"><path codeLine="44" d="M149.5,78.8183 C149.5,78.8183 149.5,314.6583 149.5,314.6583 " fill="none" id="StoreNetworkManager-to-Agency" style="stroke:#181818;stroke-width:1.0;"/><polygon fill="#181818" points="149.5,319.6583,153.5,310.6583,149.5,314.6583,145.5,310.6583,149.5,319.6583" style="stroke:#181818;stroke-width:1.0;"/><text fill="#000000" font-family="sans-serif" font-size="20" lengthAdjust="spacing" textLength="86" x="62.5" y="192.0742">manages</text><text fill="#000000" font-family="sans-serif" font-size="20" lengthAdjust="spacing" textLength="13" x="143.2031" y="105.3034">1</text><text fill="#000000" font-family="sans-serif" font-size="20" lengthAdjust="spacing" textLength="10" x="138.0313" y="309.1852">*</text></g><!--link Agency to Manager--><g id="link_Agency_Manager"><path codeLine="45" d="M149.5,355.8183 C149.5,355.8183 149.5,591.6583 149.5,591.6583 " fill="none" id="Agency-to-Manager" style="stroke:#181818;stroke-width:1.0;"/><polygon fill="#181818" points="149.5,596.6583,153.5,587.6583,149.5,591.6583,145.5,587.6583,149.5,596.6583" style="stroke:#181818;stroke-width:1.0;"/><text fill="#000000" font-family="sans-serif" font-size="20" lengthAdjust="spacing" textLength="118" x="30.5" y="469.0742">managed by</text><text fill="#000000" font-family="sans-serif" font-size="20" lengthAdjust="spacing" textLength="13" x="134.9156" y="382.3034">1</text><text fill="#000000" font-family="sans-serif" font-size="20" lengthAdjust="spacing" textLength="13" x="134.5906" y="586.1852">1</text></g><!--link Agent to PublishedSale--><g id="link_Agent_PublishedSale"><path codeLine="46" d="M301.81,338.4883 C306.47,338.4883 309.75,338.4883 309.75,338.4883 C309.75,338.4883 309.75,591.6483 309.75,591.6483 " fill="none" id="Agent-to-PublishedSale" style="stroke:#181818;stroke-width:1.0;"/><polygon fill="#181818" points="309.75,596.6483,313.75,587.6483,309.75,591.6483,305.75,587.6483,309.75,596.6483" style="stroke:#181818;stroke-width:1.0;"/><text fill="#000000" font-family="sans-serif" font-size="20" lengthAdjust="spacing" textLength="93" x="215.75" y="456.4342">publishes</text><text fill="#000000" font-family="sans-serif" font-size="20" lengthAdjust="spacing" textLength="10" x="309.2989" y="332.5555">*</text><text fill="#000000" font-family="sans-serif" font-size="20" lengthAdjust="spacing" textLength="10" x="281.6109" y="586.1723">*</text></g><!--link Agency to Agent--><g id="link_Agency_Agent"><path codeLine="47" d="M187.45,338.4883 C187.45,338.4883 232.66,338.4883 232.66,338.4883 " fill="none" id="Agency-to-Agent" style="stroke:#181818;stroke-width:1.0;"/><polygon fill="#181818" points="237.66,338.4883,228.66,334.4883,232.66,338.4883,228.66,342.4883,237.66,338.4883" style="stroke:#181818;stroke-width:1.0;"/><text fill="#000000" font-family="sans-serif" font-size="20" lengthAdjust="spacing" textLength="33" x="202.31" y="358.8242">has</text><text fill="#000000" font-family="sans-serif" font-size="20" lengthAdjust="spacing" textLength="13" x="195.0898" y="332.9336">1</text><text fill="#000000" font-family="sans-serif" font-size="20" lengthAdjust="spacing" textLength="10" x="221.6769" y="332.5555">*</text></g><!--link Seller to Property--><g id="link_Seller_Property"><path codeLine="48" d="M525.25,78.8183 C525.25,139.4583 525.25,338.4883 525.25,338.4883 C525.25,338.4883 536.78,338.4883 536.78,338.4883 " fill="none" id="Seller-to-Property" style="stroke:#181818;stroke-width:1.0;"/><polygon fill="#181818" points="541.78,338.4883,532.78,334.4883,536.78,338.4883,532.78,342.4883,541.78,338.4883" style="stroke:#181818;stroke-width:1.0;"/><text fill="#000000" font-family="sans-serif" font-size="20" lengthAdjust="spacing" textLength="39" x="485.25" y="234.7542">own</text><text fill="#000000" font-family="sans-serif" font-size="20" lengthAdjust="spacing" textLength="10" x="517.1391" y="105.3034">*</text><text fill="#000000" font-family="sans-serif" font-size="20" lengthAdjust="spacing" textLength="10" x="525.6181" y="333.0711">*</text></g><!--link UnregisteredUser to PublishedSale--><g id="link_UnregisteredUser_PublishedSale"><path codeLine="49" d="M386.25,355.8183 C386.25,355.8183 386.25,591.6583 386.25,591.6583 " fill="none" id="UnregisteredUser-to-PublishedSale" style="stroke:#181818;stroke-width:1.0;"/><polygon fill="#181818" points="386.25,596.6583,390.25,587.6583,386.25,591.6583,382.25,587.6583,386.25,596.6583" style="stroke:#181818;stroke-width:1.0;"/><text fill="#000000" font-family="sans-serif" font-size="20" lengthAdjust="spacing" textLength="52" x="333.25" y="469.0742">views</text><text fill="#000000" font-family="sans-serif" font-size="20" lengthAdjust="spacing" textLength="10" x="366.1953" y="382.3034">*</text><text fill="#000000" font-family="sans-serif" font-size="20" lengthAdjust="spacing" textLength="10" x="380.5828" y="586.1852">*</text></g><!--SRC=[ZLJRYjmm37ttLuXv2HGAktqifJ2zqOLkjpJi1tXiJMB6iLDRsI6z_7lbP38J9pkqUR8b7UdeI4uy6DVA81lhrG4rQDpBpj8dxwWqFn5UtOWuXK3ZdLTry0t2Njg8CrShrK5MM59l4G8gagwoyu1OI-sFnbL0ePixh758VOlW0zL-vb1MnhWb2cRN4TufxmP6DwAun5J1T-sTgp4OhgYOxznxJjrwswUB4BNH279A6iUxCa4nsU7S8BFGKHGMzmJa8PYg9j0cDMMy4sI8M_pW6saSt7kDLeY1AfJa0tv5Elfmk9UEvGY_n9_9kxPy2xx5GFtCjAtGqUAkvW7lkZxBKQArcU7H1QnC90oe7sDUhzjP4slKfRGus8Tii7cnWPVfUpiS1mxm6bXmaeeYx7s0jWkgbZpoiU1_OIAN4S-80flR5LZrZ6u6VnGdmpoCZnFw7AXXruknye9ErYd7jwTxdZgdpjrTQMwQ4mVvenDBXVzL_CdWCGfHb3rZcgrkZ6Dqa2pCo6FSi0JzsBJMzvXGKmtUnAd-mz6TnSkPFGJDdWJwqM5a-QL-Ohk9s71pLpFShWSdYfEW9-slrHcRMWIlzRe8Nwnb6r4vXfb8nmyt4YlstfgK_itlb1k-P_3Skrhx9JXJWCaa0ia5OzZSCWr15ETn3FQXruKnfHus_BISrzpv0xWCPCpysNVyiXR6BV_3A1_VwFWYdLvoUsQtXFWB]--></g></svg>