<?xml version="1.0" encoding="UTF-8" standalone="no"?><svg xmlns="http://www.w3.org/2000/svg" xmlns:xlink="http://www.w3.org/1999/xlink" contentStyleType="text/css" height="1374px" preserveAspectRatio="none" style="width:1085px;height:1374px;background:#FFFFFF;" version="1.1" viewBox="0 0 1085 1374" width="1085px" zoomAndPan="magnify"><defs/><g><text fill="#000000" font-family="sans-serif" font-size="14" font-weight="bold" lengthAdjust="spacing" textLength="105" x="483.25" y="23.5352">Domain Model</text><!--class Client--><g id="elem_Client"><rect codeLine="14" fill="#F1F1F1" height="41.5547" id="Client" rx="2.5" ry="2.5" style="stroke:#181818;stroke-width:0.5;" width="62" x="443" y="187.4883"/><text fill="#000000" font-family="sans-serif" font-size="20" lengthAdjust="spacing" textLength="56" x="446" y="211.8242">Client</text><line style="stroke:#181818;stroke-width:0.5;" x1="444" x2="504" y1="221.043" y2="221.043"/></g><polygon fill="none" points="464.6503,229.043,462.8265,250.154,450.0596,244.4089" style="stroke:#181818;stroke-width:1.0;"/><line style="stroke:#181818;stroke-width:1.0;" x1="456.4431" x2="455" y1="247.2814" y2="250.4883"/><line style="stroke:#181818;stroke-width:1.0;" x1="490.307" x2="506.31" y1="187.4883" y2="167.0983"/><!--class User--><g id="elem_User"><rect codeLine="17" fill="#F1F1F1" height="41.5547" id="User" rx="2.5" ry="2.5" style="stroke:#181818;stroke-width:0.5;" width="49" x="526.5" y="44.4883"/><text fill="#000000" font-family="sans-serif" font-size="20" lengthAdjust="spacing" textLength="43" x="529.5" y="68.8242">User</text><line style="stroke:#181818;stroke-width:0.5;" x1="527.5" x2="574.5" y1="78.043" y2="78.043"/></g><polygon fill="none" points="552.4763,86.043,560.8761,105.4966,546.9113,106.4888" style="stroke:#181818;stroke-width:1.0;"/><line style="stroke:#181818;stroke-width:1.0;" x1="553.8937" x2="554" y1="105.9927" y2="107.4883"/><!--class RegisteredUser--><g id="elem_RegisteredUser"><rect codeLine="20" fill="#F1F1F1" height="41.5547" id="RegisteredUser" rx="2.5" ry="2.5" style="stroke:#181818;stroke-width:0.5;" width="151" x="405.5" y="458.4883"/><text fill="#000000" font-family="sans-serif" font-size="20" lengthAdjust="spacing" textLength="145" x="408.5" y="482.8242">RegisteredUser</text><line style="stroke:#181818;stroke-width:0.5;" x1="406.5" x2="555.5" y1="492.043" y2="492.043"/></g><!--class UnregisteredUser--><g id="elem_UnregisteredUser"><rect codeLine="23" fill="#F1F1F1" height="41.5547" id="UnregisteredUser" rx="2.5" ry="2.5" style="stroke:#181818;stroke-width:0.5;" width="172" x="85" y="530.4883"/><text fill="#000000" font-family="sans-serif" font-size="20" lengthAdjust="spacing" textLength="166" x="88" y="554.8242">UnregisteredUser</text><line style="stroke:#181818;stroke-width:0.5;" x1="86" x2="256" y1="564.043" y2="564.043"/></g><!--class PropertyOwner--><g id="elem_PropertyOwner"><rect codeLine="26" fill="#F1F1F1" height="41.5547" id="PropertyOwner" rx="2.5" ry="2.5" style="stroke:#181818;stroke-width:0.5;" width="148" x="222" y="458.4883"/><text fill="#000000" font-family="sans-serif" font-size="20" lengthAdjust="spacing" textLength="142" x="225" y="482.8242">PropertyOwner</text><line style="stroke:#181818;stroke-width:0.5;" x1="223" x2="369" y1="492.043" y2="492.043"/></g><!--class Employee--><g id="elem_Employee"><rect codeLine="29" fill="#F1F1F1" height="41.5547" id="Employee" rx="2.5" ry="2.5" style="stroke:#181818;stroke-width:0.5;" width="99" x="610.5" y="187.4883"/><text fill="#000000" font-family="sans-serif" font-size="20" lengthAdjust="spacing" textLength="93" x="613.5" y="211.8242">Employee</text><line style="stroke:#181818;stroke-width:0.5;" x1="611.5" x2="708.5" y1="221.043" y2="221.043"/></g><polygon fill="none" points="675.2548,229.043,692.7337,241.0216,681.4487,249.3071" style="stroke:#181818;stroke-width:1.0;"/><line style="stroke:#181818;stroke-width:1.0;" x1="687.0912" x2="691" y1="245.1644" y2="250.4883"/><polygon fill="none" points="709.5,216.2274,730.3578,212.4923,728.1346,226.3146" style="stroke:#181818;stroke-width:1.0;"/><line style="stroke:#181818;stroke-width:1.0;" x1="729.2462" x2="729.96" y1="219.4035" y2="219.5183"/><line style="stroke:#181818;stroke-width:1.0;" x1="706.285" x2="729.72" y1="187.4883" y2="176.9683"/><line style="stroke:#181818;stroke-width:1.0;" x1="638.3936" x2="617.19" y1="187.4883" y2="167.0983"/><!--class Agent--><g id="elem_Agent"><rect codeLine="32" fill="#F1F1F1" height="41.5547" id="Agent" rx="2.5" ry="2.5" style="stroke:#181818;stroke-width:0.5;" width="62" x="592" y="458.4883"/><text fill="#000000" font-family="sans-serif" font-size="20" lengthAdjust="spacing" textLength="56" x="595" y="482.8242">Agent</text><line style="stroke:#181818;stroke-width:0.5;" x1="593" x2="653" y1="492.043" y2="492.043"/></g><!--class StoreManager--><g id="elem_StoreManager"><rect codeLine="35" fill="#F1F1F1" height="41.5547" id="StoreManager" rx="2.5" ry="2.5" style="stroke:#181818;stroke-width:0.5;" width="137" x="689.5" y="458.4883"/><text fill="#000000" font-family="sans-serif" font-size="20" lengthAdjust="spacing" textLength="131" x="692.5" y="482.8242">StoreManager</text><line style="stroke:#181818;stroke-width:0.5;" x1="690.5" x2="825.5" y1="492.043" y2="492.043"/></g><!--class StoreNetworkManager--><g id="elem_StoreNetworkManager"><rect codeLine="38" fill="#F1F1F1" height="41.5547" id="StoreNetworkManager" rx="2.5" ry="2.5" style="stroke:#181818;stroke-width:0.5;" width="217" x="861.5" y="458.4883"/><text fill="#000000" font-family="sans-serif" font-size="20" lengthAdjust="spacing" textLength="211" x="864.5" y="482.8242">StoreNetworkManager</text><line style="stroke:#181818;stroke-width:0.5;" x1="862.5" x2="1077.5" y1="492.043" y2="492.043"/></g><!--class SystemAdministrator--><g id="elem_SystemAdministrator"><rect codeLine="41" fill="#F1F1F1" height="41.5547" id="SystemAdministrator" rx="2.5" ry="2.5" style="stroke:#181818;stroke-width:0.5;" width="207" x="849.5" y="187.4883"/><text fill="#000000" font-family="sans-serif" font-size="20" lengthAdjust="spacing" textLength="201" x="852.5" y="211.8242">SystemAdministrator</text><line style="stroke:#181818;stroke-width:0.5;" x1="850.5" x2="1055.5" y1="221.043" y2="221.043"/></g><!--class PropertyOrder--><g id="elem_PropertyOrder"><rect codeLine="44" fill="#F1F1F1" height="41.5547" id="PropertyOrder" rx="2.5" ry="2.5" style="stroke:#181818;stroke-width:0.5;" width="142" x="344" y="774.4883"/><text fill="#000000" font-family="sans-serif" font-size="20" lengthAdjust="spacing" textLength="136" x="347" y="798.8242">PropertyOrder</text><line style="stroke:#181818;stroke-width:0.5;" x1="345" x2="485" y1="808.043" y2="808.043"/></g><!--class Property--><g id="elem_Property"><rect codeLine="47" fill="#F1F1F1" height="182.8828" id="Property" rx="2.5" ry="2.5" style="stroke:#181818;stroke-width:0.5;" width="205" x="311.5" y="897.4883"/><text fill="#000000" font-family="sans-serif" font-size="20" lengthAdjust="spacing" textLength="80" x="374" y="921.8242">Property</text><line style="stroke:#181818;stroke-width:0.5;" x1="312.5" x2="515.5" y1="931.043" y2="931.043"/><text fill="#000000" font-family="sans-serif" font-size="20" lengthAdjust="spacing" textLength="147" x="317.5" y="954.3789">typeOfBuisness</text><text fill="#000000" font-family="sans-serif" font-size="20" lengthAdjust="spacing" textLength="144" x="317.5" y="977.9336">typeOfProperty</text><text fill="#000000" font-family="sans-serif" font-size="20" lengthAdjust="spacing" textLength="41" x="317.5" y="1001.4883">area</text><text fill="#000000" font-family="sans-serif" font-size="20" lengthAdjust="spacing" textLength="76" x="317.5" y="1025.043">location</text><text fill="#000000" font-family="sans-serif" font-size="20" lengthAdjust="spacing" textLength="193" x="317.5" y="1048.5977">distanceFromCenter</text><text fill="#000000" font-family="sans-serif" font-size="20" lengthAdjust="spacing" textLength="48" x="317.5" y="1072.1523">price</text></g><polygon fill="none" points="408.3384,1080.3711,414.0891,1100.7654,400.1159,1099.9003" style="stroke:#181818;stroke-width:1.0;"/><line style="stroke:#181818;stroke-width:1.0;" x1="407.1025" x2="407" y1="1100.3329" y2="1101.9883"/><line style="stroke:#181818;stroke-width:1.0;" x1="516.5" x2="542.57" y1="950.0396" y2="940.1483"/><line style="stroke:#181818;stroke-width:1.0;" x1="311.5" x2="285.62" y1="949.7346" y2="939.8383"/><!--class Apartment--><g id="elem_Apartment"><rect codeLine="56" fill="#F1F1F1" height="135.7734" id="Apartment" rx="2.5" ry="2.5" style="stroke:#181818;stroke-width:0.5;" width="248" x="7" y="1196.4883"/><text fill="#000000" font-family="sans-serif" font-size="20" lengthAdjust="spacing" textLength="102" x="80" y="1220.8242">Apartment</text><line style="stroke:#181818;stroke-width:0.5;" x1="8" x2="254" y1="1230.043" y2="1230.043"/><text fill="#000000" font-family="sans-serif" font-size="20" lengthAdjust="spacing" textLength="195" x="13" y="1253.3789">numberOfBedrooms</text><text fill="#000000" font-family="sans-serif" font-size="20" lengthAdjust="spacing" textLength="201" x="13" y="1276.9336">numberOfBathrooms</text><text fill="#000000" font-family="sans-serif" font-size="20" lengthAdjust="spacing" textLength="236" x="13" y="1300.4883">numberOfParkingSpaces</text><text fill="#000000" font-family="sans-serif" font-size="20" lengthAdjust="spacing" textLength="189" x="13" y="1324.043">availableEquipment</text></g><!--class House--><g id="elem_House"><rect codeLine="63" fill="#F1F1F1" height="206.4375" id="House" rx="2.5" ry="2.5" style="stroke:#181818;stroke-width:0.5;" width="248" x="290" y="1161.4883"/><text fill="#000000" font-family="sans-serif" font-size="20" lengthAdjust="spacing" textLength="60" x="384" y="1185.8242">House</text><line style="stroke:#181818;stroke-width:0.5;" x1="291" x2="537" y1="1195.043" y2="1195.043"/><text fill="#000000" font-family="sans-serif" font-size="20" lengthAdjust="spacing" textLength="195" x="296" y="1218.3789">numberOfBedrooms</text><text fill="#000000" font-family="sans-serif" font-size="20" lengthAdjust="spacing" textLength="201" x="296" y="1241.9336">numberOfBathrooms</text><text fill="#000000" font-family="sans-serif" font-size="20" lengthAdjust="spacing" textLength="236" x="296" y="1265.4883">numberOfParkingSpaces</text><text fill="#000000" font-family="sans-serif" font-size="20" lengthAdjust="spacing" textLength="189" x="296" y="1289.043">availableEquipment</text><text fill="#000000" font-family="sans-serif" font-size="20" lengthAdjust="spacing" textLength="94" x="296" y="1312.5977">basement</text><text fill="#000000" font-family="sans-serif" font-size="20" lengthAdjust="spacing" textLength="145" x="296" y="1336.1523">inhabitableLoft</text><text fill="#000000" font-family="sans-serif" font-size="20" lengthAdjust="spacing" textLength="123" x="296" y="1359.707">sunExposure</text></g><!--class Land--><g id="elem_Land"><rect codeLine="73" fill="#F1F1F1" height="41.5547" id="Land" rx="2.5" ry="2.5" style="stroke:#181818;stroke-width:0.5;" width="53" x="573.5" y="1243.4883"/><text fill="#000000" font-family="sans-serif" font-size="20" lengthAdjust="spacing" textLength="47" x="576.5" y="1267.8242">Land</text><line style="stroke:#181818;stroke-width:0.5;" x1="574.5" x2="625.5" y1="1277.043" y2="1277.043"/></g><!--link Employee to SystemAdministrator--><g id="link_Employee_SystemAdministrator"><path codeLine="77" d="M729.72,176.9683 C735.48,175.1683 741.29,173.6383 747,172.4883 C796.78,162.4883 853.66,174.3083 894.86,187.0083 " fill="none" id="Employee-SystemAdministrator" style="stroke:#181818;stroke-width:1.0;"/><text fill="#000000" font-family="sans-serif" font-size="20" lengthAdjust="spacing" textLength="83" x="748" y="164.8242">registers</text><text fill="#000000" font-family="sans-serif" font-size="20" lengthAdjust="spacing" textLength="10" x="737.4255" y="168.9193">*</text><text fill="#000000" font-family="sans-serif" font-size="20" lengthAdjust="spacing" textLength="13" x="866.104" y="175.4272">1</text></g><!--reverse link Employee to SystemAdministrator--><g id="link_Employee_SystemAdministrator"><path codeLine="95" d="M729.96,219.5183 C765.51,221.2783 809.58,221.6883 849.06,220.7383 " fill="none" id="Employee-backto-SystemAdministrator" style="stroke:#181818;stroke-width:1.0;"/></g><!--link PropertyOwner to PropertyOrder--><g id="link_PropertyOwner_PropertyOrder"><path codeLine="78" d="M290.69,500.8283 C282.87,534.8083 271.28,604.6883 292,658.4883 C309.95,705.1083 352.11,745.6783 382.06,770.0883 " fill="none" id="PropertyOwner-to-PropertyOrder" style="stroke:#181818;stroke-width:1.0;"/><polygon fill="#181818" points="385.94,773.2183,381.4227,764.4665,382.0398,770.0896,376.4168,770.7068,385.94,773.2183" style="stroke:#181818;stroke-width:1.0;"/><text fill="#000000" font-family="sans-serif" font-size="20" lengthAdjust="spacing" textLength="224" x="293" y="653.8242">requests advertisement</text><text fill="#000000" font-family="sans-serif" font-size="20" lengthAdjust="spacing" textLength="13" x="275.1066" y="527.4573">1</text><text fill="#000000" font-family="sans-serif" font-size="20" lengthAdjust="spacing" textLength="10" x="368.6945" y="762.2222">*</text></g><!--link PropertyOwner to Agent--><g id="link_PropertyOwner_Agent"><path codeLine="79" d="M349.29,458.1183 C391.44,442.4183 452.2,422.4283 507.5,414.0683 C543.1,408.6883 557.67,395.4783 588.5,414.0683 C604.22,423.5583 613.14,442.8583 617.96,458.0483 " fill="none" id="PropertyOwner-Agent" style="stroke:#181818;stroke-width:1.0;"/><text fill="#000000" font-family="sans-serif" font-size="20" lengthAdjust="spacing" textLength="79" x="508.5" y="423.8242">contatcs</text><text fill="#000000" font-family="sans-serif" font-size="20" lengthAdjust="spacing" textLength="13" x="348.2799" y="446.1594">1</text><text fill="#000000" font-family="sans-serif" font-size="20" lengthAdjust="spacing" textLength="13" x="602.0029" y="446.0715">1</text></g><!--link Agent to PropertyOrder--><g id="link_Agent_PropertyOrder"><path codeLine="80" d="M612.74,500.8283 C595.47,534.5183 558.84,603.6283 522,658.4883 C494.88,698.8683 459.26,742.5783 436.74,769.2483 " fill="none" id="Agent-to-PropertyOrder" style="stroke:#181818;stroke-width:1.0;"/><polygon fill="#181818" points="433.67,772.8683,442.5377,768.5831,436.9004,769.0519,436.4315,763.4145,433.67,772.8683" style="stroke:#181818;stroke-width:1.0;"/><text fill="#000000" font-family="sans-serif" font-size="20" lengthAdjust="spacing" textLength="71" x="539" y="653.8242">reviews</text><text fill="#000000" font-family="sans-serif" font-size="20" lengthAdjust="spacing" textLength="13" x="596.0738" y="527.4573">1</text><text fill="#000000" font-family="sans-serif" font-size="20" lengthAdjust="spacing" textLength="10" x="425.7956" y="762.4521">*</text></g><!--link Agent to Property--><g id="link_Agent_Property"><path codeLine="81" d="M632.29,500.7283 C642.36,524.5483 657,565.5483 657,602.4883 C657,602.4883 657,602.4883 657,796.4883 C657,862.5683 600.87,909.3683 542.57,940.1483 " fill="none" id="Agent-to-Property" style="stroke:#181818;stroke-width:1.0;"/><polygon fill="#181818" points="538.27,942.3883,548.1014,941.8029,542.7103,940.0896,544.4236,934.6985,538.27,942.3883" style="stroke:#181818;stroke-width:1.0;"/><text fill="#000000" font-family="sans-serif" font-size="20" lengthAdjust="spacing" textLength="93" x="658" y="708.8242">publishes</text><text fill="#000000" font-family="sans-serif" font-size="20" lengthAdjust="spacing" textLength="13" x="619.9003" y="527.3355">1</text><text fill="#000000" font-family="sans-serif" font-size="20" lengthAdjust="spacing" textLength="10" x="544.3154" y="936.1146">*</text></g><!--link UnregisteredUser to Property--><g id="link_UnregisteredUser_Property"><path codeLine="82" d="M171.34,572.6983 C171.63,591.4383 172,620.0983 172,644.9883 C172,644.9883 172,644.9883 172,796.4883 C172,862.2783 227.67,909.0083 285.62,939.8383 " fill="none" id="UnregisteredUser-to-Property" style="stroke:#181818;stroke-width:1.0;"/><polygon fill="#181818" points="289.89,942.0683,283.7856,934.3393,285.4645,939.7413,280.0625,941.4202,289.89,942.0683" style="stroke:#181818;stroke-width:1.0;"/><text fill="#000000" font-family="sans-serif" font-size="20" lengthAdjust="spacing" textLength="68" x="173" y="708.8242">can list</text><text fill="#000000" font-family="sans-serif" font-size="20" lengthAdjust="spacing" textLength="13" x="156.9925" y="599.2989">1</text><text fill="#000000" font-family="sans-serif" font-size="20" lengthAdjust="spacing" textLength="10" x="273.444" y="935.6074">*</text></g><!--reverse link Client to RegisteredUser--><g id="link_Client_RegisteredUser"><path codeLine="84" d="M455,250.4883 C455,250.4883 472.33,402.4583 478.69,458.2583 " fill="none" id="Client-backto-RegisteredUser" style="stroke:#181818;stroke-width:1.0;"/></g><!--reverse link Client to UnregisteredUser--><g id="link_Client_UnregisteredUser"><path codeLine="85" d="M455,250.4883 C455,250.4883 169,245.5483 169,310.4883 C169,310.4883 169,310.4883 169,416.9883 C169,457.0883 169.91,503.9583 170.51,530.1383 " fill="none" id="Client-backto-UnregisteredUser" style="stroke:#181818;stroke-width:1.0;"/></g><!--reverse link Client to PropertyOwner--><g id="link_Client_PropertyOwner"><path codeLine="86" d="M455,250.4883 C455,250.4883 349.02,402.4583 310.11,458.2583 " fill="none" id="Client-backto-PropertyOwner" style="stroke:#181818;stroke-width:1.0;"/></g><!--reverse link User to Client--><g id="link_User_Client"><path codeLine="87" d="M554,107.4883 C554,107.4883 528.51,139.3483 506.31,167.0983 " fill="none" id="User-backto-Client" style="stroke:#181818;stroke-width:1.0;"/></g><!--reverse link User to Employee--><g id="link_User_Employee"><path codeLine="88" d="M554,107.4883 C554,107.4883 587.77,139.3483 617.19,167.0983 " fill="none" id="User-backto-Employee" style="stroke:#181818;stroke-width:1.0;"/></g><!--reverse link Employee to Agent--><g id="link_Employee_Agent"><path codeLine="89" d="M691,250.4883 C691,250.4883 645.68,402.4583 629.03,458.2583 " fill="none" id="Employee-backto-Agent" style="stroke:#181818;stroke-width:1.0;"/></g><!--reverse link Employee to StoreManager--><g id="link_Employee_StoreManager"><path codeLine="90" d="M691,250.4883 C691,250.4883 703.11,265.5083 709,279.4883 C735.23,341.7983 749.52,421.2283 755.14,458.0483 " fill="none" id="Employee-backto-StoreManager" style="stroke:#181818;stroke-width:1.0;"/></g><!--reverse link Employee to StoreNetworkManager--><g id="link_Employee_StoreNetworkManager"><path codeLine="91" d="M691,250.4883 C691,250.4883 716.9,265.3083 736,279.4883 C817.79,340.2083 907.79,421.0983 948.22,458.2583 " fill="none" id="Employee-backto-StoreNetworkManager" style="stroke:#181818;stroke-width:1.0;"/></g><!--reverse link Property to House--><g id="link_Property_House"><path codeLine="92" d="M407,1101.9883 C407,1101.9883 408.18,1129.1583 409.57,1161.2083 " fill="none" id="Property-backto-House" style="stroke:#181818;stroke-width:1.0;"/></g><!--reverse link Property to Apartment--><g id="link_Property_Apartment"><path codeLine="93" d="M407,1101.9883 C407,1101.9883 328.88,1128.8683 272,1161.4883 C254.05,1171.7883 235.61,1183.8683 218.22,1196.0583 " fill="none" id="Property-backto-Apartment" style="stroke:#181818;stroke-width:1.0;"/></g><!--reverse link Property to Land--><g id="link_Property_Land"><path codeLine="94" d="M407,1101.9883 C407,1101.9883 504.04,1112.1983 555,1161.4883 C578.23,1183.9583 590.3,1220.5183 595.89,1243.2283 " fill="none" id="Property-backto-Land" style="stroke:#181818;stroke-width:1.0;"/></g><!--SRC=[jLHDRzim3BthLmYv51XGODjn60PqROeLQDTYGNy0Op6s45boAJgPr-s_ZvRhrDRSutoI7hyUnKV7lVKD4DGk57iqsk0EMiVNmVF6_aBzyRsAeukkWmz5HQ56pTJYnD90iOSIDzmvr8G5Wo_Tr25MOCBH-bBlm4LKPwycPprorw0En5MOn1GEOhnW9hjj6M-Au1EbAQEIGjlS-0h9Iib2-2vcReBh-ejIbJMe2qk5i4ld6gMeYUhCuOur1qssh5WRstTXWrTiMNgw2ZLOh- -2GQTKOgOldKNFp-hF23n6fCdr1vOsCXAQpF3ewItJ0uK6YRlxev_XwxfneKESG1VblFg60-4TU9a3vV1tv6EW_OAr4nhrXQcj5q84uhp4XimYosUbvUkV-7xtjRNHOumJQ7HB4112EeZI8BriVp5IjH_SjQZgKlf1Id13ji19gp9FhbExlTMtzHP9IgAX4Eeu1u6hVz478955kH6Xuc210rW7MuVhfzOsVVBNUjz26_7_rkhXBKGyNQolO2ig5g_Ri1kmsFhrpoR4bYQFSGlUf5ceXU7frOULFazQNhrRdMIZF-bHSb7DD3O4d7z9xhDvfvYd5YD73UOWk7sXkv1Ws9h-c6GfiRAk35n4DG13cRSB7ImUSz_CMVoQTkjihEHPynqQW-OXGWEy_0SYApMig_xyky-SBMTcp9Ddvbd_AbNlBIy_X0amFhywpI71gSiv9kXqVvUDyoq-ZM58cZIROQUzoV1UGXcd1IqfzHS0]--></g></svg>