<?xml version="1.0" encoding="UTF-8" standalone="no"?><svg xmlns="http://www.w3.org/2000/svg" xmlns:xlink="http://www.w3.org/1999/xlink" contentStyleType="text/css" height="756px" preserveAspectRatio="none" style="width:1077px;height:756px;background:#FFFFFF;" version="1.1" viewBox="0 0 1077 756" width="1077px" zoomAndPan="magnify"><defs/><g><text fill="#000000" font-family="sans-serif" font-size="14" font-weight="bold" lengthAdjust="spacing" textLength="105" x="479" y="23.5352">Domain Model</text><!--class Client--><g id="elem_Client"><rect codeLine="13" fill="#F1F1F1" height="41.5547" id="Client" rx="2.5" ry="2.5" style="stroke:#181818;stroke-width:0.5;" width="62" x="361.5" y="211.4883"/><text fill="#000000" font-family="sans-serif" font-size="20" lengthAdjust="spacing" textLength="56" x="364.5" y="235.8242">Client</text><line style="stroke:#181818;stroke-width:0.5;" x1="362.5" x2="422.5" y1="245.043" y2="245.043"/></g><polygon fill="none" points="381.674,253.043,378.6402,274.0143,366.2245,267.5451" style="stroke:#181818;stroke-width:1.0;"/><line style="stroke:#181818;stroke-width:1.0;" x1="372.4323" x2="370.5" y1="270.7797" y2="274.4883"/><line style="stroke:#181818;stroke-width:1.0;" x1="412.2256" x2="431.46" y1="211.4883" y2="191.2283"/><!--class User--><g id="elem_User"><rect codeLine="16" fill="#F1F1F1" height="41.5547" id="User" rx="2.5" ry="2.5" style="stroke:#181818;stroke-width:0.5;" width="49" x="482" y="44.4883"/><text fill="#000000" font-family="sans-serif" font-size="20" lengthAdjust="spacing" textLength="43" x="485" y="68.8242">User</text><line style="stroke:#181818;stroke-width:0.5;" x1="483" x2="530" y1="78.043" y2="78.043"/></g><polygon fill="none" points="509.4525,86.043,519.1967,104.8592,505.336,106.8289" style="stroke:#181818;stroke-width:1.0;"/><line style="stroke:#181818;stroke-width:1.0;" x1="512.2663" x2="512.5" y1="105.844" y2="107.4883"/><!--class RegisteredUser--><g id="elem_RegisteredUser"><rect codeLine="19" fill="#F1F1F1" height="41.5547" id="RegisteredUser" rx="2.5" ry="2.5" style="stroke:#181818;stroke-width:0.5;" width="151" x="7" y="334.4883"/><text fill="#000000" font-family="sans-serif" font-size="20" lengthAdjust="spacing" textLength="145" x="10" y="358.8242">RegisteredUser</text><line style="stroke:#181818;stroke-width:0.5;" x1="8" x2="157" y1="368.043" y2="368.043"/></g><!--class UnregisteredUser--><g id="elem_UnregisteredUser"><rect codeLine="22" fill="#F1F1F1" height="41.5547" id="UnregisteredUser" rx="2.5" ry="2.5" style="stroke:#181818;stroke-width:0.5;" width="172" x="193.5" y="334.4883"/><text fill="#000000" font-family="sans-serif" font-size="20" lengthAdjust="spacing" textLength="166" x="196.5" y="358.8242">UnregisteredUser</text><line style="stroke:#181818;stroke-width:0.5;" x1="194.5" x2="364.5" y1="368.043" y2="368.043"/></g><!--class PropertyOwner--><g id="elem_PropertyOwner"><rect codeLine="25" fill="#F1F1F1" height="41.5547" id="PropertyOwner" rx="2.5" ry="2.5" style="stroke:#181818;stroke-width:0.5;" width="148" x="400.5" y="334.4883"/><text fill="#000000" font-family="sans-serif" font-size="20" lengthAdjust="spacing" textLength="142" x="403.5" y="358.8242">PropertyOwner</text><line style="stroke:#181818;stroke-width:0.5;" x1="401.5" x2="547.5" y1="368.043" y2="368.043"/></g><!--class Employee--><g id="elem_Employee"><rect codeLine="28" fill="#F1F1F1" height="41.5547" id="Employee" rx="2.5" ry="2.5" style="stroke:#181818;stroke-width:0.5;" width="99" x="659" y="211.4883"/><text fill="#000000" font-family="sans-serif" font-size="20" lengthAdjust="spacing" textLength="93" x="662" y="235.8242">Employee</text><line style="stroke:#181818;stroke-width:0.5;" x1="660" x2="757" y1="245.043" y2="245.043"/></g><polygon fill="none" points="714.4051,253.043,726.606,270.3674,713.1394,274.1948" style="stroke:#181818;stroke-width:1.0;"/><line style="stroke:#181818;stroke-width:1.0;" x1="719.8727" x2="720.5" y1="272.2811" y2="274.4883"/><line style="stroke:#181818;stroke-width:1.0;" x1="708.5" x2="708.5" y1="211.4883" y2="184.8483"/><line style="stroke:#181818;stroke-width:1.0;" x1="676.2756" x2="644.59" y1="211.4883" y2="191.0583"/><!--class Agent--><g id="elem_Agent"><rect codeLine="31" fill="#F1F1F1" height="41.5547" id="Agent" rx="2.5" ry="2.5" style="stroke:#181818;stroke-width:0.5;" width="62" x="583.5" y="334.4883"/><text fill="#000000" font-family="sans-serif" font-size="20" lengthAdjust="spacing" textLength="56" x="586.5" y="358.8242">Agent</text><line style="stroke:#181818;stroke-width:0.5;" x1="584.5" x2="644.5" y1="368.043" y2="368.043"/></g><!--class StoreManager--><g id="elem_StoreManager"><rect codeLine="34" fill="#F1F1F1" height="41.5547" id="StoreManager" rx="2.5" ry="2.5" style="stroke:#181818;stroke-width:0.5;" width="137" x="681" y="334.4883"/><text fill="#000000" font-family="sans-serif" font-size="20" lengthAdjust="spacing" textLength="131" x="684" y="358.8242">StoreManager</text><line style="stroke:#181818;stroke-width:0.5;" x1="682" x2="817" y1="368.043" y2="368.043"/></g><!--class StoreNetworkManager--><g id="elem_StoreNetworkManager"><rect codeLine="37" fill="#F1F1F1" height="41.5547" id="StoreNetworkManager" rx="2.5" ry="2.5" style="stroke:#181818;stroke-width:0.5;" width="217" x="853" y="334.4883"/><text fill="#000000" font-family="sans-serif" font-size="20" lengthAdjust="spacing" textLength="211" x="856" y="358.8242">StoreNetworkManager</text><line style="stroke:#181818;stroke-width:0.5;" x1="854" x2="1069" y1="368.043" y2="368.043"/></g><!--class SystemAdministrator--><g id="elem_SystemAdministrator"><rect codeLine="40" fill="#F1F1F1" height="41.5547" id="SystemAdministrator" rx="2.5" ry="2.5" style="stroke:#181818;stroke-width:0.5;" width="207" x="605" y="44.4883"/><text fill="#000000" font-family="sans-serif" font-size="20" lengthAdjust="spacing" textLength="201" x="608" y="68.8242">SystemAdministrator</text><line style="stroke:#181818;stroke-width:0.5;" x1="606" x2="811" y1="78.043" y2="78.043"/></g><!--class PropertyOrder--><g id="elem_PropertyOrder"><rect codeLine="43" fill="#F1F1F1" height="41.5547" id="PropertyOrder" rx="2.5" ry="2.5" style="stroke:#181818;stroke-width:0.5;" width="142" x="442.5" y="461.4883"/><text fill="#000000" font-family="sans-serif" font-size="20" lengthAdjust="spacing" textLength="136" x="445.5" y="485.8242">PropertyOrder</text><line style="stroke:#181818;stroke-width:0.5;" x1="443.5" x2="583.5" y1="495.043" y2="495.043"/></g><!--class Property--><g id="elem_Property"><rect codeLine="46" fill="#F1F1F1" height="41.5547" id="Property" rx="2.5" ry="2.5" style="stroke:#181818;stroke-width:0.5;" width="86" x="451.5" y="584.4883"/><text fill="#000000" font-family="sans-serif" font-size="20" lengthAdjust="spacing" textLength="80" x="454.5" y="608.8242">Property</text><line style="stroke:#181818;stroke-width:0.5;" x1="452.5" x2="536.5" y1="618.043" y2="618.043"/></g><polygon fill="none" points="493.5158,626.043,499.5617,646.3518,485.5774,645.6894" style="stroke:#181818;stroke-width:1.0;"/><line style="stroke:#181818;stroke-width:1.0;" x1="492.5695" x2="492.5" y1="646.0206" y2="647.4883"/><line style="stroke:#181818;stroke-width:1.0;" x1="525.6146" x2="561.69" y1="584.4883" y2="560.3983"/><line style="stroke:#181818;stroke-width:1.0;" x1="459.4774" x2="425.9" y1="584.4883" y2="564.5683"/><!--class Apartment--><g id="elem_Apartment"><rect codeLine="49" fill="#F1F1F1" height="41.5547" id="Apartment" rx="2.5" ry="2.5" style="stroke:#181818;stroke-width:0.5;" width="108" x="318.5" y="707.4883"/><text fill="#000000" font-family="sans-serif" font-size="20" lengthAdjust="spacing" textLength="102" x="321.5" y="731.8242">Apartment</text><line style="stroke:#181818;stroke-width:0.5;" x1="319.5" x2="425.5" y1="741.043" y2="741.043"/></g><!--class House--><g id="elem_House"><rect codeLine="52" fill="#F1F1F1" height="41.5547" id="House" rx="2.5" ry="2.5" style="stroke:#181818;stroke-width:0.5;" width="66" x="461.5" y="707.4883"/><text fill="#000000" font-family="sans-serif" font-size="20" lengthAdjust="spacing" textLength="60" x="464.5" y="731.8242">House</text><line style="stroke:#181818;stroke-width:0.5;" x1="462.5" x2="526.5" y1="741.043" y2="741.043"/></g><!--class Land--><g id="elem_Land"><rect codeLine="55" fill="#F1F1F1" height="41.5547" id="Land" rx="2.5" ry="2.5" style="stroke:#181818;stroke-width:0.5;" width="53" x="563" y="707.4883"/><text fill="#000000" font-family="sans-serif" font-size="20" lengthAdjust="spacing" textLength="47" x="566" y="731.8242">Land</text><line style="stroke:#181818;stroke-width:0.5;" x1="564" x2="615" y1="741.043" y2="741.043"/></g><!--link SystemAdministrator to Employee--><g id="link_SystemAdministrator_Employee"><path codeLine="59" d="M708.5,86.7183 C708.5,111.0083 708.5,152.4983 708.5,184.8483 " fill="none" id="SystemAdministrator-to-Employee" style="stroke:#181818;stroke-width:1.0;"/><polygon fill="#181818" points="708.5,189.6783,712.5,180.6783,708.5,184.6783,704.5,180.6783,708.5,189.6783" style="stroke:#181818;stroke-width:1.0;"/><text fill="#000000" font-family="sans-serif" font-size="20" lengthAdjust="spacing" textLength="83" x="709.5" y="156.8242">registers</text><text fill="#000000" font-family="sans-serif" font-size="20" lengthAdjust="spacing" textLength="13" x="694.0781" y="113.3233">1</text><text fill="#000000" font-family="sans-serif" font-size="20" lengthAdjust="spacing" textLength="10" x="697.7031" y="179.1889">*</text></g><!--link PropertyOwner to PropertyOrder--><g id="link_PropertyOwner_PropertyOrder"><path codeLine="60" d="M400.06,371.6983 C359.32,383.5683 321.08,402.9083 342.5,431.4883 C354.25,447.1683 396.27,459.5783 435.71,468.1083 " fill="none" id="PropertyOwner-to-PropertyOrder" style="stroke:#181818;stroke-width:1.0;"/><polygon fill="#181818" points="440.53,469.1383,432.5471,463.37,435.6373,468.1082,430.899,471.1984,440.53,469.1383" style="stroke:#181818;stroke-width:1.0;"/><text fill="#000000" font-family="sans-serif" font-size="20" lengthAdjust="spacing" textLength="224" x="343.5" y="426.8242">requests advertisement</text><text fill="#000000" font-family="sans-serif" font-size="20" lengthAdjust="spacing" textLength="13" x="379.5983" y="368.5145">1</text><text fill="#000000" font-family="sans-serif" font-size="20" lengthAdjust="spacing" textLength="10" x="424.4805" y="463.4178">*</text></g><!--link Agent to PropertyOrder--><g id="link_Agent_PropertyOrder"><path codeLine="61" d="M605.57,376.8183 C598.07,392.6383 586.35,414.6683 572.5,431.4883 C564.94,440.6683 555.54,449.4883 546.49,457.0883 " fill="none" id="Agent-to-PropertyOrder" style="stroke:#181818;stroke-width:1.0;"/><polygon fill="#181818" points="542.68,460.2183,552.177,457.6092,546.5479,457.0498,547.1074,451.4206,542.68,460.2183" style="stroke:#181818;stroke-width:1.0;"/><text fill="#000000" font-family="sans-serif" font-size="20" lengthAdjust="spacing" textLength="71" x="590.5" y="426.8242">reviews</text><text fill="#000000" font-family="sans-serif" font-size="20" lengthAdjust="spacing" textLength="13" x="589.1947" y="403.4452">1</text><text fill="#000000" font-family="sans-serif" font-size="20" lengthAdjust="spacing" textLength="10" x="537.4063" y="449.2348">*</text></g><!--link Agent to Property--><g id="link_Agent_Property"><path codeLine="62" d="M645.9,376.5483 C655.66,384.5683 665.23,394.7083 670.5,406.4883 C675.04,416.6283 674.64,421.1783 670.5,431.4883 C649.09,484.7783 601.84,529.6983 561.69,560.3983 " fill="none" id="Agent-to-Property" style="stroke:#181818;stroke-width:1.0;"/><polygon fill="#181818" points="558.04,563.1583,567.6311,560.9199,562.028,560.1423,562.8055,554.5391,558.04,563.1583" style="stroke:#181818;stroke-width:1.0;"/><text fill="#000000" font-family="sans-serif" font-size="20" lengthAdjust="spacing" textLength="93" x="655.5" y="490.3242">publishes</text><text fill="#000000" font-family="sans-serif" font-size="20" lengthAdjust="spacing" textLength="13" x="638.6581" y="403.5293">1</text><text fill="#000000" font-family="sans-serif" font-size="20" lengthAdjust="spacing" textLength="10" x="555.6087" y="552.3774">*</text></g><!--link UnregisteredUser to Property--><g id="link_UnregisteredUser_Property"><path codeLine="63" d="M286.35,376.8083 C297.23,406.9383 320.74,464.1183 354.5,503.4883 C374.63,526.9583 401.27,547.9183 425.9,564.5683 " fill="none" id="UnregisteredUser-to-Property" style="stroke:#181818;stroke-width:1.0;"/><polygon fill="#181818" points="429.87,567.2183,424.6003,558.8978,425.7097,564.4448,420.1627,565.5542,429.87,567.2183" style="stroke:#181818;stroke-width:1.0;"/><text fill="#000000" font-family="sans-serif" font-size="20" lengthAdjust="spacing" textLength="68" x="355.5" y="490.3242">can list</text><text fill="#000000" font-family="sans-serif" font-size="20" lengthAdjust="spacing" textLength="13" x="273.4266" y="403.433">1</text><text fill="#000000" font-family="sans-serif" font-size="20" lengthAdjust="spacing" textLength="10" x="413.6409" y="559.0972">*</text></g><!--reverse link Client to RegisteredUser--><g id="link_Client_RegisteredUser"><path codeLine="65" d="M370.5,274.4883 C370.5,274.4883 241.62,310.2883 156.29,333.9883 " fill="none" id="Client-backto-RegisteredUser" style="stroke:#181818;stroke-width:1.0;"/></g><!--reverse link Client to UnregisteredUser--><g id="link_Client_UnregisteredUser"><path codeLine="66" d="M370.5,274.4883 C370.5,274.4883 329.42,310.5983 302.46,334.2983 " fill="none" id="Client-backto-UnregisteredUser" style="stroke:#181818;stroke-width:1.0;"/></g><!--reverse link Client to PropertyOwner--><g id="link_Client_PropertyOwner"><path codeLine="67" d="M370.5,274.4883 C370.5,274.4883 417.17,310.3883 447.99,334.0983 " fill="none" id="Client-backto-PropertyOwner" style="stroke:#181818;stroke-width:1.0;"/></g><!--reverse link User to Client--><g id="link_User_Client"><path codeLine="68" d="M512.5,107.4883 C512.5,107.4883 466.5,155.0183 431.46,191.2283 " fill="none" id="User-backto-Client" style="stroke:#181818;stroke-width:1.0;"/></g><!--reverse link User to Employee--><g id="link_User_Employee"><path codeLine="69" d="M512.5,107.4883 C512.5,107.4883 587.4,154.8683 644.59,191.0583 " fill="none" id="User-backto-Employee" style="stroke:#181818;stroke-width:1.0;"/></g><!--reverse link Employee to Agent--><g id="link_Employee_Agent"><path codeLine="70" d="M720.5,274.4883 C720.5,274.4883 672.93,310.3883 641.52,334.0983 " fill="none" id="Employee-backto-Agent" style="stroke:#181818;stroke-width:1.0;"/></g><!--reverse link Employee to StoreManager--><g id="link_Employee_StoreManager"><path codeLine="71" d="M720.5,274.4883 C720.5,274.4883 733.59,310.5983 742.18,334.2983 " fill="none" id="Employee-backto-StoreManager" style="stroke:#181818;stroke-width:1.0;"/></g><!--reverse link Employee to StoreNetworkManager--><g id="link_Employee_StoreNetworkManager"><path codeLine="72" d="M720.5,274.4883 C720.5,274.4883 828.34,310.2883 899.75,333.9883 " fill="none" id="Employee-backto-StoreNetworkManager" style="stroke:#181818;stroke-width:1.0;"/></g><!--reverse link Property to House--><g id="link_Property_House"><path codeLine="73" d="M492.5,647.4883 C492.5,647.4883 493.4,683.5983 494,707.2983 " fill="none" id="Property-backto-House" style="stroke:#181818;stroke-width:1.0;"/></g><!--reverse link Property to Apartment--><g id="link_Property_Apartment"><path codeLine="74" d="M492.5,647.4883 C492.5,647.4883 438.64,683.3883 403.09,707.0983 " fill="none" id="Property-backto-Apartment" style="stroke:#181818;stroke-width:1.0;"/></g><!--reverse link Property to Land--><g id="link_Property_Land"><path codeLine="75" d="M492.5,647.4883 C492.5,647.4883 536.03,683.3883 564.77,707.0983 " fill="none" id="Property-backto-Land" style="stroke:#181818;stroke-width:1.0;"/></g><!--SRC=[XL9TRnCn47pthrZbfH9I9E2nGaWH556f1KJK7-3QcxjL_75TxpKwFluxZaE2VJhWxMvcrZiUJzfJ63HhxwBPemMBEpqw-H23REaRmkkNAfqbu6E8fkVe4OH7h9X1cxtkS2kJGs0qeaFdQa7gjOq72Xtij4kehlvGZWBAD214bZwgAuSx0Od0rFK2bex7KGpLOSRfb3OYJ8-ZuAs9eNYjhNOSn-4szCYKlPXy4TMJHJ349XihtnxpFfkK4f9i-ttqcWBSHujEgR83tZd28D_LppFma92htw_OKH9aj3FY8V3Vg2yS1sIPFXz2Wz_umSK9iO8sNRjzAv7nNeSSDS_XJoY7oFi5Ties_CPw2jaGwonUSiDsqMNj9aShldNqCOwfTdodWos_Qc4jh5wjOBr-2wiNgyjruHhEKINLPDF86vzbvcd490cqVSuu9JmwKoMn_mm-4nxIFvHPD8oFZbAFISqVylV4REGQZ0wvoKcKEdK6tlnOhsVzQAZvmGtPvA3AteAVD1LmJb5TuYnmkTmCgykpHBK5kZp5IL7UUOPT-Z33ZnrGlm00]--></g></svg>