<?xml version="1.0" encoding="UTF-8" standalone="no"?><svg xmlns="http://www.w3.org/2000/svg" xmlns:xlink="http://www.w3.org/1999/xlink" contentStyleType="text/css" height="1947px" preserveAspectRatio="none" style="width:1056px;height:1947px;background:#FFFFFF;" version="1.1" viewBox="0 0 1056 1947" width="1056px" zoomAndPan="magnify"><defs/><g><text fill="#000000" font-family="sans-serif" font-size="14" font-weight="bold" lengthAdjust="spacing" textLength="105" x="468.75" y="23.5352">Domain Model</text><!--class Client--><g id="elem_Client"><rect codeLine="14" fill="#F1F1F1" height="41.5547" id="Client" rx="2.5" ry="2.5" style="stroke:#181818;stroke-width:0.5;" width="62" x="808.5" y="269.4883"/><text fill="#000000" font-family="sans-serif" font-size="20" lengthAdjust="spacing" textLength="56" x="811.5" y="293.8242">Client</text><line style="stroke:#181818;stroke-width:0.5;" x1="809.5" x2="869.5" y1="303.043" y2="303.043"/></g><polygon fill="none" points="839.5,311.043,846.5,331.043,832.5,331.043" style="stroke:#181818;stroke-width:1.0;"/><line style="stroke:#181818;stroke-width:1.0;" x1="839.5" x2="839.5" y1="331.043" y2="332.4883"/><line style="stroke:#181818;stroke-width:1.0;" x1="830.033" x2="820.82" y1="269.4883" y2="249.2683"/><!--class User--><g id="elem_User"><rect codeLine="17" fill="#F1F1F1" height="41.5547" id="User" rx="2.5" ry="2.5" style="stroke:#181818;stroke-width:0.5;" width="49" x="533" y="44.4883"/><text fill="#000000" font-family="sans-serif" font-size="20" lengthAdjust="spacing" textLength="43" x="536" y="68.8242">User</text><line style="stroke:#181818;stroke-width:0.5;" x1="534" x2="581" y1="78.043" y2="78.043"/></g><polygon fill="none" points="557.9921,86.043,565.4637,105.8716,551.4676,106.2031" style="stroke:#181818;stroke-width:1.0;"/><line style="stroke:#181818;stroke-width:1.0;" x1="558.4656" x2="558.5" y1="106.0374" y2="107.4883"/><!--class RegisteredUser--><g id="elem_RegisteredUser"><rect codeLine="20" fill="#F1F1F1" height="41.5547" id="RegisteredUser" rx="2.5" ry="2.5" style="stroke:#181818;stroke-width:0.5;" width="151" x="768" y="709.9883"/><text fill="#000000" font-family="sans-serif" font-size="20" lengthAdjust="spacing" textLength="145" x="771" y="734.3242">RegisteredUser</text><line style="stroke:#181818;stroke-width:0.5;" x1="769" x2="918" y1="743.543" y2="743.543"/></g><!--class UnregisteredUser--><g id="elem_UnregisteredUser"><rect codeLine="23" fill="#F1F1F1" height="41.5547" id="UnregisteredUser" rx="2.5" ry="2.5" style="stroke:#181818;stroke-width:0.5;" width="172" x="876.5" y="567.4883"/><text fill="#000000" font-family="sans-serif" font-size="20" lengthAdjust="spacing" textLength="166" x="879.5" y="591.8242">UnregisteredUser</text><line style="stroke:#181818;stroke-width:0.5;" x1="877.5" x2="1047.5" y1="601.043" y2="601.043"/></g><!--class PropertyOwner--><g id="elem_PropertyOwner"><rect codeLine="26" fill="#F1F1F1" height="182.8828" id="PropertyOwner" rx="2.5" ry="2.5" style="stroke:#181818;stroke-width:0.5;" width="199" x="534" y="639.4883"/><text fill="#000000" font-family="sans-serif" font-size="20" lengthAdjust="spacing" textLength="142" x="562.5" y="663.8242">PropertyOwner</text><line style="stroke:#181818;stroke-width:0.5;" x1="535" x2="732" y1="673.043" y2="673.043"/><text fill="#000000" font-family="sans-serif" font-size="20" lengthAdjust="spacing" textLength="53" x="540" y="696.3789">name</text><text fill="#000000" font-family="sans-serif" font-size="20" lengthAdjust="spacing" textLength="187" x="540" y="719.9336">citizenCardNumber</text><text fill="#000000" font-family="sans-serif" font-size="20" lengthAdjust="spacing" textLength="108" x="540" y="743.4883">taxNumber</text><text fill="#000000" font-family="sans-serif" font-size="20" lengthAdjust="spacing" textLength="76" x="540" y="767.043">address</text><text fill="#000000" font-family="sans-serif" font-size="20" lengthAdjust="spacing" textLength="53" x="540" y="790.5977">email</text><text fill="#000000" font-family="sans-serif" font-size="20" lengthAdjust="spacing" textLength="173" x="540" y="814.1523">telephoneNumber</text></g><!--class Employee--><g id="elem_Employee"><rect codeLine="35" fill="#F1F1F1" height="206.4375" id="Employee" rx="2.5" ry="2.5" style="stroke:#181818;stroke-width:0.5;" width="199" x="192" y="187.4883"/><text fill="#000000" font-family="sans-serif" font-size="20" lengthAdjust="spacing" textLength="93" x="245" y="211.8242">Employee</text><line style="stroke:#181818;stroke-width:0.5;" x1="193" x2="390" y1="221.043" y2="221.043"/><text fill="#000000" font-family="sans-serif" font-size="20" lengthAdjust="spacing" textLength="53" x="198" y="244.3789">name</text><text fill="#000000" font-family="sans-serif" font-size="20" lengthAdjust="spacing" textLength="187" x="198" y="267.9336">citizenCardNumber</text><text fill="#000000" font-family="sans-serif" font-size="20" lengthAdjust="spacing" textLength="108" x="198" y="291.4883">taxNumber</text><text fill="#000000" font-family="sans-serif" font-size="20" lengthAdjust="spacing" textLength="76" x="198" y="315.043">address</text><text fill="#000000" font-family="sans-serif" font-size="20" lengthAdjust="spacing" textLength="53" x="198" y="338.5977">email</text><text fill="#000000" font-family="sans-serif" font-size="20" lengthAdjust="spacing" textLength="170" x="198" y="362.1523">contactTelephone</text><text fill="#000000" font-family="sans-serif" font-size="20" lengthAdjust="spacing" textLength="66" x="198" y="385.707">agency</text></g><polygon fill="none" points="391,300.6672,411.5978,295.6941,410.2033,309.6245" style="stroke:#181818;stroke-width:1.0;"/><line style="stroke:#181818;stroke-width:1.0;" x1="410.9005" x2="411.29" y1="302.6593" y2="302.6983"/><polygon fill="none" points="327.3569,393.9258,340.5322,410.5212,327.3075,415.1153" style="stroke:#181818;stroke-width:1.0;"/><line style="stroke:#181818;stroke-width:1.0;" x1="333.9199" x2="334.5" y1="412.8183" y2="414.4883"/><line style="stroke:#181818;stroke-width:1.0;" x1="391" x2="411.19" y1="262.8341" y2="257.1783"/><line style="stroke:#181818;stroke-width:1.0;" x1="391" x2="411.33" y1="221.8726" y2="207.8083"/><!--class Agent--><g id="elem_Agent"><rect codeLine="45" fill="#F1F1F1" height="182.8828" id="Agent" rx="2.5" ry="2.5" style="stroke:#181818;stroke-width:0.5;" width="199" x="431" y="907.4883"/><text fill="#000000" font-family="sans-serif" font-size="20" lengthAdjust="spacing" textLength="56" x="502.5" y="931.8242">Agent</text><line style="stroke:#181818;stroke-width:0.5;" x1="432" x2="629" y1="941.043" y2="941.043"/><text fill="#000000" font-family="sans-serif" font-size="20" lengthAdjust="spacing" textLength="53" x="437" y="964.3789">name</text><text fill="#000000" font-family="sans-serif" font-size="20" lengthAdjust="spacing" textLength="187" x="437" y="987.9336">citizenCardNumber</text><text fill="#000000" font-family="sans-serif" font-size="20" lengthAdjust="spacing" textLength="108" x="437" y="1011.4883">taxNumber</text><text fill="#000000" font-family="sans-serif" font-size="20" lengthAdjust="spacing" textLength="76" x="437" y="1035.043">address</text><text fill="#000000" font-family="sans-serif" font-size="20" lengthAdjust="spacing" textLength="53" x="437" y="1058.5977">email</text><text fill="#000000" font-family="sans-serif" font-size="20" lengthAdjust="spacing" textLength="173" x="437" y="1082.1523">telephoneNumber</text></g><!--class StoreManager--><g id="elem_StoreManager"><rect codeLine="54" fill="#F1F1F1" height="41.5547" id="StoreManager" rx="2.5" ry="2.5" style="stroke:#181818;stroke-width:0.5;" width="137" x="7" y="977.9883"/><text fill="#000000" font-family="sans-serif" font-size="20" lengthAdjust="spacing" textLength="131" x="10" y="1002.3242">StoreManager</text><line style="stroke:#181818;stroke-width:0.5;" x1="8" x2="143" y1="1011.543" y2="1011.543"/></g><!--class StoreNetworkManager--><g id="elem_StoreNetworkManager"><rect codeLine="57" fill="#F1F1F1" height="41.5547" id="StoreNetworkManager" rx="2.5" ry="2.5" style="stroke:#181818;stroke-width:0.5;" width="217" x="179" y="977.9883"/><text fill="#000000" font-family="sans-serif" font-size="20" lengthAdjust="spacing" textLength="211" x="182" y="1002.3242">StoreNetworkManager</text><line style="stroke:#181818;stroke-width:0.5;" x1="180" x2="395" y1="1011.543" y2="1011.543"/></g><!--class SystemAdministrator--><g id="elem_SystemAdministrator"><rect codeLine="60" fill="#F1F1F1" height="88.6641" id="SystemAdministrator" rx="2.5" ry="2.5" style="stroke:#181818;stroke-width:0.5;" width="207" x="531" y="245.9883"/><text fill="#000000" font-family="sans-serif" font-size="20" lengthAdjust="spacing" textLength="201" x="534" y="270.3242">SystemAdministrator</text><line style="stroke:#181818;stroke-width:0.5;" x1="532" x2="737" y1="279.543" y2="279.543"/><text fill="#000000" font-family="sans-serif" font-size="20" lengthAdjust="spacing" textLength="97" x="537" y="302.8789">userName</text><text fill="#000000" font-family="sans-serif" font-size="20" lengthAdjust="spacing" textLength="92" x="537" y="326.4336">password</text></g><!--class PropertyOrder--><g id="elem_PropertyOrder"><rect codeLine="65" fill="#F1F1F1" height="41.5547" id="PropertyOrder" rx="2.5" ry="2.5" style="stroke:#181818;stroke-width:0.5;" width="142" x="564.5" y="1347.4883"/><text fill="#000000" font-family="sans-serif" font-size="20" lengthAdjust="spacing" textLength="136" x="567.5" y="1371.8242">PropertyOrder</text><line style="stroke:#181818;stroke-width:0.5;" x1="565.5" x2="705.5" y1="1381.043" y2="1381.043"/></g><!--class Property--><g id="elem_Property"><rect codeLine="68" fill="#F1F1F1" height="182.8828" id="Property" rx="2.5" ry="2.5" style="stroke:#181818;stroke-width:0.5;" width="205" x="607" y="1470.4883"/><text fill="#000000" font-family="sans-serif" font-size="20" lengthAdjust="spacing" textLength="80" x="669.5" y="1494.8242">Property</text><line style="stroke:#181818;stroke-width:0.5;" x1="608" x2="811" y1="1504.043" y2="1504.043"/><text fill="#000000" font-family="sans-serif" font-size="20" lengthAdjust="spacing" textLength="147" x="613" y="1527.3789">typeOfBusiness</text><text fill="#000000" font-family="sans-serif" font-size="20" lengthAdjust="spacing" textLength="144" x="613" y="1550.9336">typeOfProperty</text><text fill="#000000" font-family="sans-serif" font-size="20" lengthAdjust="spacing" textLength="41" x="613" y="1574.4883">area</text><text fill="#000000" font-family="sans-serif" font-size="20" lengthAdjust="spacing" textLength="76" x="613" y="1598.043">location</text><text fill="#000000" font-family="sans-serif" font-size="20" lengthAdjust="spacing" textLength="193" x="613" y="1621.5977">distanceFromCenter</text><text fill="#000000" font-family="sans-serif" font-size="20" lengthAdjust="spacing" textLength="48" x="613" y="1645.1523">price</text></g><polygon fill="none" points="703.8384,1653.3711,709.5891,1673.7654,695.6159,1672.9003" style="stroke:#181818;stroke-width:1.0;"/><line style="stroke:#181818;stroke-width:1.0;" x1="702.6025" x2="702.5" y1="1673.3329" y2="1674.9883"/><line style="stroke:#181818;stroke-width:1.0;" x1="607" x2="580.89" y1="1531.0216" y2="1523.1483"/><line style="stroke:#181818;stroke-width:1.0;" x1="812" x2="838.11" y1="1531.0216" y2="1523.1483"/><!--class Apartment--><g id="elem_Apartment"><rect codeLine="77" fill="#F1F1F1" height="135.7734" id="Apartment" rx="2.5" ry="2.5" style="stroke:#181818;stroke-width:0.5;" width="248" x="302.5" y="1769.4883"/><text fill="#000000" font-family="sans-serif" font-size="20" lengthAdjust="spacing" textLength="102" x="375.5" y="1793.8242">Apartment</text><line style="stroke:#181818;stroke-width:0.5;" x1="303.5" x2="549.5" y1="1803.043" y2="1803.043"/><text fill="#000000" font-family="sans-serif" font-size="20" lengthAdjust="spacing" textLength="195" x="308.5" y="1826.3789">numberOfBedrooms</text><text fill="#000000" font-family="sans-serif" font-size="20" lengthAdjust="spacing" textLength="201" x="308.5" y="1849.9336">numberOfBathrooms</text><text fill="#000000" font-family="sans-serif" font-size="20" lengthAdjust="spacing" textLength="236" x="308.5" y="1873.4883">numberOfParkingSpaces</text><text fill="#000000" font-family="sans-serif" font-size="20" lengthAdjust="spacing" textLength="189" x="308.5" y="1897.043">availableEquipment</text></g><!--class House--><g id="elem_House"><rect codeLine="84" fill="#F1F1F1" height="206.4375" id="House" rx="2.5" ry="2.5" style="stroke:#181818;stroke-width:0.5;" width="248" x="585.5" y="1734.4883"/><text fill="#000000" font-family="sans-serif" font-size="20" lengthAdjust="spacing" textLength="60" x="679.5" y="1758.8242">House</text><line style="stroke:#181818;stroke-width:0.5;" x1="586.5" x2="832.5" y1="1768.043" y2="1768.043"/><text fill="#000000" font-family="sans-serif" font-size="20" lengthAdjust="spacing" textLength="195" x="591.5" y="1791.3789">numberOfBedrooms</text><text fill="#000000" font-family="sans-serif" font-size="20" lengthAdjust="spacing" textLength="201" x="591.5" y="1814.9336">numberOfBathrooms</text><text fill="#000000" font-family="sans-serif" font-size="20" lengthAdjust="spacing" textLength="236" x="591.5" y="1838.4883">numberOfParkingSpaces</text><text fill="#000000" font-family="sans-serif" font-size="20" lengthAdjust="spacing" textLength="189" x="591.5" y="1862.043">availableEquipment</text><text fill="#000000" font-family="sans-serif" font-size="20" lengthAdjust="spacing" textLength="94" x="591.5" y="1885.5977">basement</text><text fill="#000000" font-family="sans-serif" font-size="20" lengthAdjust="spacing" textLength="145" x="591.5" y="1909.1523">inhabitableLoft</text><text fill="#000000" font-family="sans-serif" font-size="20" lengthAdjust="spacing" textLength="123" x="591.5" y="1932.707">sunExposure</text></g><!--class Land--><g id="elem_Land"><rect codeLine="94" fill="#F1F1F1" height="41.5547" id="Land" rx="2.5" ry="2.5" style="stroke:#181818;stroke-width:0.5;" width="53" x="869" y="1816.4883"/><text fill="#000000" font-family="sans-serif" font-size="20" lengthAdjust="spacing" textLength="47" x="872" y="1840.8242">Land</text><line style="stroke:#181818;stroke-width:0.5;" x1="870" x2="921" y1="1850.043" y2="1850.043"/></g><!--link Employee to SystemAdministrator--><g id="link_Employee_SystemAdministrator"><path codeLine="98" d="M411.19,257.1783 C417.02,256.1383 422.81,255.2283 428.5,254.4883 C465.96,249.6183 476.12,248.9983 513.5,254.4883 C519.1,255.3083 524.79,256.3383 530.51,257.5183 " fill="none" id="Employee-SystemAdministrator" style="stroke:#181818;stroke-width:1.0;"/><text fill="#000000" font-family="sans-serif" font-size="20" lengthAdjust="spacing" textLength="83" x="429.5" y="246.8242">registers</text><text fill="#000000" font-family="sans-serif" font-size="20" lengthAdjust="spacing" textLength="10" x="419.178" y="250.6473">*</text><text fill="#000000" font-family="sans-serif" font-size="20" lengthAdjust="spacing" textLength="13" x="510.0865" y="250.8963">1</text></g><!--reverse link Employee to SystemAdministrator--><g id="link_Employee_SystemAdministrator"><path codeLine="116" d="M411.29,302.6983 C450.21,303.5283 493.1,303.3983 530.74,302.2983 " fill="none" id="Employee-backto-SystemAdministrator" style="stroke:#181818;stroke-width:1.0;"/></g><!--link PropertyOwner to PropertyOrder--><g id="link_PropertyOwner_PropertyOrder"><path codeLine="99" d="M659.23,822.9083 C671.48,873.9383 683.5,939.0183 683.5,997.9883 C683.5,997.9883 683.5,997.9883 683.5,1274.9883 C683.5,1299.7983 669.73,1324.5583 656.94,1342.2183 " fill="none" id="PropertyOwner-to-PropertyOrder" style="stroke:#181818;stroke-width:1.0;"/><polygon fill="#181818" points="654.28,1345.7883,662.8607,1340.9539,657.264,1341.7763,656.4416,1336.1796,654.28,1345.7883" style="stroke:#181818;stroke-width:1.0;"/><text fill="#000000" font-family="sans-serif" font-size="20" lengthAdjust="spacing" textLength="224" x="684.5" y="1171.8242">requests advertisement</text><text fill="#000000" font-family="sans-serif" font-size="20" lengthAdjust="spacing" textLength="13" x="647.6422" y="849.8638">1</text><text fill="#000000" font-family="sans-serif" font-size="20" lengthAdjust="spacing" textLength="10" x="646.5071" y="1335.4272">*</text></g><!--link PropertyOwner to Agent--><g id="link_PropertyOwner_Agent"><path codeLine="100" d="M588.92,822.8683 C584.53,832.7883 580.3,842.7983 576.5,852.4883 C570.38,868.0783 564.48,884.8483 559.06,901.2583 " fill="none" id="PropertyOwner-to-Agent" style="stroke:#181818;stroke-width:1.0;"/><polygon fill="#181818" points="557.55,905.8483,564.1578,898.5451,559.1097,901.0978,556.557,896.0496,557.55,905.8483" style="stroke:#181818;stroke-width:1.0;"/><text fill="#000000" font-family="sans-serif" font-size="20" lengthAdjust="spacing" textLength="79" x="577.5" y="872.8242">contacts</text><text fill="#000000" font-family="sans-serif" font-size="20" lengthAdjust="spacing" textLength="13" x="572.1688" y="849.8209">1</text><text fill="#000000" font-family="sans-serif" font-size="20" lengthAdjust="spacing" textLength="13" x="545.6801" y="895.4272">1</text></g><!--link Agent to PropertyOrder--><g id="link_Agent_PropertyOrder"><path codeLine="101" d="M548.84,1090.8583 C558.24,1133.8383 570.63,1185.6683 584.5,1231.4883 C596.25,1270.3083 613.37,1314.0283 624.47,1341.1683 " fill="none" id="Agent-to-PropertyOrder" style="stroke:#181818;stroke-width:1.0;"/><polygon fill="#181818" points="626.3,1345.6383,626.5827,1335.7935,624.4013,1341.0128,619.1819,1338.8314,626.3,1345.6383" style="stroke:#181818;stroke-width:1.0;"/><text fill="#000000" font-family="sans-serif" font-size="20" lengthAdjust="spacing" textLength="71" x="585.5" y="1226.8242">reviews</text><text fill="#000000" font-family="sans-serif" font-size="20" lengthAdjust="spacing" textLength="13" x="536.7095" y="1117.8101">1</text><text fill="#000000" font-family="sans-serif" font-size="20" lengthAdjust="spacing" textLength="10" x="613.5601" y="1335.4645">*</text></g><!--link Agent to Property--><g id="link_Agent_Property"><path codeLine="102" d="M459.47,1090.5783 C447.84,1113.0183 439.5,1137.8683 439.5,1162.9883 C439.5,1162.9883 439.5,1162.9883 439.5,1369.4883 C439.5,1445.3683 511.33,1493.9183 580.89,1523.1483 " fill="none" id="Agent-to-Property" style="stroke:#181818;stroke-width:1.0;"/><polygon fill="#181818" points="585.35,1524.9883,578.5432,1517.8702,580.7245,1523.0896,575.5052,1525.2709,585.35,1524.9883" style="stroke:#181818;stroke-width:1.0;"/><text fill="#000000" font-family="sans-serif" font-size="20" lengthAdjust="spacing" textLength="93" x="440.5" y="1281.8242">publishes</text><text fill="#000000" font-family="sans-serif" font-size="20" lengthAdjust="spacing" textLength="13" x="440.5341" y="1117.8328">1</text><text fill="#000000" font-family="sans-serif" font-size="20" lengthAdjust="spacing" textLength="10" x="568.9652" y="1518.994">*</text></g><!--link UnregisteredUser to Property--><g id="link_UnregisteredUser_Property"><path codeLine="103" d="M964.62,609.7783 C969.18,655.2383 979.5,768.7283 979.5,863.9883 C979.5,863.9883 979.5,863.9883 979.5,1369.4883 C979.5,1445.3683 907.67,1493.9183 838.11,1523.1483 " fill="none" id="UnregisteredUser-to-Property" style="stroke:#181818;stroke-width:1.0;"/><polygon fill="#181818" points="833.65,1524.9883,843.4948,1525.2709,838.2755,1523.0896,840.4568,1517.8702,833.65,1524.9883" style="stroke:#181818;stroke-width:1.0;"/><text fill="#000000" font-family="sans-serif" font-size="20" lengthAdjust="spacing" textLength="68" x="980.5" y="1171.8242">can list</text><text fill="#000000" font-family="sans-serif" font-size="20" lengthAdjust="spacing" textLength="13" x="950.6619" y="636.3964">1</text><text fill="#000000" font-family="sans-serif" font-size="20" lengthAdjust="spacing" textLength="10" x="840.0348" y="1518.994">*</text></g><!--reverse link Client to RegisteredUser--><g id="link_Client_RegisteredUser"><path codeLine="105" d="M839.5,332.4883 C839.5,332.4883 842.48,628.7283 843.3,709.7283 " fill="none" id="Client-backto-RegisteredUser" style="stroke:#181818;stroke-width:1.0;"/></g><!--reverse link Client to UnregisteredUser--><g id="link_Client_UnregisteredUser"><path codeLine="106" d="M839.5,332.4883 C839.5,332.4883 923.45,506.5383 952.64,567.0483 " fill="none" id="Client-backto-UnregisteredUser" style="stroke:#181818;stroke-width:1.0;"/></g><!--reverse link Client to PropertyOwner--><g id="link_Client_PropertyOwner"><path codeLine="107" d="M839.5,332.4883 C839.5,332.4883 741.3,521.9783 680.5,639.2883 " fill="none" id="Client-backto-PropertyOwner" style="stroke:#181818;stroke-width:1.0;"/></g><!--reverse link User to Client--><g id="link_User_Client"><path codeLine="108" d="M558.5,107.4883 C558.5,107.4883 681.64,113.4383 755.5,167.4883 C784.24,188.5183 806.47,222.5083 820.82,249.2683 " fill="none" id="User-backto-Client" style="stroke:#181818;stroke-width:1.0;"/></g><!--reverse link User to Employee--><g id="link_User_Employee"><path codeLine="109" d="M558.5,107.4883 C558.5,107.4883 482.31,159.4183 411.33,207.8083 " fill="none" id="User-backto-Employee" style="stroke:#181818;stroke-width:1.0;"/></g><!--reverse link Employee to Agent--><g id="link_Employee_Agent"><path codeLine="110" d="M334.5,414.4883 C334.5,414.4883 439.5,420.7383 439.5,474.4883 C439.5,474.4883 439.5,474.4883 439.5,731.9883 C439.5,792.5083 460.85,856.8083 482.87,907.0283 " fill="none" id="Employee-backto-Agent" style="stroke:#181818;stroke-width:1.0;"/></g><!--reverse link Employee to StoreManager--><g id="link_Employee_StoreManager"><path codeLine="111" d="M334.5,414.4883 C334.5,414.4883 75.5,415.4083 75.5,474.4883 C75.5,474.4883 75.5,474.4883 75.5,731.9883 C75.5,823.6583 75.5,933.0983 75.5,977.6283 " fill="none" id="Employee-backto-StoreManager" style="stroke:#181818;stroke-width:1.0;"/></g><!--reverse link Employee to StoreNetworkManager--><g id="link_Employee_StoreNetworkManager"><path codeLine="112" d="M334.5,414.4883 C334.5,414.4883 287.5,440.6183 287.5,474.4883 C287.5,474.4883 287.5,474.4883 287.5,731.9883 C287.5,823.6583 287.5,933.0983 287.5,977.6283 " fill="none" id="Employee-backto-StoreNetworkManager" style="stroke:#181818;stroke-width:1.0;"/></g><!--reverse link Property to House--><g id="link_Property_House"><path codeLine="113" d="M702.5,1674.9883 C702.5,1674.9883 703.68,1702.1583 705.07,1734.2083 " fill="none" id="Property-backto-House" style="stroke:#181818;stroke-width:1.0;"/></g><!--reverse link Property to Apartment--><g id="link_Property_Apartment"><path codeLine="114" d="M702.5,1674.9883 C702.5,1674.9883 625.04,1702.0883 568.5,1734.4883 C550.46,1744.8283 531.91,1756.9383 514.41,1769.1283 " fill="none" id="Property-backto-Apartment" style="stroke:#181818;stroke-width:1.0;"/></g><!--reverse link Property to Land--><g id="link_Property_Land"><path codeLine="115" d="M702.5,1674.9883 C702.5,1674.9883 800.39,1684.7583 851.5,1734.4883 C874.58,1756.9483 886.27,1793.5083 891.61,1816.2183 " fill="none" id="Property-backto-Land" style="stroke:#181818;stroke-width:1.0;"/></g><!--SRC=[jLJ9Rjim4BtpAmXV0XG8qFPO50NIr443P4FTVC1O74k4AL8PZkAeoxztH4csfDYtnXUBRzvmriUujRu2WjA5R8j66zn0xVWgU5xPNwW_lbTneEWo-90L54hKJ3MEB1LaMyXnnOr3JPWn-DoD2R404tRMvte3Bg8wEvYSzSXDXJeG5s7aapc8yOAPxBfclCw2JocDCyefrDMrBv2iXCmatwCtLy4rxK6fmXhKcQLCialV9KfG4zMPmmrh3ffiNh0sjgt21g_OijJqBPHWlRuD1frIAJDzwInw_gt-3i1ZH1eTVs1k8oEXcHaUFPqoFL2eaBYvt_aMr_BpK6Bwo2nB_VuIoDpLvHefeGmlenCOGnXZ-aP9sNKST5WLmMFFt8TRbfKB3U9_YoH3OiZuvn2me-Rei-OGzI9FVNlhubOS26_1I_XnYnDyXxmBj3rYRMGkvOKfhPS94GWvPLhBdExwP2iXYhSvCZOoHyVP5TlkultcQnrb5VioEcYWTLKIGleGIK9QmVPW99jsmwz4VfVIlhub5TaCHvsLnUVoqDtK4Gc9Xa8eunG4BbwZ3q2YdtmbYiRE0i_IQLWxN3xLjcelFyJx7gGlRnkhXTSGSN-mle2ro5rODs7JOR7sovSgn9f6pRW1Rz8ir96XwiM7XJvFeb-yM-o5e3_fGPjHJSJOEPn_IVJ9l9FFKusHewpei-2sJ_V41VAV922ElLwYwe2ESZhAiyNTd3iZ2w-gryx6GdewVsa6fwcBf05UNil8IdMFclxyfxrvzeHDZAzUiPdhf7QLWhUM_jKS0KFhrNu62Kv5Jh7ssh6eJrYdsjuFeRisRUmCswjcXhSBDClgo2OfzGy0]--></g></svg>