<?xml version="1.0" encoding="UTF-8" standalone="no"?><svg xmlns="http://www.w3.org/2000/svg" xmlns:xlink="http://www.w3.org/1999/xlink" contentStyleType="text/css" height="1276px" preserveAspectRatio="none" style="width:1373px;height:1276px;background:#FFFFFF;" version="1.1" viewBox="0 0 1373 1276" width="1373px" zoomAndPan="magnify"><defs/><g><text fill="#000000" font-family="sans-serif" font-size="14" font-weight="bold" lengthAdjust="spacing" textLength="105" x="627.135" y="23.5352">Domain Model</text><!--class Owner--><g id="elem_Owner"><rect codeLine="10" fill="#F1F1F1" height="41.5547" id="Owner" rx="2.5" ry="2.5" style="stroke:#181818;stroke-width:0.5;" width="68" x="479.27" y="521.3683"/><text fill="#000000" font-family="sans-serif" font-size="20" lengthAdjust="spacing" textLength="62" x="482.27" y="545.7042">Owner</text><line style="stroke:#181818;stroke-width:0.5;" x1="480.27" x2="546.27" y1="554.923" y2="554.923"/></g><!--class Person--><g id="elem_Person"><rect codeLine="17" fill="#F1F1F1" height="159.3281" id="Person" rx="2.5" ry="2.5" style="stroke:#181818;stroke-width:0.5;" width="220" x="923.27" y="265.2683"/><text fill="#000000" font-family="sans-serif" font-size="20" lengthAdjust="spacing" textLength="64" x="1001.27" y="289.6042">Person</text><line style="stroke:#181818;stroke-width:0.5;" x1="924.27" x2="1142.27" y1="298.823" y2="298.823"/><text fill="#000000" font-family="sans-serif" font-size="20" lengthAdjust="spacing" textLength="53" x="929.27" y="322.1589">name</text><text fill="#000000" font-family="sans-serif" font-size="20" lengthAdjust="spacing" textLength="208" x="929.27" y="345.7136">passportCardNumber</text><text fill="#000000" font-family="sans-serif" font-size="20" lengthAdjust="spacing" textLength="108" x="929.27" y="369.2683">taxNumber</text><text fill="#000000" font-family="sans-serif" font-size="20" lengthAdjust="spacing" textLength="53" x="929.27" y="392.823">email</text><text fill="#000000" font-family="sans-serif" font-size="20" lengthAdjust="spacing" textLength="173" x="929.27" y="416.3777">telephoneNumber</text></g><!--class Agent--><g id="elem_Agent"><rect codeLine="14" fill="#F1F1F1" height="41.5547" id="Agent" rx="2.5" ry="2.5" style="stroke:#181818;stroke-width:0.5;" width="62" x="482.27" y="324.1483"/><text fill="#000000" font-family="sans-serif" font-size="20" lengthAdjust="spacing" textLength="56" x="485.27" y="348.4842">Agent</text><line style="stroke:#181818;stroke-width:0.5;" x1="483.27" x2="543.27" y1="357.703" y2="357.703"/></g><!--class Agency--><g id="elem_Agency"><rect codeLine="25" fill="#F1F1F1" height="135.7734" id="Agency" rx="2.5" ry="2.5" style="stroke:#181818;stroke-width:0.5;" width="150" x="856.27" y="44.4883"/><text fill="#000000" font-family="sans-serif" font-size="20" lengthAdjust="spacing" textLength="69" x="896.77" y="68.8242">Agency</text><line style="stroke:#181818;stroke-width:0.5;" x1="857.27" x2="1005.27" y1="78.043" y2="78.043"/><text fill="#000000" font-family="sans-serif" font-size="20" lengthAdjust="spacing" textLength="21" x="862.27" y="101.3789">ID</text><text fill="#000000" font-family="sans-serif" font-size="20" lengthAdjust="spacing" textLength="53" x="862.27" y="124.9336">name</text><text fill="#000000" font-family="sans-serif" font-size="20" lengthAdjust="spacing" textLength="132" x="862.27" y="148.4883">emailAddress</text><text fill="#000000" font-family="sans-serif" font-size="20" lengthAdjust="spacing" textLength="138" x="862.27" y="172.043">phoneNumber</text></g><!--class Property--><g id="elem_Property"><rect codeLine="32" fill="#F1F1F1" height="112.2188" id="Property" rx="2.5" ry="2.5" style="stroke:#181818;stroke-width:0.5;" width="205" x="497.77" y="659.6983"/><text fill="#000000" font-family="sans-serif" font-size="20" lengthAdjust="spacing" textLength="80" x="560.27" y="684.0342">Property</text><line style="stroke:#181818;stroke-width:0.5;" x1="498.77" x2="701.77" y1="693.253" y2="693.253"/><text fill="#000000" font-family="sans-serif" font-size="20" lengthAdjust="spacing" textLength="41" x="503.77" y="716.5889">area</text><text fill="#000000" font-family="sans-serif" font-size="20" lengthAdjust="spacing" textLength="193" x="503.77" y="740.1436">distanceFromCenter</text><text fill="#000000" font-family="sans-serif" font-size="20" lengthAdjust="spacing" textLength="48" x="503.77" y="763.6983">price</text></g><!--class Photos--><g id="elem_Photos"><rect codeLine="38" fill="#F1F1F1" height="41.5547" id="Photos" rx="2.5" ry="2.5" style="stroke:#181818;stroke-width:0.5;" width="70" x="371.27" y="892.2483"/><text fill="#000000" font-family="sans-serif" font-size="20" lengthAdjust="spacing" textLength="64" x="374.27" y="916.5842">Photos</text><line style="stroke:#181818;stroke-width:0.5;" x1="372.27" x2="440.27" y1="925.803" y2="925.803"/></g><!--class Rent--><g id="elem_Rent"><rect codeLine="41" fill="#F1F1F1" height="65.1094" id="Rent" rx="2.5" ry="2.5" style="stroke:#181818;stroke-width:0.5;" width="172" x="922.27" y="509.5883"/><text fill="#000000" font-family="sans-serif" font-size="20" lengthAdjust="spacing" textLength="43" x="986.77" y="533.9242">Rent</text><line style="stroke:#181818;stroke-width:0.5;" x1="923.27" x2="1093.27" y1="543.143" y2="543.143"/><text fill="#000000" font-family="sans-serif" font-size="20" lengthAdjust="spacing" textLength="160" x="928.27" y="566.4789">contractDuration</text></g><!--class Address--><g id="elem_Address"><rect codeLine="45" fill="#F1F1F1" height="112.2188" id="Address" rx="2.5" ry="2.5" style="stroke:#181818;stroke-width:0.5;" width="135" x="1173.77" y="659.6983"/><text fill="#000000" font-family="sans-serif" font-size="20" lengthAdjust="spacing" textLength="79" x="1201.77" y="684.0342">Address</text><line style="stroke:#181818;stroke-width:0.5;" x1="1174.77" x2="1307.77" y1="693.253" y2="693.253"/><text fill="#000000" font-family="sans-serif" font-size="20" lengthAdjust="spacing" textLength="54" x="1179.77" y="716.5889">street</text><text fill="#000000" font-family="sans-serif" font-size="20" lengthAdjust="spacing" textLength="123" x="1179.77" y="740.1436">doorNumber</text><text fill="#000000" font-family="sans-serif" font-size="20" lengthAdjust="spacing" textLength="80" x="1179.77" y="763.6983">zipCode</text></g><!--class City--><g id="elem_City"><rect codeLine="51" fill="#F1F1F1" height="41.5547" id="City" rx="2.5" ry="2.5" style="stroke:#181818;stroke-width:0.5;" width="43" x="1128.77" y="521.3683"/><text fill="#000000" font-family="sans-serif" font-size="20" lengthAdjust="spacing" textLength="37" x="1131.77" y="545.7042">City</text><line style="stroke:#181818;stroke-width:0.5;" x1="1129.77" x2="1170.77" y1="554.923" y2="554.923"/></g><!--class District--><g id="elem_District"><rect codeLine="54" fill="#F1F1F1" height="41.5547" id="District" rx="2.5" ry="2.5" style="stroke:#181818;stroke-width:0.5;" width="75" x="1053.77" y="695.0383"/><text fill="#000000" font-family="sans-serif" font-size="20" lengthAdjust="spacing" textLength="69" x="1056.77" y="719.3742">District</text><line style="stroke:#181818;stroke-width:0.5;" x1="1054.77" x2="1127.77" y1="728.593" y2="728.593"/></g><!--class State--><g id="elem_State"><rect codeLine="57" fill="#F1F1F1" height="41.5547" id="State" rx="2.5" ry="2.5" style="stroke:#181818;stroke-width:0.5;" width="53" x="1141.77" y="892.2483"/><text fill="#000000" font-family="sans-serif" font-size="20" lengthAdjust="spacing" textLength="47" x="1144.77" y="916.5842">State</text><line style="stroke:#181818;stroke-width:0.5;" x1="1142.77" x2="1193.77" y1="925.803" y2="925.803"/></g><!--class Apartment--><g id="elem_Apartment"><rect codeLine="60" fill="#F1F1F1" height="41.5547" id="Apartment" rx="2.5" ry="2.5" style="stroke:#181818;stroke-width:0.5;" width="108" x="378.27" y="1077.6983"/><text fill="#000000" font-family="sans-serif" font-size="20" lengthAdjust="spacing" textLength="102" x="381.27" y="1102.0342">Apartment</text><line style="stroke:#181818;stroke-width:0.5;" x1="379.27" x2="485.27" y1="1111.253" y2="1111.253"/></g><!--class Residency--><g id="elem_Residency"><rect codeLine="68" fill="#F1F1F1" height="112.2188" id="Residency" rx="2.5" ry="2.5" style="stroke:#181818;stroke-width:0.5;" width="248" x="476.27" y="856.9183"/><text fill="#000000" font-family="sans-serif" font-size="20" lengthAdjust="spacing" textLength="96" x="552.27" y="881.2542">Residency</text><line style="stroke:#181818;stroke-width:0.5;" x1="477.27" x2="723.27" y1="890.473" y2="890.473"/><text fill="#000000" font-family="sans-serif" font-size="20" lengthAdjust="spacing" textLength="195" x="482.27" y="913.8089">numberOfBedrooms</text><text fill="#000000" font-family="sans-serif" font-size="20" lengthAdjust="spacing" textLength="201" x="482.27" y="937.3636">numberOfBathrooms</text><text fill="#000000" font-family="sans-serif" font-size="20" lengthAdjust="spacing" textLength="236" x="482.27" y="960.9183">numberOfParkingSpaces</text></g><!--class House--><g id="elem_House"><rect codeLine="63" fill="#F1F1F1" height="88.6641" id="House" rx="2.5" ry="2.5" style="stroke:#181818;stroke-width:0.5;" width="157" x="521.77" y="1054.1383"/><text fill="#000000" font-family="sans-serif" font-size="20" lengthAdjust="spacing" textLength="60" x="570.27" y="1078.4742">House</text><line style="stroke:#181818;stroke-width:0.5;" x1="522.77" x2="677.77" y1="1087.693" y2="1087.693"/><text fill="#000000" font-family="sans-serif" font-size="20" lengthAdjust="spacing" textLength="94" x="527.77" y="1111.0289">basement</text><text fill="#000000" font-family="sans-serif" font-size="20" lengthAdjust="spacing" textLength="145" x="527.77" y="1134.5836">inhabitableLoft</text></g><!--class Land--><g id="elem_Land"><rect codeLine="75" fill="#F1F1F1" height="41.5547" id="Land" rx="2.5" ry="2.5" style="stroke:#181818;stroke-width:0.5;" width="53" x="758.77" y="892.2483"/><text fill="#000000" font-family="sans-serif" font-size="20" lengthAdjust="spacing" textLength="47" x="761.77" y="916.5842">Land</text><line style="stroke:#181818;stroke-width:0.5;" x1="759.77" x2="810.77" y1="925.803" y2="925.803"/></g><!--class Equipment--><g id="elem_Equipment"><rect codeLine="78" fill="#F1F1F1" height="65.1094" id="Equipment" rx="2.5" ry="2.5" style="stroke:#181818;stroke-width:0.5;" width="172" x="714.27" y="1065.9183"/><text fill="#000000" font-family="sans-serif" font-size="20" lengthAdjust="spacing" textLength="104" x="748.27" y="1090.2542">Equipment</text><line style="stroke:#181818;stroke-width:0.5;" x1="715.27" x2="885.27" y1="1099.473" y2="1099.473"/><text fill="#000000" font-family="sans-serif" font-size="20" lengthAdjust="spacing" textLength="160" x="720.27" y="1122.8089">equipmentName</text></g><!--class SunExposure--><g id="elem_SunExposure"><rect codeLine="82" fill="#F1F1F1" height="41.5547" id="SunExposure" rx="2.5" ry="2.5" style="stroke:#181818;stroke-width:0.5;" width="130" x="535.27" y="1227.8083"/><text fill="#000000" font-family="sans-serif" font-size="20" lengthAdjust="spacing" textLength="124" x="538.27" y="1252.1442">SunExposure</text><line style="stroke:#181818;stroke-width:0.5;" x1="536.27" x2="664.27" y1="1261.363" y2="1261.363"/></g><!--class Request--><g id="elem_Request"><rect codeLine="85" fill="#F1F1F1" height="65.1094" id="Request" rx="2.5" ry="2.5" style="stroke:#181818;stroke-width:0.5;" width="171" x="661.77" y="509.5883"/><text fill="#000000" font-family="sans-serif" font-size="20" lengthAdjust="spacing" textLength="77" x="708.77" y="533.9242">Request</text><line style="stroke:#181818;stroke-width:0.5;" x1="662.77" x2="831.77" y1="543.143" y2="543.143"/><text fill="#000000" font-family="sans-serif" font-size="20" lengthAdjust="spacing" textLength="159" x="667.77" y="566.4789">TransactionType</text></g><!--reverse link Person to Owner--><g id="link_Person_Owner"><path d="M905.28,432.5083 C874.54,450.2883 841.08,467.2983 808.27,479.5883 C738.88,505.5883 716.76,494.2483 644.27,509.5883 C611.31,516.5683 573.98,525.6783 547.63,532.3183 " fill="none" id="Person-backto-Owner" style="stroke:#181818;stroke-width:1.0;"/><polygon fill="none" points="901.27,426.1583,922.04,421.9783,908.4,438.1983,901.27,426.1583" style="stroke:#181818;stroke-width:1.0;"/></g><!--reverse link Residency to Apartment--><g id="link_Residency_Apartment"><path d="M535.3,984.9683 C504.92,1018.1483 471.02,1055.1583 450.69,1077.3583 " fill="none" id="Residency-backto-Apartment" style="stroke:#181818;stroke-width:1.0;"/><polygon fill="none" points="529.74,980.5883,548.41,970.5683,540.06,990.0483,529.74,980.5883" style="stroke:#181818;stroke-width:1.0;"/></g><!--reverse link Residency to House--><g id="link_Residency_House"><path d="M600.27,990.5683 C600.27,1012.1283 600.27,1034.8483 600.27,1053.7683 " fill="none" id="Residency-backto-House" style="stroke:#181818;stroke-width:1.0;"/><polygon fill="none" points="593.27,990.5683,600.27,970.5683,607.27,990.5683,593.27,990.5683" style="stroke:#181818;stroke-width:1.0;"/></g><!--reverse link Property to Residency--><g id="link_Property_Residency"><path d="M600.27,793.1383 C600.27,814.2583 600.27,836.7783 600.27,856.4683 " fill="none" id="Property-backto-Residency" style="stroke:#181818;stroke-width:1.0;"/><polygon fill="none" points="593.27,793.2283,600.27,773.2283,607.27,793.2283,593.27,793.2283" style="stroke:#181818;stroke-width:1.0;"/></g><!--reverse link Property to Land--><g id="link_Property_Land"><path d="M674.06,786.9683 C696.21,808.8683 720.21,833.4383 741.27,856.9183 C751.32,868.1283 761.87,881.2883 770.12,891.9383 " fill="none" id="Property-backto-Land" style="stroke:#181818;stroke-width:1.0;"/><polygon fill="none" points="669.46,792.2883,660.07,773.2883,679.26,782.2883,669.46,792.2883" style="stroke:#181818;stroke-width:1.0;"/></g><!--link Agency to Agent--><g id="link_Agency_Agent"><path codeLine="89" d="M856.06,154.8583 C763.45,205.9383 610.38,290.3683 544.74,326.5683 " fill="none" id="Agency-Agent" style="stroke:#181818;stroke-width:1.0;"/><polygon fill="#000000" points="748.2649,226.9093,763.2083,224.0373,758.6662,215.8023,748.2649,226.9093" style="stroke:#000000;stroke-width:1.0;"/><text fill="#000000" font-family="sans-serif" font-size="20" lengthAdjust="spacing" textLength="33" x="768.27" y="230.6042">has</text><text fill="#000000" font-family="sans-serif" font-size="20" lengthAdjust="spacing" textLength="13" x="835.272" y="154.1737">1</text><text fill="#000000" font-family="sans-serif" font-size="20" lengthAdjust="spacing" textLength="10" x="552.2619" y="316.8033">*</text></g><!--link Agent to Owner--><g id="link_Agent_Owner"><path codeLine="90" d="M513.27,366.0883 C513.27,403.5883 513.27,483.6783 513.27,521.0983 " fill="none" id="Agent-Owner" style="stroke:#181818;stroke-width:1.0;"/><polygon fill="#000000" points="521.27,475.3656,525.9723,460.8935,516.5677,460.8935,521.27,475.3656" style="stroke:#000000;stroke-width:1.0;"/><text fill="#000000" font-family="sans-serif" font-size="20" lengthAdjust="spacing" textLength="122" x="534.27" y="474.9242">contacted by</text><text fill="#000000" font-family="sans-serif" font-size="20" lengthAdjust="spacing" textLength="13" x="498.7669" y="393.0416">1</text><text fill="#000000" font-family="sans-serif" font-size="20" lengthAdjust="spacing" textLength="13" x="498.6044" y="509.165">1</text></g><!--link Agent to Property--><g id="link_Agent_Property"><path codeLine="91" d="M482.02,349.8483 C370.81,365.1383 6,427.2983 104.27,574.6983 C147.89,640.1283 365.39,681.7583 497.46,701.4283 " fill="none" id="Agent-Property" style="stroke:#181818;stroke-width:1.0;"/><polygon fill="#000000" points="112.621,550.4179,116.6838,535.7534,107.2883,536.166,112.621,550.4179" style="stroke:#000000;stroke-width:1.0;"/><text fill="#000000" font-family="sans-serif" font-size="20" lengthAdjust="spacing" textLength="93" x="125.27" y="549.9842">publishes</text><text fill="#000000" font-family="sans-serif" font-size="20" lengthAdjust="spacing" textLength="10" x="464.0903" y="344.8061">*</text><text fill="#000000" font-family="sans-serif" font-size="20" lengthAdjust="spacing" textLength="10" x="479.8796" y="695.9641">*</text></g><!--link Agent to Property--><g id="link_Agent_Property"><path codeLine="92" d="M481.92,357.8583 C404.8,389.0283 216.59,477.3083 280.27,574.6983 C328.06,647.7983 423.34,682.9883 497.55,699.7983 " fill="none" id="Agent-Property-1" style="stroke:#181818;stroke-width:1.0;"/><polygon fill="#000000" points="288.6353,550.4173,292.6718,535.7455,283.2771,536.175,288.6353,550.4173" style="stroke:#000000;stroke-width:1.0;"/><text fill="#000000" font-family="sans-serif" font-size="20" lengthAdjust="spacing" textLength="160" x="301.27" y="549.9842">sets commission</text><text fill="#000000" font-family="sans-serif" font-size="20" lengthAdjust="spacing" textLength="13" x="461.1134" y="382.2907">1</text><text fill="#000000" font-family="sans-serif" font-size="20" lengthAdjust="spacing" textLength="10" x="479.6393" y="718.8234">*</text></g><!--link Owner to Property--><g id="link_Owner_Property"><path codeLine="93" d="M523.42,563.1783 C535.3,586.6083 555.47,626.4083 572.16,659.3583 " fill="none" id="Owner-Property" style="stroke:#181818;stroke-width:1.0;"/><polygon fill="#000000" points="567.8862,624.6116,565.5389,609.5769,557.15,613.828,567.8862,624.6116" style="stroke:#000000;stroke-width:1.0;"/><text fill="#000000" font-family="sans-serif" font-size="20" lengthAdjust="spacing" textLength="49" x="577.27" y="625.0342">owns</text><text fill="#000000" font-family="sans-serif" font-size="20" lengthAdjust="spacing" textLength="13" x="511.2641" y="590.1015">1</text><text fill="#000000" font-family="sans-serif" font-size="20" lengthAdjust="spacing" textLength="10" x="558.1247" y="647.4467">*</text></g><!--link Owner to Request--><g id="link_Owner_Request"><path codeLine="94" d="M547.29,542.1483 C577.15,542.1483 621.84,542.1483 661.41,542.1483 " fill="none" id="Owner-Request" style="stroke:#181818;stroke-width:1.0;"/><polygon fill="#000000" points="580.52,526.9256,566.0479,522.2233,566.0479,531.6279,580.52,526.9256" style="stroke:#000000;stroke-width:1.0;"/><text fill="#000000" font-family="sans-serif" font-size="20" lengthAdjust="spacing" textLength="58" x="585.52" y="534.4842">create</text><text fill="#000000" font-family="sans-serif" font-size="20" lengthAdjust="spacing" textLength="13" x="555.2674" y="536.2753">1</text><text fill="#000000" font-family="sans-serif" font-size="20" lengthAdjust="spacing" textLength="13" x="640.7614" y="537.5553">1</text></g><!--link Request to Property--><g id="link_Request_Property"><path codeLine="95" d="M719.96,575.0383 C699.7,598.6883 671.57,631.5483 647.67,659.4583 " fill="none" id="Request-Property" style="stroke:#181818;stroke-width:1.0;"/><polygon fill="#000000" points="693.0666,623.5522,706.0514,615.6181,698.908,609.5011,693.0666,623.5522" style="stroke:#000000;stroke-width:1.0;"/><text fill="#000000" font-family="sans-serif" font-size="20" lengthAdjust="spacing" textLength="62" x="711.27" y="625.0342">has an</text><text fill="#000000" font-family="sans-serif" font-size="20" lengthAdjust="spacing" textLength="13" x="701.1489" y="602.0523">1</text><text fill="#000000" font-family="sans-serif" font-size="20" lengthAdjust="spacing" textLength="13" x="639.6547" y="647.5589">1</text></g><!--link Request to Agent--><g id="link_Request_Agent"><path codeLine="96" d="M719.79,509.2883 C704.47,492.2883 684.62,471.4483 665.27,454.5883 C626.01,420.3983 576.23,386.3683 544.55,365.7383 " fill="none" id="Request-Agent" style="stroke:#181818;stroke-width:1.0;"/><polygon fill="#000000" points="693.0813,462.2961,701.297,475.1046,707.2565,467.8293,693.0813,462.2961" style="stroke:#000000;stroke-width:1.0;"/><text fill="#000000" font-family="sans-serif" font-size="20" lengthAdjust="spacing" textLength="87" x="712.27" y="474.9242">is sent to</text><text fill="#000000" font-family="sans-serif" font-size="20" lengthAdjust="spacing" textLength="13" x="700.5249" y="497.4975">1</text><text fill="#000000" font-family="sans-serif" font-size="20" lengthAdjust="spacing" textLength="13" x="537.5901" y="393.018">1</text></g><!--link Request to Rent--><g id="link_Request_Rent"><path codeLine="97" d="M833.09,542.1483 C861.62,542.1483 893.38,542.1483 921.95,542.1483 " fill="none" id="Request-Rent" style="stroke:#181818;stroke-width:1.0;"/><polygon fill="#000000" points="866.02,526.9256,851.5479,522.2233,851.5479,531.6279,866.02,526.9256" style="stroke:#000000;stroke-width:1.0;"/><text fill="#000000" font-family="sans-serif" font-size="20" lengthAdjust="spacing" textLength="33" x="871.02" y="534.4842">has</text><text fill="#000000" font-family="sans-serif" font-size="20" lengthAdjust="spacing" textLength="13" x="840.7353" y="537.5553">1</text><text fill="#000000" font-family="sans-serif" font-size="20" lengthAdjust="spacing" textLength="13" x="901.2633" y="537.5553">1</text></g><!--link Address to State--><g id="link_Address_State"><path codeLine="98" d="M1227.77,772.3483 C1222.91,790.0183 1216.96,809.4883 1210.27,826.9183 C1201.47,849.8383 1188.69,874.9083 1179.54,891.8683 " fill="none" id="Address-State" style="stroke:#181818;stroke-width:1.0;"/><polygon fill="#000000" points="1229.2637,807.2769,1219.4874,818.9379,1228.2087,822.4572,1229.2637,807.2769" style="stroke:#000000;stroke-width:1.0;"/><text fill="#000000" font-family="sans-serif" font-size="20" lengthAdjust="spacing" textLength="86" x="1239.27" y="822.2542">is part of</text><text fill="#000000" font-family="sans-serif" font-size="20" lengthAdjust="spacing" textLength="13" x="1212.5825" y="799.1565">1</text><text fill="#000000" font-family="sans-serif" font-size="20" lengthAdjust="spacing" textLength="13" x="1167.7623" y="879.9068">1</text></g><!--link City to District--><g id="link_City_District"><path codeLine="99" d="M1128.45,559.6783 C1115.6,570.8183 1100.5,586.7283 1093.27,604.6983 C1081.35,634.3183 1084.13,672.1583 1087.5,694.8783 " fill="none" id="City-District" style="stroke:#181818;stroke-width:1.0;"/><polygon fill="#000000" points="1098.951,625.1321,1107.6465,612.6445,1098.6458,609.9183,1098.951,625.1321" style="stroke:#000000;stroke-width:1.0;"/><text fill="#000000" font-family="sans-serif" font-size="20" lengthAdjust="spacing" textLength="100" x="1114.27" y="625.0342">are part of</text><text fill="#000000" font-family="sans-serif" font-size="20" lengthAdjust="spacing" textLength="10" x="1110.9069" y="557.7889">*</text><text fill="#000000" font-family="sans-serif" font-size="20" lengthAdjust="spacing" textLength="13" x="1071.8683" y="682.9732">1</text></g><!--link District to State--><g id="link_District_State"><path codeLine="100" d="M1083.66,736.7683 C1076.24,759.5283 1067.74,797.3883 1080.27,826.9183 C1092.63,856.0783 1120.41,880.1283 1141.48,895.1383 " fill="none" id="District-State" style="stroke:#181818;stroke-width:1.0;"/><polygon fill="#000000" points="1091.0136,822.2104,1090.4675,807.0033,1081.6333,810.2287,1091.0136,822.2104" style="stroke:#000000;stroke-width:1.0;"/><text fill="#000000" font-family="sans-serif" font-size="20" lengthAdjust="spacing" textLength="100" x="1101.27" y="822.2542">are part of</text><text fill="#000000" font-family="sans-serif" font-size="20" lengthAdjust="spacing" textLength="10" x="1070.5863" y="764.0822">*</text><text fill="#000000" font-family="sans-serif" font-size="20" lengthAdjust="spacing" textLength="13" x="1120.7817" y="884.7425">1</text></g><!--link Property to Photos--><g id="link_Property_Photos"><path codeLine="101" d="M544.05,772.0883 C518.11,797.7583 486.98,828.7483 459.27,856.9183 C448,868.3683 435.55,881.3083 425.54,891.7683 " fill="none" id="Property-Photos" style="stroke:#181818;stroke-width:1.0;"/><polygon fill="#000000" points="514.641,820.3802,528.1653,813.4054,521.4826,806.7881,514.641,820.3802" style="stroke:#000000;stroke-width:1.0;"/><text fill="#000000" font-family="sans-serif" font-size="20" lengthAdjust="spacing" textLength="33" x="533.27" y="822.2542">has</text><text fill="#000000" font-family="sans-serif" font-size="20" lengthAdjust="spacing" textLength="13" x="523.798" y="799.2934">1</text><text fill="#000000" font-family="sans-serif" font-size="20" lengthAdjust="spacing" textLength="10" x="419.0183" y="880.1872">*</text></g><!--link Residency to Equipment--><g id="link_Residency_Equipment"><path codeLine="104" d="M660.82,969.5683 C695.08,1000.9883 736.7,1039.1683 765.5,1065.5883 " fill="none" id="Residency-Equipment" style="stroke:#181818;stroke-width:1.0;"/><polygon fill="#000000" points="731.1655,1017.3234,723.6791,1004.0754,717.3219,1011.0059,731.1655,1017.3234" style="stroke:#000000;stroke-width:1.0;"/><text fill="#000000" font-family="sans-serif" font-size="20" lengthAdjust="spacing" textLength="33" x="738.27" y="1019.4742">has</text><text fill="#000000" font-family="sans-serif" font-size="20" lengthAdjust="spacing" textLength="13" x="653.7317" y="996.3765">1</text><text fill="#000000" font-family="sans-serif" font-size="20" lengthAdjust="spacing" textLength="10" x="748.1674" y="1053.7919">*</text></g><!--link Person to Address--><g id="link_Person_Address"><path codeLine="105" d="M1122.32,424.7583 C1146.69,449.9183 1171.3,479.1783 1189.27,509.5883 C1216.56,555.7983 1229.63,616.0483 1235.83,659.2983 " fill="none" id="Person-Address" style="stroke:#181818;stroke-width:1.0;"/><polygon fill="#000000" points="1227.7551,549.6266,1225.6832,534.5514,1217.2179,538.6484,1227.7551,549.6266" style="stroke:#000000;stroke-width:1.0;"/><text fill="#000000" font-family="sans-serif" font-size="20" lengthAdjust="spacing" textLength="33" x="1237.27" y="549.9842">has</text><text fill="#000000" font-family="sans-serif" font-size="20" lengthAdjust="spacing" textLength="13" x="1116.4141" y="451.9664">1</text><text fill="#000000" font-family="sans-serif" font-size="20" lengthAdjust="spacing" textLength="10" x="1224.5576" y="647.3794">*</text></g><!--link Property to Address--><g id="link_Property_Address"><path codeLine="106" d="M703.2,671.1383 C753.71,651.5883 816.07,630.9083 874.27,621.1383 C994.68,600.9183 1032.34,615.7883 1146.27,659.6983 C1155.29,663.1783 1164.46,667.4683 1173.35,672.1183 " fill="none" id="Property-Address" style="stroke:#181818;stroke-width:1.0;"/><polygon fill="#000000" points="890.27,617.4923,875.8077,612.7599,875.7881,622.1644,890.27,617.4923" style="stroke:#000000;stroke-width:1.0;"/><text fill="#000000" font-family="sans-serif" font-size="20" lengthAdjust="spacing" textLength="62" x="895.27" y="625.0342">has an</text><text fill="#000000" font-family="sans-serif" font-size="20" lengthAdjust="spacing" textLength="13" x="710.8943" y="663.5443">1</text><text fill="#000000" font-family="sans-serif" font-size="20" lengthAdjust="spacing" textLength="13" x="1152.6754" y="662.7914">1</text></g><!--link House to SunExposure--><g id="link_House_SunExposure"><path codeLine="107" d="M600.27,1143.1083 C600.27,1171.0983 600.27,1206.0983 600.27,1227.6483 " fill="none" id="House-SunExposure" style="stroke:#181818;stroke-width:1.0;"/><polygon fill="#000000" points="608.27,1193.5856,612.9723,1179.1135,603.5677,1179.1135,608.27,1193.5856" style="stroke:#000000;stroke-width:1.0;"/><text fill="#000000" font-family="sans-serif" font-size="20" lengthAdjust="spacing" textLength="131" x="621.27" y="1193.1442">has a value of</text><text fill="#000000" font-family="sans-serif" font-size="20" lengthAdjust="spacing" textLength="13" x="586.3966" y="1170.025">1</text><text fill="#000000" font-family="sans-serif" font-size="20" lengthAdjust="spacing" textLength="13" x="585.6044" y="1215.7432">1</text></g><!--link Agency to Address--><g id="link_Agency_Address"><path codeLine="108" d="M1006.72,149.6283 C1055.74,176.1783 1118.27,216.0983 1161.27,265.2683 C1258.16,376.0583 1298.7,428.7983 1279.27,574.6983 C1275.49,603.0583 1267.59,633.8083 1259.97,659.2583 " fill="none" id="Agency-Address" style="stroke:#181818;stroke-width:1.0;"/><polygon fill="#000000" points="1293.8301,474.5298,1291.6008,459.4771,1283.1788,463.6622,1293.8301,474.5298" style="stroke:#000000;stroke-width:1.0;"/><text fill="#000000" font-family="sans-serif" font-size="20" lengthAdjust="spacing" textLength="62" x="1303.27" y="474.9242">has an</text><text fill="#000000" font-family="sans-serif" font-size="20" lengthAdjust="spacing" textLength="13" x="1014.2748" y="148.3639">1</text><text fill="#000000" font-family="sans-serif" font-size="20" lengthAdjust="spacing" textLength="13" x="1248.4569" y="647.3345">1</text></g><!--SRC=[VLJRJjn037tFLupsfL8bfBQFg4BQxeAAH06n_80tyMv69ECmTWeBuj_hpEGosQxW0JBscUDZ-mpyP5q37kgAyYSiJ84xQ2kv8YSR-uRcnxUC1uYfoL5UUghHY6ynoJIGFy4UDtAeq7ZC1To-IW5SGa4lrktD3YfECta5p4iHRxUju7LEBXJ-bfMsG9DRdojH-AvHIYeuoyIAbbbJ3TQPFrHWbMM1njozEFG6NmLTmUOUFPCpxzb7DW2MUtGI8p4GCU-PqHy7DOQFHZCDULc1BsxRUei-X0LUanDg-Ih6iSAc98TzzYEjbXyY-VLwNYDSNnQ5H-POz1J3lQS6lVGSu172Hs5PHvpZbIvZfHtraXflSqmkboJ4QRSFiViEguCM3xciMmzYoIMgewW8O_684eiI-QJ_DzkiTFRJlPNjT8x7jMfKFPA4DWA2oNcf5f2wqpIix05PLns6Dg9-Kyju2j6fs09Znn0ErfMmjGBR2cze9sdV_QN96xF1kj3MtUuN5fwevdaGfFm_UWzUFRpVgFLHFJcMkW5NdAWovY-VMzjqYcDb78wtdJ6cIRNkyhKXRZtErlVS8klDHm-ETNcwjyT34-v5hvd5zuKvEpEBhulezNDJ0fkBB1f_oEgV-5JEWm-KIT_-zZ3Xz7ea6JeuDqsxhIoNUCHsX68KLiwwjiogJh6nq2ailJW-1kZllakLfdONL4GVIULFB5r_u4wZ-X5OLbqgMEWOrXTCvXJDdv84rvh0qldLqCxyp3gpnp55qE1snUah7O4NsPX8m0FZ73cqbEumFk51t9Vu59BywAOHChsfps3JW_WCrVy3JJqLnpC2PfBZo5D4sCjSTDV-PEuUPlv2rM8Smv6HJr9c_m00]--></g></svg>